<svg xmlns="http://www.w3.org/2000/svg" width="64" height="64" viewBox="0 0 64 64">
  <g fill="none" fill-rule="evenodd">
    <path fill="#22BA8E" d="M44.3800958,27.2085229 L42.8076118,25.636039 L45.636039,22.8076118 L47.2085229,24.3800958 C48.0544216,23.8470663 48.9952899,23.4509973 50,23.2230164 L50,21 L54,21 L54,23.2230164 C55.0047101,23.4509973 55.9455784,23.8470663 56.7914771,24.3800958 L58.363961,22.8076118 L61.1923882,25.636039 L59.6199042,27.2085229 C60.1529337,28.0544216 60.5490027,28.9952899 60.7769836,30 L63,30 L63,34 L60.7769836,34 C60.5490027,35.0047101 60.1529337,35.9455784 59.6199042,36.7914771 L61.1923882,38.363961 L58.363961,41.1923882 L56.7914771,39.6199042 C55.9455784,40.1529337 55.0047101,40.5490027 54,40.7769836 L54,43 L50,43 L50,40.7769836 C48.9952899,40.5490027 48.0544216,40.1529337 47.2085229,39.6199042 L45.636039,41.1923882 L42.8076118,38.363961 L44.3800958,36.7914771 C43.8470663,35.9455784 43.4509973,35.0047101 43.2230164,34 L41,34 L41,30 L43.2230164,30 C43.4509973,28.9952899 43.8470663,28.0544216 44.3800958,27.2085229 Z M52,35 C53.6568542,35 55,33.6568542 55,32 C55,30.3431458 53.6568542,29 52,29 C50.3431458,29 49,30.3431458 49,32 C49,33.6568542 50.3431458,35 52,35 Z"/>
    <path stroke="#979797" stroke-linecap="square" stroke-width="2" d="M24,31.9474411 L40,31.9474411"/>
    <path fill="#595959" d="M1,45.0023695 C1,42.7919219 2.78716697,40.7942228 4.96428975,40.5435455 L18,39.0425936 L31.0357102,40.5435455 C33.225127,40.7956384 35,42.7918218 35,45.0023695 L35,52 L1,52 L1,45.0023695 Z"/>
    <path fill="#FFDD95" d="M12,33.3164468 C8.98979073,30.470456 7,25.8615543 7,22 C7,15.9248678 11.9248678,11 18,11 C24.0751322,11 29,15.9248678 29,22 C29,25.8615543 27.0102093,30.470456 24,33.3164468 L24,39.7734539 C24,39.7734539 19.9325778,41 18,41 C16.0674222,41 12,39.7734539 12,39.7734539 L12,33.3164468 Z"/>
    <circle cx="9" cy="27" r="3" fill="#FFDD95"/>
    <circle cx="27" cy="27" r="3" fill="#FFDD95"/>
    <polygon fill="#FFF" points="10 38.947 17.998 40.825 10 44.947"/>
    <polyline fill="#FFF" points="26.081 38.947 18 40.798 26.081 44.947"/>
    <path stroke="#979797" stroke-linecap="square" stroke-width="2" d="M36 12L36 32M36 12L48 12"/>
    <circle cx="52" cy="12" r="4" stroke="#979797" stroke-linecap="round" stroke-width="2"/>
  </g>
</svg>
