<svg xmlns="http://www.w3.org/2000/svg" width="64" height="64" viewBox="0 0 64 64">
  <g fill="none" fill-rule="evenodd">
    <path fill="#5B68C0" d="M61,22.3114038 C61,43.1373865 48.7824319,57.5302596 32.5,61.6815487 C16.2175681,57.5302596 4,43.1373865 4,22.3114038 C4,17.9864771 4.52690374,13.8096091 5.50769464,9.86864574 C8.34082182,11.8425602 11.7852436,13 15.5,13 C23.727788,13 27.9689741,1.03261319 32.5,1.03261319 C37.3130465,1.03261319 41.272212,13 49.5,13 C53.2147564,13 56.6591782,11.8425602 59.4923047,9.86864138 C60.4730963,13.8096091 61,17.9864771 61,22.3114038 Z"/>
    <path fill="#FFDD95" d="M27,37.3164468 C23.9897907,34.470456 22,29.8615543 22,26 C22,19.9248678 26.9248678,15 33,15 C39.0751322,15 44,19.9248678 44,26 C44,29.8615543 42.0102093,34.470456 39,37.3164468 L39,44 C39,44 34.9325778,45.4486507 33,45.4486507 C31.0674222,45.4486507 27,44 27,44 L27,37.3164468 Z"/>
    <polygon fill="#FFF" points="25 43 32.998 44.878 25 49"/>
    <polyline fill="#FFF" points="41.081 43 33 44.851 41.081 49"/>
    <circle cx="24" cy="31" r="3" fill="#FFDD95"/>
    <circle cx="42" cy="31" r="3" fill="#FFDD95"/>
  </g>
</svg>
