<svg xmlns="http://www.w3.org/2000/svg" width="64" height="64" viewBox="0 0 64 64">
  <g fill="none" fill-rule="evenodd">
    <path fill="#FFAF40" d="M31,9 L34,9 L34,18 L31,18 L31,9 Z M48.0563492,14.8223305 L50.1776695,16.9436508 L43.8137085,23.3076118 L41.6923882,21.1862915 L48.0563492,14.8223305 Z M56,31 L56,34 L47,34 L47,31 L56,31 Z M50.1776695,48.0563492 L48.0563492,50.1776695 L41.6923882,43.8137085 L43.8137085,41.6923882 L50.1776695,48.0563492 Z M34,56 L31,56 L31,47 L34,47 L34,56 Z M16.9436508,50.1776695 L14.8223305,48.0563492 L21.1862915,41.6923882 L23.3076118,43.8137085 L16.9436508,50.1776695 Z M9,34 L9,31 L18,31 L18,34 L9,34 Z M14.8223305,16.9436508 L16.9436508,14.8223305 L23.3076118,21.1862915 L21.1862915,23.3076118 L14.8223305,16.9436508 Z"/>
    <circle cx="32.5" cy="32.5" r="15.5" fill="#595959"/>
    <path fill="#FFAF40" d="M32.5,10 C30.5670034,10 29,8.43299662 29,6.5 C29,4.56700338 30.5670034,3 32.5,3 C34.4329966,3 36,4.56700338 36,6.5 C36,8.43299662 34.4329966,10 32.5,10 Z M48.4099026,16.5900974 C47.0430676,15.2232624 47.0430676,13.007185 48.4099026,11.64035 C49.7767376,10.2735149 51.992815,10.2735149 53.35965,11.64035 C54.7264851,13.007185 54.7264851,15.2232624 53.35965,16.5900974 C51.992815,17.9569324 49.7767376,17.9569324 48.4099026,16.5900974 Z M55,32.5 C55,30.5670034 56.5670034,29 58.5,29 C60.4329966,29 62,30.5670034 62,32.5 C62,34.4329966 60.4329966,36 58.5,36 C56.5670034,36 55,34.4329966 55,32.5 Z M48.4099026,48.4099026 C49.7767376,47.0430676 51.992815,47.0430676 53.35965,48.4099026 C54.7264851,49.7767376 54.7264851,51.992815 53.35965,53.35965 C51.992815,54.7264851 49.7767376,54.7264851 48.4099026,53.35965 C47.0430676,51.992815 47.0430676,49.7767376 48.4099026,48.4099026 Z M32.5,55 C34.4329966,55 36,56.5670034 36,58.5 C36,60.4329966 34.4329966,62 32.5,62 C30.5670034,62 29,60.4329966 29,58.5 C29,56.5670034 30.5670034,55 32.5,55 Z M16.5900974,48.4099026 C17.9569324,49.7767376 17.9569324,51.992815 16.5900974,53.35965 C15.2232624,54.7264851 13.007185,54.7264851 11.64035,53.35965 C10.2735149,51.992815 10.2735149,49.7767376 11.64035,48.4099026 C13.007185,47.0430676 15.2232624,47.0430676 16.5900974,48.4099026 Z M10,32.5 C10,34.4329966 8.43299662,36 6.5,36 C4.56700338,36 3,34.4329966 3,32.5 C3,30.5670034 4.56700338,29 6.5,29 C8.43299662,29 10,30.5670034 10,32.5 Z M16.5900974,16.5900974 C15.2232624,17.9569324 13.007185,17.9569324 11.64035,16.5900974 C10.2735149,15.2232624 10.2735149,13.007185 11.64035,11.64035 C13.007185,10.2735149 15.2232624,10.2735149 16.5900974,11.64035 C17.9569324,13.007185 17.9569324,15.2232624 16.5900974,16.5900974 Z"/>
    <path fill="#80D25B" d="M24,37.904899 C24,36.8011519 24.8935835,35.8111018 25.9928723,35.6938803 L32.5,35 L39.0071277,35.6938803 C40.1077607,35.8112451 41,36.7936275 41,37.904899 L41,41 L24,41 L24,37.904899 Z"/>
    <path fill="#FFDD95" d="M29.5,31.9938107 C27.9948954,30.5917827 27,28.3212872 27,26.4189593 C27,23.4261507 29.4624339,21 32.5,21 C35.5375661,21 38,23.4261507 38,26.4189593 C38,28.3212872 37.0051046,30.5917827 35.5,31.9938107 L35.5,35.2863473 C35.5,35.2863473 33.4662889,36 32.5,36 C31.5337111,36 29.5,35.2863473 29.5,35.2863473 L29.5,31.9938107 Z"/>
  </g>
</svg>
