<svg xmlns="http://www.w3.org/2000/svg" width="64" height="64" viewBox="0 0 64 64">
  <g fill="none" fill-rule="evenodd">
    <path stroke="#FFAF40" stroke-linecap="square" stroke-width="2" d="M33,53 L33,39"/>
    <path stroke="#FFAF40" stroke-linecap="round" stroke-width="2" d="M13,54 L13,48.9999433 L13,48.9999433 C13,46.7908356 14.7964248,45 17.0000255,45 L48.9999745,45 C51.2091276,45 53,46.7996535 53,48.9999433 L53,54"/>
    <rect width="10" height="9" x="8" y="54" fill="#5B68C0"/>
    <rect width="10" height="9" x="48" y="54" fill="#22BA8E"/>
    <rect width="10" height="9" x="28" y="54" fill="#FFAF40"/>
    <path fill="#F5413E" d="M16,34.0023695 C16,31.7919219 17.787167,29.7942228 19.9642898,29.5435455 L33,28.0425936 L46.0357102,29.5435455 C48.225127,29.7956384 50,31.7918218 50,34.0023695 L50,41 L16,41 L16,34.0023695 Z"/>
    <path fill="#FFDD95" d="M27,23.3164468 C23.9897907,20.470456 22,15.8615543 22,12 C22,5.92486775 26.9248678,1 33,1 C39.0751322,1 44,5.92486775 44,12 C44,15.8615543 42.0102093,20.470456 39,23.3164468 L39,30 C39,30 34.9325778,31.4486507 33,31.4486507 C31.0674222,31.4486507 27,30 27,30 L27,23.3164468 Z"/>
    <circle cx="24" cy="17" r="3" fill="#FFDD95"/>
    <circle cx="42" cy="17" r="3" fill="#FFDD95"/>
  </g>
</svg>
