<svg xmlns="http://www.w3.org/2000/svg" width="64" height="64" viewBox="0 0 64 64">
  <g fill="none" fill-rule="evenodd">
    <path fill="#FFAF40" d="M24.7601916,14.4170459 L21.6152237,11.2720779 L27.2720779,5.61522369 L30.4170459,8.76019161 C32.1088432,7.69413262 33.9905797,6.9019945 36,6.44603285 L36,2 L44,2 L44,6.44603285 C46.0094203,6.9019945 47.8911568,7.69413262 49.5829541,8.76019161 L52.7279221,5.61522369 L58.3847763,11.2720779 L55.2398084,14.4170459 C56.3058674,16.1088432 57.0980055,17.9905797 57.5539672,20 L62,20 L62,28 L57.5539672,28 C57.0980055,30.0094203 56.3058674,31.8911568 55.2398084,33.5829541 L58.3847763,36.7279221 L52.7279221,42.3847763 L49.5829541,39.2398084 C47.8911568,40.3058674 46.0094203,41.0980055 44,41.5539672 L44,46 L36,46 L36,41.5539672 C33.9905797,41.0980055 32.1088432,40.3058674 30.4170459,39.2398084 L27.2720779,42.3847763 L21.6152237,36.7279221 L24.7601916,33.5829541 C23.6941326,31.8911568 22.9019945,30.0094203 22.4460328,28 L18,28 L18,20 L22.4460328,20 C22.9019945,17.9905797 23.6941326,16.1088432 24.7601916,14.4170459 Z M40,30 C43.3137085,30 46,27.3137085 46,24 C46,20.6862915 43.3137085,18 40,18 C36.6862915,18 34,20.6862915 34,24 C34,27.3137085 36.6862915,30 40,30 Z" transform="rotate(-30 40 24)"/>
    <path fill="#BD7575" d="M1,55.0023695 C1,52.7919219 2.78716697,50.7942228 4.96428975,50.5435455 L18,49.0425936 L31.0357102,50.5435455 C33.225127,50.7956384 35,52.7918218 35,55.0023695 L35,62 L1,62 L1,55.0023695 Z"/>
    <path fill="#FFDD95" d="M12,44.3164468 C8.98979073,41.470456 7,36.8615543 7,33 C7,26.9248678 11.9248678,22 18,22 C24.0751322,22 29,26.9248678 29,33 C29,36.8615543 27.0102093,41.470456 24,44.3164468 L24,51 C24,51 19.9325778,52.4486507 18,52.4486507 C16.0674222,52.4486507 12,51 12,51 L12,44.3164468 Z"/>
    <circle cx="9" cy="38" r="3" fill="#FFDD95"/>
    <circle cx="27" cy="38" r="3" fill="#FFDD95"/>
  </g>
</svg>
