<svg xmlns="http://www.w3.org/2000/svg" width="64" height="64" viewBox="0 0 64 64">
  <g fill="none" fill-rule="evenodd">
    <path fill="#B4DFFB" d="M32,5 L48.5950676,36.3462389 C49.3709904,37.8118707 48.6544607,39 46.9925801,39 L17.0074199,39 C15.3464677,39 14.6300752,37.8098579 15.4049324,36.3462389 L32,5 Z" transform="rotate(180 32 22)"/>
    <path fill="#B4DFFB" d="M8.78246761,62 C4.54361746,56.8263502 2,50.2102219 2,43 C2,26.4314575 15.4314575,13 32,13 C48.5685425,13 62,26.4314575 62,43 C62,50.2102219 59.4563825,56.8263502 55.2175324,62 L8.78246761,62 Z"/>
    <path fill="#5EA7FF" d="M8.35260531,28 C5.596412,32.3360509 4,37.4815944 4,43 C4,49.3935047 6.14286957,55.2865155 9.74957649,60 L54.2504235,60 C57.8571304,55.2865155 60,49.3935047 60,43 C60,37.4815944 58.403588,32.3360509 55.6473947,28 L8.35260531,28 Z"/>
    <circle cx="17" cy="35" r="3" stroke="#B4DFFB" stroke-linecap="round" stroke-width="2"/>
    <circle cx="33.5" cy="21.5" r="2.5" stroke="#5EA7FF" stroke-linecap="round" stroke-width="2"/>
    <path fill="#FFAF40" d="M26,45.5 C27.4434647,42.3060684 31.577552,40 36.4522295,40 C41.326907,40 45.4609943,42.3060684 46.904459,45.5 C45.4609943,48.6939316 41.326907,51 36.4522295,51 C31.577552,51 27.4434647,48.6939316 26,45.5 Z"/>
    <circle cx="30" cy="45" r="1" fill="#595959"/>
    <polygon fill="#FFAF40" points="45 45.5 51 42 51 49"/>
  </g>
</svg>
