<svg xmlns="http://www.w3.org/2000/svg" width="64" height="64" viewBox="0 0 64 64">
  <g fill="none" fill-rule="evenodd">
    <rect width="58" height="58" x="3" y="4" fill="#D650C7"/>
    <polygon fill="#0A3586" points="6 7 58 7 58 59 6 59"/>
    <path fill="#D650C7" d="M34.52,39.84 C34.3333324,40.1866684 33.9200032,40.3999996 33.28,40.48 C33.2266664,40.48 32.6533388,40.5066664 31.56,40.56 C31.7466676,41.760006 32.439994,43.2533244 33.64,45.04 C34.3333368,45.5466692 34.68,46.2133292 34.68,47.04 C34.68,48.3466732 33.880008,49 32.28,49 C30.7599924,49 29.7200028,48.6133372 29.16,47.84 C28.9733324,47.573332 28.8533336,47.2133356 28.8,46.76 C28.8,46.4666652 28.7866668,46.1600016 28.76,45.84 C28.5199988,45.5999988 27.800006,44.0533476 26.6,41.2 C24.4133224,41.5200016 21.720016,41.9733304 18.52,42.56 C18.1999984,43.3333372 17.8533352,44.453326 17.48,45.92 C17.5333336,46.186668 17.56,46.4399988 17.56,46.68 C17.56,47.4000036 17.3200024,47.9533314 16.84,48.34 C16.3599976,48.7266686 15.78667,48.92 15.12,48.92 C14.3733296,48.92 13.6800032,48.6400028 13.04,48.08 C12.3999968,47.5199972 12.08,46.8666704 12.08,46.12 C12.08,45.45333 12.3866636,44.853336 13,44.32 C15.00001,34.1599492 17.4266524,25.7600332 20.28,19.12 C20.2266664,18.7999984 20.2,18.4800016 20.2,18.16 C20.2,16.82666 20.6533288,15.9466688 21.56,15.52 C21.9333352,15.3599992 22.4133304,15.28 23,15.28 C24.1200056,15.28 25.0533296,15.4533316 25.8,15.8 C26.7600048,16.2800024 27.24,16.9999952 27.24,17.96 C27.24,18.8400044 27.0000024,19.6266632 26.52,20.32 C27.0266692,24.853356 28.1199916,30.0799704 29.8,36 C29.9600008,35.9733332 30.506662,35.8400012 31.44,35.6 C32.0000028,35.4399992 32.4266652,35.36 32.72,35.36 C33.0666684,35.36 33.3466656,35.4399992 33.56,35.6 C34.493338,36.3200036 34.96,37.1999948 34.96,38.24 C34.96,38.8000028 34.8133348,39.3333308 34.52,39.84 Z M24.92,36.8 C24.4666644,35.1199916 23.7466716,31.8933572 22.76,27.12 C20.8666572,31.253354 19.7466684,34.7999852 19.4,37.76 L24.92,36.8 Z M52.44,43.8 C52.2266656,44.8133384 51.5066728,45.8933276 50.28,47.04 C50.0933324,47.3333348 49.3600064,47.7199976 48.08,48.2 C46.613326,48.7600028 45.346672,49.0000004 44.28,48.92 C42.27999,48.786666 40.7066724,47.6400108 39.56,45.48 C38.5199948,43.47999 38,41.0266812 38,38.12 C38,34.9733176 38.5866608,32.2133452 39.76,29.84 C41.0666732,27.2266536 42.8133224,25.7600016 45,25.44 C45.4266688,25.3866664 45.839998,25.36 46.24,25.36 C49.4133492,25.36 51.1599984,27.3066472 51.48,31.2 C51.6400008,32.9866756 50.9333412,34.9333228 49.36,37.04 C47.6533248,39.3600116 45.46668,40.986662 42.8,41.92 C43.0933348,42.986672 43.3199992,43.6799984 43.48,44 C43.8533352,44.66667 44.3599968,45 45,45 C45.6133364,45 46.2666632,44.7600024 46.96,44.28 C47.5466696,43.879998 47.9466656,43.4933352 48.16,43.12 C48.2666672,43.0666664 48.3733328,42.7666694 48.48,42.22 C48.5866672,41.6733306 48.8666644,41.2800012 49.32,41.04 C49.4800008,40.9599996 49.6666656,40.92 49.88,40.92 C50.5200032,40.92 51.139997,41.2333302 51.74,41.86 C52.340003,42.4866698 52.573334,43.13333 52.44,43.8 Z M46.16,29.72 C45.093328,29.72 44.22667,30.4799924 43.56,32 C42.6799956,34.0266768 42.3199992,36.0266568 42.48,38 C43.7333396,37.599998 44.893328,36.666674 45.96,35.2 C47.026672,33.733326 47.56,32.4266724 47.56,31.28 C47.56,30.2399948 47.093338,29.72 46.16,29.72 Z"/>
  </g>
</svg>
