<svg xmlns="http://www.w3.org/2000/svg" width="64" height="64" viewBox="0 0 64 64">
  <g fill="none" fill-rule="evenodd">
    <rect width="7" height="54.833" x="11" y="5" fill="#4796E7"/>
    <path fill="#B4DFFB" d="M18,5 L50.0000796,5 C51.1046051,5 52,5.894703 52,7.00020325 L52,57.8324082 C52,58.93709 51.1080589,59.8326115 50.0000796,59.8326115 L18,59.8326115 L18,5 Z"/>
    <path fill="#FB3A3A" fill-rule="nonzero" d="M35.5,46 C28.5964406,46 23,40.4035594 23,33.5 C23,26.5964406 28.5964406,21 35.5,21 C42.4035594,21 48,26.5964406 48,33.5 C48,40.4035594 42.4035594,46 35.5,46 Z M35.5,44 C41.2989899,44 46,39.2989899 46,33.5 C46,27.7010101 41.2989899,23 35.5,23 C29.7010101,23 25,27.7010101 25,33.5 C25,39.2989899 29.7010101,44 35.5,44 Z"/>
    <path fill="#FB3A3A" fill-rule="nonzero" d="M35.5,42 C30.8055796,42 27,38.1944204 27,33.5 C27,28.8055796 30.8055796,25 35.5,25 C40.1944204,25 44,28.8055796 44,33.5 C44,38.1944204 40.1944204,42 35.5,42 Z M35.5,40 C39.0898509,40 42,37.0898509 42,33.5 C42,29.9101491 39.0898509,27 35.5,27 C31.9101491,27 29,29.9101491 29,33.5 C29,37.0898509 31.9101491,40 35.5,40 Z"/>
    <circle cx="35.5" cy="33.5" r="3.5" fill="#FB3A3A"/>
    <path fill="#FFF" fill-rule="nonzero" d="M18,6 L18,11 L20,11 L20,6 L18,6 Z M18,13 L18,19 L20,19 L20,13 L18,13 Z M18,21 L18,27 L20,27 L20,21 L18,21 Z M18,29 L18,35 L20,35 L20,29 L18,29 Z M18,37 L18,43 L20,43 L20,37 L18,37 Z M18,45 L18,51 L20,51 L20,45 L18,45 Z M18,53 L18,59 L20,59 L20,53 L18,53 Z"/>
  </g>
</svg>
