<svg xmlns="http://www.w3.org/2000/svg" width="64" height="64" viewBox="0 0 64 64">
  <g fill="none" fill-rule="evenodd">
    <rect width="58" height="58" x="3" y="4" fill="#ED9111"/>
    <polygon fill="#0A3586" points="6 7 58 7 58 59 6 59"/>
    <path fill="#ED9111" d="M39.52,39.84 C39.3333324,40.1866684 38.9200032,40.3999996 38.28,40.48 C38.2266664,40.48 37.6533388,40.5066664 36.56,40.56 C36.7466676,41.760006 37.439994,43.2533244 38.64,45.04 C39.3333368,45.5466692 39.68,46.2133292 39.68,47.04 C39.68,48.3466732 38.880008,49 37.28,49 C35.7599924,49 34.7200028,48.6133372 34.16,47.84 C33.9733324,47.573332 33.8533336,47.2133356 33.8,46.76 C33.8,46.4666652 33.7866668,46.1600016 33.76,45.84 C33.5199988,45.5999988 32.800006,44.0533476 31.6,41.2 C29.4133224,41.5200016 26.720016,41.9733304 23.52,42.56 C23.1999984,43.3333372 22.8533352,44.453326 22.48,45.92 C22.5333336,46.186668 22.56,46.4399988 22.56,46.68 C22.56,47.4000036 22.3200024,47.9533314 21.84,48.34 C21.3599976,48.7266686 20.78667,48.92 20.12,48.92 C19.3733296,48.92 18.6800032,48.6400028 18.04,48.08 C17.3999968,47.5199972 17.08,46.8666704 17.08,46.12 C17.08,45.45333 17.3866636,44.853336 18,44.32 C20.00001,34.1599492 22.4266524,25.7600332 25.28,19.12 C25.2266664,18.7999984 25.2,18.4800016 25.2,18.16 C25.2,16.82666 25.6533288,15.9466688 26.56,15.52 C26.9333352,15.3599992 27.4133304,15.28 28,15.28 C29.1200056,15.28 30.0533296,15.4533316 30.8,15.8 C31.7600048,16.2800024 32.24,16.9999952 32.24,17.96 C32.24,18.8400044 32.0000024,19.6266632 31.52,20.32 C32.0266692,24.853356 33.1199916,30.0799704 34.8,36 C34.9600008,35.9733332 35.506662,35.8400012 36.44,35.6 C37.0000028,35.4399992 37.4266652,35.36 37.72,35.36 C38.0666684,35.36 38.3466656,35.4399992 38.56,35.6 C39.493338,36.3200036 39.96,37.1999948 39.96,38.24 C39.96,38.8000028 39.8133348,39.3333308 39.52,39.84 Z M29.92,36.8 C29.4666644,35.1199916 28.7466716,31.8933572 27.76,27.12 C25.8666572,31.253354 24.7466684,34.7999852 24.4,37.76 L29.92,36.8 Z M48.56,18 C48.6400004,18.0800004 48.68,18.2133324 48.68,18.4 C48.68,18.6400012 48.6000008,19.0533304 48.44,19.64 C48.2533324,20.3600036 48.1333336,20.853332 48.08,21.12 C48.0266664,21.386668 48.0533328,21.9733288 48.16,22.88 C48.16,23.4400028 47.993335,23.8066658 47.66,23.98 C47.326665,24.1533342 46.9066692,24.24 46.4,24.24 C45.6799964,24.24 44.9466704,24.0933348 44.2,23.8 C43.2933288,23.4266648 42.84,22.9333364 42.84,22.32 C42.84,22.1333324 42.9199992,21.873335 43.08,21.54 C43.2400008,21.206665 43.3333332,20.9333344 43.36,20.72 C43.4133336,20.5066656 43.4133336,19.9733376 43.36,19.12 C43.3066664,18.45333 43.4399984,18.0000012 43.76,17.76 C44.1866688,17.4399984 44.9466612,17.28 46.04,17.28 C47.240006,17.28 48.0799976,17.5199976 48.56,18 Z M49.08,27.76 C49.08,28.1333352 48.8733354,28.7133294 48.46,29.5 C48.0466646,30.2866706 47.84,30.9333308 47.84,31.44 L47.84,43.2 C47.84,43.733336 47.9866652,44.4866618 48.28,45.46 C48.5733348,46.4333382 48.72,47.1066648 48.72,47.48 C48.72,48.013336 48.5066688,48.413332 48.08,48.68 C47.41333,49.1066688 46.6933372,49.32 45.92,49.32 C44.9066616,49.32 44.1866688,48.9733368 43.76,48.28 C43.1999972,47.4266624 42.92,44.8800212 42.92,40.64 C42.92,39.6266616 42.9399998,38.0466774 42.98,35.9 C43.0200002,33.7533226 43.04,32.1866716 43.04,31.2 C43.04,30.8266648 43.0000004,30.340003 42.92,29.74 C42.8399996,29.139997 42.8,28.706668 42.8,28.44 C42.8,27.5599956 43.1199968,26.8000032 43.76,26.16 C44.026668,25.893332 44.5199964,25.76 45.24,25.76 C45.9600036,25.76 46.6799964,25.8733322 47.4,26.1 C48.1200036,26.3266678 48.579999,26.5866652 48.78,26.88 C48.980001,27.1733348 49.08,27.4666652 49.08,27.76 Z"/>
  </g>
</svg>
