<svg xmlns="http://www.w3.org/2000/svg" width="64" height="64" viewBox="0 0 64 64">
  <path fill="#FD5A5A" d="M50.2660146,54.4573047 C54.0082617,52.0119127 55.1099051,47.5449467 52.9561426,42.8444792 C50.0583703,36.5190978 46.9430713,29.9537787 43.1386309,22.1118799 C40.8081871,17.3101415 39.2310008,14.2518558 37.4621446,11.2289031 C35.5669235,7.98941319 31.806372,7.06789191 28.7699715,9.01165342 C27.5524302,9.79105051 26.6246106,11.0119906 25.5872905,13.0977302 C24.9554718,14.3671677 24.4379028,15.4047565 23.3159341,17.652306 C19.3698945,25.5570866 17.6373426,29.0582718 15.5240793,33.4434536 C15.4236458,33.6518395 15.4236458,33.6518395 15.3233139,33.8600322 C12.802363,39.0915315 11.6526472,41.6521394 10.5492342,44.718123 C9.06753311,48.8341213 11.004017,53.2516978 15.0965295,55.1238926 C18.4224535,56.6453335 21.6357713,56.1377245 25.1922541,53.6880567 C25.6603943,53.3657307 26.1428437,52.9972883 26.6862612,52.5504092 C27.2940344,52.0506073 29.8153643,49.8383861 30.4883042,49.2737762 L32.6011727,47.5010379 L34.5449154,49.4577389 C34.5832689,49.496348 34.6600413,49.5730967 34.7703059,49.6824608 C34.9564796,49.8671143 35.1664178,50.073467 35.3951445,50.295955 C36.0476503,50.9306631 36.7172029,51.5648465 37.3622605,52.1526694 C37.5381429,52.3129461 37.7100127,52.4677446 37.8772807,52.6164399 C38.8398859,53.4721616 39.6167655,54.0922879 40.0120014,54.3269263 C43.6841874,56.5088773 47.0083238,56.5851054 50.2660146,54.4573047 Z M30.4972451,57.184673 C29.8304761,57.7329902 29.2157878,58.2024223 28.5953084,58.6296376 C23.4126005,62.1994321 18.0071486,63.0533332 12.6005456,60.5800876 C5.7060612,57.4260795 2.35200955,49.7746966 4.90379694,42.6861197 C6.09952862,39.3636158 7.30906317,36.6697817 9.91814448,31.2553933 C10.0186641,31.0468111 10.0186641,31.0468111 10.1190072,30.8386129 C12.248363,26.4200377 13.9891687,22.9021731 17.9199134,15.0280316 C19.0685656,12.7270293 19.5854108,11.6908913 20.2154248,10.4250802 C21.6921992,7.45572939 23.2272427,5.43572876 25.5351235,3.95836158 C31.4516854,0.170855471 39.0307081,2.02809124 42.6408555,8.1988943 C44.5066038,11.3874343 46.1434049,14.5613177 48.5366897,19.4925364 C52.359114,27.3715042 55.4924227,33.9747777 58.4108896,40.3453324 C61.7617633,47.6584288 59.8641861,55.3527633 53.54762,59.4803581 C48.2810283,62.9202972 42.505646,62.7878578 36.948103,59.4856592 C36.129349,58.9995927 35.1261373,58.1988021 33.8909086,57.1007277 C33.7046843,56.935181 33.5145566,56.7639381 33.3209307,56.5874922 C32.9828167,56.2793784 32.6407401,55.9616335 32.2988134,55.6389805 C31.5530475,56.2858782 30.8237765,56.9161502 30.4972451,57.184673 Z M34.8869471,51.7030315 L32.3456583,55.3913733 L29.9022578,51.6374676 C25.6704438,45.135942 24.0010071,41.6752906 23.7449253,36.9399188 C23.5428603,33.1986587 24.8821364,30.1519629 28.0192792,28.4794455 C31.2847323,26.7386384 34.745356,27.0730011 37.57212,29.4885545 C40.3855908,31.8919476 40.9395843,35.0892227 40.1802321,39.1040427 C39.3453648,43.5152717 37.4925089,47.9214061 34.8869471,51.7030315 Z M34.2848206,37.9886401 C34.6864619,35.8650967 34.4931683,34.7495377 33.6746233,34.0502996 C32.7464263,33.2571279 31.9549923,33.1806602 30.8419131,33.7740407 C29.9977189,34.2241093 29.6497439,35.0157115 29.7361821,36.6161263 C29.8636751,38.9736806 30.5880684,41.0793399 32.3123687,44.1213935 C33.2210643,42.1358271 33.8937484,40.0549672 34.2848206,37.9886401 Z"/>
</svg>
