<svg xmlns="http://www.w3.org/2000/svg" width="64" height="64" viewBox="0 0 64 64">
  <g fill="none" fill-rule="evenodd">
    <path stroke="#979797" stroke-linecap="round" stroke-width="2" d="M42.3802517,56.9069351 L52.6711704,56.9069351 C54.0917078,56.9069351 55.243281,58.0483579 55.243281,59.4784902 L55.243281,62.0500453"/>
    <circle cx="33" cy="27" r="25" fill="#D8D8D8"/>
    <path fill="#FFF" stroke="#979797" stroke-linecap="round" stroke-width="2" d="M33,26 C35.7614237,26 38,13.7614237 38,11 C38,8.23857625 35.7614237,6 33,6 C30.2385763,6 28,8.23857625 28,11 C28,13.7614237 30.2385763,26 33,26 Z"/>
    <path fill="#FFF" stroke="#979797" stroke-linecap="round" stroke-width="2" d="M22,36 C24.7614237,36 27,23.7614237 27,21 C27,18.2385763 24.7614237,16 22,16 C19.2385763,16 17,18.2385763 17,21 C17,23.7614237 19.2385763,36 22,36 Z" transform="rotate(-90 22 26)"/>
    <path fill="#FFF" stroke="#979797" stroke-linecap="round" stroke-width="2" d="M44,36 C46.7614237,36 49,23.7614237 49,21 C49,18.2385763 46.7614237,16 44,16 C41.2385763,16 39,18.2385763 39,21 C39,23.7614237 41.2385763,36 44,36 Z" transform="matrix(0 -1 -1 0 70 70)"/>
    <path fill="#FFF" stroke="#979797" stroke-linecap="round" stroke-width="2" d="M33,46 C35.7614237,46 38,33.7614237 38,31 C38,28.2385763 35.7614237,26 33,26 C30.2385763,26 28,28.2385763 28,31 C28,33.7614237 30.2385763,46 33,46 Z" transform="rotate(180 33 36)"/>
    <rect width="18" height="4" x="24" y="50" fill="#FF78C7"/>
    <polygon fill="#E43535" points="21 54 45 54 47 61 19 61"/>
  </g>
</svg>
