<svg xmlns="http://www.w3.org/2000/svg" width="64" height="64" viewBox="0 0 64 64">
  <g fill="none" fill-rule="evenodd">
    <path fill="#595959" d="M26.8931762,20.8770528 L18.8012512,19.8164696 C18.8012512,19.8164696 19.8039342,11.6727179 26.9970288,9.89803323 C34.1901234,8.12334852 44.3785016,9.89803323 44.8615294,14.8300415 C45.4433978,20.7712725 44.4915849,33.8463405 45.4336107,35.7202825 C46.3756365,37.5942246 48.267512,39.7206324 48.267512,39.7206324 C48.267512,39.7206324 43.5270543,44.9062164 42.525903,44.9062164 C41.5247517,44.9062164 37.9184012,41.326212 37.9184012,41.326212 C37.9184012,41.326212 32.1075571,45.6451322 26.9970288,45.0057801 C21.8865006,44.3664279 17.4343181,39.1771677 18.5408538,33.501424 C19.6473895,27.8256802 24.9031172,22.8438631 36.8691425,22.8438631 C36.8691425,22.8438631 37.6692354,16.9776379 33.0026081,16.5217893 C28.3359807,16.0659407 26.8931762,20.8770528 26.8931762,20.8770528 Z M36.8994614,28.7910321 C36.8994614,28.7910321 32.3572201,28.6677642 29.521182,29.787766 C26.685144,30.9077677 25.0412729,32.7237433 27.01553,36.299214 C28.1405334,38.336647 30.0518733,38.2211312 31.5242334,37.8923746 C32.9965935,37.563618 34.6017915,36.7095769 35.4613543,35.1784082 C37.4905396,31.5637508 36.8994614,28.7910321 36.8994614,28.7910321 Z"/>
    <path fill="#FFAF40" d="M9.88769578,46.2817272 C10.5858671,44.7414002 13.6904165,48.223679 20.1225381,50.5381521 C26.5546597,52.8526253 35.2950096,54.8232828 40.481819,53.3093018 C45.6686284,51.7953208 50.9033461,49.201276 52.0233612,49.5287293 C53.1433763,49.8561827 53.5636883,52.1403619 49.3951858,54.078331 C45.2266833,56.0163002 37.5019016,58.8170026 27.6670373,57.460916 C17.832173,56.1048294 9.18952446,47.8220543 9.88769578,46.2817272 Z"/>
    <path fill="#FFAF40" d="M48.4114964,47.0724162 C48.4114964,47.0724162 53.3390736,44.1859503 58.4557289,44.9021963 C58.4557289,44.9021963 59.4388658,52.9322762 54.9465515,54.3411792 C50.4542373,55.7500822 55.7758216,50.1240381 54.9465515,48.3082315 C54.1172815,46.4924249 48.9310658,49.1899064 48.2273802,48.3082315 C47.5236945,47.4265566 48.4114964,47.0724162 48.4114964,47.0724162 Z"/>
  </g>
</svg>
