<svg xmlns="http://www.w3.org/2000/svg" width="64" height="64" viewBox="0 0 64 64">
  <g fill="none" fill-rule="evenodd">
    <polygon fill="#F5413E" points="12 5 19 5 19 56.492 12 56.492"/>
    <path fill="#FF5EAC" d="M19,5 L51.0000796,5 C52.1046051,5 53,5.894703 53,7.00020325 L53,57.8324082 C53,58.93709 52.1080589,59.8326115 51.0000796,59.8326115 L19,59.8326115 L19,5 Z"/>
    <path fill="#FFF" d="M36.0038839,13.9961161 C40.1349436,16.603136 43.0038839,22.3408901 43.0038839,29 C43.0038839,35.6591099 40.1349436,41.396864 36.0038839,44.0038839 C31.8728241,41.396864 29.0038839,35.6591099 29.0038839,29 C29.0038839,22.3408901 31.8728241,16.603136 36.0038839,13.9961161 Z" transform="rotate(90 36.004 29)"/>
    <circle cx="36" cy="29" r="6" fill="#4796E7"/>
    <circle cx="36" cy="29" r="3" fill="#0A3586"/>
    <path fill="#ECECEC" d="M12,56.5 C12,54.5670034 13.5571833,53 15.4956369,53 L53,53 L53,60 L15.4956369,60 C13.56505,60 12,58.4290634 12,56.5 L12,56.5 Z"/>
  </g>
</svg>
