<svg xmlns="http://www.w3.org/2000/svg" width="64" height="64" viewBox="0 0 64 64">
  <g fill="none" fill-rule="evenodd">
    <path fill="#80D25B" d="M46,20 C46,12.2680135 39.463832,6 31.4010602,6 C23.3382883,6 16.8021203,12.2680135 16.8021203,20 L46,20 Z"/>
    <rect width="2" height="2" x="37.554" y="11" fill="#80D25B"/>
    <rect width="2" height="2" x="23.554" y="11" fill="#80D25B"/>
    <path fill="#80D25B" fill-rule="nonzero" d="M27.3397987 8.22825637L24.3397987 3.22825637C23.9135764 2.51788597 22.992186 2.28753837 22.2818156 2.71376061 21.5714452 3.13998285 21.3410976 4.06137323 21.7673199 4.77174363L24.7673199 9.77174363C25.1935421 10.482114 26.1149325 10.7124616 26.8253029 10.2862394 27.5356733 9.86001715 27.7660209 8.93862677 27.3397987 8.22825637zM38.3397987 9.77174363L41.3397987 4.77174363C41.7660209 4.06137323 41.5356733 3.13998285 40.8253029 2.71376061 40.1149325 2.28753837 39.1935421 2.51788597 38.7673199 3.22825637L35.7673199 8.22825637C35.3410976 8.93862677 35.5714452 9.86001715 36.2818156 10.2862394 36.992186 10.7124616 37.9135764 10.482114 38.3397987 9.77174363z"/>
    <path fill="#80D25B" d="M23.0711362 50L20.9048271 50C18.787538 50 17.0711362 48.2906238 17.0711362 46.1654292L17.0711362 22 45.9409691 22 45.9409691 46.1654292C45.9409691 48.2832042 44.221487 50 42.1072782 50L40.0986009 50 40.0986009 56.9841434C40.0986009 58.649755 38.7459202 60 37.0848685 60 35.4204301 60 34.0711362 58.656688 34.0711362 56.9841434L34.0711362 50 29.0986009 50 29.0986009 56.9841434C29.0986009 58.649755 27.7459202 60 26.0848685 60 24.4204301 60 23.0711362 58.656688 23.0711362 56.9841434L23.0711362 50zM48 25.94419C48 24.3181587 49.3210685 23 50.9433012 23L50.9433012 23C52.5688416 23 53.8866024 24.3103161 53.8866024 25.94419L53.8866024 42.05581C53.8866024 43.6818413 52.5655339 45 50.9433012 45L50.9433012 45C49.3177608 45 48 43.6896839 48 42.05581L48 25.94419zM9 25.94419C9 24.3181587 10.3210685 23 11.9433012 23L11.9433012 23C13.5688416 23 14.8866024 24.3103161 14.8866024 25.94419L14.8866024 42.05581C14.8866024 43.6818413 13.5655339 45 11.9433012 45L11.9433012 45C10.3177608 45 9 43.6896839 9 42.05581L9 25.94419z"/>
  </g>
</svg>
