<svg xmlns="http://www.w3.org/2000/svg" width="64" height="64" viewBox="0 0 64 64">
  <g fill="none" fill-rule="evenodd">
    <path fill="#BD7575" d="M48,35 C50.7614237,35 53,32.7614237 53,30 C53,27.2385763 50.7614237,25 48,25 C47.4372871,22.7182497 45.4193029,21 43,21 C42.4372871,18.7182497 40.4193029,17 38,17 C37.8758978,14.3442443 35.685126,12.2276622 33,12.2276622 C30.314874,12.2276622 28.1241022,14.3442443 28.0050907,17.0000025 C25.5806971,17 23.5627129,18.7182497 23.09982,21.0009765 C20.5806971,21 18.5627129,22.7182497 18.09982,25.0009765 C15.2385763,25 13,27.2385763 13,30 C13,32.7614237 15.2385763,35 18,35 L48,35 Z"/>
    <polygon fill="#80D25B" points="7 30 57 30 60 49 4 49"/>
    <circle cx="32" cy="40" r="3" fill="#9C4D4D"/>
    <circle cx="28.5" cy="35.5" r="1.5" fill="#9C4D4D"/>
    <circle cx="32.5" cy="34.5" r="1.5" fill="#9C4D4D"/>
    <circle cx="36.5" cy="36.5" r="1.5" fill="#9C4D4D"/>
    <rect width="64" height="6" y="45" fill="#979797"/>
  </g>
</svg>
