<svg xmlns="http://www.w3.org/2000/svg" width="64" height="64" viewBox="0 0 64 64">
  <g fill="none" fill-rule="evenodd">
    <polygon fill="#D8D8D8" points="27 24 38 24 36 59 29 59" transform="matrix(1 0 0 -1 0 83)"/>
    <rect width="17" height="3" x="24" y="59" fill="#979797"/>
    <circle cx="32.5" cy="21.5" r="10.5" fill="#22BA8E"/>
    <circle cx="32.5" cy="21.5" r="10.5" fill="#22BA8E"/>
    <path stroke="#80D25B" stroke-linecap="round" stroke-width="2" d="M18.7114178,7.71141777 C15.1826118,11.2402237 13,16.1152237 13,21.5 C13,26.8847763 15.1826118,31.7597763 18.7114178,35.2885822 M46.2885822,35.2885822 C49.8173882,31.7597763 52,26.8847763 52,21.5 C52,16.1152237 49.8173882,11.2402237 46.2885822,7.71141777"/>
    <path stroke="#80D25B" stroke-linecap="round" stroke-width="2" d="M22.2469517,11.2469517 C19.6229678,13.8709356 18,17.4959356 18,21.5 C18,25.5040644 19.6229678,29.1290644 22.2469517,31.7530483 M42.7530483,31.7530483 C45.3770322,29.1290644 47,25.5040644 47,21.5 C47,17.4959356 45.3770322,13.8709356 42.7530483,11.2469517"/>
    <path stroke="#FFF" stroke-linecap="round" stroke-width="2" d="M32.5,14 C28.3578644,14 25,17.3578644 25,21.5"/>
  </g>
</svg>
