<svg xmlns="http://www.w3.org/2000/svg" width="64" height="64" viewBox="0 0 64 64">
  <g fill="none" fill-rule="evenodd">
    <path stroke="#BD7575" stroke-linecap="round" stroke-width="2" d="M32.3844158,21.620603 C32.3844158,21.620603 29.4661279,13.7977003 39.7108681,8"/>
    <path fill="#E43535" d="M31.8107996,20.8995724 C29.3541639,18.0857955 25.7406769,16.3080847 21.7119833,16.3080847 C14.3107139,16.3080847 8.31079964,22.307999 8.31079964,29.7092683 C8.31079964,37.1105377 16.5930184,57.4849269 23.9942877,57.4849269 C25.6467184,57.4849269 29.518044,56.5573991 31.8107996,54.9342834 C34.1035553,56.5573991 37.9748809,57.4849269 39.6273116,57.4849269 C47.0285809,57.4849269 55.3107996,37.1105377 55.3107996,29.7092683 C55.3107996,22.307999 49.3108854,16.3080847 41.909616,16.3080847 C37.8809224,16.3080847 34.2674354,18.0857955 31.8107996,20.8995724 Z"/>
    <rect width="59" height="10" x="3" y="37" fill="#FCC24C"/>
    <path stroke="#595959" stroke-linecap="square" stroke-width="2" d="M17 38L17 42M27 38L27 42M22 38L22 39M32 38L32 39M37 38L37 42M42 38L42 39M47 38L47 42M52 38L52 39M12 38L12 39"/>
  </g>
</svg>
