<svg xmlns="http://www.w3.org/2000/svg" width="64" height="64" viewBox="0 0 64 64">
  <g fill="none" fill-rule="evenodd">
    <path fill="#56E287" d="M39.6359183,5.69500708 C39.6359183,5.69500708 33.4348825,4.56927161 35.3764208,1.70089761 C37.3179592,-1.16747638 39.6359183,5.69500708 39.6359183,5.69500708 Z"/>
    <path fill="#BD7575" fill-rule="nonzero" d="M40.5134432,7.31718972 C40.5241848,7.36827007 40.5241848,7.36827007 40.5295715,7.40875429 C40.5318675,7.42870903 40.5662999,7.29707484 40.7644778,6.9839835 C41.180414,6.32686706 42.0119775,5.49466621 43.3668664,4.49876798 L42.1823507,2.88727096 C39.4080946,4.92646166 38.4118557,6.50036907 38.5426806,7.6373689 C38.5524077,7.70927456 38.5524077,7.70927456 38.5645961,7.7666284 L40.5134432,7.31718972 Z"/>
    <rect width="52" height="10" x="4" y="52" fill="#DAD71E" rx="2"/>
    <rect width="48" height="11" y="41" fill="#4796E7" rx="2"/>
    <rect width="54" height="13" x="9" y="28" fill="#71D293" rx="2"/>
    <path fill="#F5413E" d="M41,27 C43.1314227,27 50.013251,21.7889921 50.013251,17 C50.013251,11.4771525 47.5360984,7 42.013251,7 C41.0620827,7 40.2309146,7.13279768 39.5066255,7.38086387 C38.7823364,7.13279768 37.9511683,7 37,7 C31.4771525,7 29,11.4771525 29,17 C29,21.9031417 35.8818283,27 38.013251,27 C38.5052209,27 39.0047634,26.9644735 39.5066255,26.8958459 C40.0084875,26.9644735 40.50803,27 41,27 Z"/>
    <polygon fill="#3FBC6B" fill-rule="nonzero" points="52 28 52 41 54 41 54 28"/>
    <polygon fill="#F7EE2D" points="17 28 25 28 25 38 21 34.733 17 38"/>
    <polygon fill="#B8B618" fill-rule="nonzero" points="11 52 11 62 13 62 13 52"/>
    <polygon fill="#B8B618" fill-rule="nonzero" points="16 52 16 62 18 62 18 52"/>
    <polygon fill="#FFF" fill-rule="nonzero" points="5 43 5 50 7 50 7 43"/>
    <polygon fill="#FFF" fill-rule="nonzero" points="8 43 8 50 10 50 10 43"/>
    <polygon fill="#B8B618" fill-rule="nonzero" points="38 52 38 62 40 62 40 52"/>
    <polygon fill="#9ACCFF" fill-rule="nonzero" points="42 41 42 52 44 52 44 41"/>
    <polygon fill="#9ACCFF" fill-rule="nonzero" points="20 41 20 52 22 52 22 41"/>
    <polygon fill="#FFF" fill-rule="nonzero" points="19 58 37 58 37 56 19 56"/>
    <polygon fill="#FFF" fill-rule="nonzero" points="23 48 41 48 41 46 23 46"/>
  </g>
</svg>
