<svg xmlns="http://www.w3.org/2000/svg" width="64" height="64" viewBox="0 0 64 64">
  <path fill="#FFAF40" fill-rule="evenodd" d="M37.6875,49 L32,62 L26.3125,49 L6,49 L6,5 L58,5 L58,49 L37.6875,49 Z M36.0120508,37.28 C38.3720626,37.0599989 39.5520508,36.2800067 39.5520508,34.94 C39.5520508,34.4599976 39.2970534,34.020002 38.7870508,33.62 C38.2770483,33.219998 37.7620534,33.02 37.2420508,33.02 C36.8620489,33.02 36.4720528,33.1949983 36.0720508,33.545 C35.6720488,33.8950017 35.3420521,34.0899998 35.0820508,34.13 C33.6420436,34.8700037 32.3520565,35.24 31.2120508,35.24 C28.9120393,35.24 27.142057,34.6500059 25.9020508,33.47 C24.8420455,32.3899946 24.3120508,30.9400091 24.3120508,29.12 C24.3120508,26.3399861 25.3820401,23.6800127 27.5220508,21.14 C29.7820621,18.4199864 32.3320366,17.06 35.1720508,17.06 C37.8320641,17.06 39.8320441,17.7099935 41.1720508,19.01 C42.3120565,20.1500057 42.8820508,21.6099911 42.8820508,23.39 C42.8820508,24.8900075 42.5070546,26.2199942 41.7570508,27.38 C41.0070471,28.5400058 40.1320558,29.12 39.1320508,29.12 C38.5320478,29.12 38.1520516,28.2500087 37.9920508,26.51 C37.8520501,24.5699903 37.3820548,23.3900021 36.5820508,22.97 C35.9420476,22.6299983 35.2220548,22.46 34.4220508,22.46 C33.3220453,22.46 32.7020515,22.8099965 32.5620508,23.51 C32.5820509,24.1300031 32.6420503,24.5999984 32.7420508,24.92 C32.782051,25.4200025 32.6220526,26.1799949 32.2620508,27.2 C32.0620498,27.7400027 31.7820526,28.2299978 31.4220508,28.67 C31.2220498,28.9100012 30.8120539,29.3499968 30.1920508,29.99 C29.9120494,30.3100016 29.6820517,30.47 29.5020508,30.47 C29.2620496,30.47 29.1420508,30.2200025 29.1420508,29.72 C29.1420508,28.6599947 29.5820464,27.2400089 30.4620508,25.46 C31.3820554,23.4799901 32.3920453,22.2300026 33.4920508,21.71 C33.5720512,21.4699988 33.8520484,21.3200003 34.3320508,21.26 C34.8120532,21.1999997 35.0920504,21.070001 35.1720508,20.87 C35.2320511,20.7499994 35.2620508,20.6300006 35.2620508,20.51 C35.2620508,20.1499982 35.0270532,19.8250015 34.5570508,19.535 C34.0870485,19.2449985 33.6020533,19.1 33.1020508,19.1 C32.8620496,19.1 32.6420518,19.1299997 32.4420508,19.19 C30.6420418,19.8100031 29.0770575,21.2149891 27.7470508,23.405 C26.4170442,25.595011 25.7520508,27.6999899 25.7520508,29.72 C25.7520508,32.5400141 27.0420379,33.95 29.6220508,33.95 C30.7620565,33.95 31.8220459,33.3600059 32.8020508,32.18 C33.3420535,31.5999971 34.0720462,30.5000081 34.9920508,28.88 C35.5320535,31.280012 36.9120397,32.48 39.1320508,32.48 C41.3120617,32.48 43.1020438,31.5900089 44.5020508,29.81 C45.8220574,28.1699918 46.4820508,26.1900116 46.4820508,23.87 C46.4820508,21.1699865 45.6020596,18.9300089 43.8420508,17.15 C41.7820405,15.0499895 38.9220691,14 35.2620508,14 C31.502032,14 28.1770653,15.3599864 25.2870508,18.08 C22.3970364,20.8000136 20.9520508,23.9899817 20.9520508,27.65 C20.9520508,31.3900187 21.932041,34.1699909 23.8920508,35.99 C25.5120589,37.4900075 27.7120369,38.24 30.4920508,38.24 C32.2920598,38.24 34.1320414,37.9200032 36.0120508,37.28 Z"/>
</svg>
