<svg xmlns="http://www.w3.org/2000/svg" width="64" height="64" viewBox="0 0 64 64">
  <g fill="none" fill-rule="evenodd">
    <rect width="58" height="58" x="3" y="3" fill="#5B68C0" rx="6"/>
    <path fill="#FFF" d="M36.0120508,43.28 C34.1320414,43.9200032 32.2920598,44.24 30.4920508,44.24 C27.7120369,44.24 25.5120589,43.4900075 23.8920508,41.99 C21.932041,40.1699909 20.9520508,37.3900187 20.9520508,33.65 C20.9520508,29.9899817 22.3970364,26.8000136 25.2870508,24.08 C28.1770653,21.3599864 31.502032,20 35.2620508,20 C38.9220691,20 41.7820405,21.0499895 43.8420508,23.15 C45.6020596,24.9300089 46.4820508,27.1699865 46.4820508,29.87 C46.4820508,32.1900116 45.8220574,34.1699918 44.5020508,35.81 C43.1020438,37.5900089 41.3120617,38.48 39.1320508,38.48 C36.9120397,38.48 35.5320535,37.280012 34.9920508,34.88 C34.0720462,36.5000081 33.3420535,37.5999971 32.8020508,38.18 C31.8220459,39.3600059 30.7620565,39.95 29.6220508,39.95 C27.0420379,39.95 25.7520508,38.5400141 25.7520508,35.72 C25.7520508,33.6999899 26.4170442,31.595011 27.7470508,29.405 C29.0770575,27.2149891 30.6420418,25.8100031 32.4420508,25.19 C32.6420518,25.1299997 32.8620496,25.1 33.1020508,25.1 C33.6020533,25.1 34.0870485,25.2449985 34.5570508,25.535 C35.0270532,25.8250015 35.2620508,26.1499982 35.2620508,26.51 C35.2620508,26.6300006 35.2320511,26.7499994 35.1720508,26.87 C35.0920504,27.070001 34.8120532,27.1999997 34.3320508,27.26 C33.8520484,27.3200003 33.5720512,27.4699988 33.4920508,27.71 C32.3920453,28.2300026 31.3820554,29.4799901 30.4620508,31.46 C29.5820464,33.2400089 29.1420508,34.6599947 29.1420508,35.72 C29.1420508,36.2200025 29.2620496,36.47 29.5020508,36.47 C29.6820517,36.47 29.9120494,36.3100016 30.1920508,35.99 C30.8120539,35.3499968 31.2220498,34.9100012 31.4220508,34.67 C31.7820526,34.2299978 32.0620498,33.7400027 32.2620508,33.2 C32.6220526,32.1799949 32.782051,31.4200025 32.7420508,30.92 C32.6420503,30.5999984 32.5820509,30.1300031 32.5620508,29.51 C32.7020515,28.8099965 33.3220453,28.46 34.4220508,28.46 C35.2220548,28.46 35.9420476,28.6299983 36.5820508,28.97 C37.3820548,29.3900021 37.8520501,30.5699903 37.9920508,32.51 C38.1520516,34.2500087 38.5320478,35.12 39.1320508,35.12 C40.1320558,35.12 41.0070471,34.5400058 41.7570508,33.38 C42.5070546,32.2199942 42.8820508,30.8900075 42.8820508,29.39 C42.8820508,27.6099911 42.3120565,26.1500057 41.1720508,25.01 C39.8320441,23.7099935 37.8320641,23.06 35.1720508,23.06 C32.3320366,23.06 29.7820621,24.4199864 27.5220508,27.14 C25.3820401,29.6800127 24.3120508,32.3399861 24.3120508,35.12 C24.3120508,36.9400091 24.8420455,38.3899946 25.9020508,39.47 C27.142057,40.6500059 28.9120393,41.24 31.2120508,41.24 C32.3520565,41.24 33.6420436,40.8700037 35.0820508,40.13 C35.3420521,40.0899998 35.6720488,39.8950017 36.0720508,39.545 C36.4720528,39.1949983 36.8620489,39.02 37.2420508,39.02 C37.7620534,39.02 38.2770483,39.219998 38.7870508,39.62 C39.2970534,40.020002 39.5520508,40.4599976 39.5520508,40.94 C39.5520508,42.2800067 38.3720626,43.0599989 36.0120508,43.28 Z"/>
  </g>
</svg>
