<svg xmlns="http://www.w3.org/2000/svg" width="64" height="64" viewBox="0 0 64 64">
  <g fill="none" fill-rule="evenodd">
    <path fill="#979797" fill-rule="nonzero" d="M32.9771796,55.6305805 L32.9771796,35.1014247 L30.9822944,35.1014247 L30.9822944,55.5930865 L26.6851293,51.3495471 C26.293549,50.9628534 25.6620122,50.966187 25.2745522,51.3569929 C24.8870923,51.7477988 24.8904325,52.3780867 25.2820128,52.7647804 L31.2965793,58.7042892 C31.685138,59.0879989 32.3107575,59.0881073 32.6994496,58.7045323 L38.7181943,52.7650234 C39.1099091,52.3784655 39.1134686,51.7481788 38.7261447,51.3572386 C38.3388207,50.9662985 37.7072851,50.9627461 37.3155703,51.349304 L32.9771796,55.6305805 Z M48.6063086,13.0301807 L34.0900528,27.5464364 L35.5006497,28.9570333 L49.9786615,14.4790214 L50.0165064,20.5064016 C50.0199618,21.0567244 50.4688831,21.5009312 51.0192001,21.4985652 C51.5695171,21.4961993 52.0128361,21.0481565 52.0093807,20.4978337 L51.9563069,12.045026 C51.9528782,11.4989498 51.5105751,11.0564933 50.9644997,11.052875 L42.5087375,10.9968468 C41.9584156,10.9932004 41.5102186,11.4363634 41.5076616,11.9866792 C41.5051046,12.536995 41.9491558,12.9860702 42.4994777,12.9897166 L48.6063086,13.0301807 Z"/>
    <circle cx="32" cy="32" r="6" fill="#FFAF40"/>
  </g>
</svg>
