<svg xmlns="http://www.w3.org/2000/svg" width="64" height="64" viewBox="0 0 64 64">
  <g fill="none" fill-rule="evenodd">
    <g transform="matrix(-1 0 0 1 58 34)">
      <path stroke="#979797" stroke-linecap="round" stroke-width="2" d="M13.9696036,11 C13.9696036,4.92486775 18.8944714,0 24.9696036,0 C31.0447359,0 35.9696036,4.92486775 35.9696036,11 C35.9696036,17.0751322 31.0447359,22 24.9696036,22 L6.41336365,22"/>
      <polygon fill="#979797" points="0 22 7 17 7 27"/>
    </g>
    <g transform="translate(8 45)">
      <path stroke="#979797" stroke-linecap="round" stroke-width="2" d="M35.9696036,0 C35.9696036,6.07513225 31.0447359,11 24.9696036,11 L6.41336365,11"/>
      <polygon fill="#979797" points="0 11 7 6 7 16"/>
    </g>
    <path fill="#80D25B" d="M47.5044647,23.529591 C50.2658885,23.529591 52.5044647,21.1876959 52.5044647,18.2988218 C52.5044647,15.4099477 47.5044647,6.52959101 47.5044647,6.52959101 C47.5044647,6.52959101 42.5044647,15.4099477 42.5044647,18.2988218 C42.5044647,21.1876959 44.743041,23.529591 47.5044647,23.529591 Z" transform="rotate(75 47.504 15.03)"/>
    <path stroke="#22BA8E" stroke-linecap="round" stroke-width="2" d="M44,16 C37.372583,16 32,21.372583 32,28"/>
    <path fill="#80D25B" d="M17.5044647,23.529591 C20.2658885,23.529591 22.5044647,21.1876959 22.5044647,18.2988218 C22.5044647,15.4099477 17.5044647,6.52959101 17.5044647,6.52959101 C17.5044647,6.52959101 12.5044647,15.4099477 12.5044647,18.2988218 C12.5044647,21.1876959 14.743041,23.529591 17.5044647,23.529591 Z" transform="scale(-1 1) rotate(75 0 -7.783)"/>
    <path stroke="#22BA8E" stroke-linecap="round" stroke-width="2" d="M32,16 C25.372583,16 20,21.372583 20,28" transform="matrix(-1 0 0 1 52 0)"/>
  </g>
</svg>
