<svg xmlns="http://www.w3.org/2000/svg" width="64" height="64" viewBox="0 0 64 64">
  <g fill="none" fill-rule="evenodd">
    <path fill="#979797" fill-rule="nonzero" d="M32.9988961,35.0030243 L32.9988961,45.0591842 C32.9988961,46.7274753 31.6634779,48.0842157 30.0250889,48.0842157 L23.0344847,48.0842157 C20.2607722,48.0842157 18,50.2776929 18,53.0437537 L18,58.9969757 C18,59.5509307 18.4479624,60 19.0005519,60 C19.5531415,60 20.0011039,59.5509307 20.0011039,58.9969757 L20.0011039,53.0437537 C20.0011039,51.4005411 21.3515793,50.0902644 23.0344847,50.0902644 L30.0250889,50.0902644 C32.7746913,50.0902644 35,47.8294249 35,45.0591842 L35,35.0030243 C35,34.4490693 34.5520376,34 33.9994481,34 C33.4468585,34 32.9988961,34.4490693 32.9988961,35.0030243 Z"/>
    <path fill="#979797" fill-rule="nonzero" d="M47.9988961,35.0030243 L47.9988961,45.0591842 C47.9988961,46.7274753 46.6634779,48.0842157 45.0250889,48.0842157 L38.0344847,48.0842157 C35.2607722,48.0842157 33,50.2776929 33,53.0437537 L33,58.9969757 C33,59.5509307 33.4479624,60 34.0005519,60 C34.5531415,60 35.0011039,59.5509307 35.0011039,58.9969757 L35.0011039,53.0437537 C35.0011039,51.4005411 36.3515793,50.0902644 38.0344847,50.0902644 L45.0250889,50.0902644 C47.7746913,50.0902644 50,47.8294249 50,45.0591842 L50,35.0030243 C50,34.4490693 49.5520376,34 48.9994481,34 C48.4468585,34 47.9988961,34.4490693 47.9988961,35.0030243 Z" transform="matrix(-1 0 0 1 83 0)"/>
    <polygon fill="#979797" points="34 31 39 38 29 38"/>
    <path fill="#80D25B" d="M49.5044647,23.529591 C52.2658885,23.529591 54.5044647,21.1876959 54.5044647,18.2988218 C54.5044647,15.4099477 49.5044647,6.52959101 49.5044647,6.52959101 C49.5044647,6.52959101 44.5044647,15.4099477 44.5044647,18.2988218 C44.5044647,21.1876959 46.743041,23.529591 49.5044647,23.529591 Z" transform="rotate(75 49.504 15.03)"/>
    <path fill="#80D25B" d="M19.5044647,23.529591 C22.2658885,23.529591 24.5044647,21.1876959 24.5044647,18.2988218 C24.5044647,15.4099477 19.5044647,6.52959101 19.5044647,6.52959101 C19.5044647,6.52959101 14.5044647,15.4099477 14.5044647,18.2988218 C14.5044647,21.1876959 16.743041,23.529591 19.5044647,23.529591 Z" transform="scale(-1 1) rotate(75 0 -10.39)"/>
    <path stroke="#22BA8E" stroke-linecap="round" stroke-width="2" d="M46,16 C39.372583,16 34,21.372583 34,28"/>
    <path stroke="#22BA8E" stroke-linecap="round" stroke-width="2" d="M34,16 C27.372583,16 22,21.372583 22,28" transform="matrix(-1 0 0 1 56 0)"/>
  </g>
</svg>
