<svg xmlns="http://www.w3.org/2000/svg" width="64" height="64" viewBox="0 0 64 64">
  <g fill="none" fill-rule="evenodd">
    <path fill="#979797" fill-rule="nonzero" d="M33.0119059,55.6294984 L33.0119059,35.1212818 L31.0170207,35.1212818 L31.0170207,55.5921394 L26.7198201,51.3559257 C26.3282398,50.9699028 25.696703,50.9732306 25.309243,51.3633586 C24.9217831,51.7534866 24.9251233,52.3826813 25.3167036,52.7687042 L31.3312701,58.6979106 C31.7198288,59.0809547 32.3454483,59.0810629 32.7341404,58.6981532 L38.7528851,52.7689468 C39.1445999,52.3830594 39.1481594,51.7538659 38.7608355,51.3636039 C38.3735115,50.9733419 37.7419759,50.9697956 37.3502611,51.355683 L33.0119059,55.6294984 Z M48.6212824,13.0310083 L34.1198953,27.5323954 L35.5304922,28.9429922 L49.9835,14.4899844 L50.026466,20.5018912 C50.0303957,21.0517397 50.4793128,21.4959506 51.0291505,21.494064 C51.5789882,21.4921774 52.0215341,21.0449077 52.0176044,20.4950592 L51.9572458,12.0495363 C51.9533464,11.5039308 51.5110431,11.0614745 50.9654383,11.0573857 L42.516961,10.9940726 C41.9671132,10.989952 41.5196893,11.432342 41.5176117,11.9821783 C41.5155342,12.5320146 41.9595898,12.9810854 42.5094376,12.985206 L48.6212824,13.0310083 Z M14.0190031,14.4635608 L28.4984345,28.9429922 L29.9090313,27.5323954 L15.4341602,13.0575243 L21.4902168,13.0142427 C22.0400653,13.0103131 22.4842762,12.5613959 22.4823896,12.0115582 C22.4805029,11.4617205 22.0332332,11.0191746 21.4833847,11.0231043 L13.0378619,11.083463 C12.4922564,11.0873623 12.0498,11.5296656 12.0457113,12.0752705 L11.9823981,20.5237478 C11.9782776,21.0735956 12.4206676,21.5210195 12.9705039,21.523097 C13.5203402,21.5251745 13.9694109,21.081119 13.9735315,20.5312712 L14.0190031,14.4635608 Z"/>
    <circle cx="32" cy="32" r="6" fill="#5EA7FF"/>
  </g>
</svg>
