<svg xmlns="http://www.w3.org/2000/svg" width="64" height="64" viewBox="0 0 64 64">
  <g fill="none" fill-rule="evenodd">
    <path fill="#979797" fill-rule="nonzero" d="M16.3847608,50.1135956 L22.5273066,50.1716218 C23.0778401,50.1768224 23.523321,50.6273149 23.5223159,51.1778248 C23.5213108,51.7283347 23.0742004,52.1703952 22.5236668,52.1651945 L14.0646532,52.0852855 C13.5183679,52.080125 13.0746544,51.6362586 13.0696835,51.0899729 L12.9927384,42.6339232 C12.9877289,42.0833893 13.4299457,41.6364336 13.9804574,41.6356196 C14.5309691,41.6348057 14.981308,42.0804417 14.9863175,42.6309756 L15.0408805,48.6272894 L29.4837541,34.1844157 L30.8988474,35.599509 L16.3847608,50.1135956 Z M34.000622,56.6163198 L38.3527262,52.3456714 C38.7456896,51.9600629 39.3792384,51.9636066 39.767797,52.3535866 C40.1563555,52.7435666 40.1527847,53.3723053 39.7598212,53.7579139 L33.7218912,59.6828356 C33.3319601,60.0654686 32.7043463,60.0653605 32.3145491,59.6825932 L26.2808106,53.7576714 C25.8879821,53.3719275 25.8846312,52.7431875 26.2733262,52.3533415 C26.6620212,51.9634954 27.2955711,51.9601699 27.6883996,52.3459139 L31.999378,56.5791449 L31.999378,36.0898524 L34.000622,36.0898524 L34.000622,56.6163198 Z M50.9854197,48.6535895 L51.0425914,42.6015027 C51.047792,42.0509691 51.4982845,41.6054883 52.0487944,41.6064934 C52.5993043,41.6074985 53.0413647,42.0546089 53.0361641,42.6051425 L52.9562551,51.0641561 C52.9510946,51.6104414 52.5072282,52.0541549 51.9609425,52.0591258 L43.5048928,52.1360709 C42.9543589,52.1410804 42.5074032,51.6988636 42.5065892,51.1483519 C42.5057753,50.5978402 42.9514113,50.1475013 43.5019452,50.1424918 L49.5887491,50.0871054 L35.1011526,35.599509 L36.5162459,34.1844157 L50.9854197,48.6535895 Z M49.6152392,13.8864044 L43.4726934,13.8283782 C42.9221599,13.8231776 42.476679,13.3726851 42.4776841,12.8221752 C42.4786892,12.2716653 42.9257996,11.8296048 43.4763332,11.8348055 L51.9353468,11.9147145 C52.4816321,11.919875 52.9253456,12.3637414 52.9303165,12.9100271 L53.0072616,21.3660768 C53.0122711,21.9166107 52.5700543,22.3635664 52.0195426,22.3643804 C51.4690309,22.3651943 51.018692,21.9195583 51.0136825,21.3690244 L50.9591195,15.3727106 L36.5162459,29.8155843 L35.1011526,28.400491 L49.6152392,13.8864044 Z M31.999378,7.38368019 L27.6472738,11.6543286 C27.2543104,12.0399371 26.6207616,12.0363934 26.232203,11.6464134 C25.8436445,11.2564334 25.8472153,10.6276947 26.2401788,10.2420861 L32.2781088,4.31716436 C32.6680399,3.93453136 33.2956537,3.93463948 33.6854509,4.31740682 L39.7191894,10.2423286 C40.1120179,10.6280725 40.1153688,11.2568125 39.7266738,11.6466585 C39.3379788,12.0365046 38.7044289,12.0398301 38.3116004,11.6540861 L34.000622,7.42085507 L34.000622,27.9101476 L31.999378,27.9101476 L31.999378,7.38368019 Z M15.0145803,15.3464105 L14.9574086,21.3984973 C14.952208,21.9490309 14.5017155,22.3945117 13.9512056,22.3935066 C13.4006957,22.3925015 12.9586353,21.9453911 12.9638359,21.3948575 L13.0437449,12.9358439 C13.0489054,12.3895586 13.4927718,11.9458451 14.0390575,11.9408742 L22.4951072,11.8639291 C23.0456411,11.8589196 23.4925968,12.3011364 23.4934108,12.8516481 C23.4942247,13.4021598 23.0485887,13.8524987 22.4980548,13.8575082 L16.4112509,13.9128946 L30.8988474,28.400491 L29.4837541,29.8155843 L15.0145803,15.3464105 Z"/>
    <circle cx="33" cy="32" r="6" fill="#BD7575"/>
  </g>
</svg>
