<svg xmlns="http://www.w3.org/2000/svg" width="64" height="64" viewBox="0 0 64 64">
  <g fill="none" fill-rule="evenodd">
    <path stroke="#979797" stroke-linecap="round" stroke-width="2" d="M28.66969,45 C28.66969,38.9248678 33.6685002,34 39.834845,34 C46.0011898,34 51,38.9248678 51,45 C51,51.0751322 46.0011898,56 39.834845,56 L21,56"/>
    <polygon fill="#979797" points="15 56 22 51 22 61"/>
    <path fill="#80D25B" d="M47.5044647,23.529591 C50.2658885,23.529591 52.5044647,21.1876959 52.5044647,18.2988218 C52.5044647,15.4099477 47.5044647,6.52959101 47.5044647,6.52959101 C47.5044647,6.52959101 42.5044647,15.4099477 42.5044647,18.2988218 C42.5044647,21.1876959 44.743041,23.529591 47.5044647,23.529591 Z" transform="rotate(75 47.504 15.03)"/>
    <path fill="#80D25B" d="M17.5044647,23.529591 C20.2658885,23.529591 22.5044647,21.1876959 22.5044647,18.2988218 C22.5044647,15.4099477 17.5044647,6.52959101 17.5044647,6.52959101 C17.5044647,6.52959101 12.5044647,15.4099477 12.5044647,18.2988218 C12.5044647,21.1876959 14.743041,23.529591 17.5044647,23.529591 Z" transform="scale(-1 1) rotate(75 0 -7.783)"/>
    <path stroke="#22BA8E" stroke-linecap="round" stroke-width="2" d="M44,16 C37.372583,16 32,21.372583 32,28"/>
    <path stroke="#22BA8E" stroke-linecap="round" stroke-width="2" d="M32,16 C25.372583,16 20,21.372583 20,28" transform="matrix(-1 0 0 1 52 0)"/>
  </g>
</svg>
