<svg xmlns="http://www.w3.org/2000/svg" width="64" height="64" viewBox="0 0 64 64">
  <g fill="none" fill-rule="evenodd">
    <g transform="matrix(-1 0 0 1 53 34)">
      <path stroke="#979797" stroke-linecap="round" stroke-width="2" d="M13.9696036,11 C13.9696036,4.92486775 18.8944714,0 24.9696036,0 C31.0447359,0 35.9696036,4.92486775 35.9696036,11 C35.9696036,17.0751322 31.0447359,22 24.9696036,22 L6.41336365,22"/>
      <polygon fill="#979797" points="0 22 7 17 7 27"/>
    </g>
    <path fill="#80D25B" d="M49.5044647,23.529591 C52.2658885,23.529591 54.5044647,21.1876959 54.5044647,18.2988218 C54.5044647,15.4099477 49.5044647,6.52959101 49.5044647,6.52959101 C49.5044647,6.52959101 44.5044647,15.4099477 44.5044647,18.2988218 C44.5044647,21.1876959 46.743041,23.529591 49.5044647,23.529591 Z" transform="rotate(75 49.504 15.03)"/>
    <path fill="#80D25B" d="M19.5044647,23.529591 C22.2658885,23.529591 24.5044647,21.1876959 24.5044647,18.2988218 C24.5044647,15.4099477 19.5044647,6.52959101 19.5044647,6.52959101 C19.5044647,6.52959101 14.5044647,15.4099477 14.5044647,18.2988218 C14.5044647,21.1876959 16.743041,23.529591 19.5044647,23.529591 Z" transform="scale(-1 1) rotate(75 0 -10.39)"/>
    <path stroke="#22BA8E" stroke-linecap="round" stroke-width="2" d="M46,16 C39.372583,16 34,21.372583 34,28"/>
    <path stroke="#22BA8E" stroke-linecap="round" stroke-width="2" d="M34,16 C27.372583,16 22,21.372583 22,28" transform="matrix(-1 0 0 1 56 0)"/>
  </g>
</svg>
