<svg xmlns="http://www.w3.org/2000/svg" width="64" height="64" viewBox="0 0 64 64">
  <g fill="none" fill-rule="evenodd">
    <path fill="#979797" fill-rule="nonzero" d="M15.2978137,50.1172795 L21.4183427,50.1517764 C21.9709622,50.1548911 22.4164238,50.6054027 22.4133091,51.1580222 C22.4101944,51.7106418 21.9596828,52.1561034 21.4070633,52.1529887 L12.9159985,52.1051309 C12.3676434,52.1020402 11.9239305,51.6581732 11.9210302,51.109817 L11.8761362,42.6217161 C11.8732134,42.0690955 12.3188314,41.6187386 12.871452,41.6158158 C13.4240725,41.612893 13.8744294,42.058511 13.8773523,42.6111316 L13.9094269,48.6754798 L28.4622669,34.1226399 L29.8773601,35.5377331 L15.2978137,50.1172795 Z M33.000622,56.6210804 L37.3528825,52.3176059 C37.745846,51.9290473 38.3793947,51.9326181 38.7679533,52.3255816 C39.1565119,52.718545 39.152941,53.3520938 38.7599776,53.7406524 L32.7220475,59.7109012 C32.3321164,60.0964614 31.7045027,60.0963525 31.3147055,59.7106569 L25.2809669,53.740408 C24.8881384,53.351713 24.8847875,52.7181631 25.2734825,52.3253346 C25.6621775,51.9325061 26.2957275,51.9291552 26.688556,52.3178502 L30.999378,56.5833118 L30.999378,36.0024882 L33.000622,36.0024882 L33.000622,56.6210804 Z M50.1172795,48.7021863 L50.1517764,42.5816573 C50.1548911,42.0290378 50.6054027,41.5835762 51.1580222,41.5866909 C51.7106418,41.5898056 52.1561034,42.0403172 52.1529887,42.5929367 L52.1051309,51.0840015 C52.1020402,51.6323566 51.6581732,52.0760695 51.109817,52.0789698 L42.6217161,52.1238638 C42.0690955,52.1267866 41.6187386,51.6811686 41.6158158,51.128548 C41.612893,50.5759275 42.058511,50.1255706 42.6111316,50.1226477 L48.6754798,50.0905731 L34.1226399,35.5377331 L35.5377331,34.1226399 L50.1172795,48.7021863 Z M56.6210804,30.999378 L52.3176059,26.6471175 C51.9290473,26.254154 51.9326181,25.6206053 52.3255816,25.2320467 C52.718545,24.8434881 53.3520938,24.847059 53.7406524,25.2400224 L59.7109012,31.2779525 C60.0964614,31.6678836 60.0963525,32.2954973 59.7106569,32.6852945 L53.740408,38.7190331 C53.351713,39.1118616 52.7181631,39.1152125 52.3253346,38.7265175 C51.9325061,38.3378225 51.9291552,37.7042725 52.3178502,37.311444 L56.5833118,33.000622 L36.0024882,33.000622 L36.0024882,30.999378 L56.6210804,30.999378 Z M48.7021863,13.8827205 L42.5816573,13.8482236 C42.0290378,13.8451089 41.5835762,13.3945973 41.5866909,12.8419778 C41.5898056,12.2893582 42.0403172,11.8438966 42.5929367,11.8470113 L51.0840015,11.8948691 C51.6323566,11.8979598 52.0760695,12.3418268 52.0789698,12.890183 L52.1238638,21.3782839 C52.1267866,21.9309045 51.6811686,22.3812614 51.128548,22.3841842 C50.5759275,22.387107 50.1255706,21.941489 50.1226477,21.3888684 L50.0905731,15.3245202 L35.5377331,29.8773601 L34.1226399,28.4622669 L48.7021863,13.8827205 Z M30.999378,7.37891962 L26.6471175,11.6823941 C26.254154,12.0709527 25.6206053,12.0673819 25.2320467,11.6744184 C24.8434881,11.281455 24.847059,10.6479062 25.2400224,10.2593476 L31.2779525,4.28909879 C31.6678836,3.90353856 32.2954973,3.90364751 32.6852945,4.28934311 L38.7190331,10.259592 C39.1118616,10.648287 39.1152125,11.2818369 38.7265175,11.6746654 C38.3378225,12.0674939 37.7042725,12.0708448 37.311444,11.6821498 L33.000622,7.41668824 L33.000622,27.9975118 L30.999378,27.9975118 L30.999378,7.37891962 Z M7.37891962,33.000622 L11.6823941,37.3528825 C12.0709527,37.745846 12.0673819,38.3793947 11.6744184,38.7679533 C11.281455,39.1565119 10.6479062,39.152941 10.2593476,38.7599776 L4.28909879,32.7220475 C3.90353856,32.3321164 3.90364751,31.7045027 4.28934311,31.3147055 L10.259592,25.2809669 C10.648287,24.8881384 11.2818369,24.8847875 11.6746654,25.2734825 C12.0674939,25.6621775 12.0708448,26.2957275 11.6821498,26.688556 L7.41668824,30.999378 L27.9975118,30.999378 L27.9975118,33.000622 L7.37891962,33.000622 Z"/>
    <circle cx="32" cy="31" r="6" fill="#E43535"/>
  </g>
</svg>
