<svg xmlns="http://www.w3.org/2000/svg" width="64" height="64" viewBox="0 0 64 64">
  <g fill="none" fill-rule="evenodd">
    <path fill="#979797" fill-rule="nonzero" d="M32.9974426,55.6338099 L37.3359393,51.3302705 C37.7276541,50.9417119 38.3591898,50.9452827 38.7465138,51.3382462 C39.1338377,51.7312096 39.1302782,52.3647584 38.7385634,52.753317 L32.7198187,58.7235658 C32.3311266,59.109126 31.705507,59.1090171 31.3169484,58.7233215 L25.3023819,52.7530726 C24.9108016,52.3643777 24.9074614,51.7308277 25.2949213,51.3379992 C25.6823812,50.9451707 26.3139181,50.9418198 26.7054984,51.3305148 L31.0025574,55.5959114 L31.0025574,35.0421759 L32.9974426,35.0421759 L32.9974426,55.6338099 Z M56.6210804,30.0915267 L52.3176059,25.7530954 C51.9290473,25.3613806 51.9326181,24.7298449 52.3255816,24.342521 C52.718545,23.955197 53.3520938,23.9587565 53.7406524,24.3504713 L59.7109012,30.369216 C60.0964614,30.7579082 60.0963525,31.3835277 59.7106569,31.7720863 L53.740408,37.7866528 C53.351713,38.1782331 52.7181631,38.1815733 52.3253346,37.7941134 C51.9325061,37.4066535 51.9291552,36.7751166 52.3178502,36.3835363 L56.5833118,32.0864119 L36.0024882,32.0864119 L36.0024882,30.0915267 L56.6210804,30.0915267 Z M48.685403,13.0278167 L42.593638,13.0031753 C42.0419014,13.0009436 41.5978632,12.5518554 41.6018509,12.0001089 C41.6058387,11.4483624 42.0563422,11.0028927 42.6080788,11.0051245 L51.0855775,11.0394163 C51.6330566,11.0416309 52.0753593,11.4840877 52.0773838,12.0315681 L52.1087211,20.5061123 C52.1107613,21.0578503 51.6651358,21.5081997 51.1133885,21.5119958 C50.5616413,21.515792 50.1127078,21.0715974 50.1106676,20.5198595 L50.0882084,14.446205 L35.5354849,28.9989285 L34.1248881,27.5883316 L48.685403,13.0278167 Z M13.8849996,14.419413 L13.8602042,20.5492406 C13.8579724,21.1009772 13.4088843,21.5450154 12.8571378,21.5410276 C12.3053913,21.5370399 11.8599216,21.0865363 11.8621534,20.5347997 L11.8964452,12.0573011 C11.8986597,11.509822 12.3411166,11.0675192 12.888597,11.0654948 L21.3631412,11.0341575 C21.9148792,11.0321172 22.3652285,11.4777428 22.3690247,12.0294901 C22.3728209,12.5812373 21.9286263,13.0301707 21.3768883,13.032211 L15.3413097,13.0545294 L29.8751119,27.5883316 L28.4645151,28.9989285 L13.8849996,14.419413 Z M7.37891962,32.0864119 L11.6823941,36.4248432 C12.0709527,36.816558 12.0673819,37.4480937 11.6744184,37.8354176 C11.281455,38.2227415 10.6479062,38.219182 10.2593476,37.8274672 L4.28909879,31.8087225 C3.90353856,31.4200304 3.90364751,30.7944109 4.28934311,30.4058522 L10.259592,24.3912858 C10.648287,23.9997055 11.2818369,23.9963652 11.6746654,24.3838252 C12.0674939,24.7712851 12.0708448,25.402822 11.6821498,25.7944023 L7.41668824,30.0915267 L27.9975118,30.0915267 L27.9975118,32.0864119 L7.37891962,32.0864119 Z"/>
    <circle cx="32" cy="32" r="6" fill="#D650C7"/>
  </g>
</svg>
