<svg xmlns="http://www.w3.org/2000/svg" width="64" height="64" viewBox="0 0 64 64">
  <g fill="none" fill-rule="evenodd">
    <g fill="#979797" transform="matrix(1 0 0 -1 18 60)">
      <path fill-rule="nonzero" d="M14.9906221,4 L14.9906221,14.0258382 C14.9906221,15.689099 13.6559405,17.0417486 12.0184554,17.0417486 L5.03170751,17.0417486 C2.25952507,17.0417486 0,19.2286119 0,21.9863325 L0,27.921604 C0,28.4738888 0.44771525,28.921604 1,28.921604 C1.55228475,28.921604 2,28.4738888 2,27.921604 L2,21.9863325 C2,20.3480745 3.34973047,19.0417486 5.03170751,19.0417486 L12.0184554,19.0417486 C14.766541,19.0417486 16.9906221,16.7877261 16.9906221,14.0258382 L16.9906221,4 C16.9906221,3.44771525 16.5429069,3 15.9906221,3 C15.4383374,3 14.9906221,3.44771525 14.9906221,4 Z"/>
      <path fill-rule="nonzero" d="M29.9906221,4 L29.9906221,14.0258382 C29.9906221,15.689099 28.6559405,17.0417486 27.0184554,17.0417486 L20.0317075,17.0417486 C17.2595251,17.0417486 15,19.2286119 15,21.9863325 L15,27.921604 C15,28.4738888 15.4477153,28.921604 16,28.921604 C16.5522847,28.921604 17,28.4738888 17,27.921604 L17,21.9863325 C17,20.3480745 18.3497305,19.0417486 20.0317075,19.0417486 L27.0184554,19.0417486 C29.766541,19.0417486 31.9906221,16.7877261 31.9906221,14.0258382 L31.9906221,4 C31.9906221,3.44771525 31.5429069,3 30.9906221,3 C30.4383374,3 29.9906221,3.44771525 29.9906221,4 Z" transform="matrix(-1 0 0 1 46.99 0)"/>
      <polygon points="16 0 21 7 11 7"/>
    </g>
    <path fill="#80D25B" d="M49.5044647,23.529591 C52.2658885,23.529591 54.5044647,21.1876959 54.5044647,18.2988218 C54.5044647,15.4099477 49.5044647,6.52959101 49.5044647,6.52959101 C49.5044647,6.52959101 44.5044647,15.4099477 44.5044647,18.2988218 C44.5044647,21.1876959 46.743041,23.529591 49.5044647,23.529591 Z" transform="rotate(75 49.504 15.03)"/>
    <path fill="#80D25B" d="M19.5044647,23.529591 C22.2658885,23.529591 24.5044647,21.1876959 24.5044647,18.2988218 C24.5044647,15.4099477 19.5044647,6.52959101 19.5044647,6.52959101 C19.5044647,6.52959101 14.5044647,15.4099477 14.5044647,18.2988218 C14.5044647,21.1876959 16.743041,23.529591 19.5044647,23.529591 Z" transform="scale(-1 1) rotate(75 0 -10.39)"/>
    <path stroke="#22BA8E" stroke-linecap="round" stroke-width="2" d="M46,16 C39.372583,16 34,21.372583 34,28"/>
    <path stroke="#22BA8E" stroke-linecap="round" stroke-width="2" d="M34,16 C27.372583,16 22,21.372583 22,28" transform="matrix(-1 0 0 1 56 0)"/>
  </g>
</svg>
