<svg xmlns="http://www.w3.org/2000/svg" width="64" height="64" viewBox="0 0 64 64">
  <g fill="none" fill-rule="evenodd">
    <path fill="#979797" fill-rule="nonzero" d="M15.3064021,49.1341079 L21.4122065,49.1635496 C21.9643738,49.1662121 22.4091064,49.6159946 22.4055446,50.168167 C22.4019827,50.7203394 21.9514752,51.1658052 21.3993079,51.1631427 L12.9151913,51.122233 C12.3672849,51.119591 11.9242942,50.6764463 11.9218425,50.1285386 L11.8838918,41.6473811 C11.8814211,41.0952126 12.327043,40.6448595 12.8792162,40.6414894 C13.4313895,40.6381192 13.8810174,41.0830082 13.8834881,41.6351767 L13.9106456,47.7042838 L28.4634183,33.1515111 L29.8762086,34.5643014 L15.3064021,49.1341079 Z M32.9989936,55.6276 L37.3442047,51.3240923 C37.7365286,50.9355337 38.3690464,50.9391046 38.7569726,51.332068 C39.1448988,51.7250315 39.1413338,52.3585802 38.7490099,52.7471388 L32.720906,58.7173877 C32.3316094,59.1029479 31.7050171,59.1028389 31.3158542,58.7171433 L25.2919351,52.7468945 C24.8997459,52.3581995 24.8964004,51.7246495 25.2844629,51.331821 C25.6725253,50.9389925 26.3050442,50.9356416 26.6972334,51.3243366 L31.0010064,55.589765 L31.0010064,35.0228151 L32.9989936,35.0228151 L32.9989936,55.6276 Z M50.1161047,47.7310341 L50.1456403,41.6057502 C50.1483028,41.0535829 50.5980853,40.6088503 51.1502577,40.6124121 C51.7024301,40.615974 52.1478959,41.0664815 52.1452334,41.6186488 L52.1043237,50.1027654 C52.1016817,50.6506718 51.6585369,51.0936625 51.1106293,51.0961142 L42.6294717,51.1340649 C42.0773032,51.1365357 41.6269502,50.6909138 41.6235801,50.1387405 C41.6202099,49.5865672 42.0650989,49.1369394 42.6172674,49.1344686 L48.6668883,49.1073983 L34.1237914,34.5643014 L35.5365817,33.1515111 L50.1161047,47.7310341 Z M56.6210804,30.0465739 L52.3176059,25.7013963 C51.9290473,25.3090724 51.9326181,24.6765546 52.3255816,24.2886284 C52.718545,23.9007022 53.3520938,23.9042672 53.7406524,24.2965911 L59.7109012,30.324695 C60.0964614,30.7139916 60.0963525,31.3405839 59.7106569,31.7297468 L53.740408,37.7536659 C53.351713,38.1458552 52.7181631,38.1492006 52.3253346,37.7611382 C51.9325061,37.3730757 51.9291552,36.7405568 52.3178502,36.3483676 L56.5833118,32.0445611 L36.0024882,32.0445611 L36.0024882,30.0465739 L56.6210804,30.0465739 Z M7.37891962,32.0445611 L11.6823941,36.3897387 C12.0709527,36.7820626 12.0673819,37.4145803 11.6744184,37.8025066 C11.281455,38.1904328 10.6479062,38.1868678 10.2593476,37.7945438 L4.28909879,31.76644 C3.90353856,31.3771434 3.90364751,30.7505511 4.28934311,30.3613882 L10.259592,24.337469 C10.648287,23.9452798 11.2818369,23.9419344 11.6746654,24.3299968 C12.0674939,24.7180592 12.0708448,25.3505782 11.6821498,25.7427674 L7.41668824,30.0465739 L27.9975118,30.0465739 L27.9975118,32.0445611 L7.37891962,32.0445611 Z"/>
    <circle cx="32" cy="32" r="6" fill="#B4DFFB"/>
  </g>
</svg>
