<svg xmlns="http://www.w3.org/2000/svg" width="64" height="64" viewBox="0 0 64 64">
  <g fill="none" fill-rule="evenodd">
    <path fill="#979797" fill-rule="nonzero" d="M33.000622,56.6210804 L37.3528825,52.3176059 C37.745846,51.9290473 38.3793947,51.9326181 38.7679533,52.3255816 C39.1565119,52.718545 39.152941,53.3520938 38.7599776,53.7406524 L32.7220475,59.7109012 C32.3321164,60.0964614 31.7045027,60.0963525 31.3147055,59.7106569 L25.2809669,53.740408 C24.8881384,53.351713 24.8847875,52.7181631 25.2734825,52.3253346 C25.6621775,51.9325061 26.2957275,51.9291552 26.688556,52.3178502 L30.999378,56.5833118 L30.999378,36.0024882 L33.000622,36.0024882 L33.000622,56.6210804 Z M56.6210804,30.999378 L52.3176059,26.6471175 C51.9290473,26.254154 51.9326181,25.6206053 52.3255816,25.2320467 C52.718545,24.8434881 53.3520938,24.847059 53.7406524,25.2400224 L59.7109012,31.2779525 C60.0964614,31.6678836 60.0963525,32.2954973 59.7106569,32.6852945 L53.740408,38.7190331 C53.351713,39.1118616 52.7181631,39.1152125 52.3253346,38.7265175 C51.9325061,38.3378225 51.9291552,37.7042725 52.3178502,37.311444 L56.5833118,33.000622 L36.0024882,33.000622 L36.0024882,30.999378 L56.6210804,30.999378 Z M30.999378,7.37891962 L26.6471175,11.6823941 C26.254154,12.0709527 25.6206053,12.0673819 25.2320467,11.6744184 C24.8434881,11.281455 24.847059,10.6479062 25.2400224,10.2593476 L31.2779525,4.28909879 C31.6678836,3.90353856 32.2954973,3.90364751 32.6852945,4.28934311 L38.7190331,10.259592 C39.1118616,10.648287 39.1152125,11.2818369 38.7265175,11.6746654 C38.3378225,12.0674939 37.7042725,12.0708448 37.311444,11.6821498 L33.000622,7.41668824 L33.000622,27.9975118 L30.999378,27.9975118 L30.999378,7.37891962 Z M7.37891962,33.000622 L11.6823941,37.3528825 C12.0709527,37.745846 12.0673819,38.3793947 11.6744184,38.7679533 C11.281455,39.1565119 10.6479062,39.152941 10.2593476,38.7599776 L4.28909879,32.7220475 C3.90353856,32.3321164 3.90364751,31.7045027 4.28934311,31.3147055 L10.259592,25.2809669 C10.648287,24.8881384 11.2818369,24.8847875 11.6746654,25.2734825 C12.0674939,25.6621775 12.0708448,26.2957275 11.6821498,26.688556 L7.41668824,30.999378 L27.9975118,30.999378 L27.9975118,33.000622 L7.37891962,33.000622 Z"/>
    <circle cx="32" cy="32" r="6" fill="#80D25B"/>
  </g>
</svg>
