<svg xmlns="http://www.w3.org/2000/svg" width="64" height="64" viewBox="0 0 64 64">
  <g fill="none" fill-rule="evenodd">
    <path fill="#979797" fill-rule="nonzero" d="M16.2978137,50.1172795 L22.4183427,50.1517764 C22.9709622,50.1548911 23.4164238,50.6054027 23.4133091,51.1580222 C23.4101944,51.7106418 22.9596828,52.1561034 22.4070633,52.1529887 L13.9159985,52.1051309 C13.3676434,52.1020402 12.9239305,51.6581732 12.9210302,51.109817 L12.8761362,42.6217161 C12.8732134,42.0690955 13.3188314,41.6187386 13.871452,41.6158158 C14.4240725,41.612893 14.8744294,42.058511 14.8773523,42.6111316 L14.9094269,48.6754798 L29.4622669,34.1226399 L30.8773601,35.5377331 L16.2978137,50.1172795 Z M34.000622,56.6210804 L38.3528825,52.3176059 C38.745846,51.9290473 39.3793947,51.9326181 39.7679533,52.3255816 C40.1565119,52.718545 40.152941,53.3520938 39.7599776,53.7406524 L33.7220475,59.7109012 C33.3321164,60.0964614 32.7045027,60.0963525 32.3147055,59.7106569 L26.2809669,53.740408 C25.8881384,53.351713 25.8847875,52.7181631 26.2734825,52.3253346 C26.6621775,51.9325061 27.2957275,51.9291552 27.688556,52.3178502 L31.999378,56.5833118 L31.999378,36.0024882 L34.000622,36.0024882 L34.000622,56.6210804 Z M51.1172795,48.7021863 L51.1517764,42.5816573 C51.1548911,42.0290378 51.6054027,41.5835762 52.1580222,41.5866909 C52.7106418,41.5898056 53.1561034,42.0403172 53.1529887,42.5929367 L53.1051309,51.0840015 C53.1020402,51.6323566 52.6581732,52.0760695 52.109817,52.0789698 L43.6217161,52.1238638 C43.0690955,52.1267866 42.6187386,51.6811686 42.6158158,51.128548 C42.612893,50.5759275 43.058511,50.1255706 43.6111316,50.1226477 L49.6754798,50.0905731 L35.1226399,35.5377331 L36.5377331,34.1226399 L51.1172795,48.7021863 Z M57.6210804,30.999378 L53.3176059,26.6471175 C52.9290473,26.254154 52.9326181,25.6206053 53.3255816,25.2320467 C53.718545,24.8434881 54.3520938,24.847059 54.7406524,25.2400224 L60.7109012,31.2779525 C61.0964614,31.6678836 61.0963525,32.2954973 60.7106569,32.6852945 L54.740408,38.7190331 C54.351713,39.1118616 53.7181631,39.1152125 53.3253346,38.7265175 C52.9325061,38.3378225 52.9291552,37.7042725 53.3178502,37.311444 L57.5833118,33.000622 L37.0024882,33.000622 L37.0024882,30.999378 L57.6210804,30.999378 Z M49.7021863,13.8827205 L43.5816573,13.8482236 C43.0290378,13.8451089 42.5835762,13.3945973 42.5866909,12.8419778 C42.5898056,12.2893582 43.0403172,11.8438966 43.5929367,11.8470113 L52.0840015,11.8948691 C52.6323566,11.8979598 53.0760695,12.3418268 53.0789698,12.890183 L53.1238638,21.3782839 C53.1267866,21.9309045 52.6811686,22.3812614 52.128548,22.3841842 C51.5759275,22.387107 51.1255706,21.941489 51.1226477,21.3888684 L51.0905731,15.3245202 L36.5377331,29.8773601 L35.1226399,28.4622669 L49.7021863,13.8827205 Z M31.999378,7.37891962 L27.6471175,11.6823941 C27.254154,12.0709527 26.6206053,12.0673819 26.2320467,11.6744184 C25.8434881,11.281455 25.847059,10.6479062 26.2400224,10.2593476 L32.2779525,4.28909879 C32.6678836,3.90353856 33.2954973,3.90364751 33.6852945,4.28934311 L39.7190331,10.259592 C40.1118616,10.648287 40.1152125,11.2818369 39.7265175,11.6746654 C39.3378225,12.0674939 38.7042725,12.0708448 38.311444,11.6821498 L34.000622,7.41668824 L34.000622,27.9975118 L31.999378,27.9975118 L31.999378,7.37891962 Z M14.8827205,15.2978137 L14.8482236,21.4183427 C14.8451089,21.9709622 14.3945973,22.4164238 13.8419778,22.4133091 C13.2893582,22.4101944 12.8438966,21.9596828 12.8470113,21.4070633 L12.8948691,12.9159985 C12.8979598,12.3676434 13.3418268,11.9239305 13.890183,11.9210302 L22.3782839,11.8761362 C22.9309045,11.8732134 23.3812614,12.3188314 23.3841842,12.871452 C23.387107,13.4240725 22.941489,13.8744294 22.3888684,13.8773523 L16.3245202,13.9094269 L30.8773601,28.4622669 L29.4622669,29.8773601 L14.8827205,15.2978137 Z M8.37891962,33.000622 L12.6823941,37.3528825 C13.0709527,37.745846 13.0673819,38.3793947 12.6744184,38.7679533 C12.281455,39.1565119 11.6479062,39.152941 11.2593476,38.7599776 L5.28909879,32.7220475 C4.90353856,32.3321164 4.90364751,31.7045027 5.28934311,31.3147055 L11.259592,25.2809669 C11.648287,24.8881384 12.2818369,24.8847875 12.6746654,25.2734825 C13.0674939,25.6621775 13.0708448,26.2957275 12.6821498,26.688556 L8.41668824,30.999378 L28.9975118,30.999378 L28.9975118,33.000622 L8.37891962,33.000622 Z"/>
    <circle cx="33" cy="32" r="6" fill="#E43535"/>
  </g>
</svg>
