<svg xmlns="http://www.w3.org/2000/svg" width="64" height="64" viewBox="0 0 64 64">
  <g fill="none" fill-rule="evenodd">
    <path fill="#979797" fill-rule="nonzero" d="M15.2708549,50.1165186 L21.396132,50.1560304 C21.9483044,50.1595922 22.3937702,50.6100997 22.3911077,51.162267 C22.3884452,51.7144343 21.9386626,52.1591669 21.3864902,52.1556051 L12.9022958,52.1008769 C12.3543843,52.0973426 11.9106712,51.6534757 11.9073271,51.1055633 L11.8555628,42.6243327 C11.8521927,42.0721595 12.2970817,41.6225316 12.8492502,41.6200608 C13.4014187,41.61759 13.8517718,42.0632119 13.8551419,42.6153852 L13.8920658,48.6651212 L28.4213052,34.1358818 L29.8363985,35.550975 L15.2708549,50.1165186 Z M32.9550545,56.6200597 L37.3072815,52.3236218 C37.700245,51.9356956 38.3337937,51.9392606 38.7223523,52.3315846 C39.1109109,52.7239085 39.10734,53.3564262 38.7143766,53.7443524 L32.6764465,59.7048852 C32.2865154,60.089818 31.6589017,60.0897092 31.2691044,59.7046413 L25.2353659,53.7441085 C24.8425374,53.3560461 24.8391865,52.7235272 25.2278815,52.331338 C25.6165765,51.9391487 26.2501265,51.9358033 26.642955,52.3238657 L30.9538105,56.5824188 L30.9538105,36.021215 L32.9550545,36.021215 L32.9550545,56.6200597 Z M30.9538105,7.37994026 L26.6015835,11.6763782 C26.2086201,12.0643044 25.5750713,12.0607394 25.1865127,11.6684154 C24.7979541,11.2760915 24.801525,10.6435738 25.1944884,10.2556476 L31.2324185,4.29511476 C31.6223496,3.91018199 32.2499634,3.91029076 32.6397606,4.29535867 L38.6734991,10.2558915 C39.0663276,10.6439539 39.0696785,11.2764728 38.6809835,11.668662 C38.2922885,12.0608513 37.6587385,12.0641967 37.26591,11.6761343 L32.9550545,7.41758122 L32.9550545,27.978785 L30.9538105,27.978785 L30.9538105,7.37994026 Z M13.8654466,15.3082596 L13.8260603,21.4140887 C13.8224985,21.9662611 13.371991,22.4117269 12.8198237,22.4090644 C12.2676564,22.4064019 11.8229238,21.9566193 11.8264856,21.4044469 L11.8812138,12.9202525 C11.8847481,12.372341 12.328615,11.928628 12.8765274,11.9252838 L21.3577579,11.8735196 C21.9099312,11.8701494 22.3595591,12.3150384 22.3620299,12.8672069 C22.3645006,13.4193755 21.9188787,13.8697285 21.3667055,13.8730986 L15.2975148,13.9101413 L29.8363985,28.449025 L28.4213052,29.8641182 L13.8654466,15.3082596 Z M7.37342073,33.000622 L11.6698917,37.3528825 C12.057818,37.745846 12.0542529,38.3793947 11.661929,38.7679533 C11.2696051,39.1565119 10.6370873,39.152941 10.2491611,38.7599776 L4.28862831,32.7220475 C3.90369554,32.3321164 3.90380432,31.7045027 4.28887223,31.3147055 L10.249405,25.2809669 C10.6374675,24.8881384 11.2699864,24.8847875 11.6621756,25.2734825 C12.0543648,25.6621775 12.0577102,26.2957275 11.6696478,26.688556 L7.41112788,30.999378 L27.958458,30.999378 L27.958458,33.000622 L7.37342073,33.000622 Z"/>
    <circle cx="32" cy="32" r="6" fill="#FF78C7"/>
  </g>
</svg>
