<svg xmlns="http://www.w3.org/2000/svg" width="64" height="64" viewBox="0 0 64 64">
  <g fill="none" fill-rule="evenodd">
    <path fill="#FFDD95" d="M57.1095927,23.0552694 C53.1495685,13.0649554 43.3998386,6 32,6 C17.0883118,6 5,18.0883118 5,33 C5,47.9116882 17.0883118,60 32,60 C42.601832,60 51.7764898,53.8895407 56.1942764,44.9983189 C56.1296519,44.9994381 56.0648916,45 56,45 C49.9248678,45 45,40.0751322 45,34 C45,27.9248678 49.9248678,23 56,23 C56.3745308,23 56.7446899,23.0187179 57.1095927,23.0552694 Z" transform="rotate(-9 31.055 33)"/>
    <circle cx="38.5" cy="17.5" r="6.5" fill="#4796E7"/>
    <circle cx="41.5" cy="45.5" r="4.5" fill="#FFF"/>
    <circle cx="22" cy="21" r="6" fill="#D650C7"/>
    <circle cx="15" cy="35" r="6" fill="#F5413E"/>
    <circle cx="26" cy="49" r="6" fill="#FF78C7"/>
  </g>
</svg>
