<svg xmlns="http://www.w3.org/2000/svg" width="64" height="64" viewBox="0 0 64 64">
  <g fill="none" fill-rule="evenodd">
    <path fill="#5EA7FF" d="M42.6800936 24.4479043C42.6713635 28.7656556 42.6783476 33.0842761 42.6774746 37.4011582 42.6774746 41.9379259 42.6687444 46.4746936 42.6896968 51.0114613 42.6923159 51.503379 42.5508873 51.6294003 42.0681095 51.6085416 41.1977127 51.5703006 40.3229508 51.5815991 39.4508079 51.6059343 39.0919984 51.6154945 38.9243794 51.4859967 38.8030301 51.163556 38.5280301 50.4300249 38.1989032 49.7156144 37.9195381 48.9829525 37.8121571 48.7004909 37.7466809 48.616187 37.4271571 48.7934859 34.1402524 50.6194915 30.5800936 51.6711177 26.8662841 52.206491 22.1921571 52.8809224 17.5686651 52.5437067 13.0516809 51.1887602 10.3208873 50.3700562 7.92707777 48.9872981 6.49620475 46.4407982 4.40707777 42.7236037 4.35207777 36.3686525 10.4693 33.0938363 13.0263635 31.724984 15.7859667 30.9888456 18.6232682 30.4595561 21.3435857 29.9528634 24.108427 29.8129363 26.8488238 29.4705059 29.6861254 29.115908 32.5103317 28.6587548 35.0726333 27.3003318 36.1176333 26.745838 37.0587444 26.0531553 37.3302524 24.8146699 37.5912841 23.6231165 37.1486651 22.6262444 36.3367603 21.7736449 35.276919 20.6594426 33.898427 20.0788754 32.4527127 19.6260678 30.7285063 19.0863488 28.9493 18.8073637 27.1508873 18.7117613 23.5819984 18.5214257 20.0209667 18.5483682 16.5594587 19.5999944 14.7130301 20.160572 13.0673952 21.0314228 11.9604111 22.6705691 11.3431889 23.5848756 11.0620778 24.6234651 10.8324746 25.6742222 10.7669984 25.974066 10.6858079 26.1079094 10.3444587 26.1035638 9.00787142 26.0853124 7.6704111 26.0931345 6.3338238 26.0983491 6.08239523 26.0992183 5.9104111 26.0844433 5.93747459 25.7507041 6.25088729 21.8927134 7.78564919 18.6926408 11.1362841 16.4824876 13.0446968 15.2231434 15.1827127 14.4974344 17.4246174 14.0915588 22.2750936 13.212886 27.136046 13.1911582 31.972554 14.1723863 34.9556492 14.7772887 37.7370778 15.8654176 39.9493 18.0251624 41.7564428 19.7894609 42.6853317 21.9274779 42.6800936 24.4479043zM36.8765643 42.4755286C37.3400878 42.0590069 37.5709716 41.5790069 37.552536 40.9346591 37.5121533 39.5694417 37.5402456 38.2016156 37.5402456 36.8355286 37.5402456 35.3416156 37.5393677 33.8477025 37.5411235 32.3537895 37.5411235 32.0877025 37.5613149 31.8703112 37.1566097 32.0616156 33.8908763 33.6024851 30.3591436 34.0563982 26.811609 34.4163982 23.6046938 34.7424851 20.3837325 34.9529199 17.2426588 35.7294417 15.4631853 36.1694417 13.719705 36.7024851 12.2431018 37.8233547 10.6207697 39.0546591 10.090527 40.9703112 10.8472642 42.8146591 11.3555598 44.0511808 12.3466923 44.8346591 13.520425 45.4181373 15.1532917 46.2294417 16.9169634 46.5850938 18.7218956 46.8129199 23.5353409 47.4198764 28.2100803 47.0320504 32.6750051 45.0442243 34.191991 44.3694417 35.638746 43.5859634 36.8765643 42.4755286zM55.7830037 52.5434783C57.6180831 52.546087 59.1161783 51.0826087 59.1170513 49.2852174 59.1179243 47.4713043 57.6460196 46.0278261 55.7934799 46.0243478 53.9566545 46.0208696 52.4550672 47.4826087 52.4515751 49.2765217 52.4472101 51.0582609 53.9584005 52.5408696 55.7830037 52.5434783L55.7830037 52.5434783zM55.7803847 26.4956522C57.611972 26.4965217 59.1161783 25.0252174 59.1170513 23.2321739 59.1179243 21.413913 57.6512577 19.9747826 55.7952259 19.9713043 53.9557815 19.9678261 52.4559402 21.4243478 52.4507021 23.2182609 52.445464 24.9956522 53.9688767 26.4947826 55.7803847 26.4956522L55.7803847 26.4956522zM52.4507021 36.2417391C52.444591 38.013913 53.9680037 39.5226087 55.7742736 39.5321739 57.5892736 39.5417391 59.1100672 38.0565217 59.1170513 36.2678261 59.1240355 34.4521739 57.6582418 33.0078261 55.800464 32.9991304 53.9636386 32.9904348 52.4568132 34.4495652 52.4507021 36.2417391L52.4507021 36.2417391z"/>
  </g>
</svg>
