<svg xmlns="http://www.w3.org/2000/svg" width="64" height="64" viewBox="0 0 64 64">
  <g fill="none" fill-rule="evenodd">
    <rect width="36" height="42" x="15" y="3" fill="#5B68C0"/>
    <rect width="36" height="18" x="15" y="46" fill="#4796E7"/>
    <rect width="18" height="6" x="18" y="36" fill="#D8D8D8"/>
    <rect width="8" height="3" x="40" y="36" fill="#D8D8D8"/>
    <rect width="30" height="18" x="18" y="15" fill="#22BA8E"/>
    <path fill="#FFF" d="M28.88,10.96 C28.8333331,11.0466671 28.7300008,11.0999999 28.57,11.12 C28.5566666,11.12 28.4133347,11.1266666 28.14,11.14 C28.1866669,11.4400015 28.3599985,11.8133311 28.66,12.26 C28.8333342,12.3866673 28.92,12.5533323 28.92,12.76 C28.92,13.0866683 28.720002,13.25 28.32,13.25 C27.9399981,13.25 27.6800007,13.1533343 27.54,12.96 C27.4933331,12.893333 27.4633334,12.8033339 27.45,12.69 C27.45,12.6166663 27.4466667,12.5400004 27.44,12.46 C27.3799997,12.3999997 27.2000015,12.0133369 26.9,11.3 C26.3533306,11.3800004 25.680004,11.4933326 24.88,11.64 C24.7999996,11.8333343 24.7133338,12.1133315 24.62,12.48 C24.6333334,12.546667 24.64,12.6099997 24.64,12.67 C24.64,12.8500009 24.5800006,12.9883328 24.46,13.085 C24.3399994,13.1816671 24.1966675,13.23 24.03,13.23 C23.8433324,13.23 23.6700008,13.1600007 23.51,13.02 C23.3499992,12.8799993 23.27,12.7166676 23.27,12.53 C23.27,12.3633325 23.3466659,12.213334 23.5,12.08 C24.0000025,9.5399873 24.6066631,7.4400083 25.32,5.78 C25.3066666,5.6999996 25.3,5.6200004 25.3,5.54 C25.3,5.206665 25.4133322,4.9866672 25.64,4.88 C25.7333338,4.8399998 25.8533326,4.82 26,4.82 C26.2800014,4.82 26.5133324,4.8633329 26.7,4.95 C26.9400012,5.0700006 27.06,5.2499988 27.06,5.49 C27.06,5.7100011 27.0000006,5.9066658 26.88,6.08 C27.0066673,7.213339 27.2799979,8.5199926 27.7,10 C27.7400002,9.9933333 27.8766655,9.9600003 28.11,9.9 C28.2500007,9.8599998 28.3566663,9.84 28.43,9.84 C28.5166671,9.84 28.5866664,9.8599998 28.64,9.9 C28.8733345,10.0800009 28.99,10.2999987 28.99,10.56 C28.99,10.7000007 28.9533337,10.8333327 28.88,10.96 Z M26.48,10.2 C26.3666661,9.7799979 26.1866679,8.9733393 25.94,7.78 C25.4666643,8.8133385 25.1866671,9.6999963 25.1,10.44 L26.48,10.2 Z M33.12,6.1 C33.0466663,6.2400007 32.8900012,6.31 32.65,6.31 C32.3366651,6.31 32.1533336,6.3199999 32.1,6.34 C31.8533321,6.4466672 31.5666683,6.566666 31.24,6.7 C31.2199999,7.2066692 31.21,7.7633303 31.21,8.37 C31.21,9.6033395 31.2466663,10.8666602 31.32,12.16 C31.32,12.2533338 31.3549996,12.3749992 31.425,12.525 C31.4950004,12.6750007 31.53,12.783333 31.53,12.85 C31.53,12.9366671 31.5000003,13.0166663 31.44,13.09 C31.2933326,13.290001 31.0733348,13.39 30.78,13.39 C30.5266654,13.39 30.2850011,13.3216673 30.055,13.185 C29.8249989,13.0483326 29.6933335,12.8866676 29.66,12.7 C29.6399999,12.5999995 29.691666,12.4866673 29.815,12.36 C29.938334,12.2333327 30,12.1133339 30,12 C29.9533331,10.6733267 29.93,9.5133383 29.93,8.52 C29.93,7.919997 29.9399999,7.4400018 29.96,7.08 C29.9533333,7.08 29.8600009,7.113333 29.68,7.18 C29.5599994,7.2266669 29.4633337,7.25 29.39,7.25 C29.2833328,7.25 29.1866671,7.2133337 29.1,7.14 C28.8866656,6.9599991 28.7533336,6.8400003 28.7,6.78 C28.5933328,6.6599994 28.54,6.533334 28.54,6.4 C28.54,6.3533331 28.5466666,6.3000003 28.56,6.24 C28.5800001,6.1466662 29.0666619,5.9566681 30.02,5.67 C31.0466718,5.3566651 31.5999996,5.1733336 31.68,5.12 C31.7533337,5.0933332 31.8349996,5.0333338 31.925,4.94 C32.0150005,4.8466662 32.1133328,4.7933334 32.22,4.78 C32.3666674,4.7666666 32.5599988,4.8633323 32.8,5.07 C33.066668,5.3033345 33.2,5.5466654 33.2,5.8 C33.2,5.9000005 33.1733336,5.9999995 33.12,6.1 Z M42.32,12.98 C42.1666659,13.2000011 41.9433348,13.31 41.65,13.31 C41.383332,13.31 41.1066681,13.2233342 40.82,13.05 C40.5599987,12.8966659 40.4133335,12.7466674 40.38,12.6 C40.3666666,12.5466664 40.36,12.4966669 40.36,12.45 C40.36,12.3433328 40.4049995,12.223334 40.495,12.09 C40.5850005,11.956666 40.6266667,11.8400005 40.62,11.74 L40.32,8.38 L38.6,12.26 C38.5799999,12.3133336 38.57,12.3766663 38.57,12.45 C38.57,12.5033336 38.5783333,12.5866661 38.595,12.7 C38.6116668,12.8133339 38.62,12.8999997 38.62,12.96 C38.62,13.1133341 38.5600006,13.2299996 38.44,13.31 C38.2666658,13.4300006 38.0633345,13.49 37.83,13.49 C37.5966655,13.49 37.3850009,13.4283339 37.195,13.305 C37.0049991,13.181666 36.8866669,13.020001 36.84,12.82 C36.8266666,12.7599997 36.82,12.7066669 36.82,12.66 C36.82,12.6133331 36.8266666,12.556667 36.84,12.49 C36.8533334,12.423333 36.86,12.3733335 36.86,12.34 C36.86,12.2999998 36.8533334,12.2600002 36.84,12.22 L35.4,8.38 L35.54,12 C35.5466667,12.0933338 35.5699998,12.2249991 35.61,12.395 C35.6500002,12.5650008 35.67,12.6899996 35.67,12.77 C35.67,13.0166679 35.4866685,13.2099993 35.12,13.35 C35.0733331,13.3633334 35.016667,13.37 34.95,13.37 C34.7433323,13.37 34.5300011,13.3000007 34.31,13.16 C34.0566654,13.0066659 33.8933337,12.8066679 33.82,12.56 C33.8066666,12.5199998 33.8,12.4833335 33.8,12.45 C33.8,12.383333 33.8399996,12.3083337 33.92,12.225 C34.0000004,12.1416662 34.04,12.066667 34.04,12 L33.92,6.3 C33.92,6.2066662 33.886667,6.08833405 33.82,5.945 C33.753333,5.80166595 33.72,5.6933337 33.72,5.62 C33.72,5.5066661 33.7799994,5.38500065 33.9,5.255 C34.0200006,5.12499935 34.2299985,5.06 34.53,5.06 C34.9700022,5.06 35.3199987,5.1666656 35.58,5.38 C35.7266674,5.5000006 35.8,5.626666 35.8,5.76 C35.8,5.7800001 35.7966667,5.8099998 35.79,5.85 L35.79,5.94 C35.79,6.0000003 35.7999999,6.0533331 35.82,6.1 L37.8,10.9 L40.02,5.8 C40.0466668,5.7399997 40.06,5.6700004 40.06,5.59 C40.06,5.5633332 40.0566667,5.5233336 40.05,5.47 L40.05,5.35 C40.05,5.1966659 40.1199993,5.0666672 40.26,4.96 C40.3733339,4.8733329 40.5233324,4.83 40.71,4.83 C40.9966681,4.83 41.2749987,4.9166658 41.545,5.09 C41.8150013,5.2633342 41.9466667,5.4599989 41.94,5.68 C41.9333333,5.7866672 41.8833338,5.87499965 41.79,5.945 C41.6966662,6.01500035 41.6533333,6.0799997 41.66,6.14 L42.08,12.04 C42.0866667,12.106667 42.1399995,12.2216658 42.24,12.385 C42.3400005,12.5483341 42.39,12.6799995 42.39,12.78 C42.39,12.846667 42.3666669,12.913333 42.32,12.98 Z"/>
  </g>
</svg>
