<svg xmlns="http://www.w3.org/2000/svg" width="64" height="64" viewBox="0 0 64 64">
  <g fill="none" fill-rule="evenodd">
    <rect width="58" height="58" x="3" y="4" fill="#22BA8E"/>
    <polygon fill="#0A3586" points="6 7 58 7 58 59 6 59"/>
    <path fill="#22BA8E" d="M35.52,39.84 C35.3333324,40.1866684 34.9200032,40.3999996 34.28,40.48 C34.2266664,40.48 33.6533388,40.5066664 32.56,40.56 C32.7466676,41.760006 33.439994,43.2533244 34.64,45.04 C35.3333368,45.5466692 35.68,46.2133292 35.68,47.04 C35.68,48.3466732 34.880008,49 33.28,49 C31.7599924,49 30.7200028,48.6133372 30.16,47.84 C29.9733324,47.573332 29.8533336,47.2133356 29.8,46.76 C29.8,46.4666652 29.7866668,46.1600016 29.76,45.84 C29.5199988,45.5999988 28.800006,44.0533476 27.6,41.2 C25.4133224,41.5200016 22.720016,41.9733304 19.52,42.56 C19.1999984,43.3333372 18.8533352,44.453326 18.48,45.92 C18.5333336,46.186668 18.56,46.4399988 18.56,46.68 C18.56,47.4000036 18.3200024,47.9533314 17.84,48.34 C17.3599976,48.7266686 16.78667,48.92 16.12,48.92 C15.3733296,48.92 14.6800032,48.6400028 14.04,48.08 C13.3999968,47.5199972 13.08,46.8666704 13.08,46.12 C13.08,45.45333 13.3866636,44.853336 14,44.32 C16.00001,34.1599492 18.4266524,25.7600332 21.28,19.12 C21.2266664,18.7999984 21.2,18.4800016 21.2,18.16 C21.2,16.82666 21.6533288,15.9466688 22.56,15.52 C22.9333352,15.3599992 23.4133304,15.28 24,15.28 C25.1200056,15.28 26.0533296,15.4533316 26.8,15.8 C27.7600048,16.2800024 28.24,16.9999952 28.24,17.96 C28.24,18.8400044 28.0000024,19.6266632 27.52,20.32 C28.0266692,24.853356 29.1199916,30.0799704 30.8,36 C30.9600008,35.9733332 31.506662,35.8400012 32.44,35.6 C33.0000028,35.4399992 33.4266652,35.36 33.72,35.36 C34.0666684,35.36 34.3466656,35.4399992 34.56,35.6 C35.493338,36.3200036 35.96,37.1999948 35.96,38.24 C35.96,38.8000028 35.8133348,39.3333308 35.52,39.84 Z M25.92,36.8 C25.4666644,35.1199916 24.7466716,31.8933572 23.76,27.12 C21.8666572,31.253354 20.7466684,34.7999852 20.4,37.76 L25.92,36.8 Z M53.8,28.48 C53.8533336,28.880002 53.7733344,29.3066644 53.56,29.76 C53.293332,30.3733364 53.1333336,30.8266652 53.08,31.12 C53.08,36.6666944 52.8533356,40.5199892 52.4,42.68 C51.4133284,47.213356 49.320016,49.48 46.12,49.48 C41.45331,49.48 39.12,45.2267092 39.12,36.72 C39.12,34.4266552 39.2933316,32.0000128 39.64,29.44 C39.4533324,28.8266636 39.36,28.2800024 39.36,27.8 C39.36,27.0266628 39.6133308,26.373336 40.12,25.84 C40.5466688,25.3866644 41.1733292,25.16 42,25.16 C42.66667,25.16 43.2933304,25.2999986 43.88,25.58 C44.4666696,25.8600014 44.8133328,26.1866648 44.92,26.56 C44.9733336,26.7466676 45,26.9333324 45,27.12 C45,27.4666684 44.8533348,28.0199962 44.56,28.78 C44.2666652,29.5400038 44.1466664,30.1599976 44.2,30.64 C43.933332,32.1333408 43.8,34.013322 43.8,36.28 C43.8,38.5733448 43.9466652,40.4799924 44.24,42 C44.6133352,43.7600088 45.13333,44.64 45.8,44.64 C46.9200056,44.64 47.6533316,42.7466856 48,38.96 C48.1866676,37.0666572 48.28,34.053354 48.28,29.92 C48.28,29.653332 48.2400004,29.2666692 48.16,28.76 C48.0799996,28.2533308 48.04,27.8800012 48.04,27.64 C48.04,26.9999968 48.2799976,26.5600012 48.76,26.32 C49.026668,26.186666 49.3999976,26.12 49.88,26.12 C50.7600044,26.12 51.5733296,26.3066648 52.32,26.68 C53.2000044,27.1333356 53.6933328,27.7333296 53.8,28.48 Z"/>
  </g>
</svg>
