<svg xmlns="http://www.w3.org/2000/svg" width="64" height="64" viewBox="0 0 64 64">
  <g fill="none" fill-rule="evenodd">
    <path stroke="#BD7575" stroke-linecap="square" stroke-width="2" d="M9 46L9 58M32 46L32 58M54 46L54 58"/>
    <path fill="#FF78C7" d="M9,47 C12.8659932,47 16,46.3958153 16,42.875 C16,39.3541847 12.8659932,35 9,35 C5.13400675,35 2,39.3541847 2,42.875 C2,46.3958153 5.13400675,47 9,47 Z"/>
    <path fill="#FF78C7" d="M9,38 C12.8659932,38 16,37.3958153 16,33.875 C16,30.3541847 12.8659932,26 9,26 C5.13400675,26 2,30.3541847 2,33.875 C2,37.3958153 5.13400675,38 9,38 Z"/>
    <path fill="#22BA8E" d="M54,47 C57.8659932,47 61,46.3958153 61,42.875 C61,39.3541847 57.8659932,35 54,35 C50.1340068,35 47,39.3541847 47,42.875 C47,46.3958153 50.1340068,47 54,47 Z"/>
    <path fill="#E43535" d="M32,45 C35.8659932,45 39,44.0937229 39,38.8125 C39,33.5312771 35.8659932,27 32,27 C28.1340068,27 25,33.5312771 25,38.8125 C25,44.0937229 28.1340068,45 32,45 Z"/>
    <path fill="#E43535" d="M32,32 C35.8659932,32 39,31.0937229 39,25.8125 C39,20.5312771 35.8659932,14 32,14 C28.1340068,14 25,20.5312771 25,25.8125 C25,31.0937229 28.1340068,32 32,32 Z"/>
    <path fill="#80D25B" d="M24,60 C24,56.1340068 20.8659932,53 17,53 C13.1340068,53 10,56.1340068 10,60 L24,60 Z"/>
    <path fill="#80D25B" d="M36,60 C36,56.1340068 32.8659932,53 29,53 C25.1340068,53 22,56.1340068 22,60 L36,60 Z"/>
    <path fill="#22BA8E" d="M52,60 C52,56.1340068 48.8659932,53 45,53 C41.1340068,53 38,56.1340068 38,60 L52,60 Z"/>
    <path fill="#80D25B" d="M41,60 C41,57.2385763 38.7614237,55 36,55 C33.2385763,55 31,57.2385763 31,60 L41,60 Z"/>
    <path fill="#22BA8E" d="M26,60 C26,57.2385763 23.7614237,55 21,55 C18.2385763,55 16,57.2385763 16,60 L26,60 Z"/>
    <path stroke="#BD7575" stroke-linecap="square" stroke-width="2" d="M5,60 L58.0377224,60"/>
  </g>
</svg>
