<svg xmlns="http://www.w3.org/2000/svg" width="64" height="64" viewBox="0 0 64 64">
  <g fill="none" fill-rule="evenodd">
    <polygon fill="#E6E6E6" points="19.045 3 52 3 52 61 12 61 12 9.065"/>
    <polygon fill="#CDCDCD" points="19 3 19 9 12 9"/>
    <path fill="#979797" d="M23.66,38.418 C23.6786668,38.5300006 23.6693335,38.6606659 23.632,38.81 C23.557333,39.0433345 23.5153334,39.1739999 23.506,39.202 C23.4966666,39.3513341 23.4850001,39.5076659 23.471,39.671 C23.4569999,39.8343342 23.4056671,39.9626662 23.317,40.056 C23.2283329,40.1493338 23.0533346,40.196 22.792,40.196 C22.5306654,40.196 22.302001,40.1446672 22.106,40.042 C21.8726655,39.9299994 21.7513334,39.776001 21.742,39.58 C21.742,39.4959996 21.7676664,39.3933339 21.819,39.272 C21.8703336,39.1506661 21.9029999,39.0573337 21.917,38.992 C21.9310001,38.9266663 21.9333334,38.7493348 21.924,38.46 C21.924,38.2453323 21.9776661,38.0866672 22.085,37.984 C22.1923339,37.8813328 22.3626655,37.83 22.596,37.83 C22.8386679,37.83 23.0673323,37.8836661 23.282,37.991 C23.4966677,38.0983339 23.6226665,38.2406658 23.66,38.418 Z M31.136,39.412 C30.9959993,39.8693356 30.6506694,40.098 30.1,40.098 C29.9133324,40.098 29.7640006,40.0653337 29.652,40 C29.5026659,39.8973328 29.4000003,39.6920015 29.344,39.384 C29.2319994,38.8519973 29.1200006,38.4366682 29.008,38.138 C28.9799999,38.6513359 28.7000027,39.171664 28.168,39.699 C27.6359973,40.226336 27.099336,40.49 26.558,40.49 C25.8766633,40.49 25.4053346,40.0373379 25.144,39.132 C25.0506662,38.7959983 25.004,38.4786682 25.004,38.18 C25.004,37.3119957 25.4473289,36.5700031 26.334,35.954 C27.0620036,35.5246645 27.794663,35.1000021 28.532,34.68 C28.5693335,34.5213325 28.588,34.3673341 28.588,34.218 C28.588,33.9286652 28.5086675,33.7583336 28.35,33.707 C28.1913325,33.6556664 28.0560006,33.63 27.944,33.63 C27.747999,33.63 27.5870006,33.6929994 27.461,33.819 L27.104,34.176 C26.9919994,34.250667 26.8473342,34.423332 26.67,34.694 C26.5299993,34.9086677 26.3760008,35.0253332 26.208,35.044 C25.9653321,35.0720001 25.746001,34.988001 25.55,34.792 C25.353999,34.595999 25.256,34.3673346 25.256,34.106 C25.256,33.9566659 25.293333,33.8213339 25.368,33.7 C25.5826677,33.3453316 25.9046645,33.0373346 26.334,32.776 C26.9873366,32.383998 27.8039951,32.188 28.784,32.188 C29.4093365,32.188 29.8386655,32.4866637 30.072,33.084 C30.2213341,33.4853353 30.333333,34.2366612 30.408,35.338 C30.4920004,36.6726733 30.5946661,37.6479969 30.716,38.264 C30.7346668,38.3853339 30.8139993,38.5393324 30.954,38.726 C31.0940007,38.9126676 31.164,39.0759993 31.164,39.216 C31.164,39.2813337 31.1546668,39.3466663 31.136,39.412 Z M28.7,35.968 C28.4199986,36.1173341 28.1423347,36.2713325 27.867,36.43 C27.5916653,36.5886675 27.3373345,36.7986654 27.104,37.06 C26.7679983,37.4426686 26.6,37.769332 26.6,38.04 C26.6,38.2640011 26.6839992,38.4973321 26.852,38.74 C26.9453338,38.8706673 27.0479994,38.936 27.16,38.936 C27.4026679,38.936 27.6663319,38.665336 27.951,38.124 C28.2356681,37.582664 28.4853323,36.8640045 28.7,35.968 Z M38.024,32.44 C38.0893337,32.5613339 38.122,32.6873327 38.122,32.818 C38.122,33.0046676 38.0426675,33.2379986 37.884,33.518 C37.6599989,33.8913352 37.5293335,34.1293328 37.492,34.232 C37.0813313,35.4080059 36.5540032,36.891991 35.91,38.684 C35.7886661,39.3000031 35.6346676,39.7386654 35.448,40 C35.2146655,40.3546684 34.8693356,40.5180001 34.412,40.49 C33.9733311,40.4619999 33.6793341,40.3733341 33.53,40.224 C33.4179994,40.1119994 33.362,39.9393345 33.362,39.706 L33.362,39.412 C33.362,39.2439992 33.3480001,39.1040006 33.32,38.992 L31.892,33.868 C31.8639999,33.7559994 31.7426677,33.5740013 31.528,33.322 C31.3506658,33.125999 31.2806665,32.9440008 31.318,32.776 C31.4113338,32.3653313 31.7426638,32.16 32.312,32.16 C32.4333339,32.16 32.5453328,32.1693332 32.648,32.188 C33.0120018,32.262667 33.3713316,32.901994 33.726,34.106 C34.0153348,35.235339 34.3093318,36.3599944 34.608,37.48 L36.064,33 C36.138667,32.7759989 36.1993331,32.6220004 36.246,32.538 C36.3300004,32.3886659 36.4489992,32.2720004 36.603,32.188 C36.7570008,32.1039996 36.9459989,32.062 37.17,32.062 C37.5993355,32.062 37.8839993,32.1879987 38.024,32.44 Z M41.23,29.5 C41.2580001,29.5280001 41.272,29.5746663 41.272,29.64 C41.272,29.7240004 41.2440003,29.8686656 41.188,30.074 C41.1226663,30.3260013 41.0806668,30.4986662 41.062,30.592 C41.0433332,30.6853338 41.0526665,30.8906651 41.09,31.208 C41.09,31.404001 41.0316673,31.532333 40.915,31.593 C40.7983327,31.653667 40.6513342,31.684 40.474,31.684 C40.2219987,31.684 39.9653346,31.6326672 39.704,31.53 C39.3866651,31.3993327 39.228,31.2266677 39.228,31.012 C39.228,30.9466663 39.2559997,30.8556672 39.312,30.739 C39.3680003,30.6223327 39.4006666,30.526667 39.41,30.452 C39.4286668,30.377333 39.4286668,30.1906682 39.41,29.892 C39.3913332,29.6586655 39.4379994,29.5000004 39.55,29.416 C39.6993341,29.3039994 39.9653314,29.248 40.348,29.248 C40.7680021,29.248 41.0619992,29.3319992 41.23,29.5 Z M41.412,32.916 C41.412,33.0466673 41.3396674,33.2496653 41.195,33.525 C41.0503326,33.8003347 40.978,34.0266658 40.978,34.204 L40.978,38.32 C40.978,38.5066676 41.0293328,38.7703316 41.132,39.111 C41.2346672,39.4516684 41.286,39.6873327 41.286,39.818 C41.286,40.0046676 41.2113341,40.1446662 41.062,40.238 C40.8286655,40.3873341 40.576668,40.462 40.306,40.462 C39.9513316,40.462 39.6993341,40.3406679 39.55,40.098 C39.353999,39.7993318 39.256,38.9080074 39.256,37.424 C39.256,37.0693316 39.2629999,36.5163371 39.277,35.765 C39.2910001,35.0136629 39.298,34.4653351 39.298,34.12 C39.298,33.9893327 39.2840001,33.8190011 39.256,33.609 C39.2279999,33.398999 39.214,33.2473338 39.214,33.154 C39.214,32.8459985 39.3259989,32.5800011 39.55,32.356 C39.6433338,32.2626662 39.8159987,32.216 40.068,32.216 C40.3200013,32.216 40.5719987,32.2556663 40.824,32.335 C41.0760013,32.4143337 41.2369997,32.5053328 41.307,32.608 C41.3770004,32.7106672 41.412,32.8133328 41.412,32.916 Z"/>
  </g>
</svg>
