<svg xmlns="http://www.w3.org/2000/svg" width="64" height="64" viewBox="0 0 64 64">
  <g fill="none" fill-rule="evenodd">
    <path fill="#D8D8D8" d="M24,4 C17.372583,4 13,11.6111593 13,21 C13,30.3888407 17.372583,60 24,60 C27.8661992,60 28.3053608,35.4098157 33.5,35.3875505 C39.6946392,35.4098157 39.1338008,60 43,60 C49.627417,60 54,30.3888407 54,21 C54,11.6111593 49.627417,4 43,4 C39.8333333,4 36.6666667,7 33.5,7 C30.3333333,7 27.1666667,4 24,4 Z"/>
    <path fill="#BD7575" d="M53.1182297,31.7969828 C51.5242053,44.003224 47.8711648,60 43,60 C39.1338008,60 39.6946392,35.4098157 33.5,35.3875505 C28.3053608,35.4098157 27.8661992,60 24,60 C19.2561719,60 15.6676148,44.8286337 14.0109842,32.7616474 L25.5344906,24.97369 L29.7911544,28.504141 L34.167542,23.3397112 L40.461761,29.6451719 L49.4033966,26.5919305 L53.1182297,31.7969828 Z"/>
    <path stroke="#9C4D4D" stroke-linecap="round" stroke-linejoin="round" stroke-width="2" d="M21 35L21 40M26 30L26 35M43 39L43 44M43 34L43 36M22 49L22 51M46 36L46 41"/>
    <path fill="#E43535" fill-rule="nonzero" stroke="#FFF" stroke-width="2" d="M6.41021742,60.2903139 L60.5872217,6.41819854 C61.3704711,5.63935699 61.3740444,4.37303208 60.5952028,3.58978268 C59.8163613,2.80653328 58.5500364,2.80296001 57.766787,3.58180156 L3.58978268,57.4539169 C2.80653328,58.2327584 2.80296001,59.4990834 3.58180156,60.2823328 C4.36064311,61.0655822 5.62696802,61.0691554 6.41021742,60.2903139 Z"/>
  </g>
</svg>
