<svg xmlns="http://www.w3.org/2000/svg" width="64" height="64" viewBox="0 0 64 64">
  <g fill="none" fill-rule="evenodd">
    <path fill="#D8D8D8" d="M25,4 C18.372583,4 14,11.6111593 14,21 C14,30.3888407 18.372583,60 25,60 C28.8661992,60 29.3053608,35.4098157 34.5,35.3875505 C40.6946392,35.4098157 40.1338008,60 44,60 C50.627417,60 55,30.3888407 55,21 C55,11.6111593 50.627417,4 44,4 C40.8333333,4 37.6666667,7 34.5,7 C31.3333333,7 28.1666667,4 25,4 Z"/>
    <circle cx="25" cy="15" r="5" fill="#BD7575"/>
    <circle cx="39" cy="18" r="3" fill="#9C4D4D"/>
    <circle cx="27.5" cy="29.5" r="3.5" fill="#BD7575"/>
    <path fill="#E43535" fill-rule="nonzero" stroke="#FFF" stroke-width="2" d="M6.41021742,60.2903139 L60.5872217,6.41819854 C61.3704711,5.63935699 61.3740444,4.37303208 60.5952028,3.58978268 C59.8163613,2.80653328 58.5500364,2.80296001 57.766787,3.58180156 L3.58978268,57.4539169 C2.80653328,58.2327584 2.80296001,59.4990834 3.58180156,60.2823328 C4.36064311,61.0655822 5.62696802,61.0691554 6.41021742,60.2903139 Z"/>
  </g>
</svg>
