<svg xmlns="http://www.w3.org/2000/svg" width="64" height="64" viewBox="0 0 64 64">
  <g fill="none" fill-rule="evenodd">
    <path fill="#FFAF40" d="M17.0714286,18 C12.8109462,18 10,22.8928881 10,28.9285714 C10,34.9642548 12.8109462,54 17.0714286,54 C19.5568423,54 20.1962339,38.1920244 23.5356448,38.177711 C27.5179129,38.1920244 26.8003005,54 29.2857143,54 C33.5461966,54 36.3571429,34.9642548 36.3571429,28.9285714 C36.3571429,22.8928881 33.5461966,18 29.2857143,18 C27.25,18 25.5713591,19.9630984 23.5356448,19.9630984 C21.4999305,19.9630984 19.1071429,18 17.0714286,18 Z"/>
    <path fill="#FFDD95" d="M20.0988064,14.1267381 L23.9208737,11 L30.832189,11.0538319 L37.1686561,14.9870878 L46.957096,15.0771281 L46.3780823,28.1839222 L39.7804662,28.0881141 L34.0005828,30.506706 L25.5009457,20.4918865 C25.5009457,20.4918865 16.8547723,26.2398785 16.2323081,25.5064511 C16.0594862,25.3028213 13.0869511,23.3215783 13.4966887,22.029693 C13.9064263,20.7378077 20.0988064,14.1267381 20.0988064,14.1267381 Z"/>
    <path stroke="#FFAF40" stroke-linecap="round" stroke-width="2" d="M35.1389288,31.835198 L24.571055,20.5830017 L18.5410308,24.8403875 C17.1857774,25.7972388 15.1699578,25.5929997 14.0361299,24.3815977 L14.6122819,24.9971687 C13.4795473,23.7869348 13.4605064,21.8096733 14.5698992,20.5806695 L23.1081753,11.1218253 L31.0930898,11.0429411 L37.2840925,15.0118035 L45.2876716,14.9931389"/>
    <polyline stroke="#FFAF40" stroke-linecap="round" stroke-width="2" points="34.421 30.745 40.323 28.029 46.114 28.049"/>
    <rect width="9" height="19" x="45" y="12.984" fill="#B4DFFB"/>
    <rect width="2" height="2" x="48" y="15.984" fill="#979797"/>
  </g>
</svg>
