<svg xmlns="http://www.w3.org/2000/svg" width="64" height="64" viewBox="0 0 64 64">
  <g fill="none" fill-rule="evenodd">
    <path fill="#E43535" d="M12.6758839,41.8241161 L18.6758839,41.8241161 L18.6758839,56.8315764 C18.6758839,58.4843105 17.3293667,59.8241161 15.6758839,59.8241161 L15.6758839,59.8241161 C14.0190296,59.8241161 12.6758839,58.4711906 12.6758839,56.8315764 L12.6758839,41.8241161 Z" transform="rotate(45 15.676 50.824)"/>
    <polygon fill="#BD7575" points="36.222 7.577 39.222 2.978 42.222 7.577 42.222 51.577 36.222 51.577" transform="rotate(45 39.222 27.278)"/>
    <path fill="#B4DFFB" d="M33.6090826,38.4423194 C28.6005724,35.2460518 25.2791956,29.6397916 25.2791956,23.2577822 C25.2791956,16.8262601 28.652308,11.1825707 33.7259571,7.9992894 C34.9892472,12.074658 38.7885471,15.0346729 43.2791956,15.0346729 C47.7698441,15.0346729 51.569144,12.074658 52.8324341,7.9992894 C57.9060832,11.1825707 61.2791956,16.8262601 61.2791956,23.2577822 C61.2791956,29.6397916 57.9578187,35.2460518 52.9493085,38.4423194 C51.8195137,34.1581874 47.9182547,30.9992894 43.2791956,30.9992894 C38.6401364,30.9992894 34.7388775,34.1581874 33.6090826,38.4423194 Z" transform="rotate(45 43.28 23.22)"/>
  </g>
</svg>
