<svg xmlns="http://www.w3.org/2000/svg" width="64" height="64" viewBox="0 0 64 64">
  <g fill="none" fill-rule="evenodd">
    <rect width="58" height="37" x="3" y="15" fill="#80D25B" rx="4"/>
    <path fill="#BD7575" fill-rule="nonzero" d="M59,42.75 L59,47.996614 C59,49.1027719 58.1031842,50 56.9994277,50 L46.5,50 C45.3954305,50 44.5,50.8954305 44.5,52 C44.5,53.1045695 45.3954305,54 46.5,54 L56.9994277,54 C60.3127348,54 63,51.3114995 63,47.996614 L63,42.75 C63,41.6454305 62.1045695,40.75 61,40.75 C59.8954305,40.75 59,41.6454305 59,42.75 Z M17.5,50 L7.00057235,50 C5.89224409,50 5,49.108497 5,47.996614 L5,42.75 C5,41.6454305 4.1045695,40.75 3,40.75 C1.8954305,40.75 1,41.6454305 1,42.75 L1,47.996614 C1,51.3183804 3.68384879,54 7.00057235,54 L17.5,54 C18.6045695,54 19.5,53.1045695 19.5,52 C19.5,50.8954305 18.6045695,50 17.5,50 Z M5,24.25 L5,19.003386 C5,17.8972281 5.89681583,17 7.00057235,17 L17.5,17 C18.6045695,17 19.5,16.1045695 19.5,15 C19.5,13.8954305 18.6045695,13 17.5,13 L7.00057235,13 C3.6872652,13 1,15.6885005 1,19.003386 L1,24.25 C1,25.3545695 1.8954305,26.25 3,26.25 C4.1045695,26.25 5,25.3545695 5,24.25 Z M46.5,17 L56.9994277,17 C58.1077559,17 59,17.891503 59,19.003386 L59,24.25 C59,25.3545695 59.8954305,26.25 61,26.25 C62.1045695,26.25 63,25.3545695 63,24.25 L63,19.003386 C63,15.6816196 60.3161512,13 56.9994277,13 L46.5,13 C45.3954305,13 44.5,13.8954305 44.5,15 C44.5,16.1045695 45.3954305,17 46.5,17 Z"/>
    <path fill="#FFF" d="M18.542,26.268 C18.542,26.8560029 18.2386697,27.5233296 17.632,28.27 C17.5106661,28.4100007 16.9040055,29.0493276 15.812,30.188 C15.6346658,30.5240017 15.4573342,30.8553317 15.28,31.182 C15.0466655,31.4993349 14.7666683,31.6393335 14.44,31.602 C13.8053302,31.527333 13.2733355,31.1960029 12.844,30.608 C12.6946659,30.411999 12.62,30.2300008 12.62,30.062 C12.62,29.8753324 12.7226656,29.6980008 12.928,29.53 C12.8346662,29.0166641 12.7460004,27.6260113 12.662,25.358 C12.5966663,23.491324 12.564,22.2173367 12.564,21.536 C12.367999,21.2279985 12.27,20.9106683 12.27,20.584 C12.27,20.3413321 12.3399993,20.1453341 12.48,19.996 C12.5826672,19.8933328 12.731999,19.842 12.928,19.842 C13.4320025,19.842 13.8426651,20.0333314 14.16,20.416 C15.0653379,20.0799983 15.8026638,19.912 16.372,19.912 C17.0160032,19.912 17.4453323,20.1173313 17.66,20.528 C17.8000007,20.7893346 17.87,21.0786651 17.87,21.396 C17.87,22.3760049 17.3426719,23.4026613 16.288,24.476 L17.576,24.868 C17.9773353,25.0173341 18.2386661,25.2203321 18.36,25.477 C18.4813339,25.7336679 18.542,25.997332 18.542,26.268 Z M15.56,21.648 C15.3266655,21.648 14.8973365,21.8533313 14.272,22.264 C14.272,22.3480004 14.2813332,22.6209977 14.3,23.083 C14.3186668,23.5450023 14.328,23.8506659 14.328,24 C14.7013352,23.6826651 15.0443318,23.3023355 15.357,22.859 C15.6696682,22.4156644 15.826,22.0866677 15.826,21.872 C15.826,21.7226659 15.7373342,21.648 15.56,21.648 Z M16.036,26.1 C15.494664,26.1 14.9813358,26.3053313 14.496,26.716 L14.552,28.844 C15.8866733,27.7893281 16.554,27.0006693 16.554,26.478 C16.554,26.2259987 16.3813351,26.1 16.036,26.1 Z M25.052,30.412 C24.9119993,30.8693356 24.5666694,31.098 24.016,31.098 C23.8293324,31.098 23.6800006,31.0653337 23.568,31 C23.4186659,30.8973328 23.3160003,30.6920015 23.26,30.384 C23.1479994,29.8519973 23.0360006,29.4366682 22.924,29.138 C22.8959999,29.6513359 22.6160027,30.171664 22.084,30.699 C21.5519973,31.226336 21.015336,31.49 20.474,31.49 C19.7926633,31.49 19.3213346,31.0373379 19.06,30.132 C18.9666662,29.7959983 18.92,29.4786682 18.92,29.18 C18.92,28.3119957 19.3633289,27.5700031 20.25,26.954 C20.9780036,26.5246645 21.710663,26.1000021 22.448,25.68 C22.4853335,25.5213325 22.504,25.3673341 22.504,25.218 C22.504,24.9286652 22.4246675,24.7583336 22.266,24.707 C22.1073325,24.6556664 21.9720006,24.63 21.86,24.63 C21.663999,24.63 21.5030006,24.6929994 21.377,24.819 L21.02,25.176 C20.9079994,25.250667 20.7633342,25.423332 20.586,25.694 C20.4459993,25.9086677 20.2920008,26.0253332 20.124,26.044 C19.8813321,26.0720001 19.662001,25.988001 19.466,25.792 C19.269999,25.595999 19.172,25.3673346 19.172,25.106 C19.172,24.9566659 19.209333,24.8213339 19.284,24.7 C19.4986677,24.3453316 19.8206645,24.0373346 20.25,23.776 C20.9033366,23.383998 21.7199951,23.188 22.7,23.188 C23.3253365,23.188 23.7546655,23.4866637 23.988,24.084 C24.1373341,24.4853353 24.249333,25.2366612 24.324,26.338 C24.4080004,27.6726733 24.5106661,28.6479969 24.632,29.264 C24.6506668,29.3853339 24.7299993,29.5393324 24.87,29.726 C25.0100007,29.9126676 25.08,30.0759993 25.08,30.216 C25.08,30.2813337 25.0706668,30.3466663 25.052,30.412 Z M22.616,26.968 C22.3359986,27.1173341 22.0583347,27.2713325 21.783,27.43 C21.5076653,27.5886675 21.2533345,27.7986654 21.02,28.06 C20.6839983,28.4426686 20.516,28.769332 20.516,29.04 C20.516,29.2640011 20.5999992,29.4973321 20.768,29.74 C20.8613338,29.8706673 20.9639994,29.936 21.076,29.936 C21.3186679,29.936 21.5823319,29.665336 21.867,29.124 C22.1516681,28.582664 22.4013323,27.8640045 22.616,26.968 Z M30.778,28.676 C30.7686666,28.8813344 30.6800008,29.0913323 30.512,29.306 C30.2506654,29.6140015 30.082667,29.8473325 30.008,30.006 C29.4199971,30.9020045 28.8133365,31.35 28.188,31.35 C27.450663,31.35 26.8766687,30.9766704 26.466,30.23 C26.1019982,29.5486633 25.92,28.6900052 25.92,27.654 C25.92,26.4686607 26.1439978,25.4373377 26.592,24.56 C27.0866691,23.5893285 27.7259961,23.104 28.51,23.104 C29.1260031,23.104 29.6253314,23.4446633 30.008,24.126 C30.3253349,24.7046696 30.484,25.3346633 30.484,26.016 C30.484,26.2026676 30.4700001,26.3659993 30.442,26.506 C30.3766663,26.8233349 30.110669,26.982 29.644,26.982 C29.2799982,26.982 29.000001,26.8793344 28.804,26.674 C28.7106662,26.5713328 28.664,26.3333352 28.664,25.96 C28.664,25.8666662 28.6686666,25.7313342 28.678,25.554 L28.678,25.148 C28.678,24.7279979 28.6033341,24.518 28.454,24.518 C28.2953325,24.518 28.1273342,24.9776621 27.95,25.897 C27.7726658,26.8163379 27.684,27.6773293 27.684,28.48 C27.684,29.413338 27.8239986,29.88 28.104,29.88 C28.4680018,29.88 28.7386658,29.5860029 28.916,28.998 C28.990667,28.9139996 29.0326666,28.7460013 29.042,28.494 C29.042,28.2699989 29.0979994,28.1230003 29.21,28.053 C29.3220006,27.9829997 29.4853323,27.948 29.7,27.948 C29.9800014,27.948 30.2226656,28.0086661 30.428,28.13 C30.6706679,28.2700007 30.7873334,28.4519989 30.778,28.676 Z M38.436,29.908 C38.4453334,29.9733337 38.45,30.0386663 38.45,30.104 C38.45,30.6640028 38.1373365,31.041999 37.512,31.238 C37.3906661,31.2753335 37.2833338,31.294 37.19,31.294 C37.0219992,31.294 36.8680007,31.2146675 36.728,31.056 C36.5133323,30.8226655 36.3826669,30.6920001 36.336,30.664 L33.816,28.9 L33.816,30.076 C33.816,30.1600004 33.8416664,30.2649994 33.893,30.391 C33.9443336,30.5170006 33.97,30.6126663 33.97,30.678 C33.97,30.7806672 33.9186672,30.8879994 33.816,31 C33.5826655,31.2426679 33.2466689,31.364 32.808,31.364 C32.3879979,31.364 32.1173339,31.2240014 31.996,30.944 C31.9399997,30.8133327 31.9213332,30.6780007 31.94,30.538 C31.9773335,30.2953321 31.996,30.1320004 31.996,30.048 L31.996,20.836 C31.9866666,20.6679992 32.0053331,20.4160017 32.052,20.08 C32.1360004,19.8746656 32.3926645,19.772 32.822,19.772 C33.3820028,19.772 33.7413325,19.8746656 33.9,20.08 C33.9840004,20.1920006 34.026,20.3133327 34.026,20.444 C34.026,20.5466672 33.9910003,20.7053323 33.921,20.92 C33.8509997,21.1346677 33.816,21.3026661 33.816,21.424 C33.7973332,21.965336 33.7973332,23.4913208 33.816,26.002 C34.3386693,25.4979975 35.0106626,24.8400041 35.832,24.028 C35.9440006,23.9159994 36.0886658,23.7153348 36.266,23.426 C36.3686672,23.2579992 36.5226656,23.1460003 36.728,23.09 C36.7840003,23.0713332 36.849333,23.062 36.924,23.062 C37.194668,23.062 37.4723319,23.1646656 37.757,23.37 C38.0416681,23.5753344 38.184,23.7946655 38.184,24.028 C38.184,24.1586673 38.0906676,24.3173324 37.904,24.504 C37.7173324,24.6906676 37.5306676,24.8679992 37.344,25.036 L35.02,27.444 L37.512,29.236 C37.5306668,29.2546668 37.7173316,29.3293327 38.072,29.46 C38.2773344,29.5440004 38.3986665,29.6933323 38.436,29.908 Z M46.5,24.644 C46.425333,24.644 46.3086675,24.613667 46.15,24.553 C45.9913325,24.492333 45.8700004,24.462 45.786,24.462 C45.7206663,24.462 45.6553337,24.4759999 45.59,24.504 L45.072,24.77 L45.072,29.558 C45.072,29.7353342 45.1676657,29.9639986 45.359,30.244 C45.5503343,30.5240014 45.6273335,30.7479992 45.59,30.916 C45.5433331,31.1213344 45.4056678,31.2846661 45.177,31.406 C44.9483322,31.5273339 44.7033346,31.588 44.442,31.588 C43.9473309,31.588 43.6066676,31.3686689 43.42,30.93 C43.3639997,30.7993327 43.3313334,30.3840035 43.322,29.684 C43.3126666,29.217331 43.3173332,28.4893383 43.336,27.5 C43.3546668,26.3799944 43.364,25.6706682 43.364,25.372 C43.3079997,25.3906668 43.2146673,25.4536661 43.084,25.561 C42.9533327,25.6683339 42.8226673,25.722 42.692,25.722 C42.5893328,25.722 42.4586675,25.6940003 42.3,25.638 C41.6466634,25.4139989 41.32,25.1853345 41.32,24.952 C41.32,24.8959997 41.3339999,24.8353337 41.362,24.77 C41.4273337,24.6206659 41.5486658,24.5366668 41.726,24.518 C41.996668,24.4806665 42.1599997,24.4480001 42.216,24.42 C42.4306677,24.3359996 42.8226638,24.1353349 43.392,23.818 L43.392,22.6 C43.392,22.5066662 43.3663336,22.3830008 43.315,22.229 C43.2636664,22.0749992 43.238,21.960667 43.238,21.886 C43.238,21.8019996 43.2613331,21.722667 43.308,21.648 C43.5506679,21.2746648 43.8773313,21.088 44.288,21.088 C44.7640024,21.088 45.099999,21.2746648 45.296,21.648 C45.370667,21.7973341 45.408,21.9186662 45.408,22.012 C45.408,22.1240006 45.3520006,22.2406661 45.24,22.362 C45.1279994,22.4833339 45.072,22.5953328 45.072,22.698 L45.072,23.384 C45.2400008,23.309333 45.4266656,23.1833342 45.632,23.006 C45.7906675,22.8753327 45.9259994,22.81 46.038,22.81 C46.0846669,22.81 46.1359997,22.8193332 46.192,22.838 C46.7800029,22.9966675 47.074,23.3513306 47.074,23.902 C47.074,24.0793342 47.0203339,24.2473325 46.913,24.406 C46.8056661,24.5646675 46.6680008,24.644 46.5,24.644 Z M51.932,23.776 C52.5573365,24.4106698 52.87,25.4793258 52.87,26.982 C52.87,28.1486725 52.6506689,29.1426626 52.212,29.964 C51.7173309,30.8880046 51.0360043,31.35 50.168,31.35 C49.309329,31.35 48.646669,30.9346708 48.18,30.104 C47.7693313,29.3759964 47.564,28.4520056 47.564,27.332 C47.564,26.3426617 47.7226651,25.4560039 48.04,24.672 C48.3760017,23.8319958 48.8053307,23.3373341 49.328,23.188 C49.598668,23.113333 49.8786652,23.076 50.168,23.076 C50.8866703,23.076 51.4746644,23.309331 51.932,23.776 Z M50.336,24.448 C50.0279985,24.4199999 49.7620011,24.7093303 49.538,25.316 C49.341999,25.8666694 49.244,26.4453303 49.244,27.052 C49.244,27.9293377 49.281333,28.5499982 49.356,28.914 C49.4866673,29.5673366 49.7573313,29.9266663 50.168,29.992 C50.4293346,30.0293335 50.6719989,29.6700038 50.896,28.914 C51.1106677,28.1859964 51.218,27.4066708 51.218,26.576 C51.218,25.2133265 50.9240029,24.5040003 50.336,24.448 Z M21.02,43.676 C21.02,44.4040036 20.7890023,45.0409973 20.327,45.587 C19.8649977,46.1330027 19.2933367,46.406 18.612,46.406 C17.2399931,46.406 16.2320032,45.7526732 15.588,44.446 C14.8879965,43.9886644 14.538,43.6013349 14.538,43.284 C14.538,43.1253325 14.635999,42.9946672 14.832,42.892 C15.2146686,42.6866656 15.5646651,42.584 15.882,42.584 C16.5726701,42.584 17.0346655,42.9946626 17.268,43.816 C17.3800006,44.0400011 17.4966661,44.2639989 17.618,44.488 C17.7393339,44.7120011 17.9026656,44.824 18.108,44.824 C18.6586694,44.824 18.934,44.4320039 18.934,43.648 C18.934,42.9479965 18.8080013,42.4766679 18.556,42.234 C18.4439994,42.1313328 17.9960039,41.9166683 17.212,41.59 C16.5866635,41.3286654 16.0826686,40.8806698 15.7,40.246 C15.3546649,39.6673304 15.1773334,39.0653365 15.168,38.44 C15.1586666,37.431995 15.4106641,36.5360039 15.924,35.752 C16.465336,34.9119958 17.1373293,34.492 17.94,34.492 C18.873338,34.492 19.5546645,34.8653296 19.984,35.612 C20.2640014,36.078669 20.4226665,36.6573299 20.46,37.348 C20.5626672,37.7026684 20.614,38.0246652 20.614,38.314 C20.614,38.5006676 20.5906669,38.6546661 20.544,38.776 C20.4039993,39.1213351 20.1286687,39.294 19.718,39.294 C19.4099985,39.294 19.1300013,39.1820011 18.878,38.958 C18.5979986,38.7153321 18.4253337,38.3746689 18.36,37.936 C18.3319999,37.7866659 18.3623329,37.6373341 18.451,37.488 C18.5396671,37.3386659 18.584,37.2546668 18.584,37.236 C18.584,37.2173332 18.5746668,37.1986668 18.556,37.18 C18.5653334,37.1333331 18.57,37.0866669 18.57,37.04 C18.57,36.7599986 18.4066683,36.6293332 18.08,36.648 C17.7626651,36.6666668 17.5153342,36.8766647 17.338,37.278 C17.1793325,37.6233351 17.1093332,38.0199978 17.128,38.468 C17.1560001,39.2613373 17.6786616,39.8959976 18.696,40.372 C19.4986707,40.7453352 20.0539985,41.1139982 20.362,41.478 C20.8006689,42.0006693 21.02,42.7333286 21.02,43.676 Z M27.012,43.676 C27.0026666,43.8813344 26.9140008,44.0913323 26.746,44.306 C26.4846654,44.6140015 26.316667,44.8473325 26.242,45.006 C25.6539971,45.9020045 25.0473365,46.35 24.422,46.35 C23.684663,46.35 23.1106687,45.9766704 22.7,45.23 C22.3359982,44.5486633 22.154,43.6900052 22.154,42.654 C22.154,41.4686607 22.3779978,40.4373377 22.826,39.56 C23.3206691,38.5893285 23.9599961,38.104 24.744,38.104 C25.3600031,38.104 25.8593314,38.4446633 26.242,39.126 C26.5593349,39.7046696 26.718,40.3346633 26.718,41.016 C26.718,41.2026676 26.7040001,41.3659993 26.676,41.506 C26.6106663,41.8233349 26.344669,41.982 25.878,41.982 C25.5139982,41.982 25.234001,41.8793344 25.038,41.674 C24.9446662,41.5713328 24.898,41.3333352 24.898,40.96 C24.898,40.8666662 24.9026666,40.7313342 24.912,40.554 L24.912,40.148 C24.912,39.7279979 24.8373341,39.518 24.688,39.518 C24.5293325,39.518 24.3613342,39.9776621 24.184,40.897 C24.0066658,41.8163379 23.918,42.6773293 23.918,43.48 C23.918,44.413338 24.0579986,44.88 24.338,44.88 C24.7020018,44.88 24.9726658,44.5860029 25.15,43.998 C25.224667,43.9139996 25.2666666,43.7460013 25.276,43.494 C25.276,43.2699989 25.3319994,43.1230003 25.444,43.053 C25.5560006,42.9829997 25.7193323,42.948 25.934,42.948 C26.2140014,42.948 26.4566656,43.0086661 26.662,43.13 C26.9046679,43.2700007 27.0213334,43.4519989 27.012,43.676 Z M33.718,44.824 C33.7740003,45.0573345 33.802,45.2066663 33.802,45.272 C33.802,45.468001 33.6876678,45.6289994 33.459,45.755 C33.2303322,45.8810006 32.9853346,45.944 32.724,45.944 C32.3226647,45.944 32.0660006,45.7946682 31.954,45.496 C31.9073331,45.3746661 31.884,45.2720004 31.884,45.188 C31.884,45.0666661 31.9376661,44.9360007 32.045,44.796 C32.1523339,44.6559993 32.206,44.5253339 32.206,44.404 C32.3180006,43.9186642 32.374,43.2186712 32.374,42.304 C32.374,40.7173254 32.2620011,39.9053335 32.038,39.868 C31.8699992,39.8399999 31.5993352,40.1059972 31.226,40.666 C30.833998,41.2540029 30.5073346,41.9119964 30.246,42.64 C29.9379985,43.498671 29.8073331,44.2546634 29.854,44.908 C29.8259999,44.9640003 29.812,45.0199997 29.812,45.076 C29.812,45.1600004 29.849333,45.2789992 29.924,45.433 C29.998667,45.5870008 30.036,45.7106662 30.036,45.804 C30.036,45.8973338 30.0033337,45.9859996 29.938,46.07 C29.6859987,46.4340018 29.4340013,46.616 29.182,46.616 C28.9206654,46.616 28.6686679,46.4106687 28.426,46 C28.2859993,45.7573321 28.216,44.3620127 28.216,41.814 C28.216,40.880662 28.2393331,38.7573499 28.286,35.444 C28.286,35.3879997 28.2813334,35.3016673 28.272,35.185 C28.2626666,35.0683328 28.258,34.9773337 28.258,34.912 C28.2673334,34.8186662 28.2953331,34.734667 28.342,34.66 C28.4446672,34.463999 28.6639983,34.366 29,34.366 C29.2986682,34.366 29.5716654,34.4453325 29.819,34.604 C30.0663346,34.7626675 30.1620003,34.9493323 30.106,35.164 C30.0966666,35.2200003 30.0523337,35.285333 29.973,35.36 C29.8936663,35.434667 29.854,35.509333 29.854,35.584 L29.854,40.092 C30.3860027,38.8973274 31.1699948,38.262667 32.206,38.188 C32.7660028,38.1506665 33.2139983,38.5706623 33.55,39.448 C33.8580015,40.2506707 34.012,41.2353275 34.012,42.402 C34.012,43.2980045 33.914001,44.1053297 33.718,44.824 Z M39.57,38.776 C40.1953365,39.4106698 40.508,40.4793258 40.508,41.982 C40.508,43.1486725 40.2886689,44.1426626 39.85,44.964 C39.3553309,45.8880046 38.6740043,46.35 37.806,46.35 C36.947329,46.35 36.284669,45.9346708 35.818,45.104 C35.4073313,44.3759964 35.202,43.4520056 35.202,42.332 C35.202,41.3426617 35.3606651,40.4560039 35.678,39.672 C36.0140017,38.8319958 36.4433307,38.3373341 36.966,38.188 C37.236668,38.113333 37.5166652,38.076 37.806,38.076 C38.5246703,38.076 39.1126644,38.309331 39.57,38.776 Z M37.974,39.448 C37.6659985,39.4199999 37.4000011,39.7093303 37.176,40.316 C36.979999,40.8666694 36.882,41.4453303 36.882,42.052 C36.882,42.9293377 36.919333,43.5499982 36.994,43.914 C37.1246673,44.5673366 37.3953313,44.9266663 37.806,44.992 C38.0673346,45.0293335 38.3099989,44.6700038 38.534,43.914 C38.7486677,43.1859964 38.856,42.4066708 38.856,41.576 C38.856,40.2133265 38.5620029,39.5040003 37.974,39.448 Z M46.066,38.776 C46.6913365,39.4106698 47.004,40.4793258 47.004,41.982 C47.004,43.1486725 46.7846689,44.1426626 46.346,44.964 C45.8513309,45.8880046 45.1700043,46.35 44.302,46.35 C43.443329,46.35 42.780669,45.9346708 42.314,45.104 C41.9033313,44.3759964 41.698,43.4520056 41.698,42.332 C41.698,41.3426617 41.8566651,40.4560039 42.174,39.672 C42.5100017,38.8319958 42.9393307,38.3373341 43.462,38.188 C43.732668,38.113333 44.0126652,38.076 44.302,38.076 C45.0206703,38.076 45.6086644,38.309331 46.066,38.776 Z M44.47,39.448 C44.1619985,39.4199999 43.8960011,39.7093303 43.672,40.316 C43.475999,40.8666694 43.378,41.4453303 43.378,42.052 C43.378,42.9293377 43.415333,43.5499982 43.49,43.914 C43.6206673,44.5673366 43.8913313,44.9266663 44.302,44.992 C44.5633346,45.0293335 44.8059989,44.6700038 45.03,43.914 C45.2446677,43.1859964 45.352,42.4066708 45.352,41.576 C45.352,40.2133265 45.0580029,39.5040003 44.47,39.448 Z M50.224,46.07 C50.0373324,46.4246684 49.6920025,46.602 49.188,46.602 C48.721331,46.602 48.3946676,46.4433349 48.208,46.126 C48.1519997,46.0326662 48.124,45.9300006 48.124,45.818 C48.124,45.7246662 48.1566663,45.5706677 48.222,45.356 C48.2873337,45.1413323 48.32,44.9640007 48.32,44.824 L48.264,35.78 L48.264,35.024 C48.2920001,34.9026661 48.4226655,34.8023337 48.656,34.723 C48.8893345,34.6436663 49.1366654,34.604 49.398,34.604 C49.7806686,34.604 50.0233328,34.6739993 50.126,34.814 C50.2286672,34.9540007 50.28,35.0986659 50.28,35.248 C50.28,35.3506672 50.242667,35.5209988 50.168,35.759 C50.093333,35.9970012 50.056,36.1906659 50.056,36.34 L50.056,44.74 C50.056,44.8800007 50.0956663,45.0643322 50.175,45.293 C50.2543337,45.5216678 50.294,45.6873328 50.294,45.79 C50.294,45.8926672 50.2706669,45.9859996 50.224,46.07 Z"/>
  </g>
</svg>
