<?xml version="1.0" encoding="UTF-8"?>
<svg width="64px" height="64px" viewBox="0 0 64 64" version="1.1" xmlns="http://www.w3.org/2000/svg" xmlns:xlink="http://www.w3.org/1999/xlink">
    <!-- Generator: Sketch 43.2 (39069) - http://www.bohemiancoding.com/sketch -->
    <title>ballet</title>
    <desc>Created with Sketch.</desc>
    <defs>
        <path d="M4.35789671,0 L19.4887334,0 C19.4887334,0 30.7698048,34.0813102 17.9999607,57.3941121 C17.9999607,57.3941121 16.8028556,60.468212 14.2774696,60.468212 C11.7520837,60.468212 10.6893618,58.8381444 10.6893618,58.8381444 C10.6893618,58.8381444 7.2208423,55.8349091 8.36942672,49.493708 C9.51801113,43.1525069 5.67932587,37.2819078 1.81157585,32.2966261 C-2.05617416,27.3113444 3.0747795,21.7673373 7.20283263,18.2661922 C11.3308858,14.7650471 4.35789671,0 4.35789671,0 Z" id="path-1"></path>
        <path d="M4.35789671,0 L19.4887334,0 C19.4887334,0 30.7698048,34.0813102 17.9999607,57.3941121 C17.9999607,57.3941121 16.8028556,60.468212 14.2774696,60.468212 C11.7520837,60.468212 10.6893618,58.8381444 10.6893618,58.8381444 C10.6893618,58.8381444 7.2208423,55.8349091 8.36942672,49.493708 C9.51801113,43.1525069 5.67932587,37.2819078 1.81157585,32.2966261 C-2.05617416,27.3113444 3.0747795,21.7673373 7.20283263,18.2661922 C11.3308858,14.7650471 4.35789671,0 4.35789671,0 Z" id="path-3"></path>
    </defs>
    <g id="Outdoor-Activities-(142)" stroke="none" stroke-width="1" fill="none" fill-rule="evenodd">
        <g id="Path-59" transform="translate(10.000000, 3.000000)">
            <mask id="mask-2" fill="white">
                <use xlink:href="#path-1"></use>
            </mask>
            <use id="Mask" fill="#FFDD95" xlink:href="#path-1"></use>
            <path d="M11.5149787,28.0716163 C11.0098403,28.2948956 10.7813484,28.8853949 11.0046278,29.3905332 C11.2279071,29.8956716 11.8184064,30.1241635 12.3235447,29.9008842 L27.4803731,23.2013208 L7.70395103,9.97978667 L24.1289847,9.10336046 C24.6804849,9.07393286 25.1037083,8.60299784 25.0742807,8.05149765 C25.0448532,7.49999746 24.5739181,7.076774 24.0224179,7.10620159 L1.59703925,8.30280126 L23.3451325,22.8424969 L11.5149787,28.0716163 Z" id="Path-58" fill="#D650C7" fill-rule="nonzero" mask="url(#mask-2)"></path>
            <path d="M5.62430978,16.2747832 C5.62430978,16.2747832 15.2418968,22.4484645 15.7550074,31.564525 C16.268118,40.6805856 19.9328043,45.2086333 24.8519881,45.5650169 C29.7711719,45.9214005 14.2504281,65.9708734 14.2504281,65.9708734 C14.2504281,65.9708734 6.90221468,60.1268571 5.62430978,56.8255118 C4.34640488,53.5241664 1.49693807,33.023449 1.49693807,33.023449 L-2.8450815,23.3131887 L5.62430978,16.2747832 Z" fill="#FF78C7" mask="url(#mask-2)"></path>
        </g>
        <g id="Path-59-Copy" transform="translate(28.000000, 3.000000)">
            <mask id="mask-4" fill="white">
                <use xlink:href="#path-3"></use>
            </mask>
            <use id="Mask" fill="#FFDD95" xlink:href="#path-3"></use>
            <path d="M11.5149787,28.0716163 C11.0098403,28.2948956 10.7813484,28.8853949 11.0046278,29.3905332 C11.2279071,29.8956716 11.8184064,30.1241635 12.3235447,29.9008842 L27.4803731,23.2013208 L7.70395103,9.97978667 L24.1289847,9.10336046 C24.6804849,9.07393286 25.1037083,8.60299784 25.0742807,8.05149765 C25.0448532,7.49999746 24.5739181,7.076774 24.0224179,7.10620159 L1.59703925,8.30280126 L23.3451325,22.8424969 L11.5149787,28.0716163 Z" id="Path-58" fill="#D650C7" fill-rule="nonzero" mask="url(#mask-4)"></path>
            <path d="M5.62430978,16.2747832 C5.62430978,16.2747832 15.2418968,22.4484645 15.7550074,31.564525 C16.268118,40.6805856 19.9328043,45.2086333 24.8519881,45.5650169 C29.7711719,45.9214005 14.2504281,65.9708734 14.2504281,65.9708734 C14.2504281,65.9708734 6.90221468,60.1268571 5.62430978,56.8255118 C4.34640488,53.5241664 1.49693807,33.023449 1.49693807,33.023449 L-2.8450815,23.3131887 L5.62430978,16.2747832 Z" id="Path-59" fill="#FF78C7" mask="url(#mask-4)"></path>
        </g>
    </g>
</svg>