<?xml version="1.0" encoding="UTF-8"?>
<svg width="64px" height="64px" viewBox="0 0 64 64" version="1.1" xmlns="http://www.w3.org/2000/svg" xmlns:xlink="http://www.w3.org/1999/xlink">
    <!-- Generator: Sketch 43.2 (39069) - http://www.bohemiancoding.com/sketch -->
    <title>bandage</title>
    <desc>Created with Sketch.</desc>
    <defs></defs>
    <g id="Outdoor-Activities-(142)" stroke="none" stroke-width="1" fill="none" fill-rule="evenodd">
        <rect id="Rectangle-158-Copy" fill="#AB5F5F" transform="translate(31.000000, 33.000000) rotate(-90.000000) translate(-31.000000, -33.000000) " x="20" y="2" width="22" height="62" rx="3"></rect>
        <rect id="Rectangle-158" fill="#BD7575" x="20" y="2" width="22" height="62" rx="3"></rect>
        <circle id="Oval-79" fill="#BD7575" cx="5.5" cy="26.5" r="1.5"></circle>
        <circle id="Oval-79-Copy" fill="#BD7575" cx="10.5" cy="26.5" r="1.5"></circle>
        <circle id="Oval-79-Copy-2" fill="#BD7575" cx="15.5" cy="26.5" r="1.5"></circle>
        <circle id="Oval-79-Copy-20" fill="#BD7575" cx="5.5" cy="32.5" r="1.5"></circle>
        <circle id="Oval-79-Copy-19" fill="#BD7575" cx="10.5" cy="32.5" r="1.5"></circle>
        <circle id="Oval-79-Copy-18" fill="#BD7575" cx="15.5" cy="32.5" r="1.5"></circle>
        <circle id="Oval-79-Copy-23" fill="#BD7575" cx="5.5" cy="38.5" r="1.5"></circle>
        <circle id="Oval-79-Copy-22" fill="#BD7575" cx="10.5" cy="38.5" r="1.5"></circle>
        <circle id="Oval-79-Copy-21" fill="#BD7575" cx="15.5" cy="38.5" r="1.5"></circle>
        <circle id="Oval-79-Copy-32" fill="#BD7575" cx="46.5" cy="26.5" r="1.5"></circle>
        <circle id="Oval-79-Copy-31" fill="#BD7575" cx="51.5" cy="26.5" r="1.5"></circle>
        <circle id="Oval-79-Copy-30" fill="#BD7575" cx="56.5" cy="26.5" r="1.5"></circle>
        <circle id="Oval-79-Copy-29" fill="#BD7575" cx="46.5" cy="32.5" r="1.5"></circle>
        <circle id="Oval-79-Copy-28" fill="#BD7575" cx="51.5" cy="32.5" r="1.5"></circle>
        <circle id="Oval-79-Copy-27" fill="#BD7575" cx="56.5" cy="32.5" r="1.5"></circle>
        <circle id="Oval-79-Copy-26" fill="#BD7575" cx="46.5" cy="38.5" r="1.5"></circle>
        <circle id="Oval-79-Copy-25" fill="#BD7575" cx="51.5" cy="38.5" r="1.5"></circle>
        <circle id="Oval-79-Copy-24" fill="#BD7575" cx="56.5" cy="38.5" r="1.5"></circle>
        <circle id="Oval-79-Copy-5" fill="#AB5F5F" cx="24.5" cy="12.5" r="1.5"></circle>
        <circle id="Oval-79-Copy-6" fill="#AB5F5F" cx="24.5" cy="17.5" r="1.5"></circle>
        <circle id="Oval-79-Copy-4" fill="#AB5F5F" cx="30.5" cy="12.5" r="1.5"></circle>
        <circle id="Oval-79-Copy-7" fill="#AB5F5F" cx="30.5" cy="17.5" r="1.5"></circle>
        <circle id="Oval-79-Copy-3" fill="#AB5F5F" cx="36.5" cy="12.5" r="1.5"></circle>
        <circle id="Oval-79-Copy-8" fill="#AB5F5F" cx="36.5" cy="17.5" r="1.5"></circle>
        <circle id="Oval-79-Copy-11" fill="#AB5F5F" cx="24.5" cy="47.5" r="1.5"></circle>
        <circle id="Oval-79-Copy-10" fill="#AB5F5F" cx="30.5" cy="47.5" r="1.5"></circle>
        <circle id="Oval-79-Copy-9" fill="#AB5F5F" cx="36.5" cy="47.5" r="1.5"></circle>
        <circle id="Oval-79-Copy-14" fill="#AB5F5F" cx="24.5" cy="52.5" r="1.5"></circle>
        <circle id="Oval-79-Copy-13" fill="#AB5F5F" cx="30.5" cy="52.5" r="1.5"></circle>
        <circle id="Oval-79-Copy-12" fill="#AB5F5F" cx="36.5" cy="52.5" r="1.5"></circle>
        <circle id="Oval-79-Copy-17" fill="#AB5F5F" cx="24.5" cy="57.5" r="1.5"></circle>
        <circle id="Oval-79-Copy-16" fill="#AB5F5F" cx="30.5" cy="57.5" r="1.5"></circle>
        <circle id="Oval-79-Copy-15" fill="#AB5F5F" cx="36.5" cy="57.5" r="1.5"></circle>
        <rect id="Rectangle-159" fill="#ED9111" x="22" y="25" width="18" height="16" rx="4"></rect>
    </g>
</svg>