<svg xmlns="http://www.w3.org/2000/svg" width="64" height="64" viewBox="0 0 64 64">
  <g fill="none" fill-rule="evenodd">
    <polygon fill="#5B68C0" points="3 28 30 28 30 31 3 31"/>
    <rect width="4" height="14" x="4" y="13" fill="#4796E7" rx="1"/>
    <rect width="4" height="14" x="11" y="13" fill="#4796E7" rx="1"/>
    <rect width="4" height="14" x="19" y="13" fill="#4796E7" rx="1"/>
    <rect width="4" height="14" x="26" y="13" fill="#4796E7" rx="1"/>
    <path fill="#5B68C0" d="M15.6430685,4.2058818 C16.1166143,3.92600508 16.8907995,3.92979687 17.3579297,4.2058818 L29.6879919,11.4932384 C30.1615378,11.7731151 30.1041981,12 29.54569,12 L3.45530817,12 C2.90317114,12 2.84587605,11.7693233 3.31300626,11.4932384 L15.6430685,4.2058818 Z"/>
    <polygon fill="#5B68C0" points="33 58 60 58 60 61 33 61"/>
    <rect width="4" height="14" x="34" y="43" fill="#4796E7" rx="1"/>
    <rect width="4" height="14" x="41" y="43" fill="#4796E7" rx="1"/>
    <rect width="4" height="14" x="49" y="43" fill="#4796E7" rx="1"/>
    <rect width="4" height="14" x="56" y="43" fill="#4796E7" rx="1"/>
    <path fill="#5B68C0" d="M45.6430685,34.2058818 C46.1166143,33.9260051 46.8907995,33.9297969 47.3579297,34.2058818 L59.6879919,41.4932384 C60.1615378,41.7731151 60.1041981,42 59.54569,42 L33.4553082,42 C32.9031711,42 32.845876,41.7693233 33.3130063,41.4932384 L45.6430685,34.2058818 Z"/>
    <path stroke="#80D25B" stroke-linecap="round" stroke-width="2" d="M10,33 C10,45.1502645 19.8497355,55 32,55 L32,55 M54,33 C54,20.8497355 44.1502645,11 32,11"/>
  </g>
</svg>
