<svg xmlns="http://www.w3.org/2000/svg" width="64" height="64" viewBox="0 0 64 64">
  <g fill="none" fill-rule="evenodd">
    <rect width="58" height="40" x="-4" y="11" fill="#D8D8D8" rx="2" transform="rotate(90 25 31)"/>
    <circle cx="25" cy="57" r="2" fill="#868686" transform="rotate(90 25 57)"/>
    <rect width="49" height="36" x=".5" y="11.5" fill="#FFAF40" rx="1" transform="rotate(90 25 29.5)"/>
    <rect width="14" height="12" x="48.294" y="46.579" fill="#FFDD95" transform="rotate(-30 55.294 52.579)"/>
    <polygon fill="#5B68C0" points="11 39 38 39 38 42 11 42"/>
    <rect width="4" height="14" x="12" y="24" fill="#4796E7" rx="1"/>
    <rect width="4" height="14" x="19" y="24" fill="#4796E7" rx="1"/>
    <rect width="4" height="14" x="27" y="24" fill="#4796E7" rx="1"/>
    <rect width="4" height="14" x="34" y="24" fill="#4796E7" rx="1"/>
    <path fill="#5B68C0" d="M23.6430685,15.2058818 C24.1166143,14.9260051 24.8907995,14.9297969 25.3579297,15.2058818 L37.6879919,22.4932384 C38.1615378,22.7731151 38.1041981,23 37.54569,23 L11.4553082,23 C10.9031711,23 10.845876,22.7693233 11.3130063,22.4932384 L23.6430685,15.2058818 Z"/>
    <path fill="#FFDD95" d="M42.4772413,34.6733938 L53.4771193,34.6733938 C55.1340409,34.6733938 56.4772413,36.0263193 56.4772413,37.6659335 L56.4772413,47.6832939 C56.4772413,50.43925 54.2418285,52.6733938 51.485215,52.6733938 L39.4746632,52.6733938 C38.3715176,52.6733938 37.4772413,51.780771 37.4772413,50.6783045 L37.4772413,36.919527 L37.4772413,24.1762166 C37.4772413,22.7939457 38.5869034,21.6733938 39.9772413,21.6733938 C41.3579532,21.6733938 42.4772413,22.7993744 42.4772413,24.1762166 L42.4772413,34.6733938 Z" transform="rotate(-30 46.977 37.173)"/>
    <path stroke="#FFCC60" stroke-linecap="square" stroke-width="2" d="M44.1961524,37.3564065 L44.1961524,41.3564065" transform="rotate(-30 44.196 39.356)"/>
    <path stroke="#FFCC60" stroke-linecap="square" stroke-width="2" d="M47.660254,35.3564065 L47.660254,39.3564065" transform="rotate(-30 47.66 37.356)"/>
    <path stroke="#FFCC60" stroke-linecap="square" stroke-width="2" d="M51.1243557,33.3564065 L51.1243557,37.3564065" transform="rotate(-30 51.124 35.356)"/>
  </g>
</svg>
