<svg xmlns="http://www.w3.org/2000/svg" width="64" height="64" viewBox="0 0 64 64">
  <g fill="none" fill-rule="evenodd">
    <path fill="#D8D8D8" d="M26.8492424,18.8492424 L30.8492424,18.8492424 C33.0583814,18.8492424 34.8492424,20.6412743 34.8492424,22.8494548 L34.8492424,52.8492424 L26.8492424,52.8492424 L26.8492424,18.8492424 Z" transform="rotate(45 30.85 35.85)"/>
    <path fill="#5B68C0" d="M12,11.0018785 C12,8.79170204 13.7930912,7 16.00181,7 L51.99819,7 C54.2083286,7 56,8.79219474 56,11.0018785 L56,31.9981215 C56,34.208298 54.2069088,36 51.99819,36 L16.00181,36 C13.7916714,36 12,34.2078053 12,31.9981215 L12,11.0018785 Z"/>
    <circle cx="21" cy="16" r="5" stroke="#F5413E" stroke-linecap="round" stroke-width="2"/>
    <circle cx="25" cy="16" r="5" stroke="#FFAF40" stroke-linecap="round" stroke-width="2"/>
    <rect width="18" height="3" x="15" y="29" fill="#D8D8D8"/>
    <path fill="#979797" d="M14.8492424,18.8492424 L18.8492424,18.8492424 C21.0583814,18.8492424 22.8492424,20.6412743 22.8492424,22.8494548 L22.8492424,52.8492424 L14.8492424,52.8492424 L14.8492424,18.8492424 Z" transform="scale(-1 1) rotate(45 0 -9.657)"/>
    <circle cx="24.5" cy="41.5" r="1.5" fill="#D8D8D8"/>
    <circle cx="15" cy="53" r="7" stroke="#E43535" stroke-linecap="round" stroke-width="4"/>
    <circle cx="35" cy="53" r="7" stroke="#E43535" stroke-linecap="round" stroke-width="4"/>
  </g>
</svg>
