<?xml version="1.0" encoding="UTF-8"?>
<svg width="64px" height="64px" viewBox="0 0 64 64" version="1.1" xmlns="http://www.w3.org/2000/svg" xmlns:xlink="http://www.w3.org/1999/xlink">
    <!-- Generator: Sketch 43.2 (39069) - http://www.bohemiancoding.com/sketch -->
    <title>baseball</title>
    <desc>Created with Sketch.</desc>
    <defs></defs>
    <g id="Outdoor-Activities-(142)" stroke="none" stroke-width="1" fill="none" fill-rule="evenodd">
        <circle id="Oval-49-Copy" fill="#FFDD95" cx="32" cy="32" r="30"></circle>
        <path d="M7.20080707,16.9524758 C7.20080707,16.9524758 18.5108018,22.1005408 32.0138516,22.1005408 C45.5169013,22.1005408 56.8268961,16.9524758 56.8268961,16.9524758" id="Path-21" stroke="#ED9111" stroke-width="2" stroke-linecap="round"></path>
        <path d="M11,15 L11,22" id="Line" stroke="#9C4D4D" stroke-width="2" stroke-linecap="round" stroke-linejoin="round"></path>
        <path d="M17,17 L17,24" id="Line-Copy-58" stroke="#9C4D4D" stroke-width="2" stroke-linecap="round" stroke-linejoin="round"></path>
        <path d="M23,18 L23,25" id="Line-Copy-59" stroke="#9C4D4D" stroke-width="2" stroke-linecap="round" stroke-linejoin="round"></path>
        <path d="M29,19 L29,26" id="Line-Copy-60" stroke="#9C4D4D" stroke-width="2" stroke-linecap="round" stroke-linejoin="round"></path>
        <path d="M35,19 L35,26" id="Line-Copy-61" stroke="#9C4D4D" stroke-width="2" stroke-linecap="round" stroke-linejoin="round"></path>
        <path d="M41,18 L41,25" id="Line-Copy-62" stroke="#9C4D4D" stroke-width="2" stroke-linecap="round" stroke-linejoin="round"></path>
        <path d="M47,17 L47,24" id="Line-Copy-63" stroke="#9C4D4D" stroke-width="2" stroke-linecap="round" stroke-linejoin="round"></path>
        <path d="M53,15 L53,22" id="Line-Copy-64" stroke="#9C4D4D" stroke-width="2" stroke-linecap="round" stroke-linejoin="round"></path>
        <path d="M7.20080707,41.8994592 C7.20080707,41.8994592 18.5108018,47.0475242 32.0138516,47.0475242 C45.5169013,47.0475242 56.8268961,41.8994592 56.8268961,41.8994592" id="Path-21" stroke="#ED9111" stroke-width="2" stroke-linecap="round" transform="translate(32.013852, 44.473492) scale(1, -1) translate(-32.013852, -44.473492) "></path>
        <path d="M11,42 L11,49" id="Line" stroke="#9C4D4D" stroke-width="2" stroke-linecap="round" stroke-linejoin="round" transform="translate(11.000000, 45.500000) scale(1, -1) translate(-11.000000, -45.500000) "></path>
        <path d="M17,40 L17,47" id="Line-Copy-58" stroke="#9C4D4D" stroke-width="2" stroke-linecap="round" stroke-linejoin="round" transform="translate(17.000000, 43.500000) scale(1, -1) translate(-17.000000, -43.500000) "></path>
        <path d="M23,39 L23,46" id="Line-Copy-59" stroke="#9C4D4D" stroke-width="2" stroke-linecap="round" stroke-linejoin="round" transform="translate(23.000000, 42.500000) scale(1, -1) translate(-23.000000, -42.500000) "></path>
        <path d="M29,38 L29,45" id="Line-Copy-60" stroke="#9C4D4D" stroke-width="2" stroke-linecap="round" stroke-linejoin="round" transform="translate(29.000000, 41.500000) scale(1, -1) translate(-29.000000, -41.500000) "></path>
        <path d="M35,38 L35,45" id="Line-Copy-61" stroke="#9C4D4D" stroke-width="2" stroke-linecap="round" stroke-linejoin="round" transform="translate(35.000000, 41.500000) scale(1, -1) translate(-35.000000, -41.500000) "></path>
        <path d="M41,39 L41,46" id="Line-Copy-62" stroke="#9C4D4D" stroke-width="2" stroke-linecap="round" stroke-linejoin="round" transform="translate(41.000000, 42.500000) scale(1, -1) translate(-41.000000, -42.500000) "></path>
        <path d="M47,40 L47,47" id="Line-Copy-63" stroke="#9C4D4D" stroke-width="2" stroke-linecap="round" stroke-linejoin="round" transform="translate(47.000000, 43.500000) scale(1, -1) translate(-47.000000, -43.500000) "></path>
        <path d="M53,42 L53,49" id="Line-Copy-64" stroke="#9C4D4D" stroke-width="2" stroke-linecap="round" stroke-linejoin="round" transform="translate(53.000000, 45.500000) scale(1, -1) translate(-53.000000, -45.500000) "></path>
    </g>
</svg>