<?xml version="1.0" encoding="UTF-8"?>
<svg width="64px" height="64px" viewBox="0 0 64 64" version="1.1" xmlns="http://www.w3.org/2000/svg" xmlns:xlink="http://www.w3.org/1999/xlink">
    <!-- Generator: Sketch 43.2 (39069) - http://www.bohemiancoding.com/sketch -->
    <title>basketball</title>
    <desc>Created with Sketch.</desc>
    <defs></defs>
    <g id="Outdoor-Activities-(142)" stroke="none" stroke-width="1" fill="none" fill-rule="evenodd">
        <circle id="Oval-53" stroke="#9C4D4D" stroke-width="2" fill="#BD7575" stroke-linecap="round" transform="translate(33.012193, 32.012193) rotate(-315.000000) translate(-33.012193, -32.012193) " cx="33.0121933" cy="32.0121933" r="29"></circle>
        <path d="M4.91421356,32.7928932 L60.9499165,32.7928932" id="Line" stroke="#9C4D4D" stroke-width="2" stroke-linecap="square" transform="translate(33.414214, 32.792893) rotate(-315.000000) translate(-33.414214, -32.792893) "></path>
        <path d="M41.4829402,28.5863468 C35.9047541,34.1919182 32.4571969,41.9196381 32.4571969,50.4525782 C32.4571969,58.411489 35.4565069,65.6698733 40.3864979,71.1591022" id="Oval-55" stroke="#9C4D4D" stroke-width="2" stroke-linecap="round" transform="translate(47.957197, 55.019462) rotate(-315.000000) translate(-47.957197, -55.019462) "></path>
        <path d="M12.0062808,-15.8903126 C6.42809473,-10.2847412 2.9805375,-2.55702128 2.9805375,5.97591881 C2.9805375,13.9348296 5.97984754,21.1932139 10.9098385,26.6824428" id="Oval-55-Copy" stroke="#9C4D4D" stroke-width="2" stroke-linecap="round" transform="translate(18.480538, 10.542803) scale(-1, -1) rotate(-315.000000) translate(-18.480538, -10.542803) "></path>
        <path d="M32.2071068,4.5 L32.2071068,61.5350769" id="Line" stroke="#9C4D4D" stroke-width="2" stroke-linecap="square" transform="translate(32.707107, 33.500000) rotate(-315.000000) translate(-32.707107, -33.500000) "></path>
    </g>
</svg>