<svg xmlns="http://www.w3.org/2000/svg" width="64" height="64" viewBox="0 0 64 64">
  <g fill="none" fill-rule="evenodd">
    <polygon fill="#595959" points="27 18 30.165 21.09 35.871 21.09 39 18 39 44 33 49 27 44"/>
    <polygon fill="#E43535" points="37 24 37 27 33 27"/>
    <polygon fill="#E43535" points="33 24 33 27 29 27" transform="matrix(-1 0 0 1 62 0)"/>
    <path fill="#595959" d="M1.64775459,42.2216882 C1.22695108,40.8895319 1,39.4712696 1,38 C1,30.2680135 7.2680135,24 15,24 C22.0749177,24 27.9241086,29.2479602 28.8671511,36.063459 C26.9417292,36.2805571 25.1818721,37.0444103 23.7465247,38.1960735 C22.3343368,37.433106 20.7177471,37 19,37 C16.4300399,37 14.0865085,37.969457 12.3151612,39.5626159 C11.2777042,39.1981919 10.1619972,39 9,39 C6.09257847,39 3.47495464,40.2407714 1.64775459,42.2216882 Z" transform="matrix(-1 0 0 1 29.867 0)"/>
    <path fill="#595959" d="M36.6477546,43.2216882 C36.2269511,41.8895319 36,40.4712696 36,39 C36,31.2680135 42.2680135,25 50,25 C57.0749177,25 62.9241086,30.2479602 63.8671511,37.063459 C61.9417292,37.2805571 60.1818721,38.0444103 58.7465247,39.1960735 C57.3343368,38.433106 55.7177471,38 54,38 C51.4300399,38 49.0865085,38.969457 47.3151612,40.5626159 C46.2777042,40.1981919 45.1619972,40 44,40 C41.0925785,40 38.4749546,41.2407714 36.6477546,43.2216882 Z"/>
  </g>
</svg>
