<svg xmlns="http://www.w3.org/2000/svg" width="64" height="64" viewBox="0 0 64 64">
  <g fill="none" fill-rule="evenodd">
    <polygon fill="#595959" points="27 27 30.165 30.09 35.871 30.09 39 27 39 53 33 58 27 53"/>
    <polygon fill="#E43535" points="37 33 37 36 33 36"/>
    <polygon fill="#E43535" points="33 33 33 36 29 36" transform="matrix(-1 0 0 1 62 0)"/>
    <path fill="#595959" d="M1.64775459,51.2216882 C1.22695108,49.8895319 1,48.4712696 1,47 C1,39.2680135 7.2680135,33 15,33 C22.0749177,33 27.9241086,38.2479602 28.8671511,45.063459 C26.9417292,45.2805571 25.1818721,46.0444103 23.7465247,47.1960735 C22.3343368,46.433106 20.7177471,46 19,46 C16.4300399,46 14.0865085,46.969457 12.3151612,48.5626159 C11.2777042,48.1981919 10.1619972,48 9,48 C6.09257847,48 3.47495464,49.2407714 1.64775459,51.2216882 Z" transform="matrix(-1 0 0 1 29.867 0)"/>
    <path fill="#595959" d="M36.6477546,52.2216882 C36.2269511,50.8895319 36,49.4712696 36,48 C36,40.2680135 42.2680135,34 50,34 C57.0749177,34 62.9241086,39.2479602 63.8671511,46.063459 C61.9417292,46.2805571 60.1818721,47.0444103 58.7465247,48.1960735 C57.3343368,47.433106 55.7177471,47 54,47 C51.4300399,47 49.0865085,47.969457 47.3151612,49.5626159 C46.2777042,49.1981919 45.1619972,49 44,49 C41.0925785,49 38.4749546,50.2407714 36.6477546,52.2216882 Z"/>
    <polyline stroke="#5EA7FF" stroke-linecap="round" stroke-linejoin="round" stroke-width="2" points="13 9 20.792 9 13 16.159 20.792 16.159"/>
    <polyline stroke="#5EA7FF" stroke-linecap="round" stroke-linejoin="round" stroke-width="2" points="33 14 40.792 14 33 21.159 40.792 21.159"/>
    <polyline stroke="#5EA7FF" stroke-linecap="round" stroke-linejoin="round" stroke-width="2" points="51 5 58.792 5 51 12.159 58.792 12.159"/>
  </g>
</svg>
