<svg xmlns="http://www.w3.org/2000/svg" width="64" height="64" viewBox="0 0 64 64">
  <g fill="none" fill-rule="evenodd">
    <rect width="12" height="5" x="27" fill="#ED9111"/>
    <rect width="26" height="60" x="20" y="4" fill="#FFDD95"/>
    <path stroke="#FFDD95" stroke-linecap="square" stroke-width="2" d="M21 58L24 58M21 50L24 50M21 42L24 42M21 34L24 34M21 26L24 26M21 18L24 18M21 10L24 10"/>
    <path fill="#80D25B" d="M33,40 C36.8659932,40 40,36.8315536 40,32.9230769 C40,29.0146002 33,17 33,17 C33,17 26,29.0146002 26,32.9230769 C26,36.8315536 29.1340068,40 33,40 Z"/>
    <path stroke="#22BA8E" stroke-linecap="square" stroke-width="2" d="M33,49 L33,33"/>
  </g>
</svg>
