<svg xmlns="http://www.w3.org/2000/svg" width="64" height="64" viewBox="0 0 64 64">
  <g fill="none" fill-rule="evenodd">
    <path fill="#9C4D4D" d="M52.834927,18.8349201 C56.7821693,18.8349201 59.9820414,18.9659506 59.9820414,11.6878058 C59.9820414,4.40966105 56.7821693,4.5406915 52.834927,4.5406915 C48.8876848,4.5406915 45.6878127,7.74056357 45.6878127,11.6878058 C45.6878127,15.6350481 48.8876848,18.8349201 52.834927,18.8349201 Z" transform="rotate(-30 52.835 11.688)"/>
    <circle cx="53.5" cy="11.5" r="3.5" fill="#BD7575"/>
    <g transform="matrix(-1 0 0 1 26 1)">
      <path fill="#9C4D4D" d="M9.83492705,17.8349201 C13.7821693,17.8349201 16.9820414,17.9659506 16.9820414,10.6878058 C16.9820414,3.40966105 13.7821693,3.5406915 9.83492705,3.5406915 C5.8876848,3.5406915 2.68781273,6.74056357 2.68781273,10.6878058 C2.68781273,14.6350481 5.8876848,17.8349201 9.83492705,17.8349201 Z" transform="rotate(-30 9.835 10.688)"/>
      <circle cx="10.5" cy="10.5" r="3.5" fill="#BD7575"/>
    </g>
    <path fill="#9C4D4D" d="M11,24.0065012 C11,22.3460564 12.3338926,21 14.002615,21 L55.997385,21 C57.6556835,21 59,22.3424683 59,23.995507 L59,51.0036431 C59,55.9721938 54.9695331,60.0839681 49.9997365,60.1875055 L20.0002635,60.8124945 C15.0295552,60.9160509 11,56.9629996 11,51.9982927 L11,24.0065012 Z"/>
    <circle cx="35" cy="24" r="19" fill="#9C4D4D"/>
    <path fill="#BD7575" d="M27.4931365,34.4249008 C25.0478694,38.4077567 23.5,43.6029865 23.5,47.0853827 C23.5,53.4366573 28.6487254,58.5853827 35,58.5853827 L35,58.5853827 C41.3512746,58.5853827 46.5,53.4366573 46.5,47.0853827 C46.5,43.5594753 44.9132089,38.2776645 42.4147864,34.2761815"/>
    <circle cx="28.5" cy="26.5" r="2.5" fill="#0A3586"/>
    <circle cx="28" cy="26" r="1" fill="#FFF"/>
    <circle cx="41.5" cy="26.784" r="2.5" fill="#0A3586"/>
    <path fill="#595959" d="M36.3019106,44.4811043 C35.5828852,45.3199672 34.4137702,45.3160653 33.6980894,44.4811043 L30.3019106,40.5188957 C29.5828852,39.6800328 29.9019504,39 31.0085302,39 L38.9914698,39 C40.1007504,39 40.4137702,39.6839347 39.6980894,40.5188957 L36.3019106,44.4811043 Z"/>
    <path stroke="#595959" stroke-linecap="round" stroke-width="2" d="M26,47.9726515 C26.9108674,49.2026403 28.3726987,50 30.0207634,50 C32.7821872,50 35.0207634,47.7614237 35.0207634,45"/>
    <path stroke="#595959" stroke-linecap="round" stroke-width="2" d="M35,47.9726515 C35.9108674,49.2026403 37.3726987,50 39.0207634,50 C41.7821872,50 44.0207634,47.7614237 44.0207634,45" transform="matrix(-1 0 0 1 79.02 0)"/>
    <circle cx="41" cy="26" r="1" fill="#FFF"/>
  </g>
</svg>
