<svg xmlns="http://www.w3.org/2000/svg" width="64" height="64" viewBox="0 0 64 64">
  <g fill="none" fill-rule="evenodd">
    <path stroke="#979797" stroke-linecap="round" stroke-width="2" d="M30.9918831 54.5548089L30.9918831 59.9498999M28.6188673 12.1237581L24 5"/>
    <path stroke="#979797" stroke-linecap="round" stroke-width="2" d="M38.6188673,12.1237581 L34,5" transform="matrix(-1 0 0 1 72.619 0)"/>
    <circle cx="48" cy="33" r="12" fill="#B4DFFB"/>
    <circle cx="15" cy="33" r="12" fill="#B4DFFB"/>
    <path fill="#FFAF40" d="M22,19.9989419 C22,15.0289635 26.0283444,11 31,11 L31,11 C35.9705627,11 40,15.0204204 40,19.9989419 L40,43 L22,43 L22,19.9989419 Z"/>
    <path fill="#595959" d="M22,43 L40,43 L40,49 C40,52.3137085 37.3052181,55 34.0062606,55 L27.9937394,55 C24.6834885,55 22,52.3069658 22,49 L22,43 Z"/>
    <rect width="18" height="4" x="22" y="35" fill="#595959"/>
    <rect width="18" height="4" x="22" y="27" fill="#595959"/>
  </g>
</svg>
