<svg xmlns="http://www.w3.org/2000/svg" width="64" height="64" viewBox="0 0 64 64">
  <path fill="#5EA7FF" fill-rule="evenodd" d="M37.6875,49 L32,62 L26.3125,49 L6,49 L6,5 L58,5 L58,49 L37.6875,49 Z M29.4389584,17.2414037 C28.673904,17.0780748 27.837469,17 26.9095203,17 L18,17.0000003 L18,36 L27.1666738,35.9999997 C28.0351386,35.9999997 28.8825552,35.8932077 29.6997723,35.6805211 C30.5243106,35.4678345 31.2600805,35.1411767 31.9034217,34.6960605 C32.5394417,34.2536366 33.056494,33.6810879 33.4353606,32.9748249 C33.8114818,32.2775361 34,31.4474303 34,30.4845076 C34,29.2954371 33.7117319,28.281362 33.1223838,27.4342054 C32.5376114,26.5924332 31.6535893,26.0010389 30.4629964,25.6645096 C31.336952,25.2579821 31.9931051,24.7356885 32.4396918,24.0985262 C32.8807877,23.4595691 33.1022508,22.6599753 33.1022508,21.7033345 C33.1022508,20.819384 32.955829,20.0718401 32.6593246,19.4741639 C32.3573295,18.8684111 31.9354515,18.3873984 31.3936905,18.0248441 C30.8464387,17.6631872 30.1985219,17.3993482 29.4389584,17.2414037 Z M28.0423161,23.8391109 C27.5472271,24.1833394 26.9212735,24.353286 26.1644554,24.353286 L21.7682102,24.353286 L21.7682102,20.0638692 L25.8395819,20.0638692 C26.2175334,20.0638692 26.5845032,20.0890143 26.937746,20.1540449 C27.2937342,20.2130059 27.6030504,20.3205232 27.8757612,20.4765965 C28.1512174,20.6266004 28.3681048,20.8407678 28.5328294,21.1147633 C28.6920632,21.3896258 28.7716801,21.7425251 28.7716801,22.1699928 C28.7716801,22.9390877 28.5328294,23.4992177 28.0423161,23.8391109 Z M27.3605392,32.8063281 C26.9853331,32.8933418 26.5845032,32.9321196 26.1644555,32.9321196 L21.7682102,32.9321196 L21.7682102,27.4171551 L26.248648,27.4171551 C27.1674454,27.4171551 27.914197,27.6356351 28.4742607,28.0744867 C29.0315789,28.5199589 29.3143562,29.2529545 29.3143562,30.2838774 C29.3143562,30.8106884 29.2319939,31.2467026 29.0590331,31.5824619 C28.8869873,31.9210586 28.6508821,32.1868286 28.3644442,32.3816635 C28.0798367,32.5831191 27.7430664,32.7202602 27.3605392,32.8063281 Z M39.4726441,32.723453 C38.9362663,32.2279084 38.5891483,31.305198 38.5891483,30.330198 L47.9774574,30.330198 C48.0445046,29.372896 47.9621808,28.4598391 47.7279399,27.5845916 C47.4928502,26.7077351 47.1151792,25.9274134 46.5847422,25.2444307 C46.055154,24.5598391 45.3787409,24.0128094 44.5563515,23.6097772 C43.7297186,23.2011139 42.7647477,23 41.6639851,23 C40.6684611,23 39.7671426,23.1681312 38.9515428,23.5019802 C38.1350943,23.8374381 37.4349176,24.2959777 36.8425257,24.877599 C36.2535285,25.455198 35.8045667,26.1446163 35.4803637,26.9434406 C35.1612528,27.7406559 35,28.6014233 35,29.5233292 C35,30.4766089 35.1570093,31.3574876 35.4676332,32.1522896 C35.7816518,32.9511139 36.2204293,33.6316832 36.7882089,34.2068688 C37.3695678,34.7804455 38.0621062,35.2196782 38.8895878,35.5334158 C39.7179181,35.8431312 40.6396053,36 41.6639851,36 C43.1364779,36 44.3976447,35.6806312 45.4322089,35.0402847 C46.4795036,34.4023515 47.2458788,33.3420792 47.7525522,31.8578589 L44.6047273,31.8578589 C44.4833634,32.2391708 44.1676473,32.6076114 43.6499409,32.9511139 C43.1279909,33.2954208 42.5050458,33.4683787 41.7845003,33.4683787 C40.7821867,33.4683787 40.0081732,33.2189975 39.4726441,32.723453 Z M41.557049,25.2679693 C42.4354525,25.2679693 43.1543006,25.5273436 43.5786501,26.005457 C44.0055458,26.4887579 44.3161696,27.1743707 44.4027369,28.1029309 L38.5891483,28.1029309 C38.6044249,27.8444211 38.6595904,27.5521927 38.7512499,27.2297039 C38.8429094,26.8985694 38.9999187,26.5890493 39.2299161,26.2959563 C39.4633084,26.0071862 39.7654453,25.7625097 40.1363267,25.5653852 C40.5139978,25.3665315 40.9867232,25.2679693 41.557049,25.2679693 Z M36,19 L36,21 L47,21 L47,19 L36,19 Z"/>
</svg>
