<svg xmlns="http://www.w3.org/2000/svg" width="64" height="64" viewBox="0 0 64 64">
  <g fill="none" fill-rule="evenodd">
    <rect width="58" height="58" x="3" y="3" fill="#5B68C0" rx="6"/>
    <path fill="#FFF" d="M29.4389584 23.2414037C30.1985219 23.3993482 30.8464387 23.6631872 31.3936905 24.0248441 31.9354515 24.3873984 32.3573295 24.8684111 32.6593246 25.4741639 32.955829 26.0718401 33.1022508 26.819384 33.1022508 27.7033345 33.1022508 28.6599753 32.8807877 29.4595691 32.4396918 30.0985262 31.9931051 30.7356885 31.336952 31.2579821 30.4629964 31.6645096 31.6535893 32.0010389 32.5376114 32.5924332 33.1223838 33.4342054 33.7117319 34.281362 34 35.2954371 34 36.4845076 34 37.4474303 33.8114818 38.2775361 33.4353606 38.9748249 33.056494 39.6810879 32.5394417 40.2536366 31.9034217 40.6960605 31.2600805 41.1411767 30.5243106 41.4678345 29.6997723 41.6805211 28.8825552 41.8932077 28.0351386 41.9999997 27.1666738 41.9999997L18 42 18 23.0000003 26.9095203 23C27.837469 23 28.673904 23.0780748 29.4389584 23.2414037zM28.0423161 29.8391109C28.5328294 29.4992177 28.7716801 28.9390877 28.7716801 28.1699928 28.7716801 27.7425251 28.6920632 27.3896258 28.5328294 27.1147633 28.3681048 26.8407678 28.1512174 26.6266004 27.8757612 26.4765965 27.6030504 26.3205232 27.2937342 26.2130059 26.937746 26.1540449 26.5845032 26.0890143 26.2175334 26.0638692 25.8395819 26.0638692L21.7682102 26.0638692 21.7682102 30.353286 26.1644554 30.353286C26.9212735 30.353286 27.5472271 30.1833394 28.0423161 29.8391109zM27.3605392 38.8063281C27.7430664 38.7202602 28.0798367 38.5831191 28.3644442 38.3816635 28.6508821 38.1868286 28.8869873 37.9210586 29.0590331 37.5824619 29.2319939 37.2467026 29.3143562 36.8106884 29.3143562 36.2838774 29.3143562 35.2529545 29.0315789 34.5199589 28.4742607 34.0744867 27.914197 33.6356351 27.1674454 33.4171551 26.248648 33.4171551L21.7682102 33.4171551 21.7682102 38.9321196 26.1644555 38.9321196C26.5845032 38.9321196 26.9853331 38.8933418 27.3605392 38.8063281zM39.4726441 38.723453C40.0081732 39.2189975 40.7821867 39.4683787 41.7845003 39.4683787 42.5050458 39.4683787 43.1279909 39.2954208 43.6499409 38.9511139 44.1676473 38.6076114 44.4833634 38.2391708 44.6047273 37.8578589L47.7525522 37.8578589C47.2458788 39.3420792 46.4795036 40.4023515 45.4322089 41.0402847 44.3976447 41.6806312 43.1364779 42 41.6639851 42 40.6396053 42 39.7179181 41.8431312 38.8895878 41.5334158 38.0621062 41.2196782 37.3695678 40.7804455 36.7882089 40.2068688 36.2204293 39.6316832 35.7816518 38.9511139 35.4676332 38.1522896 35.1570093 37.3574876 35 36.4766089 35 35.5233292 35 34.6014233 35.1612528 33.7406559 35.4803637 32.9434406 35.8045667 32.1446163 36.2535285 31.455198 36.8425257 30.877599 37.4349176 30.2959777 38.1350943 29.8374381 38.9515428 29.5019802 39.7671426 29.1681312 40.6684611 29 41.6639851 29 42.7647477 29 43.7297186 29.2011139 44.5563515 29.6097772 45.3787409 30.0128094 46.055154 30.5598391 46.5847422 31.2444307 47.1151792 31.9274134 47.4928502 32.7077351 47.7279399 33.5845916 47.9621808 34.4598391 48.0445046 35.372896 47.9774574 36.330198L38.5891483 36.330198C38.5891483 37.305198 38.9362663 38.2279084 39.4726441 38.723453M41.557049 31.2679693C40.9867232 31.2679693 40.5139978 31.3665315 40.1363267 31.5653852 39.7654453 31.7625097 39.4633084 32.0071862 39.2299161 32.2959563 38.9999187 32.5890493 38.8429094 32.8985694 38.7512499 33.2297039 38.6595904 33.5521927 38.6044249 33.8444211 38.5891483 34.1029309L44.4027369 34.1029309C44.3161696 33.1743707 44.0055458 32.4887579 43.5786501 32.005457 43.1543006 31.5273436 42.4354525 31.2679693 41.557049 31.2679693z"/>
    <polygon fill="#FFF" points="36 25 47 25 47 27 36 27"/>
  </g>
</svg>
