<svg xmlns="http://www.w3.org/2000/svg" width="64" height="64" viewBox="0 0 64 64">
  <g fill="none" fill-rule="evenodd">
    <path fill="#5EA7FF" d="M25.767445 15.3939524C26.9768736 15.6517057 28.0085307 16.0822708 28.8799021 16.6724672 29.7425307 17.2641281 30.4142736 18.0491039 30.8951307 19.0376462 31.367245 20.013008 31.6003878 21.2329424 31.6003878 22.675482 31.6003878 24.2366466 31.2477593 25.5415225 30.5454164 26.5842516 29.8343307 27.6240517 28.7895593 28.4763948 27.3979878 29.1398166 29.2937307 29.6890067 30.7013307 30.654117 31.632445 32.0278247 32.570845 33.4103194 33.029845 35.0652125 33.029845 37.0056845 33.029845 38.5771007 32.7296736 39.9317698 32.1307878 41.0696918 31.5275307 42.222259 30.704245 43.1566145 29.6915307 43.8786166 28.6671593 44.6050121 27.4956164 45.1380927 26.1827307 45.4851809 24.8815021 45.8322691 23.5321878 46.0065455 22.1493593 46.0065455L7.55355927 46.006546 7.55355927 15.0000006 21.7399021 15C23.217445 15 24.5492736 15.1274121 25.767445 15.3939524zM23.5436164 26.1609056C24.324645 25.606226 24.7049592 24.6921366 24.7049592 23.4370325 24.7049592 22.739438 24.5781878 22.1635335 24.324645 21.7149788 24.0623592 21.2678391 23.7170164 20.9183343 23.2784164 20.6735395 22.8441878 20.4188397 22.3516735 20.2433798 21.784845 20.1471599 21.2223878 20.041035 20.6380735 20 20.0362735 20L13.5535592 20 13.5535592 27 20.5535592 27C21.7586164 27 22.7553021 26.7226602 23.5436164 26.1609056zM22.458045 40.7947179C23.0671307 40.6542617 23.6033593 40.4304579 24.0565307 40.1016978 24.5126164 39.7837421 24.8885593 39.3500257 25.1625021 38.7974618 25.4379021 38.2495284 25.569045 37.5379866 25.569045 36.6782713 25.569045 34.9958841 25.1187878 33.7996913 24.2313878 33.0727148 23.3396164 32.3565426 22.1505878 32 20.6876164 32L13.5535593 32 13.5535593 41 20.5535593 41C21.2223878 41 21.8606164 40.9367175 22.458045 40.7947179zM43.7111021 40.2277247C44.6305593 41.1017128 45.9594736 41.5415445 47.6803593 41.5415445 48.9174736 41.5415445 49.9870164 41.2364999 50.8831593 40.6292484 51.7720164 40.0234158 52.3140736 39.3735999 52.522445 38.7010831L57.9269878 38.7010831C57.0570736 41.318791 55.7412736 43.1887851 53.9431593 44.3139029 52.1669021 45.4432771 50.0015878 46.0065455 47.473445 46.0065455 45.7146736 46.0065455 44.1322164 45.7298771 42.710045 45.1836346 41.2893307 44.6302979 40.1003021 43.8556266 39.1021593 42.8440138 38.1273307 41.8295633 37.3739878 40.6292484 36.834845 39.2203682 36.3015307 37.8185821 36.0319593 36.2649831 36.0319593 34.583691 36.0319593 32.9577326 36.3088164 31.4396039 36.8567021 30.0335613 37.4133307 28.6246811 38.1841593 27.4087593 39.1954164 26.3900524 40.2125021 25.3642514 41.414645 24.5555286 42.8164164 23.9638841 44.2167307 23.3750771 45.7642164 23.0785455 47.473445 23.0785455 49.3633593 23.0785455 51.0201307 23.4332484 52.4393878 24.1540049 53.8513593 24.8648296 55.0127021 25.8296217 55.9219593 27.0370306 56.8326736 28.2416019 57.4811021 29.6178494 57.8847307 31.1643544 58.2869021 32.7080217 58.428245 34.3183732 58.3131307 36.0067593L42.1942164 36.0067593C42.1942164 37.7263593 42.7901878 39.3537365 43.7111021 40.2277247M47.289845 27.0785455C46.310645 27.0785455 45.4990164 27.2523789 44.8505878 27.6030956 44.2138164 27.9507626 43.6950736 28.3822966 43.2943593 28.8915982 42.8994736 29.4085241 42.6299021 29.9544222 42.4725307 30.5384418 42.3151593 31.1072127 42.220445 31.6226138 42.1942164 32.0785455L52.175645 32.0785455C52.0270164 30.440851 51.4937021 29.2316409 50.7607593 28.3792469 50.0321878 27.536002 48.7979878 27.0785455 47.289845 27.0785455z"/>
    <polygon fill="#5EA7FF" points="40.554 17 53.554 17 53.554 20 40.554 20"/>
  </g>
</svg>
