<svg xmlns="http://www.w3.org/2000/svg" width="64" height="64" viewBox="0 0 64 64">
  <g fill="none" fill-rule="evenodd">
    <path stroke="#979797" stroke-linecap="square" stroke-width="2" d="M33,24 L47.3178211,9.68217894"/>
    <path fill="#0A3586" d="M3.39518395,18.895184 C3.39518395,31.5977332 13.6926347,41.895184 26.395184,41.895184 C39.0977332,41.895184 49.395184,31.5977332 49.395184,18.895184 L3.39518395,18.895184 Z" transform="rotate(45 26.395 30.395)"/>
    <path fill="#595959" d="M16,38.4914414 C16,37.1154563 17.1096621,36 18.5,36 L18.5,36 C19.8807119,36 21,37.1290512 21,38.4914414 L21,57 L16,57 L16,38.4914414 Z"/>
    <circle cx="18.5" cy="39.5" r="1.5" fill="#D8D8D8"/>
    <polygon fill="#0A3586" points="12 57 25 57 28 63 9 63"/>
    <circle cx="48" cy="9" r="4" fill="#80D25B"/>
  </g>
</svg>
