<?xml version="1.0" encoding="UTF-8"?>
<svg width="64px" height="64px" viewBox="0 0 64 64" version="1.1" xmlns="http://www.w3.org/2000/svg" xmlns:xlink="http://www.w3.org/1999/xlink">
    <!-- Generator: Sketch 43.2 (39069) - http://www.bohemiancoding.com/sketch -->
    <title>biliard</title>
    <desc>Created with Sketch.</desc>
    <defs></defs>
    <g id="Outdoor-Activities-(142)" stroke="none" stroke-width="1" fill="none" fill-rule="evenodd">
        <circle id="Oval-49" fill="#ED9111" cx="32" cy="32" r="30"></circle>
        <circle id="Oval-50" fill="#FFFFFF" cx="24" cy="25" r="15"></circle>
        <path d="M25.9661524,28.3932667 C25.9661524,29.2466043 25.372825,30.2499276 24.1861524,31.4032667 C22.9994798,32.5566058 22.0061564,33.1332667 21.2061524,33.1332667 C20.6328162,33.1332667 19.9461564,32.7666037 19.1461524,32.0332667 C18.2794814,31.2332627 17.8461524,30.4732703 17.8461524,29.7532667 C17.8461524,29.0999301 18.1328162,28.2732717 18.7061524,27.2732667 C18.7861528,27.1399327 19.3261474,26.3132743 20.3261524,24.7932667 C18.712811,23.9132623 17.9528186,22.5932755 18.0461524,20.8332667 C18.0861526,20.0065959 18.479482,19.1266047 19.2261524,18.1932667 C20.0261564,17.2065951 20.899481,16.6066011 21.8461524,16.3932667 C22.1928208,16.3132663 22.5261508,16.2732667 22.8461524,16.2732667 C23.7928238,16.2732667 24.5194832,16.6132633 25.0261524,17.2932667 C25.4928214,17.8932697 25.7261524,18.6732619 25.7261524,19.6332667 C25.7261524,20.3799371 25.5194878,21.1399295 25.1061524,21.9132667 C24.9194848,22.2732685 24.4461562,22.9932613 23.6861524,24.0732667 C24.4861564,24.8732707 25.0394842,25.5265975 25.3461524,26.0332667 C25.7594878,26.7399369 25.9661524,27.5265957 25.9661524,28.3932667 Z M22.7861524,19.0932667 C22.572818,19.0932667 22.3228205,19.2099322 22.0361524,19.4432667 C21.7494843,19.6766012 21.5394864,19.9265987 21.4061524,20.1932667 C21.1661512,20.6732691 21.0461524,21.0732651 21.0461524,21.3932667 C21.0461524,21.8332689 21.2594836,22.1932653 21.6861524,22.4732667 C22.6461572,20.6999245 23.1261524,19.6799347 23.1261524,19.4132667 C23.1261524,19.1999323 23.0128202,19.0932667 22.7861524,19.0932667 Z M22.4461524,29.1932667 C22.7528206,28.8065981 22.9061524,28.3466027 22.9061524,27.8132667 C22.9061524,27.3065975 22.7528206,26.9932673 22.4461524,26.8732667 C22.0594838,27.4066027 21.6661544,27.9399307 21.2661524,28.4732667 C20.78615,29.1799369 20.5461524,29.6932651 20.5461524,30.0132667 C20.5461524,30.2666013 20.6661512,30.3932667 20.9061524,30.3932667 C21.3061544,30.3932667 21.8194826,29.9932707 22.4461524,29.1932667 Z" id="8" fill="#0A3586" transform="translate(21.906152, 24.703267) rotate(-330.000000) translate(-21.906152, -24.703267) "></path>
    </g>
</svg>