<?xml version="1.0" encoding="UTF-8"?>
<svg width="64px" height="64px" viewBox="0 0 64 64" version="1.1" xmlns="http://www.w3.org/2000/svg" xmlns:xlink="http://www.w3.org/1999/xlink">
    <!-- Generator: Sketch 43.2 (39069) - http://www.bohemiancoding.com/sketch -->
    <title>binoculars</title>
    <desc>Created with Sketch.</desc>
    <defs></defs>
    <g id="Outdoor-Activities-(142)" stroke="none" stroke-width="1" fill="none" fill-rule="evenodd">
        <path d="M5,49.999615 C5,48.8952581 5.90234375,48 6.99456145,48 L24.0054385,48 C25.1070044,48 26,48.8874333 26,49.999615 L26,54.9996703 C26,56.6567066 24.6544098,58 22.991212,58 L8.00878799,58 C6.34708027,58 5,56.6513555 5,54.9996703 L5,49.999615 Z" id="Rectangle-6" fill="#595959"></path>
        <path d="M13,12.0059191 C13,10.8980806 13.8958578,10 14.9973917,10 L20.0026083,10 C21.1057373,10 22,10.8865548 22,12.0059191 L22,17 L13,17 L13,12.0059191 Z" id="Rectangle-9" fill="#595959"></path>
        <polygon id="Rectangle-7" fill="#80D25B" points="13 22 23 22 23 48 8 48"></polygon>
        <rect id="Rectangle-8" fill="#22BA8E" x="8" y="15" width="17" height="7" rx="2"></rect>
        <g id="Group-2" transform="translate(48.500000, 34.000000) scale(-1, 1) translate(-48.500000, -34.000000) translate(38.000000, 10.000000)">
            <path d="M0,39.999615 C0,38.8952581 0.90234375,38 1.99456145,38 L19.0054385,38 C20.1070044,38 21,38.8874333 21,39.999615 L21,44.9996703 C21,46.6567066 19.6544098,48 17.991212,48 L3.00878799,48 C1.34708027,48 0,46.6513555 0,44.9996703 L0,39.999615 Z" id="Rectangle-6-Copy" fill="#595959"></path>
            <path d="M8,2.00591905 C8,0.898080551 8.89585781,0 9.9973917,0 L15.0026083,0 C16.1057373,0 17,0.886554837 17,2.00591905 L17,7 L8,7 L8,2.00591905 Z" id="Rectangle-9-Copy" fill="#595959"></path>
            <polygon id="Rectangle-7-Copy" fill="#80D25B" points="8 12 18 12 18 38 3 38"></polygon>
            <rect id="Rectangle-8-Copy" fill="#22BA8E" x="3" y="5" width="17" height="7" rx="2"></rect>
        </g>
        <rect id="Rectangle-10" fill="#D8D8D8" x="20" y="42" width="24" height="4"></rect>
        <rect id="Rectangle-10-Copy" fill="#D8D8D8" x="20" y="23" width="24" height="4"></rect>
        <circle id="Oval-7-Copy" fill="#D8D8D8" cx="32" cy="25" r="6"></circle>
        <circle id="Oval-7" fill="#595959" cx="32" cy="25" r="3"></circle>
    </g>
</svg>