<svg xmlns="http://www.w3.org/2000/svg" width="64" height="64" viewBox="0 0 64 64">
  <g fill="none" fill-rule="evenodd">
    <path stroke="#979797" stroke-linecap="square" stroke-width="2" d="M30 48L30 55M33 48L33 55"/>
    <polygon fill="#B4DFFB" points="21.867 20.073 64.447 37.54 33.166 38.054"/>
    <path fill="#5EA7FF" d="M6.01141571,24.9592921 C6.01141571,37.6618414 16.3088665,47.9592921 29.0114157,47.9592921 C41.713965,47.9592921 52.0114157,37.6618414 52.0114157,24.9592921 L6.01141571,24.9592921 Z" transform="rotate(30 29.011 36.46)"/>
    <path fill="#B4DFFB" d="M17.0111617,27.9591651 C17.0111617,36.2435767 23.7270042,42.9594192 32.0114157,42.9594192 C40.2958273,42.9594192 47.0116698,36.2435767 47.0116698,27.9591651 L17.0111617,27.9591651 Z" transform="rotate(30 32.011 35.46)"/>
    <polyline fill="#E43535" points="4.964 17.928 1.316 19.014 5.865 21.176"/>
    <circle cx="12" cy="19" r="7" fill="#B4DFFB"/>
    <circle cx="9" cy="18" r="2" fill="#595959"/>
  </g>
</svg>
