<svg xmlns="http://www.w3.org/2000/svg" width="64" height="64" viewBox="0 0 64 64">
  <g fill="none" fill-rule="evenodd">
    <circle cx="31" cy="17" r="5" fill="#9C4D4D"/>
    <path fill="#9C4D4D" d="M27.0206123,26 L35.0206123,26 C35.0206123,26 36.9567516,37.7445573 38.0206123,42 C39.084473,46.2554427 40.7791256,46.1362122 41.0206123,50 C41.262099,53.8637878 40.0206123,58 40.0206123,58 L23.0206123,58 C23.0206123,58 20.762099,54.1362122 21.0206123,50 C21.2791256,45.8637878 23.0206123,45.8424077 24.0206123,42 C25.0206123,38.1575923 27.0206123,26 27.0206123,26 Z"/>
    <path fill="#BD7575" d="M14,58.5 C14,56.5670034 15.5717012,55 17.4946613,55 L44.5053387,55 C46.4353869,55 48,56.5709366 48,58.5 L48,62 L14,62 L14,58.5 Z"/>
    <rect width="22" height="6" x="20" y="20" fill="#BD7575" rx="3"/>
  </g>
</svg>
