<svg xmlns="http://www.w3.org/2000/svg" width="64" height="64" viewBox="0 0 64 64">
  <g fill="none" fill-rule="evenodd">
    <circle cx="33" cy="32" r="29" fill="#FFAF40"/>
    <path fill="#FFDD95" d="M44.359746,33.36 C44.359746,35.0400084 43.493088,36.946656 41.759746,39.08 C41.4130776,39.480002 39.6797616,41.3066504 36.559746,44.56 C36.0530768,45.5200048 35.5464152,46.466662 35.039746,47.4 C34.373076,48.3066712 33.573084,48.7066672 32.639746,48.6 C30.8264036,48.3866656 29.3064188,47.4400084 28.079746,45.76 C27.6530772,45.1999972 27.439746,44.6800024 27.439746,44.2 C27.439746,43.666664 27.7330764,43.1600024 28.319746,42.68 C28.053078,41.213326 27.7997472,37.2400324 27.559746,30.76 C27.3730784,25.42664 27.279746,21.7866764 27.279746,19.84 C26.7197432,18.9599956 26.439746,18.053338 26.439746,17.12 C26.439746,16.4266632 26.639744,15.8666688 27.039746,15.44 C27.3330808,15.1466652 27.7597432,15 28.319746,15 C29.7597532,15 30.9330748,15.5466612 31.839746,16.64 C34.4264256,15.6799952 36.5330712,15.2 38.159746,15.2 C39.9997552,15.2 41.2264096,15.7866608 41.839746,16.96 C42.239748,17.7066704 42.439746,18.5333288 42.439746,19.44 C42.439746,22.240014 40.9330944,25.173318 37.919746,28.24 L41.599746,29.36 C42.7464184,29.7866688 43.4930776,30.366663 43.839746,31.1 C44.1864144,31.833337 44.359746,32.5866628 44.359746,33.36 Z M35.839746,20.16 C35.173076,20.16 33.9464216,20.7466608 32.159746,21.92 C32.159746,22.1600012 32.1864124,22.9399934 32.239746,24.26 C32.2930796,25.5800066 32.319746,26.4533312 32.319746,26.88 C33.386418,25.9733288 34.3664082,24.886673 35.259746,23.62 C36.1530838,22.353327 36.599746,21.4133364 36.599746,20.8 C36.599746,20.3733312 36.3464152,20.16 35.839746,20.16 Z M37.199746,32.88 C35.6530716,32.88 34.1864196,33.4666608 32.799746,34.64 L32.959746,40.72 C36.7730984,37.7066516 38.679746,35.4533408 38.679746,33.96 C38.679746,33.2399964 38.1864176,32.88 37.199746,32.88 Z"/>
    <path fill="#FFDD95" fill-rule="nonzero" d="M23.3742354,40.7508073 L34.3427722,38.6636106 C35.4278707,38.4571278 36.1401294,37.4100944 35.9336466,36.3249959 C35.7271639,35.2398975 34.6801304,34.5276387 33.595032,34.7341215 L22.6264952,36.8213182 C21.5413967,37.0278009 20.829138,38.0748344 21.0356207,39.1599328 C21.2421035,40.2450313 22.289137,40.95729 23.3742354,40.7508073 Z"/>
  </g>
</svg>
