<svg xmlns="http://www.w3.org/2000/svg" width="64" height="64" viewBox="0 0 64 64">
  <g fill="none" fill-rule="evenodd">
    <path fill="#FFAF40" d="M29.1146858,5.17562453 L25,4 L32,18 L39,4 L34.8853142,5.17562453 C34.5271315,3.91960941 33.3709589,3 32,3 C30.6290411,3 29.4728685,3.91960941 29.1146858,5.17562453 Z"/>
    <path fill="#FFAF40" d="M32,60 C44.1502645,60 54,53.6875678 54,41.6585366 C54,29.6295053 44.1502645,13 32,13 C19.8497355,13 10,29.6295053 10,41.6585366 C10,53.6875678 19.8497355,60 32,60 Z"/>
    <rect width="12" height="4" x="26" y="11" fill="#FF78C7" rx="2"/>
    <path fill="#FFDD95" d="M40.179873,37.9825173 C40.179873,39.2537975 39.5240637,40.6965779 38.2124255,42.310902 C37.9500978,42.6135877 36.6384792,43.9958319 34.2775303,46.457676 C33.8941284,47.1841219 33.5107322,47.9004674 33.1273302,48.6067341 C32.622854,49.2928219 32.0174915,49.5955031 31.3112248,49.5147869 C29.9390494,49.3533545 28.7888608,48.6370089 27.8606245,47.3657288 C27.5377596,46.9419687 27.3763297,46.5484831 27.3763297,46.1852602 C27.3763297,45.7816792 27.5982959,45.398283 28.042235,45.0350601 C27.8404445,43.9252124 27.6487464,40.918579 27.4671349,36.0150698 C27.3258816,31.9792597 27.255256,29.2248607 27.255256,27.75179 C26.8314959,27.0858814 26.6196191,26.3998039 26.6196191,25.6935372 C26.6196191,25.1688819 26.7709597,24.7451282 27.0736454,24.4222634 C27.295615,24.2002938 27.6184749,24.0893107 28.042235,24.0893107 C29.1319037,24.0893107 30.0197686,24.502975 30.7058563,25.3303161 C32.6632242,24.6038703 34.2573452,24.2406528 35.4882673,24.2406528 C36.8806218,24.2406528 37.8088442,24.6845853 38.2729623,25.5724635 C38.5756481,26.1374769 38.7269887,26.7630181 38.7269887,27.4491058 C38.7269887,29.567906 37.5868894,31.7875683 35.3066568,34.108159 L38.0913518,34.9556749 C38.9590509,35.2785397 39.5240559,35.7174275 39.7863835,36.2723514 C40.0487112,36.8272752 40.179873,37.3973249 40.179873,37.9825173 Z M33.7326987,27.9939374 C33.2282225,27.9939374 32.3000001,28.4378698 30.9480037,29.3257481 C30.9480037,29.5073595 30.9681824,30.0975879 31.0085405,31.0964509 C31.0488987,32.0953138 31.0690774,32.7561678 31.0690774,33.0790326 C31.8762394,32.3929449 32.6178084,31.570661 33.2938066,30.6121561 C33.9698047,29.6536512 34.3077988,28.9423503 34.3077988,28.4782322 C34.3077988,28.1553674 34.1161007,27.9939374 33.7326987,27.9939374 Z M34.7618251,37.6192962 C33.5914402,37.6192962 32.4816091,38.0632287 31.4322985,38.9511069 L31.5533722,43.5519073 C34.4389764,41.2716747 35.8817568,39.5665705 35.8817568,38.4365437 C35.8817568,37.8917093 35.50845,37.6192962 34.7618251,37.6192962 Z"/>
    <path stroke="#FFDD95" stroke-linecap="round" stroke-width="2" d="M24.5577482,43.6260238 L32.5696501,40.3743256"/>
  </g>
</svg>
