<svg xmlns="http://www.w3.org/2000/svg" width="64" height="64" viewBox="0 0 64 64">
  <g fill="none" fill-rule="evenodd">
    <path fill="#5EA7FF" d="M30.5997479,27.3947 C28.5067668,27.3911 26.8276725,29.0255 26.8303895,31.0649 C26.8331064,33.0818 28.5067668,34.7198 30.5707668,34.7261 C32.6429178,34.7315 34.3283517,33.0881 34.3292574,31.0622 C34.3310687,29.0408 32.661031,27.3992 30.5997479,27.3947 L30.5997479,27.3947 Z"/>
    <path fill="#5EA7FF" d="M53.0012574,10.7465 C53.4359744,11.1812 53.7946159,11.6663 53.9902385,12.2504 C54.0364272,12.3872 54.063597,12.5294 54.0998234,12.6689 L54.0998234,13.5401 C54.0808046,13.6679 54.0645027,13.7957 54.0445781,13.9235 C53.9177857,14.7569 53.7955215,15.5912 53.6605781,16.4237 C53.4712951,17.5973 53.2738612,18.77 53.0764272,19.9418 C52.8645027,21.2027 52.6480498,22.4636 52.4306913,23.7236 C52.2115215,24.9899 51.9887291,26.2562 51.7668423,27.5225 C51.5205027,28.9319 51.2750687,30.3413 51.0269178,31.7507 C50.7642762,33.2411 50.4898612,34.7297 50.2408046,36.2228 C50.1429932,36.806 49.9174838,37.3199 49.54888,37.7816 C49.2563517,38.1488 48.9203517,38.4755 48.5580876,38.7752 C47.8091064,39.3944 46.9822385,39.8984 46.1146159,40.3412 C44.2734083,41.2799 42.3217102,41.927 40.3111442,42.4121 C37.6294838,43.0592 34.9025404,43.3859 32.1448046,43.4741 C29.8924272,43.5461 27.6463895,43.4696 25.4066913,43.2086 C23.8109178,43.0232 22.2314461,42.7523 20.6728046,42.3671 C18.9484272,41.9414 17.2684272,41.3915 15.6617857,40.6373 C14.5994461,40.1387 13.5860121,39.5636 12.6767291,38.8256 C12.1912951,38.4305 11.7475215,37.9958 11.4024649,37.4729 C11.1851064,37.1444 11.0338612,36.7898 10.9677479,36.4019 C10.8826159,35.9051 10.7920498,35.4083 10.7051064,34.9115 C10.4442762,33.4274 10.1834461,31.9433 9.92261587,30.4592 C9.60382342,28.6421 9.28140833,26.825 8.96623851,25.0061 C8.64472908,23.1467 8.32050266,21.2873 8.01529512,19.4252 C7.69288002,17.4614 7.39220078,15.4931 7.07974795,13.5275 C7.0670687,13.4474 7.03084229,13.37 7.0054838,13.2917 L7.0054838,12.8354 C7.02993663,12.7787 7.0670687,12.7238 7.07703097,12.6644 C7.19386116,11.9858 7.5470687,11.4278 8.00533285,10.9238 C8.46450266,10.4189 9.00518191,10.0067 9.58299323,9.6404 C10.6507668,8.9627 11.8027668,8.4533 12.9928046,8.0231 C15.6047291,7.0799 18.3117479,6.5147 21.0586159,6.1151 C22.3464649,5.9279 23.6388423,5.7758 24.9375593,5.6894 C26.0877479,5.612 27.2397479,5.5589 28.3908423,5.495 C28.6652574,5.4797 28.9405781,5.4644 29.2149932,5.45 L31.93288,5.45 C31.9881253,5.4581 32.0433706,5.4707 32.0995215,5.4734 C33.3502385,5.5346 34.6009555,5.5787 35.8498612,5.6606 C36.78088,5.7218 37.7109932,5.8073 38.6365781,5.9234 C39.7297102,6.0593 40.821031,6.2222 41.9069178,6.4058 C43.7200498,6.7118 45.5042008,7.1357 47.2521253,7.7018 C48.4693329,8.096 49.6557479,8.5595 50.7805781,9.1652 C51.5884272,9.6008 52.3528046,10.0976 53.0012574,10.7465 Z M45.2669178,13.0604 C45.802163,12.5888 45.8066913,12.0695 45.2524272,11.615 C45.0223895,11.426 44.757031,11.2703 44.4916725,11.129 C44.0180121,10.8779 43.5081253,10.7078 42.9937102,10.5548 C41.8281253,10.2074 40.6362762,9.9788 39.4335593,9.7943 C37.8885027,9.5576 36.3334838,9.4073 34.773031,9.3137 C33.9751442,9.2651 33.1754461,9.239 32.3766536,9.2129 C30.0626913,9.1382 27.7505404,9.1958 25.4411064,9.3623 C24.0237479,9.4649 22.6109178,9.6179 21.2080498,9.8492 C20.0986159,10.0319 18.9982385,10.2551 17.9268423,10.5953 C17.4350687,10.751 16.9532574,10.931 16.4995215,11.1758 C16.245031,11.3135 16.002314,11.4683 15.8012574,11.6771 C15.4091064,12.0848 15.4009555,12.5042 15.7985404,12.9038 C15.954314,13.0613 16.1354461,13.2053 16.3292574,13.3124 C16.6480498,13.4888 16.9786159,13.6517 17.3191442,13.784 C18.4539366,14.2268 19.642163,14.4815 20.8394461,14.6948 C22.86088,15.0548 24.9013329,15.251 26.9508423,15.3545 C28.194314,15.4166 29.439597,15.4355 30.6640498,15.4733 C31.7816347,15.4391 32.8774838,15.4121 33.9733329,15.3716 C35.4866913,15.3158 36.9937102,15.1853 38.4962008,14.9963 C39.7523517,14.8379 40.9994461,14.6327 42.2275215,14.3267 C42.9828423,14.1386 43.7254838,13.9163 44.4291819,13.5833 C44.7298612,13.442 45.0178612,13.28 45.2669178,13.0604 Z M30.6015593,38.3729 C34.7259366,38.3684 38.0814083,35.0807 38.0750687,31.0523 C38.0687291,27.0176 34.7150687,23.7479 30.5843517,23.7488 C26.4472951,23.7488 23.0972574,27.0311 23.1026913,31.0793 C23.1081253,35.1086 26.469031,38.3774 30.6015593,38.3729 Z"/>
    <path fill="#5EA7FF" d="M47.6678234,42.8576 C47.3752951,42.8063 47.1289555,42.9089 46.8943895,43.0682 C46.5457102,43.3049 46.2006536,43.547 45.8392951,43.763 C43.9989932,44.8601 42.0255593,45.6638 39.9651819,46.2695 C37.5226159,46.9886 35.0238989,47.3918 32.4780876,47.5241 C31.0915215,47.5961 29.7049555,47.5916 28.3202008,47.5043 C26.9997479,47.4215 25.6874461,47.2622 24.3860121,47.0228 C22.1961253,46.6205 20.0714461,46.0067 18.0309932,45.1274 C16.7014838,44.555 15.4190687,43.8989 14.2480498,43.0484 C14.1529555,42.9791 14.0415593,42.9242 13.9292574,42.8882 C13.4374838,42.7289 12.9656347,42.9899 12.8642008,43.484 C12.834314,43.6298 12.8270687,43.7891 12.8542385,43.934 C13.1087291,45.2993 13.3704649,46.6646 13.6367291,48.0281 C13.9174838,49.4663 14.2045781,50.9036 14.4889555,52.3409 C14.5831442,52.8143 14.7669932,53.2526 15.03688,53.6567 C15.3457102,54.1184 15.7278989,54.5144 16.1562762,54.869 C16.9451064,55.5224 17.8344649,56.0174 18.7718234,56.4332 C20.5605027,57.227 22.4424649,57.7148 24.3706159,58.0487 C25.8486536,58.3052 27.3393706,58.46 28.8391442,58.5194 C28.8943895,58.5212 28.9487291,58.5392 29.0030687,58.5491 L32.1882762,58.5491 C32.2426159,58.5383 32.2969555,58.5212 32.3512951,58.5185 C33.5612574,58.469 34.7639744,58.3547 35.9612574,58.181 C37.4537857,57.9641 38.9227668,57.6518 40.3600498,57.1991 C41.589031,56.8121 42.7754461,56.3315 43.8785404,55.6691 C44.5079744,55.2911 45.0948423,54.8591 45.5974838,54.3272 C46.1354461,53.7584 46.5321253,53.1176 46.6824649,52.3436 C46.9523517,50.9594 47.2340121,49.5779 47.5048046,48.1946 C47.778314,46.7969 48.0472951,45.3983 48.3099366,43.9997 C48.3389178,43.8458 48.3398234,43.6811 48.3198989,43.5263 C48.2755215,43.1672 48.0219366,42.9197 47.6678234,42.8576 L47.6678234,42.8576 Z"/>
  </g>
</svg>
