<svg xmlns="http://www.w3.org/2000/svg" width="64" height="64" viewBox="0 0 64 64">
  <g fill="none" fill-rule="evenodd">
    <circle cx="33" cy="32" r="29" fill="#FFAF40"/>
    <circle cx="33" cy="32" r="24" stroke="#FFDD95" stroke-linecap="round" stroke-width="2"/>
    <path stroke="#FFDD95" stroke-linecap="round" stroke-width="2" d="M32.9176365,5 L32.9176365,4 M45.4627879,8.09143309 L45.9322595,7.2084855 M55.1401167,16.6650077 L55.9592688,16.0914312 M59.7208574,28.746176 L60.7134036,28.6243066 M58.1637929,41.5724504 L59.0973733,41.9308184 M50.8189443,52.2124732 L51.4880749,52.955618 M39.3778563,58.2157521 L39.6197782,59.1860478 M26.4574166,58.2157521 L26.2154947,59.1860478 M15.0163287,52.2124732 L14.3471981,52.955618 M7.67148,41.5724504 L6.73789957,41.9308184 M6.1144155,28.746176 L5.12186934,28.6243066 M10.6951562,16.6650077 L9.87600412,16.0914312 M20.372485,8.09143309 L19.9030134,7.2084855"/>
    <path fill="#FFDD95" d="M43.84,33.48 C43.84,35.1600084 42.973342,37.066656 41.24,39.2 C40.8933316,39.600002 39.1600156,41.4266504 36.04,44.68 C35.5333308,45.6400048 35.0266692,46.586662 34.52,47.52 C33.85333,48.4266712 33.053338,48.8266672 32.12,48.72 C30.3066576,48.5066656 28.7866728,47.5600084 27.56,45.88 C27.1333312,45.3199972 26.92,44.8000024 26.92,44.32 C26.92,43.786664 27.2133304,43.2800024 27.8,42.8 C27.533332,41.333326 27.2800012,37.3600324 27.04,30.88 C26.8533324,25.54664 26.76,21.9066764 26.76,19.96 C26.1999972,19.0799956 25.92,18.173338 25.92,17.24 C25.92,16.5466632 26.119998,15.9866688 26.52,15.56 C26.8133348,15.2666652 27.2399972,15.12 27.8,15.12 C29.2400072,15.12 30.4133288,15.6666612 31.32,16.76 C33.9066796,15.7999952 36.0133252,15.32 37.64,15.32 C39.4800092,15.32 40.7066636,15.9066608 41.32,17.08 C41.720002,17.8266704 41.92,18.6533288 41.92,19.56 C41.92,22.360014 40.4133484,25.293318 37.4,28.36 L41.08,29.48 C42.2266724,29.9066688 42.9733316,30.486663 43.32,31.22 C43.6666684,31.953337 43.84,32.7066628 43.84,33.48 Z M35.32,20.28 C34.65333,20.28 33.4266756,20.8666608 31.64,22.04 C31.64,22.2800012 31.6666664,23.0599934 31.72,24.38 C31.7733336,25.7000066 31.8,26.5733312 31.8,27 C32.866672,26.0933288 33.8466622,25.006673 34.74,23.74 C35.6333378,22.473327 36.08,21.5333364 36.08,20.92 C36.08,20.4933312 35.8266692,20.28 35.32,20.28 Z M36.68,33 C35.1333256,33 33.6666736,33.5866608 32.28,34.76 L32.44,40.84 C36.2533524,37.8266516 38.16,35.5733408 38.16,34.08 C38.16,33.3599964 37.6666716,33 36.68,33 Z"/>
    <path fill="#FFDD95" fill-rule="nonzero" d="M22.8544894,40.8708073 L33.8230262,38.7836106 C34.9081246,38.5771278 35.6203834,37.5300944 35.4139006,36.4449959 C35.2074178,35.3598975 34.1603844,34.6476387 33.0752859,34.8541215 L22.1067491,36.9413182 C21.0216507,37.1478009 20.3093919,38.1948344 20.5158747,39.2799328 C20.7223575,40.3650313 21.7693909,41.07729 22.8544894,40.8708073 Z"/>
  </g>
</svg>
