<svg xmlns="http://www.w3.org/2000/svg" width="64" height="64" viewBox="0 0 64 64">
  <g fill="none" fill-rule="evenodd">
    <polygon fill="#595959" points="12 3 52 3 52 61 12 61"/>
    <path fill="#FFF" d="M30.6870644 38.1905495C29.7879359 38.83091 28.6879508 39.2075357 27.5 39.2075357 24.4624339 39.2075357 22 36.7451018 22 33.7075357 22 30.3336878 25.0427104 29.8076618 27.2816714 27.4527229 29.9930341 24.6009118 31.9921985 22 32 22 32.007802 22 34.0073001 24.6012017 36.7187818 27.4531996 38.9575652 29.8080027 42 30.3337805 42 33.7075357 42 36.7451018 39.5375661 39.2075357 36.5 39.2075357 35.3120492 39.2075357 34.2120641 38.83091 33.3129356 38.1905495L34 43 30 43 30.6870644 38.1905495zM19.1238999 12.5132013C18.7949935 12.8178976 18.3782936 13 17.925 13 16.8618519 13 16 11.9982856 16 10.7626082 16 9.39013182 17.0649486 9.17614524 17.848585 8.21815958 18.797562 7.05804707 19.4972695 6 19.5 6 19.5027307 6 20.202555 7.05816498 21.1515736 8.2183535 21.9351478 9.17628391 23 9.39016953 23 10.7626082 23 11.9982856 22.1381481 13 21.075 13 20.6217064 13 20.2050065 12.8178976 19.8761001 12.5132013L20 14 19 14 19.1238999 12.5132013zM45.1238999 56.5132013C44.7949935 56.8178976 44.3782936 57 43.925 57 42.8618519 57 42 55.9982856 42 54.7626082 42 53.3901318 43.0649486 53.1761452 43.848585 52.2181596 44.797562 51.0580471 45.4972695 50 45.5 50 45.5027307 50 46.202555 51.058165 47.1515736 52.2183535 47.9351478 53.1762839 49 53.3901695 49 54.7626082 49 55.9982856 48.1381481 57 47.075 57 46.6217064 57 46.2050065 56.8178976 45.8761001 56.5132013L46 58 45 58 45.1238999 56.5132013z"/>
  </g>
</svg>
