<svg xmlns="http://www.w3.org/2000/svg" width="64" height="64" viewBox="0 0 64 64">
  <path fill="#ED9111" fill-rule="evenodd" d="M54.8746232,29.6244607 C55.1567209,32.9354009 54.8746232,42.9183303 54.8746232,42.9183303 C54.0771782,56.3349664 42.4244673,55.9992374 42.4244673,55.9992374 L32.345886,55.9992374 L32.3666465,55.9428649 C32.3410012,55.9428649 32.3177984,55.9478758 32.2921531,55.9478758 L22.4907847,55.9478758 C14.488247,55.9478758 8,49.2946774 8,41.0843475 L8,23.5425028 C8,15.3334256 14.488247,8 22.4907847,8 L32.2921531,8 C40.2946908,8 47.1138836,15.3334256 47.1138836,23.5425028 L47.1138836,25.7497963 C47.1138836,25.7497963 49.285181,25.6859075 50.0056903,25.7497963 C51.5761562,25.890101 54.6389312,26.8709811 54.8746232,29.6244607 L54.8746232,29.6244607 Z M31.9264006,21.3577583 L23.2481456,21.3577583 C21.4073801,21.3577583 19.9140482,22.584191 19.9140482,24.3207433 C19.9140482,26.0561038 21.4073801,27.467276 23.2481456,27.467276 L31.9264006,27.467276 C33.7659026,27.467276 35.260498,26.0561038 35.260498,24.3207433 C35.260498,22.5829991 33.7659026,21.3577583 31.9264006,21.3577583 L31.9264006,21.3577583 Z M38.8060429,37.4545455 L30.414014,37.4545455 L22.9110228,37.4545455 C21.2553171,37.4545455 19.9140482,38.917754 19.9140482,40.7226458 C19.9140482,42.5261977 21.2565454,43.9894063 22.9110228,43.9894063 L38.8060429,43.9894063 C40.4617485,43.9894063 41.8030175,42.5261977 41.8030175,40.7226458 C41.8030175,38.917754 40.4617485,37.4545455 38.8060429,37.4545455 L38.8060429,37.4545455 Z"/>
</svg>
