<svg xmlns="http://www.w3.org/2000/svg" width="64" height="64" viewBox="0 0 64 64">
  <g fill="none" fill-rule="evenodd">
    <path fill="#5EA7FF" d="M24.5853659,2 C19.4127477,2 16,7.98019656 16,15.3571429 C16,22.7340892 19.4127477,46 24.5853659,46 C27.6028872,46 27.9456474,26.6791409 32,26.6616468 C36.8348404,26.6791409 36.3971128,46 39.4146341,46 C44.5872523,46 48,22.7340892 48,15.3571429 C48,7.98019656 44.5872523,2 39.4146341,2 C36.9430894,2 34.4715447,4.35714286 32,4.35714286 C29.5284553,4.35714286 27.0569106,2 24.5853659,2 Z"/>
    <path fill="#E43535" d="M12 49.4622171C12 49.4622171 15 45.6568542 15 44 15 42.3431458 13.6568542 41 12 41 10.3431458 41 9 42.3431458 9 44 9 45.6568542 12 49.4622171 12 49.4622171zM22 60.4622171C22 60.4622171 25 56.6568542 25 55 25 53.3431458 23.6568542 52 22 52 20.3431458 52 19 53.3431458 19 55 19 56.6568542 22 60.4622171 22 60.4622171zM33 56.4622171C33 56.4622171 36 52.6568542 36 51 36 49.3431458 34.6568542 48 33 48 31.3431458 48 30 49.3431458 30 51 30 52.6568542 33 56.4622171 33 56.4622171zM49 50.4622171C49 50.4622171 52 46.6568542 52 45 52 43.3431458 50.6568542 42 49 42 47.3431458 42 46 43.3431458 46 45 46 46.6568542 49 50.4622171 49 50.4622171z"/>
  </g>
</svg>
