<svg xmlns="http://www.w3.org/2000/svg" width="64" height="64" viewBox="0 0 64 64">
  <g fill="none" fill-rule="evenodd">
    <polygon fill="#E6E6E6" points="19.045 3 52 3 52 61 12 61 12 9.065"/>
    <polygon fill="#CDCDCD" points="19 3 19 9 12 9"/>
    <path fill="#979797" d="M22.254,38.418 C22.2726668,38.5300006 22.2633335,38.6606659 22.226,38.81 C22.151333,39.0433345 22.1093334,39.1739999 22.1,39.202 C22.0906666,39.3513341 22.0790001,39.5076659 22.065,39.671 C22.0509999,39.8343342 21.9996671,39.9626662 21.911,40.056 C21.8223329,40.1493338 21.6473346,40.196 21.386,40.196 C21.1246654,40.196 20.896001,40.1446672 20.7,40.042 C20.4666655,39.9299994 20.3453334,39.776001 20.336,39.58 C20.336,39.4959996 20.3616664,39.3933339 20.413,39.272 C20.4643336,39.1506661 20.4969999,39.0573337 20.511,38.992 C20.5250001,38.9266663 20.5273334,38.7493348 20.518,38.46 C20.518,38.2453323 20.5716661,38.0866672 20.679,37.984 C20.7863339,37.8813328 20.9566655,37.83 21.19,37.83 C21.4326679,37.83 21.6613323,37.8836661 21.876,37.991 C22.0906677,38.0983339 22.2166665,38.2406658 22.254,38.418 Z M28.372,32.86 C28.3346665,33.056001 28.1573349,33.191333 27.84,33.266 C27.4666648,33.3593338 27.2286672,33.4666661 27.126,33.588 L24.844,36.22 L24.844,38.348 C24.844,38.5533344 24.9023327,38.760999 25.019,38.971 C25.1356673,39.1810011 25.194,39.3419994 25.194,39.454 C25.194,39.5660006 25.1613337,39.6919993 25.096,39.832 C24.9373325,40.1866684 24.6153358,40.364 24.13,40.364 C23.7939983,40.364 23.528001,40.2566677 23.332,40.042 C23.2013327,39.9019993 23.136,39.7246677 23.136,39.51 C23.136,39.435333 23.1453332,39.3140008 23.164,39.146 C23.1826668,38.9779992 23.192,38.8426672 23.192,38.74 L23.192,33.504 C23.192,33.4199996 23.154667,33.3173339 23.08,33.196 C23.005333,33.0746661 22.968,32.976667 22.968,32.902 C22.968,32.8459997 22.9866665,32.780667 23.024,32.706 C23.1453339,32.4819989 23.5233302,32.37 24.158,32.37 C24.6526691,32.37 24.9326663,32.4866655 24.998,32.72 C25.0260001,32.8133338 25.04,32.8926663 25.04,32.958 C25.04,33.0606672 25.002667,33.1399997 24.928,33.196 C24.853333,33.2520003 24.816,33.3079997 24.816,33.364 L24.844,33.868 L26.048,32.594 C26.1880007,32.4353325 26.3349992,32.2766675 26.489,32.118 C26.6430008,31.9593325 26.8226656,31.8706668 27.028,31.852 C27.3453349,31.8239999 27.6509985,31.8939992 27.945,32.062 C28.2390015,32.2300008 28.386,32.449332 28.386,32.72 C28.386,32.7666669 28.3813334,32.8133331 28.372,32.86 Z M34.224,39.412 C34.0839993,39.8693356 33.7386694,40.098 33.188,40.098 C33.0013324,40.098 32.8520006,40.0653337 32.74,40 C32.5906659,39.8973328 32.4880003,39.6920015 32.432,39.384 C32.3199994,38.8519973 32.2080006,38.4366682 32.096,38.138 C32.0679999,38.6513359 31.7880027,39.171664 31.256,39.699 C30.7239973,40.226336 30.187336,40.49 29.646,40.49 C28.9646633,40.49 28.4933346,40.0373379 28.232,39.132 C28.1386662,38.7959983 28.092,38.4786682 28.092,38.18 C28.092,37.3119957 28.5353289,36.5700031 29.422,35.954 C30.1500036,35.5246645 30.882663,35.1000021 31.62,34.68 C31.6573335,34.5213325 31.676,34.3673341 31.676,34.218 C31.676,33.9286652 31.5966675,33.7583336 31.438,33.707 C31.2793325,33.6556664 31.1440006,33.63 31.032,33.63 C30.835999,33.63 30.6750006,33.6929994 30.549,33.819 L30.192,34.176 C30.0799994,34.250667 29.9353342,34.423332 29.758,34.694 C29.6179993,34.9086677 29.4640008,35.0253332 29.296,35.044 C29.0533321,35.0720001 28.834001,34.988001 28.638,34.792 C28.441999,34.595999 28.344,34.3673346 28.344,34.106 C28.344,33.9566659 28.381333,33.8213339 28.456,33.7 C28.6706677,33.3453316 28.9926645,33.0373346 29.422,32.776 C30.0753366,32.383998 30.8919951,32.188 31.872,32.188 C32.4973365,32.188 32.9266655,32.4866637 33.16,33.084 C33.3093341,33.4853353 33.421333,34.2366612 33.496,35.338 C33.5800004,36.6726733 33.6826661,37.6479969 33.804,38.264 C33.8226668,38.3853339 33.9019993,38.5393324 34.042,38.726 C34.1820007,38.9126676 34.252,39.0759993 34.252,39.216 C34.252,39.2813337 34.2426668,39.3466663 34.224,39.412 Z M31.788,35.968 C31.5079986,36.1173341 31.2303347,36.2713325 30.955,36.43 C30.6796653,36.5886675 30.4253345,36.7986654 30.192,37.06 C29.8559983,37.4426686 29.688,37.769332 29.688,38.04 C29.688,38.2640011 29.7719992,38.4973321 29.94,38.74 C30.0333338,38.8706673 30.1359994,38.936 30.248,38.936 C30.4906679,38.936 30.7543319,38.665336 31.039,38.124 C31.3236681,37.582664 31.5733323,36.8640045 31.788,35.968 Z M40.972,33.028 C41.0000001,33.2146676 40.9533339,33.4153323 40.832,33.63 C40.6173323,33.9846684 40.5053334,34.1759999 40.496,34.204 C40.103998,35.137338 39.4973374,36.6399896 38.676,38.712 C38.3026648,39.7013383 38.0693338,40.5926627 37.976,41.386 C37.9573332,41.460667 37.9526666,41.6239987 37.962,41.876 C37.9713334,42.0813344 37.938667,42.2353328 37.864,42.338 C37.7146659,42.534001 37.4906682,42.632 37.192,42.632 C36.6599973,42.632 36.3146675,42.4313353 36.156,42.03 C36.1186665,41.9273328 36.1,41.838667 36.1,41.764 C36.1,41.6706662 36.137333,41.5656673 36.212,41.449 C36.286667,41.3323328 36.3333332,41.236667 36.352,41.162 L36.688,39.412 L34.672,33.616 C34.6439999,33.541333 34.5693339,33.3873345 34.448,33.154 C34.3639996,32.9859992 34.322,32.8413339 34.322,32.72 C34.322,32.6546663 34.3313332,32.5893337 34.35,32.524 C34.4433338,32.1879983 34.760664,32.02 35.302,32.02 C35.6380017,32.02 35.903999,32.0759994 36.1,32.188 C36.3333345,32.3280007 36.4686665,32.5753316 36.506,32.93 C36.5526669,33.5086696 36.5853332,33.8306663 36.604,33.896 L37.528,36.808 L38.956,33.196 C38.9653334,33.1679999 39.007333,32.9626686 39.082,32.58 C39.1286669,32.3466655 39.2266659,32.1880004 39.376,32.104 C39.4693338,32.0479997 39.5766661,32.02 39.698,32.02 C39.968668,32.02 40.239332,32.1203323 40.51,32.321 C40.780668,32.5216677 40.9346665,32.757332 40.972,33.028 Z"/>
  </g>
</svg>
