<svg xmlns="http://www.w3.org/2000/svg" width="64" height="64" viewBox="0 0 64 64">
  <g fill="none" fill-rule="evenodd">
    <path fill="#595959" d="M17.232233,21.8453194 C9.60245882,24.9914002 4.23223305,32.5024419 4.23223305,41.267767 C4.23223305,52.8657467 13.6342533,62.267767 25.232233,62.267767 C36.8302128,62.267767 46.232233,52.8657467 46.232233,41.267767 C46.232233,32.5024419 40.8620073,24.9914002 33.232233,21.8453194 L33.232233,15.267767 L17.232233,15.267767 L17.232233,21.8453194 Z" transform="rotate(45 25.232 38.768)"/>
    <circle cx="51" cy="13" r="3" fill="#ED9111"/>
    <path stroke="#595959" stroke-linecap="square" stroke-width="2" d="M44.3241161,21.1758839 L44.3241161,18.1758839" transform="rotate(45 44.324 19.676)"/>
    <path stroke="#ED9111" stroke-linecap="round" stroke-linejoin="round" stroke-width="2" d="M51,8 L51,6 M54.9138429,9.88838158 L56.4681349,8.6297408 M55.8751974,14.1101745 L57.8239375,14.5600767 M53.1649313,17.5070192 L54.0416736,19.3046073 M48.8350687,17.5070192 L47.9583264,19.3046073 M46.1248026,14.1101745 L44.1760625,14.5600767 M47.0861571,9.88838158 L45.5318651,8.6297408"/>
  </g>
</svg>
