<svg xmlns="http://www.w3.org/2000/svg" width="64" height="64" viewBox="0 0 64 64">
  <g fill="none" fill-rule="evenodd">
    <path fill="#D8D8D8" d="M53,22 C60.3333333,22 60,24.6862915 60,28 C60,29.8365851 59.0372945,31.1732596 57.5208305,32 C59.0372945,32.8267404 60,34.1634149 60,36 C60,39.3137085 56.8659932,42 53,42 C49.1340068,42 40.3617538,36 31,36 C21.6382462,36 16.3333333,42 9,42 C1.66666667,42 2,39.3137085 2,36 C2,34.1634149 2.96270547,32.8267404 4.47916949,32 C2.96270547,31.1732596 2,29.8365851 2,28 C2,24.6862915 5.13400675,22 9,22 C12.8659932,22 21.7019663,28 31,28 C40.2980337,28 45.6666667,22 53,22 Z" transform="rotate(-45 31 32)"/>
    <ellipse cx="9.433" cy="46.496" fill="#ECECEC" rx="1.5" ry="3" transform="rotate(-45 9.433 46.496)"/>
    <ellipse cx="16.504" cy="53.567" fill="#ECECEC" rx="1.5" ry="3" transform="rotate(-45 16.504 53.567)"/>
  </g>
</svg>
