<svg xmlns="http://www.w3.org/2000/svg" width="64" height="64" viewBox="0 0 64 64">
  <g fill="none" fill-rule="evenodd">
    <path fill="#80D25B" d="M10.4487945,33.8253041 C11.3055017,30.0557927 15.1387329,27 18.9903412,27 L45.0096588,27 C48.8703176,27 52.6952286,30.0590057 53.5512055,33.8253041 L57,49 L7,49 L10.4487945,33.8253041 Z"/>
    <path fill="#ECECEC" d="M43.499122,34 C47.165496,34 46.9988427,35.3431458 46.9988427,37 C46.9988427,37.9182925 46.5175284,38.5866298 45.7593569,39 C46.5175284,39.4133702 46.9988427,40.0817075 46.9988427,41 C46.9988427,42.6568542 45.4319644,44 43.499122,44 C41.5662797,44 37.1805033,41 32.5,41 C27.8194967,41 25.167252,44 21.500878,44 C17.834504,44 18.0011573,42.6568542 18.0011573,41 C18.0011573,40.0817075 18.4824716,39.4133702 19.2406431,39 C18.4824716,38.5866298 18.0011573,37.9182925 18.0011573,37 C18.0011573,35.3431458 19.5680356,34 21.500878,34 C23.4337203,34 27.8513542,37 32.5,37 C37.1486458,37 39.832748,34 43.499122,34 Z"/>
    <rect width="62" height="6" x="1" y="49" fill="#979797" rx="3"/>
  </g>
</svg>
