<svg xmlns="http://www.w3.org/2000/svg" width="64" height="64" viewBox="0 0 64 64">
  <g fill="none" fill-rule="evenodd">
    <path fill="#595959" d="M7.10517764,39.9436912 C7.37354539,38.8702202 8.4834157,38 9.58795205,38 L54.5942488,38 C55.6970795,38 56.8081883,38.8683514 57.0770233,39.9436912 L62.1051776,60.0563088 C62.3735454,61.1297798 61.7052712,62 60.596202,62 L3.58599885,62 C2.48424688,62 1.80818828,61.1316486 2.07702325,60.0563088 L7.10517764,39.9436912 Z"/>
    <polygon fill="#B4DFFB" points="10.617 41.013 53.621 41.013 57.083 57.041 7.099 57.041"/>
    <polygon fill="#4796E7" points="19.187 43.041 44.005 43.041 46.596 53.041 16.596 53.041"/>
    <path fill="#D8D8D8" d="M19,5.54400273 C19,5.54400273 26.3000057,3 31.6000114,3 C36.9000171,3 44.2000227,5.54400273 44.2000227,5.54400273 L42.2000227,36.9200364 C42.2000227,36.9200364 36.9000171,34.3760337 31.6000114,34.3760337 C26.3000057,34.3760337 21,36.9200364 21,36.9200364 L19,5.54400273 Z"/>
    <path stroke="#B6B6B6" stroke-width="2" d="M22.3362793 9.87662777C22.3362793 9.87662777 31.0460882 5.631173 40.4454264 9.91133253M23.3908529 14.8766278C23.3908529 14.8766278 31.0862424 10.631173 39.3908529 14.9113325M24 19.8766278C24 19.8766278 31.1094365 15.631173 38.7817057 19.9113325M24 24.8766278C24 24.8766278 31.1094365 20.631173 38.7817057 24.9113325M24 29.8766278C24 29.8766278 31.1094365 25.631173 38.7817057 29.9113325"/>
  </g>
</svg>
