<svg xmlns="http://www.w3.org/2000/svg" width="64" height="64" viewBox="0 0 64 64">
  <g fill="none" fill-rule="evenodd">
    <circle cx="32" cy="33" r="30" fill="#5DAF38"/>
    <path fill="#F3F3F3" d="M33,17.5440027 C33,17.5440027 38.3000057,15 43.6000114,15 C48.9000171,15 54.2000227,17.5440027 54.2000227,17.5440027 L54.2000227,48.9200364 C54.2000227,48.9200364 48.9000171,46.3760337 43.6000114,46.3760337 C38.3000057,46.3760337 33,48.9200364 33,48.9200364 L33,17.5440027 Z"/>
    <path fill="#C9C9C9" d="M12,17.5440027 C12,17.5440027 17.3000057,15 22.6000114,15 C27.9000171,15 33.0197269,17.5440027 33.0197269,17.5440027 L33.0197269,48.9200364 C33.0197269,48.9200364 27.9000171,46.3760337 22.6000114,46.3760337 C17.3000057,46.3760337 12,48.9200364 12,48.9200364 L12,17.5440027 Z"/>
    <path fill="#E8E8E8" fill-rule="nonzero" d="M15.5127003 22.7351954C15.5868038 22.6909439 15.7503735 22.6020763 15.9955469 22.4831713 16.4162603 22.2791326 16.9033823 22.0737512 17.4489351 21.881424 21.214662 20.5538684 25.3087534 20.5610754 29.2945164 22.7846289L30.268895 21.0380362C25.7206513 18.5006892 21.0466333 18.4924614 16.7839739 19.9952038 15.7185812 20.3707934 14.9340692 20.7512683 14.4872997 21.0180601L15.5127003 22.7351954zM15.5127003 27.7351954C15.5868038 27.6909439 15.7503735 27.6020763 15.9955469 27.4831713 16.4162603 27.2791326 16.9033823 27.0737512 17.4489351 26.881424 21.214662 25.5538684 25.3087534 25.5610754 29.2945164 27.7846289L30.268895 26.0380362C25.7206513 23.5006892 21.0466333 23.4924614 16.7839739 24.9952038 15.7185812 25.3707934 14.9340692 25.7512683 14.4872997 26.0180601L15.5127003 27.7351954zM15.5127003 32.7351954C15.5868038 32.6909439 15.7503735 32.6020763 15.9955469 32.4831713 16.4162603 32.2791326 16.9033823 32.0737512 17.4489351 31.881424 21.214662 30.5538684 25.3087534 30.5610754 29.2945164 32.7846289L30.268895 31.0380362C25.7206513 28.5006892 21.0466333 28.4924614 16.7839739 29.9952038 15.7185812 30.3707934 14.9340692 30.7512683 14.4872997 31.0180601L15.5127003 32.7351954zM15.5127003 37.7351954C15.5868038 37.6909439 15.7503735 37.6020763 15.9955469 37.4831713 16.4162603 37.2791326 16.9033823 37.0737512 17.4489351 36.881424 21.214662 35.5538684 25.3087534 35.5610754 29.2945164 37.7846289L30.268895 36.0380362C25.7206513 33.5006892 21.0466333 33.4924614 16.7839739 34.9952038 15.7185812 35.3707934 14.9340692 35.7512683 14.4872997 36.0180601L15.5127003 37.7351954zM15.5127003 42.7351954C15.5868038 42.6909439 15.7503735 42.6020763 15.9955469 42.4831713 16.4162603 42.2791326 16.9033823 42.0737512 17.4489351 41.881424 21.214662 40.5538684 25.3087534 40.5610754 29.2945164 42.7846289L30.268895 41.0380362C25.7206513 38.5006892 21.0466333 38.4924614 16.7839739 39.9952038 15.7185812 40.3707934 14.9340692 40.7512683 14.4872997 41.0180601L15.5127003 42.7351954z"/>
    <path fill="#D8D8D8" fill-rule="nonzero" d="M36.5127003 22.7351954C36.5868038 22.6909439 36.7503735 22.6020763 36.9955469 22.4831713 37.4162603 22.2791326 37.9033823 22.0737512 38.4489351 21.881424 42.214662 20.5538684 46.3087534 20.5610754 50.2945164 22.7846289L51.268895 21.0380362C46.7206513 18.5006892 42.0466333 18.4924614 37.7839739 19.9952038 36.7185812 20.3707934 35.9340692 20.7512683 35.4872997 21.0180601L36.5127003 22.7351954zM36.5127003 27.7351954C36.5868038 27.6909439 36.7503735 27.6020763 36.9955469 27.4831713 37.4162603 27.2791326 37.9033823 27.0737512 38.4489351 26.881424 42.214662 25.5538684 46.3087534 25.5610754 50.2945164 27.7846289L51.268895 26.0380362C46.7206513 23.5006892 42.0466333 23.4924614 37.7839739 24.9952038 36.7185812 25.3707934 35.9340692 25.7512683 35.4872997 26.0180601L36.5127003 27.7351954zM36.5127003 32.7351954C36.5868038 32.6909439 36.7503735 32.6020763 36.9955469 32.4831713 37.4162603 32.2791326 37.9033823 32.0737512 38.4489351 31.881424 42.214662 30.5538684 46.3087534 30.5610754 50.2945164 32.7846289L51.268895 31.0380362C46.7206513 28.5006892 42.0466333 28.4924614 37.7839739 29.9952038 36.7185812 30.3707934 35.9340692 30.7512683 35.4872997 31.0180601L36.5127003 32.7351954zM36.5127003 37.7351954C36.5868038 37.6909439 36.7503735 37.6020763 36.9955469 37.4831713 37.4162603 37.2791326 37.9033823 37.0737512 38.4489351 36.881424 42.214662 35.5538684 46.3087534 35.5610754 50.2945164 37.7846289L51.268895 36.0380362C46.7206513 33.5006892 42.0466333 33.4924614 37.7839739 34.9952038 36.7185812 35.3707934 35.9340692 35.7512683 35.4872997 36.0180601L36.5127003 37.7351954zM36.5127003 42.7351954C36.5868038 42.6909439 36.7503735 42.6020763 36.9955469 42.4831713 37.4162603 42.2791326 37.9033823 42.0737512 38.4489351 41.881424 42.214662 40.5538684 46.3087534 40.5610754 50.2945164 42.7846289L51.268895 41.0380362C46.7206513 38.5006892 42.0466333 38.4924614 37.7839739 39.9952038 36.7185812 40.3707934 35.9340692 40.7512683 35.4872997 41.0180601L36.5127003 42.7351954z"/>
  </g>
</svg>
