<svg xmlns="http://www.w3.org/2000/svg" width="64" height="64" viewBox="0 0 64 64">
  <g fill="none" fill-rule="evenodd">
    <rect width="10" height="6" x="27" y="50" fill="#6B6B6B"/>
    <rect width="26" height="6" x="34" y="47" fill="#6B6B6B"/>
    <rect width="26" height="6" x="4" y="47" fill="#6B6B6B"/>
    <path fill="#FFAF3F" d="M4,11.284642 C4,11.284642 10.9154806,9.27256785 18,10.284642 C25.0845194,11.2967162 32,15.284642 32,15.284642 L32,54.284642 C32,54.284642 24.9154806,50.2725679 18,49.284642 C11.0845194,48.2967162 4,50.284642 4,50.284642 L4,11.284642 Z"/>
    <path fill="#ED9111" d="M32,11.284642 C32,11.284642 38.9154806,9.27256785 46,10.284642 C53.0845194,11.2967162 60,15.284642 60,15.284642 L60,54.284642 C60,54.284642 52.9154806,50.2725679 46,49.284642 C39.0845194,48.2967162 32,50.284642 32,50.284642 L32,11.284642 Z" transform="matrix(-1 0 0 1 92 0)"/>
  </g>
</svg>
