<svg xmlns="http://www.w3.org/2000/svg" width="64" height="64" viewBox="0 0 64 64">
  <g fill="none" fill-rule="evenodd">
    <rect width="52" height="10" x="3" y="52" fill="#DAD71E" rx="2"/>
    <rect width="54" height="11" x="1" y="41" fill="#4796E7" rx="2"/>
    <rect width="45" height="7" x="10" y="21" fill="#FF5EAC" rx="2"/>
    <polygon fill="#FB3A3A" fill-rule="nonzero" points="19 21 19 28 21 28 21 21"/>
    <polygon fill="#FB3A3A" fill-rule="nonzero" points="43 21 43 28 45 28 45 21"/>
    <polygon fill="#FB3A3A" fill-rule="nonzero" points="47 21 47 28 49 28 49 21"/>
    <rect width="48" height="13" x="7" y="28" fill="#56E287" rx="2"/>
    <polygon fill="#3FBC6B" fill-rule="nonzero" points="44 28 44 41 46 41 46 28"/>
    <polygon fill="#FB3A3A" points="13 27 21 27 21 37 17 33.733 13 37"/>
    <polygon fill="#B8B618" fill-rule="nonzero" points="4 52 4 62 6 62 6 52"/>
    <polygon fill="#B8B618" fill-rule="nonzero" points="9 52 9 62 11 62 11 52"/>
    <polygon fill="#FFF" fill-rule="nonzero" points="12 43 12 50 14 50 14 43"/>
    <polygon fill="#FFF" fill-rule="nonzero" points="15 43 15 50 17 50 17 43"/>
    <polygon fill="#B8B618" fill-rule="nonzero" points="31 52 31 62 33 62 33 52"/>
    <polygon fill="#9ACCFF" fill-rule="nonzero" points="49 41 49 52 51 52 51 41"/>
    <polygon fill="#9ACCFF" fill-rule="nonzero" points="27 41 27 52 29 52 29 41"/>
    <polygon fill="#FFF" fill-rule="nonzero" points="12 58 30 58 30 56 12 56"/>
    <polygon fill="#FFF" fill-rule="nonzero" points="30 48 48 48 48 46 30 46"/>
    <rect width="9" height="51" x="55" y="11" fill="#D8D8D8" rx="2"/>
    <polygon fill="#979797" fill-rule="nonzero" points="55 22 64 22 64 20 55 20"/>
    <polygon fill="#979797" fill-rule="nonzero" points="55 30 64 30 64 28 55 28"/>
    <polygon fill="#979797" fill-rule="nonzero" points="55 59 64 59 64 57 55 57"/>
    <polygon fill="#979797" fill-rule="nonzero" points="55 56 64 56 64 54 55 54"/>
  </g>
</svg>
