<svg xmlns="http://www.w3.org/2000/svg" width="64" height="64" viewBox="0 0 64 64">
  <g fill="none" fill-rule="evenodd">
    <path fill="#C13F98" fill-rule="nonzero" d="M51.003024,21 L11.996976,21 C9.24047716,21 7,18.7568146 7,16 C7,13.2401036 9.24011226,11 11.996976,11 L51.003024,11 L51.003024,7 L11.996976,7 C7.03097673,7 3,11.0309611 3,16 C3,20.9648726 7.03025572,25 11.996976,25 L51.003024,25 L51.003024,21 Z"/>
    <path fill="#C13F98" fill-rule="nonzero" d="M51,8 C46.581722,8 43,11.581722 43,16 C43,20.418278 46.581722,24 51,24 L51,22 C47.6862915,22 45,19.3137085 45,16 C45,12.6862915 47.6862915,10 51,10 L51,8 Z"/>
    <polygon fill="#C13F98" fill-rule="nonzero" points="5 15 45.013 15 45.013 13 5 13"/>
    <polygon fill="#C13F98" fill-rule="nonzero" points="5 19 45.013 19 45.013 17 5 17"/>
    <path fill="#80D25B" fill-rule="nonzero" d="M13.996976,43 L53.003024,43 C57.9697443,43 62,38.9648726 62,34 C62,29.0309611 57.9690233,25 53.003024,25 L13.996976,25 L13.996976,29 L53.003024,29 C55.7598877,29 58,31.2401036 58,34 C58,36.7568146 55.7595228,39 53.003024,39 L13.996976,39 L13.996976,43 Z"/>
    <path fill="#80D25B" fill-rule="nonzero" d="M14,28 C17.3137085,28 20,30.6862915 20,34 C20,37.3137085 17.3137085,40 14,40 L14,42 C18.418278,42 22,38.418278 22,34 C22,29.581722 18.418278,26 14,26 L14,28 Z"/>
    <polygon fill="#80D25B" fill-rule="nonzero" points="60 31 19.987 31 19.987 33 60 33"/>
    <polygon fill="#80D25B" fill-rule="nonzero" points="60 35 19.987 35 19.987 37 60 37"/>
    <path fill="#4796E7" fill-rule="nonzero" d="M52.003024,57 L12.996976,57 C10.2404772,57 8,54.7568146 8,52 C8,49.2401036 10.2401123,47 12.996976,47 L52.003024,47 L52.003024,43 L12.996976,43 C8.03097673,43 4,47.0309611 4,52 C4,56.9648726 8.03025572,61 12.996976,61 L52.003024,61 L52.003024,57 Z"/>
    <path fill="#4796E7" fill-rule="nonzero" d="M52,44 C47.581722,44 44,47.581722 44,52 C44,56.418278 47.581722,60 52,60 L52,58 C48.6862915,58 46,55.3137085 46,52 C46,48.6862915 48.6862915,46 52,46 L52,44 Z"/>
    <polygon fill="#4796E7" fill-rule="nonzero" points="6 51 46.013 51 46.013 49 6 49"/>
    <polygon fill="#4796E7" fill-rule="nonzero" points="6 55 46.013 55 46.013 53 6 53"/>
  </g>
</svg>
