<svg xmlns="http://www.w3.org/2000/svg" width="64" height="64" viewBox="0 0 64 64">
  <path fill="#BD7575" d="M26,50.208922 L26,13.000655 C26,9.6850322 28.6838634,7 31.9998866,7 L34.0001134,7 C37.3117268,7 40,9.68973442 40,13.000655 L40,55.9917185 C40,58.2074066 38.2120965,60 36.0058335,60 L34.9771192,60 C32.7689258,60 30.9829527,58.2113797 30.9829527,55.9910605 L30.9829527,25.1208041 C30.9829527,24.0168999 31.8729204,23.1273427 32.984565,23.1273427 L33.1035387,23.1273427 C34.2101094,23.1273427 35.105151,24.0215327 35.105151,25.1265154 L35.105151,49.0397871 C35.105151,50.1443566 36.0005815,51.0397871 37.105151,51.0397871 C38.2097205,51.0397871 39.105151,50.1443566 39.105151,49.0397871 L39.105151,25.1265154 C39.105151,21.8115408 36.4183964,19.1273427 33.1035387,19.1273427 L32.984565,19.1273427 C29.6641945,19.1273427 26.9829527,21.8073476 26.9829527,25.1208041 L26.9829527,55.9910605 C26.9829527,60.4191936 30.5584594,64 34.9771192,64 L36.0058335,64 C40.4235847,64 44,60.4142033 44,55.9917185 L44,13.000655 C44,7.48108187 39.5213526,3 34.0001134,3 L31.9998866,3 C26.4743345,3 22,7.47628296 22,13.000655 L22,50.208922 C22,51.3134915 22.8954305,52.208922 24,52.208922 C25.1045695,52.208922 26,51.3134915 26,50.208922 Z"/>
</svg>
