<?xml version="1.0" encoding="UTF-8"?>
<svg width="64px" height="64px" viewBox="0 0 64 64" version="1.1" xmlns="http://www.w3.org/2000/svg" xmlns:xlink="http://www.w3.org/1999/xlink">
    <!-- Generator: Sketch 43.2 (39069) - http://www.bohemiancoding.com/sketch -->
    <title>bowlingpaws</title>
    <desc>Created with Sketch.</desc>
    <defs></defs>
    <g id="Outdoor-Activities-(142)" stroke="none" stroke-width="1" fill="none" fill-rule="evenodd">
        <path d="M17.7277035,7.96029596 C17.325804,4.6685154 19.6909027,2 22.9989013,2 L22.0010987,2 C25.3142004,2 27.6815137,4.66836644 27.2886012,7.96029596 L26.0448115,18.3811102 C26.0448115,18.3811102 29.5712633,28.5103288 30.0224057,37.1905551 C30.4735482,45.8707814 28,56 28,56 L17,56 C17,56 14.4606577,47.3352835 15,37.1905551 C15.5393423,27.0458267 19,18.3811102 19,18.3811102 L17.7277035,7.96029596 Z" id="Rectangle-101-Copy-2" fill="#D8D8D8"></path>
        <path d="M20,18 L25,18" id="Line-Copy-66" stroke="#E43535" stroke-width="2" stroke-linecap="round" stroke-linejoin="round"></path>
        <path d="M37.7277035,7.96029596 C37.325804,4.6685154 39.6909027,2 42.9989013,2 L42.0010987,2 C45.3142004,2 47.6815137,4.66836644 47.2886012,7.96029596 L46.0448115,18.3811102 C46.0448115,18.3811102 49.5712633,28.5103288 50.0224057,37.1905551 C50.4735482,45.8707814 48,56 48,56 L37,56 C37,56 34.4606577,47.3352835 35,37.1905551 C35.5393423,27.0458267 39,18.3811102 39,18.3811102 L37.7277035,7.96029596 Z" id="Rectangle-101-Copy" fill="#D8D8D8"></path>
        <path d="M40,18 L45,18" id="Line-Copy-65" stroke="#E43535" stroke-width="2" stroke-linecap="round" stroke-linejoin="round"></path>
        <path d="M27.7277035,13.960296 C27.325804,10.6685154 29.6909027,8 32.9989013,8 L32.0010987,8 C35.3142004,8 37.6815137,10.6683664 37.2886012,13.960296 L36.0448115,24.3811102 C36.0448115,24.3811102 39.5712633,34.5103288 40.0224057,43.1905551 C40.4735482,51.8707814 38,62 38,62 L27,62 C27,62 24.4606577,53.3352835 25,43.1905551 C25.5393423,33.0458267 29,24.3811102 29,24.3811102 L27.7277035,13.960296 Z" id="Rectangle-101" fill="#ECECEC"></path>
        <path d="M30,24 L35,24" id="Line" stroke="#E43535" stroke-width="2" stroke-linecap="round" stroke-linejoin="round"></path>
    </g>
</svg>