<svg xmlns="http://www.w3.org/2000/svg" width="64" height="64" viewBox="0 0 64 64">
  <g fill="none" fill-rule="evenodd">
    <rect width="62" height="9" x="1" y="11" fill="#9F5757" rx="4.5"/>
    <path fill="#BD7575" d="M4,20 L60,20 L60,52.9925388 C60,54.101229 59.0976918,55 58.0069304,55 L5.99306965,55 C4.89232768,55 4,54.0996545 4,52.9925388 L4,20 Z"/>
    <path fill="#80D25B" d="M48.5044647,43.529591 C51.2658885,43.529591 53.5044647,41.1876959 53.5044647,38.2988218 C53.5044647,35.4099477 48.5044647,26.529591 48.5044647,26.529591 C48.5044647,26.529591 43.5044647,35.4099477 43.5044647,38.2988218 C43.5044647,41.1876959 45.743041,43.529591 48.5044647,43.529591 Z" transform="rotate(75 48.504 35.03)"/>
    <path fill="#80D25B" d="M17.5044647,43.529591 C20.2658885,43.529591 22.5044647,41.1876959 22.5044647,38.2988218 C22.5044647,35.4099477 17.5044647,26.529591 17.5044647,26.529591 C17.5044647,26.529591 12.5044647,35.4099477 12.5044647,38.2988218 C12.5044647,41.1876959 14.743041,43.529591 17.5044647,43.529591 Z" transform="scale(-1 1) rotate(75 0 12.217)"/>
    <path stroke="#22BA8E" stroke-linecap="round" stroke-width="2" d="M45,36 C38.372583,36 33,41.372583 33,48"/>
    <path stroke="#22BA8E" stroke-linecap="round" stroke-width="2" d="M32,36 C25.372583,36 20,41.372583 20,48" transform="matrix(-1 0 0 1 52 0)"/>
    <rect width="20" height="5" x="23" y="23" fill="#9F5757" rx="2.5"/>
  </g>
</svg>
