<svg xmlns="http://www.w3.org/2000/svg" width="64" height="64" viewBox="0 0 64 64">
  <g fill="none" fill-rule="evenodd">
    <path fill="#BD7575" d="M30.9836291,45 L31,45 L31,22 L4,22 L4,45 L4.02773112,45 L30.9836291,60.9132227 L30.9836291,45 Z"/>
    <path fill="#9F5757" d="M57.9836291,45 L58,45 L58,22 L31,22 L31,45 L31.0277311,45 L57.9836291,60.9132227 L57.9836291,45 Z" transform="matrix(-1 0 0 1 89 0)"/>
    <polygon fill="#BD7575" points="11.903 2.903 42.248 10.72 50.064 41.064 19.72 33.248" transform="rotate(-45 30.984 21.984)"/>
    <polygon fill="#FFDD95" points="22.58 11 49.08 27.309 41.088 32.056 15.219 15.31"/>
    <polygon fill="#FFAF40" points="41.038 32.081 49.086 27.276 49.086 36.997 41.038 42.885"/>
  </g>
</svg>
