<svg xmlns="http://www.w3.org/2000/svg" width="64" height="64" viewBox="0 0 64 64">
  <g fill="none" fill-rule="evenodd">
    <path fill="#E43535" d="M30,62.5064568 C41.045695,62.5064568 50,53.5521518 50,42.5064568 C50,35.9976335 44.9205564,28.1142929 40.1063521,20.609489 C35.2921478,13.1046851 34.5368717,9 30,9 C24.7711216,9 23.8585368,14.1364827 20.2950358,20.609489 C16.7315347,27.0824953 10,36.6896402 10,42.5064568 C10,53.5521518 18.954305,62.5064568 30,62.5064568 Z"/>
    <path stroke="#FF78C7" stroke-linecap="round" stroke-width="2" d="M28.0031042,15.7513135 C28.0031042,15.7513135 11.6859579,36.7752083 21.7781796,53.5915483"/>
    <path stroke="#FF78C7" stroke-linecap="round" stroke-width="2" d="M41.0031042,15.7513135 C41.0031042,15.7513135 24.6859579,36.7752083 34.7781796,53.5915483" transform="matrix(-1 0 0 1 72.487 0)"/>
    <path stroke="#FF78C7" stroke-linecap="round" stroke-width="2" d="M30,56.8040017 L30,19"/>
    <path fill="#5EA7FF" d="M26,5 L34,5 L34,22.9904421 C34,25.2048598 32.2046438,27 30,27 L30,27 C27.790861,27 26,25.1996477 26,22.9904421 L26,5 Z"/>
    <path stroke="#979797" stroke-linecap="square" stroke-width="2" d="M28 4L28 2M32 4L32 2"/>
  </g>
</svg>
