<svg xmlns="http://www.w3.org/2000/svg" width="64" height="64" viewBox="0 0 64 64">
  <g fill="none" fill-rule="evenodd">
    <rect width="40" height="7" x="13" y="9" fill="#868686" rx="3.5"/>
    <path fill="#595959" d="M16,16 L49.6,16 L49.6,35.0054385 C49.6,36.1070044 48.7012812,37 47.59879,37 L18.00121,37 C16.8959722,37 16,36.0976562 16,35.0054385 L16,16 Z"/>
    <rect width="11" height="2" x="27" y="18" fill="#868686" rx="1"/>
    <rect width="40" height="7" x="1" y="27" fill="#4796E7" rx="3.5"/>
    <path fill="#80D25B" d="M4,34 L37.6,34 L37.6,53.0054385 C37.6,54.1070044 36.7012812,55 35.59879,55 L6.00121002,55 C4.89597225,55 4,54.0976562 4,53.0054385 L4,34 Z"/>
    <rect width="11" height="2" x="15" y="36" fill="#22BA8E" rx="1"/>
    <rect width="40" height="7" x="24" y="32" fill="#FF78C7" rx="3.5"/>
    <path fill="#FFAF40" d="M27,39 L60.6,39 L60.6,58.0054385 C60.6,59.1070044 59.7012812,60 58.59879,60 L29.00121,60 C27.8959722,60 27,59.0976562 27,58.0054385 L27,39 Z"/>
    <rect width="11" height="2" x="38" y="41" fill="#C94C63" rx="1"/>
  </g>
</svg>
