<svg xmlns="http://www.w3.org/2000/svg" width="64" height="64" viewBox="0 0 64 64">
  <g fill="none" fill-rule="evenodd">
    <rect width="20" height="8" x="5" y="30" fill="#D8D8D8"/>
    <path fill="#E43535" d="M3,9.00670248 C3,5.6892923 5.68299079,3 8.99825655,3 L22.5874381,3 C24.7974334,3 26.4826661,4.7845723 26.4194724,6.98530099 C26.4194724,6.98530099 25.5001118,16.0772601 28.7598034,18.9303575 C32.0194949,21.7834549 28.9754325,26.4220744 28.9754325,26.4220744 C27.8844312,28.9503929 24.76369,31 21.9980273,31 L8.99430406,31 C5.68374134,31 3,28.3152423 3,24.9932975 L3,9.00670248 Z"/>
    <path stroke="#FF78C7" stroke-linecap="round" stroke-width="2" d="M11,6 C8.23857625,6 6,8.23857625 6,11"/>
    <g transform="matrix(-1 0 0 1 61 23)">
      <rect width="20" height="8" x="2" y="27" fill="#D8D8D8"/>
      <path fill="#E43535" d="M0,6.00670248 C0,2.6892923 2.68299079,0 5.99825655,0 L19.5874381,0 C21.7974334,0 23.4826661,1.7845723 23.4194724,3.98530099 C23.4194724,3.98530099 22.5001118,13.0772601 25.7598034,15.9303575 C29.0194949,18.7834549 25.9754325,23.4220744 25.9754325,23.4220744 C24.8844312,25.9503929 21.76369,28 18.9980273,28 L5.99430406,28 C2.68374134,28 0,25.3152423 0,21.9932975 L0,6.00670248 Z"/>
      <path stroke="#FF78C7" stroke-linecap="round" stroke-width="2" d="M8,3 C5.23857625,3 3,5.23857625 3,8"/>
    </g>
  </g>
</svg>
