<svg xmlns="http://www.w3.org/2000/svg" width="64" height="64" viewBox="0 0 64 64">
  <g fill="none" fill-rule="evenodd">
    <rect width="58" height="58" x="3" y="4" fill="#FFAF40"/>
    <polygon fill="#0A3586" points="6 7 58 7 58 59 6 59"/>
    <path fill="#FFAF40" d="M34.84,34.48 C34.84,36.1600084 33.973342,38.066656 32.24,40.2 C31.8933316,40.600002 30.1600156,42.4266504 27.04,45.68 C26.5333308,46.6400048 26.0266692,47.586662 25.52,48.52 C24.85333,49.4266712 24.053338,49.8266672 23.12,49.72 C21.3066576,49.5066656 19.7866728,48.5600084 18.56,46.88 C18.1333312,46.3199972 17.92,45.8000024 17.92,45.32 C17.92,44.786664 18.2133304,44.2800024 18.8,43.8 C18.533332,42.333326 18.2800012,38.3600324 18.04,31.88 C17.8533324,26.54664 17.76,22.9066764 17.76,20.96 C17.1999972,20.0799956 16.92,19.173338 16.92,18.24 C16.92,17.5466632 17.119998,16.9866688 17.52,16.56 C17.8133348,16.2666652 18.2399972,16.12 18.8,16.12 C20.2400072,16.12 21.4133288,16.6666612 22.32,17.76 C24.9066796,16.7999952 27.0133252,16.32 28.64,16.32 C30.4800092,16.32 31.7066636,16.9066608 32.32,18.08 C32.720002,18.8266704 32.92,19.6533288 32.92,20.56 C32.92,23.360014 31.4133484,26.293318 28.4,29.36 L32.08,30.48 C33.2266724,30.9066688 33.9733316,31.486663 34.32,32.22 C34.6666684,32.953337 34.84,33.7066628 34.84,34.48 Z M26.32,21.28 C25.65333,21.28 24.4266756,21.8666608 22.64,23.04 C22.64,23.2800012 22.6666664,24.0599934 22.72,25.38 C22.7733336,26.7000066 22.8,27.5733312 22.8,28 C23.866672,27.0933288 24.8466622,26.006673 25.74,24.74 C26.6333378,23.473327 27.08,22.5333364 27.08,21.92 C27.08,21.4933312 26.8266692,21.28 26.32,21.28 Z M27.68,34 C26.1333256,34 24.6666736,34.5866608 23.28,35.76 L23.44,41.84 C27.2533524,38.8266516 29.16,36.5733408 29.16,35.08 C29.16,34.3599964 28.6666716,34 27.68,34 Z M52.76,27.6 C52.6533328,28.1600028 52.1466712,28.5466656 51.24,28.76 C50.173328,29.026668 49.4933348,29.3333316 49.2,29.68 L42.68,37.2 L42.68,43.28 C42.68,43.8666696 42.846665,44.459997 43.18,45.06 C43.513335,45.660003 43.68,46.1199984 43.68,46.44 C43.68,46.7600016 43.5866676,47.119998 43.4,47.52 C42.9466644,48.5333384 42.0266736,49.04 40.64,49.04 C39.6799952,49.04 38.9200028,48.7333364 38.36,48.12 C37.9866648,47.719998 37.8,47.2133364 37.8,46.6 C37.8,46.3866656 37.8266664,46.0400024 37.88,45.56 C37.9333336,45.0799976 37.96,44.6933348 37.96,44.4 L37.96,29.44 C37.96,29.1999988 37.8533344,28.9066684 37.64,28.56 C37.4266656,28.2133316 37.32,27.9333344 37.32,27.72 C37.32,27.5599992 37.3733328,27.3733344 37.48,27.16 C37.8266684,26.5199968 38.9066576,26.2 40.72,26.2 C42.1333404,26.2 42.9333324,26.53333 43.12,27.2 C43.2000004,27.466668 43.24,27.6933324 43.24,27.88 C43.24,28.1733348 43.1333344,28.3999992 42.92,28.56 C42.7066656,28.7200008 42.6,28.8799992 42.6,29.04 L42.68,30.48 L46.12,26.84 C46.520002,26.3866644 46.9399978,25.9333356 47.38,25.48 C47.8200022,25.0266644 48.3333304,24.7733336 48.92,24.72 C49.8266712,24.6399996 50.6999958,24.8399976 51.54,25.32 C52.3800042,25.8000024 52.8,26.4266628 52.8,27.2 C52.8,27.333334 52.7866668,27.466666 52.76,27.6 Z"/>
  </g>
</svg>
