<svg xmlns="http://www.w3.org/2000/svg" width="64" height="64" viewBox="0 0 64 64">
  <g fill="none" fill-rule="evenodd">
    <path fill="#E1B965" fill-rule="nonzero" d="M13.3312996,6.14764926 C14.0956785,5.52476888 14.8942821,4.94283923 15.809026,4.32660462 C16.3102211,3.98896501 17.7673125,3.04379503 17.8346832,2.99918152 C19.3132161,2.02008355 21.7061399,1.89718518 24.8429194,2.35344931 C26.0870766,2.53441971 27.4038429,2.80354386 28.7521853,3.13743066 C29.656997,3.36148699 30.5226708,3.60138866 31.3201689,3.84146347 C31.5999136,3.9256764 31.851486,4.0040076 32.0712199,4.07449901 C32.2045739,4.11727944 32.2986768,4.14828233 32.3498496,4.16554913 C32.7564073,4.30273064 33.0301373,4.68398575 33.0301373,5.11306383 L33.0301373,57.9185825 C33.0301373,58.2890634 32.8253108,58.6291845 32.4978499,58.8024631 C24.9379252,62.8028579 19.6291838,60.8495739 16.5147565,55.2275593 C15.852668,54.0323889 15.3465433,52.7600348 14.9731365,51.4884878 C14.8849071,51.1880438 14.810966,50.912775 14.7501292,50.6674398 C9.82983328,50.8620288 6.93125581,47.4288653 5.68636859,41.8096423 C5.09122005,39.1232364 4.94310524,36.3269805 5.04081763,33.9217263 C4.20897142,32.3488082 3.81887444,30.7332893 3.82099856,28.9759236 C3.82376717,26.6853496 4.48032423,24.2764022 5.56760041,21.8788632 C5.94498847,21.0466895 6.34903984,20.2744463 6.75382902,19.5800877 C6.89029529,19.3459991 7.01075799,19.1477471 7.11077259,18.9885207 C6.72993593,13.7262896 9.06086378,9.62756042 13.3312996,6.14764926 Z M30.743655,5.75656965 C29.9763153,5.52557358 29.1421521,5.29440436 28.2714501,5.07879452 C26.9825522,4.75962782 25.7282952,4.5032795 24.5550365,4.33262171 C21.8807401,3.94362864 19.8753121,4.04662559 18.9389323,4.66670481 C18.8579087,4.72035934 17.4101045,5.65950506 16.9264546,5.98532503 C16.0583442,6.57014414 15.3069556,7.11766893 14.5947102,7.69806647 C10.6995047,10.8722084 8.69071217,14.4828614 9.1312415,19.152107 C9.15310337,19.3838247 9.093454,19.615911 8.96257248,19.8083715 C8.87147949,19.9423232 8.70251344,20.2085184 8.48166113,20.5873593 C8.1095739,21.2256224 7.73674885,21.9381843 7.38905225,22.7048857 C6.40907528,24.8658206 5.82337042,27.014807 5.8209971,28.978341 C5.81917183,30.4884496 6.16619172,31.8266657 6.9042845,32.9735466 C7.02163432,33.1558898 7.07653463,33.3714366 7.06071087,33.5876995 C7.05563418,33.6570824 7.04748698,33.7981637 7.03916931,34.0029084 C6.94785918,36.2505669 7.08754977,38.8877821 7.63902407,41.3770494 C8.76372324,46.4537627 11.1952946,49.1300986 15.4214107,48.6069105 C15.9544935,48.5409155 16.4444872,48.9078546 16.531166,49.4379672 C16.5414966,49.5011474 16.5667314,49.634284 16.6090285,49.8271659 C16.6813103,50.156783 16.7749851,50.5261397 16.8921033,50.9249575 C17.2267431,52.0644927 17.6797132,53.2032208 18.2642474,54.2583939 C20.8044332,58.8438154 24.7930789,60.41138 31.0301373,57.3080291 L31.0301373,5.84370947 C30.9410874,5.81632784 30.8454839,5.78722372 30.743655,5.75656965 Z"/>
    <path fill="#E1B965" fill-rule="nonzero" d="M24.1975211,2.88095124 C23.8381036,3.29985207 23.3232856,4.01691061 22.8109878,4.96339066 C21.4816007,7.41945845 20.9800675,9.98351633 21.8453069,12.439225 C21.9107065,12.6248409 21.9838507,12.808599 22.0648373,12.9903816 C22.2895917,13.4948654 22.8807561,13.7216309 23.3852399,13.4968765 C23.8897237,13.272122 24.1164892,12.6809577 23.8917347,12.1764739 C23.8325846,12.0437054 23.7792638,11.9097492 23.7316444,11.7745966 C23.0875799,9.94662282 23.483503,7.92248959 24.5698664,5.91541263 C24.8256127,5.44291661 25.099924,5.01095543 25.3731419,4.63040699 C25.5335641,4.40696465 25.6542786,4.25451056 25.7153901,4.18328515 C26.0750197,3.76413719 26.0267705,3.13281326 25.6076226,2.77318368 C25.1884746,2.4135541 24.5571507,2.46180328 24.1975211,2.88095124 Z"/>
    <path fill="#E1B965" fill-rule="nonzero" d="M19.8442871 17.2480458C19.9204598 17.1280371 20.0816985 16.8977831 20.3204677 16.5946412 20.7236243 16.0827929 21.1900953 15.5701798 21.7107649 15.0940273 23.1533014 13.7748274 24.711501 13 26.3144928 13 26.8667776 13 27.3144928 12.5522847 27.3144928 12 27.3144928 11.4477153 26.8667776 11 26.3144928 11 24.1343652 11 22.1389615 11.9922306 20.3610541 13.6181274 19.7545684 14.1727587 19.21604 14.7645569 18.7493086 15.3571199 18.4661451 15.7166248 18.2664732 16.0017626 18.1557129 16.1762636 17.8597484 16.6425505 17.997822 17.2604773 18.4641089 17.5564418 18.9303958 17.8524063 19.5483226 17.7143327 19.8442871 17.2480458zM8.13796157 20.9504632C8.24275692 20.9505854 8.4667898 20.9685214 8.76715199 21.024164 9.27536563 21.1183115 9.78230347 21.2868789 10.2474777 21.5443177 12.0929519 22.5656482 12.8871288 24.6820118 11.9320117 28.5777322 11.8005023 29.114131 12.1287301 29.6555776 12.665129 29.787087 13.2015278 29.9185963 13.7429744 29.5903685 13.8744838 29.0539697 15.0349564 24.3206476 13.8922823 21.2755907 11.2159126 19.7944223 10.070162 19.1603359 8.94231034 18.9513993 8.14029259 18.9504646 7.58800821 18.9498209 7.13977145 19.397014 7.13912776 19.9492984 7.13848407 20.5015828 7.5856772 20.9498195 8.13796157 20.9504632zM5.17034095 33.9121654C5.40519327 34.3858376 5.85134506 35.0456401 6.53431594 35.7042769 9.27560355 38.347893 13.1493853 38.347893 17.8083318 34.2161238 18.2215334 33.8496775 18.2594361 33.217648 17.8929898 32.8044464 17.5265435 32.3912448 16.894514 32.3533422 16.4813124 32.7197885 12.5902601 36.1705536 9.89897044 36.1705536 7.92265012 34.2646491 7.63201745 33.9843716 7.38415359 33.68228 7.18091432 33.3817147 7.06322772 33.207671 6.99021078 33.0802677 6.96218709 33.0237469 6.71685709 32.5289422 6.11685941 32.3267031 5.62205477 32.5720331 5.12725012 32.8173631 4.92501096 33.4173607 5.17034095 33.9121654zM23.3460022 50.3914159C23.7174281 50.8001472 24.3498705 50.8303891 24.7586017 50.4589632 25.1673329 50.0875373 25.1975749 49.4550949 24.826149 49.0463637L19.5544944 43.2452341C19.2550647 42.9157302 18.7738568 42.8238747 18.3741083 43.0199158 16.9784191 43.704377 15.9696307 44.6202733 15.3202255 45.7111058 14.522096 47.0517565 14.3480189 48.4534212 14.5240207 49.694544 14.546847 49.85551 14.5714046 49.9784168 14.5914788 50.0583401 14.7260165 50.5939874 15.2693088 50.919151 15.8049561 50.7846133 16.3406034 50.6500757 16.665767 50.1067834 16.5312293 49.571136 16.527684 49.5570207 16.5168123 49.5026092 16.5042093 49.4137363 16.3868625 48.5862344 16.5056679 47.6296162 17.0387419 46.7341901 17.3880252 46.1474846 17.8999004 45.6232746 18.6068475 45.1762694L23.3460022 50.3914159zM21.943671 39.9058007C22.1014377 40.7017595 22.6131939 41.8040651 23.6901556 42.8849611 25.4213905 44.6225205 28.0773011 45.646916 31.7814718 45.646916 32.3337565 45.646916 32.7814718 45.1992007 32.7814718 44.646916 32.7814718 44.0946312 32.3337565 43.646916 31.7814718 43.646916 28.5918571 43.646916 26.4491965 42.8204831 25.1069452 41.4733283 24.6549556 41.0196875 24.3287972 40.5379884 24.1075642 40.06146 23.9819728 39.7909405 23.9212918 39.596594 23.9055049 39.5169463 23.7981257 38.9752008 23.2719062 38.6230774 22.7301607 38.7304565 22.1884152 38.8378357 21.8362918 39.3640552 21.943671 39.9058007zM31.9237453 21.5199939C30.9081208 21.5155055 29.5052094 21.810855 28.0987946 22.7074757 25.7537896 24.2024685 24.3577436 26.8969546 24.3577436 30.9381652 24.3577436 31.4904499 24.8054588 31.9381652 25.3577436 31.9381652 25.9100283 31.9381652 26.3577436 31.4904499 26.3577436 30.9381652 26.3577436 27.5631884 27.4206639 25.511663 29.1739359 24.3939131 29.7741731 24.0112486 30.4221121 23.7638767 31.071659 23.6271301 31.460326 23.5453056 31.7568152 23.5192666 31.9097028 23.5199407 32.4584921 23.5247543 32.9101115 23.0809775 32.9149486 22.5287139 32.9197857 21.9764504 32.4760089 21.524831 31.9237453 21.5199939z"/>
    <path fill="#E1B965" fill-rule="nonzero" d="M16.5334802 22.8845107C16.5937644 22.9163066 16.7226092 22.9892862 16.9101518 23.1038683 17.2319936 23.3005027 17.5930839 23.5396784 17.9835777 23.8217491 19.1055618 24.6322069 20.2294969 25.6193278 21.2776158 26.7850091 23.2036594 28.9270876 24.6484221 31.4205341 25.4215077 34.2769283 25.5657928 34.8100327 26.1149255 35.1252329 26.6480299 34.9809478 27.1811342 34.8366626 27.4963344 34.2875299 27.3520493 33.7544256 26.4917872 30.5759318 24.8897246 27.8110091 22.7648347 25.4477806 21.6161675 24.170273 20.3864032 23.0902053 19.154688 22.2004839 18.408603 21.6615543 17.81986 21.3018524 17.4665198 21.1154893 16.978018 20.8578375 16.373141 21.0449784 16.1154893 21.5334802 15.8578375 22.021982 16.0449784 22.626859 16.5334802 22.8845107zM32.9698627 57.3080291C39.2069211 60.41138 43.1955668 58.8438154 45.7357526 54.2583939 46.3202868 53.2032208 46.7732569 52.0644927 47.1078967 50.9249575 47.2250149 50.5261397 47.3186897 50.156783 47.3909715 49.8271659 47.4332686 49.634284 47.4585034 49.5011474 47.468834 49.4379672 47.5555128 48.9078546 48.0455065 48.5409155 48.5785893 48.6069105 52.8047054 49.1300986 55.2362768 46.4537627 56.3609759 41.3770494 56.9124502 38.8877821 57.0521408 36.2505669 56.9608307 34.0029084 56.952513 33.7981637 56.9443658 33.6570824 56.9392891 33.5876995 56.9234654 33.3714366 56.9783657 33.1558898 57.0957155 32.9735466 57.8338083 31.8266657 58.1808282 30.4884496 58.1790029 28.978341 58.1766296 27.014807 57.5909247 24.8658206 56.6109477 22.7048857 56.2632512 21.9381843 55.8904261 21.2256224 55.5183389 20.5873593 55.2974866 20.2085184 55.1285205 19.9423232 55.0374275 19.8083715 54.906546 19.615911 54.8468966 19.3838247 54.8687585 19.152107 55.3092878 14.4828614 53.3004953 10.8722084 49.4052898 7.69806647 48.6930444 7.11766893 47.9416558 6.57014414 47.0735454 5.98532503 46.5898955 5.65950506 45.1420913 4.72035934 45.0610677 4.66670481 44.1246879 4.04662559 42.1192599 3.94362864 39.4449635 4.33262171 38.2717048 4.5032795 37.0174478 4.75962782 35.7285499 5.07879452 34.8578479 5.29440436 34.0236847 5.52557358 33.256345 5.75656965 33.1545161 5.78722372 33.0589126 5.81632784 32.9698627 5.84370947L32.9698627 57.3080291zM49.0268635 51.4884878C48.6534567 52.7600348 48.147332 54.0323889 47.4852435 55.2275593 44.3708162 60.8495739 39.0620748 62.8028579 31.5021501 58.8024631 31.1746892 58.6291845 30.9698627 58.2890634 30.9698627 57.9185825L30.9698627 5.11306383C30.9698627 4.68398575 31.2435927 4.30273064 31.6501504 4.16554913 31.7013232 4.14828233 31.7954261 4.11727944 31.9287801 4.07449901 32.148514 4.0040076 32.4000864 3.9256764 32.6798311 3.84146347 33.4773292 3.60138866 34.343003 3.36148699 35.2478147 3.13743066 36.5961571 2.80354386 37.9129234 2.53441971 39.1570806 2.35344931 42.2938601 1.89718518 44.6867839 2.02008355 46.1653168 2.99918152 46.2326875 3.04379503 47.6897789 3.98896501 48.190974 4.32660462 49.1057179 4.94283923 49.9043215 5.52476888 50.6687004 6.14764926 54.9391362 9.62756042 57.2700641 13.7262896 56.8892274 18.9885207 56.989242 19.1477471 57.1097047 19.3459991 57.246171 19.5800877 57.6509602 20.2744463 58.0550115 21.0466895 58.4323996 21.8788632 59.5196758 24.2764022 60.1762328 26.6853496 60.1790014 28.9759236 60.1811256 30.7332893 59.7910286 32.3488082 58.9526537 33.7716574 59.0568948 36.3269805 58.9087799 39.1232364 58.3136314 41.8096423 57.0687442 47.4288653 54.1701667 50.8620288 49.2498708 50.6674398 49.189034 50.912775 49.1150929 51.1880438 49.0268635 51.4884878z"/>
    <path fill="#E1B965" fill-rule="nonzero" d="M38.2846099,4.18328515 C38.3457214,4.25451056 38.4664359,4.40696465 38.6268581,4.63040699 C38.900076,5.01095543 39.1743873,5.44291661 39.4301336,5.91541263 C40.516497,7.92248959 40.9124201,9.94662282 40.2683556,11.7745966 C40.2207362,11.9097492 40.1674154,12.0437054 40.1082653,12.1764739 C39.8835108,12.6809577 40.1102763,13.272122 40.6147601,13.4968765 C41.1192439,13.7216309 41.7104083,13.4948654 41.9351627,12.9903816 C42.0161493,12.808599 42.0892935,12.6248409 42.1546931,12.439225 C43.0199325,9.98351633 42.5183993,7.41945845 41.1890122,4.96339066 C40.6767144,4.01691061 40.1618964,3.29985207 39.8024789,2.88095124 C39.4428493,2.46180328 38.8115254,2.4135541 38.3923774,2.77318368 C37.9732295,3.13281326 37.9249803,3.76413719 38.2846099,4.18328515 Z"/>
    <path fill="#E1B965" fill-rule="nonzero" d="M45.8442871 16.1762636C45.7335268 16.0017626 45.5338549 15.7166248 45.2506914 15.3571199 44.78396 14.7645569 44.2454316 14.1727587 43.6389459 13.6181274 41.8610385 11.9922306 39.8656348 11 37.6855072 11 37.1332224 11 36.6855072 11.4477153 36.6855072 12 36.6855072 12.5522847 37.1332224 13 37.6855072 13 39.288499 13 40.8466986 13.7748274 42.2892351 15.0940273 42.8099047 15.5701798 43.2763757 16.0827929 43.6795323 16.5946412 43.9183015 16.8977831 44.0795402 17.1280371 44.1557129 17.2480458 44.4516774 17.7143327 45.0696042 17.8524063 45.5358911 17.5564418 46.002178 17.2604773 46.1402516 16.6425505 45.8442871 16.1762636zM55.8597074 18.9504646C55.0576897 18.9513993 53.929838 19.1603359 52.7840874 19.7944223 50.1077177 21.2755907 48.9650436 24.3206476 50.1255162 29.0539697 50.2570256 29.5903685 50.7984722 29.9185963 51.334871 29.787087 51.8712699 29.6555776 52.1994977 29.114131 52.0679883 28.5777322 51.1128712 24.6820118 51.9070481 22.5656482 53.7525223 21.5443177 54.2176965 21.2868789 54.7246344 21.1183115 55.232848 21.024164 55.5332102 20.9685214 55.7572431 20.9505854 55.8620384 20.9504632 56.4143228 20.9498195 56.8615159 20.5015828 56.8608722 19.9492984 56.8602285 19.397014 56.4119918 18.9498209 55.8597074 18.9504646zM57.0378129 33.0237469C57.0097892 33.0802677 56.9367723 33.207671 56.8190857 33.3817147 56.6158464 33.68228 56.3679826 33.9843716 56.0773499 34.2646491 54.1010296 36.1705536 51.4097399 36.1705536 47.5186876 32.7197885 47.105486 32.3533422 46.4734565 32.3912448 46.1070102 32.8044464 45.7405639 33.217648 45.7784666 33.8496775 46.1916682 34.2161238 50.8506147 38.347893 54.7243965 38.347893 57.4656841 35.7042769 58.1486549 35.0456401 58.5948067 34.3858376 58.829659 33.9121654 59.074989 33.4173607 58.8727499 32.8173631 58.3779452 32.5720331 57.8831406 32.3267031 57.2831429 32.5289422 57.0378129 33.0237469zM46.9561635 46.7128947C47.4892375 47.6083208 47.6080429 48.564939 47.4906961 49.3924409 47.4780931 49.4813138 47.4672214 49.5357253 47.4636761 49.5498406 47.3291384 50.0854879 47.654302 50.6287802 48.1899493 50.7633179 48.7255966 50.8978556 49.2688889 50.572692 49.4034266 50.0370447 49.4235008 49.9571214 49.4480584 49.8342146 49.4708847 49.6732486 49.6468865 48.4321257 49.4728094 47.030461 48.6746799 45.6898104 48.0252747 44.5989779 47.0164863 43.6830816 45.6207971 42.9986203 45.2210486 42.8025793 44.7398407 42.8944348 44.440411 43.2239387L39.1687564 49.0250682C38.7973305 49.4337995 38.8275725 50.0662418 39.2363037 50.4376678 39.6450349 50.8090937 40.2774773 50.7788517 40.6489032 50.3701205L45.3880579 45.154974C46.095005 45.6019792 46.6068802 46.1261891 46.9561635 46.7128947zM40.0944951 39.5169463C40.0787082 39.596594 40.0180272 39.7909405 39.8924358 40.06146 39.6712028 40.5379884 39.3450444 41.0196875 38.8930548 41.4733283 37.5508035 42.8204831 35.4081429 43.646916 32.2185282 43.646916 31.6662435 43.646916 31.2185282 44.0946312 31.2185282 44.646916 31.2185282 45.1992007 31.6662435 45.646916 32.2185282 45.646916 35.9226989 45.646916 38.5786095 44.6225205 40.3098444 42.8849611 41.3868061 41.8040651 41.8985623 40.7017595 42.056329 39.9058007 42.1637082 39.3640552 41.8115848 38.8378357 41.2698393 38.7304565 40.7280938 38.6230774 40.2018743 38.9752008 40.0944951 39.5169463zM32.0797435 23.5553437C32.2291569 23.5546932 32.5256461 23.5807321 32.9143131 23.6625567 33.5638599 23.7993033 34.211799 24.0466751 34.8120361 24.4293396 36.5653082 25.5470895 37.6282285 27.598615 37.6282285 30.9735917 37.6282285 31.5258764 38.0759437 31.9735917 38.6282285 31.9735917 39.1805132 31.9735917 39.6282285 31.5258764 39.6282285 30.9735917 39.6282285 26.9323811 38.2321825 24.237895 35.8871774 22.7429022 34.4807627 21.8462816 33.0778512 21.550932 32.0674517 21.5553867 31.5099632 21.5602575 31.0661863 22.0118769 31.0710235 22.5641404 31.0758606 23.116404 31.5274799 23.5601808 32.0797435 23.5553437z"/>
    <path fill="#E1B965" fill-rule="nonzero" d="M46.5334802,21.1154893 C46.18014,21.3018524 45.591397,21.6615543 44.845312,22.2004839 C43.6135968,23.0902053 42.3838325,24.170273 41.2351653,25.4477806 C39.1102754,27.8110091 37.5082128,30.5759318 36.6479507,33.7544256 C36.5036656,34.2875299 36.8188658,34.8366626 37.3519701,34.9809478 C37.8850745,35.1252329 38.4342072,34.8100327 38.5784923,34.2769283 C39.3515779,31.4205341 40.7963406,28.9270876 42.7223842,26.7850091 C43.7705031,25.6193278 44.8944382,24.6322069 46.0164223,23.8217491 C46.4069161,23.5396784 46.7680064,23.3005027 47.0898482,23.1038683 C47.2773908,22.9892862 47.4062356,22.9163066 47.4665198,22.8845107 C47.9550216,22.626859 48.1421625,22.021982 47.8845107,21.5334802 C47.626859,21.0449784 47.021982,20.8578375 46.5334802,21.1154893 Z"/>
  </g>
</svg>
