<svg xmlns="http://www.w3.org/2000/svg" width="64" height="64" viewBox="0 0 64 64">
  <path fill="#ED9111" fill-rule="evenodd" d="M30,5.0085302 C30,3.8992496 30.8877296,3 32,3 C33.1045695,3 34,3.90195036 34,5.0085302 L34,12.9914698 C34,14.1007504 33.1122704,15 32,15 C30.8954305,15 30,14.0980496 30,12.9914698 L30,5.0085302 Z M49.6716378,11.4999351 C50.4560176,10.7155553 51.7196027,10.7074094 52.5060967,11.4939033 C53.2871452,12.2749519 53.282535,13.5458921 52.5000649,14.3283622 L46.8552742,19.973153 C46.0708943,20.7575328 44.8073092,20.7656786 44.0208153,19.9791847 C43.2397667,19.1981361 43.2443769,17.9271959 44.026847,17.1447258 L49.6716378,11.4999351 Z M58.9914698,30 C60.1007504,30 61,30.8877296 61,32 C61,33.1045695 60.0980496,34 58.9914698,34 L51.0085302,34 C49.8992496,34 49,33.1122704 49,32 C49,30.8954305 49.9019504,30 51.0085302,30 L58.9914698,30 Z M52.5000649,49.6716378 C53.2844447,50.4560176 53.2925906,51.7196027 52.5060967,52.5060967 C51.7250481,53.2871452 50.4541079,53.282535 49.6716378,52.5000649 L44.026847,46.8552742 C43.2424672,46.0708943 43.2343214,44.8073092 44.0208153,44.0208153 C44.8018639,43.2397667 46.0728041,43.2443769 46.8552742,44.026847 L52.5000649,49.6716378 Z M34,58.9914698 C34,60.1007504 33.1122704,61 32,61 C30.8954305,61 30,60.0980496 30,58.9914698 L30,51.0085302 C30,49.8992496 30.8877296,49 32,49 C33.1045695,49 34,49.9019504 34,51.0085302 L34,58.9914698 Z M14.3283622,52.5000649 C13.5439824,53.2844447 12.2803973,53.2925906 11.4939033,52.5060967 C10.7128548,51.7250481 10.717465,50.4541079 11.4999351,49.6716378 L17.1447258,44.026847 C17.9291057,43.2424672 19.1926908,43.2343214 19.9791847,44.0208153 C20.7602333,44.8018639 20.7556231,46.0728041 19.973153,46.8552742 L14.3283622,52.5000649 Z M5.0085302,34 C3.8992496,34 3,33.1122704 3,32 C3,30.8954305 3.90195036,30 5.0085302,30 L12.9914698,30 C14.1007504,30 15,30.8877296 15,32 C15,33.1045695 14.0980496,34 12.9914698,34 L5.0085302,34 Z M11.4999351,14.3283622 C10.7155553,13.5439824 10.7074094,12.2803973 11.4939033,11.4939033 C12.2749519,10.7128548 13.5458921,10.717465 14.3283622,11.4999351 L19.973153,17.1447258 C20.7575328,17.9291057 20.7656786,19.1926908 19.9791847,19.9791847 C19.1981361,20.7602333 17.9271959,20.7556231 17.1447258,19.973153 L11.4999351,14.3283622 Z"/>
</svg>
