<svg xmlns="http://www.w3.org/2000/svg" width="64" height="64" viewBox="0 0 64 64">
  <g fill="none" fill-rule="evenodd">
    <polygon fill="#FFC05F" points="4 5 62 5 62 61 4 61"/>
    <path stroke="#979797" stroke-linecap="square" stroke-width="2" d="M9 16L42 16M9 26L42 26M9 21L29 21M9 36L42 36M9 46L42 46M9 56L42 56M30 41L42 41M9 41L25 41M34 21L42 21"/>
    <polygon fill="#0A3586" points="4 4 62 4 62 11 4 11"/>
    <circle cx="7.5" cy="7.5" r="1.5" fill="#E43535"/>
    <circle cx="12.5" cy="7.5" r="1.5" fill="#FFC05F"/>
    <circle cx="17.5" cy="7.5" r="1.5" fill="#80D25B"/>
    <rect width="6" height="44" x="54" y="13" fill="#FFDD95" rx="3"/>
    <rect width="6" height="14" x="54" y="15" fill="#595959" rx="3"/>
  </g>
</svg>
