<svg xmlns="http://www.w3.org/2000/svg" width="64" height="64" viewBox="0 0 64 64">
  <g fill="none" fill-rule="evenodd">
    <polygon fill="#D8D8D8" points="3 11 61 11 61 57 3 57"/>
    <polygon fill="#0A3586" points="3 10 61 10 61 17 3 17"/>
    <circle cx="6.5" cy="13.5" r="1.5" fill="#E43535"/>
    <circle cx="11.5" cy="13.5" r="1.5" fill="#FFC05F"/>
    <circle cx="16.5" cy="13.5" r="1.5" fill="#80D25B"/>
    <path fill="#595959" d="M18,34 L18,31.0058587 C18,29.8970601 17.1045695,29 16,29 C14.8877296,29 14,29.8980535 14,31.0058587 L14,34 L11.0058587,34 C9.89706013,34 9,34.8954305 9,36 C9,37.1122704 9.89805351,38 11.0058587,38 L14,38 L14,40.9941413 C14,42.1029399 14.8954305,43 16,43 C17.1122704,43 18,42.1019465 18,40.9941413 L18,38 L20.9941413,38 C22.1029399,38 23,37.1045695 23,36 C23,34.8877296 22.1019465,34 20.9941413,34 L18,34 Z"/>
    <circle cx="46" cy="31" r="3" fill="#E43535"/>
    <circle cx="46" cy="41" r="3" fill="#979797"/>
    <circle cx="40" cy="36" r="3" fill="#FFDD95"/>
    <circle cx="52" cy="36" r="3" fill="#D650C7"/>
  </g>
</svg>
