<svg xmlns="http://www.w3.org/2000/svg" width="64" height="64" viewBox="0 0 64 64">
  <g fill="none" fill-rule="evenodd">
    <path fill="#FFAF40" d="M16.8180995,4.00180999 C16.9185604,1.79167136 18.7873299,0 20.9931023,0 L27.0068977,0 C29.2122272,0 31.0808794,1.7793479 31.1819005,4.00180999 L33,44 L15,44 L16.8180995,4.00180999 Z"/>
    <rect width="6" height="28" x="21" y="4" fill="#868686"/>
    <path fill="#595959" d="M15,44 L33,44 C33,44 29.2944784,48.5 27.5889567,53 C25.8834351,57.5 26.1779134,62 26.1779134,62 L22.096494,62 C22.096494,62 22.3223705,57.5 20.548247,53 C18.7741235,48.5 15,44 15,44 Z"/>
    <rect width="2" height="2" x="23" y="62" fill="#FFAF40"/>
    <path fill="#9F5757" d="M40.4525352,5.98231 C40.2026069,3.78294092 41.7873299,2 43.9931023,2 L50.0068977,2 C52.2122272,2 53.7978014,3.7793479 53.5474648,5.98231 L49,46 L45,46 L40.4525352,5.98231 Z"/>
    <path fill="#F6443F" d="M45.8654548,63.5495193 C45.8654548,63.5495193 46.6902672,60.337788 48.8277313,57.2053488 C50.9651955,54.0729097 53.6837794,54.6832352 53.6837794,50.6837794 C53.6837794,46.99243 50.6913494,44 47,44 C43.3086506,44 40.3162206,46.99243 40.3162206,50.6837794 C40.3162206,54.3751289 45.8654548,63.5495193 45.8654548,63.5495193 Z"/>
  </g>
</svg>
