<svg xmlns="http://www.w3.org/2000/svg" xmlns:xlink="http://www.w3.org/1999/xlink" width="64" height="64" viewBox="0 0 64 64">
  <defs>
    <path id="brush-a" d="M1.87261215,2.99361448 C1.94296652,1.34028685 3.34739093,2.27373675e-13 4.99686968,2.27373675e-13 L8.00313032,2.27373675e-13 C9.65825574,2.27373675e-13 11.0571657,1.34339372 11.1273879,2.99361448 L12.8726121,44.0063855 C12.9429665,45.6597131 11.6577357,47 10.0012144,47 L2.99878564,47 C1.34260206,47 0.0571656902,45.6566063 0.12738785,44.0063855 L1.87261215,2.99361448 Z"/>
    <path id="brush-b" d="M12.3191489,31 L12.5744681,37 L0.425531915,37 L0.680851064,31 L12.3191489,31 Z"/>
  </defs>
  <g fill="none" fill-rule="evenodd" transform="rotate(45 18.793 65.385)">
    <g>
      <use fill="#BD7575" xlink:href="#brush-a"/>
      <use fill="#DFCC00" xlink:href="#brush-b"/>
    </g>
    <path fill="#FB3A3A" d="M7,66.183698 C7,66.183698 14,58.8659932 14,55 C14,51.1340068 10.8659932,48 7,48 C3.13400675,48 -2.50111043e-12,51.1340068 -2.50111043e-12,55 C-2.50111043e-12,58.8659932 7,66.183698 7,66.183698 Z"/>
  </g>
</svg>
