<svg xmlns="http://www.w3.org/2000/svg" width="64" height="64" viewBox="0 0 64 64">
  <g fill="none" fill-rule="evenodd">
    <circle cx="32" cy="32" r="30" fill="#ECECEC"/>
    <path fill="#595959" d="M36.148845,20.1771212 C34.8685407,19.4181875 33.4678454,19 32,19 C30.5321546,19 29.1314593,19.4181875 27.851155,20.1771212 L24.7012793,15.5409759 C24.0805331,14.6273304 22.8366629,14.3898887 21.9230175,15.0106349 C21.0093721,15.6313811 20.7719303,16.8752513 21.3926765,17.7888967 L24.836431,22.8575875 C23.8970659,24.0311733 23.0954267,25.4314148 22.4716059,26.9999955 L17,27 C15.8954305,27 15,27.8954305 15,29 C15,30.1045695 15.8954305,31 17,31 L21.3465481,31 C21.2312595,31.6515308 21.1434756,32.3191224 21.0851039,33 L17,33 C15.8954305,33 15,33.8954305 15,35 C15,36.1045695 15.8954305,37 17,37 L21.0851039,37 C21.1434756,37.6808776 21.2312595,38.3484692 21.3465481,39 L17,39 C15.8954305,39 15,39.8954305 15,41 C15,42.1045695 15.8954305,43 17,43 L22.4716009,43 C24.373556,47.782411 27.928447,51 32,51 C36.071553,51 39.626444,47.782411 41.5283959,43 L47,43 C48.1045695,43 49,42.1045695 49,41 C49,39.8954305 48.1045695,39 47,39 L42.6534519,39 C42.7687405,38.3484692 42.8565244,37.6808776 42.9148961,37 L47,37 C48.1045695,37 49,36.1045695 49,35 C49,33.8954305 48.1045695,33 47,33 L42.9148961,33 C42.8565244,32.3191224 42.7687405,31.6515308 42.6534519,31 L47,31 C48.1045695,31 49,30.1045695 49,29 C49,27.8954305 48.1045695,27 47,27 L41.5283959,27 C40.9045733,25.4314148 40.1029341,24.0311733 39.163569,22.8575875 L42.6073235,17.7888967 C43.2280697,16.8752513 42.9906279,15.6313811 42.0769825,15.0106349 C41.1633371,14.3898887 39.9194669,14.6273304 39.2987207,15.5409759 L36.148845,20.1771212 Z"/>
  </g>
</svg>
