<svg xmlns="http://www.w3.org/2000/svg" width="64" height="64" viewBox="0 0 64 64">
  <g fill="none" fill-rule="evenodd">
    <circle cx="32" cy="32" r="30" fill="#ECECEC"/>
    <circle cx="54" cy="10" r="10" fill="#80D25B"/>
    <path stroke="#0A3586" stroke-linecap="square" stroke-width="2" d="M54,16 L54,4"/>
    <path fill="#22BA8E" d="M36.148845,20.5123815 C34.8685407,19.7534477 33.4678454,19.3352603 32,19.3352603 C30.5321546,19.3352603 29.1314593,19.7534477 27.851155,20.5123815 L24.7012793,15.8762361 C24.0805331,14.9625907 22.8366629,14.725149 21.9230175,15.3458952 C21.0093721,15.9666414 20.7719303,17.2105115 21.3926765,18.1241569 L24.836431,23.1928477 C23.8970659,24.3664335 23.0954267,25.7666751 22.4716059,27.3352558 L17,27.3352603 C15.8954305,27.3352603 15,28.2306908 15,29.3352603 C15,30.4398298 15.8954305,31.3352603 17,31.3352603 L21.3465481,31.3352603 C21.2312595,31.986791 21.1434756,32.6543827 21.0851039,33.3352603 L17,33.3352603 C15.8954305,33.3352603 15,34.2306908 15,35.3352603 C15,36.4398298 15.8954305,37.3352603 17,37.3352603 L21.0851039,37.3352603 C21.1434756,38.0161379 21.2312595,38.6837295 21.3465481,39.3352603 L17,39.3352603 C15.8954305,39.3352603 15,40.2306908 15,41.3352603 C15,42.4398298 15.8954305,43.3352603 17,43.3352603 L22.4716009,43.3352603 C24.373556,48.1176712 27.928447,51.3352603 32,51.3352603 C36.071553,51.3352603 39.626444,48.1176712 41.5283959,43.3352603 L47,43.3352603 C48.1045695,43.3352603 49,42.4398298 49,41.3352603 C49,40.2306908 48.1045695,39.3352603 47,39.3352603 L42.6534519,39.3352603 C42.7687405,38.6837295 42.8565244,38.0161379 42.9148961,37.3352603 L47,37.3352603 C48.1045695,37.3352603 49,36.4398298 49,35.3352603 C49,34.2306908 48.1045695,33.3352603 47,33.3352603 L42.9148961,33.3352603 C42.8565244,32.6543827 42.7687405,31.986791 42.6534519,31.3352603 L47,31.3352603 C48.1045695,31.3352603 49,30.4398298 49,29.3352603 C49,28.2306908 48.1045695,27.3352603 47,27.3352603 L41.5283959,27.3352603 C40.9045733,25.7666751 40.1029341,24.3664335 39.163569,23.1928477 L42.6073235,18.1241569 C43.2280697,17.2105115 42.9906279,15.9666414 42.0769825,15.3458952 C41.1633371,14.725149 39.9194669,14.9625907 39.2987207,15.8762361 L36.148845,20.5123815 Z"/>
    <path stroke="#0A3586" stroke-linecap="square" stroke-width="2" d="M48,10 L60,10"/>
  </g>
</svg>
