<svg xmlns="http://www.w3.org/2000/svg" width="64" height="64" viewBox="0 0 64 64">
  <g fill="none" fill-rule="evenodd">
    <path fill="#979797" d="M9,21 L24,21 L24,31 L17.0021863,31 C14.2395551,31 11.3564247,28.8547491 10.5615081,26.205027 L9,21 Z"/>
    <path fill="#979797" d="M42,21 L57,21 L57,31 L50.0021863,31 C47.2395551,31 44.3564247,28.8547491 43.5615081,26.205027 L42,21 Z" transform="matrix(-1 0 0 1 99 0)"/>
    <path fill="#979797" d="M20.1470796,12.933868 C20.1470796,12.933868 5.49164956,12.1757152 10.4680399,2 C10.4680399,2 2.27946451,8.85009193 5.94365051,13.0959226 C9.60783651,17.3417532 20.5876929,18.9447798 20.5876929,18.9447798"/>
    <path fill="#979797" d="M60.1470796,12.933868 C60.1470796,12.933868 45.4916496,12.1757152 50.4680399,2 C50.4680399,2 42.2794645,8.85009193 45.9436505,13.0959226 C49.6078365,17.3417532 60.5876929,18.9447798 60.5876929,18.9447798" transform="matrix(-1 0 0 1 105.588 0)"/>
    <path fill="#D8D8D8" d="M16.3117394,16.9649252 C16.6918552,13.670588 19.6869779,11 23.0001757,11 L42.9998243,11 C46.3136299,11 49.3069542,13.6602699 49.6882606,16.9649252 L52,37 L14,37 L16.3117394,16.9649252 Z"/>
    <path fill="#595959" d="M12,40.9933547 C12,37.1310316 15.1396498,34 19.0062098,34 L46.9937902,34 C50.863213,34 54,37.1304531 54,40.9933547 L54,49.0041158 C54,56.1815445 48.1821439,62 40.9985678,62 L25.0014322,62 C17.8209395,62 12,56.1813818 12,49.0041158 L12,40.9933547 Z"/>
    <circle cx="42" cy="48" r="4" fill="#979797"/>
    <circle cx="24" cy="48" r="4" fill="#979797"/>
    <circle cx="27" cy="27" r="2" fill="#595959"/>
    <circle cx="39" cy="27" r="2" fill="#595959"/>
  </g>
</svg>
