<svg xmlns="http://www.w3.org/2000/svg" width="64" height="64" viewBox="0 0 64 64">
  <g fill="none" fill-rule="evenodd">
    <path fill="#FFAF40" d="M11,16.0064619 C11,11.0323303 15.03069,7 20.0054696,7 L39.9945304,7 C44.9681139,7 49,11.0275114 49,16.0064619 L49,54 L11,54 L11,16.0064619 Z"/>
    <circle cx="18" cy="48" r="3" fill="#FFF"/>
    <path fill="#595959" d="M13 54L19 54 19 58.9940809C19 60.1019194 18.1017394 61 17.0020869 61L14.9979131 61C13.8944962 61 13 60.1134452 13 58.9940809L13 54zM41 54L47 54 47 58.9940809C47 60.1019194 46.1017394 61 45.0020869 61L42.9979131 61C41.8944962 61 41 60.1134452 41 58.9940809L41 54z"/>
    <circle cx="42" cy="48" r="3" fill="#FFF"/>
    <rect width="34" height="27" x="13" y="14" fill="#B4DFFB"/>
    <polygon fill="#4796E7" points="25 14 28 14 22 41 19 41"/>
    <rect width="4" height="11" x="6" y="20" fill="#FFAF40"/>
    <rect width="4" height="11" x="50" y="20" fill="#FFAF40"/>
  </g>
</svg>
