<svg xmlns="http://www.w3.org/2000/svg" width="64" height="64" viewBox="0 0 64 64">
  <g fill="none" fill-rule="evenodd">
    <path fill="#595959" d="M9,46.9138849 C9,44.7041591 10.7750001,42.6994337 12.9692715,42.4356406 L32.875,40.0425936 L52.7807285,42.4356406 C54.9728966,42.6991808 56.75,44.6992053 56.75,46.9138849 L56.75,63.0425936 L9,63.0425936 L9,46.9138849 Z"/>
    <polygon fill="#D8D8D8" points="33 62.899 25 50.875 41 50.875"/>
    <path fill="#FFDD95" d="M24.9659091,37.0820517 C20.997906,33.3171352 18.375,27.2233999 18.375,22.1331692 C18.375,14.1250403 24.8668711,7.63316921 32.875,7.63316921 C40.8831289,7.63316921 47.375,14.1250403 47.375,22.1331692 C47.375,27.2233999 44.752094,33.3171352 40.7840909,37.0820517 L40.7840909,45.9058965 C40.7840909,45.9058965 35.4224889,47.8154815 32.875,47.8154815 C30.3275111,47.8154815 24.9659091,45.9058965 24.9659091,45.9058965 L24.9659091,37.0820517 Z"/>
    <polygon fill="#D8D8D8" points="33 50.899 25 44 41 44" transform="matrix(1 0 0 -1 0 94.9)"/>
    <polygon fill="#4796E7" points="30.001 44 35.992 44 36.992 47 34.98 49 31.042 49 29.001 47"/>
    <polygon fill="#FFF" points="25 41 32.998 44.105 25 50.922"/>
    <polygon fill="#FFF" points="33 41 41.081 44.061 33 50.922" transform="matrix(-1 0 0 1 74.081 0)"/>
    <circle cx="18.875" cy="25" r="3" fill="#FFDD95"/>
    <circle cx="46.875" cy="25" r="3" fill="#FFDD95"/>
    <path fill="#FFAF40" d="M18.875,10.5 C18.875,7.46243388 21.3328519,5 24.3759961,5 L50.875,5 L50.875,10.5 C50.875,13.5375661 48.4171481,16 45.3740039,16 L18.875,16 L18.875,10.5 Z"/>
    <polygon fill="#4796E7" points="31 49 35 49 36 63 30 63"/>
  </g>
</svg>
