<svg xmlns="http://www.w3.org/2000/svg" width="64" height="64" viewBox="0 0 64 64">
  <g fill="none" fill-rule="evenodd">
    <path fill="#5EA7FF" d="M19,14.6477437 C19,14.6477437 25.0314305,6.84011508 28.5360716,7.00249827 C32.0407127,7.16488145 31.0512461,18.0353633 30.1256002,19.1884678 C29.1999544,20.3415722 25.3806108,21.6383092 25.3806108,21.6383092 C25.3806108,21.6383092 28.2954599,22.8177626 28.2954599,25.3631956 C28.2954599,27.9086286 25.7046052,30.7815242 22.5971935,27.5882742 C19.4897817,24.3950242 19.279002,21.2354763 19.279002,21.2354763"/>
    <path fill="#5EA7FF" d="M7,14.6477437 C7,14.6477437 13.0314305,6.84011508 16.5360716,7.00249827 C20.0407127,7.16488145 19.0512461,18.0353633 18.1256002,19.1884678 C17.1999544,20.3415722 13.3806108,21.6383092 13.3806108,21.6383092 C13.3806108,21.6383092 16.2954599,22.8177626 16.2954599,25.3631956 C16.2954599,27.9086286 13.7046052,30.7815242 10.5971935,27.5882742 C7.48978169,24.3950242 7.27900195,21.2354763 7.27900195,21.2354763" transform="matrix(-1 0 0 1 26 0)"/>
    <circle cx="19" cy="12" r="1" fill="#595959"/>
    <ellipse cx="19" cy="17.5" fill="#595959" rx="1" ry="5.5"/>
    <path fill="#FF78C7" d="M49,30.6477437 C49,30.6477437 55.0314305,22.8401151 58.5360716,23.0024983 C62.0407127,23.1648815 61.0512461,34.0353633 60.1256002,35.1884678 C59.1999544,36.3415722 55.3806108,37.6383092 55.3806108,37.6383092 C55.3806108,37.6383092 58.2954599,38.8177626 58.2954599,41.3631956 C58.2954599,43.9086286 55.7046052,46.7815242 52.5971935,43.5882742 C49.4897817,40.3950242 49.279002,37.2354763 49.279002,37.2354763"/>
    <path fill="#FF78C7" d="M37,30.6477437 C37,30.6477437 43.0314305,22.8401151 46.5360716,23.0024983 C50.0407127,23.1648815 49.0512461,34.0353633 48.1256002,35.1884678 C47.1999544,36.3415722 43.3806108,37.6383092 43.3806108,37.6383092 C43.3806108,37.6383092 46.2954599,38.8177626 46.2954599,41.3631956 C46.2954599,43.9086286 43.7046052,46.7815242 40.5971935,43.5882742 C37.4897817,40.3950242 37.279002,37.2354763 37.279002,37.2354763" transform="matrix(-1 0 0 1 86 0)"/>
    <circle cx="49" cy="28" r="1" fill="#595959"/>
    <ellipse cx="49" cy="33.5" fill="#595959" rx="1" ry="5.5"/>
    <path fill="#ED9111" d="M16,44.6477437 C16,44.6477437 22.0314305,36.8401151 25.5360716,37.0024983 C29.0407127,37.1648815 28.0512461,48.0353633 27.1256002,49.1884678 C26.1999544,50.3415722 22.3806108,51.6383092 22.3806108,51.6383092 C22.3806108,51.6383092 25.2954599,52.8177626 25.2954599,55.3631956 C25.2954599,57.9086286 22.7046052,60.7815242 19.5971935,57.5882742 C16.4897817,54.3950242 16.279002,51.2354763 16.279002,51.2354763"/>
    <path fill="#ED9111" d="M4,44.6477437 C4,44.6477437 10.0314305,36.8401151 13.5360716,37.0024983 C17.0407127,37.1648815 16.0512461,48.0353633 15.1256002,49.1884678 C14.1999544,50.3415722 10.3806108,51.6383092 10.3806108,51.6383092 C10.3806108,51.6383092 13.2954599,52.8177626 13.2954599,55.3631956 C13.2954599,57.9086286 10.7046052,60.7815242 7.59719345,57.5882742 C4.48978169,54.3950242 4.27900195,51.2354763 4.27900195,51.2354763" transform="matrix(-1 0 0 1 20 0)"/>
    <circle cx="16" cy="42" r="1" fill="#595959"/>
    <ellipse cx="16" cy="47.5" fill="#595959" rx="1" ry="5.5"/>
  </g>
</svg>
