<svg xmlns="http://www.w3.org/2000/svg" width="64" height="64" viewBox="0 0 64 64">
  <g fill="none" fill-rule="evenodd">
    <path stroke="#979797" stroke-linecap="round" d="M31.7658457,26.0994276 C31.7658457,26.0994276 36.6366615,9.73894331 41.4106172,6"/>
    <path stroke="#979797" stroke-linecap="round" d="M19.7658457,26.0994276 C19.7658457,26.0994276 24.6366615,9.73894331 29.4106172,6" transform="matrix(-1 0 0 1 49.176 0)"/>
    <circle cx="42.266" cy="5.5" r="1.5" fill="#D8D8D8"/>
    <circle cx="19.266" cy="5.5" r="1.5" fill="#D8D8D8"/>
    <path fill="#FF78C7" d="M30.7658457,31.9613799 C30.7658457,31.9613799 42.5933258,16.6872151 49.4658368,17.0048874 C56.3383479,17.3225597 54.3980293,38.588624 52.5828617,40.8444571 C50.767694,43.1002902 43.2780595,45.6371135 43.2780595,45.6371135 C43.2780595,45.6371135 48.9940035,47.9444935 48.9940035,52.924157 C48.9940035,57.9038205 43.9134041,63.5241033 37.8198496,57.277107 C31.726295,51.0301107 31.3129614,44.8490464 31.3129614,44.8490464"/>
    <path fill="#FF78C7" d="M7,31.9613799 C7,31.9613799 18.8274801,16.6872151 25.6999911,17.0048874 C32.5725022,17.3225597 30.6321836,38.588624 28.817016,40.8444571 C27.0018483,43.1002902 19.5122138,45.6371135 19.5122138,45.6371135 C19.5122138,45.6371135 25.2281578,47.9444935 25.2281578,52.924157 C25.2281578,57.9038205 20.1475584,63.5241033 14.0540039,57.277107 C7.96044931,51.0301107 7.54711566,44.8490464 7.54711566,44.8490464" transform="matrix(-1 0 0 1 37.532 0)"/>
    <circle cx="30.766" cy="27" r="2" fill="#595959"/>
    <ellipse cx="30.766" cy="39" fill="#595959" rx="2" ry="11"/>
  </g>
</svg>
