<svg xmlns="http://www.w3.org/2000/svg" width="64" height="64" viewBox="0 0 64 64">
  <g fill="none" fill-rule="evenodd">
    <path fill="#FFDD95" d="M30,42 C50.336554,42 59,62 59,62 L1,62 C1,62 9.66344604,42 30,42 Z"/>
    <path fill="#FCC24C" d="M43,47 C58.4277306,47 65,62 65,62 L21,62 C21,62 27.5722694,47 43,47 Z"/>
    <path stroke="#22BA8E" stroke-linecap="round" stroke-linejoin="round" stroke-width="2" d="M46,48 L46,31"/>
    <circle cx="20" cy="19" r="12" fill="#ED9111"/>
    <path stroke="#ED9111" stroke-linecap="round" stroke-linejoin="round" stroke-width="2" d="M20,4 L20,2 M30.6066017,8.39339828 L32.0208153,6.97918472 M35,19 L37,19 M30.6066017,29.6066017 L32.0208153,31.0208153 M20,34 L20,36 M9.39339828,29.6066017 L7.97918472,31.0208153 M5,19 L3,19 M9.39339828,8.39339828 L7.97918472,6.97918472"/>
    <path stroke="#22BA8E" stroke-linecap="round" stroke-width="2" d="M45.988176,40.0293818 L43.994088,40.0293818 C42.8927836,40.0293818 42,39.1391058 42,38.0338458 L42,33"/>
    <path stroke="#22BA8E" stroke-linecap="round" stroke-width="2" d="M49.988176,44.0293818 L47.994088,44.0293818 C46.8927836,44.0293818 46,43.1391058 46,42.0338458 L46,37" transform="matrix(-1 0 0 1 95.988 0)"/>
  </g>
</svg>
