<svg xmlns="http://www.w3.org/2000/svg" width="64" height="64" viewBox="0 0 64 64">
  <g fill="none" fill-rule="evenodd">
    <rect width="54" height="33" x="6" y="11" fill="#D8D8D8"/>
    <rect width="60" height="4" x="3" y="7" fill="#BD7575" rx="2"/>
    <rect width="60" height="4" x="3" y="44" fill="#BD7575" rx="2"/>
    <rect width="4" height="11" x="31" y="48" fill="#9D4C4C"/>
    <rect width="12" height="4" x="27" y="57" fill="#BD7575"/>
    <path fill="#4796E7" d="M22.96,35.54 C22.96,35.873335 22.860001,36.1699987 22.66,36.43 C22.459999,36.6900013 22.2066682,36.8133334 21.9,36.8 C21.6866656,36.7866666 21.1666708,36.5033361 20.34,35.95 C19.5133292,35.3966639 19.0933334,35.0133344 19.08,34.8 C19.08,34.7066662 19.0999998,34.5833341 19.14,34.43 C19.1800002,34.2766659 19.2,34.1600004 19.2,34.08 L19.2,25.68 C19.2,25.3733318 18.900003,25.153334 18.3,25.02 C17.63333,24.8599992 17.2533338,24.6400014 17.16,24.36 C17.1066664,24.2133326 17.08,24.073334 17.08,23.94 C17.08,23.6466652 17.2266652,23.300002 17.52,22.9 C17.920002,22.3533306 18.1599996,22.0000008 18.24,21.84 L18.72,20.28 C18.9466678,19.6933304 19.3399972,19.4 19.9,19.4 C20.4733362,19.4 21.0466638,19.5733316 21.62,19.92 C22.2600032,20.3066686 22.58,20.7466642 22.58,21.24 L22.58,34.5 C22.58,34.633334 22.6433327,34.8033323 22.77,35.01 C22.8966673,35.2166677 22.96,35.3933326 22.96,35.54 Z M36.4,28.5 L33.6,28.5 L33.6,30.8 C33.6,30.8933338 33.6366663,31.0099993 33.71,31.15 C33.7833337,31.2900007 33.8133334,31.4066662 33.8,31.5 C33.7733332,31.700001 33.6700009,31.866666 33.49,32 C33.3099991,32.133334 33.1133344,32.2 32.9,32.2 C32.8066662,32.2 32.7200004,32.1866668 32.64,32.16 C32.5199994,32.1199998 32.360001,31.9966677 32.16,31.79 C31.959999,31.5833323 31.7666676,31.380001 31.58,31.18 C31.3266654,30.9933324 31.0400016,30.7200018 30.72,30.36 C30.6933332,30.2799996 30.7066664,30.1766673 30.76,30.05 C30.8133336,29.9233327 30.84,29.826667 30.84,29.76 L30.84,28.58 L29.52,28.68 C29.453333,28.68 29.3766671,28.7066664 29.29,28.76 C29.2033329,28.8133336 29.1333336,28.84 29.08,28.84 C29.0266664,28.84 28.9733336,28.8266668 28.92,28.8 C28.4933312,28.5599988 27.9733364,27.9200052 27.36,26.88 C27.226666,26.6533322 27.193333,26.440001 27.26,26.24 C27.326667,26.039999 27.5066652,25.906667 27.8,25.84 C27.866667,25.8266666 28.1399976,25.8000002 28.62,25.76 C29.6733386,25.6799996 30.3799982,25.64 30.74,25.64 L30.74,21.94 C30.74,21.8333328 30.8533322,21.7033341 31.08,21.55 C31.3066678,21.3966659 31.5266656,21.3066668 31.74,21.28 C31.9133342,21.2533332 32.2466642,21.5333304 32.74,22.12 C33.2333358,22.7066696 33.5399994,23.1866648 33.66,23.56 C33.7133336,23.7466676 33.74,23.9133326 33.74,24.06 C33.74,24.1533338 33.7166669,24.3433319 33.67,24.63 C33.6233331,24.9166681 33.6,25.2066652 33.6,25.5 L35,25.5 C35.2266678,25.5 35.5266648,25.4600004 35.9,25.38 C36.2066682,25.3266664 36.3999996,25.3066666 36.48,25.32 C36.680001,25.3733336 36.879999,25.6966637 37.08,26.29 C37.280001,26.8833363 37.38,27.3999978 37.38,27.84 C37.38,28.1333348 37.2866676,28.3266662 37.1,28.42 C36.9799994,28.4733336 36.7466684,28.5 36.4,28.5 Z M49.76,34 C49.8000002,34.3866686 49.553336,34.6599992 49.02,34.82 C48.8466658,34.7933332 48.593335,34.7999998 48.26,34.84 C48.0199988,34.84 47.266673,35.0333314 46,35.42 C44.5733262,35.820002 43.5133368,36.1933316 42.82,36.54 C42.6333324,36.6333338 42.4633341,36.7566659 42.31,36.91 C42.1566659,37.0633341 42.0600002,37.14 42.02,37.14 C41.819999,37.1666668 41.2400048,36.8200036 40.28,36.1 C40.013332,35.9399992 39.746668,35.7666676 39.48,35.58 C39.213332,35.3933324 39.0733334,35.1733346 39.06,34.92 C39.06,34.8266662 39.6399942,33.9533416 40.8,32.3 C42.2266738,30.2733232 43.3333294,28.5800068 44.12,27.22 C45.3333394,25.0733226 45.9866662,23.3733396 46.08,22.12 C45.0399948,22.5466688 44.0000052,23.5066592 42.96,25 C42.8799996,25.066667 42.8300001,25.1899991 42.81,25.37 C42.7899999,25.5500009 42.7533336,25.673333 42.7,25.74 C42.566666,25.9133342 42.3733346,26 42.12,26 C41.6799978,26 41.1466698,25.7866688 40.52,25.36 L39.72,24.92 C39.3999984,24.7466658 39.2333334,24.593334 39.22,24.46 C39.1933332,24.1533318 39.5266632,23.5600044 40.22,22.68 C40.9666704,21.746662 41.7933288,20.9533366 42.7,20.3 C43.7800054,19.499996 44.7399958,19.1 45.58,19.1 C45.9000016,19.1 46.2033319,19.2033323 46.49,19.41 C46.7766681,19.6166677 47.053332,19.8266656 47.32,20.04 C48.4000054,20.7866704 49.0866652,21.49333 49.38,22.16 C49.4333336,22.293334 49.46,22.4666656 49.46,22.68 C49.46,23.613338 48.9666716,25.1333228 47.98,27.24 C47.046662,29.2266766 46.046672,30.953326 44.98,32.42 C45.3933354,32.286666 45.966663,32.086668 46.7,31.82 C46.7800004,31.7799998 46.919999,31.6866674 47.12,31.54 C47.253334,31.4466662 47.3799994,31.4066666 47.5,31.42 C47.8200016,31.4600002 48.2699971,31.8366631 48.85,32.55 C49.4300029,33.2633369 49.7333332,33.7466654 49.76,34 Z"/>
  </g>
</svg>
