<svg xmlns="http://www.w3.org/2000/svg" width="64" height="64" viewBox="0 0 64 64">
  <g fill="none" fill-rule="evenodd">
    <path fill="#FFAF40" d="M5,18 L57,18 L57,45.0047989 C57,52.734135 50.727585,59 42.9965501,59 L5,59 L5,18 Z"/>
    <path fill="#F5413E" d="M43,7 L57,7 L57,21 L5,21 L5,7 L20,7 L20,12.007983 C20,13.0998238 20.897616,14 22.0048815,14 L22.9951185,14 C24.1061002,14 25,13.1081436 25,12.007983 L25,7 L38,7 L38,12.007983 C38,13.0998238 38.897616,14 40.0048815,14 L40.9951185,14 C42.1061002,14 43,13.1081436 43,12.007983 L43,7 Z"/>
    <rect width="3" height="11" x="21" y="2" fill="#9F5757" rx="1.5"/>
    <rect width="3" height="11" x="39" y="2" fill="#9F5757" rx="1.5"/>
    <polyline stroke="#5B68C0" stroke-linecap="round" stroke-width="2" points="48 42.017 48 51 27 51 27 31 27 31 35.528 31 43.216 31"/>
    <rect width="8" height="8" x="12" y="30" fill="#BD7575"/>
    <rect width="8" height="8" x="12" y="44" fill="#BD7575"/>
    <path fill="#4796E7" fill-rule="nonzero" d="M33.3541078,37.8475228 C32.5412127,37.0996757 31.2759811,37.1524076 30.528134,37.9653027 C29.7802869,38.7781978 29.8330187,40.0434294 30.6459139,40.7912765 L38.0025532,47.5592362 C38.9168522,48.4003728 40.3687541,48.2131767 41.0398009,47.1676388 L53.9321072,27.0805244 C54.528729,26.1509459 54.2588143,24.913716 53.3292358,24.3170942 C52.3996573,23.7204724 51.1624275,23.9903871 50.5658057,24.9199656 L38.9591088,43.0040107 L33.3541078,37.8475228 Z"/>
  </g>
</svg>
