<svg xmlns="http://www.w3.org/2000/svg" width="64" height="64" viewBox="0 0 64 64">
  <g fill="none" fill-rule="evenodd">
    <path fill="#BD7575" d="M3,19.0081112 C3,16.7944925 4.79942536,15 7.00945862,15 L56.9905414,15 C59.2049042,15 61,16.7912518 61,19.0081112 L61,52.9918888 C61,55.2055075 59.2005746,57 56.9905414,57 L7.00945862,57 C4.79509577,57 3,55.2087482 3,52.9918888 L3,19.0081112 Z"/>
    <circle cx="16" cy="21" r="3" fill="#6B6B6B"/>
    <circle cx="32" cy="21" r="3" fill="#6B6B6B"/>
    <circle cx="48" cy="21" r="3" fill="#6B6B6B"/>
    <polygon fill="#FFAF40" fill-rule="nonzero" points="5 31 59.01 31 59.01 29 5 29"/>
    <polygon fill="#FFAF40" fill-rule="nonzero" points="5 38 59.01 38 59.01 36 5 36"/>
    <polygon fill="#FFAF40" fill-rule="nonzero" points="5 45 59.01 45 59.01 43 5 43"/>
    <polygon fill="#FFAF40" fill-rule="nonzero" points="5 52 59.01 52 59.01 50 5 50"/>
    <polygon fill="#FFAF40" fill-rule="nonzero" points="13 30 13 51 15 51 15 30"/>
    <polygon fill="#FFAF40" fill-rule="nonzero" points="22 30 22 51 24 51 24 30"/>
    <polygon fill="#FFAF40" fill-rule="nonzero" points="31 30 31 51 33 51 33 30"/>
    <polygon fill="#FFAF40" fill-rule="nonzero" points="40 30 40 51 42 51 42 30"/>
    <polygon fill="#FFAF40" fill-rule="nonzero" points="49 30 49 51 51 51 51 30"/>
    <rect width="4" height="12" x="14" y="11" fill="#FFDD95" rx="2"/>
    <rect width="4" height="12" x="30" y="11" fill="#FFDD95" rx="2"/>
    <rect width="4" height="12" x="46" y="11" fill="#FFDD95" rx="2"/>
  </g>
</svg>
