<svg xmlns="http://www.w3.org/2000/svg" width="64" height="64" viewBox="0 0 64 64">
  <g fill="none" fill-rule="evenodd">
    <path fill="#FFDD95" d="M7,7 L59,7 L59,55.0059907 C59,57.2118211 57.2100423,59 55.0059907,59 L10.9940093,59 C8.78817888,59 7,57.2100423 7,55.0059907 L7,7 Z"/>
    <rect width="52" height="14" x="7" y="7" fill="#F5413E"/>
    <rect width="5" height="11" x="22" y="3" fill="#5B68C0" rx="2"/>
    <rect width="5" height="11" x="40" y="3" fill="#5B68C0" rx="2"/>
    <path fill="#23BA8E" fill-rule="nonzero" d="M24.354097,40.8472779 C23.5412018,40.0994307 22.2759703,40.1521626 21.5281232,40.9650577 C20.7802761,41.7779528 20.8330079,43.0431844 21.645903,43.7910315 L29.0025424,50.5589912 C29.9168413,51.4001278 31.3687432,51.2129317 32.0397901,50.1673938 L44.9320964,30.0802794 C45.5287182,29.1507009 45.2588035,27.9134711 44.329225,27.3168492 C43.3996465,26.7202274 42.1624167,26.9901421 41.5657949,27.9197206 L29.959098,46.0037657 L24.354097,40.8472779 Z"/>
  </g>
</svg>
