<svg xmlns="http://www.w3.org/2000/svg" width="64" height="64" viewBox="0 0 64 64">
  <g fill="none" fill-rule="evenodd">
    <path fill="#DCDCDC" d="M8,9 L60,9 L60,57.0059907 C60,59.2118211 58.2100423,61 56.0059907,61 L11.9940093,61 C9.78817888,61 8,59.2100423 8,57.0059907 L8,9 Z"/>
    <path fill="#5EA7FF" d="M30.3214286,31 C27.7178005,31 26,33.9900983 26,37.6785714 C26,41.3670446 27.7178005,53 30.3214286,53 C31.8402925,53 32.0128203,43.3395704 34.0535714,43.3308234 C36.4871797,43.3395704 36.2668503,53 37.7857143,53 C40.3893424,53 42.1071429,41.3670446 42.1071429,37.6785714 C42.1071429,33.9900983 40.3893424,31 37.7857143,31 C36.5416667,31 35.297619,32.1785714 34.0535714,32.1785714 C32.8095238,32.1785714 31.5654762,31 30.3214286,31 Z"/>
    <rect width="52" height="14" x="8" y="9" fill="#FFAF40"/>
    <rect width="5" height="11" x="17" y="5" fill="#BE7676" rx="2"/>
    <rect width="5" height="11" x="32" y="5" fill="#BE7676" rx="2"/>
    <rect width="5" height="11" x="46" y="5" fill="#BE7676" rx="2"/>
  </g>
</svg>
