<svg xmlns="http://www.w3.org/2000/svg" width="64" height="64" viewBox="0 0 64 64">
  <g fill="none" fill-rule="evenodd">
    <rect width="58" height="37" x="1" y="19" fill="#595959" rx="4"/>
    <circle cx="48" cy="45" r="6" fill="#979797"/>
    <polygon fill="#FFF" fill-rule="nonzero" points="47 41 47 49 49 49 49 41"/>
    <polygon fill="#FFF" fill-rule="nonzero" points="44 46 52 46 52 44 44 44"/>
    <rect width="6" height="3" x="6" y="16" fill="#979797"/>
    <circle cx="7" cy="24" r="2" fill="#80D25B"/>
    <circle cx="13" cy="24" r="2" fill="#FF78C7"/>
    <rect width="31" height="23" x="5" y="29" fill="#ED9111"/>
    <polygon fill="#979797" points="18 13 32 13 35 19 15 19"/>
    <circle cx="54" cy="17" r="10" fill="#22BA8E"/>
    <path stroke="#FFF" stroke-linecap="round" stroke-width="2" d="M54,18 C56.209139,18 58,16.209139 58,14 C58,11.790861 56.209139,10 54,10 C51.790861,10 50,11.790861 50,14"/>
    <path stroke="#FFF" stroke-linecap="square" stroke-width="2" d="M54,18 L54,21"/>
    <rect width="2" height="2" x="53" y="23" fill="#FFF"/>
  </g>
</svg>
