<svg xmlns="http://www.w3.org/2000/svg" width="64" height="64" viewBox="0 0 64 64">
  <g fill="none" fill-rule="evenodd">
    <rect width="58" height="37" x="1" y="19" fill="#595959" rx="4"/>
    <circle cx="48" cy="45" r="6" fill="#979797"/>
    <polygon fill="#FFF" fill-rule="nonzero" points="47 41 47 49 49 49 49 41"/>
    <polygon fill="#FFF" fill-rule="nonzero" points="44 46 52 46 52 44 44 44"/>
    <rect width="6" height="3" x="6" y="16" fill="#979797"/>
    <circle cx="7" cy="24" r="2" fill="#80D25B"/>
    <circle cx="13" cy="24" r="2" fill="#FF78C7"/>
    <rect width="31" height="23" x="5" y="29" fill="#ED9111"/>
    <polygon fill="#979797" points="18 13 32 13 35 19 15 19"/>
    <circle cx="54" cy="17" r="10" fill="#9C4D4D"/>
    <path fill="#FFF" d="M49.8283965,14.2426101 L49.0502525,13.4644661 L50.4644661,12.0502525 L51.2426101,12.8283965 C51.7674156,12.4808072 52.3616253,12.2296013 53,12.1000181 L53,11 L55,11 L55,12.1000181 C55.6383747,12.2296013 56.2325844,12.4808072 56.7573899,12.8283965 L57.5355339,12.0502525 L58.9497475,13.4644661 L58.1716035,14.2426101 C58.5191928,14.7674156 58.7703987,15.3616253 58.8999819,16 L60,16 L60,18 L58.8999819,18 C58.7703987,18.6383747 58.5191928,19.2325844 58.1716035,19.7573899 L58.9497475,20.5355339 L57.5355339,21.9497475 L56.7573899,21.1716035 C56.2325844,21.5191928 55.6383747,21.7703987 55,21.8999819 L55,23 L53,23 L53,21.8999819 C52.3616253,21.7703987 51.7674156,21.5191928 51.2426101,21.1716035 L50.4644661,21.9497475 L49.0502525,20.5355339 L49.8283965,19.7573899 C49.4808072,19.2325844 49.2296013,18.6383747 49.1000181,18 L48,18 L48,16 L49.1000181,16 C49.2296013,15.3616253 49.4808072,14.7674156 49.8283965,14.2426101 Z M54,19 C55.1045695,19 56,18.1045695 56,17 C56,15.8954305 55.1045695,15 54,15 C52.8954305,15 52,15.8954305 52,17 C52,18.1045695 52.8954305,19 54,19 Z"/>
  </g>
</svg>
