<svg xmlns="http://www.w3.org/2000/svg" width="64" height="64" viewBox="0 0 64 64">
  <g fill="none" fill-rule="evenodd">
    <rect width="58" height="37" x="1" y="19" fill="#595959" rx="4"/>
    <circle cx="48" cy="45" r="6" fill="#979797"/>
    <polygon fill="#FFF" fill-rule="nonzero" points="47 41 47 49 49 49 49 41"/>
    <polygon fill="#FFF" fill-rule="nonzero" points="44 46 52 46 52 44 44 44"/>
    <rect width="6" height="3" x="6" y="16" fill="#979797"/>
    <circle cx="7" cy="24" r="2" fill="#80D25B"/>
    <circle cx="13" cy="24" r="2" fill="#FF78C7"/>
    <rect width="31" height="23" x="5" y="29" fill="#ED9111"/>
    <polygon fill="#979797" points="18 13 32 13 35 19 15 19"/>
    <circle cx="54" cy="17" r="10" fill="#E43535"/>
    <path stroke="#FFF" stroke-linecap="square" stroke-width="2" d="M47.9497475,16.9497475 L59.9497475,16.9497475" transform="rotate(45 53.95 16.95)"/>
    <path stroke="#FFF" stroke-linecap="square" stroke-width="2" d="M53.8535534,23.3535534 L53.8535534,11.3535534" transform="rotate(45 54.354 17.354)"/>
  </g>
</svg>
