<?xml version="1.0" encoding="UTF-8"?>
<svg width="64px" height="64px" viewBox="0 0 64 64" version="1.1" xmlns="http://www.w3.org/2000/svg" xmlns:xlink="http://www.w3.org/1999/xlink">
    <!-- Generator: Sketch 43.2 (39069) - http://www.bohemiancoding.com/sketch -->
    <title>camp</title>
    <desc>Created with Sketch.</desc>
    <defs></defs>
    <g id="Outdoor-Activities-(142)" stroke="none" stroke-width="1" fill="none" fill-rule="evenodd">
        <polyline id="Line" stroke="#979797" stroke-width="2" stroke-linecap="square" points="16 23.4453261 32 7.44532608 48 23.4453261"></polyline>
        <path d="M1,26.9932874 C1,25.8924252 1.90035102,25 2.99263021,25 L61.0073698,25 C62.1078691,25 63,25.8997127 63,26.9932874 L63,52.0067126 C63,53.1075748 62.099649,54 61.0073698,54 L2.99263021,54 C1.89213093,54 1,53.1002873 1,52.0067126 L1,26.9932874 Z" id="Rectangle-160" fill="#BD7575"></path>
        <rect id="Rectangle-162" fill="#80D25B" x="3" y="27" width="58" height="25"></rect>
        <rect id="Rectangle-161" fill="#AB5F5F" x="10" y="22" width="10" height="3"></rect>
        <rect id="Rectangle-161-Copy" fill="#AB5F5F" x="44" y="22" width="10" height="3"></rect>
        <circle id="Oval-80" fill="#D8D8D8" cx="32" cy="9" r="3"></circle>
        <path d="M23.585,41.676 C23.5756666,41.8813344 23.4870008,42.0913323 23.319,42.306 C23.0576654,42.6140015 22.889667,42.8473325 22.815,43.006 C22.2269971,43.9020045 21.6203365,44.35 20.995,44.35 C20.257663,44.35 19.6836687,43.9766704 19.273,43.23 C18.9089982,42.5486633 18.727,41.6900052 18.727,40.654 C18.727,39.4686607 18.9509978,38.4373377 19.399,37.56 C19.8936691,36.5893285 20.5329961,36.104 21.317,36.104 C21.9330031,36.104 22.4323314,36.4446633 22.815,37.126 C23.1323349,37.7046696 23.291,38.3346633 23.291,39.016 C23.291,39.2026676 23.2770001,39.3659993 23.249,39.506 C23.1836663,39.8233349 22.917669,39.982 22.451,39.982 C22.0869982,39.982 21.807001,39.8793344 21.611,39.674 C21.5176662,39.5713328 21.471,39.3333352 21.471,38.96 C21.471,38.8666662 21.4756666,38.7313342 21.485,38.554 L21.485,38.148 C21.485,37.7279979 21.4103341,37.518 21.261,37.518 C21.1023325,37.518 20.9343342,37.9776621 20.757,38.897 C20.5796658,39.8163379 20.491,40.6773293 20.491,41.48 C20.491,42.413338 20.6309986,42.88 20.911,42.88 C21.2750018,42.88 21.5456658,42.5860029 21.723,41.998 C21.797667,41.9139996 21.8396666,41.7460013 21.849,41.494 C21.849,41.2699989 21.9049994,41.1230003 22.017,41.053 C22.1290006,40.9829997 22.2923323,40.948 22.507,40.948 C22.7870014,40.948 23.0296656,41.0086661 23.235,41.13 C23.4776679,41.2700007 23.5943334,41.4519989 23.585,41.676 Z M30.809,43.412 C30.6689993,43.8693356 30.3236694,44.098 29.773,44.098 C29.5863324,44.098 29.4370006,44.0653337 29.325,44 C29.1756659,43.8973328 29.0730003,43.6920015 29.017,43.384 C28.9049994,42.8519973 28.7930006,42.4366682 28.681,42.138 C28.6529999,42.6513359 28.3730027,43.171664 27.841,43.699 C27.3089973,44.226336 26.772336,44.49 26.231,44.49 C25.5496633,44.49 25.0783346,44.0373379 24.817,43.132 C24.7236662,42.7959983 24.677,42.4786682 24.677,42.18 C24.677,41.3119957 25.1203289,40.5700031 26.007,39.954 C26.7350036,39.5246645 27.467663,39.1000021 28.205,38.68 C28.2423335,38.5213325 28.261,38.3673341 28.261,38.218 C28.261,37.9286652 28.1816675,37.7583336 28.023,37.707 C27.8643325,37.6556664 27.7290006,37.63 27.617,37.63 C27.420999,37.63 27.2600006,37.6929994 27.134,37.819 L26.777,38.176 C26.6649994,38.250667 26.5203342,38.423332 26.343,38.694 C26.2029993,38.9086677 26.0490008,39.0253332 25.881,39.044 C25.6383321,39.0720001 25.419001,38.988001 25.223,38.792 C25.026999,38.595999 24.929,38.3673346 24.929,38.106 C24.929,37.9566659 24.966333,37.8213339 25.041,37.7 C25.2556677,37.3453316 25.5776645,37.0373346 26.007,36.776 C26.6603366,36.383998 27.4769951,36.188 28.457,36.188 C29.0823365,36.188 29.5116655,36.4866637 29.745,37.084 C29.8943341,37.4853353 30.006333,38.2366612 30.081,39.338 C30.1650004,40.6726733 30.2676661,41.6479969 30.389,42.264 C30.4076668,42.3853339 30.4869993,42.5393324 30.627,42.726 C30.7670007,42.9126676 30.837,43.0759993 30.837,43.216 C30.837,43.2813337 30.8276668,43.3466663 30.809,43.412 Z M28.373,39.968 C28.0929986,40.1173341 27.8153347,40.2713325 27.54,40.43 C27.2646653,40.5886675 27.0103345,40.7986654 26.777,41.06 C26.4409983,41.4426686 26.273,41.769332 26.273,42.04 C26.273,42.2640011 26.3569992,42.4973321 26.525,42.74 C26.6183338,42.8706673 26.7209994,42.936 26.833,42.936 C27.0756679,42.936 27.3393319,42.665336 27.624,42.124 C27.9086681,41.582664 28.1583323,40.8640045 28.373,39.968 Z M35.0369347,39.5592738 C35.0369782,39.5583872 35.037,39.5592959 35.037,39.562 C35.0369783,39.5610902 35.0369566,39.5601815 35.0369347,39.5592738 L35.0369347,39.5592738 Z M35.0369347,39.5592738 C35.0275366,39.1690677 34.9995586,38.9693117 34.953,38.96 C34.7383323,39.3146684 34.5516675,39.6553317 34.393,39.982 C34.0103314,40.7660039 33.7910003,41.4193307 33.735,41.942 C33.6883331,42.0540006 33.6836665,42.2733317 33.721,42.6 C33.7583335,42.8800014 33.7163339,43.0713328 33.595,43.174 C33.4736661,43.2766672 33.3103344,43.328 33.105,43.328 C32.8809989,43.328 32.6546678,43.2650006 32.426,43.139 C32.1973322,43.0129994 32.0316672,42.8706675 31.929,42.712 C31.7796659,42.4786655 31.6956668,41.797339 31.677,40.668 L31.677,37.364 C31.6676666,37.2706662 31.6303337,37.1400008 31.565,36.972 C31.4996663,36.8039992 31.467,36.6780004 31.467,36.594 C31.467,36.5099996 31.4903331,36.430667 31.537,36.356 C31.6583339,36.1693324 31.9663309,36.076 32.461,36.076 C33.0676697,36.076 33.4316661,36.2253318 33.553,36.524 C33.5810001,36.5893337 33.595,36.6546663 33.595,36.72 C33.595,36.8040004 33.5506671,36.9253325 33.462,37.084 C33.3733329,37.2426675 33.329,37.3733328 33.329,37.476 L33.329,39.072 C33.6090014,38.4839971 33.9776644,37.7373379 34.435,36.832 C34.4910003,36.7106661 34.5446664,36.5893339 34.596,36.468 C34.6473336,36.3466661 34.7243328,36.2393338 34.827,36.146 C34.9296672,36.0526662 35.1023321,36.006 35.345,36.006 C35.7183352,36.006 36.0939981,36.0899992 36.472,36.258 C36.8500019,36.4260008 37.0436666,36.6266655 37.053,36.86 C37.0623334,37.1026679 37.0273337,37.2869994 36.948,37.413 C36.8686663,37.5390006 36.829,37.6439996 36.829,37.728 L36.801,40.752 C36.9503341,40.4159983 37.220998,39.6226729 37.613,38.372 C37.9210015,37.4199952 38.1543325,36.8880006 38.313,36.776 C38.5183344,36.6266659 38.8216647,36.552 39.223,36.552 C39.9696704,36.552 40.3569999,36.7666645 40.385,37.196 C40.3756666,38.3346724 40.3756666,40.2386533 40.385,42.908 C40.385,43.0106672 40.4783324,43.1343326 40.665,43.279 C40.8516676,43.4236674 40.945,43.5753325 40.945,43.734 C40.945,43.808667 40.9263335,43.8973328 40.889,44 C40.7676661,44.3453351 40.4923355,44.518 40.063,44.518 C39.521664,44.518 39.1203346,44.3313352 38.859,43.958 C38.7189993,43.7526656 38.649,43.048006 38.649,41.844 L38.649,41.102 C38.6583334,40.7753317 38.663,40.5466673 38.663,40.416 C38.663,39.7626634 38.6303337,39.4266668 38.565,39.408 C38.4249993,39.3519997 37.9490041,40.6586533 37.137,43.328 C37.137,43.3373334 37.1183335,43.5613311 37.081,44 C37.0623332,44.270668 36.9690008,44.4526662 36.801,44.546 C36.6796661,44.6113337 36.5443341,44.644 36.395,44.644 C36.124332,44.644 35.8630013,44.5553342 35.611,44.378 C35.3589987,44.2006658 35.2003337,43.9906679 35.135,43.748 C35.0416662,43.4026649 34.9996666,42.7213384 35.009,41.704 C35.0267654,40.2916509 35.0360769,39.5767484 35.0369347,39.5592738 L35.0369347,39.5592738 Z M47.329,40.136 C47.329,41.1253383 47.1190021,42.0259959 46.699,42.838 C46.232331,43.7153377 45.6583367,44.154 44.977,44.154 C44.5943314,44.154 44.2023353,43.8506697 43.801,43.244 L43.801,45.036 C43.801,45.1853341 43.8616661,45.3766655 43.983,45.61 C44.1043339,45.8433345 44.165,46.0206661 44.165,46.142 C44.165,46.2353338 44.1416669,46.3286662 44.095,46.422 C43.898999,46.8420021 43.5163362,47.052 42.947,47.052 C42.480331,47.052 42.1910006,46.8840017 42.079,46.548 C42.0416665,46.4359994 42.023,46.3286672 42.023,46.226 C42.023,46.1233328 42.053333,45.9856675 42.114,45.813 C42.174667,45.6403325 42.205,45.4933339 42.205,45.372 L42.205,37.406 C42.205,37.3033328 42.167667,37.1796674 42.093,37.035 C42.018333,36.8903326 41.981,36.7713338 41.981,36.678 C41.981,36.603333 41.9996665,36.5240004 42.037,36.44 C42.1490006,36.1786654 42.4943304,36.048 43.073,36.048 C43.4370018,36.048 43.6796661,36.1226659 43.801,36.272 C43.8476669,36.3280003 43.871,36.3979996 43.871,36.482 C43.871,36.5473337 43.8476669,36.6499993 43.801,36.79 C43.7543331,36.9300007 43.7263334,37.037333 43.717,37.112 C44.1463355,36.4959969 44.6503304,36.188 45.229,36.188 C46.0036705,36.188 46.5683316,36.6266623 46.923,37.504 C47.193668,38.1853367 47.329,39.0626613 47.329,40.136 Z M45.565,40.136 C45.565,39.2493289 45.5463335,38.6846679 45.509,38.442 C45.4156662,37.8353303 45.1823352,37.532 44.809,37.532 C44.5943323,37.532 44.4006675,37.8236638 44.228,38.407 C44.0553325,38.9903363 43.969,39.5666638 43.969,40.136 C43.969,40.5653355 44.0623324,41.0693304 44.249,41.648 C44.4356676,42.2640031 44.6223324,42.572 44.809,42.572 C45.0330011,42.572 45.2196659,42.2873362 45.369,41.718 C45.4996673,41.2233309 45.565,40.6960028 45.565,40.136 Z" id="camp" fill="#AB5F5F"></path>
    </g>
</svg>