<svg xmlns="http://www.w3.org/2000/svg" width="64" height="64" viewBox="0 0 64 64">
  <g fill="none" fill-rule="evenodd">
    <path fill="#D8D8D8" d="M1,30.0007506 C1,22.2683495 7.25735067,16.5046251 14.9526463,17.1252134 L63,21 L63,40 L14.8754084,46.2096247 C7.21223192,47.1984217 1,41.7350716 1,33.9992494 L1,30.0007506 Z"/>
    <circle cx="21" cy="45" r="13" stroke="#979797" stroke-linecap="round" stroke-width="2"/>
    <path stroke="#979797" stroke-linecap="square" stroke-width="2" d="M21 33L21 58M9 45L34 45M12 54L29.5641681 36.4358319M12 36L30 54"/>
    <path fill="#979797" d="M59,19 L61,19 C62.1045695,19 63,19.8970262 63,21.0049466 L63,40.9950534 C63,42.1023548 62.1122704,43 61,43 L59,43 L59,19 Z"/>
    <path stroke="#979797" stroke-linecap="round" stroke-width="2" d="M6.04433835,21.2152557 C6.04433835,21.2152557 6.49561422,20.7881033 3.49556547,16.1023208 C0.495516727,11.4165383 4.19535773,5.76498381 4.19535773,5.76498381"/>
  </g>
</svg>
