<svg xmlns="http://www.w3.org/2000/svg" width="64" height="64" viewBox="0 0 64 64">
  <g fill="none" fill-rule="evenodd">
    <path fill="#5B68C0" d="M26.5,21.5018785 C26.5,19.291702 28.2930912,17.5 30.50181,17.5 L66.49819,17.5 C68.7083286,17.5 70.5,19.2921947 70.5,21.5018785 L70.5,42.4981215 C70.5,44.708298 68.7069088,46.5 66.49819,46.5 L30.50181,46.5 C28.2916714,46.5 26.5,44.7078053 26.5,42.4981215 L26.5,21.5018785 Z" transform="rotate(90 48.5 32)"/>
    <rect width="43.968" height="8.027" x="30.03" y="27.97" fill="#D8D8D8" transform="rotate(90 52.014 31.984)"/>
    <path fill="#D8D8D8" d="M4,6.0065556 C4,3.79379604 5.7852456,2 7.99017859,2 L36.0098214,2 C38.2135362,2 40,3.79568082 40,6.0065556 L40,57.9934444 C40,60.206204 38.2147544,62 36.0098214,62 L7.99017859,62 C5.7864638,62 4,60.2043192 4,57.9934444 L4,6.0065556 Z"/>
    <polygon fill="#22BA8E" points="7 9 37 9 37 21 7 21"/>
    <text fill="#FFDD95" font-family="MarkerFelt-Thin, Marker Felt" font-size="10" font-weight="300">
      <tspan x="17" y="19">2.13</tspan>
    </text>
    <rect width="8" height="6" x="7" y="24" fill="#868686"/>
    <rect width="8" height="6" x="29" y="24" fill="#868686"/>
    <rect width="8" height="6" x="18" y="24" fill="#868686"/>
    <rect width="8" height="6" x="7" y="33" fill="#868686"/>
    <rect width="8" height="6" x="29" y="33" fill="#868686"/>
    <rect width="8" height="6" x="18" y="33" fill="#868686"/>
    <rect width="8" height="6" x="7" y="42" fill="#868686"/>
    <rect width="8" height="15" x="29" y="42" fill="#868686"/>
    <rect width="8" height="6" x="18" y="42" fill="#868686"/>
    <rect width="8" height="6" x="7" y="51" fill="#868686"/>
    <rect width="8" height="6" x="18" y="51" fill="#868686"/>
  </g>
</svg>
