<svg xmlns="http://www.w3.org/2000/svg" width="64" height="64" viewBox="0 0 64 64">
  <g fill="none" fill-rule="evenodd">
    <rect width="58" height="40" x="14" y="11" fill="#D8D8D8" rx="2" transform="rotate(90 43 31)"/>
    <circle cx="43" cy="57" r="2" fill="#868686" transform="rotate(90 43 57)"/>
    <rect width="49" height="36" x="18.5" y="11.5" fill="#325AA6" rx="1" transform="rotate(90 43 29.5)"/>
    <circle cx="24" cy="22" r="10" fill="#FFAF40"/>
    <path fill="#FFF" d="M26.04,14.5 C26.2533344,14.5933338 26.36,14.7599988 26.36,15 C26.36,15.3600018 26.193335,15.6199992 25.86,15.78 C25.6466656,15.8866672 25.3466686,15.94 24.96,15.94 C24.6133316,15.94 24.2600018,15.8833339 23.9,15.77 C23.5399982,15.6566661 23.3400002,15.5533338 23.3,15.46 C23.0733322,14.8199968 23.1866644,14.3600014 23.64,14.08 C23.7466672,14.013333 23.9533318,13.98 24.26,13.98 C25.1000042,13.98 25.6933316,14.1533316 26.04,14.5 Z M28.86,21.84 C28.86,22.8133382 28.3400052,24.0066596 27.3,25.42 C26.299995,26.7000064 25.3400046,27.34 24.42,27.34 C23.5133288,27.34 22.593338,27.0600028 21.66,26.5 C20.859996,25.9133304 20.4733332,25.3733358 20.5,24.88 C20.5266668,24.5999986 20.8666634,24.46 21.52,24.46 C22.0666694,24.46 22.573331,24.5533324 23.04,24.74 C23.2000008,24.873334 23.4599982,25.039999 23.82,25.24 C24.0466678,25.2533334 24.3699979,24.993336 24.79,24.46 C25.2100021,23.926664 25.42,23.5133348 25.42,23.22 C25.42,23.0466658 25.3066678,22.96 25.08,22.96 C24.9599994,22.96 24.4533378,22.9999996 23.56,23.08 C22.6666622,23.1600004 21.9933356,23.2 21.54,23.2 C20.5266616,23.2 19.8933346,22.900003 19.64,22.3 C19.6266666,22.2866666 19.62,22.2200006 19.62,22.1 C19.62,21.4066632 20.219994,20.3533404 21.42,18.94 C22.7400066,17.4333258 23.8799952,16.68 24.84,16.68 C25.5200034,16.68 26.2066632,16.9399974 26.9,17.46 C27.633337,17.926669 27.9733336,18.2866654 27.92,18.54 C27.7599992,19.3933376 27.2200046,19.82 26.3,19.82 C26.1533326,19.82 25.9933342,19.7966669 25.82,19.75 C25.6466658,19.7033331 25.4666676,19.5566679 25.28,19.31 C25.0933324,19.0633321 24.8933344,18.94 24.68,18.94 C24.4399988,18.94 24.0100031,19.2766633 23.39,19.95 C22.7699969,20.6233367 22.46,21.1066652 22.46,21.4 C22.46,21.4400002 22.5133328,21.46 22.62,21.46 C22.820001,21.46 23.4799944,21.3400012 24.6,21.1 C25.7200056,20.8599988 26.5933302,20.74 27.22,20.74 C28.3133388,20.74 28.86,21.106663 28.86,21.84 Z M26.06,29.2 C26.06,29.7600028 25.6800038,30.1666654 24.92,30.42 C24.719999,30.4733336 24.3633359,30.4033343 23.85,30.21 C23.3366641,30.0166657 23.0733334,29.8400008 23.06,29.68 C22.993333,29.1199972 23.1066652,28.740001 23.4,28.54 C23.5600008,28.4199994 23.8199982,28.36 24.18,28.36 C24.6200022,28.36 25.0266648,28.4199994 25.4,28.54 C25.7733352,28.6600006 25.9766665,28.7833327 26.01,28.91 C26.0433335,29.0366673 26.06,29.133333 26.06,29.2 Z"/>
    <circle cx="11" cy="42" r="7" fill="#FFAF40"/>
    <circle cx="16.5" cy="54.5" r="3.5" fill="#FFAF40"/>
    <path fill="#FFF" d="M12.224,37.7 C12.3520006,37.7560003 12.416,37.8559993 12.416,38 C12.416,38.2160011 12.316001,38.3719995 12.116,38.468 C11.9879994,38.5320003 11.8080012,38.564 11.576,38.564 C11.367999,38.564 11.1560011,38.5300003 10.94,38.462 C10.7239989,38.3939997 10.6040001,38.3320003 10.58,38.276 C10.4439993,37.8919981 10.5119986,37.6160008 10.784,37.448 C10.8480003,37.4079998 10.9719991,37.388 11.156,37.388 C11.6600025,37.388 12.015999,37.491999 12.224,37.7 Z M13.916,42.104 C13.916,42.6880029 13.6040031,43.4039958 12.98,44.252 C12.379997,45.0200038 11.8040028,45.404 11.252,45.404 C10.7079973,45.404 10.1560028,45.2360017 9.596,44.9 C9.1159976,44.5479982 8.88399992,44.2240015 8.9,43.928 C8.91600008,43.7599992 9.11999804,43.676 9.512,43.676 C9.84000164,43.676 10.1439986,43.7319994 10.424,43.844 C10.5200005,43.9240004 10.6759989,44.0239994 10.892,44.144 C11.0280007,44.152 11.2219987,43.9960016 11.474,43.676 C11.7260013,43.3559984 11.852,43.1080009 11.852,42.932 C11.852,42.8279995 11.7840007,42.776 11.648,42.776 C11.5759996,42.776 11.2720027,42.7999998 10.736,42.848 C10.1999973,42.8960002 9.79600136,42.92 9.524,42.92 C8.91599696,42.92 8.53600076,42.7400018 8.384,42.38 C8.37599996,42.372 8.372,42.3320004 8.372,42.26 C8.372,41.8439979 8.7319964,41.2120042 9.452,40.364 C10.244004,39.4599955 10.9279971,39.008 11.504,39.008 C11.912002,39.008 12.3239979,39.1639984 12.74,39.476 C13.1800022,39.7560014 13.3840002,39.9719992 13.352,40.124 C13.2559995,40.6360026 12.9320028,40.892 12.38,40.892 C12.2919996,40.892 12.1960005,40.8780001 12.092,40.85 C11.9879995,40.8219999 11.8800006,40.7340007 11.768,40.586 C11.6559994,40.4379993 11.5360006,40.364 11.408,40.364 C11.2639993,40.364 11.0060019,40.565998 10.634,40.97 C10.2619981,41.374002 10.076,41.6639991 10.076,41.84 C10.076,41.8640001 10.1079997,41.876 10.172,41.876 C10.2920006,41.876 10.6879966,41.8040007 11.36,41.66 C12.0320034,41.5159993 12.5559981,41.444 12.932,41.444 C13.5880033,41.444 13.916,41.6639978 13.916,42.104 Z M12.236,46.52 C12.236,46.8560017 12.0080023,47.0999992 11.552,47.252 C11.4319994,47.2840002 11.2180015,47.2420006 10.91,47.126 C10.6019985,47.0099994 10.444,46.9040005 10.436,46.808 C10.3959998,46.4719983 10.4639991,46.2440006 10.64,46.124 C10.7360005,46.0519996 10.8919989,46.016 11.108,46.016 C11.3720013,46.016 11.6159989,46.0519996 11.84,46.124 C12.0640011,46.1960004 12.1859999,46.2699996 12.206,46.346 C12.2260001,46.4220004 12.236,46.4799998 12.236,46.52 Z"/>
  </g>
</svg>
