<svg xmlns="http://www.w3.org/2000/svg" width="64" height="64" viewBox="0 0 64 64">
  <g fill="none" fill-rule="evenodd">
    <rect width="18" height="42" x="9" y="21" fill="#D8D8D8"/>
    <rect width="6" height="9" x="15" y="54" fill="#595959"/>
    <path stroke="#595959" stroke-linecap="square" stroke-width="2" d="M14,55 L22,55"/>
    <path fill="#595959" d="M14,30.9999433 C14,28.7908356 15.7953562,27 18,27 L18,27 C20.209139,27 22,28.7996535 22,30.9999433 L22,36 L14,36 L14,30.9999433 Z"/>
    <rect width="18" height="5" x="9" y="42" fill="#979797"/>
    <polygon fill="#979797" points="18 9 29 21 7 21"/>
    <path stroke="#979797" stroke-linecap="square" stroke-width="2" d="M18,11 L18,1"/>
    <rect width="11" height="6" x="17" y="2" fill="#E43535"/>
    <circle cx="44.5" cy="16.5" r="8.5" fill="#ED9111"/>
    <path stroke="#BD7575" stroke-linecap="square" stroke-width="2" d="M47,60 L47,62"/>
    <polygon fill="#22BA8E" points="47 39 54 60 40 60"/>
    <path stroke="#BD7575" stroke-linecap="square" stroke-width="2" d="M2,63 L62.0333241,63"/>
  </g>
</svg>
