<svg xmlns="http://www.w3.org/2000/svg" width="64" height="64" viewBox="0 0 64 64">
  <g fill="none" fill-rule="evenodd">
    <rect width="18" height="42" x="10" y="21" fill="#5B68C0"/>
    <rect width="6" height="9" x="16" y="54" fill="#0A3586"/>
    <path stroke="#0A3586" stroke-linecap="square" stroke-width="2" d="M15,55 L23,55"/>
    <path fill="#0A3586" d="M15,30.9999433 C15,28.7908356 16.7953562,27 19,27 L19,27 C21.209139,27 23,28.7996535 23,30.9999433 L23,36 L15,36 L15,30.9999433 Z"/>
    <rect width="18" height="5" x="10" y="42" fill="#0A3586"/>
    <polygon fill="#0A3586" points="19 9 30 21 8 21"/>
    <path stroke="#5B68C0" stroke-linecap="square" stroke-width="2" d="M19,11 L19,1"/>
    <rect width="11" height="6" x="18" y="2" fill="#5EA7FF"/>
    <path fill="#325AA6" d="M40,10.16304 C41.5036328,8.81788139 43.4888962,8 45.6651861,8 C50.3596064,8 54.1651861,11.8055796 54.1651861,16.5 C54.1651861,20.6245192 51.2275126,24.062908 47.3303721,24.83696 C49.070188,23.2805106 50.1651861,21.0181305 50.1651861,18.5 C50.1651861,13.8055796 46.3596064,10 41.6651861,10 C41.0952849,10 40.5384833,10.0560862 40,10.16304 Z"/>
    <path stroke="#0A3586" stroke-linecap="square" stroke-width="2" d="M48,60 L48,62"/>
    <polygon fill="#0A3586" points="48 39 55 60 41 60"/>
    <path stroke="#0A3586" stroke-linecap="square" stroke-width="2" d="M3,63 L63.0333241,63"/>
    <path stroke="#5EA7FF" stroke-linecap="round" stroke-linejoin="round" stroke-width="2" d="M39 25L39 29M37 27L41 27M58 31L58 35M56 33L60 33"/>
  </g>
</svg>
