<svg xmlns="http://www.w3.org/2000/svg" width="64" height="64" viewBox="0 0 64 64">
  <path fill="#595959" fill-rule="evenodd" d="M25,61.1495264 C12.3654491,58.0180004 3,46.6027091 3,33 C3,16.9837423 15.9837423,4 32,4 C48.0162577,4 61,16.9837423 61,33 C61,46.2413077 52.1255889,57.4098857 40,60.8825004 L40,48.0061948 C40,46.9891611 39.6237042,46.0627406 39.0033148,45.3575596 C45.9927375,43.7531849 51,39.1065583 51,31 C51,27.7016258 50.1710522,24.9760402 48.7169219,22.795109 C50.4806761,18.9536369 48.6514404,15 48.6514404,15 C45.7336432,15.3359226 43.5998002,16.9335518 42.6120665,17.8266822 C39.8310501,16.5961177 36.5344932,16 33,16 C29.882525,16 26.9501526,16.4637497 24.3933644,17.4175492 C23.2744072,16.5127572 21.343914,15.2891076 18.8327485,15 C18.8327485,15 17.3986419,18.0996205 18.2943906,21.4764924 C16.2192966,23.8419413 15,26.9997142 15,31 C15,38.7911212 19.6251654,43.3863334 26.1899636,45.1564311 C25.4556562,45.882709 25,46.891264 25,48.0061948 L25,49.8483163 L25,49.8483163 C23.5628,50.2049993 20.2668643,50.449151 17.2947387,46.5046456 C13.357546,41.2793353 10.2782465,44.4446798 10.2782465,44.4446798 C10.2782465,44.4446798 13.1535089,43.9135017 15.2241238,47.8268403 C17.167329,51.4993822 19.1709344,53.5835119 25,53.8260894 L25,61.1495264 Z"/>
</svg>
