<svg xmlns="http://www.w3.org/2000/svg" width="64" height="64" viewBox="0 0 64 64">
  <g fill="none" fill-rule="evenodd">
    <circle cx="32" cy="32" r="30" fill="#B4DFFB"/>
    <ellipse cx="32" cy="30" fill="#595959" rx="10" ry="8"/>
    <path fill="#595959" d="M22.1389646 60.3416736C22.0475744 59.2550172 22 58.1386202 22 57 22 45.954305 26.4771525 37 32 37 37.5228475 37 42 45.954305 42 57 42 58.1386202 41.9524256 59.2550172 41.8610354 60.3416736 38.7725974 61.4161234 35.4544846 62 32 62 28.5455154 62 25.2274026 61.4161234 22.1389646 60.3416736zM28.6125273 23.0478694C28.6125273 23.0478694 26.6572522 18.5507674 24.4705652 17 24.4705652 17 22.1178789 23.1756087 23.3641084 28.2984482"/>
    <path fill="#595959" d="M40.6125273,23.0478694 C40.6125273,23.0478694 38.6572522,18.5507674 36.4705652,17 C36.4705652,17 34.1178789,23.1756087 35.3641084,28.2984482" transform="matrix(-1 0 0 1 75.613 0)"/>
  </g>
</svg>
