<svg xmlns="http://www.w3.org/2000/svg" width="64" height="64" viewBox="0 0 64 64">
  <g fill="none" fill-rule="evenodd">
    <path fill="#B4DFFB" d="M32,62 C15.4314575,62 2,48.5685425 2,32 C2,15.4314575 15.4314575,2 32,2 C48.5685425,2 62,15.4314575 62,32 C62,48.5685425 48.5685425,62 32,62 Z M32,36 C34.209139,36 36,34.209139 36,32 C36,29.790861 34.209139,28 32,28 C29.790861,28 28,29.790861 28,32 C28,34.209139 29.790861,36 32,36 Z"/>
    <path fill="#5EA7FF" d="M32,41 C27.0294373,41 23,36.9705627 23,32 C23,27.0294373 27.0294373,23 32,23 C36.9705627,23 41,27.0294373 41,32 C41,36.9705627 36.9705627,41 32,41 Z M32,36 C34.209139,36 36,34.209139 36,32 C36,29.790861 34.209139,28 32,28 C29.790861,28 28,29.790861 28,32 C28,34.209139 29.790861,36 32,36 Z"/>
    <path fill="#0A3586" d="M49.62,33.679 C48.9233298,35.4170087 48.2266701,36.2896666 47.53,36.297 C46.6866624,36.3043334 46.0706686,35.8680044 45.682,34.988 C45.3813318,34.31333 45.2273334,33.4296721 45.22,32.337 C45.2126666,31.1049938 45.3739983,29.9830051 45.704,28.971 C46.0853352,27.7903274 46.6023301,27.1633337 47.255,27.09 C47.3503338,27.0826666 47.4419996,27.079 47.53,27.079 C48.1386697,27.079 48.6079983,27.3503306 48.938,27.893 C49.1800012,28.3036687 49.3853325,28.9563289 49.554,29.851 C49.6786673,30.2103351 49.741,30.4303329 49.741,30.511 C49.741,30.7530012 49.5906682,30.9399993 49.29,31.072 C49.2239997,31.1013335 49.1470004,31.116 49.059,31.116 C48.8463323,31.116 48.6116679,31.046334 48.355,30.907 C48.0543318,30.7456659 47.904,30.5696676 47.904,30.379 C47.904,30.3496665 47.9553328,30.2066679 48.058,29.95 C48.0433333,29.6273317 47.9846672,29.3211681 47.882,29.0315 C47.7793328,28.7418319 47.6620007,28.5823335 47.53,28.553 C47.3246656,28.5016664 47.1450008,28.9086623 46.991,29.774 C46.8589993,30.4926703 46.7783335,31.2846623 46.749,32.15 C46.7269999,32.8026699 46.7636662,33.4076639 46.859,33.965 C46.9690005,34.6030032 47.1339989,34.9439998 47.354,34.988 C47.4860007,35.0100001 47.6436657,34.8450018 47.827,34.493 C48.0030009,34.1703317 48.1496661,33.7890022 48.267,33.349 C48.2523333,33.2756663 48.245,33.2060003 48.245,33.14 C48.245,32.7073312 48.5089974,32.491 49.037,32.491 C49.1543339,32.491 49.2716661,32.5019999 49.389,32.524 C49.7483351,32.5973337 49.928,32.7769986 49.928,33.063 C49.928,33.2976678 49.8253344,33.5029991 49.62,33.679 Z M55.186,28.828 C55.2153335,29.3193358 55.0466685,30.1809938 54.68,31.413 C54.2913314,32.7330066 53.8513358,33.858662 53.36,34.79 C52.765997,35.8973389 52.2233358,36.451 51.732,36.451 C51.4826654,36.451 51.2425012,36.3410011 51.0115,36.121 C50.7804988,35.9009989 50.665,35.6736678 50.665,35.439 C50.665,35.3289995 50.6979997,35.2300004 50.764,35.142 C50.6466661,31.9813175 50.6026665,29.8326723 50.632,28.696 C50.4779992,28.4466654 50.401,28.2596673 50.401,28.135 C50.401,27.9589991 50.499999,27.8050007 50.698,27.673 C50.8740009,27.5483327 51.0573324,27.486 51.248,27.486 C51.4240009,27.486 51.5706661,27.5373328 51.688,27.64 C52.6413381,27.2659981 53.2756651,27.079 53.591,27.079 C53.7596675,27.079 53.9246659,27.1193329 54.086,27.2 C54.3280012,27.3173339 54.5589989,27.5226652 54.779,27.816 C55.0283346,28.153335 55.1639999,28.490665 55.186,28.828 Z M53.69,28.498 C53.6166663,28.4099996 53.5213339,28.366 53.404,28.366 C53.1766655,28.366 52.7293367,28.6299974 52.062,29.158 C52.0179998,29.7080028 51.996,30.3166633 51.996,30.984 C51.996,31.9373381 52.0399996,32.9199949 52.128,33.932 C52.5166686,32.9859953 52.8759983,31.9923385 53.206,30.951 C53.5580018,29.8289944 53.734,29.0810019 53.734,28.707 C53.734,28.6043328 53.7193335,28.5346668 53.69,28.498 Z"/>
  </g>
</svg>
