<svg xmlns="http://www.w3.org/2000/svg" width="64" height="64" viewBox="0 0 64 64">
  <g fill="none" fill-rule="evenodd">
    <path fill="#FFAF40" d="M34.2,50 L59.0017833,50 C60.6591666,50 62,48.6537881 62,46.9931517 L62,30.0068483 C62,28.3359915 60.6576526,27 59.0017833,27 L23.9982167,27 C22.3408334,27 21,28.3462119 21,30.0068483 L21,46.9931517 C21,48.6640085 22.3423474,50 23.9982167,50 L27,50 L27,58 L34.2,50 Z" transform="matrix(-1 0 0 1 83 0)"/>
    <path fill="#4796E7" d="M18.2,38 L51.0001194,38 C52.6620883,38 54,36.6562465 54,34.9986425 L54,8.00135749 C54,6.33451092 52.6569077,5 51.0001194,5 L5.9998806,5 C4.33791172,5 3,6.34375352 3,8.00135749 L3,34.9986425 C3,36.6654891 4.34309229,38 5.9998806,38 L11,38 L11,46 L18.2,38 Z"/>
    <path fill="#FFF" d="M33.056,20.944 C32.9759996,20.944 32.5120042,20.8320011 31.664,20.608 L26.408,21.448 C26.408,21.9120023 26.4239998,22.3679978 26.456,22.816 L30.224,22.264 C30.7200025,21.8159978 31.071999,21.5760002 31.28,21.544 C31.5840015,21.4959998 31.9159982,21.7239975 32.276,22.228 C32.6360018,22.7320025 32.8559996,23.2319975 32.936,23.728 C32.9840002,24.0640017 32.9200009,24.3559988 32.744,24.604 C32.5679991,24.8520012 32.376001,24.9919998 32.168,25.024 C32.0879996,25.0400001 31.6240042,24.9360011 30.776,24.712 L26.888,25.336 C27.5120031,27.4640106 28.6559917,28.528 30.32,28.528 C30.9920034,28.528 31.5519978,28.2720026 32,27.76 C32.400002,27.2959977 32.6399996,26.7200034 32.72,26.032 C33.0400016,25.3759967 33.599996,25.048 34.4,25.048 C34.8960025,25.048 35.343998,25.1879986 35.744,25.468 C36.144002,25.7480014 36.344,26.087998 36.344,26.488 C36.344,26.5840005 36.3360001,26.6799995 36.32,26.776 C36.2719998,26.9520009 36.1200013,27.1519989 35.864,27.376 C35.5759986,27.6480014 35.4000003,27.8239996 35.336,27.904 C35.2079994,28.112001 34.9360021,28.4879973 34.52,29.032 C33.4799948,30.6800082 32.2720069,31.504 30.896,31.504 C29.0559908,31.504 27.5040063,30.9600054 26.24,29.872 C25.0879942,28.9119952 24.2400027,27.5680086 23.696,25.84 L23,25.936 C22.4719974,26.3520021 22.112001,26.5759998 21.92,26.608 C21.2959969,26.7040005 20.9040008,26.256005 20.744,25.264 C20.7279999,25.1039992 20.72,24.9600006 20.72,24.832 C20.72,23.9519956 21.119996,23.4480006 21.92,23.32 C22.0800008,23.3039999 22.4719969,23.296 23.096,23.296 L23.168,23.296 C23.1039997,22.8639978 23.0640001,22.4240022 23.048,21.976 L22.856,22 C22.3439974,22.400002 21.984001,22.6159998 21.776,22.648 C21.1519969,22.7600006 20.7680007,22.312005 20.624,21.304 C20.5919998,21.1599993 20.576,21.0240006 20.576,20.896 C20.576,20.0159956 20.9839959,19.5120006 21.8,19.384 C21.9440007,19.3519998 22.3359968,19.3439999 22.976,19.36 L23.168,19.336 C23.4720015,17.0319885 24.2319939,15.2000068 25.448,13.84 C26.8240069,12.3199924 28.6399887,11.56 30.896,11.56 C31.6320037,11.56 32.4159958,11.8239974 33.248,12.352 C33.9520035,12.8000022 34.4719983,13.2639976 34.808,13.744 C34.9840009,14.0160014 35.1999987,14.255999 35.456,14.464 C35.7120013,14.672001 35.8479999,14.7839999 35.864,14.8 C35.9920006,15.0240011 36.056,15.2479989 36.056,15.472 C36.056,15.9200022 35.7760028,16.3039984 35.216,16.624 C34.7199975,16.8960014 34.168003,17.032 33.56,17.032 C32.8559965,17.032 32.408001,16.8560018 32.216,16.504 C32.1839998,16.4399997 32.1280004,16.112003 32.048,15.52 C31.9679996,15.3759993 31.7360019,15.1840012 31.352,14.944 C30.9199978,14.6879987 30.5760013,14.56 30.32,14.56 C28.3039899,14.56 27.0640023,15.9839858 26.6,18.832 L31.112,18.184 C31.6240026,17.7359978 31.975999,17.4960002 32.168,17.464 C32.4720015,17.4159998 32.8039982,17.6399975 33.164,18.136 C33.5240018,18.6320025 33.7439996,19.1279975 33.824,19.624 C33.8720002,19.9760018 33.8080009,20.2759988 33.632,20.524 C33.4559991,20.7720012 33.264001,20.9119998 33.056,20.944 Z"/>
  </g>
</svg>
