<svg xmlns="http://www.w3.org/2000/svg" width="64" height="64" viewBox="0 0 64 64">
  <g fill="none" fill-rule="evenodd">
    <path fill="#E43535" d="M8.20251875,35.1083125 L40.0027084,35.1083125 C41.1084602,35.1083125 42,34.2142231 42,33.1113078 L42,11.1053172 C42,10.0032913 41.1057821,9.1083125 40.0027084,9.1083125 L3.99729162,9.1083125 C2.89153983,9.1083125 2,10.0024019 2,11.1053172 L2,33.5541562 L2,42 L8.20251875,35.1083125 Z"/>
    <path fill="#E43535" d="M8.20251875,34 L40.0027084,34 C41.1084602,34 42,33.1059106 42,32.0029953 L42,9.99700466 C42,8.89497885 41.1057821,8 40.0027084,8 L3.99729162,8 C2.89153983,8 2,8.89408944 2,9.99700466 L2,32.4458438 L2,40.8916875 L8.20251875,34 Z"/>
    <path fill="#5EA7FF" d="M30.2025188,50 L62.0027084,50 C63.1084602,50 64,49.1059106 64,48.0029953 L64,25.9970047 C64,24.8949789 63.1057821,24 62.0027084,24 L25.9972916,24 C24.8915398,24 24,24.8940894 24,25.9970047 L24,48.4458438 L24,56.8916875 L30.2025188,50 Z" transform="matrix(-1 0 0 1 88 0)"/>
    <circle cx="37" cy="37" r="2" fill="#D8D8D8"/>
    <circle cx="15" cy="21" r="2" fill="#D8D8D8"/>
    <circle cx="44" cy="37" r="2" fill="#D8D8D8"/>
    <circle cx="22" cy="21" r="2" fill="#D8D8D8"/>
    <circle cx="51" cy="37" r="2" fill="#D8D8D8"/>
    <circle cx="29" cy="21" r="2" fill="#D8D8D8"/>
  </g>
</svg>
