<svg xmlns="http://www.w3.org/2000/svg" width="64" height="64" viewBox="0 0 64 64">
  <g fill="none" fill-rule="evenodd">
    <path fill="#F2EB52" d="M25,20 L40,20 L50.0092876,59.1272152 C50.556443,61.2660952 49.2154131,63 47.0051972,63 L17.9948028,63 C15.7885341,63 14.444837,61.2610918 14.9907124,59.1272152 L25,20 Z"/>
    <path fill="#80D35B" d="M25.8644693,23.9803066 L38.7216121,23.9803066 L46.8412679,59.0488096 C47.0907751,60.1264223 46.3952003,61 45.3014237,61 L19.2846577,61 C18.184718,61 17.4964657,60.1214147 17.7448135,59.0488096 L25.8644693,23.9803066 Z"/>
    <circle cx="28" cy="41" r="3" fill="#5DAF38"/>
    <circle cx="39" cy="54" r="3" fill="#5DAF38"/>
    <circle cx="38.5" cy="44.5" r="1.5" fill="#5DAF38"/>
    <rect width="15" height="11" x="25" y="12" fill="#F2EB52"/>
    <circle cx="32.5" cy="29.5" r="1.5" fill="#5DAF38"/>
    <circle cx="26.5" cy="56.5" r="1.5" fill="#5DAF38"/>
    <circle cx="29.5" cy="19.5" r="1.5" fill="#5DAF38"/>
    <circle cx="34.5" cy="5.5" r="1.5" fill="#5DAF38"/>
    <circle cx="28.5" cy="2.5" r="1.5" fill="#5DAF38"/>
    <rect width="21" height="3" x="22" y="9" fill="#E1DA46"/>
  </g>
</svg>
