<svg xmlns="http://www.w3.org/2000/svg" width="64" height="64" viewBox="0 0 64 64">
  <g fill="none" fill-rule="evenodd">
    <polygon fill="#595959" points="4 12 60 12 60 47 4 47"/>
    <rect width="52" height="31" x="6" y="14" fill="#5B68C0"/>
    <path fill="#4796E7" d="M0,47 L64,47 L64,49.5 C64,50.8807119 62.8891602,52 61.4911242,52 L2.50887585,52 C1.12326198,52 0,50.8903379 0,49.5 L0,47 Z"/>
    <path fill="#56E287" d="M28.664,27.952 C28.6533333,28.1013341 28.5280012,28.2853322 28.288,28.504 C28.0479988,28.7226678 27.8746672,28.832 27.768,28.832 C27.6186659,28.832 27.5280002,28.8373333 27.496,28.848 L27.496,32.88 C27.496,32.8479998 27.5493328,33.0453312 27.656,33.472 C27.7520005,34.1546701 27.6720013,34.5546661 27.416,34.672 C27.3626664,34.6933334 27.2826672,34.704 27.176,34.704 C26.8026648,34.704 26.3226696,34.570668 25.736,34.304 C25.1066635,34.0266653 24.7226674,33.7493347 24.584,33.472 L24.536,33.04 C24.5146666,32.965333 24.5519995,32.8640006 24.648,32.736 C24.7440005,32.6079994 24.792,32.5280002 24.792,32.496 L24.792,29.264 C24.5893323,29.2853334 24.1893363,29.3653326 23.592,29.504 C22.9946637,29.6426674 22.600001,29.749333 22.408,29.824 L22.408,33.072 C22.408,33.146667 22.4426663,33.2346662 22.512,33.336 C22.5813337,33.4373338 22.6213333,33.5146664 22.632,33.568 C22.5893331,33.7386675 22.5520002,33.9039992 22.52,34.064 C22.4879998,34.1813339 22.4293338,34.2559998 22.344,34.288 C22.1733325,34.3520003 21.6960039,34.2533346 20.912,33.992 C20.1279961,33.7306654 19.7146669,33.5200008 19.672,33.36 C19.6399998,33.2426661 19.6293333,33.1146674 19.64,32.976 C19.6720002,32.7626656 19.688,32.6133338 19.688,32.528 L19.688,22.288 C19.688,22.1173325 19.7359995,21.8240021 19.832,21.408 C19.8533334,21.3013328 20.034665,21.152001 20.376,20.96 C20.3973334,20.9493333 20.4559995,20.944 20.552,20.944 C20.9466686,20.944 21.3626645,21.0079994 21.8,21.136 C22.3653362,21.3066675 22.6639998,21.5306653 22.696,21.808 C22.7066667,21.9040005 22.6613338,22.085332 22.56,22.352 C22.4586662,22.618668 22.408,22.7999995 22.408,22.896 L22.408,26.8 C23.133337,26.6186658 23.9279957,26.432001 24.792,26.24 L24.792,21.776 C24.792,21.7546666 24.7680002,21.6746674 24.72,21.536 C24.6719998,21.3973326 24.6586666,21.2853338 24.68,21.2 C24.7333336,21.007999 24.9093318,20.8853336 25.208,20.832 C25.4320011,20.7999998 25.6559989,20.7733334 25.88,20.752 C26.1146678,20.7199998 26.4586644,20.7893325 26.912,20.96 C27.3653356,21.1306675 27.6186664,21.311999 27.672,21.504 C27.6933334,21.5893338 27.6720003,21.7013326 27.608,21.84 C27.533333,22.0213342 27.496,22.1706661 27.496,22.288 L27.496,26.704 C27.5493336,26.7680003 27.7999978,26.9973314 28.248,27.392 C28.5360014,27.6480013 28.6746667,27.8346661 28.664,27.952 Z M42.744,34.48 C42.5199989,34.5013334 42.2693347,34.4720004 41.992,34.392 C41.7146653,34.3119996 41.442668,34.2293338 41.176,34.144 C40.8559984,34.0586662 40.3546701,33.9040011 39.672,33.68 C38.8186624,33.3066648 38.1733355,32.5706722 37.736,31.472 C37.3519981,30.5013285 37.16,29.3280069 37.16,27.952 C37.16,26.8319944 37.3519981,25.5253408 37.736,24.032 C38.2586693,22.0266566 38.9359958,21.024 39.768,21.024 C39.842667,21.024 39.946666,21.0426665 40.08,21.08 C40.213334,21.1173335 40.317333,21.1413333 40.392,21.152 C41.1813373,20.9279989 41.6879989,20.816 41.912,20.816 C42.0186672,20.816 42.1253328,20.8213333 42.232,20.832 C43.5120064,20.9920008 44.5199963,21.7919928 45.256,23.232 C45.9173366,24.5333398 46.248,26.0853243 46.248,27.888 C46.248,29.5946752 45.9493363,31.0613272 45.352,32.288 C44.7119968,33.62134 43.8426722,34.3519994 42.744,34.48 Z M42.456,22.752 C42.2213322,22.6879997 41.9893345,23.0026632 41.76,23.696 C41.5306655,24.3893368 41.2986678,24.736 41.064,24.736 C41.0106664,24.736 40.9333338,24.706667 40.832,24.648 C40.7306662,24.589333 40.6480003,24.5546667 40.584,24.544 C40.2213315,25.344004 40.04,26.4853259 40.04,27.968 C40.04,29.1306725 40.1626654,30.1279958 40.408,30.96 C40.6853347,31.8880046 41.0693309,32.3999995 41.56,32.496 C42.1360029,32.6026672 42.5999982,32.0106731 42.952,30.72 C43.2613349,29.5893277 43.416,28.2453411 43.416,26.688 C43.416,25.6319947 43.3360008,24.7466702 43.176,24.032 C43.0053325,23.2639962 42.7653349,22.8373338 42.456,22.752 Z"/>
    <text fill="#56E287" font-family="MarkerFelt-Wide, Marker Felt" font-size="10" font-weight="bold">
      <tspan x="29.25" y="40">2</tspan>
    </text>
  </g>
</svg>
