<svg xmlns="http://www.w3.org/2000/svg" width="64" height="64" viewBox="0 0 64 64">
  <g fill="none" fill-rule="evenodd">
    <polygon fill="#868686" points="13 5 20 5 20 56.394 13 56.394"/>
    <path fill="#595959" d="M20,5 L52.0000796,5 C53.1046051,5 54,5.894703 54,7.00020325 L54,57.8324082 C54,58.93709 53.1080589,59.8326115 52.0000796,59.8326115 L20,59.8326115 L20,5 Z"/>
    <rect width="5" height="27" x="34" y="16" fill="#FFAF40"/>
    <rect width="19" height="5" x="27" y="22" fill="#FFAF40"/>
    <path fill="#ECECEC" d="M13,56.5 C13,54.5670034 14.5571833,53 16.4956369,53 L54,53 L54,60 L16.4956369,60 C14.56505,60 13,58.4290634 13,56.5 L13,56.5 Z"/>
  </g>
</svg>
