<svg xmlns="http://www.w3.org/2000/svg" width="64" height="64" viewBox="0 0 64 64">
  <g fill="none" fill-rule="evenodd" transform="rotate(-90 38 24.5)">
    <path fill="#FF78C7" fill-rule="nonzero" d="M31,38 C21.6111593,38 14,30.3888407 14,21 C14,11.6111593 21.6111593,4 31,4 C40.3888407,4 48,11.6111593 48,21 C48,30.3888407 40.3888407,38 31,38 Z M31,34 C38.1797017,34 44,28.1797017 44,21 C44,13.8202983 38.1797017,8 31,8 C23.8202983,8 18,13.8202983 18,21 C18,28.1797017 23.8202983,34 31,34 Z"/>
    <path fill="#FF78C7" fill-rule="nonzero" d="M30.7901071 4L5 4C3.8954305 4 3 4.8954305 3 6 3 7.1045695 3.8954305 8 5 8L30.7901071 8C31.8946766 8 32.7901071 7.1045695 32.7901071 6 32.7901071 4.8954305 31.8946766 4 30.7901071 4zM57.7901071 34L32 34C30.8954305 34 30 34.8954305 30 36 30 37.1045695 30.8954305 38 32 38L57.7901071 38C58.8946766 38 59.7901071 37.1045695 59.7901071 36 59.7901071 34.8954305 58.8946766 34 57.7901071 34z"/>
    <path fill="#5B68C0" d="M0.758673325,6.66746738 C-0.247888669,6.20612647 -0.257881209,5.46272498 0.758673325,4.99680415 L9.1135899,0.167467385 C10.1201519,-0.29387353 10.9361316,0.232311933 10.9361316,1.32415278 L10.9361316,10.3401187 C10.9361316,11.4402794 10.1301444,11.962725 9.1135899,11.4968041 L0.758673325,6.66746738 Z"/>
    <path fill="#5B68C0" d="M51.8288142,36.8228564 C50.8222522,36.3615155 50.8122597,35.618114 51.8288142,35.1521932 L60.1837308,30.3228564 C61.1902928,29.8615155 62.0062725,30.387701 62.0062725,31.4795418 L62.0062725,40.4955078 C62.0062725,41.5956684 61.2002853,42.118114 60.1837308,41.6521932 L51.8288142,36.8228564 Z" transform="matrix(-1 0 0 1 113.076 0)"/>
  </g>
</svg>
