<svg xmlns="http://www.w3.org/2000/svg" width="64" height="64" viewBox="0 0 64 64">
  <g fill="none" fill-rule="evenodd">
    <polygon fill="#595959" points="12 3 52 3 52 61 12 61"/>
    <path fill="#FFF" d="M33.2857143 39L37 39C39.7614237 39 42 36.7614237 42 34 42 31.2385763 39.7614237 29 37 29 36.6247816 29 36.2592165 29.0413308 35.9076091 29.1196882 36.5912464 28.2645083 37 27.1799889 37 26 37 23.2385763 34.7614237 21 32 21 29.2385763 21 27 23.2385763 27 26 27 27.1799889 27.4087536 28.2645083 28.0923909 29.1196882 27.7407835 29.0413308 27.3752184 29 27 29 24.2385763 29 22 31.2385763 22 34 22 36.7614237 24.2385763 39 27 39L30.7142857 39 30 44 34 44 33.2857143 39zM19.95 12.2608696L21.25 12.2608696C22.2164983 12.2608696 23 11.4822343 23 10.5217391 23 9.56124391 22.2164983 8.7826087 21.25 8.7826087 21.1186736 8.7826087 20.9907258 8.79698463 20.8676632 8.82423937 21.1069362 8.5267855 21.25 8.14956136 21.25 7.73913043 21.25 6.77863522 20.4664983 6 19.5 6 18.5335017 6 17.75 6.77863522 17.75 7.73913043 17.75 8.14956136 17.8930638 8.5267855 18.1323368 8.82423937 18.0092742 8.79698463 17.8813264 8.7826087 17.75 8.7826087 16.7835017 8.7826087 16 9.56124391 16 10.5217391 16 11.4822343 16.7835017 12.2608696 17.75 12.2608696L19.05 12.2608696 18.8 14 20.2 14 19.95 12.2608696zM45.95 55.2608696L47.25 55.2608696C48.2164983 55.2608696 49 54.4822343 49 53.5217391 49 52.5612439 48.2164983 51.7826087 47.25 51.7826087 47.1186736 51.7826087 46.9907258 51.7969846 46.8676632 51.8242394 47.1069362 51.5267855 47.25 51.1495614 47.25 50.7391304 47.25 49.7786352 46.4664983 49 45.5 49 44.5335017 49 43.75 49.7786352 43.75 50.7391304 43.75 51.1495614 43.8930638 51.5267855 44.1323368 51.8242394 44.0092742 51.7969846 43.8813264 51.7826087 43.75 51.7826087 42.7835017 51.7826087 42 52.5612439 42 53.5217391 42 54.4822343 42.7835017 55.2608696 43.75 55.2608696L45.05 55.2608696 44.8 57 46.2 57 45.95 55.2608696z"/>
  </g>
</svg>
