<svg xmlns="http://www.w3.org/2000/svg" width="64" height="64" viewBox="0 0 64 64">
  <g fill="none" fill-rule="evenodd">
    <circle cx="34" cy="31" r="10" fill="#5EA7FF"/>
    <path fill="#5B68C0" d="M34,14 C31.2385763,14 29,11.7614237 29,9 C29,6.23857625 31.2385763,4 34,4 C36.7614237,4 39,6.23857625 39,9 C39,11.7614237 36.7614237,14 34,14 Z M44.2862419,17.3422026 C42.0522032,15.7190784 41.556959,12.5922301 43.1800832,10.3581914 C44.8032074,8.12415262 47.9300557,7.6289085 50.1640944,9.25203265 C52.3981332,10.8751568 52.8933773,14.0020051 51.2702531,16.2360439 C49.647129,18.4700826 46.5202807,18.9653268 44.2862419,17.3422026 Z M50.643489,26.0922026 C49.7901622,23.4659325 51.2274166,20.6451619 53.8536866,19.791835 C56.4799567,18.9385082 59.3007273,20.3757626 60.1540542,23.0020327 C61.0073811,25.6283027 59.5701266,28.4490733 56.9438566,29.3024002 C54.3175865,30.1557271 51.4968159,28.7184726 50.643489,26.0922026 Z M50.643489,36.9077974 C51.4968159,34.2815274 54.3175865,32.8442729 56.9438566,33.6975998 C59.5701266,34.5509267 61.0073811,37.3716973 60.1540542,39.9979673 C59.3007273,42.6242374 56.4799567,44.0614918 53.8536866,43.208165 C51.2274166,42.3548381 49.7901622,39.5340675 50.643489,36.9077974 Z M44.2862419,45.6577974 C46.5202807,44.0346732 49.647129,44.5299174 51.2702531,46.7639561 C52.8933773,48.9979949 52.3981332,52.1248432 50.1640944,53.7479673 C47.9300557,55.3710915 44.8032074,54.8758474 43.1800832,52.6418086 C41.556959,50.4077699 42.0522032,47.2809216 44.2862419,45.6577974 Z M34,49 C36.7614237,49 39,51.2385763 39,54 C39,56.7614237 36.7614237,59 34,59 C31.2385763,59 29,56.7614237 29,54 C29,51.2385763 31.2385763,49 34,49 Z M23.7137581,45.6577974 C25.9477968,47.2809216 26.443041,50.4077699 24.8199168,52.6418086 C23.1967926,54.8758474 20.0699443,55.3710915 17.8359056,53.7479673 C15.6018668,52.1248432 15.1066227,48.9979949 16.7297469,46.7639561 C18.352871,44.5299174 21.4797193,44.0346732 23.7137581,45.6577974 Z M17.356511,36.9077974 C18.2098378,39.5340675 16.7725834,42.3548381 14.1463134,43.208165 C11.5200433,44.0614918 8.69927267,42.6242374 7.8459458,39.9979673 C6.99261893,37.3716973 8.42987336,34.5509267 11.0561434,33.6975998 C13.6824135,32.8442729 16.5031841,34.2815274 17.356511,36.9077974 Z M17.356511,26.0922026 C16.5031841,28.7184726 13.6824135,30.1557271 11.0561434,29.3024002 C8.42987336,28.4490733 6.99261893,25.6283027 7.8459458,23.0020327 C8.69927267,20.3757626 11.5200433,18.9385082 14.1463134,19.791835 C16.7725834,20.6451619 18.2098378,23.4659325 17.356511,26.0922026 Z M23.7137581,17.3422026 C21.4797193,18.9653268 18.352871,18.4700826 16.7297469,16.2360439 C15.1066227,14.0020051 15.6018668,10.8751568 17.8359056,9.25203265 C20.0699443,7.6289085 23.1967926,8.12415262 24.8199168,10.3581914 C26.443041,12.5922301 25.9477968,15.7190784 23.7137581,17.3422026 Z"/>
  </g>
</svg>
