<svg xmlns="http://www.w3.org/2000/svg" width="64" height="64" viewBox="0 0 64 64">
  <g fill="none" fill-rule="evenodd">
    <rect width="29" height="44" x="30" y="18" fill="#979797"/>
    <path stroke="#595959" stroke-linecap="square" stroke-width="2" d="M34 22L55 22M34 28L55 28M34 34L55 34M34 40L55 40M34 46L55 46M34 52L55 52"/>
    <rect width="20" height="7" x="34" y="11" fill="#595959"/>
    <path stroke="#979797" stroke-linecap="square" stroke-width="2" d="M44,10 L44,5"/>
    <path stroke="#5EA7FF" stroke-linecap="round" stroke-width="2" d="M9,10.9192423 L28.2902106,10.9192423 C29.6443157,10.9192423 30.7420347,9.82750303 30.7420347,8.45962117 L30.7420347,8.45962117 C30.7420347,7.10120991 29.6356849,6 28.280881,6 L26.613581,6"/>
    <path stroke="#5EA7FF" stroke-linecap="round" stroke-width="2" d="M3,20.9192423 L22.2902106,20.9192423 C23.6443157,20.9192423 24.7420347,19.827503 24.7420347,18.4596212 L24.7420347,18.4596212 C24.7420347,17.1012099 23.6356849,16 22.280881,16 L20.613581,16" transform="matrix(1 0 0 -1 0 36.92)"/>
    <path stroke="#5EA7FF" stroke-linecap="round" stroke-width="2" d="M6,42.9192423 L20.2896693,42.9192423 C21.6440733,42.9192423 22.7420347,41.827503 22.7420347,40.4596212 L22.7420347,40.4596212 C22.7420347,39.1012099 21.6356849,38 20.280881,38 L18.613581,38" transform="matrix(1 0 0 -1 0 80.92)"/>
  </g>
</svg>
