<svg xmlns="http://www.w3.org/2000/svg" width="64" height="64" viewBox="0 0 64 64">
  <g fill="none" fill-rule="evenodd">
    <circle cx="32" cy="33" r="27" stroke="#B4DFFB" stroke-linecap="round" stroke-width="3"/>
    <circle cx="32" cy="33" r="22" stroke="#FF78C7" stroke-linecap="round" stroke-width="3"/>
    <circle cx="32" cy="33" r="17" stroke="#5EA7FF" stroke-linecap="round" stroke-width="3"/>
    <path fill="#80D25B" d="M32,42 C52.336554,42 61,62 61,62 L3,62 C3,62 11.663446,42 32,42 Z"/>
    <rect width="29" height="44" x="32" y="18" fill="#979797"/>
    <path stroke="#595959" stroke-linecap="square" stroke-width="2" d="M36 22L57 22M36 28L57 28M36 34L57 34M36 40L57 40M36 46L57 46M36 52L57 52"/>
    <rect width="20" height="7" x="36" y="11" fill="#595959"/>
    <path stroke="#979797" stroke-linecap="square" stroke-width="2" d="M46,10 L46,5"/>
  </g>
</svg>
