<svg xmlns="http://www.w3.org/2000/svg" width="64" height="64" viewBox="0 0 64 64">
  <g fill="none" fill-rule="evenodd">
    <path fill="#22BA8E" d="M1,34.0023695 C1,31.7919219 2.78716697,29.7942228 4.96428975,29.5435455 L18,28.0425936 L31.0357102,29.5435455 C33.225127,29.7956384 35,31.7918218 35,34.0023695 L35,41 L1,41 L1,34.0023695 Z"/>
    <path fill="#FFDD95" d="M12,23.3164468 C8.98979073,20.470456 7,15.8615543 7,12 C7,5.92486775 11.9248678,1 18,1 C24.0751322,1 29,5.92486775 29,12 C29,15.8615543 27.0102093,20.470456 24,23.3164468 L24,30 C24,30 19.9325778,31.4486507 18,31.4486507 C16.0674222,31.4486507 12,30 12,30 L12,23.3164468 Z"/>
    <circle cx="9" cy="17" r="3" fill="#FFDD95"/>
    <circle cx="27" cy="17" r="3" fill="#FFDD95"/>
    <path fill="#F5413E" d="M27,55.0023695 C27,52.7919219 28.787167,50.7942228 30.9642898,50.5435455 L44,49.0425936 L57.0357102,50.5435455 C59.225127,50.7956384 61,52.7918218 61,55.0023695 L61,62 L27,62 L27,55.0023695 Z"/>
    <path fill="#FFDD95" d="M38,44.3164468 C34.9897907,41.470456 33,36.8615543 33,33 C33,26.9248678 37.9248678,22 44,22 C50.0751322,22 55,26.9248678 55,33 C55,36.8615543 53.0102093,41.470456 50,44.3164468 L50,51 C50,51 45.9325778,52.4486507 44,52.4486507 C42.0674222,52.4486507 38,51 38,51 L38,44.3164468 Z"/>
    <circle cx="35" cy="38" r="3" fill="#FFDD95"/>
    <circle cx="53" cy="38" r="3" fill="#FFDD95"/>
  </g>
</svg>
