<svg xmlns="http://www.w3.org/2000/svg" width="64" height="64" viewBox="0 0 64 64">
  <g fill="none" fill-rule="evenodd">
    <path fill="#4796E7" d="M48.8063492,49.5390579 L55.0563492,50.9693927 L47.5563492,32.0563492 L40.0563492,50.9693927 L46.3063492,49.5390579 L46.3063492,61.0563492 L48.8063492,61.0563492 L48.8063492,49.5390579 Z" transform="rotate(-45 47.556 46.556)"/>
    <path fill="#D650C7" d="M17.356,26.936 C15.8359924,30.728019 14.3160076,32.6319999 12.796,32.648 C10.9559908,32.6640001 9.61200424,31.7120096 8.764,29.792 C8.10799672,28.3199926 7.77200008,26.3920119 7.756,24.008 C7.73999992,21.3199866 8.0919964,18.872011 8.812,16.664 C9.64400416,14.0879871 10.7719929,12.7200008 12.196,12.56 C12.404001,12.5439999 12.603999,12.536 12.796,12.536 C14.1240066,12.536 15.1479964,13.1279941 15.868,14.312 C16.3960026,15.2080045 16.8439982,16.6319902 17.212,18.584 C17.4840014,19.3680039 17.62,19.8479991 17.62,20.024 C17.62,20.5520026 17.2920033,20.9599986 16.636,21.248 C16.4919993,21.3120003 16.324001,21.344 16.132,21.344 C15.6679977,21.344 15.1560028,21.1920015 14.596,20.888 C13.9399967,20.5359982 13.612,20.1520021 13.612,19.736 C13.612,19.6719997 13.7239989,19.3600028 13.948,18.8 C13.9159998,18.0959965 13.7880011,17.4280032 13.564,16.796 C13.3399989,16.1639968 13.0840014,15.8160003 12.796,15.752 C12.3479978,15.6399994 11.9560017,16.5279906 11.62,18.416 C11.3319986,19.9840078 11.1560003,21.7119906 11.092,23.6 C11.0439998,25.0240071 11.123999,26.3439939 11.332,27.56 C11.5720012,28.952007 11.9319976,29.6959995 12.412,29.792 C12.7000014,29.8400002 13.043998,29.4800038 13.444,28.712 C13.8280019,28.0079965 14.1479987,27.1760048 14.404,26.216 C14.3719998,26.0559992 14.356,25.9040007 14.356,25.76 C14.356,24.8159953 14.9319942,24.344 16.084,24.344 C16.3400013,24.344 16.5959987,24.3679998 16.852,24.416 C17.6360039,24.5760008 18.028,24.9679969 18.028,25.592 C18.028,26.1040026 17.8040022,26.5519981 17.356,26.936 Z M23.284,32.12 C22.9639984,32.728003 22.3720043,33.032 21.508,33.032 C20.707996,33.032 20.1480016,32.7600027 19.828,32.216 C19.7319995,32.0559992 19.684,31.880001 19.684,31.688 C19.684,31.5279992 19.7399994,31.2640018 19.852,30.896 C19.9640006,30.5279982 20.02,30.2240012 20.02,29.984 L19.924,14.48 L19.924,13.184 C19.9720002,12.975999 20.195998,12.8040007 20.596,12.668 C20.996002,12.5319993 21.4199978,12.464 21.868,12.464 C22.5240033,12.464 22.9399991,12.5839988 23.116,12.824 C23.2920009,13.0640012 23.38,13.3119987 23.38,13.568 C23.38,13.7440009 23.3160006,14.035998 23.188,14.444 C23.0599994,14.852002 22.996,15.1839987 22.996,15.44 L22.996,29.84 C22.996,30.0800012 23.0639993,30.395998 23.2,30.788 C23.3360007,31.180002 23.404,31.4639991 23.404,31.64 C23.404,31.8160009 23.3640004,31.9759993 23.284,32.12 Z M28.9,14 C28.9480002,14.0480002 28.972,14.1279994 28.972,14.24 C28.972,14.3840007 28.9240005,14.6319982 28.828,14.984 C28.7159994,15.4160022 28.6440002,15.7119992 28.612,15.872 C28.5799998,16.0320008 28.5959997,16.3839973 28.66,16.928 C28.66,17.2640017 28.560001,17.4839995 28.36,17.588 C28.159999,17.6920005 27.9080015,17.744 27.604,17.744 C27.1719978,17.744 26.7320022,17.6560009 26.284,17.48 C25.7399973,17.2559989 25.468,16.9600018 25.468,16.592 C25.468,16.4799994 25.5159995,16.324001 25.612,16.124 C25.7080005,15.923999 25.7639999,15.7600006 25.78,15.632 C25.8120002,15.5039994 25.8120002,15.1840026 25.78,14.672 C25.7479998,14.271998 25.827999,14.0000007 26.02,13.856 C26.2760013,13.663999 26.7319967,13.568 27.388,13.568 C28.1080036,13.568 28.6119986,13.7119986 28.9,14 Z M29.212,19.856 C29.212,20.0800011 29.0880012,20.4279976 28.84,20.9 C28.5919988,21.3720024 28.468,21.7599985 28.468,22.064 L28.468,29.12 C28.468,29.4400016 28.5559991,29.8919971 28.732,30.476 C28.9080009,31.0600029 28.996,31.4639989 28.996,31.688 C28.996,32.0080016 28.8680013,32.2479992 28.612,32.408 C28.211998,32.6640013 27.7800023,32.792 27.316,32.792 C26.707997,32.792 26.2760013,32.5840021 26.02,32.168 C25.6839983,31.6559974 25.516,30.1280127 25.516,27.584 C25.516,26.975997 25.5279999,26.0280064 25.552,24.74 C25.5760001,23.4519936 25.588,22.512003 25.588,21.92 C25.588,21.6959989 25.5640002,21.4040018 25.516,21.044 C25.4679998,20.6839982 25.444,20.4240008 25.444,20.264 C25.444,19.7359974 25.6359981,19.2800019 26.02,18.896 C26.1800008,18.7359992 26.4759978,18.656 26.908,18.656 C27.3400022,18.656 27.7719978,18.7239993 28.204,18.86 C28.6360022,18.9960007 28.9119994,19.1519991 29.032,19.328 C29.1520006,19.5040009 29.212,19.6799991 29.212,19.856 Z M39.028,28.016 C39.0119999,28.3680018 38.8600014,28.7279982 38.572,29.096 C38.1239978,29.6240026 37.8360006,30.0239986 37.708,30.296 C36.699995,31.8320077 35.6600054,32.6 34.588,32.6 C33.3239937,32.6 32.3400035,31.9600064 31.636,30.68 C31.0119969,29.5119942 30.7,28.0400089 30.7,26.264 C30.7,24.2319898 31.0839962,22.4640075 31.852,20.96 C32.7000042,19.2959917 33.7959933,18.464 35.14,18.464 C36.1960053,18.464 37.0519967,19.0479942 37.708,20.216 C38.2520027,21.208005 38.524,22.2879942 38.524,23.456 C38.524,23.7760016 38.5000002,24.0559988 38.452,24.296 C38.3399994,24.8400027 37.884004,25.112 37.084,25.112 C36.4599969,25.112 35.9800017,24.9360018 35.644,24.584 C35.4839992,24.4079991 35.404,24.0000032 35.404,23.36 C35.404,23.1999992 35.4119999,22.9680015 35.428,22.664 L35.428,21.968 C35.428,21.2479964 35.3000013,20.888 35.044,20.888 C34.7719986,20.888 34.4840015,21.6759921 34.18,23.252 C33.8759985,24.8280079 33.724,26.3039931 33.724,27.68 C33.724,29.280008 33.9639976,30.08 34.444,30.08 C35.0680031,30.08 35.5319985,29.576005 35.836,28.568 C35.9640006,28.4239993 36.0359999,28.1360022 36.052,27.704 C36.052,27.3199981 36.147999,27.0680006 36.34,26.948 C36.532001,26.8279994 36.8119982,26.768 37.18,26.768 C37.6600024,26.768 38.0759982,26.871999 38.428,27.08 C38.8440021,27.3200012 39.0440001,27.6319981 39.028,28.016 Z M52.156,30.128 C52.1720001,30.2400006 52.18,30.3519994 52.18,30.464 C52.18,31.4240048 51.6440054,32.0719983 50.572,32.408 C50.363999,32.4720003 50.1800008,32.504 50.02,32.504 C49.7319986,32.504 49.4680012,32.3680014 49.228,32.096 C48.8599982,31.695998 48.6360004,31.4720002 48.556,31.424 L44.236,28.4 L44.236,30.416 C44.236,30.5600007 44.2799996,30.7399989 44.368,30.956 C44.4560004,31.1720011 44.5,31.3359994 44.5,31.448 C44.5,31.6240009 44.4120009,31.807999 44.236,32 C43.835998,32.4160021 43.2600038,32.624 42.508,32.624 C41.7879964,32.624 41.324001,32.3840024 41.116,31.904 C41.0199995,31.6799989 40.9879998,31.4480012 41.02,31.208 C41.0840003,30.7919979 41.116,30.5120007 41.116,30.368 L41.116,14.576 C41.0999999,14.2879986 41.1319996,13.8560029 41.212,13.28 C41.3560007,12.9279982 41.7959963,12.752 42.532,12.752 C43.4920048,12.752 44.1079986,12.9279982 44.38,13.28 C44.5240007,13.472001 44.596,13.6799989 44.596,13.904 C44.596,14.0800009 44.5360006,14.3519982 44.416,14.72 C44.2959994,15.0880018 44.236,15.375999 44.236,15.584 C44.2039998,16.5120046 44.2039998,19.1279785 44.236,23.432 C45.1320045,22.5679957 46.283993,21.440007 47.692,20.048 C47.884001,19.855999 48.1319985,19.5120025 48.436,19.016 C48.6120009,18.7279986 48.8759982,18.5360005 49.228,18.44 C49.3240005,18.4079998 49.4359994,18.392 49.564,18.392 C50.0280023,18.392 50.5039976,18.5679982 50.992,18.92 C51.4800024,19.2720018 51.724,19.647998 51.724,20.048 C51.724,20.2720011 51.5640016,20.5439984 51.244,20.864 C50.9239984,21.1840016 50.6040016,21.4879986 50.284,21.776 L46.3,25.904 L50.572,28.976 C50.6040002,29.0080002 50.923997,29.1359989 51.532,29.36 C51.8840018,29.5040007 52.0919997,29.7599982 52.156,30.128 Z"/>
  </g>
</svg>
