<svg xmlns="http://www.w3.org/2000/svg" width="64" height="64" viewBox="0 0 64 64">
  <g fill="none" fill-rule="evenodd">
    <path fill="#0A3586" d="M2,8.99480279 C2,6.78853413 3.79568082,5 6.0065556,5 L59.0040626,5 C60.6586731,5 62,6.33870834 62,7.99652399 L62,42 L2,42 L2,8.99480279 Z"/>
    <circle cx="32" cy="21" r="12" fill="#E43535"/>
    <polygon fill="#FFF" points="38 21 28 26 28 16"/>
    <circle cx="22" cy="38" r="2" fill="#E43535"/>
    <circle cx="27" cy="38" r="2" fill="#5EA7FF"/>
    <circle cx="32" cy="38" r="2" fill="#FFDD95"/>
    <circle cx="37" cy="38" r="2" fill="#80D25B"/>
    <circle cx="42" cy="38" r="2" fill="#B4DFFB"/>
    <path fill="#D8D8D8" d="M2,42 L62,42 L62,46.9983345 C62,48.6561086 60.6626903,50 59.0040626,50 L4.99593743,50 C3.34132688,50 2,48.6609799 2,46.9983345 L2,42 Z"/>
    <circle cx="32" cy="46" r="2" fill="#979797"/>
    <path fill="#979797" d="M25.6128012,50 L37.6128012,50 L39.178831,57.047134 C39.4185061,58.1256721 38.7182875,59 37.6187409,59 L25.6068615,59 C24.5055724,59 23.8082111,58.1206553 24.0467714,57.047134 L25.6128012,50 Z"/>
  </g>
</svg>
