<svg xmlns="http://www.w3.org/2000/svg" width="64" height="64" viewBox="0 0 64 64">
  <g fill="none" fill-rule="evenodd">
    <rect width="34" height="39" x="19" y="12" fill="#0A3586" rx="6"/>
    <circle cx="36" cy="32" r="12" fill="#E43535"/>
    <polygon fill="#FFF" points="42 32 32 37 32 27"/>
    <rect width="2" height="9" x="53" y="23" fill="#5B68C0"/>
    <rect width="2" height="9" x="53" y="34" fill="#5B68C0"/>
    <path fill="#D8D8D8" d="M25.4640367,2.94779813 C25.7600411,1.31977418 27.343312,0 28.9942021,0 L43.0057979,0 C44.6594501,0 46.2412467,1.32685702 46.5359633,2.94779813 L48,11 L24,11 L25.4640367,2.94779813 Z"/>
    <path fill="#979797" d="M25.4640367,54.9477981 C25.7600411,53.3197742 27.343312,52 28.9942021,52 L43.0057979,52 C44.6594501,52 46.2412467,53.326857 46.5359633,54.9477981 L48,63 L24,63 L25.4640367,54.9477981 Z" transform="matrix(1 0 0 -1 0 115)"/>
  </g>
</svg>
