<svg xmlns="http://www.w3.org/2000/svg" width="64" height="64" viewBox="0 0 64 64">
  <g fill="none" fill-rule="evenodd">
    <path fill="#B4DFFB" d="M15,51 C6.71572875,51 0,44.2842712 0,36 C0,27.7157288 6.71572875,21 15,21 C17.1706646,21 19.2336397,21.4610733 21.0963309,22.2906254 C21.9447755,14.8112821 28.2937389,9 36,9 C44.2842712,9 51,15.7157288 51,24 C51,25.0287036 50.8964464,26.0332209 50.6991948,27.0036966 C50.7991647,27.001237 50.8994379,27 51,27 C57.627417,27 63,32.372583 63,39 C63,45.627417 57.627417,51 51,51 L15,51 Z"/>
    <path stroke="#FFF" stroke-linecap="round" stroke-width="2" d="M15,25 C8.92486775,25 4,29.9248678 4,36"/>
    <g fill="#5DAF38" transform="rotate(-180 21.5 30)">
      <path d="M6,1.99700466 C6,0.89408944 6.88670635,0 7.99810135,0 L12.0018986,0 C13.1054196,0 14,0.894978851 14,1.99700466 L14,26 L6,26 L6,1.99700466 Z"/>
      <path d="M9.41913411,20.8132122 C9.73993748,20.3640875 10.2572416,20.3601382 10.5808659,20.8132122 L19.4191341,33.1867878 C19.7399375,33.6359125 19.5446944,34 19.0081969,34 L0.99180311,34 C0.444045377,34 0.257241577,33.6398618 0.58086589,33.1867878 L9.41913411,20.8132122 Z" transform="matrix(1 0 0 -1 0 54)"/>
    </g>
  </g>
</svg>
