<svg xmlns="http://www.w3.org/2000/svg" width="64" height="64" viewBox="0 0 64 64">
  <g fill="none" fill-rule="evenodd">
    <path stroke="#B4DFFB" stroke-linecap="square" stroke-width="2" d="M12 61L12 42M10 62L14 62M32 61L32 42M30 62L34 62M52 61L52 42M50 62L54 62"/>
    <path fill="#4796E7" d="M16,43 C7.71572875,43 1,36.2842712 1,28 C1,19.7157288 7.71572875,13 16,13 C18.1706646,13 20.2336397,13.4610733 22.0963309,14.2906254 C22.9447755,6.81128214 29.2937389,1 37,1 C45.2842712,1 52,7.71572875 52,16 C52,17.0287036 51.8964464,18.0332209 51.6991948,19.0036966 C51.7991647,19.001237 51.8994379,19 52,19 C58.627417,19 64,24.372583 64,31 C64,37.627417 58.627417,43 52,43 L16,43 Z"/>
    <rect width="15" height="9" x="5" y="50" fill="#FF5EAC"/>
    <rect width="15" height="9" x="25" y="50" fill="#80D25B"/>
    <rect width="15" height="9" x="45" y="50" fill="#BD7575"/>
    <path stroke="#FFF" stroke-linecap="round" stroke-width="2" d="M16,17 C9.92486775,17 5,21.9248678 5,28"/>
  </g>
</svg>
