<svg xmlns="http://www.w3.org/2000/svg" width="64" height="64" viewBox="0 0 64 64">
  <g fill="none" fill-rule="evenodd">
    <path fill="#4796E7" d="M20.1904762,37 C14.0101468,37 9,31.8832543 9,25.5714286 C9,19.2596029 14.0101468,14.1428571 20.1904762,14.1428571 C21.8098609,14.1428571 23.3489058,14.4941511 24.7385326,15.1261908 C25.3714992,9.42764354 30.1080275,5 35.8571429,5 C42.0374722,5 47.047619,10.1167457 47.047619,16.4285714 C47.047619,17.2123456 46.9703648,17.9776921 46.8232088,18.7171021 C46.8977895,18.7152282 46.9725965,18.7142857 47.047619,18.7142857 C51.9918825,18.7142857 56,22.8076823 56,27.8571429 C56,32.9066034 51.9918825,37 47.047619,37 L20.1904762,37 Z"/>
    <path stroke="#FFF" stroke-linecap="round" stroke-width="2" d="M20,17 C15.581722,17 12,20.581722 12,25"/>
    <path fill="#80D25B" d="M48.5044647,53.529591 C51.2658885,53.529591 53.5044647,51.1876959 53.5044647,48.2988218 C53.5044647,45.4099477 48.5044647,36.529591 48.5044647,36.529591 C48.5044647,36.529591 43.5044647,45.4099477 43.5044647,48.2988218 C43.5044647,51.1876959 45.743041,53.529591 48.5044647,53.529591 Z" transform="rotate(75 48.504 45.03)"/>
    <path fill="#80D25B" d="M18.5044647,53.529591 C21.2658885,53.529591 23.5044647,51.1876959 23.5044647,48.2988218 C23.5044647,45.4099477 18.5044647,36.529591 18.5044647,36.529591 C18.5044647,36.529591 13.5044647,45.4099477 13.5044647,48.2988218 C13.5044647,51.1876959 15.743041,53.529591 18.5044647,53.529591 Z" transform="scale(-1 1) rotate(75 0 20.914)"/>
    <path stroke="#22BA8E" stroke-linecap="round" stroke-width="2" d="M45,46 C38.372583,46 33,51.372583 33,58"/>
    <path stroke="#22BA8E" stroke-linecap="round" stroke-width="2" d="M33,46 C26.372583,46 21,51.372583 21,58" transform="matrix(-1 0 0 1 54 0)"/>
  </g>
</svg>
