<svg xmlns="http://www.w3.org/2000/svg" width="64" height="64" viewBox="0 0 64 64">
  <g fill="none" fill-rule="evenodd">
    <path fill="#B4DFFB" d="M20.1904762,35 C14.0101468,35 9,29.8832543 9,23.5714286 C9,17.2596029 14.0101468,12.1428571 20.1904762,12.1428571 C21.8098609,12.1428571 23.3489058,12.4941511 24.7385326,13.1261908 C25.3714992,7.42764354 30.1080275,3 35.8571429,3 C42.0374722,3 47.047619,8.11674572 47.047619,14.4285714 C47.047619,15.2123456 46.9703648,15.9776921 46.8232088,16.7171021 C46.8977895,16.7152282 46.9725965,16.7142857 47.047619,16.7142857 C51.9918825,16.7142857 56,20.8076823 56,25.8571429 C56,30.9066034 51.9918825,35 47.047619,35 L20.1904762,35 Z"/>
    <path stroke="#FFF" stroke-linecap="round" stroke-width="2" d="M20,15 C15.581722,15 12,18.581722 12,23"/>
    <circle cx="33" cy="38" r="4" fill="#F53B3E"/>
    <path stroke="#FFAF40" stroke-linecap="round" stroke-width="2" d="M26.636039 31.636039C25.0073593 33.2647186 24 35.5147186 24 38 24 40.4852814 25.0073593 42.7352814 26.636039 44.363961M39.363961 44.363961C40.9926407 42.7352814 42 40.4852814 42 38 42 35.5147186 40.9926407 33.2647186 39.363961 31.636039M22.3933983 27.3933983C19.6789322 30.1078644 18 33.8578644 18 38 18 42.1421356 19.6789322 45.8921356 22.3933983 48.6066017M43.6066017 48.6066017C46.3210678 45.8921356 48 42.1421356 48 38 48 33.8578644 46.3210678 30.1078644 43.6066017 27.3933983"/>
    <path stroke="#FFAF40" stroke-linecap="round" stroke-width="2" d="M18.1507576,23.1507576 C14.3505051,26.9510101 12,32.2010101 12,38 C12,43.7989899 14.3505051,49.0489899 18.1507576,52.8492424 M47.8492424,52.8492424 C51.6494949,49.0489899 54,43.7989899 54,38 C54,32.2010101 51.6494949,26.9510101 47.8492424,23.1507576"/>
    <path stroke="#F53B3E" stroke-linecap="square" stroke-width="2" d="M33,41 L33,62"/>
  </g>
</svg>
