<svg xmlns="http://www.w3.org/2000/svg" width="64" height="64" viewBox="0 0 64 64">
  <g fill="none" fill-rule="evenodd">
    <path fill="#B4DFFB" d="M16,51 C7.71572875,51 1,44.2842712 1,36 C1,27.7157288 7.71572875,21 16,21 C18.1706646,21 20.2336397,21.4610733 22.0963309,22.2906254 C22.9447755,14.8112821 29.2937389,9 37,9 C45.2842712,9 52,15.7157288 52,24 C52,25.0287036 51.8964464,26.0332209 51.6991948,27.0036966 C51.7991647,27.001237 51.8994379,27 52,27 C58.627417,27 64,32.372583 64,39 C64,45.627417 58.627417,51 52,51 L16,51 Z"/>
    <path stroke="#FFF" stroke-linecap="round" stroke-width="2" d="M16,25 C9.92486775,25 5,29.9248678 5,36"/>
    <path fill="#FF5EAC" d="M30,27.9970047 C30,26.8940894 30.8867064,26 31.9981014,26 L36.0018986,26 C37.1054196,26 38,26.8949789 38,27.9970047 L38,52 L30,52 L30,27.9970047 Z"/>
    <path fill="#FF5EAC" d="M33.4191341,46.8132122 C33.7399375,46.3640875 34.2572416,46.3601382 34.5808659,46.8132122 L43.4191341,59.1867878 C43.7399375,59.6359125 43.5446944,60 43.0081969,60 L24.9918031,60 C24.4440454,60 24.2572416,59.6398618 24.5808659,59.1867878 L33.4191341,46.8132122 Z" transform="matrix(1 0 0 -1 0 106)"/>
  </g>
</svg>
