<svg xmlns="http://www.w3.org/2000/svg" xmlns:xlink="http://www.w3.org/1999/xlink" width="64" height="64" viewBox="0 0 64 64">
  <defs>
    <circle id="cloudearth-a" cx="18" cy="18" r="18"/>
  </defs>
  <g fill="none" fill-rule="evenodd">
    <path fill="#4796E7" d="M21.1904762,34 C15.0101468,34 10,28.8832543 10,22.5714286 C10,16.2596029 15.0101468,11.1428571 21.1904762,11.1428571 C22.8098609,11.1428571 24.3489058,11.4941511 25.7385326,12.1261908 C26.3714992,6.42764354 31.1080275,2 36.8571429,2 C43.0374722,2 48.047619,7.11674572 48.047619,13.4285714 C48.047619,14.2123456 47.9703648,14.9776921 47.8232088,15.7171021 C47.8977895,15.7152282 47.9725965,15.7142857 48.047619,15.7142857 C52.9918825,15.7142857 57,19.8076823 57,24.8571429 C57,29.9066034 52.9918825,34 48.047619,34 L21.1904762,34 Z"/>
    <path stroke="#FFF" stroke-linecap="round" stroke-width="2" d="M21,14 C16.581722,14 13,17.581722 13,22"/>
    <g transform="translate(17 27)">
      <mask id="cloudearth-b" fill="#fff">
        <use xlink:href="#cloudearth-a"/>
      </mask>
      <use fill="#80D25B" xlink:href="#cloudearth-a"/>
      <path fill="#22BA8E" d="M27.4995846 12.7538974C27.4995846 12.7538974 23.1285694 10.9700507 21.8266173 11.861974 20.5246651 12.7538974 21.2201882 16.9654295 21.2201882 16.9654295 21.2201882 16.9654295 19.2798118 19.7463344 20.25 21.2089567 21.2201882 22.671579 23.9151553 22.168808 25.4292591 23.4589466 26.943363 24.7490852 26.3142913 27.0645419 26.3142913 27.0645419L25.9480711 29.7678769C25.9480711 29.7678769 30.0035659 27.9505584 31.1721233 25.3323794 32.3406807 22.7142004 31.9621547 18.6094825 31.9621547 18.6094825L34.3292957 16.4633535 36.4108786 9.71288388 29.106228 7.35052093 28.3014296 3.75 23.0778696 5.23063215 22.6058196 9.15765453 26.6178479 10.4860101 27.4995846 12.7538974zM-1.35808945 15.0302297C-1.35808945 15.0302297.119366474 14.0882415.316563573 14.0732515 1.82943665 13.95825 7.10128473 14.2798648 8.47967433 12.2815326 10.0377316 10.0227256 11.3365045 7.03166932 11.3365045 7.03166932L11.2843185 4.73031431 3.13766281 2.73102683-1.35808945 15.0302297z" mask="url(#cloudearth-b)"/>
    </g>
  </g>
</svg>
