<svg xmlns="http://www.w3.org/2000/svg" width="64" height="64" viewBox="0 0 64 64">
  <g fill="none" fill-rule="evenodd">
    <path fill="#4796E7" d="M20.1904762,38 C14.0101468,38 9,32.8832543 9,26.5714286 C9,20.2596029 14.0101468,15.1428571 20.1904762,15.1428571 C21.8098609,15.1428571 23.3489058,15.4941511 24.7385326,16.1261908 C25.3714992,10.4276435 30.1080275,6 35.8571429,6 C42.0374722,6 47.047619,11.1167457 47.047619,17.4285714 C47.047619,18.2123456 46.9703648,18.9776921 46.8232088,19.7171021 C46.8977895,19.7152282 46.9725965,19.7142857 47.047619,19.7142857 C51.9918825,19.7142857 56,23.8076823 56,28.8571429 C56,33.9066034 51.9918825,38 47.047619,38 L20.1904762,38 Z"/>
    <path stroke="#FFF" stroke-linecap="round" stroke-width="2" d="M20,18 C15.581722,18 12,21.581722 12,26"/>
    <circle cx="32.607" cy="58" r="3" fill="#5DAF38"/>
    <path stroke="#5DAF38" stroke-linecap="round" stroke-width="2" d="M37.5563492 53.0502525C36.2895983 51.7835017 34.5395983 51 32.6066017 51 30.6736051 51 28.9236051 51.7835017 27.6568542 53.0502525M40.3847763 50.2218254C38.3941678 48.2312169 35.6441678 47 32.6066017 47 29.5690356 47 26.8190356 48.2312169 24.8284271 50.2218254"/>
    <path stroke="#5DAF38" stroke-linecap="round" stroke-width="2" d="M43.2132034,47.3933983 C40.4987373,44.6789322 36.7487373,43 32.6066017,43 C28.4644661,43 24.7144661,44.6789322 22,47.3933983"/>
  </g>
</svg>
