<svg xmlns="http://www.w3.org/2000/svg" width="64" height="64" viewBox="0 0 64 64">
  <g fill="none" fill-rule="evenodd">
    <path fill="#5EA7FF" d="M23,28 C18.0294373,28 14,23.9705627 14,19 C14,14.0294373 18.0294373,10 23,10 C24.4602868,10 25.8393443,10.347784 27.0588622,10.9650417 C27.5721485,6.4819356 31.3794494,3 36,3 C40.9705627,3 45,7.02943725 45,12 C45,12.6886385 44.9226579,13.3592127 44.7761863,14.0035102 C44.8505046,14.0011759 44.925115,14 45,14 C48.8659932,14 52,17.1340068 52,21 C52,24.8659932 48.8659932,28 45,28 L23,28 Z" transform="matrix(-1 0 0 1 66 0)"/>
    <path fill="#979797" fill-rule="nonzero" d="M31.9988961,34.0030243 L31.9988961,44.0591842 C31.9988961,45.7274753 30.6634779,47.0842157 29.0250889,47.0842157 L22.0344847,47.0842157 C19.2607722,47.0842157 17,49.2776929 17,52.0437537 L17,57.9969757 C17,58.5509307 17.4479624,59 18.0005519,59 C18.5531415,59 19.0011039,58.5509307 19.0011039,57.9969757 L19.0011039,52.0437537 C19.0011039,50.4005411 20.3515793,49.0902644 22.0344847,49.0902644 L29.0250889,49.0902644 C31.7746913,49.0902644 34,46.8294249 34,44.0591842 L34,34.0030243 C34,33.4490693 33.5520376,33 32.9994481,33 C32.4468585,33 31.9988961,33.4490693 31.9988961,34.0030243 Z"/>
    <path fill="#979797" fill-rule="nonzero" d="M46.9988961,34.0030243 L46.9988961,44.0591842 C46.9988961,45.7274753 45.6634779,47.0842157 44.0250889,47.0842157 L37.0344847,47.0842157 C34.2607722,47.0842157 32,49.2776929 32,52.0437537 L32,57.9969757 C32,58.5509307 32.4479624,59 33.0005519,59 C33.5531415,59 34.0011039,58.5509307 34.0011039,57.9969757 L34.0011039,52.0437537 C34.0011039,50.4005411 35.3515793,49.0902644 37.0344847,49.0902644 L44.0250889,49.0902644 C46.7746913,49.0902644 49,46.8294249 49,44.0591842 L49,34.0030243 C49,33.4490693 48.5520376,33 47.9994481,33 C47.4468585,33 46.9988961,33.4490693 46.9988961,34.0030243 Z" transform="matrix(-1 0 0 1 81 0)"/>
    <polygon fill="#979797" points="33 30 38 37 28 37"/>
  </g>
</svg>
