<svg xmlns="http://www.w3.org/2000/svg" width="64" height="64" viewBox="0 0 64 64">
  <g fill="none" fill-rule="evenodd">
    <path fill="#325AA6" d="M16,50 C7.71572875,50 1,43.2842712 1,35 C1,26.7157288 7.71572875,20 16,20 C18.1706646,20 20.2336397,20.4610733 22.0963309,21.2906254 C22.9447755,13.8112821 29.2937389,8 37,8 C45.2842712,8 52,14.7157288 52,23 C52,24.0287036 51.8964464,25.0332209 51.6991948,26.0036966 C51.7991647,26.001237 51.8994379,26 52,26 C58.627417,26 64,31.372583 64,38 C64,44.627417 58.627417,50 52,50 L16,50 Z"/>
    <path fill="#80D25B" d="M31.5044647,37.529591 C34.2658885,37.529591 36.5044647,35.1876959 36.5044647,32.2988218 C36.5044647,29.4099477 31.5044647,20.529591 31.5044647,20.529591 C31.5044647,20.529591 26.5044647,29.4099477 26.5044647,32.2988218 C26.5044647,35.1876959 28.743041,37.529591 31.5044647,37.529591 Z" transform="scale(-1 1) rotate(75 0 -12.028)"/>
    <path stroke="#22BA8E" stroke-linecap="round" stroke-width="2" d="M46,30 C39.372583,30 34,35.372583 34,42" transform="matrix(-1 0 0 1 80 0)"/>
    <path stroke="#5EA7FF" stroke-linecap="round" stroke-width="2" d="M16,24 C9.92486775,24 5,28.9248678 5,35"/>
  </g>
</svg>
