<svg xmlns="http://www.w3.org/2000/svg" width="64" height="64" viewBox="0 0 64 64">
  <g fill="none" fill-rule="evenodd">
    <path fill="#5EA7FF" d="M23,28 C18.0294373,28 14,23.9705627 14,19 C14,14.0294373 18.0294373,10 23,10 C24.4602868,10 25.8393443,10.347784 27.0588622,10.9650417 C27.5721485,6.4819356 31.3794494,3 36,3 C40.9705627,3 45,7.02943725 45,12 C45,12.6886385 44.9226579,13.3592127 44.7761863,14.0035102 C44.8505046,14.0011759 44.925115,14 45,14 C48.8659932,14 52,17.1340068 52,21 C52,24.8659932 48.8659932,28 45,28 L23,28 Z" transform="matrix(-1 0 0 1 66 0)"/>
    <g transform="matrix(-1 0 0 1 52 33)">
      <path stroke="#979797" stroke-linecap="round" stroke-width="2" d="M13.9696036,11 C13.9696036,4.92486775 18.8944714,0 24.9696036,0 C31.0447359,0 35.9696036,4.92486775 35.9696036,11 C35.9696036,17.0751322 31.0447359,22 24.9696036,22 L6.41336365,22"/>
      <polygon fill="#979797" points="0 22 7 17 7 27"/>
    </g>
  </g>
</svg>
