<svg xmlns="http://www.w3.org/2000/svg" xmlns:xlink="http://www.w3.org/1999/xlink" width="64" height="64" viewBox="0 0 64 64">
  <defs>
    <circle id="cloudmagnify-a" cx="13" cy="13" r="13"/>
  </defs>
  <g fill="none" fill-rule="evenodd">
    <path fill="#4796E7" d="M15.1904762,36 C9.01014685,36 4,30.8832543 4,24.5714286 C4,18.2596029 9.01014685,13.1428571 15.1904762,13.1428571 C16.8098609,13.1428571 18.3489058,13.4941511 19.7385326,14.1261908 C20.3714992,8.42764354 25.1080275,4 30.8571429,4 C37.0374722,4 42.047619,9.11674572 42.047619,15.4285714 C42.047619,16.2123456 41.9703648,16.9776921 41.8232088,17.7171021 C41.8977895,17.7152282 41.9725965,17.7142857 42.047619,17.7142857 C46.9918825,17.7142857 51,21.8076823 51,26.8571429 C51,31.9066034 46.9918825,36 42.047619,36 L15.1904762,36 Z"/>
    <path stroke="#FFF" stroke-linecap="round" stroke-width="2" d="M15,16 C10.581722,16 7,19.581722 7,24"/>
    <rect width="3" height="27" x="50.107" y="39.107" fill="#BD7575" transform="rotate(-45 51.607 52.607)"/>
    <g transform="translate(26 26)">
      <use fill="#E3F4FF" stroke="#B4DFFB" stroke-width="2" xlink:href="#cloudmagnify-a"/>
    </g>
    <path fill="#80D25B" d="M37.5044647,46.529591 C40.2658885,46.529591 42.5044647,44.1876959 42.5044647,41.2988218 C42.5044647,38.4099477 37.5044647,29.529591 37.5044647,29.529591 C37.5044647,29.529591 32.5044647,38.4099477 32.5044647,41.2988218 C32.5044647,44.1876959 34.743041,46.529591 37.5044647,46.529591 Z" transform="scale(-1 1) rotate(75 0 -10.847)"/>
    <path stroke="#22BA8E" stroke-linecap="round" stroke-width="2" d="M40.0334295,38.6697314 C40.0334295,38.6697314 45.9335168,40.0725009 47.8678694,42.3610112"/>
  </g>
</svg>
