<svg xmlns="http://www.w3.org/2000/svg" width="64" height="64" viewBox="0 0 64 64">
  <g fill="none" fill-rule="evenodd">
    <path fill="#B4DFFB" d="M16,51 C7.71572875,51 1,44.2842712 1,36 C1,27.7157288 7.71572875,21 16,21 C18.1706646,21 20.2336397,21.4610733 22.0963309,22.2906254 C22.9447755,14.8112821 29.2937389,9 37,9 C45.2842712,9 52,15.7157288 52,24 C52,25.0287036 51.8964464,26.0332209 51.6991948,27.0036966 C51.7991647,27.001237 51.8994379,27 52,27 C58.627417,27 64,32.372583 64,39 C64,45.627417 58.627417,51 52,51 L16,51 Z"/>
    <path stroke="#FFF" stroke-linecap="round" stroke-width="2" d="M16,25 C9.92486775,25 5,29.9248678 5,36"/>
    <path fill="#FF5EAC" d="M20,27.9970047 C20,26.8940894 20.8867064,26 21.9981014,26 L26.0018986,26 C27.1054196,26 28,26.8949789 28,27.9970047 L28,52 L20,52 L20,27.9970047 Z"/>
    <path fill="#FF5EAC" d="M23.4191341,46.8132122 C23.7399375,46.3640875 24.2572416,46.3601382 24.5808659,46.8132122 L33.4191341,59.1867878 C33.7399375,59.6359125 33.5446944,60 33.0081969,60 L14.9918031,60 C14.4440454,60 14.2572416,59.6398618 14.5808659,59.1867878 L23.4191341,46.8132122 Z" transform="matrix(1 0 0 -1 0 106)"/>
    <g fill="#5DAF38" transform="rotate(-180 26.5 29.5)">
      <path d="M6,1.99700466 C6,0.89408944 6.88670635,0 7.99810135,0 L12.0018986,0 C13.1054196,0 14,0.894978851 14,1.99700466 L14,26 L6,26 L6,1.99700466 Z"/>
      <path d="M9.41913411,20.8132122 C9.73993748,20.3640875 10.2572416,20.3601382 10.5808659,20.8132122 L19.4191341,33.1867878 C19.7399375,33.6359125 19.5446944,34 19.0081969,34 L0.99180311,34 C0.444045377,34 0.257241577,33.6398618 0.58086589,33.1867878 L9.41913411,20.8132122 Z" transform="matrix(1 0 0 -1 0 54)"/>
    </g>
  </g>
</svg>
