<svg xmlns="http://www.w3.org/2000/svg" xmlns:xlink="http://www.w3.org/1999/xlink" width="64" height="64" viewBox="0 0 64 64">
  <defs>
    <circle id="cloudinvestigate-a" cx="13" cy="13" r="13"/>
  </defs>
  <g fill="none" fill-rule="evenodd">
    <path fill="#4796E7" d="M13.1904762,34 C7.01014685,34 2,28.8832543 2,22.5714286 C2,16.2596029 7.01014685,11.1428571 13.1904762,11.1428571 C14.8098609,11.1428571 16.3489058,11.4941511 17.7385326,12.1261908 C18.3714992,6.42764354 23.1080275,2 28.8571429,2 C35.0374722,2 40.047619,7.11674572 40.047619,13.4285714 C40.047619,14.2123456 39.9703648,14.9776921 39.8232088,15.7171021 C39.8977895,15.7152282 39.9725965,15.7142857 40.047619,15.7142857 C44.9918825,15.7142857 49,19.8076823 49,24.8571429 C49,29.9066034 44.9918825,34 40.047619,34 L13.1904762,34 Z"/>
    <path stroke="#FFF" stroke-linecap="round" stroke-width="2" d="M13,14 C8.581722,14 5,17.581722 5,22"/>
    <rect width="3" height="27" x="48.107" y="37.107" fill="#BD7575" transform="rotate(-45 49.607 50.607)"/>
    <g transform="translate(24 24)">
      <mask id="cloudinvestigate-b" fill="#fff">
        <use xlink:href="#cloudinvestigate-a"/>
      </mask>
      <use fill="#E3F4FF" stroke="#B4DFFB" stroke-width="2" xlink:href="#cloudinvestigate-a"/>
      <rect width="4" height="37" x="6.982" y="-7.479" fill="#B5DFFB" mask="url(#cloudinvestigate-b)" transform="rotate(30 8.982 11.021)"/>
    </g>
  </g>
</svg>
