<svg xmlns="http://www.w3.org/2000/svg" width="64" height="64" viewBox="0 0 64 64">
  <g fill="none" fill-rule="evenodd">
    <path fill="#4796E7" d="M16,43 C7.71572875,43 1,36.2842712 1,28 C1,19.7157288 7.71572875,13 16,13 C18.1706646,13 20.2336397,13.4610733 22.0963309,14.2906254 C22.9447755,6.81128214 29.2937389,1 37,1 C45.2842712,1 52,7.71572875 52,16 C52,17.0287036 51.8964464,18.0332209 51.6991948,19.0036966 C51.7991647,19.001237 51.8994379,19 52,19 C58.627417,19 64,24.372583 64,31 C64,37.627417 58.627417,43 52,43 L16,43 Z"/>
    <path stroke="#FFF" stroke-linecap="round" stroke-width="2" d="M16,17 C9.92486775,17 5,21.9248678 5,28"/>
    <polygon fill="#E8E8E8" points="22 23 45.957 23 50 26.777 50 64 22 64"/>
    <path stroke="#D8D8D8" stroke-linecap="square" stroke-width="2" d="M27 40L45 40M27 44L45 44M27 48L45 48M27 52L45 52"/>
    <rect width="9" height="10" x="26" y="27" fill="#D8D8D8"/>
  </g>
</svg>
