<svg xmlns="http://www.w3.org/2000/svg" width="64" height="64" viewBox="0 0 64 64">
  <g fill="none" fill-rule="evenodd">
    <path fill="#5EA7FF" d="M23,28 C18.0294373,28 14,23.9705627 14,19 C14,14.0294373 18.0294373,10 23,10 C24.4602868,10 25.8393443,10.347784 27.0588622,10.9650417 C27.5721485,6.4819356 31.3794494,3 36,3 C40.9705627,3 45,7.02943725 45,12 C45,12.6886385 44.9226579,13.3592127 44.7761863,14.0035102 C44.8505046,14.0011759 44.925115,14 45,14 C48.8659932,14 52,17.1340068 52,21 C52,24.8659932 48.8659932,28 45,28 L23,28 Z" transform="matrix(-1 0 0 1 66 0)"/>
    <g fill="#979797" transform="matrix(1 0 0 -1 17 59)">
      <path fill-rule="nonzero" d="M14.9906221,4 L14.9906221,14.0258382 C14.9906221,15.689099 13.6559405,17.0417486 12.0184554,17.0417486 L5.03170751,17.0417486 C2.25952507,17.0417486 0,19.2286119 0,21.9863325 L0,27.921604 C0,28.4738888 0.44771525,28.921604 1,28.921604 C1.55228475,28.921604 2,28.4738888 2,27.921604 L2,21.9863325 C2,20.3480745 3.34973047,19.0417486 5.03170751,19.0417486 L12.0184554,19.0417486 C14.766541,19.0417486 16.9906221,16.7877261 16.9906221,14.0258382 L16.9906221,4 C16.9906221,3.44771525 16.5429069,3 15.9906221,3 C15.4383374,3 14.9906221,3.44771525 14.9906221,4 Z"/>
      <path fill-rule="nonzero" d="M29.9906221,4 L29.9906221,14.0258382 C29.9906221,15.689099 28.6559405,17.0417486 27.0184554,17.0417486 L20.0317075,17.0417486 C17.2595251,17.0417486 15,19.2286119 15,21.9863325 L15,27.921604 C15,28.4738888 15.4477153,28.921604 16,28.921604 C16.5522847,28.921604 17,28.4738888 17,27.921604 L17,21.9863325 C17,20.3480745 18.3497305,19.0417486 20.0317075,19.0417486 L27.0184554,19.0417486 C29.766541,19.0417486 31.9906221,16.7877261 31.9906221,14.0258382 L31.9906221,4 C31.9906221,3.44771525 31.5429069,3 30.9906221,3 C30.4383374,3 29.9906221,3.44771525 29.9906221,4 Z" transform="matrix(-1 0 0 1 46.99 0)"/>
      <polygon points="16 0 21 7 11 7"/>
    </g>
  </g>
</svg>
