<svg xmlns="http://www.w3.org/2000/svg" width="64" height="64" viewBox="0 0 64 64">
  <g fill="none" fill-rule="evenodd">
    <rect width="39" height="4" x="13" y="50" fill="#5EA7FF"/>
    <path fill="#B4DFFB" d="M16,51 C7.71572875,51 1,44.2842712 1,36 C1,27.7157288 7.71572875,21 16,21 C18.1706646,21 20.2336397,21.4610733 22.0963309,22.2906254 C22.9447755,14.8112821 29.2937389,9 37,9 C45.2842712,9 52,15.7157288 52,24 C52,25.0287036 51.8964464,26.0332209 51.6991948,27.0036966 C51.7991647,27.001237 51.8994379,27 52,27 C58.627417,27 64,32.372583 64,39 C64,45.627417 58.627417,51 52,51 L16,51 Z" transform="matrix(-1 0 0 1 65 0)"/>
    <path stroke="#FFF" stroke-linecap="round" stroke-width="2" d="M60,25 C53.9248678,25 49,29.9248678 49,36" transform="matrix(-1 0 0 1 109 0)"/>
  </g>
</svg>
