<svg xmlns="http://www.w3.org/2000/svg" width="64" height="64" viewBox="0 0 64 64">
  <g fill="none" fill-rule="evenodd">
    <path fill="#5EA7FF" d="M22,28 C17.0294373,28 13,23.9705627 13,19 C13,14.0294373 17.0294373,10 22,10 C23.4602868,10 24.8393443,10.347784 26.0588622,10.9650417 C26.5721485,6.4819356 30.3794494,3 35,3 C39.9705627,3 44,7.02943725 44,12 C44,12.6886385 43.9226579,13.3592127 43.7761863,14.0035102 C43.8505046,14.0011759 43.925115,14 44,14 C47.8659932,14 51,17.1340068 51,21 C51,24.8659932 47.8659932,28 44,28 L22,28 Z" transform="matrix(-1 0 0 1 64 0)"/>
    <g transform="matrix(-1 0 0 1 57 33)">
      <path stroke="#979797" stroke-linecap="round" stroke-width="2" d="M13.9696036,11 C13.9696036,4.92486775 18.8944714,0 24.9696036,0 C31.0447359,0 35.9696036,4.92486775 35.9696036,11 C35.9696036,17.0751322 31.0447359,22 24.9696036,22 L6.41336365,22"/>
      <polygon fill="#979797" points="0 22 7 17 7 27"/>
    </g>
    <g transform="translate(7 44)">
      <path stroke="#979797" stroke-linecap="round" stroke-width="2" d="M35.9696036,0 C35.9696036,6.07513225 31.0447359,11 24.9696036,11 L6.41336365,11"/>
      <polygon fill="#979797" points="0 11 7 6 7 16"/>
    </g>
  </g>
</svg>
