<svg xmlns="http://www.w3.org/2000/svg" width="64" height="64" viewBox="0 0 64 64">
  <g fill="none" fill-rule="evenodd">
    <polygon fill="#C13F98" points="11 6 19 6 19 55.833 11 55.833"/>
    <rect width="35" height="54.833" x="18" y="6" fill="#FF5EAC"/>
    <path fill="#B4DFFB" d="M5 50C2.23857625 50 0 47.7614237 0 45 0 42.2385763 2.23857625 40 5 40 5.72355485 40 6.41121322 40.1536911 7.03211029 40.4302085 7.31492518 37.937094 9.43124631 36 12 36 14.7614237 36 17 38.2385763 17 41 17 41.3429012 16.9654821 41.6777403 16.8997316 42.0012322 16.9330549 42.0004123 16.9664793 42 17 42 19.209139 42 21 43.790861 21 46 21 48.209139 19.209139 50 17 50L5 50zM48 37C45.2385763 37 43 34.7614237 43 32 43 29.2385763 45.2385763 27 48 27 48.7235549 27 49.4112132 27.1536911 50.0321103 27.4302085 50.3149252 24.937094 52.4312463 23 55 23 57.7614237 23 60 25.2385763 60 28 60 28.3429012 59.9654821 28.6777403 59.8997316 29.0012322 59.9330549 29.0004123 59.9664793 29 60 29 62.209139 29 64 30.790861 64 33 64 35.209139 62.209139 37 60 37L48 37zM13 14C10.2385763 14 8 11.7614237 8 9 8 6.23857625 10.2385763 4 13 4 13.7235549 4 14.4112132 4.15369109 15.0321103 4.43020845 15.3149252 1.93709405 17.4312463 0 20 0 22.7614237 0 25 2.23857625 25 5 25 5.34290119 24.9654821 5.67774031 24.8997316 6.00123219 24.9330549 6.00041233 24.9664793 6 25 6 27.209139 6 29 7.790861 29 10 29 12.209139 27.209139 14 25 14L13 14z"/>
    <polygon fill="#325AA6" points="32 4 47 4 47 23 39.5 16.439 32 23"/>
    <path fill="#595959" d="M11,56.5 C11,54.0147186 13.0115977,52 15.4947357,52 L53,52 L53,61 L15.4947357,61 C13.0123617,61 11,58.9802243 11,56.5 L11,56.5 Z"/>
  </g>
</svg>
