<svg xmlns="http://www.w3.org/2000/svg" width="64" height="64" viewBox="0 0 64 64">
  <g fill="none" fill-rule="evenodd">
    <path fill="#5EA7FF" d="M23,28 C18.0294373,28 14,23.9705627 14,19 C14,14.0294373 18.0294373,10 23,10 C24.4602868,10 25.8393443,10.347784 27.0588622,10.9650417 C27.5721485,6.4819356 31.3794494,3 36,3 C40.9705627,3 45,7.02943725 45,12 C45,12.6886385 44.9226579,13.3592127 44.7761863,14.0035102 C44.8505046,14.0011759 44.925115,14 45,14 C48.8659932,14 52,17.1340068 52,21 C52,24.8659932 48.8659932,28 45,28 L23,28 Z" transform="matrix(-1 0 0 1 66 0)"/>
    <path stroke="#979797" stroke-linecap="round" stroke-width="2" d="M27.66969,44 C27.66969,37.9248678 32.6685002,33 38.834845,33 C45.0011898,33 50,37.9248678 50,44 C50,50.0751322 45.0011898,55 38.834845,55 L20,55"/>
    <polygon fill="#979797" points="14 55 21 50 21 60"/>
  </g>
</svg>
