<svg xmlns="http://www.w3.org/2000/svg" width="64" height="64" viewBox="0 0 64 64">
  <g fill="none" fill-rule="evenodd">
    <path fill="#22BA8E" d="M22.7601916,17.4170459 L19.6152237,14.2720779 L25.2720779,8.61522369 L28.4170459,11.7601916 C30.1088432,10.6941326 31.9905797,9.9019945 34,9.44603285 L34,5 L42,5 L42,9.44603285 C44.0094203,9.9019945 45.8911568,10.6941326 47.5829541,11.7601916 L50.7279221,8.61522369 L56.3847763,14.2720779 L53.2398084,17.4170459 C54.3058674,19.1088432 55.0980055,20.9905797 55.5539672,23 L60,23 L60,31 L55.5539672,31 C55.0980055,33.0094203 54.3058674,34.8911568 53.2398084,36.5829541 L56.3847763,39.7279221 L50.7279221,45.3847763 L47.5829541,42.2398084 C45.8911568,43.3058674 44.0094203,44.0980055 42,44.5539672 L42,49 L34,49 L34,44.5539672 C31.9905797,44.0980055 30.1088432,43.3058674 28.4170459,42.2398084 L25.2720779,45.3847763 L19.6152237,39.7279221 L22.7601916,36.5829541 C21.6941326,34.8911568 20.9019945,33.0094203 20.4460328,31 L16,31 L16,23 L20.4460328,23 C20.9019945,20.9905797 21.6941326,19.1088432 22.7601916,17.4170459 Z M38,33 C41.3137085,33 44,30.3137085 44,27 C44,23.6862915 41.3137085,21 38,21 C34.6862915,21 32,23.6862915 32,27 C32,30.3137085 34.6862915,33 38,33 Z"/>
    <circle cx="38" cy="27" r="9" stroke="#80D25B" stroke-linecap="round" stroke-width="2"/>
    <rect width="33" height="18" x="5" y="42" fill="#E43535"/>
    <text fill="#FFF" font-family="MarkerFelt-Thin, Marker Felt" font-size="14" font-weight="300">
      <tspan x="10" y="56">code</tspan>
    </text>
  </g>
</svg>
