<svg xmlns="http://www.w3.org/2000/svg" width="64" height="64" viewBox="0 0 64 64">
  <g fill="none" fill-rule="evenodd">
    <polygon fill="#5B68C0" points="12 2 41.105 2 53 13.753 53 61 12 61"/>
    <rect width="33" height="18" x="12" y="25" fill="#22BA8E"/>
    <polygon fill="#0A3586" points="41 2 53 2 53 14" transform="rotate(-180 47 8)"/>
    <path fill="#FFF" d="M22.166,36.676 C22.1566666,36.8813344 22.0680008,37.0913323 21.9,37.306 C21.6386654,37.6140015 21.470667,37.8473325 21.396,38.006 C20.8079971,38.9020045 20.2013365,39.35 19.576,39.35 C18.838663,39.35 18.2646687,38.9766704 17.854,38.23 C17.4899982,37.5486633 17.308,36.6900052 17.308,35.654 C17.308,34.4686607 17.5319978,33.4373377 17.98,32.56 C18.4746691,31.5893285 19.1139961,31.104 19.898,31.104 C20.5140031,31.104 21.0133314,31.4446633 21.396,32.126 C21.7133349,32.7046696 21.872,33.3346633 21.872,34.016 C21.872,34.2026676 21.8580001,34.3659993 21.83,34.506 C21.7646663,34.8233349 21.498669,34.982 21.032,34.982 C20.6679982,34.982 20.388001,34.8793344 20.192,34.674 C20.0986662,34.5713328 20.052,34.3333352 20.052,33.96 C20.052,33.8666662 20.0566666,33.7313342 20.066,33.554 L20.066,33.148 C20.066,32.7279979 19.9913341,32.518 19.842,32.518 C19.6833325,32.518 19.5153342,32.9776621 19.338,33.897 C19.1606658,34.8163379 19.072,35.6773293 19.072,36.48 C19.072,37.413338 19.2119986,37.88 19.492,37.88 C19.8560018,37.88 20.1266658,37.5860029 20.304,36.998 C20.378667,36.9139996 20.4206666,36.7460013 20.43,36.494 C20.43,36.2699989 20.4859994,36.1230004 20.598,36.053 C20.7100006,35.9829996 20.8733323,35.948 21.088,35.948 C21.3680014,35.948 21.6106656,36.0086661 21.816,36.13 C22.0586679,36.2700007 22.1753334,36.4519989 22.166,36.676 Z M27.598,31.776 C28.2233365,32.4106698 28.536,33.4793258 28.536,34.982 C28.536,36.1486725 28.3166689,37.1426626 27.878,37.964 C27.3833309,38.8880046 26.7020043,39.35 25.834,39.35 C24.975329,39.35 24.312669,38.9346708 23.846,38.104 C23.4353313,37.3759964 23.23,36.4520056 23.23,35.332 C23.23,34.3426617 23.3886651,33.4560039 23.706,32.672 C24.0420017,31.8319958 24.4713307,31.3373341 24.994,31.188 C25.264668,31.113333 25.5446652,31.076 25.834,31.076 C26.5526703,31.076 27.1406644,31.309331 27.598,31.776 Z M26.002,32.448 C25.6939985,32.4199999 25.4280011,32.7093303 25.204,33.316 C25.007999,33.8666694 24.91,34.4453303 24.91,35.052 C24.91,35.9293377 24.947333,36.5499982 25.022,36.914 C25.1526673,37.5673366 25.4233313,37.9266663 25.834,37.992 C26.0953346,38.0293335 26.3379989,37.6700038 26.562,36.914 C26.7766677,36.1859964 26.884,35.4066708 26.884,34.576 C26.884,33.2133265 26.5900029,32.5040003 26.002,32.448 Z M35.004,38.916 C34.8919994,39.1680013 34.5466696,39.294 33.968,39.294 C33.6039982,39.294 33.3613339,39.2193341 33.24,39.07 C33.1933331,39.0233331 33.17,38.9580004 33.17,38.874 C33.17,38.8086663 33.1933331,38.7060007 33.24,38.566 C33.2866669,38.4259993 33.3146666,38.318667 33.324,38.244 C32.8946645,38.8506697 32.3906696,39.154 31.812,39.154 C31.0373295,39.154 30.4726684,38.7153377 30.118,37.838 C29.847332,37.1659966 29.712,36.2933387 29.712,35.22 C29.712,34.2306617 29.9219979,33.3300041 30.342,32.518 C30.808669,31.6313289 31.3826633,31.188 32.064,31.188 C32.4466686,31.188 32.8386647,31.4959969 33.24,32.112 L33.24,30.306 C33.24,30.1566659 33.1793339,29.9653345 33.058,29.732 C32.9366661,29.4986655 32.876,29.3213339 32.876,29.2 C32.876,29.1066662 32.8993331,29.0133338 32.946,28.92 C33.142001,28.4999979 33.5246638,28.29 34.094,28.29 C34.560669,28.29 34.8499994,28.4579983 34.962,28.794 C34.9993335,28.9060006 35.018,29.0133328 35.018,29.116 C35.018,29.2186672 34.987667,29.3563325 34.927,29.529 C34.866333,29.7016675 34.836,29.8486661 34.836,29.97 L34.836,37.95 C34.836,38.0526672 34.873333,38.1763326 34.948,38.321 C35.022667,38.4656674 35.06,38.5846662 35.06,38.678 C35.06,38.752667 35.0413335,38.8319996 35.004,38.916 Z M33.072,35.22 C33.072,34.7906645 32.9833342,34.2866696 32.806,33.708 C32.609999,33.0919969 32.4186676,32.784 32.232,32.784 C32.0173323,32.784 31.8446673,33.0686638 31.714,33.638 C31.6113328,34.104669 31.56,34.6319971 31.56,35.22 C31.56,35.3226672 31.5553334,35.4906655 31.546,35.724 L31.546,36.242 C31.546,37.2966719 31.7746644,37.824 32.232,37.824 C32.4466677,37.824 32.6426658,37.5206697 32.82,36.914 C32.9880008,36.3539972 33.072,35.7893362 33.072,35.22 Z M40.94,37.53 C40.865333,37.8846684 40.6133355,38.2626647 40.184,38.664 C40.1186663,38.7666672 39.8620022,38.9019992 39.414,39.07 C38.9006641,39.266001 38.4573352,39.3500001 38.084,39.322 C37.3839965,39.2753331 36.8333353,38.8740038 36.432,38.118 C36.0679982,37.4179965 35.886,36.5593384 35.886,35.542 C35.886,34.4406612 36.0913313,33.4746708 36.502,32.644 C36.9593356,31.7293288 37.5706628,31.2160006 38.336,31.104 C38.4853341,31.0853332 38.6299993,31.076 38.77,31.076 C39.8806722,31.076 40.4919994,31.7573265 40.604,33.12 C40.6600003,33.7453365 40.4126694,34.426663 39.862,35.164 C39.2646637,35.9760041 38.499338,36.5453317 37.566,36.872 C37.6686672,37.2453352 37.7479997,37.4879994 37.804,37.6 C37.9346673,37.8333345 38.1119989,37.95 38.336,37.95 C38.5506677,37.95 38.7793321,37.8660008 39.022,37.698 C39.2273344,37.5579993 39.367333,37.4226673 39.442,37.292 C39.4793335,37.2733332 39.5166665,37.1683343 39.554,36.977 C39.5913335,36.7856657 39.6893325,36.6480004 39.848,36.564 C39.9040003,36.5359999 39.969333,36.522 40.044,36.522 C40.2680011,36.522 40.484999,36.6316656 40.695,36.851 C40.9050011,37.0703344 40.9866669,37.2966655 40.94,37.53 Z M38.742,32.602 C38.3686648,32.602 38.0653345,32.8679973 37.832,33.4 C37.5239985,34.1093369 37.3979997,34.8093299 37.454,35.5 C37.8926689,35.3599993 38.2986648,35.0333359 38.672,34.52 C39.0453352,34.0066641 39.232,33.5493353 39.232,33.148 C39.232,32.7839982 39.0686683,32.602 38.742,32.602 Z"/>
  </g>
</svg>
