<svg xmlns="http://www.w3.org/2000/svg" width="64" height="64" viewBox="0 0 64 64">
  <g fill="none" fill-rule="evenodd">
    <rect width="17" height="11" x="23" y="5" stroke="#595959" stroke-linecap="round" stroke-width="2" rx="3"/>
    <rect width="59" height="38" x="2" y="12" fill="#595959"/>
    <polygon fill="#868686" points="2 12 61 12 61 21.5 31.5 31 2 21.5"/>
    <path stroke="#9F5757" stroke-width="2" d="M50.0976226,43.4073657 C59.1488009,35.8700808 62.4375432,48.3760405 47,49.0766562"/>
    <path fill="#FFAF40" d="M28,28 L34,28 L34,31.9907455 C34,33.6527109 32.6534829,35 31,35 L31,35 C29.3431458,35 28,33.6503296 28,31.9907455 L28,28 Z"/>
    <polygon fill="#BD7575" points="37 38 53 38 52 60 38 60"/>
    <path stroke="#BD7575" stroke-linecap="round" stroke-width="2" d="M41 35.1067434C41 35.1067434 44.0873841 31.9742687 42.3798332 28.7899249 40.6722823 25.6055812 43.5339183 24 43.5339183 24M45.5744363 35.1067434C45.5744363 35.1067434 48.6618204 31.9742687 46.9542695 28.7899249 45.2467186 25.6055812 48.1083547 24 48.1083547 24"/>
  </g>
</svg>
