<svg xmlns="http://www.w3.org/2000/svg" width="64" height="64" viewBox="0 0 64 64">
  <g fill="none" fill-rule="evenodd">
    <circle cx="24" cy="41" r="23" fill="#FFAF40"/>
    <circle cx="24" cy="41" r="19" fill="#FFDD95"/>
    <path fill="#FFAF40" d="M27.32,28.875 C27.6933352,29.0383342 27.88,29.3299979 27.88,29.75 C27.88,30.3800031 27.5883362,30.8349986 27.005,31.115 C26.6316648,31.3016676 26.10667,31.395 25.43,31.395 C24.8233303,31.395 24.2050031,31.2958343 23.575,31.0975 C22.9449968,30.8991657 22.5950004,30.7183342 22.525,30.555 C22.1283313,29.4349944 22.3266627,28.6300024 23.12,28.14 C23.3066676,28.0233327 23.6683306,27.965 24.205,27.965 C25.6750073,27.965 26.7133303,28.2683303 27.32,28.875 Z M32.255,41.72 C32.255,43.4233419 31.3450091,45.5116543 29.525,47.985 C27.7749913,50.2250112 26.095008,51.345 24.485,51.345 C22.8983254,51.345 21.2883415,50.8550049 19.655,49.875 C18.254993,48.8483282 17.5783331,47.9033376 17.625,47.04 C17.6716669,46.5499976 18.266661,46.305 19.41,46.305 C20.3666715,46.305 21.2533292,46.4683317 22.07,46.795 C22.3500014,47.0283345 22.8049969,47.3199982 23.435,47.67 C23.8316686,47.6933335 24.3974963,47.238338 25.1325,46.305 C25.8675037,45.371662 26.235,44.6483359 26.235,44.135 C26.235,43.8316652 26.0366687,43.68 25.64,43.68 C25.429999,43.68 24.5433412,43.7499993 22.98,43.89 C21.4166588,44.0300007 20.2383373,44.1 19.445,44.1 C17.6716578,44.1 16.5633355,43.5750053 16.12,42.525 C16.0966666,42.5016666 16.085,42.385001 16.085,42.175 C16.085,40.9616606 17.1349895,39.1183457 19.235,36.645 C21.5450116,34.0083202 23.5399916,32.69 25.22,32.69 C26.410006,32.69 27.6116606,33.1449955 28.825,34.055 C30.1083398,34.8716708 30.7033338,35.5016644 30.61,35.945 C30.3299986,37.4383408 29.3850081,38.185 27.775,38.185 C27.5183321,38.185 27.2383349,38.1441671 26.935,38.0625 C26.6316652,37.9808329 26.3166683,37.7241688 25.99,37.2925 C25.6633317,36.8608312 25.3133352,36.645 24.94,36.645 C24.5199979,36.645 23.7675054,37.2341608 22.6825,38.4125 C21.5974946,39.5908392 21.055,40.4366641 21.055,40.95 C21.055,41.0200003 21.1483324,41.055 21.335,41.055 C21.6850018,41.055 22.8399902,40.8450021 24.8,40.425 C26.7600098,40.0049979 28.2883278,39.795 29.385,39.795 C31.2983429,39.795 32.255,40.4366602 32.255,41.72 Z M27.355,54.6 C27.355,55.5800049 26.6900066,56.2916645 25.36,56.735 C25.0099983,56.8283338 24.3858378,56.705835 23.4875,56.3675 C22.5891622,56.029165 22.1283335,55.7200014 22.105,55.44 C21.9883327,54.4599951 22.1866641,53.7950018 22.7,53.445 C22.9800014,53.2349989 23.4349969,53.13 24.065,53.13 C24.8350039,53.13 25.5466634,53.2349989 26.2,53.445 C26.8533366,53.655001 27.2091664,53.8708322 27.2675,54.0925 C27.3258336,54.3141678 27.355,54.4833328 27.355,54.6 Z"/>
    <circle cx="40" cy="24" r="23" fill="#FFAF40"/>
    <circle cx="40" cy="24" r="19" fill="#FFDD95"/>
    <path fill="#FFAF40" d="M44.32,23.43 C44.2199995,23.43 43.6400053,23.2900014 42.58,23.01 L36.01,24.06 C36.01,24.6400029 36.0299998,25.2099972 36.07,25.77 L40.78,25.08 C41.4000031,24.5199972 41.8399987,24.2200002 42.1,24.18 C42.4800019,24.1199997 42.8949978,24.4049969 43.345,25.035 C43.7950022,25.6650031 44.0699995,26.2899969 44.17,26.91 C44.2300003,27.3300021 44.1500011,27.6949985 43.93,28.005 C43.7099989,28.3150015 43.4700013,28.4899998 43.21,28.53 C43.1099995,28.5500001 42.5300053,28.4200014 41.47,28.14 L36.61,28.92 C37.3900039,31.5800133 38.8199896,32.91 40.9,32.91 C41.7400042,32.91 42.4399972,32.5900032 43,31.95 C43.5000025,31.3699971 43.7999995,30.6500043 43.9,29.79 C44.300002,28.9699959 44.999995,28.56 46,28.56 C46.6200031,28.56 47.1799975,28.7349982 47.68,29.085 C48.1800025,29.4350018 48.43,29.8599975 48.43,30.36 C48.43,30.4800006 48.4200001,30.5999994 48.4,30.72 C48.3399997,30.9400011 48.1500016,31.1899986 47.83,31.47 C47.4699982,31.8100017 47.2500004,32.0299995 47.17,32.13 C47.0099992,32.3900013 46.6700026,32.8599966 46.15,33.54 C44.8499935,35.6000103 43.3400086,36.63 41.62,36.63 C39.3199885,36.63 37.3800079,35.9500068 35.8,34.59 C34.3599928,33.389994 33.3000034,31.7100108 32.62,29.55 L31.75,29.67 C31.0899967,30.1900026 30.6400012,30.4699998 30.4,30.51 C29.6199961,30.6300006 29.130001,30.0700062 28.93,28.83 C28.9099999,28.629999 28.9,28.4500008 28.9,28.29 C28.9,27.1899945 29.399995,26.5600008 30.4,26.4 C30.600001,26.3799999 31.0899961,26.37 31.87,26.37 L31.96,26.37 C31.8799996,25.8299973 31.8300001,25.2800028 31.81,24.72 L31.57,24.75 C30.9299968,25.2500025 30.4800013,25.5199998 30.22,25.56 C29.4399961,25.7000007 28.9600009,25.1400063 28.78,23.88 C28.7399998,23.6999991 28.72,23.5300008 28.72,23.37 C28.72,22.2699945 29.2299949,21.6400008 30.25,21.48 C30.4300009,21.4399998 30.919996,21.4299999 31.72,21.45 L31.96,21.42 C32.3400019,18.5399856 33.2899924,16.2500085 34.81,14.55 C36.5300086,12.6499905 38.7999859,11.7 41.62,11.7 C42.5400046,11.7 43.5199948,12.0299967 44.56,12.69 C45.4400044,13.2500028 46.0899979,13.829997 46.51,14.43 C46.7300011,14.7700017 46.9999984,15.0699987 47.32,15.33 C47.6400016,15.5900013 47.8099999,15.7299999 47.83,15.75 C47.9900008,16.0300014 48.07,16.3099986 48.07,16.59 C48.07,17.1500028 47.7200035,17.629998 47.02,18.03 C46.3999969,18.3700017 45.7100038,18.54 44.95,18.54 C44.0699956,18.54 43.5100012,18.3200022 43.27,17.88 C43.2299998,17.7999996 43.1600005,17.3900037 43.06,16.65 C42.9599995,16.4699991 42.6700024,16.2300015 42.19,15.93 C41.6499973,15.6099984 41.2200016,15.45 40.9,15.45 C38.3799874,15.45 36.8300029,17.2299822 36.25,20.79 L41.89,19.98 C42.5300032,19.4199972 42.9699988,19.1200002 43.21,19.08 C43.5900019,19.0199997 44.0049978,19.2999969 44.455,19.92 C44.9050022,20.5400031 45.1799995,21.1599969 45.28,21.78 C45.3400003,22.2200022 45.2600011,22.5949985 45.04,22.905 C44.8199989,23.2150015 44.5800013,23.3899998 44.32,23.43 Z"/>
  </g>
</svg>
