<svg xmlns="http://www.w3.org/2000/svg" width="64" height="64" viewBox="0 0 64 64">
  <g fill="none" fill-rule="evenodd">
    <path fill="#4796E7" d="M34.1146858,5.17562453 L30,4 L37,18 L44,4 L39.8853142,5.17562453 C39.5271315,3.91960941 38.3709589,3 37,3 C35.6290411,3 34.4728685,3.91960941 34.1146858,5.17562453 Z"/>
    <path fill="#4796E7" d="M37,60 C49.1502645,60 59,53.6875678 59,41.6585366 C59,29.6295053 49.1502645,13 37,13 C24.8497355,13 15,29.6295053 15,41.6585366 C15,53.6875678 24.8497355,60 37,60 Z"/>
    <rect width="12" height="4" x="31" y="11" fill="#80D25B" rx="2"/>
    <rect width="19" height="4" x="8" y="56" fill="#FFAF40" rx="1" transform="matrix(-1 0 0 1 35 0)"/>
    <rect width="19" height="4" x="8" y="51" fill="#FFDD95" rx="1" transform="matrix(-1 0 0 1 35 0)"/>
    <rect width="19" height="4" x="8" y="46" fill="#FFAF40" rx="1" transform="matrix(-1 0 0 1 35 0)"/>
    <circle cx="17.5" cy="32.5" r="9.5" fill="#FFAF40"/>
    <path fill="#FFDD95" d="M19.704,32.296 C19.6506664,32.296 19.3413362,32.2213341 18.776,32.072 L15.272,32.632 C15.272,32.9413349 15.2826666,33.2453318 15.304,33.544 L17.816,33.176 C18.1466683,32.8773318 18.3813326,32.7173334 18.52,32.696 C18.7226677,32.6639998 18.9439988,32.8159983 19.184,33.152 C19.4240012,33.4880017 19.5706664,33.8213317 19.624,34.152 C19.6560002,34.3760011 19.6133339,34.5706658 19.496,34.736 C19.3786661,34.9013342 19.2506674,34.9946666 19.112,35.016 C19.0586664,35.0266667 18.7493362,34.9573341 18.184,34.808 L15.592,35.224 C16.0080021,36.6426738 16.7706611,37.352 17.88,37.352 C18.3280022,37.352 18.7013318,37.181335 19,36.84 C19.266668,36.5306651 19.4266664,36.146669 19.48,35.688 C19.6933344,35.2506645 20.066664,35.032 20.6,35.032 C20.9306683,35.032 21.229332,35.1253324 21.496,35.312 C21.762668,35.4986676 21.896,35.725332 21.896,35.992 C21.896,36.0560003 21.8906667,36.1199997 21.88,36.184 C21.8479998,36.3013339 21.7466675,36.4346659 21.576,36.584 C21.383999,36.7653342 21.2666669,36.8826664 21.224,36.936 C21.1386662,37.0746674 20.9573347,37.3253315 20.68,37.688 C19.9866632,38.7866722 19.1813379,39.336 18.264,39.336 C17.0373272,39.336 16.0026709,38.973337 15.16,38.248 C14.3919962,37.6079968 13.8266685,36.7120058 13.464,35.56 L13,35.624 C12.6479982,35.9013347 12.4080006,36.0506666 12.28,36.072 C11.8639979,36.1360003 11.6026672,35.8373366 11.496,35.176 C11.4853333,35.0693328 11.48,34.9733338 11.48,34.888 C11.48,34.3013304 11.746664,33.9653338 12.28,33.88 C12.3866672,33.8693333 12.6479979,33.864 13.064,33.864 L13.112,33.864 C13.0693331,33.5759986 13.0426667,33.2826682 13.032,32.984 L12.904,33 C12.562665,33.266668 12.3226674,33.4106666 12.184,33.432 C11.7679979,33.506667 11.5120005,33.2080034 11.416,32.536 C11.3946666,32.4399995 11.384,32.3493338 11.384,32.264 C11.384,31.6773304 11.6559973,31.3413338 12.2,31.256 C12.2960005,31.2346666 12.5573312,31.2293333 12.984,31.24 L13.112,31.224 C13.3146677,29.6879923 13.8213293,28.4666712 14.632,27.56 C15.5493379,26.5466616 16.7599925,26.04 18.264,26.04 C18.7546691,26.04 19.2773306,26.2159982 19.832,26.568 C20.3013357,26.8666682 20.6479989,27.1759984 20.872,27.496 C20.9893339,27.6773342 21.1333325,27.8373326 21.304,27.976 C21.4746675,28.1146674 21.5653333,28.1893333 21.576,28.2 C21.6613338,28.3493341 21.704,28.4986659 21.704,28.648 C21.704,28.9466682 21.5173352,29.2026656 21.144,29.416 C20.8133317,29.5973342 20.4453354,29.688 20.04,29.688 C19.5706643,29.688 19.2720006,29.5706678 19.144,29.336 C19.1226666,29.2933331 19.0853336,29.0746686 19.032,28.68 C18.9786664,28.5839995 18.8240013,28.4560008 18.568,28.296 C18.2799986,28.1253325 18.0506675,28.04 17.88,28.04 C16.5359933,28.04 15.7093349,28.9893238 15.4,30.888 L18.408,30.456 C18.749335,30.1573318 18.9839994,29.9973334 19.112,29.976 C19.3146677,29.9439998 19.5359988,30.0933317 19.776,30.424 C20.0160012,30.7546683 20.1626664,31.0853317 20.216,31.416 C20.2480002,31.6506678 20.2053339,31.8506658 20.088,32.016 C19.9706661,32.1813342 19.8426674,32.2746666 19.704,32.296 Z"/>
  </g>
</svg>
