<svg xmlns="http://www.w3.org/2000/svg" width="64" height="64" viewBox="0 0 64 64">
  <g fill="none" fill-rule="evenodd">
    <rect width="22" height="10" x="3" y="35" fill="#FF78C7"/>
    <path fill="#FF78C7" d="M12.9729892,27.3696698 C8.64676354,30.9415344 6,35.7330039 6,41 C6,52.045695 17.6405965,61 32,61 C46.3594035,61 58,52.045695 58,41 C58,29.954305 46.3594035,21 32,21 C27.1893791,21 22.6839043,22.0049891 18.8190398,23.7569179 L12.9729892,20.3250059 L12.9729892,27.3696698 Z"/>
    <circle cx="16" cy="35" r="2" fill="#F5413E"/>
    <rect width="7" height="13" x="13" y="50" fill="#FF78C7"/>
    <rect width="7" height="13" x="45" y="50" fill="#FF78C7"/>
    <circle cx="34" cy="18" r="17" fill="#FFAF40"/>
    <rect width="27" height="6" x="21" y="30" fill="#FF78C7"/>
    <path stroke="#F5413E" stroke-linecap="square" stroke-width="2" d="M22,31 L46,31"/>
    <path stroke="#FF78C7" stroke-linecap="round" stroke-width="2" d="M52.3478777,33.2724048 C52.3478777,33.2724048 61.2700209,34.071115 61.2700209,29.7888351 C61.2700209,25.5065553 55.1403795,25.1691691 55.9746644,27.4790021 C56.8089493,29.7888351 57.3783746,31.0888047 58.3037767,29.2839034"/>
  </g>
</svg>
