<svg xmlns="http://www.w3.org/2000/svg" width="64" height="64" viewBox="0 0 64 64">
  <g fill="none" fill-rule="evenodd">
    <path fill="#4796E7" d="M15,48 C6.71572875,48 0,41.2842712 0,33 C0,24.7157288 6.71572875,18 15,18 C17.1706646,18 19.2336397,18.4610733 21.0963309,19.2906254 C21.9447755,11.8112821 28.2937389,6 36,6 C44.2842712,6 51,12.7157288 51,21 C51,22.0287036 50.8964464,23.0332209 50.6991948,24.0036966 C50.7991647,24.001237 50.8994379,24 51,24 C57.627417,24 63,29.372583 63,36 C63,42.627417 57.627417,48 51,48 L15,48 Z"/>
    <path stroke="#FFF" stroke-linecap="round" stroke-width="2" d="M15,22 C8.92486775,22 4,26.9248678 4,33"/>
    <rect width="19" height="4" x="24" y="55" fill="#FFAF40" rx="1" transform="matrix(-1 0 0 1 67 0)"/>
    <rect width="19" height="4" x="24" y="50" fill="#FFDD95" rx="1" transform="matrix(-1 0 0 1 67 0)"/>
    <rect width="19" height="4" x="24" y="45" fill="#FFAF40" rx="1" transform="matrix(-1 0 0 1 67 0)"/>
    <circle cx="33.5" cy="31.5" r="9.5" fill="#FFAF40"/>
    <path fill="#FFDD95" d="M35.704,31.296 C35.6506664,31.296 35.3413362,31.2213341 34.776,31.072 L31.272,31.632 C31.272,31.9413349 31.2826666,32.2453318 31.304,32.544 L33.816,32.176 C34.1466683,31.8773318 34.3813326,31.7173334 34.52,31.696 C34.7226677,31.6639998 34.9439988,31.8159983 35.184,32.152 C35.4240012,32.4880017 35.5706664,32.8213317 35.624,33.152 C35.6560002,33.3760011 35.6133339,33.5706658 35.496,33.736 C35.3786661,33.9013342 35.2506674,33.9946666 35.112,34.016 C35.0586664,34.0266667 34.7493362,33.9573341 34.184,33.808 L31.592,34.224 C32.0080021,35.6426738 32.7706611,36.352 33.88,36.352 C34.3280022,36.352 34.7013318,36.181335 35,35.84 C35.266668,35.5306651 35.4266664,35.146669 35.48,34.688 C35.6933344,34.2506645 36.066664,34.032 36.6,34.032 C36.9306683,34.032 37.229332,34.1253324 37.496,34.312 C37.762668,34.4986676 37.896,34.725332 37.896,34.992 C37.896,35.0560003 37.8906667,35.1199997 37.88,35.184 C37.8479998,35.3013339 37.7466675,35.4346659 37.576,35.584 C37.383999,35.7653342 37.2666669,35.8826664 37.224,35.936 C37.1386662,36.0746674 36.9573347,36.3253315 36.68,36.688 C35.9866632,37.7866722 35.1813379,38.336 34.264,38.336 C33.0373272,38.336 32.0026709,37.973337 31.16,37.248 C30.3919962,36.6079968 29.8266685,35.7120058 29.464,34.56 L29,34.624 C28.6479982,34.9013347 28.4080006,35.0506666 28.28,35.072 C27.8639979,35.1360003 27.6026672,34.8373366 27.496,34.176 C27.4853333,34.0693328 27.48,33.9733338 27.48,33.888 C27.48,33.3013304 27.746664,32.9653338 28.28,32.88 C28.3866672,32.8693333 28.6479979,32.864 29.064,32.864 L29.112,32.864 C29.0693331,32.5759986 29.0426667,32.2826682 29.032,31.984 L28.904,32 C28.562665,32.266668 28.3226674,32.4106666 28.184,32.432 C27.7679979,32.506667 27.5120005,32.2080034 27.416,31.536 C27.3946666,31.4399995 27.384,31.3493338 27.384,31.264 C27.384,30.6773304 27.6559973,30.3413338 28.2,30.256 C28.2960005,30.2346666 28.5573312,30.2293333 28.984,30.24 L29.112,30.224 C29.3146677,28.6879923 29.8213293,27.4666712 30.632,26.56 C31.5493379,25.5466616 32.7599925,25.04 34.264,25.04 C34.7546691,25.04 35.2773306,25.2159982 35.832,25.568 C36.3013357,25.8666682 36.6479989,26.1759984 36.872,26.496 C36.9893339,26.6773342 37.1333325,26.8373326 37.304,26.976 C37.4746675,27.1146674 37.5653333,27.1893333 37.576,27.2 C37.6613338,27.3493341 37.704,27.4986659 37.704,27.648 C37.704,27.9466682 37.5173352,28.2026656 37.144,28.416 C36.8133317,28.5973342 36.4453354,28.688 36.04,28.688 C35.5706643,28.688 35.2720006,28.5706678 35.144,28.336 C35.1226666,28.2933331 35.0853336,28.0746686 35.032,27.68 C34.9786664,27.5839995 34.8240013,27.4560008 34.568,27.296 C34.2799986,27.1253325 34.0506675,27.04 33.88,27.04 C32.5359933,27.04 31.7093349,27.9893238 31.4,29.888 L34.408,29.456 C34.749335,29.1573318 34.9839994,28.9973334 35.112,28.976 C35.3146677,28.9439998 35.5359988,29.0933317 35.776,29.424 C36.0160012,29.7546683 36.1626664,30.0853317 36.216,30.416 C36.2480002,30.6506678 36.2053339,30.8506658 36.088,31.016 C35.9706661,31.1813342 35.8426674,31.2746666 35.704,31.296 Z"/>
  </g>
</svg>
