<svg xmlns="http://www.w3.org/2000/svg" width="64" height="64" viewBox="0 0 64 64">
  <g fill="none" fill-rule="evenodd">
    <rect width="27" height="5" x="3" y="56" fill="#FFAF40" rx="2"/>
    <rect width="27" height="5" x="3" y="51" fill="#FFDD95" rx="2"/>
    <rect width="27" height="5" x="3" y="46" fill="#FFAF40" rx="2"/>
    <rect width="27" height="5" x="3" y="41" fill="#FFDD95" rx="2"/>
    <rect width="27" height="5" x="3" y="36" fill="#FFAF40" rx="2"/>
    <rect width="27" height="5" x="3" y="31" fill="#FFDD95" rx="2"/>
    <rect width="27" height="5" x="34" y="50" fill="#FFAF40" rx="2"/>
    <rect width="27" height="5" x="34" y="45" fill="#FFDD95" rx="2"/>
    <rect width="27" height="5" x="34" y="40" fill="#FFAF40" rx="2"/>
    <rect width="27" height="5" x="34" y="35" fill="#FFDD95" rx="2"/>
    <rect width="27" height="5" x="34" y="30" fill="#FFAF40" rx="2"/>
    <rect width="27" height="5" x="34" y="20" fill="#FFAF40" rx="2"/>
    <rect width="27" height="5" x="34" y="25" fill="#FFDD95" rx="2"/>
    <rect width="27" height="5" x="34" y="15" fill="#FFDD95" rx="2"/>
    <polyline stroke="#22BA8E" stroke-linecap="round" stroke-width="2" points="5.106 27.638 26.631 20.881 26.631 12.586 48.455 6.349"/>
    <polyline stroke="#22BA8E" stroke-linecap="round" stroke-width="2" points="44.813 3.774 48.903 6.32 46.858 10.664"/>
  </g>
</svg>
