<svg xmlns="http://www.w3.org/2000/svg" width="64" height="64" viewBox="0 0 64 64">
  <g fill="none" fill-rule="evenodd">
    <rect width="19" height="4" x="1" y="49" fill="#FFAF40" rx="1" transform="matrix(-1 0 0 1 21 0)"/>
    <rect width="19" height="4" x="22" y="49" fill="#FFAF40" rx="1" transform="matrix(-1 0 0 1 63 0)"/>
    <rect width="19" height="4" x="1" y="44" fill="#FFDD95" rx="1" transform="matrix(-1 0 0 1 21 0)"/>
    <rect width="19" height="4" x="22" y="44" fill="#FFDD95" rx="1" transform="matrix(-1 0 0 1 63 0)"/>
    <rect width="19" height="4" x="1" y="39" fill="#FFAF40" rx="1" transform="matrix(-1 0 0 1 21 0)"/>
    <rect width="19" height="4" x="22" y="39" fill="#FFAF40" rx="1" transform="matrix(-1 0 0 1 63 0)"/>
    <circle cx="31.5" cy="25.5" r="9.5" fill="#FFAF40"/>
    <path fill="#FFDD95" d="M32.984,18.825 C33.1653342,18.9043337 33.256,19.045999 33.256,19.25 C33.256,19.5560015 33.1143348,19.7769993 32.831,19.913 C32.6496658,20.0036671 32.3946683,20.049 32.066,20.049 C31.7713319,20.049 31.4710015,20.0008338 31.165,19.9045 C30.8589985,19.8081662 30.6890002,19.7203337 30.655,19.641 C30.4623324,19.0969973 30.5586647,18.7060012 30.944,18.468 C31.0346671,18.4113331 31.210332,18.383 31.471,18.383 C32.1850036,18.383 32.6893319,18.5303319 32.984,18.825 Z M35.381,25.064 C35.381,25.8913375 34.9390044,26.9056607 34.055,28.107 C33.2049957,29.1950054 32.3890039,29.739 31.607,29.739 C30.8363295,29.739 30.0543373,29.5010024 29.261,29.025 C28.5809966,28.5263308 28.2523332,28.0673354 28.275,27.648 C28.2976668,27.4099988 28.5866639,27.291 29.142,27.291 C29.606669,27.291 30.0373314,27.3703325 30.434,27.529 C30.5700007,27.6423339 30.7909985,27.7839992 31.097,27.954 C31.2896676,27.9653334 31.5644982,27.7443356 31.9215,27.291 C32.2785018,26.8376644 32.457,26.4863346 32.457,26.237 C32.457,26.0896659 32.3606676,26.016 32.168,26.016 C32.0659995,26.016 31.6353371,26.0499997 30.876,26.118 C30.1166629,26.1860003 29.5443353,26.22 29.159,26.22 C28.2976624,26.22 27.7593344,25.9650025 27.544,25.455 C27.5326666,25.4436666 27.527,25.3870005 27.527,25.285 C27.527,24.6956637 28.0369949,23.8003393 29.057,22.599 C30.1790056,21.3183269 31.1479959,20.678 31.964,20.678 C32.5420029,20.678 33.1256637,20.8989978 33.715,21.341 C34.3383365,21.7376687 34.6273336,22.0436656 34.582,22.259 C34.4459993,22.984337 33.9870039,23.347 33.205,23.347 C33.0803327,23.347 32.9443341,23.3271669 32.797,23.2875 C32.6496659,23.2478331 32.4966675,23.1231677 32.338,22.9135 C32.1793325,22.7038323 32.0093342,22.599 31.828,22.599 C31.623999,22.599 31.2585026,22.8851638 30.7315,23.4575 C30.2044974,24.0298362 29.941,24.4406654 29.941,24.69 C29.941,24.7240002 29.9863329,24.741 30.077,24.741 C30.2470008,24.741 30.8079952,24.639001 31.76,24.435 C32.7120048,24.230999 33.4543307,24.129 33.987,24.129 C34.916338,24.129 35.381,24.4406635 35.381,25.064 Z M33.001,31.32 C33.001,31.7960024 32.6780032,32.1416656 32.032,32.357 C31.8619991,32.4023336 31.5588355,32.3428342 31.1225,32.1785 C30.6861645,32.0141658 30.4623334,31.8640007 30.451,31.728 C30.3943331,31.2519976 30.4906654,30.9290009 30.74,30.759 C30.8760007,30.6569995 31.0969985,30.606 31.403,30.606 C31.7770019,30.606 32.1226651,30.6569995 32.44,30.759 C32.7573349,30.8610005 32.9301665,30.9658328 32.9585,31.0735 C32.9868335,31.1811672 33.001,31.2633331 33.001,31.32 Z"/>
    <rect width="19" height="4" x="1" y="34" fill="#FFDD95" rx="1" transform="matrix(-1 0 0 1 21 0)"/>
    <rect width="19" height="4" x="1" y="29" fill="#FFAF40" rx="1" transform="matrix(-1 0 0 1 21 0)"/>
    <rect width="19" height="4" x="43" y="49" fill="#FFDD95" rx="1" transform="matrix(-1 0 0 1 105 0)"/>
    <rect width="19" height="4" x="43" y="44" fill="#FFAF40" rx="1" transform="matrix(-1 0 0 1 105 0)"/>
    <rect width="19" height="4" x="43" y="39" fill="#FFDD95" rx="1" transform="matrix(-1 0 0 1 105 0)"/>
    <rect width="19" height="4" x="43" y="34" fill="#FFAF40" rx="1" transform="matrix(-1 0 0 1 105 0)"/>
    <rect width="19" height="4" x="43" y="24" fill="#FFAF40" rx="1" transform="matrix(-1 0 0 1 105 0)"/>
    <rect width="19" height="4" x="43" y="14" fill="#FFAF40" rx="1" transform="matrix(-1 0 0 1 105 0)"/>
    <rect width="19" height="4" x="43" y="29" fill="#FFDD95" rx="1" transform="matrix(-1 0 0 1 105 0)"/>
    <rect width="19" height="4" x="1" y="24" fill="#FFDD95" rx="1" transform="matrix(-1 0 0 1 21 0)"/>
    <rect width="19" height="4" x="43" y="19" fill="#FFDD95" rx="1" transform="matrix(-1 0 0 1 105 0)"/>
    <rect width="19" height="4" x="43" y="9" fill="#FFDD95" rx="1" transform="matrix(-1 0 0 1 105 0)"/>
  </g>
</svg>
