<svg xmlns="http://www.w3.org/2000/svg" width="64" height="64" viewBox="0 0 64 64">
  <g fill="none" fill-rule="evenodd">
    <rect width="19" height="4" x="2" y="49" fill="#FFAF40" rx="1" transform="matrix(-1 0 0 1 23 0)"/>
    <rect width="19" height="4" x="44" y="49" fill="#FFAF40" rx="1" transform="matrix(-1 0 0 1 107 0)"/>
    <rect width="19" height="4" x="2" y="44" fill="#FFDD95" rx="1" transform="matrix(-1 0 0 1 23 0)"/>
    <rect width="19" height="4" x="44" y="44" fill="#FFDD95" rx="1" transform="matrix(-1 0 0 1 107 0)"/>
    <rect width="19" height="4" x="2" y="39" fill="#FFAF40" rx="1" transform="matrix(-1 0 0 1 23 0)"/>
    <rect width="19" height="4" x="44" y="39" fill="#FFAF40" rx="1" transform="matrix(-1 0 0 1 107 0)"/>
    <circle cx="53.5" cy="25.5" r="9.5" fill="#FFAF40"/>
    <path fill="#FFDD95" d="M55.704,25.296 C55.6506664,25.296 55.3413362,25.2213341 54.776,25.072 L51.272,25.632 C51.272,25.9413349 51.2826666,26.2453318 51.304,26.544 L53.816,26.176 C54.1466683,25.8773318 54.3813326,25.7173334 54.52,25.696 C54.7226677,25.6639998 54.9439988,25.8159983 55.184,26.152 C55.4240012,26.4880017 55.5706664,26.8213317 55.624,27.152 C55.6560002,27.3760011 55.6133339,27.5706658 55.496,27.736 C55.3786661,27.9013342 55.2506674,27.9946666 55.112,28.016 C55.0586664,28.0266667 54.7493362,27.9573341 54.184,27.808 L51.592,28.224 C52.0080021,29.6426738 52.7706611,30.352 53.88,30.352 C54.3280022,30.352 54.7013318,30.181335 55,29.84 C55.266668,29.5306651 55.4266664,29.146669 55.48,28.688 C55.6933344,28.2506645 56.066664,28.032 56.6,28.032 C56.9306683,28.032 57.229332,28.1253324 57.496,28.312 C57.762668,28.4986676 57.896,28.725332 57.896,28.992 C57.896,29.0560003 57.8906667,29.1199997 57.88,29.184 C57.8479998,29.3013339 57.7466675,29.4346659 57.576,29.584 C57.383999,29.7653342 57.2666669,29.8826664 57.224,29.936 C57.1386662,30.0746674 56.9573347,30.3253315 56.68,30.688 C55.9866632,31.7866722 55.1813379,32.336 54.264,32.336 C53.0373272,32.336 52.0026709,31.973337 51.16,31.248 C50.3919962,30.6079968 49.8266685,29.7120058 49.464,28.56 L49,28.624 C48.6479982,28.9013347 48.4080006,29.0506666 48.28,29.072 C47.8639979,29.1360003 47.6026672,28.8373366 47.496,28.176 C47.4853333,28.0693328 47.48,27.9733338 47.48,27.888 C47.48,27.3013304 47.746664,26.9653338 48.28,26.88 C48.3866672,26.8693333 48.6479979,26.864 49.064,26.864 L49.112,26.864 C49.0693331,26.5759986 49.0426667,26.2826682 49.032,25.984 L48.904,26 C48.562665,26.266668 48.3226674,26.4106666 48.184,26.432 C47.7679979,26.506667 47.5120005,26.2080034 47.416,25.536 C47.3946666,25.4399995 47.384,25.3493338 47.384,25.264 C47.384,24.6773304 47.6559973,24.3413338 48.2,24.256 C48.2960005,24.2346666 48.5573312,24.2293333 48.984,24.24 L49.112,24.224 C49.3146677,22.6879923 49.8213293,21.4666712 50.632,20.56 C51.5493379,19.5466616 52.7599925,19.04 54.264,19.04 C54.7546691,19.04 55.2773306,19.2159982 55.832,19.568 C56.3013357,19.8666682 56.6479989,20.1759984 56.872,20.496 C56.9893339,20.6773342 57.1333325,20.8373326 57.304,20.976 C57.4746675,21.1146674 57.5653333,21.1893333 57.576,21.2 C57.6613338,21.3493341 57.704,21.4986659 57.704,21.648 C57.704,21.9466682 57.5173352,22.2026656 57.144,22.416 C56.8133317,22.5973342 56.4453354,22.688 56.04,22.688 C55.5706643,22.688 55.2720006,22.5706678 55.144,22.336 C55.1226666,22.2933331 55.0853336,22.0746686 55.032,21.68 C54.9786664,21.5839995 54.8240013,21.4560008 54.568,21.296 C54.2799986,21.1253325 54.0506675,21.04 53.88,21.04 C52.5359933,21.04 51.7093349,21.9893238 51.4,23.888 L54.408,23.456 C54.749335,23.1573318 54.9839994,22.9973334 55.112,22.976 C55.3146677,22.9439998 55.5359988,23.0933317 55.776,23.424 C56.0160012,23.7546683 56.1626664,24.0853317 56.216,24.416 C56.2480002,24.6506678 56.2053339,24.8506658 56.088,25.016 C55.9706661,25.1813342 55.8426674,25.2746666 55.704,25.296 Z"/>
    <rect width="19" height="4" x="2" y="34" fill="#FFDD95" rx="1" transform="matrix(-1 0 0 1 23 0)"/>
    <rect width="19" height="4" x="2" y="29" fill="#FFAF40" rx="1" transform="matrix(-1 0 0 1 23 0)"/>
    <rect width="19" height="4" x="23" y="49" fill="#FFDD95" rx="1" transform="matrix(-1 0 0 1 65 0)"/>
    <rect width="19" height="4" x="23" y="44" fill="#FFAF40" rx="1" transform="matrix(-1 0 0 1 65 0)"/>
    <rect width="19" height="4" x="23" y="39" fill="#FFDD95" rx="1" transform="matrix(-1 0 0 1 65 0)"/>
    <rect width="19" height="4" x="23" y="34" fill="#FFAF40" rx="1" transform="matrix(-1 0 0 1 65 0)"/>
    <rect width="19" height="4" x="23" y="24" fill="#FFAF40" rx="1" transform="matrix(-1 0 0 1 65 0)"/>
    <rect width="19" height="4" x="23" y="14" fill="#FFAF40" rx="1" transform="matrix(-1 0 0 1 65 0)"/>
    <rect width="19" height="4" x="23" y="29" fill="#FFDD95" rx="1" transform="matrix(-1 0 0 1 65 0)"/>
    <rect width="19" height="4" x="2" y="24" fill="#FFDD95" rx="1" transform="matrix(-1 0 0 1 23 0)"/>
    <rect width="19" height="4" x="23" y="19" fill="#FFDD95" rx="1" transform="matrix(-1 0 0 1 65 0)"/>
    <rect width="19" height="4" x="23" y="9" fill="#FFDD95" rx="1" transform="matrix(-1 0 0 1 65 0)"/>
  </g>
</svg>
