<svg xmlns="http://www.w3.org/2000/svg" width="64" height="64" viewBox="0 0 64 64">
  <g fill="none" fill-rule="evenodd">
    <circle cx="40" cy="24" r="23" fill="#FFAF40"/>
    <circle cx="40" cy="24" r="19" fill="#FFDD95"/>
    <path fill="#FFAF40" d="M45.2126416,31.638779 C45.353692,31.0448826 45.6478086,30.6386269 46.095,30.42 C46.5450023,30.1999989 46.9999977,30.1599993 47.46,30.3 C48.5400054,30.6800019 48.9300015,31.4499942 48.63,32.61 C47.8099959,34.61001 46.4300097,35.8199979 44.49,36.24 C44.089998,36.24 43.6600023,36.2100003 43.2,36.15 C42.7399977,36.0899997 42.2600025,35.9900007 41.76,35.85 C41.4799986,35.7899997 41.2000014,35.7350003 40.92,35.685 C40.6399986,35.6349998 40.3700013,35.61 40.11,35.61 C39.7499982,35.61 39.4200015,35.6599995 39.12,35.76 L37.95,36.12 C37.1099958,36.2400006 36.3200037,36.2800002 35.58,36.24 C34.7399958,35.9799987 34.215001,35.650002 34.005,35.25 C33.794999,34.849998 33.7499994,34.4100024 33.87,33.93 C33.9100002,33.7499991 33.9799995,33.5950007 34.08,33.465 C34.1800005,33.3349993 34.2899994,33.1900008 34.41,33.03 C34.5100005,32.8699992 34.6249994,32.7150008 34.755,32.565 C34.8850007,32.4149993 34.9899996,32.2500009 35.07,32.07 L35.04,32.13 C35.2600011,31.0099944 35.4749989,29.9550049 35.685,28.965 C35.8950011,27.9749951 36.099999,26.9300055 36.3,25.83 C36.0799989,25.8500001 35.8750009,25.855 35.685,25.845 C35.4949991,25.835 35.2900011,25.83 35.07,25.83 L34.65,25.83 C34.2899982,25.83 34.0050011,25.6650017 33.795,25.335 C33.5849989,25.0049983 33.48,24.6700017 33.48,24.33 C33.48,24.0699987 33.5099997,23.7850016 33.57,23.475 C33.6300003,23.1649984 33.7399992,22.9000011 33.9,22.68 C34.0200006,22.5999996 34.2199986,22.5200004 34.5,22.44 C34.7800014,22.3599996 35.0599986,22.3000002 35.34,22.26 C35.6200014,22.2199998 35.8699989,22.1950001 36.09,22.185 C36.3100011,22.175 36.42,22.1799999 36.42,22.2 C36.42,22.1799999 36.4799994,22.165 36.6,22.155 C36.7200006,22.145 36.879999,22.14 37.08,22.14 L38.88,13.02 C39.0600009,12.3399966 39.4899966,11.8400016 40.17,11.52 C40.8500034,11.1999984 41.7399945,11.0899995 42.84,11.19 L42.99,11.19 L44.22,11.31 C46.1200095,11.7900024 47.1499992,13.0399899 47.31,15.06 C47.3500002,15.3200013 47.3300004,15.5599989 47.25,15.78 C47.1099993,16.2000021 46.840002,16.509999 46.44,16.71 C46.039998,16.910001 45.6200022,16.9600005 45.18,16.86 C44.7999981,16.7399994 44.5000011,16.5300015 44.28,16.23 C44.0599989,15.9299985 43.95,15.5500023 43.95,15.09 C44.0100003,14.7899985 43.7600028,14.5700007 43.2,14.43 C42.9799989,14.4500001 42.8150006,14.4749998 42.705,14.505 C42.5949995,14.5350001 42.4900005,14.6099994 42.39,14.73 C42.3099996,14.9700012 42.1450012,15.689994 41.895,16.89 C41.6449988,18.090006 41.3100021,19.8299886 40.89,22.11 C41.2500018,22.0699998 41.5699986,22.05 41.85,22.05 L42.72,22.05 C43.5600042,22.0299999 44.2999968,22.0899993 44.94,22.23 C45.3800022,22.3700007 45.7099989,22.6799976 45.93,23.16 C46.1500011,23.6400024 46.2200004,24.1399974 46.14,24.66 C45.8999988,25.8400059 45.2500053,26.2400019 44.19,25.86 C44.1099996,25.8199998 44.0300004,25.7950001 43.95,25.785 C43.8699996,25.7749999 43.7800005,25.7600001 43.68,25.74 C43.1999976,25.5999993 42.5800038,25.5599997 41.82,25.62 L40.14,25.77 L38.91,31.77 C39.2300016,31.7299998 39.5299986,31.7000001 39.81,31.68 C40.0900014,31.6599999 40.3799985,31.65 40.68,31.65 C41.280003,31.65 41.8449973,31.7099994 42.375,31.83 C42.9050027,31.9500006 43.4299974,32.1499986 43.95,32.43 L43.92,32.43 C44.4456313,32.4884035 44.8765078,32.2246657 45.2126416,31.638779 L45.2126416,31.638779 Z"/>
    <circle cx="24" cy="41" r="23" fill="#FFAF40"/>
    <circle cx="24" cy="41" r="19" fill="#FFDD95"/>
    <path fill="#FFAF40" d="M27.32,28.875 C27.6933352,29.0383342 27.88,29.3299979 27.88,29.75 C27.88,30.3800031 27.5883362,30.8349986 27.005,31.115 C26.6316648,31.3016676 26.1066701,31.395 25.43,31.395 C24.8233303,31.395 24.2050032,31.2958343 23.575,31.0975 C22.9449969,30.8991657 22.5950003,30.7183342 22.525,30.555 C22.1283314,29.4349944 22.3266627,28.6300024 23.12,28.14 C23.3066676,28.0233327 23.6683307,27.965 24.205,27.965 C25.6750073,27.965 26.7133303,28.2683303 27.32,28.875 Z M32.255,41.72 C32.255,43.4233419 31.3450091,45.5116543 29.525,47.985 C27.7749912,50.2250112 26.0950081,51.345 24.485,51.345 C22.8983254,51.345 21.2883415,50.8550049 19.655,49.875 C18.254993,48.8483282 17.5783331,47.9033376 17.625,47.04 C17.6716669,46.5499976 18.2666609,46.305 19.41,46.305 C20.3666715,46.305 21.2533292,46.4683317 22.07,46.795 C22.3500014,47.0283345 22.8049968,47.3199982 23.435,47.67 C23.8316686,47.6933335 24.3974963,47.238338 25.1325,46.305 C25.8675037,45.371662 26.235,44.6483359 26.235,44.135 C26.235,43.8316652 26.0366687,43.68 25.64,43.68 C25.429999,43.68 24.5433411,43.7499993 22.98,43.89 C21.4166588,44.0300007 20.2383373,44.1 19.445,44.1 C17.6716578,44.1 16.5633356,43.5750053 16.12,42.525 C16.0966666,42.5016666 16.085,42.385001 16.085,42.175 C16.085,40.9616606 17.1349895,39.1183457 19.235,36.645 C21.5450116,34.0083202 23.5399916,32.69 25.22,32.69 C26.410006,32.69 27.6116606,33.1449955 28.825,34.055 C30.1083398,34.8716708 30.7033338,35.5016644 30.61,35.945 C30.3299986,37.4383408 29.3850081,38.185 27.775,38.185 C27.5183321,38.185 27.2383349,38.1441671 26.935,38.0625 C26.6316652,37.9808329 26.3166683,37.7241688 25.99,37.2925 C25.6633317,36.8608312 25.3133352,36.645 24.94,36.645 C24.5199979,36.645 23.7675054,37.2341608 22.6825,38.4125 C21.5974946,39.5908392 21.055,40.4366641 21.055,40.95 C21.055,41.0200003 21.1483324,41.055 21.335,41.055 C21.6850017,41.055 22.8399902,40.8450021 24.8,40.425 C26.7600098,40.0049979 28.2883278,39.795 29.385,39.795 C31.2983429,39.795 32.255,40.4366602 32.255,41.72 Z M27.355,54.6 C27.355,55.5800049 26.6900066,56.2916645 25.36,56.735 C25.0099982,56.8283338 24.3858378,56.705835 23.4875,56.3675 C22.5891622,56.029165 22.1283335,55.7200014 22.105,55.44 C21.9883328,54.4599951 22.1866641,53.7950018 22.7,53.445 C22.9800014,53.2349989 23.4349968,53.13 24.065,53.13 C24.8350039,53.13 25.5466634,53.2349989 26.2,53.445 C26.8533366,53.655001 27.2091664,53.8708322 27.2675,54.0925 C27.3258336,54.3141678 27.355,54.4833328 27.355,54.6 Z"/>
  </g>
</svg>
