<svg xmlns="http://www.w3.org/2000/svg" width="64" height="64" viewBox="0 0 64 64">
  <g fill="none" fill-rule="evenodd">
    <rect width="23" height="57" x="23.784" y="6.784" fill="#22BA8E" rx="4" transform="rotate(45 35.284 35.284)"/>
    <rect width="23" height="57" x="17.709" y="3.932" fill="#FFDD95" rx="4" transform="rotate(30 29.21 32.432)"/>
    <rect width="23" height="57" x="10.984" y="3.005" fill="#FF78C7" rx="4" transform="rotate(15 22.484 31.505)"/>
    <path fill="#5EA7FF" d="M5,9.00812931 C5,6.79450062 6.78563292,5 9.00629425,5 L23.9937057,5 C26.206321,5 28,6.80003915 28,9.00812931 L28,57.9918707 C28,60.2054994 26.2143671,62 23.9937057,62 L9.00629425,62 C6.79367903,62 5,60.1999609 5,57.9918707 L5,9.00812931 Z M22,60 C23.6568542,60 25,58.6568542 25,57 C25,55.3431458 23.6568542,54 22,54 C20.3431458,54 19,55.3431458 19,57 C19,58.6568542 20.3431458,60 22,60 Z"/>
    <path stroke="#E8E8E8" stroke-linecap="square" stroke-width="2" d="M9 41L23 41M9 46L19 46"/>
  </g>
</svg>
