<svg xmlns="http://www.w3.org/2000/svg" width="64" height="64" viewBox="0 0 64 64">
  <g fill="none" fill-rule="evenodd" transform="translate(3 8)">
    <polyline stroke="#979797" stroke-linecap="round" stroke-width="4" points="6 36 6 20 6 20 20 10 34 20 34 36" transform="rotate(90 20 23)"/>
    <path stroke="#979797" stroke-linecap="round" stroke-width="4" d="M42.9876299,32.5028368 L42.9876299,14.0804327" transform="rotate(90 42.988 23.093)"/>
    <path fill="#22BA8E" d="M53.6623273,19.486303 C54.4011035,18.6654405 55.6044904,18.671656 56.3376727,19.486303 L62.6623273,26.513697 C63.4011035,27.3345595 63.1073772,28 62.0049107,28 L47.9950893,28 C46.8932319,28 46.6044904,27.328344 47.3376727,26.513697 L53.6623273,19.486303 Z" transform="rotate(90 55 23)"/>
    <path fill="#22BA8E" d="M3.66232726,5.48630304 C4.40110352,4.66544054 5.60449038,4.67165598 6.33767274,5.48630304 L12.6623273,12.513697 C13.4011035,13.3345595 13.1073772,14 12.0049107,14 L-2.00491071,14 C-3.1067681,14 -3.39550962,13.328344 -2.66232726,12.513697 L3.66232726,5.48630304 Z" transform="rotate(90 5 9)"/>
    <path fill="#22BA8E" d="M3.66232726,33.486303 C4.40110352,32.6654405 5.60449038,32.671656 6.33767274,33.486303 L12.6623273,40.513697 C13.4011035,41.3345595 13.1073772,42 12.0049107,42 L-2.00491071,42 C-3.1067681,42 -3.39550962,41.328344 -2.66232726,40.513697 L3.66232726,33.486303 Z" transform="rotate(90 5 37)"/>
  </g>
</svg>
