<svg xmlns="http://www.w3.org/2000/svg" width="64" height="64" viewBox="0 0 64 64">
  <g fill="none" fill-rule="evenodd">
    <polyline stroke="#979797" stroke-linecap="round" stroke-width="4" points="28 44 28 28 28 28 42 18 56 28 56 44" transform="matrix(0 1 1 0 11 -11)"/>
    <path stroke="#979797" stroke-linecap="round" stroke-width="4" d="M19,39.9100341 L19,21.4876299" transform="matrix(0 1 1 0 -11.5 11.5)"/>
    <path fill="#22BA8E" d="M7.66232726,27.486303 C8.40110352,26.6654405 9.60449038,26.671656 10.3376727,27.486303 L16.6623273,34.513697 C17.4011035,35.3345595 17.1073772,36 16.0049107,36 L1.99508929,36 C0.893231902,36 0.604490384,35.328344 1.33767274,34.513697 L7.66232726,27.486303 Z" transform="rotate(90 9 31)"/>
    <path fill="#22BA8E" d="M54.6623273,13.486303 C55.4011035,12.6654405 56.6044904,12.671656 57.3376727,13.486303 L63.6623273,20.513697 C64.4011035,21.3345595 64.1073772,22 63.0049107,22 L48.9950893,22 C47.8932319,22 47.6044904,21.328344 48.3376727,20.513697 L54.6623273,13.486303 Z" transform="matrix(0 1 1 0 39 -39)"/>
    <path fill="#22BA8E" d="M54.6623273,41.486303 C55.4011035,40.6654405 56.6044904,40.671656 57.3376727,41.486303 L63.6623273,48.513697 C64.4011035,49.3345595 64.1073772,50 63.0049107,50 L48.9950893,50 C47.8932319,50 47.6044904,49.328344 48.3376727,48.513697 L54.6623273,41.486303 Z" transform="matrix(0 1 1 0 11 -11)"/>
  </g>
</svg>
