<svg xmlns="http://www.w3.org/2000/svg" width="64" height="64" viewBox="0 0 64 64">
  <g fill="none" fill-rule="evenodd">
    <polyline stroke="#979797" stroke-linecap="round" stroke-width="4" points="19 55 19 39 19 39 33 29 47 39 47 55"/>
    <path stroke="#979797" stroke-linecap="round" stroke-width="4" d="M33,27.9100341 L33,9.48762991"/>
    <path fill="#22BA8E" d="M17.6623273,53.486303 C18.4011035,52.6654405 19.6044904,52.671656 20.3376727,53.486303 L26.6623273,60.513697 C27.4011035,61.3345595 27.1073772,62 26.0049107,62 L11.9950893,62 C10.8932319,62 10.6044904,61.328344 11.3376727,60.513697 L17.6623273,53.486303 Z" transform="rotate(180 19 57)"/>
    <path fill="#22BA8E" d="M45.6623273,53.486303 C46.4011035,52.6654405 47.6044904,52.671656 48.3376727,53.486303 L54.6623273,60.513697 C55.4011035,61.3345595 55.1073772,62 54.0049107,62 L39.9950893,62 C38.8932319,62 38.6044904,61.328344 39.3376727,60.513697 L45.6623273,53.486303 Z" transform="rotate(180 47 57)"/>
    <path fill="#22BA8E" d="M31.6623273,2.48630304 C32.4011035,1.66544054 33.6044904,1.67165598 34.3376727,2.48630304 L40.6623273,9.51369696 C41.4011035,10.3345595 41.1073772,11 40.0049107,11 L25.9950893,11 C24.8932319,11 24.6044904,10.328344 25.3376727,9.51369696 L31.6623273,2.48630304 Z"/>
  </g>
</svg>
