<svg xmlns="http://www.w3.org/2000/svg" width="64" height="64" viewBox="0 0 64 64">
  <g fill="none" fill-rule="evenodd">
    <path stroke="#5EA7FF" stroke-linecap="round" stroke-width="4" d="M52,23.961805 C50.9305405,21.3950411 49.3643103,19.0850963 47.4206673,17.1507576 C43.6021356,13.3505051 38.326883,11 32.5,11 C26.673117,11 21.3978644,13.3505051 17.5793327,17.1507576 C15.6356897,19.0850963 14.0694595,21.3950411 13,23.961805 M13,40.038195 C14.0694595,42.6049589 15.6356897,44.9149037 17.5793327,46.8492424 C21.3978644,50.6494949 26.673117,53 32.5,53 L32.5,53 C38.326883,53 43.6021356,50.6494949 47.4206673,46.8492424 C49.3643103,44.9149037 50.9305405,42.6049589 52,40.038195"/>
    <rect width="20" height="6" x="2" y="29" fill="#22BA8E"/>
    <rect width="20" height="6" x="42" y="29" fill="#22BA8E"/>
    <polygon fill="#22BA8E" points="28 32 18 38 18 26"/>
    <polygon fill="#22BA8E" points="46 32 36 38 36 26" transform="matrix(-1 0 0 1 82 0)"/>
  </g>
</svg>
