<?xml version="1.0" encoding="UTF-8"?>
<svg width="64px" height="64px" viewBox="0 0 64 64" version="1.1" xmlns="http://www.w3.org/2000/svg" xmlns:xlink="http://www.w3.org/1999/xlink">
    <!-- Generator: Sketch 43.2 (39069) - http://www.bohemiancoding.com/sketch -->
    <title>cooking</title>
    <desc>Created with Sketch.</desc>
    <defs></defs>
    <g id="Outdoor-Activities-(142)" stroke="none" stroke-width="1" fill="none" fill-rule="evenodd">
        <path d="M22.7825961,46.5230933 L15.1210477,60.6434531 C14.8576578,61.128885 15.0376584,61.7359251 15.5230904,61.999315 C16.0085223,62.262705 16.6155624,62.0827043 16.8789523,61.5972723 L24.5405007,47.4769125 C24.8038906,46.9914806 24.62389,46.3844405 24.138458,46.1210506 C23.6530261,45.8576607 23.045986,46.0376613 22.7825961,46.5230933 Z" id="Path-13" fill="#979797" fill-rule="nonzero"></path>
        <path d="M42.1210477,47.4769125 L49.7825961,61.5972723 C50.045986,62.0827043 50.6530261,62.262705 51.138458,61.999315 C51.62389,61.7359251 51.8038906,61.128885 51.5405007,60.6434531 L43.8789523,46.5230933 C43.6155624,46.0376613 43.0085223,45.8576607 42.5230904,46.1210506 C42.0376584,46.3844405 41.8576578,46.9914806 42.1210477,47.4769125 Z" id="Path-13-Copy" fill="#979797" fill-rule="nonzero"></path>
        <path d="M20.098528,55.161248 L46.6979093,55.161248 C47.2501941,55.161248 47.6979093,54.7135328 47.6979093,54.161248 C47.6979093,53.6089633 47.2501941,53.161248 46.6979093,53.161248 L20.098528,53.161248 C19.5462432,53.161248 19.098528,53.6089633 19.098528,54.161248 C19.098528,54.7135328 19.5462432,55.161248 20.098528,55.161248 Z" id="Path-14" fill="#979797" fill-rule="nonzero"></path>
        <path d="M7.5,25.0000029 C7.5,39.3594064 19.1405965,51.0000029 33.5,51.0000029 C47.8594035,51.0000029 59.5,39.3594064 59.5,25.0000029 L7.5,25.0000029 Z" id="Oval-19" fill="#595959"></path>
        <rect id="Rectangle-37" fill="#5B68C0" x="6" y="21.0000029" width="55" height="4"></rect>
        <path d="M27.6185431,17.4262801 C27.552532,17.2862654 27.4388372,16.9879479 27.3210886,16.5605939 C26.712996,14.3535967 26.8701615,11.9418767 28.3285576,9.64312737 C30.0539097,6.92359757 29.7731878,4.20798636 28.2862977,1.82108665 C27.8381121,1.1016159 27.3859296,0.57601199 27.0625119,0.271705518 C26.6602844,-0.106753797 26.0274126,-0.0874858457 25.6489533,0.314741692 C25.270494,0.716969229 25.2897619,1.34984097 25.6919895,1.72830028 C25.7336898,1.7675365 25.8254271,1.86255987 25.950514,2.00795729 C26.1671199,2.25973383 26.3852767,2.55196385 26.5887296,2.87856605 C27.7041345,4.66912173 27.9019044,6.58228329 26.6397574,8.57170137 C24.8414358,11.406247 24.6472805,14.38558 25.3929391,17.0918559 C25.5429509,17.6363052 25.6970165,18.0405495 25.8095124,18.2791622 C26.0450292,18.7787122 26.6409187,18.9927534 27.1404688,18.7572365 C27.6400188,18.5217196 27.85406,17.9258301 27.6185431,17.4262801 Z" id="Path-12" fill="#FCC24C" fill-rule="nonzero"></path>
        <path d="M33.6185431,17.4262801 C33.552532,17.2862654 33.4388372,16.9879479 33.3210886,16.5605939 C32.712996,14.3535967 32.8701615,11.9418767 34.3285576,9.64312737 C36.0539097,6.92359757 35.7731878,4.20798636 34.2862977,1.82108665 C33.8381121,1.1016159 33.3859296,0.57601199 33.0625119,0.271705518 C32.6602844,-0.106753797 32.0274126,-0.0874858457 31.6489533,0.314741692 C31.270494,0.716969229 31.2897619,1.34984097 31.6919895,1.72830028 C31.7336898,1.7675365 31.8254271,1.86255987 31.950514,2.00795729 C32.1671199,2.25973383 32.3852767,2.55196385 32.5887296,2.87856605 C33.7041345,4.66912173 33.9019044,6.58228329 32.6397574,8.57170137 C30.8414358,11.406247 30.6472805,14.38558 31.3929391,17.0918559 C31.5429509,17.6363052 31.6970165,18.0405495 31.8095124,18.2791622 C32.0450292,18.7787122 32.6409187,18.9927534 33.1404688,18.7572365 C33.6400188,18.5217196 33.85406,17.9258301 33.6185431,17.4262801 Z" id="Path-12-Copy" fill="#FCC24C" fill-rule="nonzero"></path>
        <path d="M39.6185431,17.4262801 C39.552532,17.2862654 39.4388372,16.9879479 39.3210886,16.5605939 C38.712996,14.3535967 38.8701615,11.9418767 40.3285576,9.64312737 C42.0539097,6.92359757 41.7731878,4.20798636 40.2862977,1.82108665 C39.8381121,1.1016159 39.3859296,0.57601199 39.0625119,0.271705518 C38.6602844,-0.106753797 38.0274126,-0.0874858457 37.6489533,0.314741692 C37.270494,0.716969229 37.2897619,1.34984097 37.6919895,1.72830028 C37.7336898,1.7675365 37.8254271,1.86255987 37.950514,2.00795729 C38.1671199,2.25973383 38.3852767,2.55196385 38.5887296,2.87856605 C39.7041345,4.66912173 39.9019044,6.58228329 38.6397574,8.57170137 C36.8414358,11.406247 36.6472805,14.38558 37.3929391,17.0918559 C37.5429509,17.6363052 37.6970165,18.0405495 37.8095124,18.2791622 C38.0450292,18.7787122 38.6409187,18.9927534 39.1404688,18.7572365 C39.6400188,18.5217196 39.85406,17.9258301 39.6185431,17.4262801 Z" id="Path-12-Copy-2" fill="#FCC24C" fill-rule="nonzero"></path>
    </g>
</svg>