<svg xmlns="http://www.w3.org/2000/svg" width="64" height="64" viewBox="0 0 64 64">
  <g fill="none" fill-rule="evenodd">
    <path stroke="#979797" stroke-linecap="round" stroke-width="2" d="M14 25C15.6568542 25 17 22.3137085 17 19 17 15.6862915 14.6568542 13 13 13 11.3431458 13 11 15.6862915 11 19 11 22.3137085 12.3431458 25 14 25zM51 25C52.6568542 25 54 22.3137085 54 19 54 15.6862915 51.6568542 13 50 13 48.3431458 13 48 15.6862915 48 19 48 22.3137085 49.3431458 25 51 25z"/>
    <rect width="62" height="29" x="1" y="21" fill="#ED9111"/>
    <path fill="#E43535" d="M24.072,31.164 C23.9159992,31.6320023 23.4120043,31.866 22.56,31.866 C21.8999967,31.866 21.4320014,31.7040016 21.156,31.38 C21.0599995,31.2599994 21.012,31.1100009 21.012,30.93 C21.012,30.8699997 21.0179999,30.7830006 21.03,30.669 C21.0420001,30.5549994 21.048,30.4680003 21.048,30.408 C21.048,30.2279991 20.9880006,30.0840005 20.868,29.976 C20.7839996,29.5919981 20.5920015,29.4119999 20.292,29.436 C20.0279987,29.4480001 19.7400016,29.8859957 19.428,30.75 C19.1159984,31.6140043 18.9360002,32.4959955 18.888,33.396 C19.2600019,32.8439972 19.7639968,32.568 20.4,32.568 C21.396005,32.568 22.2179968,32.9999957 22.866,33.864 C23.466003,34.656004 23.7959997,35.6279942 23.856,36.78 C23.9040002,37.7160047 23.6340029,38.8319935 23.046,40.128 C22.3739966,41.6280075 21.6000044,42.378 20.724,42.378 C19.3439931,42.378 18.2460041,41.8020058 17.43,40.65 C16.6139959,39.4979942 16.2000001,37.92001 16.188,35.916 C16.1759999,33.4319876 16.5389963,31.3710082 17.277,29.733 C18.0150037,28.0949918 18.9479944,27.276 20.076,27.276 C21.3360063,27.276 22.367996,28.0199926 23.172,29.508 C23.8080032,29.9640023 24.126,30.4079978 24.126,30.84 C24.126,30.9480005 24.1080002,31.0559995 24.072,31.164 Z M21.264,37.644 C21.3480004,37.247998 21.39,36.846002 21.39,36.438 C21.39,35.3459945 21.1320026,34.7400006 20.616,34.62 C20.3519987,34.5599997 20.0700015,34.8359969 19.77,35.448 C19.5179987,35.9760026 19.3320006,36.5639968 19.212,37.212 C19.1519997,37.5360016 19.122,37.895998 19.122,38.292 C19.122,39.3480053 19.2959983,39.9239995 19.644,40.02 C19.9680016,40.1160005 20.2979983,39.8820028 20.634,39.318 C20.9340015,38.8259975 21.1439994,38.2680031 21.264,37.644 Z M35.016,29.04 C35.016,29.3400015 34.9020011,29.5979989 34.674,29.814 C34.4459989,30.0300011 34.1640017,30.1679997 33.828,30.228 C33.6599992,30.2640002 33.4440013,30.2130007 33.18,30.075 C32.9159987,29.9369993 32.7000008,29.8799999 32.532,29.904 L29.616,30.3 C29.6400001,31.4760059 29.6400001,32.3399972 29.616,32.892 C30.3000034,32.4119976 31.0919955,32.172 31.992,32.172 C32.5800029,32.172 33.0869979,32.3579981 33.513,32.73 C33.9390021,33.1020019 34.152,33.5999969 34.152,34.224 C34.152,35.1480046 33.8280032,36.3539926 33.18,37.842 C32.6159972,39.1380065 31.9590037,40.3229946 31.209,41.397 C30.4589963,42.4710054 29.9400014,42.9900002 29.652,42.954 C29.0879972,42.8819996 28.2630054,42.3540049 27.177,41.37 C26.0909946,40.3859951 25.5959995,39.7200017 25.692,39.372 C25.8360007,38.8799975 26.2439966,38.634 26.916,38.634 C27.0240005,38.634 27.1319995,38.6399999 27.24,38.652 C27.5040013,38.6880002 27.8069983,38.8589985 28.149,39.165 C28.4910017,39.4710015 28.7999986,39.624 29.076,39.624 C29.3760015,39.624 29.828997,38.9700065 30.435,37.662 C31.041003,36.3539935 31.344,35.4120029 31.344,34.836 C31.344,34.6199989 31.2660008,34.512 31.11,34.512 C30.9299991,34.512 30.4740037,34.7849973 29.742,35.331 C29.0099963,35.8770027 28.5000014,36.1200003 28.212,36.06 C28.019999,36.0119998 27.8460008,35.892001 27.69,35.7 C27.5339992,35.507999 27.3840007,35.316001 27.24,35.124 C27.0599991,34.9799993 26.871001,34.8270008 26.673,34.665 C26.474999,34.5029992 26.3640001,34.320001 26.34,34.116 C26.3159999,33.911999 26.4419986,33.6930012 26.718,33.459 C26.9940014,33.2249988 27.132,33.012001 27.132,32.82 L27.132,30.732 C27.132,30.5759992 27.0900004,30.2610024 27.006,29.787 C26.9219996,29.3129976 26.88,28.980001 26.88,28.788 C26.88,28.6079991 26.9039998,28.4760004 26.952,28.392 C27.0720006,28.2119991 27.5039963,28.1100001 28.248,28.086 C29.5800067,28.0259997 30.2639998,27.996 30.3,27.996 C30.8880029,27.9239996 31.679995,27.8040008 32.676,27.636 C33.3600034,27.5279995 33.7559995,27.474 33.864,27.474 C34.6320038,27.474 35.016,27.9959948 35.016,29.04 Z M47.76,29.04 C47.6999997,29.2080008 47.568001,29.3759992 47.364,29.544 C47.0999987,29.748001 46.9320004,29.9039995 46.86,30.012 L40.812,38.868 C40.7759998,38.9280003 40.5900017,39.3419962 40.254,40.11 C40.0259989,40.6380026 39.7680014,40.9439996 39.48,41.028 C39.3479993,41.0640002 39.2160007,41.082 39.084,41.082 C38.7599984,41.082 38.4870011,40.9680011 38.265,40.74 C38.0429989,40.5119989 37.9200001,40.1880021 37.896,39.768 C37.8839999,39.4679985 37.979999,39.2280009 38.184,39.048 L38.652,38.652 L44.376,30.012 L40.524,31.2 C40.5720002,31.4400012 40.596,31.6859987 40.596,31.938 C40.596,32.8020043 40.3320026,33.5519968 39.804,34.188 C39.2639973,34.8600034 38.592004,35.196 37.788,35.196 C36.6119941,35.196 36.024,34.698005 36.024,33.702 C36.024,33.0419967 36.2609976,32.3220039 36.735,31.542 C37.2090024,30.7619961 37.7279972,30.1920018 38.292,29.832 C38.5680014,29.6519991 38.8439986,29.5560001 39.12,29.544 C39.5040019,29.5199999 39.7439995,29.4960001 39.84,29.472 L45.024,27.96 C45.1680007,27.9239998 45.3899985,27.810001 45.69,27.618 C45.9420013,27.4619992 46.1519992,27.384 46.32,27.384 C46.3920004,27.384 46.4639996,27.3959999 46.536,27.42 C47.4360045,27.6600012 47.886,27.9959978 47.886,28.428 C47.886,28.5840008 47.8440004,28.7879987 47.76,29.04 Z M47.112,39.336 C47.1840004,40.2960048 46.9440028,41.075997 46.392,41.676 C45.9359977,42.1560024 45.408003,42.4139998 44.808,42.45 C44.0999965,42.4860002 43.4400031,42.2700023 42.828,41.802 C42.2159969,41.3339977 41.91,40.7520035 41.91,40.056 C41.91,39.3719966 42.1799973,38.7750025 42.72,38.265 C43.2600027,37.7549974 43.8839965,37.5 44.592,37.5 C45.1680029,37.5 45.7259973,37.7129979 46.266,38.139 C46.8060027,38.5650021 47.0879999,38.9639981 47.112,39.336 Z M38.616,31.668 C38.4959994,31.6319998 38.340001,31.811998 38.148,32.208 C37.955999,32.604002 37.86,32.9279987 37.86,33.18 C37.86,33.3000006 37.8839998,33.3719999 37.932,33.396 C38.0280005,33.4440002 38.1449993,33.3930008 38.283,33.243 C38.4210007,33.0929992 38.5199997,32.9280009 38.58,32.748 C38.7120007,32.3039978 38.778,32.0460004 38.778,31.974 C38.778,31.8059992 38.7240005,31.7040002 38.616,31.668 Z M45.042,39.246 C44.9219994,39.246 44.7360013,39.3599989 44.484,39.588 C44.1959986,39.8640014 44.052,40.1399986 44.052,40.416 C44.052,40.608001 44.1359992,40.704 44.304,40.704 C44.4480007,40.704 44.6519987,40.5360017 44.916,40.2 C45.1800013,39.8639983 45.312,39.6180008 45.312,39.462 C45.312,39.3179993 45.2220009,39.246 45.042,39.246 Z"/>
  </g>
</svg>
