<svg xmlns="http://www.w3.org/2000/svg" width="64" height="64" viewBox="0 0 64 64">
  <g fill="none" fill-rule="evenodd">
    <path fill="#979797" d="M1,11 L16,11 L16,21 L9.00218626,21 C6.23955507,21 3.35642473,18.8547491 2.5615081,16.205027 L1,11 Z"/>
    <path fill="#979797" d="M47,11 L62,11 L62,21 L55.0021863,21 C52.2395551,21 49.3564247,18.8547491 48.5615081,16.205027 L47,11 Z" transform="matrix(-1 0 0 1 109 0)"/>
    <path fill="#9C4D4D" d="M16 5.50700176C16 4.12242292 17.1096621 3 18.5 3L18.5 3C19.8807119 3 21 4.12165891 21 5.50700176L21 12 16 12 16 5.50700176zM42 5.50700176C42 4.12242292 43.1096621 3 44.5 3L44.5 3C45.8807119 3 47 4.12165891 47 5.50700176L47 12 42 12 42 5.50700176z"/>
    <polygon fill="#D8D8D8" points="15 11 47 11 50 37 12 37"/>
    <path fill="#FF78C7" d="M10,40.9933547 C10,37.1310316 13.1396498,34 17.0062098,34 L44.9937902,34 C48.863213,34 52,37.1304531 52,40.9933547 L52,49.0041158 C52,56.1815445 46.1821439,62 38.9985678,62 L23.0014322,62 C15.8209395,62 10,56.1813818 10,49.0041158 L10,40.9933547 Z"/>
    <circle cx="40" cy="48" r="4" fill="#E43535"/>
    <circle cx="22" cy="48" r="4" fill="#E43535"/>
    <circle cx="25" cy="27" r="2" fill="#595959"/>
    <circle cx="37" cy="27" r="2" fill="#595959"/>
  </g>
</svg>
