<svg xmlns="http://www.w3.org/2000/svg" width="64" height="64" viewBox="0 0 64 64">
  <g fill="none" fill-rule="evenodd">
    <circle cx="38" cy="27" r="4" fill="#E43535"/>
    <path stroke="#E43535" stroke-linecap="round" stroke-width="4" d="M16.2646168,32.6045567 C16.2646168,32.6045567 9.22262964,32.2434349 11.427469,19"/>
    <path stroke="#E43535" stroke-linecap="round" stroke-width="4" d="M53.2646168,32.6045567 C53.2646168,32.6045567 46.2226296,32.2434349 48.427469,19" transform="matrix(-1 0 0 1 101.265 0)"/>
    <path stroke="#E43535" stroke-linecap="round" stroke-width="4" d="M16.2646168,60.6045567 C16.2646168,60.6045567 9.22262964,60.2434349 11.427469,47" transform="matrix(1 0 0 -1 0 107.605)"/>
    <path stroke="#E43535" stroke-linecap="round" stroke-width="4" d="M53.2646168,60.6045567 C53.2646168,60.6045567 46.2226296,60.2434349 48.427469,47" transform="rotate(180 50.632 53.802)"/>
    <circle cx="27" cy="27" r="4" fill="#E43535"/>
    <path fill="#FF78C7" d="M16.0549107,3.00016399 C16.03662,3.00005472 16.0183164,3 16,3 C11.0294373,3 7,7.02943725 7,12 C7,16.9705627 11.0294373,21 16,21 C20.6326099,21 24.4477196,17.4998654 24.9450893,12.999836 C19.9997952,12.9702905 16,8.95224637 16,4 C16,3.66204718 16.0186271,3.32844495 16.0549107,3.00016399 Z"/>
    <path fill="#FF78C7" d="M48.0549107,3.00016399 C48.03662,3.00005472 48.0183164,3 48,3 C43.0294373,3 39,7.02943725 39,12 C39,16.9705627 43.0294373,21 48,21 C52.6326099,21 56.4477196,17.4998654 56.9450893,12.999836 C51.9997952,12.9702905 48,8.95224637 48,4 C48,3.66204718 48.0186271,3.32844495 48.0549107,3.00016399 Z" transform="matrix(-1 0 0 1 95.945 0)"/>
    <path stroke="#E43535" stroke-linecap="round" stroke-width="4" d="M12.6994095 42L7 42M56.6994095 42L51 42"/>
    <rect width="40" height="23" x="12" y="28" fill="#FF78C7" rx="10"/>
  </g>
</svg>
