<svg xmlns="http://www.w3.org/2000/svg" width="64" height="64" viewBox="0 0 64 64">
  <g fill="none" fill-rule="evenodd">
    <path fill="#22BA8E" d="M1,20.9970002 C1,18.789518 2.7850618,17 4.99145573,17 L34.6434047,17 L49.994991,23.1500618 L60.9964682,23.1500618 C62.1029883,23.1500618 63,24.0499885 63,25.1468224 L63,39.8115608 C63,40.9143412 62.1887095,42.2026056 61.1886137,42.6672144 C61.1886137,42.6672144 49.781104,48.5158814 35.9576976,50 C22.1342912,51.4841186 4.99456755,50.2334814 4.99456755,50.2334814 C2.78842881,50.1045332 1,48.2023415 1,46.0029998 L1,20.9970002 Z"/>
    <path fill="#595959" stroke="#22BA8E" stroke-linecap="round" stroke-width="2" d="M15,17.5 C16.5561424,14.8098938 19.4646896,13 22.7959602,13 C26.1272308,13 29.0357781,14.8098938 30.5919205,17.5 C29.0357781,20.1901062 26.1272308,22 22.7959602,22 C19.4646896,22 16.5561424,20.1901062 15,17.5 Z"/>
    <polyline stroke="#595959" stroke-linecap="square" stroke-width="2" points="62 32 55.917 32 49.992 37.494 48.303 28.345 44.853 34.995 40.643 31.541 33.507 34.005 28.991 31.636 25.6 34.348 17.53 34.452 14.256 30.916 9.104 30.916"/>
    <circle cx="26.5" cy="17.5" r="1.5" fill="#E43535"/>
    <circle cx="60" cy="24" r="3" fill="#22BA8E"/>
    <path fill="#595959" d="M62,24 C62,22.8954305 61.1045695,22 60,22 C58.8954305,22 58,22.8954305 58,24"/>
  </g>
</svg>
