<svg xmlns="http://www.w3.org/2000/svg" width="64" height="64" viewBox="0 0 64 64">
  <g fill="none" fill-rule="evenodd">
    <path fill="#FCC24C" d="M25,25 L3.99630737,25 C2.89473039,25 2,25.8980535 2,27.0058587 L2,36.9941413 C2,38.1029399 2.89377725,39 3.99630737,39 L25,39 L25,60.0036926 C25,61.1052696 25.8980535,62 27.0058587,62 L36.9941413,62 C38.1029399,62 39,61.1062227 39,60.0036926 L39,39 L60.0036926,39 C61.1052696,39 62,38.1019465 62,36.9941413 L62,27.0058587 C62,25.8970601 61.1062227,25 60.0036926,25 L39,25 L39,3.99630737 C39,2.89473039 38.1019465,2 36.9941413,2 L27.0058587,2 C25.8970601,2 25,2.89377725 25,3.99630737 L25,25 Z"/>
    <path fill="#ED9111" d="M32,4 L37,8 L27,8 L32,4 Z M60,32 L56,37 L56,27 L60,32 Z M32,60 L27,56 L37,56 L32,60 Z M4,32 L8,27 L8,37 L4,32 Z"/>
    <circle cx="32" cy="32" r="6" fill="#ED9111"/>
  </g>
</svg>
