<svg xmlns="http://www.w3.org/2000/svg" width="64" height="64" viewBox="0 0 64 64">
  <g fill="none" fill-rule="evenodd">
    <path fill="#5EA7FF" d="M24.5853659,19 C19.4127477,19 16,24.9801966 16,32.3571429 C16,39.7340892 19.4127477,63 24.5853659,63 C27.6028872,63 27.9456474,43.6791409 32,43.6616468 C36.8348404,43.6791409 36.3971128,63 39.4146341,63 C44.5872523,63 48,39.7340892 48,32.3571429 C48,24.9801966 44.5872523,19 39.4146341,19 C36.9430894,19 34.4715447,21.3571429 32,21.3571429 C29.5284553,21.3571429 27.0569106,19 24.5853659,19 Z"/>
    <ellipse cx="32" cy="19" fill="#BE7676" rx="16" ry="5"/>
    <path fill="#FCC24C" d="M16,9 L24,21 L32,9 L40,21 L48,9 L48,32 C48,32 40,35.0537601 32,35.0537601 C24,35.0537601 16,32 16,32 L16,9 Z"/>
    <path stroke="#FFDD95" stroke-linecap="round" stroke-width="2" d="M32 7L32 2M24 7L21 2"/>
    <path stroke="#FFDD95" stroke-linecap="round" stroke-width="2" d="M43,7 L40,2" transform="matrix(-1 0 0 1 83 0)"/>
  </g>
</svg>
