<svg xmlns="http://www.w3.org/2000/svg" width="64" height="64" viewBox="0 0 64 64">
  <g fill="none" fill-rule="evenodd">
    <polygon fill="#5B68C0" points="14 2 43.105 2 55 13.753 55 61 14 61"/>
    <rect width="33" height="18" x="14" y="25" fill="#80D25B"/>
    <polygon fill="#0A3586" points="43 2 55 2 55 14" transform="rotate(-180 49 8)"/>
    <path fill="#0A3586" d="M26.166,36.676 C26.1566666,36.8813344 26.0680008,37.0913323 25.9,37.306 C25.6386654,37.6140015 25.470667,37.8473325 25.396,38.006 C24.8079971,38.9020045 24.2013365,39.35 23.576,39.35 C22.838663,39.35 22.2646687,38.9766704 21.854,38.23 C21.4899982,37.5486633 21.308,36.6900052 21.308,35.654 C21.308,34.4686607 21.5319978,33.4373377 21.98,32.56 C22.4746691,31.5893285 23.1139961,31.104 23.898,31.104 C24.5140031,31.104 25.0133314,31.4446633 25.396,32.126 C25.7133349,32.7046696 25.872,33.3346633 25.872,34.016 C25.872,34.2026676 25.8580001,34.3659993 25.83,34.506 C25.7646663,34.8233349 25.498669,34.982 25.032,34.982 C24.6679982,34.982 24.388001,34.8793344 24.192,34.674 C24.0986662,34.5713328 24.052,34.3333352 24.052,33.96 C24.052,33.8666662 24.0566666,33.7313342 24.066,33.554 L24.066,33.148 C24.066,32.7279979 23.9913341,32.518 23.842,32.518 C23.6833325,32.518 23.5153342,32.9776621 23.338,33.897 C23.1606658,34.8163379 23.072,35.6773293 23.072,36.48 C23.072,37.413338 23.2119986,37.88 23.492,37.88 C23.8560018,37.88 24.1266658,37.5860029 24.304,36.998 C24.378667,36.9139996 24.4206666,36.7460013 24.43,36.494 C24.43,36.2699989 24.4859994,36.1230004 24.598,36.053 C24.7100006,35.9829996 24.8733323,35.948 25.088,35.948 C25.3680014,35.948 25.6106656,36.0086661 25.816,36.13 C26.0586679,36.2700007 26.1753334,36.4519989 26.166,36.676 Z M32.004,37.124 C32.004,37.7773366 31.770669,38.3349977 31.304,38.797 C30.837331,39.2590023 30.2866698,39.49 29.652,39.49 C29.2506647,39.49 28.8353355,39.2986686 28.406,38.916 C28.0699983,38.6079985 27.766668,38.2300022 27.496,37.782 C27.2626655,37.389998 27.1599999,37.1426672 27.188,37.04 C27.2906672,36.8066655 27.612664,36.69 28.154,36.69 C28.3780011,36.69 28.5553327,36.7226663 28.686,36.788 C28.9100011,36.9093339 29.0359999,37.0633324 29.064,37.25 C29.0920001,37.4646677 29.1386663,37.5999997 29.204,37.656 C29.400001,37.9546682 29.5773325,38.104 29.736,38.104 C29.8573339,38.104 29.9716661,38.0223342 30.079,37.859 C30.1863339,37.6956659 30.24,37.5020011 30.24,37.278 C30.24,37.1379993 30.2166669,36.9980007 30.17,36.858 C30.1233331,36.7179993 29.8713356,36.5033348 29.414,36.214 C28.8633306,35.8686649 28.4713345,35.5653346 28.238,35.304 C27.8366647,34.8559978 27.636,34.3333363 27.636,33.736 C27.636,33.0359965 27.8413313,32.422336 28.252,31.895 C28.6626687,31.367664 29.1853302,31.104 29.82,31.104 C30.4733366,31.104 30.9726649,31.3513309 31.318,31.846 C31.5980014,32.2473353 31.7146669,32.6533313 31.668,33.064 C31.7706672,33.1760006 31.822,33.3626654 31.822,33.624 C31.822,33.9040014 31.7193344,34.141999 31.514,34.338 C31.3086656,34.534001 31.0986677,34.632 30.884,34.632 C30.5666651,34.632 30.2913345,34.4220021 30.058,34.002 C29.9926663,33.8899994 29.96,33.7406676 29.96,33.554 C29.96,33.4699996 29.9669999,33.3510008 29.981,33.197 C29.9950001,33.0429992 30.002,32.9333337 30.002,32.868 C30.002,32.6253321 29.9133342,32.504 29.736,32.504 C29.465332,32.504 29.33,32.7699973 29.33,33.302 C29.33,33.843336 29.5073316,34.2773317 29.862,34.604 C30.0020007,34.7346673 30.305331,34.9213321 30.772,35.164 C31.1733353,35.3693344 31.4579992,35.5793323 31.626,35.794 C31.8780013,36.1206683 32.004,36.5639972 32.004,37.124 Z M37.926,37.124 C37.926,37.7773366 37.692669,38.3349977 37.226,38.797 C36.759331,39.2590023 36.2086698,39.49 35.574,39.49 C35.1726647,39.49 34.7573355,39.2986686 34.328,38.916 C33.9919983,38.6079985 33.688668,38.2300022 33.418,37.782 C33.1846655,37.389998 33.0819999,37.1426672 33.11,37.04 C33.2126672,36.8066655 33.534664,36.69 34.076,36.69 C34.3000011,36.69 34.4773327,36.7226663 34.608,36.788 C34.8320011,36.9093339 34.9579999,37.0633324 34.986,37.25 C35.0140001,37.4646677 35.0606663,37.5999997 35.126,37.656 C35.322001,37.9546682 35.4993325,38.104 35.658,38.104 C35.7793339,38.104 35.8936661,38.0223342 36.001,37.859 C36.1083339,37.6956659 36.162,37.5020011 36.162,37.278 C36.162,37.1379993 36.1386669,36.9980007 36.092,36.858 C36.0453331,36.7179993 35.7933356,36.5033348 35.336,36.214 C34.7853306,35.8686649 34.3933345,35.5653346 34.16,35.304 C33.7586647,34.8559978 33.558,34.3333363 33.558,33.736 C33.558,33.0359965 33.7633313,32.422336 34.174,31.895 C34.5846687,31.367664 35.1073302,31.104 35.742,31.104 C36.3953366,31.104 36.8946649,31.3513309 37.24,31.846 C37.5200014,32.2473353 37.6366669,32.6533313 37.59,33.064 C37.6926672,33.1760006 37.744,33.3626654 37.744,33.624 C37.744,33.9040014 37.6413344,34.141999 37.436,34.338 C37.2306656,34.534001 37.0206677,34.632 36.806,34.632 C36.4886651,34.632 36.2133345,34.4220021 35.98,34.002 C35.9146663,33.8899994 35.882,33.7406676 35.882,33.554 C35.882,33.4699996 35.8889999,33.3510008 35.903,33.197 C35.9170001,33.0429992 35.924,32.9333337 35.924,32.868 C35.924,32.6253321 35.8353342,32.504 35.658,32.504 C35.387332,32.504 35.252,32.7699973 35.252,33.302 C35.252,33.843336 35.4293316,34.2773317 35.784,34.604 C35.9240007,34.7346673 36.227331,34.9213321 36.694,35.164 C37.0953353,35.3693344 37.3799992,35.5793323 37.548,35.794 C37.8000013,36.1206683 37.926,36.5639972 37.926,37.124 Z"/>
  </g>
</svg>
