<svg xmlns="http://www.w3.org/2000/svg" width="64" height="64" viewBox="0 0 64 64">
  <g fill="none" fill-rule="evenodd">
    <rect width="47" height="59" x="10" y="3" fill="#0A3586" rx="2"/>
    <rect width="39" height="18" x="14" y="10" fill="#FFAF40"/>
    <path fill="#FFF" d="M46.336,12.05 C46.528001,12.1340004 46.624,12.2839989 46.624,12.5 C46.624,12.8240016 46.4740015,13.0579993 46.174,13.202 C45.981999,13.2980005 45.7120017,13.346 45.364,13.346 C45.0519984,13.346 44.7340016,13.2950005 44.41,13.193 C44.0859984,13.0909995 43.9060002,12.9980004 43.87,12.914 C43.665999,12.3379971 43.767998,11.9240013 44.176,11.672 C44.2720005,11.6119997 44.4579986,11.582 44.734,11.582 C45.4900038,11.582 46.0239984,11.7379984 46.336,12.05 Z M48.874,18.656 C48.874,19.5320044 48.4060047,20.6059936 47.47,21.878 C46.5699955,23.0300058 45.7060041,23.606 44.878,23.606 C44.0619959,23.606 43.2340042,23.3540025 42.394,22.85 C41.6739964,22.3219974 41.3259999,21.8360022 41.35,21.392 C41.3740001,21.1399987 41.6799971,21.014 42.268,21.014 C42.7600025,21.014 43.2159979,21.0979992 43.636,21.266 C43.7800007,21.3860006 44.0139984,21.5359991 44.338,21.716 C44.542001,21.7280001 44.8329981,21.4940024 45.211,21.014 C45.5890019,20.5339976 45.778,20.1620013 45.778,19.898 C45.778,19.7419992 45.676001,19.664 45.472,19.664 C45.3639995,19.664 44.908004,19.6999996 44.104,19.772 C43.299996,19.8440004 42.694002,19.88 42.286,19.88 C41.3739954,19.88 40.8040011,19.6100027 40.576,19.07 C40.5639999,19.0579999 40.558,18.9980005 40.558,18.89 C40.558,18.2659969 41.0979946,17.3180064 42.178,16.046 C43.3660059,14.6899932 44.3919957,14.012 45.256,14.012 C45.8680031,14.012 46.4859969,14.2459977 47.11,14.714 C47.7700033,15.1340021 48.0760002,15.4579989 48.028,15.686 C47.8839993,16.4540038 47.3980041,16.838 46.57,16.838 C46.4379993,16.838 46.2940008,16.8170002 46.138,16.775 C45.9819992,16.7329998 45.8200008,16.6010011 45.652,16.379 C45.4839992,16.1569989 45.304001,16.046 45.112,16.046 C44.8959989,16.046 44.5090028,16.348997 43.951,16.955 C43.3929972,17.561003 43.114,17.9959987 43.114,18.26 C43.114,18.2960002 43.1619995,18.314 43.258,18.314 C43.4380009,18.314 44.031995,18.2060011 45.04,17.99 C46.048005,17.7739989 46.8339972,17.666 47.398,17.666 C48.3820049,17.666 48.874,17.9959967 48.874,18.656 Z M46.354,25.28 C46.354,25.7840025 46.0120034,26.1499989 45.328,26.378 C45.1479991,26.4260002 44.8270023,26.3630009 44.365,26.189 C43.9029977,26.0149991 43.6660001,25.8560007 43.654,25.712 C43.5939997,25.2079975 43.6959987,24.8660009 43.96,24.686 C44.1040007,24.5779995 44.3379984,24.524 44.662,24.524 C45.058002,24.524 45.4239983,24.5779995 45.76,24.686 C46.0960017,24.7940005 46.2789998,24.9049994 46.309,25.019 C46.3390001,25.1330006 46.354,25.2199997 46.354,25.28 Z"/>
    <rect width="11" height="11" x="14" y="34" fill="#22BA8E"/>
    <rect width="11" height="11" x="28" y="34" fill="#22BA8E"/>
    <polygon fill="#22BA8E" points="42 34 53 34 53 59.063 42 59.063"/>
    <rect width="11" height="11" x="14" y="48" fill="#22BA8E"/>
    <rect width="11" height="11" x="28" y="48" fill="#22BA8E"/>
    <rect width="2" height="2" x="49" y="22" fill="#FFF"/>
  </g>
</svg>
