<svg xmlns="http://www.w3.org/2000/svg" width="64" height="64" viewBox="0 0 64 64">
  <g fill="none" fill-rule="evenodd">
    <path fill="#E43535" d="M18.9998075,53 C18.4476291,53 18,52.5574707 18,51.9902639 L18,20.0074612 C18,18.898771 17.1125667,18 16.000385,18 L9.99961498,18 C8.89525812,18 8,18.9003455 8,20.0074612 L8,51.9902639 C8,52.5479258 7.55628335,53 7.00019251,53 L3.99980749,53 C3.44762906,53 3.31024575,53.3102458 3.70318058,53.7031806 L12.2968194,62.2968194 C12.6851753,62.6851753 13.3102458,62.6897542 13.7031806,62.2968194 L22.2968194,53.7031806 C22.6851753,53.3148247 22.5562834,53 22.0001925,53 L18.9998075,53 Z"/>
    <path fill="#80D25B" d="M45.0001925,12 C45.5523709,12 46,12.4415804 46,13.0057256 L46,45.0027084 C46,46.1084602 46.8952581,47 47.999615,47 L54.000385,47 C55.1125667,47 56,46.1057821 56,45.0027084 L56,13.0057256 C56,12.4502787 56.4437166,12 56.9998075,12 L60.0001925,12 C60.5523709,12 60.6897542,11.6897542 60.2968194,11.2968194 L51.7031806,2.70318058 C51.3148247,2.31482467 50.6897542,2.31024575 50.2968194,2.70318058 L41.7031806,11.2968194 C41.3148247,11.6851753 41.4437166,12 41.9998075,12 L45.0001925,12 Z"/>
    <circle cx="32" cy="31" r="19" fill="#4796E7"/>
    <path fill="#FFF" d="M36.32,30.43 C36.2199995,30.43 35.6400053,30.2900014 34.58,30.01 L28.01,31.06 C28.01,31.6400029 28.0299998,32.2099972 28.07,32.77 L32.78,32.08 C33.4000031,31.5199972 33.8399987,31.2200002 34.1,31.18 C34.4800019,31.1199997 34.8949978,31.4049969 35.345,32.035 C35.7950022,32.6650032 36.0699995,33.2899969 36.17,33.91 C36.2300003,34.3300021 36.1500011,34.6949984 35.93,35.005 C35.7099989,35.3150015 35.4700013,35.4899998 35.21,35.53 C35.1099995,35.5500001 34.5300053,35.4200014 33.47,35.14 L28.61,35.92 C29.3900039,38.5800133 30.8199896,39.91 32.9,39.91 C33.7400042,39.91 34.4399972,39.5900032 35,38.95 C35.5000025,38.3699971 35.7999995,37.6500043 35.9,36.79 C36.300002,35.9699959 36.999995,35.56 38,35.56 C38.6200031,35.56 39.1799975,35.7349982 39.68,36.085 C40.1800025,36.4350018 40.43,36.8599975 40.43,37.36 C40.43,37.4800006 40.4200001,37.5999994 40.4,37.72 C40.3399997,37.9400011 40.1500016,38.1899986 39.83,38.47 C39.4699982,38.8100017 39.2500004,39.0299995 39.17,39.13 C39.0099992,39.3900013 38.6700026,39.8599966 38.15,40.54 C36.8499935,42.6000103 35.3400086,43.63 33.62,43.63 C31.3199885,43.63 29.3800079,42.9500068 27.8,41.59 C26.3599928,40.389994 25.3000034,38.7100108 24.62,36.55 L23.75,36.67 C23.0899967,37.1900026 22.6400012,37.4699998 22.4,37.51 C21.6199961,37.6300006 21.130001,37.0700062 20.93,35.83 C20.9099999,35.629999 20.9,35.4500008 20.9,35.29 C20.9,34.1899945 21.399995,33.5600008 22.4,33.4 C22.600001,33.3799999 23.0899961,33.37 23.87,33.37 L23.96,33.37 C23.8799996,32.8299973 23.8300001,32.2800028 23.81,31.72 L23.57,31.75 C22.9299968,32.2500025 22.4800013,32.5199998 22.22,32.56 C21.4399961,32.7000007 20.9600009,32.1400063 20.78,30.88 C20.7399998,30.6999991 20.72,30.5300008 20.72,30.37 C20.72,29.2699945 21.2299949,28.6400008 22.25,28.48 C22.4300009,28.4399998 22.919996,28.4299999 23.72,28.45 L23.96,28.42 C24.3400019,25.5399856 25.2899924,23.2500085 26.81,21.55 C28.5300086,19.6499905 30.7999859,18.7 33.62,18.7 C34.5400046,18.7 35.5199948,19.0299967 36.56,19.69 C37.4400044,20.2500028 38.0899979,20.829997 38.51,21.43 C38.7300011,21.7700017 38.9999984,22.0699987 39.32,22.33 C39.6400016,22.5900013 39.8099999,22.7299999 39.83,22.75 C39.9900008,23.0300014 40.07,23.3099986 40.07,23.59 C40.07,24.1500028 39.7200035,24.629998 39.02,25.03 C38.3999969,25.3700017 37.7100038,25.54 36.95,25.54 C36.0699956,25.54 35.5100012,25.3200022 35.27,24.88 C35.2299998,24.7999996 35.1600005,24.3900037 35.06,23.65 C34.9599995,23.4699991 34.6700024,23.2300015 34.19,22.93 C33.6499973,22.6099984 33.2200016,22.45 32.9,22.45 C30.3799874,22.45 28.8300029,24.2299822 28.25,27.79 L33.89,26.98 C34.5300032,26.4199972 34.9699988,26.1200002 35.21,26.08 C35.5900019,26.0199997 36.0049978,26.2999969 36.455,26.92 C36.9050022,27.5400031 37.1799995,28.1599969 37.28,28.78 C37.3400003,29.2200022 37.2600011,29.5949985 37.04,29.905 C36.8199989,30.2150016 36.5800013,30.3899998 36.32,30.43 Z"/>
  </g>
</svg>
