<svg xmlns="http://www.w3.org/2000/svg" width="64" height="64" viewBox="0 0 64 64">
  <g fill="none" fill-rule="evenodd">
    <path fill="#E43535" d="M16.9998075,53 C16.4476291,53 16,52.5574707 16,51.9902639 L16,20.0074612 C16,18.898771 15.1125667,18 14.000385,18 L7.99961498,18 C6.89525812,18 6,18.9003455 6,20.0074612 L6,51.9902639 C6,52.5479258 5.55628335,53 5.00019251,53 L1.99980749,53 C1.44762906,53 1.31024575,53.3102458 1.70318058,53.7031806 L10.2968194,62.2968194 C10.6851753,62.6851753 11.3102458,62.6897542 11.7031806,62.2968194 L20.2968194,53.7031806 C20.6851753,53.3148247 20.5562834,53 20.0001925,53 L16.9998075,53 Z"/>
    <path fill="#80D25B" d="M43.0001925,12 C43.5523709,12 44,12.4415804 44,13.0057256 L44,45.0027084 C44,46.1084602 44.8952581,47 45.999615,47 L52.000385,47 C53.1125667,47 54,46.1057821 54,45.0027084 L54,13.0057256 C54,12.4502787 54.4437166,12 54.9998075,12 L58.0001925,12 C58.5523709,12 58.6897542,11.6897542 58.2968194,11.2968194 L49.7031806,2.70318058 C49.3148247,2.31482467 48.6897542,2.31024575 48.2968194,2.70318058 L39.7031806,11.2968194 C39.3148247,11.6851753 39.4437166,12 39.9998075,12 L43.0001925,12 Z"/>
    <circle cx="30" cy="31" r="19" fill="#D650C7"/>
    <path fill="#FFF" d="M35.2126416,38.638779 C35.353692,38.0448826 35.6478086,37.6386269 36.095,37.42 C36.5450023,37.1999989 36.9999977,37.1599993 37.46,37.3 C38.5400054,37.6800019 38.9300015,38.4499942 38.63,39.61 C37.8099959,41.61001 36.4300097,42.8199979 34.49,43.24 C34.089998,43.24 33.6600023,43.2100003 33.2,43.15 C32.7399977,43.0899997 32.2600025,42.9900007 31.76,42.85 C31.4799986,42.7899997 31.2000014,42.7350002 30.92,42.685 C30.6399986,42.6349998 30.3700013,42.61 30.11,42.61 C29.7499982,42.61 29.4200015,42.6599995 29.12,42.76 L27.95,43.12 C27.1099958,43.2400006 26.3200037,43.2800002 25.58,43.24 C24.7399958,42.9799987 24.215001,42.650002 24.005,42.25 C23.794999,41.849998 23.7499994,41.4100024 23.87,40.93 C23.9100002,40.7499991 23.9799995,40.5950006 24.08,40.465 C24.1800005,40.3349993 24.2899994,40.1900008 24.41,40.03 C24.5100005,39.8699992 24.6249994,39.7150008 24.755,39.565 C24.8850007,39.4149992 24.9899996,39.2500009 25.07,39.07 L25.04,39.13 C25.2600011,38.0099944 25.4749989,36.955005 25.685,35.965 C25.8950011,34.974995 26.099999,33.9300055 26.3,32.83 C26.0799989,32.8500001 25.8750009,32.855 25.685,32.845 C25.4949991,32.8349999 25.2900011,32.83 25.07,32.83 L24.65,32.83 C24.2899982,32.83 24.0050011,32.6650016 23.795,32.335 C23.5849989,32.0049984 23.48,31.6700017 23.48,31.33 C23.48,31.0699987 23.5099997,30.7850015 23.57,30.475 C23.6300003,30.1649984 23.7399992,29.9000011 23.9,29.68 C24.0200006,29.5999996 24.2199986,29.5200004 24.5,29.44 C24.7800014,29.3599996 25.0599986,29.3000002 25.34,29.26 C25.6200014,29.2199998 25.8699989,29.1950001 26.09,29.185 C26.3100011,29.1749999 26.42,29.1799999 26.42,29.2 C26.42,29.1799999 26.4799994,29.1650001 26.6,29.155 C26.7200006,29.145 26.879999,29.14 27.08,29.14 L28.88,20.02 C29.0600009,19.3399966 29.4899966,18.8400016 30.17,18.52 C30.8500034,18.1999984 31.7399945,18.0899995 32.84,18.19 L32.99,18.19 L34.22,18.31 C36.1200095,18.7900024 37.1499992,20.0399899 37.31,22.06 C37.3500002,22.3200013 37.3300004,22.5599989 37.25,22.78 C37.1099993,23.2000021 36.840002,23.509999 36.44,23.71 C36.039998,23.910001 35.6200022,23.9600005 35.18,23.86 C34.7999981,23.7399994 34.5000011,23.5300015 34.28,23.23 C34.0599989,22.9299985 33.95,22.5500023 33.95,22.09 C34.0100003,21.7899985 33.7600028,21.5700007 33.2,21.43 C32.9799989,21.4500001 32.8150006,21.4749999 32.705,21.505 C32.5949995,21.5350002 32.4900005,21.6099994 32.39,21.73 C32.3099996,21.9700012 32.1450012,22.689994 31.895,23.89 C31.6449988,25.090006 31.3100021,26.8299886 30.89,29.11 C31.2500018,29.0699998 31.5699986,29.05 31.85,29.05 L32.72,29.05 C33.5600042,29.0299999 34.2999968,29.0899993 34.94,29.23 C35.3800022,29.3700007 35.7099989,29.6799976 35.93,30.16 C36.1500011,30.6400024 36.2200004,31.1399974 36.14,31.66 C35.8999988,32.8400059 35.2500053,33.2400019 34.19,32.86 C34.1099996,32.8199998 34.0300004,32.7950001 33.95,32.785 C33.8699996,32.775 33.7800005,32.7600001 33.68,32.74 C33.1999976,32.5999993 32.5800038,32.5599997 31.82,32.62 L30.14,32.77 L28.91,38.77 C29.2300016,38.7299998 29.5299986,38.7000001 29.81,38.68 C30.0900014,38.6599999 30.3799985,38.65 30.68,38.65 C31.280003,38.65 31.8449973,38.7099994 32.375,38.83 C32.9050027,38.9500006 33.4299974,39.1499986 33.95,39.43 L33.92,39.43 C34.4456313,39.4884035 34.8765078,39.2246657 35.2126416,38.638779 L35.2126416,38.638779 Z"/>
  </g>
</svg>
