<svg xmlns="http://www.w3.org/2000/svg" width="64" height="64" viewBox="0 0 64 64">
  <g fill="none" fill-rule="evenodd">
    <rect width="58" height="40" x="-5" y="12" fill="#D8D8D8" rx="2" transform="rotate(90 24 32)"/>
    <circle cx="24" cy="58" r="2" fill="#868686" transform="rotate(90 24 58)"/>
    <rect width="49" height="36" x="-.5" y="12.5" fill="#325AA6" rx="1" transform="rotate(90 24 30.5)"/>
    <path fill="#FFF" d="M28.32,17.875 C28.6933352,18.0383342 28.88,18.3299979 28.88,18.75 C28.88,19.3800031 28.5883362,19.8349986 28.005,20.115 C27.6316648,20.3016676 27.1066701,20.395 26.43,20.395 C25.8233303,20.395 25.2050032,20.2958343 24.575,20.0975 C23.9449969,19.8991657 23.5950003,19.7183342 23.525,19.555 C23.1283314,18.4349944 23.3266627,17.6300024 24.12,17.14 C24.3066676,17.0233328 24.6683307,16.965 25.205,16.965 C26.6750073,16.965 27.7133303,17.2683303 28.32,17.875 Z M33.255,30.72 C33.255,32.4233418 32.3450091,34.5116543 30.525,36.985 C28.7749912,39.2250112 27.0950081,40.345 25.485,40.345 C23.8983254,40.345 22.2883415,39.8550049 20.655,38.875 C19.254993,37.8483282 18.5783331,36.9033377 18.625,36.04 C18.6716669,35.5499975 19.2666609,35.305 20.41,35.305 C21.3666715,35.305 22.2533292,35.4683317 23.07,35.795 C23.3500014,36.0283345 23.8049968,36.3199983 24.435,36.67 C24.8316686,36.6933334 25.3974963,36.238338 26.1325,35.305 C26.8675037,34.371662 27.235,33.6483359 27.235,33.135 C27.235,32.8316651 27.0366687,32.68 26.64,32.68 C26.429999,32.68 25.5433411,32.7499993 23.98,32.89 C22.4166588,33.0300007 21.2383373,33.1 20.445,33.1 C18.6716578,33.1 17.5633356,32.5750052 17.12,31.525 C17.0966666,31.5016665 17.085,31.3850011 17.085,31.175 C17.085,29.9616606 18.1349895,28.1183457 20.235,25.645 C22.5450116,23.0083202 24.5399916,21.69 26.22,21.69 C27.410006,21.69 28.6116606,22.1449955 29.825,23.055 C31.1083398,23.8716707 31.7033338,24.5016645 31.61,24.945 C31.3299986,26.4383408 30.3850081,27.185 28.775,27.185 C28.5183321,27.185 28.2383349,27.1441671 27.935,27.0625 C27.6316652,26.9808329 27.3166683,26.7241688 26.99,26.2925 C26.6633317,25.8608312 26.3133352,25.645 25.94,25.645 C25.5199979,25.645 24.7675054,26.2341608 23.6825,27.4125 C22.5974946,28.5908392 22.055,29.4366641 22.055,29.95 C22.055,30.0200004 22.1483324,30.055 22.335,30.055 C22.6850017,30.055 23.8399902,29.8450021 25.8,29.425 C27.7600098,29.0049979 29.2883278,28.795 30.385,28.795 C32.2983429,28.795 33.255,29.4366603 33.255,30.72 Z M28.355,43.6 C28.355,44.5800049 27.6900066,45.2916645 26.36,45.735 C26.0099982,45.8283338 25.3858378,45.705835 24.4875,45.3675 C23.5891622,45.029165 23.1283335,44.7200014 23.105,44.44 C22.9883328,43.4599951 23.1866641,42.7950017 23.7,42.445 C23.9800014,42.2349989 24.4349968,42.13 25.065,42.13 C25.8350039,42.13 26.5466634,42.2349989 27.2,42.445 C27.8533366,42.655001 28.2091664,42.8708322 28.2675,43.0925 C28.3258336,43.3141678 28.355,43.4833328 28.355,43.6 Z"/>
    <rect width="14" height="12" x="47.294" y="47.579" fill="#FFDD95" transform="rotate(-30 54.294 53.579)"/>
    <path fill="#FFDD95" d="M41.4772413,35.6733938 L52.4771193,35.6733938 C54.1340409,35.6733938 55.4772413,37.0263193 55.4772413,38.6659335 L55.4772413,48.6832939 C55.4772413,51.43925 53.2418285,53.6733938 50.485215,53.6733938 L38.4746632,53.6733938 C37.3715176,53.6733938 36.4772413,52.780771 36.4772413,51.6783045 L36.4772413,37.919527 L36.4772413,25.1762166 C36.4772413,23.7939457 37.5869034,22.6733938 38.9772413,22.6733938 C40.3579532,22.6733938 41.4772413,23.7993744 41.4772413,25.1762166 L41.4772413,35.6733938 Z" transform="rotate(-30 45.977 38.173)"/>
    <path stroke="#FFCC60" stroke-linecap="square" stroke-width="2" d="M43.1961524,38.3564065 L43.1961524,42.3564065" transform="rotate(-30 43.196 40.356)"/>
    <path stroke="#FFCC60" stroke-linecap="square" stroke-width="2" d="M46.660254,36.3564065 L46.660254,40.3564065" transform="rotate(-30 46.66 38.356)"/>
    <path stroke="#FFCC60" stroke-linecap="square" stroke-width="2" d="M50.1243557,34.3564065 L50.1243557,38.3564065" transform="rotate(-30 50.124 36.356)"/>
  </g>
</svg>
