<svg xmlns="http://www.w3.org/2000/svg" width="64" height="64" viewBox="0 0 64 64">
  <g fill="none" fill-rule="evenodd">
    <path fill="#E43535" d="M18.9998075,53 C18.4476291,53 18,52.5574707 18,51.9902639 L18,20.0074612 C18,18.898771 17.1125667,18 16.000385,18 L9.99961498,18 C8.89525812,18 8,18.9003455 8,20.0074612 L8,51.9902639 C8,52.5479258 7.55628335,53 7.00019251,53 L3.99980749,53 C3.44762906,53 3.31024575,53.3102458 3.70318058,53.7031806 L12.2968194,62.2968194 C12.6851753,62.6851753 13.3102458,62.6897542 13.7031806,62.2968194 L22.2968194,53.7031806 C22.6851753,53.3148247 22.5562834,53 22.0001925,53 L18.9998075,53 Z"/>
    <path fill="#80D25B" d="M45.0001925,12 C45.5523709,12 46,12.4415804 46,13.0057256 L46,45.0027084 C46,46.1084602 46.8952581,47 47.999615,47 L54.000385,47 C55.1125667,47 56,46.1057821 56,45.0027084 L56,13.0057256 C56,12.4502787 56.4437166,12 56.9998075,12 L60.0001925,12 C60.5523709,12 60.6897542,11.6897542 60.2968194,11.2968194 L51.7031806,2.70318058 C51.3148247,2.31482467 50.6897542,2.31024575 50.2968194,2.70318058 L41.7031806,11.2968194 C41.3148247,11.6851753 41.4437166,12 41.9998075,12 L45.0001925,12 Z"/>
    <circle cx="32" cy="31" r="19" fill="#22BA8E"/>
    <path fill="#FFF" d="M35.32,17.875 C35.6933352,18.0383342 35.88,18.3299979 35.88,18.75 C35.88,19.3800031 35.5883362,19.8349986 35.005,20.115 C34.6316648,20.3016676 34.10667,20.395 33.43,20.395 C32.8233303,20.395 32.2050031,20.2958343 31.575,20.0975 C30.9449968,19.8991657 30.5950004,19.7183342 30.525,19.555 C30.1283313,18.4349944 30.3266627,17.6300024 31.12,17.14 C31.3066676,17.0233328 31.6683306,16.965 32.205,16.965 C33.6750073,16.965 34.7133303,17.2683303 35.32,17.875 Z M40.255,30.72 C40.255,32.4233418 39.3450091,34.5116543 37.525,36.985 C35.7749913,39.2250112 34.095008,40.345 32.485,40.345 C30.8983254,40.345 29.2883415,39.8550049 27.655,38.875 C26.254993,37.8483282 25.5783331,36.9033377 25.625,36.04 C25.6716669,35.5499975 26.266661,35.305 27.41,35.305 C28.3666715,35.305 29.2533292,35.4683317 30.07,35.795 C30.3500014,36.0283345 30.8049969,36.3199983 31.435,36.67 C31.8316686,36.6933334 32.3974963,36.238338 33.1325,35.305 C33.8675037,34.371662 34.235,33.6483359 34.235,33.135 C34.235,32.8316651 34.0366687,32.68 33.64,32.68 C33.429999,32.68 32.5433412,32.7499993 30.98,32.89 C29.4166588,33.0300007 28.2383373,33.1 27.445,33.1 C25.6716578,33.1 24.5633355,32.5750052 24.12,31.525 C24.0966666,31.5016665 24.085,31.3850011 24.085,31.175 C24.085,29.9616606 25.1349895,28.1183457 27.235,25.645 C29.5450116,23.0083202 31.5399916,21.69 33.22,21.69 C34.410006,21.69 35.6116606,22.1449955 36.825,23.055 C38.1083398,23.8716707 38.7033338,24.5016645 38.61,24.945 C38.3299986,26.4383408 37.3850081,27.185 35.775,27.185 C35.5183321,27.185 35.2383349,27.1441671 34.935,27.0625 C34.6316652,26.9808329 34.3166683,26.7241688 33.99,26.2925 C33.6633317,25.8608312 33.3133352,25.645 32.94,25.645 C32.5199979,25.645 31.7675054,26.2341608 30.6825,27.4125 C29.5974946,28.5908392 29.055,29.4366641 29.055,29.95 C29.055,30.0200004 29.1483324,30.055 29.335,30.055 C29.6850018,30.055 30.8399902,29.8450021 32.8,29.425 C34.7600098,29.0049979 36.2883278,28.795 37.385,28.795 C39.2983429,28.795 40.255,29.4366603 40.255,30.72 Z M35.355,43.6 C35.355,44.5800049 34.6900066,45.2916645 33.36,45.735 C33.0099983,45.8283338 32.3858378,45.705835 31.4875,45.3675 C30.5891622,45.029165 30.1283335,44.7200014 30.105,44.44 C29.9883327,43.4599951 30.1866641,42.7950017 30.7,42.445 C30.9800014,42.2349989 31.4349969,42.13 32.065,42.13 C32.8350039,42.13 33.5466634,42.2349989 34.2,42.445 C34.8533366,42.655001 35.2091664,42.8708322 35.2675,43.0925 C35.3258336,43.3141678 35.355,43.4833328 35.355,43.6 Z"/>
  </g>
</svg>
