<svg xmlns="http://www.w3.org/2000/svg" width="64" height="64" viewBox="0 0 64 64">
  <g fill="none" fill-rule="evenodd" transform="rotate(45 27.743 62.178)">
    <rect width="8" height="42" x="4" y="20" fill="#D8D8D8"/>
    <path stroke="#979797" stroke-linecap="round" stroke-width="2" d="M4 32.4639726L11.4639726 25M4 39.4639726L11.4639726 32M4 46.4639726L11.4639726 39M4 53.4639726L11.4639726 46"/>
    <path fill="#325AA6" d="M0,17 L16,17 L16,64 L0,64 L0,17 Z M5,24.0065012 L5,57.9934988 C5,59.6576906 6.34314575,61 8,61 C9.65348288,61 11,59.6539436 11,57.9934988 L11,24.0065012 C11,22.3423094 9.65685425,21 8,21 C6.34651712,21 5,22.3460564 5,24.0065012 Z"/>
    <polygon fill="#D8D8D8" points="3 10 13 0 13 17 3 17"/>
    <path fill="#FFAF40" d="M0,64 L16,64 L16,67 C16,68.6568542 14.6633689,70 12.9905224,70 L3.00947762,70 C1.34738902,70 0,68.6534829 0,67 L0,64 Z"/>
    <rect width="10" height="3" x="3" y="54" fill="#868686"/>
  </g>
</svg>
