<svg xmlns="http://www.w3.org/2000/svg" width="64" height="64" viewBox="0 0 64 64">
  <g fill="none" fill-rule="evenodd">
    <path stroke="#979797" stroke-linecap="round" stroke-width="3" d="M25.1713556 39.5648792L11.4274723 16.3354268C11.4274723 16.3354268 13.5589133 7.92785408 8.23916087 2.20042714M35.0663121 40.5629394L47.6003044 20.3379452"/>
    <rect width="7" height="5" x="23" y="59" fill="#D8D8D8"/>
    <rect width="7" height="5" x="40" y="59" fill="#D8D8D8"/>
    <path fill="#5EA7FF" d="M42,18.2001026 C42,17.0965539 42.8935426,16.1181295 43.9885713,16.015407 L53.0114287,15.1689903 C54.1096863,15.0659649 55,15.8821569 55,16.9790035 L55,19.0834125 C55,20.1860806 54.1064574,21.0799697 52.9972399,21.0799697 L44.0027601,21.0799697 C42.8966663,21.0799697 42,20.1852659 42,19.0818181 L42,18.2001026 Z"/>
    <polyline stroke="#595959" stroke-linecap="round" stroke-width="3" points="4.317 10.5 16.165 10.5 22.148 15.704"/>
    <path fill="#5EA7FF" d="M11.7063882,42.6925676 C10.763976,40.1009341 12.230835,38 14.9985481,38 L39.0014519,38 C41.7620738,38 44.7670736,40.1094525 45.7063882,42.6925676 L50.2936118,55.3074324 C51.236024,57.8990659 49.769165,60 47.0014519,60 L22.9985481,60 C20.2379262,60 17.2329264,57.8905475 16.2936118,55.3074324 L11.7063882,42.6925676 Z"/>
    <circle cx="31" cy="49" r="6" fill="#5B68C0"/>
    <path stroke="#0A3586" stroke-linecap="round" stroke-width="2" d="M31.1292524,49.2076537 L38,56"/>
    <path stroke="#0A3586" stroke-linecap="square" stroke-width="2" d="M34,56 L40,56"/>
  </g>
</svg>
