<?xml version="1.0" encoding="UTF-8"?>
<svg width="64px" height="64px" viewBox="0 0 64 64" version="1.1" xmlns="http://www.w3.org/2000/svg" xmlns:xlink="http://www.w3.org/1999/xlink">
    <!-- Generator: Sketch 43.2 (39069) - http://www.bohemiancoding.com/sketch -->
    <title>darts</title>
    <desc>Created with Sketch.</desc>
    <defs></defs>
    <g id="Outdoor-Activities-(142)" stroke="none" stroke-width="1" fill="none" fill-rule="evenodd">
        <path d="M53.7989899,17.2010101 L53.7989899,5.15941555" id="Line" stroke="#979797" stroke-width="2" stroke-linecap="round" transform="translate(54.298990, 10.701010) rotate(-315.000000) translate(-54.298990, -10.701010) "></path>
        <path d="M13.8098298,54.2581014 C17.1235383,54.2581014 20.8098298,49.3332336 20.8098298,43.2581014 C20.8098298,37.1829691 22.1235383,30.2581014 18.8098298,30.2581014 C15.4961213,30.2581014 7.8098298,37.1829691 7.8098298,43.2581014 C7.8098298,49.3332336 10.4961213,54.2581014 13.8098298,54.2581014 Z" id="Oval-68" fill="#ED9111" transform="translate(14.438296, 42.258101) rotate(-315.000000) translate(-14.438296, -42.258101) "></path>
        <path d="M21.5880044,62.0362759 C24.9017129,62.0362759 28.5880044,57.1114082 28.5880044,51.0362759 C28.5880044,44.9611437 29.9017129,38.0362759 26.5880044,38.0362759 C23.2742959,38.0362759 15.5880044,44.9611437 15.5880044,51.0362759 C15.5880044,57.1114082 18.2742959,62.0362759 21.5880044,62.0362759 Z" id="Oval-68-Copy" fill="#ED9111" transform="translate(22.216471, 50.036276) scale(-1, 1) rotate(-45.000000) translate(-22.216471, -50.036276) "></path>
        <polygon id="Triangle-11" fill="#FCC24C" transform="translate(28.601415, 35.691478) scale(1, -1) rotate(315.000000) translate(-28.601415, -35.691478) " points="28.6014148 18.8496192 33.6014148 52.5333376 23.6014148 52.5333376"></polygon>
        <path d="M39.1066017,17.1813206 C39.1066017,14.4226422 41.3355866,12.1862915 44.108788,12.1862915 L46.1044155,12.1862915 C48.8670466,12.1862915 51.1066017,14.4201136 51.1066017,17.1813206 L51.1066017,26.1862915 L39.1066017,26.1862915 L39.1066017,17.1813206 Z" id="Rectangle-131" fill="#E74C4C" transform="translate(45.106602, 19.186292) rotate(-315.000000) translate(-45.106602, -19.186292) "></path>
    </g>
</svg>