<svg xmlns="http://www.w3.org/2000/svg" width="64" height="64" viewBox="0 0 64 64">
  <g fill="none" fill-rule="evenodd">
    <polygon fill="#FFDD95" points="8.715 24.166 17.965 23.955 21.307 23.054 29.099 23.143 32.921 20.016 39.832 20.07 46.169 24.003 55.957 24.093 55.378 37.2 48.78 37.104 43.001 39.523 44.886 41.889 29.414 49.202 15.77 37.045 8.114 36.949"/>
    <path stroke="#FFAF40" stroke-linecap="round" stroke-width="2" d="M9.11483332,37.0305911 L15.9693087,37.0105179 L28.1580776,47.8784864 C28.9809245,48.6121679 30.4672947,48.850604 31.4828465,48.4089313 L43.6734075,43.1071457 C44.6867797,42.6664209 44.8999002,41.6613671 44.1389288,40.851119 L33.571055,29.5989227 L27.5410308,33.8563085 C26.1857774,34.8131598 24.1699578,34.6089207 23.0361299,33.3975187 L23.6122819,34.0130897 C22.4795473,32.8028558 22.4605064,30.8255943 23.5698992,29.5965905 L32.1081753,20.1377463 L40.0930898,20.0588621 L46.2840925,24.0277245 L54.2876716,24.00906"/>
    <polyline stroke="#FFAF40" stroke-linecap="round" stroke-width="2" points="9.842 24.121 18.05 24.13 21.143 22.99 29.37 23.013"/>
    <polyline stroke="#FFAF40" stroke-linecap="round" stroke-width="2" points="43.421 39.761 49.323 37.045 55.114 37.065"/>
    <rect width="9" height="19" x="54" y="22" fill="#D8D8D8"/>
    <rect width="9" height="18" x="1" y="21" fill="#D8D8D8"/>
    <path stroke="#FFAF40" stroke-linecap="round" stroke-width="2" d="M34.2774914 46.9562687L29.2179842 42.6901819M37.8959529 45.2334937L33.2481227 41.0603775M41.8468551 43.5198748L36.8179859 39.012205"/>
    <rect width="2" height="2" x="5" y="35" fill="#979797"/>
    <rect width="2" height="2" x="57" y="25" fill="#979797"/>
  </g>
</svg>
