<svg xmlns="http://www.w3.org/2000/svg" width="64" height="64" viewBox="0 0 64 64">
  <g fill="none" fill-rule="evenodd">
    <rect width="31.874" height="33" x="17.001" y="17" fill="#BD7575"/>
    <path fill="#5B68C0" d="M9,49.9206814 C9,47.707202 10.7750001,45.6994337 12.9692715,45.4356406 L32.875,43.0425936 L52.7807285,45.4356406 C54.9728966,45.6991808 56.75,47.7006188 56.75,49.9206814 L56.75,62.0425936 L9,62.0425936 L9,49.9206814 Z"/>
    <path fill="#FFDD95" d="M26.6704545,41.4906185 C21.7663848,38.0068513 18.375,30.9212508 18.375,25.1331692 C18.375,17.1250403 24.8668711,10.6331692 32.875,10.6331692 C40.8831289,10.6331692 47.375,17.1250403 47.375,25.1331692 C47.375,30.9212508 43.9836152,38.0068513 39.0795455,41.4906185 L39.0795455,48.9058965 C39.0795455,48.9058965 34.8734611,50.8154815 32.875,50.8154815 C30.8765389,50.8154815 26.6704545,48.9058965 26.6704545,48.9058965 L26.6704545,41.4906185 Z"/>
    <circle cx="19.875" cy="28" r="3" fill="#FFDD95"/>
    <circle cx="45.875" cy="28" r="3" fill="#FFDD95"/>
    <path fill="#BD7575" d="M17,14.5 C17,10.9101491 19.9153211,8 23.4935409,8 L42.4047379,8 C45.9910215,8 48.8982788,10.9174538 48.8982788,14.5 L48.8982788,21 L33,12.079188 L17,21 L17,14.5 Z"/>
    <path fill="#ECECEC" d="M20.5968619 34.0000009C23.1635951 39.2569987 27.7030812 43.6331692 32.875 43.6331692 38.0469191 43.6331692 42.5864054 39.2569982 45.1531385 34L20.59686 34zM17 4C17 4 26 2 33 2 40 2 48.9608987 4 48.9608987 4L48.9608987 21C48.9608987 21 40 16 33 16 26 16 17 21 17 21L17 4z"/>
    <circle cx="33" cy="16" r="5" fill="#5EA7FF"/>
    <circle cx="33" cy="16" r="2" fill="#B4DFFB"/>
  </g>
</svg>
