<svg xmlns="http://www.w3.org/2000/svg" width="64" height="64" viewBox="0 0 64 64">
  <g fill="none" fill-rule="evenodd">
    <rect width="22" height="10" x="4" y="30" fill="#FF78C7"/>
    <path fill="#FF78C7" d="M13.9729892,22.3696698 C9.64676354,25.9415344 7,30.7330039 7,36 C7,47.045695 18.6405965,56 33,56 C47.3594035,56 59,47.045695 59,36 C59,24.954305 47.3594035,16 33,16 C28.1893791,16 23.6839043,17.0049891 19.8190398,18.7569179 L13.9729892,15.3250059 L13.9729892,22.3696698 Z"/>
    <circle cx="17" cy="30" r="2" fill="#F5413E"/>
    <rect width="7" height="13" x="14" y="45" fill="#FF78C7"/>
    <rect width="7" height="13" x="46" y="45" fill="#FF78C7"/>
    <path stroke="#FF78C7" stroke-linecap="round" stroke-width="2" d="M53.3478777,28.2724048 C53.3478777,28.2724048 62.2700209,29.071115 62.2700209,24.7888351 C62.2700209,20.5065553 56.1403795,20.1691691 56.9746644,22.4790021 C57.8089493,24.7888351 58.3783746,26.0888047 59.3037767,24.2839034"/>
  </g>
</svg>
