<svg xmlns="http://www.w3.org/2000/svg" width="64" height="64" viewBox="0 0 64 64">
  <g fill="none" fill-rule="evenodd">
    <g transform="rotate(-45 21.485 2)">
      <path fill="#9F5757" d="M1.29333271,4.16413823 C1.12448704,1.95910527 2.78251703,0.171572875 4.98925032,0.171572875 L8.15754371,0.171572875 C10.3675883,0.171572875 12.022995,1.95012027 11.8534613,4.16413823 L8.57339702,47 L4.57339702,47 L1.29333271,4.16413823 Z"/>
      <path fill="#F6443F" d="M5.54923417,64.5495193 C5.54923417,64.5495193 6.37404658,61.337788 8.51151076,58.2053488 C10.6489749,55.0729097 13.3675588,55.6832352 13.3675588,51.6837794 C13.3675588,47.99243 10.3751289,45 6.68377941,45 C2.99242997,45 -9.09494702e-13,47.99243 -9.09494702e-13,51.6837794 C-9.09494702e-13,55.3751289 5.54923417,64.5495193 5.54923417,64.5495193 Z"/>
    </g>
    <g transform="rotate(45 16.45 62.615)">
      <path stroke="#4796E7" stroke-linecap="square" stroke-width="2" d="M10 6L14 6M15 6L15 30"/>
      <rect width="11" height="58" fill="#4796E7"/>
      <rect width="9" height="2" x="1" y="58" fill="#B4DFFB"/>
      <rect width="3" height="4" x="4" y="60" fill="#22BA8E"/>
      <rect width="11" height="22" fill="#B4DFFB"/>
    </g>
  </g>
</svg>
