<svg xmlns="http://www.w3.org/2000/svg" width="64" height="64" viewBox="0 0 64 64">
  <g fill="none" fill-rule="evenodd">
    <path fill="#FFAF40" d="M31,15 L59.0040626,15 C60.6586731,15 62,16.3424683 62,17.995507 L62,51.004493 C62,52.6588658 60.6626903,54 59.0040626,54 L4.99593743,54 C3.34132688,54 2,52.6575317 2,51.004493 L2,17 L2,14.0016655 C2,12.3438914 3.34312337,11 5.00793008,11 L24.9920699,11 C26.6533038,11 28.8091867,12.0789156 29.8001978,13.4002638 L31,15 Z"/>
    <path stroke="#979797" stroke-linecap="square" stroke-width="2" d="M11,35 L57.0108683,35"/>
    <rect width="10" height="10" x="6" y="30" fill="#D8D8D8"/>
    <rect width="10" height="10" x="27" y="30" fill="#E43535"/>
    <rect width="10" height="10" x="48" y="30" fill="#D8D8D8"/>
  </g>
</svg>
