<svg xmlns="http://www.w3.org/2000/svg" width="64" height="64" viewBox="0 0 64 64">
  <g fill="none" fill-rule="evenodd">
    <text fill="#22BA8E" font-family="MarkerFelt-Thin, Marker Felt" font-size="35" font-weight="300">
      <tspan x="43" y="32">$</tspan>
    </text>
    <path fill="#D650C7" d="M6,32.9597759 C6,30.7493282 7.78716697,28.7516292 9.96428975,28.5009519 L23,27 L36.0357102,28.5009519 C38.225127,28.7530447 40,30.7492282 40,32.9597759 L40,39.9574064 L6,39.9574064 L6,32.9597759 Z"/>
    <path fill="#FFDD95" d="M17,22.3164468 C13.9897907,19.470456 12,14.8615543 12,11 C12,4.92486775 16.9248678,0 23,0 C29.0751322,0 34,4.92486775 34,11 C34,14.8615543 32.0102093,19.470456 29,22.3164468 L29,29 C29,29 24.9325778,30.4486507 23,30.4486507 C21.0674222,30.4486507 17,29 17,29 L17,22.3164468 Z"/>
    <circle cx="14" cy="16" r="3" fill="#FFDD95"/>
    <rect width="4" height="19" x="4" y="45" fill="#D8D8D8"/>
    <rect width="4" height="19" x="57" y="45" fill="#D8D8D8"/>
    <circle cx="32" cy="16" r="3" fill="#FFDD95"/>
    <rect width="62" height="7" x="1" y="39" fill="#868686"/>
  </g>
</svg>
