<svg xmlns="http://www.w3.org/2000/svg" width="64" height="64" viewBox="0 0 64 64">
  <g fill="none" fill-rule="evenodd">
    <path fill="#80D25B" d="M32,60 C32,56.1340068 28.8659932,53 25,53 C21.1340068,53 18,56.1340068 18,60 L32,60 Z"/>
    <path fill="#80D25B" d="M44,60 C44,56.1340068 40.8659932,53 37,53 C33.1340068,53 30,56.1340068 30,60 L44,60 Z"/>
    <path fill="#22BA8E" d="M60,60 C60,56.1340068 56.8659932,53 53,53 C49.1340068,53 46,56.1340068 46,60 L60,60 Z"/>
    <path fill="#80D25B" d="M49,60 C49,57.2385763 46.7614237,55 44,55 C41.2385763,55 39,57.2385763 39,60 L49,60 Z"/>
    <path fill="#22BA8E" d="M34,60 C34,57.2385763 31.7614237,55 29,55 C26.2385763,55 24,57.2385763 24,60 L34,60 Z"/>
    <path stroke="#9C4D4D" stroke-linecap="square" stroke-width="2" d="M56,47 L56,59"/>
    <path fill="#22BA8E" d="M56,48 C59.8659932,48 63,45.8853535 63,33.5625 C63,21.2396465 59.8659932,6 56,6 C52.1340068,6 49,21.2396465 49,33.5625 C49,45.8853535 52.1340068,48 56,48 Z"/>
    <path stroke="#9C4D4D" stroke-linecap="square" stroke-width="2" d="M21,59 L21,28"/>
    <polygon fill="#BD7575" points="22 31 35 31 39 35 35 39 22 39"/>
    <polygon fill="#BD7575" points="3 39 16 39 20 43 16 47 3 47" transform="matrix(-1 0 0 1 23 0)"/>
  </g>
</svg>
