<svg xmlns="http://www.w3.org/2000/svg" width="64" height="64" viewBox="0 0 64 64">
  <g fill="none" fill-rule="evenodd">
    <polygon fill="#ECECEC" points="12 3 41.105 3 53 14.753 53 55 12 55"/>
    <circle cx="52" cy="54" r="10" fill="#80D25B"/>
    <rect width="12" height="12" x="16" y="24" fill="#80D25B"/>
    <polygon fill="#D8D8D8" points="41 3 53 3 53 15" transform="rotate(-180 47 9)"/>
    <path stroke="#979797" stroke-linecap="square" stroke-width="2" d="M31 25L50.0262976 25M17 20L50.0262976 20M17 40L49.3447059 40M31 30L50.0262976 30M17 45L38 45M31 35L50.0262976 35"/>
    <path fill="#FFF" d="M57.24,48.04 C57.1799997,48.2080008 57.048001,48.3759992 56.844,48.544 C56.5799987,48.748001 56.4120004,48.9039995 56.34,49.012 L50.292,57.868 C50.2559998,57.9280003 50.0700017,58.3419962 49.734,59.11 C49.5059989,59.6380026 49.2480014,59.9439996 48.96,60.028 C48.8279993,60.0640002 48.6960007,60.082 48.564,60.082 C48.2399984,60.082 47.9670011,59.9680011 47.745,59.74 C47.5229989,59.5119989 47.4000001,59.1880021 47.376,58.768 C47.3639999,58.4679985 47.459999,58.2280009 47.664,58.048 L48.132,57.652 L53.856,49.012 L50.004,50.2 C50.0520002,50.4400012 50.076,50.6859987 50.076,50.938 C50.076,51.8020043 49.8120026,52.5519968 49.284,53.188 C48.7439973,53.8600034 48.072004,54.196 47.268,54.196 C46.0919941,54.196 45.504,53.698005 45.504,52.702 C45.504,52.0419967 45.7409976,51.3220039 46.215,50.542 C46.6890024,49.7619961 47.2079972,49.1920018 47.772,48.832 C48.0480014,48.6519991 48.3239986,48.5560001 48.6,48.544 C48.9840019,48.5199999 49.2239995,48.4960001 49.32,48.472 L54.504,46.96 C54.6480007,46.9239998 54.8699985,46.810001 55.17,46.618 C55.4220013,46.4619992 55.6319992,46.384 55.8,46.384 C55.8720004,46.384 55.9439996,46.3959999 56.016,46.42 C56.9160045,46.6600012 57.366,46.9959978 57.366,47.428 C57.366,47.5840008 57.3240004,47.7879987 57.24,48.04 Z M56.592,58.336 C56.6640004,59.2960048 56.4240028,60.075997 55.872,60.676 C55.4159977,61.1560024 54.888003,61.4139998 54.288,61.45 C53.5799965,61.4860002 52.9200031,61.2700023 52.308,60.802 C51.6959969,60.3339977 51.39,59.7520035 51.39,59.056 C51.39,58.3719966 51.6599973,57.7750025 52.2,57.265 C52.7400027,56.7549974 53.3639965,56.5 54.072,56.5 C54.6480029,56.5 55.2059973,56.7129979 55.746,57.139 C56.2860027,57.5650021 56.5679999,57.9639981 56.592,58.336 Z M48.096,50.668 C47.9759994,50.6319998 47.820001,50.811998 47.628,51.208 C47.435999,51.604002 47.34,51.9279987 47.34,52.18 C47.34,52.3000006 47.3639998,52.3719999 47.412,52.396 C47.5080005,52.4440002 47.6249993,52.3930008 47.763,52.243 C47.9010007,52.0929992 47.9999997,51.9280009 48.06,51.748 C48.1920007,51.3039978 48.258,51.0460004 48.258,50.974 C48.258,50.8059992 48.2040005,50.7040002 48.096,50.668 Z M54.522,58.246 C54.4019994,58.246 54.2160013,58.3599989 53.964,58.588 C53.6759986,58.8640014 53.532,59.1399986 53.532,59.416 C53.532,59.608001 53.6159992,59.704 53.784,59.704 C53.9280007,59.704 54.1319987,59.5360017 54.396,59.2 C54.6600013,58.8639983 54.792,58.6180008 54.792,58.462 C54.792,58.3179993 54.7020009,58.246 54.522,58.246 Z"/>
  </g>
</svg>
