<svg xmlns="http://www.w3.org/2000/svg" width="64" height="64" viewBox="0 0 64 64">
  <g fill="none" fill-rule="evenodd">
    <rect width="60" height="16" x="2" y="38" fill="#FF78C7" rx="4"/>
    <path stroke="#E43535" stroke-linecap="square" stroke-width="2" d="M39,50 L44,50"/>
    <path stroke="#5B68C0" stroke-linecap="square" stroke-width="2" d="M5,46 L59.0092585,46"/>
    <path fill="#B4DFFB" d="M31.5,35 C22.3873016,35 15,27.6126984 15,18.5 C15,9.38730163 22.3873016,2 31.5,2 C40.6126984,2 48,9.38730163 48,18.5 C48,27.6126984 40.6126984,35 31.5,35 Z M31.5,22 C33.4329966,22 35,20.4329966 35,18.5 C35,16.5670034 33.4329966,15 31.5,15 C29.5670034,15 28,16.5670034 28,18.5 C28,20.4329966 29.5670034,22 31.5,22 Z"/>
    <path fill="#5EA7FF" d="M31.5,26 C27.3578644,26 24,22.6421356 24,18.5 C24,14.3578644 27.3578644,11 31.5,11 C35.6421356,11 39,14.3578644 39,18.5 C39,22.6421356 35.6421356,26 31.5,26 Z M31.5,22 C33.4329966,22 35,20.4329966 35,18.5 C35,16.5670034 33.4329966,15 31.5,15 C29.5670034,15 28,16.5670034 28,18.5 C28,20.4329966 29.5670034,22 31.5,22 Z"/>
  </g>
</svg>
