<svg xmlns="http://www.w3.org/2000/svg" width="64" height="64" viewBox="0 0 64 64">
  <g fill="none" fill-rule="evenodd">
    <path fill="#5EA7FF" d="M31,52 C16.0883118,52 4,42.5979797 4,31 C4,19.4020203 16.0883118,10 31,10 C45.9116882,10 58,19.4020203 58,31 C58,42.5979797 45.9116882,52 31,52 Z M31.5,32 C34.5375661,32 37,30.209139 37,28 C37,25.790861 34.5375661,24 31.5,24 C28.4624339,24 26,25.790861 26,28 C26,30.209139 28.4624339,32 31.5,32 Z"/>
    <path fill="#B4DFFB" d="M31.5,38 C25.1487254,38 20,33.9705627 20,29 C20,24.0294373 25.1487254,20 31.5,20 C37.8512746,20 43,24.0294373 43,29 C43,33.9705627 37.8512746,38 31.5,38 Z M31.5,32 C34.5375661,32 37,30.209139 37,28 C37,25.790861 34.5375661,24 31.5,24 C28.4624339,24 26,25.790861 26,28 C26,30.209139 28.4624339,32 31.5,32 Z"/>
  </g>
</svg>
