<svg xmlns="http://www.w3.org/2000/svg" width="64" height="64" viewBox="0 0 64 64">
  <g fill="none" fill-rule="evenodd">
    <path fill="#B4DFFB" d="M20,33 C12.2680135,33 6,26.7319865 6,19 C6,11.2680135 12.2680135,5 20,5 C27.7319865,5 34,11.2680135 34,19 C34,26.7319865 27.7319865,33 20,33 Z M20,23 C22.209139,23 24,21.209139 24,19 C24,16.790861 22.209139,15 20,15 C17.790861,15 16,16.790861 16,19 C16,21.209139 17.790861,23 20,23 Z"/>
    <path fill="#5EA7FF" d="M38,59 C26.4020203,59 17,49.5979797 17,38 C17,26.4020203 26.4020203,17 38,17 C49.5979797,17 59,26.4020203 59,38 C59,49.5979797 49.5979797,59 38,59 Z M38,44 C41.3137085,44 44,41.3137085 44,38 C44,34.6862915 41.3137085,32 38,32 C34.6862915,32 32,34.6862915 32,38 C32,41.3137085 34.6862915,44 38,44 Z"/>
  </g>
</svg>
