<svg xmlns="http://www.w3.org/2000/svg" width="64" height="64" viewBox="0 0 64 64">
  <g fill="none" fill-rule="evenodd">
    <rect width="6" height="11" x="29" y="47" fill="#D8D8D8"/>
    <rect width="14" height="1" x="25" y="59" stroke="#979797" stroke-width="2"/>
    <path fill="#868686" d="M2,12.995507 C2,11.3411342 3.33730974,10 4.99593743,10 L59.0040626,10 C60.6586731,10 62,11.3424683 62,12.995507 L62,46.004493 C62,47.6588658 60.6626903,49 59.0040626,49 L4.99593743,49 C3.34132688,49 2,47.6575317 2,46.004493 L2,12.995507 Z"/>
    <rect width="54" height="33" x="5" y="13" fill="#22BA8E"/>
    <path fill="#FFF" d="M26.3,24.72 C26.3266668,24.9600012 26.206668,25.1866656 25.94,25.4 C25.4866644,25.7466684 25.2466668,25.9333332 25.22,25.96 L22.04,29.68 L25.52,32.96 C25.9733356,33.3866688 26.2,33.7733316 26.2,34.12 C26.2,34.253334 26.1733336,34.386666 26.12,34.52 C25.8933322,35.0933362 25.4733364,35.38 24.86,35.38 C24.6199988,35.38 24.3733346,35.3266672 24.12,35.22 C23.8666654,35.1133328 23.7266668,34.9800008 23.7,34.82 C23.6733332,34.6599992 23.6533334,34.4866676 23.64,34.3 C23.6266666,34.166666 23.5733338,34.0533338 23.48,33.96 L20.92,31.64 C20.2266632,31.0666638 19.88,30.4866696 19.88,29.9 C19.88,29.3266638 20.2566629,28.6166709 21.01,27.77 C21.7633371,26.9233291 22.5266628,26.0800042 23.3,25.24 C23.366667,25.1599996 23.499999,24.9133354 23.7,24.5 C23.8466674,24.2066652 24.0333322,24.0133338 24.26,23.92 C24.4066674,23.8666664 24.5733324,23.84 24.76,23.84 C25.1066684,23.84 25.4433317,23.9333324 25.77,24.12 C26.0966683,24.3066676 26.2733332,24.5066656 26.3,24.72 Z M43.24,31.42 L40.54,33.96 C40.4333328,34.0533338 40.38,34.2733316 40.38,34.62 C40.3666666,34.886668 40.2066682,35.086666 39.9,35.22 C39.6466654,35.3266672 39.4000012,35.38 39.16,35.38 C38.5466636,35.38 38.1266678,35.0933362 37.9,34.52 C37.8466664,34.386666 37.82,34.253334 37.82,34.12 C37.82,33.7733316 38.0466644,33.3866688 38.5,32.96 L41.98,29.68 L38.8,25.96 C38.7733332,25.9333332 38.5333356,25.7466684 38.08,25.4 C37.7999986,25.1866656 37.6799998,24.9600012 37.72,24.72 C37.7466668,24.5066656 37.9233317,24.3066676 38.25,24.12 C38.5766683,23.9333324 38.9133316,23.84 39.26,23.84 C39.4466676,23.84 39.6133326,23.8666664 39.76,23.92 C39.9866678,24.0133338 40.1733326,24.1999986 40.32,24.48 C40.5466678,24.9333356 40.6799998,25.1866664 40.72,25.24 C40.9466678,25.5333348 41.72666,26.379993 43.06,27.78 C43.8466706,28.6066708 44.24,29.2733308 44.24,29.78 C44.24,30.313336 43.90667,30.8599972 43.24,31.42 Z"/>
    <path stroke="#FFF" stroke-linecap="round" stroke-width="2" d="M30.1456738,37.7020009 L35.1594275,20.1805158"/>
  </g>
</svg>
