<svg xmlns="http://www.w3.org/2000/svg" width="64" height="64" viewBox="0 0 64 64">
  <g fill="none" fill-rule="evenodd">
    <rect width="6" height="11" x="29" y="45" fill="#D8D8D8"/>
    <rect width="14" height="1" x="25" y="57" stroke="#979797" stroke-width="2"/>
    <path fill="#868686" d="M2,10.995507 C2,9.34113416 3.33730974,8 4.99593743,8 L59.0040626,8 C60.6586731,8 62,9.34246828 62,10.995507 L62,44.004493 C62,45.6588658 60.6626903,47 59.0040626,47 L4.99593743,47 C3.34132688,47 2,45.6575317 2,44.004493 L2,10.995507 Z"/>
    <rect width="54" height="33" x="5" y="11" fill="#ECECEC"/>
    <polygon fill="#5B68C0" points="17 23 32 23 32 30.5 24.5 33 17 30.5"/>
    <polygon fill="#E43535" points="32 23 47 23 47 30.5 39.5 33 32 30.5"/>
  </g>
</svg>
