<svg xmlns="http://www.w3.org/2000/svg" width="64" height="64" viewBox="0 0 64 64">
  <g fill="none" fill-rule="evenodd">
    <rect width="6" height="11" x="29" y="48" fill="#D8D8D8"/>
    <rect width="14" height="1" x="25" y="60" stroke="#979797" stroke-width="2"/>
    <path fill="#868686" d="M2,13.995507 C2,12.3411342 3.33730974,11 4.99593743,11 L59.0040626,11 C60.6586731,11 62,12.3424683 62,13.995507 L62,47.004493 C62,48.6588658 60.6626903,50 59.0040626,50 L4.99593743,50 C3.34132688,50 2,48.6575317 2,47.004493 L2,13.995507 Z"/>
    <rect width="54" height="33" x="5" y="14" fill="#B4DFFB"/>
    <path fill="#D650C7" d="M23.744 21.95C23.9786678 22.0526672 24.096 22.2359987 24.096 22.5 24.096 22.896002 23.9126685 23.1819991 23.546 23.358 23.3113322 23.4753339 22.9813355 23.534 22.556 23.534 22.1746648 23.534 21.786002 23.4716673 21.39 23.347 20.993998 23.2223327 20.7740002 23.1086672 20.73 23.006 20.4806654 22.3019965 20.6053308 21.7960015 21.104 21.488 21.2213339 21.4146663 21.448665 21.378 21.786 21.378 22.7100046 21.378 23.3626648 21.5686648 23.744 21.95zM26.846 30.024C26.846 31.094672 26.2740057 32.4073256 25.13 33.962 24.0299945 35.370007 22.9740051 36.074 21.962 36.074 20.9646617 36.074 19.9526718 35.7660031 18.926 35.15 18.0459956 34.5046634 17.6206665 33.9106694 17.65 33.368 17.6793335 33.0599985 18.0533297 32.906 18.772 32.906 19.3733363 32.906 19.9306641 33.0086656 20.444 33.214 20.6200009 33.3606674 20.905998 33.5439989 21.302 33.764 21.5513346 33.7786667 21.9069977 33.4926696 22.369 32.906 22.8310023 32.3193304 23.062 31.8646683 23.062 31.542 23.062 31.3513324 22.9373346 31.256 22.688 31.256 22.5559993 31.256 21.9986716 31.2999996 21.016 31.388 20.0333284 31.4760004 19.2926692 31.52 18.794 31.52 17.6793278 31.52 16.9826681 31.1900033 16.704 30.53 16.6893333 30.5153333 16.682 30.4420007 16.682 30.31 16.682 29.5473295 17.3419934 28.3886744 18.662 26.834 20.1140073 25.1766584 21.3679947 24.348 22.424 24.348 23.1720037 24.348 23.9273295 24.6339971 24.69 25.206 25.4966707 25.7193359 25.870667 26.1153319 25.812 26.394 25.6359991 27.3326714 25.0420051 27.802 24.03 27.802 23.8686659 27.802 23.6926676 27.7763336 23.502 27.725 23.3113324 27.6736664 23.1133344 27.5123347 22.908 27.241 22.7026656 26.9696653 22.4826678 26.834 22.248 26.834 21.9839987 26.834 21.5110034 27.2043296 20.829 27.945 20.1469966 28.6856704 19.806 29.2173317 19.806 29.54 19.806 29.5840002 19.8646661 29.606 19.982 29.606 20.2020011 29.606 20.9279938 29.4740013 22.16 29.21 23.3920062 28.9459987 24.3526632 28.814 25.042 28.814 26.2446727 28.814 26.846 29.2173293 26.846 30.024zM23.766 38.12C23.766 38.7360031 23.3480042 39.1833319 22.512 39.462 22.2919989 39.520667 21.8996695 39.4436677 21.335 39.231 20.7703305 39.0183323 20.4806667 38.8240009 20.466 38.648 20.3926663 38.0319969 20.5173317 37.6140011 20.84 37.394 21.0160009 37.2619993 21.301998 37.196 21.698 37.196 22.1820024 37.196 22.6293313 37.2619993 23.04 37.394 23.4506687 37.5260007 23.6743331 37.661666 23.711 37.801 23.7476668 37.940334 23.766 38.0466663 23.766 38.12zM44.704 30.296C44.6506664 30.296 44.3413362 30.2213341 43.776 30.072L40.272 30.632C40.272 30.9413349 40.2826666 31.2453318 40.304 31.544L42.816 31.176C43.1466683 30.8773318 43.3813326 30.7173334 43.52 30.696 43.7226677 30.6639998 43.9439988 30.8159983 44.184 31.152 44.4240012 31.4880017 44.5706664 31.8213317 44.624 32.152 44.6560002 32.3760011 44.6133339 32.5706658 44.496 32.736 44.3786661 32.9013342 44.2506674 32.9946666 44.112 33.016 44.0586664 33.0266667 43.7493362 32.9573341 43.184 32.808L40.592 33.224C41.0080021 34.6426738 41.7706611 35.352 42.88 35.352 43.3280022 35.352 43.7013318 35.181335 44 34.84 44.266668 34.5306651 44.4266664 34.146669 44.48 33.688 44.6933344 33.2506645 45.066664 33.032 45.6 33.032 45.9306683 33.032 46.229332 33.1253324 46.496 33.312 46.762668 33.4986676 46.896 33.725332 46.896 33.992 46.896 34.0560003 46.8906667 34.1199997 46.88 34.184 46.8479998 34.3013339 46.7466675 34.4346659 46.576 34.584 46.383999 34.7653342 46.2666669 34.8826664 46.224 34.936 46.1386662 35.0746674 45.9573347 35.3253315 45.68 35.688 44.9866632 36.7866722 44.1813379 37.336 43.264 37.336 42.0373272 37.336 41.0026709 36.973337 40.16 36.248 39.3919962 35.6079968 38.8266685 34.7120058 38.464 33.56L38 33.624C37.6479982 33.9013347 37.4080006 34.0506666 37.28 34.072 36.8639979 34.1360003 36.6026672 33.8373366 36.496 33.176 36.4853333 33.0693328 36.48 32.9733338 36.48 32.888 36.48 32.3013304 36.746664 31.9653338 37.28 31.88 37.3866672 31.8693333 37.6479979 31.864 38.064 31.864L38.112 31.864C38.0693331 31.5759986 38.0426667 31.2826682 38.032 30.984L37.904 31C37.562665 31.266668 37.3226674 31.4106666 37.184 31.432 36.7679979 31.506667 36.5120005 31.2080034 36.416 30.536 36.3946666 30.4399995 36.384 30.3493338 36.384 30.264 36.384 29.6773304 36.6559973 29.3413338 37.2 29.256 37.2960005 29.2346666 37.5573312 29.2293333 37.984 29.24L38.112 29.224C38.3146677 27.6879923 38.8213293 26.4666712 39.632 25.56 40.5493379 24.5466616 41.7599925 24.04 43.264 24.04 43.7546691 24.04 44.2773306 24.2159982 44.832 24.568 45.3013357 24.8666682 45.6479989 25.1759984 45.872 25.496 45.9893339 25.6773342 46.1333325 25.8373326 46.304 25.976 46.4746675 26.1146674 46.5653333 26.1893333 46.576 26.2 46.6613338 26.3493341 46.704 26.4986659 46.704 26.648 46.704 26.9466682 46.5173352 27.2026656 46.144 27.416 45.8133317 27.5973342 45.4453354 27.688 45.04 27.688 44.5706643 27.688 44.2720006 27.5706678 44.144 27.336 44.1226666 27.2933331 44.0853336 27.0746686 44.032 26.68 43.9786664 26.5839995 43.8240013 26.4560008 43.568 26.296 43.2799986 26.1253325 43.0506675 26.04 42.88 26.04 41.5359933 26.04 40.7093349 26.9893238 40.4 28.888L43.408 28.456C43.749335 28.1573318 43.9839994 27.9973334 44.112 27.976 44.3146677 27.9439998 44.5359988 28.0933317 44.776 28.424 45.0160012 28.7546683 45.1626664 29.0853317 45.216 29.416 45.2480002 29.6506678 45.2053339 29.8506658 45.088 30.016 44.9706661 30.1813342 44.8426674 30.2746666 44.704 30.296z"/>
  </g>
</svg>
