<svg xmlns="http://www.w3.org/2000/svg" width="64" height="64" viewBox="0 0 64 64">
  <g fill="none" fill-rule="evenodd">
    <rect width="60" height="45" x="2" y="7" fill="#595959" rx="3"/>
    <polygon fill="#979797" points="27 52 37 52 38 59 26 59"/>
    <rect width="54" height="39" x="5" y="10" fill="#FFDD95"/>
    <path fill="#5EA7FF" d="M27.8292683,19 C24.9196706,19 23,21.9900983 23,25.6785714 C23,29.3670446 24.9196706,41 27.8292683,41 C29.526624,41 29.7194267,31.3395704 32,31.3308234 C34.7195977,31.3395704 34.473376,41 36.1707317,41 C39.0803294,41 41,29.3670446 41,25.6785714 C41,21.9900983 39.0803294,19 36.1707317,19 C34.7804878,19 33.3902439,20.1785714 32,20.1785714 C30.6097561,20.1785714 29.2195122,19 27.8292683,19 Z"/>
    <rect width="18" height="2" x="23" y="59" fill="#595959"/>
  </g>
</svg>
