<svg xmlns="http://www.w3.org/2000/svg" width="64" height="64" viewBox="0 0 64 64">
  <g fill="none" fill-rule="evenodd">
    <rect width="6" height="11" x="29" y="43" fill="#D8D8D8"/>
    <rect width="14" height="1" x="25" y="55" stroke="#979797" stroke-width="2"/>
    <path fill="#868686" d="M2,8.99550699 C2,7.34113416 3.33730974,6 4.99593743,6 L59.0040626,6 C60.6586731,6 62,7.34246828 62,8.99550699 L62,42.004493 C62,43.6588658 60.6626903,45 59.0040626,45 L4.99593743,45 C3.34132688,45 2,43.6575317 2,42.004493 L2,8.99550699 Z"/>
    <rect width="54" height="33" x="5" y="9" fill="#0A3586"/>
    <rect width="12" height="4" x="7" y="13" fill="#80D25B"/>
    <rect width="25" height="4" x="7" y="31" fill="#80D25B"/>
    <rect width="22" height="8" x="7" y="20" fill="#80D25B"/>
    <rect width="14" height="8" x="32" y="20" fill="#80D25B"/>
    <rect width="8" height="8" x="49" y="20" fill="#80D25B"/>
    <rect width="34" height="4" x="23" y="13" fill="#80D25B"/>
    <rect width="22" height="4" x="35" y="31" fill="#80D25B"/>
  </g>
</svg>
