<svg xmlns="http://www.w3.org/2000/svg" width="64" height="64" viewBox="0 0 64 64">
  <g fill="none" fill-rule="evenodd">
    <rect width="6" height="11" x="29" y="41" fill="#D8D8D8"/>
    <rect width="14" height="1" x="25" y="53" stroke="#979797" stroke-width="2"/>
    <path fill="#868686" d="M2,6.99550699 C2,5.34113416 3.33730974,4 4.99593743,4 L59.0040626,4 C60.6586731,4 62,5.34246828 62,6.99550699 L62,40.004493 C62,41.6588658 60.6626903,43 59.0040626,43 L4.99593743,43 C3.34132688,43 2,41.6575317 2,40.004493 L2,6.99550699 Z"/>
    <rect width="54" height="33" x="5" y="7" fill="#B4DFFB"/>
    <path fill="#ED9111" d="M36.64,27.88 C36.4999993,28.1400013 36.1900024,28.2999997 35.71,28.36 C35.6699998,28.36 35.2400041,28.3799998 34.42,28.42 C34.5600007,29.3200045 35.0799955,30.4399933 35.98,31.78 C36.5000026,32.1600019 36.76,32.6599969 36.76,33.28 C36.76,34.2600049 36.160006,34.75 34.96,34.75 C33.8199943,34.75 33.0400021,34.4600029 32.62,33.88 C32.4799993,33.679999 32.3900002,33.4100017 32.35,33.07 C32.35,32.8499989 32.3400001,32.6200012 32.32,32.38 C32.1399991,32.1999991 31.6000045,31.0400107 30.7,28.9 C29.0599918,29.1400012 27.040012,29.4799978 24.64,29.92 C24.3999988,30.5000029 24.1400014,31.3399945 23.86,32.44 C23.9000002,32.640001 23.92,32.8299991 23.92,33.01 C23.92,33.5500027 23.7400018,33.9649986 23.38,34.255 C23.0199982,34.5450015 22.5900025,34.69 22.09,34.69 C21.5299972,34.69 21.0100024,34.4800021 20.53,34.06 C20.0499976,33.6399979 19.81,33.1500028 19.81,32.59 C19.81,32.0899975 20.0399977,31.640002 20.5,31.24 C22.0000075,23.6199619 23.8199893,17.3200249 25.96,12.34 C25.9199998,12.0999988 25.9,11.8600012 25.9,11.62 C25.9,10.619995 26.2399966,9.9600016 26.92,9.64 C27.2000014,9.5199994 27.5599978,9.46 28,9.46 C28.8400042,9.46 29.5399972,9.5899987 30.1,9.85 C30.8200036,10.2100018 31.18,10.7499964 31.18,11.47 C31.18,12.1300033 31.0000018,12.7199974 30.64,13.24 C31.0200019,16.640017 31.8399937,20.5599778 33.1,25 C33.2200006,24.9799999 33.6299965,24.8800009 34.33,24.7 C34.7500021,24.5799994 35.0699989,24.52 35.29,24.52 C35.5500013,24.52 35.7599992,24.5799994 35.92,24.7 C36.6200035,25.2400027 36.97,25.8999961 36.97,26.68 C36.97,27.1000021 36.8600011,27.4999981 36.64,27.88 Z M29.44,25.6 C29.0999983,24.3399937 28.5600037,21.9200179 27.82,18.34 C26.3999929,21.4400155 25.5600013,24.0999889 25.3,26.32 L29.44,25.6 Z M49.96,25.9 C49.96,28.2000115 49.6700029,30.0699928 49.09,31.51 C48.3299962,33.3900094 47.1200083,34.33 45.46,34.33 C44.2199938,34.33 43.1400046,33.6800065 42.22,32.38 C42.2400001,32.5400008 42.2999995,32.7699985 42.4,33.07 C42.5000005,33.3700015 42.55,33.5899993 42.55,33.73 C42.55,33.9100009 42.5000005,34.0499995 42.4,34.15 C42.1399987,34.4700016 41.6200039,34.63 40.84,34.63 C39.5999938,34.63 38.8600012,34.3600027 38.62,33.82 C38.5399996,33.6399991 38.5,33.4700008 38.5,33.31 C38.5,33.109999 38.5799992,32.8550016 38.74,32.545 C38.9000008,32.2349984 38.98,31.9700011 38.98,31.75 L38.98,14.65 C38.98,14.3899987 38.9150007,14.0750019 38.785,13.705 C38.6549994,13.3349981 38.59,13.0400011 38.59,12.82 C38.59,12.5999989 38.6299996,12.3700012 38.71,12.13 C38.9500012,11.4099964 39.569995,11.05 40.57,11.05 C41.7900061,11.05 42.6099979,11.4999955 43.03,12.4 C43.1300005,12.600001 43.18,12.799999 43.18,13 C43.18,13.2600013 43.0500013,13.6399975 42.79,14.14 C42.5299987,14.6400025 42.4,15.0499984 42.4,15.37 L42.4,19.24 C43.2600043,17.9199934 44.0999959,17.26 44.92,17.26 C46.3800073,17.26 47.609995,18.2099905 48.61,20.11 C49.5100045,21.8500087 49.96,23.7799894 49.96,25.9 Z M46,25.9 C46,24.6399937 45.8900011,23.510005 45.67,22.51 C45.3899986,21.2899939 45.0200023,20.68 44.56,20.68 C44.159998,20.68 43.760002,21.3399934 43.36,22.66 C42.959998,23.9000062 42.76,24.9799954 42.76,25.9 C42.76,27.1200061 42.9399982,28.329994 43.3,29.53 C43.6800019,30.8300065 44.0999977,31.48 44.56,31.48 C45.5400049,31.48 46.03,30.3500113 46.03,28.09 L46.03,26.98 C46.0099999,26.4799975 46,26.1200011 46,25.9 Z"/>
    <rect width="17" height="22" x="46" y="37" fill="#D8D8D8"/>
    <text fill="#FFF" font-family="MarkerFelt-Thin, Marker Felt" font-size="14" font-weight="300">
      <tspan x="50" y="54">A</tspan>
    </text>
  </g>
</svg>
