<svg xmlns="http://www.w3.org/2000/svg" width="64" height="64" viewBox="0 0 64 64">
  <g fill="none" fill-rule="evenodd">
    <rect width="6" height="11" x="29" y="49" fill="#D8D8D8"/>
    <rect width="14" height="1" x="25" y="61" stroke="#979797" stroke-width="2"/>
    <path fill="#868686" d="M2,14.995507 C2,13.3411342 3.33730974,12 4.99593743,12 L59.0040626,12 C60.6586731,12 62,13.3424683 62,14.995507 L62,48.004493 C62,49.6588658 60.6626903,51 59.0040626,51 L4.99593743,51 C3.34132688,51 2,49.6575317 2,48.004493 L2,14.995507 Z"/>
    <rect width="54" height="33" x="5" y="15" fill="#595959"/>
    <rect width="46" height="36" x="9" y="12" fill="#5EA7FF"/>
    <path fill="#595959" d="M24,35.904899 C24,34.8011519 24.8935835,33.8111018 25.9928723,33.6938803 L32.5,33 L39.0071277,33.6938803 C40.1077607,33.8112451 41,34.7936275 41,35.904899 L41,39 L24,39 L24,35.904899 Z"/>
    <path fill="#FFDD95" d="M29.5,29.9938107 C27.9948954,28.5917827 27,26.3212872 27,24.4189593 C27,21.4261507 29.4624339,19 32.5,19 C35.5375661,19 38,21.4261507 38,24.4189593 C38,26.3212872 37.0051046,28.5917827 35.5,29.9938107 L35.5,33.2863473 C35.5,33.2863473 33.4662889,34 32.5,34 C31.5337111,34 29.5,33.2863473 29.5,33.2863473 L29.5,29.9938107 Z"/>
    <rect width="46" height="7" x="9" y="5" fill="#0A3586"/>
    <circle cx="12.5" cy="8.5" r="1.5" fill="#E43535"/>
    <circle cx="17.5" cy="8.5" r="1.5" fill="#FFC05F"/>
    <circle cx="22.5" cy="8.5" r="1.5" fill="#80D25B"/>
  </g>
</svg>
