<svg xmlns="http://www.w3.org/2000/svg" width="64" height="64" viewBox="0 0 64 64">
  <g fill="none" fill-rule="evenodd">
    <rect width="6" height="11" x="29" y="45" fill="#D8D8D8"/>
    <rect width="14" height="1" x="25" y="57" stroke="#979797" stroke-width="2"/>
    <path fill="#868686" d="M2,10.995507 C2,9.34113416 3.33730974,8 4.99593743,8 L59.0040626,8 C60.6586731,8 62,9.34246828 62,10.995507 L62,44.004493 C62,45.6588658 60.6626903,47 59.0040626,47 L4.99593743,47 C3.34132688,47 2,45.6575317 2,44.004493 L2,10.995507 Z"/>
    <rect width="54" height="33" x="5" y="11" fill="#5B68C0"/>
    <path fill="#ED9111" d="M31.3929016,19.2294614 C29.4016933,17.2343661 26.6485467,16 23.6070984,16 C17.5319662,16 12.6070984,20.9248678 12.6070984,27 C12.6070984,33.0751322 17.5319662,38 23.6070984,38 C26.6407824,38 29.3876348,36.7719282 31.377637,34.7858031 L23.6070984,27.0152645 L31.3929016,19.2294614 Z"/>
    <path stroke="#ED9111" stroke-dasharray="4" stroke-linecap="square" stroke-width="2" d="M30,27 L49,27"/>
    <circle cx="23" cy="21" r="1" fill="#5B68C0"/>
  </g>
</svg>
