<svg xmlns="http://www.w3.org/2000/svg" width="64" height="64" viewBox="0 0 64 64">
  <g fill="none" fill-rule="evenodd">
    <rect width="6" height="11" x="29" y="47" fill="#868686"/>
    <rect width="14" height="1" x="25" y="59" stroke="#595959" stroke-width="2"/>
    <path fill="#595959" d="M2,12.995507 C2,11.3411342 3.33730974,10 4.99593743,10 L59.0040626,10 C60.6586731,10 62,11.3424683 62,12.995507 L62,46.004493 C62,47.6588658 60.6626903,49 59.0040626,49 L4.99593743,49 C3.34132688,49 2,47.6575317 2,46.004493 L2,12.995507 Z"/>
    <rect width="54" height="33" x="5" y="13" fill="#325AA6"/>
    <path fill="#D8D8D8" d="M41.1074028,34.3955983 C42.7078611,35.6473354 46.367911,43.043357 48.6176718,42.4405354 C51.1581737,41.75981 51.7690852,35.8018283 49.982181,29.1330108 C48.1952767,22.4641934 47.1392519,17.2975934 44.2909227,16.4474491 C43.194988,16.1203441 40.9663927,15.4510575 38.602784,16.8648292 C36.2391754,18.2786009 28.767385,18.2786009 26.4037764,16.8648292 C24.0401678,15.4510575 21.8115725,16.1203441 20.7156378,16.4474491 C17.8673086,17.2975934 16.8112837,22.4641934 15.0243795,29.1330108 C13.2374752,35.8018283 13.8483868,41.75981 16.3888887,42.4405354 C18.6386494,43.043357 22.2986993,35.6473354 23.8991577,34.3955983 C25.0076121,33.5286631 28.1630894,33.4411904 30.230341,33.4693382 L35.5878784,33.4654589 C37.5932201,33.4747841 40.1361419,33.6359638 41.1074028,34.3955983 Z"/>
    <path fill="#595959" d="M25,24 L25,21 L22,21 L22,24 L19,24 L19,27 L22,27 L22,30 L25,30 L25,27 L28,27 L28,24 L25,24 Z"/>
    <circle cx="41.5" cy="25.5" r="3.5" fill="#595959"/>
  </g>
</svg>
