<svg xmlns="http://www.w3.org/2000/svg" width="64" height="64" viewBox="0 0 64 64">
  <path fill="#5B68C0" fill-rule="evenodd" d="M26.5535593,19 L22.5535593,19 L22.5535593,41.5 L22.5535593,45 L35.0535593,45 C41.9586365,45 47.5535593,39.4013256 47.5535593,32.4950108 L47.5535593,31.5049892 C47.5535593,24.5936201 41.9571186,19 35.0535593,19 L26.5535593,19 Z M30.5535593,26 L33.5548834,26 C36.8678606,26 39.5535593,28.6930342 39.5535593,32 C39.5535593,35.3137085 36.8716213,38 33.5548834,38 L30.5535593,38 L30.5535593,26 Z M17.4567149,51.6754951 L6.05355927,53.5 C6.05355927,53.5 8.99438952,46.4420068 10.3652879,43.151851 C8.56806407,39.6593748 7.55355927,35.6981626 7.55355927,31.5 C7.55355927,17.4167389 18.9702981,6 33.0535593,6 C47.1368204,6 58.5535593,17.4167389 58.5535593,31.5 C58.5535593,45.5832611 47.1368204,57 33.0535593,57 C27.1789254,57 21.7682727,55.0134604 17.4567149,51.6754951 Z"/>
</svg>
