<svg xmlns="http://www.w3.org/2000/svg" width="64" height="64" viewBox="0 0 64 64">
  <g fill="none" fill-rule="evenodd">
    <rect width="8" height="5" x="28" y="55.779" fill="#595959"/>
    <path stroke="#BD7575" stroke-linecap="round" stroke-width="2" d="M31.9804928,16.620603 C31.9804928,16.620603 29.0622049,8.79770026 39.3069451,3"/>
    <path fill="#80D25B" d="M21.8952051,62.0138375 C24.5478192,62.0138375 31.7079005,60.1296558 33.6135423,56.9575257 C38.4528573,48.9020052 36,33.5154007 36,26.7791741 C36,17.3903333 28.3888407,9.77917405 19,9.77917405 C9.61115925,9.77917405 2,17.3903333 2,26.7791741 C2,36.1680148 12.5063644,62.0138375 21.8952051,62.0138375 Z"/>
    <path fill="#FFDD95" d="M32,58.9090513 C34.9279169,60.886989 39.6750173,62.0138375 41.7263941,62.0138375 C51.1152349,62.0138375 61.6215993,36.1680148 61.6215993,26.7791741 C61.6215993,17.3903333 54.01044,9.77917405 44.6215993,9.77917405 C39.613483,9.77917405 35.1111666,11.9447613 32,15.390586 L32,58.9090513 Z"/>
    <path stroke="#22BA8E" stroke-linecap="round" stroke-width="2" d="M20.5,14.7791741 C13.0441559,14.7791741 7,20.8233299 7,28.2791741"/>
    <path fill="#BD7575" d="M36.8890873,35.3890873 C37.9936568,35.3890873 38.8890873,32.8220839 38.8890873,30.8890873 C38.8890873,28.9560907 37.9936568,28.3890873 36.8890873,28.3890873 C35.7845178,28.3890873 34.8890873,28.9560907 34.8890873,30.8890873 C34.8890873,32.8220839 35.7845178,35.3890873 36.8890873,35.3890873 Z" transform="rotate(45 36.89 31.89)"/>
    <path fill="#BD7575" d="M36.0273043,40.8366622 C36.9143242,40.8366622 37.6333959,38.775241 37.6333959,37.2229562 C37.6333959,35.6706715 36.9143242,35.2153418 36.0273043,35.2153418 C35.1402845,35.2153418 34.4212128,35.6706715 34.4212128,37.2229562 C34.4212128,38.775241 35.1402845,40.8366622 36.0273043,40.8366622 Z" transform="rotate(99 36.027 38.026)"/>
  </g>
</svg>
