<svg xmlns="http://www.w3.org/2000/svg" width="64" height="64" viewBox="0 0 64 64">
  <g fill="none" fill-rule="evenodd">
    <polygon fill="#ECECEC" points="11 9 40.105 9 52 20.753 52 61 11 61"/>
    <rect width="12" height="12" x="15" y="31" fill="#80D25B"/>
    <polygon fill="#D8D8D8" points="40 9 52 9 52 21" transform="rotate(-180 46 15)"/>
    <path stroke="#979797" stroke-linecap="square" stroke-width="2" d="M30 32L49.0262976 32M16 27L49.0262976 27M16 47L48.3447059 47M30 37L49.0262976 37M16 52L31.0332964 52M30 42L49.0262976 42"/>
    <path fill="#BD7575" fill-rule="nonzero" d="M18,26.9914194 L18,8.0823001 C18,6.39731144 19.3419317,5.03278689 20.9999433,5.03278689 L22.0000567,5.03278689 C23.6558634,5.03278689 25,6.3997011 25,8.0823001 L25,29.9302176 C25,31.056223 24.1060483,31.9672131 23.0029167,31.9672131 L22.4885596,31.9672131 C21.3844629,31.9672131 20.9999433,31.0585765 20.9999433,29.9302176 L20.9999433,14.2420545 C20.9999433,13.681054 20.9364602,13.2286495 21.4922825,13.2286495 L21.5517694,13.2286495 C22.1050547,13.2286495 22.0000567,13.7465377 22.0000567,14.3080863 L22.0000567,26.4607325 C22.0000567,27.0220711 22.4477719,27.477126 23.0000567,27.477126 C23.5523414,27.477126 24.0000567,27.0220711 24.0000567,26.4607325 L24.0000567,14.3080863 C24.0000567,12.623427 23.2091982,11.1958627 21.5517694,11.1958627 L21.4922825,11.1958627 C19.8320973,11.1958627 18.9999433,12.5581668 18.9999433,14.2420545 L18.9999433,29.9302176 C18.9999433,32.1805803 20.2792297,34 22.4885596,34 L23.0029167,34 C25.2117923,34 27,32.1777099 27,29.9302176 L27,8.0823001 C27,5.27727111 24.7606763,3 22.0000567,3 L20.9999433,3 C18.2371672,3 16,5.27483232 16,8.0823001 L16,26.9914194 C16,27.552758 16.4477153,28.0078128 17,28.0078128 C17.5522847,28.0078128 18,27.552758 18,26.9914194 Z"/>
  </g>
</svg>
