<svg xmlns="http://www.w3.org/2000/svg" width="64" height="64" viewBox="0 0 64 64">
  <g fill="none" fill-rule="evenodd">
    <path fill="#325AA6" d="M3,17 L61,17 L61,43.9999809 C61,45.6568457 59.6516882,47 58.0038017,47 L5.99619829,47 C4.34144367,47 3,45.6526814 3,43.9999809 L3,17 Z"/>
    <rect width="34" height="4" x="15" y="31" fill="#979797"/>
    <path fill="#ECECEC" d="M44.9801843,59 L52,59 C52,59 49.25,53 48.5,47 C47.75,41 49,35 49,35 L15,35 C15,35 16.25,41 15.5,47 C14.75,53 12,59 12,59 L18.4869721,59 L23.4762384,47.085218 L22.7055406,59 L29.7583885,59 L30.1807751,51 L30.9661084,59 L41.0508947,59 L41.1211401,51.3758453 L44.9801843,59 Z"/>
    <rect width="34" height="10" x="15" y="7" fill="#D8D8D8"/>
    <path stroke="#979797" stroke-linecap="square" stroke-width="2" d="M20 11L44 11M20 15L44 15"/>
    <rect width="9" height="3" x="22" y="24" fill="#80D25B"/>
    <rect width="9" height="3" x="33" y="24" fill="#F5413E"/>
  </g>
</svg>
