<svg xmlns="http://www.w3.org/2000/svg" width="64" height="64" viewBox="0 0 64 64">
  <g fill="none" fill-rule="evenodd">
    <path fill="#595959" d="M14.399923,19.9980749 C14.1790516,14.4762906 18.4708256,10 24.008897,10 L41.991103,10 C47.5188642,10 51.8207532,14.4811691 51.600077,19.9980749 L50.399923,50.0019251 C50.1790516,55.5237094 45.5201311,60 40.0056985,60 L25.9943015,60 C20.4746012,60 15.8207532,55.5188309 15.600077,50.0019251 L14.399923,19.9980749 Z"/>
    <path fill="#979797" d="M44.5178042,14.4306768 C43.229912,11.9836816 44.4291869,10 47.1759689,10 L60.1858691,10 L53.3491377,26.2372369 C52.7066822,27.7630688 51.5603243,27.8114649 50.7848825,26.3381255 L44.5178042,14.4306768 Z" transform="matrix(-1 0 0 1 104.186 0)"/>
    <path fill="#979797" d="M5.51780421 14.4306768C4.22991199 11.9836816 5.42918688 10 8.1759689 10L21.1858691 10 14.3491377 26.2372369C13.7066822 27.7630688 12.5603243 27.8114649 11.7848825 26.3381255L5.51780421 14.4306768zM33.9667384 50.2336044C33.4437906 51.2091578 32.5967076 51.2106181 32.072977 50.2336044L30.214371 46.7663956C29.6914233 45.7908422 30.1578525 45 31.2589184 45L34.780797 45C35.8806323 45 36.3490749 45.7893819 35.8253443 46.7663956L33.9667384 50.2336044z"/>
    <path stroke="#979797" stroke-linecap="round" stroke-width="2" d="M23 50C23 52.7614237 25.2385763 55 28 55L28 55C30.7614237 55 33 52.7614237 33 50M33 50C33 52.7614237 35.2385763 55 38 55L38 55C40.7614237 55 43 52.7614237 43 50"/>
    <circle cx="24" cy="30" r="4" fill="#FFF"/>
    <circle cx="23" cy="31" r="2" fill="#595959"/>
    <circle cx="41" cy="30" r="4" fill="#FFF"/>
    <circle cx="40" cy="31" r="2" fill="#595959"/>
  </g>
</svg>
