<svg xmlns="http://www.w3.org/2000/svg" width="64" height="64" viewBox="0 0 64 64">
  <g fill="none" fill-rule="evenodd">
    <path fill="#5B68C0" d="M3,16 L61,16 L61,42.9999809 C61,44.6568457 59.6516882,46 58.0038017,46 L5.99619829,46 C4.34144367,46 3,44.6526814 3,42.9999809 L3,16 Z"/>
    <rect width="34" height="4" x="15" y="30" fill="#FFAF40"/>
    <rect width="34" height="10" x="15" y="6" fill="#22BA8E"/>
    <rect width="9" height="3" x="48" y="20" fill="#F5413E"/>
    <g transform="rotate(90 3.5 37.5)">
      <polygon fill="#22BA8E" points="0 0 27 0 27 19 0 19"/>
      <circle cx="12.5" cy="9.5" r="6.5" fill="#80D25B"/>
      <path fill="#5B68C0" d="M14.1657403,3.77915141 C14.3375622,3.8543235 14.4234719,3.98855737 14.4234719,4.18185704 C14.4234719,4.47180654 14.289238,4.68121137 14.0207662,4.81007782 C13.8489443,4.89598878 13.6073233,4.93894362 13.2958961,4.93894362 C13.0166855,4.93894362 12.7321097,4.8933041 12.4421602,4.8020237 C12.1522107,4.7107433 11.99113,4.62751831 11.9589134,4.55234621 C11.7763526,4.03688043 11.8676317,3.66639496 12.2327532,3.44087868 C12.3186642,3.38718433 12.4851142,3.36033756 12.7321082,3.36033756 C13.4086571,3.36033756 13.8865296,3.49994078 14.1657403,3.77915141 Z M16.437,9.69087002 C16.437,10.4748076 16.0181903,11.4359221 15.1805584,12.5742423 C14.3751432,13.6051739 13.6019561,14.1206319 12.860974,14.1206319 C12.1307308,14.1206319 11.3897599,13.895119 10.638039,13.4440865 C9.99370674,12.9715762 9.68228416,12.5366584 9.7037619,12.1393202 C9.72523965,11.913804 9.99907673,11.8010475 10.5252814,11.8010475 C10.9655751,11.8010475 11.373646,11.8762185 11.7495065,12.0265627 C11.8783729,12.1339514 12.0877778,12.2681852 12.3777273,12.4292683 C12.5602881,12.4400072 12.8207018,12.2306023 13.1589762,11.8010475 C13.4972506,11.3714927 13.6663853,11.0385927 13.6663853,10.8023376 C13.6663853,10.6627322 13.5751063,10.5929306 13.3925455,10.5929306 C13.2958956,10.5929306 12.8878247,10.6251468 12.1683203,10.68958 C11.448816,10.7540132 10.9065112,10.7862293 10.5413896,10.7862293 C9.72523546,10.7862293 9.21514676,10.5446084 9.01110823,10.0613592 C9.00036935,10.0506203 8.995,9.99692678 8.995,9.90027695 C8.995,9.34185569 9.47824192,8.49349765 10.4447403,7.35517738 C11.5078884,6.14168502 12.4260481,5.53494794 13.1992468,5.53494794 C13.7469291,5.53494794 14.2999727,5.74435278 14.8583939,6.16316872 C15.4490318,6.53902919 15.7228689,6.82897434 15.6799134,7.03301288 C15.551047,7.72030059 15.1161292,8.06393929 14.3751472,8.06393929 C14.2570196,8.06393929 14.1281551,8.04514655 13.9885498,8.0075605 C13.8489445,7.96997445 13.7039719,7.85184865 13.5536277,7.65317955 C13.4032835,7.45451044 13.2422029,7.35517738 13.070381,7.35517738 C12.8770813,7.35517738 12.5307579,7.62632979 12.0314004,8.16864275 C11.532043,8.71095571 11.282368,9.10023392 11.282368,9.33648907 C11.282368,9.36870568 11.3253228,9.38481375 11.4112338,9.38481375 C11.5723168,9.38481375 12.1038829,9.28816536 13.0059481,9.09486569 C13.9080132,8.90156603 14.6113986,8.80491764 15.1161255,8.80491764 C15.9967129,8.80491764 16.437,9.10023215 16.437,9.69087002 Z M14.1818485,15.6186969 C14.1818485,16.0697294 13.8757953,16.3972601 13.2636797,16.6012986 C13.1025966,16.6442541 12.8153361,16.5878759 12.4018896,16.4321622 C11.9884431,16.2764486 11.7763536,16.1341607 11.7656147,16.0052943 C11.7119204,15.5542617 11.8031994,15.2482085 12.0394545,15.0871254 C12.168321,14.9904756 12.3777258,14.9421514 12.6676753,14.9421514 C13.022058,14.9421514 13.3495887,14.9904756 13.6502771,15.0871254 C13.9509654,15.1837753 14.1147307,15.2831083 14.1415779,15.3851276 C14.1684251,15.4871469 14.1818485,15.5650025 14.1818485,15.6186969 Z"/>
    </g>
  </g>
</svg>
