<svg xmlns="http://www.w3.org/2000/svg" width="64" height="64" viewBox="0 0 64 64">
  <g fill="none" fill-rule="evenodd">
    <path stroke="#979797" stroke-linecap="square" stroke-width="2" d="M32,9 L32,29"/>
    <rect width="32" height="44" x="16" y="19" fill="#D8D8D8"/>
    <path fill="#22BA8E" d="M34.56,28.75 C34.8800016,28.8900007 35.04,29.1399982 35.04,29.5 C35.04,30.0400027 34.7900025,30.4299988 34.29,30.67 C33.9699984,30.8300008 33.5200029,30.91 32.94,30.91 C32.4199974,30.91 31.8900027,30.8250008 31.35,30.655 C30.8099973,30.4849991 30.5100003,30.3300007 30.45,30.19 C30.1099983,29.2299952 30.2799966,28.5400021 30.96,28.12 C31.1200008,28.0199995 31.4299977,27.97 31.89,27.97 C33.1500063,27.97 34.0399974,28.2299974 34.56,28.75 Z M38.79,39.76 C38.79,41.2200073 38.0100078,43.0099894 36.45,45.13 C34.9499925,47.0500096 33.5100069,48.01 32.13,48.01 C30.7699932,48.01 29.390007,47.5900042 27.99,46.75 C26.789994,45.8699956 26.2099998,45.0600037 26.25,44.32 C26.2900002,43.8999979 26.7999951,43.69 27.78,43.69 C28.6000041,43.69 29.3599965,43.8299986 30.06,44.11 C30.3000012,44.310001 30.6899973,44.5599985 31.23,44.86 C31.5700017,44.8800001 32.0549968,44.490004 32.685,43.69 C33.3150032,42.889996 33.63,42.2700022 33.63,41.83 C33.63,41.5699987 33.4600017,41.44 33.12,41.44 C32.9399991,41.44 32.1800067,41.4999994 30.84,41.62 C29.4999933,41.7400006 28.4900034,41.8 27.81,41.8 C26.2899924,41.8 25.3400019,41.3500045 24.96,40.45 C24.9399999,40.4299999 24.93,40.3300009 24.93,40.15 C24.93,39.1099948 25.829991,37.5300106 27.63,35.41 C29.6100099,33.1499887 31.3199928,32.02 32.76,32.02 C33.7800051,32.02 34.8099948,32.4099961 35.85,33.19 C36.9500055,33.8900035 37.4600004,34.4299981 37.38,34.81 C37.1399988,36.0900064 36.3300069,36.73 34.95,36.73 C34.7299989,36.73 34.4900013,36.6950004 34.23,36.625 C33.9699987,36.5549996 33.7000014,36.3350019 33.42,35.965 C33.1399986,35.5949981 32.8400016,35.41 32.52,35.41 C32.1599982,35.41 31.5150047,35.914995 30.585,36.925 C29.6549954,37.935005 29.19,38.6599978 29.19,39.1 C29.19,39.1600003 29.2699992,39.19 29.43,39.19 C29.7300015,39.19 30.7199916,39.0100018 32.4,38.65 C34.0800084,38.2899982 35.3899953,38.11 36.33,38.11 C37.9700082,38.11 38.79,38.6599945 38.79,39.76 Z M34.59,50.8 C34.59,51.6400042 34.0200057,52.2499981 32.88,52.63 C32.5799985,52.7100004 32.0450039,52.6050014 31.275,52.315 C30.5049962,52.0249985 30.1100001,51.7600012 30.09,51.52 C29.9899995,50.6799958 30.1599978,50.1100015 30.6,49.81 C30.8400012,49.6299991 31.2299973,49.54 31.77,49.54 C32.4300033,49.54 33.0399972,49.6299991 33.6,49.81 C34.1600028,49.9900009 34.4649997,50.174999 34.515,50.365 C34.5650003,50.555001 34.59,50.6999995 34.59,50.8 Z"/>
    <polygon fill="#22BA8E" points="16 19 23 19 16 26"/>
    <polygon fill="#22BA8E" points="41 19 48 19 41 26" transform="matrix(-1 0 0 1 89 0)"/>
    <polygon fill="#22BA8E" points="16 56 23 56 16 63" transform="matrix(1 0 0 -1 0 119)"/>
    <polygon fill="#22BA8E" points="41 56 48 56 41 63" transform="rotate(180 44.5 59.5)"/>
    <path stroke="#FFAF40" stroke-linecap="square" stroke-width="2" d="M9,11 L51.0119031,11"/>
    <polygon fill="#FFDD95" points="2 6 15 6 17 11 4 11"/>
    <polygon fill="#FFAF40" points="2 11 15 11 17 16 4 16" transform="matrix(1 0 0 -1 0 27)"/>
    <polygon fill="#FFAF40" points="64 11 51 17 51 5"/>
  </g>
</svg>
