<svg xmlns="http://www.w3.org/2000/svg" width="64" height="64" viewBox="0 0 64 64">
  <g fill="none" fill-rule="evenodd">
    <path fill="#22BA8E" d="M14,9.00659927 C14,7.89838509 14.6069183,7.65612793 15.3648694,8.47553444 L21.8851306,15.5244656 C22.6389272,16.3393807 23.88579,16.3813936 24.6851634,15.6036248 L31.0648366,9.3963752 C31.8574555,8.62517847 33.13579,8.61860645 33.9351634,9.3963752 L40.3148366,15.6036248 C41.1074555,16.3748215 42.3569183,16.3438721 43.1148694,15.5244656 L49.6351306,8.47553444 C50.3889272,7.66061927 51,7.90255737 51,9.00659927 L51,56.9934007 C51,58.1016149 50.3930817,58.3438721 49.6351306,57.5244656 L43.1148694,50.4755344 C42.3610728,49.6606193 41.11421,49.6186064 40.3148366,50.3963752 L33.9351634,56.6036248 C33.1425445,57.3748215 31.86421,57.3813936 31.0648366,56.6036248 L24.6851634,50.3963752 C23.8925445,49.6251785 22.6430817,49.6561279 21.8851306,50.4755344 L15.3648694,57.5244656 C14.6110728,58.3393807 14,58.0974426 14,56.9934007 L14,9.00659927 Z"/>
    <path fill="#FFDD95" d="M35.56,21.75 C35.8800016,21.8900007 36.04,22.1399982 36.04,22.5 C36.04,23.0400027 35.7900025,23.4299988 35.29,23.67 C34.9699984,23.8300008 34.5200029,23.91 33.94,23.91 C33.4199974,23.91 32.8900027,23.8250008 32.35,23.655 C31.8099973,23.4849991 31.5100003,23.3300007 31.45,23.19 C31.1099983,22.2299952 31.2799966,21.5400021 31.96,21.12 C32.1200008,21.0199995 32.4299977,20.97 32.89,20.97 C34.1500063,20.97 35.0399974,21.2299974 35.56,21.75 Z M39.79,32.76 C39.79,34.2200073 39.0100078,36.0099894 37.45,38.13 C35.9499925,40.0500096 34.5100069,41.01 33.13,41.01 C31.7699932,41.01 30.390007,40.5900042 28.99,39.75 C27.789994,38.8699956 27.2099998,38.0600037 27.25,37.32 C27.2900002,36.8999979 27.7999951,36.69 28.78,36.69 C29.6000041,36.69 30.3599965,36.8299986 31.06,37.11 C31.3000012,37.310001 31.6899973,37.5599985 32.23,37.86 C32.5700017,37.8800001 33.0549968,37.490004 33.685,36.69 C34.3150032,35.889996 34.63,35.2700022 34.63,34.83 C34.63,34.5699987 34.4600017,34.44 34.12,34.44 C33.9399991,34.44 33.1800067,34.4999994 31.84,34.62 C30.4999933,34.7400006 29.4900034,34.8 28.81,34.8 C27.2899924,34.8 26.3400019,34.3500045 25.96,33.45 C25.9399999,33.4299999 25.93,33.3300009 25.93,33.15 C25.93,32.1099948 26.829991,30.5300106 28.63,28.41 C30.6100099,26.1499887 32.3199928,25.02 33.76,25.02 C34.7800051,25.02 35.8099948,25.4099961 36.85,26.19 C37.9500055,26.8900035 38.4600004,27.4299981 38.38,27.81 C38.1399988,29.0900064 37.3300069,29.73 35.95,29.73 C35.7299989,29.73 35.4900013,29.6950003 35.23,29.625 C34.9699987,29.5549997 34.7000014,29.3350018 34.42,28.965 C34.1399986,28.5949981 33.8400016,28.41 33.52,28.41 C33.1599982,28.41 32.5150047,28.9149949 31.585,29.925 C30.6549954,30.935005 30.19,31.6599978 30.19,32.1 C30.19,32.1600003 30.2699992,32.19 30.43,32.19 C30.7300015,32.19 31.7199916,32.0100018 33.4,31.65 C35.0800084,31.2899982 36.3899953,31.11 37.33,31.11 C38.9700082,31.11 39.79,31.6599945 39.79,32.76 Z M35.59,43.8 C35.59,44.6400042 35.0200057,45.2499981 33.88,45.63 C33.5799985,45.7100004 33.0450039,45.6050014 32.275,45.315 C31.5049962,45.0249986 31.1100001,44.7600012 31.09,44.52 C30.9899995,43.6799958 31.1599978,43.1100015 31.6,42.81 C31.8400012,42.6299991 32.2299973,42.54 32.77,42.54 C33.4300033,42.54 34.0399972,42.6299991 34.6,42.81 C35.1600028,42.9900009 35.4649997,43.1749991 35.515,43.365 C35.5650003,43.555001 35.59,43.6999995 35.59,43.8 Z"/>
  </g>
</svg>
