<svg xmlns="http://www.w3.org/2000/svg" width="64" height="64" viewBox="0 0 64 64">
  <g fill="none" fill-rule="evenodd">
    <rect width="17" height="11" x="24" y="10" stroke="#9F5757" stroke-linecap="round" stroke-width="2" rx="3"/>
    <rect width="57" height="38" x="4" y="17" fill="#BD7575" rx="4"/>
    <path stroke="#FFDD95" stroke-linecap="square" stroke-width="2" d="M39,30 L60.023796,30"/>
    <path fill="#FFAF40" fill-rule="nonzero" d="M30,32 L35,32 L35,28 L30,28 L30,32 Z M39,24 L39,36 L26,36 L26,24 L39,24 Z"/>
    <circle cx="16" cy="43" r="9" fill="#22BA8E"/>
    <path fill="#FFF" d="M16.928,38.15 C17.0773341,38.2153337 17.152,38.3319992 17.152,38.5 C17.152,38.7520013 17.0353345,38.9339994 16.802,39.046 C16.6526659,39.120667 16.442668,39.158 16.172,39.158 C15.9293321,39.158 15.6820013,39.1183337 15.43,39.039 C15.1779987,38.9596663 15.0380001,38.8873337 15.01,38.822 C14.8513325,38.3739978 14.9306651,38.052001 15.248,37.856 C15.322667,37.8093331 15.4673323,37.786 15.682,37.786 C16.2700029,37.786 16.6853321,37.9073321 16.928,38.15 Z M18.902,43.288 C18.902,43.9693367 18.5380036,44.8046617 17.81,45.794 C17.1099965,46.6900045 16.4380032,47.138 15.794,47.138 C15.1593302,47.138 14.5153366,46.942002 13.862,46.55 C13.3019972,46.1393313 13.0313332,45.7613351 13.05,45.416 C13.0686668,45.219999 13.3066644,45.122 13.764,45.122 C14.1466686,45.122 14.5013317,45.1873327 14.828,45.318 C14.9400006,45.4113338 15.1219987,45.5279993 15.374,45.668 C15.5326675,45.6773334 15.7589985,45.4953352 16.053,45.122 C16.3470015,44.7486648 16.494,44.4593344 16.494,44.254 C16.494,44.1326661 16.4146675,44.072 16.256,44.072 C16.1719996,44.072 15.8173365,44.0999997 15.192,44.156 C14.5666635,44.2120003 14.0953349,44.24 13.778,44.24 C13.0686631,44.24 12.6253342,44.0300021 12.448,43.61 C12.4386666,43.6006666 12.434,43.5540004 12.434,43.47 C12.434,42.9846642 12.8539958,42.2473383 13.694,41.258 C14.6180046,40.2033281 15.4159966,39.676 16.088,39.676 C16.5640024,39.676 17.0446642,39.8579982 17.53,40.222 C18.0433359,40.5486683 18.2813335,40.8006658 18.244,40.978 C18.1319994,41.5753363 17.7540032,41.874 17.11,41.874 C17.0073328,41.874 16.8953339,41.8576668 16.774,41.825 C16.6526661,41.7923332 16.5266673,41.6896675 16.396,41.517 C16.2653327,41.3443325 16.1253341,41.258 15.976,41.258 C15.8079992,41.258 15.5070022,41.4936643 15.073,41.965 C14.6389978,42.4363357 14.422,42.7746656 14.422,42.98 C14.422,43.0080001 14.459333,43.022 14.534,43.022 C14.6740007,43.022 15.1359961,42.9380008 15.92,42.77 C16.7040039,42.6019992 17.3153311,42.518 17.754,42.518 C18.5193372,42.518 18.902,42.7746641 18.902,43.288 Z M16.942,48.44 C16.942,48.832002 16.6760027,49.1166658 16.144,49.294 C16.0039993,49.3313335 15.7543351,49.282334 15.395,49.147 C15.0356649,49.011666 14.8513334,48.8880006 14.842,48.776 C14.7953331,48.383998 14.8746656,48.1180007 15.08,47.978 C15.1920006,47.8939996 15.3739987,47.852 15.626,47.852 C15.9340015,47.852 16.2186654,47.8939996 16.48,47.978 C16.7413346,48.0620004 16.8836666,48.1483329 16.907,48.237 C16.9303335,48.3256671 16.942,48.3933331 16.942,48.44 Z"/>
    <path stroke="#FFDD95" stroke-linecap="square" stroke-width="2" d="M5,30 L26.023796,30"/>
  </g>
</svg>
