<svg xmlns="http://www.w3.org/2000/svg" width="64" height="64" viewBox="0 0 64 64">
  <g fill="none" fill-rule="evenodd">
    <path fill="#22BA8E" d="M6,9.00659927 C6,7.89838509 6.60691833,7.65612793 7.36486936,8.47553444 L13.8851306,15.5244656 C14.6389272,16.3393807 15.88579,16.3813936 16.6851634,15.6036248 L23.0648366,9.3963752 C23.8574555,8.62517847 25.13579,8.61860645 25.9351634,9.3963752 L32.3148366,15.6036248 C33.1074555,16.3748215 34.3569183,16.3438721 35.1148694,15.5244656 L41.6351306,8.47553444 C42.3889272,7.66061927 43,7.90255737 43,9.00659927 L43,56.9934007 C43,58.1016149 42.3930817,58.3438721 41.6351306,57.5244656 L35.1148694,50.4755344 C34.3610728,49.6606193 33.11421,49.6186064 32.3148366,50.3963752 L25.9351634,56.6036248 C25.1425445,57.3748215 23.86421,57.3813936 23.0648366,56.6036248 L16.6851634,50.3963752 C15.8925445,49.6251785 14.6430817,49.6561279 13.8851306,50.4755344 L7.36486936,57.5244656 C6.61107283,58.3393807 6,58.0974426 6,56.9934007 L6,9.00659927 Z"/>
    <path fill="#FFDD95" d="M27.56,21.75 C27.8800016,21.8900007 28.04,22.1399982 28.04,22.5 C28.04,23.0400027 27.7900025,23.4299988 27.29,23.67 C26.9699984,23.8300008 26.5200029,23.91 25.94,23.91 C25.4199974,23.91 24.8900027,23.8250008 24.35,23.655 C23.8099973,23.4849991 23.5100003,23.3300007 23.45,23.19 C23.1099983,22.2299952 23.2799966,21.5400021 23.96,21.12 C24.1200008,21.0199995 24.4299977,20.97 24.89,20.97 C26.1500063,20.97 27.0399974,21.2299974 27.56,21.75 Z M31.79,32.76 C31.79,34.2200073 31.0100078,36.0099894 29.45,38.13 C27.9499925,40.0500096 26.5100069,41.01 25.13,41.01 C23.7699932,41.01 22.390007,40.5900042 20.99,39.75 C19.789994,38.8699956 19.2099998,38.0600037 19.25,37.32 C19.2900002,36.8999979 19.7999951,36.69 20.78,36.69 C21.6000041,36.69 22.3599965,36.8299986 23.06,37.11 C23.3000012,37.310001 23.6899973,37.5599985 24.23,37.86 C24.5700017,37.8800001 25.0549968,37.490004 25.685,36.69 C26.3150032,35.889996 26.63,35.2700022 26.63,34.83 C26.63,34.5699987 26.4600017,34.44 26.12,34.44 C25.9399991,34.44 25.1800067,34.4999994 23.84,34.62 C22.4999933,34.7400006 21.4900034,34.8 20.81,34.8 C19.2899924,34.8 18.3400019,34.3500045 17.96,33.45 C17.9399999,33.4299999 17.93,33.3300009 17.93,33.15 C17.93,32.1099948 18.829991,30.5300106 20.63,28.41 C22.6100099,26.1499887 24.3199928,25.02 25.76,25.02 C26.7800051,25.02 27.8099948,25.4099961 28.85,26.19 C29.9500055,26.8900035 30.4600004,27.4299981 30.38,27.81 C30.1399988,29.0900064 29.3300069,29.73 27.95,29.73 C27.7299989,29.73 27.4900013,29.6950003 27.23,29.625 C26.9699987,29.5549997 26.7000014,29.3350018 26.42,28.965 C26.1399986,28.5949981 25.8400016,28.41 25.52,28.41 C25.1599982,28.41 24.5150047,28.9149949 23.585,29.925 C22.6549954,30.935005 22.19,31.6599978 22.19,32.1 C22.19,32.1600003 22.2699992,32.19 22.43,32.19 C22.7300015,32.19 23.7199916,32.0100018 25.4,31.65 C27.0800084,31.2899982 28.3899953,31.11 29.33,31.11 C30.9700082,31.11 31.79,31.6599945 31.79,32.76 Z M27.59,43.8 C27.59,44.6400042 27.0200057,45.2499981 25.88,45.63 C25.5799985,45.7100004 25.0450039,45.6050014 24.275,45.315 C23.5049962,45.0249986 23.1100001,44.7600012 23.09,44.52 C22.9899995,43.6799958 23.1599978,43.1100015 23.6,42.81 C23.8400012,42.6299991 24.2299973,42.54 24.77,42.54 C25.4300033,42.54 26.0399972,42.6299991 26.6,42.81 C27.1600028,42.9900009 27.4649997,43.1749991 27.515,43.365 C27.5650003,43.555001 27.59,43.6999995 27.59,43.8 Z"/>
    <path stroke="#979797" stroke-linecap="round" stroke-width="2" d="M59,11 C59,6.581722 55.418278,3 51,3 C46.581722,3 43,6.581722 43,11"/>
    <rect width="22" height="21" x="40" y="11" fill="#0A3586"/>
    <circle cx="51" cy="18" r="3" fill="#D8D8D8"/>
    <rect width="2" height="7" x="50" y="20" fill="#D8D8D8"/>
  </g>
</svg>
