<svg xmlns="http://www.w3.org/2000/svg" width="64" height="64" viewBox="0 0 64 64">
  <g fill="none" fill-rule="evenodd">
    <path stroke="#22BA8E" stroke-linecap="round" stroke-width="2" d="M29.0043997 38.7018972C29.0043997 38.7018972 26.2842449 33.7238361 29.1856567 28.8312 32.0870684 23.9385638 30.3104903 14.3323803 30.3104903 14.3323803M28.8738037 37.6818099C28.8738037 37.6818099 26.7743723 32.9505332 19.7822461 30.4591814M28.2440739 39.0472208C28.2440739 39.0472208 35.5002482 32.2882541 40.0986705 29.6305021"/>
    <polygon fill="#BD7575" points="14 42 45 42 42 63 17 63"/>
    <rect width="33" height="4" x="13" y="38" fill="#9C4D4D"/>
    <circle cx="30.5" cy="11.5" r="9.5" fill="#FFAF40"/>
    <path fill="#FFDD95" d="M31.984,4.825 C32.1653342,4.90433373 32.256,5.04599898 32.256,5.25 C32.256,5.55600153 32.1143347,5.77699932 31.831,5.913 C31.6496658,6.00366712 31.3946683,6.049 31.066,6.049 C30.7713319,6.049 30.4710015,6.00083382 30.165,5.9045 C29.8589985,5.80816618 29.6890002,5.72033373 29.655,5.641 C29.4623324,5.09699728 29.5586647,4.70600119 29.944,4.468 C30.0346671,4.41133305 30.210332,4.383 30.471,4.383 C31.1850036,4.383 31.6893319,4.53033186 31.984,4.825 Z M34.381,11.064 C34.381,11.8913375 33.9390044,12.9056607 33.055,14.107 C32.2049958,15.1950054 31.3890039,15.739 30.607,15.739 C29.8363295,15.739 29.0543373,15.5010024 28.261,15.025 C27.5809966,14.5263308 27.2523332,14.0673354 27.275,13.648 C27.2976668,13.4099988 27.5866639,13.291 28.142,13.291 C28.606669,13.291 29.0373313,13.3703325 29.434,13.529 C29.5700007,13.6423339 29.7909985,13.7839992 30.097,13.954 C30.2896676,13.9653334 30.5644982,13.7443356 30.9215,13.291 C31.2785018,12.8376644 31.457,12.4863346 31.457,12.237 C31.457,12.0896659 31.3606676,12.016 31.168,12.016 C31.0659995,12.016 30.6353371,12.0499997 29.876,12.118 C29.1166629,12.1860003 28.5443353,12.22 28.159,12.22 C27.2976624,12.22 26.7593344,11.9650025 26.544,11.455 C26.5326666,11.4436666 26.527,11.3870005 26.527,11.285 C26.527,10.6956637 27.0369949,9.80033934 28.057,8.599 C29.1790056,7.31832693 30.1479959,6.678 30.964,6.678 C31.5420029,6.678 32.1256637,6.89899779 32.715,7.341 C33.3383365,7.73766865 33.6273336,8.04366559 33.582,8.259 C33.4459993,8.98433696 32.9870039,9.347 32.205,9.347 C32.0803327,9.347 31.9443341,9.32716686 31.797,9.2875 C31.6496659,9.24783313 31.4966675,9.12316772 31.338,8.9135 C31.1793325,8.70383229 31.0093342,8.599 30.828,8.599 C30.623999,8.599 30.2585026,8.88516381 29.7315,9.4575 C29.2044974,10.0298362 28.941,10.4406654 28.941,10.69 C28.941,10.7240002 28.9863329,10.741 29.077,10.741 C29.2470008,10.741 29.8079952,10.639001 30.76,10.435 C31.7120048,10.230999 32.4543307,10.129 32.987,10.129 C33.916338,10.129 34.381,10.4406635 34.381,11.064 Z M32.001,17.32 C32.001,17.7960024 31.6780032,18.1416656 31.032,18.357 C30.8619991,18.4023336 30.5588355,18.3428342 30.1225,18.1785 C29.6861645,18.0141658 29.4623334,17.8640007 29.451,17.728 C29.3943331,17.2519976 29.4906654,16.9290008 29.74,16.759 C29.8760007,16.6569995 30.0969985,16.606 30.403,16.606 C30.7770019,16.606 31.1226651,16.6569995 31.44,16.759 C31.7573349,16.8610005 31.9301665,16.9658328 31.9585,17.0735 C31.9868335,17.1811672 32.001,17.263333 32.001,17.32 Z"/>
    <path fill="#80D25B" d="M51,26.1669981 C51,26.1669981 43.4138463,36.4937567 37.704833,32.8959874 C31.9958196,29.298218 41.6945437,25.1072312 51,26.1669981 Z"/>
    <path fill="#80D25B" d="M22,25.1669981 C22,25.1669981 14.4138463,35.4937567 8.70483299,31.8959874 C2.99581964,28.298218 12.6945437,24.1072312 22,25.1669981 Z" transform="matrix(-1 0 0 1 29 0)"/>
  </g>
</svg>
