<svg xmlns="http://www.w3.org/2000/svg" width="64" height="64" viewBox="0 0 64 64">
  <g fill="none" fill-rule="evenodd">
    <circle cx="31" cy="32" r="11" fill="#80D25B"/>
    <path fill="#5B68C0" d="M32.336,25.05 C32.528001,25.1340004 32.624,25.2839989 32.624,25.5 C32.624,25.8240016 32.4740015,26.0579993 32.174,26.202 C31.981999,26.2980005 31.7120017,26.346 31.364,26.346 C31.0519984,26.346 30.7340016,26.2950005 30.41,26.193 C30.0859984,26.0909995 29.9060002,25.9980004 29.87,25.914 C29.665999,25.3379971 29.767998,24.9240013 30.176,24.672 C30.2720005,24.6119997 30.4579986,24.582 30.734,24.582 C31.4900038,24.582 32.0239984,24.7379984 32.336,25.05 Z M34.874,31.656 C34.874,32.5320044 34.4060047,33.6059936 33.47,34.878 C32.5699955,36.0300058 31.7060041,36.606 30.878,36.606 C30.0619959,36.606 29.2340042,36.3540025 28.394,35.85 C27.6739964,35.3219974 27.3259999,34.8360022 27.35,34.392 C27.3740001,34.1399987 27.6799971,34.014 28.268,34.014 C28.7600025,34.014 29.2159979,34.0979992 29.636,34.266 C29.7800007,34.3860006 30.0139984,34.5359991 30.338,34.716 C30.542001,34.7280001 30.8329981,34.4940024 31.211,34.014 C31.5890019,33.5339976 31.778,33.1620013 31.778,32.898 C31.778,32.7419992 31.676001,32.664 31.472,32.664 C31.3639995,32.664 30.908004,32.6999996 30.104,32.772 C29.299996,32.8440004 28.694002,32.88 28.286,32.88 C27.3739954,32.88 26.8040011,32.6100027 26.576,32.07 C26.5639999,32.0579999 26.558,31.9980005 26.558,31.89 C26.558,31.2659969 27.0979946,30.3180064 28.178,29.046 C29.3660059,27.6899932 30.3919957,27.012 31.256,27.012 C31.8680031,27.012 32.4859969,27.2459977 33.11,27.714 C33.7700033,28.1340021 34.0760002,28.4579989 34.028,28.686 C33.8839993,29.4540038 33.3980041,29.838 32.57,29.838 C32.4379993,29.838 32.2940008,29.8170002 32.138,29.775 C31.9819992,29.7329998 31.8200008,29.6010011 31.652,29.379 C31.4839992,29.1569989 31.304001,29.046 31.112,29.046 C30.8959989,29.046 30.5090028,29.348997 29.951,29.955 C29.3929972,30.561003 29.114,30.9959987 29.114,31.26 C29.114,31.2960002 29.1619995,31.314 29.258,31.314 C29.4380009,31.314 30.031995,31.2060011 31.04,30.99 C32.048005,30.7739989 32.8339972,30.666 33.398,30.666 C34.3820049,30.666 34.874,30.9959967 34.874,31.656 Z M32.354,38.28 C32.354,38.7840025 32.0120034,39.1499989 31.328,39.378 C31.1479991,39.4260002 30.8270023,39.3630009 30.365,39.189 C29.9029977,39.0149991 29.6660001,38.8560007 29.654,38.712 C29.5939997,38.2079975 29.6959987,37.8660009 29.96,37.686 C30.1040007,37.5779995 30.3379984,37.524 30.662,37.524 C31.058002,37.524 31.4239983,37.5779995 31.76,37.686 C32.0960017,37.7940005 32.2789998,37.9049994 32.309,38.019 C32.3390001,38.1330006 32.354,38.2199997 32.354,38.28 Z"/>
    <g transform="translate(24 2)">
      <circle cx="7" cy="7" r="7" fill="#80D25B"/>
      <path stroke="#FFF" stroke-linecap="square" stroke-width="2" d="M7,11 L7,5"/>
      <polyline stroke="#FFF" stroke-linecap="round" stroke-width="2" points="3.124 6.748 7.13 3.072 10.906 6.992"/>
    </g>
    <g transform="rotate(-180 19 31)">
      <circle cx="7" cy="7" r="7" fill="#D8D8D8"/>
      <path stroke="#979797" stroke-linecap="square" stroke-width="2" d="M7,11 L7,5"/>
      <polyline stroke="#979797" stroke-linecap="round" stroke-width="2" points="3.124 6.748 7.13 3.072 10.906 6.992"/>
    </g>
    <g transform="rotate(-90 20 19)">
      <circle cx="7" cy="7" r="7" fill="#D8D8D8"/>
      <path stroke="#979797" stroke-linecap="square" stroke-width="2" d="M7,11 L7,5"/>
      <polyline stroke="#979797" stroke-linecap="round" stroke-width="2" points="3.124 6.748 7.13 3.072 10.906 6.992"/>
    </g>
    <g transform="rotate(90 18.5 43.5)">
      <circle cx="7" cy="7" r="7" fill="#D8D8D8"/>
      <path stroke="#979797" stroke-linecap="square" stroke-width="2" d="M7,11 L7,5"/>
      <polyline stroke="#979797" stroke-linecap="round" stroke-width="2" points="3.124 6.748 7.13 3.072 10.906 6.992"/>
    </g>
  </g>
</svg>
