<svg xmlns="http://www.w3.org/2000/svg" width="64" height="64" viewBox="0 0 64 64">
  <g fill="none" fill-rule="evenodd">
    <circle cx="33" cy="32" r="29" fill="#FFAF40"/>
    <circle cx="33" cy="32" r="24" stroke="#FFDD95" stroke-linecap="round" stroke-width="2"/>
    <path stroke="#FFDD95" stroke-linecap="round" stroke-width="2" d="M32.9176365,5 L32.9176365,4 M45.4627879,8.09143309 L45.9322595,7.2084855 M55.1401167,16.6650077 L55.9592688,16.0914312 M59.7208574,28.746176 L60.7134036,28.6243066 M58.1637929,41.5724504 L59.0973733,41.9308184 M50.8189443,52.2124732 L51.4880749,52.955618 M39.3778563,58.2157521 L39.6197782,59.1860478 M26.4574166,58.2157521 L26.2154947,59.1860478 M15.0163287,52.2124732 L14.3471981,52.955618 M7.67148,41.5724504 L6.73789957,41.9308184 M6.1144155,28.746176 L5.12186934,28.6243066 M10.6951562,16.6650077 L9.87600412,16.0914312 M20.372485,8.09143309 L19.9030134,7.2084855"/>
    <text fill="#FFDD95" font-family="MarkerFelt-Thin, Marker Felt" font-size="44" font-weight="300">
      <tspan x="22" y="49">$</tspan>
    </text>
  </g>
</svg>
