<svg xmlns="http://www.w3.org/2000/svg" width="64" height="64" viewBox="0 0 64 64">
  <g fill="none" fill-rule="evenodd">
    <path fill="#B6B6B6" d="M5,28 L59,28 L59,60 L5,60 L5,28 Z M32,13 L59,28 L5,28 L32,13 Z"/>
    <rect width="23" height="44" x="19" y="6" fill="#22BA8E"/>
    <circle cx="31" cy="28" r="10" fill="#80D25B"/>
    <path fill="#325AA6" d="M33.152,17.85 C33.4293347,17.9713339 33.568,18.1879984 33.568,18.5 C33.568,18.9680023 33.3513355,19.305999 32.918,19.514 C32.6406653,19.6526674 32.2506692,19.722 31.748,19.722 C31.2973311,19.722 30.8380023,19.6483341 30.37,19.501 C29.9019977,19.3536659 29.6420003,19.2193339 29.59,19.098 C29.2953319,18.2659958 29.4426637,17.6680018 30.032,17.304 C30.1706674,17.2173329 30.4393313,17.174 30.838,17.174 C31.9300055,17.174 32.7013311,17.3993311 33.152,17.85 Z M36.818,27.392 C36.818,28.6573397 36.1420068,30.2086575 34.79,32.046 C33.4899935,33.7100083 32.242006,34.542 31.046,34.542 C29.8673274,34.542 28.6713394,34.1780036 27.458,33.45 C26.4179948,32.6873295 25.9153332,31.9853365 25.95,31.344 C25.9846668,30.9799982 26.4266624,30.798 27.276,30.798 C27.9866702,30.798 28.6453303,30.9193321 29.252,31.162 C29.460001,31.3353342 29.7979977,31.5519987 30.266,31.812 C30.5606681,31.8293334 30.9809973,31.4913368 31.527,30.798 C32.0730027,30.1046632 32.346,29.5673352 32.346,29.186 C32.346,28.9606655 32.1986681,28.848 31.904,28.848 C31.7479992,28.848 31.0893391,28.8999995 29.928,29.004 C28.7666609,29.1080005 27.8913363,29.16 27.302,29.16 C25.9846601,29.16 25.161335,28.7700039 24.832,27.99 C24.8146666,27.9726666 24.806,27.8860008 24.806,27.73 C24.806,26.8286622 25.5859922,25.4593425 27.146,23.622 C28.8620086,21.6633235 30.3439938,20.684 31.592,20.684 C32.4760044,20.684 33.3686622,21.0219966 34.27,21.698 C35.2233381,22.3046697 35.6653337,22.772665 35.596,23.102 C35.387999,24.2113389 34.686006,24.766 33.49,24.766 C33.2993324,24.766 33.0913345,24.735667 32.866,24.675 C32.6406655,24.614333 32.4066679,24.4236683 32.164,24.103 C31.9213321,23.7823317 31.6613347,23.622 31.384,23.622 C31.0719984,23.622 30.513004,24.0596623 29.707,24.935 C28.900996,25.8103377 28.498,26.4386648 28.498,26.82 C28.498,26.8720003 28.5673326,26.898 28.706,26.898 C28.9660013,26.898 29.8239927,26.7420016 31.28,26.43 C32.7360073,26.1179984 33.8713293,25.962 34.686,25.962 C36.1073404,25.962 36.818,26.4386619 36.818,27.392 Z M33.178,36.96 C33.178,37.6880036 32.6840049,38.216665 31.696,38.546 C31.4359987,38.6153337 30.9723367,38.5243346 30.305,38.273 C29.6376633,38.0216654 29.2953334,37.792001 29.278,37.584 C29.1913329,36.8559964 29.3386648,36.3620013 29.72,36.102 C29.928001,35.9459992 30.2659977,35.868 30.734,35.868 C31.3060029,35.868 31.8346642,35.9459992 32.32,36.102 C32.8053358,36.2580008 33.0696664,36.4183325 33.113,36.583 C33.1563335,36.7476675 33.178,36.8733329 33.178,36.96 Z"/>
    <polygon fill="#D8D8D8" points="30 47.5 5 60 5 28"/>
    <polygon fill="#D8D8D8" points="59 47.5 34 60 34 28" transform="matrix(-1 0 0 1 93 0)"/>
    <polygon fill="#ECECEC" points="32 45 59 60 5 60"/>
  </g>
</svg>
