<svg xmlns="http://www.w3.org/2000/svg" width="64" height="64" viewBox="0 0 64 64">
  <g fill="none" fill-rule="evenodd">
    <path fill="#22BA8E" d="M2,16.0079379 C2,16.0079379 10.0454499,20.2992936 17.25,21.0079379 C24.4545501,21.7165822 39.9822361,15.7532571 47.75,16.0079379 C55.5177639,16.2626187 63,20.0079379 63,20.0079379 L63,51.0079379 C63,51.0079379 55.2322361,47.2532571 47.75,47.0079379 C40.4103585,46.7672939 25.2954499,52.7992936 17.25,52.0079379 C9.20455009,51.2165822 2,47.0079379 2,47.0079379 L2,16.0079379 Z"/>
    <circle cx="32" cy="33.986" r="11" fill="#80D25B"/>
    <text fill="#5B68C0" font-family="MarkerFelt-Thin, Marker Felt" font-size="18" font-weight="300">
      <tspan x="27" y="40.986">$</tspan>
    </text>
    <circle cx="49" cy="13.986" r="11" fill="#FFAF40"/>
    <path fill="#FFDD95" d="M50.336,7.03565931 C50.528001,7.11965973 50.624,7.26965823 50.624,7.48565931 C50.624,7.80966093 50.4740015,8.04365859 50.174,8.18765931 C49.981999,8.28365979 49.7120017,8.33165931 49.364,8.33165931 C49.0519984,8.33165931 48.7340016,8.28065982 48.41,8.17865931 C48.0859984,8.0766588 47.9060002,7.98365973 47.87,7.89965931 C47.665999,7.32365643 47.767998,6.90966057 48.176,6.65765931 C48.2720005,6.59765901 48.4579986,6.56765931 48.734,6.56765931 C49.4900038,6.56765931 50.0239984,6.72365775 50.336,7.03565931 Z M52.874,13.6416593 C52.874,14.5176637 52.4060047,15.591653 51.47,16.8636593 C50.5699955,18.0156651 49.7060041,18.5916593 48.878,18.5916593 C48.0619959,18.5916593 47.2340042,18.3396618 46.394,17.8356593 C45.6739964,17.3076567 45.3259999,16.8216615 45.35,16.3776593 C45.3740001,16.1256581 45.6799971,15.9996593 46.268,15.9996593 C46.7600025,15.9996593 47.2159979,16.0836585 47.636,16.2516593 C47.7800007,16.3716599 48.0139984,16.5216584 48.338,16.7016593 C48.542001,16.7136594 48.8329981,16.4796617 49.211,15.9996593 C49.5890019,15.5196569 49.778,15.1476606 49.778,14.8836593 C49.778,14.7276585 49.676001,14.6496593 49.472,14.6496593 C49.3639995,14.6496593 48.908004,14.685659 48.104,14.7576593 C47.299996,14.8296597 46.694002,14.8656593 46.286,14.8656593 C45.3739954,14.8656593 44.8040011,14.595662 44.576,14.0556593 C44.5639999,14.0436593 44.558,13.9836599 44.558,13.8756593 C44.558,13.2516562 45.0979946,12.3036657 46.178,11.0316593 C47.3660059,9.67565253 48.3919957,8.99765931 49.256,8.99765931 C49.8680031,8.99765931 50.4859969,9.23165697 51.11,9.69965931 C51.7700033,10.1196614 52.0760002,10.4436582 52.028,10.6716593 C51.8839993,11.4396632 51.3980041,11.8236593 50.57,11.8236593 C50.4379993,11.8236593 50.2940008,11.8026595 50.138,11.7606593 C49.9819992,11.7186591 49.8200008,11.5866604 49.652,11.3646593 C49.4839992,11.1426582 49.304001,11.0316593 49.112,11.0316593 C48.8959989,11.0316593 48.5090028,11.3346563 47.951,11.9406593 C47.3929972,12.5466623 47.114,12.981658 47.114,13.2456593 C47.114,13.2816595 47.1619995,13.2996593 47.258,13.2996593 C47.4380009,13.2996593 48.031995,13.1916604 49.04,12.9756593 C50.048005,12.7596582 50.8339972,12.6516593 51.398,12.6516593 C52.3820049,12.6516593 52.874,12.981656 52.874,13.6416593 Z M50.354,20.2656593 C50.354,20.7696618 50.0120034,21.1356582 49.328,21.3636593 C49.1479991,21.4116596 48.8270023,21.3486602 48.365,21.1746593 C47.9029977,21.0006584 47.6660001,20.84166 47.654,20.6976593 C47.5939997,20.1936568 47.6959987,19.8516602 47.96,19.6716593 C48.1040007,19.5636588 48.3379984,19.5096593 48.662,19.5096593 C49.058002,19.5096593 49.4239983,19.5636588 49.76,19.6716593 C50.0960017,19.7796599 50.2789998,19.8906587 50.309,20.0046593 C50.3390001,20.1186599 50.354,20.205659 50.354,20.2656593 Z"/>
  </g>
</svg>
