<svg xmlns="http://www.w3.org/2000/svg" width="64" height="64" viewBox="0 0 64 64">
  <g fill="none" fill-rule="evenodd">
    <rect width="40" height="34" x="7" y="25" fill="#595959"/>
    <rect width="12" height="16" x="21" y="41" fill="#FFF"/>
    <polygon fill="#E43535" points="27 1 53 25 1 25"/>
    <circle cx="49" cy="49" r="14" fill="#22BA8E"/>
    <path fill="#FFF" d="M51.04,41.5 C51.2533344,41.5933338 51.36,41.7599988 51.36,42 C51.36,42.3600018 51.193335,42.6199992 50.86,42.78 C50.6466656,42.8866672 50.3466686,42.94 49.96,42.94 C49.6133316,42.94 49.2600018,42.8833339 48.9,42.77 C48.5399982,42.6566661 48.3400002,42.5533338 48.3,42.46 C48.0733322,41.8199968 48.1866644,41.3600014 48.64,41.08 C48.7466672,41.013333 48.9533318,40.98 49.26,40.98 C50.1000042,40.98 50.6933316,41.1533316 51.04,41.5 Z M53.86,48.84 C53.86,49.8133382 53.3400052,51.0066596 52.3,52.42 C51.299995,53.7000064 50.3400046,54.34 49.42,54.34 C48.5133288,54.34 47.593338,54.0600028 46.66,53.5 C45.859996,52.9133304 45.4733332,52.3733358 45.5,51.88 C45.5266668,51.5999986 45.8666634,51.46 46.52,51.46 C47.0666694,51.46 47.573331,51.5533324 48.04,51.74 C48.2000008,51.873334 48.4599982,52.039999 48.82,52.24 C49.0466678,52.2533334 49.3699979,51.993336 49.79,51.46 C50.2100021,50.926664 50.42,50.5133348 50.42,50.22 C50.42,50.0466658 50.3066678,49.96 50.08,49.96 C49.9599994,49.96 49.4533378,49.9999996 48.56,50.08 C47.6666622,50.1600004 46.9933356,50.2 46.54,50.2 C45.5266616,50.2 44.8933346,49.900003 44.64,49.3 C44.6266666,49.2866666 44.62,49.2200006 44.62,49.1 C44.62,48.4066632 45.219994,47.3533404 46.42,45.94 C47.7400066,44.4333258 48.8799952,43.68 49.84,43.68 C50.5200034,43.68 51.2066632,43.9399974 51.9,44.46 C52.633337,44.926669 52.9733336,45.2866654 52.92,45.54 C52.7599992,46.3933376 52.2200046,46.82 51.3,46.82 C51.1533326,46.82 50.9933342,46.7966669 50.82,46.75 C50.6466658,46.7033331 50.4666676,46.5566679 50.28,46.31 C50.0933324,46.0633321 49.8933344,45.94 49.68,45.94 C49.4399988,45.94 49.0100031,46.2766633 48.39,46.95 C47.7699969,47.6233367 47.46,48.1066652 47.46,48.4 C47.46,48.4400002 47.5133328,48.46 47.62,48.46 C47.820001,48.46 48.4799944,48.3400012 49.6,48.1 C50.7200056,47.8599988 51.5933302,47.74 52.22,47.74 C53.3133388,47.74 53.86,48.106663 53.86,48.84 Z M51.06,56.2 C51.06,56.7600028 50.6800038,57.1666654 49.92,57.42 C49.719999,57.4733336 49.3633359,57.4033343 48.85,57.21 C48.3366641,57.0166657 48.0733334,56.8400008 48.06,56.68 C47.993333,56.1199972 48.1066652,55.740001 48.4,55.54 C48.5600008,55.4199994 48.8199982,55.36 49.18,55.36 C49.6200022,55.36 50.0266648,55.4199994 50.4,55.54 C50.7733352,55.6600006 50.9766665,55.7833327 51.01,55.91 C51.0433335,56.0366673 51.06,56.133333 51.06,56.2 Z"/>
  </g>
</svg>
