<svg xmlns="http://www.w3.org/2000/svg" width="64" height="64" viewBox="0 0 64 64">
  <g fill="none" fill-rule="evenodd">
    <path fill="#B4DFFB" stroke="#4796E7" stroke-linecap="round" stroke-width="4" d="M21.1904762,37 C15.0101468,37 10,31.8832543 10,25.5714286 C10,19.2596029 15.0101468,14.1428571 21.1904762,14.1428571 C22.8098609,14.1428571 24.3489058,14.4941511 25.7385326,15.1261908 C26.3714992,9.42764354 31.1080275,5 36.8571429,5 C43.0374722,5 48.047619,10.1167457 48.047619,16.4285714 C48.047619,17.2123456 47.9703648,17.9776921 47.8232088,18.7171021 C47.8977895,18.7152282 47.9725965,18.7142857 48.047619,18.7142857 C52.9918825,18.7142857 57,22.8076823 57,27.8571429 C57,32.9066034 52.9918825,37 48.047619,37 L21.1904762,37 Z"/>
    <path fill="#4796E7" d="M37.336,17.05 C37.528001,17.1340004 37.624,17.2839989 37.624,17.5 C37.624,17.8240016 37.4740015,18.0579993 37.174,18.202 C36.981999,18.2980005 36.7120017,18.346 36.364,18.346 C36.0519984,18.346 35.7340016,18.2950005 35.41,18.193 C35.0859984,18.0909995 34.9060002,17.9980004 34.87,17.914 C34.665999,17.3379971 34.767998,16.9240013 35.176,16.672 C35.2720005,16.6119997 35.4579986,16.582 35.734,16.582 C36.4900038,16.582 37.0239984,16.7379984 37.336,17.05 Z M39.874,23.656 C39.874,24.5320044 39.4060047,25.6059936 38.47,26.878 C37.5699955,28.0300058 36.7060041,28.606 35.878,28.606 C35.0619959,28.606 34.2340042,28.3540025 33.394,27.85 C32.6739964,27.3219974 32.3259999,26.8360022 32.35,26.392 C32.3740001,26.1399987 32.6799971,26.014 33.268,26.014 C33.7600025,26.014 34.2159979,26.0979992 34.636,26.266 C34.7800007,26.3860006 35.0139984,26.5359991 35.338,26.716 C35.542001,26.7280001 35.8329981,26.4940024 36.211,26.014 C36.5890019,25.5339976 36.778,25.1620013 36.778,24.898 C36.778,24.7419992 36.676001,24.664 36.472,24.664 C36.3639995,24.664 35.908004,24.6999996 35.104,24.772 C34.299996,24.8440004 33.694002,24.88 33.286,24.88 C32.3739954,24.88 31.8040011,24.6100027 31.576,24.07 C31.5639999,24.0579999 31.558,23.9980005 31.558,23.89 C31.558,23.2659969 32.0979946,22.3180064 33.178,21.046 C34.3660059,19.6899932 35.3919957,19.012 36.256,19.012 C36.8680031,19.012 37.4859969,19.2459977 38.11,19.714 C38.7700033,20.1340021 39.0760002,20.4579989 39.028,20.686 C38.8839993,21.4540038 38.3980041,21.838 37.57,21.838 C37.4379993,21.838 37.2940008,21.8170002 37.138,21.775 C36.9819992,21.7329998 36.8200008,21.6010011 36.652,21.379 C36.4839992,21.1569989 36.304001,21.046 36.112,21.046 C35.8959989,21.046 35.5090028,21.348997 34.951,21.955 C34.3929972,22.561003 34.114,22.9959987 34.114,23.26 C34.114,23.2960002 34.1619995,23.314 34.258,23.314 C34.4380009,23.314 35.031995,23.2060011 36.04,22.99 C37.048005,22.7739989 37.8339972,22.666 38.398,22.666 C39.3820049,22.666 39.874,22.9959967 39.874,23.656 Z M37.354,30.28 C37.354,30.7840025 37.0120034,31.1499989 36.328,31.378 C36.1479991,31.4260002 35.8270023,31.3630009 35.365,31.189 C34.9029977,31.0149991 34.6660001,30.8560007 34.654,30.712 C34.5939997,30.2079975 34.6959987,29.8660009 34.96,29.686 C35.1040007,29.5779995 35.3379984,29.524 35.662,29.524 C36.058002,29.524 36.4239983,29.5779995 36.76,29.686 C37.0960017,29.7940005 37.2789998,29.9049994 37.309,30.019 C37.3390001,30.1330006 37.354,30.2199997 37.354,30.28 Z"/>
    <rect width="4" height="12" x="19" y="43" fill="#80D25B"/>
    <polygon fill="#80D25B" points="21 40 26 46 16 46"/>
    <rect width="4" height="12" x="31" y="43" fill="#80D25B"/>
    <polygon fill="#80D25B" points="33 40 38 46 28 46"/>
    <rect width="4" height="12" x="43" y="43" fill="#80D25B"/>
    <polygon fill="#80D25B" points="45 40 50 46 40 46"/>
  </g>
</svg>
