<svg xmlns="http://www.w3.org/2000/svg" width="64" height="64" viewBox="0 0 64 64">
  <g fill="none" fill-rule="evenodd">
    <path fill="#22BA8E" d="M4,13.0065993 C4,11.8983851 4.60691833,11.6561279 5.36486936,12.4755344 L11.8851306,19.5244656 C12.6389272,20.3393807 13.88579,20.3813936 14.6851634,19.6036248 L21.0648366,13.3963752 C21.8574555,12.6251785 23.13579,12.6186064 23.9351634,13.3963752 L30.3148366,19.6036248 C31.1074555,20.3748215 32.3569183,20.3438721 33.1148694,19.5244656 L39.6351306,12.4755344 C40.3889272,11.6606193 41,11.9025574 41,13.0065993 L41,60.9934007 C41,62.1016149 40.3930817,62.3438721 39.6351306,61.5244656 L33.1148694,54.4755344 C32.3610728,53.6606193 31.11421,53.6186064 30.3148366,54.3963752 L23.9351634,60.6036248 C23.1425445,61.3748215 21.86421,61.3813936 21.0648366,60.6036248 L14.6851634,54.3963752 C13.8925445,53.6251785 12.6430817,53.6561279 11.8851306,54.4755344 L5.36486936,61.5244656 C4.61107283,62.3393807 4,62.0974426 4,60.9934007 L4,13.0065993 Z"/>
    <circle cx="48" cy="16" r="15" fill="#4796E7"/>
    <path stroke="#5B68C0" stroke-linecap="round" stroke-width="2" d="M48,2 L48,3 M62,16 L61,16 M48,30 L48,29 M34,16 L35,16"/>
    <path stroke="#FFF" stroke-linecap="square" stroke-width="2" d="M48 8L48 18.0356688M48 18L55 18"/>
    <path fill="#FFDD95" d="M25.56,25.75 C25.8800016,25.8900007 26.04,26.1399982 26.04,26.5 C26.04,27.0400027 25.7900025,27.4299988 25.29,27.67 C24.9699984,27.8300008 24.5200029,27.91 23.94,27.91 C23.4199974,27.91 22.8900027,27.8250008 22.35,27.655 C21.8099973,27.4849991 21.5100003,27.3300007 21.45,27.19 C21.1099983,26.2299952 21.2799966,25.5400021 21.96,25.12 C22.1200008,25.0199995 22.4299977,24.97 22.89,24.97 C24.1500063,24.97 25.0399974,25.2299974 25.56,25.75 Z M29.79,36.76 C29.79,38.2200073 29.0100078,40.0099894 27.45,42.13 C25.9499925,44.0500096 24.5100069,45.01 23.13,45.01 C21.7699932,45.01 20.390007,44.5900042 18.99,43.75 C17.789994,42.8699956 17.2099998,42.0600037 17.25,41.32 C17.2900002,40.8999979 17.7999951,40.69 18.78,40.69 C19.6000041,40.69 20.3599965,40.8299986 21.06,41.11 C21.3000012,41.310001 21.6899973,41.5599985 22.23,41.86 C22.5700017,41.8800001 23.0549968,41.490004 23.685,40.69 C24.3150032,39.889996 24.63,39.2700022 24.63,38.83 C24.63,38.5699987 24.4600017,38.44 24.12,38.44 C23.9399991,38.44 23.1800067,38.4999994 21.84,38.62 C20.4999933,38.7400006 19.4900034,38.8 18.81,38.8 C17.2899924,38.8 16.3400019,38.3500045 15.96,37.45 C15.9399999,37.4299999 15.93,37.3300009 15.93,37.15 C15.93,36.1099948 16.829991,34.5300106 18.63,32.41 C20.6100099,30.1499887 22.3199928,29.02 23.76,29.02 C24.7800051,29.02 25.8099948,29.4099961 26.85,30.19 C27.9500055,30.8900035 28.4600004,31.4299981 28.38,31.81 C28.1399988,33.0900064 27.3300069,33.73 25.95,33.73 C25.7299989,33.73 25.4900013,33.6950003 25.23,33.625 C24.9699987,33.5549997 24.7000014,33.3350018 24.42,32.965 C24.1399986,32.5949981 23.8400016,32.41 23.52,32.41 C23.1599982,32.41 22.5150047,32.9149949 21.585,33.925 C20.6549954,34.935005 20.19,35.6599978 20.19,36.1 C20.19,36.1600003 20.2699992,36.19 20.43,36.19 C20.7300015,36.19 21.7199916,36.0100018 23.4,35.65 C25.0800084,35.2899982 26.3899953,35.11 27.33,35.11 C28.9700082,35.11 29.79,35.6599945 29.79,36.76 Z M25.59,47.8 C25.59,48.6400042 25.0200057,49.2499981 23.88,49.63 C23.5799985,49.7100004 23.0450039,49.6050014 22.275,49.315 C21.5049962,49.0249986 21.1100001,48.7600012 21.09,48.52 C20.9899995,47.6799958 21.1599978,47.1100015 21.6,46.81 C21.8400012,46.6299991 22.2299973,46.54 22.77,46.54 C23.4300033,46.54 24.0399972,46.6299991 24.6,46.81 C25.1600028,46.9900009 25.4649997,47.1749991 25.515,47.365 C25.5650003,47.555001 25.59,47.6999995 25.59,47.8 Z"/>
  </g>
</svg>
