<svg xmlns="http://www.w3.org/2000/svg" width="64" height="64" viewBox="0 0 64 64">
  <g fill="none" fill-rule="evenodd">
    <polygon fill="#5B68C0" points="5 51 60 51 60 56 5 56"/>
    <rect width="7" height="27" x="7" y="22" fill="#4796E7" rx="2"/>
    <rect width="7" height="27" x="52" y="22" fill="#4796E7" rx="2"/>
    <path fill="#5B68C0" d="M31.2696051,4.9887971 C32.2252758,4.44269954 33.778104,4.44463086 34.7303949,4.9887971 L59.2696051,19.0112029 C60.2252758,19.5573005 60.0976918,20 59.0069304,20 L6.99306965,20 C5.89232768,20 5.77810401,19.5553691 6.73039492,19.0112029 L31.2696051,4.9887971 Z"/>
    <circle cx="33" cy="12" r="3" fill="#FFAF40"/>
    <path fill="#22BA8E" d="M34.968,22.65 C35.3306685,22.8086675 35.512,23.091998 35.512,23.5 C35.512,24.1120031 35.2286695,24.5539986 34.662,24.826 C34.2993315,25.0073342 33.7893366,25.098 33.132,25.098 C32.5426637,25.098 31.9420031,25.0016676 31.33,24.809 C30.7179969,24.6163324 30.3780003,24.4406675 30.31,24.282 C29.9246647,23.1939946 30.1173295,22.4120024 30.888,21.936 C31.0693342,21.8226661 31.4206641,21.766 31.942,21.766 C33.3700071,21.766 34.3786637,22.0606637 34.968,22.65 Z M39.762,35.128 C39.762,36.7826749 38.8780088,38.8113213 37.11,41.214 C35.4099915,43.3900109 33.7780078,44.478 32.214,44.478 C30.672659,44.478 29.1086746,44.0020048 27.522,43.05 C26.1619932,42.0526617 25.5046664,41.1346709 25.55,40.296 C25.5953336,39.8199976 26.1733278,39.582 27.284,39.582 C28.213338,39.582 29.0746627,39.7406651 29.868,40.058 C30.1400014,40.2846678 30.5819969,40.5679983 31.194,40.908 C31.5793353,40.9306668 32.1289964,40.4886712 32.843,39.582 C33.5570036,38.6753288 33.914,37.9726692 33.914,37.474 C33.914,37.1793319 33.7213353,37.032 33.336,37.032 C33.131999,37.032 32.2706743,37.0999993 30.752,37.236 C29.2333257,37.3720007 28.0886705,37.44 27.318,37.44 C25.5953247,37.44 24.5186688,36.9300051 24.088,35.91 C24.0653332,35.8873332 24.054,35.774001 24.054,35.57 C24.054,34.3913274 25.0739898,32.6006787 27.114,30.198 C29.3580112,27.6366539 31.2959918,26.356 32.928,26.356 C34.0840058,26.356 35.2513274,26.7979956 36.43,27.682 C37.6766729,28.4753373 38.2546671,29.0873312 38.164,29.518 C37.8919986,30.9686739 36.9740078,31.694 35.41,31.694 C35.1606654,31.694 34.8886681,31.6543337 34.594,31.575 C34.2993319,31.4956663 33.9933349,31.2463354 33.676,30.827 C33.3586651,30.4076646 33.0186685,30.198 32.656,30.198 C32.247998,30.198 31.5170053,30.7703276 30.463,31.915 C29.4089947,33.0596724 28.882,33.8813308 28.882,34.38 C28.882,34.4480003 28.9726658,34.482 29.154,34.482 C29.4940017,34.482 30.6159905,34.278002 32.52,33.87 C34.4240095,33.461998 35.9086613,33.258 36.974,33.258 C38.832676,33.258 39.762,33.8813271 39.762,35.128 Z M35.002,47.64 C35.002,48.5920048 34.3560065,49.2833312 33.064,49.714 C32.7239983,49.8046671 32.117671,49.6856683 31.245,49.357 C30.372329,49.0283317 29.9246668,48.7280014 29.902,48.456 C29.7886661,47.5039952 29.9813308,46.8580017 30.48,46.518 C30.7520014,46.313999 31.1939969,46.212 31.806,46.212 C32.5540037,46.212 33.2453302,46.313999 33.88,46.518 C34.5146698,46.722001 34.8603331,46.9316656 34.917,47.147 C34.973667,47.3623344 35.002,47.5266661 35.002,47.64 Z"/>
  </g>
</svg>
