<svg xmlns="http://www.w3.org/2000/svg" width="64" height="64" viewBox="0 0 64 64">
  <g fill="none" fill-rule="evenodd">
    <rect width="22" height="10" x="3" y="35" fill="#FF78C7"/>
    <path fill="#FF78C7" d="M12.9729892,27.3696698 C8.64676354,30.9415344 6,35.7330039 6,41 C6,52.045695 17.6405965,61 32,61 C46.3594035,61 58,52.045695 58,41 C58,29.954305 46.3594035,21 32,21 C27.1893791,21 22.6839043,22.0049891 18.8190398,23.7569179 L12.9729892,20.3250059 L12.9729892,27.3696698 Z"/>
    <circle cx="16" cy="35" r="2" fill="#F5413E"/>
    <rect width="7" height="13" x="13" y="50" fill="#FF78C7"/>
    <rect width="7" height="13" x="45" y="50" fill="#FF78C7"/>
    <circle cx="34" cy="18" r="17" fill="#FFAF40"/>
    <path fill="#FFDD95" d="M36.32,4.875 C36.6933352,5.03833415 36.88,5.3299979 36.88,5.75 C36.88,6.38000315 36.5883362,6.8349986 36.005,7.115 C35.6316648,7.3016676 35.1066701,7.395 34.43,7.395 C33.8233303,7.395 33.2050032,7.29583433 32.575,7.0975 C31.9449969,6.89916568 31.5950003,6.71833415 31.525,6.555 C31.1283314,5.4349944 31.3266627,4.63000245 32.12,4.14 C32.3066676,4.02333275 32.6683307,3.965 33.205,3.965 C34.6750073,3.965 35.7133303,4.2683303 36.32,4.875 Z M41.255,17.72 C41.255,19.4233418 40.3450091,21.5116543 38.525,23.985 C36.7749912,26.2250112 35.0950081,27.345 33.485,27.345 C31.8983254,27.345 30.2883415,26.8550049 28.655,25.875 C27.254993,24.8483282 26.5783331,23.9033377 26.625,23.04 C26.6716669,22.5499975 27.2666609,22.305 28.41,22.305 C29.3666715,22.305 30.2533292,22.4683317 31.07,22.795 C31.3500014,23.0283345 31.8049968,23.3199983 32.435,23.67 C32.8316686,23.6933334 33.3974963,23.238338 34.1325,22.305 C34.8675037,21.371662 35.235,20.6483359 35.235,20.135 C35.235,19.8316651 35.0366687,19.68 34.64,19.68 C34.429999,19.68 33.5433411,19.7499993 31.98,19.89 C30.4166588,20.0300007 29.2383373,20.1 28.445,20.1 C26.6716578,20.1 25.5633356,19.5750052 25.12,18.525 C25.0966666,18.5016665 25.085,18.3850011 25.085,18.175 C25.085,16.9616606 26.1349895,15.1183457 28.235,12.645 C30.5450116,10.0083202 32.5399916,8.69 34.22,8.69 C35.410006,8.69 36.6116606,9.14499545 37.825,10.055 C39.1083398,10.8716707 39.7033338,11.5016645 39.61,11.945 C39.3299986,13.4383408 38.3850081,14.185 36.775,14.185 C36.5183321,14.185 36.2383349,14.1441671 35.935,14.0625 C35.6316652,13.9808329 35.3166683,13.7241688 34.99,13.2925 C34.6633317,12.8608312 34.3133352,12.645 33.94,12.645 C33.5199979,12.645 32.7675054,13.2341608 31.6825,14.4125 C30.5974946,15.5908392 30.055,16.4366641 30.055,16.95 C30.055,17.0200004 30.1483324,17.055 30.335,17.055 C30.6850017,17.055 31.8399902,16.8450021 33.8,16.425 C35.7600098,16.0049979 37.2883278,15.795 38.385,15.795 C40.2983429,15.795 41.255,16.4366603 41.255,17.72 Z M36.355,30.6 C36.355,31.5800049 35.6900066,32.2916645 34.36,32.735 C34.0099982,32.8283338 33.3858378,32.705835 32.4875,32.3675 C31.5891622,32.029165 31.1283335,31.7200014 31.105,31.44 C30.9883328,30.4599951 31.1866641,29.7950017 31.7,29.445 C31.9800014,29.2349989 32.4349968,29.13 33.065,29.13 C33.8350039,29.13 34.5466634,29.2349989 35.2,29.445 C35.8533366,29.655001 36.2091664,29.8708322 36.2675,30.0925 C36.3258336,30.3141678 36.355,30.4833328 36.355,30.6 Z"/>
    <rect width="27" height="6" x="21" y="30" fill="#FF78C7"/>
    <path stroke="#F5413E" stroke-linecap="square" stroke-width="2" d="M22,31 L46,31"/>
    <path stroke="#FF78C7" stroke-linecap="round" stroke-width="2" d="M52.3478777,33.2724048 C52.3478777,33.2724048 61.2700209,34.071115 61.2700209,29.7888351 C61.2700209,25.5065553 55.1403795,25.1691691 55.9746644,27.4790021 C56.8089493,29.7888351 57.3783746,31.0888047 58.3037767,29.2839034"/>
  </g>
</svg>
