<svg xmlns="http://www.w3.org/2000/svg" width="64" height="64" viewBox="0 0 64 64">
  <g fill="none" fill-rule="evenodd">
    <circle cx="32" cy="32" r="29" fill="#ECECEC" stroke="#22BA8E" stroke-linecap="round" stroke-width="2"/>
    <path fill="#22BA8E" d="M36.488,14.9 C36.9573357,15.1053344 37.192,15.4719974 37.192,16 C37.192,16.792004 36.825337,17.3639982 36.092,17.716 C35.6226643,17.9506678 34.9626709,18.068 34.112,18.068 C33.3493295,18.068 32.572004,17.9433346 31.78,17.694 C30.987996,17.4446654 30.5480004,17.2173344 30.46,17.012 C29.9613308,15.603993 30.2106617,14.5920031 31.208,13.976 C31.4426678,13.8293326 31.89733,13.756 32.572,13.756 C34.4200092,13.756 35.7253295,14.1373295 36.488,14.9 Z M42.692,31.048 C42.692,33.189344 41.5480114,35.8146511 39.26,38.924 C37.059989,41.7400141 34.9480101,43.148 32.924,43.148 C30.9293234,43.148 28.9053436,42.5320062 26.852,41.3 C25.0919912,40.0093269 24.241333,38.8213388 24.3,37.736 C24.358667,37.1199969 25.1066595,36.812 26.544,36.812 C27.7466727,36.812 28.8613282,37.0173313 29.888,37.428 C30.2400018,37.7213348 30.811996,38.0879978 31.604,38.528 C32.1026692,38.5573335 32.8139954,37.9853392 33.738,36.812 C34.6620046,35.6386608 35.124,34.7293366 35.124,34.084 C35.124,33.7026648 34.8746692,33.512 34.376,33.512 C34.1119987,33.512 32.9973432,33.5999991 31.032,33.776 C29.0666568,33.9520009 27.5853383,34.04 26.588,34.04 C24.3586555,34.04 22.9653361,33.3800066 22.408,32.06 C22.3786665,32.0306665 22.364,31.8840013 22.364,31.62 C22.364,30.094659 23.6839868,27.7773489 26.324,24.668 C29.2280145,21.3533168 31.7359894,19.696 33.848,19.696 C35.3440075,19.696 36.854659,20.2679943 38.38,21.412 C39.9933414,22.4386718 40.7413339,23.2306639 40.624,23.788 C40.2719982,25.6653427 39.0840101,26.604 37.06,26.604 C36.7373317,26.604 36.3853352,26.5526672 36.004,26.45 C35.6226648,26.3473328 35.2266687,26.0246694 34.816,25.482 C34.4053313,24.9393306 33.9653357,24.668 33.496,24.668 C32.9679974,24.668 32.0220068,25.4086593 30.658,26.89 C29.2939932,28.3713407 28.612,29.4346634 28.612,30.08 C28.612,30.1680004 28.7293322,30.212 28.964,30.212 C29.4040022,30.212 30.8559877,29.9480026 33.32,29.42 C35.7840123,28.8919974 37.7053264,28.628 39.084,28.628 C41.4893454,28.628 42.692,29.4346586 42.692,31.048 Z M36.532,47.24 C36.532,48.4720062 35.6960084,49.3666639 34.024,49.924 C33.5839978,50.0413339 32.799339,49.8873355 31.67,49.462 C30.540661,49.0366645 29.9613335,48.6480018 29.932,48.296 C29.7853326,47.0639938 30.0346634,46.2280022 30.68,45.788 C31.0320018,45.5239987 31.603996,45.392 32.396,45.392 C33.3640048,45.392 34.2586626,45.5239987 35.08,45.788 C35.9013374,46.0520013 36.3486663,46.3233319 36.422,46.602 C36.4953337,46.8806681 36.532,47.0933326 36.532,47.24 Z"/>
    <path stroke="#22BA8E" stroke-linecap="square" stroke-width="2" d="M61,32 L57,32 M32,61 L32,57 M3,32 L7,32 M32,3 L32,7"/>
  </g>
</svg>
