<svg xmlns="http://www.w3.org/2000/svg" width="64" height="64" viewBox="0 0 64 64">
  <g fill="none" fill-rule="evenodd">
    <circle cx="26" cy="38" r="23" fill="#FFAF40"/>
    <circle cx="26" cy="38" r="19" fill="#FFDD95"/>
    <path fill="#ED9111" d="M29.32,25.875 C29.6933352,26.0383342 29.88,26.3299979 29.88,26.75 C29.88,27.3800031 29.5883362,27.8349986 29.005,28.115 C28.6316648,28.3016676 28.10667,28.395 27.43,28.395 C26.8233303,28.395 26.2050031,28.2958343 25.575,28.0975 C24.9449968,27.8991657 24.5950004,27.7183342 24.525,27.555 C24.1283313,26.4349944 24.3266627,25.6300024 25.12,25.14 C25.3066676,25.0233328 25.6683306,24.965 26.205,24.965 C27.6750073,24.965 28.7133303,25.2683303 29.32,25.875 Z M34.255,38.72 C34.255,40.4233418 33.3450091,42.5116543 31.525,44.985 C29.7749913,47.2250112 28.095008,48.345 26.485,48.345 C24.8983254,48.345 23.2883415,47.8550049 21.655,46.875 C20.254993,45.8483282 19.5783331,44.9033377 19.625,44.04 C19.6716669,43.5499975 20.266661,43.305 21.41,43.305 C22.3666715,43.305 23.2533292,43.4683317 24.07,43.795 C24.3500014,44.0283345 24.8049969,44.3199983 25.435,44.67 C25.8316686,44.6933334 26.3974963,44.238338 27.1325,43.305 C27.8675037,42.371662 28.235,41.6483359 28.235,41.135 C28.235,40.8316651 28.0366687,40.68 27.64,40.68 C27.429999,40.68 26.5433412,40.7499993 24.98,40.89 C23.4166588,41.0300007 22.2383373,41.1 21.445,41.1 C19.6716578,41.1 18.5633355,40.5750052 18.12,39.525 C18.0966666,39.5016665 18.085,39.3850011 18.085,39.175 C18.085,37.9616606 19.1349895,36.1183457 21.235,33.645 C23.5450116,31.0083202 25.5399916,29.69 27.22,29.69 C28.410006,29.69 29.6116606,30.1449955 30.825,31.055 C32.1083398,31.8716707 32.7033338,32.5016645 32.61,32.945 C32.3299986,34.4383408 31.3850081,35.185 29.775,35.185 C29.5183321,35.185 29.2383349,35.1441671 28.935,35.0625 C28.6316652,34.9808329 28.3166683,34.7241688 27.99,34.2925 C27.6633317,33.8608312 27.3133352,33.645 26.94,33.645 C26.5199979,33.645 25.7675054,34.2341608 24.6825,35.4125 C23.5974946,36.5908392 23.055,37.4366641 23.055,37.95 C23.055,38.0200004 23.1483324,38.055 23.335,38.055 C23.6850018,38.055 24.8399902,37.8450021 26.8,37.425 C28.7600098,37.0049979 30.2883278,36.795 31.385,36.795 C33.2983429,36.795 34.255,37.4366603 34.255,38.72 Z M29.355,51.6 C29.355,52.5800049 28.6900066,53.2916645 27.36,53.735 C27.0099983,53.8283338 26.3858378,53.705835 25.4875,53.3675 C24.5891622,53.029165 24.1283335,52.7200014 24.105,52.44 C23.9883327,51.4599951 24.1866641,50.7950017 24.7,50.445 C24.9800014,50.2349989 25.4349969,50.13 26.065,50.13 C26.8350039,50.13 27.5466634,50.2349989 28.2,50.445 C28.8533366,50.655001 29.2091664,50.8708322 29.2675,51.0925 C29.3258336,51.3141678 29.355,51.4833328 29.355,51.6 Z"/>
    <path stroke="#979797" stroke-linecap="round" stroke-width="2" d="M59,11 C59,6.581722 55.418278,3 51,3 C46.581722,3 43,6.581722 43,11"/>
    <rect width="22" height="21" x="40" y="11" fill="#0A3586"/>
    <circle cx="51" cy="18" r="3" fill="#D8D8D8"/>
    <rect width="2" height="7" x="50" y="20" fill="#D8D8D8"/>
  </g>
</svg>
