<svg xmlns="http://www.w3.org/2000/svg" width="64" height="64" viewBox="0 0 64 64">
  <g fill="none" fill-rule="evenodd">
    <path fill="#4796E7" d="M19.1904762,37 C13.0101468,37 8,31.8832543 8,25.5714286 C8,19.2596029 13.0101468,14.1428571 19.1904762,14.1428571 C20.8098609,14.1428571 22.3489058,14.4941511 23.7385326,15.1261908 C24.3714992,9.42764354 29.1080275,5 34.8571429,5 C41.0374722,5 46.047619,10.1167457 46.047619,16.4285714 C46.047619,17.2123456 45.9703648,17.9776921 45.8232088,18.7171021 C45.8977895,18.7152282 45.9725965,18.7142857 46.047619,18.7142857 C50.9918825,18.7142857 55,22.8076823 55,27.8571429 C55,32.9066034 50.9918825,37 46.047619,37 L19.1904762,37 Z"/>
    <path fill="#FFDD95" d="M35.336,17.05 C35.528001,17.1340004 35.624,17.2839989 35.624,17.5 C35.624,17.8240016 35.4740015,18.0579993 35.174,18.202 C34.981999,18.2980005 34.7120017,18.346 34.364,18.346 C34.0519984,18.346 33.7340016,18.2950005 33.41,18.193 C33.0859984,18.0909995 32.9060002,17.9980004 32.87,17.914 C32.665999,17.3379971 32.767998,16.9240013 33.176,16.672 C33.2720005,16.6119997 33.4579986,16.582 33.734,16.582 C34.4900038,16.582 35.0239984,16.7379984 35.336,17.05 Z M37.874,23.656 C37.874,24.5320044 37.4060047,25.6059936 36.47,26.878 C35.5699955,28.0300058 34.7060041,28.606 33.878,28.606 C33.0619959,28.606 32.2340042,28.3540025 31.394,27.85 C30.6739964,27.3219974 30.3259999,26.8360022 30.35,26.392 C30.3740001,26.1399987 30.6799971,26.014 31.268,26.014 C31.7600025,26.014 32.2159979,26.0979992 32.636,26.266 C32.7800007,26.3860006 33.0139984,26.5359991 33.338,26.716 C33.542001,26.7280001 33.8329981,26.4940024 34.211,26.014 C34.5890019,25.5339976 34.778,25.1620013 34.778,24.898 C34.778,24.7419992 34.676001,24.664 34.472,24.664 C34.3639995,24.664 33.908004,24.6999996 33.104,24.772 C32.299996,24.8440004 31.694002,24.88 31.286,24.88 C30.3739954,24.88 29.8040011,24.6100027 29.576,24.07 C29.5639999,24.0579999 29.558,23.9980005 29.558,23.89 C29.558,23.2659969 30.0979946,22.3180064 31.178,21.046 C32.3660059,19.6899932 33.3919957,19.012 34.256,19.012 C34.8680031,19.012 35.4859969,19.2459977 36.11,19.714 C36.7700033,20.1340021 37.0760002,20.4579989 37.028,20.686 C36.8839993,21.4540038 36.3980041,21.838 35.57,21.838 C35.4379993,21.838 35.2940008,21.8170002 35.138,21.775 C34.9819992,21.7329998 34.8200008,21.6010011 34.652,21.379 C34.4839992,21.1569989 34.304001,21.046 34.112,21.046 C33.8959989,21.046 33.5090028,21.348997 32.951,21.955 C32.3929972,22.561003 32.114,22.9959987 32.114,23.26 C32.114,23.2960002 32.1619995,23.314 32.258,23.314 C32.4380009,23.314 33.031995,23.2060011 34.04,22.99 C35.048005,22.7739989 35.8339972,22.666 36.398,22.666 C37.3820049,22.666 37.874,22.9959967 37.874,23.656 Z M35.354,30.28 C35.354,30.7840025 35.0120034,31.1499989 34.328,31.378 C34.1479991,31.4260002 33.8270023,31.3630009 33.365,31.189 C32.9029977,31.0149991 32.6660001,30.8560007 32.654,30.712 C32.5939997,30.2079975 32.6959987,29.8660009 32.96,29.686 C33.1040007,29.5779995 33.3379984,29.524 33.662,29.524 C34.058002,29.524 34.4239983,29.5779995 34.76,29.686 C35.0960017,29.7940005 35.2789998,29.9049994 35.309,30.019 C35.3390001,30.1330006 35.354,30.2199997 35.354,30.28 Z"/>
    <path fill="#E43535" d="M45,46 L45,55 L41,55 L41,46 L38,46 L43,40 L48,46 L45,46 Z M33,46 L33,55 L29,55 L29,46 L26,46 L31,40 L36,46 L33,46 Z M21,46 L21,55 L17,55 L17,46 L14,46 L19,40 L24,46 L21,46 Z" transform="rotate(180 31 47.5)"/>
  </g>
</svg>
