<svg xmlns="http://www.w3.org/2000/svg" width="64" height="64" viewBox="0 0 64 64">
  <g fill="none" fill-rule="evenodd">
    <rect width="19" height="4" x="45" y="49" fill="#FFAF40" rx="1" transform="matrix(-1 0 0 1 109 0)"/>
    <rect width="19" height="4" x="45" y="44" fill="#FFDD95" rx="1" transform="matrix(-1 0 0 1 109 0)"/>
    <rect width="19" height="4" x="45" y="39" fill="#FFAF40" rx="1" transform="matrix(-1 0 0 1 109 0)"/>
    <circle cx="54.5" cy="25.5" r="9.5" fill="#FFAF40"/>
    <path fill="#FFDD95" d="M55.984,18.825 C56.1653342,18.9043337 56.256,19.045999 56.256,19.25 C56.256,19.5560015 56.1143347,19.7769993 55.831,19.913 C55.6496658,20.0036671 55.3946683,20.049 55.066,20.049 C54.7713319,20.049 54.4710015,20.0008338 54.165,19.9045 C53.8589985,19.8081662 53.6890002,19.7203337 53.655,19.641 C53.4623324,19.0969973 53.5586647,18.7060012 53.944,18.468 C54.0346671,18.4113331 54.210332,18.383 54.471,18.383 C55.1850036,18.383 55.6893319,18.5303319 55.984,18.825 Z M58.381,25.064 C58.381,25.8913375 57.9390044,26.9056607 57.055,28.107 C56.2049958,29.1950054 55.3890039,29.739 54.607,29.739 C53.8363295,29.739 53.0543373,29.5010024 52.261,29.025 C51.5809966,28.5263308 51.2523332,28.0673354 51.275,27.648 C51.2976668,27.4099988 51.5866639,27.291 52.142,27.291 C52.606669,27.291 53.0373313,27.3703325 53.434,27.529 C53.5700007,27.6423339 53.7909985,27.7839992 54.097,27.954 C54.2896676,27.9653334 54.5644982,27.7443356 54.9215,27.291 C55.2785018,26.8376644 55.457,26.4863346 55.457,26.237 C55.457,26.0896659 55.3606676,26.016 55.168,26.016 C55.0659995,26.016 54.6353371,26.0499997 53.876,26.118 C53.1166629,26.1860003 52.5443353,26.22 52.159,26.22 C51.2976624,26.22 50.7593344,25.9650025 50.544,25.455 C50.5326666,25.4436666 50.527,25.3870005 50.527,25.285 C50.527,24.6956637 51.0369949,23.8003393 52.057,22.599 C53.1790056,21.3183269 54.1479959,20.678 54.964,20.678 C55.5420029,20.678 56.1256637,20.8989978 56.715,21.341 C57.3383365,21.7376687 57.6273336,22.0436656 57.582,22.259 C57.4459993,22.984337 56.9870039,23.347 56.205,23.347 C56.0803327,23.347 55.9443341,23.3271669 55.797,23.2875 C55.6496659,23.2478331 55.4966675,23.1231677 55.338,22.9135 C55.1793325,22.7038323 55.0093342,22.599 54.828,22.599 C54.623999,22.599 54.2585026,22.8851638 53.7315,23.4575 C53.2044974,24.0298362 52.941,24.4406654 52.941,24.69 C52.941,24.7240002 52.9863329,24.741 53.077,24.741 C53.2470008,24.741 53.8079952,24.639001 54.76,24.435 C55.7120048,24.230999 56.4543307,24.129 56.987,24.129 C57.916338,24.129 58.381,24.4406635 58.381,25.064 Z M56.001,31.32 C56.001,31.7960024 55.6780032,32.1416656 55.032,32.357 C54.8619991,32.4023336 54.5588355,32.3428342 54.1225,32.1785 C53.6861645,32.0141658 53.4623334,31.8640007 53.451,31.728 C53.3943331,31.2519976 53.4906654,30.9290009 53.74,30.759 C53.8760007,30.6569995 54.0969985,30.606 54.403,30.606 C54.7770019,30.606 55.1226651,30.6569995 55.44,30.759 C55.7573349,30.8610005 55.9301665,30.9658328 55.9585,31.0735 C55.9868335,31.1811672 56.001,31.2633331 56.001,31.32 Z"/>
    <path fill="#5B68C0" d="M2,29.0018785 C2,26.791702 3.78808228,25 6.00590344,25 L38.9940966,25 C41.2064959,25 43,26.7921947 43,29.0018785 L43,49.9981215 C43,52.208298 41.2119177,54 38.9940966,54 L6.00590344,54 C3.79350406,54 2,52.2078053 2,49.9981215 L2,29.0018785 Z"/>
    <circle cx="11" cy="34" r="5" stroke="#F5413E" stroke-linecap="round" stroke-width="2"/>
    <circle cx="15" cy="34" r="5" stroke="#FFAF40" stroke-linecap="round" stroke-width="2"/>
    <rect width="18" height="3" x="5" y="47" fill="#D8D8D8"/>
  </g>
</svg>
