<svg xmlns="http://www.w3.org/2000/svg" width="64" height="64" viewBox="0 0 64 64">
  <g fill="none" fill-rule="evenodd">
    <polygon fill="#ECECEC" points="11 3 40.105 3 52 14.753 52 55 11 55"/>
    <circle cx="51" cy="54" r="10" fill="#22BA8E"/>
    <rect width="12" height="12" x="15" y="24" fill="#22BA8E"/>
    <polygon fill="#D8D8D8" points="40 3 52 3 52 15" transform="rotate(-180 46 9)"/>
    <path stroke="#979797" stroke-linecap="square" stroke-width="2" d="M30 25L49.0262976 25M16 20L49.0262976 20M16 40L48.3447059 40M30 30L49.0262976 30M16 45L37 45M30 35L49.0262976 35"/>
    <path fill="#FFDD95" d="M52.336,47.05 C52.528001,47.1340004 52.624,47.2839989 52.624,47.5 C52.624,47.8240016 52.4740015,48.0579993 52.174,48.202 C51.981999,48.2980005 51.7120017,48.346 51.364,48.346 C51.0519984,48.346 50.7340016,48.2950005 50.41,48.193 C50.0859984,48.0909995 49.9060002,47.9980004 49.87,47.914 C49.665999,47.3379971 49.767998,46.9240013 50.176,46.672 C50.2720005,46.6119997 50.4579986,46.582 50.734,46.582 C51.4900038,46.582 52.0239984,46.7379984 52.336,47.05 Z M54.874,53.656 C54.874,54.5320044 54.4060047,55.6059936 53.47,56.878 C52.5699955,58.0300058 51.7060041,58.606 50.878,58.606 C50.0619959,58.606 49.2340042,58.3540025 48.394,57.85 C47.6739964,57.3219974 47.3259999,56.8360022 47.35,56.392 C47.3740001,56.1399987 47.6799971,56.014 48.268,56.014 C48.7600025,56.014 49.2159979,56.0979992 49.636,56.266 C49.7800007,56.3860006 50.0139984,56.5359991 50.338,56.716 C50.542001,56.7280001 50.8329981,56.4940024 51.211,56.014 C51.5890019,55.5339976 51.778,55.1620013 51.778,54.898 C51.778,54.7419992 51.676001,54.664 51.472,54.664 C51.3639995,54.664 50.908004,54.6999996 50.104,54.772 C49.299996,54.8440004 48.694002,54.88 48.286,54.88 C47.3739954,54.88 46.8040011,54.6100027 46.576,54.07 C46.5639999,54.0579999 46.558,53.9980005 46.558,53.89 C46.558,53.2659969 47.0979946,52.3180064 48.178,51.046 C49.3660059,49.6899932 50.3919957,49.012 51.256,49.012 C51.8680031,49.012 52.4859969,49.2459977 53.11,49.714 C53.7700033,50.1340021 54.0760002,50.4579989 54.028,50.686 C53.8839993,51.4540038 53.3980041,51.838 52.57,51.838 C52.4379993,51.838 52.2940008,51.8170002 52.138,51.775 C51.9819992,51.7329998 51.8200008,51.6010011 51.652,51.379 C51.4839992,51.1569989 51.304001,51.046 51.112,51.046 C50.8959989,51.046 50.5090028,51.348997 49.951,51.955 C49.3929972,52.561003 49.114,52.9959987 49.114,53.26 C49.114,53.2960002 49.1619995,53.314 49.258,53.314 C49.4380009,53.314 50.031995,53.2060011 51.04,52.99 C52.048005,52.7739989 52.8339972,52.666 53.398,52.666 C54.3820049,52.666 54.874,52.9959967 54.874,53.656 Z M52.354,60.28 C52.354,60.7840025 52.0120034,61.1499989 51.328,61.378 C51.1479991,61.4260002 50.8270023,61.3630009 50.365,61.189 C49.9029977,61.0149991 49.6660001,60.8560007 49.654,60.712 C49.5939997,60.2079975 49.6959987,59.8660009 49.96,59.686 C50.1040007,59.5779995 50.3379984,59.524 50.662,59.524 C51.058002,59.524 51.4239983,59.5779995 51.76,59.686 C52.0960017,59.7940005 52.2789998,59.9049994 52.309,60.019 C52.3390001,60.1330006 52.354,60.2199997 52.354,60.28 Z"/>
  </g>
</svg>
