<svg xmlns="http://www.w3.org/2000/svg" width="64" height="64" viewBox="0 0 64 64">
  <g fill="none" fill-rule="evenodd">
    <circle cx="32" cy="32" r="11" fill="#80D25B"/>
    <path fill="#5B68C0" d="M33.336,25.05 C33.528001,25.1340004 33.624,25.2839989 33.624,25.5 C33.624,25.8240016 33.4740015,26.0579993 33.174,26.202 C32.981999,26.2980005 32.7120017,26.346 32.364,26.346 C32.0519984,26.346 31.7340016,26.2950005 31.41,26.193 C31.0859984,26.0909995 30.9060002,25.9980004 30.87,25.914 C30.665999,25.3379971 30.767998,24.9240013 31.176,24.672 C31.2720005,24.6119997 31.4579986,24.582 31.734,24.582 C32.4900038,24.582 33.0239984,24.7379984 33.336,25.05 Z M35.874,31.656 C35.874,32.5320044 35.4060047,33.6059936 34.47,34.878 C33.5699955,36.0300058 32.7060041,36.606 31.878,36.606 C31.0619959,36.606 30.2340042,36.3540025 29.394,35.85 C28.6739964,35.3219974 28.3259999,34.8360022 28.35,34.392 C28.3740001,34.1399987 28.6799971,34.014 29.268,34.014 C29.7600025,34.014 30.2159979,34.0979992 30.636,34.266 C30.7800007,34.3860006 31.0139984,34.5359991 31.338,34.716 C31.542001,34.7280001 31.8329981,34.4940024 32.211,34.014 C32.5890019,33.5339976 32.778,33.1620013 32.778,32.898 C32.778,32.7419992 32.676001,32.664 32.472,32.664 C32.3639995,32.664 31.908004,32.6999996 31.104,32.772 C30.299996,32.8440004 29.694002,32.88 29.286,32.88 C28.3739954,32.88 27.8040011,32.6100027 27.576,32.07 C27.5639999,32.0579999 27.558,31.9980005 27.558,31.89 C27.558,31.2659969 28.0979946,30.3180064 29.178,29.046 C30.3660059,27.6899932 31.3919957,27.012 32.256,27.012 C32.8680031,27.012 33.4859969,27.2459977 34.11,27.714 C34.7700033,28.1340021 35.0760002,28.4579989 35.028,28.686 C34.8839993,29.4540038 34.3980041,29.838 33.57,29.838 C33.4379993,29.838 33.2940008,29.8170002 33.138,29.775 C32.9819992,29.7329998 32.8200008,29.6010011 32.652,29.379 C32.4839992,29.1569989 32.304001,29.046 32.112,29.046 C31.8959989,29.046 31.5090028,29.348997 30.951,29.955 C30.3929972,30.561003 30.114,30.9959987 30.114,31.26 C30.114,31.2960002 30.1619995,31.314 30.258,31.314 C30.4380009,31.314 31.031995,31.2060011 32.04,30.99 C33.048005,30.7739989 33.8339972,30.666 34.398,30.666 C35.3820049,30.666 35.874,30.9959967 35.874,31.656 Z M33.354,38.28 C33.354,38.7840025 33.0120034,39.1499989 32.328,39.378 C32.1479991,39.4260002 31.8270023,39.3630009 31.365,39.189 C30.9029977,39.0149991 30.6660001,38.8560007 30.654,38.712 C30.5939997,38.2079975 30.6959987,37.8660009 30.96,37.686 C31.1040007,37.5779995 31.3379984,37.524 31.662,37.524 C32.058002,37.524 32.4239983,37.5779995 32.76,37.686 C33.0960017,37.7940005 33.2789998,37.9049994 33.309,38.019 C33.3390001,38.1330006 33.354,38.2199997 33.354,38.28 Z"/>
    <g transform="translate(25 2)">
      <circle cx="7" cy="7" r="7" fill="#D8D8D8"/>
      <path stroke="#979797" stroke-linecap="square" stroke-width="2" d="M7,11 L7,5"/>
      <polyline stroke="#979797" stroke-linecap="round" stroke-width="2" points="3.124 6.748 7.13 3.072 10.906 6.992"/>
    </g>
    <g transform="rotate(-180 19.5 31)">
      <circle cx="7" cy="7" r="7" fill="#E43535"/>
      <path stroke="#FFF" stroke-linecap="square" stroke-width="2" d="M7,11 L7,5"/>
      <polyline stroke="#FFF" stroke-linecap="round" stroke-width="2" points="3.124 6.748 7.13 3.072 10.906 6.992"/>
    </g>
    <g transform="rotate(-90 20.5 18.5)">
      <circle cx="7" cy="7" r="7" fill="#D8D8D8"/>
      <path stroke="#979797" stroke-linecap="square" stroke-width="2" d="M7,11 L7,5"/>
      <polyline stroke="#979797" stroke-linecap="round" stroke-width="2" points="3.124 6.748 7.13 3.072 10.906 6.992"/>
    </g>
    <g transform="rotate(90 19 44)">
      <circle cx="7" cy="7" r="7" fill="#D8D8D8"/>
      <path stroke="#979797" stroke-linecap="square" stroke-width="2" d="M7,11 L7,5"/>
      <polyline stroke="#979797" stroke-linecap="round" stroke-width="2" points="3.124 6.748 7.13 3.072 10.906 6.992"/>
    </g>
  </g>
</svg>
