<svg xmlns="http://www.w3.org/2000/svg" width="64" height="64" viewBox="0 0 64 64">
  <g fill="none" fill-rule="evenodd">
    <rect width="6" height="11" x="26" y="46" fill="#D8D8D8"/>
    <rect width="14" height="1" x="22" y="58" stroke="#979797" stroke-width="2"/>
    <rect width="54" height="39" x="2" y="9" fill="#868686" rx="3"/>
    <rect width="48" height="33" x="5" y="12" fill="#D650C7"/>
    <path fill="#FFF" d="M15.668,30.192 C15.6893334,30.3200006 15.6786669,30.4693325 15.636,30.64 C15.5506662,30.906668 15.5026667,31.0559998 15.492,31.088 C15.4813333,31.2586675 15.4680001,31.4373324 15.452,31.624 C15.4359999,31.8106676 15.3773338,31.9573328 15.276,32.064 C15.1746662,32.1706672 14.9746682,32.224 14.676,32.224 C14.3773318,32.224 14.1160011,32.1653339 13.892,32.048 C13.625332,31.9199994 13.4866667,31.7440011 13.476,31.52 C13.476,31.4239995 13.505333,31.3066674 13.564,31.168 C13.622667,31.0293326 13.6599999,30.922667 13.676,30.848 C13.6920001,30.773333 13.6946667,30.5706683 13.684,30.24 C13.684,29.9946654 13.7453327,29.8133339 13.868,29.696 C13.9906673,29.5786661 14.185332,29.52 14.452,29.52 C14.7293347,29.52 14.9906654,29.5813327 15.236,29.704 C15.4813346,29.8266673 15.6253331,29.9893323 15.668,30.192 Z M22.516,29.344 C22.5053333,29.5786678 22.404001,29.8186654 22.212,30.064 C21.9133318,30.4160018 21.7213338,30.6826658 21.636,30.864 C20.9639966,31.8880051 20.2706702,32.4 19.556,32.4 C18.7133291,32.4 18.0573357,31.9733376 17.588,31.12 C17.1719979,30.3413294 16.964,29.3600059 16.964,28.176 C16.964,26.8213266 17.2199974,25.6426717 17.732,24.64 C18.2973362,23.5306611 19.0279955,22.976 19.924,22.976 C20.6280035,22.976 21.1986645,23.3653294 21.636,24.144 C21.9986685,24.8053366 22.18,25.5253294 22.18,26.304 C22.18,26.5173344 22.1640002,26.7039992 22.132,26.864 C22.057333,27.2266685 21.753336,27.408 21.22,27.408 C20.8039979,27.408 20.4840011,27.2906678 20.26,27.056 C20.1533328,26.9386661 20.1,26.6666688 20.1,26.24 C20.1,26.1333328 20.1053333,25.9786677 20.116,25.776 L20.116,25.312 C20.116,24.8319976 20.0306675,24.592 19.86,24.592 C19.6786658,24.592 19.4866677,25.1173281 19.284,26.168 C19.0813323,27.2186719 18.98,28.2026621 18.98,29.12 C18.98,30.186672 19.1399984,30.72 19.46,30.72 C19.8760021,30.72 20.1853323,30.3840034 20.388,29.712 C20.4733338,29.6159995 20.5213333,29.4240014 20.532,29.136 C20.532,28.8799987 20.5959994,28.7120004 20.724,28.632 C20.8520006,28.5519996 21.0386654,28.512 21.284,28.512 C21.6040016,28.512 21.8813322,28.5813326 22.116,28.72 C22.3933347,28.8800008 22.5266667,29.0879987 22.516,29.344 Z M28.724,23.744 C29.4386702,24.469337 29.796,25.6906581 29.796,27.408 C29.796,28.74134 29.5453358,29.8773286 29.044,30.816 C28.4786638,31.8720053 27.700005,32.4 26.708,32.4 C25.7266618,32.4 24.969336,31.9253381 24.436,30.976 C23.9666643,30.1439958 23.732,29.0880064 23.732,27.808 C23.732,26.6773277 23.9133315,25.6640045 24.276,24.768 C24.6600019,23.8079952 25.1506637,23.2426675 25.748,23.072 C26.0573349,22.9866662 26.3773317,22.944 26.708,22.944 C27.5293374,22.944 28.2013307,23.210664 28.724,23.744 Z M26.9,24.512 C26.5479982,24.4799998 26.2440013,24.8106632 25.988,25.504 C25.7639989,26.1333365 25.652,26.7946632 25.652,27.488 C25.652,28.4906717 25.6946662,29.1999979 25.78,29.616 C25.9293341,30.3626704 26.2386643,30.773333 26.708,30.848 C27.0066682,30.8906669 27.2839987,30.4800043 27.54,29.616 C27.7853346,28.7839958 27.908,27.8933381 27.908,26.944 C27.908,25.3866589 27.5720034,24.5760003 26.9,24.512 Z M34.9959254,26.9248843 C34.9851846,26.4789345 34.9532098,26.250642 34.9,26.24 C34.6546654,26.6453354 34.4413342,27.0346648 34.26,27.408 C33.8226645,28.3040045 33.5720003,29.0506637 33.508,29.648 C33.4546664,29.7760006 33.4493331,30.0266648 33.492,30.4 C33.5346669,30.7200016 33.4866674,30.9386661 33.348,31.056 C33.2093326,31.1733339 33.0226678,31.232 32.788,31.232 C32.5319987,31.232 32.2733346,31.1600007 32.012,31.016 C31.7506654,30.8719993 31.5613339,30.7093342 31.444,30.528 C31.2733325,30.261332 31.1773334,29.4826731 31.156,28.192 L31.156,24.416 C31.1453333,24.3093328 31.102667,24.160001 31.028,23.968 C30.953333,23.775999 30.916,23.6320005 30.916,23.536 C30.916,23.4399995 30.9426664,23.3493338 30.996,23.264 C31.1346674,23.0506656 31.4866638,22.944 32.052,22.944 C32.7453368,22.944 33.1613326,23.114665 33.3,23.456 C33.3320002,23.530667 33.348,23.605333 33.348,23.68 C33.348,23.7760005 33.2973338,23.9146658 33.196,24.096 C33.0946662,24.2773342 33.044,24.4266661 33.044,24.544 L33.044,26.368 C33.3640016,25.6959966 33.7853307,24.8426718 34.308,23.808 C34.3720003,23.6693326 34.433333,23.5306674 34.492,23.392 C34.550667,23.2533326 34.6386661,23.1306672 34.756,23.024 C34.8733339,22.9173328 35.0706653,22.864 35.348,22.864 C35.7746688,22.864 36.2039978,22.959999 36.636,23.152 C37.0680022,23.344001 37.2893333,23.573332 37.3,23.84 C37.3106667,24.1173347 37.2706671,24.3279993 37.18,24.472 C37.0893329,24.6160007 37.044,24.7359995 37.044,24.832 L37.012,28.288 C37.1826675,27.9039981 37.4919978,26.9973405 37.94,25.568 C38.2920018,24.4799946 38.5586658,23.8720006 38.74,23.744 C38.9746678,23.5733325 39.321331,23.488 39.78,23.488 C40.6333376,23.488 41.0759998,23.7333309 41.108,24.224 C41.0973333,25.5253398 41.0973333,27.7013181 41.108,30.752 C41.108,30.8693339 41.2146656,31.0106658 41.428,31.176 C41.6413344,31.3413342 41.748,31.5146658 41.748,31.696 C41.748,31.7813338 41.7266669,31.8826661 41.684,32 C41.5453326,32.3946686 41.2306691,32.592 40.74,32.592 C40.1213302,32.592 39.6626682,32.3786688 39.364,31.952 C39.2039992,31.7173322 39.124,30.9120069 39.124,29.536 L39.124,28.688 C39.1346667,28.3146648 39.14,28.0533341 39.14,27.904 C39.14,27.1573296 39.102667,26.7733334 39.028,26.752 C38.8679992,26.6879997 38.3240046,28.1813181 37.396,31.232 C37.396,31.2426667 37.3746669,31.4986642 37.332,32 C37.3106666,32.3093349 37.204001,32.5173328 37.012,32.624 C36.8733326,32.698667 36.7186675,32.736 36.548,32.736 C36.2386651,32.736 35.9400014,32.6346677 35.652,32.432 C35.3639986,32.2293323 35.182667,31.9893347 35.108,31.712 C35.0013328,31.3173314 34.9533333,30.5386725 34.964,29.376 C34.9843033,27.7618868 34.994945,26.9448553 34.9959254,26.9248843 L34.9959254,26.9248843 Z"/>
    <circle cx="54" cy="11" r="9" fill="#FFAF40"/>
    <polyline stroke="#325AA6" stroke-linecap="round" stroke-linejoin="round" stroke-width="2" points="50.056 12.948 53.597 16.262 57.897 7.573"/>
  </g>
</svg>
