<svg xmlns="http://www.w3.org/2000/svg" width="64" height="64" viewBox="0 0 64 64">
  <g fill="none" fill-rule="evenodd">
    <rect width="46" height="20" x="6" y="16" fill="#D650C7"/>
    <path stroke="#FF78C7" stroke-width="2" d="M6,21 L6,21 C8.76142375,21 11,18.7614237 11,16"/>
    <path stroke="#FF78C7" stroke-width="2" d="M6,36 L6,36 C8.76142375,36 11,33.7614237 11,31" transform="matrix(1 0 0 -1 0 67)"/>
    <path stroke="#FF78C7" stroke-width="2" d="M47,36 L47,36 C49.7614237,36 52,33.7614237 52,31" transform="rotate(180 49.5 33.5)"/>
    <circle cx="29" cy="26" r="6" fill="#FF78C7"/>
    <rect width="46" height="20" x="6" y="39" fill="#D650C7"/>
    <path stroke="#FF78C7" stroke-width="2" d="M6,44 L6,44 C8.76142375,44 11,41.7614237 11,39"/>
    <path stroke="#FF78C7" stroke-width="2" d="M6,59 L6,59 C8.76142375,59 11,56.7614237 11,54" transform="matrix(1 0 0 -1 0 113)"/>
    <path stroke="#FF78C7" stroke-width="2" d="M47,44 L47,44 C49.7614237,44 52,41.7614237 52,39" transform="matrix(-1 0 0 1 99 0)"/>
    <path stroke="#FF78C7" stroke-width="2" d="M47,59 L47,59 C49.7614237,59 52,56.7614237 52,54" transform="rotate(180 49.5 56.5)"/>
    <circle cx="29" cy="49" r="6" fill="#FF78C7"/>
    <circle cx="52" cy="12" r="11" fill="#FFAF40"/>
    <path fill="#FFDD95" d="M54.5134088,15.6740155 C54.5886357,15.3572707 54.7454979,15.140601 54.984,15.024 C55.2240012,14.9066661 55.4666654,14.885333 55.712,14.96 C56.2880029,15.1626677 56.4960008,15.5733302 56.336,16.192 C55.8986645,17.258672 55.1626718,17.9039989 54.128,18.128 C53.9146656,18.128 53.6853346,18.1120002 53.44,18.08 C53.1946654,18.0479998 52.938668,17.994667 52.672,17.92 C52.5226659,17.8879998 52.3733341,17.8586668 52.224,17.832 C52.0746659,17.8053332 51.9306674,17.792 51.792,17.792 C51.599999,17.792 51.4240008,17.8186664 51.264,17.872 L50.64,18.064 C50.1919978,18.1280003 49.7706686,18.1493334 49.376,18.128 C48.9279978,17.9893326 48.6480006,17.8133344 48.536,17.6 C48.4239994,17.3866656 48.3999997,17.1520013 48.464,16.896 C48.4853334,16.7999995 48.5226664,16.7173337 48.576,16.648 C48.6293336,16.5786663 48.6879997,16.5013338 48.752,16.416 C48.8053336,16.3306662 48.8666663,16.2480004 48.936,16.168 C49.0053337,16.0879996 49.0613331,16.0000005 49.104,15.904 L49.088,15.936 C49.2053339,15.3386637 49.3199994,14.7760026 49.432,14.248 C49.5440006,13.7199974 49.6533328,13.1626696 49.76,12.576 C49.6426661,12.5866667 49.5333338,12.5893334 49.432,12.584 C49.3306662,12.5786666 49.2213339,12.576 49.104,12.576 L48.88,12.576 C48.687999,12.576 48.5360006,12.4880009 48.424,12.312 C48.3119994,12.1359991 48.256,11.9573342 48.256,11.776 C48.256,11.6373326 48.2719998,11.4853342 48.304,11.32 C48.3360002,11.1546658 48.3946662,11.0133339 48.48,10.896 C48.5440003,10.8533331 48.6506659,10.8106669 48.8,10.768 C48.9493341,10.7253331 49.0986659,10.6933334 49.248,10.672 C49.3973341,10.6506666 49.5306661,10.6373334 49.648,10.632 C49.7653339,10.6266666 49.824,10.6293333 49.824,10.64 C49.824,10.6293333 49.8559997,10.6213334 49.92,10.616 C49.9840003,10.6106666 50.0693328,10.608 50.176,10.608 L51.136,5.744 C51.2320005,5.38133152 51.4613315,5.11466752 51.824,4.944 C52.1866685,4.77333248 52.6613304,4.7146664 53.248,4.768 L53.328,4.768 L53.984,4.832 C54.9973384,5.08800128 55.5466662,5.75466128 55.632,6.832 C55.6533334,6.97066736 55.6426669,7.09866608 55.6,7.216 C55.525333,7.44000112 55.3813344,7.6053328 55.168,7.712 C54.9546656,7.8186672 54.7306678,7.8453336 54.496,7.792 C54.2933323,7.72799968 54.1333339,7.6160008 54.016,7.456 C53.8986661,7.2959992 53.84,7.09333456 53.84,6.848 C53.8720002,6.6879992 53.7386682,6.57066704 53.44,6.496 C53.3226661,6.50666672 53.234667,6.51999992 53.176,6.536 C53.117333,6.55200008 53.0613336,6.59199968 53.008,6.656 C52.9653331,6.78400064 52.877334,7.1679968 52.744,7.808 C52.610666,8.4480032 52.4320011,9.37599392 52.208,10.592 C52.400001,10.5706666 52.5706659,10.56 52.72,10.56 L53.184,10.56 C53.6320022,10.5493333 54.026665,10.581333 54.368,10.656 C54.6026678,10.730667 54.7786661,10.8959987 54.896,11.152 C55.0133339,11.4080013 55.0506669,11.6746653 55.008,11.952 C54.8799994,12.5813365 54.5333362,12.7946677 53.968,12.592 C53.9253331,12.5706666 53.8826669,12.5573334 53.84,12.552 C53.7973331,12.5466666 53.7493336,12.5386667 53.696,12.528 C53.4399987,12.453333 53.1093354,12.4319998 52.704,12.464 L51.808,12.544 L51.152,15.744 C51.3226675,15.7226666 51.4826659,15.7066667 51.632,15.696 C51.7813341,15.6853333 51.9359992,15.68 52.096,15.68 C52.4160016,15.68 52.7173319,15.7119997 53,15.776 C53.2826681,15.8400003 53.5626653,15.9466659 53.84,16.096 L53.824,16.096 C54.1043367,16.1271485 54.3341375,15.9864884 54.5134088,15.6740155 L54.5134088,15.6740155 Z"/>
  </g>
</svg>
