<svg xmlns="http://www.w3.org/2000/svg" width="64" height="64" viewBox="0 0 64 64">
  <g fill="none" fill-rule="evenodd">
    <rect width="46" height="20" x="6" y="16" fill="#22BA8E"/>
    <path stroke="#80D25B" stroke-width="2" d="M6,21 L6,21 C8.76142375,21 11,18.7614237 11,16"/>
    <path stroke="#80D25B" stroke-width="2" d="M6,36 L6,36 C8.76142375,36 11,33.7614237 11,31" transform="matrix(1 0 0 -1 0 67)"/>
    <path stroke="#80D25B" stroke-width="2" d="M47,21 L47,21 C49.7614237,21 52,18.7614237 52,16" transform="matrix(-1 0 0 1 99 0)"/>
    <path stroke="#80D25B" stroke-width="2" d="M47,36 L47,36 C49.7614237,36 52,33.7614237 52,31" transform="rotate(180 49.5 33.5)"/>
    <circle cx="29" cy="26" r="6" fill="#80D25B"/>
    <rect width="46" height="20" x="6" y="39" fill="#22BA8E"/>
    <path stroke="#80D25B" stroke-width="2" d="M6,44 L6,44 C8.76142375,44 11,41.7614237 11,39"/>
    <path stroke="#80D25B" stroke-width="2" d="M6,59 L6,59 C8.76142375,59 11,56.7614237 11,54" transform="matrix(1 0 0 -1 0 113)"/>
    <path stroke="#80D25B" stroke-width="2" d="M47,44 L47,44 C49.7614237,44 52,41.7614237 52,39" transform="matrix(-1 0 0 1 99 0)"/>
    <path stroke="#80D25B" stroke-width="2" d="M47,59 L47,59 C49.7614237,59 52,56.7614237 52,54" transform="rotate(180 49.5 56.5)"/>
    <circle cx="29" cy="49" r="6" fill="#80D25B"/>
    <circle cx="52" cy="12" r="11" fill="#FFAF40"/>
    <path fill="#FFDD95" d="M53.336,5.05 C53.528001,5.13400042 53.624,5.28399892 53.624,5.5 C53.624,5.82400162 53.4740015,6.05799928 53.174,6.202 C52.981999,6.29800048 52.7120017,6.346 52.364,6.346 C52.0519984,6.346 51.7340016,6.29500051 51.41,6.193 C51.0859984,6.09099949 50.9060002,5.99800042 50.87,5.914 C50.665999,5.33799712 50.767998,4.92400126 51.176,4.672 C51.2720005,4.6119997 51.4579986,4.582 51.734,4.582 C52.4900038,4.582 53.0239984,4.73799844 53.336,5.05 Z M55.874,11.656 C55.874,12.5320044 55.4060047,13.6059936 54.47,14.878 C53.5699955,16.0300058 52.7060041,16.606 51.878,16.606 C51.0619959,16.606 50.2340042,16.3540025 49.394,15.85 C48.6739964,15.3219974 48.3259999,14.8360022 48.35,14.392 C48.3740001,14.1399987 48.6799971,14.014 49.268,14.014 C49.7600025,14.014 50.2159979,14.0979992 50.636,14.266 C50.7800007,14.3860006 51.0139984,14.5359991 51.338,14.716 C51.542001,14.7280001 51.8329981,14.4940024 52.211,14.014 C52.5890019,13.5339976 52.778,13.1620013 52.778,12.898 C52.778,12.7419992 52.676001,12.664 52.472,12.664 C52.3639995,12.664 51.908004,12.6999996 51.104,12.772 C50.299996,12.8440004 49.694002,12.88 49.286,12.88 C48.3739954,12.88 47.8040011,12.6100027 47.576,12.07 C47.5639999,12.0579999 47.558,11.9980005 47.558,11.89 C47.558,11.2659969 48.0979946,10.3180064 49.178,9.046 C50.3660059,7.68999322 51.3919957,7.012 52.256,7.012 C52.8680031,7.012 53.4859969,7.24599766 54.11,7.714 C54.7700033,8.1340021 55.0760002,8.45799886 55.028,8.686 C54.8839993,9.45400384 54.3980041,9.838 53.57,9.838 C53.4379993,9.838 53.2940008,9.81700021 53.138,9.775 C52.9819992,9.73299979 52.8200008,9.60100111 52.652,9.379 C52.4839992,9.15699889 52.304001,9.046 52.112,9.046 C51.8959989,9.046 51.5090028,9.34899697 50.951,9.955 C50.3929972,10.561003 50.114,10.9959987 50.114,11.26 C50.114,11.2960002 50.1619995,11.314 50.258,11.314 C50.4380009,11.314 51.031995,11.2060011 52.04,10.99 C53.048005,10.7739989 53.8339972,10.666 54.398,10.666 C55.3820049,10.666 55.874,10.9959967 55.874,11.656 Z M53.354,18.28 C53.354,18.7840025 53.0120034,19.1499989 52.328,19.378 C52.1479991,19.4260002 51.8270023,19.3630009 51.365,19.189 C50.9029977,19.0149991 50.6660001,18.8560007 50.654,18.712 C50.5939997,18.2079975 50.6959987,17.8660009 50.96,17.686 C51.1040007,17.5779995 51.3379984,17.524 51.662,17.524 C52.058002,17.524 52.4239983,17.5779995 52.76,17.686 C53.0960017,17.7940005 53.2789998,17.9049994 53.309,18.019 C53.3390002,18.1330006 53.354,18.2199997 53.354,18.28 Z"/>
  </g>
</svg>
