<svg xmlns="http://www.w3.org/2000/svg" width="64" height="64" viewBox="0 0 64 64">
  <g fill="none" fill-rule="evenodd">
    <rect width="21" height="55" x="22" y="-12" fill="#5EA7FF" transform="rotate(-90 32.5 15.5)"/>
    <path fill="#E43535" d="M38.5,28.5 L15.5,28.5 L15.5,34.5 L38.5,34.5 L38.5,39.5 L50.5,31.5 L38.5,23.5 L38.5,28.5 Z" transform="rotate(90 33 31.5)"/>
    <polyline stroke="#5B68C0" stroke-width="2" points="16 59 6 59 6 49 6 49"/>
    <polyline stroke="#5B68C0" stroke-width="2" points="16 16 6 16 6 6 6 6" transform="rotate(90 11 11)"/>
    <polyline stroke="#5B68C0" stroke-width="2" points="59 59 49 59 49 49 49 49" transform="rotate(-90 54 54)"/>
    <polyline stroke="#5B68C0" stroke-width="2" points="59 16 49 16 49 6 49 6" transform="rotate(-180 54 11)"/>
    <path stroke="#5B68C0" stroke-dasharray="4" stroke-linecap="square" stroke-width="2" d="M19 6L45.8974047 6M59 19L59 45.8974047M6 19L6 45.8974047M19 59L45.8974047 59"/>
  </g>
</svg>
