<svg xmlns="http://www.w3.org/2000/svg" width="64" height="64" viewBox="0 0 64 64">
  <path fill="#FF78C7" fill-rule="evenodd" d="M23.6053355,33.5552546 C21.6756054,31.4257341 20.5,28.6001557 20.5,25.5 C20.5,25.0718379 20.5224239,24.6489132 20.5661613,24.2323362 C20.8803976,24.3582675 21.2288726,24.4879147 21.6091042,24.6168959 C25.2517625,25.8525488 29.1028682,26.1082693 32.8294626,24.8148151 C32.9269983,25.0299511 33.0221155,25.2463121 33.114772,25.4638941 C30.5640011,26.3844768 28.3120065,27.9247837 26.3611009,29.9627319 C25.2647659,31.1079817 24.3504622,32.3294983 23.6053355,33.5552546 Z M25.9197759,35.5365923 C25.9804227,35.4300661 26.0442912,35.3206975 26.1114021,35.2087484 C26.7593174,34.1279465 27.5635505,33.0449524 28.5281957,32.0372681 C30.1646967,30.3277521 32.0300839,29.0425346 34.1522879,28.280681 C35.0178486,31.0519314 35.4927552,34.0013753 35.500582,37.1217977 C34.541547,37.3686879 33.5361083,37.5 32.5,37.5 C30.0703022,37.5 27.8092606,36.7778972 25.9197759,35.5365923 Z M44.4977213,25.2637776 C41.4283452,24.4450798 38.6118998,24.2912443 36.0502139,24.7057354 C35.8929332,24.3222908 35.7287357,23.9423084 35.5578144,23.5658123 C37.8214242,22.2579949 39.8686267,20.3323796 41.6578218,17.7449816 C43.3834148,19.7806834 44.442415,22.3993157 44.4977213,25.2637776 Z M44.1746209,28.2872623 C43.4004009,31.5422109 41.3002221,34.2833015 38.4763739,35.9082447 C38.3659338,32.9934452 37.8823387,30.2185925 37.0801822,27.5904564 C39.2161123,27.3305873 41.5739498,27.5381152 44.1746209,28.2872623 Z M22.9261849,37.0478959 C23.0061303,37.129891 23.0963006,37.2034705 23.1958238,37.2664963 C25.7528067,39.2911338 28.9852304,40.5 32.5,40.5 C40.7842712,40.5 47.5,33.7842712 47.5,25.5 C47.5,21.0618936 45.5725641,17.073964 42.5090997,14.3276185 C42.4415029,14.2548549 42.3658233,14.1879986 42.2824245,14.1284603 C39.6560644,11.8670634 36.2376796,10.5 32.5,10.5 C24.2157288,10.5 17.5,17.2157288 17.5,25.5 C17.5,30.144778 19.6111275,34.2964759 22.9261849,37.0478959 Z M21.2668272,21.2698896 C22.2065461,18.7756727 23.9531601,16.6769574 26.1884584,15.2919547 C26.4794092,15.5693582 26.7987431,15.8910455 27.1402564,16.2562119 C28.2989464,17.4951527 29.4610457,18.9606821 30.546432,20.6418079 C30.8576434,21.1238348 31.1562746,21.6132461 31.4417176,22.1099844 C28.5296372,23.0039952 25.4899026,22.765426 22.572819,21.7759007 C22.0941737,21.6135359 21.6568177,21.4418887 21.2668272,21.2698896 Z M39.4223759,15.6967195 C37.8612075,18.0459684 36.1086092,19.7497673 34.1970731,20.8861296 C33.8394771,20.2511794 33.4623592,19.6272896 33.0667829,19.0145921 C31.87984,17.1761681 30.6073007,15.5713622 29.3313521,14.2070415 C29.2593478,14.1300501 29.1887354,14.0552725 29.1195801,13.9827147 C30.1917728,13.6685307 31.3262052,13.5 32.5,13.5 C35.0781597,13.5 37.4664228,14.3130443 39.4223759,15.6967195 Z M37.6875,49 L32,62 L26.3125,49 L6,49 L6,5 L58,5 L58,49 L37.6875,49 Z"/>
</svg>
