<svg xmlns="http://www.w3.org/2000/svg" width="64" height="64" viewBox="0 0 64 64">
  <g fill="none" fill-rule="evenodd">
    <rect width="58" height="58" x="3" y="3" fill="#5B68C0" rx="6"/>
    <path fill="#FFF" fill-rule="nonzero" d="M32.5,46.5 C24.2157288,46.5 17.5,39.7842712 17.5,31.5 C17.5,23.2157288 24.2157288,16.5 32.5,16.5 C40.7842712,16.5 47.5,23.2157288 47.5,31.5 C47.5,39.7842712 40.7842712,46.5 32.5,46.5 Z M32.5,43.5 C39.127417,43.5 44.5,38.127417 44.5,31.5 C44.5,24.872583 39.127417,19.5 32.5,19.5 C25.872583,19.5 20.5,24.872583 20.5,31.5 C20.5,38.127417 25.872583,43.5 32.5,43.5 Z"/>
    <path fill="#FFF" fill-rule="nonzero" d="M25.6550815,20.8063423 C25.7143948,20.8555399 25.844832,20.9699875 26.0362335,21.1484172 C26.3667361,21.4565209 26.7381201,21.8262237 27.1402564,22.2562119 C28.2989464,23.4951527 29.4610457,24.9606821 30.546432,26.6418079 C33.7749642,31.6423945 35.6496048,37.4377065 35.4914065,43.9636485 C35.4713301,44.7918323 36.1264306,45.4794831 36.9546144,45.4995595 C37.7827983,45.5196358 38.470449,44.8645353 38.4905254,44.0363515 C38.6643921,36.8640603 36.6032099,30.4920687 33.0667829,25.0145921 C31.87984,23.1761681 30.6073007,21.5713622 29.3313521,20.2070415 C28.5558139,19.3777896 27.9417651,18.8053563 27.5703422,18.4972784 C26.9327119,17.9683937 25.9870646,18.0565496 25.4581799,18.69418 C24.9292952,19.3318104 25.0174511,20.2774576 25.6550815,20.8063423 Z"/>
    <path fill="#FFF" fill-rule="nonzero" d="M19.1014671,29.5507925 C19.6021302,29.8317719 20.4608,30.2273711 21.6091042,30.6168959 C25.8780505,32.0649965 30.4332833,32.1672349 34.7388863,30.0073821 C37.79302,28.4753135 40.4790124,25.8767546 42.7012954,22.1106583 C43.1223,21.3971833 42.8852057,20.4775058 42.1717307,20.0565013 C41.4582556,19.6354968 40.5385781,19.872591 40.1175736,20.5860661 C38.1796773,23.8702131 35.9151594,26.0610171 33.3937334,27.3258595 C29.9099156,29.0734738 26.1491891,28.9890675 22.572819,27.7759007 C22.0092646,27.5847332 21.5029479,27.3806981 21.0637862,27.1783711 C20.8101383,27.0615126 20.6422113,26.9753271 20.569695,26.9346299 C19.8472617,26.52919 18.9329397,26.7861639 18.5274998,27.5085972 C18.1220598,28.2310306 18.3790337,29.1453525 19.1014671,29.5507925 Z"/>
    <path fill="#FFF" fill-rule="nonzero" d="M25.3826915,42.5815189 C25.403575,42.5318636 25.4573091,42.4141164 25.5447973,42.2381704 C25.6977127,41.9306447 25.8863217,41.58421 26.1114021,41.2087484 C26.7593174,40.1279465 27.5635505,39.0449524 28.5281957,38.0372681 C32.4386413,33.9523519 37.6559789,32.2900898 44.5612824,34.4020954 C45.3534842,34.6443925 46.1921112,34.1986066 46.4344082,33.4064048 C46.6767052,32.6142031 46.2309194,31.7755761 45.4387176,31.5332791 C37.3860571,29.0703512 31.0163768,31.0997537 26.3611009,35.9627319 C25.2316762,37.1425476 24.295437,38.4033035 23.5383292,39.6662516 C23.0781633,40.4338646 22.7749535,41.0436449 22.6173085,41.4184811 C22.2961445,42.1821205 22.6548417,43.0615275 23.4184811,43.3826915 C24.1821205,43.7038555 25.0615275,43.3451583 25.3826915,42.5815189 Z"/>
  </g>
</svg>
