<svg xmlns="http://www.w3.org/2000/svg" width="64" height="64" viewBox="0 0 64 64">
  <g fill="none" fill-rule="evenodd">
    <path fill="#D650C7" d="M12.6956718,55 L10,55 L10,51.833511 C15.2433657,49.0192955 19,41.4258286 19,32.5 C19,23.5741714 15.2433657,15.9807045 10,13.166489 L10,10 L12.6956718,10 C15.0367252,15.7591118 23.0163068,20 32.5,20 C41.9836932,20 49.9632748,15.7591118 52.3043282,10 L55,10 L55,12.6956718 C49.2408882,15.0367252 45,23.0163068 45,32.5 C45,41.9836932 49.2408882,49.9632748 55,52.3043282 L55,55 L52.3043282,55 C49.9632748,49.2408882 41.9836932,45 32.5,45 C23.0163068,45 15.0367252,49.2408882 12.6956718,55 Z"/>
    <path stroke="#979797" stroke-linecap="round" stroke-linejoin="round" stroke-width="2" d="M5,15 L15,5 M50,5 L60,15 M60,50 L50,60 M15,60 L5,50"/>
    <circle cx="32.5" cy="32.5" r="5.5" fill="#0A3586"/>
    <circle cx="10" cy="10" r="3" fill="#ED9111"/>
    <circle cx="55" cy="10" r="3" fill="#ED9111"/>
    <circle cx="55" cy="55" r="3" fill="#ED9111"/>
    <circle cx="10" cy="55" r="3" fill="#ED9111"/>
  </g>
</svg>
