<svg xmlns="http://www.w3.org/2000/svg" width="64" height="64" viewBox="0 0 64 64">
  <g fill="none" fill-rule="evenodd">
    <path stroke="#979797" stroke-linecap="round" stroke-width="2" d="M2.14090657,14.5815218 L16.3459676,17.3066806"/>
    <path stroke="#979797" stroke-linecap="round" stroke-width="2" d="M2.14090657,14.5815218 L16.3459676,17.3066806" transform="matrix(-1 0 0 1 18.487 0)"/>
    <rect width="3" height="17" x="8" y="12" fill="#D8D8D8"/>
    <path stroke="#979797" stroke-linecap="round" stroke-width="2" d="M48.1409066,14.5815218 L62.3459676,17.3066806"/>
    <rect width="59" height="4" x="3" y="29" fill="#979797" rx="2"/>
    <path stroke="#979797" stroke-linecap="round" stroke-width="2" d="M48.1409066,14.5815218 L62.3459676,17.3066806" transform="matrix(-1 0 0 1 110.487 0)"/>
    <rect width="3" height="17" x="54" y="12" fill="#D8D8D8"/>
    <polyline stroke="#979797" stroke-linecap="round" stroke-width="2" points="15 54.856 15 49.028 22.028 42"/>
    <polyline stroke="#979797" stroke-linecap="round" stroke-width="2" points="42 54.856 42 49.028 49.028 42" transform="matrix(-1 0 0 1 91.028 0)"/>
    <path fill="#22BA8E" d="M21,27 L44,27 L44,43.9939399 C44,50.072419 39.065923,55 33.0052265,55 L31.9947735,55 C25.9225278,55 21,50.0746828 21,43.9939399 L21,27 Z"/>
    <circle cx="32.5" cy="43.5" r="7.5" fill="#5B68C0"/>
    <circle cx="29" cy="40" r="2" fill="#FFF"/>
  </g>
</svg>
