<svg xmlns="http://www.w3.org/2000/svg" width="64" height="64" viewBox="0 0 64 64">
  <path fill="#5EA7FF" fill-rule="evenodd" d="M59.9760656,19.1288146 L44.0391967,9 L33.0832202,18.1391121 L22.3736781,9 L5.97606562,19.6248748 L17.2683005,28.1700602 L5.97606562,36.716507 L17.2114472,43.336424 L22.3737838,46.3776438 L33.0833259,38.2036363 L43.7893807,46.3776438 L49.0226253,43.253905 L59.9760656,36.716507 L49.5165509,27.7989874 L59.9760656,19.1288146 Z M33.1165079,18.6126766 L48.5842848,27.4525127 L32.9755372,37.7415298 L17.4637995,28.0203696 L33.1165079,18.6126766 L33.1165079,18.6126766 Z M44.2524492,49.880541 L49.0226253,47.0336877 L49.0226253,49.622472 L32.938868,60 L17.2114472,49.5517264 L17.2114472,47.1114763 L21.915365,49.88401 L22.4389854,50.1915904 L22.9222378,49.8239866 L33.0832202,42.0682506 L43.2407153,49.8239866 L43.7275607,50.1940082 L44.2524492,49.880541 L44.2524492,49.880541 Z"/>
</svg>
