<?xml version="1.0" encoding="UTF-8"?>
<svg width="64px" height="64px" viewBox="0 0 64 64" version="1.1" xmlns="http://www.w3.org/2000/svg" xmlns:xlink="http://www.w3.org/1999/xlink">
    <!-- Generator: Sketch 43.2 (39069) - http://www.bohemiancoding.com/sketch -->
    <title>dualflagrace</title>
    <desc>Created with Sketch.</desc>
    <defs></defs>
    <g id="Outdoor-Activities-(142)" stroke="none" stroke-width="1" fill="none" fill-rule="evenodd">
        <g id="Group-9" transform="translate(40.709292, 36.297749) rotate(-330.000000) translate(-40.709292, -36.297749) translate(29.209292, 6.797749)">
            <rect id="Rectangle-79-Copy" fill="#595959" transform="translate(1.500000, 29.500000) rotate(-360.000000) translate(-1.500000, -29.500000) " x="0" y="0" width="3" height="59"></rect>
            <rect id="Rectangle-102" fill="#ECECEC" x="3" y="4" width="4" height="4"></rect>
            <rect id="Rectangle-102-Copy-10" fill="#ECECEC" x="3" y="12" width="4" height="4"></rect>
            <rect id="Rectangle-102-Copy-4" fill="#ECECEC" x="7" y="8" width="4" height="4"></rect>
            <rect id="Rectangle-102-Copy-11" fill="#ECECEC" x="7" y="16" width="4" height="4"></rect>
            <rect id="Rectangle-102-Copy-2" fill="#ECECEC" x="11" y="4" width="4" height="4"></rect>
            <rect id="Rectangle-102-Copy-12" fill="#ECECEC" x="11" y="12" width="4" height="4"></rect>
            <rect id="Rectangle-102-Copy-9" fill="#ECECEC" x="19" y="4" width="4" height="4"></rect>
            <rect id="Rectangle-102-Copy-13" fill="#ECECEC" x="19" y="12" width="4" height="4"></rect>
            <rect id="Rectangle-102-Copy-5" fill="#ECECEC" x="15" y="8" width="4" height="4"></rect>
            <rect id="Rectangle-102-Copy-14" fill="#ECECEC" x="15" y="16" width="4" height="4"></rect>
            <rect id="Rectangle-102-Copy" fill="#979797" x="7" y="4" width="4" height="4"></rect>
            <rect id="Rectangle-102-Copy-15" fill="#979797" x="7" y="12" width="4" height="4"></rect>
            <rect id="Rectangle-102-Copy-6" fill="#979797" x="11" y="8" width="4" height="4"></rect>
            <rect id="Rectangle-102-Copy-16" fill="#979797" x="11" y="16" width="4" height="4"></rect>
            <rect id="Rectangle-102-Copy-3" fill="#979797" x="15" y="4" width="4" height="4"></rect>
            <rect id="Rectangle-102-Copy-17" fill="#979797" x="15" y="12" width="4" height="4"></rect>
            <rect id="Rectangle-102-Copy-49" fill="#ECECEC" x="3" y="20" width="4" height="4"></rect>
            <rect id="Rectangle-102-Copy-47" fill="#ECECEC" x="11" y="20" width="4" height="4"></rect>
            <rect id="Rectangle-102-Copy-45" fill="#ECECEC" x="19" y="20" width="4" height="4"></rect>
            <rect id="Rectangle-102-Copy-43" fill="#979797" x="7" y="20" width="4" height="4"></rect>
            <rect id="Rectangle-102-Copy-41" fill="#979797" x="15" y="20" width="4" height="4"></rect>
            <rect id="Rectangle-102-Copy-7" fill="#979797" x="19" y="8" width="4" height="4"></rect>
            <rect id="Rectangle-102-Copy-18" fill="#979797" x="19" y="16" width="4" height="4"></rect>
            <rect id="Rectangle-102-Copy-8" fill="#979797" x="3" y="8" width="4" height="4"></rect>
            <rect id="Rectangle-102-Copy-19" fill="#979797" x="3" y="16" width="4" height="4"></rect>
        </g>
        <g id="Group-9-Copy" transform="translate(23.709292, 36.297749) scale(-1, 1) rotate(-330.000000) translate(-23.709292, -36.297749) translate(12.209292, 6.797749)">
            <rect id="Rectangle-79-Copy" fill="#595959" transform="translate(1.500000, 29.500000) rotate(-360.000000) translate(-1.500000, -29.500000) " x="0" y="0" width="3" height="59"></rect>
            <rect id="Rectangle-102" fill="#ECECEC" x="3" y="4" width="4" height="4"></rect>
            <rect id="Rectangle-102-Copy-10" fill="#ECECEC" x="3" y="12" width="4" height="4"></rect>
            <rect id="Rectangle-102-Copy-4" fill="#ECECEC" x="7" y="8" width="4" height="4"></rect>
            <rect id="Rectangle-102-Copy-11" fill="#ECECEC" x="7" y="16" width="4" height="4"></rect>
            <rect id="Rectangle-102-Copy-2" fill="#ECECEC" x="11" y="4" width="4" height="4"></rect>
            <rect id="Rectangle-102-Copy-12" fill="#ECECEC" x="11" y="12" width="4" height="4"></rect>
            <rect id="Rectangle-102-Copy-9" fill="#ECECEC" x="19" y="4" width="4" height="4"></rect>
            <rect id="Rectangle-102-Copy-13" fill="#ECECEC" x="19" y="12" width="4" height="4"></rect>
            <rect id="Rectangle-102-Copy-5" fill="#ECECEC" x="15" y="8" width="4" height="4"></rect>
            <rect id="Rectangle-102-Copy-14" fill="#ECECEC" x="15" y="16" width="4" height="4"></rect>
            <rect id="Rectangle-102-Copy" fill="#979797" x="7" y="4" width="4" height="4"></rect>
            <rect id="Rectangle-102-Copy-15" fill="#979797" x="7" y="12" width="4" height="4"></rect>
            <rect id="Rectangle-102-Copy-6" fill="#979797" x="11" y="8" width="4" height="4"></rect>
            <rect id="Rectangle-102-Copy-16" fill="#979797" x="11" y="16" width="4" height="4"></rect>
            <rect id="Rectangle-102-Copy-3" fill="#979797" x="15" y="4" width="4" height="4"></rect>
            <rect id="Rectangle-102-Copy-17" fill="#979797" x="15" y="12" width="4" height="4"></rect>
            <rect id="Rectangle-102-Copy-49" fill="#ECECEC" x="3" y="20" width="4" height="4"></rect>
            <rect id="Rectangle-102-Copy-47" fill="#ECECEC" x="11" y="20" width="4" height="4"></rect>
            <rect id="Rectangle-102-Copy-45" fill="#ECECEC" x="19" y="20" width="4" height="4"></rect>
            <rect id="Rectangle-102-Copy-43" fill="#979797" x="7" y="20" width="4" height="4"></rect>
            <rect id="Rectangle-102-Copy-41" fill="#979797" x="15" y="20" width="4" height="4"></rect>
            <rect id="Rectangle-102-Copy-7" fill="#979797" x="19" y="8" width="4" height="4"></rect>
            <rect id="Rectangle-102-Copy-18" fill="#979797" x="19" y="16" width="4" height="4"></rect>
            <rect id="Rectangle-102-Copy-8" fill="#979797" x="3" y="8" width="4" height="4"></rect>
            <rect id="Rectangle-102-Copy-19" fill="#979797" x="3" y="16" width="4" height="4"></rect>
        </g>
    </g>
</svg>