<svg xmlns="http://www.w3.org/2000/svg" width="64" height="64" viewBox="0 0 64 64">
  <g fill="none" fill-rule="evenodd">
    <rect width="64" height="11" y="48" fill="#0A3586"/>
    <path fill="#22BA8E" d="M3,41.0023695 C3,38.7919219 4.78716697,36.7942228 6.96428975,36.5435455 L20,35.0425936 L33.0357102,36.5435455 C35.225127,36.7956384 37,38.7918218 37,41.0023695 L37,48 L3,48 L3,41.0023695 Z"/>
    <path fill="#FFDD95" d="M14,30.3164468 C10.9897907,27.470456 9,22.8615543 9,19 C9,12.9248678 13.9248678,8 20,8 C26.0751322,8 31,12.9248678 31,19 C31,22.8615543 29.0102093,27.470456 26,30.3164468 L26,37 C26,37 21.9325778,38.4486507 20,38.4486507 C18.0674222,38.4486507 14,37 14,37 L14,30.3164468 Z"/>
    <circle cx="11" cy="24" r="3" fill="#FFDD95"/>
    <circle cx="29" cy="24" r="3" fill="#FFDD95"/>
    <path fill="#5B68C0" d="M28,41.0023695 C28,38.7919219 29.787167,36.7942228 31.9642898,36.5435455 L45,35.0425936 L58.0357102,36.5435455 C60.225127,36.7956384 62,38.7918218 62,41.0023695 L62,48 L28,48 L28,41.0023695 Z"/>
    <path fill="#BD7575" d="M39,30.3164468 C35.9897907,27.470456 34,22.8615543 34,19 C34,12.9248678 38.9248678,8 45,8 C51.0751322,8 56,12.9248678 56,19 C56,22.8615543 54.0102093,27.470456 51,30.3164468 L51,37 C51,37 46.9325778,38.4486507 45,38.4486507 C43.0674222,38.4486507 39,37 39,37 L39,30.3164468 Z"/>
    <circle cx="36" cy="24" r="3" fill="#BD7575"/>
    <circle cx="54" cy="24" r="3" fill="#BD7575"/>
    <g transform="matrix(-1 0 0 1 54 27)">
      <path stroke="#D8D8D8" stroke-linecap="square" stroke-width="2" d="M4 20L4 9M0 12L8 5"/>
      <circle cx="9.5" cy="3.5" r="3.5" fill="#D8D8D8"/>
    </g>
  </g>
</svg>
