<svg xmlns="http://www.w3.org/2000/svg" width="64" height="64" viewBox="0 0 64 64">
  <g fill="none" fill-rule="evenodd">
    <path fill="#FCC24C" d="M20,36.5 C20,29.5964406 25.5934938,24 32.49623,24 L61,24 L54.3437582,40.6406045 C52.4970515,45.2573712 46.9790721,49 41.9918742,49 L26.9956583,49 C23.1320629,49 20,45.8590466 20,42.0028631 L20,36.5 Z"/>
    <path fill="#ED9111" d="M37,32.5 C37,28.9101491 39.91996,26 43.5007161,26 L58,26 L55.2590877,32.9566965 C53.9440762,36.2943209 49.9657699,39 46.3740252,39 L43.5040236,39 C39.9119506,39 37,36.0825462 37,32.5 L37,32.5 Z"/>
    <circle cx="30" cy="17" r="10" fill="#FCC24C"/>
    <path fill="#5B68C0" fill-rule="nonzero" d="M22.5,57 C14.4918711,57 8,50.5081289 8,42.5 C8,34.4918711 14.4918711,28 22.5,28 C30.5081289,28 37,34.4918711 37,42.5 C37,50.5081289 30.5081289,57 22.5,57 Z M22.5,55 C29.4035594,55 35,49.4035594 35,42.5 C35,35.5964406 29.4035594,30 22.5,30 C15.5964406,30 10,35.5964406 10,42.5 C10,49.4035594 15.5964406,55 22.5,55 Z"/>
    <circle cx="32" cy="16" r="2" fill="#5B68C0"/>
    <circle cx="22.5" cy="42.5" r="2.5" fill="#5B68C0"/>
    <circle cx="23" cy="15" r="2" fill="#5B68C0"/>
    <path fill="#5B68C0" fill-rule="nonzero" d="M21.5,29 L21.5,33 L23.5,33 L23.5,29 L21.5,29 Z M36,41.5 L32,41.5 L32,43.5 L36,43.5 L36,41.5 Z M23.5,56 L23.5,52 L21.5,52 L21.5,56 L23.5,56 Z M9,43.5 L13,43.5 L13,41.5 L9,41.5 L9,43.5 Z"/>
    <path fill="#ED9111" d="M24.3707207,18 L17,22.4544045 C17,22.4544045 18.9438301,26.1114086 26.5741341,24.2829066 C34.2044381,22.4544045 24.3707207,18 24.3707207,18 Z"/>
  </g>
</svg>
