<svg xmlns="http://www.w3.org/2000/svg" width="64" height="64" viewBox="0 0 64 64">
  <g fill="none" fill-rule="evenodd">
    <path fill="#FCC24C" d="M6,47.4931282 C6,37.8319403 13.8060906,29.4522042 23.4504124,28.7754097 L63,26 L53.7462004,49.2968463 C51.1788277,55.7603196 43.4633075,61 36.5016049,61 L15.8064553,61 C10.3904996,61 6,56.6078037 6,51.1914062 L6,47.4931282 Z"/>
    <path fill="#ED9111" d="M29,39 C29,34.0294373 33.0323257,30 37.9969917,30 L58,30 L54.2149306,39.632349 C52.3989624,44.253675 46.9051108,48 41.9292563,48 L37.997573,48 C33.0283506,48 29,43.9716556 29,39 L29,39 Z"/>
    <rect width="17" height="17" x="15" y="16" fill="#FCC24C"/>
    <circle cx="18" cy="16" r="14" fill="#FCC24C"/>
    <circle cx="20" cy="14" r="3" fill="#5B68C0"/>
    <circle cx="7.5" cy="12.5" r="2.5" fill="#5B68C0"/>
    <path fill="#ED9111" d="M8.82918495,17.880555 L0,23.5555239 C0,23.5555239 2.34857572,28.3049367 12.7463365,25.6139397 C23.1440973,22.9229428 8.82918495,17.880555 8.82918495,17.880555 Z"/>
  </g>
</svg>
