<svg xmlns="http://www.w3.org/2000/svg" width="64" height="64" viewBox="0 0 64 64">
  <g fill="none" fill-rule="evenodd">
    <path fill="#ED9111" d="M30.0105566,5.41424256 C27.2538551,2.68752976 23.4390771,1 19.2242626,1 C10.8161345,1 4,7.71572875 4,16 C4,24.2842712 10.8161345,31 19.2242626,31 C23.382365,31 27.1511239,29.3575775 29.8987059,26.6952585 L19.3141232,16.1106759 L30.0105566,5.41424256 Z"/>
    <path fill="#ED9111" d="M60.0105566,36.4142426 C57.2538551,33.6875298 53.4390771,32 49.2242626,32 C40.8161345,32 34,38.7157288 34,47 C34,55.2842712 40.8161345,62 49.2242626,62 C53.382365,62 57.1511239,60.3575775 59.8987059,57.6952585 L49.3141232,47.1106759 L60.0105566,36.4142426 Z" transform="matrix(-1 0 0 1 94 0)"/>
    <circle cx="18" cy="6" r="2" fill="#0A3586"/>
    <circle cx="46" cy="37" r="2" fill="#0A3586"/>
    <path stroke="#595959" stroke-dasharray="4" stroke-linecap="round" stroke-width="2" d="M24.2429518,16.2570393 L44.2498051,16.2570393 C47.0115104,16.2570393 49.2503149,18.4865563 49.2503149,21.2616341 L49.2503149,19.4115704 C49.2503149,22.1755318 47.0021947,24.4161652 44.2547838,24.4161652 L37.5905489,24.4161652 L17.2461567,43.6150581 C15.2340736,45.51385 15.839423,47.053125 18.6055131,47.053125 L39.3111973,47.053125"/>
  </g>
</svg>
