<svg xmlns="http://www.w3.org/2000/svg" width="64" height="64" viewBox="0 0 64 64">
  <g fill="none" fill-rule="evenodd">
    <polygon fill="#E6E6E6" points="19.045 3 52 3 52 61 12 61 12 9.065"/>
    <polygon fill="#CDCDCD" points="19 3 19 9 12 9"/>
    <path fill="#979797" d="M22.449,38.418 C22.4676668,38.5300006 22.4583335,38.6606659 22.421,38.81 C22.346333,39.0433345 22.3043334,39.1739999 22.295,39.202 C22.2856666,39.3513341 22.2740001,39.5076659 22.26,39.671 C22.2459999,39.8343342 22.1946671,39.9626662 22.106,40.056 C22.0173329,40.1493338 21.8423346,40.196 21.581,40.196 C21.3196654,40.196 21.091001,40.1446672 20.895,40.042 C20.6616655,39.9299994 20.5403334,39.776001 20.531,39.58 C20.531,39.4959996 20.5566664,39.3933339 20.608,39.272 C20.6593336,39.1506661 20.6919999,39.0573337 20.706,38.992 C20.7200001,38.9266663 20.7223334,38.7493348 20.713,38.46 C20.713,38.2453323 20.7666661,38.0866672 20.874,37.984 C20.9813339,37.8813328 21.1516655,37.83 21.385,37.83 C21.6276679,37.83 21.8563323,37.8836661 22.071,37.991 C22.2856677,38.0983339 22.4116665,38.2406658 22.449,38.418 Z M28.833,39.916 C28.7209994,40.1680013 28.3756696,40.294 27.797,40.294 C27.4329982,40.294 27.1903339,40.2193341 27.069,40.07 C27.0223331,40.0233331 26.999,39.9580004 26.999,39.874 C26.999,39.8086663 27.0223331,39.7060007 27.069,39.566 C27.1156669,39.4259993 27.1436666,39.318667 27.153,39.244 C26.7236645,39.8506697 26.2196696,40.154 25.641,40.154 C24.8663295,40.154 24.3016684,39.7153377 23.947,38.838 C23.676332,38.1659966 23.541,37.2933387 23.541,36.22 C23.541,35.2306617 23.7509979,34.3300041 24.171,33.518 C24.637669,32.6313289 25.2116633,32.188 25.893,32.188 C26.2756686,32.188 26.6676647,32.4959969 27.069,33.112 L27.069,31.306 C27.069,31.1566659 27.0083339,30.9653345 26.887,30.732 C26.7656661,30.4986655 26.705,30.3213339 26.705,30.2 C26.705,30.1066662 26.7283331,30.0133338 26.775,29.92 C26.971001,29.4999979 27.3536638,29.29 27.923,29.29 C28.389669,29.29 28.6789994,29.4579983 28.791,29.794 C28.8283335,29.9060006 28.847,30.0133328 28.847,30.116 C28.847,30.2186672 28.816667,30.3563325 28.756,30.529 C28.695333,30.7016675 28.665,30.8486661 28.665,30.97 L28.665,38.95 C28.665,39.0526672 28.702333,39.1763326 28.777,39.321 C28.851667,39.4656674 28.889,39.5846662 28.889,39.678 C28.889,39.752667 28.8703335,39.8319996 28.833,39.916 Z M26.901,36.22 C26.901,35.7906645 26.8123342,35.2866696 26.635,34.708 C26.438999,34.0919969 26.2476676,33.784 26.061,33.784 C25.8463323,33.784 25.6736673,34.0686638 25.543,34.638 C25.4403328,35.104669 25.389,35.6319971 25.389,36.22 C25.389,36.3226672 25.3843334,36.4906655 25.375,36.724 L25.375,37.242 C25.375,38.2966719 25.6036644,38.824 26.061,38.824 C26.2756677,38.824 26.4716658,38.5206697 26.649,37.914 C26.8170008,37.3539972 26.901,36.7893362 26.901,36.22 Z M36.533,32.44 C36.5983337,32.5613339 36.631,32.6873327 36.631,32.818 C36.631,33.0046676 36.5516675,33.2379986 36.393,33.518 C36.1689989,33.8913352 36.0383335,34.1293328 36.001,34.232 C35.5903313,35.4080059 35.0630032,36.891991 34.419,38.684 C34.2976661,39.3000031 34.1436676,39.7386654 33.957,40 C33.7236655,40.3546684 33.3783356,40.5180001 32.921,40.49 C32.4823311,40.4619999 32.1883341,40.3733341 32.039,40.224 C31.9269994,40.1119994 31.871,39.9393345 31.871,39.706 L31.871,39.412 C31.871,39.2439992 31.8570001,39.1040006 31.829,38.992 L30.401,33.868 C30.3729999,33.7559994 30.2516677,33.5740013 30.037,33.322 C29.8596658,33.125999 29.7896665,32.9440008 29.827,32.776 C29.9203338,32.3653313 30.2516638,32.16 30.821,32.16 C30.9423339,32.16 31.0543328,32.1693332 31.157,32.188 C31.5210018,32.262667 31.8803316,32.901994 32.235,34.106 C32.5243348,35.235339 32.8183318,36.3599944 33.117,37.48 L34.573,33 C34.647667,32.7759989 34.7083331,32.6220004 34.755,32.538 C34.8390004,32.3886659 34.9579992,32.2720004 35.112,32.188 C35.2660008,32.1039996 35.4549989,32.062 35.679,32.062 C36.1083355,32.062 36.3929993,32.1879987 36.533,32.44 Z M42.329,39.916 C42.2169994,40.1680013 41.8716696,40.294 41.293,40.294 C40.9289982,40.294 40.6863339,40.2193341 40.565,40.07 C40.5183331,40.0233331 40.495,39.9580004 40.495,39.874 C40.495,39.8086663 40.5183331,39.7060007 40.565,39.566 C40.6116669,39.4259993 40.6396666,39.318667 40.649,39.244 C40.2196645,39.8506697 39.7156696,40.154 39.137,40.154 C38.3623295,40.154 37.7976684,39.7153377 37.443,38.838 C37.172332,38.1659966 37.037,37.2933387 37.037,36.22 C37.037,35.2306617 37.2469979,34.3300041 37.667,33.518 C38.133669,32.6313289 38.7076633,32.188 39.389,32.188 C39.7716686,32.188 40.1636647,32.4959969 40.565,33.112 L40.565,31.306 C40.565,31.1566659 40.5043339,30.9653345 40.383,30.732 C40.2616661,30.4986655 40.201,30.3213339 40.201,30.2 C40.201,30.1066662 40.2243331,30.0133338 40.271,29.92 C40.467001,29.4999979 40.8496638,29.29 41.419,29.29 C41.885669,29.29 42.1749994,29.4579983 42.287,29.794 C42.3243335,29.9060006 42.343,30.0133328 42.343,30.116 C42.343,30.2186672 42.312667,30.3563325 42.252,30.529 C42.191333,30.7016675 42.161,30.8486661 42.161,30.97 L42.161,38.95 C42.161,39.0526672 42.198333,39.1763326 42.273,39.321 C42.347667,39.4656674 42.385,39.5846662 42.385,39.678 C42.385,39.752667 42.3663335,39.8319996 42.329,39.916 Z M40.397,36.22 C40.397,35.7906645 40.3083342,35.2866696 40.131,34.708 C39.934999,34.0919969 39.7436676,33.784 39.557,33.784 C39.3423323,33.784 39.1696673,34.0686638 39.039,34.638 C38.9363328,35.104669 38.885,35.6319971 38.885,36.22 C38.885,36.3226672 38.8803334,36.4906655 38.871,36.724 L38.871,37.242 C38.871,38.2966719 39.0996644,38.824 39.557,38.824 C39.7716677,38.824 39.9676658,38.5206697 40.145,37.914 C40.3130008,37.3539972 40.397,36.7893362 40.397,36.22 Z"/>
  </g>
</svg>
