<svg xmlns="http://www.w3.org/2000/svg" width="64" height="64" viewBox="0 0 64 64">
  <g fill="none" fill-rule="evenodd">
    <rect width="58" height="58" x="3" y="4" fill="#80D25B"/>
    <polygon fill="#0A3586" points="6 7 58 7 58 59 6 59"/>
    <path fill="#80D25B" d="M25.04,21.92 C25.1466672,23.7066756 24.53334,26.8399776 23.2,31.32 C21.7866596,36.120024 20.1866756,40.2133164 18.4,43.6 C16.2399892,47.6266868 14.2666756,49.64 12.48,49.64 C11.5733288,49.64 10.7000042,49.240004 9.86,48.44 C9.0199958,47.639996 8.6,46.8133376 8.6,45.96 C8.6,45.559998 8.7199988,45.2000016 8.96,44.88 C8.5333312,33.3866092 8.3733328,25.573354 8.48,21.44 C7.9199972,20.5333288 7.64,19.8533356 7.64,19.4 C7.64,18.7599968 7.9999964,18.2000024 8.72,17.72 C9.3600032,17.2666644 10.0266632,17.04 10.72,17.04 C11.3600032,17.04 11.8933312,17.2266648 12.32,17.6 C15.786684,16.2399932 18.0933276,15.56 19.24,15.56 C19.8533364,15.56 20.4533304,15.7066652 21.04,16 C21.9200044,16.4266688 22.759996,17.173328 23.56,18.24 C24.4666712,19.4666728 24.9599996,20.6933272 25.04,21.92 Z M19.6,20.72 C19.333332,20.3999984 18.9866688,20.24 18.56,20.24 C17.7333292,20.24 16.1066788,21.1999904 13.68,23.12 C13.5199992,25.12001 13.44,27.3333212 13.44,29.76 C13.44,33.226684 13.5999984,36.7999816 13.92,40.48 C15.3333404,37.0399828 16.639994,33.4266856 17.84,29.64 C19.1200064,25.5599796 19.76,22.8400068 19.76,21.48 C19.76,21.1066648 19.7066672,20.853334 19.6,20.72 Z M57.04,26.16 C57.1200004,26.3733344 57.16,26.5733324 57.16,26.76 C57.16,27.1866688 56.9200024,27.7066636 56.44,28.32 C55.8533304,29.0400036 55.493334,29.599998 55.36,30 L50.96,43.28 C50.826666,43.7066688 50.76,44.2133304 50.76,44.8 L50.76,45.68 C50.7866668,46.0533352 50.8,46.3333324 50.8,46.52 C50.8,47.5066716 50.46667,48.2399976 49.8,48.72 C49.13333,49.2000024 48.3733376,49.44 47.52,49.44 C46.2399936,49.44 45.1733376,48.9600048 44.32,48 C43.8933312,47.5199976 43.68,46.9733364 43.68,46.36 C43.68,45.4533288 43.6533336,44.8800012 43.6,44.64 L41.2,35.76 L38.88,43.76 C38.7999996,44.0533348 38.7333336,44.6133292 38.68,45.44 C38.6266664,46.10667 38.4800012,46.639998 38.24,47.04 C37.2266616,48.6933416 35.986674,49.52 34.52,49.52 C34.0133308,49.52 33.5466688,49.3733348 33.12,49.08 C32.586664,48.7333316 32.2666672,48.2000036 32.16,47.48 C32.0533328,46.7599964 31.9466672,46.0533368 31.84,45.36 L28.32,31.68 C28.2399996,31.3333316 28.000002,30.693338 27.6,29.76 C27.2799984,29.0399964 27.12,28.4266692 27.12,27.92 C27.12,27.5733316 27.186666,27.2266684 27.32,26.88 C27.5600012,26.1333296 28.5199916,25.76 30.2,25.76 C31.133338,25.76 31.7599984,25.893332 32.08,26.16 C32.480002,26.5066684 32.6933332,27.0666628 32.72,27.84 C32.7466668,29.0133392 32.7733332,29.6533328 32.8,29.76 L35.2,39.36 L38.56,29.52 C38.6133336,29.3333324 38.64,29.1466676 38.64,28.96 C38.64,28.7999992 38.606667,28.5666682 38.54,28.26 C38.473333,27.9533318 38.44,27.7200008 38.44,27.56 C38.44,26.9733304 38.7599968,26.5200016 39.4,26.2 C39.933336,25.9066652 40.5199968,25.76 41.16,25.76 C42.0400044,25.76 42.7733304,25.9733312 43.36,26.4 C44.1066704,26.933336 44.5199996,27.6199958 44.6,28.46 C44.6800004,29.3000042 44.7466664,30.1333292 44.8,30.96 L47.2,40.56 L51.04,29.04 C51.0933336,28.8799992 51.12,28.7066676 51.12,28.52 C51.12,28.3066656 51.0800004,28.0200018 51,27.66 C50.9199996,27.2999982 50.88,27.0266676 50.88,26.84 C50.88,26.5999988 50.9333328,26.3733344 51.04,26.16 C51.440002,25.4399964 52.4933248,25.08 54.2,25.08 C55.800008,25.08 56.7466652,25.4399964 57.04,26.16 Z"/>
  </g>
</svg>
