<svg xmlns="http://www.w3.org/2000/svg" width="64" height="64" viewBox="0 0 64 64">
  <g fill="none" fill-rule="evenodd">
    <rect width="6" height="11" x="29" y="39" fill="#D8D8D8"/>
    <rect width="14" height="1" x="25" y="51" stroke="#979797" stroke-width="2"/>
    <path fill="#868686" d="M2,4.99550699 C2,3.34113416 3.33730974,2 4.99593743,2 L59.0040626,2 C60.6586731,2 62,3.34246828 62,4.99550699 L62,38.004493 C62,39.6588658 60.6626903,41 59.0040626,41 L4.99593743,41 C3.34132688,41 2,39.6575317 2,38.004493 L2,4.99550699 Z"/>
    <rect width="54" height="33" x="5" y="5" fill="#22BA8E"/>
    <path fill="#FFF" d="M11.332,24.508 C11.2679997,24.8120015 11.0520018,25.1359983 10.684,25.48 C10.6279997,25.5680004 10.4080019,25.6839993 10.024,25.828 C9.5839978,25.9960008 9.2040016,26.0680001 8.884,26.044 C8.283997,26.0039998 7.81200172,25.6600032 7.468,25.012 C7.15599844,24.411997 7,23.6760044 7,22.804 C7,21.8599953 7.17599824,21.0320036 7.528,20.32 C7.92000196,19.5359961 8.44399672,19.0960005 9.1,19 C9.22800064,18.9839999 9.3519994,18.976 9.472,18.976 C10.4240048,18.976 10.9479995,19.5599942 11.044,20.728 C11.0920002,21.2640027 10.8800024,21.8479968 10.408,22.48 C9.89599744,23.1760035 9.240004,23.6639986 8.44,23.944 C8.52800044,24.2640016 8.59599976,24.4719995 8.644,24.568 C8.75600056,24.768001 8.90799904,24.868 9.1,24.868 C9.28400092,24.868 9.47999896,24.7960007 9.688,24.652 C9.86400088,24.5319994 9.98399968,24.4160006 10.048,24.304 C10.0800002,24.2879999 10.1119998,24.1980008 10.144,24.034 C10.1760002,23.8699992 10.2599993,23.7520004 10.396,23.68 C10.4440002,23.6559999 10.4999997,23.644 10.564,23.644 C10.756001,23.644 10.9419991,23.7379991 11.122,23.926 C11.3020009,24.1140009 11.3720002,24.307999 11.332,24.508 Z M9.448,20.284 C9.1279984,20.284 8.868001,20.5119977 8.668,20.968 C8.40399868,21.576003 8.29599976,22.175997 8.344,22.768 C8.72000188,22.6479994 9.0679984,22.3680022 9.388,21.928 C9.7080016,21.4879978 9.868,21.0960017 9.868,20.752 C9.868,20.4399984 9.7280014,20.284 9.448,20.284 Z M15.544,22.168 C15.4799997,22.2240003 15.4040004,22.252 15.316,22.252 C15.2759998,22.252 15.1840007,22.2360002 15.04,22.204 C14.8959993,22.1719998 14.7840004,22.1679999 14.704,22.192 L13.408,22.504 C13.3359996,22.5200001 13.2120009,22.5679996 13.036,22.648 C12.8999993,22.7040003 12.7880004,22.732 12.7,22.732 C12.499999,22.732 12.3240008,22.6400009 12.172,22.456 C12.0199992,22.2719991 11.944,22.080001 11.944,21.88 C11.944,21.7199992 11.9919995,21.5840006 12.088,21.472 C12.1200002,21.4399998 12.2439989,21.424 12.46,21.424 C12.7240013,21.424 12.9119994,21.4080002 13.024,21.376 L14.392,21.016 C14.7520018,20.9199995 14.9719996,20.872 15.052,20.872 C15.1560005,20.872 15.2479996,20.8959998 15.328,20.944 C15.5760012,21.0880007 15.7,21.3519981 15.7,21.736 C15.7,21.936001 15.6480005,22.0799996 15.544,22.168 Z M18.448,25.828 C18.2879992,26.1320015 17.9920022,26.284 17.56,26.284 C17.159998,26.284 16.8800008,26.1480014 16.72,25.876 C16.6719998,25.7959996 16.648,25.7080005 16.648,25.612 C16.648,25.5319996 16.6759997,25.4000009 16.732,25.216 C16.7880003,25.0319991 16.816,24.8800006 16.816,24.76 L16.768,17.008 L16.768,16.36 C16.7920001,16.2559995 16.903999,16.1700003 17.104,16.102 C17.304001,16.0339997 17.5159989,16 17.74,16 C18.0680016,16 18.2759996,16.0599994 18.364,16.18 C18.4520004,16.3000006 18.496,16.4239994 18.496,16.552 C18.496,16.6400004 18.4640003,16.785999 18.4,16.99 C18.3359997,17.194001 18.304,17.3599994 18.304,17.488 L18.304,24.688 C18.304,24.8080006 18.3379997,24.965999 18.406,25.162 C18.4740003,25.358001 18.508,25.4999996 18.508,25.588 C18.508,25.6760004 18.4880002,25.7559996 18.448,25.828 Z M23.752,24.508 C23.6879997,24.8120015 23.4720018,25.1359983 23.104,25.48 C23.0479997,25.5680004 22.8280019,25.6839993 22.444,25.828 C22.0039978,25.9960008 21.6240016,26.0680001 21.304,26.044 C20.703997,26.0039998 20.2320017,25.6600032 19.888,25.012 C19.5759984,24.411997 19.42,23.6760044 19.42,22.804 C19.42,21.8599953 19.5959982,21.0320036 19.948,20.32 C20.340002,19.5359961 20.8639967,19.0960005 21.52,19 C21.6480006,18.9839999 21.7719994,18.976 21.892,18.976 C22.8440048,18.976 23.3679995,19.5599942 23.464,20.728 C23.5120002,21.2640027 23.3000024,21.8479968 22.828,22.48 C22.3159974,23.1760035 21.660004,23.6639986 20.86,23.944 C20.9480004,24.2640016 21.0159998,24.4719995 21.064,24.568 C21.1760006,24.768001 21.327999,24.868 21.52,24.868 C21.7040009,24.868 21.899999,24.7960007 22.108,24.652 C22.2840009,24.5319994 22.4039997,24.4160006 22.468,24.304 C22.5000002,24.2879999 22.5319998,24.1980008 22.564,24.034 C22.5960002,23.8699992 22.6799993,23.7520004 22.816,23.68 C22.8640002,23.6559999 22.9199997,23.644 22.984,23.644 C23.176001,23.644 23.3619991,23.7379991 23.542,23.926 C23.7220009,24.1140009 23.7920002,24.307999 23.752,24.508 Z M21.868,20.284 C21.5479984,20.284 21.288001,20.5119977 21.088,20.968 C20.8239987,21.576003 20.7159998,22.175997 20.764,22.768 C21.1400019,22.6479994 21.4879984,22.3680022 21.808,21.928 C22.1280016,21.4879978 22.288,21.0960017 22.288,20.752 C22.288,20.4399984 22.1480014,20.284 21.868,20.284 Z M29.992,25.264 C29.8719994,25.656002 29.5760024,25.852 29.104,25.852 C28.9439992,25.852 28.8160005,25.8240003 28.72,25.768 C28.5919994,25.6799996 28.5040002,25.5040013 28.456,25.24 C28.3599995,24.7839977 28.2640005,24.4280013 28.168,24.172 C28.1439999,24.6120022 27.9040023,25.0579977 27.448,25.51 C26.9919977,25.9620023 26.5320023,26.188 26.068,26.188 C25.4839971,26.188 25.0800011,25.8000039 24.856,25.024 C24.7759996,24.7359986 24.736,24.4640013 24.736,24.208 C24.736,23.4639963 25.1159962,22.8280026 25.876,22.3 C26.5000031,21.9319982 27.1279968,21.5680018 27.76,21.208 C27.7920002,21.0719993 27.808,20.9400006 27.808,20.812 C27.808,20.5639988 27.7400007,20.4180002 27.604,20.374 C27.4679993,20.3299998 27.3520005,20.308 27.256,20.308 C27.0879992,20.308 26.9500005,20.3619995 26.842,20.47 L26.536,20.776 C26.4399995,20.8400003 26.3160008,20.9879988 26.164,21.22 C26.0439994,21.4040009 25.9120007,21.5039999 25.768,21.52 C25.559999,21.5440001 25.3720008,21.4720008 25.204,21.304 C25.0359992,21.1359992 24.952,20.9400011 24.952,20.716 C24.952,20.5879994 24.9839997,20.4720005 25.048,20.368 C25.2320009,20.0639985 25.5079982,19.8000011 25.876,19.576 C26.4360028,19.2399983 27.1359958,19.072 27.976,19.072 C28.5120027,19.072 28.879999,19.3279974 29.08,19.84 C29.2080006,20.1840017 29.3039997,20.8279953 29.368,21.772 C29.4400004,22.9160057 29.5279995,23.7519974 29.632,24.28 C29.6480001,24.3840005 29.7159994,24.5159992 29.836,24.676 C29.9560006,24.8360008 30.016,24.9759994 30.016,25.096 C30.016,25.1520003 30.0080001,25.2079997 29.992,25.264 Z M27.904,22.312 C27.6639988,22.4400006 27.4260012,22.5719993 27.19,22.708 C26.9539988,22.8440007 26.736001,23.0239989 26.536,23.248 C26.2479986,23.5760016 26.104,23.8559988 26.104,24.088 C26.104,24.280001 26.1759993,24.479999 26.32,24.688 C26.4000004,24.8000006 26.4879995,24.856 26.584,24.856 C26.792001,24.856 27.0179988,24.6240023 27.262,24.16 C27.5060012,23.6959977 27.7199991,23.0800038 27.904,22.312 Z M35.548,19.648 C35.5159998,19.8160008 35.3640014,19.9319997 35.092,19.996 C34.7719984,20.0760004 34.5680004,20.1679995 34.48,20.272 L32.524,22.528 L32.524,24.352 C32.524,24.5280009 32.5739995,24.7059991 32.674,24.886 C32.7740005,25.0660009 32.824,25.2039995 32.824,25.3 C32.824,25.3960005 32.7960003,25.5039994 32.74,25.624 C32.6039993,25.9280015 32.3280021,26.08 31.912,26.08 C31.6239986,26.08 31.3960008,25.9880009 31.228,25.804 C31.1159994,25.6839994 31.06,25.5320009 31.06,25.348 C31.06,25.2839997 31.0679999,25.1800007 31.084,25.036 C31.1000001,24.8919993 31.108,24.7760004 31.108,24.688 L31.108,20.2 C31.108,20.1279996 31.0760003,20.0400005 31.012,19.936 C30.9479997,19.8319995 30.916,19.7480003 30.916,19.684 C30.916,19.6359998 30.9319998,19.5800003 30.964,19.516 C31.0680005,19.323999 31.3919973,19.228 31.936,19.228 C32.3600021,19.228 32.5999997,19.327999 32.656,19.528 C32.6800001,19.6080004 32.692,19.6759997 32.692,19.732 C32.692,19.8200004 32.6600003,19.8879998 32.596,19.936 C32.5319997,19.9840002 32.5,20.0319998 32.5,20.08 L32.524,20.512 L33.556,19.42 C33.6760006,19.2839993 33.8019993,19.1480007 33.934,19.012 C34.0660007,18.8759993 34.2199991,18.8000001 34.396,18.784 C34.6680014,18.7599999 34.9299987,18.8199993 35.182,18.964 C35.4340013,19.1080007 35.56,19.2959988 35.56,19.528 C35.56,19.5680002 35.556,19.6079998 35.548,19.648 Z M41.692,25 C41.6759999,25.1760009 41.5600011,25.3259994 41.344,25.45 C41.1279989,25.5740006 40.8880013,25.636 40.624,25.636 C40.231998,25.636 39.9640007,25.5120012 39.82,25.264 C39.8840003,22.7999877 39.812001,21.5520002 39.604,21.52 C39.403999,21.4879998 38.9160039,22.5919888 38.14,24.832 L38.14,25.552 C38.132,25.8400014 38.0540007,26.0439994 37.906,26.164 C37.7579993,26.2840006 37.6000008,26.344 37.432,26.344 C37.1439986,26.344 36.8360016,26.1880016 36.508,25.876 C36.4119995,25.7959996 36.36,25.1880057 36.352,24.052 C36.36,24.7480035 36.364,23.4560164 36.364,20.176 C36.364,20.1039996 36.3560001,20.0060006 36.34,19.882 C36.3239999,19.7579994 36.316,19.6680003 36.316,19.612 C36.316,19.4599992 36.3559996,19.3280006 36.436,19.216 C36.5320005,19.0719993 36.683999,19 36.892,19 C37.1080011,19 37.3339988,19.0659993 37.57,19.198 C37.8060012,19.3300007 37.9479998,19.4559994 37.996,19.576 C38.0280002,19.6560004 38.044,19.7359996 38.044,19.816 C38.044,19.8960004 38.0120003,20.0079993 37.948,20.152 C37.8839997,20.2960007 37.852,20.4159995 37.852,20.512 L37.852,22.168 C38.3560025,21.0959946 38.7359987,20.3880017 38.992,20.044 C39.4480023,19.451997 39.9639971,19.1759998 40.54,19.216 C40.8840017,19.2400001 41.1279993,19.5599969 41.272,20.176 C41.3840006,20.6400023 41.444,21.3279954 41.452,22.24 L41.452,24.4 C41.4680001,24.4560003 41.5239995,24.5559993 41.62,24.7 C41.6760003,24.7800004 41.7,24.8799994 41.692,25 Z M44.38,16.768 C44.4040001,16.7920001 44.416,16.8319997 44.416,16.888 C44.416,16.9600004 44.3920002,17.0839991 44.344,17.26 C44.2879997,17.4760011 44.2520001,17.6239996 44.236,17.704 C44.2199999,17.7840004 44.2279998,17.9599986 44.26,18.232 C44.26,18.4000008 44.2100005,18.5099997 44.11,18.562 C44.0099995,18.6140003 43.8840008,18.64 43.732,18.64 C43.5159989,18.64 43.2960011,18.5960004 43.072,18.508 C42.7999986,18.3959994 42.664,18.2480009 42.664,18.064 C42.664,18.0079997 42.6879998,17.9300005 42.736,17.83 C42.7840002,17.7299995 42.812,17.6480003 42.82,17.584 C42.8360001,17.5199997 42.8360001,17.3600013 42.82,17.104 C42.8039999,16.903999 42.8439995,16.7680004 42.94,16.696 C43.0680006,16.5999995 43.2959984,16.552 43.624,16.552 C43.9840018,16.552 44.2359993,16.6239993 44.38,16.768 Z M44.536,19.696 C44.536,19.8080006 44.4740006,19.9819988 44.35,20.218 C44.2259994,20.4540012 44.164,20.6479992 44.164,20.8 L44.164,24.328 C44.164,24.4880008 44.2079996,24.7139985 44.296,25.006 C44.3840004,25.2980015 44.428,25.4999994 44.428,25.612 C44.428,25.7720008 44.3640006,25.8919996 44.236,25.972 C44.035999,26.1000006 43.8200012,26.164 43.588,26.164 C43.2839985,26.164 43.0680006,26.060001 42.94,25.852 C42.7719992,25.5959987 42.688,24.8320064 42.688,23.56 C42.688,23.2559985 42.6939999,22.7820032 42.706,22.138 C42.7180001,21.4939968 42.724,21.0240015 42.724,20.728 C42.724,20.6159994 42.7120001,20.4700009 42.688,20.29 C42.6639999,20.1099991 42.652,19.9800004 42.652,19.9 C42.652,19.6359987 42.747999,19.408001 42.94,19.216 C43.0200004,19.1359996 43.1679989,19.096 43.384,19.096 C43.6000011,19.096 43.8159989,19.1299997 44.032,19.198 C44.2480011,19.2660003 44.3859997,19.3439996 44.446,19.432 C44.5060003,19.5200004 44.536,19.6079996 44.536,19.696 Z M51.028,25 C51.0119999,25.1760009 50.8960011,25.3259994 50.68,25.45 C50.4639989,25.5740006 50.2240013,25.636 49.96,25.636 C49.567998,25.636 49.3000007,25.5120012 49.156,25.264 C49.2200003,22.7999877 49.148001,21.5520002 48.94,21.52 C48.739999,21.4879998 48.2520039,22.5919888 47.476,24.832 L47.476,25.552 C47.468,25.8400014 47.3900007,26.0439994 47.242,26.164 C47.0939993,26.2840006 46.9360008,26.344 46.768,26.344 C46.4799986,26.344 46.1720016,26.1880016 45.844,25.876 C45.7479995,25.7959996 45.696,25.1880057 45.688,24.052 C45.696,24.7480035 45.7,23.4560164 45.7,20.176 C45.7,20.1039996 45.6920001,20.0060006 45.676,19.882 C45.6599999,19.7579994 45.652,19.6680003 45.652,19.612 C45.652,19.4599992 45.6919996,19.3280006 45.772,19.216 C45.8680005,19.0719993 46.019999,19 46.228,19 C46.4440011,19 46.6699988,19.0659993 46.906,19.198 C47.1420012,19.3300007 47.2839998,19.4559994 47.332,19.576 C47.3640002,19.6560004 47.38,19.7359996 47.38,19.816 C47.38,19.8960004 47.3480003,20.0079993 47.284,20.152 C47.2199997,20.2960007 47.188,20.4159995 47.188,20.512 L47.188,22.168 C47.6920025,21.0959946 48.0719987,20.3880017 48.328,20.044 C48.7840023,19.451997 49.2999971,19.1759998 49.876,19.216 C50.2200017,19.2400001 50.4639993,19.5599969 50.608,20.176 C50.7200006,20.6400023 50.78,21.3279954 50.788,22.24 L50.788,24.4 C50.8040001,24.4560003 50.8599995,24.5559993 50.956,24.7 C51.0120003,24.7800004 51.036,24.8799994 51.028,25 Z M56.044,19.396 C56.0600001,20.0840034 56.0959997,21.2159921 56.152,22.792 C56.1840002,23.9040056 56.2,24.6999976 56.2,25.18 C56.2,26.2360053 56.1160008,26.9559981 55.948,27.34 C55.7799992,27.7240019 55.4400026,27.9359998 54.928,27.976 C54.2879968,28.0320003 53.7240024,27.864002 53.236,27.472 C52.9959988,27.3999996 52.8440003,27.3440002 52.78,27.304 C52.6439993,27.2239996 52.5560002,27.088001 52.516,26.896 C52.4439996,26.5199981 52.7399967,26.332 53.404,26.332 C53.5720008,26.332 53.7319992,26.3519998 53.884,26.392 C53.9960006,26.4160001 54.1199993,26.5099992 54.256,26.674 C54.3920007,26.8380008 54.5199994,26.924 54.64,26.932 C54.8720012,26.9480001 54.988,26.6200034 54.988,25.948 C54.988,25.6599986 54.9680002,25.1920032 54.928,24.544 C54.6399986,25.0320024 54.4320006,25.3479993 54.304,25.492 C54.0399987,25.7640014 53.7320018,25.9 53.38,25.9 C52.8839975,25.9 52.4840015,25.5560034 52.18,24.868 C51.8999986,24.2359968 51.76,23.4680045 51.76,22.564 C51.76,21.6359954 51.9079985,20.8520032 52.204,20.212 C52.5400017,19.4919964 53.003997,19.1240001 53.596,19.108 C53.9160016,19.1 54.1519992,19.1639993 54.304,19.3 C54.4560008,19.4360007 54.6039993,19.5759993 54.748,19.72 C54.6439995,19.4319986 54.6679992,19.2160007 54.82,19.072 C54.9080004,18.9839996 55.0399991,18.94 55.216,18.94 C55.3840008,18.94 55.5519992,18.9839996 55.72,19.072 C55.8880008,19.1600004 55.9959998,19.2679994 56.044,19.396 Z M54.604,22.456 C54.6360002,21.9919977 54.5800007,21.5520021 54.436,21.136 C54.2759992,20.6719977 54.0680013,20.44 53.812,20.44 C53.603999,20.44 53.4200008,20.6719977 53.26,21.136 C53.1159993,21.5520021 53.0360001,21.9919977 53.02,22.456 C53.0039999,22.9440024 53.0399996,23.383998 53.128,23.776 C53.2400006,24.2400023 53.395999,24.472 53.596,24.472 C53.7720009,24.472 53.9759988,24.2460023 54.208,23.794 C54.4400012,23.3419977 54.5719998,22.8960022 54.604,22.456 Z"/>
    <circle cx="22" cy="56" r="2" fill="#0A3586" transform="rotate(90 22 56)"/>
    <rect width="52" height="10" x="11" y="53" fill="#FFAF40" rx="2"/>
    <path stroke="#9F5757" stroke-linecap="square" stroke-width="2" d="M19 54L19 62M24 54L24 62M46 54L46 62"/>
    <path stroke="#FFF" stroke-linecap="square" stroke-width="2" d="M27,58 L43,58"/>
    <rect width="52" height="10" x="11" y="43" fill="#5B68C0" rx="2"/>
    <path stroke="#9ACCFF" stroke-linecap="square" stroke-width="2" d="M29 44L29 52M34 44L34 52M56 44L56 52"/>
    <path stroke="#FFF" stroke-linecap="square" stroke-width="2" d="M37,48 L53,48"/>
  </g>
</svg>
