<svg xmlns="http://www.w3.org/2000/svg" width="64" height="64" viewBox="0 0 64 64">
  <g fill="none" fill-rule="evenodd">
    <path stroke="#979797" stroke-linecap="round" stroke-width="2" d="M29.5860629,17.8719888 L26.0489984,17.8719888 C24.3914522,17.8719888 23.0477455,19.2160231 23.0477455,20.8721647 L23.0477455,54.0595524 C23.0477455,57.3730331 20.364617,60.0591399 17.048772,60.0591399 L15.0448789,60.0591399 C11.7317373,60.0591399 9.04590531,57.3796329 9.04590531,54.0495847 L9.04590531,42.1611691"/>
    <path stroke="#979797" stroke-linecap="round" stroke-width="2" d="M3,35 C3,38.3137085 5.6862915,41 9,41 L9,41 C12.3137085,41 15,38.3137085 15,35"/>
    <rect width="58" height="32" x="14" y="16" fill="#D8D8D8" rx="2" transform="rotate(90 43 32)"/>
    <circle cx="43" cy="58" r="2" fill="#868686" transform="rotate(90 43 58)"/>
    <rect width="49" height="28" x="18.5" y="16.5" fill="#0A3586" rx="1" transform="rotate(90 43 30.5)"/>
    <path fill="#D8D8D8" d="M4.5,24 L3,24 C1.88772964,24 1,24.8918564 1,25.992017 L1,35 L5,35 L5,30 L8,30 L8,24 L4.5,24 Z"/>
    <path fill="#D8D8D8" d="M13.5,24 L12,24 C10.8877296,24 10,24.8918564 10,25.992017 L10,35 L14,35 L14,30 L17,30 L17,24 L13.5,24 Z" transform="matrix(-1 0 0 1 27 0)"/>
  </g>
</svg>
