<svg xmlns="http://www.w3.org/2000/svg" xmlns:xlink="http://www.w3.org/1999/xlink" width="64" height="64" viewBox="0 0 64 64">
  <defs>
    <path id="earthedu-a" d="M36.6661127,17.0051965 C36.6661127,17.0051965 30.8380926,14.6267342 29.1021564,15.8159654 C27.3662202,17.0051965 28.2935842,22.6205727 28.2935842,22.6205727 C28.2935842,22.6205727 25.7064158,26.3284459 27,28.278609 C28.2935842,30.228772 31.8868737,29.5584107 33.9056789,31.2785955 C35.924484,32.9987803 35.0857217,36.0860558 35.0857217,36.0860558 L34.5974281,39.6905025 C34.5974281,39.6905025 40.0047545,37.2674113 41.562831,33.7765059 C43.1209076,30.2856006 42.6162063,24.8126434 42.6162063,24.8126434 L45.7723943,21.951138 L44.9351825,15.1094767 L38.8083039,9.80069457 L37.7352394,5 L30.7704928,6.9741762 L30.1410929,12.210206 L35.4904638,13.9813469 L36.6661127,17.0051965 Z"/>
    <path id="earthedu-b" d="M6,20.0403062 C6,20.0403062 7.29365493,18.8883787 7.46631997,18.8700479 C8.79098603,18.7294161 13.4069966,19.1227088 14.6139095,16.6790115 C15.9781386,13.9167879 17.1153394,10.2591197 17.1153394,10.2591197 L17.0696455,7.44486544 L9.936464,5 L6,20.0403062 Z"/>
  </defs>
  <g fill="none" fill-rule="evenodd">
    <g transform="translate(9 16)">
      <circle cx="24" cy="24" r="24" fill="#5EA7FF"/>
      <use fill="#E8E8E8" xlink:href="#earthedu-a"/>
      <use fill="#E8E8E8" xlink:href="#earthedu-b"/>
    </g>
    <path fill="#595959" d="M49,22 L49,10 L17,10 L17,22 C17,23.6568542 24.163444,25 33,25 C41.836556,25 49,23.6568542 49,22 Z"/>
    <polygon fill="#868686" points="9 9.907 33.718 1 58.02 9.907 33.718 17.301"/>
    <polygon fill="#F1BE27" fill-rule="nonzero" points="32.582 8.981 32.199 7.019 15 10.376 15 34.096 17 34.096 17 12.023"/>
    <polygon fill="#FF462B" fill-rule="nonzero" points="17.002 35.322 17.849 36.958 19.625 36.039 17.015 30.995 15.004 31.003 12.393 36.047 14.169 36.966 15.002 35.357 15 37.999 17 38"/>
    <path fill="#E8E8E8" d="M22.3711462,58.0749846 L23.201819,48.9010865 L16.5283337,43.7922297 C16.5283337,43.7922297 16.1429248,39.7038303 20.9868131,39.126082 C25.8307014,38.5483338 28.815065,41.5443765 28.815065,41.5443765 C28.815065,41.5443765 30.7380945,44.5202895 30.0209275,46.5419173 C29.3037605,48.5635451 27.4482505,51.590919 27.4482505,51.590919 C27.4482505,51.590919 27.3010659,55.0301833 26.0434792,56.6362709 C24.7858924,58.2423586 22.3711462,58.0749846 22.3711462,58.0749846 Z"/>
  </g>
</svg>
