<svg xmlns="http://www.w3.org/2000/svg" xmlns:xlink="http://www.w3.org/1999/xlink" width="64" height="64" viewBox="0 0 64 64">
  <defs>
    <circle id="earthleag-a" cx="18" cy="18" r="18"/>
  </defs>
  <g fill="none" fill-rule="evenodd">
    <path fill="#80D25B" d="M15.2349531,18.2523426 C17.9963769,18.2523426 20.2349531,15.9104475 20.2349531,13.0215734 C20.2349531,10.1326993 15.2349531,1.25234263 15.2349531,1.25234263 C15.2349531,1.25234263 10.2349531,10.1326993 10.2349531,13.0215734 C10.2349531,15.9104475 12.4735294,18.2523426 15.2349531,18.2523426 Z" transform="rotate(39 15.235 9.752)"/>
    <g transform="translate(13 13)">
      <mask id="earthleag-b" fill="#fff">
        <use xlink:href="#earthleag-a"/>
      </mask>
      <use fill="#80D25B" xlink:href="#earthleag-a"/>
      <path fill="#22BA8E" d="M27.3232659 12.9977108C27.3232659 12.9977108 23.0673031 11.2150898 21.7996205 12.1064003 20.5319378 12.9977108 21.2091535 17.2063492 21.2091535 17.2063492 21.2091535 17.2063492 19.3198511 19.9853433 20.2645023 21.4469607 21.2091535 22.908578 23.8331847 22.4061524 25.3074348 23.6954046 26.781685 24.9846567 26.1691715 27.2985224 26.1691715 27.2985224L25.8125908 30C25.8125908 30 29.7613383 28.1839302 30.8991373 25.5675502 32.0369364 22.9511701 31.6683739 18.8492726 31.6683739 18.8492726L33.9732078 16.7046181 36 9.95878678 28.8876198 7.59804701 28.104005 4 23.0179377 5.47961481 22.5583129 9.40393893 26.4647379 10.7313818 27.3232659 12.9977108zM-1 15C-1 15 .513000503 14.0809276.714941762 14.0663022 2.26421148 13.9540984 7.66288946 14.2678893 9.07444031 12.3181705 10.6699813 10.1143136 12 7.19602072 12 7.19602072L11.9465585 4.95065079 3.60391089 3-1 15z" mask="url(#earthleag-b)"/>
    </g>
    <path stroke="#22BA8E" stroke-linecap="round" stroke-width="2" d="M31,4 C16.0883118,4 4,16.0883118 4,31 C4,45.9116882 16.0883118,58 31,58 L31,58 C45.9116882,58 58,45.9116882 58,31" transform="rotate(-45 31 31)"/>
  </g>
</svg>
