<svg xmlns="http://www.w3.org/2000/svg" xmlns:xlink="http://www.w3.org/1999/xlink" width="64" height="64" viewBox="0 0 64 64">
  <defs>
    <circle id="earthmagnify-a" cx="24" cy="24" r="24"/>
    <circle id="earthmagnify-c" cx="13" cy="13" r="13"/>
  </defs>
  <g fill="none" fill-rule="evenodd">
    <g transform="translate(4 3)">
      <mask id="earthmagnify-b" fill="#fff">
        <use xlink:href="#earthmagnify-a"/>
      </mask>
      <use fill="#80D25B" xlink:href="#earthmagnify-a"/>
      <path fill="#22BA8E" d="M36.6661127 17.0051965C36.6661127 17.0051965 30.8380926 14.6267342 29.1021564 15.8159654 27.3662202 17.0051965 28.2935842 22.6205727 28.2935842 22.6205727 28.2935842 22.6205727 25.7064158 26.3284459 27 28.278609 28.2935842 30.228772 31.8868737 29.5584107 33.9056789 31.2785955 35.924484 32.9987803 35.0857217 36.0860558 35.0857217 36.0860558L34.5974281 39.6905025C34.5974281 39.6905025 40.0047545 37.2674113 41.562831 33.7765059 43.1209076 30.2856006 42.6162063 24.8126434 42.6162063 24.8126434L45.7723943 21.951138 48.5478382 12.9505118 38.8083039 9.80069457 37.7352394 5 30.7704928 6.9741762 30.1410929 12.210206 35.4904638 13.9813469 36.6661127 17.0051965zM-1.81078594 20.0403062C-1.81078594 20.0403062.159155298 18.784322.422084765 18.7643353 2.43924887 18.611 9.46837964 19.0398197 11.3062324 16.3753768 13.3836422 13.3636342 15.1153394 9.3755591 15.1153394 9.3755591L15.045758 6.30708574 4.18355042 3.6413691-1.81078594 20.0403062z" mask="url(#earthmagnify-b)"/>
    </g>
    <path fill="#22BA8E" d="M17.3711462,45.0749846 L18.201819,35.9010865 L11.5283337,30.7922297 C11.5283337,30.7922297 11.1429248,26.7038303 15.9868131,26.126082 C20.8307014,25.5483338 23.815065,28.5443765 23.815065,28.5443765 C23.815065,28.5443765 25.7380945,31.5202895 25.0209275,33.5419173 C24.3037605,35.5635451 22.4482505,38.590919 22.4482505,38.590919 C22.4482505,38.590919 22.3010659,42.0301833 21.0434792,43.6362709 C19.7858924,45.2423586 17.3711462,45.0749846 17.3711462,45.0749846 Z"/>
    <rect width="3" height="27" x="47.107" y="36.107" fill="#BD7575" transform="rotate(-45 48.607 49.607)"/>
    <g transform="translate(23 23)">
      <mask id="earthmagnify-d" fill="#fff">
        <use xlink:href="#earthmagnify-c"/>
      </mask>
      <use fill="#E3F4FF" stroke="#B4DFFB" stroke-width="2" xlink:href="#earthmagnify-c"/>
      <rect width="4" height="37" x="6.982" y="-7.479" fill="#B5DFFB" mask="url(#earthmagnify-d)" transform="rotate(30 8.982 11.021)"/>
    </g>
  </g>
</svg>
