<svg xmlns="http://www.w3.org/2000/svg" xmlns:xlink="http://www.w3.org/1999/xlink" width="64" height="64" viewBox="0 0 64 64">
  <defs>
    <circle id="earthgreen-a" cx="18" cy="18" r="18"/>
  </defs>
  <g fill="none" fill-rule="evenodd">
    <g transform="translate(6 23)">
      <mask id="earthgreen-b" fill="#fff">
        <use xlink:href="#earthgreen-a"/>
      </mask>
      <use fill="#80D25B" xlink:href="#earthgreen-a"/>
      <path fill="#22BA8E" d="M27.3232659 12.9977108C27.3232659 12.9977108 23.0673031 11.2150898 21.7996205 12.1064003 20.5319378 12.9977108 21.2091535 17.2063492 21.2091535 17.2063492 21.2091535 17.2063492 19.3198511 19.9853433 20.2645023 21.4469607 21.2091535 22.908578 23.8331847 22.4061524 25.3074348 23.6954046 26.781685 24.9846567 26.1691715 27.2985224 26.1691715 27.2985224L25.8125908 30C25.8125908 30 29.7613383 28.1839302 30.8991373 25.5675502 32.0369364 22.9511701 31.6683739 18.8492726 31.6683739 18.8492726L33.9732078 16.7046181 36 9.95878678 28.8876198 7.59804701 28.104005 4 23.0179377 5.47961481 22.5583129 9.40393893 26.4647379 10.7313818 27.3232659 12.9977108zM-1 15C-1 15 .513000503 14.0809276.714941762 14.0663022 2.26421148 13.9540984 7.66288946 14.2678893 9.07444031 12.3181705 10.6699813 10.1143136 12 7.19602072 12 7.19602072L11.9465585 4.95065079 3.60391089 3-1 15z" mask="url(#earthgreen-b)"/>
    </g>
    <g transform="rotate(13 44.665 151.542)">
      <path fill="#80D25B" d="M15.435675,31 C20.301337,31 25,26.2163013 25,21.3131203 C25,16.4099394 17.1226939,3 17.1226939,3 C17.1226939,3 7.62882483,15.3918301 7.05405343,20.6592359 C6.47928203,25.9266417 10.570013,31 15.435675,31 Z" transform="rotate(36 16 17)"/>
      <path stroke="#22BA8E" stroke-linecap="round" stroke-width="2" d="M22,10 C22,10 12.8859478,15.6488685 9.57160406,26.0527799 C8.71883296,28.7296763 7.43565096,30.6395938 6,32"/>
      <polyline stroke="#22BA8E" stroke-linecap="round" stroke-width="2" points="17 24 10.935 23.715 8 18"/>
      <polyline stroke="#22BA8E" stroke-linecap="round" stroke-width="2" points="19 18 14.459 17.197 13 14"/>
    </g>
  </g>
</svg>
