<svg xmlns="http://www.w3.org/2000/svg" xmlns:xlink="http://www.w3.org/1999/xlink" width="64" height="64" viewBox="0 0 64 64">
  <defs>
    <ellipse id="eartharrows2-a" cx="12.659" cy="12" rx="12.245" ry="12"/>
  </defs>
  <g fill="none" fill-rule="evenodd">
    <g transform="translate(20 20)">
      <mask id="eartharrows2-b" fill="#fff">
        <use xlink:href="#eartharrows2-a"/>
      </mask>
      <use fill="#5EA7FF" xlink:href="#eartharrows2-a"/>
      <path fill="#E8E8E8" d="M19.1208667 8.50259826C19.1208667 8.50259826 16.147387 7.31336711 15.2617053 7.90798269 14.3760235 8.50259826 14.8491684 11.3102864 14.8491684 11.3102864 14.8491684 11.3102864 13.5291846 13.164223 14.1891765 14.1393045 14.8491684 15.114386 16.6824794 14.7792053 17.712482 15.6392977 18.7424847 16.4993901 18.3145447 18.0430279 18.3145447 18.0430279L18.0654153 19.8452513C18.0654153 19.8452513 20.8242553 18.6337056 21.6191923 16.888253 22.4141294 15.1428003 22.1566287 12.4063217 22.1566287 12.4063217L23.7669287 10.975569 25.1829715 6.47525592 20.2138214 4.90034729 19.6663395 2.5 16.1128973 3.4870881 15.7917749 6.10510302 18.5210458 6.99067343 19.1208667 8.50259826zM-.510204082 10.0201531C-.510204082 10.0201531.494867978 9.392161.629015665 9.38216767 1.65818102 9.30549998 5.24447223 9.51990986 6.18215224 8.18768841 7.24205517 6.68181709 8.12557413 4.68777955 8.12557413 4.68777955L8.09007346 3.15354287 2.5481308 1.82068455-.510204082 10.0201531zM7.23567964 21.0374923L7.6594923 16.4505432 4.25465287 13.8961148C4.25465287 13.8961148 4.05801571 11.8519152 6.52938727 11.563041 9.00075883 11.2741669 10.5233933 12.7721882 10.5233933 12.7721882 10.5233933 12.7721882 11.5045308 14.2601447 11.1386293 15.2709586 10.7727278 16.2817725 9.82603902 17.7954595 9.82603902 17.7954595 9.82603902 17.7954595 9.7509448 19.5150916 9.10931893 20.3181355 8.46769305 21.1211793 7.23567964 21.0374923 7.23567964 21.0374923z" mask="url(#eartharrows2-b)"/>
    </g>
    <path fill="#D650C7" d="M31,7 L34,7 L34,18 L31,18 L31,7 Z M32.5,2 L37,7 L28,7 L32.5,2 Z M49.4705627,13.4081169 L51.5918831,15.5294373 L43.8137085,23.3076118 L41.6923882,21.1862915 L49.4705627,13.4081169 Z M58,31 L58,34 L47,34 L47,31 L58,31 Z M51.5918831,49.4705627 L49.4705627,51.5918831 L41.6923882,43.8137085 L43.8137085,41.6923882 L51.5918831,49.4705627 Z M34,58 L31,58 L31,47 L34,47 L34,58 Z M15.5294373,51.5918831 L13.4081169,49.4705627 L21.1862915,41.6923882 L23.3076118,43.8137085 L15.5294373,51.5918831 Z M7,34 L7,31 L18,31 L18,34 L7,34 Z M13.4081169,15.5294373 L15.5294373,13.4081169 L23.3076118,21.1862915 L21.1862915,23.3076118 L13.4081169,15.5294373 Z M54.0667568,10.9332432 L53.7132034,17.6507576 L47.3492424,11.2867966 L54.0667568,10.9332432 Z M63,32.5 L58,37 L58,28 L63,32.5 Z M54.0667568,54.0667568 L47.3492424,53.7132034 L53.7132034,47.3492424 L54.0667568,54.0667568 Z M32.5,63 L28,58 L37,58 L32.5,63 Z M10.9332432,54.0667568 L11.2867966,47.3492424 L17.6507576,53.7132034 L10.9332432,54.0667568 Z M2,32.5 L7,28 L7,37 L2,32.5 Z M10.9332432,10.9332432 L17.6507576,11.2867966 L11.2867966,17.6507576 L10.9332432,10.9332432 Z"/>
  </g>
</svg>
