<svg xmlns="http://www.w3.org/2000/svg" xmlns:xlink="http://www.w3.org/1999/xlink" width="64" height="64" viewBox="0 0 64 64">
  <defs>
    <circle id="earthglobe-a" cx="18" cy="18" r="18"/>
    <path id="earthglobe-b" d="M33.4472591,8.75443355 C34.2659598,10.1193595 34.9088789,11.6017756 35.3447195,13.1703847 L34.3292957,16.4633535 L31.9621547,18.6094825 C31.9621547,18.6094825 32.3406807,22.7142004 31.1721233,25.3323794 C30.0035659,27.9505584 25.9480711,29.7678769 25.9480711,29.7678769 L26.3142913,27.0645419 C26.3142913,27.0645419 26.943363,24.7490852 25.4292591,23.4589466 C23.9151553,22.168808 21.2201882,22.671579 20.25,21.2089567 C19.2798118,19.7463344 21.2201882,16.9654295 21.2201882,16.9654295 C21.2201882,16.9654295 20.5246651,12.7538974 21.8266173,11.861974 C23.1285694,10.9700507 27.4995846,12.7538974 27.4995846,12.7538974 L26.6178479,10.4860101 L22.6058196,9.15765453 L23.0778696,5.23063215 L28.3014296,3.75 L29.106228,7.35052093 L33.4472591,8.75443355 Z"/>
  </defs>
  <g fill="none" fill-rule="evenodd">
    <g transform="translate(15 8)">
      <use fill="#5EA7FF" xlink:href="#earthglobe-a"/>
      <use fill="#E8E8E8" xlink:href="#earthglobe-b"/>
      <path fill="#E8E8E8" d="M7.07116731,3.69635623 L11.2843185,4.73031431 L11.3365045,7.03166932 C11.3365045,7.03166932 10.0377316,10.0227256 8.47967433,12.2815326 C7.13419446,14.2321536 2.07895318,13.9722849 0.431249489,14.0657235 C1.36710153,9.86823048 3.76877968,6.22340252 7.07116731,3.69635623 Z"/>
    </g>
    <polygon fill="#56E287" fill-rule="nonzero" points="32 46 32 58 34 58 34 46"/>
    <rect width="16" height="4" x="25" y="58" fill="#BD7575"/>
    <path fill="#56E287" fill-rule="nonzero" d="M55,26 C55,38.1502645 45.1502645,48 33,48 C29.502753,48 26.1960999,47.1839708 23.2600615,45.7319333 L24.1466735,43.9391926 C26.8751092,45.2885588 29.8847052,46 33,46 C44.045695,46 53,37.045695 53,26 C53,14.954305 44.045695,6 33,6 L33,4 C45.1502645,4 55,13.8497355 55,26 Z M55,26 C55,38.1502645 45.1502645,48 33,48 C29.502753,48 26.1960999,47.1839708 23.2600615,45.7319333 L24.1466735,43.9391926 C26.8751092,45.2885588 29.8847052,46 33,46 C44.045695,46 53,37.045695 53,26 C53,14.954305 44.045695,6 33,6 L33,4 C45.1502645,4 55,13.8497355 55,26 Z"/>
    <path fill="#E8E8E8" d="M25.2826114,38.9963366 L25.8907144,32.2465189 L21.0053176,28.4876094 C21.0053176,28.4876094 20.7231749,25.4795151 24.2691955,25.0544291 C27.8152161,24.6293431 29.9999516,26.8337215 29.9999516,26.8337215 C29.9999516,26.8337215 31.4077261,29.0232891 30.8827163,30.5107287 C30.3577064,31.9981683 28.9993604,34.2255989 28.9993604,34.2255989 C28.9993604,34.2255989 28.8916123,36.7560835 27.9709824,37.9377839 C27.0503525,39.1194843 25.2826114,38.9963366 25.2826114,38.9963366 Z"/>
  </g>
</svg>
