<svg xmlns="http://www.w3.org/2000/svg" width="64" height="64" viewBox="0 0 64 64">
  <g fill="none" fill-rule="evenodd">
    <path stroke="#22BA8E" stroke-width="6" d="M8,31 C8,44.254834 18.745166,55 32,55 L32,55 C38.627417,55 44.627417,52.3137085 48.9705627,47.9705627 M56,31 C56,17.745166 45.254834,7 32,7 C25.372583,7 19.372583,9.6862915 15.0294373,14.0294373"/>
    <path fill="#22BA8E" d="M35,17 C39.1310598,18.9113197 42,23.1179169 42,28 C42,32.8820831 39.1310598,37.0886803 35,39 C30.8689402,37.0886803 28,32.8820831 28,28 C28,23.1179169 30.8689402,18.9113197 35,17 Z" transform="rotate(30 35 28)"/>
    <polygon fill="#22BA8E" points="8 17 15 31 1 31"/>
    <polygon fill="#22BA8E" points="56 45 49 31 63 31"/>
    <path stroke="#BD7575" stroke-linecap="round" stroke-width="2" d="M30,36 C30,36 26.875,39.9941207 28.4375,42"/>
    <path stroke="#80D25B" stroke-linecap="round" stroke-width="2" d="M30 35C30 35 32.589881 29.2441733 34.2025731 26.6754719 35.8152652 24.1067705 40 19 40 19M36 23.9996279L41 24.0003721M32 29L29 26M31 32.8054775L37 32.1945225"/>
  </g>
</svg>
