<svg xmlns="http://www.w3.org/2000/svg" width="64" height="64" viewBox="0 0 64 64">
  <g fill="none" fill-rule="evenodd">
    <path stroke="#5EA7FF" stroke-linecap="round" stroke-width="4" d="M42.5692798,8.89277275 C39.6216992,7.67314368 36.3896291,7 33,7 C26.8102242,7 21.1458468,9.24467388 16.7797872,12.9627598 C15.4193575,14.121286 14.1849811,15.4228652 13.1000405,16.844165 M8,31.9463864 C8,38.8351408 10.7982203,45.0717374 15.3223305,49.5861454 C17.6251147,51.8839911 20.3750489,53.7356459 23.4307202,55 M42.5692798,55 C45.6249511,53.7356459 48.3748853,51.8839911 50.6776695,49.5861454 C55.2017797,45.0717374 58,38.8351408 58,31.9463864 C58,28.5640265 57.3254096,25.3388877 56.1031594,22.3976284"/>
    <polygon fill="#ED9111" points="33 37.5 26.534 40.899 27.769 33.7 22.538 28.601 29.767 27.55 33 21 36.233 27.55 43.462 28.601 38.231 33.7 39.466 40.899"/>
    <polygon fill="#B4DFFB" points="50 5 57 19 43 19" transform="rotate(118 50 12)"/>
    <polygon fill="#B4DFFB" points="40 48 47 62 33 62" transform="rotate(-105 40 55)"/>
    <polygon fill="#B4DFFB" points="8 21 15 35 1 35"/>
  </g>
</svg>
