<svg xmlns="http://www.w3.org/2000/svg" width="64" height="64" viewBox="0 0 64 64">
  <g fill="none" fill-rule="evenodd">
    <polygon fill="#0A3586" points="12 5 19 5 19 56.455 12 56.455"/>
    <path fill="#C7857A" d="M19,5 L51.0000796,5 C52.1046051,5 53,5.894703 53,7.00020325 L53,57.8324082 C53,58.93709 52.1080589,59.8326115 51.0000796,59.8326115 L19,59.8326115 L19,5 Z"/>
    <circle cx="23" cy="24" r="3" fill="#FFF"/>
    <circle cx="49" cy="42" r="3" fill="#FFF"/>
    <circle cx="43" cy="19" r="3" fill="#FFF"/>
    <path fill="#ECECEC" d="M12,56.5 C12,54.5670034 13.5571833,53 15.4956369,53 L53,53 L53,60 L15.4956369,60 C13.56505,60 12,58.4290634 12,56.5 L12,56.5 Z"/>
    <polygon fill="#FFF" fill-rule="nonzero" points="35.87 32.524 42.883 21.305 47.76 42.962 49.711 42.523 43.765 16.119 35.759 28.93 31.567 23.068 22.87 23.068 22.87 25.068 30.539 25.068"/>
  </g>
</svg>
