<svg xmlns="http://www.w3.org/2000/svg" width="64" height="64" viewBox="0 0 64 64">
  <g fill="none" fill-rule="evenodd">
    <rect width="54" height="33" x="5" y="11" fill="#DAD71E"/>
    <rect width="60" height="4" x="2" y="7" fill="#BD7575" rx="2"/>
    <rect width="60" height="4" x="2" y="44" fill="#BD7575" rx="2"/>
    <rect width="4" height="11" x="30" y="48" fill="#9D4C4C"/>
    <rect width="12" height="4" x="26" y="57" fill="#BD7575"/>
    <path fill="#FB3A3A" d="M21.89,23.12 C21.956667,23.4266682 21.8366682,23.7066654 21.53,23.96 C21.2766654,24.160001 21.0300012,24.359999 20.79,24.56 L18.25,27.96 L21.05,32.06 C21.1966674,32.2200008 21.3433326,32.3733326 21.49,32.52 C21.690001,32.7333344 21.79,32.9266658 21.79,33.1 C21.79,33.2066672 21.7500004,33.3133328 21.67,33.42 C21.5633328,33.5666674 21.17667,33.7999984 20.51,34.12 C19.8966636,34.4400016 19.4966676,34.6199998 19.31,34.66 C18.9233314,34.66 18.6833338,34.4866684 18.59,34.14 C18.4299992,33.5533304 17.7300062,32.3200094 16.49,30.44 L14.73,33.32 C14.663333,33.5733346 14.6033336,33.8199988 14.55,34.06 C14.4433328,34.4466686 14.2633346,34.6599998 14.01,34.7 C13.7566654,34.7400002 13.2500038,34.626668 12.49,34.36 C11.689996,34.0799986 11.2166674,33.8266678 11.07,33.6 C11.0166664,33.5199996 10.99,33.4400004 10.99,33.36 C10.99,33.1866658 11.1166654,32.9800012 11.37,32.74 C11.703335,32.3933316 11.8766666,32.2066668 11.89,32.18 L14.61,28.04 L12.15,24.2 C11.9633324,24.0799994 11.770001,23.8733348 11.57,23.58 C11.5566666,23.4199992 11.8899966,23.1200022 12.57,22.68 C13.2500034,22.2399978 13.7299986,22.0000002 14.01,21.96 C14.2633346,21.9199998 14.4333329,21.9799992 14.52,22.14 C14.6066671,22.3000008 14.683333,22.4666658 14.75,22.64 L16.49,25.64 L18.41,22.76 C18.476667,22.5733324 18.543333,22.3933342 18.61,22.22 C18.6633336,22.0999994 18.8966646,22.0200002 19.31,21.98 C19.510001,21.9666666 19.9799963,22.1133318 20.72,22.42 C21.4600037,22.7266682 21.8499998,22.9599992 21.89,23.12 Z M31.09,25.98 C30.9699994,26.0733338 30.4033384,26.12 29.39,26.12 C29.0966652,26.12 28.6433364,26.1133334 28.03,26.1 L26.69,26.1 C25.9033294,26.1 25.410001,26.1266664 25.21,26.18 C25.076666,26.18 24.9066677,26.2299995 24.7,26.33 C24.4933323,26.4300005 24.323334,26.4733334 24.19,26.46 C24.0699994,26.4466666 23.8966678,26.4000004 23.67,26.32 C23.4966658,26.1999994 23.243335,25.8200032 22.91,25.18 C22.576665,24.5399968 22.4299998,24.0800014 22.47,23.8 C22.5100002,23.5066652 22.7566644,23.3133338 23.21,23.22 C23.7300026,23.1133328 24.3633296,23.0466668 25.11,23.02 C25.6300026,23.0066666 26.3166624,23.0066666 27.17,23.02 C28.2100052,23.0333334 28.863332,23.04 29.13,23.04 C29.2500006,23.04 29.3833326,23.0000004 29.53,22.92 C29.6766674,22.8399996 29.7966662,22.8 29.89,22.8 C29.9166668,22.8 30.0233324,22.7933334 30.21,22.78 C30.3300006,22.7666666 30.423333,22.7666666 30.49,22.78 C30.5833338,22.8066668 30.6499998,22.8666662 30.69,22.96 C31.1300022,23.826671 31.35,24.5866634 31.35,25.24 C31.35,25.6000018 31.2633342,25.846666 31.09,25.98 Z M30.95,30.46 C30.7633324,30.526667 30.5433346,30.5533334 30.29,30.54 C30.1966662,30.54 30.0000015,30.506667 29.7,30.44 C29.3999985,30.373333 29.150001,30.34 28.95,30.34 L25.89,30.34 C25.756666,30.3533334 25.590001,30.426666 25.39,30.56 C25.189999,30.693334 25.0100008,30.7533334 24.85,30.74 C24.583332,30.7133332 24.3700008,30.5633347 24.21,30.29 C24.0499992,30.0166653 23.8966674,29.746668 23.75,29.48 C23.6033326,29.2933324 23.4533341,29.0966677 23.3,28.89 C23.1466659,28.6833323 23.07,28.5200006 23.07,28.4 C23.0566666,28.1599988 23.1299992,27.940001 23.29,27.74 C23.4500008,27.539999 23.629999,27.4200002 23.83,27.38 C24.0833346,27.3933334 24.509997,27.4 25.11,27.4 C25.6300026,27.3599998 26.156664,27.3200002 26.69,27.28 C27.7833388,27.213333 28.6499968,27.18 29.29,27.18 C29.95667,27.18 30.3433328,27.2199996 30.45,27.3 C30.6900012,27.4866676 30.9033324,27.8733304 31.09,28.46 C31.2500008,28.993336 31.33,29.4533314 31.33,29.84 C31.33,30.1466682 31.2033346,30.3533328 30.95,30.46 Z M41.93,33.7 C41.9166666,33.8866676 41.8366674,34.046666 41.69,34.18 C41.5433326,34.313334 41.3766676,34.3666668 41.19,34.34 C39.5366584,34.1133322 38.6166676,33.800002 38.43,33.4 C38.4033332,33.3466664 38.39,33.2933336 38.39,33.24 C38.39,33.173333 38.4199997,33.1000004 38.48,33.02 C38.5400003,32.9399996 38.5766666,32.8700003 38.59,32.81 C38.6033334,32.7499997 38.6299998,32.6933336 38.67,32.64 C38.6966668,32.5333328 38.7033334,32.3000018 38.69,31.94 C38.5299992,32.0600006 38.2900016,32.3799974 37.97,32.9 C37.636665,33.4733362 37.3433346,33.8733322 37.09,34.1 C36.6633312,34.500002 36.1766694,34.7 35.63,34.7 C35.3099984,34.7 34.9966682,34.5733346 34.69,34.32 C34.5433326,34.1999994 34.2833352,33.940002 33.91,33.54 C33.2699968,32.8199964 32.9233336,32.426667 32.87,32.36 C32.5899986,31.9866648 32.45,31.633335 32.45,31.3 C32.45,31.1933328 32.4633332,31.0866672 32.49,30.98 C32.7433346,29.8066608 33.5299934,28.6933386 34.85,27.64 C35.8100048,26.8799962 37.1699912,26.0733376 38.93,25.22 C38.93,24.7933312 38.8233344,24.5200006 38.61,24.4 C38.476666,24.3199996 38.010004,24.4699981 37.21,24.85 C36.409996,25.2300019 35.8500016,25.553332 35.53,25.82 C35.4233328,25.9266672 35.2500012,26.0733324 35.01,26.26 C34.7833322,26.393334 34.5766676,26.4333336 34.39,26.38 C34.2433326,26.3399998 33.9300024,26.1000022 33.45,25.66 C32.9699976,25.2199978 32.7100002,24.9266674 32.67,24.78 C32.5633328,24.4199982 32.676665,24.140001 33.01,23.94 C33.0233334,23.9266666 33.2899974,23.8466674 33.81,23.7 L35.29,22.9 C36.3300052,22.4066642 37.2099964,22.1400002 37.93,22.1 C38.2366682,22.0866666 38.5833314,22.246665 38.97,22.58 C39.3166684,22.8866682 39.6666649,23.1899985 40.02,23.49 C40.3733351,23.7900015 40.7366648,24.0799986 41.11,24.36 C41.5366688,24.7333352 41.75,25.0933316 41.75,25.44 L41.75,33 C41.883334,33.3466684 41.9433334,33.5799994 41.93,33.7 Z M38.73,27.86 C38.0766634,28.1133346 37.516669,28.4999974 37.05,29.02 C36.7033316,29.4466688 36.3566684,29.8666646 36.01,30.28 C35.7299986,30.5600014 35.4666679,30.9233311 35.22,31.37 C34.9733321,31.8166689 34.85,32.1466656 34.85,32.36 C34.85,32.4666672 34.8899996,32.52 34.97,32.52 C35.2500014,32.52 35.8766618,31.9166727 36.85,30.71 C37.8233382,29.5033273 38.4499986,28.5533368 38.73,27.86 Z M52.47,24.04 C52.7766682,24.6800032 52.93,25.4733286 52.93,26.42 C52.93,27.6733396 52.6833358,29.0266594 52.19,30.48 C51.7099976,31.8400068 51.1633364,32.9066628 50.55,33.68 C50.483333,33.9066678 50.4433334,34.0466664 50.43,34.1 C50.3766664,34.2466674 50.2966672,34.3666662 50.19,34.46 C50.0033324,34.6066674 49.6900022,34.6866666 49.25,34.7 C48.8633314,34.7 48.4833352,34.5800012 48.11,34.34 C48.0699998,34.3133332 47.7633362,34.0800022 47.19,33.64 C47.2033334,33.7333338 47.2499996,33.879999 47.33,34.08 C47.3700002,34.213334 47.3700002,34.3333328 47.33,34.44 C47.2233328,34.7333348 47.0500012,34.8933332 46.81,34.92 C46.5033318,34.9466668 45.950004,34.8433345 45.15,34.61 C44.349996,34.3766655 43.8900006,34.1666676 43.77,33.98 C43.6899996,33.8599994 43.749999,33.6266684 43.95,33.28 C44.016667,33.1599994 44.05,32.8800022 44.05,32.44 L44.05,19 C44.05,18.933333 43.9866673,18.8100009 43.86,18.63 C43.7333327,18.4499991 43.6833332,18.293334 43.71,18.16 C43.7900004,17.7333312 44.063331,17.52 44.53,17.52 C44.9700022,17.52 45.5466631,17.6466654 46.26,17.9 C46.9733369,18.1533346 47.3899994,18.413332 47.51,18.68 C47.5633336,18.8000006 47.5200007,19.0133318 47.38,19.32 C47.2399993,19.6266682 47.1566668,19.879999 47.13,20.08 L47.13,23.36 C48.2100054,22.2799946 49.0766634,21.7799996 49.73,21.86 C50.1833356,21.9133336 50.6699974,22.139998 51.19,22.54 C51.7633362,22.9533354 52.1899986,23.4533304 52.47,24.04 Z M50.13,24.16 C49.6233308,24.360001 49.0500032,24.7666636 48.41,25.38 C47.7699968,25.9933364 47.3633342,26.5066646 47.19,26.92 L47.19,32.32 C47.2833338,32.4266672 47.4433322,32.546666 47.67,32.68 C48.1100022,32.7600004 48.6433302,31.7800102 49.27,29.74 C49.8833364,27.7533234 50.19,26.1133398 50.19,24.82 C50.19,24.553332 50.1700002,24.3333342 50.13,24.16 Z"/>
  </g>
</svg>
