<svg xmlns="http://www.w3.org/2000/svg" width="64" height="64" viewBox="0 0 64 64">
  <g fill="none" fill-rule="evenodd">
    <rect width="54" height="33" x="5" y="11" fill="#5B68C0"/>
    <rect width="60" height="4" x="2" y="7" fill="#BD7575" rx="2"/>
    <rect width="60" height="4" x="2" y="44" fill="#BD7575" rx="2"/>
    <rect width="4" height="11" x="30" y="48" fill="#9D4C4C"/>
    <rect width="12" height="4" x="26" y="57" fill="#BD7575"/>
    <path fill="#FFF" d="M26.48,34.18 C26.4666666,34.3666676 26.3866674,34.526666 26.24,34.66 C26.0933326,34.793334 25.9266676,34.8466668 25.74,34.82 C24.0866584,34.5933322 23.1666676,34.280002 22.98,33.88 C22.9533332,33.8266664 22.94,33.7733336 22.94,33.72 C22.94,33.653333 22.9699997,33.5800004 23.03,33.5 C23.0900003,33.4199996 23.1266666,33.3500003 23.14,33.29 C23.1533334,33.2299997 23.1799998,33.1733336 23.22,33.12 C23.2466668,33.0133328 23.2533334,32.7800018 23.24,32.42 C23.0799992,32.5400006 22.8400016,32.8599974 22.52,33.38 C22.186665,33.9533362 21.8933346,34.3533322 21.64,34.58 C21.2133312,34.980002 20.7266694,35.18 20.18,35.18 C19.8599984,35.18 19.5466682,35.0533346 19.24,34.8 C19.0933326,34.6799994 18.8333352,34.420002 18.46,34.02 C17.8199968,33.2999964 17.4733336,32.906667 17.42,32.84 C17.1399986,32.4666648 17,32.113335 17,31.78 C17,31.6733328 17.0133332,31.5666672 17.04,31.46 C17.2933346,30.2866608 18.0799934,29.1733386 19.4,28.12 C20.3600048,27.3599962 21.7199912,26.5533376 23.48,25.7 C23.48,25.2733312 23.3733344,25.0000006 23.16,24.88 C23.026666,24.7999996 22.560004,24.9499981 21.76,25.33 C20.959996,25.7100019 20.4000016,26.033332 20.08,26.3 C19.9733328,26.4066672 19.8000012,26.5533324 19.56,26.74 C19.3333322,26.873334 19.1266676,26.9133336 18.94,26.86 C18.7933326,26.8199998 18.4800024,26.5800022 18,26.14 C17.5199976,25.6999978 17.2600002,25.4066674 17.22,25.26 C17.1133328,24.8999982 17.226665,24.620001 17.56,24.42 C17.5733334,24.4066666 17.8399974,24.3266674 18.36,24.18 L19.84,23.38 C20.8800052,22.8866642 21.7599964,22.6200002 22.48,22.58 C22.7866682,22.5666666 23.1333314,22.726665 23.52,23.06 C23.8666684,23.3666682 24.2166649,23.6699985 24.57,23.97 C24.9233351,24.2700015 25.2866648,24.5599986 25.66,24.84 C26.0866688,25.2133352 26.3,25.5733316 26.3,25.92 L26.3,33.48 C26.433334,33.8266684 26.4933334,34.0599994 26.48,34.18 Z M23.28,28.34 C22.6266634,28.5933346 22.066669,28.9799974 21.6,29.5 C21.2533316,29.9266688 20.9066684,30.3466646 20.56,30.76 C20.2799986,31.0400014 20.0166679,31.4033311 19.77,31.85 C19.5233321,32.2966689 19.4,32.6266656 19.4,32.84 C19.4,32.9466672 19.4399996,33 19.52,33 C19.8000014,33 20.4266618,32.3966727 21.4,31.19 C22.3733382,29.9833273 22.9999986,29.0333368 23.28,28.34 Z M36.04,26.46 C35.9199994,26.5533338 35.3533384,26.6 34.34,26.6 C34.0466652,26.6 33.5933364,26.5933334 32.98,26.58 L31.64,26.58 C30.8533294,26.58 30.360001,26.6066664 30.16,26.66 C30.026666,26.66 29.8566677,26.7099995 29.65,26.81 C29.4433323,26.9100005 29.273334,26.9533334 29.14,26.94 C29.0199994,26.9266666 28.8466678,26.8800004 28.62,26.8 C28.4466658,26.6799994 28.193335,26.3000032 27.86,25.66 C27.526665,25.0199968 27.3799998,24.5600014 27.42,24.28 C27.4600002,23.9866652 27.7066644,23.7933338 28.16,23.7 C28.6800026,23.5933328 29.3133296,23.5266668 30.06,23.5 C30.5800026,23.4866666 31.2666624,23.4866666 32.12,23.5 C33.1600052,23.5133334 33.813332,23.52 34.08,23.52 C34.2000006,23.52 34.3333326,23.4800004 34.48,23.4 C34.6266674,23.3199996 34.7466662,23.28 34.84,23.28 C34.8666668,23.28 34.9733324,23.2733334 35.16,23.26 C35.2800006,23.2466666 35.373333,23.2466666 35.44,23.26 C35.5333338,23.2866668 35.5999998,23.3466662 35.64,23.44 C36.0800022,24.306671 36.3,25.0666634 36.3,25.72 C36.3,26.0800018 36.2133342,26.326666 36.04,26.46 Z M35.9,30.94 C35.7133324,31.006667 35.4933346,31.0333334 35.24,31.02 C35.1466662,31.02 34.9500015,30.986667 34.65,30.92 C34.3499985,30.853333 34.100001,30.82 33.9,30.82 L30.84,30.82 C30.706666,30.8333334 30.540001,30.906666 30.34,31.04 C30.139999,31.173334 29.9600008,31.2333334 29.8,31.22 C29.533332,31.1933332 29.3200008,31.0433347 29.16,30.77 C28.9999992,30.4966653 28.8466674,30.226668 28.7,29.96 C28.5533326,29.7733324 28.4033341,29.5766677 28.25,29.37 C28.0966659,29.1633323 28.02,29.0000006 28.02,28.88 C28.0066666,28.6399988 28.0799992,28.420001 28.24,28.22 C28.4000008,28.019999 28.579999,27.9000002 28.78,27.86 C29.0333346,27.8733334 29.459997,27.88 30.06,27.88 C30.5800026,27.8399998 31.106664,27.8000002 31.64,27.76 C32.7333388,27.693333 33.5999968,27.66 34.24,27.66 C34.90667,27.66 35.2933328,27.6999996 35.4,27.78 C35.6400012,27.9666676 35.8533324,28.3533304 36.04,28.94 C36.2000008,29.473336 36.28,29.9333314 36.28,30.32 C36.28,30.6266682 36.1533346,30.8333328 35.9,30.94 Z M46.22,24.52 C46.5266682,25.1600032 46.68,25.9533286 46.68,26.9 C46.68,28.1533396 46.4333358,29.5066594 45.94,30.96 C45.4599976,32.3200068 44.9133364,33.3866628 44.3,34.16 C44.233333,34.3866678 44.1933334,34.5266664 44.18,34.58 C44.1266664,34.7266674 44.0466672,34.8466662 43.94,34.94 C43.7533324,35.0866674 43.4400022,35.1666666 43,35.18 C42.6133314,35.18 42.2333352,35.0600012 41.86,34.82 C41.8199998,34.7933332 41.5133362,34.5600022 40.94,34.12 C40.9533334,34.2133338 40.9999996,34.359999 41.08,34.56 C41.1200002,34.693334 41.1200002,34.8133328 41.08,34.92 C40.9733328,35.2133348 40.8000012,35.3733332 40.56,35.4 C40.2533318,35.4266668 39.700004,35.3233345 38.9,35.09 C38.099996,34.8566655 37.6400006,34.6466676 37.52,34.46 C37.4399996,34.3399994 37.499999,34.1066684 37.7,33.76 C37.766667,33.6399994 37.8,33.3600022 37.8,32.92 L37.8,19.48 C37.8,19.413333 37.7366673,19.2900009 37.61,19.11 C37.4833327,18.9299991 37.4333332,18.773334 37.46,18.64 C37.5400004,18.2133312 37.813331,18 38.28,18 C38.7200022,18 39.2966631,18.1266654 40.01,18.38 C40.7233369,18.6333346 41.1399994,18.893332 41.26,19.16 C41.3133336,19.2800006 41.2700007,19.4933318 41.13,19.8 C40.9899993,20.1066682 40.9066668,20.359999 40.88,20.56 L40.88,23.84 C41.9600054,22.7599946 42.8266634,22.2599996 43.48,22.34 C43.9333356,22.3933336 44.4199974,22.619998 44.94,23.02 C45.5133362,23.4333354 45.9399986,23.9333304 46.22,24.52 Z M43.88,24.64 C43.3733308,24.840001 42.8000032,25.2466636 42.16,25.86 C41.5199968,26.4733364 41.1133342,26.9866646 40.94,27.4 L40.94,32.8 C41.0333338,32.9066672 41.1933322,33.026666 41.42,33.16 C41.8600022,33.2400004 42.3933302,32.2600102 43.02,30.22 C43.6333364,28.2333234 43.94,26.5933398 43.94,25.3 C43.94,25.033332 43.9200002,24.8133342 43.88,24.64 Z"/>
  </g>
</svg>
