<svg xmlns="http://www.w3.org/2000/svg" width="64" height="64" viewBox="0 0 64 64">
  <g fill="none" fill-rule="evenodd">
    <polyline fill="#595959" points="43.295 8.15 50.749 5.981 45.517 11.53 52.156 10.283 47.641 13.881"/>
    <path fill="#ED9111" d="M17,18.0057135 C17,10.8228563 22.813511,5 29.9925566,5 L36.0074434,5 C43.1830343,5 49,10.8253567 49,18.0057135 L49,32 L17,32 L17,18.0057135 Z"/>
    <circle cx="39" cy="13" r="4" fill="#FFDD95"/>
    <circle cx="38.5" cy="12.5" r="1.5" fill="#595959"/>
    <path fill="#FFDD95" d="M32,62 C46.4870673,62 53,53.1208272 53,36 C49.4669174,30.8544503 47.0474947,26.1114599 47.0474947,26.1114599 L37.2562536,31.7394033 L29.9389171,14.1922737 L21.2377428,31.7394033 L14.5638002,19.0387322 C14.5638002,19.0387322 11,29.8644834 11,36 C11,53.1208272 17.5129327,62 32,62 Z"/>
  </g>
</svg>
