<svg xmlns="http://www.w3.org/2000/svg" width="64" height="64" viewBox="0 0 64 64">
  <g fill="none" fill-rule="evenodd">
    <path fill="#595959" d="M4 44L16 44 16 62.0052288C16 62.5546258 15.544239 63 14.9975267 63L5.00247329 63C4.44882258 63 4 62.5490746 4 62.0052288L4 44zM48 44L60 44 60 62.0052288C60 62.5546258 59.544239 63 58.9975267 63L49.0024733 63C48.4488226 63 48 62.5490746 48 62.0052288L48 44z"/>
    <path fill="#B4DFFB" stroke="#ED9111" stroke-linecap="round" stroke-width="2" d="M12.3711017,25.9348588 C12.7184326,24.313981 14.3157786,22.7091828 15.9427546,22.3972219 C15.9427546,22.3972219 21,21 32,21 C43,21 48.0723587,22.3999341 48.0723587,22.3999341 C49.6892503,22.7313413 51.2822327,24.317086 51.6288983,25.9348588 L54,37 L10,37 L12.3711017,25.9348588 Z"/>
    <polygon fill="#5EA7FF" points="38.622 5 31.328 5 25 18.467 31.509 18.467 26.862 30 40 14.617 32.751 14.617"/>
    <path fill="#ED9111" d="M3.71780829,43.9726036 C3.32137372,39.0171715 7.03239867,35 11.9988624,35 L52.0011376,35 C56.9710721,35 60.6786654,39.0166825 60.2821917,43.9726036 L59.3987243,55.015946 C59.178515,57.768563 56.7824659,59.7400895 54.0286526,59.4518815 C54.0286526,59.4518815 45.5000217,58.2639083 32.0000145,58.2639083 C18.5000074,58.2639083 9.95932405,59.4530727 9.95932405,59.4530727 C7.22036501,59.7551323 4.82075324,57.7594154 4.60127568,55.015946 L3.71780829,43.9726036 Z"/>
    <rect width="18" height="8" x="23" y="46" fill="#5B68C0" rx="3"/>
    <rect width="11" height="2" x="9" y="53" fill="#ECECEC"/>
    <rect width="11" height="2" x="45" y="53" fill="#ECECEC"/>
    <path fill="#ECECEC" d="M7.3274374,45.9646244 C7.14659872,44.8795923 7.88158174,44.1602876 8.96657956,44.3575599 L16.0334204,45.6424401 C17.1195323,45.839915 18,46.8877296 18,48 L18,48 C18,49.1045695 17.1125667,50 16.000385,50 L9.99961498,50 C8.89525812,50 7.85244656,49.1146793 7.6725626,48.0353756 L7.3274374,45.9646244 Z"/>
    <path fill="#ECECEC" d="M46.3274374,45.9646244 C46.1465987,44.8795923 46.8815817,44.1602876 47.9665796,44.3575599 L55.0334204,45.6424401 C56.1195323,45.839915 57,46.8877296 57,48 L57,48 C57,49.1045695 56.1125667,50 55.000385,50 L48.999615,50 C47.8952581,50 46.8524466,49.1146793 46.6725626,48.0353756 L46.3274374,45.9646244 Z" transform="matrix(-1 0 0 1 103 0)"/>
    <path fill="#ED9111" d="M55,31.532984 C55,30.429567 55.8629578,29.7747813 56.9307258,30.0713836 L64,32.0350708 L64,33.5396981 C64,34.641712 63.1041422,35.5350708 62.0026083,35.5350708 L55,35.5350708 L55,31.532984 Z"/>
    <path fill="#ED9111" d="M0,31.532984 C0,30.429567 0.862957835,29.7747813 1.9307258,30.0713836 L9,32.0350708 L9,33.5396981 C9,34.641712 8.10414219,35.5350708 7.0026083,35.5350708 L0,35.5350708 L0,31.532984 Z" transform="matrix(-1 0 0 1 9 0)"/>
    <path fill="#ED9111" d="M27,34.9979131 C27,33.8944962 27.8874333,33 28.999615,33 L35.000385,33 C36.1047419,33 37,33.8982606 37,34.9979131 L37,39 L27,39 L27,34.9979131 Z"/>
  </g>
</svg>
