<svg xmlns="http://www.w3.org/2000/svg" width="64" height="64" viewBox="0 0 64 64">
  <g fill="none" fill-rule="evenodd">
    <rect width="45" height="8" x="10" y="19" fill="#979797"/>
    <path fill="#D8D8D8" d="M19 5.00012623C19 3.34320226 20.3465171 2 22 2L22 2C23.6568542 2 25 3.33396149 25 5.00012623L25 19 19 19 19 5.00012623zM40 5.00012623C40 3.34320226 41.3465171 2 43 2L43 2C44.6568542 2 46 3.33396149 46 5.00012623L46 19 40 19 40 5.00012623z"/>
    <path fill="#5EA7FF" d="M14,27 L51,27 L51,51.9981215 C51,54.208298 49.2154131,56 47.0051972,56 L17.9948028,56 C15.7885341,56 14,54.2078053 14,51.9981215 L14,27 Z"/>
    <rect width="4" height="7" x="31" y="56" fill="#D8D8D8"/>
    <circle cx="33" cy="41" r="7" fill="#B4DFFB"/>
  </g>
</svg>
