<svg xmlns="http://www.w3.org/2000/svg" width="64" height="64" viewBox="0 0 64 64">
  <g fill="none" fill-rule="evenodd">
    <polygon fill="#5B68C0" points="40.192 7.808 44.192 7.808 46.192 34.808 38.192 34.808" transform="rotate(45 42.192 21.308)"/>
    <path fill="#80D25B" d="M13.1256313,27.2552944 C13.1256313,26.1494845 14.0275817,25.2530483 15.1341615,25.2530483 L23.1171011,25.2530483 C24.2263817,25.2530483 25.1256313,26.1420657 25.1256313,27.2552944 L25.1256313,61.4934429 C25.1256313,62.5992529 24.223681,63.495689 23.1171011,63.495689 L15.1341615,63.495689 C14.0248809,63.495689 13.1256313,62.6066717 13.1256313,61.4934429 L13.1256313,27.2552944 Z" transform="rotate(45 19.126 44.374)"/>
    <path stroke="#5B68C0" stroke-linecap="square" stroke-width="2" d="M22.1611652,35.0961941 L25.3937248,35.0961941" transform="rotate(45 24.161 35.096)"/>
    <path stroke="#5B68C0" stroke-linecap="square" stroke-width="2" d="M17.9185245,39.3388348 L21.1510841,39.3388348" transform="rotate(45 19.919 39.339)"/>
    <path stroke="#5B68C0" stroke-linecap="square" stroke-width="2" d="M13.6758839,43.5814755 L16.9084434,43.5814755" transform="rotate(45 15.676 43.581)"/>
    <path stroke="#5B68C0" stroke-linecap="square" stroke-width="2" d="M9.43324317,47.8241161 L12.6658027,47.8241161" transform="rotate(45 11.433 47.824)"/>
    <circle cx="53" cy="10" r="7" fill="#5EA7FF"/>
    <circle cx="51" cy="8" r="1" fill="#D8D8D8"/>
    <circle cx="51" cy="12" r="1" fill="#D8D8D8"/>
    <circle cx="55" cy="8" r="1" fill="#D8D8D8"/>
    <circle cx="55" cy="12" r="1" fill="#D8D8D8"/>
  </g>
</svg>
