<svg xmlns="http://www.w3.org/2000/svg" width="64" height="64" viewBox="0 0 64 64">
  <g fill="none" fill-rule="evenodd">
    <rect width="36" height="55" x="6" y="5" fill="#ECECEC" rx="2"/>
    <polygon fill="#5EA7FF" points="30.622 28 23.328 28 17 41.467 23.509 41.467 18.862 53 32 37.617 24.751 37.617"/>
    <path fill="#ED9111" d="M37,21 C37,13.8202983 31.1797017,8 24,8 C16.8202983,8 11,13.8202983 11,21 L37,21 Z"/>
    <path stroke="#E43535" stroke-linecap="round" stroke-linejoin="round" stroke-width="2" d="M24,21 L24,11"/>
    <path stroke="#E43535" stroke-linecap="round" stroke-width="2" d="M13.827183 17.0200004L16.2990783 18.0266104M18 12L19.54421 14.4383366"/>
    <path stroke="#E43535" stroke-linecap="round" stroke-width="2" d="M31.827183,17.0200004 L34.2990783,18.0266104" transform="matrix(-1 0 0 1 66.126 0)"/>
    <path stroke="#E43535" stroke-linecap="round" stroke-width="2" d="M28,12 L29.54421,14.4383366" transform="matrix(-1 0 0 1 57.544 0)"/>
    <path stroke="#979797" stroke-linecap="round" stroke-width="2" d="M41.3895427,23.9373945 L44.0453432,23.9373945 C45.1513642,23.9373945 46.0479714,24.8404042 46.0479714,25.9404782 L46.0479714,52.1070352 C46.0479714,53.2133078 46.9416358,54.1101189 48.0404726,54.1101189 L53.0334342,54.1101189 C54.1338622,54.1101189 55.0259353,53.2062958 55.0259353,52.1162255 L55.0259353,16.0270135"/>
    <path fill="#D8D8D8" d="M50,7 L60,7 L60,12 C60,14.7614237 57.7558048,17 55,17 L55,17 C52.2385763,17 50,14.7558048 50,12 L50,7 Z"/>
    <path stroke="#979797" stroke-linecap="square" stroke-width="2" d="M53 6L53 4M57 6L57 4"/>
  </g>
</svg>
