<svg xmlns="http://www.w3.org/2000/svg" width="64" height="64" viewBox="0 0 64 64">
  <path fill="#595959" fill-rule="evenodd" d="M37.6875,49 L32,62 L26.3125,49 L6,49 L6,5 L58,5 L58,49 L37.6875,49 Z M32,40 C39.7319865,40 46,33.7319865 46,26 C46,18.2680135 39.7319865,12 32,12 C24.2680135,12 18,18.2680135 18,26 C18,33.7319865 24.2680135,40 32,40 Z M23.008774,27.1321779 C22.9357741,26.5847389 23.3203831,26.0817738 23.8678221,26.008774 C24.4152611,25.9357741 24.9182262,26.3203831 24.991226,26.8678221 C25.4567595,30.3589422 28.4607703,33 32.0336316,33 C35.4687445,33 38.3941105,30.555079 39.0171562,27.2349881 C39.1190194,26.6921785 39.64163,26.3347208 40.1844397,26.436584 C40.7272494,26.5384472 41.0847071,27.0610579 40.9828438,27.6038675 C40.1828531,31.8668651 36.434034,35 32.0336316,35 C27.4565966,35 23.6065679,31.6151426 23.008774,27.1321779 Z"/>
</svg>
