<svg xmlns="http://www.w3.org/2000/svg" width="64" height="64" viewBox="0 0 64 64">
  <g fill="none" fill-rule="evenodd">
    <rect width="58" height="58" x="3" y="3" fill="#5B68C0" rx="6"/>
    <path fill="#FFF" d="M32,46 C24.2680135,46 18,39.7319865 18,32 C18,24.2680135 24.2680135,18 32,18 C39.7319865,18 46,24.2680135 46,32 C46,39.7319865 39.7319865,46 32,46 Z M23.008774,33.1321779 C23.6065679,37.6151426 27.4565966,41 32.0336316,41 C36.434034,41 40.1828531,37.8668651 40.9828438,33.6038675 C41.0847071,33.0610579 40.7272494,32.5384472 40.1844397,32.436584 C39.64163,32.3347208 39.1190194,32.6921785 39.0171562,33.2349881 C38.3941105,36.555079 35.4687445,39 32.0336316,39 C28.4607703,39 25.4567595,36.3589422 24.991226,32.8678221 C24.9182262,32.3203831 24.4152611,31.9357741 23.8678221,32.008774 C23.3203831,32.0817738 22.9357741,32.5847389 23.008774,33.1321779 Z"/>
  </g>
</svg>
