<svg xmlns="http://www.w3.org/2000/svg" width="64" height="64" viewBox="0 0 64 64">
  <g fill="none" fill-rule="evenodd">
    <polygon fill="#5B68C0" points="36 25 63 25 63 28 36 28"/>
    <rect width="4" height="14" x="37" y="10" fill="#4796E7" rx="1"/>
    <rect width="4" height="14" x="44" y="10" fill="#4796E7" rx="1"/>
    <rect width="4" height="14" x="52" y="10" fill="#4796E7" rx="1"/>
    <rect width="4" height="14" x="59" y="10" fill="#4796E7" rx="1"/>
    <path fill="#5B68C0" d="M48.6430685 1.2058818C49.1166143.926005076 49.8907995.929796869 50.3579297 1.2058818L62.6879919 8.49323835C63.1615378 8.77311508 63.1041981 9 62.54569 9L36.4553082 9C35.9031711 9 35.845876 8.76932329 36.3130063 8.49323835L48.6430685 1.2058818zM1 51.9206814C1 49.707202 2.77500008 47.6994337 4.96927149 47.4356406L24.875 45.0425936 44.7807285 47.4356406C46.9728966 47.6991808 48.75 49.7006188 48.75 51.9206814L48.75 64.0425936 1 64.0425936 1 51.9206814z"/>
    <path fill="#FFDD95" d="M16.9659091,42.0820517 C12.997906,38.3171352 10.375,32.2233999 10.375,27.1331692 C10.375,19.1250403 16.8668711,12.6331692 24.875,12.6331692 C32.8831289,12.6331692 39.375,19.1250403 39.375,27.1331692 C39.375,32.2233999 36.752094,38.3171352 32.7840909,42.0820517 L32.7840909,50.9058965 C32.7840909,50.9058965 27.4224889,52.8154815 24.875,52.8154815 C22.3275111,52.8154815 16.9659091,50.9058965 16.9659091,50.9058965 L16.9659091,42.0820517 Z"/>
    <circle cx="10.875" cy="30" r="3" fill="#FFDD95"/>
    <circle cx="38.875" cy="30" r="3" fill="#FFDD95"/>
    <path fill="#FFAF40" d="M6.875,15.5 C6.875,12.4624339 9.33285189,10 12.3759961,10 L38.875,10 L38.875,15.5 C38.875,18.5375661 36.4171481,21 33.3740039,21 L6.875,21 L6.875,15.5 Z" transform="matrix(-1 0 0 1 45.75 0)"/>
  </g>
</svg>
