<svg xmlns="http://www.w3.org/2000/svg" width="64" height="64" viewBox="0 0 64 64">
  <g fill="none" fill-rule="evenodd">
    <rect width="4" height="14" x="37" y="10" fill="#4796E7" rx="1"/>
    <polygon fill="#5B68C0" points="36 25 63 25 63 28 36 28"/>
    <rect width="32" height="33" x="8.875" y="18" fill="#BD7575"/>
    <rect width="4" height="14" x="44" y="10" fill="#4796E7" rx="1"/>
    <rect width="4" height="14" x="52" y="10" fill="#4796E7" rx="1"/>
    <rect width="4" height="14" x="59" y="10" fill="#4796E7" rx="1"/>
    <path fill="#5B68C0" d="M48.6430685,1.2058818 C49.1166143,0.926005076 49.8907995,0.929796869 50.3579297,1.2058818 L62.6879919,8.49323835 C63.1615378,8.77311508 63.1041981,9 62.54569,9 L36.4553082,9 C35.9031711,9 35.845876,8.76932329 36.3130063,8.49323835 L48.6430685,1.2058818 Z"/>
    <path fill="#FF78C7" d="M1,50.9206814 C1,48.707202 2.77500008,46.6994337 4.96927149,46.4356406 L24.875,44.0425936 L44.7807285,46.4356406 C46.9728966,46.6991808 48.75,48.7006188 48.75,50.9206814 L48.75,63.0425936 L1,63.0425936 L1,50.9206814 Z"/>
    <path fill="#FFDD95" d="M18.6704545,42.4906185 C13.7663848,39.0068513 10.375,31.9212508 10.375,26.1331692 C10.375,18.1250403 16.8668711,11.6331692 24.875,11.6331692 C32.8831289,11.6331692 39.375,18.1250403 39.375,26.1331692 C39.375,31.9212508 35.9836152,39.0068513 31.0795455,42.4906185 L31.0795455,49.9058965 C31.0795455,49.9058965 26.8734611,51.8154815 24.875,51.8154815 C22.8765389,51.8154815 18.6704545,49.9058965 18.6704545,49.9058965 L18.6704545,42.4906185 Z"/>
    <circle cx="11.875" cy="29" r="3" fill="#FFDD95"/>
    <circle cx="37.875" cy="29" r="3" fill="#FFDD95"/>
    <path fill="#BD7575" d="M8.875,15.5 C8.875,11.9101491 11.7854073,9 15.3699533,9 L34.3800467,9 C37.9671104,9 40.875,11.9174538 40.875,15.5 L40.875,22 L24.875,16.079188 L8.875,22 L8.875,15.5 Z"/>
  </g>
</svg>
