<svg xmlns="http://www.w3.org/2000/svg" width="64" height="64" viewBox="0 0 64 64">
  <g fill="none" fill-rule="evenodd">
    <path fill="#B6B6B6" d="M6,27 L60,27 L60,59 L6,59 L6,27 Z M33,12 L60,27 L6,27 L33,12 Z"/>
    <polygon fill="#B4DFFB" points="13 5 42.105 5 53 16.753 53 55 13 55"/>
    <polygon fill="#4796E7" points="42 5 53 5 53 17" transform="rotate(-180 47.5 11)"/>
    <polygon fill="#D8D8D8" points="31 46.5 6 59 6 27"/>
    <polygon fill="#D8D8D8" points="60 46.5 35 59 35 27" transform="matrix(-1 0 0 1 95 0)"/>
    <polygon fill="#ECECEC" points="33 44 60 59 6 59"/>
    <path fill="#22BA8E" d="M33,43 C36.8659932,43 40,39.8315536 40,35.9230769 C40,32.0146002 33,20 33,20 C33,20 26,32.0146002 26,35.9230769 C26,39.8315536 29.1340068,43 33,43 Z"/>
    <path stroke="#80D25B" stroke-linecap="square" stroke-width="2" d="M33,52 L33,36"/>
  </g>
</svg>
