<svg xmlns="http://www.w3.org/2000/svg" width="64" height="64" viewBox="0 0 64 64">
  <g fill="none" fill-rule="evenodd">
    <path fill="#FFDD95" d="M8,9 L56,9 L56,54.9928103 C56,57.2059201 54.2059475,59 51.9901068,59 L12.0098932,59 C9.79529033,59 8,57.2057317 8,54.9928103 L8,9 Z"/>
    <path fill="#FFAF40" d="M8,9 L56,9 L53.8396564,19.0816033 C53.375927,21.2456741 51.2087482,23 48.9918888,23 L15.0081112,23 C12.7944925,23 10.6261137,21.2551973 10.1603436,19.0816033 L8,9 Z"/>
    <path stroke="#BD7575" stroke-linecap="round" d="M29.5360188,17.1804489 L34.2653053,28.8246957"/>
    <path stroke="#BD7575" stroke-linecap="round" d="M29.5360188,17.1804489 L34.2653053,28.8246957" transform="matrix(-1 0 0 1 63.801 0)"/>
    <circle cx="32" cy="17" r="3" fill="#FFF"/>
    <circle cx="32" cy="29" r="3" fill="#FFF"/>
  </g>
</svg>
