<svg xmlns="http://www.w3.org/2000/svg" width="64" height="64" viewBox="0 0 64 64">
  <g fill="none" fill-rule="evenodd">
    <rect width="31" height="50" x="16.138" y="5.638" fill="#22BA8E" rx="7" transform="rotate(45 31.638 30.638)"/>
    <rect width="31" height="19" x="15.784" y="21.491" fill="#DAD71E" transform="rotate(45 31.284 30.991)"/>
    <path fill="#FFF" fill-rule="nonzero" d="M8.29289322 39.7071068L18.3461063 49.7603199C18.7366306 50.1508442 19.3697956 50.1508442 19.7603199 49.7603199 20.1508442 49.3697956 20.1508442 48.7366306 19.7603199 48.3461063L9.70710678 38.2928932C9.31658249 37.9023689 8.68341751 37.9023689 8.29289322 38.2928932 7.90236893 38.6834175 7.90236893 39.3165825 8.29289322 39.7071068zM8.29289322 34.7071068L14.2928932 40.7071068C14.6834175 41.0976311 15.3165825 41.0976311 15.7071068 40.7071068 16.0976311 40.3165825 16.0976311 39.6834175 15.7071068 39.2928932L9.70710678 33.2928932C9.31658249 32.9023689 8.68341751 32.9023689 8.29289322 33.2928932 7.90236893 33.6834175 7.90236893 34.3165825 8.29289322 34.7071068z"/>
  </g>
</svg>
