<svg xmlns="http://www.w3.org/2000/svg" width="64" height="64" viewBox="0 0 64 64">
  <g fill="none" fill-rule="evenodd">
    <path stroke="#BD7575" stroke-linecap="round" stroke-width="2" d="M54.8414725 37.5787966L51.2585469 21.0491703M54.2257757 39.0010942L62.0730655 19.2526505"/>
    <path fill="#FFAF40" d="M14.6278307,47.5384252 L7.21508002,52.25431 L48.6122459,52.25431 C52.7846756,52.25431 56.1670981,48.8643997 56.1670981,44.7016908 L56.1670981,37.1490715 L45.4950204,37.1490715 L14.6278307,47.5384252 Z"/>
    <path fill="#BD7575" d="M47.5811403,37.9111673 C47.5811403,37.9111673 47.2976762,29.9526065 41.2174858,21.8696273 C35.1372953,13.786648 32.7423426,12.6455765 29.3439553,12.6455765 C25.9455681,12.6455765 20.3359956,10.8158907 13.4751318,14.2396926 C6.6142681,17.6634946 4.04406855,21.8281902 2.60813805,26.1962035 C1.17220756,30.5642168 3.98267316,39.672642 10.2341366,43.4776644 C12.1025594,44.6149006 11.632894,49.6318222 24.7861544,49.0147727 C37.9394149,48.3977233 47.5811403,37.9111673 47.5811403,37.9111673 Z"/>
    <path stroke="#9C4D4D" stroke-linecap="round" stroke-width="2" d="M46.5772929,37.3100679 C46.5772929,37.3100679 43.6422966,5.02974529 16.1834611,13.5095353 C-11.2753743,21.9893252 8.54260668,49.1153463 20.7205614,49.1153463 C32.8985162,49.1153463 44.2398267,33.0996213 29.7504725,25.2383895 C16.9892219,18.3147443 9.52716995,36.7189426 18.2661431,39.5823871 C27.0051163,42.4458317 29.7504725,35.0413358 27.0356754,31.9230945"/>
  </g>
</svg>
