<svg xmlns="http://www.w3.org/2000/svg" width="64" height="64" viewBox="0 0 64 64">
  <g fill="none" fill-rule="evenodd">
    <path fill="#4796E7" d="M2,16.0079379 C2,16.0079379 10.0454499,20.2992936 17.25,21.0079379 C24.4545501,21.7165822 39.9822361,15.7532571 47.75,16.0079379 C55.5177639,16.2626187 63,20.0079379 63,20.0079379 L63,51.0079379 C63,51.0079379 55.2322361,47.2532571 47.75,47.0079379 C40.4103585,46.7672939 25.2954499,52.7992936 17.25,52.0079379 C9.20455009,51.2165822 2,47.0079379 2,47.0079379 L2,16.0079379 Z"/>
    <circle cx="32" cy="33.986" r="11" fill="#B4DFFB"/>
    <text fill="#5B68C0" font-family="MarkerFelt-Thin, Marker Felt" font-size="16" font-weight="300">
      <tspan x="26" y="39.986">€</tspan>
    </text>
    <circle cx="49" cy="13.986" r="11" fill="#FFAF40"/>
    <path fill="#FFDD95" d="M51.704,13.2816593 C51.6506664,13.2816593 51.3413362,13.2069934 50.776,13.0576593 L47.272,13.6176593 C47.272,13.9269942 47.2826666,14.2309912 47.304,14.5296593 L49.816,14.1616593 C50.1466683,13.8629912 50.3813326,13.7029928 50.52,13.6816593 C50.7226677,13.6496592 50.9439988,13.8016576 51.184,14.1376593 C51.4240012,14.473661 51.5706664,14.806991 51.624,15.1376593 C51.6560002,15.3616604 51.6133339,15.5563252 51.496,15.7216593 C51.3786661,15.8869935 51.2506674,15.9803259 51.112,16.0016593 C51.0586664,16.012326 50.7493362,15.9429934 50.184,15.7936593 L47.592,16.2096593 C48.0080021,17.6283331 48.7706611,18.3376593 49.88,18.3376593 C50.3280022,18.3376593 50.7013318,18.1669944 51,17.8256593 C51.266668,17.5163244 51.4266664,17.1323283 51.48,16.6736593 C51.6933344,16.2363238 52.066664,16.0176593 52.6,16.0176593 C52.9306683,16.0176593 53.229332,16.1109917 53.496,16.2976593 C53.762668,16.4843269 53.896,16.7109913 53.896,16.9776593 C53.896,17.0416596 53.8906667,17.105659 53.88,17.1696593 C53.8479998,17.2869932 53.7466675,17.4203252 53.576,17.5696593 C53.383999,17.7509936 53.2666669,17.8683257 53.224,17.9216593 C53.1386662,18.0603267 52.9573347,18.3109908 52.68,18.6736593 C51.9866632,19.7723315 51.1813379,20.3216593 50.264,20.3216593 C49.0373272,20.3216593 48.0026709,19.9589963 47.16,19.2336593 C46.3919962,18.5936561 45.8266685,17.6976651 45.464,16.5456593 L45,16.6096593 C44.6479982,16.886994 44.4080006,17.0363259 44.28,17.0576593 C43.8639979,17.1216596 43.6026672,16.822996 43.496,16.1616593 C43.4853333,16.0549921 43.48,15.9589931 43.48,15.8736593 C43.48,15.2869897 43.746664,14.9509931 44.28,14.8656593 C44.3866672,14.8549926 44.6479979,14.8496593 45.064,14.8496593 L45.112,14.8496593 C45.0693331,14.5616579 45.0426667,14.2683275 45.032,13.9696593 L44.904,13.9856593 C44.562665,14.2523273 44.3226674,14.3963259 44.184,14.4176593 C43.7679979,14.4923264 43.5120005,14.1936627 43.416,13.5216593 C43.3946666,13.4256588 43.384,13.3349931 43.384,13.2496593 C43.384,12.6629897 43.6559973,12.3269931 44.2,12.2416593 C44.2960005,12.2203259 44.5573312,12.2149926 44.984,12.2256593 L45.112,12.2096593 C45.3146677,10.6736516 45.8213293,9.45233051 46.632,8.54565931 C47.5493379,7.53232091 48.7599925,7.02565931 50.264,7.02565931 C50.7546691,7.02565931 51.2773306,7.20165755 51.832,7.55365931 C52.3013357,7.85232747 52.6479989,8.16165771 52.872,8.48165931 C52.9893339,8.66299355 53.1333325,8.82299195 53.304,8.96165931 C53.4746675,9.10032667 53.5653333,9.17499259 53.576,9.18565931 C53.6613338,9.33499339 53.704,9.48432523 53.704,9.63365931 C53.704,9.93232747 53.5173352,10.1883249 53.144,10.4016593 C52.8133317,10.5829936 52.4453354,10.6736593 52.04,10.6736593 C51.5706643,10.6736593 51.2720006,10.5563272 51.144,10.3216593 C51.1226666,10.2789924 51.0853336,10.060328 51.032,9.66565931 C50.9786664,9.56965883 50.8240013,9.44166011 50.568,9.28165931 C50.2799986,9.11099179 50.0506675,9.02565931 49.88,9.02565931 C48.5359933,9.02565931 47.7093349,9.97498315 47.4,11.8736593 L50.408,11.4416593 C50.749335,11.1429912 50.9839994,10.9829928 51.112,10.9616593 C51.3146677,10.9296592 51.5359988,11.078991 51.776,11.4096593 C52.0160012,11.7403276 52.1626664,12.070991 52.216,12.4016593 C52.2480002,12.6363272 52.2053339,12.8363252 52.088,13.0016593 C51.9706661,13.1669935 51.8426674,13.2603259 51.704,13.2816593 Z"/>
  </g>
</svg>
