<svg xmlns="http://www.w3.org/2000/svg" width="64" height="64" viewBox="0 0 64 64">
  <g fill="none" fill-rule="evenodd">
    <path stroke="#979797" stroke-linecap="square" stroke-width="2" d="M32,9 L32,29"/>
    <rect width="32" height="44" x="16" y="19" fill="#D8D8D8"/>
    <polygon fill="#4796E7" points="16 19 23 19 16 26"/>
    <polygon fill="#4796E7" points="41 19 48 19 41 26" transform="matrix(-1 0 0 1 89 0)"/>
    <polygon fill="#4796E7" points="16 56 23 56 16 63" transform="matrix(1 0 0 -1 0 119)"/>
    <polygon fill="#4796E7" points="41 56 48 56 41 63" transform="rotate(180 44.5 59.5)"/>
    <path stroke="#FFAF40" stroke-linecap="square" stroke-width="2" d="M9,11 L51.0119031,11"/>
    <polygon fill="#FFDD95" points="2 6 15 6 17 11 4 11"/>
    <polygon fill="#FFAF40" points="2 11 15 11 17 16 4 16" transform="matrix(1 0 0 -1 0 27)"/>
    <polygon fill="#FFAF40" points="64 11 51 17 51 5"/>
    <path fill="#4796E7" d="M36.056,39.944 C35.9759996,39.944 35.5120042,39.8320011 34.664,39.608 L29.408,40.448 C29.408,40.9120023 29.4239998,41.3679978 29.456,41.816 L33.224,41.264 C33.7200025,40.8159978 34.071999,40.5760002 34.28,40.544 C34.5840015,40.4959998 34.9159982,40.7239975 35.276,41.228 C35.6360018,41.7320025 35.8559996,42.2319975 35.936,42.728 C35.9840002,43.0640017 35.9200009,43.3559988 35.744,43.604 C35.5679991,43.8520012 35.376001,43.9919998 35.168,44.024 C35.0879996,44.0400001 34.6240042,43.9360011 33.776,43.712 L29.888,44.336 C30.5120031,46.4640106 31.6559917,47.528 33.32,47.528 C33.9920034,47.528 34.5519978,47.2720026 35,46.76 C35.400002,46.2959977 35.6399996,45.7200034 35.72,45.032 C36.0400016,44.3759967 36.599996,44.048 37.4,44.048 C37.8960025,44.048 38.343998,44.1879986 38.744,44.468 C39.144002,44.7480014 39.344,45.087998 39.344,45.488 C39.344,45.5840005 39.3360001,45.6799995 39.32,45.776 C39.2719998,45.9520009 39.1200013,46.1519989 38.864,46.376 C38.5759986,46.6480014 38.4000003,46.8239996 38.336,46.904 C38.2079994,47.112001 37.9360021,47.4879973 37.52,48.032 C36.4799948,49.6800082 35.2720069,50.504 33.896,50.504 C32.0559908,50.504 30.5040063,49.9600054 29.24,48.872 C28.0879942,47.9119952 27.2400027,46.5680086 26.696,44.84 L26,44.936 C25.4719974,45.3520021 25.112001,45.5759998 24.92,45.608 C24.2959969,45.7040005 23.9040008,45.256005 23.744,44.264 C23.7279999,44.1039992 23.72,43.9600006 23.72,43.832 C23.72,42.9519956 24.119996,42.4480006 24.92,42.32 C25.0800008,42.3039999 25.4719969,42.296 26.096,42.296 L26.168,42.296 C26.1039997,41.8639978 26.0640001,41.4240022 26.048,40.976 L25.856,41 C25.3439974,41.400002 24.984001,41.6159998 24.776,41.648 C24.1519969,41.7600006 23.7680007,41.312005 23.624,40.304 C23.5919998,40.1599993 23.576,40.0240006 23.576,39.896 C23.576,39.0159956 23.9839959,38.5120006 24.8,38.384 C24.9440007,38.3519998 25.3359968,38.3439999 25.976,38.36 L26.168,38.336 C26.4720015,36.0319885 27.2319939,34.2000068 28.448,32.84 C29.8240069,31.3199924 31.6399887,30.56 33.896,30.56 C34.6320037,30.56 35.4159958,30.8239974 36.248,31.352 C36.9520035,31.8000022 37.4719983,32.2639976 37.808,32.744 C37.9840009,33.0160014 38.1999987,33.255999 38.456,33.464 C38.7120013,33.672001 38.8479999,33.7839999 38.864,33.8 C38.9920006,34.0240011 39.056,34.2479989 39.056,34.472 C39.056,34.9200022 38.7760028,35.3039984 38.216,35.624 C37.7199975,35.8960014 37.168003,36.032 36.56,36.032 C35.8559965,36.032 35.408001,35.8560018 35.216,35.504 C35.1839998,35.4399997 35.1280004,35.112003 35.048,34.52 C34.9679996,34.3759993 34.7360019,34.1840012 34.352,33.944 C33.9199978,33.6879987 33.5760013,33.56 33.32,33.56 C31.3039899,33.56 30.0640023,34.9839858 29.6,37.832 L34.112,37.184 C34.6240026,36.7359978 34.975999,36.4960002 35.168,36.464 C35.4720015,36.4159998 35.8039982,36.6399975 36.164,37.136 C36.5240018,37.6320025 36.7439996,38.1279975 36.824,38.624 C36.8720002,38.9760018 36.8080009,39.2759988 36.632,39.524 C36.4559991,39.7720012 36.264001,39.9119998 36.056,39.944 Z"/>
  </g>
</svg>
