<svg xmlns="http://www.w3.org/2000/svg" width="64" height="64" viewBox="0 0 64 64">
  <g fill="none" fill-rule="evenodd">
    <path fill="#4796E7" d="M16,45 C7.71572875,45 1,38.2842712 1,30 C1,21.7157288 7.71572875,15 16,15 C18.1706646,15 20.2336397,15.4610733 22.0963309,16.2906254 C22.9447755,8.81128214 29.2937389,3 37,3 C45.2842712,3 52,9.71572875 52,18 C52,19.0287036 51.8964464,20.0332209 51.6991948,21.0036966 C51.7991647,21.001237 51.8994379,21 52,21 C58.627417,21 64,26.372583 64,33 C64,39.627417 58.627417,45 52,45 L16,45 Z"/>
    <circle cx="32" cy="45" r="14" fill="#FFAF40"/>
    <path fill="#5B68C0" d="M35.88,44.62 C35.813333,44.62 35.4266702,44.5266676 34.72,44.34 L30.34,45.04 C30.34,45.4266686 30.3533332,45.8066648 30.38,46.18 L33.52,45.72 C33.9333354,45.3466648 34.2266658,45.1466668 34.4,45.12 C34.6533346,45.0799998 34.9299985,45.2699979 35.23,45.69 C35.5300015,46.1100021 35.713333,46.5266646 35.78,46.94 C35.8200002,47.2200014 35.7666674,47.4633323 35.62,47.67 C35.4733326,47.8766677 35.3133342,47.9933332 35.14,48.02 C35.073333,48.0333334 34.6866702,47.9466676 33.98,47.76 L30.74,48.28 C31.2600026,50.0533422 32.2133264,50.94 33.6,50.94 C34.1600028,50.94 34.6266648,50.7266688 35,50.3 C35.333335,49.9133314 35.533333,49.4333362 35.6,48.86 C35.866668,48.3133306 36.33333,48.04 37,48.04 C37.4133354,48.04 37.786665,48.1566655 38.12,48.39 C38.453335,48.6233345 38.62,48.906665 38.62,49.24 C38.62,49.3200004 38.6133334,49.3999996 38.6,49.48 C38.5599998,49.6266674 38.4333344,49.7933324 38.22,49.98 C37.9799988,50.2066678 37.8333336,50.353333 37.78,50.42 C37.6733328,50.5933342 37.4466684,50.9066644 37.1,51.36 C36.233329,52.7333402 35.2266724,53.42 34.08,53.42 C32.546659,53.42 31.2533386,52.9666712 30.2,52.06 C29.2399952,51.259996 28.5333356,50.1400072 28.08,48.7 L27.5,48.78 C27.0599978,49.1266684 26.7600008,49.3133332 26.6,49.34 C26.0799974,49.4200004 25.753334,49.0466708 25.62,48.22 C25.6066666,48.086666 25.6,47.9666672 25.6,47.86 C25.6,47.126663 25.93333,46.7066672 26.6,46.6 C26.733334,46.5866666 27.0599974,46.58 27.58,46.58 L27.64,46.58 C27.5866664,46.2199982 27.5533334,45.8533352 27.54,45.48 L27.38,45.5 C26.9533312,45.833335 26.6533342,46.0133332 26.48,46.04 C25.9599974,46.1333338 25.6400006,45.7600042 25.52,44.92 C25.4933332,44.7999994 25.48,44.6866672 25.48,44.58 C25.48,43.846663 25.8199966,43.4266672 26.5,43.32 C26.6200006,43.2933332 26.946664,43.2866666 27.48,43.3 L27.64,43.28 C27.8933346,41.3599904 28.5266616,39.833339 29.54,38.7 C30.6866724,37.433327 32.1999906,36.8 34.08,36.8 C34.6933364,36.8 35.3466632,37.0199978 36.04,37.46 C36.6266696,37.8333352 37.0599986,38.219998 37.34,38.62 C37.4866674,38.8466678 37.6666656,39.0466658 37.88,39.22 C38.0933344,39.3933342 38.2066666,39.4866666 38.22,39.5 C38.3266672,39.6866676 38.38,39.8733324 38.38,40.06 C38.38,40.4333352 38.146669,40.753332 37.68,41.02 C37.2666646,41.2466678 36.8066692,41.36 36.3,41.36 C35.7133304,41.36 35.3400008,41.2133348 35.18,40.92 C35.1533332,40.8666664 35.106667,40.5933358 35.04,40.1 C34.973333,39.9799994 34.7800016,39.820001 34.46,39.62 C34.0999982,39.4066656 33.8133344,39.3 33.6,39.3 C31.9199916,39.3 30.8866686,40.4866548 30.5,42.86 L34.26,42.32 C34.6866688,41.9466648 34.9799992,41.7466668 35.14,41.72 C35.3933346,41.6799998 35.6699985,41.8666646 35.97,42.28 C36.2700015,42.6933354 36.453333,43.1066646 36.52,43.52 C36.5600002,43.8133348 36.5066674,44.0633323 36.36,44.27 C36.2133326,44.4766677 36.0533342,44.5933332 35.88,44.62 Z"/>
    <path stroke="#FFF" stroke-linecap="round" stroke-width="2" d="M16,19 C9.92486775,19 5,23.9248678 5,30"/>
  </g>
</svg>
