<svg xmlns="http://www.w3.org/2000/svg" width="64" height="64" viewBox="0 0 64 64">
  <g fill="none" fill-rule="evenodd">
    <rect width="6" height="11" x="29" y="43" fill="#D8D8D8"/>
    <rect width="14" height="1" x="25" y="55" stroke="#979797" stroke-width="2"/>
    <path fill="#868686" d="M2,8.99550699 C2,7.34113416 3.33730974,6 4.99593743,6 L59.0040626,6 C60.6586731,6 62,7.34246828 62,8.99550699 L62,42.004493 C62,43.6588658 60.6626903,45 59.0040626,45 L4.99593743,45 C3.34132688,45 2,43.6575317 2,42.004493 L2,8.99550699 Z"/>
    <rect width="54" height="33" x="5" y="9" fill="#5B68C0"/>
    <path fill="#FFAF40" d="M37.144,25.106 C37.0573329,25.106 36.5546713,24.9846679 35.636,24.742 L29.942,25.652 C29.942,26.1546692 29.9593332,26.6486642 29.994,27.134 L34.076,26.536 C34.613336,26.0506642 34.9946655,25.7906668 35.22,25.756 C35.549335,25.7039997 35.9089981,25.9509973 36.299,26.497 C36.6890019,27.0430027 36.9273329,27.584664 37.014,28.122 C37.0660003,28.4860018 36.9966676,28.802332 36.806,29.071 C36.6153324,29.339668 36.4073345,29.4913332 36.182,29.526 C36.0953329,29.5433334 35.5926713,29.4306679 34.674,29.188 L30.462,29.864 C31.1380034,32.1693449 32.3773243,33.322 34.18,33.322 C34.9080036,33.322 35.5146642,33.0446694 36,32.49 C36.4333355,31.9873308 36.6933329,31.3633371 36.78,30.618 C37.1266684,29.9073298 37.733329,29.552 38.6,29.552 C39.137336,29.552 39.6226645,29.7036652 40.056,30.007 C40.4893355,30.3103348 40.706,30.6786645 40.706,31.112 C40.706,31.2160005 40.6973334,31.3199995 40.68,31.424 C40.6279997,31.6146676 40.4633347,31.8313321 40.186,32.074 C39.8739984,32.3686681 39.6833337,32.5593329 39.614,32.646 C39.4753326,32.8713345 39.1806689,33.2786637 38.73,33.868 C37.6033277,35.6533423 36.2946741,36.546 34.804,36.546 C32.8106567,36.546 31.1293402,35.9566726 29.76,34.778 C28.5119938,33.7379948 27.5933363,32.2820094 27.004,30.41 L26.25,30.514 C25.6779971,30.9646689 25.288001,31.2073332 25.08,31.242 C24.4039966,31.3460005 23.9793342,30.860672 23.806,29.786 C23.7886666,29.6126658 23.78,29.4566674 23.78,29.318 C23.78,28.3646619 24.213329,27.8186674 25.08,27.68 C25.2533342,27.6626666 25.6779966,27.654 26.354,27.654 L26.432,27.654 C26.3626663,27.1859977 26.3193334,26.7093358 26.302,26.224 L26.094,26.25 C25.5393306,26.6833355 25.1493345,26.9173332 24.924,26.952 C24.2479966,27.0733339 23.8320008,26.5880055 23.676,25.496 C23.6413332,25.3399992 23.624,25.1926674 23.624,25.054 C23.624,24.1006619 24.0659956,23.5546674 24.95,23.416 C25.1060008,23.3813332 25.5306632,23.3726666 26.224,23.39 L26.432,23.364 C26.761335,20.8679875 27.5846601,18.8833407 28.902,17.41 C30.3926741,15.7633251 32.3599878,14.94 34.804,14.94 C35.6013373,14.94 36.4506622,15.2259971 37.352,15.798 C38.1146705,16.2833358 38.6779982,16.7859974 39.042,17.306 C39.2326676,17.6006681 39.4666653,17.8606655 39.744,18.086 C40.0213347,18.3113345 40.1686666,18.4326666 40.186,18.45 C40.3246674,18.6926679 40.394,18.9353321 40.394,19.178 C40.394,19.6633358 40.0906697,20.0793316 39.484,20.426 C38.946664,20.7206681 38.34867,20.868 37.69,20.868 C36.9273295,20.868 36.442001,20.6773352 36.234,20.296 C36.1993332,20.2266663 36.1386671,19.8713365 36.052,19.23 C35.9653329,19.0739992 35.7140021,18.8660013 35.298,18.606 C34.8299977,18.3286653 34.4573347,18.19 34.18,18.19 C31.9959891,18.19 30.6526692,19.7326512 30.15,22.818 L35.038,22.116 C35.5926694,21.6306642 35.973999,21.3706668 36.182,21.336 C36.511335,21.2839997 36.8709981,21.526664 37.261,22.064 C37.6510019,22.601336 37.8893329,23.138664 37.976,23.676 C38.0280003,24.0573352 37.9586676,24.382332 37.768,24.651 C37.5773324,24.919668 37.3693345,25.0713332 37.144,25.106 Z"/>
  </g>
</svg>
