<svg xmlns="http://www.w3.org/2000/svg" width="64" height="64" viewBox="0 0 64 64">
  <g fill="none" fill-rule="evenodd">
    <path fill="#4796E7" d="M21.1904762,37 C15.0101468,37 10,31.8832543 10,25.5714286 C10,19.2596029 15.0101468,14.1428571 21.1904762,14.1428571 C22.8098609,14.1428571 24.3489058,14.4941511 25.7385326,15.1261908 C26.3714992,9.42764354 31.1080275,5 36.8571429,5 C43.0374722,5 48.047619,10.1167457 48.047619,16.4285714 C48.047619,17.2123456 47.9703648,17.9776921 47.8232088,18.7171021 C47.8977895,18.7152282 47.9725965,18.7142857 48.047619,18.7142857 C52.9918825,18.7142857 57,22.8076823 57,27.8571429 C57,32.9066034 52.9918825,37 48.047619,37 L21.1904762,37 Z"/>
    <path fill="#FFDD95" d="M37.704,23.296 C37.6506664,23.296 37.3413362,23.2213341 36.776,23.072 L33.272,23.632 C33.272,23.9413349 33.2826666,24.2453318 33.304,24.544 L35.816,24.176 C36.1466683,23.8773318 36.3813326,23.7173334 36.52,23.696 C36.7226677,23.6639998 36.9439988,23.8159983 37.184,24.152 C37.4240012,24.4880017 37.5706664,24.8213317 37.624,25.152 C37.6560002,25.3760011 37.6133339,25.5706658 37.496,25.736 C37.3786661,25.9013342 37.2506674,25.9946666 37.112,26.016 C37.0586664,26.0266667 36.7493362,25.9573341 36.184,25.808 L33.592,26.224 C34.0080021,27.6426738 34.7706611,28.352 35.88,28.352 C36.3280022,28.352 36.7013318,28.181335 37,27.84 C37.266668,27.5306651 37.4266664,27.146669 37.48,26.688 C37.6933344,26.2506645 38.066664,26.032 38.6,26.032 C38.9306683,26.032 39.229332,26.1253324 39.496,26.312 C39.762668,26.4986676 39.896,26.725332 39.896,26.992 C39.896,27.0560003 39.8906667,27.1199997 39.88,27.184 C39.8479998,27.3013339 39.7466675,27.4346659 39.576,27.584 C39.383999,27.7653342 39.2666669,27.8826664 39.224,27.936 C39.1386662,28.0746674 38.9573347,28.3253315 38.68,28.688 C37.9866632,29.7866722 37.1813379,30.336 36.264,30.336 C35.0373272,30.336 34.0026709,29.973337 33.16,29.248 C32.3919962,28.6079968 31.8266685,27.7120058 31.464,26.56 L31,26.624 C30.6479982,26.9013347 30.4080006,27.0506666 30.28,27.072 C29.8639979,27.1360003 29.6026672,26.8373366 29.496,26.176 C29.4853333,26.0693328 29.48,25.9733338 29.48,25.888 C29.48,25.3013304 29.746664,24.9653338 30.28,24.88 C30.3866672,24.8693333 30.6479979,24.864 31.064,24.864 L31.112,24.864 C31.0693331,24.5759986 31.0426667,24.2826682 31.032,23.984 L30.904,24 C30.562665,24.266668 30.3226674,24.4106666 30.184,24.432 C29.7679979,24.506667 29.5120005,24.2080034 29.416,23.536 C29.3946666,23.4399995 29.384,23.3493338 29.384,23.264 C29.384,22.6773304 29.6559973,22.3413338 30.2,22.256 C30.2960005,22.2346666 30.5573312,22.2293333 30.984,22.24 L31.112,22.224 C31.3146677,20.6879923 31.8213293,19.4666712 32.632,18.56 C33.5493379,17.5466616 34.7599925,17.04 36.264,17.04 C36.7546691,17.04 37.2773306,17.2159982 37.832,17.568 C38.3013357,17.8666682 38.6479989,18.1759984 38.872,18.496 C38.9893339,18.6773342 39.1333325,18.8373326 39.304,18.976 C39.4746675,19.1146674 39.5653333,19.1893333 39.576,19.2 C39.6613338,19.3493341 39.704,19.4986659 39.704,19.648 C39.704,19.9466682 39.5173352,20.2026656 39.144,20.416 C38.8133317,20.5973342 38.4453354,20.688 38.04,20.688 C37.5706643,20.688 37.2720006,20.5706678 37.144,20.336 C37.1226666,20.2933331 37.0853336,20.0746686 37.032,19.68 C36.9786664,19.5839995 36.8240013,19.4560008 36.568,19.296 C36.2799986,19.1253325 36.0506675,19.04 35.88,19.04 C34.5359933,19.04 33.7093349,19.9893238 33.4,21.888 L36.408,21.456 C36.749335,21.1573318 36.9839994,20.9973334 37.112,20.976 C37.3146677,20.9439998 37.5359988,21.0933317 37.776,21.424 C38.0160012,21.7546683 38.1626664,22.0853317 38.216,22.416 C38.2480002,22.6506678 38.2053339,22.8506658 38.088,23.016 C37.9706661,23.1813342 37.8426674,23.2746666 37.704,23.296 Z"/>
    <path fill="#E43535" d="M47,46 L47,55 L43,55 L43,46 L40,46 L45,40 L50,46 L47,46 Z M35,46 L35,55 L31,55 L31,46 L28,46 L33,40 L38,46 L35,46 Z M23,46 L23,55 L19,55 L19,46 L16,46 L21,40 L26,46 L23,46 Z" transform="matrix(1 0 0 -1 0 95)"/>
  </g>
</svg>
