<svg xmlns="http://www.w3.org/2000/svg" width="64" height="64" viewBox="0 0 64 64">
  <g fill="none" fill-rule="evenodd">
    <path fill="#B4DFFB" stroke="#4796E7" stroke-linecap="round" stroke-width="4" d="M23.1904762,37 C17.0101468,37 12,31.8832543 12,25.5714286 C12,19.2596029 17.0101468,14.1428571 23.1904762,14.1428571 C24.8098609,14.1428571 26.3489058,14.4941511 27.7385326,15.1261908 C28.3714992,9.42764354 33.1080275,5 38.8571429,5 C45.0374722,5 50.047619,10.1167457 50.047619,16.4285714 C50.047619,17.2123456 49.9703648,17.9776921 49.8232088,18.7171021 C49.8977895,18.7152282 49.9725965,18.7142857 50.047619,18.7142857 C54.9918825,18.7142857 59,22.8076823 59,27.8571429 C59,32.9066034 54.9918825,37 50.047619,37 L23.1904762,37 Z"/>
    <path fill="#4796E7" d="M39.704,23.296 C39.6506664,23.296 39.3413362,23.2213341 38.776,23.072 L35.272,23.632 C35.272,23.9413349 35.2826666,24.2453318 35.304,24.544 L37.816,24.176 C38.1466683,23.8773318 38.3813326,23.7173334 38.52,23.696 C38.7226677,23.6639998 38.9439988,23.8159983 39.184,24.152 C39.4240012,24.4880017 39.5706664,24.8213317 39.624,25.152 C39.6560002,25.3760011 39.6133339,25.5706658 39.496,25.736 C39.3786661,25.9013342 39.2506674,25.9946666 39.112,26.016 C39.0586664,26.0266667 38.7493362,25.9573341 38.184,25.808 L35.592,26.224 C36.0080021,27.6426738 36.7706611,28.352 37.88,28.352 C38.3280022,28.352 38.7013318,28.181335 39,27.84 C39.266668,27.5306651 39.4266664,27.146669 39.48,26.688 C39.6933344,26.2506645 40.066664,26.032 40.6,26.032 C40.9306683,26.032 41.229332,26.1253324 41.496,26.312 C41.762668,26.4986676 41.896,26.725332 41.896,26.992 C41.896,27.0560003 41.8906667,27.1199997 41.88,27.184 C41.8479998,27.3013339 41.7466675,27.4346659 41.576,27.584 C41.383999,27.7653342 41.2666669,27.8826664 41.224,27.936 C41.1386662,28.0746674 40.9573347,28.3253315 40.68,28.688 C39.9866632,29.7866722 39.1813379,30.336 38.264,30.336 C37.0373272,30.336 36.0026709,29.973337 35.16,29.248 C34.3919962,28.6079968 33.8266685,27.7120058 33.464,26.56 L33,26.624 C32.6479982,26.9013347 32.4080006,27.0506666 32.28,27.072 C31.8639979,27.1360003 31.6026672,26.8373366 31.496,26.176 C31.4853333,26.0693328 31.48,25.9733338 31.48,25.888 C31.48,25.3013304 31.746664,24.9653338 32.28,24.88 C32.3866672,24.8693333 32.6479979,24.864 33.064,24.864 L33.112,24.864 C33.0693331,24.5759986 33.0426667,24.2826682 33.032,23.984 L32.904,24 C32.562665,24.266668 32.3226674,24.4106666 32.184,24.432 C31.7679979,24.506667 31.5120005,24.2080034 31.416,23.536 C31.3946666,23.4399995 31.384,23.3493338 31.384,23.264 C31.384,22.6773304 31.6559973,22.3413338 32.2,22.256 C32.2960005,22.2346666 32.5573312,22.2293333 32.984,22.24 L33.112,22.224 C33.3146677,20.6879923 33.8213293,19.4666712 34.632,18.56 C35.5493379,17.5466616 36.7599925,17.04 38.264,17.04 C38.7546691,17.04 39.2773306,17.2159982 39.832,17.568 C40.3013357,17.8666682 40.6479989,18.1759984 40.872,18.496 C40.9893339,18.6773342 41.1333325,18.8373326 41.304,18.976 C41.4746675,19.1146674 41.5653333,19.1893333 41.576,19.2 C41.6613338,19.3493341 41.704,19.4986659 41.704,19.648 C41.704,19.9466682 41.5173352,20.2026656 41.144,20.416 C40.8133317,20.5973342 40.4453354,20.688 40.04,20.688 C39.5706643,20.688 39.2720006,20.5706678 39.144,20.336 C39.1226666,20.2933331 39.0853336,20.0746686 39.032,19.68 C38.9786664,19.5839995 38.8240013,19.4560008 38.568,19.296 C38.2799986,19.1253325 38.0506675,19.04 37.88,19.04 C36.5359933,19.04 35.7093349,19.9893238 35.4,21.888 L38.408,21.456 C38.749335,21.1573318 38.9839994,20.9973334 39.112,20.976 C39.3146677,20.9439998 39.5359988,21.0933317 39.776,21.424 C40.0160012,21.7546683 40.1626664,22.0853317 40.216,22.416 C40.2480002,22.6506678 40.2053339,22.8506658 40.088,23.016 C39.9706661,23.1813342 39.8426674,23.2746666 39.704,23.296 Z"/>
    <rect width="4" height="12" x="21" y="43" fill="#80D25B"/>
    <polygon fill="#80D25B" points="23 40 28 46 18 46"/>
    <rect width="4" height="12" x="33" y="43" fill="#80D25B"/>
    <polygon fill="#80D25B" points="35 40 40 46 30 46"/>
    <rect width="4" height="12" x="45" y="43" fill="#80D25B"/>
    <polygon fill="#80D25B" points="47 40 52 46 42 46"/>
  </g>
</svg>
