<svg xmlns="http://www.w3.org/2000/svg" width="64" height="64" viewBox="0 0 64 64">
  <g fill="none" fill-rule="evenodd">
    <polygon fill="#5B68C0" points="5 51 60 51 60 56 5 56"/>
    <rect width="7" height="27" x="7" y="22" fill="#4796E7" rx="2"/>
    <rect width="7" height="27" x="52" y="22" fill="#4796E7" rx="2"/>
    <path fill="#5B68C0" d="M31.2696051,4.9887971 C32.2252758,4.44269954 33.778104,4.44463086 34.7303949,4.9887971 L59.2696051,19.0112029 C60.2252758,19.5573005 60.0976918,20 59.0069304,20 L6.99306965,20 C5.89232768,20 5.77810401,19.5553691 6.73039492,19.0112029 L31.2696051,4.9887971 Z"/>
    <circle cx="33" cy="12" r="3" fill="#FFAF40"/>
    <path fill="#4796E7" d="M38.32,34.43 C38.2199995,34.43 37.6400053,34.2900014 36.58,34.01 L30.01,35.06 C30.01,35.6400029 30.0299998,36.2099972 30.07,36.77 L34.78,36.08 C35.4000031,35.5199972 35.8399987,35.2200002 36.1,35.18 C36.4800019,35.1199997 36.8949977,35.4049969 37.345,36.035 C37.7950022,36.6650032 38.0699995,37.2899969 38.17,37.91 C38.2300003,38.3300021 38.1500011,38.6949984 37.93,39.005 C37.7099989,39.3150015 37.4700013,39.4899998 37.21,39.53 C37.1099995,39.5500001 36.5300053,39.4200014 35.47,39.14 L30.61,39.92 C31.3900039,42.5800133 32.8199896,43.91 34.9,43.91 C35.7400042,43.91 36.4399972,43.5900032 37,42.95 C37.5000025,42.3699971 37.7999995,41.6500043 37.9,40.79 C38.300002,39.9699959 38.999995,39.56 40,39.56 C40.6200031,39.56 41.1799975,39.7349982 41.68,40.085 C42.1800025,40.4350018 42.43,40.8599975 42.43,41.36 C42.43,41.4800006 42.4200001,41.5999994 42.4,41.72 C42.3399997,41.9400011 42.1500016,42.1899986 41.83,42.47 C41.4699982,42.8100017 41.2500004,43.0299995 41.17,43.13 C41.0099992,43.3900013 40.6700026,43.8599966 40.15,44.54 C38.8499935,46.6000103 37.3400086,47.63 35.62,47.63 C33.3199885,47.63 31.3800079,46.9500068 29.8,45.59 C28.3599928,44.389994 27.3000034,42.7100108 26.62,40.55 L25.75,40.67 C25.0899967,41.1900026 24.6400012,41.4699998 24.4,41.51 C23.6199961,41.6300006 23.130001,41.0700062 22.93,39.83 C22.9099999,39.629999 22.9,39.4500008 22.9,39.29 C22.9,38.1899945 23.399995,37.5600008 24.4,37.4 C24.600001,37.3799999 25.0899961,37.37 25.87,37.37 L25.96,37.37 C25.8799996,36.8299973 25.8300001,36.2800028 25.81,35.72 L25.57,35.75 C24.9299968,36.2500025 24.4800013,36.5199998 24.22,36.56 C23.4399961,36.7000007 22.9600009,36.1400063 22.78,34.88 C22.7399998,34.6999991 22.72,34.5300008 22.72,34.37 C22.72,33.2699945 23.2299949,32.6400008 24.25,32.48 C24.4300009,32.4399998 24.919996,32.4299999 25.72,32.45 L25.96,32.42 C26.3400019,29.5399856 27.2899924,27.2500085 28.81,25.55 C30.5300086,23.6499905 32.7999859,22.7 35.62,22.7 C36.5400046,22.7 37.5199948,23.0299967 38.56,23.69 C39.4400044,24.2500028 40.0899979,24.829997 40.51,25.43 C40.7300011,25.7700017 40.9999984,26.0699987 41.32,26.33 C41.6400016,26.5900013 41.8099999,26.7299999 41.83,26.75 C41.9900008,27.0300014 42.07,27.3099986 42.07,27.59 C42.07,28.1500028 41.7200035,28.629998 41.02,29.03 C40.3999969,29.3700017 39.7100038,29.54 38.95,29.54 C38.0699956,29.54 37.5100012,29.3200022 37.27,28.88 C37.2299998,28.7999996 37.1600005,28.3900037 37.06,27.65 C36.9599995,27.4699991 36.6700024,27.2300015 36.19,26.93 C35.6499973,26.6099984 35.2200016,26.45 34.9,26.45 C32.3799874,26.45 30.8300029,28.2299822 30.25,31.79 L35.89,30.98 C36.5300032,30.4199972 36.9699988,30.1200002 37.21,30.08 C37.5900019,30.0199997 38.0049978,30.2999969 38.455,30.92 C38.9050023,31.5400031 39.1799995,32.1599969 39.28,32.78 C39.3400003,33.2200022 39.2600011,33.5949985 39.04,33.905 C38.8199989,34.2150016 38.5800013,34.3899998 38.32,34.43 Z"/>
  </g>
</svg>
