<svg xmlns="http://www.w3.org/2000/svg" width="64" height="64" viewBox="0 0 64 64">
  <g fill="none" fill-rule="evenodd">
    <rect width="22" height="10" x="1" y="35" fill="#FF78C7"/>
    <path fill="#FF78C7" d="M10.9729892,27.3696698 C6.64676354,30.9415344 4,35.7330039 4,41 C4,52.045695 15.6405965,61 30,61 C44.3594035,61 56,52.045695 56,41 C56,29.954305 44.3594035,21 30,21 C25.1893791,21 20.6839043,22.0049891 16.8190398,23.7569179 L10.9729892,20.3250059 L10.9729892,27.3696698 Z"/>
    <circle cx="14" cy="35" r="2" fill="#F5413E"/>
    <rect width="7" height="13" x="11" y="50" fill="#FF78C7"/>
    <rect width="7" height="13" x="43" y="50" fill="#FF78C7"/>
    <circle cx="32" cy="18" r="17" fill="#FFAF40"/>
    <path fill="#FFDD95" d="M36.32,18.43 C36.2199995,18.43 35.6400053,18.2900014 34.58,18.01 L28.01,19.06 C28.01,19.6400029 28.0299998,20.2099972 28.07,20.77 L32.78,20.08 C33.4000031,19.5199972 33.8399987,19.2200002 34.1,19.18 C34.4800019,19.1199997 34.8949978,19.4049969 35.345,20.035 C35.7950023,20.6650032 36.0699995,21.2899969 36.17,21.91 C36.2300003,22.3300021 36.1500011,22.6949984 35.93,23.005 C35.7099989,23.3150015 35.4700013,23.4899998 35.21,23.53 C35.1099995,23.5500001 34.5300053,23.4200014 33.47,23.14 L28.61,23.92 C29.3900039,26.5800133 30.8199896,27.91 32.9,27.91 C33.7400042,27.91 34.4399972,27.5900032 35,26.95 C35.5000025,26.3699971 35.7999995,25.6500043 35.9,24.79 C36.300002,23.9699959 36.999995,23.56 38,23.56 C38.6200031,23.56 39.1799975,23.7349982 39.68,24.085 C40.1800025,24.4350018 40.43,24.8599975 40.43,25.36 C40.43,25.4800006 40.4200001,25.5999994 40.4,25.72 C40.3399997,25.9400011 40.1500016,26.1899986 39.83,26.47 C39.4699982,26.8100017 39.2500004,27.0299995 39.17,27.13 C39.0099992,27.3900013 38.6700026,27.8599966 38.15,28.54 C36.8499935,30.6000103 35.3400086,31.63 33.62,31.63 C31.3199885,31.63 29.3800079,30.9500068 27.8,29.59 C26.3599928,28.389994 25.3000034,26.7100108 24.62,24.55 L23.75,24.67 C23.0899967,25.1900026 22.6400012,25.4699998 22.4,25.51 C21.6199961,25.6300006 21.130001,25.0700062 20.93,23.83 C20.9099999,23.629999 20.9,23.4500008 20.9,23.29 C20.9,22.1899945 21.399995,21.5600008 22.4,21.4 C22.600001,21.3799999 23.0899961,21.37 23.87,21.37 L23.96,21.37 C23.8799996,20.8299973 23.8300001,20.2800028 23.81,19.72 L23.57,19.75 C22.9299968,20.2500025 22.4800013,20.5199998 22.22,20.56 C21.4399961,20.7000007 20.9600009,20.1400063 20.78,18.88 C20.7399998,18.6999991 20.72,18.5300008 20.72,18.37 C20.72,17.2699945 21.2299949,16.6400008 22.25,16.48 C22.4300009,16.4399998 22.919996,16.4299999 23.72,16.45 L23.96,16.42 C24.3400019,13.5399856 25.2899924,11.2500085 26.81,9.55 C28.5300086,7.6499905 30.7999859,6.7 33.62,6.7 C34.5400046,6.7 35.5199948,7.0299967 36.56,7.69 C37.4400044,8.2500028 38.0899979,8.829997 38.51,9.43 C38.7300011,9.7700017 38.9999984,10.0699987 39.32,10.33 C39.6400016,10.5900013 39.8099999,10.7299999 39.83,10.75 C39.9900008,11.0300014 40.07,11.3099986 40.07,11.59 C40.07,12.1500028 39.7200035,12.629998 39.02,13.03 C38.3999969,13.3700017 37.7100038,13.54 36.95,13.54 C36.0699956,13.54 35.5100012,13.3200022 35.27,12.88 C35.2299998,12.7999996 35.1600005,12.3900037 35.06,11.65 C34.9599995,11.4699991 34.6700024,11.2300015 34.19,10.93 C33.6499973,10.6099984 33.2200016,10.45 32.9,10.45 C30.3799874,10.45 28.8300029,12.2299822 28.25,15.79 L33.89,14.98 C34.5300032,14.4199972 34.9699988,14.1200002 35.21,14.08 C35.5900019,14.0199997 36.0049978,14.2999969 36.455,14.92 C36.9050023,15.5400031 37.1799995,16.1599969 37.28,16.78 C37.3400003,17.2200022 37.2600011,17.5949985 37.04,17.905 C36.8199989,18.2150016 36.5800013,18.3899998 36.32,18.43 Z"/>
    <rect width="27" height="6" x="19" y="30" fill="#FF78C7"/>
    <path stroke="#F5413E" stroke-linecap="square" stroke-width="2" d="M20,31 L44,31"/>
    <path stroke="#FF78C7" stroke-linecap="round" stroke-width="2" d="M50.3478777,33.2724048 C50.3478777,33.2724048 59.2700209,34.071115 59.2700209,29.7888351 C59.2700209,25.5065553 53.1403795,25.1691691 53.9746644,27.4790021 C54.8089493,29.7888351 55.3783746,31.0888047 56.3037767,29.2839034"/>
  </g>
</svg>
