<svg xmlns="http://www.w3.org/2000/svg" width="64" height="64" viewBox="0 0 64 64">
  <g fill="none" fill-rule="evenodd">
    <rect width="57" height="38" x="3" y="15" fill="#BD7575" rx="2"/>
    <path fill="#9C4D4D" d="M45,31.9958262 C45,29.7889923 46.787167,28 49.0072357,28 L62,28 L62,40 L49.0072357,40 C46.7941006,40 45,38.2034788 45,36.0041738 L45,31.9958262 Z"/>
    <circle cx="51" cy="34" r="2" fill="#BD7575"/>
    <path stroke="#9C4D4D" stroke-dasharray="4" stroke-linecap="square" stroke-width="2" d="M13,16 L13,51"/>
    <circle cx="52" cy="13" r="11" fill="#FFAF40"/>
    <path fill="#FFDD95" d="M54.704,12.296 C54.6506664,12.296 54.3413362,12.2213341 53.776,12.072 L50.272,12.632 C50.272,12.9413349 50.2826666,13.2453318 50.304,13.544 L52.816,13.176 C53.1466683,12.8773318 53.3813326,12.7173334 53.52,12.696 C53.7226677,12.6639998 53.9439988,12.8159983 54.184,13.152 C54.4240012,13.4880017 54.5706664,13.8213317 54.624,14.152 C54.6560002,14.3760011 54.6133339,14.5706658 54.496,14.736 C54.3786661,14.9013342 54.2506674,14.9946666 54.112,15.016 C54.0586664,15.0266667 53.7493362,14.9573341 53.184,14.808 L50.592,15.224 C51.0080021,16.6426738 51.7706611,17.352 52.88,17.352 C53.3280022,17.352 53.7013318,17.181335 54,16.84 C54.266668,16.5306651 54.4266664,16.146669 54.48,15.688 C54.6933344,15.2506645 55.066664,15.032 55.6,15.032 C55.9306683,15.032 56.229332,15.1253324 56.496,15.312 C56.762668,15.4986676 56.896,15.725332 56.896,15.992 C56.896,16.0560003 56.8906667,16.1199997 56.88,16.184 C56.8479998,16.3013339 56.7466675,16.4346659 56.576,16.584 C56.383999,16.7653342 56.2666669,16.8826664 56.224,16.936 C56.1386662,17.0746674 55.9573347,17.3253315 55.68,17.688 C54.9866632,18.7866722 54.1813379,19.336 53.264,19.336 C52.0373272,19.336 51.0026709,18.973337 50.16,18.248 C49.3919962,17.6079968 48.8266685,16.7120058 48.464,15.56 L48,15.624 C47.6479982,15.9013347 47.4080006,16.0506666 47.28,16.072 C46.8639979,16.1360003 46.6026672,15.8373366 46.496,15.176 C46.4853333,15.0693328 46.48,14.9733338 46.48,14.888 C46.48,14.3013304 46.746664,13.9653338 47.28,13.88 C47.3866672,13.8693333 47.6479979,13.864 48.064,13.864 L48.112,13.864 C48.0693331,13.5759986 48.0426667,13.2826682 48.032,12.984 L47.904,13 C47.562665,13.266668 47.3226674,13.4106666 47.184,13.432 C46.7679979,13.506667 46.5120005,13.2080034 46.416,12.536 C46.3946666,12.4399995 46.384,12.3493338 46.384,12.264 C46.384,11.6773304 46.6559973,11.3413338 47.2,11.256 C47.2960005,11.2346666 47.5573312,11.2293333 47.984,11.24 L48.112,11.224 C48.3146677,9.68799232 48.8213293,8.4666712 49.632,7.56 C50.5493379,6.5466616 51.7599925,6.04 53.264,6.04 C53.7546691,6.04 54.2773306,6.21599824 54.832,6.568 C55.3013357,6.86666816 55.6479989,7.1759984 55.872,7.496 C55.9893339,7.67733424 56.1333325,7.83733264 56.304,7.976 C56.4746675,8.11466736 56.5653333,8.18933328 56.576,8.2 C56.6613338,8.34933408 56.704,8.49866592 56.704,8.648 C56.704,8.94666816 56.5173352,9.2026656 56.144,9.416 C55.8133317,9.59733424 55.4453354,9.688 55.04,9.688 C54.5706643,9.688 54.2720006,9.57066784 54.144,9.336 C54.1226666,9.29333312 54.0853336,9.07466864 54.032,8.68 C53.9786664,8.58399952 53.8240013,8.4560008 53.568,8.296 C53.2799986,8.12533248 53.0506675,8.04 52.88,8.04 C51.5359933,8.04 50.7093349,8.98932384 50.4,10.888 L53.408,10.456 C53.749335,10.1573318 53.9839994,9.99733344 54.112,9.976 C54.3146677,9.94399984 54.5359988,10.0933317 54.776,10.424 C55.0160012,10.7546683 55.1626664,11.0853317 55.216,11.416 C55.2480002,11.6506678 55.2053339,11.8506658 55.088,12.016 C54.9706661,12.1813342 54.8426674,12.2746666 54.704,12.296 Z"/>
  </g>
</svg>
