<svg xmlns="http://www.w3.org/2000/svg" width="64" height="64" viewBox="0 0 64 64">
  <g fill="none" fill-rule="evenodd">
    <rect width="19" height="4" x="1" y="49" fill="#FFAF40" rx="1" transform="matrix(-1 0 0 1 21 0)"/>
    <rect width="19" height="4" x="1" y="44" fill="#FFDD95" rx="1" transform="matrix(-1 0 0 1 21 0)"/>
    <rect width="19" height="4" x="1" y="39" fill="#FFAF40" rx="1" transform="matrix(-1 0 0 1 21 0)"/>
    <circle cx="10.5" cy="25.5" r="9.5" fill="#FFAF40"/>
    <path fill="#FFDD95" d="M12.704,25.296 C12.6506664,25.296 12.3413362,25.2213341 11.776,25.072 L8.272,25.632 C8.272,25.9413349 8.28266656,26.2453318 8.304,26.544 L10.816,26.176 C11.1466683,25.8773318 11.3813326,25.7173334 11.52,25.696 C11.7226677,25.6639998 11.9439988,25.8159983 12.184,26.152 C12.4240012,26.4880017 12.5706664,26.8213317 12.624,27.152 C12.6560002,27.3760011 12.6133339,27.5706658 12.496,27.736 C12.3786661,27.9013342 12.2506674,27.9946666 12.112,28.016 C12.0586664,28.0266667 11.7493362,27.9573341 11.184,27.808 L8.592,28.224 C9.00800208,29.6426738 9.77066112,30.352 10.88,30.352 C11.3280022,30.352 11.7013318,30.181335 12,29.84 C12.266668,29.5306651 12.4266664,29.146669 12.48,28.688 C12.6933344,28.2506645 13.066664,28.032 13.6,28.032 C13.9306683,28.032 14.229332,28.1253324 14.496,28.312 C14.762668,28.4986676 14.896,28.725332 14.896,28.992 C14.896,29.0560003 14.8906667,29.1199997 14.88,29.184 C14.8479998,29.3013339 14.7466675,29.4346659 14.576,29.584 C14.383999,29.7653342 14.2666669,29.8826664 14.224,29.936 C14.1386662,30.0746674 13.9573347,30.3253315 13.68,30.688 C12.9866632,31.7866722 12.1813379,32.336 11.264,32.336 C10.0373272,32.336 9.00267088,31.973337 8.16,31.248 C7.39199616,30.6079968 6.82666848,29.7120058 6.464,28.56 L6,28.624 C5.64799824,28.9013347 5.40800064,29.0506666 5.28,29.072 C4.86399792,29.1360003 4.6026672,28.8373366 4.496,28.176 C4.48533328,28.0693328 4.48,27.9733338 4.48,27.888 C4.48,27.3013304 4.746664,26.9653338 5.28,26.88 C5.3866672,26.8693333 5.64799792,26.864 6.064,26.864 L6.112,26.864 C6.06933312,26.5759986 6.04266672,26.2826682 6.032,25.984 L5.904,26 C5.56266496,26.266668 5.32266736,26.4106666 5.184,26.432 C4.76799792,26.506667 4.51200048,26.2080034 4.416,25.536 C4.39466656,25.4399995 4.384,25.3493338 4.384,25.264 C4.384,24.6773304 4.65599728,24.3413338 5.2,24.256 C5.29600048,24.2346666 5.5573312,24.2293333 5.984,24.24 L6.112,24.224 C6.31466768,22.6879923 6.82132928,21.4666712 7.632,20.56 C8.54933792,19.5466616 9.75999248,19.04 11.264,19.04 C11.7546691,19.04 12.2773306,19.2159982 12.832,19.568 C13.3013357,19.8666682 13.6479989,20.1759984 13.872,20.496 C13.9893339,20.6773342 14.1333325,20.8373326 14.304,20.976 C14.4746675,21.1146674 14.5653333,21.1893333 14.576,21.2 C14.6613338,21.3493341 14.704,21.4986659 14.704,21.648 C14.704,21.9466682 14.5173352,22.2026656 14.144,22.416 C13.8133317,22.5973342 13.4453354,22.688 13.04,22.688 C12.5706643,22.688 12.2720006,22.5706678 12.144,22.336 C12.1226666,22.2933331 12.0853336,22.0746686 12.032,21.68 C11.9786664,21.5839995 11.8240013,21.4560008 11.568,21.296 C11.2799986,21.1253325 11.0506675,21.04 10.88,21.04 C9.53599328,21.04 8.70933488,21.9893238 8.4,23.888 L11.408,23.456 C11.749335,23.1573318 11.9839994,22.9973334 12.112,22.976 C12.3146677,22.9439998 12.5359988,23.0933317 12.776,23.424 C13.0160012,23.7546683 13.1626664,24.0853317 13.216,24.416 C13.2480002,24.6506678 13.2053339,24.8506658 13.088,25.016 C12.9706661,25.1813342 12.8426674,25.2746666 12.704,25.296 Z"/>
    <path fill="#5B68C0" d="M22,29.0018785 C22,26.791702 23.7880823,25 26.0059034,25 L58.9940966,25 C61.2064959,25 63,26.7921947 63,29.0018785 L63,49.9981215 C63,52.208298 61.2119177,54 58.9940966,54 L26.0059034,54 C23.7935041,54 22,52.2078053 22,49.9981215 L22,29.0018785 Z"/>
    <circle cx="31" cy="34" r="5" stroke="#F5413E" stroke-linecap="round" stroke-width="2"/>
    <circle cx="35" cy="34" r="5" stroke="#FFAF40" stroke-linecap="round" stroke-width="2"/>
    <rect width="18" height="3" x="25" y="47" fill="#D8D8D8"/>
  </g>
</svg>
