<svg xmlns="http://www.w3.org/2000/svg" width="64" height="64" viewBox="0 0 64 64">
  <g fill="none" fill-rule="evenodd">
    <path fill="#80D25B" d="M57.4106735,18.0524811 C57.4106735,18.0524811 49.8245199,28.3792397 44.1155065,24.7814704 C38.4064932,21.183701 48.1052172,16.9927142 57.4106735,18.0524811 Z" transform="rotate(-7 49.91 21.714)"/>
    <path stroke="#BD7575" stroke-linecap="round" stroke-width="2" d="M30.135317,34.2817592 C30.135317,34.2817592 30.0559,29.8210635 29.5695742,28.0741293 C29.0832483,26.3271952 24.6221974,14.4780474 24.6221974,14.4780474"/>
    <polygon fill="#80D25B" points="22 34 38 34 36 64 24 64"/>
    <circle cx="24" cy="12" r="11" fill="#FFAF40"/>
    <path fill="#FFDD95" d="M26.704,11.296 C26.6506664,11.296 26.3413362,11.2213341 25.776,11.072 L22.272,11.632 C22.272,11.9413349 22.2826666,12.2453318 22.304,12.544 L24.816,12.176 C25.1466683,11.8773318 25.3813326,11.7173334 25.52,11.696 C25.7226677,11.6639998 25.9439988,11.8159983 26.184,12.152 C26.4240012,12.4880017 26.5706664,12.8213317 26.624,13.152 C26.6560002,13.3760011 26.6133339,13.5706658 26.496,13.736 C26.3786661,13.9013342 26.2506674,13.9946666 26.112,14.016 C26.0586664,14.0266667 25.7493362,13.9573341 25.184,13.808 L22.592,14.224 C23.0080021,15.6426738 23.7706611,16.352 24.88,16.352 C25.3280022,16.352 25.7013318,16.181335 26,15.84 C26.266668,15.5306651 26.4266664,15.146669 26.48,14.688 C26.6933344,14.2506645 27.066664,14.032 27.6,14.032 C27.9306683,14.032 28.229332,14.1253324 28.496,14.312 C28.762668,14.4986676 28.896,14.725332 28.896,14.992 C28.896,15.0560003 28.8906667,15.1199997 28.88,15.184 C28.8479998,15.3013339 28.7466675,15.4346659 28.576,15.584 C28.383999,15.7653342 28.2666669,15.8826664 28.224,15.936 C28.1386662,16.0746674 27.9573347,16.3253315 27.68,16.688 C26.9866632,17.7866722 26.1813379,18.336 25.264,18.336 C24.0373272,18.336 23.0026709,17.973337 22.16,17.248 C21.3919962,16.6079968 20.8266685,15.7120058 20.464,14.56 L20,14.624 C19.6479982,14.9013347 19.4080006,15.0506666 19.28,15.072 C18.8639979,15.1360003 18.6026672,14.8373366 18.496,14.176 C18.4853333,14.0693328 18.48,13.9733338 18.48,13.888 C18.48,13.3013304 18.746664,12.9653338 19.28,12.88 C19.3866672,12.8693333 19.6479979,12.864 20.064,12.864 L20.112,12.864 C20.0693331,12.5759986 20.0426667,12.2826682 20.032,11.984 L19.904,12 C19.562665,12.266668 19.3226674,12.4106666 19.184,12.432 C18.7679979,12.506667 18.5120005,12.2080034 18.416,11.536 C18.3946666,11.4399995 18.384,11.3493338 18.384,11.264 C18.384,10.6773304 18.6559973,10.3413338 19.2,10.256 C19.2960005,10.2346666 19.5573312,10.2293333 19.984,10.24 L20.112,10.224 C20.3146677,8.68799232 20.8213293,7.4666712 21.632,6.56 C22.5493379,5.5466616 23.7599925,5.04 25.264,5.04 C25.7546691,5.04 26.2773306,5.21599824 26.832,5.568 C27.3013357,5.86666816 27.6479989,6.1759984 27.872,6.496 C27.9893339,6.67733424 28.1333325,6.83733264 28.304,6.976 C28.4746675,7.11466736 28.5653333,7.18933328 28.576,7.2 C28.6613338,7.34933408 28.704,7.49866592 28.704,7.648 C28.704,7.94666816 28.5173352,8.2026656 28.144,8.416 C27.8133317,8.59733424 27.4453354,8.688 27.04,8.688 C26.5706643,8.688 26.2720006,8.57066784 26.144,8.336 C26.1226666,8.29333312 26.0853336,8.07466864 26.032,7.68 C25.9786664,7.58399952 25.8240013,7.4560008 25.568,7.296 C25.2799986,7.12533248 25.0506675,7.04 24.88,7.04 C23.5359933,7.04 22.7093349,7.98932384 22.4,9.888 L25.408,9.456 C25.749335,9.15733184 25.9839994,8.99733344 26.112,8.976 C26.3146677,8.94399984 26.5359988,9.09333168 26.776,9.424 C27.0160012,9.75466832 27.1626664,10.0853317 27.216,10.416 C27.2480002,10.6506678 27.2053339,10.8506658 27.088,11.016 C26.9706661,11.1813342 26.8426674,11.2746666 26.704,11.296 Z"/>
    <path stroke="#BD7575" stroke-linecap="round" stroke-width="2" d="M30.205507,30.9029828 C30.205507,30.9029828 42.0559884,29.3681897 45.1684629,24.4768666"/>
    <rect width="18" height="5" x="21" y="34" fill="#22BA8E"/>
  </g>
</svg>
