<svg xmlns="http://www.w3.org/2000/svg" width="64" height="64" viewBox="0 0 64 64">
  <g fill="none" fill-rule="evenodd">
    <polygon fill="#ECECEC" points="11 3 40.105 3 52 14.753 52 55 11 55"/>
    <circle cx="51" cy="54" r="10" fill="#4796E7"/>
    <rect width="12" height="12" x="15" y="24" fill="#4796E7"/>
    <polygon fill="#D8D8D8" points="40 3 52 3 52 15" transform="rotate(-180 46 9)"/>
    <path stroke="#979797" stroke-linecap="square" stroke-width="2" d="M30 25L49.0262976 25M16 20L49.0262976 20M16 40L48.3447059 40M30 30L49.0262976 30M16 45L37 45M30 35L49.0262976 35"/>
    <path fill="#FFDD95" d="M53.704,53.296 C53.6506664,53.296 53.3413362,53.2213341 52.776,53.072 L49.272,53.632 C49.272,53.9413349 49.2826666,54.2453318 49.304,54.544 L51.816,54.176 C52.1466683,53.8773318 52.3813326,53.7173334 52.52,53.696 C52.7226677,53.6639998 52.9439988,53.8159983 53.184,54.152 C53.4240012,54.4880017 53.5706664,54.8213317 53.624,55.152 C53.6560002,55.3760011 53.6133339,55.5706658 53.496,55.736 C53.3786661,55.9013342 53.2506674,55.9946666 53.112,56.016 C53.0586664,56.0266667 52.7493362,55.9573341 52.184,55.808 L49.592,56.224 C50.0080021,57.6426738 50.7706611,58.352 51.88,58.352 C52.3280022,58.352 52.7013318,58.181335 53,57.84 C53.266668,57.5306651 53.4266664,57.146669 53.48,56.688 C53.6933344,56.2506645 54.066664,56.032 54.6,56.032 C54.9306683,56.032 55.229332,56.1253324 55.496,56.312 C55.762668,56.4986676 55.896,56.725332 55.896,56.992 C55.896,57.0560003 55.8906667,57.1199997 55.88,57.184 C55.8479998,57.3013339 55.7466675,57.4346659 55.576,57.584 C55.383999,57.7653342 55.2666669,57.8826664 55.224,57.936 C55.1386662,58.0746674 54.9573347,58.3253315 54.68,58.688 C53.9866632,59.7866722 53.1813379,60.336 52.264,60.336 C51.0373272,60.336 50.0026709,59.973337 49.16,59.248 C48.3919962,58.6079968 47.8266685,57.7120058 47.464,56.56 L47,56.624 C46.6479982,56.9013347 46.4080006,57.0506666 46.28,57.072 C45.8639979,57.1360003 45.6026672,56.8373366 45.496,56.176 C45.4853333,56.0693328 45.48,55.9733338 45.48,55.888 C45.48,55.3013304 45.746664,54.9653338 46.28,54.88 C46.3866672,54.8693333 46.6479979,54.864 47.064,54.864 L47.112,54.864 C47.0693331,54.5759986 47.0426667,54.2826682 47.032,53.984 L46.904,54 C46.562665,54.266668 46.3226674,54.4106666 46.184,54.432 C45.7679979,54.506667 45.5120005,54.2080034 45.416,53.536 C45.3946666,53.4399995 45.384,53.3493338 45.384,53.264 C45.384,52.6773304 45.6559973,52.3413338 46.2,52.256 C46.2960005,52.2346666 46.5573312,52.2293333 46.984,52.24 L47.112,52.224 C47.3146677,50.6879923 47.8213293,49.4666712 48.632,48.56 C49.5493379,47.5466616 50.7599925,47.04 52.264,47.04 C52.7546691,47.04 53.2773306,47.2159982 53.832,47.568 C54.3013357,47.8666682 54.6479989,48.1759984 54.872,48.496 C54.9893339,48.6773342 55.1333325,48.8373326 55.304,48.976 C55.4746675,49.1146674 55.5653333,49.1893333 55.576,49.2 C55.6613338,49.3493341 55.704,49.4986659 55.704,49.648 C55.704,49.9466682 55.5173352,50.2026656 55.144,50.416 C54.8133317,50.5973342 54.4453354,50.688 54.04,50.688 C53.5706643,50.688 53.2720006,50.5706678 53.144,50.336 C53.1226666,50.2933331 53.0853336,50.0746686 53.032,49.68 C52.9786664,49.5839995 52.8240013,49.4560008 52.568,49.296 C52.2799986,49.1253325 52.0506675,49.04 51.88,49.04 C50.5359933,49.04 49.7093349,49.9893238 49.4,51.888 L52.408,51.456 C52.749335,51.1573318 52.9839994,50.9973334 53.112,50.976 C53.3146677,50.9439998 53.5359988,51.0933317 53.776,51.424 C54.0160012,51.7546683 54.1626664,52.0853317 54.216,52.416 C54.2480002,52.6506678 54.2053339,52.8506658 54.088,53.016 C53.9706661,53.1813342 53.8426674,53.2746666 53.704,53.296 Z"/>
  </g>
</svg>
