<svg xmlns="http://www.w3.org/2000/svg" width="64" height="64" viewBox="0 0 64 64">
  <g fill="none" fill-rule="evenodd">
    <path fill="#FFAF40" d="M28,53.9597759 C28,51.7493282 29.787167,49.7516292 31.9642898,49.5009519 L45,48 L58.0357102,49.5009519 C60.225127,49.7530447 62,51.7492282 62,53.9597759 L62,60.9574064 L28,60.9574064 L28,53.9597759 Z"/>
    <path fill="#FFDD95" d="M39,43.3164468 C35.9897907,40.470456 34,35.8615543 34,32 C34,25.9248678 38.9248678,21 45,21 C51.0751322,21 56,25.9248678 56,32 C56,35.8615543 54.0102093,40.470456 51,43.3164468 L51,50 C51,50 46.9325778,51.4486507 45,51.4486507 C43.0674222,51.4486507 39,50 39,50 L39,43.3164468 Z"/>
    <circle cx="36" cy="37" r="3" fill="#FFDD95"/>
    <circle cx="54" cy="37" r="3" fill="#FFDD95"/>
    <path fill="#5EA7FF" d="M14.375,30 L39.9976004,30 C41.1037214,30 42,29.1059106 42,28.0029953 L42,5.99700466 C42,4.89497885 41.1034952,4 39.9976004,4 L7.00239962,4 C5.89627863,4 5,4.89408944 5,5.99700466 L5,28.0029953 C5,29.1050211 5.89650485,30 7.00239962,30 L10,30 L10,35 L14.375,30 Z"/>
    <path fill="#5B68C0" d="M26.792,16.458 C26.7319997,16.458 26.3840032,16.3740008 25.748,16.206 L21.806,16.836 C21.806,17.1840017 21.8179999,17.5259983 21.842,17.862 L24.668,17.448 C25.0400019,17.1119983 25.3039992,16.9320001 25.46,16.908 C25.6880011,16.8719998 25.9369986,17.0429981 26.207,17.421 C26.4770014,17.7990019 26.6419997,18.1739981 26.702,18.546 C26.7380002,18.7980013 26.6900007,19.0169991 26.558,19.203 C26.4259993,19.3890009 26.2820008,19.4939999 26.126,19.518 C26.0659997,19.5300001 25.7180032,19.4520008 25.082,19.284 L22.166,19.752 C22.6340023,21.348008 23.4919938,22.146 24.74,22.146 C25.2440025,22.146 25.6639983,21.9540019 26,21.57 C26.3000015,21.2219983 26.4799997,20.7900026 26.54,20.274 C26.7800012,19.7819975 27.199997,19.536 27.8,19.536 C28.1720019,19.536 28.5079985,19.6409989 28.808,19.851 C29.1080015,20.0610011 29.258,20.3159985 29.258,20.616 C29.258,20.6880004 29.2520001,20.7599996 29.24,20.832 C29.2039998,20.9640007 29.090001,21.1139992 28.898,21.282 C28.6819989,21.486001 28.5500002,21.6179997 28.502,21.678 C28.4059995,21.8340008 28.2020016,22.115998 27.89,22.524 C27.1099961,23.7600062 26.2040052,24.378 25.172,24.378 C23.7919931,24.378 22.6280047,23.9700041 21.68,23.154 C20.8159957,22.4339964 20.180002,21.4260065 19.772,20.13 L19.25,20.202 C18.853998,20.5140016 18.5840007,20.6819999 18.44,20.706 C17.9719977,20.7780004 17.6780006,20.4420037 17.558,19.698 C17.5459999,19.5779994 17.54,19.4700005 17.54,19.374 C17.54,18.7139967 17.839997,18.3360005 18.44,18.24 C18.5600006,18.2279999 18.8539977,18.222 19.322,18.222 L19.376,18.222 C19.3279998,17.8979984 19.2980001,17.5680017 19.286,17.232 L19.142,17.25 C18.7579981,17.5500015 18.4880008,17.7119999 18.332,17.736 C17.8639977,17.8200004 17.5760005,17.4840038 17.468,16.728 C17.4439999,16.6199995 17.432,16.5180005 17.432,16.422 C17.432,15.7619967 17.7379969,15.3840005 18.35,15.288 C18.4580005,15.2639999 18.7519976,15.2579999 19.232,15.27 L19.376,15.252 C19.6040011,13.5239914 20.1739954,12.1500051 21.086,11.13 C22.1180052,9.9899943 23.4799915,9.42 25.172,9.42 C25.7240028,9.42 26.3119969,9.61799802 26.936,10.014 C27.4640026,10.3500017 27.8539987,10.6979982 28.106,11.058 C28.2380007,11.262001 28.399999,11.4419992 28.592,11.598 C28.784001,11.7540008 28.8859999,11.8379999 28.898,11.85 C28.9940005,12.0180008 29.042,12.1859992 29.042,12.354 C29.042,12.6900017 28.8320021,12.9779988 28.412,13.218 C28.0399981,13.422001 27.6260023,13.524 27.17,13.524 C26.6419974,13.524 26.3060007,13.3920013 26.162,13.128 C26.1379999,13.0799998 26.0960003,12.8340022 26.036,12.39 C25.9759997,12.2819995 25.8020014,12.1380009 25.514,11.958 C25.1899984,11.765999 24.932001,11.67 24.74,11.67 C23.2279924,11.67 22.2980017,12.7379893 21.95,14.874 L25.334,14.388 C25.7180019,14.0519983 25.9819993,13.8720001 26.126,13.848 C26.3540011,13.8119998 26.6029987,13.9799981 26.873,14.352 C27.1430013,14.7240019 27.3079997,15.0959981 27.368,15.468 C27.4040002,15.7320013 27.3560007,15.9569991 27.224,16.143 C27.0919993,16.3290009 26.9480008,16.4339999 26.792,16.458 Z"/>
  </g>
</svg>
