<svg xmlns="http://www.w3.org/2000/svg" width="64" height="64" viewBox="0 0 64 64">
  <g fill="none" fill-rule="evenodd">
    <circle cx="26" cy="38" r="23" fill="#FFAF40"/>
    <circle cx="26" cy="38" r="19" fill="#FFDD95"/>
    <path fill="#ED9111" d="M30.32,37.43 C30.2199995,37.43 29.6400053,37.2900014 28.58,37.01 L22.01,38.06 C22.01,38.6400029 22.0299998,39.2099972 22.07,39.77 L26.78,39.08 C27.4000031,38.5199972 27.8399987,38.2200002 28.1,38.18 C28.4800019,38.1199997 28.8949978,38.4049969 29.345,39.035 C29.7950023,39.6650032 30.0699995,40.2899969 30.17,40.91 C30.2300003,41.3300021 30.1500011,41.6949984 29.93,42.005 C29.7099989,42.3150015 29.4700013,42.4899998 29.21,42.53 C29.1099995,42.5500001 28.5300053,42.4200014 27.47,42.14 L22.61,42.92 C23.3900039,45.5800133 24.8199896,46.91 26.9,46.91 C27.7400042,46.91 28.4399972,46.5900032 29,45.95 C29.5000025,45.3699971 29.7999995,44.6500043 29.9,43.79 C30.300002,42.9699959 30.999995,42.56 32,42.56 C32.6200031,42.56 33.1799975,42.7349982 33.68,43.085 C34.1800025,43.4350018 34.43,43.8599975 34.43,44.36 C34.43,44.4800006 34.4200001,44.5999994 34.4,44.72 C34.3399997,44.9400011 34.1500016,45.1899986 33.83,45.47 C33.4699982,45.8100017 33.2500004,46.0299995 33.17,46.13 C33.0099992,46.3900013 32.6700026,46.8599966 32.15,47.54 C30.8499935,49.6000103 29.3400086,50.63 27.62,50.63 C25.3199885,50.63 23.3800079,49.9500068 21.8,48.59 C20.3599928,47.389994 19.3000034,45.7100108 18.62,43.55 L17.75,43.67 C17.0899967,44.1900026 16.6400012,44.4699998 16.4,44.51 C15.6199961,44.6300006 15.130001,44.0700062 14.93,42.83 C14.9099999,42.629999 14.9,42.4500008 14.9,42.29 C14.9,41.1899945 15.399995,40.5600008 16.4,40.4 C16.600001,40.3799999 17.0899961,40.37 17.87,40.37 L17.96,40.37 C17.8799996,39.8299973 17.8300001,39.2800028 17.81,38.72 L17.57,38.75 C16.9299968,39.2500025 16.4800013,39.5199998 16.22,39.56 C15.4399961,39.7000007 14.9600009,39.1400063 14.78,37.88 C14.7399998,37.6999991 14.72,37.5300008 14.72,37.37 C14.72,36.2699945 15.2299949,35.6400008 16.25,35.48 C16.4300009,35.4399998 16.919996,35.4299999 17.72,35.45 L17.96,35.42 C18.3400019,32.5399856 19.2899924,30.2500085 20.81,28.55 C22.5300086,26.6499905 24.7999859,25.7 27.62,25.7 C28.5400046,25.7 29.5199948,26.0299967 30.56,26.69 C31.4400044,27.2500028 32.0899979,27.829997 32.51,28.43 C32.7300011,28.7700017 32.9999984,29.0699987 33.32,29.33 C33.6400016,29.5900013 33.8099999,29.7299999 33.83,29.75 C33.9900008,30.0300014 34.07,30.3099986 34.07,30.59 C34.07,31.1500028 33.7200035,31.629998 33.02,32.03 C32.3999969,32.3700017 31.7100038,32.54 30.95,32.54 C30.0699956,32.54 29.5100012,32.3200022 29.27,31.88 C29.2299998,31.7999996 29.1600005,31.3900037 29.06,30.65 C28.9599995,30.4699991 28.6700024,30.2300015 28.19,29.93 C27.6499973,29.6099984 27.2200016,29.45 26.9,29.45 C24.3799874,29.45 22.8300029,31.2299822 22.25,34.79 L27.89,33.98 C28.5300032,33.4199972 28.9699988,33.1200002 29.21,33.08 C29.5900019,33.0199997 30.0049978,33.2999969 30.455,33.92 C30.9050023,34.5400031 31.1799995,35.1599969 31.28,35.78 C31.3400003,36.2200022 31.2600011,36.5949985 31.04,36.905 C30.8199989,37.2150016 30.5800013,37.3899998 30.32,37.43 Z"/>
    <path stroke="#979797" stroke-linecap="round" stroke-width="2" d="M59,11 C59,6.581722 55.418278,3 51,3 C46.581722,3 43,6.581722 43,11"/>
    <rect width="22" height="21" x="40" y="11" fill="#0A3586"/>
    <circle cx="51" cy="18" r="3" fill="#D8D8D8"/>
    <rect width="2" height="7" x="50" y="20" fill="#D8D8D8"/>
  </g>
</svg>
