<svg xmlns="http://www.w3.org/2000/svg" width="64" height="64" viewBox="0 0 64 64">
  <g fill="none" fill-rule="evenodd">
    <circle cx="32" cy="32" r="29" fill="#4796E7"/>
    <path fill="#FFDD95" d="M38.584,30.916 C38.4639994,30.916 37.7680064,30.7480017 36.496,30.412 L28.612,31.672 C28.612,32.3680035 28.6359998,33.0519966 28.684,33.724 L34.336,32.896 C35.0800037,32.2239966 35.6079984,31.8640002 35.92,31.816 C36.3760023,31.7439996 36.8739973,32.0859962 37.414,32.842 C37.9540027,33.5980038 38.2839994,34.3479963 38.404,35.092 C38.4760004,35.5960025 38.3800013,36.0339981 38.116,36.406 C37.8519987,36.7780019 37.5640016,36.9879998 37.252,37.036 C37.1319994,37.0600001 36.4360064,36.9040017 35.164,36.568 L29.332,37.504 C30.2680047,40.696016 31.9839875,42.292 34.48,42.292 C35.488005,42.292 36.3279966,41.9080038 37,41.14 C37.600003,40.4439965 37.9599994,39.5800052 38.08,38.548 C38.5600024,37.5639951 39.399994,37.072 40.6,37.072 C41.3440037,37.072 42.015997,37.2819979 42.616,37.702 C43.216003,38.1220021 43.516,38.631997 43.516,39.232 C43.516,39.3760007 43.5040001,39.5199993 43.48,39.664 C43.4079996,39.9280013 43.1800019,40.2279983 42.796,40.564 C42.3639978,40.972002 42.1000005,41.2359994 42.004,41.356 C41.811999,41.6680016 41.4040031,42.2319959 40.78,43.048 C39.2199922,45.5200124 37.4080103,46.756 35.344,46.756 C32.5839862,46.756 30.2560095,45.9400082 28.36,44.308 C26.6319914,42.8679928 25.3600041,40.852013 24.544,38.26 L23.5,38.404 C22.707996,39.0280031 22.1680014,39.3639998 21.88,39.412 C20.9439953,39.5560007 20.3560012,38.8840074 20.116,37.396 C20.0919999,37.1559988 20.08,36.940001 20.08,36.748 C20.08,35.4279934 20.679994,34.672001 21.88,34.48 C22.1200012,34.4559999 22.7079953,34.444 23.644,34.444 L23.752,34.444 C23.6559995,33.7959968 23.5960001,33.1360034 23.572,32.464 L23.284,32.5 C22.5159962,33.100003 21.9760016,33.4239998 21.664,33.472 C20.7279953,33.6400008 20.1520011,32.9680076 19.936,31.456 C19.8879998,31.2399989 19.864,31.036001 19.864,30.844 C19.864,29.5239934 20.4759939,28.768001 21.7,28.576 C21.9160011,28.5279998 22.5039952,28.5159999 23.464,28.54 L23.752,28.504 C24.2080023,25.0479827 25.3479909,22.3000102 27.172,20.26 C29.2360103,17.9799886 31.9599831,16.84 35.344,16.84 C36.4480055,16.84 37.6239938,17.235996 38.872,18.028 C39.9280053,18.7000034 40.7079975,19.3959964 41.212,20.116 C41.4760013,20.524002 41.7999981,20.8839984 42.184,21.196 C42.5680019,21.5080016 42.7719999,21.6759999 42.796,21.7 C42.988001,22.0360017 43.084,22.3719983 43.084,22.708 C43.084,23.3800034 42.6640042,23.9559976 41.824,24.436 C41.0799963,24.844002 40.2520046,25.048 39.34,25.048 C38.2839947,25.048 37.6120014,24.7840026 37.324,24.256 C37.2759998,24.1599995 37.1920006,23.6680044 37.072,22.78 C36.9519994,22.5639989 36.6040029,22.2760018 36.028,21.916 C35.3799968,21.5319981 34.8640019,21.34 34.48,21.34 C31.4559849,21.34 29.5960035,23.4759786 28.9,27.748 L35.668,26.776 C36.4360038,26.1039966 36.9639986,25.7440002 37.252,25.696 C37.7080023,25.6239996 38.2059973,25.9599963 38.746,26.704 C39.2860027,27.4480037 39.6159994,28.1919963 39.736,28.936 C39.8080004,29.4640026 39.7120013,29.9139981 39.448,30.286 C39.1839987,30.6580019 38.8960016,30.8679998 38.584,30.916 Z"/>
  </g>
</svg>
