<svg xmlns="http://www.w3.org/2000/svg" width="64" height="64" viewBox="0 0 64 64">
  <g fill="none" fill-rule="evenodd">
    <path fill="#B6B6B6" d="M5,28 L59,28 L59,60 L5,60 L5,28 Z M32,13 L59,28 L5,28 L32,13 Z"/>
    <polygon fill="#B4DFFB" points="12 6 41.105 6 52 17.753 52 56 12 56"/>
    <path fill="#595959" d="M36.144,25.106 C36.0573329,25.106 35.5546713,24.9846679 34.636,24.742 L28.942,25.652 C28.942,26.1546692 28.9593332,26.6486642 28.994,27.134 L33.076,26.536 C33.613336,26.0506642 33.9946655,25.7906668 34.22,25.756 C34.549335,25.7039997 34.9089981,25.9509973 35.299,26.497 C35.6890019,27.0430027 35.9273329,27.584664 36.014,28.122 C36.0660003,28.4860018 35.9966676,28.802332 35.806,29.071 C35.6153324,29.339668 35.4073345,29.4913332 35.182,29.526 C35.0953329,29.5433334 34.5926713,29.4306679 33.674,29.188 L29.462,29.864 C30.1380034,32.1693449 31.3773243,33.322 33.18,33.322 C33.9080036,33.322 34.5146642,33.0446694 35,32.49 C35.4333355,31.9873308 35.6933329,31.3633371 35.78,30.618 C36.1266684,29.9073298 36.733329,29.552 37.6,29.552 C38.137336,29.552 38.6226645,29.7036652 39.056,30.007 C39.4893355,30.3103348 39.706,30.6786645 39.706,31.112 C39.706,31.2160005 39.6973334,31.3199995 39.68,31.424 C39.6279997,31.6146676 39.4633347,31.8313321 39.186,32.074 C38.8739984,32.3686681 38.6833337,32.5593329 38.614,32.646 C38.4753326,32.8713345 38.1806689,33.2786637 37.73,33.868 C36.6033277,35.6533423 35.2946741,36.546 33.804,36.546 C31.8106567,36.546 30.1293402,35.9566726 28.76,34.778 C27.5119938,33.7379948 26.5933363,32.2820094 26.004,30.41 L25.25,30.514 C24.6779971,30.9646689 24.288001,31.2073332 24.08,31.242 C23.4039966,31.3460005 22.9793342,30.860672 22.806,29.786 C22.7886666,29.6126658 22.78,29.4566674 22.78,29.318 C22.78,28.3646619 23.213329,27.8186674 24.08,27.68 C24.2533342,27.6626666 24.6779966,27.654 25.354,27.654 L25.432,27.654 C25.3626663,27.1859977 25.3193334,26.7093358 25.302,26.224 L25.094,26.25 C24.5393306,26.6833355 24.1493345,26.9173332 23.924,26.952 C23.2479966,27.0733339 22.8320008,26.5880055 22.676,25.496 C22.6413332,25.3399992 22.624,25.1926674 22.624,25.054 C22.624,24.1006619 23.0659956,23.5546674 23.95,23.416 C24.1060008,23.3813332 24.5306632,23.3726666 25.224,23.39 L25.432,23.364 C25.761335,20.8679875 26.5846601,18.8833407 27.902,17.41 C29.3926741,15.7633251 31.3599878,14.94 33.804,14.94 C34.6013373,14.94 35.4506622,15.2259971 36.352,15.798 C37.1146705,16.2833358 37.6779982,16.7859974 38.042,17.306 C38.2326676,17.6006681 38.4666653,17.8606655 38.744,18.086 C39.0213347,18.3113345 39.1686666,18.4326666 39.186,18.45 C39.3246674,18.6926679 39.394,18.9353321 39.394,19.178 C39.394,19.6633358 39.0906697,20.0793316 38.484,20.426 C37.946664,20.7206681 37.34867,20.868 36.69,20.868 C35.9273295,20.868 35.442001,20.6773352 35.234,20.296 C35.1993332,20.2266663 35.1386671,19.8713365 35.052,19.23 C34.9653329,19.0739992 34.7140021,18.8660013 34.298,18.606 C33.8299977,18.3286653 33.4573347,18.19 33.18,18.19 C30.9959891,18.19 29.6526692,19.7326512 29.15,22.818 L34.038,22.116 C34.5926694,21.6306642 34.973999,21.3706668 35.182,21.336 C35.511335,21.2839997 35.8709981,21.526664 36.261,22.064 C36.6510019,22.601336 36.8893329,23.138664 36.976,23.676 C37.0280003,24.0573352 36.9586676,24.382332 36.768,24.651 C36.5773324,24.919668 36.3693345,25.0713332 36.144,25.106 Z"/>
    <polygon fill="#4796E7" points="41 6 52 6 52 18" transform="rotate(-180 46.5 12)"/>
    <polygon fill="#D8D8D8" points="30 47.5 5 60 5 28"/>
    <polygon fill="#D8D8D8" points="59 47.5 34 60 34 28" transform="matrix(-1 0 0 1 93 0)"/>
    <polygon fill="#ECECEC" points="32 45 59 60 5 60"/>
  </g>
</svg>
