<svg xmlns="http://www.w3.org/2000/svg" width="64" height="64" viewBox="0 0 64 64">
  <g fill="none" fill-rule="evenodd">
    <rect width="17" height="11" x="24" y="10" stroke="#595959" stroke-linecap="round" stroke-width="2" rx="3"/>
    <rect width="59" height="38" x="3" y="17" fill="#595959"/>
    <circle cx="15" cy="44" r="9" fill="#FFAF40"/>
    <path fill="#FFF" d="M16.6992327,46.9647635 C16.7650563,46.6876119 16.9023107,46.4980259 17.111,46.396 C17.321001,46.2933328 17.5333323,46.2746663 17.748,46.34 C18.2520025,46.5173342 18.4340007,46.876664 18.294,47.418 C17.9113314,48.351338 17.2673379,48.915999 16.362,49.112 C16.1753324,49.112 15.9746677,49.0980001 15.76,49.07 C15.5453323,49.0419999 15.3213345,48.9953337 15.088,48.93 C14.9573327,48.9019999 14.8266673,48.8763334 14.696,48.853 C14.5653327,48.8296666 14.4393339,48.818 14.318,48.818 C14.1499992,48.818 13.9960007,48.8413331 13.856,48.888 L13.31,49.056 C12.917998,49.1120003 12.5493351,49.1306668 12.204,49.112 C11.811998,48.9906661 11.5670005,48.8366676 11.469,48.65 C11.3709995,48.4633324 11.3499997,48.2580011 11.406,48.034 C11.4246668,47.9499996 11.4573331,47.877667 11.504,47.817 C11.5506669,47.756333 11.6019997,47.688667 11.658,47.614 C11.7046669,47.539333 11.758333,47.4670003 11.819,47.397 C11.879667,47.3269997 11.9286665,47.2500004 11.966,47.166 L11.952,47.194 C12.0546672,46.6713307 12.1549995,46.1790023 12.253,45.717 C12.3510005,45.2549977 12.4466662,44.7673359 12.54,44.254 C12.4373328,44.2633334 12.3416671,44.2656667 12.253,44.261 C12.1643329,44.2563333 12.0686672,44.254 11.966,44.254 L11.77,44.254 C11.6019992,44.254 11.4690005,44.1770008 11.371,44.023 C11.2729995,43.8689992 11.224,43.7126675 11.224,43.554 C11.224,43.4326661 11.2379999,43.2996674 11.266,43.155 C11.2940001,43.0103326 11.345333,42.8866672 11.42,42.784 C11.4760003,42.7466665 11.5693327,42.7093335 11.7,42.672 C11.8306673,42.6346665 11.9613327,42.6066668 12.092,42.588 C12.2226673,42.5693332 12.3393328,42.5576667 12.442,42.553 C12.5446672,42.5483333 12.596,42.5506666 12.596,42.56 C12.596,42.5506666 12.6239997,42.5436667 12.68,42.539 C12.7360003,42.5343333 12.8106662,42.532 12.904,42.532 L13.744,38.276 C13.8280004,37.9586651 14.0286651,37.7253341 14.346,37.576 C14.6633349,37.4266659 15.0786641,37.3753331 15.592,37.422 L15.662,37.422 L16.236,37.478 C17.1226711,37.7020011 17.603333,38.2853286 17.678,39.228 C17.6966668,39.3493339 17.6873335,39.4613328 17.65,39.564 C17.5846663,39.760001 17.4586676,39.9046662 17.272,39.998 C17.0853324,40.0913338 16.8893344,40.1146669 16.684,40.068 C16.5066658,40.0119997 16.3666672,39.9140007 16.264,39.774 C16.1613328,39.6339993 16.11,39.4566677 16.11,39.242 C16.1380001,39.1019993 16.0213346,38.9993337 15.76,38.934 C15.6573328,38.9433334 15.5803336,38.9549999 15.529,38.969 C15.4776664,38.9830001 15.4286669,39.0179997 15.382,39.074 C15.3446665,39.1860006 15.2676672,39.5219972 15.151,40.082 C15.0343327,40.6420028 14.878001,41.4539947 14.682,42.518 C14.8500008,42.4993332 14.9993327,42.49 15.13,42.49 L15.536,42.49 C15.928002,42.4806666 16.2733318,42.5086663 16.572,42.574 C16.7773344,42.6393337 16.9313328,42.7839989 17.034,43.008 C17.1366672,43.2320011 17.1693335,43.4653321 17.132,43.708 C17.0199994,44.2586694 16.7166691,44.4453342 16.222,44.268 C16.1846665,44.2493332 16.1473335,44.2376667 16.11,44.233 C16.0726665,44.2283333 16.0306669,44.2213334 15.984,44.212 C15.7599989,44.1466663 15.4706684,44.1279999 15.116,44.156 L14.332,44.226 L13.758,47.026 C13.9073341,47.0073332 14.0473327,46.9933334 14.178,46.984 C14.3086673,46.9746666 14.4439993,46.97 14.584,46.97 C14.8640014,46.97 15.1276654,46.9979997 15.375,47.054 C15.6223346,47.1100003 15.8673321,47.2033327 16.11,47.334 L16.096,47.334 C16.3412946,47.361255 16.5423703,47.2381773 16.6992327,46.9647635 L16.6992327,46.9647635 Z"/>
    <polygon fill="#868686" points="3 17 62 17 62 26.5 32.5 36 3 26.5"/>
    <path fill="#FFAF40" d="M29,33 L35,33 L35,36.9907455 C35,38.6527109 33.6534829,40 32,40 L32,40 C30.3431458,40 29,38.6503296 29,36.9907455 L29,33 Z"/>
  </g>
</svg>
