<svg xmlns="http://www.w3.org/2000/svg" width="64" height="64" viewBox="0 0 64 64">
  <g fill="none" fill-rule="evenodd">
    <path fill="#4796E7" d="M2,16.0222786 C2,16.0222786 10.0454499,20.3136343 17.25,21.0222786 C24.4545501,21.7309229 39.9822361,15.7675978 47.75,16.0222786 C55.5177639,16.2769594 63,20.0222786 63,20.0222786 L63,51.0222786 C63,51.0222786 55.2322361,47.2675978 47.75,47.0222786 C40.4103585,46.7816346 25.2954499,52.8136343 17.25,52.0222786 C9.20455009,51.2309229 2,47.0222786 2,47.0222786 L2,16.0222786 Z"/>
    <circle cx="32" cy="34" r="11" fill="#B4DFFB"/>
    <path fill="#5B68C0" d="M34.704,33.296 C34.6506664,33.296 34.3413362,33.2213341 33.776,33.072 L30.272,33.632 C30.272,33.9413349 30.2826666,34.2453318 30.304,34.544 L32.816,34.176 C33.1466683,33.8773318 33.3813326,33.7173334 33.52,33.696 C33.7226677,33.6639998 33.9439988,33.8159983 34.184,34.152 C34.4240012,34.4880017 34.5706664,34.8213317 34.624,35.152 C34.6560002,35.3760011 34.6133339,35.5706658 34.496,35.736 C34.3786661,35.9013342 34.2506674,35.9946666 34.112,36.016 C34.0586664,36.0266667 33.7493362,35.9573341 33.184,35.808 L30.592,36.224 C31.0080021,37.6426738 31.7706611,38.352 32.88,38.352 C33.3280022,38.352 33.7013318,38.181335 34,37.84 C34.266668,37.5306651 34.4266664,37.146669 34.48,36.688 C34.6933344,36.2506645 35.066664,36.032 35.6,36.032 C35.9306683,36.032 36.229332,36.1253324 36.496,36.312 C36.762668,36.4986676 36.896,36.725332 36.896,36.992 C36.896,37.0560003 36.8906667,37.1199997 36.88,37.184 C36.8479998,37.3013339 36.7466675,37.4346659 36.576,37.584 C36.383999,37.7653342 36.2666669,37.8826664 36.224,37.936 C36.1386662,38.0746674 35.9573347,38.3253315 35.68,38.688 C34.9866632,39.7866722 34.1813379,40.336 33.264,40.336 C32.0373272,40.336 31.0026709,39.973337 30.16,39.248 C29.3919962,38.6079968 28.8266685,37.7120058 28.464,36.56 L28,36.624 C27.6479982,36.9013347 27.4080006,37.0506666 27.28,37.072 C26.8639979,37.1360003 26.6026672,36.8373366 26.496,36.176 C26.4853333,36.0693328 26.48,35.9733338 26.48,35.888 C26.48,35.3013304 26.746664,34.9653338 27.28,34.88 C27.3866672,34.8693333 27.6479979,34.864 28.064,34.864 L28.112,34.864 C28.0693331,34.5759986 28.0426667,34.2826682 28.032,33.984 L27.904,34 C27.562665,34.266668 27.3226674,34.4106666 27.184,34.432 C26.7679979,34.506667 26.5120005,34.2080034 26.416,33.536 C26.3946666,33.4399995 26.384,33.3493338 26.384,33.264 C26.384,32.6773304 26.6559973,32.3413338 27.2,32.256 C27.2960005,32.2346666 27.5573312,32.2293333 27.984,32.24 L28.112,32.224 C28.3146677,30.6879923 28.8213293,29.4666712 29.632,28.56 C30.5493379,27.5466616 31.7599925,27.04 33.264,27.04 C33.7546691,27.04 34.2773306,27.2159982 34.832,27.568 C35.3013357,27.8666682 35.6479989,28.1759984 35.872,28.496 C35.9893339,28.6773342 36.1333325,28.8373326 36.304,28.976 C36.4746675,29.1146674 36.5653333,29.1893333 36.576,29.2 C36.6613338,29.3493341 36.704,29.4986659 36.704,29.648 C36.704,29.9466682 36.5173352,30.2026656 36.144,30.416 C35.8133317,30.5973342 35.4453354,30.688 35.04,30.688 C34.5706643,30.688 34.2720006,30.5706678 34.144,30.336 C34.1226666,30.2933331 34.0853336,30.0746686 34.032,29.68 C33.9786664,29.5839995 33.8240013,29.4560008 33.568,29.296 C33.2799986,29.1253325 33.0506675,29.04 32.88,29.04 C31.5359933,29.04 30.7093349,29.9893238 30.4,31.888 L33.408,31.456 C33.749335,31.1573318 33.9839994,30.9973334 34.112,30.976 C34.3146677,30.9439998 34.5359988,31.0933317 34.776,31.424 C35.0160012,31.7546683 35.1626664,32.0853317 35.216,32.416 C35.2480002,32.6506678 35.2053339,32.8506658 35.088,33.016 C34.9706661,33.1813342 34.8426674,33.2746666 34.704,33.296 Z"/>
  </g>
</svg>
