<svg xmlns="http://www.w3.org/2000/svg" width="64" height="64" viewBox="0 0 64 64">
  <g fill="none" fill-rule="evenodd">
    <rect width="28" height="43" x="30" y="11" fill="#80D25B"/>
    <rect width="11" height="7" x="27" y="14" fill="#FFF"/>
    <rect width="11" height="7" x="27" y="24" fill="#FFF"/>
    <rect width="14" height="7" x="41" y="14" fill="#FFF"/>
    <rect width="14" height="7" x="41" y="24" fill="#FFF"/>
    <rect width="11" height="7" x="27" y="34" fill="#FFF"/>
    <rect width="14" height="7" x="41" y="34" fill="#FFF"/>
    <rect width="11" height="7" x="27" y="44" fill="#FFF"/>
    <rect width="14" height="7" x="41" y="44" fill="#FFF"/>
    <polygon fill="#5DAF38" points="5 10 31 7 31 58 5 55"/>
    <path fill="#FFDD95" d="M23.44,40 C23.373333,41.1200056 22.8266718,41.68 21.8,41.68 C21.3866646,41.68 20.9733354,41.5833343 20.56,41.39 C20.1466646,41.1966657 19.8533342,40.9866678 19.68,40.76 C19.5733328,40.6133326 19.52,40.4666674 19.52,40.32 C19.52,40.2133328 19.5566663,40.0766675 19.63,39.91 C19.7033337,39.7433325 19.74,39.6200004 19.74,39.54 C19.74,39.4599996 19.7200002,39.386667 19.68,39.32 L17.28,35.2 L15,39.92 C14.9199996,40.0933342 14.9066664,40.3399984 14.96,40.66 C15.0133336,40.9000012 14.9600008,41.0999992 14.8,41.26 C14.5866656,41.4733344 14.246669,41.58 13.78,41.58 C13.2333306,41.58 12.7200024,41.446668 12.24,41.18 C11.7199974,40.913332 11.46,40.5866686 11.46,40.2 C11.46,40.1066662 11.4799998,40.0133338 11.52,39.92 C11.5733336,39.7599992 11.6866658,39.6300005 11.86,39.53 C12.0333342,39.4299995 12.1466664,39.3333338 12.2,39.24 L15.6,32.6 L12.36,26.6 C12.3199998,26.5199996 12.1966677,26.4366671 11.99,26.35 C11.7833323,26.2633329 11.6666668,26.1333342 11.64,25.96 C11.5999998,25.6133316 11.8866636,25.2866682 12.5,24.98 C13.0733362,24.6866652 13.6399972,24.54 14.2,24.54 C14.4133344,24.54 14.586666,24.573333 14.72,24.64 C14.9333344,24.7466672 15.0666664,24.966665 15.12,25.3 C15.2000004,25.766669 15.90666,27.33332 17.24,30 L18.88,26.36 C18.9333336,26.2399994 18.993333,25.9933352 19.06,25.62 C19.1133336,25.3266652 19.2133326,25.1066674 19.36,24.96 C19.5733344,24.759999 19.8999978,24.66 20.34,24.66 C20.8600026,24.66 21.3266646,24.7866654 21.74,25.04 C22.1933356,25.3333348 22.4000002,25.6933312 22.36,26.12 C22.3199998,26.4666684 22.1733346,26.706666 21.92,26.84 C21.5999984,26.9866674 21.4133336,27.1199994 21.36,27.24 L18.76,32.6 L22.56,38.96 C22.6000002,39.0400004 22.7799984,39.1866656 23.1,39.4 C23.3400012,39.5466674 23.4533334,39.7466654 23.44,40 Z"/>
  </g>
</svg>
