<svg xmlns="http://www.w3.org/2000/svg" width="64" height="64" viewBox="0 0 64 64">
  <g fill="none" fill-rule="evenodd">
    <path fill="#FFDD95" d="M4.32524163,27.0978733 C4.32524163,27.0978733 7.11129694,27.3886417 11.5916007,27.2432575 C16.0719046,27.0978733 22.2108235,28.9275286 25.5750898,34.6588017 C25.5750898,34.6588017 35.987639,31.7093079 40.3206581,40.4147805 C40.3206581,40.4147805 43.7267343,41.2666559 44.1809411,40.7601868 C44.6351479,40.2537177 41.493709,36.3349959 42.3151773,23.4993769 C42.3151773,23.4993769 40.3505902,21.4948804 38.1821801,21.0031397 C36.0137701,20.5113991 35.1471663,21.8084541 32.8300463,19.5540489 C30.5129262,17.2996436 28.6224566,13.8061469 29.5646032,12.8174394 C30.5067498,11.8287318 31.7144839,11.8116278 31.7144839,11.8116278 C31.7144839,11.8116278 31.7444159,9.06025564 33.7213559,9.00181689 C35.6982959,8.94337815 42.9884106,10.2974466 44.6902609,12.6611276 C46.3921112,15.0248086 46.9917022,20.3009246 50.4020544,24.6957083 C53.8124065,29.090492 60.340442,36.3540004 58.4894066,50.4429643 C58.4894066,50.4429643 37.8448508,61.9620487 20.3854442,54.3920932 C20.3854442,54.3920932 19.1322494,59.41598 13.2924389,62.9062293 C13.2924389,62.9062293 8.74710669,55.4131083 4.87589615,46.1089949 C1.0046856,36.8048815 4.32524163,27.0978733 4.32524163,27.0978733 Z"/>
    <circle cx="35" cy="15" r="11" fill="#595959"/>
    <circle cx="35" cy="15" r="5" fill="#979797"/>
    <g stroke="#22BA8E" stroke-width="2" transform="rotate(-90 12 5)">
      <path stroke-linecap="square" d="M5,13 L5,2"/>
      <polyline stroke-linecap="round" stroke-linejoin="round" points=".707 5.31 5.052 .712 9.157 5.31"/>
    </g>
    <g stroke="#22BA8E" stroke-width="2" transform="matrix(0 -1 -1 0 62 17)">
      <path stroke-linecap="square" d="M5,13 L5,2"/>
      <polyline stroke-linecap="round" stroke-linejoin="round" points=".707 5.31 5.052 .712 9.157 5.31"/>
    </g>
  </g>
</svg>
