<svg xmlns="http://www.w3.org/2000/svg" width="64" height="64" viewBox="0 0 64 64">
  <g fill="none" fill-rule="evenodd">
    <path fill="#5B68C0" d="M19.7272727,53 L56.0002326,53 C58.2013211,53 60,51.2114659 60,49.0051972 L60,19.9948028 C60,17.7845869 58.2092431,16 56.0002326,16 L8.99976742,16 C6.79867889,16 5,17.7885341 5,19.9948028 L5,49.0051972 C5,51.2154131 6.79075687,53 8.99976742,53 L14,53 L14,60 L19.7272727,53 Z"/>
    <path fill="#FFF" d="M16.05,29.53 C15.975333,29.8846684 15.7233355,30.2626647 15.294,30.664 C15.2286663,30.7666672 14.9720022,30.9019992 14.524,31.07 C14.0106641,31.266001 13.5673352,31.3500001 13.194,31.322 C12.4939965,31.2753331 11.9433353,30.8740038 11.542,30.118 C11.1779982,29.4179965 10.996,28.5593384 10.996,27.542 C10.996,26.4406612 11.2013313,25.4746708 11.612,24.644 C12.0693356,23.7293288 12.6806628,23.2160006 13.446,23.104 C13.5953341,23.0853332 13.7399993,23.076 13.88,23.076 C14.9906722,23.076 15.6019994,23.7573265 15.714,25.12 C15.7700003,25.7453365 15.5226694,26.426663 14.972,27.164 C14.3746637,27.9760041 13.609338,28.5453317 12.676,28.872 C12.7786672,29.2453352 12.8579997,29.4879994 12.914,29.6 C13.0446673,29.8333345 13.2219989,29.95 13.446,29.95 C13.6606677,29.95 13.8893321,29.8660008 14.132,29.698 C14.3373344,29.5579993 14.477333,29.4226673 14.552,29.292 C14.5893335,29.2733332 14.6266665,29.1683343 14.664,28.977 C14.7013335,28.7856657 14.7993325,28.6480004 14.958,28.564 C15.0140003,28.5359999 15.079333,28.522 15.154,28.522 C15.3780011,28.522 15.5949989,28.6316656 15.805,28.851 C16.0150011,29.0703344 16.0966669,29.2966655 16.05,29.53 Z M13.852,24.602 C13.4786648,24.602 13.1753345,24.8679973 12.942,25.4 C12.6339985,26.1093369 12.5079997,26.8093299 12.564,27.5 C13.0026689,27.3599993 13.4086648,27.0333359 13.782,26.52 C14.1553352,26.0066641 14.342,25.5493353 14.342,25.148 C14.342,24.7839982 14.1786683,24.602 13.852,24.602 Z M22.826,23.58 C22.8446668,23.7386675 22.7513344,23.8879993 22.546,24.028 C22.2846654,24.2146676 22.1260003,24.3546662 22.07,24.448 L20.474,27.22 L21.818,29.824 C21.8366668,29.8520001 21.9346658,29.9966654 22.112,30.258 C22.2240006,30.4166675 22.28,30.5613327 22.28,30.692 C22.28,30.766667 22.2660001,30.841333 22.238,30.916 C22.0793325,31.3173353 21.7853355,31.518 21.356,31.518 C21.1786658,31.518 21.0060008,31.480667 20.838,31.406 C20.6046655,31.3033328 20.4763334,31.1703341 20.453,31.007 C20.4296665,30.8436658 20.4086668,30.6826675 20.39,30.524 L19.634,28.648 L18.794,30.328 C18.7379997,30.5146676 18.672667,30.6989991 18.598,30.881 C18.523333,31.0630009 18.3786677,31.154 18.164,31.154 C17.893332,31.154 17.6320013,31.0606676 17.38,30.874 C17.109332,30.6593323 16.9926665,30.4213346 17.03,30.16 C17.0486668,30.0573328 17.1116661,29.9476673 17.219,29.831 C17.3263339,29.7143327 17.3939999,29.6280003 17.422,29.572 L18.654,27.332 L17.786,24.616 C17.7579999,24.5226662 17.6670008,24.408334 17.513,24.273 C17.3589992,24.137666 17.2726668,24.0093339 17.254,23.888 C17.2259999,23.6733323 17.3566652,23.4820008 17.646,23.314 C17.9073346,23.1739993 18.1873318,23.104 18.486,23.104 C18.6540008,23.104 18.7846662,23.1319997 18.878,23.188 C19.0833344,23.3186673 19.2093331,23.4843323 19.256,23.685 C19.3026669,23.8856677 19.3446665,24.083999 19.382,24.28 L19.802,25.596 L20.726,23.944 C20.8100004,23.7666658 20.9009995,23.5846676 20.999,23.398 C21.0970005,23.2113324 21.2299992,23.0853337 21.398,23.02 C21.5006672,22.9733331 21.6173327,22.95 21.748,22.95 C21.9906679,22.95 22.2263322,23.017666 22.455,23.153 C22.6836678,23.288334 22.8073332,23.4306659 22.826,23.58 Z M28.23,29.53 C28.155333,29.8846684 27.9033355,30.2626647 27.474,30.664 C27.4086663,30.7666672 27.1520022,30.9019992 26.704,31.07 C26.1906641,31.266001 25.7473352,31.3500001 25.374,31.322 C24.6739965,31.2753331 24.1233353,30.8740038 23.722,30.118 C23.3579982,29.4179965 23.176,28.5593384 23.176,27.542 C23.176,26.4406612 23.3813313,25.4746708 23.792,24.644 C24.2493356,23.7293288 24.8606628,23.2160006 25.626,23.104 C25.7753341,23.0853332 25.9199993,23.076 26.06,23.076 C27.1706722,23.076 27.7819994,23.7573265 27.894,25.12 C27.9500003,25.7453365 27.7026694,26.426663 27.152,27.164 C26.5546637,27.9760041 25.789338,28.5453317 24.856,28.872 C24.9586672,29.2453352 25.0379997,29.4879994 25.094,29.6 C25.2246673,29.8333345 25.4019989,29.95 25.626,29.95 C25.8406677,29.95 26.0693321,29.8660008 26.312,29.698 C26.5173344,29.5579993 26.657333,29.4226673 26.732,29.292 C26.7693335,29.2733332 26.8066665,29.1683343 26.844,28.977 C26.8813335,28.7856657 26.9793325,28.6480004 27.138,28.564 C27.1940003,28.5359999 27.259333,28.522 27.334,28.522 C27.5580011,28.522 27.774999,28.6316656 27.985,28.851 C28.195001,29.0703344 28.2766669,29.2966655 28.23,29.53 Z M26.032,24.602 C25.6586648,24.602 25.3553345,24.8679973 25.122,25.4 C24.8139985,26.1093369 24.6879997,26.8093299 24.744,27.5 C25.1826689,27.3599993 25.5886648,27.0333359 25.962,26.52 C26.3353352,26.0066641 26.522,25.5493353 26.522,25.148 C26.522,24.7839982 26.3586683,24.602 26.032,24.602 Z M34.642,23.86 C34.6046665,24.056001 34.4273349,24.191333 34.11,24.266 C33.7366648,24.3593338 33.4986672,24.4666661 33.396,24.588 L31.114,27.22 L31.114,29.348 C31.114,29.5533344 31.1723328,29.7609989 31.289,29.971 C31.4056672,30.181001 31.464,30.3419994 31.464,30.454 C31.464,30.5660006 31.4313337,30.6919993 31.366,30.832 C31.2073325,31.1866684 30.8853358,31.364 30.4,31.364 C30.0639983,31.364 29.798001,31.2566677 29.602,31.042 C29.4713327,30.9019993 29.406,30.7246677 29.406,30.51 C29.406,30.435333 29.4153332,30.3140008 29.434,30.146 C29.4526668,29.9779992 29.462,29.8426672 29.462,29.74 L29.462,24.504 C29.462,24.4199996 29.424667,24.3173339 29.35,24.196 C29.275333,24.0746661 29.238,23.976667 29.238,23.902 C29.238,23.8459997 29.2566665,23.780667 29.294,23.706 C29.4153339,23.4819989 29.7933302,23.37 30.428,23.37 C30.9226691,23.37 31.2026663,23.4866655 31.268,23.72 C31.2960001,23.8133338 31.31,23.8926663 31.31,23.958 C31.31,24.0606672 31.272667,24.1399997 31.198,24.196 C31.123333,24.2520003 31.086,24.3079997 31.086,24.364 L31.114,24.868 L32.318,23.594 C32.4580007,23.4353325 32.6049992,23.2766675 32.759,23.118 C32.9130008,22.9593325 33.0926656,22.8706668 33.298,22.852 C33.6153349,22.8239999 33.9209985,22.8939992 34.215,23.062 C34.5090015,23.2300008 34.656,23.449332 34.656,23.72 C34.656,23.7666669 34.6513334,23.8133331 34.642,23.86 Z M39.416,28.676 C39.4066666,28.8813344 39.3180008,29.0913323 39.15,29.306 C38.8886654,29.6140015 38.720667,29.8473325 38.646,30.006 C38.0579971,30.9020045 37.4513365,31.35 36.826,31.35 C36.088663,31.35 35.5146687,30.9766704 35.104,30.23 C34.7399982,29.5486633 34.558,28.6900052 34.558,27.654 C34.558,26.4686607 34.7819978,25.4373377 35.23,24.56 C35.7246691,23.5893285 36.3639961,23.104 37.148,23.104 C37.7640031,23.104 38.2633314,23.4446633 38.646,24.126 C38.9633349,24.7046696 39.122,25.3346633 39.122,26.016 C39.122,26.2026676 39.1080001,26.3659993 39.08,26.506 C39.0146663,26.8233349 38.748669,26.982 38.282,26.982 C37.9179982,26.982 37.638001,26.8793344 37.442,26.674 C37.3486662,26.5713328 37.302,26.3333352 37.302,25.96 C37.302,25.8666662 37.3066666,25.7313342 37.316,25.554 L37.316,25.148 C37.316,24.7279979 37.2413341,24.518 37.092,24.518 C36.9333325,24.518 36.7653342,24.9776621 36.588,25.897 C36.4106658,26.8163379 36.322,27.6773293 36.322,28.48 C36.322,29.413338 36.4619986,29.88 36.742,29.88 C37.1060018,29.88 37.3766658,29.5860029 37.554,28.998 C37.628667,28.9139996 37.6706666,28.7460013 37.68,28.494 C37.68,28.2699989 37.7359994,28.1230004 37.848,28.053 C37.9600006,27.9829996 38.1233323,27.948 38.338,27.948 C38.6180014,27.948 38.8606656,28.0086661 39.066,28.13 C39.3086679,28.2700007 39.4253334,28.4519989 39.416,28.676 Z M42.58,20.5 C42.6080001,20.5280001 42.622,20.5746663 42.622,20.64 C42.622,20.7240004 42.5940003,20.8686656 42.538,21.074 C42.4726663,21.3260013 42.4306668,21.4986662 42.412,21.592 C42.3933332,21.6853338 42.4026665,21.8906651 42.44,22.208 C42.44,22.404001 42.3816672,22.532333 42.265,22.593 C42.1483328,22.653667 42.0013342,22.684 41.824,22.684 C41.5719987,22.684 41.3153346,22.6326672 41.054,22.53 C40.7366651,22.3993327 40.578,22.2266677 40.578,22.012 C40.578,21.9466663 40.6059997,21.8556672 40.662,21.739 C40.7180003,21.6223327 40.7506666,21.526667 40.76,21.452 C40.7786668,21.377333 40.7786668,21.1906682 40.76,20.892 C40.7413332,20.6586655 40.7879994,20.5000004 40.9,20.416 C41.0493341,20.3039994 41.3153314,20.248 41.698,20.248 C42.1180021,20.248 42.4119992,20.3319992 42.58,20.5 Z M42.762,23.916 C42.762,24.0466673 42.6896674,24.2496653 42.545,24.525 C42.4003326,24.8003347 42.328,25.0266658 42.328,25.204 L42.328,29.32 C42.328,29.5066676 42.3793328,29.7703316 42.482,30.111 C42.5846672,30.4516684 42.636,30.6873327 42.636,30.818 C42.636,31.0046676 42.5613341,31.1446662 42.412,31.238 C42.1786655,31.3873341 41.926668,31.462 41.656,31.462 C41.3013316,31.462 41.0493341,31.3406679 40.9,31.098 C40.703999,30.7993318 40.606,29.9080074 40.606,28.424 C40.606,28.0693316 40.6129999,27.5163371 40.627,26.765 C40.6410001,26.0136629 40.648,25.4653351 40.648,25.12 C40.648,24.9893327 40.6340001,24.8190011 40.606,24.609 C40.5779999,24.398999 40.564,24.2473338 40.564,24.154 C40.564,23.8459985 40.6759989,23.5800011 40.9,23.356 C40.9933338,23.2626662 41.1659987,23.216 41.418,23.216 C41.6700013,23.216 41.9219987,23.2556663 42.174,23.335 C42.4260013,23.4143337 42.5869997,23.5053328 42.657,23.608 C42.7270004,23.7106672 42.762,23.8133328 42.762,23.916 Z M48.376,29.124 C48.376,29.7773366 48.142669,30.3349977 47.676,30.797 C47.209331,31.2590023 46.6586698,31.49 46.024,31.49 C45.6226647,31.49 45.2073355,31.2986686 44.778,30.916 C44.4419983,30.6079985 44.138668,30.2300022 43.868,29.782 C43.6346655,29.389998 43.5319999,29.1426672 43.56,29.04 C43.6626672,28.8066655 43.984664,28.69 44.526,28.69 C44.7500011,28.69 44.9273327,28.7226663 45.058,28.788 C45.2820011,28.9093339 45.4079999,29.0633324 45.436,29.25 C45.4640001,29.4646677 45.5106663,29.5999997 45.576,29.656 C45.772001,29.9546682 45.9493325,30.104 46.108,30.104 C46.2293339,30.104 46.3436661,30.0223342 46.451,29.859 C46.5583339,29.6956659 46.612,29.5020011 46.612,29.278 C46.612,29.1379993 46.5886669,28.9980007 46.542,28.858 C46.4953331,28.7179993 46.2433356,28.5033348 45.786,28.214 C45.2353306,27.8686649 44.8433345,27.5653346 44.61,27.304 C44.2086647,26.8559978 44.008,26.3333363 44.008,25.736 C44.008,25.0359965 44.2133313,24.422336 44.624,23.895 C45.0346687,23.367664 45.5573302,23.104 46.192,23.104 C46.8453366,23.104 47.3446649,23.3513309 47.69,23.846 C47.9700014,24.2473353 48.0866669,24.6533313 48.04,25.064 C48.1426672,25.1760006 48.194,25.3626654 48.194,25.624 C48.194,25.9040014 48.0913344,26.141999 47.886,26.338 C47.6806656,26.534001 47.4706677,26.632 47.256,26.632 C46.9386651,26.632 46.6633345,26.4220021 46.43,26.002 C46.3646663,25.8899994 46.332,25.7406676 46.332,25.554 C46.332,25.4699996 46.3389999,25.3510008 46.353,25.197 C46.3670001,25.0429992 46.374,24.9333337 46.374,24.868 C46.374,24.6253321 46.2853342,24.504 46.108,24.504 C45.837332,24.504 45.702,24.7699973 45.702,25.302 C45.702,25.843336 45.8793316,26.2773317 46.234,26.604 C46.3740007,26.7346673 46.677331,26.9213321 47.144,27.164 C47.5453353,27.3693344 47.8299992,27.5793323 47.998,27.794 C48.2500013,28.1206683 48.376,28.5639972 48.376,29.124 Z M54.55,29.53 C54.475333,29.8846684 54.2233355,30.2626647 53.794,30.664 C53.7286663,30.7666672 53.4720022,30.9019992 53.024,31.07 C52.5106641,31.266001 52.0673352,31.3500001 51.694,31.322 C50.9939965,31.2753331 50.4433353,30.8740038 50.042,30.118 C49.6779982,29.4179965 49.496,28.5593384 49.496,27.542 C49.496,26.4406612 49.7013313,25.4746708 50.112,24.644 C50.5693356,23.7293288 51.1806628,23.2160006 51.946,23.104 C52.0953341,23.0853332 52.2399993,23.076 52.38,23.076 C53.4906722,23.076 54.1019994,23.7573265 54.214,25.12 C54.2700003,25.7453365 54.0226694,26.426663 53.472,27.164 C52.8746637,27.9760041 52.109338,28.5453317 51.176,28.872 C51.2786672,29.2453352 51.3579997,29.4879994 51.414,29.6 C51.5446673,29.8333345 51.7219989,29.95 51.946,29.95 C52.1606677,29.95 52.3893321,29.8660008 52.632,29.698 C52.8373344,29.5579993 52.977333,29.4226673 53.052,29.292 C53.0893335,29.2733332 53.1266665,29.1683343 53.164,28.977 C53.2013335,28.7856657 53.2993325,28.6480004 53.458,28.564 C53.5140003,28.5359999 53.579333,28.522 53.654,28.522 C53.8780011,28.522 54.0949989,28.6316656 54.305,28.851 C54.5150011,29.0703344 54.5966669,29.2966655 54.55,29.53 Z M52.352,24.602 C51.9786648,24.602 51.6753345,24.8679973 51.442,25.4 C51.1339985,26.1093369 51.0079997,26.8093299 51.064,27.5 C51.5026689,27.3599993 51.9086648,27.0333359 52.282,26.52 C52.6553352,26.0066641 52.842,25.5493353 52.842,25.148 C52.842,24.7839982 52.6786683,24.602 52.352,24.602 Z M22.8679347,41.5592738 C22.8585366,41.1690677 22.8305586,40.9693117 22.784,40.96 C22.5693323,41.3146684 22.3826675,41.6553317 22.224,41.982 C21.8413314,42.7660039 21.6220003,43.4193307 21.566,43.942 C21.5193331,44.0540006 21.5146665,44.2733317 21.552,44.6 C21.5893335,44.8800014 21.5473339,45.0713328 21.426,45.174 C21.3046661,45.2766672 21.1413344,45.328 20.936,45.328 C20.7119989,45.328 20.4856678,45.2650006 20.257,45.139 C20.0283322,45.0129994 19.8626672,44.8706675 19.76,44.712 C19.6106659,44.4786655 19.5266668,43.797339 19.508,42.668 L19.508,39.364 C19.4986666,39.2706662 19.4613337,39.1400008 19.396,38.972 C19.3306663,38.8039992 19.298,38.6780004 19.298,38.594 C19.298,38.5099996 19.3213331,38.430667 19.368,38.356 C19.4893339,38.1693324 19.7973309,38.076 20.292,38.076 C20.8986697,38.076 21.2626661,38.2253318 21.384,38.524 C21.4120001,38.5893337 21.426,38.6546663 21.426,38.72 C21.426,38.8040004 21.3816671,38.9253325 21.293,39.084 C21.2043329,39.2426675 21.16,39.3733328 21.16,39.476 L21.16,41.072 C21.4400014,40.4839971 21.8086644,39.7373379 22.266,38.832 C22.3220003,38.7106661 22.3756664,38.5893339 22.427,38.468 C22.4783336,38.3466661 22.5553328,38.2393338 22.658,38.146 C22.7606672,38.0526662 22.9333321,38.006 23.176,38.006 C23.5493352,38.006 23.9249981,38.0899992 24.303,38.258 C24.6810019,38.4260008 24.8746666,38.6266655 24.884,38.86 C24.8933334,39.1026679 24.8583337,39.2869994 24.779,39.413 C24.6996663,39.5390006 24.66,39.6439996 24.66,39.728 L24.632,42.752 C24.7813341,42.4159983 25.051998,41.6226729 25.444,40.372 C25.7520015,39.4199952 25.9853325,38.8880006 26.144,38.776 C26.3493344,38.6266659 26.6526647,38.552 27.054,38.552 C27.8006704,38.552 28.1879999,38.7666645 28.216,39.196 C28.2066666,40.3346724 28.2066666,42.2386533 28.216,44.908 C28.216,45.0106672 28.3093324,45.1343326 28.496,45.279 C28.6826676,45.4236674 28.776,45.5753325 28.776,45.734 C28.776,45.808667 28.7573335,45.8973328 28.72,46 C28.5986661,46.3453351 28.3233355,46.518 27.894,46.518 C27.352664,46.518 26.9513346,46.3313352 26.69,45.958 C26.5499993,45.7526656 26.48,45.048006 26.48,43.844 L26.48,43.102 C26.4893334,42.7753317 26.494,42.5466673 26.494,42.416 C26.494,41.7626634 26.4613337,41.4266668 26.396,41.408 C26.2559993,41.3519997 25.7800041,42.6586533 24.968,45.328 C24.968,45.3373334 24.9493335,45.5613311 24.912,46 C24.8933332,46.270668 24.8000008,46.4526662 24.632,46.546 C24.5106661,46.6113337 24.3753341,46.644 24.226,46.644 C23.955332,46.644 23.6940013,46.5553342 23.442,46.378 C23.1899987,46.2006658 23.0313337,45.9906679 22.966,45.748 C22.8726662,45.4026649 22.8306666,44.7213384 22.84,43.704 C22.8577654,42.2916509 22.8670769,41.5767484 22.8679347,41.5592738 L22.8679347,41.5592738 Z M33.858,38.776 C34.4833365,39.4106698 34.796,40.4793258 34.796,41.982 C34.796,43.1486725 34.5766689,44.1426626 34.138,44.964 C33.6433309,45.8880046 32.9620043,46.35 32.094,46.35 C31.235329,46.35 30.572669,45.9346708 30.106,45.104 C29.6953313,44.3759964 29.49,43.4520056 29.49,42.332 C29.49,41.3426617 29.6486651,40.4560039 29.966,39.672 C30.3020017,38.8319958 30.7313307,38.3373341 31.254,38.188 C31.524668,38.113333 31.8046652,38.076 32.094,38.076 C32.8126703,38.076 33.4006644,38.309331 33.858,38.776 Z M32.262,39.448 C31.9539985,39.4199999 31.6880011,39.7093303 31.464,40.316 C31.267999,40.8666694 31.17,41.4453303 31.17,42.052 C31.17,42.9293377 31.207333,43.5499982 31.282,43.914 C31.4126673,44.5673366 31.6833313,44.9266663 32.094,44.992 C32.3553346,45.0293335 32.5979989,44.6700038 32.822,43.914 C33.0366677,43.1859964 33.144,42.4066708 33.144,41.576 C33.144,40.2133265 32.8500029,39.5040003 32.262,39.448 Z M41.236,38.86 C41.1986665,39.056001 41.0213349,39.191333 40.704,39.266 C40.3306648,39.3593338 40.0926672,39.4666661 39.99,39.588 L37.708,42.22 L37.708,44.348 C37.708,44.5533344 37.7663327,44.7609989 37.883,44.971 C37.9996673,45.181001 38.058,45.3419994 38.058,45.454 C38.058,45.5660006 38.0253337,45.6919993 37.96,45.832 C37.8013325,46.1866684 37.4793358,46.364 36.994,46.364 C36.6579983,46.364 36.392001,46.2566677 36.196,46.042 C36.0653327,45.9019993 36,45.7246677 36,45.51 C36,45.435333 36.0093332,45.3140008 36.028,45.146 C36.0466668,44.9779992 36.056,44.8426672 36.056,44.74 L36.056,39.504 C36.056,39.4199996 36.018667,39.3173339 35.944,39.196 C35.869333,39.0746661 35.832,38.976667 35.832,38.902 C35.832,38.8459997 35.8506665,38.780667 35.888,38.706 C36.0093339,38.4819989 36.3873302,38.37 37.022,38.37 C37.5166691,38.37 37.7966663,38.4866655 37.862,38.72 C37.8900001,38.8133338 37.904,38.8926663 37.904,38.958 C37.904,39.0606672 37.866667,39.1399997 37.792,39.196 C37.717333,39.2520003 37.68,39.3079997 37.68,39.364 L37.708,39.868 L38.912,38.594 C39.0520007,38.4353325 39.1989992,38.2766675 39.353,38.118 C39.5070008,37.9593325 39.6866656,37.8706668 39.892,37.852 C40.2093349,37.8239999 40.5149985,37.8939992 40.809,38.062 C41.1030015,38.2300008 41.25,38.449332 41.25,38.72 C41.25,38.7666669 41.2453334,38.8133331 41.236,38.86 Z M46.304,44.53 C46.229333,44.8846684 45.9773355,45.2626647 45.548,45.664 C45.4826663,45.7666672 45.2260022,45.9019992 44.778,46.07 C44.2646641,46.266001 43.8213352,46.3500001 43.448,46.322 C42.7479965,46.2753331 42.1973353,45.8740038 41.796,45.118 C41.4319982,44.4179965 41.25,43.5593384 41.25,42.542 C41.25,41.4406612 41.4553313,40.4746708 41.866,39.644 C42.3233356,38.7293288 42.9346628,38.2160006 43.7,38.104 C43.8493341,38.0853332 43.9939993,38.076 44.134,38.076 C45.2446722,38.076 45.8559994,38.7573265 45.968,40.12 C46.0240003,40.7453365 45.7766694,41.426663 45.226,42.164 C44.6286637,42.9760041 43.863338,43.5453317 42.93,43.872 C43.0326672,44.2453352 43.1119997,44.4879994 43.168,44.6 C43.2986673,44.8333345 43.4759989,44.95 43.7,44.95 C43.9146677,44.95 44.1433321,44.8660008 44.386,44.698 C44.5913344,44.5579993 44.731333,44.4226673 44.806,44.292 C44.8433335,44.2733332 44.8806665,44.1683343 44.918,43.977 C44.9553335,43.7856657 45.0533325,43.6480004 45.212,43.564 C45.2680003,43.5359999 45.333333,43.522 45.408,43.522 C45.6320011,43.522 45.848999,43.6316656 46.059,43.851 C46.2690011,44.0703344 46.3506669,44.2966655 46.304,44.53 Z M44.106,39.602 C43.7326648,39.602 43.4293345,39.8679973 43.196,40.4 C42.8879985,41.1093369 42.7619997,41.8093299 42.818,42.5 C43.2566689,42.3599993 43.6626648,42.0333359 44.036,41.52 C44.4093352,41.0066641 44.596,40.5493353 44.596,40.148 C44.596,39.7839982 44.4326683,39.602 44.106,39.602 Z"/>
    <path stroke="#5EA7FF" stroke-linecap="round" stroke-linejoin="round" stroke-width="2" d="M34,12 L34,4"/>
    <path stroke="#5EA7FF" stroke-linecap="round" stroke-width="2" d="M27.4142177,12.227824 L22,7"/>
    <path stroke="#5EA7FF" stroke-linecap="round" stroke-width="2" d="M45.4142177,12.227824 L40,7" transform="matrix(-1 0 0 1 85.414 0)"/>
  </g>
</svg>
