<svg xmlns="http://www.w3.org/2000/svg" width="64" height="64" viewBox="0 0 64 64">
  <g fill="none" fill-rule="evenodd">
    <path fill="#80D25B" d="M49.232542,22.529591 C51.9939657,22.529591 54.232542,20.1876959 54.232542,17.2988218 C54.232542,14.4099477 49.232542,5.52959101 49.232542,5.52959101 C49.232542,5.52959101 44.232542,14.4099477 44.232542,17.2988218 C44.232542,20.1876959 46.4711182,22.529591 49.232542,22.529591 Z" transform="rotate(75 49.233 14.03)"/>
    <path fill="#80D25B" d="M19.232542,22.529591 C21.9939657,22.529591 24.232542,20.1876959 24.232542,17.2988218 C24.232542,14.4099477 19.232542,5.52959101 19.232542,5.52959101 C19.232542,5.52959101 14.232542,14.4099477 14.232542,17.2988218 C14.232542,20.1876959 16.4711182,22.529591 19.232542,22.529591 Z" transform="scale(-1 1) rotate(75 0 -11.035)"/>
    <path stroke="#22BA8E" stroke-linecap="round" stroke-width="2" d="M45.7280772,15 C39.1006602,15 33.7280772,20.372583 33.7280772,27"/>
    <path stroke="#22BA8E" stroke-linecap="round" stroke-width="2" d="M33.7280772,15 C27.1006602,15 21.7280772,20.372583 21.7280772,27" transform="matrix(-1 0 0 1 55.456 0)"/>
    <path fill="#ECECEC" d="M32.7280772,12 C42.1878665,17.4568248 48.7280772,29.1650111 48.7280772,42.7280772 C48.7280772,56.2911433 42.1878665,67.9993296 32.7280772,73.4561544 C23.2682879,67.9993296 16.7280772,56.2911433 16.7280772,42.7280772 C16.7280772,29.1650111 23.2682879,17.4568248 32.7280772,12 L32.7280772,12 Z" transform="rotate(90 32.728 42.728)"/>
    <circle cx="33" cy="42.728" r="13" fill="#80D25B"/>
    <circle cx="33" cy="42.728" r="7" fill="#0A3586"/>
    <circle cx="28" cy="37.728" r="3" fill="#FFF"/>
  </g>
</svg>
