<svg xmlns="http://www.w3.org/2000/svg" width="64" height="64" viewBox="0 0 64 64">
  <path fill="#5B68C0" fill-rule="evenodd" d="M37.6875,49 L32,62 L26.3125,49 L6,49 L6,5 L58,5 L58,49 L37.6875,49 Z M36.0399472,13.0042432 C36.0399472,13.0042432 31.5870534,12.7133348 30.4454543,16.9489835 C30.4454543,16.9489835 30.0320651,18.0601859 30.0888165,20.7973181 L26,20.8091576 L26,24.3898064 L30.0888166,24.3779662 L30.0888166,39 L35.3007753,39 L35.3007753,24.3898054 L39.4344531,24.3898064 L39.4344531,20.7973183 L35.3007753,20.7973185 L35.3007753,18.8460899 C35.3007753,17.5809767 36.0035069,16.3711131 38.0591022,16.3711131 L40,16.3711131 L40,13.0042432 L36.0399472,13.0042432 Z"/>
</svg>
