<svg xmlns="http://www.w3.org/2000/svg" width="64" height="64" viewBox="0 0 64 64">
  <g fill="#22BA8E" fill-rule="evenodd" transform="matrix(-1 0 0 1 56 21)">
    <path d="M23.8991157,11.2230286 C25.3732228,11.9823828 25.3750275,13.2126095 23.8991157,13.9728933 L2.66910717,24.9090695 C1.19499998,25.6684237 0,24.9452601 0,23.2764111 L0,1.91951079 C0,0.258464271 1.19319533,-0.473431417 2.66910717,0.286852395 L23.8991157,11.2230286 Z"/>
    <path d="M48.3889116,11.2230286 C49.8630188,11.9823828 49.8648234,13.2126095 48.3889116,13.9728933 L27.1589031,24.9090695 C25.6847959,25.6684237 24.4897959,24.9452601 24.4897959,23.2764111 L24.4897959,1.91951079 C24.4897959,0.258464271 25.6829913,-0.473431417 27.1589031,0.286852395 L48.3889116,11.2230286 Z"/>
  </g>
</svg>
