<svg xmlns="http://www.w3.org/2000/svg" width="64" height="64" viewBox="0 0 64 64">
  <g fill="none" fill-rule="evenodd">
    <circle cx="32" cy="32" r="29" fill="#5B68C0"/>
    <path fill="#80D25B" d="M43.4604393,31.6115143 C44.1974929,31.9911914 44.1896832,32.6107926 43.4604393,32.9864467 L32.8454351,38.4545347 C32.1083815,38.8342118 31.5108815,38.463308 31.5108815,37.6513016 L31.5108815,26.9466594 C31.5108815,26.1233689 32.1161911,25.7677721 32.8454351,26.1434262 L43.4604393,31.6115143 Z" transform="matrix(-1 0 0 1 75.51 0)"/>
    <path fill="#80D25B" d="M31.2155413,31.6115143 C31.9525949,31.9911914 31.9447853,32.6107926 31.2155413,32.9864467 L20.6005371,38.4545347 C19.8634835,38.8342118 19.2659835,38.463308 19.2659835,37.6513016 L19.2659835,26.9466594 C19.2659835,26.1233689 19.8712932,25.7677721 20.6005371,26.1434262 L31.2155413,31.6115143 Z" transform="matrix(-1 0 0 1 51.021 0)"/>
  </g>
</svg>
