<svg xmlns="http://www.w3.org/2000/svg" width="64" height="64" viewBox="0 0 64 64">
  <g fill="none" fill-rule="evenodd">
    <ellipse cx="13.994" cy="15.288" fill="#595959" rx="10" ry="9" transform="rotate(123 13.994 15.288)"/>
    <ellipse cx="53" cy="15.288" fill="#595959" rx="10" ry="9" transform="scale(1 -1) rotate(-57 24.842 0)"/>
    <path fill="#E43535" d="M30,53 L37,53 L37,59.0031303 C37,60.6582557 35.6503296,62 33.9907455,62 L33.0092545,62 C31.3472891,62 30,60.6526091 30,59.0031303 L30,53 Z"/>
    <path fill="#D8D8D8" d="M13,18.5 C13,11.0441559 19.0496912,5 26.4959256,5 L40.5040744,5 C47.9576683,5 54,11.0425165 54,18.5 L54,32 L13,32 L13,18.5 Z"/>
    <path fill="#FFF" d="M20,19.4943276 C20,16.4598943 22.4686147,14 25.5,14 L25.5,14 C28.5375661,14 31,16.4604838 31,19.4943276 L31,27 L20,27 L20,19.4943276 Z"/>
    <circle cx="26" cy="20" r="2" fill="#0A3586"/>
    <path fill="#FFF" d="M37,19.4943276 C37,16.4598943 39.4686147,14 42.5,14 L42.5,14 C45.5375661,14 48,16.4604838 48,19.4943276 L48,27 L37,27 L37,19.4943276 Z"/>
    <circle cx="42" cy="20" r="2" fill="#0A3586"/>
    <path fill="#595959" d="M33.5,27.4908143 C31.1432577,25.301028 28.1967524,24 25,24 C17.2680135,24 11,31.6111593 11,41 C11,50.3888407 17.2680135,58 25,58 C28.1967524,58 31.1432577,56.698972 33.5,54.5091857 C35.8567423,56.698972 38.8032476,58 42,58 C49.7319865,58 56,50.3888407 56,41 C56,31.6111593 49.7319865,24 42,24 C38.8032476,24 35.8567423,25.301028 33.5,27.4908143 Z"/>
    <path fill="#979797" fill-rule="nonzero" d="M21.8753734,37.835585 L6.72340173,35.9253328 C6.44942809,35.8907921 6.19932785,36.0848909 6.16478721,36.3588646 C6.13024657,36.6328382 6.32434537,36.8829384 6.59831901,36.9174791 L21.7502906,38.8277313 C22.0242643,38.8622719 22.2743645,38.6681731 22.3089052,38.3941995 C22.3434458,38.1202259 22.149347,37.8701256 21.8753734,37.835585 Z"/>
    <path fill="#0A3586" d="M33.5,32 C35.9852814,32 40,31.9852814 40,29.5 C40,27.0147186 35.9852814,23 33.5,23 C31.0147186,23 27,27.0147186 27,29.5 C27,31.9852814 31.0147186,32 33.5,32 Z"/>
    <path fill="#979797" fill-rule="nonzero" d="M21.425785 40.3294824L6.87686309 42.1691608C6.60290222 42.2038025 6.40889572 42.4539744 6.44353745 42.7279353 6.47817919 43.0018961 6.72835103 43.1959026 7.00231191 43.1612609L21.5512338 41.3215825C21.8251947 41.2869408 22.0192012 41.0367689 21.9845594 40.7628081 21.9499177 40.4888472 21.6997459 40.2948407 21.425785 40.3294824zM45.0886241 38.5606072L59.0379583 37.4985571C59.3133037 37.4775933 59.5195209 37.2373872 59.4985571 36.9620417 59.4775933 36.6866963 59.2373872 36.4804791 58.9620417 36.5014429L45.0127076 37.563493C44.7373621 37.5844568 44.531145 37.8246629 44.5521087 38.1000084 44.5730725 38.3753539 44.8132786 38.581571 45.0886241 38.5606072zM45.2605794 41.5857935L59.704037 45.6239668C59.9699808 45.6983207 60.2458466 45.5430064 60.3202005 45.2770625 60.3945544 45.0111187 60.23924 44.7352529 59.9732962 44.6608991L45.5298387 40.6227257C45.2638948 40.5483719 44.9880291 40.7036862 44.9136752 40.96963 44.8393213 41.2355738 44.9946356 41.5114396 45.2605794 41.5857935z"/>
  </g>
</svg>
