<svg xmlns="http://www.w3.org/2000/svg" width="64" height="64" viewBox="0 0 64 64">
  <g fill="none" fill-rule="evenodd">
    <path stroke="#E43535" stroke-linecap="round" stroke-width="6" d="M37,19 L55.0092049,19 C56.1086907,19 57,19.8970262 57,21.0049466 L57,40.9950534 C57,42.1023548 56.1017876,43 55.0092049,43 L37,43 L37,19 Z"/>
    <path fill="#E43535" d="M5,9 L49,9 L49,53.9999681 C49,56.7614095 46.7575421,59 43.9954787,59 L10.0045213,59 C7.24060049,59 5,56.754469 5,53.9999681 L5,9 Z"/>
    <path fill="#FF78C7" d="M5,8 C5,6.8954305 5.89885511,6 7.00492334,6 L46.9950767,6 C48.1023652,6 49,6.88772964 49,8 L49,10 L5,10 L5,8 Z"/>
    <path fill="#FFAF40" d="M27.8854624,37.9655151 C27.396435,37.7084182 26.5955454,37.7126344 26.1145376,37.9655151 L21.4198246,40.4336718 C20.9307972,40.6907687 20.6116062,40.4488201 20.7034705,39.9132101 L21.6000809,34.6855703 C21.6934768,34.1410303 21.4419785,33.3806419 21.0528351,33.0013208 L17.2547324,29.2990857 C16.859101,28.9134404 16.9905723,28.5351054 17.5283553,28.456961 L22.7772041,27.6942586 C23.3239533,27.6148113 23.9694084,27.1406493 24.2099123,26.6533352 L26.5572688,21.8970713 C26.8017825,21.4016325 27.2022273,21.4097573 27.4427312,21.8970713 L29.7900877,26.6533352 C30.0346014,27.148774 30.6850129,27.6161142 31.2227959,27.6942586 L36.4716447,28.456961 C37.0183939,28.5364083 37.134411,28.9197646 36.7452676,29.2990857 L32.9471649,33.0013208 C32.5515335,33.3869661 32.3080548,34.1499603 32.3999191,34.6855703 L33.2965295,39.9132101 C33.3899254,40.4577501 33.0611832,40.6865526 32.5801754,40.4336718 L27.8854624,37.9655151 Z"/>
  </g>
</svg>
