<svg xmlns="http://www.w3.org/2000/svg" width="64" height="64" viewBox="0 0 64 64">
  <g fill="none" fill-rule="evenodd">
    <path fill="#B6B6B6" d="M6,27 L60,27 L60,59 L6,59 L6,27 Z M33,12 L60,27 L6,27 L33,12 Z"/>
    <polygon fill="#B4DFFB" points="13 5 42.105 5 53 16.753 53 55 13 55"/>
    <polygon fill="#4796E7" points="42 5 53 5 53 17" transform="rotate(-180 47.5 11)"/>
    <polygon fill="#D8D8D8" points="31 46.5 6 59 6 27"/>
    <polygon fill="#D8D8D8" points="60 46.5 35 59 35 27" transform="matrix(-1 0 0 1 95 0)"/>
    <polygon fill="#ECECEC" points="33 44 60 59 6 59"/>
    <path fill="#FFAF40" d="M33.8854383,48.9655025 C33.3964242,48.7084126 32.6023852,48.7090385 32.1145617,48.9655025 L28.5953711,50.8156505 C28.106357,51.0727404 27.7858704,50.8384023 27.8790364,50.2952029 L28.551142,46.3765265 C28.6445354,45.8320014 28.3985685,45.0770187 28.003911,44.6923228 L25.156826,41.9171008 C24.7612053,41.5314659 24.8850383,41.1542506 25.4304415,41.0749989 L29.3650162,40.5032717 C29.9117506,40.4238265 30.5537738,39.9565957 30.7976855,39.4623765 L32.5572808,35.897047 C32.8017879,35.4016216 33.1988074,35.4028278 33.4427192,35.897047 L35.2023145,39.4623765 C35.4468215,39.9578019 36.0895805,40.42402 36.6349838,40.5032717 L40.5695585,41.0749989 C41.1162929,41.154444 41.2378315,41.5324048 40.843174,41.9171008 L37.996089,44.6923228 C37.6004683,45.0779576 37.355692,45.8333271 37.448858,46.3765265 L38.1209636,50.2952029 C38.214357,50.8397281 37.8924524,51.0721145 37.4046289,50.8156505 L33.8854383,48.9655025 Z"/>
  </g>
</svg>
