<svg xmlns="http://www.w3.org/2000/svg" width="64" height="64" viewBox="0 0 64 64">
  <path fill="#FD5A5A" fill-rule="evenodd" d="M14.7865728,41.4459804 C14.6346939,38.1770731 14.286345,24.024968 19.0666667,15.7209302 C24.4969697,6.2877907 29.4181818,2 29.4181818,2 C29.4181818,2 28.0606063,9.375 32.1333333,15.7209302 C36.2060604,22.0668605 30.2666667,33.5581395 30.2666667,33.5581395 C30.2666667,33.5581395 42.6545457,35.7877907 41.2969697,20.0087209 C48.7636361,24.2965116 54.7030306,27.3837209 54.7030303,40.247093 C54.7030303,40.902117 54.6965846,41.5017667 54.6847189,42.050707 C59.2286791,44.06304 62,46.7407966 62,49.6802326 C62,55.9319675 49.463973,61 34,61 C18.536027,61 6,55.9319675 6,49.6802326 C6,46.4356588 9.37655716,43.5099133 14.7865728,41.4459804 Z M49.4424242,39.7325581 C49.4424242,35.0646819 47.3219839,30.8917329 43.9911899,28.1231937 C44.0050733,28.4457582 44.0121212,28.7710776 44.0121212,29.0988372 C44.0121212,37.4344838 39.4535659,44.1918605 33.830303,44.1918605 C28.2070401,44.1918605 23.6484848,37.4344838 23.648501,29.0716214 C20.9221124,31.8020125 19.2363636,35.5705519 19.2363636,39.7325581 C19.2363636,48.0682047 25.9982206,54.8255814 34.3393939,54.8255814 C42.6805673,54.8255814 49.4424242,48.0682047 49.4424242,39.7325581 Z"/>
</svg>
