<svg xmlns="http://www.w3.org/2000/svg" width="64" height="64" viewBox="0 0 64 64">
  <g fill="none" fill-rule="evenodd">
    <polygon fill="#ECECEC" points="14 2 43.105 2 55 13.753 55 61 14 61"/>
    <polygon fill="#D8D8D8" points="43 2 55 2 55 14" transform="rotate(-180 49 8)"/>
    <path stroke="#979797" stroke-linecap="square" stroke-width="2" d="M19 39L51.3447059 39M19 34L51.3447059 34"/>
    <path fill="#D650C7" d="M23.46,21.364 C23.3759996,21.6066679 23.2056679,21.7419999 22.949,21.77 C22.6923321,21.7980001 22.4426679,21.8213332 22.2,21.84 L21.192,22.12 L21.178,26.67 C21.178,26.9126679 21.2666658,27.1413323 21.444,27.356 C21.6213342,27.5706677 21.71,27.7339994 21.71,27.846 C21.71,27.9113337 21.6960001,27.9766663 21.668,28.042 C21.5373327,28.3686683 21.2620021,28.532 20.842,28.532 C20.571332,28.532 20.3216678,28.464334 20.093,28.329 C19.8643322,28.193666 19.7266669,28.028001 19.68,27.832 C19.6239997,27.5893321 19.596,27.2813352 19.596,26.908 L19.596,22.54 C19.4093324,22.6240004 19.2133344,22.6520001 19.008,22.624 C18.3639968,22.5399996 18.042,22.2786689 18.042,21.84 C18.042,21.7093327 18.0839996,21.5693341 18.168,21.42 C18.2240003,21.3266662 18.3919986,21.2566669 18.672,21.21 C19.1013355,21.135333 19.3813327,21.0746669 19.512,21.028 C19.5306668,19.627993 19.6519989,18.6246697 19.876,18.018 C20.1840015,17.1686624 20.7906621,16.6040014 21.696,16.324 C21.7613337,16.3053332 21.8359996,16.296 21.92,16.296 C22.1813346,16.296 22.4543319,16.3799992 22.739,16.548 C23.0236681,16.7160008 23.1520001,16.8653327 23.124,16.996 C23.0866665,17.192001 22.9186682,17.3366662 22.62,17.43 C22.2653316,17.5513339 22.0320006,17.6773327 21.92,17.808 C21.5839983,18.2186687 21.3646672,18.6479978 21.262,19.096 C21.1779996,19.4413351 21.1453332,19.9359968 21.164,20.58 C21.2293337,20.5613332 21.457998,20.4913339 21.85,20.37 C22.1020013,20.295333 22.3306656,20.2626666 22.536,20.272 C22.7693345,20.2813334 22.9863323,20.3793324 23.187,20.566 C23.3876677,20.7526676 23.488,20.9533323 23.488,21.168 C23.488,21.2333337 23.4786668,21.2986663 23.46,21.364 Z M28.934,26.53 C28.859333,26.8846684 28.6073355,27.2626647 28.178,27.664 C28.1126663,27.7666672 27.8560022,27.9019992 27.408,28.07 C26.8946641,28.266001 26.4513352,28.3500001 26.078,28.322 C25.3779965,28.2753331 24.8273353,27.8740038 24.426,27.118 C24.0619982,26.4179965 23.88,25.5593384 23.88,24.542 C23.88,23.4406612 24.0853313,22.4746708 24.496,21.644 C24.9533356,20.7293288 25.5646628,20.2160006 26.33,20.104 C26.4793341,20.0853332 26.6239993,20.076 26.764,20.076 C27.8746722,20.076 28.4859994,20.7573265 28.598,22.12 C28.6540003,22.7453365 28.4066694,23.426663 27.856,24.164 C27.2586637,24.9760041 26.493338,25.5453317 25.56,25.872 C25.6626672,26.2453352 25.7419997,26.4879994 25.798,26.6 C25.9286673,26.8333345 26.1059989,26.95 26.33,26.95 C26.5446677,26.95 26.7733321,26.8660008 27.016,26.698 C27.2213344,26.5579993 27.361333,26.4226673 27.436,26.292 C27.4733335,26.2733332 27.5106665,26.1683343 27.548,25.977 C27.5853335,25.7856657 27.6833325,25.6480004 27.842,25.564 C27.8980003,25.5359999 27.963333,25.522 28.038,25.522 C28.2620011,25.522 28.478999,25.6316656 28.689,25.851 C28.899001,26.0703344 28.9806669,26.2966655 28.934,26.53 Z M26.736,21.602 C26.3626648,21.602 26.0593345,21.8679973 25.826,22.4 C25.5179985,23.1093369 25.3919997,23.8093299 25.448,24.5 C25.8866689,24.3599993 26.2926648,24.0333359 26.666,23.52 C27.0393352,23.0066641 27.226,22.5493353 27.226,22.148 C27.226,21.7839982 27.0626683,21.602 26.736,21.602 Z M34.996,26.53 C34.921333,26.8846684 34.6693355,27.2626647 34.24,27.664 C34.1746663,27.7666672 33.9180022,27.9019992 33.47,28.07 C32.9566641,28.266001 32.5133352,28.3500001 32.14,28.322 C31.4399965,28.2753331 30.8893353,27.8740038 30.488,27.118 C30.1239982,26.4179965 29.942,25.5593384 29.942,24.542 C29.942,23.4406612 30.1473313,22.4746708 30.558,21.644 C31.0153356,20.7293288 31.6266628,20.2160006 32.392,20.104 C32.5413341,20.0853332 32.6859993,20.076 32.826,20.076 C33.9366722,20.076 34.5479994,20.7573265 34.66,22.12 C34.7160003,22.7453365 34.4686694,23.426663 33.918,24.164 C33.3206637,24.9760041 32.555338,25.5453317 31.622,25.872 C31.7246672,26.2453352 31.8039997,26.4879994 31.86,26.6 C31.9906673,26.8333345 32.1679989,26.95 32.392,26.95 C32.6066677,26.95 32.8353321,26.8660008 33.078,26.698 C33.2833344,26.5579993 33.423333,26.4226673 33.498,26.292 C33.5353335,26.2733332 33.5726665,26.1683343 33.61,25.977 C33.6473335,25.7856657 33.7453325,25.6480004 33.904,25.564 C33.9600003,25.5359999 34.025333,25.522 34.1,25.522 C34.3240011,25.522 34.5409989,25.6316656 34.751,25.851 C34.9610011,26.0703344 35.0426669,26.2966655 34.996,26.53 Z M32.798,21.602 C32.4246648,21.602 32.1213345,21.8679973 31.888,22.4 C31.5799985,23.1093369 31.4539997,23.8093299 31.51,24.5 C31.9486689,24.3599993 32.3546648,24.0333359 32.728,23.52 C33.1013352,23.0066641 33.288,22.5493353 33.288,22.148 C33.288,21.7839982 33.1246683,21.602 32.798,21.602 Z M40.876,26.124 C40.876,26.7773366 40.642669,27.3349977 40.176,27.797 C39.709331,28.2590023 39.1586698,28.49 38.524,28.49 C38.1226647,28.49 37.7073355,28.2986686 37.278,27.916 C36.9419983,27.6079985 36.638668,27.2300022 36.368,26.782 C36.1346655,26.389998 36.0319999,26.1426672 36.06,26.04 C36.1626672,25.8066655 36.484664,25.69 37.026,25.69 C37.2500011,25.69 37.4273327,25.7226663 37.558,25.788 C37.7820011,25.9093339 37.9079999,26.0633324 37.936,26.25 C37.9640001,26.4646677 38.0106663,26.5999997 38.076,26.656 C38.272001,26.9546682 38.4493325,27.104 38.608,27.104 C38.7293339,27.104 38.8436661,27.0223342 38.951,26.859 C39.0583339,26.6956659 39.112,26.5020011 39.112,26.278 C39.112,26.1379993 39.0886669,25.9980007 39.042,25.858 C38.9953331,25.7179993 38.7433356,25.5033348 38.286,25.214 C37.7353306,24.8686649 37.3433345,24.5653346 37.11,24.304 C36.7086647,23.8559978 36.508,23.3333363 36.508,22.736 C36.508,22.0359965 36.7133313,21.422336 37.124,20.895 C37.5346687,20.367664 38.0573302,20.104 38.692,20.104 C39.3453366,20.104 39.8446649,20.3513309 40.19,20.846 C40.4700014,21.2473353 40.5866669,21.6533313 40.54,22.064 C40.6426672,22.1760006 40.694,22.3626654 40.694,22.624 C40.694,22.9040014 40.5913344,23.141999 40.386,23.338 C40.1806656,23.534001 39.9706677,23.632 39.756,23.632 C39.4386651,23.632 39.1633345,23.4220021 38.93,23.002 C38.8646663,22.8899994 38.832,22.7406676 38.832,22.554 C38.832,22.4699996 38.8389999,22.3510008 38.853,22.197 C38.8670001,22.0429992 38.874,21.9333337 38.874,21.868 C38.874,21.6253321 38.7853342,21.504 38.608,21.504 C38.337332,21.504 38.202,21.7699973 38.202,22.302 C38.202,22.843336 38.3793316,23.2773317 38.734,23.604 C38.8740007,23.7346673 39.177331,23.9213321 39.644,24.164 C40.0453353,24.3693344 40.3299992,24.5793323 40.498,24.794 C40.7500013,25.1206683 40.876,25.5639972 40.876,26.124 Z"/>
    <path stroke="#979797" stroke-linecap="square" stroke-width="2" d="M19 44L40 44M19 55L30 55"/>
  </g>
</svg>
