<svg xmlns="http://www.w3.org/2000/svg" width="64" height="64" viewBox="0 0 64 64">
  <g fill="none" fill-rule="evenodd">
    <rect width="32" height="33" x="15.875" y="18" fill="#BD7575"/>
    <path fill="#FF78C7" d="M8,50.9206814 C8,48.707202 9.77500008,46.6994337 11.9692715,46.4356406 L31.875,44.0425936 L51.7807285,46.4356406 C53.9728966,46.6991808 55.75,48.7006188 55.75,50.9206814 L55.75,63.0425936 L8,63.0425936 L8,50.9206814 Z"/>
    <path fill="#FFDD95" d="M25.6704545,42.4906185 C20.7663848,39.0068513 17.375,31.9212508 17.375,26.1331692 C17.375,18.1250403 23.8668711,11.6331692 31.875,11.6331692 C39.8831289,11.6331692 46.375,18.1250403 46.375,26.1331692 C46.375,31.9212508 42.9836152,39.0068513 38.0795455,42.4906185 L38.0795455,49.9058965 C38.0795455,49.9058965 33.8734611,51.8154815 31.875,51.8154815 C29.8765389,51.8154815 25.6704545,49.9058965 25.6704545,49.9058965 L25.6704545,42.4906185 Z"/>
    <circle cx="18.875" cy="29" r="3" fill="#FFDD95"/>
    <circle cx="44.875" cy="29" r="3" fill="#FFDD95"/>
    <path fill="#BD7575" d="M15.875,15.5 C15.875,11.9101491 18.7854073,9 22.3699533,9 L41.3800467,9 C44.9671104,9 47.875,11.9174538 47.875,15.5 L47.875,22 L31.875,16.079188 L15.875,22 L15.875,15.5 Z"/>
    <circle cx="52" cy="12" r="11" fill="#E43535"/>
    <path stroke="#FFF" stroke-linecap="round" stroke-width="2" d="M48 8L56.5146932 16.5146932M48.1348059 16.2221058L56.6494991 7.70741257"/>
  </g>
</svg>
