<svg xmlns="http://www.w3.org/2000/svg" width="64" height="64" viewBox="0 0 64 64">
  <g fill="none" fill-rule="evenodd">
    <rect width="31.874" height="33" x="19.001" y="17" fill="#BD7575"/>
    <path fill="#5B68C0" d="M11,49.9206814 C11,47.707202 12.7750001,45.6994337 14.9692715,45.4356406 L34.875,43.0425936 L54.7807285,45.4356406 C56.9728966,45.6991808 58.75,47.7006188 58.75,49.9206814 L58.75,62.0425936 L11,62.0425936 L11,49.9206814 Z"/>
    <path fill="#FFDD95" d="M28.6704545,41.4906185 C23.7663848,38.0068513 20.375,30.9212508 20.375,25.1331692 C20.375,17.1250403 26.8668711,10.6331692 34.875,10.6331692 C42.8831289,10.6331692 49.375,17.1250403 49.375,25.1331692 C49.375,30.9212508 45.9836152,38.0068513 41.0795455,41.4906185 L41.0795455,48.9058965 C41.0795455,48.9058965 36.8734611,50.8154815 34.875,50.8154815 C32.8765389,50.8154815 28.6704545,48.9058965 28.6704545,48.9058965 L28.6704545,41.4906185 Z"/>
    <circle cx="21.875" cy="28" r="3" fill="#FFDD95"/>
    <circle cx="47.875" cy="28" r="3" fill="#FFDD95"/>
    <path fill="#BD7575" d="M19,14.5 C19,10.9101491 21.9153211,8 25.4935409,8 L44.4047379,8 C47.9910215,8 50.8982788,10.9174538 50.8982788,14.5 L50.8982788,21 L35,12.079188 L19,21 L19,14.5 Z"/>
    <path fill="#ECECEC" d="M22.5968619 34.0000009C25.1635951 39.2569987 29.7030812 43.6331692 34.875 43.6331692 40.0469191 43.6331692 44.5864054 39.2569982 47.1531385 34L22.59686 34zM19 4C19 4 28 2 35 2 42 2 50.9608987 4 50.9608987 4L50.9608987 21C50.9608987 21 42 16 35 16 28 16 19 21 19 21L19 4z"/>
    <circle cx="35" cy="16" r="5" fill="#5EA7FF"/>
    <circle cx="35" cy="16" r="2" fill="#B4DFFB"/>
    <circle cx="52" cy="11" r="11" fill="#E43535"/>
    <path stroke="#FFF" stroke-linecap="round" stroke-width="2" d="M48 7L56.5146932 15.5146932M48.1348059 15.2221058L56.6494991 6.70741257"/>
  </g>
</svg>
