<svg xmlns="http://www.w3.org/2000/svg" width="64" height="64" viewBox="0 0 64 64">
  <g fill="none" fill-rule="evenodd">
    <path fill="#5EA7FF" d="M16,47 C7.71572875,47 1,40.2842712 1,32 C1,23.7157288 7.71572875,17 16,17 C18.1706646,17 20.2336397,17.4610733 22.0963309,18.2906254 C22.9447755,10.8112821 29.2937389,5 37,5 C45.2842712,5 52,11.7157288 52,20 C52,21.0287036 51.8964464,22.0332209 51.6991948,23.0036966 C51.7991647,23.001237 51.8994379,23 52,23 C58.627417,23 64,28.372583 64,35 C64,41.627417 58.627417,47 52,47 L16,47 Z"/>
    <circle cx="33" cy="46" r="12" fill="#D8D8D8"/>
    <circle cx="33" cy="46" r="4" fill="#D8D8D8" stroke="#979797" stroke-linecap="round" stroke-width="2"/>
    <g fill="#595959" transform="rotate(-90 35.5 12.5)">
      <circle cx="2" cy="2" r="2"/>
      <circle cx="2" cy="18" r="2"/>
    </g>
    <g fill="#595959" transform="rotate(-180 17.5 28)">
      <circle cx="2" cy="2" r="2"/>
      <circle cx="2" cy="18" r="2"/>
    </g>
  </g>
</svg>
