<svg xmlns="http://www.w3.org/2000/svg" width="64" height="64" viewBox="0 0 64 64">
  <g fill="none" fill-rule="evenodd">
    <polygon fill="#E6E6E6" points="18.045 2 51 2 51 60 11 60 11 8.065"/>
    <polygon fill="#CDCDCD" points="18 2 18 8 11 8"/>
    <circle cx="31" cy="33" r="12" fill="#979797"/>
    <circle cx="51" cy="55" r="9" fill="#80D25B"/>
    <g stroke="#FFF" stroke-width="2" transform="matrix(-1 0 0 1 56 50)">
      <path stroke-linecap="square" d="M5,0 L5,8"/>
      <polyline stroke-linecap="round" stroke-linejoin="round" points=".987 6.021 5.077 10.296 9.029 6.021"/>
    </g>
    <circle cx="31" cy="33" r="4" fill="#D8D8D8" stroke="#595959" stroke-linecap="round" stroke-width="2"/>
    <g fill="#595959" transform="rotate(-90 28 7)">
      <circle cx="2" cy="2" r="2"/>
      <circle cx="2" cy="18" r="2"/>
    </g>
    <g fill="#595959" transform="rotate(-180 16.5 21.5)">
      <circle cx="2" cy="2" r="2"/>
      <circle cx="2" cy="18" r="2"/>
    </g>
  </g>
</svg>
