<svg xmlns="http://www.w3.org/2000/svg" width="64" height="64" viewBox="0 0 64 64">
  <g fill="none" fill-rule="evenodd">
    <path fill="#595959" d="M8,17 L42.9976004,17 C44.1034952,17 45,17.8897632 45,19.0035949 L45,39.9964051 C45,41.10296 44.1037214,42 42.9976004,42 L10.0023996,42 C8.89650485,42 8,41.1102368 8,39.9964051 L8,17 Z"/>
    <rect width="17" height="9" x="17" y="28" fill="#D8D8D8"/>
    <circle cx="39" cy="28" r="2" fill="#FF78C7"/>
    <circle cx="39" cy="33" r="2" fill="#80D25B"/>
    <path fill="#979797" d="M2,18.9974219 C2,17.8942762 2.89826062,17 3.99791312,17 L8,17 L8,36 L3.99791312,36 C2.89449617,36 2,35.1090746 2,34.0025781 L2,18.9974219 Z"/>
    <rect width="5" height="10" x="45" y="21" fill="#979797"/>
    <polygon fill="#595959" points="50 21 58 16 58 36 50 31"/>
  </g>
</svg>
