<?xml version="1.0" encoding="UTF-8"?>
<svg width="64px" height="64px" viewBox="0 0 64 64" version="1.1" xmlns="http://www.w3.org/2000/svg" xmlns:xlink="http://www.w3.org/1999/xlink">
    <!-- Generator: Sketch 43.2 (39069) - http://www.bohemiancoding.com/sketch -->
    <title>finishrace</title>
    <desc>Created with Sketch.</desc>
    <defs></defs>
    <g id="Outdoor-Activities-(142)" stroke="none" stroke-width="1" fill="none" fill-rule="evenodd">
        <rect id="Rectangle-112" fill="#BD7575" x="1" y="6" width="3" height="55"></rect>
        <rect id="Rectangle-112-Copy" fill="#BD7575" x="59" y="6" width="3" height="55"></rect>
        <path d="M1,9 C1,9 16.25,12 31.5,12 C46.75,12 62,9 62,9 L62,27 C62,27 46.75,30 31.5,30 C16.25,30 1,27 1,27 L1,9 Z" id="Rectangle-111" fill="#D8D8D8"></path>
        <path d="M19.1585883,15.372 C19.1772551,15.7920021 18.9952569,16.0486662 18.6125883,16.142 C18.5939216,16.1513334 18.2439251,16.1793331 17.5625883,16.226 C17.506588,16.226 17.4692551,16.2306666 17.4505883,16.24 C16.8812521,16.510668 16.4612563,16.6973328 16.1905883,16.8 C16.0879211,17.6306708 16.0785879,18.7413264 16.1625883,20.132 C16.2839223,20.0479996 16.4705871,19.9220008 16.7225883,19.754 C16.9465894,19.4926654 17.1332542,19.3666666 17.2825883,19.376 C17.5905899,19.3946668 17.9009201,19.5463319 18.2135883,19.831 C18.5262565,20.1156681 18.6825883,20.4119985 18.6825883,20.72 C18.6825883,20.8413339 18.6545886,20.9533328 18.5985883,21.056 C18.4959211,21.2613344 18.239257,21.3733332 17.8285883,21.392 C17.3619193,21.4106668 17.0492558,21.4853327 16.8905883,21.616 C16.759921,21.6626669 16.6362556,21.7443328 16.5195883,21.861 C16.4029211,21.9776673 16.2932555,22.0919994 16.1905883,22.204 C16.1159213,22.8293365 16.1159213,23.706661 16.1905883,24.836 C16.2372552,24.9573339 16.2605883,25.0739994 16.2605883,25.186 C16.2605883,25.4846682 16.0972566,25.7179992 15.7705883,25.886 C15.6492544,25.9513337 15.5045892,25.984 15.3365883,25.984 C15.0379202,25.984 14.7625896,25.8953342 14.5105883,25.718 C14.2305869,25.5313324 14.0625886,25.2933348 14.0065883,25.004 C13.9879216,24.8733327 14.0089213,24.7753337 14.0695883,24.71 C14.1302553,24.6446663 14.1932547,24.5840003 14.2585883,24.528 C14.202588,20.4586463 14.202588,17.453343 14.2585883,15.512 C14.2492549,15.4186662 14.2445883,15.334667 14.2445883,15.26 C14.2445883,14.7746642 14.5385854,14.532 15.1265883,14.532 C15.2292555,14.532 15.3412544,14.5413332 15.4625883,14.56 C15.6679227,14.5880001 15.8079213,14.6253331 15.8825883,14.672 C15.9012551,14.6813334 15.9665878,14.7466661 16.0785883,14.868 C16.2652559,14.8026663 16.5639196,14.7000007 16.9745883,14.56 C17.0679221,14.5039997 17.1682544,14.4410004 17.2755883,14.371 C17.3829222,14.3009997 17.5532538,14.266 17.7865883,14.266 C18.0572563,14.266 18.3512534,14.3826655 18.6685883,14.616 C18.9859232,14.8493345 19.1492549,15.101332 19.1585883,15.372 Z M22.6865883,25.536 C22.6025879,25.7693345 22.3599237,25.886 21.9585883,25.886 C21.8465878,25.886 21.7252556,25.8766668 21.5945883,25.858 C20.8292512,25.7366661 20.3812556,25.5080017 20.2505883,25.172 C20.2225882,25.1066663 20.2085883,25.0413337 20.2085883,24.976 C20.2085883,24.779999 20.3159206,24.584001 20.5305883,24.388 C20.4932548,22.987993 20.4092556,20.1320216 20.2785883,15.82 C20.2879217,15.6986661 20.2552554,15.5563342 20.1805883,15.393 C20.1059213,15.2296659 20.0685883,15.110667 20.0685883,15.036 C20.0685883,14.8679992 20.1759206,14.6906676 20.3905883,14.504 C20.5399224,14.3733327 20.7499203,14.308 21.0205883,14.308 C21.3285899,14.308 21.6552533,14.3873325 22.0005883,14.546 C22.411257,14.742001 22.6165883,14.9799986 22.6165883,15.26 C22.6165883,15.3253337 22.5185893,15.5773311 22.3225883,16.016 L22.4625883,24.5 C22.4625883,24.6120006 22.5045879,24.7543325 22.5885883,24.927 C22.6725887,25.0996675 22.7145883,25.2373328 22.7145883,25.34 C22.7145883,25.4053337 22.7052551,25.4706663 22.6865883,25.536 Z M31.1705883,24.64 C31.1519216,24.9760017 31.0352561,25.2583322 30.8205883,25.487 C30.6059206,25.7156678 30.3399232,25.8206668 30.0225883,25.802 C29.229251,25.7553331 28.6879231,25.3680036 28.3985883,24.64 C28.3519214,24.5279994 28.3239217,24.3460013 28.3145883,24.094 C28.2959216,23.8699989 28.2492554,23.6880007 28.1745883,23.548 C27.8292533,23.0159973 27.5119231,22.5026691 27.2225883,22.008 C26.5132514,20.8133274 25.99059,19.8146707 25.6545883,19.012 C25.6172548,19.9640048 25.6919207,21.7559868 25.8785883,24.388 C25.8785883,24.4440003 25.9252545,24.569999 26.0185883,24.766 C26.1119221,24.962001 26.1585883,25.1253327 26.1585883,25.256 C26.1585883,25.4240008 26.1025889,25.5779993 25.9905883,25.718 C25.8319209,25.9233344 25.5939232,26.026 25.2765883,26.026 C24.9405866,26.026 24.6115899,25.9210011 24.2895883,25.711 C23.9675867,25.5009989 23.7879218,25.2560014 23.7505883,24.976 C23.7225882,24.7519989 23.7832542,24.5793339 23.9325883,24.458 C24.0819224,24.3366661 24.1519217,24.2293338 24.1425883,24.136 L23.7225883,15.568 C23.7225883,15.5213331 23.7132551,15.4513338 23.6945883,15.358 C23.6759216,15.2646662 23.6665883,15.1946669 23.6665883,15.148 C23.6665883,15.0079993 23.7389209,14.8960004 23.8835883,14.812 C24.0282557,14.7279996 24.2312537,14.686 24.4925883,14.686 C25.1925918,14.686 25.6919202,14.8679982 25.9905883,15.232 C26.0745887,15.3253338 26.1165883,15.4373327 26.1165883,15.568 C26.1165883,15.6240003 26.1072551,15.6986662 26.0885883,15.792 C26.0699216,15.8853338 26.0605883,15.9506665 26.0605883,15.988 C26.0605883,16.0160001 26.0652549,16.0439999 26.0745883,16.072 C26.2612559,17.0240048 27.2412461,19.0213181 29.0145883,22.064 L28.8465883,15.232 C28.8465883,15.1479996 28.813922,15.0546672 28.7485883,14.952 C28.6832547,14.8493328 28.6505883,14.7700003 28.6505883,14.714 C28.6505883,14.5926661 28.7439207,14.4386676 28.9305883,14.252 C29.0332555,14.1399994 29.1919206,14.084 29.4065883,14.084 C29.7519234,14.084 30.1065865,14.2053321 30.4705883,14.448 C30.8345901,14.6906679 31.0212549,14.9519986 31.0305883,15.232 C31.0399217,15.4093342 30.9675891,15.5493328 30.8135883,15.652 C30.6595875,15.7546672 30.5825883,15.8573328 30.5825883,15.96 L30.7785883,23.632 C30.7785883,23.7626673 30.8462543,23.9283323 30.9815883,24.129 C31.1169223,24.3296677 31.1799217,24.4999993 31.1705883,24.64 Z M34.8945883,25.536 C34.8105879,25.7693345 34.5679237,25.886 34.1665883,25.886 C34.0545878,25.886 33.9332556,25.8766668 33.8025883,25.858 C33.0372512,25.7366661 32.5892556,25.5080017 32.4585883,25.172 C32.4305882,25.1066663 32.4165883,25.0413337 32.4165883,24.976 C32.4165883,24.779999 32.5239206,24.584001 32.7385883,24.388 C32.7012548,22.987993 32.6172556,20.1320216 32.4865883,15.82 C32.4959217,15.6986661 32.4632554,15.5563342 32.3885883,15.393 C32.3139213,15.2296659 32.2765883,15.110667 32.2765883,15.036 C32.2765883,14.8679992 32.3839206,14.6906676 32.5985883,14.504 C32.7479224,14.3733327 32.9579203,14.308 33.2285883,14.308 C33.5365899,14.308 33.8632533,14.3873325 34.2085883,14.546 C34.619257,14.742001 34.8245883,14.9799986 34.8245883,15.26 C34.8245883,15.3253337 34.7265893,15.5773311 34.5305883,16.016 L34.6705883,24.5 C34.6705883,24.6120006 34.7125879,24.7543325 34.7965883,24.927 C34.8805887,25.0996675 34.9225883,25.2373328 34.9225883,25.34 C34.9225883,25.4053337 34.9132551,25.4706663 34.8945883,25.536 Z M42.2585883,23.324 C42.2585883,24.0520036 42.0275906,24.6889973 41.5655883,25.235 C41.103586,25.7810027 40.5319251,26.054 39.8505883,26.054 C38.4785815,26.054 37.4705915,25.4006732 36.8265883,24.094 C36.1265848,23.6366644 35.7765883,23.2493349 35.7765883,22.932 C35.7765883,22.7733325 35.8745873,22.6426672 36.0705883,22.54 C36.4532569,22.3346656 36.8032534,22.232 37.1205883,22.232 C37.8112584,22.232 38.2732538,22.6426626 38.5065883,23.464 C38.6185889,23.6880011 38.7352544,23.9119989 38.8565883,24.136 C38.9779223,24.3600011 39.141254,24.472 39.3465883,24.472 C39.8972577,24.472 40.1725883,24.0800039 40.1725883,23.296 C40.1725883,22.5959965 40.0465896,22.1246679 39.7945883,21.882 C39.6825878,21.7793328 39.2345922,21.5646683 38.4505883,21.238 C37.8252519,20.9766654 37.3212569,20.5286698 36.9385883,19.894 C36.5932533,19.3153304 36.4159217,18.7133365 36.4065883,18.088 C36.3972549,17.079995 36.6492524,16.1840039 37.1625883,15.4 C37.7039244,14.5599958 38.3759176,14.14 39.1785883,14.14 C40.1119263,14.14 40.7932528,14.5133296 41.2225883,15.26 C41.5025897,15.726669 41.6612548,16.3053299 41.6985883,16.996 C41.8012555,17.3506684 41.8525883,17.6726652 41.8525883,17.962 C41.8525883,18.1486676 41.8292552,18.3026661 41.7825883,18.424 C41.6425876,18.7693351 41.367257,18.942 40.9565883,18.942 C40.6485868,18.942 40.3685896,18.8300011 40.1165883,18.606 C39.8365869,18.3633321 39.663922,18.0226689 39.5985883,17.584 C39.5705882,17.4346659 39.6009212,17.2853341 39.6895883,17.136 C39.7782554,16.9866659 39.8225883,16.9026668 39.8225883,16.884 C39.8225883,16.8653332 39.8132551,16.8466668 39.7945883,16.828 C39.8039217,16.7813331 39.8085883,16.7346669 39.8085883,16.688 C39.8085883,16.4079986 39.6452566,16.2773332 39.3185883,16.296 C39.0012534,16.3146668 38.7539225,16.5246647 38.5765883,16.926 C38.4179209,17.2713351 38.3479216,17.6679978 38.3665883,18.116 C38.3945885,18.9093373 38.9172499,19.5439976 39.9345883,20.02 C40.737259,20.3933352 41.2925868,20.7619982 41.6005883,21.126 C42.0392572,21.6486693 42.2585883,22.3813286 42.2585883,23.324 Z M48.6425883,21 C48.6052548,21.7466704 48.614588,22.819993 48.6705883,24.22 C48.6705883,24.3133338 48.7032547,24.4439992 48.7685883,24.612 C48.833922,24.7800008 48.8665883,24.901333 48.8665883,24.976 C48.8665883,25.1626676 48.7079232,25.3213327 48.3905883,25.452 C48.3252547,25.4800001 48.2412555,25.494 48.1385883,25.494 C47.8305868,25.494 47.5039234,25.4100008 47.1585883,25.242 C46.7479196,25.045999 46.5425883,24.812668 46.5425883,24.542 C46.5425883,24.4206661 46.5869212,24.262001 46.6755883,24.066 C46.7642554,23.869999 46.8505879,23.6786676 46.9345883,23.492 L46.9345883,21.084 L45.0585883,21.476 C45.0585883,21.9333356 45.0632549,22.5773292 45.0725883,23.408 C45.0819217,24.2386708 45.0865883,24.6586666 45.0865883,24.668 C45.0865883,24.7800006 45.1169213,24.9526655 45.1775883,25.186 C45.2382553,25.4193345 45.2685883,25.5873328 45.2685883,25.69 C45.2685883,25.8766676 45.2055889,26.0283328 45.0795883,26.145 C44.9535877,26.2616673 44.7832561,26.32 44.5685883,26.32 C44.3445872,26.32 44.1159228,26.2593339 43.8825883,26.138 C43.6492538,26.0166661 43.492922,25.8930006 43.4135883,25.767 C43.3342546,25.6409994 43.2945883,25.5500003 43.2945883,25.494 C43.2945883,25.4753332 43.3319213,25.3773342 43.4065883,25.2 C43.4065883,24.7986647 43.4019217,24.1453379 43.3925883,23.24 C43.3832549,22.3346621 43.3785883,21.7560013 43.3785883,21.504 C43.3692549,21.4759999 43.2572561,21.2753352 43.0425883,20.902 C42.911921,20.6873323 42.8652548,20.4866676 42.9025883,20.3 C42.9212551,20.1973328 42.9772545,20.1133337 43.0705883,20.048 L43.3505883,19.852 C43.3225882,17.6306556 43.3319214,16.1280039 43.3785883,15.344 C43.2945879,15.1759992 43.2525883,15.0406672 43.2525883,14.938 C43.2525883,14.7326656 43.3972535,14.5600007 43.6865883,14.42 C43.8079223,14.3639997 43.9805872,14.336 44.2045883,14.336 C44.932592,14.336 45.3759209,14.531998 45.5345883,14.924 C45.5625885,14.998667 45.5765883,15.0686663 45.5765883,15.134 C45.5765883,15.2646673 45.4949225,15.4583321 45.3315883,15.715 C45.1682542,15.971668 45.0865883,16.1839992 45.0865883,16.352 C45.030588,17.8453408 45.0212548,18.9559964 45.0585883,19.684 C45.9732596,19.5253325 46.5799202,19.4040004 46.8785883,19.32 C46.7945879,18.1813276 46.8039211,16.8466743 46.9065883,15.316 C46.8225879,15.0826655 46.7805883,14.8913341 46.7805883,14.742 C46.7805883,14.4619986 46.9532533,14.2333342 47.2985883,14.056 C47.3732554,14.0186665 47.4805876,14 47.6205883,14 C47.9472566,14 48.2645868,14.0793325 48.5725883,14.238 C48.9272568,14.4246676 49.1092549,14.6626652 49.1185883,14.952 C49.1279217,15.0826673 49.0462558,15.245999 48.8735883,15.442 C48.7009208,15.638001 48.6145883,15.8106659 48.6145883,15.96 C48.5959216,17.3040067 48.6052548,18.4333288 48.6425883,19.348 C48.7919224,19.4693339 48.9435875,19.6466655 49.0975883,19.88 C49.2515891,20.1133345 49.3285883,20.3046659 49.3285883,20.454 C49.3285883,20.6033341 49.2492558,20.715333 49.0905883,20.79 C48.9319209,20.864667 48.782589,20.9346663 48.6425883,21 Z" id="FINISH" fill="#0A3586"></path>
    </g>
</svg>