<svg xmlns="http://www.w3.org/2000/svg" width="64" height="64" viewBox="0 0 64 64">
  <g fill="none" fill-rule="evenodd">
    <path fill="#FFDD95" d="M26.8967512,27.2566319 L24.0636162,22.2997421 C24.0636162,22.2997421 38.1167259,17.8311222 45.2920276,21.4251689 C52.4673293,25.0192155 48.5377799,28.3238087 48.5377799,28.3238087"/>
    <path fill="#FFAF40" d="M37,45 C48.5979797,45 61,39.5228475 61,34 C61,28.4771525 48.5979797,23 37,23 C25.4020203,23 11,34 11,34 C11,34 25.4020203,45 37,45 Z"/>
    <rect width="5" height="4" x="59" y="32" fill="#FFAF40"/>
    <circle cx="52" cy="32" r="2" fill="#595959"/>
    <path fill="#FFAF40" d="M12.3203564,33.9242937 C12.3203564,33.9242937 -3.90184778,23.844536 3.88710177,34.0262603 C3.88710177,34.0262603 -2.23033703,36.8299495 3.36533468,38.8890373 C8.96100638,40.9481251 12.3203564,33.9242937 12.3203564,33.9242937 Z"/>
    <path fill="#FFDD95" d="M36.101912,37 C36.101912,37 36.0964299,40.1317252 30,41.0607537 C30,41.0607537 38.2863351,42.2342827 42.4380912,37.7232681"/>
  </g>
</svg>
