<svg xmlns="http://www.w3.org/2000/svg" width="64" height="64" viewBox="0 0 64 64">
  <g fill="none" fill-rule="evenodd">
    <path fill="#FFDD95" d="M43.5480376,14.8868931 C43.5480376,14.8868931 56.5531992,24.2770948 46.5478439,31.945218 C36.5424887,39.6133412 43.5480376,14.8868931 43.5480376,14.8868931 Z"/>
    <polygon fill="#FFDD95" points="9.902 25.793 20.524 10.824 22.092 13.006 39.02 1.399 38.878 8.075"/>
    <path fill="#FFDD95" d="M60.6304287,26 C60.6304287,26 47.3302288,27.5268539 43,37.4697505 C43,37.4697505 43.6498006,48.6406401 55.8841617,48.7412468 C51.8152143,32.0316649 60.6304287,26 60.6304287,26 Z"/>
    <path fill="#FFAF40" d="M2.36159533,29.8715566 C2.36159533,29.8715566 21.0445587,20.2140943 26.0845058,13.5612591 C31.124453,6.90842391 53.4005246,4.12681988 53.4005246,4.12681988 C53.4005246,4.12681988 41.7122402,13.8135188 44.3525338,28.4648243 C46.9928274,43.1161298 37.2112968,54.4749398 37.2112968,54.4749398 C37.2112968,54.4749398 24.2588678,49.9878444 18.6628969,46.0371702 C13.066926,42.086496 2.36159533,29.8715566 2.36159533,29.8715566 Z"/>
    <circle cx="14" cy="30" r="3" fill="#595959"/>
    <path fill="#FFDD95" d="M14,39 C14,39 16.1242774,44.0103615 18.007938,49.234995 C19.8915986,54.4596284 27.8798124,59.0032461 29.7270292,57.5973064 C31.574246,56.1913667 27.6861773,51.6517008 26.7619103,47.0461726 C25.8376433,42.4406444 14,39 14,39 Z"/>
  </g>
</svg>
