<svg xmlns="http://www.w3.org/2000/svg" width="64" height="64" viewBox="0 0 64 64">
  <g fill="none" fill-rule="evenodd">
    <path fill="#80D25B" d="M27,48 C38.5979797,48 50.1227081,40.836556 50.1227081,32 C50.1227081,23.163444 38.5979797,16 27,16 C15.4020203,16 6,23.163444 6,32 C6,34.0405957 -0.914024656,32.1869532 1.8179902e-15,33.9814931 C0.480474844,34.9248279 3.92671812,41.1273622 9.83047386,44.5440175 C15.7342296,47.9606729 22.7691149,48 27,48 Z"/>
    <path fill="#D650C7" d="M60 21C53.372583 21 48 26.372583 48 33 48 39.627417 53.372583 45 60 45 60 45 59.3333333 40 60 38 60.6666667 36 64 33 64 33 64 33 60.6666667 28 60 26 59.3333333 24 60 21 60 21zM34.25 27C31.3505051 27 29 29.4624339 29 32.5 29 35.5375661 31.3505051 38 34.25 38 34.25 38 33.9583333 35.7083333 34.25 34.7916667 34.5416667 33.875 36 32.5 36 32.5 36 32.5 34.5416667 30.2083333 34.25 29.2916667 33.9583333 28.375 34.25 27 34.25 27z"/>
    <circle cx="15" cy="30" r="3" fill="#595959"/>
  </g>
</svg>
