<svg xmlns="http://www.w3.org/2000/svg" width="64" height="64" viewBox="0 0 64 64">
  <g fill="none" fill-rule="evenodd">
    <path fill="#FF78C7" d="M24.5157611,7.61580604 C22.7549253,4.8891072 18.932191,3 14.5,3 C9.60304341,3 5.4500619,5.30606841 4,8.5 C5.4500619,11.6939316 9.60304341,14 14.5,14 C18.932191,14 22.7549253,12.1108928 24.5157611,9.38419396 L29,12 L29,5 L24.5157611,7.61580604 Z"/>
    <path fill="#ED9111" d="M51.5157611,18.615806 C49.7549253,15.8891072 45.932191,14 41.5,14 C36.6030434,14 32.4500619,16.3060684 31,19.5 C32.4500619,22.6939316 36.6030434,25 41.5,25 C45.932191,25 49.7549253,23.1108928 51.5157611,20.384194 L56,23 L56,16 L51.5157611,18.615806 Z"/>
    <path fill="#D650C7" d="M27.5157611,27.615806 C25.7549253,24.8891072 21.932191,23 17.5,23 C12.6030434,23 8.4500619,25.3060684 7,28.5 C8.4500619,31.6939316 12.6030434,34 17.5,34 C21.932191,34 25.7549253,32.1108928 27.5157611,29.384194 L32,32 L32,25 L27.5157611,27.615806 Z"/>
    <path fill="#22BA8E" d="M35.5157611,41.615806 C33.7549253,38.8891072 29.932191,37 25.5,37 C20.6030434,37 16.4500619,39.3060684 15,42.5 C16.4500619,45.6939316 20.6030434,48 25.5,48 C29.932191,48 33.7549253,46.1108928 35.5157611,43.384194 L40,46 L40,39 L35.5157611,41.615806 Z"/>
    <path fill="#9C4D4D" d="M58.5157611,30.615806 C56.7549253,27.8891072 52.932191,26 48.5,26 C43.6030434,26 39.4500619,28.3060684 38,31.5 C39.4500619,34.6939316 43.6030434,37 48.5,37 C52.932191,37 56.7549253,35.1108928 58.5157611,32.384194 L63,35 L63,28 L58.5157611,30.615806 Z"/>
    <path fill="#E43535" d="M21.5157611,54.615806 C19.7549253,51.8891072 15.932191,50 11.5,50 C6.60304341,50 2.4500619,52.3060684 1,55.5 C2.4500619,58.6939316 6.60304341,61 11.5,61 C15.932191,61 19.7549253,59.1108928 21.5157611,56.384194 L26,59 L26,52 L21.5157611,54.615806 Z"/>
  </g>
</svg>
