<svg xmlns="http://www.w3.org/2000/svg" width="64" height="64" viewBox="0 0 64 64">
  <g fill="none" fill-rule="evenodd">
    <rect width="43" height="43" x="18" y="4" fill="#D650C7"/>
    <rect width="5" height="8" x="13" y="13" fill="#D8D8D8"/>
    <rect width="5" height="8" x="13" y="32" fill="#D8D8D8"/>
    <rect width="7" height="54" x="6" y="4" fill="#BD7575"/>
    <path fill="#FFDD95" d="M24.7951895,19.376111 C24.7951895,19.376111 26.3925274,19.5428182 28.9612342,19.4594646 C31.529941,19.376111 35.0495868,20.4251131 36.9784323,23.7110421 C36.9784323,23.7110421 42.9482921,22.0199995 45.4325557,27.0111357 C45.4325557,27.0111357 47.3853721,27.4995441 47.645784,27.2091686 C47.9061958,26.918793 46.1051047,24.6720599 46.5760797,17.3129737 C46.5760797,17.3129737 45.4497167,16.1637294 44.2064953,15.8817981 C42.9632739,15.5998669 42.4664212,16.3435116 41.1379394,15.0509863 C39.8094577,13.758461 38.7255887,11.7555234 39.2657526,11.1886646 C39.8059165,10.6218058 40.4983505,10.6119995 40.4983505,10.6119995 C40.4983505,10.6119995 40.5155116,9.03454656 41.6489568,9.00104169 C42.7824021,8.96753681 46.9620667,9.74386919 47.9377939,11.0990459 C48.9135211,12.4542226 49.2572865,15.4791949 51.2125546,17.9988702 C53.1678226,20.5185454 56.9105618,24.6829558 55.8493018,32.7606261 C55.8493018,32.7606261 44.0130932,39.3648992 34.0030363,35.0247926 C34.0030363,35.0247926 33.2845382,37.9051536 29.9363811,39.9062293 C29.9363811,39.9062293 27.3303914,35.6101745 25.110898,30.2758177 C22.8914046,24.9414608 24.7951895,19.376111 24.7951895,19.376111 Z"/>
  </g>
</svg>
