<svg xmlns="http://www.w3.org/2000/svg" width="64" height="64" viewBox="0 0 64 64">
  <g fill="none" fill-rule="evenodd">
    <polyline stroke="#979797" stroke-linecap="square" stroke-width="2" points="16 24.445 32 8.445 48 24.445"/>
    <path fill="#BD7575" d="M1,27.9932874 C1,26.8924252 1.90035102,26 2.99263021,26 L61.0073698,26 C62.1078691,26 63,26.8997127 63,27.9932874 L63,53.0067126 C63,54.1075748 62.099649,55 61.0073698,55 L2.99263021,55 C1.89213093,55 1,54.1002873 1,53.0067126 L1,27.9932874 Z"/>
    <rect width="58" height="25" x="3" y="28" fill="#D650C7"/>
    <rect width="10" height="3" x="10" y="23" fill="#AB5F5F"/>
    <rect width="10" height="3" x="44" y="23" fill="#AB5F5F"/>
    <circle cx="32" cy="10" r="3" fill="#D8D8D8"/>
    <path fill="#FFF" d="M20.449,33.646 C20.4770001,33.6740001 20.491,33.7206663 20.491,33.786 C20.491,33.8700004 20.4630003,34.0146656 20.407,34.22 C20.332333,34.4720013 20.2903334,34.6446662 20.281,34.738 C20.2903334,34.6539996 20.295,34.8639975 20.295,35.368 C20.295,35.5546676 20.2390006,35.678333 20.127,35.739 C20.0149994,35.799667 19.8656676,35.83 19.679,35.83 C19.4269987,35.83 19.1750013,35.7786672 18.923,35.676 C18.5963317,35.5453327 18.433,35.3726677 18.433,35.158 C18.433,35.0926663 18.4609997,35.0040006 18.517,34.892 C18.5730003,34.7799994 18.6056666,34.6913337 18.615,34.626 C17.9336633,35.0366687 17.6116665,36.0213255 17.649,37.58 C17.9383348,37.505333 18.2229986,37.430667 18.503,37.356 C18.9136687,37.2533328 19.2496654,37.202 19.511,37.202 C19.9403355,37.202 20.2483324,37.3326654 20.435,37.594 C20.5003337,37.6966672 20.533,37.7993328 20.533,37.902 C20.533,38.0326673 20.4606674,38.2356653 20.316,38.511 C20.1713326,38.7863347 20.099,39.0126658 20.099,39.19 L20.099,43.306 C20.099,43.4926676 20.1503328,43.7563316 20.253,44.097 C20.3556672,44.4376684 20.407,44.6733327 20.407,44.804 C20.407,44.9906676 20.3323341,45.1306662 20.183,45.224 C19.9403321,45.3733341 19.683668,45.448 19.413,45.448 C19.0676649,45.448 18.8203341,45.3266679 18.671,45.084 C18.474999,44.7759985 18.377,43.884674 18.377,42.41 C18.377,42.0459982 18.3863332,41.3693383 18.405,40.38 C18.4236668,39.6333296 18.4236668,39.1480011 18.405,38.924 L17.677,39.12 L17.663,43.67 C17.663,43.9126679 17.7516658,44.1413323 17.929,44.356 C18.1063342,44.5706677 18.195,44.7339994 18.195,44.846 C18.195,44.9113337 18.1810001,44.9766663 18.153,45.042 C18.0223327,45.3686683 17.7470021,45.532 17.327,45.532 C17.0656654,45.532 16.8183345,45.464334 16.585,45.329 C16.3516655,45.193666 16.2116669,45.028001 16.165,44.832 C16.1089997,44.5893321 16.081,44.2813352 16.081,43.908 L16.081,39.54 C15.8943324,39.6240004 15.6983344,39.6520001 15.493,39.624 C14.8489968,39.5399996 14.527,39.2786689 14.527,38.84 C14.527,38.7093327 14.5689996,38.5693341 14.653,38.42 C14.7090003,38.3266662 14.8769986,38.2566669 15.157,38.21 C15.5863355,38.135333 15.8663327,38.0746669 15.997,38.028 C16.0156668,36.627993 16.1369989,35.6246697 16.361,35.018 C16.6690015,34.1686624 17.2756621,33.6040014 18.181,33.324 C18.2183335,33.3146666 18.2883328,33.31 18.391,33.31 C18.6803348,33.31 19.0769975,33.3496663 19.581,33.429 C20.0850025,33.5083337 20.374333,33.5806663 20.449,33.646 Z M25.601,38.644 C25.526333,38.644 25.4096675,38.613667 25.251,38.553 C25.0923325,38.492333 24.9710004,38.462 24.887,38.462 C24.8216663,38.462 24.7563337,38.4759999 24.691,38.504 L24.173,38.77 L24.173,43.558 C24.173,43.7353342 24.2686657,43.9639986 24.46,44.244 C24.6513343,44.5240014 24.7283335,44.7479992 24.691,44.916 C24.6443331,45.1213344 24.5066678,45.2846661 24.278,45.406 C24.0493322,45.5273339 23.8043346,45.588 23.543,45.588 C23.0483309,45.588 22.7076676,45.3686689 22.521,44.93 C22.4649997,44.7993327 22.4323334,44.3840035 22.423,43.684 C22.4136666,43.217331 22.4183332,42.4893383 22.437,41.5 C22.4556668,40.3799944 22.465,39.6706682 22.465,39.372 C22.4089997,39.3906668 22.3156673,39.4536661 22.185,39.561 C22.0543327,39.6683339 21.9236673,39.722 21.793,39.722 C21.6903328,39.722 21.5596675,39.6940003 21.401,39.638 C20.7476634,39.4139989 20.421,39.1853345 20.421,38.952 C20.421,38.8959997 20.4349999,38.8353337 20.463,38.77 C20.5283337,38.6206659 20.6496658,38.5366668 20.827,38.518 C21.097668,38.4806665 21.2609997,38.4480001 21.317,38.42 C21.5316677,38.3359996 21.9236638,38.1353349 22.493,37.818 L22.493,36.6 C22.493,36.5066662 22.4673336,36.3830008 22.416,36.229 C22.3646664,36.0749992 22.339,35.960667 22.339,35.886 C22.339,35.8019996 22.3623331,35.722667 22.409,35.648 C22.6516679,35.2746648 22.9783313,35.088 23.389,35.088 C23.8650024,35.088 24.200999,35.2746648 24.397,35.648 C24.471667,35.7973341 24.509,35.9186662 24.509,36.012 C24.509,36.1240006 24.4530006,36.2406661 24.341,36.362 C24.2289994,36.4833339 24.173,36.5953328 24.173,36.698 L24.173,37.384 C24.3410008,37.309333 24.5276656,37.1833342 24.733,37.006 C24.8916675,36.8753327 25.0269994,36.81 25.139,36.81 C25.1856669,36.81 25.2369997,36.8193332 25.293,36.838 C25.8810029,36.9966675 26.175,37.3513306 26.175,37.902 C26.175,38.0793342 26.1213339,38.2473325 26.014,38.406 C25.9066661,38.5646675 25.7690008,38.644 25.601,38.644 Z M33.511,44.104 C33.4923332,44.3093344 33.3570013,44.4843326 33.105,44.629 C32.8529987,44.7736674 32.5730015,44.846 32.265,44.846 C31.8076644,44.846 31.4950008,44.7013348 31.327,44.412 C31.401667,41.537319 31.3176679,40.0813335 31.075,40.044 C30.8416655,40.0066665 30.2723379,41.2946536 29.367,43.908 L29.367,44.748 C29.3576666,45.0840017 29.2666675,45.3219993 29.094,45.462 C28.9213325,45.6020007 28.737001,45.672 28.541,45.672 C28.2049983,45.672 27.8456686,45.4900018 27.463,45.126 C27.3509994,45.0326662 27.2903334,44.32334 27.281,42.998 C27.2903334,43.8100041 27.295,42.3026858 27.295,38.476 C27.295,38.3919996 27.2856668,38.2776674 27.267,38.133 C27.2483332,37.9883326 27.239,37.8833337 27.239,37.818 C27.239,37.6406658 27.2856662,37.4866673 27.379,37.356 C27.4910006,37.1879992 27.6683321,37.104 27.911,37.104 C28.1630013,37.104 28.4266653,37.1809992 28.702,37.335 C28.9773347,37.4890008 29.1429997,37.6359993 29.199,37.776 C29.2363335,37.8693338 29.255,37.9626662 29.255,38.056 C29.255,38.1493338 29.217667,38.2799992 29.143,38.448 C29.068333,38.6160008 29.031,38.7559994 29.031,38.868 L29.031,40.8 C29.6190029,39.5493271 30.0623318,38.7233353 30.361,38.322 C30.8930027,37.6313299 31.4949966,37.3093331 32.167,37.356 C32.5683353,37.3840001 32.8529992,37.7573297 33.021,38.476 C33.1516673,39.017336 33.2216666,39.8199947 33.231,40.884 L33.231,43.404 C33.2496668,43.4693337 33.3149994,43.5859992 33.427,43.754 C33.4923337,43.8473338 33.5203334,43.9639993 33.511,44.104 Z M39.489,43.53 C39.414333,43.8846684 39.1623355,44.2626647 38.733,44.664 C38.6676663,44.7666672 38.4110022,44.9019992 37.963,45.07 C37.4496641,45.266001 37.0063352,45.3500001 36.633,45.322 C35.9329965,45.2753331 35.3823353,44.8740038 34.981,44.118 C34.6169982,43.4179965 34.435,42.5593384 34.435,41.542 C34.435,40.4406612 34.6403313,39.4746708 35.051,38.644 C35.5083356,37.7293288 36.1196628,37.2160006 36.885,37.104 C37.0343341,37.0853332 37.1789993,37.076 37.319,37.076 C38.4296722,37.076 39.0409994,37.7573265 39.153,39.12 C39.2090003,39.7453365 38.9616694,40.426663 38.411,41.164 C37.8136637,41.9760041 37.048338,42.5453317 36.115,42.872 C36.2176672,43.2453352 36.2969997,43.4879994 36.353,43.6 C36.4836673,43.8333345 36.6609989,43.95 36.885,43.95 C37.0996677,43.95 37.3283321,43.8660008 37.571,43.698 C37.7763344,43.5579993 37.916333,43.4226673 37.991,43.292 C38.0283335,43.2733332 38.0656665,43.1683343 38.103,42.977 C38.1403335,42.7856657 38.2383325,42.6480004 38.397,42.564 C38.4530003,42.5359999 38.518333,42.522 38.593,42.522 C38.8170011,42.522 39.033999,42.6316656 39.244,42.851 C39.454001,43.0703344 39.5356669,43.2966655 39.489,43.53 Z M37.291,38.602 C36.9176648,38.602 36.6143345,38.8679973 36.381,39.4 C36.0729985,40.1093369 35.9469997,40.8093299 36.003,41.5 C36.4416689,41.3599993 36.8476648,41.0333359 37.221,40.52 C37.5943352,40.0066641 37.781,39.5493353 37.781,39.148 C37.781,38.7839982 37.6176683,38.602 37.291,38.602 Z M45.369,43.124 C45.369,43.7773366 45.135669,44.3349977 44.669,44.797 C44.202331,45.2590023 43.6516698,45.49 43.017,45.49 C42.6156647,45.49 42.2003355,45.2986686 41.771,44.916 C41.4349983,44.6079985 41.131668,44.2300022 40.861,43.782 C40.6276655,43.389998 40.5249999,43.1426672 40.553,43.04 C40.6556672,42.8066655 40.977664,42.69 41.519,42.69 C41.7430011,42.69 41.9203327,42.7226663 42.051,42.788 C42.2750011,42.9093339 42.4009999,43.0633324 42.429,43.25 C42.4570001,43.4646677 42.5036663,43.5999997 42.569,43.656 C42.765001,43.9546682 42.9423325,44.104 43.101,44.104 C43.2223339,44.104 43.3366661,44.0223342 43.444,43.859 C43.5513339,43.6956659 43.605,43.5020011 43.605,43.278 C43.605,43.1379993 43.5816669,42.9980007 43.535,42.858 C43.4883331,42.7179993 43.2363356,42.5033348 42.779,42.214 C42.2283306,41.8686649 41.8363345,41.5653346 41.603,41.304 C41.2016647,40.8559978 41.001,40.3333363 41.001,39.736 C41.001,39.0359965 41.2063313,38.422336 41.617,37.895 C42.0276687,37.367664 42.5503302,37.104 43.185,37.104 C43.8383366,37.104 44.3376649,37.3513309 44.683,37.846 C44.9630014,38.2473353 45.0796669,38.6533313 45.033,39.064 C45.1356672,39.1760006 45.187,39.3626654 45.187,39.624 C45.187,39.9040014 45.0843344,40.141999 44.879,40.338 C44.6736656,40.534001 44.4636677,40.632 44.249,40.632 C43.9316651,40.632 43.6563345,40.4220021 43.423,40.002 C43.3576663,39.8899994 43.325,39.7406676 43.325,39.554 C43.325,39.4699996 43.3319999,39.3510008 43.346,39.197 C43.3600001,39.0429992 43.367,38.9333337 43.367,38.868 C43.367,38.6253321 43.2783342,38.504 43.101,38.504 C42.830332,38.504 42.695,38.7699973 42.695,39.302 C42.695,39.843336 42.8723316,40.2773317 43.227,40.604 C43.3670007,40.7346673 43.670331,40.9213321 44.137,41.164 C44.5383353,41.3693344 44.8229992,41.5793323 44.991,41.794 C45.2430013,42.1206683 45.369,42.5639972 45.369,43.124 Z M51.291,43.124 C51.291,43.7773366 51.057669,44.3349977 50.591,44.797 C50.124331,45.2590023 49.5736698,45.49 48.939,45.49 C48.5376647,45.49 48.1223355,45.2986686 47.693,44.916 C47.3569983,44.6079985 47.053668,44.2300022 46.783,43.782 C46.5496655,43.389998 46.4469999,43.1426672 46.475,43.04 C46.5776672,42.8066655 46.899664,42.69 47.441,42.69 C47.6650011,42.69 47.8423327,42.7226663 47.973,42.788 C48.1970011,42.9093339 48.3229999,43.0633324 48.351,43.25 C48.3790001,43.4646677 48.4256663,43.5999997 48.491,43.656 C48.687001,43.9546682 48.8643325,44.104 49.023,44.104 C49.1443339,44.104 49.2586661,44.0223342 49.366,43.859 C49.4733339,43.6956659 49.527,43.5020011 49.527,43.278 C49.527,43.1379993 49.5036669,42.9980007 49.457,42.858 C49.4103331,42.7179993 49.1583356,42.5033348 48.701,42.214 C48.1503306,41.8686649 47.7583345,41.5653346 47.525,41.304 C47.1236647,40.8559978 46.923,40.3333363 46.923,39.736 C46.923,39.0359965 47.1283313,38.422336 47.539,37.895 C47.9496687,37.367664 48.4723302,37.104 49.107,37.104 C49.7603366,37.104 50.2596649,37.3513309 50.605,37.846 C50.8850014,38.2473353 51.0016669,38.6533313 50.955,39.064 C51.0576672,39.1760006 51.109,39.3626654 51.109,39.624 C51.109,39.9040014 51.0063344,40.141999 50.801,40.338 C50.5956656,40.534001 50.3856677,40.632 50.171,40.632 C49.8536651,40.632 49.5783345,40.4220021 49.345,40.002 C49.2796663,39.8899994 49.247,39.7406676 49.247,39.554 C49.247,39.4699996 49.2539999,39.3510008 49.268,39.197 C49.2820001,39.0429992 49.289,38.9333337 49.289,38.868 C49.289,38.6253321 49.2003342,38.504 49.023,38.504 C48.752332,38.504 48.617,38.7699973 48.617,39.302 C48.617,39.843336 48.7943316,40.2773317 49.149,40.604 C49.2890007,40.7346673 49.592331,40.9213321 50.059,41.164 C50.4603353,41.3693344 50.7449992,41.5793323 50.913,41.794 C51.1650013,42.1206683 51.291,42.5639972 51.291,43.124 Z"/>
  </g>
</svg>
