<svg xmlns="http://www.w3.org/2000/svg" width="64" height="64" viewBox="0 0 64 64">
  <g fill="none" fill-rule="evenodd">
    <polygon fill="#E6E6E6" points="19.045 3 52 3 52 61 12 61 12 9.065"/>
    <polygon fill="#CDCDCD" points="19 3 19 9 12 9"/>
    <path fill="#979797" d="M22.932,38.418 C22.9506668,38.5300006 22.9413335,38.6606659 22.904,38.81 C22.829333,39.0433345 22.7873334,39.1739999 22.778,39.202 C22.7686666,39.3513341 22.7570001,39.5076659 22.743,39.671 C22.7289999,39.8343342 22.6776671,39.9626662 22.589,40.056 C22.5003329,40.1493338 22.3253346,40.196 22.064,40.196 C21.8026654,40.196 21.574001,40.1446672 21.378,40.042 C21.1446655,39.9299994 21.0233334,39.776001 21.014,39.58 C21.014,39.4959996 21.0396664,39.3933339 21.091,39.272 C21.1423336,39.1506661 21.1749999,39.0573337 21.189,38.992 C21.2030001,38.9266663 21.2053334,38.7493348 21.196,38.46 C21.196,38.2453323 21.2496661,38.0866672 21.357,37.984 C21.4643339,37.8813328 21.6346655,37.83 21.868,37.83 C22.1106679,37.83 22.3393323,37.8836661 22.554,37.991 C22.7686677,38.0983339 22.8946665,38.2406658 22.932,38.418 Z M29.778,40.07 C29.5913324,40.4246684 29.2413359,40.602 28.728,40.602 C28.2706644,40.602 27.9486676,40.4433349 27.762,40.126 C27.7059997,40.0326662 27.678,39.9300006 27.678,39.818 C27.678,39.7246662 27.7106663,39.5706677 27.776,39.356 C27.8413337,39.1413323 27.874,38.9640007 27.874,38.824 L27.846,33.798 C27.7246661,33.798 27.2860038,33.9053323 26.53,34.12 L26.516,38.67 C26.516,38.9126679 26.6046658,39.1413323 26.782,39.356 C26.9593342,39.5706677 27.048,39.7339994 27.048,39.846 C27.048,39.9113337 27.0340001,39.9766663 27.006,40.042 C26.8753327,40.3686683 26.6000021,40.532 26.18,40.532 C25.9186654,40.532 25.6713345,40.464334 25.438,40.329 C25.2046655,40.193666 25.0646669,40.028001 25.018,39.832 C24.9619997,39.5893321 24.934,39.2813352 24.934,38.908 L24.934,34.54 C24.7473324,34.6240004 24.5513344,34.6520001 24.346,34.624 C23.7019968,34.5399996 23.38,34.2786689 23.38,33.84 C23.38,33.7093327 23.4219996,33.5693341 23.506,33.42 C23.5620003,33.3266662 23.7299986,33.2566669 24.01,33.21 C24.4393355,33.135333 24.7193327,33.0746669 24.85,33.028 C24.8686668,31.627993 24.9899989,30.6246697 25.214,30.018 C25.5220015,29.1686624 26.1286621,28.6040014 27.034,28.324 C27.0993337,28.3053332 27.1739996,28.296 27.258,28.296 C27.6313352,28.296 27.9719985,28.431332 28.28,28.702 C28.4946677,28.6366663 28.7186655,28.604 28.952,28.604 C29.3346686,28.604 29.5773328,28.6739993 29.68,28.814 C29.7826672,28.9540007 29.834,29.0986659 29.834,29.248 C29.834,29.3506672 29.796667,29.5209988 29.722,29.759 C29.647333,29.9970012 29.61,30.1906659 29.61,30.34 L29.61,38.74 C29.61,38.8800007 29.6496663,39.0643322 29.729,39.293 C29.8083337,39.5216678 29.848,39.6873328 29.848,39.79 C29.848,39.8926672 29.8246669,39.9859996 29.778,40.07 Z M27.832,32.272 L27.818,29.78 C27.818,29.7146663 27.8133334,29.6166673 27.804,29.486 C27.5519987,29.5700004 27.3700006,29.6773327 27.258,29.808 C26.9219983,30.2186687 26.7026672,30.6479978 26.6,31.096 C26.5159996,31.4413351 26.4833332,31.9359968 26.502,32.58 C26.5860004,32.5613332 26.8099982,32.4960006 27.174,32.384 C27.4166679,32.2999996 27.635999,32.2626666 27.832,32.272 Z M36.442,39.412 C36.3019993,39.8693356 35.9566694,40.098 35.406,40.098 C35.2193324,40.098 35.0700006,40.0653337 34.958,40 C34.8086659,39.8973328 34.7060003,39.6920015 34.65,39.384 C34.5379994,38.8519973 34.4260006,38.4366682 34.314,38.138 C34.2859999,38.6513359 34.0060027,39.171664 33.474,39.699 C32.9419973,40.226336 32.405336,40.49 31.864,40.49 C31.1826633,40.49 30.7113346,40.0373379 30.45,39.132 C30.3566662,38.7959983 30.31,38.4786682 30.31,38.18 C30.31,37.3119957 30.7533289,36.5700031 31.64,35.954 C32.3680036,35.5246645 33.100663,35.1000021 33.838,34.68 C33.8753335,34.5213325 33.894,34.3673341 33.894,34.218 C33.894,33.9286652 33.8146675,33.7583336 33.656,33.707 C33.4973325,33.6556664 33.3620006,33.63 33.25,33.63 C33.053999,33.63 32.8930006,33.6929994 32.767,33.819 L32.41,34.176 C32.2979994,34.250667 32.1533342,34.423332 31.976,34.694 C31.8359993,34.9086677 31.6820008,35.0253332 31.514,35.044 C31.2713321,35.0720001 31.052001,34.988001 30.856,34.792 C30.659999,34.595999 30.562,34.3673346 30.562,34.106 C30.562,33.9566659 30.599333,33.8213339 30.674,33.7 C30.8886677,33.3453316 31.2106645,33.0373346 31.64,32.776 C32.2933366,32.383998 33.1099951,32.188 34.09,32.188 C34.7153365,32.188 35.1446655,32.4866637 35.378,33.084 C35.5273341,33.4853353 35.639333,34.2366612 35.714,35.338 C35.7980004,36.6726733 35.9006661,37.6479969 36.022,38.264 C36.0406668,38.3853339 36.1199993,38.5393324 36.26,38.726 C36.4000007,38.9126676 36.47,39.0759993 36.47,39.216 C36.47,39.2813337 36.4606668,39.3466663 36.442,39.412 Z M34.006,35.968 C33.7259986,36.1173341 33.4483347,36.2713325 33.173,36.43 C32.8976653,36.5886675 32.6433345,36.7986654 32.41,37.06 C32.0739983,37.4426686 31.906,37.769332 31.906,38.04 C31.906,38.2640011 31.9899992,38.4973321 32.158,38.74 C32.2513338,38.8706673 32.3539994,38.936 32.466,38.936 C32.7086679,38.936 32.9723319,38.665336 33.257,38.124 C33.5416681,37.582664 33.7913323,36.8640045 34.006,35.968 Z M42.168,37.676 C42.1586666,37.8813344 42.0700008,38.0913323 41.902,38.306 C41.6406654,38.6140015 41.472667,38.8473325 41.398,39.006 C40.8099971,39.9020045 40.2033365,40.35 39.578,40.35 C38.840663,40.35 38.2666687,39.9766704 37.856,39.23 C37.4919982,38.5486633 37.31,37.6900052 37.31,36.654 C37.31,35.4686607 37.5339978,34.4373377 37.982,33.56 C38.4766691,32.5893285 39.1159961,32.104 39.9,32.104 C40.5160031,32.104 41.0153314,32.4446633 41.398,33.126 C41.7153349,33.7046696 41.874,34.3346633 41.874,35.016 C41.874,35.2026676 41.8600001,35.3659993 41.832,35.506 C41.7666663,35.8233349 41.500669,35.982 41.034,35.982 C40.6699982,35.982 40.390001,35.8793344 40.194,35.674 C40.1006662,35.5713328 40.054,35.3333352 40.054,34.96 C40.054,34.8666662 40.0586666,34.7313342 40.068,34.554 L40.068,34.148 C40.068,33.7279979 39.9933341,33.518 39.844,33.518 C39.6853325,33.518 39.5173342,33.9776621 39.34,34.897 C39.1626658,35.8163379 39.074,36.6773293 39.074,37.48 C39.074,38.413338 39.2139986,38.88 39.494,38.88 C39.8580018,38.88 40.1286658,38.5860029 40.306,37.998 C40.380667,37.9139996 40.4226666,37.7460013 40.432,37.494 C40.432,37.2699989 40.4879994,37.1230004 40.6,37.053 C40.7120006,36.9829996 40.8753323,36.948 41.09,36.948 C41.3700014,36.948 41.6126656,37.0086661 41.818,37.13 C42.0606679,37.2700007 42.1773334,37.4519989 42.168,37.676 Z"/>
  </g>
</svg>
