<svg xmlns="http://www.w3.org/2000/svg" width="64" height="64" viewBox="0 0 64 64">
  <g fill="none" fill-rule="evenodd">
    <rect width="3" height="30" x="31" y="22" fill="#22BA8E"/>
    <path fill="#D650C7" d="M35.4533013,24.0316537 C33.8348514,22.5359811 31.2057958,22.5406293 29.5923756,24.0316537 L28.9450453,24.629877 C27.3265953,26.1255496 26.1450106,25.5494579 26.3047895,23.3583968 L26.3688953,22.4793074 C26.5291723,20.2814157 24.8863487,18.2288353 22.7146679,17.8970512 L21.8433543,17.763934 C19.6649033,17.4311155 19.3786039,16.1481282 21.1912649,14.906944 L21.918534,14.4089607 C23.736846,13.1639072 24.3173342,10.5997331 23.2227127,8.69498066 L22.7835327,7.930763 C21.6854987,6.0200725 22.5100739,4.99630508 24.6106464,5.63963489 L25.4534303,5.89774927 C27.5605513,6.54308465 29.9272318,5.39819222 30.7339419,3.35478891 L31.0576071,2.53494227 C31.866832,0.485168668 33.1813599,0.491538963 33.9880699,2.53494227 L34.3117351,3.35478891 C35.1209601,5.40456252 37.4916742,6.54107907 39.5922467,5.89774927 L40.4350306,5.63963489 C42.5421516,4.99429951 43.3567658,6.02601056 42.2621443,7.930763 L41.8229643,8.69498066 C40.7249303,10.6056712 41.3144819,13.1677765 43.127143,14.4089607 L43.8544121,14.906944 C45.6727241,16.1519975 45.3740035,17.4321499 43.2023227,17.763934 L42.3310091,17.8970512 C40.1525581,18.2298697 38.5170028,20.2882463 38.6767817,22.4793074 L38.7408875,23.3583968 C38.9011645,25.5562886 37.7140519,26.1209014 36.1006317,24.629877 L35.4533013,24.0316537 Z"/>
    <path stroke="#22BA8E" stroke-linecap="round" stroke-width="2" d="M28.2267389,45.9994721 C28.2267389,45.9994721 25.2909669,35.1185187 17,32"/>
    <path stroke="#22BA8E" stroke-linecap="round" stroke-width="2" d="M47.7495774,45.9994721 C47.7495774,45.9994721 44.8138054,35.1185187 36.5228385,32" transform="matrix(-1 0 0 1 84.272 0)"/>
    <circle cx="32.523" cy="13.823" r="3" fill="#FCC24C"/>
    <path fill="#ED9111" d="M15.4598262,36.3836752 C13.8377799,34.884679 11.2028235,34.8893919 9.58587695,36.3836752 L10.281817,35.7405299 C8.65977073,37.239526 7.47556628,36.6620745 7.63569433,34.4662243 L7.5667746,35.4113268 C7.72740768,33.2085511 6.08085459,31.1513976 3.90442715,30.8188883 L4.84116996,30.9620016 C2.65787823,30.6284436 2.37100864,29.3425601 4.18763162,28.0986631 L3.40575005,28.6340412 C5.22810252,27.386221 5.80984078,24.8162798 4.71282672,22.9073641 L5.18498582,23.7289688 C4.08451187,21.8140326 4.91099579,20.7880137 7.01615955,21.4327496 L6.11008891,21.1552528 C8.22189218,21.8020221 10.593861,20.6545113 11.4023343,18.6066417 L11.0543643,19.4880527 C11.8653874,17.4337243 13.1828656,17.4401831 13.9913389,19.4880527 L13.6433688,18.6066417 C14.454392,20.6609701 16.8304505,21.7999887 18.9356142,21.1552528 L18.0295436,21.4327496 C20.1413469,20.7859802 20.9577314,21.8200532 19.8607173,23.7289688 L20.3328764,22.9073641 C19.2324025,24.8223004 19.8233301,27.3901442 21.6399531,28.6340412 L20.8580715,28.0986631 C22.680424,29.3464833 22.3809606,30.6294923 20.2045332,30.9620016 L21.141276,30.8188883 C18.9579843,31.1524463 17.3188005,33.2154766 17.4789285,35.4113268 L17.4100088,34.4662243 C17.5706419,36.669 16.3808327,37.2348132 14.7638861,35.7405299 L15.4598262,36.3836752 Z"/>
    <path fill="#BD7575" d="M16,48 L49,48 L49,60.9905224 C49,62.652611 47.6654891,64 45.9986425,64 L19.0013575,64 C17.3437535,64 16,62.6633689 16,60.9905224 L16,48 Z"/>
    <rect width="37" height="3" x="14" y="45" fill="#9C4D4D"/>
    <circle cx="12.523" cy="27.823" r="3" fill="#FCC24C"/>
    <path fill="#E43535" d="M55.4598262,36.3836752 C53.8377799,34.884679 51.2028235,34.8893919 49.585877,36.3836752 L50.281817,35.7405299 C48.6597707,37.239526 47.4755663,36.6620745 47.6356943,34.4662243 L47.5667746,35.4113268 C47.7274077,33.2085511 46.0808546,31.1513976 43.9044272,30.8188883 L44.84117,30.9620016 C42.6578782,30.6284436 42.3710086,29.3425601 44.1876316,28.0986631 L43.4057501,28.6340412 C45.2281025,27.386221 45.8098408,24.8162798 44.7128267,22.9073641 L45.1849858,23.7289688 C44.0845119,21.8140326 44.9109958,20.7880137 47.0161595,21.4327496 L46.1100889,21.1552528 C48.2218922,21.8020221 50.593861,20.6545113 51.4023343,18.6066417 L51.0543643,19.4880527 C51.8653874,17.4337243 53.1828656,17.4401831 53.9913389,19.4880527 L53.6433688,18.6066417 C54.454392,20.6609701 56.8304505,21.7999887 58.9356142,21.1552528 L58.0295436,21.4327496 C60.1413469,20.7859802 60.9577314,21.8200532 59.8607173,23.7289688 L60.3328764,22.9073641 C59.2324025,24.8223004 59.8233301,27.3901442 61.6399531,28.6340412 L60.8580715,28.0986631 C62.680424,29.3464833 62.3809606,30.6294923 60.2045332,30.9620016 L61.141276,30.8188883 C58.9579843,31.1524463 57.3188005,33.2154766 57.4789285,35.4113268 L57.4100088,34.4662243 C57.5706419,36.669 56.3808327,37.2348132 54.7638861,35.7405299 L55.4598262,36.3836752 Z"/>
    <circle cx="52.523" cy="27.823" r="3" fill="#FCC24C"/>
  </g>
</svg>
