<svg xmlns="http://www.w3.org/2000/svg" width="64" height="64" viewBox="0 0 64 64">
  <g fill="none" fill-rule="evenodd">
    <rect width="4" height="26" x="31" y="35" fill="#80D25B"/>
    <path fill="#80D25B" d="M33.6388025,44.9101851 C35.0043161,41.6782434 38.203738,39.4101851 41.9328933,39.4101851 C45.6620486,39.4101851 48.8614705,41.6782434 50.226984,44.9101851 C48.8614705,48.1421268 45.6620486,50.4101851 41.9328933,50.4101851 C38.203738,50.4101851 35.0043161,48.1421268 33.6388025,44.9101851 Z" transform="rotate(-30 41.933 44.91)"/>
    <path fill="#80D25B" d="M15.6388025,49.9101851 C17.0043161,46.6782434 20.203738,44.4101851 23.9328933,44.4101851 C27.6620486,44.4101851 30.8614705,46.6782434 32.226984,49.9101851 C30.8614705,53.1421268 27.6620486,55.4101851 23.9328933,55.4101851 C20.203738,55.4101851 17.0043161,53.1421268 15.6388025,49.9101851 Z" transform="rotate(30 23.933 49.91)"/>
    <ellipse cx="33" cy="22" fill="#E43535" rx="23" ry="15"/>
    <ellipse cx="33.5" cy="22" fill="#D8D8D8" rx="16.5" ry="11"/>
    <ellipse cx="29" cy="22" fill="#325AA6" rx="2" ry="4"/>
    <ellipse cx="38" cy="22" fill="#325AA6" rx="2" ry="4"/>
  </g>
</svg>
