<svg xmlns="http://www.w3.org/2000/svg" width="64" height="64" viewBox="0 0 64 64">
  <g fill="none" fill-rule="evenodd">
    <path fill="#80D25B" d="M49.5044647,56.529591 C52.2658885,56.529591 54.5044647,54.1876959 54.5044647,51.2988218 C54.5044647,48.4099477 49.5044647,39.529591 49.5044647,39.529591 C49.5044647,39.529591 44.5044647,48.4099477 44.5044647,51.2988218 C44.5044647,54.1876959 46.743041,56.529591 49.5044647,56.529591 Z" transform="rotate(75 49.504 48.03)"/>
    <path fill="#80D25B" d="M19.5044647,56.529591 C22.2658885,56.529591 24.5044647,54.1876959 24.5044647,51.2988218 C24.5044647,48.4099477 19.5044647,39.529591 19.5044647,39.529591 C19.5044647,39.529591 14.5044647,48.4099477 14.5044647,51.2988218 C14.5044647,54.1876959 16.743041,56.529591 19.5044647,56.529591 Z" transform="scale(-1 1) rotate(75 0 22.61)"/>
    <path stroke="#22BA8E" stroke-linecap="square" stroke-width="2" d="M34,64 L34,17.9545689"/>
    <path stroke="#22BA8E" stroke-linecap="round" stroke-width="2" d="M46,49 C39.372583,49 34,54.372583 34,61"/>
    <path stroke="#22BA8E" stroke-linecap="round" stroke-width="2" d="M34,49 C27.372583,49 22,54.372583 22,61" transform="matrix(-1 0 0 1 56 0)"/>
    <path fill="#80D25B" d="M49.5044647,42.529591 C52.2658885,42.529591 54.5044647,40.1876959 54.5044647,37.2988218 C54.5044647,34.4099477 49.5044647,25.529591 49.5044647,25.529591 C49.5044647,25.529591 44.5044647,34.4099477 44.5044647,37.2988218 C44.5044647,40.1876959 46.743041,42.529591 49.5044647,42.529591 Z" transform="rotate(75 49.504 34.03)"/>
    <path fill="#80D25B" d="M19.5044647,42.529591 C22.2658885,42.529591 24.5044647,40.1876959 24.5044647,37.2988218 C24.5044647,34.4099477 19.5044647,25.529591 19.5044647,25.529591 C19.5044647,25.529591 14.5044647,34.4099477 14.5044647,37.2988218 C14.5044647,40.1876959 16.743041,42.529591 19.5044647,42.529591 Z" transform="scale(-1 1) rotate(75 0 8.61)"/>
    <path stroke="#22BA8E" stroke-linecap="round" stroke-width="2" d="M46,35 C39.372583,35 34,40.372583 34,47"/>
    <path stroke="#22BA8E" stroke-linecap="round" stroke-width="2" d="M34,35 C27.372583,35 22,40.372583 22,47" transform="matrix(-1 0 0 1 56 0)"/>
    <path fill="#D650C7" d="M36.9304628,24.2081549 C35.3120129,22.7124822 32.6829573,22.7171305 31.0695372,24.2081549 L30.4222068,24.8063781 C28.8037568,26.3020508 27.6221721,25.7259591 27.781951,23.5348979 L27.8460568,22.6558086 C28.0063338,20.4579168 26.3635102,18.4053365 24.1918294,18.0735524 L23.3205158,17.9404352 C21.1420648,17.6076167 20.8557654,16.3246293 22.6684264,15.0834451 L23.3956955,14.5854619 C25.2140075,13.3404083 25.7944957,10.7762343 24.6998742,8.87148181 L24.2606942,8.10726415 C23.1626602,6.19657366 23.9872354,5.17280624 26.0878079,5.81613604 L26.9305918,6.07425042 C29.0377128,6.7195858 31.4043933,5.57469337 32.2111034,3.53129007 L32.5347686,2.71144343 C33.3439935,0.661669822 34.6585214,0.668040116 35.4652314,2.71144343 L35.7888966,3.53129007 C36.5981216,5.58106367 38.9688357,6.71758023 41.0694082,6.07425042 L41.9121921,5.81613604 C44.0193131,5.17080066 44.8339273,6.20251171 43.7393058,8.10726415 L43.3001258,8.87148181 C42.2020918,10.7821723 42.7916434,13.3442777 44.6043045,14.5854619 L45.3315736,15.0834451 C47.1498856,16.3284987 46.851165,17.608651 44.6794842,17.9404352 L43.8081706,18.0735524 C41.6297196,18.4063708 39.9941644,20.4647474 40.1539432,22.6558086 L40.218049,23.5348979 C40.378326,25.7327897 39.1912134,26.2974025 37.5777932,24.8063781 L36.9304628,24.2081549 Z"/>
    <circle cx="34" cy="14" r="3" fill="#FCC24C"/>
  </g>
</svg>
