<svg xmlns="http://www.w3.org/2000/svg" width="64" height="64" viewBox="0 0 64 64">
  <g fill="none" fill-rule="evenodd">
    <path stroke="#22BA8E" stroke-linecap="round" stroke-width="2" d="M29.0043997 39.7018972C29.0043997 39.7018972 26.2842449 34.7238361 29.1856567 29.8312 32.0870684 24.9385638 30.3104903 15.3323803 30.3104903 15.3323803M28.8738037 38.6818099C28.8738037 38.6818099 26.7743723 33.9505332 19.7822461 31.4591814M28.2440739 40.0472208C28.2440739 40.0472208 35.5002482 33.2882541 40.0986705 30.6305021"/>
    <polygon fill="#BD7575" points="14 43 45 43 42 64 17 64"/>
    <rect width="33" height="4" x="13" y="39" fill="#9C4D4D"/>
    <path fill="#80D25B" d="M51,27.1669981 C51,27.1669981 43.4138463,37.4937567 37.704833,33.8959874 C31.9958196,30.298218 41.6945437,26.1072312 51,27.1669981 Z"/>
    <path fill="#80D25B" d="M22,26.1669981 C22,26.1669981 14.4138463,36.4937567 8.70483299,32.8959874 C2.99581964,29.298218 12.6945437,25.1072312 22,26.1669981 Z" transform="matrix(-1 0 0 1 29 0)"/>
    <path fill="#E43535" d="M33.4660794,19.4339477 C31.8440331,17.9349515 29.2090767,17.9396644 27.5921301,19.4339477 L28.2880702,18.7908024 C26.6660239,20.2897985 25.4818194,19.712347 25.6419475,17.5164968 L25.5730278,18.4615992 C25.7336608,16.2588236 24.0871078,14.2016701 21.9106803,13.8691608 L22.8474231,14.0122741 C20.6641314,13.6787161 20.3772618,12.3928326 22.1938848,11.1489356 L21.4120032,11.6843137 C23.2343557,10.4364935 23.8160939,7.86655228 22.7190799,5.95763661 L23.191239,6.77924131 C22.090765,4.86430508 22.917249,3.83828616 25.0224127,4.48302209 L24.1163421,4.20552525 C26.2281453,4.85229463 28.6001142,3.70478377 29.4085875,1.65691419 L29.0606174,2.53832519 C29.8716406,0.483996797 31.1891188,0.490455616 31.997592,2.53832519 L31.649622,1.65691419 C32.4606452,3.71124259 34.8367036,4.85026118 36.9418674,4.20552525 L36.0357968,4.48302209 C38.1476,3.83625272 38.9639845,4.87032565 37.8669705,6.77924131 L38.3391296,5.95763661 C37.2386556,7.87257284 37.8295833,10.4404167 39.6462063,11.6843137 L38.8643247,11.1489356 C40.6866772,12.3967558 40.3872138,13.6797648 38.2107864,14.0122741 L39.1475292,13.8691608 C36.9642374,14.2027188 35.3250537,16.2657491 35.4851817,18.4615992 L35.416262,17.5164968 C35.5768951,19.7192725 34.3870859,20.2850857 32.7701393,18.7908024 L33.4660794,19.4339477 Z"/>
    <circle cx="30.529" cy="10.874" r="3" fill="#FCC24C"/>
  </g>
</svg>
