<svg xmlns="http://www.w3.org/2000/svg" width="64" height="64" viewBox="0 0 64 64">
  <g fill="none" fill-rule="evenodd">
    <path fill="#80D25B" d="M50.4106735,19.0524811 C50.4106735,19.0524811 42.8245199,29.3792397 37.1155065,25.7814704 C31.4064932,22.183701 41.1052172,17.9927142 50.4106735,19.0524811 Z" transform="rotate(-7 42.91 22.714)"/>
    <path fill="#80D25B" d="M18.909443,28.4040757 C18.909443,28.4040757 11.3232893,38.7308343 5.61427599,35.133065 C-0.0947373575,31.5352956 9.60398667,27.3443088 18.909443,28.4040757 Z" transform="rotate(-150 11.41 32.066)"/>
    <polygon fill="#FF78C7" points="18 43 49 43 46 64 21 64"/>
    <path stroke="#22BA8E" stroke-linecap="round" stroke-width="2" d="M33.1572981 38.9240083C33.1572981 38.9240083 33.6297763 29.1629143 39.0199279 24.197122M32.8743918 38.9484826C32.8743918 38.9484826 28.7631257 27.5442925 23.6347247 23.406478M32.8528213 39.1032099C32.8528213 39.1032099 26.312378 35.1927159 15.1147676 33.4214409"/>
    <rect width="33" height="4" x="17" y="39" fill="#D650C7"/>
    <path fill="#E43535" d="M21.4660794,27.4339477 C19.8440331,25.9349515 17.2090767,25.9396644 15.5921301,27.4339477 L16.2880702,26.7908024 C14.6660239,28.2897985 13.4818194,27.712347 13.6419475,25.5164968 L13.5730278,26.4615992 C13.7336608,24.2588236 12.0871078,22.2016701 9.91068031,21.8691608 L10.8474231,22.0122741 C8.6641314,21.6787161 8.3772618,20.3928326 10.1938848,19.1489356 L9.41200321,19.6843137 C11.2343557,18.4364935 11.8160939,15.8665523 10.7190799,13.9576366 L11.191239,14.7792413 C10.090765,12.8643051 10.917249,11.8382862 13.0224127,12.4830221 L12.1163421,12.2055252 C14.2281453,12.8522946 16.6001142,11.7047838 17.4085875,9.65691419 L17.0606174,10.5383252 C17.8716406,8.4839968 19.1891188,8.49045562 19.997592,10.5383252 L19.649622,9.65691419 C20.4606452,11.7112426 22.8367036,12.8502612 24.9418674,12.2055252 L24.0357968,12.4830221 C26.1476,11.8362527 26.9639845,12.8703256 25.8669705,14.7792413 L26.3391296,13.9576366 C25.2386556,15.8725728 25.8295833,18.4404167 27.6462063,19.6843137 L26.8643247,19.1489356 C28.6866772,20.3967558 28.3872138,21.6797648 26.2107864,22.0122741 L27.1475292,21.8691608 C24.9642374,22.2027188 23.3250537,24.2657491 23.4851817,26.4615992 L23.416262,25.5164968 C23.5768951,27.7192725 22.3870859,28.2850857 20.7701393,26.7908024 L21.4660794,27.4339477 Z"/>
    <circle cx="18.529" cy="18.874" r="3" fill="#FCC24C"/>
  </g>
</svg>
