<svg xmlns="http://www.w3.org/2000/svg" width="64" height="64" viewBox="0 0 64 64">
  <g fill="none" fill-rule="evenodd">
    <path fill="#80D25B" d="M57.4106735,19.0524811 C57.4106735,19.0524811 49.8245199,29.3792397 44.1155065,25.7814704 C38.4064932,22.183701 48.1052172,17.9927142 57.4106735,19.0524811 Z" transform="rotate(-7 49.91 22.714)"/>
    <path stroke="#BD7575" stroke-linecap="round" stroke-width="2" d="M30.135317,35.2817592 C30.135317,35.2817592 30.0559,30.8210635 29.5695742,29.0741293 C29.0832483,27.3271952 24.6221974,15.4780474 24.6221974,15.4780474"/>
    <polygon fill="#80D25B" points="22 35 38 35 36 65 24 65"/>
    <path stroke="#BD7575" stroke-linecap="round" stroke-width="2" d="M30.205507,31.9029828 C30.205507,31.9029828 42.0559884,30.3681897 45.1684629,25.4768666"/>
    <rect width="18" height="5" x="21" y="35" fill="#22BA8E"/>
    <path fill="#E43535" d="M23.4660794,20.4339477 C21.8440331,18.9349515 19.2090767,18.9396644 17.5921301,20.4339477 L18.2880702,19.7908024 C16.6660239,21.2897985 15.4818194,20.712347 15.6419475,18.5164968 L15.5730278,19.4615992 C15.7336608,17.2588236 14.0871078,15.2016701 11.9106803,14.8691608 L12.8474231,15.0122741 C10.6641314,14.6787161 10.3772618,13.3928326 12.1938848,12.1489356 L11.4120032,12.6843137 C13.2343557,11.4364935 13.8160939,8.86655228 12.7190799,6.95763661 L13.191239,7.77924131 C12.090765,5.86430508 12.917249,4.83828616 15.0224127,5.48302209 L14.1163421,5.20552525 C16.2281453,5.85229463 18.6001142,4.70478377 19.4085875,2.65691419 L19.0606174,3.53832519 C19.8716406,1.4839968 21.1891188,1.49045562 21.997592,3.53832519 L21.649622,2.65691419 C22.4606452,4.71124259 24.8367036,5.85026118 26.9418674,5.20552525 L26.0357968,5.48302209 C28.1476,4.83625272 28.9639845,5.87032565 27.8669705,7.77924131 L28.3391296,6.95763661 C27.2386556,8.87257284 27.8295833,11.4404167 29.6462063,12.6843137 L28.8643247,12.1489356 C30.6866772,13.3967558 30.3872138,14.6797648 28.2107864,15.0122741 L29.1475292,14.8691608 C26.9642374,15.2027188 25.3250537,17.2657491 25.4851817,19.4615992 L25.416262,18.5164968 C25.5768951,20.7192725 24.3870859,21.2850857 22.7701393,19.7908024 L23.4660794,20.4339477 Z"/>
    <circle cx="20.529" cy="11.874" r="3" fill="#FCC24C"/>
  </g>
</svg>
