<svg xmlns="http://www.w3.org/2000/svg" xmlns:xlink="http://www.w3.org/1999/xlink" width="64" height="64" viewBox="0 0 64 64">
  <defs>
    <ellipse id="fly-a" cx="7" cy="21" rx="7" ry="21"/>
  </defs>
  <g fill="none" fill-rule="evenodd">
    <g transform="translate(25 14)">
      <mask id="fly-b" fill="#fff">
        <use xlink:href="#fly-a"/>
      </mask>
      <use fill="#22BA8E" xlink:href="#fly-a"/>
      <rect width="20" height="4" x="-2" y="31" fill="#FFAF40" mask="url(#fly-b)"/>
      <rect width="20" height="4" x="-2" y="21" fill="#FFAF40" mask="url(#fly-b)"/>
      <rect width="20" height="4" x="-2" y="11" fill="#FFAF40" mask="url(#fly-b)"/>
    </g>
    <path fill="#B4DFFB" stroke="#5EA7FF" stroke-linecap="round" stroke-width="2" d="M36 30C36 28.3431458 37.2302939 26.4532027 38.7374895 25.783338L55.9589494 18.1293558C59.8476143 16.4010603 63 18.4520632 63 22.695378L63 23.304622C63 27.5546619 59.5530067 31.2553328 55.3170667 31.5691062L38.9926339 32.7783234C37.3398479 32.900752 36 31.6534829 36 30L36 30zM37.2388281 37.3391536C35.4500727 36.0472748 35.7780371 35.1720681 37.9892446 35.3860559L59.6356028 37.4808648C62.5982776 37.7675752 63.0957661 39.4647953 60.7433138 41.274374L56.2566862 44.725626C53.9057833 46.5340128 50.0394192 46.584025 47.6427021 44.8530626L37.2388281 37.3391536z"/>
    <path fill="#B4DFFB" stroke="#5EA7FF" stroke-linecap="round" stroke-width="2" d="M2,30 C2,28.3431458 3.23029387,26.4532027 4.73748948,25.783338 L21.9589494,18.1293558 C25.8476143,16.4010603 29,18.4520632 29,22.695378 L29,23.304622 C29,27.5546619 25.5530067,31.2553328 21.3170667,31.5691062 L4.99263394,32.7783234 C3.33984785,32.900752 2,31.6534829 2,30 L2,30 Z" transform="matrix(-1 0 0 1 31 0)"/>
    <path fill="#B4DFFB" stroke="#5EA7FF" stroke-linecap="round" stroke-width="2" d="M3.2388281,37.3391536 C1.45007273,36.0472748 1.7780371,35.1720681 3.98924462,35.3860559 L25.6356028,37.4808648 C28.5982776,37.7675752 29.0957661,39.4647953 26.7433138,41.274374 L22.2566862,44.725626 C19.9057833,46.5340128 16.0394192,46.584025 13.6427021,44.8530626 L3.2388281,37.3391536 Z" transform="matrix(-1 0 0 1 30.315 0)"/>
    <path stroke="#979797" stroke-linecap="round" d="M30.8119869 8.62001121C30.8119869 8.62001121 31.2893032 4.45769707 26.9917979 2.34108341M33.1624897 9.18897554C33.1624897 9.18897554 33.0629624 6.01364035 36.0491958 3.63079119"/>
    <circle cx="32" cy="14" r="6" fill="#FFAF40"/>
    <path fill="#22BA8E" d="M27,14 C28.6568542,14 29,12.6568542 29,11 C29,9.34314575 28.6568542,8 27,8 C25.3431458,8 25,9.34314575 25,11 C25,12.6568542 25.3431458,14 27,14 Z" transform="rotate(-61 27 11)"/>
    <path fill="#22BA8E" d="M37,14 C38.6568542,14 39,12.6568542 39,11 C39,9.34314575 38.6568542,8 37,8 C35.3431458,8 35,9.34314575 35,11 C35,12.6568542 35.3431458,14 37,14 Z" transform="scale(-1 1) rotate(-61 0 73.814)"/>
  </g>
</svg>
