<?xml version="1.0" encoding="UTF-8"?>
<svg width="64px" height="64px" viewBox="0 0 64 64" version="1.1" xmlns="http://www.w3.org/2000/svg" xmlns:xlink="http://www.w3.org/1999/xlink">
    <!-- Generator: Sketch 43.2 (39069) - http://www.bohemiancoding.com/sketch -->
    <title>flyer</title>
    <desc>Created with Sketch.</desc>
    <defs></defs>
    <g id="Outdoor-Activities-(142)" stroke="none" stroke-width="1" fill="none" fill-rule="evenodd">
        <path d="M15.1244417,17.4977669 C14.4167505,16.5130551 14,15.3051962 14,14 C14,13.7313427 14.0176572,13.4668095 14.0518744,13.2074976 L14,13 L14.0829584,13 C14.5590365,10.1622867 17.0270037,8 20,8 C22.9729963,8 25.4409635,10.1622867 25.9170416,13 L26,13 C26,9.6862915 28.6862915,7 32,7 C35.3137085,7 38,9.6862915 38,13 L38.0829584,13 C38.5590365,10.1622867 41.0270037,8 44,8 C46.9729963,8 49.4409635,10.1622867 49.9170416,13 L50,13 L49.9481256,13.2074976 C49.9823428,13.4668095 50,13.7313427 50,14 C50,15.3051962 49.5832495,16.5130551 48.8755583,17.4977669 L41,49 L23,49 L15.1244417,17.4977669 Z" id="Combined-Shape" fill="#ECECEC"></path>
        <path d="M23,51 C23,55.9705627 27.0294373,60 32,60 C36.9705627,60 41,55.9705627 41,51 L23,51 Z" id="Oval-58" fill="#E43535"></path>
        <path d="M25.8730675,12.9908754 L27.4700726,48.3048963" id="Path-28" stroke="#D8D8D8" stroke-width="2" stroke-linecap="round"></path>
        <path d="M38.0746298,12.8193452 L36.0778806,48.3909078" id="Path-29" stroke="#D8D8D8" stroke-width="2" stroke-linecap="round"></path>
        <rect id="Rectangle-128" fill="#5EA7FF" x="23" y="48" width="18" height="3"></rect>
    </g>
</svg>