<svg xmlns="http://www.w3.org/2000/svg" width="64" height="64" viewBox="0 0 64 64">
  <g fill="none" fill-rule="evenodd">
    <rect width="4" height="23" x="30" y="2" fill="#22BA8E"/>
    <polyline fill="#4796E7" points="32 31 41 21 23 21"/>
    <rect width="4" height="23" x="30" y="39" fill="#22BA8E" transform="matrix(1 0 0 -1 0 101)"/>
    <polygon fill="#4796E7" points="32 33 41 43 23 43"/>
    <rect width="4" height="23" x="51" y="20" fill="#22BA8E" transform="matrix(0 -1 -1 0 84.5 84.5)"/>
    <polyline fill="#4796E7" points="35 32 45 23 45 41"/>
    <rect width="4" height="23" x="10" y="20" fill="#22BA8E" transform="rotate(-90 12 31.5)"/>
    <polygon fill="#4796E7" points="24 27 33 37 15 37" transform="matrix(0 -1 -1 0 56 56)"/>
  </g>
</svg>
