<svg xmlns="http://www.w3.org/2000/svg" width="64" height="64" viewBox="0 0 64 64">
  <g fill="none" fill-rule="evenodd">
    <path fill="#22BA8E" d="M29,13 L29,9 L7.99109042,9 C6.33915679,9 5,10.3529255 5,11.9925398 L5,27 L25,27 L25,31 L59,31 L59,15.9925398 C59,14.3398057 57.6526814,13 55.9999809,13 L29,13 Z"/>
    <rect width="54" height="37" x="5" y="20" fill="#80D25B" rx="5"/>
    <path fill="#595959" d="M18,34 L18,31.0058587 C18,29.8970601 17.1045695,29 16,29 C14.8877296,29 14,29.8980535 14,31.0058587 L14,34 L11.0058587,34 C9.89706013,34 9,34.8954305 9,36 C9,37.1122704 9.89805351,38 11.0058587,38 L14,38 L14,40.9941413 C14,42.1029399 14.8954305,43 16,43 C17.1122704,43 18,42.1019465 18,40.9941413 L18,38 L20.9941413,38 C22.1029399,38 23,37.1045695 23,36 C23,34.8877296 22.1019465,34 20.9941413,34 L18,34 Z"/>
    <circle cx="46" cy="31" r="3" fill="#E43535"/>
    <circle cx="46" cy="41" r="3" fill="#979797"/>
    <circle cx="40" cy="36" r="3" fill="#FFDD95"/>
    <circle cx="52" cy="36" r="3" fill="#D650C7"/>
  </g>
</svg>
