<svg xmlns="http://www.w3.org/2000/svg" width="64" height="64" viewBox="0 0 64 64">
  <g fill="none" fill-rule="evenodd">
    <path fill="#9F5757" d="M31,14 L59.0040626,14 C60.6586731,14 62,15.3424683 62,16.995507 L62,50.004493 C62,51.6588658 60.6626903,53 59.0040626,53 L4.99593743,53 C3.34132688,53 2,51.6575317 2,50.004493 L2,16 L2,13.0016655 C2,11.3438914 3.34312337,10 5.00793008,10 L24.9920699,10 C26.6533038,10 28.8091867,11.0789156 29.8001978,12.4002638 L31,14 Z"/>
    <path stroke="#FFAF40" stroke-linecap="square" stroke-width="2" d="M32,37 L32,23"/>
    <path stroke="#FFAF40" stroke-linecap="round" stroke-width="2" d="M12,38 L12,32.9999433 L12,32.9999433 C12,30.7908356 13.7964248,29 16.0000255,29 L47.9999745,29 C50.2091276,29 52,30.7996535 52,32.9999433 L52,38"/>
    <rect width="10" height="9" x="7" y="38" fill="#FF78C7"/>
    <rect width="10" height="9" x="47" y="38" fill="#FF78C7"/>
    <rect width="10" height="9" x="27" y="38" fill="#FF78C7"/>
  </g>
</svg>
