<svg xmlns="http://www.w3.org/2000/svg" width="64" height="64" viewBox="0 0 64 64">
  <g fill="none" fill-rule="evenodd">
    <polygon fill="#5B68C0" points="13 2 42.105 2 54 13.753 54 61 13 61"/>
    <rect width="33" height="18" x="13" y="25" fill="#D650C7"/>
    <polygon fill="#0A3586" points="42 2 54 2 54 14" transform="rotate(-180 48 8)"/>
    <path fill="#FFF" d="M23.46,32.364 C23.3759996,32.6066679 23.205668,32.7419999 22.949,32.77 C22.6923321,32.7980001 22.4426679,32.8213332 22.2,32.84 L21.192,33.12 L21.178,37.67 C21.178,37.9126679 21.2666658,38.1413323 21.444,38.356 C21.6213342,38.5706677 21.71,38.7339994 21.71,38.846 C21.71,38.9113337 21.6960001,38.9766663 21.668,39.042 C21.5373327,39.3686683 21.2620021,39.532 20.842,39.532 C20.571332,39.532 20.3216678,39.464334 20.093,39.329 C19.8643322,39.193666 19.7266669,39.028001 19.68,38.832 C19.6239997,38.5893321 19.596,38.2813352 19.596,37.908 L19.596,33.54 C19.4093324,33.6240004 19.2133344,33.6520001 19.008,33.624 C18.3639968,33.5399996 18.042,33.2786689 18.042,32.84 C18.042,32.7093327 18.0839996,32.5693341 18.168,32.42 C18.2240003,32.3266662 18.3919986,32.2566669 18.672,32.21 C19.1013355,32.135333 19.3813327,32.0746669 19.512,32.028 C19.5306668,30.627993 19.6519989,29.6246697 19.876,29.018 C20.1840015,28.1686624 20.7906621,27.6040014 21.696,27.324 C21.7613337,27.3053332 21.8359996,27.296 21.92,27.296 C22.1813346,27.296 22.4543319,27.3799992 22.739,27.548 C23.0236681,27.7160008 23.1520001,27.8653327 23.124,27.996 C23.0866665,28.192001 22.9186682,28.3366662 22.62,28.43 C22.2653316,28.5513339 22.0320006,28.6773327 21.92,28.808 C21.5839983,29.2186687 21.3646672,29.6479978 21.262,30.096 C21.1779996,30.4413351 21.1453332,30.9359968 21.164,31.58 C21.2293337,31.5613332 21.457998,31.4913339 21.85,31.37 C22.1020013,31.295333 22.3306656,31.2626666 22.536,31.272 C22.7693345,31.2813334 22.9863323,31.3793324 23.187,31.566 C23.3876677,31.7526676 23.488,31.9533323 23.488,32.168 C23.488,32.2333337 23.4786668,32.2986663 23.46,32.364 Z M28.374,31.776 C28.9993365,32.4106698 29.312,33.4793258 29.312,34.982 C29.312,36.1486725 29.0926689,37.1426626 28.654,37.964 C28.1593309,38.8880046 27.4780043,39.35 26.61,39.35 C25.751329,39.35 25.088669,38.9346708 24.622,38.104 C24.2113313,37.3759964 24.006,36.4520056 24.006,35.332 C24.006,34.3426617 24.1646651,33.4560039 24.482,32.672 C24.8180017,31.8319958 25.2473307,31.3373341 25.77,31.188 C26.040668,31.113333 26.3206652,31.076 26.61,31.076 C27.3286703,31.076 27.9166644,31.309331 28.374,31.776 Z M26.778,32.448 C26.4699985,32.4199999 26.2040011,32.7093303 25.98,33.316 C25.783999,33.8666694 25.686,34.4453303 25.686,35.052 C25.686,35.9293377 25.723333,36.5499982 25.798,36.914 C25.9286673,37.5673366 26.1993313,37.9266663 26.61,37.992 C26.8713346,38.0293335 27.1139989,37.6700038 27.338,36.914 C27.5526677,36.1859964 27.66,35.4066708 27.66,34.576 C27.66,33.2133265 27.3660029,32.5040003 26.778,32.448 Z M36.816,38.104 C36.7973332,38.3093344 36.6620013,38.4843326 36.41,38.629 C36.1579987,38.7736674 35.8780015,38.846 35.57,38.846 C35.1126644,38.846 34.8000008,38.7013348 34.632,38.412 C34.706667,35.537319 34.6226679,34.0813335 34.38,34.044 C34.1466655,34.0066665 33.5773379,35.2946536 32.672,37.908 L32.672,38.748 C32.6626666,39.0840017 32.5716675,39.3219993 32.399,39.462 C32.2263325,39.6020007 32.042001,39.672 31.846,39.672 C31.5099983,39.672 31.1506686,39.4900018 30.768,39.126 C30.6559994,39.0326662 30.5953334,38.32334 30.586,36.998 C30.5953334,37.8100041 30.6,36.3026858 30.6,32.476 C30.6,32.3919996 30.5906668,32.2776674 30.572,32.133 C30.5533332,31.9883326 30.544,31.8833337 30.544,31.818 C30.544,31.6406658 30.5906662,31.4866673 30.684,31.356 C30.7960006,31.1879992 30.9733321,31.104 31.216,31.104 C31.4680013,31.104 31.7316653,31.1809992 32.007,31.335 C32.2823347,31.4890008 32.4479997,31.6359993 32.504,31.776 C32.5413335,31.8693338 32.56,31.9626662 32.56,32.056 C32.56,32.1493338 32.522667,32.2799992 32.448,32.448 C32.373333,32.6160008 32.336,32.7559994 32.336,32.868 L32.336,34.8 C32.9240029,33.5493271 33.3673318,32.7233353 33.666,32.322 C34.1980027,31.6313299 34.7999966,31.3093331 35.472,31.356 C35.8733353,31.3840001 36.1579992,31.7573297 36.326,32.476 C36.4566673,33.017336 36.5266666,33.8199947 36.536,34.884 L36.536,37.404 C36.5546668,37.4693337 36.6199994,37.5859992 36.732,37.754 C36.7973337,37.8473338 36.8253334,37.9639993 36.816,38.104 Z M42.584,32.644 C42.509333,32.644 42.3926675,32.613667 42.234,32.553 C42.0753325,32.492333 41.9540004,32.462 41.87,32.462 C41.8046663,32.462 41.7393337,32.4759999 41.674,32.504 L41.156,32.77 L41.156,37.558 C41.156,37.7353342 41.2516657,37.9639986 41.443,38.244 C41.6343343,38.5240014 41.7113335,38.7479992 41.674,38.916 C41.6273331,39.1213344 41.4896678,39.2846661 41.261,39.406 C41.0323322,39.5273339 40.7873346,39.588 40.526,39.588 C40.0313309,39.588 39.6906676,39.3686689 39.504,38.93 C39.4479997,38.7993327 39.4153334,38.3840035 39.406,37.684 C39.3966666,37.217331 39.4013332,36.4893383 39.42,35.5 C39.4386668,34.3799944 39.448,33.6706682 39.448,33.372 C39.3919997,33.3906668 39.2986673,33.4536661 39.168,33.561 C39.0373327,33.6683339 38.9066673,33.722 38.776,33.722 C38.6733328,33.722 38.5426675,33.6940003 38.384,33.638 C37.7306634,33.4139989 37.404,33.1853345 37.404,32.952 C37.404,32.8959997 37.4179999,32.8353337 37.446,32.77 C37.5113337,32.6206659 37.6326658,32.5366668 37.81,32.518 C38.080668,32.4806665 38.2439997,32.4480001 38.3,32.42 C38.5146677,32.3359996 38.9066638,32.1353349 39.476,31.818 L39.476,30.6 C39.476,30.5066662 39.4503336,30.3830008 39.399,30.229 C39.3476664,30.0749992 39.322,29.960667 39.322,29.886 C39.322,29.8019996 39.3453331,29.722667 39.392,29.648 C39.6346679,29.2746648 39.9613313,29.088 40.372,29.088 C40.8480024,29.088 41.183999,29.2746648 41.38,29.648 C41.454667,29.7973341 41.492,29.9186662 41.492,30.012 C41.492,30.1240006 41.4360006,30.2406661 41.324,30.362 C41.2119994,30.4833339 41.156,30.5953328 41.156,30.698 L41.156,31.384 C41.3240008,31.309333 41.5106656,31.1833342 41.716,31.006 C41.8746675,30.8753327 42.0099994,30.81 42.122,30.81 C42.1686669,30.81 42.2199997,30.8193332 42.276,30.838 C42.8640029,30.9966675 43.158,31.3513306 43.158,31.902 C43.158,32.0793342 43.1043339,32.2473325 42.997,32.406 C42.8896661,32.5646675 42.7520008,32.644 42.584,32.644 Z"/>
  </g>
</svg>
