<?xml version="1.0" encoding="UTF-8"?>
<svg width="64px" height="64px" viewBox="0 0 64 64" version="1.1" xmlns="http://www.w3.org/2000/svg" xmlns:xlink="http://www.w3.org/1999/xlink">
    <!-- Generator: Sketch 43.2 (39069) - http://www.bohemiancoding.com/sketch -->
    <title>footballfield</title>
    <desc>Created with Sketch.</desc>
    <defs></defs>
    <g id="Outdoor-Activities-(142)" stroke="none" stroke-width="1" fill="none" fill-rule="evenodd">
        <rect id="Rectangle-56-Copy-2" fill="#22BA8E" x="0" y="17" width="64" height="36"></rect>
        <path d="M0,22 L14.0079737,22 C16.7649937,22 19,24.2392484 19,26.9976716 L19,43.0023284 C19,45.7624662 16.7645872,48 14.0079737,48 L0,48 L0,22 Z" id="Rectangle-194" fill="#80D25B"></path>
        <path d="M0,31 L14.0052166,31 C16.2114745,31 18,32.7953562 18,35 L18,35 C18,37.209139 16.2082844,39 14.0052166,39 L0,39" id="Rectangle-195" stroke="#22BA8E" stroke-width="2"></path>
        <path d="M45,22 L59.0079737,22 C61.7649937,22 64,24.2392484 64,26.9976716 L64,43.0023284 C64,45.7624662 61.7645872,48 59.0079737,48 L45,48 L45,22 Z" id="Rectangle-194-Copy-2" fill="#80D25B" transform="translate(54.500000, 35.000000) scale(-1, 1) translate(-54.500000, -35.000000) "></path>
        <circle id="Oval-94" stroke="#80D25B" stroke-width="2" stroke-linecap="round" cx="32" cy="35" r="4"></circle>
        <circle id="Oval-94-Copy" stroke="#80D25B" stroke-width="2" stroke-linecap="round" cx="32" cy="35" r="8"></circle>
        <path d="M45,31 L59.0052166,31 C61.2114745,31 63,32.7953562 63,35 L63,35 C63,37.209139 61.2082844,39 59.0052166,39 L45,39" id="Rectangle-195-Copy" stroke="#22BA8E" stroke-width="2" transform="translate(54.000000, 35.000000) scale(-1, 1) translate(-54.000000, -35.000000) "></path>
        <path d="M32,18 L32,52.0147027" id="Line" stroke="#80D25B" stroke-width="2" stroke-linecap="square"></path>
    </g>
</svg>