<svg xmlns="http://www.w3.org/2000/svg" width="64" height="64" viewBox="0 0 64 64">
  <g fill="none" fill-rule="evenodd">
    <path fill="#BD7575" d="M13,50 C13,56.0751322 17.9248678,61 24,61 C28.4372033,61 29.9990947,58.031523 34,58.031523 C38.0009053,58.031523 39.5627967,61 44,61 C50.0751322,61 55,56.0751322 55,50 C55,44.9610491 51.6118444,40.7134444 46.9894279,39.4110805 C46.9964458,39.2746733 47,39.1376318 47,39 C47,32.9248678 42.0573191,28 34,28 C25.9426809,28 21,32.9248678 21,39 C21,39.1376318 21.0035542,39.2746733 21.0105721,39.4110805 C16.3881556,40.7134444 13,44.9610491 13,50 Z"/>
    <path fill="#BD7575" d="M24.5091115,24.0833401 C31.450492,23.7666281 32.0091115,20.0539029 32.0091115,15.0833401 C32.0091115,10.1127774 28.7199746,5.11848223 24.577839,5.11848223 C22.0033215,5.11848223 20.7731039,6.50589048 19.4023951,9.1597554 C18.0316864,11.8136203 17.0091115,13.2021984 17.0091115,15.0833401 C17.0091115,20.0539029 17.5677311,24.4000522 24.5091115,24.0833401 Z" transform="rotate(-22 24.51 14.61)"/>
    <path fill="#BD7575" d="M44.862874,24.0833401 C51.8042544,23.7666281 52.362874,20.0539029 52.362874,15.0833401 C52.362874,10.1127774 49.0737371,5.11848223 44.9316015,5.11848223 C42.3570839,5.11848223 41.1268663,6.50589048 39.7561576,9.1597554 C38.3854489,11.8136203 37.362874,13.2021984 37.362874,15.0833401 C37.362874,20.0539029 37.9214935,24.4000522 44.862874,24.0833401 Z" transform="scale(-1 1) rotate(-22 0 245.409)"/>
    <ellipse cx="12.253" cy="29.253" fill="#BD7575" rx="6" ry="8.5" transform="rotate(-45 12.253 29.253)"/>
    <ellipse cx="55.361" cy="30.446" fill="#BD7575" rx="6" ry="8.5" transform="rotate(48 55.361 30.446)"/>
  </g>
</svg>
