<svg xmlns="http://www.w3.org/2000/svg" width="64" height="64" viewBox="0 0 64 64">
  <g fill="none" fill-rule="evenodd">
    <circle cx="33" cy="32" r="29" fill="#B4DFFB" stroke="#E43535" stroke-linecap="round" stroke-width="2"/>
    <path fill="#595959" d="M22.5,40.5 C22.5,43.5375661 24.9624339,46 28,46 C30.2186017,46 30.9995474,44.5157615 33,44.5157615 C35.0004526,44.5157615 35.7813983,46 38,46 C41.0375661,46 43.5,43.5375661 43.5,40.5 C43.5,37.9805246 41.8059222,35.8567222 39.4947139,35.2055403 C39.4982229,35.1373367 39.5,35.0688159 39.5,35 C39.5,31.9624339 37.0286595,29.5 33,29.5 C28.9713405,29.5 26.5,31.9624339 26.5,35 C26.5,35.0688159 26.5017771,35.1373367 26.5052861,35.2055403 C24.1940778,35.8567222 22.5,37.9805246 22.5,40.5 Z"/>
    <path fill="#595959" d="M28.2545558,27.5416701 C31.725246,27.383314 32.0045558,25.5269514 32.0045558,23.0416701 C32.0045558,20.5563887 30.3599873,18.0592411 28.2889195,18.0592411 C27.0016607,18.0592411 26.3865519,18.7529452 25.7011976,20.0798777 C25.0158432,21.4068102 24.5045558,22.1010992 24.5045558,23.0416701 C24.5045558,25.5269514 24.7838655,27.7000261 28.2545558,27.5416701 Z" transform="rotate(-22 28.255 22.805)"/>
    <path fill="#595959" d="M38.431437,27.5416701 C41.9021272,27.383314 42.181437,25.5269514 42.181437,23.0416701 C42.181437,20.5563887 40.5368685,18.0592411 38.4658007,18.0592411 C37.178542,18.0592411 36.5634332,18.7529452 35.8780788,20.0798777 C35.1927244,21.4068102 34.681437,22.1010992 34.681437,23.0416701 C34.681437,25.5269514 34.9607468,27.7000261 38.431437,27.5416701 Z" transform="scale(-1 1) rotate(-22 0 220.517)"/>
    <ellipse cx="22.127" cy="30.127" fill="#595959" rx="3" ry="4.25" transform="rotate(-45 22.127 30.127)"/>
    <ellipse cx="43.681" cy="30.723" fill="#595959" rx="3" ry="4.25" transform="rotate(48 43.68 30.723)"/>
    <path stroke="#E43535" stroke-linecap="round" stroke-width="2" d="M15.9552241,54.8059702 L50.1003309,9.29407398"/>
  </g>
</svg>
