<svg xmlns="http://www.w3.org/2000/svg" width="64" height="64" viewBox="0 0 64 64">
  <g fill="none" fill-rule="evenodd">
    <path stroke="#BD7575" stroke-linecap="square" stroke-width="2" d="M10 47L10 59M33 47L33 59M55 47L55 59"/>
    <path fill="#22BA8E" d="M10,48 C13.8659932,48 17,46.3888407 17,37 C17,27.6111593 13.8659932,16 10,16 C6.13400675,16 3,27.6111593 3,37 C3,46.3888407 6.13400675,48 10,48 Z"/>
    <path fill="#ECECEC" d="M10,24.406915 C13.8659932,24.406915 17,29.7016183 17,25.1594525 C17,20.6172867 13.8659932,15 10,15 C6.13400675,15 3,20.6172867 3,25.1594525 C3,29.7016183 6.13400675,24.406915 10,24.406915 Z"/>
    <path fill="#22BA8E" d="M55 48C58.8659932 48 62 46.7916306 62 39.75 62 32.7083694 58.8659932 24 55 24 51.1340068 24 48 32.7083694 48 39.75 48 46.7916306 51.1340068 48 55 48zM33 46C36.8659932 46 40 43.8853535 40 31.5625 40 19.2396465 36.8659932 4 33 4 29.1340068 4 26 19.2396465 26 31.5625 26 43.8853535 29.1340068 46 33 46z"/>
    <path fill="#ECECEC" d="M55,32.406915 C58.8659932,32.406915 62,37.7016183 62,33.1594525 C62,28.6172867 58.8659932,23 55,23 C51.1340068,23 48,28.6172867 48,33.1594525 C48,37.7016183 51.1340068,32.406915 55,32.406915 Z"/>
    <path fill="#DEDEDE" d="M25,61 C25,57.1340068 21.8659932,54 18,54 C14.1340068,54 11,57.1340068 11,61 L25,61 Z"/>
    <path fill="#ECECEC" d="M33,10.406915 C36.3137085,10.406915 39,15.7016183 39,11.1594525 C39,6.6172867 36.3137085,1 33,1 C29.6862915,1 27,6.6172867 27,11.1594525 C27,15.7016183 29.6862915,10.406915 33,10.406915 Z"/>
    <path fill="#DEDEDE" d="M37,61 C37,57.1340068 33.8659932,54 30,54 C26.1340068,54 23,57.1340068 23,61 L37,61 Z"/>
    <path fill="#ECECEC" d="M53,61 C53,57.1340068 49.8659932,54 46,54 C42.1340068,54 39,57.1340068 39,61 L53,61 Z"/>
    <path fill="#DEDEDE" d="M42,61 C42,58.2385763 39.7614237,56 37,56 C34.2385763,56 32,58.2385763 32,61 L42,61 Z"/>
    <path fill="#ECECEC" d="M27,61 C27,58.2385763 24.7614237,56 22,56 C19.2385763,56 17,58.2385763 17,61 L27,61 Z"/>
    <path stroke="#D8D8D8" stroke-linecap="square" stroke-width="2" d="M6,61 L59.0377224,61"/>
  </g>
</svg>
