<svg xmlns="http://www.w3.org/2000/svg" width="64" height="64" viewBox="0 0 64 64">
  <g fill="none" fill-rule="evenodd">
    <path stroke="#BD7575" stroke-linecap="square" stroke-width="2" d="M9 47L9 59M32 47L32 59M54 47L54 59"/>
    <path fill="#22BA8E" d="M9 48C12.8659932 48 16 46.3888407 16 37 16 27.6111593 12.8659932 16 9 16 5.13400675 16 2 27.6111593 2 37 2 46.3888407 5.13400675 48 9 48zM54 48C57.8659932 48 61 46.7916306 61 39.75 61 32.7083694 57.8659932 24 54 24 50.1340068 24 47 32.7083694 47 39.75 47 46.7916306 50.1340068 48 54 48zM32 46C35.8659932 46 39 43.8853535 39 31.5625 39 19.2396465 35.8659932 4 32 4 28.1340068 4 25 19.2396465 25 31.5625 25 43.8853535 28.1340068 46 32 46z"/>
    <path fill="#80D25B" d="M24,61 C24,57.1340068 20.8659932,54 17,54 C13.1340068,54 10,57.1340068 10,61 L24,61 Z"/>
    <path fill="#80D25B" d="M36,61 C36,57.1340068 32.8659932,54 29,54 C25.1340068,54 22,57.1340068 22,61 L36,61 Z"/>
    <path fill="#22BA8E" d="M52,61 C52,57.1340068 48.8659932,54 45,54 C41.1340068,54 38,57.1340068 38,61 L52,61 Z"/>
    <path fill="#80D25B" d="M41,61 C41,58.2385763 38.7614237,56 36,56 C33.2385763,56 31,58.2385763 31,61 L41,61 Z"/>
    <path fill="#22BA8E" d="M26,61 C26,58.2385763 23.7614237,56 21,56 C18.2385763,56 16,58.2385763 16,61 L26,61 Z"/>
    <path stroke="#BD7575" stroke-linecap="square" stroke-width="2" d="M5,61 L58.0377224,61"/>
  </g>
</svg>
