<svg xmlns="http://www.w3.org/2000/svg" width="64" height="64" viewBox="0 0 64 64">
  <g fill="none" fill-rule="evenodd">
    <path stroke="#BD7575" stroke-linecap="square" stroke-width="2" d="M10 46L10 58M33 46L33 58M55 46L55 58"/>
    <path fill="#22BA8E" d="M10 47C13.8659932 47 17 45.3888407 17 36 17 26.6111593 13.8659932 15 10 15 6.13400675 15 3 26.6111593 3 36 3 45.3888407 6.13400675 47 10 47zM55 47C58.8659932 47 62 45.7916306 62 38.75 62 31.7083694 58.8659932 23 55 23 51.1340068 23 48 31.7083694 48 38.75 48 45.7916306 51.1340068 47 55 47zM33 45C36.8659932 45 40 42.8853535 40 30.5625 40 18.2396465 36.8659932 3 33 3 29.1340068 3 26 18.2396465 26 30.5625 26 42.8853535 29.1340068 45 33 45z"/>
    <path fill="#80D25B" d="M25,60 C25,56.1340068 21.8659932,53 18,53 C14.1340068,53 11,56.1340068 11,60 L25,60 Z"/>
    <path fill="#80D25B" d="M37,60 C37,56.1340068 33.8659932,53 30,53 C26.1340068,53 23,56.1340068 23,60 L37,60 Z"/>
    <path fill="#22BA8E" d="M53,60 C53,56.1340068 49.8659932,53 46,53 C42.1340068,53 39,56.1340068 39,60 L53,60 Z"/>
    <path fill="#80D25B" d="M42,60 C42,57.2385763 39.7614237,55 37,55 C34.2385763,55 32,57.2385763 32,60 L42,60 Z"/>
    <path fill="#22BA8E" d="M27,60 C27,57.2385763 24.7614237,55 22,55 C19.2385763,55 17,57.2385763 17,60 L27,60 Z"/>
    <path stroke="#BD7575" stroke-linecap="square" stroke-width="2" d="M6,60 L59.0377224,60"/>
    <path stroke="#B4DFFB" stroke-linecap="square" stroke-width="2" d="M8 5L13 10M44 14L51 21M21.4504902 18.4504902L24 21M54.4504902 31.4504902L57 34M53.4504902 36.4504902L56 39M2.45049024 38.4504902L5 41M24 28L31 35M11 31L18 38M17 7L24 14M34 32L45 43M29.4723074 16.4723074L34 21M42.4723074 28.4723074L47 33"/>
  </g>
</svg>
