<svg xmlns="http://www.w3.org/2000/svg" width="64" height="64" viewBox="0 0 64 64">
  <g fill="none" fill-rule="evenodd">
    <path fill="#FFDD95" d="M7.86519298,21.9910454 L3.15877339,10.7641803 C2.51880052,9.2375657 3.23075336,8.52762195 4.75404529,9.18065472 L19.5026642,15.5033636 L7.86519298,21.9910454 Z"/>
    <path fill="#FFDD95" d="M48.865193,21.9910454 L44.1587734,10.7641803 C43.5188005,9.2375657 44.2307534,8.52762195 45.7540453,9.18065472 L60.5026642,15.5033636 L48.865193,21.9910454 Z" transform="matrix(-1 0 0 1 103.503 0)"/>
    <path fill="#9C4D4D" d="M47.7768434,38.1210142 C43.3409126,40.5315832 37.4562622,42 31,42 C24.2942334,42 18.2051126,40.4158952 13.715414,37.8373516 L0,33.734411 L7.38469401,31.9352671 C6.48756204,30.3897006 6,28.7290132 6,27 C6,18.7157288 17.1928813,12 31,12 C44.8071187,12 56,18.7157288 56,27 C56,28.6939588 55.5320074,30.3223343 54.6693662,31.8411202 L62.4404918,33.734411 L47.7768434,38.1210142 Z"/>
    <ellipse cx="23.487" cy="34.04" fill="#FFF" rx="7" ry="8" transform="rotate(-22 23.487 34.04)"/>
    <ellipse cx="40.487" cy="34.04" fill="#FFF" rx="7" ry="8" transform="scale(-1 1) rotate(-22 0 242.328)"/>
    <circle cx="40" cy="34" r="3" fill="#595959"/>
    <circle cx="23" cy="34" r="3" fill="#595959"/>
    <path fill="#FFDD95" d="M36.5735624,54.8979181 C33.4953689,60.4771439 28.5,60.46875 25.4264376,54.8979181 L20.5162928,45.9982808 C17.4741383,45.1514399 11.1883363,43.8079514 6.86340625,45.6541794 L7.8176765,41.2265728 L3.13126448,42.2677761 L9.66321044,34.06496 L14.2450074,36.9351215 C15.1838496,37.5232377 16.7340613,37.5891328 17.7268307,37.1121379 C17.7268307,37.1121379 23.6140816,33.7149644 31.2832315,33.7149644 C38.9523815,33.7149644 44.8396324,37.1121379 44.8396324,37.1121379 C45.823748,37.6024906 47.3792537,37.5253422 48.3214556,36.9351215 L52.9032526,34.06496 L59.4351985,42.2677761 L54.7487865,41.2265728 L55.7030568,45.6541794 C51.0271877,43.6581425 44.0593128,45.3904718 41.3764703,46.1926475 L36.5735624,54.8979181 Z"/>
    <ellipse cx="31" cy="58" fill="#595959" rx="4" ry="3"/>
  </g>
</svg>
