<svg xmlns="http://www.w3.org/2000/svg" width="64" height="64" viewBox="0 0 64 64">
  <g fill="none" fill-rule="evenodd">
    <path fill="#80D25B" d="M20.8700786,56.0486749 C19.0698486,54.4449415 16.9196807,51.5505861 15.0367958,48.0093945 C11.8283449,41.9751761 10.6109634,36.347812 12.3176981,35.440325 C14.0244329,34.5328381 18.008978,38.6888751 21.2174289,44.7230936 C23.1714412,48.3980563 24.386954,51.9221142 24.653202,54.3210017 L27.1528384,53.1794701 L33.824787,60.1794701 L14.826174,60.1794701 C13.1685537,60.1794701 13.0532352,59.6184635 14.547473,58.9360765 L20.8700786,56.0486749 Z"/>
    <path fill="#80D25B" d="M41.8700786,56.0486749 C40.0698486,54.4449415 37.9196807,51.5505861 36.0367958,48.0093945 C32.8283449,41.9751761 31.6109634,36.347812 33.3176981,35.440325 C35.0244329,34.5328381 39.008978,38.6888751 42.2174289,44.7230936 C44.1714412,48.3980563 45.386954,51.9221142 45.653202,54.3210017 L48.1528384,53.1794701 L54.824787,60.1794701 L35.826174,60.1794701 C34.1685537,60.1794701 34.0532352,59.6184635 35.547473,58.9360765 L41.8700786,56.0486749 Z" transform="matrix(-1 0 0 1 87.37 0)"/>
    <path fill="#22BA8E" d="M33,60.2100962 C42.3888407,60.2100962 50,52.3888407 50,43 C50,33.6111593 42.3888407,26 33,26 C23.6111593,26 16,33.6111593 16,43 C16,52.3888407 23.6111593,60.2100962 33,60.2100962 Z"/>
    <ellipse cx="21" cy="8.5" fill="#80D25B" rx="6" ry="6.5"/>
    <ellipse cx="45" cy="8.5" fill="#80D25B" rx="6" ry="6.5"/>
    <circle cx="33" cy="22" r="19" fill="#80D25B"/>
    <ellipse cx="21" cy="9" fill="#595959" rx="4" ry="5"/>
    <circle cx="21" cy="7" r="1" fill="#FFF"/>
    <ellipse cx="45" cy="9" fill="#595959" rx="4" ry="5"/>
    <circle cx="45" cy="7" r="1" fill="#FFF"/>
    <path stroke="#22BA8E" stroke-linecap="round" stroke-width="2" d="M19.9727439,29.4543869 C19.9727439,29.4543869 26.5721258,31.541291 33.1715076,31.541291 C39.7708895,31.541291 46.3702714,29.4543869 46.3702714,29.4543869"/>
  </g>
</svg>
