<svg xmlns="http://www.w3.org/2000/svg" width="64" height="64" viewBox="0 0 64 64">
  <g fill="none" fill-rule="evenodd">
    <path stroke="#BD7575" stroke-linecap="round" stroke-width="2" d="M32.199415,9 C32.199415,9 30.6855581,4.97959656 36,2"/>
    <path fill="#80D25B" d="M26.7690024,31 C28.0714968,31 31.5872611,30.0621414 32.522975,28.4832018 C34.8991897,24.4735362 33.6947805,16.814796 33.6947805,13.4618139 C33.6947805,8.78848311 29.9575266,5 25.3473902,5 C20.7372539,5 17,8.78848311 17,13.4618139 C17,18.1351446 22.1588661,31 26.7690024,31 Z"/>
    <rect width="7" height="4" x="28" y="35" fill="#979797"/>
    <path fill="#80D25B" d="M38.7690024,31 C40.0714968,31 43.5872611,30.0621414 44.522975,28.4832018 C46.8991897,24.4735362 45.6947805,16.814796 45.6947805,13.4618139 C45.6947805,8.78848311 41.9575266,5 37.3473902,5 C32.7372539,5 29,8.78848311 29,13.4618139 C29,18.1351446 34.1588661,31 38.7690024,31 Z" transform="matrix(-1 0 0 1 75 0)"/>
    <rect width="33" height="5" x="15" y="31" fill="#D8D8D8" rx="2.5"/>
    <path fill="#D8D8D8" d="M15.8397124,41.0035949 C15.9282368,39.89704 16.8943377,39 17.9982138,39 L45.0017862,39 C46.1053692,39 47.0711811,39.8897632 47.1602876,41.0035949 L48.8397124,61.9964051 C48.9282368,63.10296 48.0996545,64 46.9925388,64 L16.0074612,64 C14.898771,64 14.0711811,63.1102368 14.1602876,61.9964051 L15.8397124,41.0035949 Z"/>
    <circle cx="32" cy="51" r="8" fill="#D650C7"/>
    <circle cx="32" cy="51" r="3" fill="#595959"/>
    <path stroke="#979797" stroke-linecap="round" stroke-width="2" d="M32.0882977,51.0164325 L36.909238,54.002082"/>
  </g>
</svg>
