<svg xmlns="http://www.w3.org/2000/svg" width="64" height="64" viewBox="0 0 64 64">
  <g fill="none" fill-rule="evenodd">
    <rect width="20" height="20" x="21" y="22" fill="#0A3586" rx="2"/>
    <path fill="#5B68C0" fill-rule="nonzero" d="M9.99017902,12.4383714 L18.3097583,20.7116717 C18.702994,21.10272 19.3330046,21.0950294 19.7169263,20.6944942 C20.100848,20.2939589 20.0932975,19.6522537 19.7000618,19.2612054 L11.4199188,11.0271219 L14.8897948,11.0271219 C15.4393676,11.0271219 15.8848843,10.5733352 15.8848843,10.013561 C15.8848843,9.4537867 15.4393676,9 14.8897948,9 L8.99508951,9 C8.44551675,9 8,9.4537867 8,10.013561 L8,15.9965359 C8,16.5563102 8.44551675,17.0100969 8.99508951,17.0100969 C9.54466227,17.0100969 9.99017902,16.5563102 9.99017902,15.9965359 L9.99017902,12.4383714 Z"/>
    <path fill="#5B68C0" fill-rule="nonzero" d="M43.990179,12.4383714 L52.3097583,20.7116717 C52.702994,21.10272 53.3330046,21.0950294 53.7169263,20.6944942 C54.100848,20.2939589 54.0932975,19.6522537 53.7000618,19.2612054 L45.4199188,11.0271219 L48.8897948,11.0271219 C49.4393676,11.0271219 49.8848843,10.5733352 49.8848843,10.013561 C49.8848843,9.4537867 49.4393676,9 48.8897948,9 L42.9950895,9 C42.4455167,9 42,9.4537867 42,10.013561 L42,15.9965359 C42,16.5563102 42.4455167,17.0100969 42.9950895,17.0100969 C43.5446623,17.0100969 43.990179,16.5563102 43.990179,15.9965359 L43.990179,12.4383714 Z" transform="matrix(-1 0 0 1 96 0)"/>
    <path fill="#5B68C0" fill-rule="nonzero" d="M9.99017902,46.4383714 L18.3097583,54.7116717 C18.702994,55.10272 19.3330046,55.0950294 19.7169263,54.6944942 C20.100848,54.2939589 20.0932975,53.6522537 19.7000618,53.2612054 L11.4199188,45.0271219 L14.8897948,45.0271219 C15.4393676,45.0271219 15.8848843,44.5733352 15.8848843,44.013561 C15.8848843,43.4537867 15.4393676,43 14.8897948,43 L8.99508951,43 C8.44551675,43 8,43.4537867 8,44.013561 L8,49.9965359 C8,50.5563102 8.44551675,51.0100969 8.99508951,51.0100969 C9.54466227,51.0100969 9.99017902,50.5563102 9.99017902,49.9965359 L9.99017902,46.4383714 Z" transform="matrix(1 0 0 -1 0 98)"/>
    <path fill="#5B68C0" fill-rule="nonzero" d="M43.990179,46.4383714 L52.3097583,54.7116717 C52.702994,55.10272 53.3330046,55.0950294 53.7169263,54.6944942 C54.100848,54.2939589 54.0932975,53.6522537 53.7000618,53.2612054 L45.4199188,45.0271219 L48.8897948,45.0271219 C49.4393676,45.0271219 49.8848843,44.5733352 49.8848843,44.013561 C49.8848843,43.4537867 49.4393676,43 48.8897948,43 L42.9950895,43 C42.4455167,43 42,43.4537867 42,44.013561 L42,49.9965359 C42,50.5563102 42.4455167,51.0100969 42.9950895,51.0100969 C43.5446623,51.0100969 43.990179,50.5563102 43.990179,49.9965359 L43.990179,46.4383714 Z" transform="rotate(180 48 49)"/>
  </g>
</svg>
