<svg xmlns="http://www.w3.org/2000/svg" width="64" height="64" viewBox="0 0 64 64">
  <g fill="none" fill-rule="evenodd">
    <polygon fill="#FCC24C" points="18 3 54 3 54 31 54 45 45 59 36 59 18 59 18 45 18 31"/>
    <rect width="32" height="24" x="20" y="5" fill="#595959"/>
    <path fill="#595959" d="M28,35 L28,32 L25,32 L25,35 L22,35 L22,38 L25,38 L25,41 L28,41 L28,38 L31,38 L31,35 L28,35 Z"/>
    <circle cx="44" cy="40" r="2" fill="#595959"/>
    <circle cx="49" cy="36" r="2" fill="#595959"/>
    <path stroke="#979797" stroke-linecap="round" stroke-width="2" d="M29.9915877 52L28 53.9915877M36.9915877 52L35 53.9915877"/>
  </g>
</svg>
