<svg xmlns="http://www.w3.org/2000/svg" width="64" height="64" viewBox="0 0 64 64">
  <g fill="none" fill-rule="evenodd">
    <path fill="#80D25B" d="M2,38.9910904 C2,37.3391568 3.33730974,36 4.99593743,36 L59.0040626,36 C60.6586731,36 62,37.3417706 62,38.9910904 L62,57.0089096 C62,58.6608432 60.6626903,60 59.0040626,60 L4.99593743,60 C3.34132688,60 2,58.6582294 2,57.0089096 L2,38.9910904 Z"/>
    <circle cx="7.5" cy="44.5" r="2.5" fill="#5B68C0"/>
    <circle cx="7.5" cy="51.5" r="2.5" fill="#D650C7"/>
    <path fill="#6B6B6B" d="M2,12.9910904 C2,11.3391568 3.33730974,10 4.99593743,10 L59.0040626,10 C60.6586731,10 62,11.3417706 62,12.9910904 L62,31.0089096 C62,32.6608432 60.6626903,34 59.0040626,34 L4.99593743,34 C3.34132688,34 2,32.6582294 2,31.0089096 L2,12.9910904 Z"/>
    <rect width="40" height="18" x="12" y="39" fill="#0A3586"/>
    <rect width="40" height="18" x="12" y="13" fill="#D8D8D8"/>
  </g>
</svg>
