<svg xmlns="http://www.w3.org/2000/svg" width="64" height="64" viewBox="0 0 64 64">
  <g fill="none" fill-rule="evenodd">
    <path fill="#9C4D4D" d="M29,13 L29,9 L7.99109042,9 C6.33915679,9 5,10.3529255 5,11.9925398 L5,27 L25,27 L25,31 L59,31 L59,15.9925398 C59,14.3398057 57.6526814,13 55.9999809,13 L29,13 Z"/>
    <rect width="54" height="37" x="5" y="20" fill="#BD7575" rx="5"/>
    <path fill="#D8D8D8" d="M35.9779195,39.5089964 L28.0220805,39.5089964 C26.633182,43.2570568 23.5437675,45.6069035 20.7661169,44.8626343 C17.7394434,44.0516395 16.2290801,39.8739771 17.3926261,35.5315641 C18.5561722,31.1891511 21.9530164,28.326371 24.9796899,29.1373657 C25.6494683,29.3168323 26.2449927,29.6611649 26.7537188,30.1356654 L37.2462812,30.1356654 C37.7550073,29.6611649 38.3505317,29.3168323 39.0203101,29.1373657 C42.0469836,28.326371 45.4438278,31.1891511 46.6073739,35.5315641 C47.7709199,39.8739771 46.2605566,44.0516395 43.2338831,44.8626343 C40.4562325,45.6069035 37.366818,43.2570568 35.9779195,39.5089964 Z"/>
    <circle cx="23" cy="34" r="3" fill="#5EA7FF"/>
    <circle cx="41" cy="34" r="3" fill="#5EA7FF"/>
  </g>
</svg>
