<svg xmlns="http://www.w3.org/2000/svg" width="64" height="64" viewBox="0 0 64 64">
  <g fill="none" fill-rule="evenodd">
    <rect width="6" height="11" x="29" y="44" fill="#D8D8D8"/>
    <rect width="14" height="1" x="25" y="56" stroke="#979797" stroke-width="2"/>
    <path fill="#868686" d="M2,9.99550699 C2,8.34113416 3.33730974,7 4.99593743,7 L59.0040626,7 C60.6586731,7 62,8.34246828 62,9.99550699 L62,43.004493 C62,44.6588658 60.6626903,46 59.0040626,46 L4.99593743,46 C3.34132688,46 2,44.6575317 2,43.004493 L2,9.99550699 Z"/>
    <rect width="54" height="33" x="5" y="10" fill="#E43535"/>
    <path fill="#FFF" d="M24.272,18.884 C24.1413327,19.0520008 23.9220015,19.1406666 23.614,19.15 C23.3526654,19.1593334 23.0960013,19.164 22.844,19.164 C22.7226661,20.1346715 22.4940017,21.0166627 22.158,21.81 C21.8033316,22.6313374 21.4253353,23.1259992 21.024,23.294 C20.9586663,23.3220001 20.8840004,23.336 20.8,23.336 C20.4266648,23.336 20.0020024,23.1260021 19.526,22.706 C19.0033307,22.239331 18.5740017,21.6466703 18.238,20.928 C17.8553314,20.069329 17.664,19.1453383 17.664,18.156 C17.6733334,16.5226585 17.9019978,15.0806729 18.35,13.83 C18.8820027,12.3366592 19.6053288,11.5853334 20.52,11.576 C21.2013367,11.5666666 21.7566645,11.9959957 22.186,12.864 C22.5126683,13.5080032 22.7413327,14.3386616 22.872,15.356 C23.0213341,15.5426676 23.096,15.7479989 23.096,15.972 C23.096,16.2053345 23.0213341,16.3943326 22.872,16.539 C22.7226659,16.6836674 22.5360011,16.756 22.312,16.756 C22.0599987,16.756 21.7916681,16.6930006 21.507,16.567 C21.2223319,16.4409994 21.0333338,16.3080007 20.94,16.168 C20.8839997,16.0839996 20.856,15.9953338 20.856,15.902 C20.856,15.9486669 20.893333,15.7666687 20.968,15.356 C20.8373327,14.2733279 20.6880008,13.732 20.52,13.732 C20.3706659,13.732 20.1793345,14.2453282 19.946,15.272 C19.6939987,16.3453387 19.568,17.2973292 19.568,18.128 C19.568,18.7160029 19.6636657,19.3809963 19.855,20.123 C20.0463343,20.8650037 20.2119993,21.236 20.352,21.236 C20.4826673,21.236 20.6319992,21.0353353 20.8,20.634 C20.9680008,20.2326647 21.0799997,19.8266687 21.136,19.416 C20.9119989,19.3133328 20.6880011,19.1360013 20.464,18.884 C20.2119987,18.6039986 20.086,18.3473345 20.086,18.114 C20.086,17.9646659 20.1513327,17.8363339 20.282,17.729 C20.4126673,17.6216661 20.6319985,17.5633334 20.94,17.554 C21.7706708,17.5353332 22.2279996,17.5213334 22.312,17.512 C22.4520007,17.4466663 22.5989992,17.3790004 22.753,17.309 C22.9070008,17.2389997 23.0446661,17.204 23.166,17.204 C23.4553348,17.204 23.7376653,17.3346654 24.013,17.596 C24.2883347,17.8573346 24.426,18.1326652 24.426,18.422 C24.426,18.5993342 24.3746672,18.7533327 24.272,18.884 Z M31.02,22.412 C30.8799993,22.8693356 30.5346694,23.098 29.984,23.098 C29.7973324,23.098 29.6480006,23.0653337 29.536,23 C29.3866659,22.8973328 29.2840003,22.6920015 29.228,22.384 C29.1159994,21.8519973 29.0040006,21.4366682 28.892,21.138 C28.8639999,21.6513359 28.5840027,22.171664 28.052,22.699 C27.5199973,23.226336 26.983336,23.49 26.442,23.49 C25.7606633,23.49 25.2893346,23.0373379 25.028,22.132 C24.9346662,21.7959983 24.888,21.4786682 24.888,21.18 C24.888,20.3119957 25.3313289,19.5700031 26.218,18.954 C26.9460036,18.5246645 27.678663,18.1000021 28.416,17.68 C28.4533335,17.5213325 28.472,17.3673341 28.472,17.218 C28.472,16.9286652 28.3926675,16.7583336 28.234,16.707 C28.0753325,16.6556664 27.9400006,16.63 27.828,16.63 C27.631999,16.63 27.4710006,16.6929994 27.345,16.819 L26.988,17.176 C26.8759994,17.250667 26.7313342,17.423332 26.554,17.694 C26.4139993,17.9086677 26.2600008,18.0253332 26.092,18.044 C25.8493321,18.0720001 25.630001,17.988001 25.434,17.792 C25.237999,17.595999 25.14,17.3673346 25.14,17.106 C25.14,16.9566659 25.177333,16.8213339 25.252,16.7 C25.4666677,16.3453316 25.7886645,16.0373346 26.218,15.776 C26.8713366,15.383998 27.6879951,15.188 28.668,15.188 C29.2933365,15.188 29.7226655,15.4866637 29.956,16.084 C30.1053341,16.4853353 30.217333,17.2366612 30.292,18.338 C30.3760004,19.6726733 30.4786661,20.6479969 30.6,21.264 C30.6186668,21.3853339 30.6979993,21.5393324 30.838,21.726 C30.9780007,21.9126676 31.048,22.0759993 31.048,22.216 C31.048,22.2813337 31.0386668,22.3466663 31.02,22.412 Z M28.584,18.968 C28.3039986,19.1173341 28.0263347,19.2713325 27.751,19.43 C27.4756653,19.5886675 27.2213345,19.7986654 26.988,20.06 C26.6519983,20.4426686 26.484,20.769332 26.484,21.04 C26.484,21.2640011 26.5679992,21.4973321 26.736,21.74 C26.8293338,21.8706673 26.9319994,21.936 27.044,21.936 C27.2866679,21.936 27.5503319,21.665336 27.835,21.124 C28.1196681,20.582664 28.3693323,19.8640045 28.584,18.968 Z M35.2479347,18.5592738 C35.2479782,18.5583872 35.248,18.5592959 35.248,18.562 C35.2479783,18.5610902 35.2479566,18.5601815 35.2479347,18.5592738 L35.2479347,18.5592738 Z M35.2479347,18.5592738 C35.2385366,18.1690677 35.2105586,17.9693117 35.164,17.96 C34.9493323,18.3146684 34.7626675,18.6553317 34.604,18.982 C34.2213314,19.7660039 34.0020003,20.4193307 33.946,20.942 C33.8993331,21.0540006 33.8946665,21.2733317 33.932,21.6 C33.9693335,21.8800014 33.9273339,22.0713328 33.806,22.174 C33.6846661,22.2766672 33.5213344,22.328 33.316,22.328 C33.0919989,22.328 32.8656678,22.2650006 32.637,22.139 C32.4083322,22.0129994 32.2426672,21.8706675 32.14,21.712 C31.9906659,21.4786655 31.9066668,20.797339 31.888,19.668 L31.888,16.364 C31.8786666,16.2706662 31.8413337,16.1400008 31.776,15.972 C31.7106663,15.8039992 31.678,15.6780004 31.678,15.594 C31.678,15.5099996 31.7013331,15.430667 31.748,15.356 C31.8693339,15.1693324 32.1773309,15.076 32.672,15.076 C33.2786697,15.076 33.6426661,15.2253318 33.764,15.524 C33.7920001,15.5893337 33.806,15.6546663 33.806,15.72 C33.806,15.8040004 33.7616671,15.9253325 33.673,16.084 C33.5843329,16.2426675 33.54,16.3733328 33.54,16.476 L33.54,18.072 C33.8200014,17.4839971 34.1886644,16.7373379 34.646,15.832 C34.7020003,15.7106661 34.7556664,15.5893339 34.807,15.468 C34.8583336,15.3466661 34.9353328,15.2393338 35.038,15.146 C35.1406672,15.0526662 35.3133321,15.006 35.556,15.006 C35.9293352,15.006 36.3049981,15.0899992 36.683,15.258 C37.0610019,15.4260008 37.2546666,15.6266655 37.264,15.86 C37.2733334,16.1026679 37.2383337,16.2869994 37.159,16.413 C37.0796663,16.5390006 37.04,16.6439996 37.04,16.728 L37.012,19.752 C37.1613341,19.4159983 37.431998,18.6226729 37.824,17.372 C38.1320015,16.4199952 38.3653325,15.8880006 38.524,15.776 C38.7293344,15.6266659 39.0326647,15.552 39.434,15.552 C40.1806704,15.552 40.5679999,15.7666645 40.596,16.196 C40.5866666,17.3346724 40.5866666,19.2386533 40.596,21.908 C40.596,22.0106672 40.6893324,22.1343326 40.876,22.279 C41.0626676,22.4236674 41.156,22.5753325 41.156,22.734 C41.156,22.808667 41.1373335,22.8973328 41.1,23 C40.9786661,23.3453351 40.7033355,23.518 40.274,23.518 C39.732664,23.518 39.3313346,23.3313352 39.07,22.958 C38.9299993,22.7526656 38.86,22.048006 38.86,20.844 L38.86,20.102 C38.8693334,19.7753317 38.874,19.5466673 38.874,19.416 C38.874,18.7626634 38.8413337,18.4266668 38.776,18.408 C38.6359993,18.3519997 38.1600041,19.6586533 37.348,22.328 C37.348,22.3373334 37.3293335,22.5613311 37.292,23 C37.2733332,23.270668 37.1800008,23.4526662 37.012,23.546 C36.8906661,23.6113337 36.7553341,23.644 36.606,23.644 C36.335332,23.644 36.0740013,23.5553342 35.822,23.378 C35.5699987,23.2006658 35.4113337,22.9906679 35.346,22.748 C35.2526662,22.4026649 35.2106666,21.7213384 35.22,20.704 C35.2377654,19.2916509 35.2470769,18.5767484 35.2479347,18.5592738 L35.2479347,18.5592738 Z M46.756,21.53 C46.681333,21.8846684 46.4293355,22.2626647 46,22.664 C45.9346663,22.7666672 45.6780022,22.9019992 45.23,23.07 C44.7166641,23.266001 44.2733352,23.3500001 43.9,23.322 C43.1999965,23.2753331 42.6493353,22.8740038 42.248,22.118 C41.8839982,21.4179965 41.702,20.5593384 41.702,19.542 C41.702,18.4406612 41.9073313,17.4746708 42.318,16.644 C42.7753356,15.7293288 43.3866628,15.2160006 44.152,15.104 C44.3013341,15.0853332 44.4459993,15.076 44.586,15.076 C45.6966722,15.076 46.3079994,15.7573265 46.42,17.12 C46.4760003,17.7453365 46.2286694,18.426663 45.678,19.164 C45.0806637,19.9760041 44.315338,20.5453317 43.382,20.872 C43.4846672,21.2453352 43.5639997,21.4879994 43.62,21.6 C43.7506673,21.8333345 43.9279989,21.95 44.152,21.95 C44.3666677,21.95 44.5953321,21.8660008 44.838,21.698 C45.0433344,21.5579993 45.183333,21.4226673 45.258,21.292 C45.2953335,21.2733332 45.3326665,21.1683343 45.37,20.977 C45.4073335,20.7856657 45.5053325,20.6480004 45.664,20.564 C45.7200003,20.5359999 45.785333,20.522 45.86,20.522 C46.0840011,20.522 46.300999,20.6316656 46.511,20.851 C46.7210011,21.0703344 46.8026669,21.2966655 46.756,21.53 Z M44.558,16.602 C44.1846648,16.602 43.8813345,16.8679973 43.648,17.4 C43.3399985,18.1093369 43.2139997,18.8093299 43.27,19.5 C43.7086689,19.3599993 44.1146648,19.0333359 44.488,18.52 C44.8613352,18.0066641 45.048,17.5493353 45.048,17.148 C45.048,16.7839982 44.8846683,16.602 44.558,16.602 Z M25.966,32.12 C26.0313337,33.3706729 25.8166691,34.6609934 25.322,35.991 C24.8273309,37.3210067 24.3000028,38.0699992 23.74,38.238 C23.5159989,38.312667 23.2966677,38.3406668 23.082,38.322 C22.8579989,38.2939999 22.6386677,38.2660001 22.424,38.238 C20.5013237,38.0139989 19.442001,35.9746859 19.246,32.12 C19.1899997,31.0746614 19.357998,29.9546726 19.75,28.76 C20.1140018,27.6493278 20.491998,26.9633346 20.884,26.702 C20.9773338,26.6366663 21.0799994,26.604 21.192,26.604 C21.2760004,26.604 21.4066658,26.6296664 21.584,26.681 C21.7613342,26.7323336 21.8966662,26.758 21.99,26.758 C22.1020006,26.758 22.3049985,26.7323336 22.599,26.681 C22.8930015,26.6296664 23.1099993,26.604 23.25,26.604 C23.3806673,26.604 23.4879996,26.6226665 23.572,26.66 C25.0186739,27.2480029 25.8166659,29.0679847 25.966,32.12 Z M24.076,32.12 C23.9826662,30.9533275 23.8566675,30.0760029 23.698,29.488 C23.4366654,28.4986617 23.0493359,28.004 22.536,28.004 C22.3959993,28.004 22.2490008,28.041333 22.095,28.116 C21.9409992,28.190667 21.7380013,28.6713289 21.486,29.558 C21.2246654,30.5286715 21.094,31.382663 21.094,32.12 C21.094,33.0813381 21.2619983,34.0916614 21.598,35.151 C21.9340017,36.2103386 22.2559985,36.74 22.564,36.74 C22.8533348,36.74 23.1753316,36.2640048 23.53,35.312 C23.9033352,34.3226617 24.09,33.3846711 24.09,32.498 C24.09,32.3673327 24.0853334,32.2413339 24.076,32.12 Z M33.666,30.44 C33.7313337,30.5613339 33.764,30.6873327 33.764,30.818 C33.764,31.0046676 33.6846675,31.2379986 33.526,31.518 C33.3019989,31.8913352 33.1713335,32.1293328 33.134,32.232 C32.7233313,33.4080059 32.1960032,34.891991 31.552,36.684 C31.4306661,37.3000031 31.2766676,37.7386654 31.09,38 C30.8566655,38.3546684 30.5113356,38.5180001 30.054,38.49 C29.6153311,38.4619999 29.3213341,38.3733341 29.172,38.224 C29.0599994,38.1119994 29.004,37.9393345 29.004,37.706 L29.004,37.412 C29.004,37.2439992 28.9900001,37.1040006 28.962,36.992 L27.534,31.868 C27.5059999,31.7559994 27.3846677,31.5740013 27.17,31.322 C26.9926658,31.125999 26.9226665,30.9440008 26.96,30.776 C27.0533338,30.3653313 27.3846638,30.16 27.954,30.16 C28.0753339,30.16 28.1873328,30.1693332 28.29,30.188 C28.6540018,30.262667 29.0133316,30.901994 29.368,32.106 C29.6573348,33.235339 29.9513318,34.3599944 30.25,35.48 L31.706,31 C31.780667,30.7759989 31.8413331,30.6220004 31.888,30.538 C31.9720004,30.3886659 32.0909992,30.2720004 32.245,30.188 C32.3990008,30.1039996 32.5879989,30.062 32.812,30.062 C33.2413355,30.062 33.5259993,30.1879987 33.666,30.44 Z M39.196,36.53 C39.121333,36.8846684 38.8693355,37.2626647 38.44,37.664 C38.3746663,37.7666672 38.1180022,37.9019992 37.67,38.07 C37.1566641,38.266001 36.7133352,38.3500001 36.34,38.322 C35.6399965,38.2753331 35.0893353,37.8740038 34.688,37.118 C34.3239982,36.4179965 34.142,35.5593384 34.142,34.542 C34.142,33.4406612 34.3473313,32.4746708 34.758,31.644 C35.2153356,30.7293288 35.8266628,30.2160006 36.592,30.104 C36.7413341,30.0853332 36.8859993,30.076 37.026,30.076 C38.1366722,30.076 38.7479994,30.7573265 38.86,32.12 C38.9160003,32.7453365 38.6686694,33.426663 38.118,34.164 C37.5206637,34.9760041 36.755338,35.5453317 35.822,35.872 C35.9246672,36.2453352 36.0039997,36.4879994 36.06,36.6 C36.1906673,36.8333345 36.3679989,36.95 36.592,36.95 C36.8066677,36.95 37.0353321,36.8660008 37.278,36.698 C37.4833344,36.5579993 37.623333,36.4226673 37.698,36.292 C37.7353335,36.2733332 37.7726665,36.1683343 37.81,35.977 C37.8473335,35.7856657 37.9453325,35.6480004 38.104,35.564 C38.1600003,35.5359999 38.225333,35.522 38.3,35.522 C38.5240011,35.522 38.7409989,35.6316656 38.951,35.851 C39.161001,36.0703344 39.2426669,36.2966655 39.196,36.53 Z M36.998,31.602 C36.6246648,31.602 36.3213345,31.8679973 36.088,32.4 C35.7799985,33.1093369 35.6539997,33.8093299 35.71,34.5 C36.1486689,34.3599993 36.5546648,34.0333359 36.928,33.52 C37.3013352,33.0066641 37.488,32.5493353 37.488,32.148 C37.488,31.7839982 37.3246683,31.602 36.998,31.602 Z M45.608,30.86 C45.5706665,31.056001 45.3933349,31.191333 45.076,31.266 C44.7026648,31.3593338 44.4646672,31.4666661 44.362,31.588 L42.08,34.22 L42.08,36.348 C42.08,36.5533344 42.1383328,36.760999 42.255,36.971 C42.3716672,37.1810011 42.43,37.3419994 42.43,37.454 C42.43,37.5660006 42.3973337,37.6919993 42.332,37.832 C42.1733325,38.1866684 41.8513358,38.364 41.366,38.364 C41.0299983,38.364 40.764001,38.2566677 40.568,38.042 C40.4373327,37.9019993 40.372,37.7246677 40.372,37.51 C40.372,37.435333 40.3813332,37.3140008 40.4,37.146 C40.4186668,36.9779992 40.428,36.8426672 40.428,36.74 L40.428,31.504 C40.428,31.4199996 40.390667,31.3173339 40.316,31.196 C40.241333,31.0746661 40.204,30.976667 40.204,30.902 C40.204,30.8459997 40.2226665,30.780667 40.26,30.706 C40.3813339,30.4819989 40.7593302,30.37 41.394,30.37 C41.8886691,30.37 42.1686663,30.4866655 42.234,30.72 C42.2620001,30.8133338 42.276,30.8926663 42.276,30.958 C42.276,31.0606672 42.238667,31.1399997 42.164,31.196 C42.089333,31.2520003 42.052,31.3079997 42.052,31.364 L42.08,31.868 L43.284,30.594 C43.4240007,30.4353325 43.5709992,30.2766675 43.725,30.118 C43.8790008,29.9593325 44.0586656,29.8706668 44.264,29.852 C44.5813349,29.8239999 44.8869985,29.8939992 45.181,30.062 C45.4750015,30.2300008 45.622,30.449332 45.622,30.72 C45.622,30.7666669 45.6173334,30.8133331 45.608,30.86 Z"/>
  </g>
</svg>
