<svg xmlns="http://www.w3.org/2000/svg" width="64" height="64" viewBox="0 0 64 64">
  <g fill="none" fill-rule="evenodd">
    <path fill="#80D25B" d="M55.5044647,17.529591 C58.2658885,17.529591 60.5044647,15.1876959 60.5044647,12.2988218 C60.5044647,9.40994771 55.5044647,0.529591015 55.5044647,0.529591015 C55.5044647,0.529591015 50.5044647,9.40994771 50.5044647,12.2988218 C50.5044647,15.1876959 52.743041,17.529591 55.5044647,17.529591 Z" transform="rotate(75 55.504 9.03)"/>
    <path stroke="#22BA8E" stroke-linecap="round" stroke-width="2" d="M52,10 C45.372583,10 40,15.372583 40,22"/>
    <polygon fill="#BD7575" points="10 21.967 32 11 54 21.967 54 59.967 10 59.967"/>
    <polygon fill="#E43535" fill-rule="nonzero" points="57.465 26.644 59.481 23.189 31.74 7 4 23.189 6.016 26.644 31.74 11.631"/>
    <rect width="14" height="18" x="25" y="42" fill="#9C4D4D"/>
    <rect width="14" height="6" x="34" y="31" fill="#FFAF40"/>
    <rect width="14" height="6" x="16" y="31" fill="#FFAF40"/>
  </g>
</svg>
