<svg xmlns="http://www.w3.org/2000/svg" width="64" height="64" viewBox="0 0 64 64">
  <g fill="none" fill-rule="evenodd">
    <path stroke="#979797" stroke-linecap="round" stroke-width="2" d="M40.3895427,23.9373945 L43.0453432,23.9373945 C44.1513642,23.9373945 45.0479714,24.8404042 45.0479714,25.9404782 L45.0479714,52.1070352 C45.0479714,53.2133078 45.9416358,54.1101189 47.0404726,54.1101189 L52.0334342,54.1101189 C53.1338622,54.1101189 54.0259353,53.2062958 54.0259353,52.1162255 L54.0259353,16.0270135"/>
    <rect width="36" height="55" x="5" y="5" fill="#ECECEC" rx="2"/>
    <g transform="matrix(-1 0 0 1 38 20)">
      <path fill="#80D25B" d="M15.435675,31 C20.301337,31 25,26.2163013 25,21.3131203 C25,16.4099394 17.1226939,3 17.1226939,3 C17.1226939,3 7.62882483,15.3918301 7.05405343,20.6592359 C6.47928203,25.9266417 10.570013,31 15.435675,31 Z" transform="rotate(36 16 17)"/>
      <path stroke="#22BA8E" stroke-linecap="round" stroke-width="2" d="M22,10 C22,10 12.8859478,15.6488685 9.57160406,26.0527799 C8.71883296,28.7296763 7.43565096,30.6395938 6,32"/>
      <polyline stroke="#22BA8E" stroke-linecap="round" stroke-width="2" points="17 24 10.935 23.715 8 18"/>
      <polyline stroke="#22BA8E" stroke-linecap="round" stroke-width="2" points="19 18 14.459 17.197 13 14"/>
    </g>
    <path fill="#ED9111" d="M36,21 C36,13.8202983 30.1797017,8 23,8 C15.8202983,8 10,13.8202983 10,21 L36,21 Z"/>
    <path stroke="#E43535" stroke-linecap="round" stroke-linejoin="round" stroke-width="2" d="M23,21 L23,11"/>
    <path stroke="#E43535" stroke-linecap="round" stroke-width="2" d="M12.827183 17.0200004L15.2990783 18.0266104M17 12L18.54421 14.4383366"/>
    <path stroke="#E43535" stroke-linecap="round" stroke-width="2" d="M30.827183,17.0200004 L33.2990783,18.0266104" transform="matrix(-1 0 0 1 64.126 0)"/>
    <path stroke="#E43535" stroke-linecap="round" stroke-width="2" d="M27,12 L28.54421,14.4383366" transform="matrix(-1 0 0 1 55.544 0)"/>
    <polyline stroke="#979797" stroke-linecap="round" stroke-width="2" points="54.054 10.343 54.054 5.1 56 2.705"/>
    <rect width="4" height="14" x="52" y="10" fill="#80D25B"/>
  </g>
</svg>
