<svg xmlns="http://www.w3.org/2000/svg" width="64" height="64" viewBox="0 0 64 64">
  <g fill="none" fill-rule="evenodd" stroke-linejoin="round">
    <polygon fill="#5EA7FF" stroke="#5EA7FF" stroke-width="2" points="26.883 41.006 26.602 41.006 26.463 41.251 19.788 53.251 19.372 53.976 20.039 53.953 51.702 54 51.985 54 52.125 53.755 59.019 41.726 59.437 41 58.597 41"/>
    <polygon fill="#FCC24C" stroke="#FCC24C" stroke-width="2" points="44.19 36.757 44.331 37 44.613 36.999 58.372 37 59.211 36.996 58.791 36.275 42.94 9.241 42.799 9 42.518 9 28.628 9.055 27.789 9.06 28.209 9.783"/>
    <polygon fill="#22BA8E" stroke="#22BA8E" stroke-width="2" points="31.333 24.576 31.19 24.333 24.94 12.081 24.519 11.359 24.099 12.083 8.677 39.249 8.537 39.492 8.679 39.735 15.673 51.71 16.095 52.433 16.514 51.708 31.191 24.82"/>
  </g>
</svg>
