<svg xmlns="http://www.w3.org/2000/svg" width="64" height="64" viewBox="0 0 64 64">
  <g fill="none" fill-rule="evenodd">
    <path fill="#FFAF40" d="M9,9 L24,9 L24,16 L15.5031554,16 C13.5684161,16 11.385666,14.566554 10.6229242,12.7868232 L9,9 Z"/>
    <path fill="#FFAF40" d="M40,9 L55,9 L55,16 L46.5031554,16 C44.5684161,16 42.385666,14.566554 41.6229242,12.7868232 L40,9 Z" transform="matrix(-1 0 0 1 95 0)"/>
    <path fill="#BD7575" d="M26 3.50700176C26 2.12242292 27.1096621 1 28.5 1L28.5 1C29.8807119 1 31 2.12165891 31 3.50700176L31 10 26 10 26 3.50700176zM34 3.50700176C34 2.12242292 35.1096621 1 36.5 1L36.5 1C37.8807119 1 39 2.12165891 39 3.50700176L39 10 34 10 34 3.50700176z"/>
    <path fill="#FFDD95" d="M23.7894737,9 L40.2105263,9 L45.8059078,57.0406816 C46.1892444,60.3319223 43.8107742,63 40.4911813,63 L23.5088187,63 C20.1902398,63 17.811896,60.3221316 18.1940922,57.0406816 L23.7894737,9 Z" transform="matrix(1 0 0 -1 0 72)"/>
    <ellipse cx="32" cy="47" fill="#FFAF40" rx="16" ry="8"/>
    <ellipse cx="21" cy="47" fill="#BD7575" rx="2" ry="3"/>
    <ellipse cx="44" cy="47" fill="#BD7575" rx="2" ry="3"/>
    <circle cx="26" cy="25" r="2" fill="#595959"/>
    <circle cx="38" cy="25" r="2" fill="#595959"/>
  </g>
</svg>
