<svg xmlns="http://www.w3.org/2000/svg" width="64" height="64" viewBox="0 0 64 64">
  <g fill="none" fill-rule="evenodd">
    <path fill="#FFDD95" d="M32,62 L15.4715668,62 C12.6609431,57.5221861 11,51.9887935 11,46 C11,29 20,25 20,18 C20,11 16,11 16,4 C16,3.77030771 16.0012569,3.54128532 16.0037784,3.31296669 C17.9733274,4.37472871 20.3893038,5 23,5 C27.1739415,5 30.8501569,3.401736 33,0.976692684 C35.1498431,3.401736 38.8260585,5 43,5 C46.0681861,5 48.8674287,4.13638695 50.9891525,2.71559231 C50.9964171,3.1412256 51,3.56943584 51,4 C51,11 47,11 47,18 C47,25 57,29 57,46 C57,51.9887935 55.3390569,57.5221861 52.5284332,62 L36,62 L36,59 L32,59 L32,62 Z"/>
    <g stroke="#22BA8E" stroke-width="2" transform="rotate(-90 36 -13)">
      <path stroke-linecap="square" d="M5,13 L5,2"/>
      <polyline stroke-linecap="round" stroke-linejoin="round" points=".707 5.31 5.052 .712 9.157 5.31"/>
    </g>
    <g stroke="#22BA8E" stroke-width="2" transform="matrix(0 -1 -1 0 18 23)">
      <path stroke-linecap="square" d="M5,13 L5,2"/>
      <polyline stroke-linecap="round" stroke-linejoin="round" points=".707 5.31 5.052 .712 9.157 5.31"/>
    </g>
    <path fill="#D650C7" d="M56.1245668,37.9035666 C55.8344964,36.6586466 55.4842452,35.5092211 55.0922446,34.4405453 C48.926922,36.6764866 41.2811709,38 33,38 C25.4342764,38 18.3989218,36.8952964 12.5383094,34.9993679 C12.2595399,35.9003665 12.0080478,36.8575591 11.7930265,37.8791175 C17.4473334,39.3200509 24.0276741,45.0094571 28.7643658,53.2136478 C29.8752831,55.1378131 30.8156976,57.0806397 31.5841052,59 L36.4279658,59 C37.1963734,57.0806397 38.1367879,55.1378131 39.2477053,53.2136478 C43.9580391,45.0551103 50.4915606,39.3834476 56.1245668,37.9035666 Z"/>
  </g>
</svg>
