<svg xmlns="http://www.w3.org/2000/svg" width="64" height="64" viewBox="0 0 64 64">
  <g fill="none" fill-rule="evenodd">
    <path fill="#FFDD95" d="M33,62 L50.5284332,62 C53.3390569,57.5235772 55,51.9919036 55,46.0049707 C55,29.010252 45,25.0114947 45,18.0136694 C45,11.0158441 49,11.0158441 49,4.01801872 C49,3.75640066 48.9986764,3.49565192 48.9960069,3.23582258 L31,1.99471865 L14.005816,3.16673134 C14.0019338,3.44941662 14,3.7332025 14,4.01801872 C14,11.0158441 18,11.0158441 18,18.0136694 C18,25.0114947 9,29.010252 9,46.0049707 C9,51.9919036 10.6609431,57.5235772 13.4715668,62 L31,62 L31,59.000932 L33,59.000932 L33,62 Z"/>
    <path fill="#D650C7" d="M53.8107189,36.6740885 C53.4720676,35.4559375 53.076119,34.3339074 52.6430435,33.2918622 C46.5573066,35.041776 39.0812049,33 31,33 C23.6707021,33 16.8391434,35.220552 11.0911562,33.7620889 C11.0478588,33.7511028 11.0046228,33.7400782 10.9614486,33.7290151 C10.633699,34.6467126 10.3326503,35.6255158 10.0699338,36.6757638 C17.2816883,36.7549437 23.9719339,39.6449632 27.7643658,46.2136478 C29.9203263,49.9478809 30.8795509,54.4202801 30.8064619,59 L32.7690757,59 C32.6959867,54.4202801 33.6552113,49.9478809 35.8111718,46.2136478 C39.6570338,39.5524194 46.4829373,36.674241 53.8107189,36.6740885 Z"/>
  </g>
</svg>
