<svg xmlns="http://www.w3.org/2000/svg" width="64" height="64" viewBox="0 0 64 64">
  <g fill="none" fill-rule="evenodd">
    <path fill="#FFDD95" d="M30,62 L13.4715668,62 C10.6609431,57.5221861 9,51.9887935 9,46 C9,29 18,25 18,18 C18,11 14,11 14,4 C14,3.77030771 14.0012569,3.54128532 14.0037784,3.31296669 C15.9733274,4.37472871 18.3893038,5 21,5 C25.1739415,5 28.8501569,3.401736 31,0.976692684 C33.1498431,3.401736 36.8260585,5 41,5 C44.0681861,5 46.8674287,4.13638695 48.9891525,2.71559231 C48.9964171,3.1412256 49,3.56943584 49,4 C49,11 45,11 45,18 C45,25 55,29 55,46 C55,51.9887935 53.3390569,57.5221861 50.5284332,62 L34,62 L34,59 L30,59 L30,62 Z"/>
    <path fill="#D650C7" d="M54.1245668,37.9035666 C53.8344964,36.6586466 53.4842452,35.5092211 53.0922446,34.4405453 C46.926922,36.6764866 39.2811709,38 31,38 C23.4342764,38 16.3989218,36.8952964 10.5383094,34.9993679 C10.2595399,35.9003665 10.0080478,36.8575591 9.79302649,37.8791175 C15.4473334,39.3200509 22.0276741,45.0094571 26.7643658,53.2136478 C27.8752831,55.1378131 28.8156976,57.0806397 29.5841052,59 L34.4279658,59 C35.1963734,57.0806397 36.1367879,55.1378131 37.2477053,53.2136478 C41.9580391,45.0551103 48.4915606,39.3834476 54.1245668,37.9035666 Z"/>
  </g>
</svg>
