<svg xmlns="http://www.w3.org/2000/svg" width="64" height="64" viewBox="0 0 64 64">
  <g fill="none" fill-rule="evenodd">
    <path fill="#595959" d="M9.19988714,48.7570842 C7.55244451,46.1734899 6.80087074,43.2824992 6.36887074,40.2890429 C5.8377232,36.635965 5.76336255,32.9938655 6.93808386,29.4203813 C7.55421501,27.5448968 8.50054288,25.8780028 9.71332976,24.3657218 C10.0603462,23.9320732 10.1479855,23.5697845 10.0612314,22.9623105 C9.9089691,21.8955715 9.98952648,20.7821741 10.0612314,19.6943931 C10.257756,16.7000219 10.8774281,13.7943932 11.9184773,10.9894003 C11.978674,10.8274682 12.0601166,10.6728551 12.1583789,10.4578605 C15.6170347,10.8997429 18.6180183,12.3946413 21.5322478,14.1054492 C22.6485429,14.7595816 23.7019855,15.5280728 24.8129691,16.1931837 C25.1183789,16.3752429 25.5459527,16.4896017 25.8867724,16.4337946 C30.3811658,15.7000685 34.8693625,15.6707926 39.3611003,16.4548366 C39.6293298,16.5005801 39.9692642,16.4219013 40.2073953,16.2791815 C42.3036576,15.0203197 44.3609691,13.6891831 46.4775921,12.4669161 C48.4729363,11.3150941 50.7099527,10.9262742 52.968215,10.4423077 C53.8817888,12.5648073 54.4580839,14.7540924 54.7626084,17.0000994 C55.0042806,18.7804374 55.2627724,20.612923 55.0928052,22.379538 C54.9706412,23.6420593 55.4345101,24.3767003 56.0612642,25.2394232 C58.0849363,28.0252038 58.9870019,31.2144424 59.0976576,34.6671637 C59.2021166,37.9424001 58.8276576,41.1554252 57.8937232,44.2916013 C56.2896576,49.6820183 52.9186412,53.3396706 47.8249363,55.3331734 C44.5389035,56.6194813 41.1103462,56.9991526 37.6463789,56.9927485 C32.7934609,56.9835998 27.9201822,57.095214 23.0929363,56.6835222 C17.4229363,56.2004706 12.4965429,53.9279323 9.19988714,48.7570842 Z M15.9870675,34.0252167 C13.5004117,36.3098154 12.856838,39.2754525 13.1587068,42.4771467 C13.6385101,47.5663934 15.4762806,50.3393862 20.4371986,51.7430668 C24.3853953,52.8609465 28.4283134,53.0454509 32.4871658,52.9866627 C33.8008707,52.9866627 35.1145757,53.0210312 36.4265101,52.9794272 C39.6071986,52.8781307 42.7427396,52.4277229 45.7658544,51.3894333 C48.4773625,50.4587714 50.4656248,48.7168327 51.409297,45.84797 C52.0776576,43.8157081 52.3379199,41.7508867 52.0475593,39.6345126 C51.6031658,36.3948322 48.7287724,31.9196958 43.9475593,32.0010948 C42.1779527,32.0318455 40.4092314,32.1412819 38.6396248,32.1774593 C35.5598544,32.2398652 32.4791986,32.3194553 29.3994281,32.3058888 C26.6055921,32.2941312 23.8099855,32.0625962 21.0196904,32.1295243 C19.1907724,32.1738415 17.4264773,32.7029351 15.9870675,34.0252167 Z"/>
    <ellipse cx="23.554" cy="42" fill="#595959" rx="4" ry="5"/>
    <ellipse cx="42.554" cy="42" fill="#595959" rx="4" ry="5"/>
  </g>
</svg>
