<svg xmlns="http://www.w3.org/2000/svg" xmlns:xlink="http://www.w3.org/1999/xlink" width="64" height="64" viewBox="0 0 64 64">
  <defs>
    <circle id="glassesdoc-a" cx="13" cy="13" r="13"/>
    <path id="glassesdoc-b" d="M4.48005677,22.8191524 C3.40271029,21.8835483 2.48085479,20.7735765 1.75841959,19.5331663 L13.0358704,4.84959495e-05 C14.5095793,0.00402880885 15.925628,0.253226191 17.2453653,0.708989443 L4.48005677,22.8191524 Z"/>
    <circle id="glassesdoc-c" cx="43" cy="13" r="13"/>
    <path id="glassesdoc-d" d="M3.48005677,22.8191524 C2.40271029,21.8835483 1.48085479,20.7735765 0.75841959,19.5331663 L12.0358704,4.84959494e-05 C13.5095793,0.00402880885 14.925628,0.253226191 16.2453653,0.708989443 L3.48005677,22.8191524 Z"/>
  </defs>
  <g fill="none" fill-rule="evenodd">
    <path fill="#0A3586" fill-rule="nonzero" d="M40 35C40 31.1340068 36.8659932 28 33 28 29.1340068 28 26 31.1340068 26 35L30 35C30 33.3431458 31.3431458 32 33 32 34.6568542 32 36 33.3431458 36 35L40 35zM14.1515136 16.64935L12.4295234 15.6321235 3.03959667 31.5276612C2.64388359 32.1975357 3.13107424 33.0428347 3.90906982 33.0362385L8.43392216 32.9978752 8.41696606 30.9979471 5.66160687 31.021308 14.1515136 16.64935z"/>
    <path fill="#0A3586" fill-rule="nonzero" d="M63.1515136,16.64935 L61.4295234,15.6321235 L52.0395967,31.5276612 C51.6438836,32.1975357 52.1310742,33.0428347 52.9090698,33.0362385 L57.4339222,32.9978752 L57.4169661,30.9979471 L54.6616069,31.021308 L63.1515136,16.64935 Z" transform="matrix(-1 0 0 1 115.05 0)"/>
    <g transform="translate(5 26)">
      <use fill="#E3F4FF" xlink:href="#glassesdoc-a"/>
      <use fill="#B4DFFB" xlink:href="#glassesdoc-b"/>
      <use fill="#E3F4FF" xlink:href="#glassesdoc-c"/>
    </g>
    <g transform="translate(36 26)">
      <use fill="#B4DFFB" xlink:href="#glassesdoc-d"/>
    </g>
  </g>
</svg>
