<svg xmlns="http://www.w3.org/2000/svg" width="64" height="64" viewBox="0 0 64 64">
  <g fill="none" fill-rule="evenodd">
    <rect width="35" height="37" x="15" y="26" fill="#D8D8D8" rx="5"/>
    <path fill="#595959" d="M23,20.009763 C23,17.795232 24.7874739,16 27.0061948,16 L37.9938052,16 C40.2063655,16 42,17.7877996 42,20.009763 L42,26 L23,26 L23,20.009763 Z"/>
    <path stroke="#979797" stroke-linecap="square" stroke-width="2" d="M27 25L27 20M32 25L32 20M37 25L37 20"/>
    <polygon fill="#868686" points="31 0 33 0 37 16 28 16"/>
    <rect width="35" height="19" x="15" y="35" fill="#F5413E"/>
    <path fill="#FFF" d="M27.988,41.628 C28.0040001,42.3160034 28.0399997,43.4479921 28.096,45.024 C28.1280002,46.1360056 28.144,46.9319976 28.144,47.412 C28.144,48.4680053 28.0600008,49.1879981 27.892,49.572 C27.7239992,49.9560019 27.3840026,50.1679998 26.872,50.208 C26.2319968,50.2640003 25.6680024,50.096002 25.18,49.704 C24.9399988,49.6319996 24.7880003,49.5760002 24.724,49.536 C24.5879993,49.4559996 24.5000002,49.320001 24.46,49.128 C24.3879996,48.7519981 24.6839967,48.564 25.348,48.564 C25.5160008,48.564 25.6759992,48.5839998 25.828,48.624 C25.9400006,48.6480001 26.0639993,48.7419992 26.2,48.906 C26.3360007,49.0700008 26.4639994,49.156 26.584,49.164 C26.8160012,49.1800001 26.932,48.8520034 26.932,48.18 C26.932,47.8919986 26.9120002,47.4240032 26.872,46.776 C26.5839986,47.2640024 26.3760006,47.5799993 26.248,47.724 C25.9839987,47.9960014 25.6760018,48.132 25.324,48.132 C24.8279975,48.132 24.4280015,47.7880034 24.124,47.1 C23.8439986,46.4679968 23.704,45.7000045 23.704,44.796 C23.704,43.8679954 23.8519985,43.0840032 24.148,42.444 C24.4840017,41.7239964 24.947997,41.3560001 25.54,41.34 C25.8600016,41.332 26.0959992,41.3959993 26.248,41.532 C26.4000008,41.6680007 26.5479993,41.8079993 26.692,41.952 C26.5879995,41.6639986 26.6119992,41.4480007 26.764,41.304 C26.8520004,41.2159996 26.9839991,41.172 27.16,41.172 C27.3280008,41.172 27.4959992,41.2159996 27.664,41.304 C27.8320008,41.3920004 27.9399998,41.4999994 27.988,41.628 Z M26.548,44.688 C26.5800002,44.2239977 26.5240007,43.7840021 26.38,43.368 C26.2199992,42.9039977 26.0120013,42.672 25.756,42.672 C25.547999,42.672 25.3640008,42.9039977 25.204,43.368 C25.0599993,43.7840021 24.9800001,44.2239977 24.964,44.688 C24.9479999,45.1760024 24.9839996,45.615998 25.072,46.008 C25.1840006,46.4720023 25.339999,46.704 25.54,46.704 C25.7160009,46.704 25.9199988,46.4780023 26.152,46.026 C26.3840012,45.5739977 26.5159998,45.1280022 26.548,44.688 Z M31.096,48.06 C30.9359992,48.3640015 30.6400022,48.516 30.208,48.516 C29.807998,48.516 29.5280008,48.3800014 29.368,48.108 C29.3199998,48.0279996 29.296,47.9400005 29.296,47.844 C29.296,47.7639996 29.3239997,47.6320009 29.38,47.448 C29.4360003,47.2639991 29.464,47.1120006 29.464,46.992 L29.416,39.24 L29.416,38.592 C29.4400001,38.4879995 29.551999,38.4020003 29.752,38.334 C29.952001,38.2659997 30.1639989,38.232 30.388,38.232 C30.7160016,38.232 30.9239996,38.2919994 31.012,38.412 C31.1000004,38.5320006 31.144,38.6559994 31.144,38.784 C31.144,38.8720004 31.1120003,39.017999 31.048,39.222 C30.9839997,39.426001 30.952,39.5919994 30.952,39.72 L30.952,46.92 C30.952,47.0400006 30.9859997,47.197999 31.054,47.394 C31.1220003,47.590001 31.156,47.7319996 31.156,47.82 C31.156,47.9080004 31.1360002,47.9879996 31.096,48.06 Z M36.508,42.144 C36.5240001,42.2640006 36.5000003,42.3919993 36.436,42.528 C36.3559996,42.7120009 36.3080001,42.8479996 36.292,42.936 C36.292,44.6000083 36.2240007,45.7559968 36.088,46.404 C35.7919985,47.7640068 35.1640048,48.444 34.204,48.444 C32.803993,48.444 32.104,47.1680128 32.104,44.616 C32.104,43.9279966 32.1559995,43.2000038 32.26,42.432 C32.2039997,42.2479991 32.176,42.0840007 32.176,41.94 C32.176,41.7079988 32.2519992,41.5120008 32.404,41.352 C32.5320006,41.2159993 32.7199988,41.148 32.968,41.148 C33.168001,41.148 33.3559991,41.1899996 33.532,41.274 C33.7080009,41.3580004 33.8119998,41.4559994 33.844,41.568 C33.8600001,41.6240003 33.868,41.6799997 33.868,41.736 C33.868,41.8400005 33.8240004,42.0059989 33.736,42.234 C33.6479996,42.4620011 33.6119999,42.6479993 33.628,42.792 C33.5479996,43.2400022 33.508,43.8039966 33.508,44.484 C33.508,45.1720034 33.5519996,45.7439977 33.64,46.2 C33.7520006,46.7280026 33.907999,46.992 34.108,46.992 C34.4440017,46.992 34.6639995,46.4240057 34.768,45.288 C34.8240003,44.7199972 34.852,43.8160062 34.852,42.576 C34.852,42.4959996 34.8400001,42.3800008 34.816,42.228 C34.7919999,42.0759992 34.78,41.9640004 34.78,41.892 C34.78,41.699999 34.8519993,41.5680004 34.996,41.496 C35.0760004,41.4559998 35.1879993,41.436 35.332,41.436 C35.5960013,41.436 35.8399989,41.4919994 36.064,41.604 C36.3280013,41.7400007 36.4759998,41.9199989 36.508,42.144 Z M41.668,46.74 C41.6039997,47.0440015 41.3880018,47.3679983 41.02,47.712 C40.9639997,47.8000004 40.7440019,47.9159993 40.36,48.06 C39.9199978,48.2280008 39.5400016,48.3000001 39.22,48.276 C38.619997,48.2359998 38.1480017,47.8920032 37.804,47.244 C37.4919984,46.643997 37.336,45.9080044 37.336,45.036 C37.336,44.0919953 37.5119982,43.2640036 37.864,42.552 C38.256002,41.7679961 38.7799967,41.3280005 39.436,41.232 C39.5640006,41.2159999 39.6879994,41.208 39.808,41.208 C40.7600048,41.208 41.2839995,41.7919942 41.38,42.96 C41.4280002,43.4960027 41.2160024,44.0799968 40.744,44.712 C40.2319974,45.4080035 39.576004,45.8959986 38.776,46.176 C38.8640004,46.4960016 38.9319998,46.7039995 38.98,46.8 C39.0920006,47.000001 39.243999,47.1 39.436,47.1 C39.6200009,47.1 39.815999,47.0280007 40.024,46.884 C40.2000009,46.7639994 40.3199997,46.6480006 40.384,46.536 C40.4160002,46.5199999 40.4479998,46.4300008 40.48,46.266 C40.5120002,46.1019992 40.5959993,45.9840004 40.732,45.912 C40.7800002,45.8879999 40.8359997,45.876 40.9,45.876 C41.092001,45.876 41.2779991,45.9699991 41.458,46.158 C41.6380009,46.3460009 41.7080002,46.539999 41.668,46.74 Z M39.784,42.516 C39.4639984,42.516 39.204001,42.7439977 39.004,43.2 C38.7399987,43.808003 38.6319998,44.407997 38.68,45 C39.0560019,44.8799994 39.4039984,44.6000022 39.724,44.16 C40.0440016,43.7199978 40.204,43.3280017 40.204,42.984 C40.204,42.6719984 40.0640014,42.516 39.784,42.516 Z"/>
  </g>
</svg>
