<svg xmlns="http://www.w3.org/2000/svg" width="64" height="64" viewBox="0 0 64 64">
  <g fill="none" fill-rule="evenodd">
    <path fill="#80D25B" d="M19.7272727,53 L56.0002326,53 C58.2013211,53 60,51.2114659 60,49.0051972 L60,19.9948028 C60,17.7845869 58.2092431,16 56.0002326,16 L8.99976742,16 C6.79867889,16 5,17.7885341 5,19.9948028 L5,49.0051972 C5,51.2154131 6.79075687,53 8.99976742,53 L14,53 L14,60 L19.7272727,53 Z"/>
    <path fill="#FFF" d="M31.688,23.566 C31.7066668,24.3686707 31.7486663,25.6893241 31.814,27.528 C31.8513335,28.8253398 31.87,29.7539972 31.87,30.314 C31.87,31.5460062 31.772001,32.3859978 31.576,32.834 C31.379999,33.2820022 30.9833363,33.5293331 30.386,33.576 C29.6393296,33.6413337 28.9813362,33.4453356 28.412,32.988 C28.1319986,32.9039996 27.954667,32.8386669 27.88,32.792 C27.7213325,32.6986662 27.6186669,32.5400011 27.572,32.316 C27.4879996,31.8773311 27.8333295,31.658 28.608,31.658 C28.804001,31.658 28.9906658,31.6813331 29.168,31.728 C29.2986673,31.7560001 29.4433325,31.8656657 29.602,32.057 C29.7606675,32.2483343 29.9099993,32.3486666 30.05,32.358 C30.320668,32.3766668 30.456,31.9940039 30.456,31.21 C30.456,30.8739983 30.4326669,30.3280038 30.386,29.572 C30.0499983,30.1413362 29.8073341,30.5099992 29.658,30.678 C29.3499985,30.9953349 28.9906687,31.154 28.58,31.154 C28.0013304,31.154 27.5346684,30.7526707 27.18,29.95 C26.8533317,29.212663 26.69,28.3166719 26.69,27.262 C26.69,26.1793279 26.8626649,25.2646704 27.208,24.518 C27.600002,23.6779958 28.1413299,23.2486668 28.832,23.23 C29.2053352,23.2206666 29.4806658,23.2953325 29.658,23.454 C29.8353342,23.6126675 30.0079992,23.7759992 30.176,23.944 C30.0546661,23.6079983 30.0826658,23.3560008 30.26,23.188 C30.3626672,23.0853328 30.5166656,23.034 30.722,23.034 C30.918001,23.034 31.113999,23.0853328 31.31,23.188 C31.506001,23.2906672 31.6319997,23.4166659 31.688,23.566 Z M30.008,27.136 C30.0453335,26.594664 29.9800008,26.0813358 29.812,25.596 C29.6253324,25.054664 29.3826682,24.784 29.084,24.784 C28.8413321,24.784 28.6266676,25.054664 28.44,25.596 C28.2719992,26.0813358 28.1786668,26.594664 28.16,27.136 C28.1413332,27.7053362 28.1833328,28.2186644 28.286,28.676 C28.4166673,29.217336 28.5986655,29.488 28.832,29.488 C29.0373344,29.488 29.275332,29.224336 29.546,28.697 C29.816668,28.169664 29.9706665,27.6493359 30.008,27.136 Z M37.484,23.776 C38.1093365,24.4106698 38.422,25.4793258 38.422,26.982 C38.422,28.1486725 38.2026689,29.1426626 37.764,29.964 C37.2693309,30.8880046 36.5880043,31.35 35.72,31.35 C34.861329,31.35 34.198669,30.9346708 33.732,30.104 C33.3213313,29.3759964 33.116,28.4520056 33.116,27.332 C33.116,26.3426617 33.2746651,25.4560039 33.592,24.672 C33.9280017,23.8319958 34.3573307,23.3373341 34.88,23.188 C35.150668,23.113333 35.4306652,23.076 35.72,23.076 C36.4386703,23.076 37.0266644,23.309331 37.484,23.776 Z M35.888,24.448 C35.5799985,24.4199999 35.3140011,24.7093303 35.09,25.316 C34.893999,25.8666694 34.796,26.4453303 34.796,27.052 C34.796,27.9293377 34.833333,28.5499982 34.908,28.914 C35.0386673,29.5673366 35.3093313,29.9266663 35.72,29.992 C35.9813346,30.0293335 36.2239989,29.6700038 36.448,28.914 C36.6626677,28.1859964 36.77,27.4066708 36.77,26.576 C36.77,25.2133265 36.4760029,24.5040003 35.888,24.448 Z M30.204,41.268 C30.204,41.8560029 29.9006697,42.5233296 29.294,43.27 C29.1726661,43.4100007 28.5660055,44.0493276 27.474,45.188 C27.2966658,45.5240017 27.1193342,45.8553317 26.942,46.182 C26.7086655,46.4993349 26.4286683,46.6393335 26.102,46.602 C25.4673302,46.527333 24.9353355,46.1960029 24.506,45.608 C24.3566659,45.411999 24.282,45.2300008 24.282,45.062 C24.282,44.8753324 24.3846656,44.6980008 24.59,44.53 C24.4966662,44.0166641 24.4080004,42.6260113 24.324,40.358 C24.2586663,38.491324 24.226,37.2173367 24.226,36.536 C24.029999,36.2279985 23.932,35.9106683 23.932,35.584 C23.932,35.3413321 24.0019993,35.1453341 24.142,34.996 C24.2446672,34.8933328 24.393999,34.842 24.59,34.842 C25.0940025,34.842 25.5046651,35.0333314 25.822,35.416 C26.7273379,35.0799983 27.4646638,34.912 28.034,34.912 C28.6780032,34.912 29.1073323,35.1173313 29.322,35.528 C29.4620007,35.7893346 29.532,36.0786651 29.532,36.396 C29.532,37.3760049 29.0046719,38.4026613 27.95,39.476 L29.238,39.868 C29.6393353,40.0173341 29.9006661,40.220332 30.022,40.477 C30.1433339,40.733668 30.204,40.997332 30.204,41.268 Z M27.222,36.648 C26.9886655,36.648 26.5593365,36.8533313 25.934,37.264 C25.934,37.3480004 25.9433332,37.6209977 25.962,38.083 C25.9806668,38.5450023 25.99,38.8506659 25.99,39 C26.3633352,38.6826651 26.7063318,38.3023356 27.019,37.859 C27.3316682,37.4156644 27.488,37.0866677 27.488,36.872 C27.488,36.7226659 27.3993342,36.648 27.222,36.648 Z M27.698,41.1 C27.156664,41.1 26.6433358,41.3053313 26.158,41.716 L26.214,43.844 C27.5486733,42.7893281 28.216,42.0006693 28.216,41.478 C28.216,41.2259987 28.0433351,41.1 27.698,41.1 Z M33.466,45.888 C33.3819996,46.1213345 33.1393353,46.238 32.738,46.238 C32.6259994,46.238 32.5046673,46.2286668 32.374,46.21 C31.6086628,46.0886661 31.1606673,45.8600017 31.03,45.524 C31.0019999,45.4586663 30.988,45.3933337 30.988,45.328 C30.988,45.131999 31.0953323,44.936001 31.31,44.74 C31.2726665,43.339993 31.1886673,40.4840216 31.058,36.172 C31.0673334,36.0506661 31.034667,35.9083342 30.96,35.745 C30.885333,35.5816659 30.848,35.462667 30.848,35.388 C30.848,35.2199992 30.9553323,35.0426676 31.17,34.856 C31.3193341,34.7253327 31.529332,34.66 31.8,34.66 C32.1080015,34.66 32.4346649,34.7393325 32.78,34.898 C33.1906687,35.094001 33.396,35.3319986 33.396,35.612 C33.396,35.6773337 33.298001,35.9293311 33.102,36.368 L33.242,44.852 C33.242,44.9640006 33.2839996,45.1063325 33.368,45.279 C33.4520004,45.4516675 33.494,45.5893328 33.494,45.692 C33.494,45.7573337 33.4846668,45.8226663 33.466,45.888 Z M41.012,40.12 C41.0773337,41.3706729 40.8626691,42.6609934 40.368,43.991 C39.8733309,45.3210066 39.3460028,46.0699992 38.786,46.238 C38.5619989,46.312667 38.3426677,46.3406668 38.128,46.322 C37.9039989,46.2939999 37.6846677,46.2660001 37.47,46.238 C35.5473237,46.0139989 34.488001,43.9746859 34.292,40.12 C34.2359997,39.0746614 34.403998,37.9546726 34.796,36.76 C35.1600018,35.6493278 35.537998,34.9633346 35.93,34.702 C36.0233338,34.6366663 36.1259994,34.604 36.238,34.604 C36.3220004,34.604 36.4526658,34.6296664 36.63,34.681 C36.8073342,34.7323336 36.9426662,34.758 37.036,34.758 C37.1480006,34.758 37.3509985,34.7323336 37.645,34.681 C37.9390015,34.6296664 38.1559993,34.604 38.296,34.604 C38.4266673,34.604 38.5339996,34.6226665 38.618,34.66 C40.0646739,35.2480029 40.8626659,37.0679847 41.012,40.12 Z M39.122,40.12 C39.0286662,38.9533275 38.9026675,38.0760029 38.744,37.488 C38.4826654,36.4986617 38.0953359,36.004 37.582,36.004 C37.4419993,36.004 37.2950008,36.041333 37.141,36.116 C36.9869992,36.190667 36.7840013,36.6713289 36.532,37.558 C36.2706654,38.5286715 36.14,39.382663 36.14,40.12 C36.14,41.0813381 36.3079983,42.0916614 36.644,43.151 C36.9800017,44.2103386 37.3019985,44.74 37.61,44.74 C37.8993348,44.74 38.2213316,44.2640048 38.576,43.312 C38.9493352,42.3226617 39.136,41.3846711 39.136,40.498 C39.136,40.3673327 39.1313334,40.2413339 39.122,40.12 Z"/>
    <path stroke="#5EA7FF" stroke-linecap="round" stroke-linejoin="round" stroke-width="2" d="M34,12 L34,4"/>
    <path stroke="#5EA7FF" stroke-linecap="round" stroke-width="2" d="M27.4142177,12.227824 L22,7"/>
    <path stroke="#5EA7FF" stroke-linecap="round" stroke-width="2" d="M45.4142177,12.227824 L40,7" transform="matrix(-1 0 0 1 85.414 0)"/>
  </g>
</svg>
