<svg xmlns="http://www.w3.org/2000/svg" width="64" height="64" viewBox="0 0 64 64">
  <g fill="none" fill-rule="evenodd" stroke-linecap="round">
    <path fill="#FFAF40" stroke="#FFD98E" stroke-width="2" d="M7.78215769 46.9802904C7.90246868 46.438891 8.43861485 46 8.99874609 46L28.0012539 46C28.5528461 46 29.0964642 46.4340887 29.2178423 46.9802904L30.7821577 54.0197096C30.9024687 54.561109 30.5447371 55 30.004543 55L6.99545703 55C6.44568129 55 6.09646416 54.5659113 6.21784231 54.0197096L7.78215769 46.9802904zM34.7821577 46.9802904C34.9024687 46.438891 35.4386148 46 35.9987461 46L55.0012539 46C55.5528461 46 56.0964642 46.4340887 56.2178423 46.9802904L57.7821577 54.0197096C57.9024687 54.561109 57.5447371 55 57.004543 55L33.995457 55C33.4456813 55 33.0964642 54.5659113 33.2178423 54.0197096L34.7821577 46.9802904zM20.7821577 34.9802904C20.9024687 34.438891 21.4386148 34 21.9987461 34L41.0012539 34C41.5528461 34 42.0964642 34.4340887 42.2178423 34.9802904L43.7821577 42.0197096C43.9024687 42.561109 43.5447371 43 43.004543 43L19.995457 43C19.4456813 43 19.0964642 42.5659113 19.2178423 42.0197096L20.7821577 34.9802904zM20.7821577 22.9802904C20.9024687 22.438891 21.4386148 22 21.9987461 22L41.0012539 22C41.5528461 22 42.0964642 22.4340887 42.2178423 22.9802904L43.7821577 30.0197096C43.9024687 30.561109 43.5447371 31 43.004543 31L19.995457 31C19.4456813 31 19.0964642 30.5659113 19.2178423 30.0197096L20.7821577 22.9802904z"/>
    <path stroke="#FFDD95" stroke-width="2" d="M9.03657113 14.1217364L13 18M9.07915379 18.0425827L12.9574173 14.0791538M22.0365711 10.1217364L26 14M22.0791538 14.0425827L25.9574173 10.0791538M54.0365711 34.1217364L58 38M54.0791538 38.0425827L57.9574173 34.0791538"/>
  </g>
</svg>
