<svg xmlns="http://www.w3.org/2000/svg" width="64" height="64" viewBox="0 0 64 64">
  <g fill="none" fill-rule="evenodd">
    <rect width="58" height="58" x="3" y="3" fill="#5B68C0" rx="6"/>
    <path fill="#FFF" d="M35.5264309,33.3398812 L34.3390478,32.3544998 C34.1686488,32.1818182 33.991488,31.9803563 33.8102701,31.749429 C33.595919,31.5068524 33.4890816,31.2012334 33.4890816,30.832572 C33.4890816,30.4515761 33.5932143,30.117862 33.8021558,29.8293741 C33.9793167,29.5532206 34.1713536,29.3044769 34.3802951,29.0851987 C34.7454357,28.7624486 35.0889384,28.4451804 35.4128316,28.1340795 C35.7042679,27.8229785 35.9808281,27.4830973 36.241836,27.1137506 C36.7733185,26.3531293 37.0505549,25.3389676 37.0708405,24.0698949 C37.0708405,23.3771128 37.0931546,23.1715395 36.9396603,22.6528095 C36.7530329,22.1340795 36.5488246,21.6365921 36.2857882,21.3590681 C36.0112565,21.0945637 35.3411559,20.4189127 35.1207191,20.2818639 L37.2791058,20.2818639 L39,18 L32.0021479,18 C31.0737441,18 30.0783978,18.1103243 29.0174615,18.3289173 C27.94503,18.5824577 26.9111412,19.1238008 25.9164711,19.954317 C24.46808,21.3734582 23.7445607,22.9522613 23.7445607,24.6927821 C23.7445607,26.1352216 24.2550813,27.3967565 25.277475,28.4808132 C26.2538881,29.6450434 27.6738793,30.2377798 29.5367726,30.2617634 C29.8883895,30.2617634 30.2636729,30.2377798 30.6612704,30.1925537 C30.5950042,30.3775697 30.5233284,30.580402 30.4475956,30.801736 C30.3596913,31.009365 30.3157392,31.2697579 30.3157392,31.5835998 C30.3157392,32.1057561 30.4306909,32.5525354 30.6612704,32.9232526 C30.8580407,33.3063042 31.0825345,33.6660576 31.334752,34.0018273 C30.5192713,34.0251256 29.4928205,34.1285975 28.2574281,34.3129283 C27.0105406,34.530836 25.8197765,34.9687072 24.6864882,35.6251713 C23.676942,36.2357241 22.979794,36.9422111 22.595044,37.7480585 C22.1981226,38.5545911 22,39.2850617 22,39.9415258 C22,41.2880311 22.6099201,42.4447236 23.8297602,43.4109182 C25.0387813,44.4470078 26.8685414,44.9767017 29.3197168,45 C32.2476035,44.9534034 34.4871326,44.2441754 36.0396563,42.8730014 C37.537409,41.5463682 38.2852711,40.0251256 38.2852711,38.3065327 C38.2636331,37.0950206 37.9918062,36.1151211 37.4677618,35.3661489 C36.9105843,34.6253997 36.263474,33.9511192 35.5264309,33.3398812 L35.5264309,33.3398812 Z M31.1697625,28.0580174 C30.6687085,28.0580174 30.2231017,27.9031521 29.8329422,27.5927364 C29.4427827,27.2836912 29.1249751,26.9054363 28.8781671,26.4613979 C28.3689988,25.5075377 28.1140766,24.5893102 28.1140766,23.7074006 C28.0985243,23.0392873 28.2729804,22.4369575 28.6367686,21.8956144 C29.0688517,21.3796254 29.6111531,21.1123801 30.2636729,21.0966195 C30.7559365,21.1123801 31.1927529,21.2603929 31.5720934,21.5379169 C31.9433197,21.8318867 32.2428702,22.2128826 32.4700688,22.682275 C32.9555706,23.6594335 33.1983215,24.6290544 33.1983215,25.5904523 C33.1983215,25.8131567 33.1814168,26.0872545 33.1462551,26.4127455 C33.0881031,26.7382366 32.9562468,27.05619 32.7533909,27.3659205 C32.3314506,27.8037917 31.8040253,28.0340338 31.1697625,28.0580174 L31.1697625,28.0580174 Z M33.5932143,41.5367748 C32.9623324,42.0555048 32.0488047,42.3234354 30.851955,42.3405665 C29.5178394,42.3241206 28.4670459,42.0226131 27.6988982,41.4367291 C26.8908556,40.8515304 26.4864962,40.1059845 26.4864962,39.2021471 C26.4864962,38.7416629 26.5798099,38.3483326 26.7657611,38.0221562 C26.9273696,37.713111 27.1254922,37.4534034 27.3594527,37.2430333 C27.6022036,37.042942 27.8408973,36.8880767 28.075534,36.7791229 C28.3094945,36.6790772 28.4913886,36.6030151 28.6205402,36.5529922 C29.1702796,36.3864778 29.7078477,36.2645043 30.2339207,36.1891275 C30.7674317,36.1391046 31.0994392,36.1226587 31.2279146,36.1391046 C31.4469989,36.1391046 31.6363311,36.1466423 31.7986158,36.1644587 C32.7446005,36.8339424 33.4390438,37.3985838 33.8839744,37.8597533 C34.3045623,38.3442211 34.5148562,38.9136592 34.5148562,39.5666971 C34.5148562,40.3691183 34.2071914,41.0262677 33.5932143,41.5367748 L33.5932143,41.5367748 Z"/>
    <path stroke="#FFF" stroke-width="2" d="M43 27L43 35M39 31L47 31"/>
  </g>
</svg>
