<svg xmlns="http://www.w3.org/2000/svg" width="64" height="64" viewBox="0 0 64 64">
  <g fill="none" fill-rule="evenodd">
    <path fill="#E43535" d="M34.6244707,36.195557 L32.2558744,34.2558978 C31.9159619,33.9159853 31.5625608,33.5194208 31.2010666,33.0648553 C30.7734783,32.5873593 30.5603586,31.9857682 30.5603586,31.260082 C30.5603586,30.5101164 30.7680829,29.8532221 31.1848803,29.2853525 C31.5382814,28.7417623 31.9213573,28.2521265 32.3381548,27.8204916 C33.0665386,27.1851791 33.751759,26.5606574 34.3978624,25.9482754 C34.9792206,25.3358934 35.5309039,24.6668594 36.0515635,23.9398244 C37.1117667,22.4425909 37.6647988,20.4462796 37.7052646,17.9481928 C37.7052646,16.5844964 37.749777,16.1798387 37.443586,15.1587524 C37.0713009,14.1376662 36.6639455,13.1583946 36.1392393,12.6121067 C35.5916026,12.0914471 34.2548834,10.7614722 33.8151553,10.4917004 L38.1207132,10.4917004 L41.5535593,6 L27.5942177,6 C25.7422344,6 23.756714,6.21716629 21.6403542,6.64745231 C19.5010639,7.14653013 17.4386585,8.21212872 15.454487,9.8469458 C12.565231,12.6404327 11.1219519,15.7482038 11.1219519,19.1743056 C11.1219519,22.0136538 12.1403405,24.4969031 14.1798152,26.630798 C16.1275676,28.9225094 18.9601714,30.0892724 22.6762779,30.1364825 C23.3776846,30.1364825 24.1263013,30.0892724 24.9194304,30.0002477 C24.7872422,30.3644397 24.6442632,30.7637019 24.493191,31.1993834 C24.3178393,31.6080876 24.2301635,32.1206541 24.2301635,32.7384315 C24.2301635,33.766262 24.4594695,34.6457181 24.9194304,35.3754508 C25.3119483,36.1294629 25.7597695,36.8376139 26.2628939,37.4985548 C24.63617,37.544416 22.5886021,37.7480937 20.1242367,38.1109368 C17.6369408,38.5398739 15.2616001,39.4017948 13.0009125,40.6940017 C10.987066,41.895835 9.59639243,43.2865087 8.82889167,44.8727668 C8.03711145,46.4603738 7.64189577,47.8982575 7.64189577,49.1904644 C7.64189577,51.8409723 8.85856657,54.1178462 11.2919082,56.0197374 C13.703668,58.0592121 17.3536804,59.1018801 22.2432942,59.1477413 C28.0838535,59.0560189 32.5512745,57.6599499 35.6482547,54.9608831 C38.6359773,52.3494921 40.1278153,49.3550252 40.1278153,45.9720869 C40.0846518,43.5873042 39.5424105,41.6584359 38.4970448,40.184133 C37.385585,38.7260165 36.094727,37.3987392 34.6244707,36.195557 L34.6244707,36.195557 Z M25.9337723,25.798552 C24.9342678,25.798552 24.0453698,25.4937099 23.2670781,24.8826768 C22.4887865,24.2743414 21.8548228,23.5297712 21.3624893,22.6557106 C20.3467985,20.7780989 19.8382786,18.9706279 19.8382786,17.2346464 C19.8072549,15.9195089 20.1552605,14.7338619 20.8809466,13.6682633 C21.7428675,12.6525725 22.8246524,12.1265175 24.1263013,12.0954937 C25.1082706,12.1265175 25.9796335,12.417871 26.7363434,12.9641589 C27.476867,13.5428194 28.0744115,14.292785 28.5276281,15.2167534 C29.4961089,17.1402263 29.9803493,19.0488617 29.9803493,20.9413109 C29.9803493,21.37969 29.9466278,21.9192336 29.8764871,22.5599416 C29.7604852,23.2006497 29.4974577,23.8265202 29.0928001,24.4362045 C28.2511121,25.2981254 27.1990021,25.751342 25.9337723,25.798552 L25.9337723,25.798552 Z M30.7680829,52.3306081 C29.5095975,53.3516943 27.687289,53.8790982 25.2998086,53.9128197 C22.6385099,53.880447 20.542383,53.2869491 19.0100792,52.1336747 C17.3981927,50.9817491 16.5915751,49.5141905 16.5915751,47.7350456 C16.5915751,46.8286123 16.7777176,46.0543673 17.1486538,45.4123104 C17.4710311,44.803975 17.8662468,44.2927574 18.332952,43.8786577 C18.8171924,43.4847909 19.2933396,43.1799488 19.7613937,42.9654802 C20.2280989,42.7685468 20.5909419,42.6188235 20.848574,42.5203568 C21.9451963,42.192584 23.0175392,41.9524871 24.0669515,41.8041126 C25.1312012,41.7056459 25.793491,41.6732733 26.0497742,41.7056459 C26.4868045,41.7056459 26.864485,41.7204834 27.1882112,41.7555537 C29.0752649,43.0733889 30.4605431,44.1848487 31.3480923,45.0926308 C32.1870825,46.0462741 32.6065777,47.1671759 32.6065777,48.4526385 C32.6065777,50.0321524 31.9928469,51.3257081 30.7680829,52.3306081 L30.7680829,52.3306081 Z"/>
    <path stroke="#E43535" stroke-width="4" d="M49 23L49 39M41 31L57 31"/>
  </g>
</svg>
