<svg xmlns="http://www.w3.org/2000/svg" width="64" height="64" viewBox="0 0 64 64">
  <g fill="none" fill-rule="evenodd">
    <polygon fill="#E6E6E6" points="19.045 4 50 4 50 60 12 60 12 10.065"/>
    <polygon fill="#979797" fill-rule="nonzero" points="17 17 43.021 17 43.021 15 17 15"/>
    <polygon fill="#979797" fill-rule="nonzero" points="17 25 43.021 25 43.021 23 17 23"/>
    <polygon fill="#979797" fill-rule="nonzero" points="17 21 30 21 30 19 17 19"/>
    <polygon fill="#979797" fill-rule="nonzero" points="17 29 30 29 30 27 17 27"/>
    <polygon fill="#979797" fill-rule="nonzero" points="31 21 45 21 45 19 31 19"/>
    <polygon fill="#CDCDCD" points="19 4 19 10 12 10"/>
    <path fill="#FB3A3A" d="M38.705,54.385 C38.695,54.4750005 38.6750002,54.6899983 38.645,55.03 C38.635,55.2100009 38.5950004,55.3449996 38.525,55.435 C38.4749998,55.4650002 38.3900006,55.48 38.27,55.48 C37.9399984,55.48 37.5300025,55.3950008 37.04,55.225 C36.5099974,55.0649992 36.150001,54.8750011 35.96,54.655 C35.8799996,54.5649996 35.8000004,54.2650025 35.72,53.755 C35.6099995,53.0849966 35.4850007,52.5300022 35.345,52.09 C34.9649981,52.1400002 34.4100037,52.2774989 33.68,52.5025 C32.9499964,52.7275011 32.4750011,52.9149993 32.255,53.065 C32.1049993,53.4950022 31.9050013,54.0249968 31.655,54.655 C31.6249999,54.7950007 31.5925002,54.9274994 31.5575,55.0525 C31.5224998,55.1775006 31.4350007,55.2799996 31.295,55.36 C31.2649999,55.3800001 31.2200003,55.39 31.16,55.39 C30.9199988,55.39 30.5175028,55.2650012 29.9525,55.015 C29.3874972,54.7649988 29.0950001,54.6000004 29.075,54.52 C29.0349998,54.3799993 29.1299989,54.0350027 29.36,53.485 C29.6800016,52.684996 29.8649998,52.1950009 29.915,52.015 C29.704999,51.804999 29.6,51.595001 29.6,51.385 C29.6,51.3349997 29.605,51.2800003 29.615,51.22 C29.6350001,51.0999994 29.9399971,50.8850015 30.53,50.575 L32.465,43.96 C32.4950002,43.8399994 32.5000001,43.6200016 32.48,43.3 C32.4599999,43.0299987 32.4899996,42.8600003 32.57,42.79 C32.6200003,42.7399998 32.7399991,42.715 32.93,42.715 C33.4000024,42.715 34.0699957,42.8349988 34.94,43.075 C35.8100044,43.3150012 36.3299992,43.5299991 36.5,43.72 C36.5600003,44.8300056 36.7849981,46.4949889 37.175,48.715 C37.6750025,51.4550137 38.1849974,53.3449948 38.705,54.385 Z M34.79,49.825 C34.6599994,49.1949969 34.5800002,48.780001 34.55,48.58 C34.4399995,47.9099967 34.3650002,47.2150036 34.325,46.495 C34.124999,46.9850025 33.8900014,47.6649957 33.62,48.535 C33.3299986,49.4450046 33.1750001,50.0149988 33.155,50.245 C33.345001,50.1649996 33.8899955,50.025001 34.79,49.825 Z M45.95,49.375 L43.85,49.375 L43.85,51.1 C43.85,51.1700004 43.8774997,51.2574995 43.9325,51.3625 C43.9875003,51.4675005 44.0100001,51.5549997 44,51.625 C43.9799999,51.7750008 43.9025007,51.8999995 43.7675,52 C43.6324993,52.1000005 43.4850008,52.15 43.325,52.15 C43.2549997,52.15 43.1900003,52.1400001 43.13,52.12 C43.0399996,52.0899999 42.9200008,51.9975008 42.77,51.8425 C42.6199993,51.6874992 42.4750007,51.5350007 42.335,51.385 C42.1449991,51.2449993 41.9300012,51.0400014 41.69,50.77 C41.6699999,50.7099997 41.6799998,50.6325005 41.72,50.5375 C41.7600002,50.4424995 41.78,50.3700002 41.78,50.32 L41.78,49.435 L40.79,49.51 C40.7399998,49.51 40.6825003,49.5299998 40.6175,49.57 C40.5524997,49.6100002 40.5000002,49.63 40.46,49.63 C40.4199998,49.63 40.3800002,49.6200001 40.34,49.6 C40.0199984,49.4199991 39.6300023,48.9400039 39.17,48.16 C39.0699995,47.9899992 39.0449998,47.8300007 39.095,47.68 C39.1450003,47.5299992 39.2799989,47.4300003 39.5,47.38 C39.5500003,47.3699999 39.7549982,47.3500002 40.115,47.32 C40.905004,47.2599997 41.4349987,47.23 41.705,47.23 L41.705,44.455 C41.705,44.3749996 41.7899992,44.2775006 41.96,44.1625 C42.1300009,44.0474994 42.2949992,43.9800001 42.455,43.96 C42.5850007,43.9399999 42.8349982,44.1499978 43.205,44.59 C43.5750019,45.0300022 43.8049996,45.3899986 43.895,45.67 C43.9350002,45.8100007 43.955,45.9349994 43.955,46.045 C43.955,46.1150003 43.9375002,46.2574989 43.9025,46.4725 C43.8674998,46.6875011 43.85,46.9049989 43.85,47.125 L44.9,47.125 C45.0700009,47.125 45.2949986,47.0950003 45.575,47.035 C45.8050012,46.9949998 45.9499997,46.9799999 46.01,46.99 C46.1600008,47.0300002 46.3099993,47.2724978 46.46,47.7175 C46.6100008,48.1625022 46.685,48.5499984 46.685,48.88 C46.685,49.1000011 46.6150007,49.2449996 46.475,49.315 C46.3849996,49.3550002 46.2100013,49.375 45.95,49.375 Z"/>
  </g>
</svg>
