<svg xmlns="http://www.w3.org/2000/svg" width="64" height="64" viewBox="0 0 64 64">
  <g fill="none" fill-rule="evenodd">
    <rect width="13" height="42" x="8" y="20" fill="#80D25B"/>
    <polygon fill="#5DAF38" points="13 7 16 7 19 20 10 20"/>
    <rect width="13" height="3" x="8" y="35" fill="#D8D8D8"/>
    <rect width="13" height="11" x="8" y="40" fill="#D8D8D8"/>
    <rect width="13" height="42" x="25" y="20" fill="#BD7575"/>
    <polygon fill="#9F5757" points="30 7 33 7 36 20 27 20"/>
    <rect width="13" height="3" x="25" y="35" fill="#D8D8D8"/>
    <rect width="13" height="11" x="25" y="40" fill="#D8D8D8"/>
    <rect width="13" height="42" x="42" y="20" fill="#4796E7"/>
    <polygon fill="#595959" points="47 7 50 7 53 20 44 20"/>
    <rect width="13" height="3" x="42" y="35" fill="#D8D8D8"/>
    <rect width="13" height="11" x="42" y="40" fill="#D8D8D8"/>
  </g>
</svg>
