<svg xmlns="http://www.w3.org/2000/svg" width="64" height="64" viewBox="0 0 64 64">
  <g fill="none" fill-rule="evenodd">
    <polygon fill="#FFAF40" points="22 18 60.722 18 53 28 22 28"/>
    <path fill="#ED9111" d="M19,11 L55.9984123,11 C59.3129976,11 62,13.6930342 62,17 L62,23 L19,23 L19,11 Z"/>
    <path fill="#B4DFFB" d="M3,22 L24,22 C24,22 33.8626933,27.3116445 33.8626933,43 C33.8626933,58.6883555 21,64 21,64 L3,64 L3,22 Z"/>
    <path fill="#5EA7FF" d="M3,37 L12.022656,37 C16.4284214,37 19.4770699,40.5297785 18.8295893,44.9002725 L16,64 L3,64 L3,37 Z"/>
    <circle cx="17" cy="21" r="14" fill="#5EA7FF"/>
    <circle cx="19" cy="16" r="3" fill="#595959"/>
  </g>
</svg>
