<svg xmlns="http://www.w3.org/2000/svg" width="64" height="64" viewBox="0 0 64 64">
  <g fill="none" fill-rule="evenodd">
    <rect width="43" height="43" x="17" y="4" fill="#80D25B"/>
    <rect width="5" height="8" x="12" y="13" fill="#D8D8D8"/>
    <rect width="5" height="8" x="12" y="32" fill="#D8D8D8"/>
    <rect width="7" height="54" x="5" y="4" fill="#BD7575"/>
    <path fill="#FFF" d="M32.182,27.884 C32.0513327,28.0520008 31.8320015,28.1406666 31.524,28.15 C31.2626654,28.1593334 31.0060013,28.164 30.754,28.164 C30.6326661,29.1346715 30.4040017,30.0166627 30.068,30.81 C29.7133316,31.6313374 29.3353353,32.1259992 28.934,32.294 C28.8686663,32.3220001 28.7940004,32.336 28.71,32.336 C28.3366648,32.336 27.9120024,32.1260021 27.436,31.706 C26.9133307,31.239331 26.4840017,30.6466703 26.148,29.928 C25.7653314,29.069329 25.574,28.1453383 25.574,27.156 C25.5833334,25.5226585 25.8119978,24.0806729 26.26,22.83 C26.7920027,21.3366592 27.5153288,20.5853334 28.43,20.576 C29.1113367,20.5666666 29.6666645,20.9959957 30.096,21.864 C30.4226683,22.5080032 30.6513327,23.3386616 30.782,24.356 C30.9313341,24.5426676 31.006,24.7479989 31.006,24.972 C31.006,25.2053345 30.9313341,25.3943326 30.782,25.539 C30.6326659,25.6836674 30.4460011,25.756 30.222,25.756 C29.9699987,25.756 29.7016681,25.6930006 29.417,25.567 C29.1323319,25.4409994 28.9433338,25.3080007 28.85,25.168 C28.7939997,25.0839996 28.766,24.9953338 28.766,24.902 C28.766,24.9486669 28.803333,24.7666687 28.878,24.356 C28.7473327,23.2733279 28.5980008,22.732 28.43,22.732 C28.2806659,22.732 28.0893345,23.2453282 27.856,24.272 C27.6039987,25.3453387 27.478,26.2973292 27.478,27.128 C27.478,27.7160029 27.5736657,28.3809963 27.765,29.123 C27.9563343,29.8650037 28.1219993,30.236 28.262,30.236 C28.3926673,30.236 28.5419992,30.0353353 28.71,29.634 C28.8780008,29.2326647 28.9899997,28.8266687 29.046,28.416 C28.8219989,28.3133328 28.5980011,28.1360013 28.374,27.884 C28.1219987,27.6039986 27.996,27.3473345 27.996,27.114 C27.996,26.9646659 28.0613327,26.8363339 28.192,26.729 C28.3226673,26.6216661 28.5419985,26.5633334 28.85,26.554 C29.6806708,26.5353332 30.1379996,26.5213334 30.222,26.512 C30.3620007,26.4466663 30.5089992,26.3790003 30.663,26.309 C30.8170008,26.2389996 30.9546661,26.204 31.076,26.204 C31.3653348,26.204 31.6476653,26.3346654 31.923,26.596 C32.1983347,26.8573346 32.336,27.1326652 32.336,27.422 C32.336,27.5993342 32.2846672,27.7533327 32.182,27.884 Z M39.532,21.528 C39.5506668,21.8080014 39.4200014,22.0693321 39.14,22.312 C38.7946649,22.6106682 38.5893337,22.8439992 38.524,23.012 L35.864,29.704 L36.004,31.132 C36.0506669,31.5613355 36.074,31.738667 36.074,31.664 C36.074,31.9813349 35.8920018,32.2006661 35.528,32.322 C35.3786659,32.3780003 35.2106676,32.406 35.024,32.406 C34.6133313,32.406 34.2633348,32.3033344 33.974,32.098 C33.6473317,31.8739989 33.5119997,31.5893351 33.568,31.244 C33.5960001,31.0853325 33.6986658,30.8800013 33.876,30.628 C34.0440008,30.4039989 34.1186668,30.1986676 34.1,30.012 L33.96,28.472 L31.888,22.34 C31.8506665,22.2186661 31.734001,22.0180014 31.538,21.738 C31.3886659,21.5046655 31.314,21.3180007 31.314,21.178 C31.314,21.0846662 31.3373331,20.9960004 31.384,20.912 C31.5053339,20.6786655 31.8833302,20.562 32.518,20.562 C32.9286687,20.562 33.1853328,20.5946663 33.288,20.66 C33.5960015,20.856001 33.7639999,21.0916653 33.792,21.367 C33.8200001,21.6423347 33.8479999,21.9106654 33.876,22.172 L35.192,26.26 L36.9,21.836 C37.0773342,21.3786644 37.1939997,21.0916672 37.25,20.975 C37.3060003,20.8583327 37.4413323,20.7533338 37.656,20.66 C37.8146675,20.585333 37.991999,20.548 38.188,20.548 C38.5240017,20.548 38.827332,20.6413324 39.098,20.828 C39.368668,21.0146676 39.5133332,21.2479986 39.532,21.528 Z M52.398,31.972 C52.1833323,32.2800015 51.8706687,32.434 51.46,32.434 C51.0866648,32.434 50.6993353,32.3126679 50.298,32.07 C49.9339982,31.8553323 49.7286669,31.6453344 49.682,31.44 C49.6633332,31.365333 49.654,31.2953337 49.654,31.23 C49.654,31.0806659 49.7169994,30.9126676 49.843,30.726 C49.9690006,30.5393324 50.0273334,30.3760007 50.018,30.236 L49.598,25.532 L47.19,30.964 C47.1619999,31.038667 47.148,31.1273328 47.148,31.23 C47.148,31.304667 47.1596665,31.4213325 47.183,31.58 C47.2063334,31.7386675 47.218,31.8599996 47.218,31.944 C47.218,32.1586677 47.1340008,32.3219994 46.966,32.434 C46.7233321,32.6020008 46.4386683,32.686 46.112,32.686 C45.7853317,32.686 45.4890013,32.5996675 45.223,32.427 C44.9569987,32.2543325 44.7913337,32.0280014 44.726,31.748 C44.7073332,31.6639996 44.698,31.5893337 44.698,31.524 C44.698,31.4586663 44.7073332,31.3793338 44.726,31.286 C44.7446668,31.1926662 44.754,31.1226669 44.754,31.076 C44.754,31.0199997 44.7446668,30.9640003 44.726,30.908 L42.71,25.532 L42.906,30.6 C42.9153334,30.7306673 42.9479997,30.9149988 43.004,31.153 C43.0600003,31.3910012 43.088,31.5659994 43.088,31.678 C43.088,32.0233351 42.8313359,32.293999 42.318,32.49 C42.2526663,32.5086668 42.1733338,32.518 42.08,32.518 C41.7906652,32.518 41.4920015,32.420001 41.184,32.224 C40.8293316,32.0093323 40.6006672,31.7293351 40.498,31.384 C40.4793332,31.3279997 40.47,31.2766669 40.47,31.23 C40.47,31.1366662 40.5259994,31.0316673 40.638,30.915 C40.7500006,30.7983328 40.806,30.6933338 40.806,30.6 L40.638,22.62 C40.638,22.4893327 40.5913338,22.3236677 40.498,22.123 C40.4046662,21.9223323 40.358,21.7706672 40.358,21.668 C40.358,21.5093325 40.4419992,21.3390009 40.61,21.157 C40.7780008,20.9749991 41.0719979,20.884 41.492,20.884 C42.1080031,20.884 42.5979982,21.0333318 42.962,21.332 C43.1673344,21.5000008 43.27,21.6773324 43.27,21.864 C43.27,21.8920001 43.2653334,21.9339997 43.256,21.99 L43.256,22.116 C43.256,22.2000004 43.2699999,22.2746663 43.298,22.34 L46.07,29.06 L49.178,21.92 C49.2153335,21.8359996 49.234,21.7380006 49.234,21.626 C49.234,21.5886665 49.2293334,21.532667 49.22,21.458 L49.22,21.29 C49.22,21.0753323 49.317999,20.8933341 49.514,20.744 C49.6726675,20.6226661 49.8826654,20.562 50.144,20.562 C50.5453353,20.562 50.9349981,20.6833321 51.313,20.926 C51.6910019,21.1686679 51.8753334,21.4439985 51.866,21.752 C51.8566666,21.9013341 51.7866673,22.0249995 51.656,22.123 C51.5253327,22.2210005 51.4646666,22.3119996 51.474,22.396 L52.062,30.656 C52.0713334,30.7493338 52.1459993,30.9103322 52.286,31.139 C52.4260007,31.3676678 52.496,31.5519993 52.496,31.692 C52.496,31.7853338 52.4633337,31.8786662 52.398,31.972 Z"/>
  </g>
</svg>
