<svg xmlns="http://www.w3.org/2000/svg" width="64" height="64" viewBox="0 0 64 64">
  <g fill="none" fill-rule="evenodd">
    <path fill="#D650C7" d="M32,62.2627726 C32,62.2627726 9,37.7025492 9,25 C9,12.2974508 19.2974508,2 32,2 C44.7025492,2 55,12.2974508 55,25 C55,37.7025492 32,62.2627726 32,62.2627726 Z M32,39 C40.2842712,39 47,32.2842712 47,24 C47,15.7157288 40.2842712,9 32,9 C23.7157288,9 17,15.7157288 17,24 C17,32.2842712 23.7157288,39 32,39 Z"/>
    <rect width="25" height="2" x="20" y="23" fill="#595959"/>
    <rect width="5" height="12" x="21" y="18" fill="#979797" rx="2"/>
    <rect width="5" height="12" x="39" y="18" fill="#979797" rx="2"/>
  </g>
</svg>
