<svg xmlns="http://www.w3.org/2000/svg" width="64" height="64" viewBox="0 0 64 64">
  <g fill="none" fill-rule="evenodd">
    <g transform="translate(10 4)">
      <path fill="#B4DFFB" d="M7.07142857,0 C2.81094622,0 0,4.89288809 0,10.9285714 C0,16.9642548 2.81094622,36 7.07142857,36 C9.55684234,36 9.83916051,20.1920244 13.1785714,20.177711 C17.1608395,20.1920244 16.8003005,36 19.2857143,36 C23.5461966,36 26.3571429,16.9642548 26.3571429,10.9285714 C26.3571429,4.89288809 23.5461966,0 19.2857143,0 C17.25,0 15.2142857,1.92857143 13.1785714,1.92857143 C11.1428571,1.92857143 9.10714286,0 7.07142857,0 Z"/>
      <path stroke="#FFF" stroke-linecap="round" stroke-width="2" d="M8.17857143,3 C5.41714768,3 3.17857143,5.23857625 3.17857143,8"/>
    </g>
    <g transform="matrix(0 1 1 0 5 42)">
      <path fill="#FCC24C" d="M2,13.5 C2,12.1192881 3.11962422,11 4.50653076,11 L15,11 L15,16 L4.50653076,16 C3.12221205,16 2,14.8903379 2,13.5 L2,13.5 Z" transform="rotate(31 8.5 13.5)"/>
      <path fill="#FFDD95" d="M5.74754919,45 L5.72261255,33.7278318 C5.72261255,33.7278318 -2.07361885,19.2972435 0.533437164,17.1467274 C3.14049318,14.9962114 6.86640485,22.8939456 6.86640485,22.8939456 L8.80393538,19.7465907 L8.98743148,9.39428538 L6.33491838,4.25482498 C5.82680831,3.27032029 6.20643971,2.03932817 7.16474182,1.51522993 L8.09249696,1.0078379 C9.05890586,0.479306025 10.2606359,0.845765847 10.7776149,1.82820886 L14.4640841,8.83380412 L15.9704723,20.4872241 C15.9704723,20.4872241 18.8043877,24.9512976 15.0686802,44.5559449"/>
      <rect width="17" height="8" x="2" y="44" fill="#5B68C0"/>
    </g>
  </g>
</svg>
