<svg xmlns="http://www.w3.org/2000/svg" width="64" height="64" viewBox="0 0 64 64">
  <g fill="none" fill-rule="evenodd">
    <path fill="#FFDD95" d="M3.32524163,27.0978733 C3.32524163,27.0978733 6.11129694,27.3886417 10.5916007,27.2432575 C15.0719046,27.0978733 21.2108235,28.9275286 24.5750898,34.6588017 C24.5750898,34.6588017 34.987639,31.7093079 39.3206581,40.4147805 C39.3206581,40.4147805 42.7267343,41.2666559 43.1809411,40.7601868 C43.6351479,40.2537177 40.493709,36.3349959 41.3151773,23.4993769 C41.3151773,23.4993769 39.3505902,21.4948804 37.1821801,21.0031397 C35.0137701,20.5113991 34.1471663,21.8084541 31.8300463,19.5540489 C29.5129262,17.2996436 27.6224566,13.8061469 28.5646032,12.8174394 C29.5067498,11.8287318 30.7144839,11.8116278 30.7144839,11.8116278 C30.7144839,11.8116278 30.7444159,9.06025564 32.7213559,9.00181689 C34.6982959,8.94337815 41.9884106,10.2974466 43.6902609,12.6611276 C45.3921112,15.0248086 45.9917022,20.3009246 49.4020544,24.6957083 C52.8124065,29.090492 59.340442,36.3540004 57.4894066,50.4429643 C57.4894066,50.4429643 36.8448508,61.9620487 19.3854442,54.3920932 C19.3854442,54.3920932 18.1322494,59.41598 12.2924389,62.9062293 C12.2924389,62.9062293 7.74710669,55.4131083 3.87589615,46.1089949 C0.00468559737,36.8048815 3.32524163,27.0978733 3.32524163,27.0978733 Z"/>
    <path stroke="#5EA7FF" stroke-linecap="round" stroke-width="2" d="M50.0700635 17.5721316L54.0888998 11.7418256M54.2182905 23.493848L59.3945619 18.8924317M56.4024826 29.6183408L61.4757565 29.1670827"/>
  </g>
</svg>
