<svg xmlns="http://www.w3.org/2000/svg" width="64" height="64" viewBox="0 0 64 64">
  <path fill="#FFDD95" fill-rule="evenodd" d="M5.32524163,27.0978733 C5.32524163,27.0978733 8.11129694,27.3886417 12.5916007,27.2432575 C17.0719046,27.0978733 23.2108235,28.9275286 26.5750898,34.6588017 C26.5750898,34.6588017 36.987639,31.7093079 41.3206581,40.4147805 C41.3206581,40.4147805 44.7267343,41.2666559 45.1809411,40.7601868 C45.6351479,40.2537177 42.493709,36.3349959 43.3151773,23.4993769 C43.3151773,23.4993769 41.3505902,21.4948804 39.1821801,21.0031397 C37.0137701,20.5113991 36.1471663,21.8084541 33.8300463,19.5540489 C31.5129262,17.2996436 29.6224566,13.8061469 30.5646032,12.8174394 C31.5067498,11.8287318 32.7144839,11.8116278 32.7144839,11.8116278 C32.7144839,11.8116278 32.7444159,9.06025564 34.7213559,9.00181689 C36.6982959,8.94337815 43.9884106,10.2974466 45.6902609,12.6611276 C47.3921112,15.0248086 47.9917022,20.3009246 51.4020544,24.6957083 C54.8124065,29.090492 61.340442,36.3540004 59.4894066,50.4429643 C59.4894066,50.4429643 38.8448508,61.9620487 21.3854442,54.3920932 C21.3854442,54.3920932 20.1322494,59.41598 14.2924389,62.9062293 C14.2924389,62.9062293 9.74710669,55.4131083 5.87589615,46.1089949 C2.0046856,36.8048815 5.32524163,27.0978733 5.32524163,27.0978733 Z"/>
</svg>
