<svg xmlns="http://www.w3.org/2000/svg" width="64" height="64" viewBox="0 0 64 64">
  <g fill="none" fill-rule="evenodd">
    <path fill="#5B68C0" d="M1,24.0018785 C1,21.791702 2.79309123,20 5.00180999,20 L40.99819,20 C43.2083286,20 45,21.7921947 45,24.0018785 L45,44.9981215 C45,47.208298 43.2069088,49 40.99819,49 L5.00180999,49 C2.79167136,49 1,47.2078053 1,44.9981215 L1,24.0018785 Z"/>
    <circle cx="10" cy="29" r="5" stroke="#F5413E" stroke-linecap="round" stroke-width="2"/>
    <circle cx="14" cy="29" r="5" stroke="#FFAF40" stroke-linecap="round" stroke-width="2"/>
    <rect width="18" height="3" x="4" y="42" fill="#D8D8D8"/>
    <path fill="#FFDD95" d="M29.0988064,13.1267381 L32.9208737,10 L39.832189,10.0538319 L46.1686561,13.9870878 L55.957096,14.0771281 L55.3780823,27.1839222 L48.7804662,27.0881141 L43.0005828,29.506706 L34.5009457,19.4918865 C34.5009457,19.4918865 25.8547723,25.2398785 25.2323081,24.5064511 C25.0594862,24.3028213 22.0869511,22.3215783 22.4966887,21.029693 C22.9064263,19.7378077 29.0988064,13.1267381 29.0988064,13.1267381 Z"/>
    <path stroke="#FFAF40" stroke-linecap="round" stroke-width="2" d="M44.1389288,30.835198 L33.571055,19.5830017 L27.5410308,23.8403875 C26.1857774,24.7972388 24.1699578,24.5929997 23.0361299,23.3815977 L23.6122819,23.9971687 C22.4795473,22.7869348 22.4605064,20.8096733 23.5698992,19.5806695 L32.1081753,10.1218253 L40.0930898,10.0429411 L46.2840925,14.0118035 L54.2876716,13.9931389"/>
    <polyline stroke="#FFAF40" stroke-linecap="round" stroke-width="2" points="43.421 29.745 49.323 27.029 55.114 27.049"/>
    <rect width="9" height="19" x="54" y="11.984" fill="#D8D8D8"/>
    <rect width="2" height="2" x="57" y="14.984" fill="#979797"/>
  </g>
</svg>
