<svg xmlns="http://www.w3.org/2000/svg" width="64" height="64" viewBox="0 0 64 64">
  <g fill="none" fill-rule="evenodd">
    <g transform="matrix(0 1 1 0 7 44)">
      <path fill="#FCC24C" d="M2,13.5 C2,12.1192881 3.11962422,11 4.50653076,11 L15,11 L15,16 L4.50653076,16 C3.12221205,16 2,14.8903379 2,13.5 L2,13.5 Z" transform="rotate(31 8.5 13.5)"/>
      <path fill="#FFDD95" d="M5.74754919,45 L5.72261255,33.7278318 C5.72261255,33.7278318 -2.07361885,19.2972435 0.533437164,17.1467274 C3.14049318,14.9962114 6.86640485,22.8939456 6.86640485,22.8939456 L8.80393538,19.7465907 L8.98743148,9.39428538 L6.33491838,4.25482498 C5.82680831,3.27032029 6.20643971,2.03932817 7.16474182,1.51522993 L8.09249696,1.0078379 C9.05890586,0.479306025 10.2606359,0.845765847 10.7776149,1.82820886 L14.4640841,8.83380412 L15.9704723,20.4872241 C15.9704723,20.4872241 18.8043877,24.9512976 15.0686802,44.5559449"/>
      <rect width="17" height="8" x="2" y="44" fill="#595959"/>
    </g>
    <path fill="#4796E7" d="M12.6613253 39.1453817C16.3402737 39.1453817 19.3226506 36.1630047 19.3226506 32.4840564 19.3226506 28.805108 12.6613253 19 12.6613253 19 12.6613253 19 6 28.805108 6 32.4840564 6 36.1630047 8.98237692 39.1453817 12.6613253 39.1453817zM30.6613253 20.1453817C34.3402737 20.1453817 37.3226506 17.1630047 37.3226506 13.4840564 37.3226506 9.80510798 30.6613253 0 30.6613253 0 30.6613253 0 24 9.80510798 24 13.4840564 24 17.1630047 26.9823769 20.1453817 30.6613253 20.1453817zM49.6613253 33.1453817C53.3402737 33.1453817 56.3226506 30.1630047 56.3226506 26.4840564 56.3226506 22.805108 49.6613253 13 49.6613253 13 49.6613253 13 43 22.805108 43 26.4840564 43 30.1630047 45.9823769 33.1453817 49.6613253 33.1453817z"/>
  </g>
</svg>
