<svg xmlns="http://www.w3.org/2000/svg" width="64" height="64" viewBox="0 0 64 64">
  <g fill="none" fill-rule="evenodd">
    <g transform="matrix(0 1 1 0 5 44)">
      <path fill="#FCC24C" d="M2,13.5 C2,12.1192881 3.11962422,11 4.50653076,11 L15,11 L15,16 L4.50653076,16 C3.12221205,16 2,14.8903379 2,13.5 L2,13.5 Z" transform="rotate(31 8.5 13.5)"/>
      <path fill="#FFDD95" d="M5.74754919,45 L5.72261255,33.7278318 C5.72261255,33.7278318 -2.07361885,19.2972435 0.533437164,17.1467274 C3.14049318,14.9962114 6.86640485,22.8939456 6.86640485,22.8939456 L8.80393538,19.7465907 L8.98743148,9.39428538 L6.33491838,4.25482498 C5.82680831,3.27032029 6.20643971,2.03932817 7.16474182,1.51522993 L8.09249696,1.0078379 C9.05890586,0.479306025 10.2606359,0.845765847 10.7776149,1.82820886 L14.4640841,8.83380412 L15.9704723,20.4872241 C15.9704723,20.4872241 18.8043877,24.9512976 15.0686802,44.5559449"/>
      <rect width="17" height="8" x="2" y="44" fill="#595959"/>
    </g>
    <polygon fill="#5EA7FF" points="17.473 8 11.346 8 6 19.021 11.346 19.021 7.595 29 18.644 16.01 12.683 16.01"/>
    <polygon fill="#5EA7FF" points="37.473 22 31.346 22 26 33.021 31.346 33.021 27.595 43 38.644 30.01 32.683 30.01"/>
    <polygon fill="#5EA7FF" points="56.151 6 50.024 6 44.678 17.021 50.024 17.021 46.272 27 57.322 14.01 51.361 14.01"/>
  </g>
</svg>
