<svg xmlns="http://www.w3.org/2000/svg" width="64" height="64" viewBox="0 0 64 64">
  <g fill="none" fill-rule="evenodd">
    <path stroke="#979797" stroke-linecap="round" stroke-width="4" d="M30.0696872,14.2059061 C29.8149142,10.8987571 32.2929085,8.21778321 35.6059512,8.21778321 L49.6108087,8.21778321 C52.9231758,8.21778321 55.4022721,10.8932211 55.1470727,14.2059061 L53.682454,33.2177832 L31.5343059,33.2177832 L30.0696872,14.2059061 Z" transform="rotate(45 42.608 20.718)"/>
    <circle cx="25.284" cy="38.042" r="20" fill="#595959" transform="rotate(45 25.284 38.042)"/>
    <path fill="#FFF" d="M24.3067179,37.4314348 C24.3227179,37.471435 24.3307179,37.5194345 24.3307179,37.5754348 C24.3307179,38.1274376 23.8827223,38.9954289 22.9867179,40.1794348 C22.0827133,41.3794408 21.3627205,42.0274343 20.8267179,42.1234348 C20.5547165,42.171435 20.1467206,41.9514372 19.6027179,41.4634348 C19.0907153,40.9834324 18.8107181,40.623436 18.7627179,40.3834348 C18.7227177,40.1994339 18.7827171,40.0314356 18.9427179,39.8794348 C19.1027187,39.727434 19.2827169,39.6554348 19.4827179,39.6634348 C19.7387191,39.6794349 19.9887166,39.7754339 20.2327179,39.9514348 C20.4767191,40.1274357 20.6587173,40.2234347 20.7787179,40.2394348 C20.8987185,40.2554349 21.2267152,39.9054384 21.7627179,39.1894348 C22.2987205,38.4734312 22.5667179,37.9794362 22.5667179,37.7074348 C22.5667179,37.5714341 22.4707188,37.5034348 22.2787179,37.5034348 C22.1747173,37.5034348 22.0527186,37.5534343 21.9127179,37.6534348 C21.7727172,37.7534353 21.6347185,37.8474344 21.4987179,37.9354348 C21.3947173,37.975435 21.2687186,38.0614341 21.1207179,38.1934348 C20.9727171,38.3254355 20.8347185,38.3914348 20.7067179,38.3914348 C20.4587166,38.3914348 20.2067191,38.2634361 19.9507179,38.0074348 C19.6707165,37.7354334 19.5387178,37.4474363 19.5547179,37.1434348 C19.5627179,36.9434338 19.7147164,36.7914353 20.0107179,36.6874348 C20.4267199,36.5434341 20.6587176,36.455435 20.7067179,36.4234348 C21.0427195,36.1674335 21.4107159,35.7614376 21.8107179,35.2054348 C22.2107199,34.649432 22.4107179,34.2434361 22.4107179,33.9874348 C22.4107179,33.9154344 22.394718,33.863435 22.3627179,33.8314348 C22.3147176,33.7834346 22.1267195,33.8954334 21.7987179,34.1674348 C21.5027164,34.407436 21.2267191,34.6714334 20.9707179,34.9594348 C20.8907175,35.0234351 20.7827185,35.1714336 20.6467179,35.4034348 C20.5427173,35.5794357 20.4107187,35.6954345 20.2507179,35.7514348 C20.1627174,35.783435 20.0747183,35.7994348 19.9867179,35.7994348 C19.7307166,35.7994348 19.492719,35.7034358 19.2727179,35.5114348 C19.0527168,35.3194338 18.9067182,35.103436 18.8347179,34.8634348 C18.7787176,34.6714338 19.2967124,34.1634389 20.3887179,33.3394348 C21.4807233,32.5154307 22.2587155,32.1034348 22.7227179,32.1034348 C23.1227199,32.1034348 23.4427167,32.2454334 23.6827179,32.5294348 C23.9227191,32.8134362 24.0347179,33.1514328 24.0187179,33.5434348 C23.9947177,34.191438 23.8827189,34.7154328 23.6827179,35.1154348 C23.5547172,35.3794361 23.2587202,35.7674322 22.7947179,36.2794348 C23.21872,36.3914354 23.5387168,36.5194341 23.7547179,36.6634348 C24.0187192,36.8474357 24.2027173,37.1034332 24.3067179,37.4314348 Z M31.3147179,40.4194348 C31.4427185,40.5954357 31.5067179,40.767434 31.5067179,40.9354348 C31.5067179,41.167436 31.390719,41.363434 31.1587179,41.5234348 C30.9267167,41.6834356 30.6907191,41.7634348 30.4507179,41.7634348 C30.3387173,41.7634348 30.170719,41.739435 29.9467179,41.6914348 C29.7547169,41.6434346 29.6227182,41.6234348 29.5507179,41.6314348 C29.182716,41.5994346 28.6507213,41.659434 27.9547179,41.8114348 C27.0667134,42.0034358 26.5907182,42.1034348 26.5267179,42.1114348 C26.3107168,42.1354349 26.0507194,42.0834354 25.7467179,41.9554348 C25.3867161,41.803434 25.2027179,41.611436 25.1947179,41.3794348 C25.1867178,41.211434 25.2827169,41.0714354 25.4827179,40.9594348 C25.7227191,40.8234341 25.8667176,40.7074353 25.9147179,40.6114348 C26.4907207,39.9954317 27.1587141,39.1474402 27.9187179,38.0674348 C29.0787237,36.4114265 29.6587179,35.1954387 29.6587179,34.4194348 C29.6587179,34.1314334 29.5747187,33.9074356 29.4067179,33.7474348 C29.3907178,33.7394348 29.370718,33.7354348 29.3467179,33.7354348 C29.2187172,33.7354348 28.9747197,33.8874333 28.6147179,34.1914348 C28.2947163,34.4634362 28.0987182,34.6514343 28.0267179,34.7554348 C27.9387174,34.8194351 27.8627182,34.9754336 27.7987179,35.2234348 C27.7427176,35.4394359 27.6187188,35.5874344 27.4267179,35.6674348 C27.3707176,35.6914349 27.3027183,35.7034348 27.2227179,35.7034348 C26.9827167,35.7034348 26.7347191,35.6114357 26.4787179,35.4274348 C26.1987165,35.2194338 26.042718,34.9874361 26.0107179,34.7314348 C25.9947178,34.6034342 26.1147166,34.4114361 26.3707179,34.1554348 C26.6267191,33.8994335 26.9067163,33.6834357 27.2107179,33.5074348 C28.1147224,32.5874302 28.8827147,32.1314348 29.5147179,32.1394348 C30.6907237,32.1634349 31.2787179,32.7714288 31.2787179,33.9634348 C31.2787179,34.9154396 30.9227214,36.0554282 30.2107179,37.3834348 C29.5387145,38.6474411 28.786722,39.6514311 27.9547179,40.3954348 C28.178719,40.3634346 28.8347124,40.2354359 29.9227179,40.0114348 C30.2907197,39.9394344 30.4667179,39.9034348 30.4507179,39.9034348 C30.7707195,39.9034348 31.0587166,40.0754331 31.3147179,40.4194348 Z" transform="rotate(45 25.129 37.117)"/>
  </g>
</svg>
