<svg xmlns="http://www.w3.org/2000/svg" width="64" height="64" viewBox="0 0 64 64">
  <g fill="none" fill-rule="evenodd">
    <g transform="translate(19 4)">
      <path fill="#B4DFFB" d="M7.07142857,0 C2.81094622,0 0,4.89288809 0,10.9285714 C0,16.9642548 2.81094622,36 7.07142857,36 C9.55684234,36 9.83916051,20.1920244 13.1785714,20.177711 C17.1608395,20.1920244 16.8003005,36 19.2857143,36 C23.5461966,36 26.3571429,16.9642548 26.3571429,10.9285714 C26.3571429,4.89288809 23.5461966,0 19.2857143,0 C17.25,0 15.2142857,1.92857143 13.1785714,1.92857143 C11.1428571,1.92857143 9.10714286,0 7.07142857,0 Z"/>
      <path stroke="#FFF" stroke-linecap="round" stroke-width="2" d="M8.17857143,3 C5.41714768,3 3.17857143,5.23857625 3.17857143,8"/>
    </g>
    <g transform="translate(46 19)">
      <path fill="#FCC24C" d="M2,10 C2,8.8954305 2.88743329,8 3.99961498,8 L12,8 L12,12 L3.99961498,12 C2.89525812,12 2,11.1122704 2,10 L2,10 Z" transform="rotate(31 7 10)"/>
      <path fill="#FFDD95" d="M5.1609019,33.3611636 L5.14196367,24.9890372 C5.14196367,24.9890372 -0.778912753,14.2710717 1.20102546,12.6738287 C3.18096368,11.0765856 6.01062092,16.942434 6.01062092,16.942434 L7.48208556,14.6048133 L7.62144233,6.91589247 L5.84199202,3.54400637 C5.32631328,2.56684509 5.70512179,1.34849961 6.6682688,0.833354133 L6.51070626,0.917627492 C7.48272506,0.397736883 8.6940905,0.763147865 9.22055966,1.74158836 L11.7807062,6.49960876 L12.9247382,15.1549006 C12.9247382,15.1549006 15.0769656,18.4704817 12.2398689,33.0313526"/>
      <rect width="13" height="6" x="2" y="33" fill="#5B68C0"/>
    </g>
    <g transform="matrix(-1 0 0 1 19 19)">
      <path fill="#FCC24C" d="M2,10 C2,8.8954305 2.88743329,8 3.99961498,8 L12,8 L12,12 L3.99961498,12 C2.89525812,12 2,11.1122704 2,10 L2,10 Z" transform="rotate(31 7 10)"/>
      <path fill="#FFDD95" d="M5.1609019,33.3611636 L5.14196367,24.9890372 C5.14196367,24.9890372 -0.778912753,14.2710717 1.20102546,12.6738287 C3.18096368,11.0765856 6.01062092,16.942434 6.01062092,16.942434 L7.48208556,14.6048133 L7.62144233,6.91589247 L5.84199202,3.54400637 C5.32631328,2.56684509 5.70512179,1.34849961 6.6682688,0.833354133 L6.51070626,0.917627492 C7.48272506,0.397736883 8.6940905,0.763147865 9.22055966,1.74158836 L11.7807062,6.49960876 L12.9247382,15.1549006 C12.9247382,15.1549006 15.0769656,18.4704817 12.2398689,33.0313526"/>
      <rect width="13" height="6" x="2" y="33" fill="#5B68C0"/>
    </g>
  </g>
</svg>
