<svg xmlns="http://www.w3.org/2000/svg" width="64" height="64" viewBox="0 0 64 64">
  <g fill="none" fill-rule="evenodd">
    <path fill="#FFDD95" d="M6.32524163,27.0978733 C6.32524163,27.0978733 9.11129694,27.3886417 13.5916007,27.2432575 C18.0719046,27.0978733 24.2108235,28.9275286 27.5750898,34.6588017 C27.5750898,34.6588017 37.987639,31.7093079 42.3206581,40.4147805 C42.3206581,40.4147805 45.7267343,41.2666559 46.1809411,40.7601868 C46.6351479,40.2537177 43.493709,36.3349959 44.3151773,23.4993769 C44.3151773,23.4993769 42.3505902,21.4948804 40.1821801,21.0031397 C38.0137701,20.5113991 37.1471663,21.8084541 34.8300463,19.5540489 C32.5129262,17.2996436 30.6224566,13.8061469 31.5646032,12.8174394 C32.5067498,11.8287318 33.7144839,11.8116278 33.7144839,11.8116278 C33.7144839,11.8116278 33.7444159,9.06025564 35.7213559,9.00181689 C37.6982959,8.94337815 44.9884106,10.2974466 46.6902609,12.6611276 C48.3921112,15.0248086 48.9917022,20.3009246 52.4020544,24.6957083 C55.8124065,29.090492 62.340442,36.3540004 60.4894066,50.4429643 C60.4894066,50.4429643 39.8448508,61.9620487 22.3854442,54.3920932 C22.3854442,54.3920932 21.1322494,59.41598 15.2924389,62.9062293 C15.2924389,62.9062293 10.7471067,55.4131083 6.87589615,46.1089949 C3.0046856,36.8048815 6.32524163,27.0978733 6.32524163,27.0978733 Z"/>
    <circle cx="37" cy="15" r="11" fill="#595959"/>
    <circle cx="37" cy="15" r="5" fill="#979797"/>
  </g>
</svg>
