<svg xmlns="http://www.w3.org/2000/svg" width="64" height="64" viewBox="0 0 64 64">
  <g fill="none" fill-rule="evenodd">
    <circle cx="22" cy="30" r="9" fill="#BD7575"/>
    <path fill="#FCC24C" d="M13,35.5 C13,34.1192881 14.1196242,33 15.5065308,33 L26,33 L26,38 L15.5065308,38 C14.122212,38 13,36.8903379 13,35.5 L13,35.5 Z" transform="scale(1 -1) rotate(-59 -43.246 0)"/>
    <circle cx="18" cy="33" r="8" fill="#9C4D4D"/>
    <circle cx="25" cy="34" r="8" fill="#BD7575"/>
    <path fill="#FFDD95" d="M26.1305578,57.6169914 L26.1056212,46.3448232 C26.1056212,46.3448232 18.3093898,31.9142349 20.9164458,29.7637188 C23.5235018,27.6132028 27.2494135,35.510937 27.2494135,35.510937 L29.186944,32.3635821 L29.3704401,22.0112768 L26.717927,16.8718164 C26.2098169,15.8873117 26.5894483,14.6563196 27.5477504,14.1322213 L28.4755056,13.6248293 C29.4419145,13.0962974 30.6436445,13.4627572 31.1606236,14.4452002 L34.8470927,21.4507955 L36.3534809,33.1042155 C36.3534809,33.1042155 39.1873963,37.568289 35.4516888,57.1729363" transform="matrix(0 1 1 0 -6.617 6.617)"/>
    <rect width="17" height="8" x="45.5" y="33.5" fill="#595959" transform="matrix(0 1 1 0 16.5 -16.5)"/>
  </g>
</svg>
