<svg xmlns="http://www.w3.org/2000/svg" width="64" height="64" viewBox="0 0 64 64">
  <g fill="none" fill-rule="evenodd">
    <path fill="#D650C7" d="M3,24.0018785 C3,21.791702 4.79309123,20 7.00180999,20 L42.99819,20 C45.2083286,20 47,21.7921947 47,24.0018785 L47,44.9981215 C47,47.208298 45.2069088,49 42.99819,49 L7.00180999,49 C4.79167136,49 3,47.2078053 3,44.9981215 L3,24.0018785 Z"/>
    <path fill="#FFAF40" d="M7,26.0016655 C7,24.3438914 8.34162278,23 9.99715203,23 L19,23 L19,27.9983345 C19,29.6561086 17.6583772,31 16.002848,31 L7,31 L7,26.0016655 Z"/>
    <rect width="18" height="2" x="6" y="36" fill="#FF78C7"/>
    <rect width="15" height="2" x="6" y="40" fill="#FF78C7"/>
    <path fill="#FFDD95" d="M31.0988064,13.1267381 L34.9208737,10 L41.832189,10.0538319 L48.1686561,13.9870878 L57.957096,14.0771281 L57.3780823,27.1839222 L50.7804662,27.0881141 L45.0005828,29.506706 L36.5009457,19.4918865 C36.5009457,19.4918865 27.8547723,25.2398785 27.2323081,24.5064511 C27.0594862,24.3028213 24.0869511,22.3215783 24.4966887,21.029693 C24.9064263,19.7378077 31.0988064,13.1267381 31.0988064,13.1267381 Z"/>
    <path stroke="#FFAF40" stroke-linecap="round" stroke-width="2" d="M46.1389288,30.835198 L35.571055,19.5830017 L29.5410308,23.8403875 C28.1857774,24.7972388 26.1699578,24.5929997 25.0361299,23.3815977 L25.6122819,23.9971687 C24.4795473,22.7869348 24.4605064,20.8096733 25.5698992,19.5806695 L34.1081753,10.1218253 L42.0930898,10.0429411 L48.2840925,14.0118035 L56.2876716,13.9931389"/>
    <polyline stroke="#FFAF40" stroke-linecap="round" stroke-width="2" points="45.421 29.745 51.323 27.029 57.114 27.049"/>
    <rect width="9" height="19" x="56" y="11.984" fill="#D8D8D8"/>
    <rect width="2" height="2" x="59" y="14.984" fill="#979797"/>
    <rect width="64" height="11" y="45" fill="#595959"/>
    <rect width="44" height="3" x="3" y="48" fill="#F5413E"/>
  </g>
</svg>
