<svg xmlns="http://www.w3.org/2000/svg" width="64" height="64" viewBox="0 0 64 64">
  <g fill="none" fill-rule="evenodd">
    <path fill="#80D25B" d="M23,30 C27.418278,30 31,26.418278 31,22 C31,17.581722 23,4 23,4 C23,4 15,17.581722 15,22 C15,26.418278 18.581722,30 23,30 Z"/>
    <path fill="#80D25B" d="M38.5044647,40.529591 C41.2658885,40.529591 43.5044647,38.1876959 43.5044647,35.2988218 C43.5044647,32.4099477 38.5044647,23.529591 38.5044647,23.529591 C38.5044647,23.529591 33.5044647,32.4099477 33.5044647,35.2988218 C33.5044647,38.1876959 35.743041,40.529591 38.5044647,40.529591 Z" transform="rotate(75 38.504 32.03)"/>
    <path fill="#80D25B" d="M8.50446475,40.529591 C11.2658885,40.529591 13.5044647,38.1876959 13.5044647,35.2988218 C13.5044647,32.4099477 8.50446475,23.529591 8.50446475,23.529591 C8.50446475,23.529591 3.50446475,32.4099477 3.50446475,35.2988218 C3.50446475,38.1876959 5.743041,40.529591 8.50446475,40.529591 Z" transform="scale(-1 1) rotate(75 0 20.946)"/>
    <path stroke="#22BA8E" stroke-linecap="square" stroke-width="2" d="M23,54 L23,18.9545689"/>
    <path stroke="#22BA8E" stroke-linecap="round" stroke-width="2" d="M35,33 C28.372583,33 23,38.372583 23,45"/>
    <path stroke="#22BA8E" stroke-linecap="round" stroke-width="2" d="M23,33 C16.372583,33 11,38.372583 11,45" transform="matrix(-1 0 0 1 34 0)"/>
    <g transform="matrix(0 1 1 0 4 44)">
      <path fill="#FCC24C" d="M2,13.5 C2,12.1192881 3.11962422,11 4.50653076,11 L15,11 L15,16 L4.50653076,16 C3.12221205,16 2,14.8903379 2,13.5 L2,13.5 Z" transform="rotate(31 8.5 13.5)"/>
      <path fill="#FFDD95" d="M5.74754919,45 L5.72261255,33.7278318 C5.72261255,33.7278318 -2.07361885,19.2972435 0.533437164,17.1467274 C3.14049318,14.9962114 6.86640485,22.8939456 6.86640485,22.8939456 L8.80393538,19.7465907 L8.98743148,9.39428538 L6.33491838,4.25482498 C5.82680831,3.27032029 6.20643971,2.03932817 7.16474182,1.51522993 L8.09249696,1.0078379 C9.05890586,0.479306025 10.2606359,0.845765847 10.7776149,1.82820886 L14.4640841,8.83380412 L15.9704723,20.4872241 C15.9704723,20.4872241 18.8043877,24.9512976 15.0686802,44.5559449"/>
      <rect width="17" height="8" x="2" y="44" fill="#595959"/>
    </g>
  </g>
</svg>
