<svg xmlns="http://www.w3.org/2000/svg" width="64" height="64" viewBox="0 0 64 64">
  <g fill="none" fill-rule="evenodd">
    <g transform="translate(46 23)">
      <path fill="#FCC24C" d="M2,10 C2,8.8954305 2.88743329,8 3.99961498,8 L12,8 L12,12 L3.99961498,12 C2.89525812,12 2,11.1122704 2,10 L2,10 Z" transform="rotate(31 7 10)"/>
      <path fill="#FFDD95" d="M5.1609019,33.3611636 L5.14196367,24.9890372 C5.14196367,24.9890372 -0.778912753,14.2710717 1.20102546,12.6738287 C3.18096368,11.0765856 6.01062092,16.942434 6.01062092,16.942434 L7.48208556,14.6048133 L7.62144233,6.91589247 L5.84199202,3.54400637 C5.32631328,2.56684509 5.70512179,1.34849961 6.6682688,0.833354133 L6.51070626,0.917627492 C7.48272506,0.397736883 8.6940905,0.763147865 9.22055966,1.74158836 L11.7807062,6.49960876 L12.9247382,15.1549006 C12.9247382,15.1549006 15.0769656,18.4704817 12.2398689,33.0313526"/>
      <rect width="13" height="6" x="2" y="33" fill="#595959"/>
    </g>
    <g transform="matrix(-1 0 0 1 20 23)">
      <path fill="#FCC24C" d="M2,10 C2,8.8954305 2.88743329,8 3.99961498,8 L12,8 L12,12 L3.99961498,12 C2.89525812,12 2,11.1122704 2,10 L2,10 Z" transform="rotate(31 7 10)"/>
      <path fill="#FFDD95" d="M5.1609019,33.3611636 L5.14196367,24.9890372 C5.14196367,24.9890372 -0.778912753,14.2710717 1.20102546,12.6738287 C3.18096368,11.0765856 6.01062092,16.942434 6.01062092,16.942434 L7.48208556,14.6048133 L7.62144233,6.91589247 L5.84199202,3.54400637 C5.32631328,2.56684509 5.70512179,1.34849961 6.6682688,0.833354133 L6.51070626,0.917627492 C7.48272506,0.397736883 8.6940905,0.763147865 9.22055966,1.74158836 L11.7807062,6.49960876 L12.9247382,15.1549006 C12.9247382,15.1549006 15.0769656,18.4704817 12.2398689,33.0313526"/>
      <rect width="13" height="6" x="2" y="33" fill="#595959"/>
    </g>
    <path fill="#80D25B" d="M33.024039,30 C37.442317,30 41.024039,26.418278 41.024039,22 C41.024039,17.581722 33.024039,4 33.024039,4 C33.024039,4 25.024039,17.581722 25.024039,22 C25.024039,26.418278 28.605761,30 33.024039,30 Z"/>
    <path stroke="#22BA8E" stroke-linecap="square" stroke-width="2" d="M33.024039,45 L33.024039,18.9545689"/>
    <path stroke="#22BA8E" stroke-linecap="round" stroke-width="2" d="M45,30 C38.372583,30 33,35.372583 33,42"/>
    <path stroke="#22BA8E" stroke-linecap="round" stroke-width="2" d="M33,30 C26.372583,30 21,35.372583 21,42" transform="matrix(-1 0 0 1 54 0)"/>
  </g>
</svg>
