<svg xmlns="http://www.w3.org/2000/svg" width="64" height="64" viewBox="0 0 64 64">
  <g fill="none" fill-rule="evenodd">
    <g transform="matrix(-1 0 0 1 32 9)">
      <path fill="#80D25B" d="M15.435675,31 C20.301337,31 25,26.2163013 25,21.3131203 C25,16.4099394 17.1226939,3 17.1226939,3 C17.1226939,3 7.62882483,15.3918301 7.05405343,20.6592359 C6.47928203,25.9266417 10.570013,31 15.435675,31 Z" transform="rotate(36 16 17)"/>
      <path stroke="#22BA8E" stroke-linecap="round" stroke-width="2" d="M22,10 C22,10 12.8859478,15.6488685 9.57160406,26.0527799 C8.71883296,28.7296763 7.43565096,30.6395938 6,32"/>
      <polyline stroke="#22BA8E" stroke-linecap="round" stroke-width="2" points="17 24 10.935 23.715 8 18"/>
      <polyline stroke="#22BA8E" stroke-linecap="round" stroke-width="2" points="19 18 14.459 17.197 13 14"/>
    </g>
    <g transform="matrix(0 1 1 0 5 44)">
      <path fill="#FCC24C" d="M2,13.5 C2,12.1192881 3.11962422,11 4.50653076,11 L15,11 L15,16 L4.50653076,16 C3.12221205,16 2,14.8903379 2,13.5 L2,13.5 Z" transform="rotate(31 8.5 13.5)"/>
      <path fill="#FFDD95" d="M5.74754919,45 L5.72261255,33.7278318 C5.72261255,33.7278318 -2.07361885,19.2972435 0.533437164,17.1467274 C3.14049318,14.9962114 6.86640485,22.8939456 6.86640485,22.8939456 L8.80393538,19.7465907 L8.98743148,9.39428538 L6.33491838,4.25482498 C5.82680831,3.27032029 6.20643971,2.03932817 7.16474182,1.51522993 L8.09249696,1.0078379 C9.05890586,0.479306025 10.2606359,0.845765847 10.7776149,1.82820886 L14.4640841,8.83380412 L15.9704723,20.4872241 C15.9704723,20.4872241 18.8043877,24.9512976 15.0686802,44.5559449"/>
      <rect width="17" height="8" x="2" y="44" fill="#595959"/>
    </g>
  </g>
</svg>
