<svg xmlns="http://www.w3.org/2000/svg" width="64" height="64" viewBox="0 0 64 64">
  <path fill="#80D25B" fill-rule="evenodd" d="M46,29.5039915 L46,22.992017 C46,21.9001762 45.1081436,21 44.007983,21 L36.992017,21 C35.9001762,21 35,21.8918564 35,22.992017 L35,30.007983 C35,31.0998238 35.8918564,32 36.992017,32 L42,32 L42,35 L39.0300911,35 L39.0300911,39 L42.5150455,39 C44.4441231,39 46,37.4418734 46,35.5168536 L46,29.5039915 Z M29,29.5039915 L29,22.992017 C29,21.9001762 28.1081436,21 27.007983,21 L19.992017,21 C18.9001762,21 18,21.8918564 18,22.992017 L18,30.007983 C18,31.0998238 18.8918564,32 19.992017,32 L25,32 L25,35 L22.0300911,35 L22.0300911,39 L25.5150455,39 C27.4441231,39 29,37.4418734 29,35.5168536 L29,29.5039915 Z M31.1541433,61.9765988 C30.8891091,62.0938947 31.4349474,52.9952952 31.1541433,52.9859595 C17.7386296,52.5399447 7,41.524043 7,28 C7,14.1928813 18.1928813,3 32,3 C45.8071187,3 57,14.1928813 57,28 C57,41.8071187 47.4512535,54.764004 31.1541433,61.9765988 Z"/>
</svg>
