<svg xmlns="http://www.w3.org/2000/svg" width="64" height="64" viewBox="0 0 64 64">
  <g fill="none" fill-rule="evenodd">
    <path fill="#80D25B" d="M24,5 C17.372583,5 13,12.6111593 13,22 C13,31.3888407 17.372583,61 24,61 C27.8661992,61 28.3053608,36.4098157 33.5,36.3875505 C39.6946392,36.4098157 39.1338008,61 43,61 C49.627417,61 54,31.3888407 54,22 C54,12.6111593 49.627417,5 43,5 C39.8333333,5 36.6666667,8 33.5,8 C30.3333333,8 27.1666667,5 24,5 Z"/>
    <path fill="#5B68C0" d="M25.5,24 C25.5,28.418278 29.081722,32 33.5,32 C37.918278,32 41.5,28.418278 41.5,24 L25.5,24 Z"/>
    <path stroke="#325AA6" stroke-linecap="round" stroke-width="2" d="M29,19 C29,16.790861 27.209139,15 25,15 C22.790861,15 21,16.790861 21,19" transform="matrix(1 0 0 -1 0 34)"/>
    <path stroke="#325AA6" stroke-linecap="round" stroke-width="2" d="M46,19 C46,16.790861 44.209139,15 42,15 C39.790861,15 38,16.790861 38,19" transform="matrix(1 0 0 -1 0 34)"/>
  </g>
</svg>
