<?xml version="1.0" encoding="UTF-8"?>
<svg width="64px" height="64px" viewBox="0 0 64 64" version="1.1" xmlns="http://www.w3.org/2000/svg" xmlns:xlink="http://www.w3.org/1999/xlink">
    <!-- Generator: Sketch 43.2 (39069) - http://www.bohemiancoding.com/sketch -->
    <title>hat</title>
    <desc>Created with Sketch.</desc>
    <defs></defs>
    <g id="Outdoor-Activities-(142)" stroke="none" stroke-width="1" fill="none" fill-rule="evenodd">
        <path d="M32.5,40.5 C48.7924001,40.5 63,56.7924001 63,40.5 C63,24.2075999 54.9205531,6 32.5,6 C10.0794469,6 2,24.2075999 2,40.5 C2,56.7924001 16.2075999,40.5 32.5,40.5 Z" id="Oval-90" fill="#5395EA"></path>
        <path d="M32.5,49.0277847 C48.7924001,49.0277847 53,56.7924001 53,40.5 C53,24.2075999 54.9205531,6 32.5,6 C10.0794469,6 12,24.2075999 12,40.5 C12,56.7924001 16.2075999,49.0277847 32.5,49.0277847 Z" id="Oval-90-Copy" fill="#D8D8D8"></path>
        <polygon id="Star-3" fill="#325AA6" points="32 29 28.4732885 30.854102 29.1468305 26.927051 26.2936609 24.145898 30.2366442 23.572949 32 20 33.7633558 23.572949 37.7063391 24.145898 34.8531695 26.927051 35.5267115 30.854102"></polygon>
        <path d="M4,43 C4,43 18.25,39.2656572 32.5,39.2656572 C46.75,39.2656572 61,43 61,43 L61,56.0008939 C61,60.4186782 57.8949534,62.2152036 53.9391913,60.2477303 C53.9391913,60.2477303 46.75,54.8558255 32.5,54.8558255 C18.25,54.8558255 11.0464879,60.2543302 11.0464879,60.2543302 C7.15482008,62.3230065 4,60.4138323 4,56.0008939 L4,43 Z" id="Rectangle-184" fill="#325AA6"></path>
    </g>
</svg>