<svg xmlns="http://www.w3.org/2000/svg" width="64" height="64" viewBox="0 0 64 64">
  <g fill="none" fill-rule="evenodd">
    <polygon fill="#E6E6E6" points="19.045 3 52 3 52 61 12 61 12 9.065"/>
    <polygon fill="#CDCDCD" points="19 3 19 9 12 9"/>
    <path fill="#979797" d="M25.746,38.418 C25.7646668,38.5300006 25.7553335,38.6606659 25.718,38.81 C25.643333,39.0433345 25.6013334,39.1739999 25.592,39.202 C25.5826666,39.3513341 25.5710001,39.5076659 25.557,39.671 C25.5429999,39.8343342 25.4916671,39.9626662 25.403,40.056 C25.3143329,40.1493338 25.1393346,40.196 24.878,40.196 C24.6166654,40.196 24.388001,40.1446672 24.192,40.042 C23.9586655,39.9299994 23.8373334,39.776001 23.828,39.58 C23.828,39.4959996 23.8536664,39.3933339 23.905,39.272 C23.9563336,39.1506661 23.9889999,39.0573337 24.003,38.992 C24.0170001,38.9266663 24.0193334,38.7493348 24.01,38.46 C24.01,38.2453323 24.0636661,38.0866672 24.171,37.984 C24.2783339,37.8813328 24.4486655,37.83 24.682,37.83 C24.9246679,37.83 25.1533323,37.8836661 25.368,37.991 C25.5826677,38.0983339 25.7086665,38.2406658 25.746,38.418 Z M32.578,38.824 C32.6340003,39.0573345 32.662,39.2066663 32.662,39.272 C32.662,39.468001 32.5476678,39.6289994 32.319,39.755 C32.0903322,39.8810006 31.8453346,39.944 31.584,39.944 C31.1826647,39.944 30.9260006,39.7946682 30.814,39.496 C30.7673331,39.3746661 30.744,39.2720004 30.744,39.188 C30.744,39.0666661 30.7976661,38.9360007 30.905,38.796 C31.0123339,38.6559993 31.066,38.5253339 31.066,38.404 C31.1780006,37.9186642 31.234,37.2186712 31.234,36.304 C31.234,34.7173254 31.1220011,33.9053335 30.898,33.868 C30.7299992,33.8399999 30.4593352,34.1059972 30.086,34.666 C29.693998,35.2540029 29.3673346,35.9119964 29.106,36.64 C28.7979985,37.498671 28.6673331,38.2546634 28.714,38.908 C28.6859999,38.9640003 28.672,39.0199997 28.672,39.076 C28.672,39.1600004 28.709333,39.2789992 28.784,39.433 C28.858667,39.5870008 28.896,39.7106662 28.896,39.804 C28.896,39.8973338 28.8633337,39.9859996 28.798,40.07 C28.5459987,40.4340018 28.2940013,40.616 28.042,40.616 C27.7806654,40.616 27.5286679,40.4106687 27.286,40 C27.1459993,39.7573321 27.076,38.3620127 27.076,35.814 C27.076,34.880662 27.0993331,32.7573499 27.146,29.444 C27.146,29.3879997 27.1413334,29.3016672 27.132,29.185 C27.1226666,29.0683327 27.118,28.9773337 27.118,28.912 C27.1273334,28.8186662 27.1553331,28.734667 27.202,28.66 C27.3046672,28.463999 27.5239983,28.366 27.86,28.366 C28.1586682,28.366 28.4316654,28.4453325 28.679,28.604 C28.9263346,28.7626675 29.0220003,28.9493323 28.966,29.164 C28.9566666,29.2200003 28.9123337,29.285333 28.833,29.36 C28.7536663,29.434667 28.714,29.509333 28.714,29.584 L28.714,34.092 C29.2460027,32.8973274 30.0299948,32.262667 31.066,32.188 C31.6260028,32.1506665 32.0739983,32.5706623 32.41,33.448 C32.7180015,34.2506707 32.872,35.2353275 32.872,36.402 C32.872,37.2980045 32.774001,38.1053297 32.578,38.824 Z M39.032,39.916 C38.9199994,40.1680013 38.5746696,40.294 37.996,40.294 C37.6319982,40.294 37.3893339,40.2193341 37.268,40.07 C37.2213331,40.0233331 37.198,39.9580004 37.198,39.874 C37.198,39.8086663 37.2213331,39.7060007 37.268,39.566 C37.3146669,39.4259993 37.3426666,39.318667 37.352,39.244 C36.9226645,39.8506697 36.4186696,40.154 35.84,40.154 C35.0653295,40.154 34.5006684,39.7153377 34.146,38.838 C33.875332,38.1659966 33.74,37.2933387 33.74,36.22 C33.74,35.2306617 33.9499979,34.3300041 34.37,33.518 C34.836669,32.6313289 35.4106633,32.188 36.092,32.188 C36.4746686,32.188 36.8666647,32.4959969 37.268,33.112 L37.268,31.306 C37.268,31.1566659 37.2073339,30.9653345 37.086,30.732 C36.9646661,30.4986655 36.904,30.3213339 36.904,30.2 C36.904,30.1066662 36.9273331,30.0133338 36.974,29.92 C37.170001,29.4999979 37.5526638,29.29 38.122,29.29 C38.588669,29.29 38.8779994,29.4579983 38.99,29.794 C39.0273335,29.9060006 39.046,30.0133328 39.046,30.116 C39.046,30.2186672 39.015667,30.3563325 38.955,30.529 C38.894333,30.7016675 38.864,30.8486661 38.864,30.97 L38.864,38.95 C38.864,39.0526672 38.901333,39.1763326 38.976,39.321 C39.050667,39.4656674 39.088,39.5846662 39.088,39.678 C39.088,39.752667 39.0693335,39.8319996 39.032,39.916 Z M37.1,36.22 C37.1,35.7906645 37.0113342,35.2866696 36.834,34.708 C36.637999,34.0919969 36.4466676,33.784 36.26,33.784 C36.0453323,33.784 35.8726673,34.0686638 35.742,34.638 C35.6393328,35.104669 35.588,35.6319971 35.588,36.22 C35.588,36.3226672 35.5833334,36.4906655 35.574,36.724 L35.574,37.242 C35.574,38.2966719 35.8026644,38.824 36.26,38.824 C36.4746677,38.824 36.6706658,38.5206697 36.848,37.914 C37.0160008,37.3539972 37.1,36.7893362 37.1,36.22 Z"/>
  </g>
</svg>
