<svg xmlns="http://www.w3.org/2000/svg" width="64" height="64" viewBox="0 0 64 64">
  <g fill="none" fill-rule="evenodd">
    <path stroke="#979797" stroke-linecap="round" stroke-width="2" d="M4,46 L4,20.9954807 L4,20.9954807 C4,17.6842681 6.34550405,13.672019 9.30086981,12.1770371 C9.30086981,12.1770371 18.5,6 33,6 C47.5,6 56.712015,12.1832023 56.712015,12.1832023 C59.6324885,13.7388767 62,17.6833309 62,20.9954807 L62,46"/>
    <circle cx="13" cy="46" r="10" fill="#ED9111"/>
    <circle cx="53" cy="46" r="10" fill="#ED9111"/>
    <path fill="#595959" d="M11 33.9932874C11 32.8924252 11.8823887 31.8529352 12.9815559 31.6697407L21.0184441 30.3302593C22.1128272 30.1478621 23 30.8943377 23 31.9982138L23 59.0017862C23 60.1053692 22.0980496 61 20.9914698 61L13.0085302 61C11.8992496 61 11 60.1002873 11 59.0067126L11 33.9932874zM43 31.9982138C43 30.8946308 43.8823887 30.1470648 44.9815559 30.3302593L53.0184441 31.6697407C54.1128272 31.8521379 55 32.8997127 55 33.9932874L55 59.0067126C55 60.1075748 54.0980496 61 52.9914698 61L45.0085302 61C43.8992496 61 43 60.1056623 43 59.0017862L43 31.9982138z"/>
    <rect width="26" height="8" x="20" y="3" fill="#ED9111"/>
  </g>
</svg>
