<svg xmlns="http://www.w3.org/2000/svg" width="64" height="64" viewBox="0 0 64 64">
  <g fill="none" fill-rule="evenodd">
    <path fill="#979797" fill-rule="nonzero" d="M48.9936839,6 L15.0063161,6 C10.6147256,6 7.05028026,9.53550242 7.00052727,13.9159316 L5.00752456,36.8266748 C4.9117997,37.9270886 5.72626101,38.8967506 6.82667481,38.9924754 C7.92708861,39.0882003 8.89675058,38.273739 8.99247544,37.1733252 L10.9924754,14.1821439 L11,14.0088187 C11,11.7942647 12.7933313,10 15.0063161,10 L48.9936839,10 C51.206527,10 53,11.7940112 53,14.0088187 L53.0075246,14.1821439 L55.0075246,37.1733252 C55.1032494,38.273739 56.0729114,39.0882003 57.1733252,38.9924754 C58.273739,38.8967506 59.0882003,37.9270886 58.9924754,36.8266748 L56.9994728,13.9159323 C56.9497205,9.53506347 53.384941,6 48.9936839,6 Z"/>
    <rect width="4" height="7" x="55" y="33" fill="#595959"/>
    <rect width="4" height="7" x="5" y="33" fill="#595959"/>
    <rect width="13" height="24" x="9" y="25" fill="#595959" rx="6"/>
    <rect width="13" height="24" x="42" y="25" fill="#595959" rx="6"/>
    <path stroke="#979797" stroke-linecap="round" stroke-width="2" d="M7.25768951,39.5704325 L7.25768951,49.2521579 C7.25768951,53.6706496 10.84175,57.2525449 15.2520039,57.2525449 L29.4881927,57.2525449"/>
    <rect width="11" height="6" x="22" y="54" fill="#595959" rx="3"/>
  </g>
</svg>
