<svg xmlns="http://www.w3.org/2000/svg" width="64" height="64" viewBox="0 0 64 64">
  <g fill="none" fill-rule="evenodd">
    <path fill="#80D25B" d="M31,5.0090877 C23.7758005,5.27211371 18,11.2115516 18,18.5 C18,25.9558441 24.0441559,32 31.5,32 C38.7884484,32 44.7278863,26.2241995 44.9909123,19 L31,19 L31,5.0090877 Z"/>
    <path fill="#D650C7" d="M33,3 C40.4008731,3.71068896 46.289311,9.59912685 47,17 L33,17 L33,3 Z"/>
    <path fill="#595959" d="M8,45.9138849 C8,43.7041591 9.77500008,41.6994337 11.9692715,41.4356406 L31.875,39.0425936 L51.7807285,41.4356406 C53.9728966,41.6991808 55.75,43.6992053 55.75,45.9138849 L55.75,62.0425936 L8,62.0425936 L8,45.9138849 Z"/>
    <polygon fill="#D8D8D8" points="32 61.899 24 49.875 40 49.875"/>
    <path fill="#FFDD95" d="M23.9659091,34.3604419 L39.7840909,34.3604419 L39.7840909,44.9058965 C39.7840909,44.9058965 34.4224889,46.8154815 31.875,46.8154815 C29.3275111,46.8154815 23.9659091,44.9058965 23.9659091,44.9058965 L23.9659091,34.3604419 Z"/>
    <polygon fill="#D8D8D8" points="32 49.899 24 43 40 43" transform="matrix(1 0 0 -1 0 92.9)"/>
    <polygon fill="#4796E7" points="29.001 43 34.992 43 35.992 46 33.98 48 30.042 48 28.001 46"/>
    <polygon fill="#FFF" points="24 40 31.998 43.105 24 49.922"/>
    <polygon fill="#FFF" points="32 40 40.081 43.061 32 49.922" transform="matrix(-1 0 0 1 72.081 0)"/>
    <polygon fill="#4796E7" points="30 48 34 48 35 62 29 62"/>
  </g>
</svg>
