<svg xmlns="http://www.w3.org/2000/svg" width="64" height="64" viewBox="0 0 64 64">
  <g fill="none" fill-rule="evenodd">
    <path fill="#595959" d="M8,43.9138849 C8,41.7041591 9.77500008,39.6994337 11.9692715,39.4356406 L31.875,37.0425936 L51.7807285,39.4356406 C53.9728966,39.6991808 55.75,41.6992053 55.75,43.9138849 L55.75,60.0425936 L8,60.0425936 L8,43.9138849 Z"/>
    <polygon fill="#D8D8D8" points="32 59.899 24 47.875 40 47.875"/>
    <path fill="#FFDD95" d="M23.9659091,32.3604419 L39.7840909,32.3604419 L39.7840909,42.9058965 C39.7840909,42.9058965 34.4224889,44.8154815 31.875,44.8154815 C29.3275111,44.8154815 23.9659091,42.9058965 23.9659091,42.9058965 L23.9659091,32.3604419 Z"/>
    <polygon fill="#D8D8D8" points="32 47.899 24 41 40 41" transform="matrix(1 0 0 -1 0 88.9)"/>
    <polygon fill="#4796E7" points="29.001 41 34.992 41 35.992 44 33.98 46 30.042 46 28.001 44"/>
    <polygon fill="#FFF" points="24 38 31.998 41.105 24 47.922"/>
    <polygon fill="#FFF" points="32 38 40.081 41.061 32 47.922" transform="matrix(-1 0 0 1 72.081 0)"/>
    <polygon fill="#4796E7" points="30 46 34 46 35 60 29 60"/>
    <path fill="#595959" d="M24.3800958,13.2085229 L22.8076118,11.636039 L25.636039,8.80761184 L27.2085229,10.3800958 C28.0544216,9.84706631 28.9952899,9.45099725 30,9.22301642 L30,7 L34,7 L34,9.22301642 C35.0047101,9.45099725 35.9455784,9.84706631 36.7914771,10.3800958 L38.363961,8.80761184 L41.1923882,11.636039 L39.6199042,13.2085229 C40.1529337,14.0544216 40.5490027,14.9952899 40.7769836,16 L43,16 L43,20 L40.7769836,20 C40.5490027,21.0047101 40.1529337,21.9455784 39.6199042,22.7914771 L41.1923882,24.363961 L38.363961,27.1923882 L36.7914771,25.6199042 C35.9455784,26.1529337 35.0047101,26.5490027 34,26.7769836 L34,29 L30,29 L30,26.7769836 C28.9952899,26.5490027 28.0544216,26.1529337 27.2085229,25.6199042 L25.636039,27.1923882 L22.8076118,24.363961 L24.3800958,22.7914771 C23.8470663,21.9455784 23.4509973,21.0047101 23.2230164,20 L21,20 L21,16 L23.2230164,16 C23.4509973,14.9952899 23.8470663,14.0544216 24.3800958,13.2085229 Z M32,21 C33.6568542,21 35,19.6568542 35,18 C35,16.3431458 33.6568542,15 32,15 C30.3431458,15 29,16.3431458 29,18 C29,19.6568542 30.3431458,21 32,21 Z"/>
  </g>
</svg>
