<svg xmlns="http://www.w3.org/2000/svg" width="64" height="64" viewBox="0 0 64 64">
  <g fill="none" fill-rule="evenodd">
    <path fill="#979797" fill-rule="nonzero" d="M48.9936839,9 L15.0063161,9 C10.6147256,9 7.05028026,12.5355024 7.00052727,16.9159316 L5.00752456,39.8266748 C4.9117997,40.9270886 5.72626101,41.8967506 6.82667481,41.9924754 C7.92708861,42.0882003 8.89675058,41.273739 8.99247544,40.1733252 L10.9924754,17.1821439 L11,17.0088187 C11,14.7942647 12.7933313,13 15.0063161,13 L48.9936839,13 C51.206527,13 53,14.7940112 53,17.0088187 L53.0075246,17.1821439 L55.0075246,40.1733252 C55.1032494,41.273739 56.0729114,42.0882003 57.1733252,41.9924754 C58.273739,41.8967506 59.0882003,40.9270886 58.9924754,39.8266748 L56.9994728,16.9159323 C56.9497205,12.5350635 53.384941,9 48.9936839,9 Z"/>
    <rect width="4" height="7" x="55" y="36" fill="#595959"/>
    <rect width="4" height="7" x="5" y="36" fill="#595959"/>
    <rect width="13" height="24" x="9" y="28" fill="#595959" rx="6"/>
    <rect width="13" height="24" x="42" y="28" fill="#595959" rx="6"/>
  </g>
</svg>
