<svg xmlns="http://www.w3.org/2000/svg" width="64" height="64" viewBox="0 0 64 64">
  <g fill="none" fill-rule="evenodd">
    <path fill="#E43535" d="M20.4918033,13 C12.4882013,13 6,16.9308243 6,27.4918033 C6,38.0527823 32,57.2989551 32,57.2989551 C32,57.2989551 58,38.0527823 58,27.4918033 C58,16.9308243 51.5117987,13 43.5081967,13 C38.8182695,13 34.6486841,15.227848 32,18.6829845 C29.3513159,15.227848 25.1817305,13 20.4918033,13 Z"/>
    <rect width="59" height="10" x="3" y="23" fill="#FCC24C"/>
    <path stroke="#595959" stroke-linecap="square" stroke-width="2" d="M17 24L17 28M27 24L27 28M22 24L22 25M32 24L32 25M37 24L37 28M42 24L42 25M47 24L47 28M52 24L52 25M12 24L12 25"/>
  </g>
</svg>
