<svg xmlns="http://www.w3.org/2000/svg" width="64" height="64" viewBox="0 0 64 64">
  <g fill="none" fill-rule="evenodd">
    <path fill="#ED9111" d="M28.5309426,22.1164653 C28.5309426,22.1164653 30.2422535,22.2950673 32.9942421,22.2057663 C35.7462308,22.1164653 39.5170097,23.2403156 41.5834818,26.7607015 C41.5834818,26.7607015 47.9793019,24.949 50.6408222,30.2962628 C50.6408222,30.2962628 52.7329756,30.81952 53.0119683,30.5084256 C53.290961,30.1973312 51.3613587,27.7902896 51.8659386,19.9061194 C51.8659386,19.9061194 50.6592077,18.6748744 49.3272802,18.3728269 C47.9953527,18.0707793 47.4630486,18.8674844 46.0397773,17.4827351 C44.616506,16.0979858 43.455301,13.952135 44.0340066,13.3448298 C44.6127121,12.7375245 45.3545525,12.7270185 45.3545525,12.7270185 C45.3545525,12.7270185 45.3729381,11.0370115 46.5872567,11.001116 C47.8015753,10.9652205 52.2794665,11.7969456 53.3248136,13.2488166 C54.3701608,14.7006876 54.7384545,17.9414972 56.8332344,20.6409558 C58.9280143,23.3404144 62.9378048,27.801963 61.800822,36.4559896 C61.800822,36.4559896 49.1200785,43.5314896 38.3957859,38.8817086 C38.3957859,38.8817086 37.6260216,41.9675885 34.0389675,44.1114446 C34.0389675,44.1114446 31.2470357,39.5088585 28.8691775,33.7938857 C26.4913192,28.0789128 28.5309426,22.1164653 28.5309426,22.1164653 Z"/>
    <path fill="#80D25B" d="M13.1359935,22 C6.98575413,22 2,25.0205788 2,33.1359935 C2,41.2514082 21.9792825,56.0408207 21.9792825,56.0408207 C21.9792825,56.0408207 41.958565,41.2514082 41.958565,33.1359935 C41.958565,25.0205788 36.9728109,22 30.8225715,22 C27.2186722,22 24.0146213,23.711954 21.9792825,26.3669982 C19.9439437,23.711954 16.7398927,22 13.1359935,22 Z"/>
  </g>
</svg>
