<svg xmlns="http://www.w3.org/2000/svg" width="64" height="64" viewBox="0 0 64 64">
  <g fill="none" fill-rule="evenodd">
    <path fill="#E43535" d="M19,6 C9.61115925,6 2,11.6111593 2,23 C2,34.3888407 27.6666667,60 32,60 C36.3333333,60 62,34.3888407 62,23 C62,11.6111593 54.3888407,6 45,6 C39.7849882,6 35.1184308,8.34821284 32,12.0449665 C28.8815692,8.34821284 24.2150118,6 19,6 Z"/>
    <path fill="#80D25B" d="M47.5044647,34.529591 C50.2658885,34.529591 52.5044647,32.1876959 52.5044647,29.2988218 C52.5044647,26.4099477 47.5044647,17.529591 47.5044647,17.529591 C47.5044647,17.529591 42.5044647,26.4099477 42.5044647,29.2988218 C42.5044647,32.1876959 44.743041,34.529591 47.5044647,34.529591 Z" transform="rotate(75 47.504 26.03)"/>
    <path fill="#80D25B" d="M17.5044647,34.529591 C20.2658885,34.529591 22.5044647,32.1876959 22.5044647,29.2988218 C22.5044647,26.4099477 17.5044647,17.529591 17.5044647,17.529591 C17.5044647,17.529591 12.5044647,26.4099477 12.5044647,29.2988218 C12.5044647,32.1876959 14.743041,34.529591 17.5044647,34.529591 Z" transform="scale(-1 1) rotate(75 0 3.217)"/>
    <path stroke="#22BA8E" stroke-linecap="round" stroke-width="2" d="M44,27 C37.372583,27 32,32.372583 32,39"/>
    <path stroke="#22BA8E" stroke-linecap="round" stroke-width="2" d="M32,27 C25.372583,27 20,32.372583 20,39" transform="matrix(-1 0 0 1 52 0)"/>
  </g>
</svg>
