<svg xmlns="http://www.w3.org/2000/svg" width="64" height="64" viewBox="0 0 64 64">
  <g fill="none" fill-rule="evenodd">
    <rect width="4" height="10" x="17" y="51" fill="#D8D8D8"/>
    <rect width="4" height="10" x="43" y="51" fill="#D8D8D8"/>
    <path fill="#D650C7" d="M32,60 C43.5979797,60 53,47.0162577 53,31 C53,14.9837423 43.5979797,2 32,2 C20.4020203,2 11,14.9837423 11,31 C11,47.0162577 20.4020203,60 32,60 Z"/>
    <circle cx="32" cy="39" r="13" fill="#595959"/>
    <path stroke="#D650C7" stroke-linecap="square" stroke-width="2" d="M18 29L43.019992 29M18 49L43.019992 49M20 34L45.019992 34M20 44L45.019992 44M18 39L47.019992 39"/>
    <circle cx="23" cy="15" r="3" fill="#FCC24C"/>
    <circle cx="41" cy="15" r="3" fill="#FCC24C"/>
  </g>
</svg>
