<svg xmlns="http://www.w3.org/2000/svg" width="64" height="64" viewBox="0 0 64 64">
  <g fill="none" fill-rule="evenodd">
    <polygon fill="#9C4D4D" points="41 49.636 35.735 53.361 32.804 47.615 26.411 48.467 26.486 42.018 20.43 39.801 23.493 34.126 19.16 29.348 24.511 25.746 22.894 19.503 29.305 18.8 30.776 12.52 36.78 14.877 41 10 45.22 14.877 51.224 12.52 52.695 18.8 59.106 19.503 57.489 25.746 62.84 29.348 58.507 34.126 61.57 39.801 55.514 42.018 55.589 48.467 49.196 47.615 46.265 53.361"/>
    <path fill="#FFAF40" d="M22,46 C26.418278,46 30,42.418278 30,38 C30,33.581722 26.418278,30 22,30 C17.581722,30 6.29266903,38 6.29266903,38 C6.29266903,38 17.581722,46 22,46 Z"/>
    <circle cx="21" cy="34" r="2" fill="#595959"/>
    <circle cx="27" cy="31" r="4" fill="#FFAF40"/>
    <circle cx="6" cy="38" r="2" fill="#595959"/>
  </g>
</svg>
