<svg xmlns="http://www.w3.org/2000/svg" width="64" height="64" viewBox="0 0 64 64">
  <g fill="none" fill-rule="evenodd">
    <path fill="#80D25B" d="M30,43 C50.336554,43 59,63 59,63 L1,63 C1,63 9.66344604,43 30,43 Z"/>
    <rect width="18" height="12" x="33" y="39" fill="#BD7575"/>
    <polygon fill="#E43535" points="42 31 54 40 30 40"/>
    <rect width="6" height="9" x="39" y="42" fill="#595959"/>
    <path fill="#22BA8E" d="M43,48 C58.4277306,48 65,63 65,63 L21,63 C21,63 27.5722694,48 43,48 Z"/>
    <circle cx="20" cy="20" r="12" fill="#ED9111"/>
    <path stroke="#ED9111" stroke-linecap="round" stroke-linejoin="round" stroke-width="2" d="M20,5 L20,3 M30.6066017,9.39339828 L32.0208153,7.97918472 M35,20 L37,20 M30.6066017,30.6066017 L32.0208153,32.0208153 M20,35 L20,37 M9.39339828,30.6066017 L7.97918472,32.0208153 M5,20 L3,20 M9.39339828,9.39339828 L7.97918472,7.97918472"/>
  </g>
</svg>
