<svg xmlns="http://www.w3.org/2000/svg" width="64" height="64" viewBox="0 0 64 64">
  <g fill="none" fill-rule="evenodd">
    <path fill="#80D25B" d="M29,41 C49.336554,41 58,61 58,61 L0,61 C0,61 8.66344604,41 29,41 Z"/>
    <rect width="29" height="44" x="7" y="17" fill="#979797"/>
    <path stroke="#595959" stroke-linecap="square" stroke-width="2" d="M11 21L32 21M11 27L32 27M11 33L32 33M11 39L32 39M11 45L32 45M11 51L32 51"/>
    <rect width="20" height="7" x="11" y="10" fill="#595959"/>
    <path stroke="#979797" stroke-linecap="square" stroke-width="2" d="M21,9 L21,4"/>
    <rect width="18" height="12" x="32" y="37" fill="#BD7575"/>
    <polygon fill="#E43535" points="41 29 53 38 29 38"/>
    <rect width="6" height="9" x="38" y="40" fill="#595959"/>
    <path fill="#22BA8E" d="M42,46 C57.4277306,46 64,61 64,61 L20,61 C20,61 26.5722694,46 42,46 Z"/>
  </g>
</svg>
