<svg xmlns="http://www.w3.org/2000/svg" width="64" height="64" viewBox="0 0 64 64">
  <g fill="none" fill-rule="evenodd">
    <rect width="29" height="44" x="7" y="16" fill="#979797"/>
    <path stroke="#595959" stroke-linecap="square" stroke-width="2" d="M11 20L32 20M11 26L32 26M11 32L32 32M11 38L32 38M11 44L32 44M11 50L32 50"/>
    <rect width="20" height="7" x="11" y="9" fill="#595959"/>
    <path stroke="#979797" stroke-linecap="square" stroke-width="2" d="M21,8 L21,3"/>
    <path fill="#80D25B" d="M30,60 C30,56.1340068 26.8659932,53 23,53 C19.1340068,53 16,56.1340068 16,60 L30,60 Z"/>
    <path fill="#80D25B" d="M42,60 C42,56.1340068 38.8659932,53 35,53 C31.1340068,53 28,56.1340068 28,60 L42,60 Z"/>
    <path fill="#22BA8E" d="M58,60 C58,56.1340068 54.8659932,53 51,53 C47.1340068,53 44,56.1340068 44,60 L58,60 Z"/>
    <path fill="#80D25B" d="M47,60 C47,57.2385763 44.7614237,55 42,55 C39.2385763,55 37,57.2385763 37,60 L47,60 Z"/>
    <path fill="#22BA8E" d="M32,60 C32,57.2385763 29.7614237,55 27,55 C24.2385763,55 22,57.2385763 22,60 L32,60 Z"/>
    <path stroke="#9C4D4D" stroke-linecap="square" stroke-width="2" d="M54,47 L54,59"/>
    <path fill="#22BA8E" d="M54,48 C57.8659932,48 61,46.7916306 61,39.75 C61,32.7083694 57.8659932,24 54,24 C50.1340068,24 47,32.7083694 47,39.75 C47,46.7916306 50.1340068,48 54,48 Z"/>
  </g>
</svg>
