<svg xmlns="http://www.w3.org/2000/svg" width="64" height="64" viewBox="0 0 64 64">
  <g fill="none" fill-rule="evenodd">
    <path fill="#5EA7FF" d="M29,43 C49.336554,43 58,63 58,63 L0,63 C0,63 8.66344604,43 29,43 Z"/>
    <rect width="18" height="12" x="32" y="39" fill="#325AA6"/>
    <polygon fill="#5EA7FF" points="41 31 53 40 29 40"/>
    <rect width="6" height="9" x="38" y="42" fill="#5EA7FF"/>
    <path fill="#325AA6" d="M42,48 C57.4277306,48 64,63 64,63 L20,63 C20,63 26.5722694,48 42,48 Z"/>
    <path fill="#325AA6" d="M9.41613251,9.59702925 C11.3038898,6.25568707 14.8885229,4 19,4 C25.0751322,4 30,8.92486775 30,15 C30,19.8203529 26.8994355,23.9165302 22.5838675,25.4029708 C23.4854666,23.8071346 24,21.9636552 24,20 C24,13.9248678 19.0751322,9 13,9 C11.7452207,9 10.5395119,9.210096 9.41613251,9.59702925 Z" transform="matrix(-1 0 0 1 39.416 0)"/>
    <path stroke="#5EA7FF" stroke-linecap="round" stroke-linejoin="round" stroke-width="2" d="M27 19L27 23M25 21L29 21M6 30L6 34M4 32L8 32M19 34L19 38M17 36L21 36"/>
  </g>
</svg>
