<svg xmlns="http://www.w3.org/2000/svg" width="64" height="64" viewBox="0 0 64 64">
  <g fill="none" fill-rule="evenodd">
    <path fill="#80D25B" d="M29,41 C49.336554,41 58,61 58,61 L0,61 C0,61 8.66344604,41 29,41 Z"/>
    <rect width="29" height="44" x="10" y="17" fill="#979797"/>
    <path stroke="#595959" stroke-linecap="square" stroke-width="2" d="M14 21L35 21M14 27L35 27M14 33L35 33M14 39L35 39M14 45L35 45M14 51L35 51"/>
    <rect width="20" height="7" x="14" y="10" fill="#595959"/>
    <path stroke="#979797" stroke-linecap="square" stroke-width="2" d="M24,9 L24,4"/>
    <path fill="#22BA8E" d="M42,46 C57.4277306,46 64,61 64,61 L20,61 C20,61 26.5722694,46 42,46 Z"/>
    <rect width="19" height="7" x="33" y="26" fill="#5EA7FF" rx="3.5"/>
    <rect width="13" height="7" x="5" y="22" fill="#5EA7FF" rx="3.5"/>
    <rect width="19" height="7" x="44" y="11" fill="#5EA7FF" rx="3.5"/>
    <rect width="19" height="7" x="36" y="7" fill="#5EA7FF" rx="3.5"/>
  </g>
</svg>
