<svg xmlns="http://www.w3.org/2000/svg" width="64" height="64" viewBox="0 0 64 64">
  <g fill="none" fill-rule="evenodd">
    <path fill="#80D25B" d="M29,43 C49.336554,43 58,63 58,63 L0,63 C0,63 8.66344604,43 29,43 Z"/>
    <rect width="18" height="12" x="32" y="39" fill="#BD7575"/>
    <polygon fill="#E43535" points="41 31 53 40 29 40"/>
    <rect width="6" height="9" x="38" y="42" fill="#595959"/>
    <path fill="#22BA8E" d="M42,48 C57.4277306,48 64,63 64,63 L20,63 C20,63 26.5722694,48 42,48 Z"/>
    <path stroke="#B4DFFB" stroke-linecap="square" stroke-width="2" d="M10 5L15 10M46 14L53 21M23.4504902 18.4504902L26 21M37.4504902 32.4504902L40 35M56.4504902 31.4504902L59 34M55.4504902 36.4504902L58 39M21.4504902 45.4504902L24 48M4.45049024 38.4504902L7 41M26 28L33 35M13 31L20 38M19 7L26 14M10 18L21 29M31.4723074 16.4723074L36 21M30.4723074 9.47230743L35 14M44.4723074 28.4723074L49 33"/>
  </g>
</svg>
