<svg xmlns="http://www.w3.org/2000/svg" width="64" height="64" viewBox="0 0 64 64">
  <g fill="none" fill-rule="evenodd">
    <path fill="#80D25B" d="M29,43 C49.336554,43 58,63 58,63 L0,63 C0,63 8.66344604,43 29,43 Z"/>
    <path stroke="#979797" stroke-linecap="square" stroke-width="2" d="M15 54L15 8M12 23L5 29"/>
    <path stroke="#979797" stroke-linecap="square" stroke-width="2" d="M25,23 L18,29" transform="matrix(-1 0 0 1 43 0)"/>
    <circle cx="15" cy="21" r="4" fill="#D8D8D8"/>
    <polyline stroke="#BD7575" stroke-linecap="round" stroke-width="2" points="26 14.262 29.464 16.302 32.94 14"/>
    <polyline stroke="#BD7575" stroke-linecap="round" stroke-width="2" points="29 8.262 32.464 10.302 35.94 8"/>
    <rect width="18" height="12" x="32" y="39" fill="#BD7575"/>
    <polygon fill="#E43535" points="41 31 53 40 29 40"/>
    <rect width="6" height="9" x="38" y="42" fill="#595959"/>
    <path fill="#22BA8E" d="M42,48 C57.4277306,48 64,63 64,63 L20,63 C20,63 26.5722694,48 42,48 Z"/>
  </g>
</svg>
