<svg xmlns="http://www.w3.org/2000/svg" width="64" height="64" viewBox="0 0 64 64">
  <g fill="none" fill-rule="evenodd">
    <path fill="#9C4D4D" d="M17,9.99715203 C17,8.34187067 18.2839079,6.63316917 19.8875819,6.17497659 L22.0686892,5.55180308 C23.1353227,5.24705066 24,5.89706013 24,7.00585866 L24,19 L17,19 L17,9.99715203 Z"/>
    <path fill="#9C4D4D" d="M42,9.99715203 C42,8.34187067 43.2839079,6.63316917 44.8875819,6.17497659 L47.0686892,5.55180308 C48.1353227,5.24705066 49,5.89706013 49,7.00585866 L49,19 L42,19 L42,9.99715203 Z" transform="matrix(-1 0 0 1 91 0)"/>
    <circle cx="33" cy="36" r="26" fill="#BD7575"/>
    <circle cx="24" cy="17" r="6" fill="#D8D8D8"/>
    <circle cx="24" cy="17" r="2" fill="#0A3586"/>
    <circle cx="42" cy="17" r="6" fill="#D8D8D8"/>
    <polygon fill="#FFF" points="21 48 28 48 26 58 21 58"/>
    <polygon fill="#FFF" points="39 48 46 48 44 58 39 58" transform="matrix(-1 0 0 1 85 0)"/>
    <circle cx="42" cy="17" r="2" fill="#0A3586"/>
    <path fill="#9C4D4D" d="M20,28 C20,28 26.5,25 33,25 C39.5,25 46,28 46,28 C46,28 43.625,31.375 45.25,34.75 C46.875,38.125 50.0988077,37.0182441 54.5,43.5 C58.9011923,49.9817559 56.7502835,47.3730177 56.7502835,47.3730177 C57.9927676,51.5852837 55.4777975,54.3379234 51.1298111,53.6229242 C51.1298111,53.6229242 44.5,52 33,52 C21.5,52 14.8701889,53.6229242 14.8701889,53.6229242 C10.5236036,54.3834622 8.00983845,51.5659452 9.51118248,47.4091934 C9.51118248,47.4091934 9.02619227,47.1432441 11.5,43.5 C13.9738077,39.8567559 19.125,38.125 20.75,34.75 C22.375,31.375 20,28 20,28 Z"/>
    <ellipse cx="25.5" cy="45" fill="#0A3586" rx="1.5" ry="3"/>
    <ellipse cx="41.5" cy="45" fill="#0A3586" rx="1.5" ry="3"/>
  </g>
</svg>
