<svg xmlns="http://www.w3.org/2000/svg" width="64" height="64" viewBox="0 0 64 64">
  <g fill="none" fill-rule="evenodd">
    <path fill="#FFDD95" d="M31,62 L14.4715668,62 C11.6609431,57.5221861 10,51.9887935 10,46 C10,29 19,25 19,18 C19,11 15,11 15,4 C15,3.77030771 15.0012569,3.54128532 15.0037784,3.31296669 C16.9733274,4.37472871 19.3893038,5 22,5 C26.1739415,5 29.8501569,3.401736 32,0.976692684 C34.1498431,3.401736 37.8260585,5 42,5 C45.0681861,5 47.8674287,4.13638695 49.9891525,2.71559231 C49.9964171,3.1412256 50,3.56943584 50,4 C50,11 46,11 46,18 C46,25 56,29 56,46 C56,51.9887935 54.3390569,57.5221861 51.5284332,62 L35,62 L35,59 L31,59 L31,62 Z"/>
    <g stroke="#22BA8E" stroke-width="2" transform="rotate(-90 50.5 2.5)">
      <path stroke-linecap="square" d="M5,13 L5,2"/>
      <polyline stroke-linecap="round" stroke-linejoin="round" points=".707 5.31 5.052 .712 9.157 5.31"/>
    </g>
    <g stroke="#22BA8E" stroke-width="2" transform="matrix(0 -1 -1 0 17 53)">
      <path stroke-linecap="square" d="M5,13 L5,2"/>
      <polyline stroke-linecap="round" stroke-linejoin="round" points=".707 5.31 5.052 .712 9.157 5.31"/>
    </g>
    <path fill="#D650C7" d="M55.1245668,37.9035666 C54.8344964,36.6586466 54.4842452,35.5092211 54.0922446,34.4405453 C47.926922,36.6764866 40.2811709,38 32,38 C24.4342764,38 17.3989218,36.8952964 11.5383094,34.9993679 C11.2595399,35.9003665 11.0080478,36.8575591 10.7930265,37.8791175 C16.4473334,39.3200509 23.0276741,45.0094571 27.7643658,53.2136478 C28.8752831,55.1378131 29.8156976,57.0806397 30.5841052,59 L35.4279658,59 C36.1963734,57.0806397 37.1367879,55.1378131 38.2477053,53.2136478 C42.9580391,45.0551103 49.4915606,39.3834476 55.1245668,37.9035666 Z"/>
  </g>
</svg>
