<?xml version="1.0" encoding="UTF-8"?>
<svg width="64px" height="64px" viewBox="0 0 64 64" version="1.1" xmlns="http://www.w3.org/2000/svg" xmlns:xlink="http://www.w3.org/1999/xlink">
    <!-- Generator: Sketch 43.2 (39069) - http://www.bohemiancoding.com/sketch -->
    <title>hockeydual</title>
    <desc>Created with Sketch.</desc>
    <defs></defs>
    <g id="Outdoor-Activities-(142)" stroke="none" stroke-width="1" fill="none" fill-rule="evenodd">
        <path d="M2.65693039,53.6861392 C3.39868725,52.2026255 5.33963901,51 7.00046499,51 L19.0956587,51 L45.7839977,9.85310102 C45.7839977,9.85310102 49.9456973,7.94960694 49.434929,8.85310102 C48.9241608,9.75659511 22.4829995,56.3847682 22.4829995,56.3847682 C21.6639615,57.8291208 19.6544098,59 17.991212,59 L3.00878799,59 C1.34708027,59 0.598840415,57.8023192 1.34306961,56.3138608 L2.65693039,53.6861392 Z" id="Rectangle-91" fill="#979797"></path>
        <path d="M16.6569304,53.6861392 C17.3986873,52.2026255 19.339639,51 21.000465,51 L33.0956587,51 L59.7839977,9.85310102 C59.7839977,9.85310102 63.9456973,7.94960694 63.434929,8.85310102 C62.9241608,9.75659511 36.4829995,56.3847682 36.4829995,56.3847682 C35.6639615,57.8291208 33.6544098,59 31.991212,59 L17.008788,59 C15.3470803,59 14.5988404,57.8023192 15.3430696,56.3138608 L16.6569304,53.6861392 Z" id="Rectangle-91-Copy" fill="#595959" transform="translate(38.739186, 33.804889) scale(-1, 1) translate(-38.739186, -33.804889) "></path>
    </g>
</svg>