<svg xmlns="http://www.w3.org/2000/svg" width="64" height="64" viewBox="0 0 64 64">
  <g fill="none" fill-rule="evenodd">
    <circle cx="23" cy="38" r="23" fill="#FFAF40"/>
    <circle cx="23" cy="38" r="19" fill="#FFDD95"/>
    <path fill="#ED9111" d="M28.2126416,45.638779 C28.353692,45.0448826 28.6478086,44.6386269 29.095,44.42 C29.5450023,44.1999989 29.9999977,44.1599993 30.46,44.3 C31.5400054,44.6800019 31.9300015,45.4499942 31.63,46.61 C30.8099959,48.61001 29.4300097,49.8199979 27.49,50.24 C27.089998,50.24 26.6600023,50.2100003 26.2,50.15 C25.7399977,50.0899997 25.2600025,49.9900007 24.76,49.85 C24.4799986,49.7899997 24.2000014,49.7350002 23.92,49.685 C23.6399986,49.6349998 23.3700013,49.61 23.11,49.61 C22.7499982,49.61 22.4200015,49.6599995 22.12,49.76 L20.95,50.12 C20.1099958,50.2400006 19.3200037,50.2800002 18.58,50.24 C17.7399958,49.9799987 17.215001,49.650002 17.005,49.25 C16.794999,48.849998 16.7499994,48.4100024 16.87,47.93 C16.9100002,47.7499991 16.9799995,47.5950006 17.08,47.465 C17.1800005,47.3349993 17.2899994,47.1900008 17.41,47.03 C17.5100005,46.8699992 17.6249994,46.7150008 17.755,46.565 C17.8850007,46.4149992 17.9899996,46.2500009 18.07,46.07 L18.04,46.13 C18.2600011,45.0099944 18.4749989,43.955005 18.685,42.965 C18.8950011,41.974995 19.099999,40.9300055 19.3,39.83 C19.0799989,39.8500001 18.8750009,39.855 18.685,39.845 C18.4949991,39.8349999 18.2900011,39.83 18.07,39.83 L17.65,39.83 C17.2899982,39.83 17.0050011,39.6650016 16.795,39.335 C16.5849989,39.0049984 16.48,38.6700017 16.48,38.33 C16.48,38.0699987 16.5099997,37.7850015 16.57,37.475 C16.6300003,37.1649984 16.7399992,36.9000011 16.9,36.68 C17.0200006,36.5999996 17.2199986,36.5200004 17.5,36.44 C17.7800014,36.3599996 18.0599986,36.3000002 18.34,36.26 C18.6200014,36.2199998 18.8699989,36.1950001 19.09,36.185 C19.3100011,36.1749999 19.42,36.1799999 19.42,36.2 C19.42,36.1799999 19.4799994,36.1650001 19.6,36.155 C19.7200006,36.145 19.879999,36.14 20.08,36.14 L21.88,27.02 C22.0600009,26.3399966 22.4899966,25.8400016 23.17,25.52 C23.8500034,25.1999984 24.7399945,25.0899995 25.84,25.19 L25.99,25.19 L27.22,25.31 C29.1200095,25.7900024 30.1499992,27.0399899 30.31,29.06 C30.3500002,29.3200013 30.3300004,29.5599989 30.25,29.78 C30.1099993,30.2000021 29.840002,30.509999 29.44,30.71 C29.039998,30.910001 28.6200022,30.9600005 28.18,30.86 C27.7999981,30.7399994 27.5000011,30.5300015 27.28,30.23 C27.0599989,29.9299985 26.95,29.5500023 26.95,29.09 C27.0100003,28.7899985 26.7600028,28.5700007 26.2,28.43 C25.9799989,28.4500001 25.8150006,28.4749999 25.705,28.505 C25.5949995,28.5350002 25.4900005,28.6099994 25.39,28.73 C25.3099996,28.9700012 25.1450012,29.689994 24.895,30.89 C24.6449988,32.090006 24.3100021,33.8299886 23.89,36.11 C24.2500018,36.0699998 24.5699986,36.05 24.85,36.05 L25.72,36.05 C26.5600042,36.0299999 27.2999968,36.0899993 27.94,36.23 C28.3800022,36.3700007 28.7099989,36.6799976 28.93,37.16 C29.1500011,37.6400024 29.2200004,38.1399974 29.14,38.66 C28.8999988,39.8400059 28.2500053,40.2400019 27.19,39.86 C27.1099996,39.8199998 27.0300004,39.7950001 26.95,39.785 C26.8699996,39.775 26.7800005,39.7600001 26.68,39.74 C26.1999976,39.5999993 25.5800038,39.5599997 24.82,39.62 L23.14,39.77 L21.91,45.77 C22.2300016,45.7299998 22.5299986,45.7000001 22.81,45.68 C23.0900014,45.6599999 23.3799985,45.65 23.68,45.65 C24.280003,45.65 24.8449973,45.7099994 25.375,45.83 C25.9050027,45.9500006 26.4299974,46.1499986 26.95,46.43 L26.92,46.43 C27.4456313,46.4884035 27.8765078,46.2246657 28.2126416,45.638779 L28.2126416,45.638779 Z"/>
    <path fill="#FFDD95" d="M28.0988064,11.1267381 L31.9208737,8 L38.832189,8.05383193 L45.1686561,11.9870878 L54.957096,12.0771281 L54.3780823,25.1839222 L47.7804662,25.0881141 L42.0005828,27.506706 L33.5009457,17.4918865 C33.5009457,17.4918865 24.8547723,23.2398785 24.2323081,22.5064511 C24.0594862,22.3028213 21.0869511,20.3215783 21.4966887,19.029693 C21.9064263,17.7378077 28.0988064,11.1267381 28.0988064,11.1267381 Z"/>
    <path stroke="#FFAF40" stroke-linecap="round" stroke-width="2" d="M43.1389288,28.835198 L32.571055,17.5830017 L26.5410308,21.8403875 C25.1857774,22.7972388 23.1699578,22.5929997 22.0361299,21.3815977 L22.6122819,21.9971687 C21.4795473,20.7869348 21.4605064,18.8096733 22.5698992,17.5806695 L31.1081753,8.12182532 L39.0930898,8.0429411 L45.2840925,12.0118035 L53.2876716,11.9931389"/>
    <polyline stroke="#FFAF40" stroke-linecap="round" stroke-width="2" points="42.421 27.745 48.323 25.029 54.114 25.049"/>
    <rect width="9" height="19" x="53" y="9.984" fill="#D8D8D8"/>
    <rect width="2" height="2" x="56" y="12.984" fill="#979797"/>
  </g>
</svg>
