<svg xmlns="http://www.w3.org/2000/svg" width="64" height="64" viewBox="0 0 64 64">
  <g fill="none" fill-rule="evenodd">
    <circle cx="24" cy="38" r="23" fill="#FFAF40"/>
    <circle cx="24" cy="38" r="19" fill="#FFDD95"/>
    <path fill="#ED9111" d="M27.32,25.875 C27.6933352,26.0383342 27.88,26.3299979 27.88,26.75 C27.88,27.3800031 27.5883362,27.8349986 27.005,28.115 C26.6316648,28.3016676 26.10667,28.395 25.43,28.395 C24.8233303,28.395 24.2050031,28.2958343 23.575,28.0975 C22.9449968,27.8991657 22.5950004,27.7183342 22.525,27.555 C22.1283313,26.4349944 22.3266627,25.6300024 23.12,25.14 C23.3066676,25.0233328 23.6683306,24.965 24.205,24.965 C25.6750073,24.965 26.7133303,25.2683303 27.32,25.875 Z M32.255,38.72 C32.255,40.4233418 31.3450091,42.5116543 29.525,44.985 C27.7749913,47.2250112 26.095008,48.345 24.485,48.345 C22.8983254,48.345 21.2883415,47.8550049 19.655,46.875 C18.254993,45.8483282 17.5783331,44.9033377 17.625,44.04 C17.6716669,43.5499975 18.266661,43.305 19.41,43.305 C20.3666715,43.305 21.2533292,43.4683317 22.07,43.795 C22.3500014,44.0283345 22.8049969,44.3199983 23.435,44.67 C23.8316686,44.6933334 24.3974963,44.238338 25.1325,43.305 C25.8675037,42.371662 26.235,41.6483359 26.235,41.135 C26.235,40.8316651 26.0366687,40.68 25.64,40.68 C25.429999,40.68 24.5433412,40.7499993 22.98,40.89 C21.4166588,41.0300007 20.2383373,41.1 19.445,41.1 C17.6716578,41.1 16.5633355,40.5750052 16.12,39.525 C16.0966666,39.5016665 16.085,39.3850011 16.085,39.175 C16.085,37.9616606 17.1349895,36.1183457 19.235,33.645 C21.5450116,31.0083202 23.5399916,29.69 25.22,29.69 C26.410006,29.69 27.6116606,30.1449955 28.825,31.055 C30.1083398,31.8716707 30.7033338,32.5016645 30.61,32.945 C30.3299986,34.4383408 29.3850081,35.185 27.775,35.185 C27.5183321,35.185 27.2383349,35.1441671 26.935,35.0625 C26.6316652,34.9808329 26.3166683,34.7241688 25.99,34.2925 C25.6633317,33.8608312 25.3133352,33.645 24.94,33.645 C24.5199979,33.645 23.7675054,34.2341608 22.6825,35.4125 C21.5974946,36.5908392 21.055,37.4366641 21.055,37.95 C21.055,38.0200004 21.1483324,38.055 21.335,38.055 C21.6850018,38.055 22.8399902,37.8450021 24.8,37.425 C26.7600098,37.0049979 28.2883278,36.795 29.385,36.795 C31.2983429,36.795 32.255,37.4366603 32.255,38.72 Z M27.355,51.6 C27.355,52.5800049 26.6900066,53.2916645 25.36,53.735 C25.0099983,53.8283338 24.3858378,53.705835 23.4875,53.3675 C22.5891622,53.029165 22.1283335,52.7200014 22.105,52.44 C21.9883327,51.4599951 22.1866641,50.7950017 22.7,50.445 C22.9800014,50.2349989 23.4349969,50.13 24.065,50.13 C24.8350039,50.13 25.5466634,50.2349989 26.2,50.445 C26.8533366,50.655001 27.2091664,50.8708322 27.2675,51.0925 C27.3258336,51.3141678 27.355,51.4833328 27.355,51.6 Z"/>
    <path fill="#FFDD95" d="M29.0988064,11.1267381 L32.9208737,8 L39.832189,8.05383193 L46.1686561,11.9870878 L55.957096,12.0771281 L55.3780823,25.1839222 L48.7804662,25.0881141 L43.0005828,27.506706 L34.5009457,17.4918865 C34.5009457,17.4918865 25.8547723,23.2398785 25.2323081,22.5064511 C25.0594862,22.3028213 22.0869511,20.3215783 22.4966887,19.029693 C22.9064263,17.7378077 29.0988064,11.1267381 29.0988064,11.1267381 Z"/>
    <path stroke="#FFAF40" stroke-linecap="round" stroke-width="2" d="M44.1389288,28.835198 L33.571055,17.5830017 L27.5410308,21.8403875 C26.1857774,22.7972388 24.1699578,22.5929997 23.0361299,21.3815977 L23.6122819,21.9971687 C22.4795473,20.7869348 22.4605064,18.8096733 23.5698992,17.5806695 L32.1081753,8.12182532 L40.0930898,8.0429411 L46.2840925,12.0118035 L54.2876716,11.9931389"/>
    <polyline stroke="#FFAF40" stroke-linecap="round" stroke-width="2" points="43.421 27.745 49.323 25.029 55.114 25.049"/>
    <rect width="9" height="19" x="54" y="9.984" fill="#D8D8D8"/>
    <rect width="2" height="2" x="57" y="12.984" fill="#979797"/>
  </g>
</svg>
