<svg xmlns="http://www.w3.org/2000/svg" width="64" height="64" viewBox="0 0 64 64">
  <g fill="none" fill-rule="evenodd">
    <circle cx="24" cy="38" r="23" fill="#FFAF40"/>
    <circle cx="24" cy="38" r="19" fill="#FFDD95"/>
    <path fill="#ED9111" d="M28.32,37.43 C28.2199995,37.43 27.6400053,37.2900014 26.58,37.01 L20.01,38.06 C20.01,38.6400029 20.0299998,39.2099972 20.07,39.77 L24.78,39.08 C25.4000031,38.5199972 25.8399987,38.2200002 26.1,38.18 C26.4800019,38.1199997 26.8949978,38.4049969 27.345,39.035 C27.7950023,39.6650032 28.0699995,40.2899969 28.17,40.91 C28.2300003,41.3300021 28.1500011,41.6949984 27.93,42.005 C27.7099989,42.3150015 27.4700013,42.4899998 27.21,42.53 C27.1099995,42.5500001 26.5300053,42.4200014 25.47,42.14 L20.61,42.92 C21.3900039,45.5800133 22.8199896,46.91 24.9,46.91 C25.7400042,46.91 26.4399972,46.5900032 27,45.95 C27.5000025,45.3699971 27.7999995,44.6500043 27.9,43.79 C28.300002,42.9699959 28.999995,42.56 30,42.56 C30.6200031,42.56 31.1799975,42.7349982 31.68,43.085 C32.1800025,43.4350018 32.43,43.8599975 32.43,44.36 C32.43,44.4800006 32.4200001,44.5999994 32.4,44.72 C32.3399997,44.9400011 32.1500016,45.1899986 31.83,45.47 C31.4699982,45.8100017 31.2500004,46.0299995 31.17,46.13 C31.0099992,46.3900013 30.6700026,46.8599966 30.15,47.54 C28.8499935,49.6000103 27.3400086,50.63 25.62,50.63 C23.3199885,50.63 21.3800079,49.9500068 19.8,48.59 C18.3599928,47.389994 17.3000034,45.7100108 16.62,43.55 L15.75,43.67 C15.0899967,44.1900026 14.6400012,44.4699998 14.4,44.51 C13.6199961,44.6300006 13.130001,44.0700062 12.93,42.83 C12.9099999,42.629999 12.9,42.4500008 12.9,42.29 C12.9,41.1899945 13.399995,40.5600008 14.4,40.4 C14.600001,40.3799999 15.0899961,40.37 15.87,40.37 L15.96,40.37 C15.8799996,39.8299973 15.8300001,39.2800028 15.81,38.72 L15.57,38.75 C14.9299968,39.2500025 14.4800013,39.5199998 14.22,39.56 C13.4399961,39.7000007 12.9600009,39.1400063 12.78,37.88 C12.7399998,37.6999991 12.72,37.5300008 12.72,37.37 C12.72,36.2699945 13.2299949,35.6400008 14.25,35.48 C14.4300009,35.4399998 14.919996,35.4299999 15.72,35.45 L15.96,35.42 C16.3400019,32.5399856 17.2899924,30.2500085 18.81,28.55 C20.5300086,26.6499905 22.7999859,25.7 25.62,25.7 C26.5400046,25.7 27.5199948,26.0299967 28.56,26.69 C29.4400044,27.2500028 30.0899979,27.829997 30.51,28.43 C30.7300011,28.7700017 30.9999984,29.0699987 31.32,29.33 C31.6400016,29.5900013 31.8099999,29.7299999 31.83,29.75 C31.9900008,30.0300014 32.07,30.3099986 32.07,30.59 C32.07,31.1500028 31.7200035,31.629998 31.02,32.03 C30.3999969,32.3700017 29.7100038,32.54 28.95,32.54 C28.0699956,32.54 27.5100012,32.3200022 27.27,31.88 C27.2299998,31.7999996 27.1600005,31.3900037 27.06,30.65 C26.9599995,30.4699991 26.6700024,30.2300015 26.19,29.93 C25.6499973,29.6099984 25.2200016,29.45 24.9,29.45 C22.3799874,29.45 20.8300029,31.2299822 20.25,34.79 L25.89,33.98 C26.5300032,33.4199972 26.9699988,33.1200002 27.21,33.08 C27.5900019,33.0199997 28.0049978,33.2999969 28.455,33.92 C28.9050023,34.5400031 29.1799995,35.1599969 29.28,35.78 C29.3400003,36.2200022 29.2600011,36.5949985 29.04,36.905 C28.8199989,37.2150016 28.5800013,37.3899998 28.32,37.43 Z"/>
    <path fill="#FFDD95" d="M29.0988064,11.1267381 L32.9208737,8 L39.832189,8.05383193 L46.1686561,11.9870878 L55.957096,12.0771281 L55.3780823,25.1839222 L48.7804662,25.0881141 L43.0005828,27.506706 L34.5009457,17.4918865 C34.5009457,17.4918865 25.8547723,23.2398785 25.2323081,22.5064511 C25.0594862,22.3028213 22.0869511,20.3215783 22.4966887,19.029693 C22.9064263,17.7378077 29.0988064,11.1267381 29.0988064,11.1267381 Z"/>
    <path stroke="#FFAF40" stroke-linecap="round" stroke-width="2" d="M44.1389288,28.835198 L33.571055,17.5830017 L27.5410308,21.8403875 C26.1857774,22.7972388 24.1699578,22.5929997 23.0361299,21.3815977 L23.6122819,21.9971687 C22.4795473,20.7869348 22.4605064,18.8096733 23.5698992,17.5806695 L32.1081753,8.12182532 L40.0930898,8.0429411 L46.2840925,12.0118035 L54.2876716,11.9931389"/>
    <polyline stroke="#FFAF40" stroke-linecap="round" stroke-width="2" points="43.421 27.745 49.323 25.029 55.114 25.049"/>
    <rect width="9" height="19" x="54" y="9.984" fill="#D8D8D8"/>
    <rect width="2" height="2" x="57" y="12.984" fill="#979797"/>
  </g>
</svg>
