<?xml version="1.0" encoding="UTF-8"?>
<svg width="64px" height="64px" viewBox="0 0 64 64" version="1.1" xmlns="http://www.w3.org/2000/svg" xmlns:xlink="http://www.w3.org/1999/xlink">
    <!-- Generator: Sketch 43.2 (39069) - http://www.bohemiancoding.com/sketch -->
    <title>hook</title>
    <desc>Created with Sketch.</desc>
    <defs></defs>
    <g id="Outdoor-Activities-(142)" stroke="none" stroke-width="1" fill="none" fill-rule="evenodd">
        <path d="M6.18232666,36 C6.06192958,36.8197863 6,37.6540518 6,38.5 C6,50.0979797 17.6405965,59.5 32,59.5 C46.3594035,59.5 58,50.0979797 58,38.5 C58,37.6540518 57.9380704,36.8197863 57.8176733,36 C56.2874222,46.4195128 45.312039,54.5 32,54.5 C18.687961,54.5 7.71257777,46.4195128 6.18232666,36 Z" id="Combined-Shape" fill="#0A3586"></path>
        <polygon id="Triangle-5" fill="#325AA6" transform="translate(32.000000, 37.000000) scale(-1, -1) translate(-32.000000, -37.000000) " points="32.7567008 12 35 62 29 62 31.1964629 12"></polygon>
        <circle id="Oval-23" fill="#0A3586" cx="32" cy="8" r="5"></circle>
        <polygon id="Triangle-4" fill="#0A3586" points="7 34 12 41 2 41"></polygon>
        <polygon id="Triangle-4-Copy" fill="#0A3586" points="57 34 62 41 52 41"></polygon>
        <path d="M23,18 L41,18" id="Line" stroke="#0A3586" stroke-width="2" stroke-linecap="square"></path>
        <circle id="Oval-24" fill="#325AA6" cx="41" cy="18" r="2"></circle>
        <circle id="Oval-24-Copy" fill="#325AA6" cx="23" cy="18" r="2"></circle>
    </g>
</svg>