<svg xmlns="http://www.w3.org/2000/svg" width="64" height="64" viewBox="0 0 64 64">
  <g fill="none" fill-rule="evenodd">
    <g transform="matrix(-1 0 0 1 47 2)">
      <path fill="#80D25B" d="M23.4866036,48.0097065 C31.1650958,48.0097065 38.5800473,40.5183261 38.5800473,32.8398339 C38.5800473,25.1613417 26.148885,4.16107354 26.148885,4.16107354 C26.148885,4.16107354 11.1666278,23.5669596 10.2595821,31.8158361 C9.35253646,40.0647126 15.8081114,48.0097065 23.4866036,48.0097065 Z" transform="rotate(36 24.377 26.085)"/>
      <path stroke="#22BA8E" stroke-linecap="round" stroke-width="3" d="M32.7630713,16.2432328 C32.7630713,16.2432328 18.185904,25.1905182 12.8848872,41.669352 C11.5209508,45.9093085 9.46860808,48.9344412 7.17240395,51.0891989"/>
      <polyline stroke="#22BA8E" stroke-linecap="round" stroke-width="2" points="24.948 37.035 15.205 36.622 10.489 28.312"/>
      <polyline stroke="#22BA8E" stroke-linecap="round" stroke-width="2" points="27.941 28.341 21.296 26.982 19.162 21.564"/>
    </g>
    <path fill="#FFDD95" d="M25.0988064,12.1267381 L28.9208737,9 L35.832189,9.05383193 L42.1686561,12.9870878 L51.957096,13.0771281 L51.3780823,26.1839222 L44.7804662,26.0881141 L39.0005828,28.506706 L30.5009457,18.4918865 C30.5009457,18.4918865 21.8547723,24.2398785 21.2323081,23.5064511 C21.0594862,23.3028213 18.0869511,21.3215783 18.4966887,20.029693 C18.9064263,18.7378077 25.0988064,12.1267381 25.0988064,12.1267381 Z"/>
    <path stroke="#FFAF40" stroke-linecap="round" stroke-width="2" d="M40.1389288,29.835198 L29.571055,18.5830017 L23.5410308,22.8403875 C22.1857774,23.7972388 20.1699578,23.5929997 19.0361299,22.3815977 L19.6122819,22.9971687 C18.4795473,21.7869348 18.4605064,19.8096733 19.5698992,18.5806695 L28.1081753,9.12182532 L36.0930898,9.0429411 L42.2840925,13.0118035 L50.2876716,12.9931389"/>
    <polyline stroke="#FFAF40" stroke-linecap="round" stroke-width="2" points="39.421 28.745 45.323 26.029 51.114 26.049"/>
    <rect width="9" height="19" x="50" y="10.984" fill="#D8D8D8"/>
    <rect width="2" height="2" x="53" y="13.984" fill="#979797"/>
  </g>
</svg>
