<svg xmlns="http://www.w3.org/2000/svg" width="64" height="64" viewBox="0 0 64 64">
  <g fill="none" fill-rule="evenodd">
    <path fill="#9C4D4D" d="M36.24375,26.9989936 L37.7158796,21.0008692 C37.7158796,21.0008692 46.1146829,11.4111921 47.7434822,26.9989936 C48.1922346,31.2936071 43.4711136,38.4219377 42.8469126,41.7102089 C42.2227116,44.9984802 44.3053334,52.3661283 44.4802879,55.5681954 C44.7217746,59.9879559 19.7439114,60.2995803 20.0024246,55.5681954 C20.2609379,50.8368105 19.9820313,49.6735709 23.58125,42.5867952 C27.1804688,35.5000195 36.24375,26.9989936 36.24375,26.9989936 Z"/>
    <path fill="#BD7575" d="M15,58.5 C15,56.5670034 16.5717012,55 18.4946613,55 L45.5053387,55 C47.4353869,55 49,56.5709366 49,58.5 L49,62 L15,62 L15,58.5 Z"/>
    <path fill="#9C4D4D" d="M50.6897733,27.0877326 C50.6897733,27.0877326 50.1994313,22.5639159 47.9329831,19.0887459 C45.666535,15.6135759 43.3411618,14.1884416 39.2401089,12.9427016 C30.3877796,10.253709 26.525557,12.1175132 26.525557,12.1175132 L27.9778406,16.3076066 C27.9778406,16.3076066 15,19.095817 15,27.9856098 L19.9013017,32.3573942 C19.9013017,32.3573942 25.1410963,27.0877326 31.0404542,27.0877326 C36.939812,27.0877326 38.6347652,25.5483369 38.6347652,25.5483369 L50.6897733,27.0877326 Z"/>
  </g>
</svg>
