<svg xmlns="http://www.w3.org/2000/svg" width="64" height="64" viewBox="0 0 64 64">
  <g fill="none" fill-rule="evenodd">
    <polygon fill="#5B68C0" points="13 2 42.105 2 54 13.753 54 61 13 61"/>
    <rect width="33" height="18" x="13" y="25" fill="#ED9111"/>
    <polygon fill="#0A3586" points="42 2 54 2 54 14" transform="rotate(-180 48 8)"/>
    <path fill="#FFF" d="M23.132,37.824 C23.1880003,38.0573345 23.216,38.2066663 23.216,38.272 C23.216,38.468001 23.1016678,38.6289994 22.873,38.755 C22.6443322,38.8810006 22.3993346,38.944 22.138,38.944 C21.7366647,38.944 21.4800006,38.7946682 21.368,38.496 C21.3213331,38.3746661 21.298,38.2720004 21.298,38.188 C21.298,38.0666661 21.3516661,37.9360007 21.459,37.796 C21.5663339,37.6559993 21.62,37.5253339 21.62,37.404 C21.7320006,36.9186642 21.788,36.2186712 21.788,35.304 C21.788,33.7173254 21.6760011,32.9053335 21.452,32.868 C21.2839992,32.8399999 21.0133352,33.1059972 20.64,33.666 C20.247998,34.2540029 19.9213346,34.9119964 19.66,35.64 C19.3519985,36.498671 19.2213331,37.2546634 19.268,37.908 C19.2399999,37.9640003 19.226,38.0199997 19.226,38.076 C19.226,38.1600004 19.263333,38.2789992 19.338,38.433 C19.412667,38.5870008 19.45,38.7106662 19.45,38.804 C19.45,38.8973338 19.4173337,38.9859996 19.352,39.07 C19.0999987,39.4340018 18.8480013,39.616 18.596,39.616 C18.3346654,39.616 18.0826679,39.4106687 17.84,39 C17.6999993,38.7573321 17.63,37.3620127 17.63,34.814 C17.63,33.880662 17.6533331,31.7573499 17.7,28.444 C17.7,28.3879997 17.6953334,28.3016672 17.686,28.185 C17.6766666,28.0683327 17.672,27.9773337 17.672,27.912 C17.6813334,27.8186662 17.7093331,27.734667 17.756,27.66 C17.8586672,27.463999 18.0779983,27.366 18.414,27.366 C18.7126682,27.366 18.9856654,27.4453325 19.233,27.604 C19.4803346,27.7626675 19.5760003,27.9493323 19.52,28.164 C19.5106666,28.2200003 19.4663337,28.285333 19.387,28.36 C19.3076663,28.434667 19.268,28.509333 19.268,28.584 L19.268,33.092 C19.8000027,31.8973274 20.5839948,31.262667 21.62,31.188 C22.1800028,31.1506665 22.6279983,31.5706623 22.964,32.448 C23.2720015,33.2506707 23.426,34.2353275 23.426,35.402 C23.426,36.2980045 23.328001,37.1053297 23.132,37.824 Z M28.984,31.776 C29.6093365,32.4106698 29.922,33.4793258 29.922,34.982 C29.922,36.1486725 29.7026689,37.1426626 29.264,37.964 C28.7693309,38.8880046 28.0880043,39.35 27.22,39.35 C26.361329,39.35 25.698669,38.9346708 25.232,38.104 C24.8213313,37.3759964 24.616,36.4520056 24.616,35.332 C24.616,34.3426617 24.7746651,33.4560039 25.092,32.672 C25.4280017,31.8319958 25.8573307,31.3373341 26.38,31.188 C26.650668,31.113333 26.9306652,31.076 27.22,31.076 C27.9386703,31.076 28.5266644,31.309331 28.984,31.776 Z M27.388,32.448 C27.0799985,32.4199999 26.8140011,32.7093303 26.59,33.316 C26.393999,33.8666694 26.296,34.4453303 26.296,35.052 C26.296,35.9293377 26.333333,36.5499982 26.408,36.914 C26.5386673,37.5673366 26.8093313,37.9266663 27.22,37.992 C27.4813346,38.0293335 27.7239989,37.6700038 27.948,36.914 C28.1626677,36.1859964 28.27,35.4066708 28.27,34.576 C28.27,33.2133265 27.9760029,32.5040003 27.388,32.448 Z M35.676,37.124 C35.676,37.7773366 35.442669,38.3349977 34.976,38.797 C34.509331,39.2590023 33.9586698,39.49 33.324,39.49 C32.9226647,39.49 32.5073355,39.2986686 32.078,38.916 C31.7419983,38.6079985 31.438668,38.2300022 31.168,37.782 C30.9346655,37.389998 30.8319999,37.1426672 30.86,37.04 C30.9626672,36.8066655 31.284664,36.69 31.826,36.69 C32.0500011,36.69 32.2273327,36.7226663 32.358,36.788 C32.5820011,36.9093339 32.7079999,37.0633324 32.736,37.25 C32.7640001,37.4646677 32.8106663,37.5999997 32.876,37.656 C33.072001,37.9546682 33.2493325,38.104 33.408,38.104 C33.5293339,38.104 33.6436661,38.0223342 33.751,37.859 C33.8583339,37.6956659 33.912,37.5020011 33.912,37.278 C33.912,37.1379993 33.8886669,36.9980007 33.842,36.858 C33.7953331,36.7179993 33.5433356,36.5033348 33.086,36.214 C32.5353306,35.8686649 32.1433345,35.5653346 31.91,35.304 C31.5086647,34.8559978 31.308,34.3333363 31.308,33.736 C31.308,33.0359965 31.5133313,32.422336 31.924,31.895 C32.3346687,31.367664 32.8573302,31.104 33.492,31.104 C34.1453366,31.104 34.6446649,31.3513309 34.99,31.846 C35.2700014,32.2473353 35.3866669,32.6533313 35.34,33.064 C35.4426672,33.1760006 35.494,33.3626654 35.494,33.624 C35.494,33.9040014 35.3913344,34.141999 35.186,34.338 C34.9806656,34.534001 34.7706677,34.632 34.556,34.632 C34.2386651,34.632 33.9633345,34.4220021 33.73,34.002 C33.6646663,33.8899994 33.632,33.7406676 33.632,33.554 C33.632,33.4699996 33.6389999,33.3510008 33.653,33.197 C33.6670001,33.0429992 33.674,32.9333337 33.674,32.868 C33.674,32.6253321 33.5853342,32.504 33.408,32.504 C33.137332,32.504 33.002,32.7699973 33.002,33.302 C33.002,33.843336 33.1793316,34.2773317 33.534,34.604 C33.6740007,34.7346673 33.977331,34.9213321 34.444,35.164 C34.8453353,35.3693344 35.1299992,35.5793323 35.298,35.794 C35.5500013,36.1206683 35.676,36.5639972 35.676,37.124 Z M41.612,32.644 C41.537333,32.644 41.4206675,32.613667 41.262,32.553 C41.1033325,32.492333 40.9820004,32.462 40.898,32.462 C40.8326663,32.462 40.7673337,32.4759999 40.702,32.504 L40.184,32.77 L40.184,37.558 C40.184,37.7353342 40.2796657,37.9639986 40.471,38.244 C40.6623343,38.5240014 40.7393335,38.7479992 40.702,38.916 C40.6553331,39.1213344 40.5176678,39.2846661 40.289,39.406 C40.0603322,39.5273339 39.8153346,39.588 39.554,39.588 C39.0593309,39.588 38.7186676,39.3686689 38.532,38.93 C38.4759997,38.7993327 38.4433334,38.3840035 38.434,37.684 C38.4246666,37.217331 38.4293332,36.4893383 38.448,35.5 C38.4666668,34.3799944 38.476,33.6706682 38.476,33.372 C38.4199997,33.3906668 38.3266673,33.4536661 38.196,33.561 C38.0653327,33.6683339 37.9346673,33.722 37.804,33.722 C37.7013328,33.722 37.5706675,33.6940003 37.412,33.638 C36.7586634,33.4139989 36.432,33.1853345 36.432,32.952 C36.432,32.8959997 36.4459999,32.8353337 36.474,32.77 C36.5393337,32.6206659 36.6606658,32.5366668 36.838,32.518 C37.108668,32.4806665 37.2719997,32.4480001 37.328,32.42 C37.5426677,32.3359996 37.9346638,32.1353349 38.504,31.818 L38.504,30.6 C38.504,30.5066662 38.4783336,30.3830008 38.427,30.229 C38.3756664,30.0749992 38.35,29.960667 38.35,29.886 C38.35,29.8019996 38.3733331,29.722667 38.42,29.648 C38.6626679,29.2746648 38.9893313,29.088 39.4,29.088 C39.8760024,29.088 40.211999,29.2746648 40.408,29.648 C40.482667,29.7973341 40.52,29.9186662 40.52,30.012 C40.52,30.1240006 40.4640006,30.2406661 40.352,30.362 C40.2399994,30.4833339 40.184,30.5953328 40.184,30.698 L40.184,31.384 C40.3520008,31.309333 40.5386656,31.1833342 40.744,31.006 C40.9026675,30.8753327 41.0379994,30.81 41.15,30.81 C41.1966669,30.81 41.2479997,30.8193332 41.304,30.838 C41.8920029,30.9966675 42.186,31.3513306 42.186,31.902 C42.186,32.0793342 42.1323339,32.2473325 42.025,32.406 C41.9176661,32.5646675 41.7800008,32.644 41.612,32.644 Z"/>
  </g>
</svg>
