<?xml version="1.0" encoding="UTF-8"?>
<svg width="64px" height="64px" viewBox="0 0 64 64" version="1.1" xmlns="http://www.w3.org/2000/svg" xmlns:xlink="http://www.w3.org/1999/xlink">
    <!-- Generator: Sketch 43.2 (39069) - http://www.bohemiancoding.com/sketch -->
    <title>hotel</title>
    <desc>Created with Sketch.</desc>
    <defs></defs>
    <g id="Outdoor-Activities-(142)" stroke="none" stroke-width="1" fill="none" fill-rule="evenodd">
        <polyline id="Line-Copy-94" stroke="#979797" stroke-width="2" stroke-linecap="square" points="16 23.4453261 32 7.44532608 48 23.4453261"></polyline>
        <path d="M1,26.9932874 C1,25.8924252 1.90035102,25 2.99263021,25 L61.0073698,25 C62.1078691,25 63,25.8997127 63,26.9932874 L63,52.0067126 C63,53.1075748 62.099649,54 61.0073698,54 L2.99263021,54 C1.89213093,54 1,53.1002873 1,52.0067126 L1,26.9932874 Z" id="Rectangle-160-Copy-2" fill="#BD7575"></path>
        <rect id="Rectangle-162-Copy-2" fill="#FF78C7" x="3" y="27" width="58" height="25"></rect>
        <rect id="Rectangle-161-Copy-5" fill="#AB5F5F" x="10" y="22" width="10" height="3"></rect>
        <rect id="Rectangle-161-Copy-4" fill="#AB5F5F" x="44" y="22" width="10" height="3"></rect>
        <circle id="Oval-80-Copy-2" fill="#D8D8D8" cx="32" cy="9" r="3"></circle>
        <path d="M24.922,42.824 C24.9780003,43.0573345 25.006,43.2066663 25.006,43.272 C25.006,43.468001 24.8916678,43.6289994 24.663,43.755 C24.4343322,43.8810006 24.1893346,43.944 23.928,43.944 C23.5266647,43.944 23.2700006,43.7946682 23.158,43.496 C23.1113331,43.3746661 23.088,43.2720004 23.088,43.188 C23.088,43.0666661 23.1416661,42.9360007 23.249,42.796 C23.3563339,42.6559993 23.41,42.5253339 23.41,42.404 C23.5220006,41.9186642 23.578,41.2186712 23.578,40.304 C23.578,38.7173254 23.4660011,37.9053335 23.242,37.868 C23.0739992,37.8399999 22.8033352,38.1059972 22.43,38.666 C22.037998,39.2540029 21.7113346,39.9119964 21.45,40.64 C21.1419985,41.498671 21.0113331,42.2546634 21.058,42.908 C21.0299999,42.9640003 21.016,43.0199997 21.016,43.076 C21.016,43.1600004 21.053333,43.2789992 21.128,43.433 C21.202667,43.5870008 21.24,43.7106662 21.24,43.804 C21.24,43.8973338 21.2073337,43.9859996 21.142,44.07 C20.8899987,44.4340018 20.6380013,44.616 20.386,44.616 C20.1246654,44.616 19.8726679,44.4106687 19.63,44 C19.4899993,43.7573321 19.42,42.3620127 19.42,39.814 C19.42,38.880662 19.4433331,36.7573499 19.49,33.444 C19.49,33.3879997 19.4853334,33.3016673 19.476,33.185 C19.4666666,33.0683328 19.462,32.9773337 19.462,32.912 C19.4713334,32.8186662 19.4993331,32.734667 19.546,32.66 C19.6486672,32.463999 19.8679983,32.366 20.204,32.366 C20.5026682,32.366 20.7756654,32.4453325 21.023,32.604 C21.2703346,32.7626675 21.3660003,32.9493323 21.31,33.164 C21.3006666,33.2200003 21.2563337,33.285333 21.177,33.36 C21.0976663,33.434667 21.058,33.509333 21.058,33.584 L21.058,38.092 C21.5900027,36.8973274 22.3739948,36.262667 23.41,36.188 C23.9700028,36.1506665 24.4179983,36.5706623 24.754,37.448 C25.0620015,38.2506707 25.216,39.2353275 25.216,40.402 C25.216,41.2980045 25.118001,42.1053297 24.922,42.824 Z M30.774,36.776 C31.3993365,37.4106698 31.712,38.4793258 31.712,39.982 C31.712,41.1486725 31.4926689,42.1426626 31.054,42.964 C30.5593309,43.8880046 29.8780043,44.35 29.01,44.35 C28.151329,44.35 27.488669,43.9346708 27.022,43.104 C26.6113313,42.3759964 26.406,41.4520056 26.406,40.332 C26.406,39.3426617 26.5646651,38.4560039 26.882,37.672 C27.2180017,36.8319958 27.6473307,36.3373341 28.17,36.188 C28.440668,36.113333 28.7206652,36.076 29.01,36.076 C29.7286703,36.076 30.3166644,36.309331 30.774,36.776 Z M29.178,37.448 C28.8699985,37.4199999 28.6040011,37.7093303 28.38,38.316 C28.183999,38.8666694 28.086,39.4453303 28.086,40.052 C28.086,40.9293377 28.123333,41.5499982 28.198,41.914 C28.3286673,42.5673366 28.5993313,42.9266663 29.01,42.992 C29.2713346,43.0293335 29.5139989,42.6700038 29.738,41.914 C29.9526677,41.1859964 30.06,40.4066708 30.06,39.576 C30.06,38.2133265 29.7660029,37.5040003 29.178,37.448 Z M37.69,37.644 C37.615333,37.644 37.4986675,37.613667 37.34,37.553 C37.1813325,37.492333 37.0600004,37.462 36.976,37.462 C36.9106663,37.462 36.8453337,37.4759999 36.78,37.504 L36.262,37.77 L36.262,42.558 C36.262,42.7353342 36.3576657,42.9639986 36.549,43.244 C36.7403343,43.5240014 36.8173335,43.7479992 36.78,43.916 C36.7333331,44.1213344 36.5956678,44.2846661 36.367,44.406 C36.1383322,44.5273339 35.8933346,44.588 35.632,44.588 C35.1373309,44.588 34.7966676,44.3686689 34.61,43.93 C34.5539997,43.7993327 34.5213334,43.3840035 34.512,42.684 C34.5026666,42.217331 34.5073332,41.4893383 34.526,40.5 C34.5446668,39.3799944 34.554,38.6706682 34.554,38.372 C34.4979997,38.3906668 34.4046673,38.4536661 34.274,38.561 C34.1433327,38.6683339 34.0126673,38.722 33.882,38.722 C33.7793328,38.722 33.6486675,38.6940003 33.49,38.638 C32.8366634,38.4139989 32.51,38.1853345 32.51,37.952 C32.51,37.8959997 32.5239999,37.8353337 32.552,37.77 C32.6173337,37.6206659 32.7386658,37.5366668 32.916,37.518 C33.186668,37.4806665 33.3499997,37.4480001 33.406,37.42 C33.6206677,37.3359996 34.0126638,37.1353349 34.582,36.818 L34.582,35.6 C34.582,35.5066662 34.5563336,35.3830008 34.505,35.229 C34.4536664,35.0749992 34.428,34.960667 34.428,34.886 C34.428,34.8019996 34.4513331,34.722667 34.498,34.648 C34.7406679,34.2746648 35.0673313,34.088 35.478,34.088 C35.9540024,34.088 36.289999,34.2746648 36.486,34.648 C36.560667,34.7973341 36.598,34.9186662 36.598,35.012 C36.598,35.1240006 36.5420006,35.2406661 36.43,35.362 C36.3179994,35.4833339 36.262,35.5953328 36.262,35.698 L36.262,36.384 C36.4300008,36.309333 36.6166656,36.1833342 36.822,36.006 C36.9806675,35.8753327 37.1159994,35.81 37.228,35.81 C37.2746669,35.81 37.3259997,35.8193332 37.382,35.838 C37.9700029,35.9966675 38.264,36.3513306 38.264,36.902 C38.264,37.0793342 38.2103339,37.2473325 38.103,37.406 C37.9956661,37.5646675 37.8580008,37.644 37.69,37.644 Z M43.668,42.53 C43.593333,42.8846684 43.3413355,43.2626647 42.912,43.664 C42.8466663,43.7666672 42.5900022,43.9019992 42.142,44.07 C41.6286641,44.266001 41.1853352,44.3500001 40.812,44.322 C40.1119965,44.2753331 39.5613353,43.8740038 39.16,43.118 C38.7959982,42.4179965 38.614,41.5593384 38.614,40.542 C38.614,39.4406612 38.8193313,38.4746708 39.23,37.644 C39.6873356,36.7293288 40.2986628,36.2160006 41.064,36.104 C41.2133341,36.0853332 41.3579993,36.076 41.498,36.076 C42.6086722,36.076 43.2199994,36.7573265 43.332,38.12 C43.3880003,38.7453365 43.1406694,39.426663 42.59,40.164 C41.9926637,40.9760041 41.227338,41.5453317 40.294,41.872 C40.3966672,42.2453352 40.4759997,42.4879994 40.532,42.6 C40.6626673,42.8333345 40.8399989,42.95 41.064,42.95 C41.2786677,42.95 41.5073321,42.8660008 41.75,42.698 C41.9553344,42.5579993 42.095333,42.4226673 42.17,42.292 C42.2073335,42.2733332 42.2446665,42.1683343 42.282,41.977 C42.3193335,41.7856657 42.4173325,41.6480004 42.576,41.564 C42.6320003,41.5359999 42.697333,41.522 42.772,41.522 C42.9960011,41.522 43.212999,41.6316656 43.423,41.851 C43.633001,42.0703344 43.7146669,42.2966655 43.668,42.53 Z M41.47,37.602 C41.0966648,37.602 40.7933345,37.8679973 40.56,38.4 C40.2519985,39.1093369 40.1259997,39.8093299 40.182,40.5 C40.6206689,40.3599993 41.0266648,40.0333359 41.4,39.52 C41.7733352,39.0066641 41.96,38.5493353 41.96,38.148 C41.96,37.7839982 41.7966683,37.602 41.47,37.602 Z M46.846,44.07 C46.6593324,44.4246684 46.3140025,44.602 45.81,44.602 C45.343331,44.602 45.0166676,44.4433349 44.83,44.126 C44.7739997,44.0326662 44.746,43.9300006 44.746,43.818 C44.746,43.7246662 44.7786663,43.5706677 44.844,43.356 C44.9093337,43.1413323 44.942,42.9640007 44.942,42.824 L44.886,33.78 L44.886,33.024 C44.9140001,32.9026661 45.0446655,32.8023337 45.278,32.723 C45.5113345,32.6436663 45.7586654,32.604 46.02,32.604 C46.4026686,32.604 46.6453328,32.6739993 46.748,32.814 C46.8506672,32.9540007 46.902,33.0986659 46.902,33.248 C46.902,33.3506672 46.864667,33.5209988 46.79,33.759 C46.715333,33.9970012 46.678,34.1906659 46.678,34.34 L46.678,42.74 C46.678,42.8800007 46.7176663,43.0643322 46.797,43.293 C46.8763337,43.5216678 46.916,43.6873328 46.916,43.79 C46.916,43.8926672 46.8926669,43.9859996 46.846,44.07 Z" id="hotel" fill="#FFFFFF"></path>
    </g>
</svg>