<svg xmlns="http://www.w3.org/2000/svg" width="64" height="64" viewBox="0 0 64 64">
  <g fill="none" fill-rule="evenodd">
    <polygon fill="#5B68C0" points="13 2 42.105 2 54 13.753 54 61 13 61"/>
    <rect width="33" height="18" x="13" y="25" fill="#FF78C7"/>
    <polygon fill="#0A3586" points="42 2 54 2 54 14" transform="rotate(-180 48 8)"/>
    <path fill="#0A3586" d="M22.132,37.824 C22.1880003,38.0573345 22.216,38.2066663 22.216,38.272 C22.216,38.468001 22.1016678,38.6289994 21.873,38.755 C21.6443322,38.8810006 21.3993346,38.944 21.138,38.944 C20.7366647,38.944 20.4800006,38.7946682 20.368,38.496 C20.3213331,38.3746661 20.298,38.2720004 20.298,38.188 C20.298,38.0666661 20.3516661,37.9360007 20.459,37.796 C20.5663339,37.6559993 20.62,37.5253339 20.62,37.404 C20.7320006,36.9186642 20.788,36.2186712 20.788,35.304 C20.788,33.7173254 20.6760011,32.9053335 20.452,32.868 C20.2839992,32.8399999 20.0133352,33.1059972 19.64,33.666 C19.247998,34.2540029 18.9213346,34.9119964 18.66,35.64 C18.3519985,36.498671 18.2213331,37.2546634 18.268,37.908 C18.2399999,37.9640003 18.226,38.0199997 18.226,38.076 C18.226,38.1600004 18.263333,38.2789992 18.338,38.433 C18.412667,38.5870008 18.45,38.7106662 18.45,38.804 C18.45,38.8973338 18.4173337,38.9859996 18.352,39.07 C18.0999987,39.4340018 17.8480013,39.616 17.596,39.616 C17.3346654,39.616 17.0826679,39.4106687 16.84,39 C16.6999993,38.7573321 16.63,37.3620127 16.63,34.814 C16.63,33.880662 16.6533331,31.7573499 16.7,28.444 C16.7,28.3879997 16.6953334,28.3016672 16.686,28.185 C16.6766666,28.0683327 16.672,27.9773337 16.672,27.912 C16.6813334,27.8186662 16.7093331,27.734667 16.756,27.66 C16.8586672,27.463999 17.0779983,27.366 17.414,27.366 C17.7126682,27.366 17.9856654,27.4453325 18.233,27.604 C18.4803346,27.7626675 18.5760003,27.9493323 18.52,28.164 C18.5106666,28.2200003 18.4663337,28.285333 18.387,28.36 C18.3076663,28.434667 18.268,28.509333 18.268,28.584 L18.268,33.092 C18.8000027,31.8973274 19.5839948,31.262667 20.62,31.188 C21.1800028,31.1506665 21.6279983,31.5706623 21.964,32.448 C22.2720015,33.2506707 22.426,34.2353275 22.426,35.402 C22.426,36.2980045 22.328001,37.1053297 22.132,37.824 Z M28.208,32.644 C28.133333,32.644 28.0166675,32.613667 27.858,32.553 C27.6993325,32.492333 27.5780004,32.462 27.494,32.462 C27.4286663,32.462 27.3633337,32.4759999 27.298,32.504 L26.78,32.77 L26.78,37.558 C26.78,37.7353342 26.8756657,37.9639986 27.067,38.244 C27.2583343,38.5240014 27.3353335,38.7479992 27.298,38.916 C27.2513331,39.1213344 27.1136678,39.2846661 26.885,39.406 C26.6563322,39.5273339 26.4113346,39.588 26.15,39.588 C25.6553309,39.588 25.3146676,39.3686689 25.128,38.93 C25.0719997,38.7993327 25.0393334,38.3840035 25.03,37.684 C25.0206666,37.217331 25.0253332,36.4893383 25.044,35.5 C25.0626668,34.3799944 25.072,33.6706682 25.072,33.372 C25.0159997,33.3906668 24.9226673,33.4536661 24.792,33.561 C24.6613327,33.6683339 24.5306673,33.722 24.4,33.722 C24.2973328,33.722 24.1666675,33.6940003 24.008,33.638 C23.3546634,33.4139989 23.028,33.1853345 23.028,32.952 C23.028,32.8959997 23.0419999,32.8353337 23.07,32.77 C23.1353337,32.6206659 23.2566658,32.5366668 23.434,32.518 C23.704668,32.4806665 23.8679997,32.4480001 23.924,32.42 C24.1386677,32.3359996 24.5306638,32.1353349 25.1,31.818 L25.1,30.6 C25.1,30.5066662 25.0743336,30.3830008 25.023,30.229 C24.9716664,30.0749992 24.946,29.960667 24.946,29.886 C24.946,29.8019996 24.9693331,29.722667 25.016,29.648 C25.2586679,29.2746648 25.5853313,29.088 25.996,29.088 C26.4720024,29.088 26.807999,29.2746648 27.004,29.648 C27.078667,29.7973341 27.116,29.9186662 27.116,30.012 C27.116,30.1240006 27.0600006,30.2406661 26.948,30.362 C26.8359994,30.4833339 26.78,30.5953328 26.78,30.698 L26.78,31.384 C26.9480008,31.309333 27.1346656,31.1833342 27.34,31.006 C27.4986675,30.8753327 27.6339994,30.81 27.746,30.81 C27.7926669,30.81 27.8439997,30.8193332 27.9,30.838 C28.4880029,30.9966675 28.782,31.3513306 28.782,31.902 C28.782,32.0793342 28.7283339,32.2473325 28.621,32.406 C28.5136661,32.5646675 28.3760008,32.644 28.208,32.644 Z M33.2759347,34.5592738 C33.2665366,34.1690677 33.2385586,33.9693117 33.192,33.96 C32.9773323,34.3146684 32.7906675,34.6553317 32.632,34.982 C32.2493314,35.7660039 32.0300003,36.4193307 31.974,36.942 C31.9273331,37.0540006 31.9226665,37.2733317 31.96,37.6 C31.9973335,37.8800014 31.9553339,38.0713328 31.834,38.174 C31.7126661,38.2766672 31.5493344,38.328 31.344,38.328 C31.1199989,38.328 30.8936678,38.2650006 30.665,38.139 C30.4363322,38.0129994 30.2706672,37.8706675 30.168,37.712 C30.0186659,37.4786655 29.9346668,36.797339 29.916,35.668 L29.916,32.364 C29.9066666,32.2706662 29.8693337,32.1400008 29.804,31.972 C29.7386663,31.8039992 29.706,31.6780004 29.706,31.594 C29.706,31.5099996 29.7293331,31.430667 29.776,31.356 C29.8973339,31.1693324 30.2053309,31.076 30.7,31.076 C31.3066697,31.076 31.6706661,31.2253318 31.792,31.524 C31.8200001,31.5893337 31.834,31.6546663 31.834,31.72 C31.834,31.8040004 31.7896671,31.9253325 31.701,32.084 C31.6123329,32.2426675 31.568,32.3733328 31.568,32.476 L31.568,34.072 C31.8480014,33.4839971 32.2166644,32.7373379 32.674,31.832 C32.7300003,31.7106661 32.7836664,31.5893339 32.835,31.468 C32.8863336,31.3466661 32.9633328,31.2393338 33.066,31.146 C33.1686672,31.0526662 33.3413321,31.006 33.584,31.006 C33.9573352,31.006 34.3329981,31.0899992 34.711,31.258 C35.0890019,31.4260008 35.2826666,31.6266655 35.292,31.86 C35.3013334,32.1026679 35.2663337,32.2869994 35.187,32.413 C35.1076663,32.5390006 35.068,32.6439996 35.068,32.728 L35.04,35.752 C35.1893341,35.4159983 35.459998,34.6226729 35.852,33.372 C36.1600015,32.4199952 36.3933325,31.8880006 36.552,31.776 C36.7573344,31.6266659 37.0606647,31.552 37.462,31.552 C38.2086704,31.552 38.5959999,31.7666645 38.624,32.196 C38.6146666,33.3346724 38.6146666,35.2386533 38.624,37.908 C38.624,38.0106672 38.7173324,38.1343326 38.904,38.279 C39.0906676,38.4236674 39.184,38.5753325 39.184,38.734 C39.184,38.808667 39.1653335,38.8973328 39.128,39 C39.0066661,39.3453351 38.7313355,39.518 38.302,39.518 C37.760664,39.518 37.3593346,39.3313352 37.098,38.958 C36.9579993,38.7526656 36.888,38.048006 36.888,36.844 L36.888,36.102 C36.8973334,35.7753317 36.902,35.5466673 36.902,35.416 C36.902,34.7626634 36.8693337,34.4266668 36.804,34.408 C36.6639993,34.3519997 36.1880041,35.6586533 35.376,38.328 C35.376,38.3373334 35.3573335,38.5613311 35.32,39 C35.3013332,39.270668 35.2080008,39.4526662 35.04,39.546 C34.9186661,39.6113337 34.7833341,39.644 34.634,39.644 C34.363332,39.644 34.1020013,39.5553342 33.85,39.378 C33.5979987,39.2006658 33.4393337,38.9906679 33.374,38.748 C33.2806662,38.4026649 33.2386666,37.7213384 33.248,36.704 C33.2657654,35.2916509 33.2750769,34.5767484 33.2759347,34.5592738 L33.2759347,34.5592738 Z M42.502,39.07 C42.3153324,39.4246684 41.9700025,39.602 41.466,39.602 C40.999331,39.602 40.6726676,39.4433349 40.486,39.126 C40.4299997,39.0326662 40.402,38.9300006 40.402,38.818 C40.402,38.7246662 40.4346663,38.5706677 40.5,38.356 C40.5653337,38.1413323 40.598,37.9640007 40.598,37.824 L40.542,28.78 L40.542,28.024 C40.5700001,27.9026661 40.7006655,27.8023337 40.934,27.723 C41.1673345,27.6436663 41.4146654,27.604 41.676,27.604 C42.0586686,27.604 42.3013328,27.6739993 42.404,27.814 C42.5066672,27.9540007 42.558,28.0986659 42.558,28.248 C42.558,28.3506672 42.520667,28.5209988 42.446,28.759 C42.371333,28.9970012 42.334,29.1906659 42.334,29.34 L42.334,37.74 C42.334,37.8800007 42.3736663,38.0643322 42.453,38.293 C42.5323337,38.5216678 42.572,38.6873328 42.572,38.79 C42.572,38.8926672 42.5486669,38.9859996 42.502,39.07 Z"/>
  </g>
</svg>
