<svg xmlns="http://www.w3.org/2000/svg" width="64" height="64" viewBox="0 0 64 64">
  <g fill="none" fill-rule="evenodd">
    <path fill="#5B68C0" d="M27,54.0023695 C27,51.7919219 28.787167,49.7942228 30.9642898,49.5435455 L44,48.0425936 L57.0357102,49.5435455 C59.225127,49.7956384 61,51.7918218 61,54.0023695 L61,61 L27,61 L27,54.0023695 Z"/>
    <path fill="#FFDD95" d="M38,42.3164468 C34.9897907,39.470456 33,34.8615543 33,31 C33,24.9248678 37.9248678,20 44,20 C50.0751322,20 55,24.9248678 55,31 C55,34.8615543 53.0102093,39.470456 50,42.3164468 L50,48.7734539 C50,48.7734539 45.9325778,50 44,50 C42.0674222,50 38,48.7734539 38,48.7734539 L38,42.3164468 Z"/>
    <circle cx="35" cy="36" r="3" fill="#FFDD95"/>
    <circle cx="53" cy="36" r="3" fill="#FFDD95"/>
    <polygon fill="#FFF" points="36 47.947 43.998 49.825 36 53.947"/>
    <polyline fill="#FFF" points="52.081 47.947 44 49.798 52.081 53.947"/>
    <polygon fill="#22BA8E" points="14 6 32 10 32 17 14 22"/>
    <rect width="2" height="18" x="12" y="5" fill="#80D25B"/>
    <path stroke="#979797" stroke-linecap="square" stroke-width="2" d="M8 14L3 14M9 10L6.45049024 7.45049024"/>
    <path stroke="#979797" stroke-linecap="square" stroke-width="2" d="M9,21 L6.45049024,18.4504902" transform="matrix(1 0 0 -1 0 39)"/>
    <polygon fill="#80D25B" points="32 10 35 8 35 19 32 17"/>
  </g>
</svg>
