<svg xmlns="http://www.w3.org/2000/svg" width="64" height="64" viewBox="0 0 64 64">
  <g fill="none" fill-rule="evenodd">
    <path fill="#FFAF40" d="M30.8734128 55L31 55 31 20C31 16.1340068 25.4035594 13 18.5 13 11.5964406 13 6 16.1340068 6 20L6 55 6.12658725 55C6.99306878 51.6077059 12.2027287 49 18.5 49 24.7972713 49 30.0069312 51.6077059 30.8734128 55zM58.8734128 55L59 55 59 20C59 16.1340068 53.4035594 13 46.5 13 39.5964406 13 34 16.1340068 34 20L34 55 34.1265872 55C34.9930688 51.6077059 40.2027287 49 46.5 49 52.7972713 49 58.0069312 51.6077059 58.8734128 55z"/>
  </g>
</svg>
