<svg xmlns="http://www.w3.org/2000/svg" width="64" height="64" viewBox="0 0 64 64">
  <path fill="#5EA7FF" fill-rule="evenodd" d="M14.9884926,27.6655049 C9.31512404,28.6629064 5,33.6906205 5,39.7428571 C5,46.5122902 10.3984127,52 17.0576923,52 L51.0384615,52 L51.0384615,51.9500321 C57.1840481,51.3870629 62,46.136676 62,39.7428571 C62,33.3321254 57.1585362,28.0708829 50.9896649,27.5313132 C51.0219718,27.1490531 51.0384615,26.7621984 51.0384615,26.3714286 C51.0384615,18.9865925 45.149284,13 37.8846154,13 C32.390236,13 27.682655,16.4244069 25.714592,21.2882006 C24.5652924,20.2890844 23.0731158,19.6857143 21.4423077,19.6857143 C17.8099734,19.6857143 14.8653846,22.6790105 14.8653846,26.3714286 C14.8653846,26.8141564 14.9077174,27.2468334 14.9884926,27.6655049 Z"/>
</svg>
