<svg xmlns="http://www.w3.org/2000/svg" width="64" height="64" viewBox="0 0 64 64">
  <g fill="none" fill-rule="evenodd">
    <path fill="#0A3586" d="M0.973410248,13.0081775 C0.973410248,10.8019088 2.76909107,9.0133747 4.97996584,9.0133747 L57.9774728,9.0133747 C59.6320834,9.0133747 60.9734102,10.352083 60.9734102,12.0098987 L60.9734102,46.0133747 L0.973410248,46.0133747 L0.973410248,13.0081775 Z"/>
    <circle cx="20.973" cy="42.013" r="2" fill="#E43535"/>
    <circle cx="25.973" cy="42.013" r="2" fill="#5EA7FF"/>
    <circle cx="30.973" cy="42.013" r="2" fill="#FFDD95"/>
    <circle cx="35.973" cy="42.013" r="2" fill="#80D25B"/>
    <circle cx="40.973" cy="42.013" r="2" fill="#B4DFFB"/>
    <path fill="#D8D8D8" d="M0.973410248,46.0133747 L60.9734102,46.0133747 L60.9734102,51.0117092 C60.9734102,52.6694833 59.6361005,54.0133747 57.9774728,54.0133747 L3.96934768,54.0133747 C2.31473713,54.0133747 0.973410248,52.6743546 0.973410248,51.0117092 L0.973410248,46.0133747 Z"/>
    <circle cx="30.973" cy="50.013" r="2" fill="#979797"/>
    <path fill="#979797" d="M24.5862115,54.0133747 L36.5862115,54.0133747 L38.1522413,61.0605087 C38.3919164,62.1390468 37.6916977,63.0133747 36.5921512,63.0133747 L24.5802717,63.0133747 C23.4789827,63.0133747 22.7816214,62.13403 23.0201817,61.0605087 L24.5862115,54.0133747 Z"/>
    <rect width="15" height="11" x="44" y="17" fill="#979797"/>
    <rect width="11" height="10" x="46" y="28" fill="#D8D8D8"/>
    <path stroke="#979797" stroke-width="2" d="M50.9684445,18.0270504 L50.9684445,7.00723373 C50.9684445,4.78281024 49.1778438,3 46.9690258,3 L36,3 L36,9.09110369"/>
  </g>
</svg>
