<svg xmlns="http://www.w3.org/2000/svg" width="64" height="64" viewBox="0 0 64 64">
  <g fill="none" fill-rule="evenodd">
    <rect width="7" height="14" x="17" y="15" fill="#FF5EAC"/>
    <rect width="7" height="19" x="29" y="10" fill="#BD7575"/>
    <rect width="7" height="24" x="41" y="5" fill="#22BA8E"/>
    <rect width="43" height="3" x="11" y="31" fill="#D650C7"/>
    <path fill="#D650C7" d="M24.924,41.16 C24.924,41.5266685 24.7846681,41.8419987 24.506,42.106 C24.2273319,42.3700013 23.8826687,42.5386663 23.472,42.612 C23.2666656,42.6560002 23.0026683,42.5936675 22.68,42.425 C22.3573317,42.2563325 22.0933344,42.1866665 21.888,42.216 L18.324,42.7 C18.3533335,44.1373405 18.3533335,45.19333 18.324,45.868 C19.1600042,45.2813304 20.1279945,44.988 21.228,44.988 C21.9466703,44.988 22.5663307,45.2153311 23.087,45.67 C23.6076693,46.1246689 23.868,46.7333295 23.868,47.496 C23.868,48.625339 23.472004,50.0993242 22.68,51.918 C21.9906632,53.5020079 21.1876712,54.9503268 20.271,56.263 C19.3543287,57.5756732 18.7200018,58.2100002 18.368,58.166 C17.6786632,58.0779996 16.67034,57.4326727 15.343,56.23 C14.01566,55.0273273 13.4106661,54.2133355 13.528,53.788 C13.7040009,53.1866637 14.2026626,52.886 15.024,52.886 C15.1560007,52.886 15.2879993,52.8933333 15.42,52.908 C15.7426683,52.9520002 16.1129979,53.1609981 16.531,53.535 C16.9490021,53.9090019 17.326665,54.096 17.664,54.096 C18.0306685,54.096 18.5843296,53.2966747 19.325,51.698 C20.0656704,50.0993253 20.436,48.9480035 20.436,48.244 C20.436,47.9799987 20.3406676,47.848 20.15,47.848 C19.9299989,47.848 19.3726711,48.1816633 18.478,48.849 C17.5833289,49.5163367 16.9600018,49.8133337 16.608,49.74 C16.3733322,49.681333 16.1606676,49.5346678 15.97,49.3 C15.7793324,49.0653322 15.5960009,48.8306678 15.42,48.596 C15.1999989,48.4199991 14.9690012,48.233001 14.727,48.035 C14.4849988,47.836999 14.3493335,47.6133346 14.32,47.364 C14.2906665,47.1146654 14.444665,46.8470014 14.782,46.561 C15.119335,46.2749986 15.288,46.0146678 15.288,45.78 L15.288,43.228 C15.288,43.0373324 15.2366672,42.6523362 15.134,42.073 C15.0313328,41.4936638 14.98,41.0866678 14.98,40.852 C14.98,40.6319989 15.009333,40.4706672 15.068,40.368 C15.2146674,40.1479989 15.7426621,40.0233335 16.652,39.994 C18.2800081,39.9206663 19.1159998,39.884 19.16,39.884 C19.8786703,39.7959996 20.8466606,39.6493344 22.064,39.444 C22.9000042,39.3119993 23.3839993,39.246 23.516,39.246 C24.4546714,39.246 24.924,39.8839936 24.924,41.16 Z M36.584,48.288 C36.584,50.7960125 36.2246703,52.9226579 35.506,54.668 C34.5966621,56.809344 33.2840086,57.8433337 31.568,57.77 C29.8226579,57.6966663 28.5466707,56.6186771 27.74,54.536 C27.1239969,52.9226586 26.816,50.8400128 26.816,48.288 C26.816,46.2933234 27.182663,44.4086755 27.916,42.634 C28.8693381,40.3166551 30.2186579,39.158 31.964,39.158 C33.5186744,39.158 34.7139958,40.1919897 35.55,42.26 C36.2393368,43.9466751 36.584,45.9559883 36.584,48.288 Z M33.416,48.288 C33.4013333,46.3959905 33.3280007,45.0760037 33.196,44.328 C32.9466654,42.919993 32.4480037,42.216 31.7,42.216 C31.2746645,42.216 30.8786685,42.919993 30.512,44.328 C30.1893317,45.6040064 30.0133335,46.9239932 29.984,48.288 C29.9399998,49.7693407 30.0646652,51.1993264 30.358,52.578 C30.6806683,54.1180077 31.0839976,54.888 31.568,54.888 C31.9933355,54.888 32.4113313,54.1180077 32.822,52.578 C33.2326687,51.0819925 33.4306667,49.6520068 33.416,48.288 Z M53.04,41.16 C52.9666663,41.3653344 52.8053346,41.5706656 52.556,41.776 C52.2333317,42.0253346 52.0280004,42.2159993 51.94,42.348 L44.548,53.172 C44.5039998,53.2453337 44.2766687,53.7513286 43.866,54.69 C43.5873319,55.3353366 43.2720018,55.7093328 42.92,55.812 C42.7586659,55.8560002 42.5973341,55.878 42.436,55.878 C42.039998,55.878 41.7063347,55.7386681 41.435,55.46 C41.1636653,55.1813319 41.0133335,54.7853359 40.984,54.272 C40.9693333,53.9053315 41.0866654,53.6120011 41.336,53.392 L41.908,52.908 L48.904,42.348 L44.196,43.8 C44.254667,44.0933348 44.284,44.3939985 44.284,44.702 C44.284,45.7580053 43.9613366,46.6746628 43.316,47.452 C42.6559967,48.2733374 41.8346716,48.684 40.852,48.684 C39.4146595,48.684 38.696,48.0753394 38.696,46.858 C38.696,46.0513293 38.9856638,45.1713381 39.565,44.218 C40.1443362,43.2646619 40.7786632,42.5680022 41.468,42.128 C41.805335,41.9079989 42.142665,41.7906667 42.48,41.776 C42.9493357,41.7466665 43.2426661,41.7173335 43.36,41.688 L49.696,39.84 C49.8720009,39.7959998 50.1433315,39.6566678 50.51,39.422 C50.8180015,39.2313324 51.0746656,39.136 51.28,39.136 C51.3680004,39.136 51.4559996,39.1506665 51.544,39.18 C52.6440055,39.4733348 53.194,39.8839974 53.194,40.412 C53.194,40.6026676 53.1426672,40.8519985 53.04,41.16 Z M52.248,53.744 C52.3360004,54.9173392 52.04267,55.870663 51.368,56.604 C50.8106639,57.1906696 50.165337,57.5059998 49.432,57.55 C48.5666623,57.5940002 47.7600037,57.3300029 47.012,56.758 C46.2639963,56.1859971 45.89,55.4746709 45.89,54.624 C45.89,53.7879958 46.2199967,53.0583364 46.88,52.435 C47.5400033,51.8116636 48.3026623,51.5 49.168,51.5 C49.8720035,51.5 50.5539967,51.7603307 51.214,52.281 C51.8740033,52.8016693 52.2186665,53.2893311 52.248,53.744 Z M41.864,44.372 C41.7173326,44.3279998 41.5266678,44.5479976 41.292,45.032 C41.0573322,45.5160024 40.94,45.9119985 40.94,46.22 C40.94,46.3666674 40.969333,46.4546665 41.028,46.484 C41.1453339,46.542667 41.2883325,46.4803342 41.457,46.297 C41.6256675,46.1136658 41.7466663,45.9120011 41.82,45.692 C41.9813341,45.1493306 42.062,44.8340004 42.062,44.746 C42.062,44.5406656 41.9960007,44.4160002 41.864,44.372 Z M49.718,53.634 C49.5713326,53.634 49.3440015,53.7733319 49.036,54.052 C48.6839982,54.389335 48.508,54.726665 48.508,55.064 C48.508,55.2986678 48.6106656,55.416 48.816,55.416 C48.9920009,55.416 49.2413317,55.2106687 49.564,54.8 C49.8866683,54.3893313 50.048,54.0886676 50.048,53.898 C50.048,53.7219991 49.9380011,53.634 49.718,53.634 Z"/>
  </g>
</svg>
