<svg xmlns="http://www.w3.org/2000/svg" width="64" height="64" viewBox="0 0 64 64">
  <g fill="none" fill-rule="evenodd">
    <path fill="#F5413E" d="M29.5,59.5 C14.5883118,59.5 2.5,47.4116882 2.5,32.5 C2.5,17.5883118 14.5883118,5.5 29.5,5.5 C44.4116882,5.5 56.5,17.5883118 56.5,32.5 C56.5,47.4116882 44.4116882,59.5 29.5,59.5 Z M29.5,51.5 C39.9934102,51.5 48.5,42.9934102 48.5,32.5 C48.5,22.0065898 39.9934102,13.5 29.5,13.5 C19.0065898,13.5 10.5,22.0065898 10.5,32.5 C10.5,42.9934102 19.0065898,51.5 29.5,51.5 Z" transform="rotate(-90 29.5 32.5)"/>
    <polygon fill="#80D25B" points="50.5 21.5 61.5 43.5 39.5 43.5" transform="rotate(-90 50.5 32.5)"/>
  </g>
</svg>
