<svg xmlns="http://www.w3.org/2000/svg" width="64" height="64" viewBox="0 0 64 64">
  <g fill="none" transform="rotate(-90 33 26)">
    <path fill="#4796E7" d="M47.5857864,2.58578644 L2.08303927,48.0885336 C1.30199068,48.8695822 1.30199068,50.1359121 2.08303927,50.9169607 C2.86408785,51.6980093 4.13041781,51.6980093 4.91146639,50.9169607 L50.4142136,5.41421356 C51.1952621,4.63316498 51.1952621,3.36683502 50.4142136,2.58578644 C49.633165,1.80473785 48.366835,1.80473785 47.5857864,2.58578644 Z"/>
    <path fill="#FF78C7" d="M18.0751028,15.3459577 L3.42080275,0.592406467 C2.6434103,-0.192281223 1.37709416,-0.198195189 0.592406467,0.579197253 C-0.192281223,1.3565897 -0.198195189,2.62290584 0.579197253,3.40759353 L15.1149012,18.0417454 L9.0400491,18.0417454 C7.9354796,18.0417454 7.0400491,18.9371759 7.0400491,20.0417454 C7.0400491,21.1463149 7.9354796,22.0417454 9.0400491,22.0417454 L19.5324745,22.0417454 C19.9662635,22.1380302 20.4260433,22.0885556 20.8334727,21.8929559 C21.5619935,21.5941941 22.0751028,20.8778913 22.0751028,20.0417454 L22.0751028,10.163212 C22.0751028,9.05864251 21.1796723,8.16321201 20.0751028,8.16321201 C18.9705333,8.16321201 18.0751028,9.05864251 18.0751028,10.163212 L18.0751028,15.3459577 Z"/>
    <path fill="#FF78C7" d="M49.0751028,46.3459577 L34.4208027,31.5924065 C33.6434103,30.8077188 32.3770942,30.8018048 31.5924065,31.5791973 C30.8077188,32.3565897 30.8018048,33.6229058 31.5791973,34.4075935 L46.1149012,49.0417454 L40.0400491,49.0417454 C38.9354796,49.0417454 38.0400491,49.9371759 38.0400491,51.0417454 C38.0400491,52.1463149 38.9354796,53.0417454 40.0400491,53.0417454 L50.5324745,53.0417454 C50.9662635,53.1380302 51.4260433,53.0885556 51.8334727,52.8929559 C52.5619935,52.5941941 53.0751028,51.8778913 53.0751028,51.0417454 L53.0751028,41.163212 C53.0751028,40.0586425 52.1796723,39.163212 51.0751028,39.163212 C49.9705333,39.163212 49.0751028,40.0586425 49.0751028,41.163212 L49.0751028,46.3459577 Z" transform="rotate(180 42.038 42.045)"/>
  </g>
</svg>
