<svg xmlns="http://www.w3.org/2000/svg" width="64" height="64" viewBox="0 0 64 64">
  <g fill="none" transform="rotate(-90 32.5 31.5)">
    <path fill="#4796E7" d="M50.8660145,9.8130148 L10.3130148,50.3660145 C9.53196621,51.1470631 9.53196621,52.413393 10.3130148,53.1944416 C11.0940634,53.9754902 12.3603933,53.9754902 13.1414419,53.1944416 L53.6944416,12.6414419 C54.4754902,11.8603933 54.4754902,10.5940634 53.6944416,9.8130148 C52.913393,9.03196621 51.6470631,9.03196621 50.8660145,9.8130148 Z" transform="rotate(-45 32.004 31.504)"/>
    <path fill="#FF78C7" d="M19.7110145,33.9139343 L7.88514162,21.9930029 C7.10774917,21.2083152 5.84143303,21.2024013 5.05674534,21.9797937 C4.27205765,22.7571861 4.26614368,24.0235023 5.04353612,24.80819 L16.755121,36.6139147 L10.6759608,36.6139147 C9.57139135,36.6139147 8.67596085,37.5093452 8.67596085,38.6139147 C8.67596085,39.7184842 9.57139135,40.6139147 10.6759608,40.6139147 L21.1683863,40.6139147 C21.6021752,40.7101995 22.061955,40.6607249 22.4693844,40.4651253 C23.1979052,40.1663634 23.7110145,39.4500606 23.7110145,38.6139147 L23.7110145,28.7353813 C23.7110145,27.6308118 22.815584,26.7353813 21.7110145,26.7353813 C20.606445,26.7353813 19.7110145,27.6308118 19.7110145,28.7353813 L19.7110145,33.9139343 Z" transform="rotate(-45 14.088 31.031)"/>
    <path fill="#FF78C7" d="M55.7110145,33.9139343 L43.8851416,21.9930029 C43.1077492,21.2083152 41.841433,21.2024013 41.0567453,21.9797937 C40.2720576,22.7571861 40.2661437,24.0235023 41.0435361,24.80819 L52.755121,36.6139147 L46.6759608,36.6139147 C45.5713913,36.6139147 44.6759608,37.5093452 44.6759608,38.6139147 C44.6759608,39.7184842 45.5713913,40.6139147 46.6759608,40.6139147 L57.1683863,40.6139147 C57.6021752,40.7101995 58.061955,40.6607249 58.4693844,40.4651253 C59.1979052,40.1663634 59.7110145,39.4500606 59.7110145,38.6139147 L59.7110145,28.7353813 C59.7110145,27.6308118 58.815584,26.7353813 57.7110145,26.7353813 C56.606445,26.7353813 55.7110145,27.6308118 55.7110145,28.7353813 L55.7110145,33.9139343 Z" transform="scale(-1 1) rotate(-45 0 151.953)"/>
  </g>
</svg>
