<svg xmlns="http://www.w3.org/2000/svg" width="64" height="64" viewBox="0 0 64 64">
  <g fill="none" fill-rule="evenodd">
    <path fill="#4796E7" fill-rule="nonzero" d="M54.5514908,7.59167064 L8.59167064,53.5514908 C7.80277645,54.340385 7.80277645,55.6194352 8.59167064,56.4083294 C9.38056482,57.1972235 10.659615,57.1972235 11.4485092,56.4083294 L57.4083294,10.4485092 C58.1972235,9.659615 58.1972235,8.38056482 57.4083294,7.59167064 C56.6194352,6.80277645 55.340385,6.80277645 54.5514908,7.59167064 Z"/>
    <path fill="#FF78C7" fill-rule="nonzero" d="M24.0136086,19.2838257 L9.40916478,4.59000809 C8.63441715,3.80849741 7.37240921,3.80260739 6.59039115,4.57685236 C5.80837308,5.35109733 5.80247924,6.61228647 6.57722687,7.39379715 L21.0634781,21.9686989 L15.0092936,21.9686989 C13.908482,21.9686989 13.0160979,22.860504 13.0160979,23.9606014 C13.0160979,25.0606988 13.908482,25.9525039 15.0092936,25.9525039 L25.4660222,25.9525039 C25.8983353,26.0483988 26.3565509,25.9991246 26.7625941,25.8043168 C27.4886364,25.5067645 28,24.7933619 28,23.9606014 L28,14.1220638 C28,13.0219664 27.1076159,12.1301613 26.0068043,12.1301613 C24.9059927,12.1301613 24.0136086,13.0219664 24.0136086,14.1220638 L24.0136086,19.2838257 Z"/>
    <path fill="#FF78C7" fill-rule="nonzero" d="M55.0136086,50.2838257 L40.4091648,35.5900081 C39.6344172,34.8084974 38.3724092,34.8026074 37.5903911,35.5768524 C36.8083731,36.3510973 36.8024792,37.6122865 37.5772269,38.3937972 L52.0634781,52.9686989 L46.0092936,52.9686989 C44.908482,52.9686989 44.0160979,53.860504 44.0160979,54.9606014 C44.0160979,56.0606988 44.908482,56.9525039 46.0092936,56.9525039 L56.4660222,56.9525039 C56.8983353,57.0483988 57.3565509,56.9991246 57.7625941,56.8043168 C58.4886364,56.5067645 59,55.7933619 59,54.9606014 L59,45.1220638 C59,44.0219664 58.1076159,43.1301613 57.0068043,43.1301613 C55.9059927,43.1301613 55.0136086,44.0219664 55.0136086,45.1220638 L55.0136086,50.2838257 Z" transform="rotate(180 48 46)"/>
  </g>
</svg>
