<svg xmlns="http://www.w3.org/2000/svg" width="64" height="64" viewBox="0 0 64 64">
  <g fill="none" fill-rule="evenodd">
    <circle cx="32" cy="32" r="30" fill="#FF78C7"/>
    <path fill="#FFF" fill-rule="nonzero" d="M21,22.5064757 L21,41.4935243 C21,42.3266823 21.6735882,43 22.5064757,43 L41.4935243,43 C42.3266823,43 43,42.3264118 43,41.4935243 L43,22.5064757 C43,21.6733177 42.3264118,21 41.4935243,21 L22.5064757,21 C21.6733177,21 21,21.6735882 21,22.5064757 Z M17,22.5064757 C17,19.4648087 19.4638191,17 22.5064757,17 L41.4935243,17 C44.5351913,17 47,19.4638191 47,22.5064757 L47,41.4935243 C47,44.5351913 44.5361809,47 41.4935243,47 L22.5064757,47 C19.4648087,47 17,44.5361809 17,41.4935243 L17,22.5064757 Z"/>
    <path fill="#FFF" fill-rule="nonzero" d="M32.5,39 C28.9101491,39 26,36.0898509 26,32.5 C26,28.9101491 28.9101491,26 32.5,26 C36.0898509,26 39,28.9101491 39,32.5 C39,36.0898509 36.0898509,39 32.5,39 Z M32.5,35 C33.8807119,35 35,33.8807119 35,32.5 C35,31.1192881 33.8807119,30 32.5,30 C31.1192881,30 30,31.1192881 30,32.5 C30,33.8807119 31.1192881,35 32.5,35 Z"/>
    <circle cx="39.5" cy="24.5" r="1.5" fill="#FFF"/>
  </g>
</svg>
