<svg xmlns="http://www.w3.org/2000/svg" width="64" height="64" viewBox="0 0 64 64">
  <path fill="#FF78C7" fill-rule="evenodd" d="M37.6875,49 L32,62 L26.3125,49 L6,49 L6,5 L58,5 L58,49 L37.6875,49 Z M17,16.5064757 L17,35.4935243 C17,38.5361809 19.4648087,41 22.5064757,41 L41.4935243,41 C44.5361809,41 47,38.5351913 47,35.4935243 L47,16.5064757 C47,13.4638191 44.5351913,11 41.4935243,11 L22.5064757,11 C19.4638191,11 17,13.4648087 17,16.5064757 Z M21,16.5064757 C21,15.6735882 21.6733177,15 22.5064757,15 L41.4935243,15 C42.3264118,15 43,15.6733177 43,16.5064757 L43,35.4935243 C43,36.3264118 42.3266823,37 41.4935243,37 L22.5064757,37 C21.6735882,37 21,36.3266823 21,35.4935243 L21,16.5064757 Z M32.5,33 C36.0898509,33 39,30.0898509 39,26.5 C39,22.9101491 36.0898509,20 32.5,20 C28.9101491,20 26,22.9101491 26,26.5 C26,30.0898509 28.9101491,33 32.5,33 Z M32.5,29 C31.1192881,29 30,27.8807119 30,26.5 C30,25.1192881 31.1192881,24 32.5,24 C33.8807119,24 35,25.1192881 35,26.5 C35,27.8807119 33.8807119,29 32.5,29 Z M39.5,20 C40.3284271,20 41,19.3284271 41,18.5 C41,17.6715729 40.3284271,17 39.5,17 C38.6715729,17 38,17.6715729 38,18.5 C38,19.3284271 38.6715729,20 39.5,20 Z"/>
</svg>
