<svg xmlns="http://www.w3.org/2000/svg" width="64" height="64" viewBox="0 0 64 64">
  <g fill="none" fill-rule="evenodd">
    <rect width="3" height="12" x="24.803" y="37.303" fill="#22BA8E" transform="rotate(-45 26.303 43.303)"/>
    <path fill="#5B68C0" d="M25.2087902,18.5932662 L35.2087902,18.5932662 L35.1112022,56.5401162 C35.10695,58.193592 33.7548583,59.5339989 32.1031731,59.5339989 L28.1038326,59.5339989 C26.4467962,59.5339989 25.1069461,58.1951038 25.1112022,56.5401162 L25.2087902,18.5932662 Z" transform="rotate(-43 30.16 39.064)"/>
    <ellipse cx="43.243" cy="53.243" fill="#0A3586" rx="2" ry="4" transform="rotate(45 43.243 53.243)"/>
    <circle cx="11.5" cy="19.5" r="9.5" fill="#595959"/>
    <rect width="2" height="2" x="6" y="14" fill="#979797"/>
    <rect width="2" height="2" x="8" y="18" fill="#979797"/>
    <rect width="2" height="2" x="4" y="18" fill="#979797"/>
    <rect width="2" height="2" x="6" y="22" fill="#979797"/>
    <rect width="2" height="2" x="10" y="14" fill="#979797"/>
    <rect width="2" height="2" x="12" y="18" fill="#979797"/>
    <rect width="2" height="2" x="10" y="22" fill="#979797"/>
    <rect width="2" height="2" x="14" y="14" fill="#979797"/>
    <rect width="2" height="2" x="16" y="18" fill="#979797"/>
    <rect width="2" height="2" x="14" y="22" fill="#979797"/>
    <path fill="#FFDD95" d="M27.0988064,28.1267381 L30.9208737,25 L37.832189,25.0538319 L44.1686561,28.9870878 L53.957096,29.0771281 L53.3780823,42.1839222 L46.7804662,42.0881141 L41.0005828,44.506706 L32.5009457,34.4918865 C32.5009457,34.4918865 23.8547723,40.2398785 23.2323081,39.5064511 C23.0594862,39.3028213 20.0869511,37.3215783 20.4966887,36.029693 C20.9064263,34.7378077 27.0988064,28.1267381 27.0988064,28.1267381 Z"/>
    <path stroke="#FFAF40" stroke-linecap="round" stroke-width="2" d="M42.1389288,45.835198 L31.571055,34.5830017 L25.5410308,38.8403875 C24.1857774,39.7972388 22.1699578,39.5929997 21.0361299,38.3815977 L21.6122819,38.9971687 C20.4795473,37.7869348 20.4605064,35.8096733 21.5698992,34.5806695 L30.1081753,25.1218253 L38.0930898,25.0429411 L44.2840925,29.0118035 L52.2876716,28.9931389"/>
    <polyline stroke="#FFAF40" stroke-linecap="round" stroke-width="2" points="41.421 44.745 47.323 42.029 53.114 42.049"/>
    <rect width="9" height="19" x="52" y="26.984" fill="#D8D8D8"/>
    <rect width="2" height="2" x="55" y="29.984" fill="#979797"/>
  </g>
</svg>
