<svg xmlns="http://www.w3.org/2000/svg" width="64" height="64" viewBox="0 0 64 64">
  <g fill="none" fill-rule="evenodd">
    <path fill="#FF78C7" d="M5.51427359,26.9697917 L10.487966,26.9697917 C10.487966,26.9697917 6.55355925,42.3847464 6.34322231,44.2102018 C6.13288538,46.0356573 6.55355925,49.8091877 12.5535592,50.9035376 C18.5535592,51.9978875 22.9221969,46.2384854 22.9221969,46.2384854 L22.0932482,50.9035375 L29.9682611,50.9035375 C29.9682611,50.9035375 34.0535592,35 35.5535592,31.5 C37.0535592,28 42.0535612,24.9395838 44.5535612,26.9697919 C47.0535612,29 45.9255241,32.2433289 44.8893382,34.8800975 C43.8531523,37.5168662 41.5535612,44.5 43.5535612,48 C45.5535612,51.5 52.1426381,53 55.8729088,48.6724256 C58.5535612,45.5285168 59.5535612,42.5 59.5535612,42.5 L56.2873832,41.5734332 C56.2873832,41.5734332 54.5535612,45.5285168 52.5535612,46.2384853 C50.5535612,46.9484539 48.8268446,45.4271719 52.1426396,37.9225229 C55.4584345,30.4178738 53.5932998,23.9273663 51.520928,21.8990829 C49.4485562,19.8707994 43.8531523,19.2623143 40.7445945,21.0877695 C37.6360368,22.9132246 35.5535592,25.5 35.5535592,25.5 L36.5535592,20.0736277 L24.3728572,20.276456 L22.5077225,26.9697917 L27.8958892,26.9697917 C27.8958892,26.9697917 22.9221963,41.7052737 22.5077218,42.04501 C22.0932474,42.3847464 18.5535592,45.0308733 17.0535592,45.5285171 C15.5535592,46.026161 13.8037609,46.4413134 14.6327096,43.1960601 C15.4616583,39.9508067 20.4353507,20.0736277 20.4353507,20.0736277 L6.75612679,20.0736277 L5.51427359,26.5641354"/>
    <circle cx="16.554" cy="12" r="4" fill="#FF78C7"/>
  </g>
</svg>
