<svg xmlns="http://www.w3.org/2000/svg" width="64" height="64" viewBox="0 0 64 64">
  <g fill="none" fill-rule="evenodd">
    <rect width="8" height="2" x="47" y="40" fill="#FFF"/>
    <polyline stroke="#D8D8D8" stroke-linecap="round" stroke-linejoin="round" stroke-width="2" points="33 24 41.05 24 41.05 52.191"/>
    <path fill="#D8D8D8" d="M37,30.999615 C37,29.8952581 37.8877296,29 39,29 L41,29 L41,39 L39,39 C37.8954305,39 37,38.1125667 37,37.000385 L37,30.999615 Z"/>
    <rect width="58" height="40" x="-6" y="13" fill="#D8D8D8" rx="2" transform="rotate(90 23 33)"/>
    <circle cx="23" cy="59" r="2" fill="#868686" transform="rotate(90 23 59)"/>
    <rect width="49" height="36" x="-1.5" y="13.5" fill="#9F5757" rx="1" transform="rotate(90 23 31.5)"/>
    <path fill="#80D25B" d="M39.5044647,27.529591 C42.2658885,27.529591 44.5044647,25.1876959 44.5044647,22.2988218 C44.5044647,19.4099477 39.5044647,10.529591 39.5044647,10.529591 C39.5044647,10.529591 34.5044647,19.4099477 34.5044647,22.2988218 C34.5044647,25.1876959 36.743041,27.529591 39.5044647,27.529591 Z" transform="rotate(75 39.504 19.03)"/>
    <path fill="#80D25B" d="M9.50446475,27.529591 C12.2658885,27.529591 14.5044647,25.1876959 14.5044647,22.2988218 C14.5044647,19.4099477 9.50446475,10.529591 9.50446475,10.529591 C9.50446475,10.529591 4.50446475,19.4099477 4.50446475,22.2988218 C4.50446475,25.1876959 6.743041,27.529591 9.50446475,27.529591 Z" transform="scale(-1 1) rotate(75 0 6.643)"/>
    <path stroke="#22BA8E" stroke-linecap="round" stroke-width="2" d="M36,20 C29.372583,20 24,25.372583 24,32"/>
    <path stroke="#22BA8E" stroke-linecap="round" stroke-width="2" d="M24,20 C17.372583,20 12,25.372583 12,32" transform="matrix(-1 0 0 1 36 0)"/>
    <rect width="14" height="12" x="46.294" y="48.579" fill="#FFDD95" transform="rotate(-30 53.294 54.579)"/>
    <path fill="#FFDD95" d="M40.4772413,36.6733938 L51.4771193,36.6733938 C53.1340409,36.6733938 54.4772413,38.0263193 54.4772413,39.6659335 L54.4772413,49.6832939 C54.4772413,52.43925 52.2418285,54.6733938 49.485215,54.6733938 L37.4746632,54.6733938 C36.3715176,54.6733938 35.4772413,53.780771 35.4772413,52.6783045 L35.4772413,38.919527 L35.4772413,26.1762166 C35.4772413,24.7939457 36.5869034,23.6733938 37.9772413,23.6733938 C39.3579532,23.6733938 40.4772413,24.7993744 40.4772413,26.1762166 L40.4772413,36.6733938 Z" transform="rotate(-30 44.977 39.173)"/>
    <path stroke="#FFCC60" stroke-linecap="square" stroke-width="2" d="M42.1961524,39.3564065 L42.1961524,43.3564065" transform="rotate(-30 42.196 41.356)"/>
    <path stroke="#FFCC60" stroke-linecap="square" stroke-width="2" d="M45.660254,37.3564065 L45.660254,41.3564065" transform="rotate(-30 45.66 39.356)"/>
    <path stroke="#FFCC60" stroke-linecap="square" stroke-width="2" d="M49.1243557,35.3564065 L49.1243557,39.3564065" transform="rotate(-30 49.124 37.356)"/>
  </g>
</svg>
