<svg xmlns="http://www.w3.org/2000/svg" width="64" height="64" viewBox="0 0 64 64">
  <g fill="none" fill-rule="evenodd">
    <rect width="60" height="42" x="2" y="12" fill="#5B68C0" rx="2" transform="rotate(90 32 33)"/>
    <circle cx="32" cy="59" r="2" fill="#0A3586" transform="rotate(90 32 59)"/>
    <rect width="49" height="38" x="7.5" y="11.5" fill="#ECECEC" rx="1" transform="rotate(90 32 30.5)"/>
    <path fill="#80D25B" d="M55.5044647,32.529591 C58.2658885,32.529591 60.5044647,30.1876959 60.5044647,27.2988218 C60.5044647,24.4099477 55.5044647,15.529591 55.5044647,15.529591 C55.5044647,15.529591 50.5044647,24.4099477 50.5044647,27.2988218 C50.5044647,30.1876959 52.743041,32.529591 55.5044647,32.529591 Z" transform="rotate(75 55.504 24.03)"/>
    <path fill="#80D25B" d="M9.50446475,32.529591 C12.2658885,32.529591 14.5044647,30.1876959 14.5044647,27.2988218 C14.5044647,24.4099477 9.50446475,15.529591 9.50446475,15.529591 C9.50446475,15.529591 4.50446475,24.4099477 4.50446475,27.2988218 C4.50446475,30.1876959 6.743041,32.529591 9.50446475,32.529591 Z" transform="scale(-1 1) rotate(75 0 11.643)"/>
    <path stroke="#22BA8E" stroke-linecap="round" stroke-width="2" d="M52,25 C45.372583,25 40,30.372583 40,37"/>
    <path stroke="#22BA8E" stroke-linecap="round" stroke-width="2" d="M24,25 C17.372583,25 12,30.372583 12,37" transform="matrix(-1 0 0 1 36 0)"/>
  </g>
</svg>
