<svg xmlns="http://www.w3.org/2000/svg" width="64" height="64" viewBox="0 0 64 64">
  <g fill="none" fill-rule="evenodd">
    <path stroke="#979797" stroke-linecap="round" stroke-width="2" d="M31.958579,12 L20.0049146,12 C16.6884918,12 14,14.6891209 14,18.0009501 L14,45.0317436"/>
    <rect width="4" height="7" x="12" y="44" fill="#D8D8D8"/>
    <circle cx="14" cy="55" r="6" fill="#D8D8D8"/>
    <circle cx="14" cy="55" r="2" fill="#979797"/>
    <path fill="#D8D8D8" d="M29,8.99165754 C29,7.89169545 29.8978404,7 30.991617,7 L57.008383,7 C58.1083227,7 59,7.89889206 59,8.99165754 L59,50.0083425 C59,51.1083045 58.1021596,52 57.008383,52 L30.991617,52 C29.8916773,52 29,51.1011079 29,50.0083425 L29,8.99165754 Z"/>
    <path fill="#5EA7FF" d="M29,8.99961498 C29,7.89525812 29.8978404,7 30.991617,7 L57.008383,7 C58.1083227,7 59,7.88743329 59,8.99961498 L59,17 L29,17 L29,8.99961498 Z"/>
    <circle cx="44" cy="35" r="12" fill="#595959"/>
    <circle cx="44" cy="35" r="9" fill="#979797"/>
  </g>
</svg>
