<svg xmlns="http://www.w3.org/2000/svg" width="64" height="64" viewBox="0 0 64 64">
  <g fill="none" fill-rule="evenodd">
    <path stroke="#979797" stroke-linecap="round" stroke-width="2" d="M32,27.2563875 L32,7"/>
    <path fill="#595959" d="M4,31 C4,28.2385763 6.22982375,26 8.99424261,26 L55.0057574,26 C57.7640014,26 60,28.2374593 60,31 L60,53 C60,55.7614237 57.7661779,58 55.0049709,58 L49.0033512,58 C47.3446462,58 45.3224502,56.8384861 44.4897223,55.4109526 L39,46 L32,46 L25,46 L19.5102777,55.4109526 C18.6761743,56.840844 16.6576211,58 14.9966488,58 L8.99502908,58 C6.23635069,58 4,55.7625407 4,53 L4,31 Z"/>
    <path stroke="#ED9111" stroke-linecap="round" stroke-linejoin="round" stroke-width="2" d="M49 35L49 31.8377223M49 42L49 38.8377223M51 37L54 37M44 37L47 37"/>
    <circle cx="14.5" cy="36.5" r="5.5" fill="#80D25B"/>
  </g>
</svg>
