<svg xmlns="http://www.w3.org/2000/svg" width="64" height="64" viewBox="0 0 64 64">
  <g fill="none" fill-rule="evenodd">
    <path stroke="#595959" stroke-linecap="round" stroke-width="2" d="M32,27.3608026 L32,12.9984724 C32,10.2378923 34.234885,8 36.9995226,8 L40.1750401,8 C42.9362002,8 45.1745627,10.2481983 45.1745627,13.0010227 L45.1745627,13.3012288"/>
    <path fill="#D8D8D8" d="M39.9417107,46 L23.8156118,46 C21.0002857,53.5973495 14.73822,58.3605448 9.108147,56.8519713 C2.97328681,55.2081405 -0.0880256467,46.7399668 2.27051424,37.9377761 C4.62905414,29.1355854 11.5143153,23.3325882 17.6491755,24.976419 C19.0067934,25.3401916 20.2138942,26.0381644 21.2450505,27 L42.512272,27 C43.5434283,26.0381644 44.7505291,25.3401916 46.108147,24.976419 C52.2430072,23.3325882 59.1282684,29.1355854 61.4868082,37.9377761 C63.8453481,46.7399668 60.7840357,55.2081405 54.6491755,56.8519713 C49.0191025,58.3605448 42.7570368,53.5973495 39.9417107,46 Z"/>
    <path stroke="#E43535" stroke-linecap="square" stroke-width="2" d="M25,41 L29,41"/>
    <path stroke="#22BA8E" stroke-linecap="square" stroke-width="2" d="M35,41 L39,41"/>
    <circle cx="14" cy="35" r="6" fill="#5EA7FF"/>
    <circle cx="50" cy="35" r="6" fill="#5EA7FF"/>
    <rect width="6" height="2" x="29" y="25" fill="#979797"/>
  </g>
</svg>
