<svg xmlns="http://www.w3.org/2000/svg" width="64" height="64" viewBox="0 0 64 64">
  <g fill="none" fill-rule="evenodd">
    <path stroke="#595959" stroke-linecap="round" stroke-width="2" d="M32.0422909,21.047991 L32.0422909,19.8590842 C32.0422909,18.2027379 30.7067681,16.8600038 29.038898,16.8600038 L14.6910729,16.8600038 C13.0323447,16.8600038 11.6876799,15.5077441 11.6876799,13.866389 L11.6876799,9.00331741 C11.6876799,7.34998959 13.0300243,6.00970257 14.6861753,6.00970257 L54.5719699,6.00970257"/>
    <rect width="6" height="2" x="29" y="20" fill="#979797"/>
    <path fill="#80D25B" d="M3,29.9932448 C3,25.5786976 6.58438948,22 11.003757,22 L52.996243,22 C57.4165959,22 61,25.5875585 61,29.9932448 L61,54.9999393 C61,61.6273898 56.5797507,63.9515522 51.1212107,60.1870419 L40.2326651,52.6777 C35.6858897,49.5419929 28.3124134,49.5431632 23.7673349,52.6777 L12.8787893,60.1870419 C7.42288463,63.9497347 3,61.6277975 3,54.9999393 L3,29.9932448 Z"/>
    <path fill="#595959" d="M17,34 L17,31.0058587 C17,29.8970601 16.1045695,29 15,29 C13.8877296,29 13,29.8980535 13,31.0058587 L13,34 L10.0058587,34 C8.89706013,34 8,34.8954305 8,36 C8,37.1122704 8.89805351,38 10.0058587,38 L13,38 L13,40.9941413 C13,42.1029399 13.8954305,43 15,43 C16.1122704,43 17,42.1019465 17,40.9941413 L17,38 L19.9941413,38 C21.1029399,38 22,37.1045695 22,36 C22,34.8877296 21.1019465,34 19.9941413,34 L17,34 Z"/>
    <circle cx="48" cy="31" r="3" fill="#E43535"/>
    <circle cx="48" cy="41" r="3" fill="#979797"/>
    <circle cx="42" cy="36" r="3" fill="#FFDD95"/>
    <circle cx="54" cy="36" r="3" fill="#D650C7"/>
  </g>
</svg>
