<svg xmlns="http://www.w3.org/2000/svg" width="64" height="64" viewBox="0 0 64 64">
  <g fill="none" fill-rule="evenodd">
    <path fill="#22BA8E" d="M40.0436358,38 L23.9563642,38 C21.6462258,41.6083127 17.6024171,44 13,44 C5.82029825,44 0,38.1797017 0,31 C0,23.8202983 5.82029825,18 13,18 C13.336472,18 13.6699584,18.0127829 14,18.0378896 L14,18 L52,18 L52,18.0378896 C58.7124477,18.5485145 64,24.1567702 64,31 C64,38.1797017 58.1797017,44 51,44 C46.3975829,44 42.3537742,41.6083127 40.0436358,38 Z"/>
    <circle cx="51.5" cy="25.5" r="2.5" fill="#FFDD95"/>
    <circle cx="56.5" cy="30.5" r="2.5" fill="#FFDD95"/>
    <circle cx="46.5" cy="30.5" r="2.5" fill="#FFDD95"/>
    <circle cx="51.5" cy="35.5" r="2.5" fill="#FFDD95"/>
    <rect width="4" height="14" x="11" y="24" fill="#FFDD95"/>
    <rect width="4" height="14" x="11" y="24" fill="#FFDD95" transform="rotate(-90 13 31)"/>
  </g>
</svg>
