<svg xmlns="http://www.w3.org/2000/svg" width="64" height="64" viewBox="0 0 64 64">
  <g fill="none" fill-rule="evenodd">
    <polygon fill="#5B68C0" points="13 2 42.105 2 54 13.753 54 61 13 61"/>
    <rect width="33" height="18" x="13" y="25" fill="#BD7575"/>
    <polygon fill="#0A3586" points="42 2 54 2 54 14" transform="rotate(-180 48 8)"/>
    <path fill="#FFF" d="M28.352,30.6 C28.2866663,30.7493341 28.1046682,30.824 27.806,30.824 C27.5913323,30.824 27.386001,30.7773338 27.19,30.684 C26.9379987,30.5719994 26.812,30.4226676 26.812,30.236 C26.812,30.1799997 26.8259999,30.1006672 26.854,29.998 C26.8820001,29.8953328 26.896,29.8253335 26.896,29.788 C26.896,29.7319997 26.8866668,29.6293341 26.868,29.48 C26.8493332,29.3306659 26.84,29.218667 26.84,29.144 C26.84,28.9293323 26.8959994,28.7706672 27.008,28.668 C27.1573341,28.5186659 27.3533321,28.444 27.596,28.444 C27.792001,28.444 27.9786658,28.5046661 28.156,28.626 C28.3333342,28.7473339 28.422,28.905999 28.422,29.102 C28.422,29.1860004 28.3940003,29.3213324 28.338,29.508 C28.2819997,29.6946676 28.2586666,29.8346662 28.268,29.928 C28.268,30.0120004 28.2889998,30.1006662 28.331,30.194 C28.3730002,30.2873338 28.394,30.3619997 28.394,30.418 C28.394,30.4740003 28.3800001,30.5346663 28.352,30.6 Z M28.352,33.47 C28.352,36.3726812 28.3566666,37.3713379 28.366,36.466 C28.3473332,37.866007 28.2260011,38.9486628 28.002,39.714 C27.7033318,40.7500052 27.22267,41.3099996 26.56,41.394 C26.2706652,41.4313335 25.9533351,41.3683342 25.608,41.205 C25.2626649,41.0416658 25.09,40.8526677 25.09,40.638 C25.09,40.563333 25.1179997,40.488667 25.174,40.414 C25.2766672,40.2833327 25.4469988,40.2366665 25.685,40.274 C25.9230012,40.3113335 26.0839996,40.3020003 26.168,40.246 C26.4666682,40.0406656 26.616,38.3560158 26.616,35.192 C26.616,34.454663 26.6066668,33.5680052 26.588,32.532 C26.588,32.4479996 26.5600003,32.3010011 26.504,32.091 C26.4479997,31.880999 26.42,31.7246672 26.42,31.622 C26.42,31.2953317 26.6813307,31.132 27.204,31.132 C27.6520022,31.132 27.9786656,31.2346656 28.184,31.44 C28.3520008,31.6080008 28.436,31.8506651 28.436,32.168 C28.436,32.3173341 28.4220001,32.5343319 28.394,32.819 C28.3659999,33.1036681 28.352,33.3206659 28.352,33.47 Z M34.358,37.124 C34.358,37.7773366 34.124669,38.3349977 33.658,38.797 C33.191331,39.2590023 32.6406698,39.49 32.006,39.49 C31.6046647,39.49 31.1893355,39.2986686 30.76,38.916 C30.4239983,38.6079985 30.120668,38.2300022 29.85,37.782 C29.6166655,37.389998 29.5139999,37.1426672 29.542,37.04 C29.6446672,36.8066655 29.966664,36.69 30.508,36.69 C30.7320011,36.69 30.9093327,36.7226663 31.04,36.788 C31.2640011,36.9093339 31.3899999,37.0633324 31.418,37.25 C31.4460001,37.4646677 31.4926663,37.5999997 31.558,37.656 C31.754001,37.9546682 31.9313325,38.104 32.09,38.104 C32.2113339,38.104 32.3256661,38.0223342 32.433,37.859 C32.5403339,37.6956659 32.594,37.5020011 32.594,37.278 C32.594,37.1379993 32.5706669,36.9980007 32.524,36.858 C32.4773331,36.7179993 32.2253356,36.5033348 31.768,36.214 C31.2173306,35.8686649 30.8253345,35.5653346 30.592,35.304 C30.1906647,34.8559978 29.99,34.3333363 29.99,33.736 C29.99,33.0359965 30.1953313,32.422336 30.606,31.895 C31.0166687,31.367664 31.5393302,31.104 32.174,31.104 C32.8273366,31.104 33.3266649,31.3513309 33.672,31.846 C33.9520014,32.2473353 34.0686669,32.6533313 34.022,33.064 C34.1246672,33.1760006 34.176,33.3626654 34.176,33.624 C34.176,33.9040014 34.0733344,34.141999 33.868,34.338 C33.6626656,34.534001 33.4526677,34.632 33.238,34.632 C32.9206651,34.632 32.6453345,34.4220021 32.412,34.002 C32.3466663,33.8899994 32.314,33.7406676 32.314,33.554 C32.314,33.4699996 32.3209999,33.3510008 32.335,33.197 C32.3490001,33.0429992 32.356,32.9333337 32.356,32.868 C32.356,32.6253321 32.2673342,32.504 32.09,32.504 C31.819332,32.504 31.684,32.7699973 31.684,33.302 C31.684,33.843336 31.8613316,34.2773317 32.216,34.604 C32.3560007,34.7346673 32.659331,34.9213321 33.126,35.164 C33.5273353,35.3693344 33.8119992,35.5793323 33.98,35.794 C34.2320013,36.1206683 34.358,36.5639972 34.358,37.124 Z"/>
  </g>
</svg>
