<svg xmlns="http://www.w3.org/2000/svg" width="64" height="64" viewBox="0 0 64 64">
  <g fill="none" fill-rule="evenodd">
    <rect width="16" height="28" x="15.928" y="3.876" fill="#BD7575" rx="5" transform="rotate(30 23.928 17.876)"/>
    <path fill="#BD7575" d="M28.3108777,29.3756413 L62.3160339,27.5858962 C64.5223252,27.4697756 66.3108777,29.1709974 66.3108777,31.3756413 L66.3108777,31.3756413 C66.3108777,33.5847803 64.5290269,35.2818597 62.3160339,35.1653863 L28.3108777,33.3756413 L28.3108777,29.3756413 Z" transform="rotate(30 47.31 31.376)"/>
    <rect width="16" height="14" x="15.928" y="10.876" fill="#9F5757" transform="rotate(30 23.928 17.876)"/>
    <path fill="#BD7575" d="M3,49 C3,46.790861 4.79412025,45 6.99683887,45 L27.0031611,45 C29.2105543,45 31,46.7953562 31,49 L31,53 L3,53 L3,49 Z"/>
    <path stroke="#9F5757" stroke-linecap="square" stroke-width="2" d="M2,54 L32,54"/>
  </g>
</svg>
