<svg xmlns="http://www.w3.org/2000/svg" width="64" height="64" viewBox="0 0 64 64">
  <g fill="none" fill-rule="evenodd">
    <rect width="50" height="30" x="1" y="26" fill="#4796E7" rx="2"/>
    <path stroke="#FFAF40" stroke-linecap="square" stroke-width="2" d="M4,29 L8,29"/>
    <path stroke="#80D25B" stroke-linecap="square" stroke-width="2" d="M13,29 L17,29"/>
    <rect width="25" height="4" x="10" y="50" fill="#FFF"/>
    <rect width="4" height="4" x="38" y="50" fill="#FFF"/>
    <rect width="4" height="10" x="45" y="38" fill="#FFF"/>
    <rect width="4" height="4" x="3" y="50" fill="#FFF"/>
    <rect width="4" height="4" x="38" y="32" fill="#FFF"/>
    <rect width="4" height="4" x="38" y="38" fill="#FFF"/>
    <rect width="4" height="4" x="38" y="44" fill="#FFF"/>
    <rect width="4" height="4" x="45" y="50" fill="#FFF"/>
    <rect width="4" height="4" x="45" y="32" fill="#FFF"/>
    <rect width="4" height="4" x="3" y="44" fill="#FFF"/>
    <rect width="4" height="4" x="10" y="44" fill="#FFF"/>
    <rect width="4" height="4" x="17" y="44" fill="#FFF"/>
    <rect width="4" height="4" x="24" y="44" fill="#FFF"/>
    <rect width="4" height="4" x="31" y="44" fill="#FFF"/>
    <rect width="4" height="4" x="3" y="38" fill="#FFF"/>
    <rect width="4" height="4" x="10" y="38" fill="#FFF"/>
    <rect width="4" height="4" x="17" y="38" fill="#FFF"/>
    <rect width="4" height="4" x="24" y="38" fill="#FFF"/>
    <rect width="4" height="4" x="31" y="38" fill="#FFF"/>
    <rect width="4" height="4" x="3" y="32" fill="#FFF"/>
    <rect width="4" height="4" x="10" y="32" fill="#FFF"/>
    <rect width="4" height="4" x="17" y="32" fill="#FFF"/>
    <rect width="4" height="4" x="24" y="32" fill="#FFF"/>
    <rect width="4" height="4" x="31" y="32" fill="#FFF"/>
    <circle cx="48" cy="13" r="10" fill="#D8D8D8"/>
    <path fill="#D8D8D8" d="M57,13 C57,11.8954305 57.8982606,11 58.9979131,11 L63,11 L63,15 L58.9979131,15 C57.8944962,15 57,14.1122704 57,13 L57,13 Z" transform="matrix(-1 0 0 1 120 0)"/>
    <circle cx="48" cy="13" r="8" fill="#9F5757"/>
  </g>
</svg>
