<svg xmlns="http://www.w3.org/2000/svg" width="64" height="64" viewBox="0 0 64 64">
  <g fill="none" fill-rule="evenodd">
    <path stroke="#979797" stroke-linecap="round" stroke-width="3" d="M47,28 C47,19.7157288 40.2842712,13 32,13 C23.7157288,13 17,19.7157288 17,28"/>
    <path fill="#595959" d="M13.5518831,30.9575716 C13.7993712,29.3241499 15.3455393,28 17.0074199,28 L46.9925801,28 C48.6535323,28 50.2021986,29.3345109 50.4481169,30.9575716 L54.5518831,58.0424284 C54.7993712,59.6758501 53.6482195,61 51.9995558,61 L12.0004442,61 C10.3433446,61 9.20219862,59.6654891 9.44811691,58.0424284 L13.5518831,30.9575716 Z"/>
    <path fill="#FFF" d="M32.972,47.908 C32.9813334,47.9733337 32.986,48.0386663 32.986,48.104 C32.986,48.6640028 32.6733365,49.041999 32.048,49.238 C31.9266661,49.2753335 31.8193338,49.294 31.726,49.294 C31.5579992,49.294 31.4040007,49.2146675 31.264,49.056 C31.0493323,48.8226655 30.9186669,48.6920001 30.872,48.664 L28.352,46.9 L28.352,48.076 C28.352,48.1600004 28.3776664,48.2649994 28.429,48.391 C28.4803336,48.5170006 28.506,48.6126663 28.506,48.678 C28.506,48.7806672 28.4546672,48.8879994 28.352,49 C28.1186655,49.2426679 27.7826689,49.364 27.344,49.364 C26.9239979,49.364 26.6533339,49.2240014 26.532,48.944 C26.4759997,48.8133327 26.4573332,48.6780007 26.476,48.538 C26.5133335,48.2953321 26.532,48.1320004 26.532,48.048 L26.532,38.836 C26.5226666,38.6679992 26.5413331,38.4160017 26.588,38.08 C26.6720004,37.8746656 26.9286645,37.772 27.358,37.772 C27.9180028,37.772 28.2773325,37.8746656 28.436,38.08 C28.5200004,38.1920006 28.562,38.3133327 28.562,38.444 C28.562,38.5466672 28.5270003,38.7053323 28.457,38.92 C28.3869997,39.1346677 28.352,39.3026661 28.352,39.424 C28.3333332,39.965336 28.3333332,41.4913208 28.352,44.002 C28.8746693,43.4979975 29.5466626,42.8400041 30.368,42.028 C30.4800006,41.9159994 30.6246658,41.7153348 30.802,41.426 C30.9046672,41.2579992 31.0586656,41.1460003 31.264,41.09 C31.3200003,41.0713332 31.385333,41.062 31.46,41.062 C31.730668,41.062 32.0083319,41.1646656 32.293,41.37 C32.5776681,41.5753344 32.72,41.7946655 32.72,42.028 C32.72,42.1586673 32.6266676,42.3173324 32.44,42.504 C32.2533324,42.6906676 32.0666676,42.8679992 31.88,43.036 L29.556,45.444 L32.048,47.236 C32.0666668,47.2546668 32.2533316,47.3293327 32.608,47.46 C32.8133344,47.5440004 32.9346665,47.6933323 32.972,47.908 Z M38.712,41.566 C38.7306668,42.3686707 38.7726663,43.6893241 38.838,45.528 C38.8753335,46.8253398 38.894,47.7539972 38.894,48.314 C38.894,49.5460062 38.796001,50.3859978 38.6,50.834 C38.403999,51.2820022 38.0073363,51.5293331 37.41,51.576 C36.6633296,51.6413337 36.0053362,51.4453356 35.436,50.988 C35.1559986,50.9039996 34.978667,50.8386669 34.904,50.792 C34.7453325,50.6986662 34.6426669,50.5400011 34.596,50.316 C34.5119996,49.8773311 34.8573295,49.658 35.632,49.658 C35.828001,49.658 36.0146658,49.6813331 36.192,49.728 C36.3226673,49.7560001 36.4673325,49.8656657 36.626,50.057 C36.7846675,50.2483343 36.9339993,50.3486666 37.074,50.358 C37.344668,50.3766668 37.48,49.9940039 37.48,49.21 C37.48,48.8739983 37.4566669,48.3280038 37.41,47.572 C37.0739983,48.1413362 36.8313341,48.5099992 36.682,48.678 C36.3739985,48.9953349 36.0146687,49.154 35.604,49.154 C35.0253304,49.154 34.5586684,48.7526707 34.204,47.95 C33.8773317,47.212663 33.714,46.3166719 33.714,45.262 C33.714,44.1793279 33.8866649,43.2646704 34.232,42.518 C34.624002,41.6779958 35.1653299,41.2486668 35.856,41.23 C36.2293352,41.2206666 36.5046658,41.2953325 36.682,41.454 C36.8593342,41.6126675 37.0319992,41.7759992 37.2,41.944 C37.0786661,41.6079983 37.1066658,41.3560008 37.284,41.188 C37.3866672,41.0853328 37.5406656,41.034 37.746,41.034 C37.942001,41.034 38.137999,41.0853328 38.334,41.188 C38.530001,41.2906672 38.6559997,41.4166659 38.712,41.566 Z M37.032,45.136 C37.0693335,44.594664 37.0040008,44.0813358 36.836,43.596 C36.6493324,43.054664 36.4066682,42.784 36.108,42.784 C35.8653321,42.784 35.6506676,43.054664 35.464,43.596 C35.2959992,44.0813358 35.2026668,44.594664 35.184,45.136 C35.1653332,45.7053362 35.2073328,46.2186644 35.31,46.676 C35.4406673,47.217336 35.6226655,47.488 35.856,47.488 C36.0613344,47.488 36.299332,47.224336 36.57,46.697 C36.840668,46.169664 36.9946665,45.6493359 37.032,45.136 Z"/>
  </g>
</svg>
