<svg xmlns="http://www.w3.org/2000/svg" width="64" height="64" viewBox="0 0 64 64">
  <g fill="none" fill-rule="evenodd">
    <path fill="#BD7575" d="M6,5 L60,5 L60,59 L6,59 L6,5 Z M10,9 L10,55 L56,55 L56,9 L10,9 Z"/>
    <polygon fill="#E8E8E8" fill-rule="nonzero" points="10 16 56 16 56 14 10 14"/>
    <rect width="4" height="6" x="19" y="12" fill="#FFAF40" rx="2"/>
    <rect width="4" height="6" x="23" y="12" fill="#FFAF40" rx="2"/>
    <rect width="4" height="6" x="27" y="12" fill="#FFAF40" rx="2"/>
    <rect width="4" height="6" x="31" y="12" fill="#FFAF40" rx="2"/>
    <rect width="4" height="6" x="35" y="12" fill="#FFAF40" rx="2"/>
    <rect width="4" height="6" x="39" y="12" fill="#FFAF40" rx="2"/>
    <rect width="4" height="6" x="43" y="12" fill="#FFAF40" rx="2"/>
    <rect width="4" height="6" x="47" y="12" fill="#FFAF40" rx="2"/>
    <polygon fill="#E8E8E8" fill-rule="nonzero" points="10 26 56 26 56 24 10 24"/>
    <rect width="4" height="6" x="13" y="22" fill="#FFAF40" rx="2"/>
    <rect width="4" height="6" x="17" y="22" fill="#FFAF40" rx="2"/>
    <rect width="4" height="6" x="35" y="22" fill="#FFAF40" rx="2"/>
    <rect width="4" height="6" x="43" y="22" fill="#FFAF40" rx="2"/>
    <rect width="4" height="6" x="47" y="22" fill="#FFAF40" rx="2"/>
    <polygon fill="#E8E8E8" fill-rule="nonzero" points="10 36 56 36 56 34 10 34"/>
    <rect width="4" height="6" x="13" y="32" fill="#FFAF40" rx="2"/>
    <rect width="4" height="6" x="35" y="32" fill="#FFAF40" rx="2"/>
    <rect width="4" height="6" x="39" y="32" fill="#FFAF40" rx="2"/>
    <rect width="4" height="6" x="43" y="32" fill="#FFAF40" rx="2"/>
    <rect width="4" height="6" x="47" y="32" fill="#FFAF40" rx="2"/>
    <polygon fill="#E8E8E8" fill-rule="nonzero" points="10 47 56 47 56 45 10 45"/>
    <rect width="4" height="6" x="19" y="43" fill="#FFAF40" rx="2"/>
    <rect width="4" height="6" x="23" y="43" fill="#FFAF40" rx="2"/>
    <rect width="4" height="6" x="27" y="43" fill="#FFAF40" rx="2"/>
    <rect width="4" height="6" x="31" y="43" fill="#FFAF40" rx="2"/>
    <rect width="4" height="6" x="35" y="43" fill="#FFAF40" rx="2"/>
    <rect width="4" height="6" x="47" y="43" fill="#FFAF40" rx="2"/>
  </g>
</svg>
