<svg xmlns="http://www.w3.org/2000/svg" width="64" height="64" viewBox="0 0 64 64">
  <g fill="none" fill-rule="evenodd">
    <circle cx="32" cy="14" r="4" stroke="#9C4D4D" stroke-linecap="round" stroke-width="2"/>
    <path stroke="#9C4D4D" stroke-linecap="square" stroke-width="2" d="M32 9L32 3M30 5L34 5"/>
    <path fill="#BD7575" d="M15,58.5 C15,56.5670034 16.5717012,55 18.4946613,55 L45.5053387,55 C47.4353869,55 49,56.5709366 49,58.5 L49,62 L15,62 L15,58.5 Z"/>
    <path fill="#9C4D4D" d="M27.0206123,23 L37.0206123,23 C37.0206123,23 38.9567516,34.7445573 40.0206123,39 C41.084473,43.2554427 42.7791256,43.1362122 43.0206123,47 C43.262099,50.8637878 41.0206123,55 41.0206123,55 L23.0206123,55 C23.0206123,55 20.762099,51.1362122 21.0206123,47 C21.2791256,42.8637878 23.0206123,42.8424077 24.0206123,39 C25.0206123,35.1575923 27.0206123,23 27.0206123,23 Z"/>
    <rect width="22" height="6" x="21" y="17" fill="#BD7575" rx="3"/>
  </g>
</svg>
