<svg xmlns="http://www.w3.org/2000/svg" width="64" height="64" viewBox="0 0 64 64">
  <g fill="none" fill-rule="evenodd">
    <polygon fill="#325AA6" points="4 11 60 11 60 46 4 46"/>
    <rect width="52" height="31" x="6" y="13" fill="#B4DFFB"/>
    <path fill="#4796E7" d="M0,46 L64,46 L64,48.5 C64,49.8807119 62.8891602,51 61.4911242,51 L2.50887585,51 C1.12326198,51 0,49.8903379 0,48.5 L0,46 Z"/>
    <circle cx="32" cy="35" r="3" fill="#5DAF38"/>
    <path stroke="#5DAF38" stroke-linecap="round" stroke-width="2" d="M36.9497475 30.0502525C35.6829966 28.7835017 33.9329966 28 32 28 30.0670034 28 28.3170034 28.7835017 27.0502525 30.0502525M39.7781746 27.2218254C37.7875661 25.2312169 35.0375661 24 32 24 28.9624339 24 26.2124339 25.2312169 24.2218254 27.2218254"/>
    <path stroke="#5DAF38" stroke-linecap="round" stroke-width="2" d="M42.6066017,24.3933983 C39.8921356,21.6789322 36.1421356,20 32,20 C27.8578644,20 24.1078644,21.6789322 21.3933983,24.3933983"/>
  </g>
</svg>
