<svg xmlns="http://www.w3.org/2000/svg" width="64" height="64" viewBox="0 0 64 64">
  <g fill="none" fill-rule="evenodd">
    <polygon fill="#325AA6" points="4 12 60 12 60 47 4 47"/>
    <rect width="52" height="31" x="6" y="14" fill="#D8D8D8"/>
    <path fill="#4796E7" d="M0,47 L64,47 L64,49.5 C64,50.8807119 62.8891602,52 61.4911242,52 L2.50887585,52 C1.12326198,52 0,50.8903379 0,49.5 L0,47 Z"/>
    <g transform="rotate(90 17.5 39.5)">
      <path fill="#FFAF40" d="M2.10127012,28 L13.1012701,28 C13.1012701,28 12.6092632,30.6135827 13.1702861,33.5 C13.7313091,36.3864173 15.2393022,41 15.2393022,41 C15.2393022,41 13.3297942,42 11.4202861,44 C9.51077813,46 7.60127012,49 7.60127012,49 C7.60127012,49 5.70095259,46 3.80063506,44 C1.90031753,42 0,41 0,41 C0,41 1.55097285,36.1156962 2.05063506,33.5 C2.55029727,30.8843038 2.10127012,28 2.10127012,28 Z"/>
      <circle cx="7.5" cy="36.5" r="2.5" fill="#5B68C0"/>
      <path fill="#9F5757" d="M0,8.42930277 C0,4.28353835 3.36629279,0.922732251 7.5,0.922732251 L7.5,0.922732251 C11.6421356,0.922732251 15,4.28370571 15,8.42930277 L15,28 L0,28 L0,8.42930277 Z"/>
      <path fill="#FB3A3A" d="M5,6.50226064 C5,5.12030025 6.10966206,4 7.5,4 L7.5,4 C8.88071187,4 10,5.12122893 10,6.50226064 L10,26 L5,26 L5,6.50226064 Z"/>
    </g>
  </g>
</svg>
