<svg xmlns="http://www.w3.org/2000/svg" width="64" height="64" viewBox="0 0 64 64">
  <g fill="none" fill-rule="evenodd">
    <polygon fill="#325AA6" points="4 11 60 11 60 46 4 46"/>
    <rect width="52" height="31" x="6" y="13" fill="#D8D8D8"/>
    <rect width="19" height="28" x="12" y="16" fill="#ECECEC"/>
    <path stroke="#868686" stroke-linecap="square" stroke-width="2" d="M16 20L27 20M16 24L27 24M16 28L27 28M16 32L27 32M16 36L27 36"/>
    <rect width="19" height="28" x="32" y="16" fill="#ECECEC"/>
    <path stroke="#868686" stroke-linecap="square" stroke-width="2" d="M36 20L47 20M36 24L47 24M36 28L47 28M36 32L47 32M36 36L47 36"/>
    <path fill="#4796E7" d="M0,46 L64,46 L64,48.5 C64,49.8807119 62.8891602,51 61.4911242,51 L2.50887585,51 C1.12326198,51 0,49.8903379 0,48.5 L0,46 Z"/>
    <circle cx="22" cy="56" r="2" fill="#0A3586" transform="rotate(90 22 56)"/>
    <rect width="52" height="10" x="11" y="53" fill="#F5413E" rx="2"/>
    <path stroke="#FF5EAC" stroke-linecap="square" stroke-width="2" d="M19 54L19 62M24 54L24 62M46 54L46 62"/>
    <path stroke="#FFF" stroke-linecap="square" stroke-width="2" d="M27,58 L43,58"/>
    <rect width="52" height="10" x="11" y="43" fill="#80D25B" rx="2"/>
    <path stroke="#5B68C0" stroke-linecap="square" stroke-width="2" d="M29 44L29 52M34 44L34 52M56 44L56 52"/>
    <path stroke="#FFF" stroke-linecap="square" stroke-width="2" d="M37,48 L53,48"/>
  </g>
</svg>
