<svg xmlns="http://www.w3.org/2000/svg" width="64" height="64" viewBox="0 0 64 64">
  <g fill="none" fill-rule="evenodd">
    <polygon fill="#595959" points="4 14 60 14 60 49 4 49"/>
    <rect width="52" height="31" x="6" y="16" fill="#80D25B"/>
    <path fill="#4796E7" d="M0,49 L64,49 L64,51.5 C64,52.8807119 62.8891602,54 61.4911242,54 L2.50887585,54 C1.12326198,54 0,52.8903379 0,51.5 L0,49 Z"/>
    <circle cx="31.5" cy="31.5" r="9.5" fill="#9F5757"/>
    <path fill="#FFDD95" d="M33.704,31.296 C33.6506664,31.296 33.3413362,31.2213341 32.776,31.072 L29.272,31.632 C29.272,31.9413349 29.2826666,32.2453318 29.304,32.544 L31.816,32.176 C32.1466683,31.8773318 32.3813326,31.7173334 32.52,31.696 C32.7226677,31.6639998 32.9439988,31.8159983 33.184,32.152 C33.4240012,32.4880017 33.5706664,32.8213317 33.624,33.152 C33.6560002,33.3760011 33.6133339,33.5706658 33.496,33.736 C33.3786661,33.9013342 33.2506674,33.9946666 33.112,34.016 C33.0586664,34.0266667 32.7493362,33.9573341 32.184,33.808 L29.592,34.224 C30.0080021,35.6426738 30.7706611,36.352 31.88,36.352 C32.3280022,36.352 32.7013318,36.181335 33,35.84 C33.266668,35.5306651 33.4266664,35.146669 33.48,34.688 C33.6933344,34.2506645 34.066664,34.032 34.6,34.032 C34.9306683,34.032 35.229332,34.1253324 35.496,34.312 C35.762668,34.4986676 35.896,34.725332 35.896,34.992 C35.896,35.0560003 35.8906667,35.1199997 35.88,35.184 C35.8479998,35.3013339 35.7466675,35.4346659 35.576,35.584 C35.383999,35.7653342 35.2666669,35.8826664 35.224,35.936 C35.1386662,36.0746674 34.9573347,36.3253315 34.68,36.688 C33.9866632,37.7866722 33.1813379,38.336 32.264,38.336 C31.0373272,38.336 30.0026709,37.973337 29.16,37.248 C28.3919962,36.6079968 27.8266685,35.7120058 27.464,34.56 L27,34.624 C26.6479982,34.9013347 26.4080006,35.0506666 26.28,35.072 C25.8639979,35.1360003 25.6026672,34.8373366 25.496,34.176 C25.4853333,34.0693328 25.48,33.9733338 25.48,33.888 C25.48,33.3013304 25.746664,32.9653338 26.28,32.88 C26.3866672,32.8693333 26.6479979,32.864 27.064,32.864 L27.112,32.864 C27.0693331,32.5759986 27.0426667,32.2826682 27.032,31.984 L26.904,32 C26.562665,32.266668 26.3226674,32.4106666 26.184,32.432 C25.7679979,32.506667 25.5120005,32.2080034 25.416,31.536 C25.3946666,31.4399995 25.384,31.3493338 25.384,31.264 C25.384,30.6773304 25.6559973,30.3413338 26.2,30.256 C26.2960005,30.2346666 26.5573312,30.2293333 26.984,30.24 L27.112,30.224 C27.3146677,28.6879923 27.8213293,27.4666712 28.632,26.56 C29.5493379,25.5466616 30.7599925,25.04 32.264,25.04 C32.7546691,25.04 33.2773306,25.2159982 33.832,25.568 C34.3013357,25.8666682 34.6479989,26.1759984 34.872,26.496 C34.9893339,26.6773342 35.1333325,26.8373326 35.304,26.976 C35.4746675,27.1146674 35.5653333,27.1893333 35.576,27.2 C35.6613338,27.3493341 35.704,27.4986659 35.704,27.648 C35.704,27.9466682 35.5173352,28.2026656 35.144,28.416 C34.8133317,28.5973342 34.4453354,28.688 34.04,28.688 C33.5706643,28.688 33.2720006,28.5706678 33.144,28.336 C33.1226666,28.2933331 33.0853336,28.0746686 33.032,27.68 C32.9786664,27.5839995 32.8240013,27.4560008 32.568,27.296 C32.2799986,27.1253325 32.0506675,27.04 31.88,27.04 C30.5359933,27.04 29.7093349,27.9893238 29.4,29.888 L32.408,29.456 C32.749335,29.1573318 32.9839994,28.9973334 33.112,28.976 C33.3146677,28.9439998 33.5359988,29.0933317 33.776,29.424 C34.0160012,29.7546683 34.1626664,30.0853317 34.216,30.416 C34.2480002,30.6506678 34.2053339,30.8506658 34.088,31.016 C33.9706661,31.1813342 33.8426674,31.2746666 33.704,31.296 Z"/>
  </g>
</svg>
