<svg xmlns="http://www.w3.org/2000/svg" width="64" height="64" viewBox="0 0 64 64">
  <g fill="none" fill-rule="evenodd">
    <polygon fill="#979797" points="4 12 60 12 60 47 4 47"/>
    <rect width="52" height="31" x="6" y="14" fill="#5B68C0"/>
    <path fill="#D8D8D8" d="M0,47 L64,47 L64,49.5 C64,50.8807119 62.8891602,52 61.4911242,52 L2.50887585,52 C1.12326198,52 0,50.8903379 0,49.5 L0,47 Z"/>
    <path stroke="#5EA7FF" stroke-linecap="round" stroke-width="2" d="M13.0994253 17L9 21.0994253M19.0994253 17L9.61905129 26.480374"/>
    <path fill="#E43535" fill-rule="nonzero" stroke="#FFF" stroke-width="2" d="M6.41021742,60.2903139 L60.5872217,6.41819854 C61.3704711,5.63935699 61.3740444,4.37303208 60.5952028,3.58978268 C59.8163613,2.80653328 58.5500364,2.80296001 57.766787,3.58180156 L3.58978268,57.4539169 C2.80653328,58.2327584 2.80296001,59.4990834 3.58180156,60.2823328 C4.36064311,61.0655822 5.62696802,61.0691554 6.41021742,60.2903139 Z"/>
  </g>
</svg>
