<svg xmlns="http://www.w3.org/2000/svg" width="64" height="64" viewBox="0 0 64 64">
  <g fill="none" fill-rule="evenodd">
    <polygon fill="#325AA6" points="4 12 60 12 60 47 4 47"/>
    <rect width="52" height="31" x="6" y="14" fill="#D8D8D8"/>
    <path fill="#4796E7" d="M0,47 L64,47 L64,49.5 C64,50.8807119 62.8891602,52 61.4911242,52 L2.50887585,52 C1.12326198,52 0,50.8903379 0,49.5 L0,47 Z"/>
    <polygon fill="#FF5EAC" points="26.062 17 32.124 20.5 32.124 27.5 26.062 31 20 27.5 20 20.5"/>
    <polygon fill="#FFAF40" points="38.062 17 44.124 20.5 44.124 27.5 38.062 31 32 27.5 32 20.5"/>
    <polygon fill="#F5413E" points="32.062 28 38.124 31.5 38.124 38.5 32.062 42 26 38.5 26 31.5"/>
  </g>
</svg>
