<svg xmlns="http://www.w3.org/2000/svg" width="64" height="64" viewBox="0 0 64 64">
  <g fill="none" fill-rule="evenodd">
    <polygon fill="#595959" points="5 14 61 14 61 49 5 49"/>
    <rect width="52" height="31" x="7" y="16" fill="#DFCC00"/>
    <path fill="#4796E7" d="M1,49 L65,49 L65,51.5 C65,52.8807119 63.8891602,54 62.4911242,54 L3.50887585,54 C2.12326198,54 1,52.8903379 1,51.5 L1,49 Z"/>
    <circle cx="32.5" cy="31.5" r="9.5" fill="#9F5757"/>
    <path fill="#FFDD95" d="M34.5134088,35.6740155 C34.5886357,35.3572707 34.7454979,35.140601 34.984,35.024 C35.2240012,34.9066661 35.4666654,34.885333 35.712,34.96 C36.2880029,35.1626677 36.4960008,35.5733302 36.336,36.192 C35.8986645,37.258672 35.1626718,37.9039989 34.128,38.128 C33.9146656,38.128 33.6853346,38.1120002 33.44,38.08 C33.1946654,38.0479998 32.938668,37.994667 32.672,37.92 C32.5226659,37.8879998 32.3733341,37.8586668 32.224,37.832 C32.0746659,37.8053332 31.9306674,37.792 31.792,37.792 C31.599999,37.792 31.4240008,37.8186664 31.264,37.872 L30.64,38.064 C30.1919978,38.1280003 29.7706686,38.1493334 29.376,38.128 C28.9279978,37.9893326 28.6480006,37.8133344 28.536,37.6 C28.4239994,37.3866656 28.3999997,37.1520013 28.464,36.896 C28.4853334,36.7999995 28.5226664,36.7173337 28.576,36.648 C28.6293336,36.5786663 28.6879997,36.5013338 28.752,36.416 C28.8053336,36.3306662 28.8666663,36.2480004 28.936,36.168 C29.0053337,36.0879996 29.0613331,36.0000005 29.104,35.904 L29.088,35.936 C29.2053339,35.3386637 29.3199994,34.7760026 29.432,34.248 C29.5440006,33.7199974 29.6533328,33.1626696 29.76,32.576 C29.6426661,32.5866667 29.5333338,32.5893334 29.432,32.584 C29.3306662,32.5786666 29.2213339,32.576 29.104,32.576 L28.88,32.576 C28.687999,32.576 28.5360006,32.4880009 28.424,32.312 C28.3119994,32.1359991 28.256,31.9573342 28.256,31.776 C28.256,31.6373326 28.2719998,31.4853342 28.304,31.32 C28.3360002,31.1546658 28.3946662,31.0133339 28.48,30.896 C28.5440003,30.8533331 28.6506659,30.8106669 28.8,30.768 C28.9493341,30.7253331 29.0986659,30.6933334 29.248,30.672 C29.3973341,30.6506666 29.5306661,30.6373334 29.648,30.632 C29.7653339,30.6266666 29.824,30.6293333 29.824,30.64 C29.824,30.6293333 29.8559997,30.6213334 29.92,30.616 C29.9840003,30.6106666 30.0693328,30.608 30.176,30.608 L31.136,25.744 C31.2320005,25.3813315 31.4613315,25.1146675 31.824,24.944 C32.1866685,24.7733325 32.6613304,24.7146664 33.248,24.768 L33.328,24.768 L33.984,24.832 C34.9973384,25.0880013 35.5466662,25.7546613 35.632,26.832 C35.6533334,26.9706674 35.6426669,27.0986661 35.6,27.216 C35.525333,27.4400011 35.3813344,27.6053328 35.168,27.712 C34.9546656,27.8186672 34.7306678,27.8453336 34.496,27.792 C34.2933323,27.7279997 34.1333339,27.6160008 34.016,27.456 C33.8986661,27.2959992 33.84,27.0933346 33.84,26.848 C33.8720002,26.6879992 33.7386682,26.570667 33.44,26.496 C33.3226661,26.5066667 33.234667,26.5199999 33.176,26.536 C33.117333,26.5520001 33.0613336,26.5919997 33.008,26.656 C32.9653331,26.7840006 32.877334,27.1679968 32.744,27.808 C32.610666,28.4480032 32.4320011,29.3759939 32.208,30.592 C32.400001,30.5706666 32.5706659,30.56 32.72,30.56 L33.184,30.56 C33.6320022,30.5493333 34.026665,30.581333 34.368,30.656 C34.6026678,30.730667 34.7786661,30.8959987 34.896,31.152 C35.0133339,31.4080013 35.0506669,31.6746653 35.008,31.952 C34.8799994,32.5813365 34.5333362,32.7946677 33.968,32.592 C33.9253331,32.5706666 33.8826669,32.5573334 33.84,32.552 C33.7973331,32.5466666 33.7493336,32.5386667 33.696,32.528 C33.4399987,32.453333 33.1093354,32.4319998 32.704,32.464 L31.808,32.544 L31.152,35.744 C31.3226675,35.7226666 31.4826659,35.7066667 31.632,35.696 C31.7813341,35.6853333 31.9359992,35.68 32.096,35.68 C32.4160016,35.68 32.7173319,35.7119997 33,35.776 C33.2826681,35.8400003 33.5626653,35.9466659 33.84,36.096 L33.824,36.096 C34.1043367,36.1271485 34.3341375,35.9864884 34.5134088,35.6740155 L34.5134088,35.6740155 Z"/>
  </g>
</svg>
