<svg xmlns="http://www.w3.org/2000/svg" width="64" height="64" viewBox="0 0 64 64">
  <g fill="none" fill-rule="evenodd">
    <polygon fill="#595959" points="4 18 60 18 60 53 4 53"/>
    <rect width="52" height="31" x="6" y="20" fill="#80D25B"/>
    <path fill="#4796E7" d="M0,53 L64,53 L64,55.5 C64,56.8807119 62.8891602,58 61.4911242,58 L2.50887585,58 C1.12326198,58 0,56.8903379 0,55.5 L0,53 Z"/>
    <path fill="#D8D8D8" d="M32,6.54400273 C32,6.54400273 37.3000057,4 42.6000114,4 C47.9000171,4 53.2000227,6.54400273 53.2000227,6.54400273 L53.2000227,37.9200364 C53.2000227,37.9200364 47.9000171,35.3760337 42.6000114,35.3760337 C37.3000057,35.3760337 32,37.9200364 32,37.9200364 L32,6.54400273 Z"/>
    <path fill="#ECECEC" d="M11,6.54400273 C11,6.54400273 16.3000057,4 21.6000114,4 C26.9000171,4 32.2000227,6.54400273 32.2000227,6.54400273 L32.2000227,37.9200364 C32.2000227,37.9200364 26.9000171,35.3760337 21.6000114,35.3760337 C16.3000057,35.3760337 11,37.9200364 11,37.9200364 L11,6.54400273 Z"/>
    <path stroke="#B6B6B6" stroke-width="2" d="M14 10.8766278C14 10.8766278 21.1094365 6.631173 28.7817057 10.9113325M14 15.8766278C14 15.8766278 21.1094365 11.631173 28.7817057 15.9113325M14 20.8766278C14 20.8766278 21.1094365 16.631173 28.7817057 20.9113325M14 25.8766278C14 25.8766278 21.1094365 21.631173 28.7817057 25.9113325M14 30.8766278C14 30.8766278 21.1094365 26.631173 28.7817057 30.9113325M35 10.8766278C35 10.8766278 42.1094365 6.631173 49.7817057 10.9113325M35 15.8766278C35 15.8766278 42.1094365 11.631173 49.7817057 15.9113325M35 20.8766278C35 20.8766278 42.1094365 16.631173 49.7817057 20.9113325M35 25.8766278C35 25.8766278 42.1094365 21.631173 49.7817057 25.9113325M35 30.8766278C35 30.8766278 42.1094365 26.631173 49.7817057 30.9113325"/>
  </g>
</svg>
