<svg xmlns="http://www.w3.org/2000/svg" width="64" height="64" viewBox="0 0 64 64">
  <g fill="none" fill-rule="evenodd">
    <path fill="#FFAF40" d="M23.0185833,38.2776562 C23.1881395,37.7518456 23.7603612,37.1853935 24.2776562,37.0185833 L48.687236,29.1473191 C49.2130467,28.9777629 49.499102,29.2750799 49.3322918,29.7923749 L41.4610276,54.2019547 C41.2914714,54.7277653 40.7192497,55.2942174 40.2019547,55.4610276 L15.7923749,63.3322918 C15.2665643,63.501848 14.9805089,63.2045311 15.1473191,62.687236 L23.0185833,38.2776562 Z" transform="rotate(45 32.24 46.24)"/>
    <path fill="#FF78C7" d="M23.0185833,25.2776562 C23.1881395,24.7518456 23.7603612,24.1853935 24.2776562,24.0185833 L48.687236,16.1473191 C49.2130467,15.9777629 49.499102,16.2750799 49.3322918,16.7923749 L41.4610276,41.2019547 C41.2914714,41.7277653 40.7192497,42.2942174 40.2019547,42.4610276 L15.7923749,50.3322918 C15.2665643,50.501848 14.9805089,50.2045311 15.1473191,49.687236 L23.0185833,25.2776562 Z" transform="rotate(45 32.24 33.24)"/>
    <path fill="#B4DFFB" d="M23.0185833,10.2776562 C23.1881395,9.75184563 23.7603612,9.18539348 24.2776562,9.01858333 L48.687236,1.14731909 C49.2130467,0.977762939 49.499102,1.27507987 49.3322918,1.79237487 L41.4610276,26.2019547 C41.2914714,26.7277653 40.7192497,27.2942174 40.2019547,27.4610276 L15.7923749,35.3322918 C15.2665643,35.501848 14.9805089,35.2045311 15.1473191,34.687236 L23.0185833,10.2776562 Z" transform="rotate(45 32.24 18.24)"/>
  </g>
</svg>
