<svg xmlns="http://www.w3.org/2000/svg" width="64" height="64" viewBox="0 0 64 64">
  <g fill="none" fill-rule="evenodd">
    <circle cx="32" cy="33" r="30" fill="#5B68C0"/>
    <path fill="#80D25B" d="M34.6023547,51.1169604 C42.2808469,51.1169604 49.6957984,43.62558 49.6957984,35.9470878 C49.6957984,28.2685956 37.2646361,7.26832746 37.2646361,7.26832746 C37.2646361,7.26832746 22.2823789,26.6742135 21.3753332,34.92309 C20.4682875,43.1719666 26.9238625,51.1169604 34.6023547,51.1169604 Z" transform="rotate(36 35.493 29.193)"/>
    <path stroke="#22BA8E" stroke-linecap="round" stroke-width="3" d="M43.8788223,19.3504867 C43.8788223,19.3504867 29.301655,28.2977721 24.0006382,44.776606 C22.6367019,49.0165624 20.5843591,52.0416952 18.288155,54.1964528"/>
    <polyline stroke="#22BA8E" stroke-linecap="round" stroke-width="2" points="36.064 40.143 26.32 39.729 21.604 31.419"/>
    <polyline stroke="#22BA8E" stroke-linecap="round" stroke-width="2" points="39.056 31.449 32.412 30.089 30.278 24.671"/>
  </g>
</svg>
