<svg xmlns="http://www.w3.org/2000/svg" width="64" height="64" viewBox="0 0 64 64">
  <g fill="none" fill-rule="evenodd">
    <path fill="#595959" d="M7.10517764,39.9436912 C7.37354539,38.8702202 8.4834157,38 9.58795205,38 L54.5942488,38 C55.6970795,38 56.8081883,38.8683514 57.0770233,39.9436912 L62.1051776,60.0563088 C62.3735454,61.1297798 61.7052712,62 60.596202,62 L3.58599885,62 C2.48424688,62 1.80818828,61.1316486 2.07702325,60.0563088 L7.10517764,39.9436912 Z"/>
    <polygon fill="#B4DFFB" points="10.566 41.024 53.571 41.024 57.083 57.041 7.099 57.041"/>
    <polygon fill="#4796E7" points="19.187 43.041 44.005 43.041 46.596 53.041 16.596 53.041"/>
    <path stroke="#80D25B" stroke-linecap="round" stroke-width="2" d="M31.8851827,45.8487673 C31.8851827,45.8487673 28.5158121,34.7605969 30.5786237,28.6050912 C32.6414353,22.4495855 35.490638,17.778121 35.490638,13.6658927 C35.490638,9.55366443 28.0285734,5.12219149 28.0285734,5.12219149"/>
    <circle cx="28" cy="5" r="2" fill="#5DAF38"/>
    <path fill="#5DAF38" d="M34.4091943,16.9327369 C34.4091943,16.9327369 33.5072723,10.7878355 26,13.8602862 C26,13.8602862 28.7308812,19.7350575 33.4598321,18.1723214"/>
    <path fill="#5DAF38" d="M43.9185657,12.9792657 C43.9185657,12.9792657 43.0166437,6.8343643 35.5093714,9.90681499 C35.5093714,9.90681499 38.2402526,15.7815863 42.9692035,14.2188502" transform="rotate(133 39.714 11.765)"/>
    <path fill="#5DAF38" d="M28.0998704,28.1096454 C28.0998704,28.1096454 27.1979485,21.9647441 19.6906762,25.0371947 C19.6906762,25.0371947 22.4215574,30.911966 27.1505083,29.34923" transform="rotate(-45 23.895 26.895)"/>
    <path fill="#5DAF38" d="M42.753663,30.2143688 C42.753663,30.2143688 41.3926194,20.9414172 30.0637845,25.577893 C30.0637845,25.577893 34.1848156,34.4432054 41.3210299,32.0849615" transform="rotate(135 36.409 28.382)"/>
    <path stroke="#80D25B" stroke-linecap="round" stroke-width="2" d="M31.0015158,27.1901532 C31.0015158,27.1901532 26.1791226,22.8890084 22.9835149,22.8890084"/>
    <path fill="#5DAF38" d="M27.1277827,21.1033702 C27.1277827,21.1033702 26.5967199,17.4851761 22.1763448,19.2942732 C22.1763448,19.2942732 23.7843216,22.7534114 26.5687865,21.833253" transform="rotate(75 24.652 20.388)"/>
  </g>
</svg>
