<svg xmlns="http://www.w3.org/2000/svg" width="64" height="64" viewBox="0 0 64 64">
  <g fill="none" fill-rule="evenodd">
    <path fill="#E43535" d="M46,8 L46,17 L42,17 L42,8 L39,8 L44,2 L49,8 L46,8 Z M34,8 L34,17 L30,17 L30,8 L27,8 L32,2 L37,8 L34,8 Z M22,8 L22,17 L18,17 L18,8 L15,8 L20,2 L25,8 L22,8 Z" transform="rotate(180 32 9.5)"/>
    <path fill="#80D25B" d="M32,47 C36.418278,47 40,43.418278 40,39 C40,34.581722 32,21 32,21 C32,21 24,34.581722 24,39 C24,43.418278 27.581722,47 32,47 Z"/>
    <path fill="#80D25B" d="M47.5044647,57.529591 C50.2658885,57.529591 52.5044647,55.1876959 52.5044647,52.2988218 C52.5044647,49.4099477 47.5044647,40.529591 47.5044647,40.529591 C47.5044647,40.529591 42.5044647,49.4099477 42.5044647,52.2988218 C42.5044647,55.1876959 44.743041,57.529591 47.5044647,57.529591 Z" transform="rotate(75 47.504 49.03)"/>
    <path fill="#80D25B" d="M17.5044647,57.529591 C20.2658885,57.529591 22.5044647,55.1876959 22.5044647,52.2988218 C22.5044647,49.4099477 17.5044647,40.529591 17.5044647,40.529591 C17.5044647,40.529591 12.5044647,49.4099477 12.5044647,52.2988218 C12.5044647,55.1876959 14.743041,57.529591 17.5044647,57.529591 Z" transform="scale(-1 1) rotate(75 0 26.217)"/>
    <path stroke="#22BA8E" stroke-linecap="square" stroke-width="2" d="M32,62 L32,35.9545689"/>
    <path stroke="#22BA8E" stroke-linecap="round" stroke-width="2" d="M44,50 C37.372583,50 32,55.372583 32,62"/>
    <path stroke="#22BA8E" stroke-linecap="round" stroke-width="2" d="M32,50 C25.372583,50 20,55.372583 20,62" transform="matrix(-1 0 0 1 52 0)"/>
  </g>
</svg>
