<svg xmlns="http://www.w3.org/2000/svg" width="64" height="64" viewBox="0 0 64 64">
  <g fill="none" fill-rule="evenodd">
    <circle cx="31" cy="33" r="30" fill="#325AA6"/>
    <circle cx="53" cy="11" r="10" fill="#5EA7FF"/>
    <polyline stroke="#FFF" stroke-linecap="square" stroke-width="2" points="57.659 16.373 52.852 6.054 48.255 9.737" transform="matrix(1 0 0 -1 0 22.427)"/>
    <path fill="#80D25B" d="M31,33 C35.418278,33 39,29.418278 39,25 C39,20.581722 31,7 31,7 C31,7 23,20.581722 23,25 C23,29.418278 26.581722,33 31,33 Z"/>
    <path fill="#80D25B" d="M46.5044647,46.529591 C49.2658885,46.529591 51.5044647,44.1876959 51.5044647,41.2988218 C51.5044647,38.4099477 46.5044647,29.529591 46.5044647,29.529591 C46.5044647,29.529591 41.5044647,38.4099477 41.5044647,41.2988218 C41.5044647,44.1876959 43.743041,46.529591 46.5044647,46.529591 Z" transform="rotate(75 46.504 38.03)"/>
    <path fill="#80D25B" d="M16.5044647,46.529591 C19.2658885,46.529591 21.5044647,44.1876959 21.5044647,41.2988218 C21.5044647,38.4099477 16.5044647,29.529591 16.5044647,29.529591 C16.5044647,29.529591 11.5044647,38.4099477 11.5044647,41.2988218 C11.5044647,44.1876959 13.743041,46.529591 16.5044647,46.529591 Z" transform="scale(-1 1) rotate(75 0 16.52)"/>
    <path stroke="#22BA8E" stroke-linecap="square" stroke-width="2" d="M31,57 L31,21.9545689"/>
    <path stroke="#22BA8E" stroke-linecap="round" stroke-width="2" d="M43,39 C36.372583,39 31,44.372583 31,51"/>
    <path stroke="#22BA8E" stroke-linecap="round" stroke-width="2" d="M31,39 C24.372583,39 19,44.372583 19,51" transform="matrix(-1 0 0 1 50 0)"/>
  </g>
</svg>
