<svg xmlns="http://www.w3.org/2000/svg" width="64" height="64" viewBox="0 0 64 64">
  <g fill="none" fill-rule="evenodd">
    <circle cx="42" cy="38" r="8" fill="#80D25B"/>
    <circle cx="42" cy="38" r="4" fill="#5DAF38"/>
    <path fill="#FFDD95" d="M52.8063492,50.5390579 L59.0563492,51.9693927 L51.5563492,33.0563492 L44.0563492,51.9693927 L50.3063492,50.5390579 L50.3063492,62.0563492 L52.8063492,62.0563492 L52.8063492,50.5390579 Z" transform="rotate(-45 51.556 47.556)"/>
    <path fill="#80D25B" d="M21.4866036,44.0097065 C29.1650958,44.0097065 36.5800473,36.5183261 36.5800473,28.8398339 C36.5800473,21.1613417 24.148885,0.161073538 24.148885,0.161073538 C24.148885,0.161073538 9.16662782,19.5669596 8.25958214,27.8158361 C7.35253646,36.0647126 13.8081114,44.0097065 21.4866036,44.0097065 Z" transform="rotate(36 22.377 22.085)"/>
    <path stroke="#22BA8E" stroke-linecap="round" stroke-width="3" d="M30.7630713,12.2432328 C30.7630713,12.2432328 16.185904,21.1905182 10.8848872,37.669352 C9.52095082,41.9093085 7.46860808,44.9344412 5.17240395,47.0891989"/>
    <polyline stroke="#22BA8E" stroke-linecap="round" stroke-width="2" points="22.948 33.035 13.205 32.622 8.489 24.312"/>
    <polyline stroke="#22BA8E" stroke-linecap="round" stroke-width="2" points="25.941 24.341 19.296 22.982 17.162 17.564"/>
  </g>
</svg>
