<svg xmlns="http://www.w3.org/2000/svg" width="64" height="64" viewBox="0 0 64 64">
  <g fill="none" fill-rule="evenodd">
    <path fill="#80D25B" d="M32,28 C36.418278,28 40,24.418278 40,20 C40,15.581722 32,2 32,2 C32,2 24,15.581722 24,20 C24,24.418278 27.581722,28 32,28 Z"/>
    <path fill="#80D25B" d="M47.5044647,55.529591 C50.2658885,55.529591 52.5044647,53.1876959 52.5044647,50.2988218 C52.5044647,47.4099477 47.5044647,38.529591 47.5044647,38.529591 C47.5044647,38.529591 42.5044647,47.4099477 42.5044647,50.2988218 C42.5044647,53.1876959 44.743041,55.529591 47.5044647,55.529591 Z" transform="rotate(75 47.504 47.03)"/>
    <path fill="#80D25B" d="M17.5044647,55.529591 C20.2658885,55.529591 22.5044647,53.1876959 22.5044647,50.2988218 C22.5044647,47.4099477 17.5044647,38.529591 17.5044647,38.529591 C17.5044647,38.529591 12.5044647,47.4099477 12.5044647,50.2988218 C12.5044647,53.1876959 14.743041,55.529591 17.5044647,55.529591 Z" transform="scale(-1 1) rotate(75 0 24.217)"/>
    <path stroke="#22BA8E" stroke-linecap="square" stroke-width="2" d="M32,63 L32,16.9545689"/>
    <path stroke="#22BA8E" stroke-linecap="round" stroke-width="2" d="M44,48 C37.372583,48 32,53.372583 32,60"/>
    <path stroke="#22BA8E" stroke-linecap="round" stroke-width="2" d="M32,48 C25.372583,48 20,53.372583 20,60" transform="matrix(-1 0 0 1 52 0)"/>
    <path fill="#80D25B" d="M47.5044647,41.529591 C50.2658885,41.529591 52.5044647,39.1876959 52.5044647,36.2988218 C52.5044647,33.4099477 47.5044647,24.529591 47.5044647,24.529591 C47.5044647,24.529591 42.5044647,33.4099477 42.5044647,36.2988218 C42.5044647,39.1876959 44.743041,41.529591 47.5044647,41.529591 Z" transform="rotate(75 47.504 33.03)"/>
    <path fill="#80D25B" d="M17.5044647,41.529591 C20.2658885,41.529591 22.5044647,39.1876959 22.5044647,36.2988218 C22.5044647,33.4099477 17.5044647,24.529591 17.5044647,24.529591 C17.5044647,24.529591 12.5044647,33.4099477 12.5044647,36.2988218 C12.5044647,39.1876959 14.743041,41.529591 17.5044647,41.529591 Z" transform="scale(-1 1) rotate(75 0 10.217)"/>
    <path stroke="#22BA8E" stroke-linecap="round" stroke-width="2" d="M44,34 C37.372583,34 32,39.372583 32,46"/>
    <path stroke="#22BA8E" stroke-linecap="round" stroke-width="2" d="M32,34 C25.372583,34 20,39.372583 20,46" transform="matrix(-1 0 0 1 52 0)"/>
  </g>
</svg>
