<svg xmlns="http://www.w3.org/2000/svg" width="64" height="64" viewBox="0 0 64 64">
  <g fill="none" fill-rule="evenodd">
    <rect width="4" height="12" x="19" y="5" fill="#80D25B"/>
    <polygon fill="#80D25B" points="21 2 26 8 16 8"/>
    <rect width="4" height="12" x="31" y="5" fill="#80D25B"/>
    <polygon fill="#80D25B" points="33 2 38 8 28 8"/>
    <rect width="4" height="12" x="43" y="5" fill="#80D25B"/>
    <polygon fill="#80D25B" points="45 2 50 8 40 8"/>
    <path fill="#80D25B" d="M33,47 C37.418278,47 41,43.418278 41,39 C41,34.581722 33,21 33,21 C33,21 25,34.581722 25,39 C25,43.418278 28.581722,47 33,47 Z"/>
    <path fill="#80D25B" d="M48.5044647,57.529591 C51.2658885,57.529591 53.5044647,55.1876959 53.5044647,52.2988218 C53.5044647,49.4099477 48.5044647,40.529591 48.5044647,40.529591 C48.5044647,40.529591 43.5044647,49.4099477 43.5044647,52.2988218 C43.5044647,55.1876959 45.743041,57.529591 48.5044647,57.529591 Z" transform="rotate(75 48.504 49.03)"/>
    <path fill="#80D25B" d="M18.5044647,57.529591 C21.2658885,57.529591 23.5044647,55.1876959 23.5044647,52.2988218 C23.5044647,49.4099477 18.5044647,40.529591 18.5044647,40.529591 C18.5044647,40.529591 13.5044647,49.4099477 13.5044647,52.2988218 C13.5044647,55.1876959 15.743041,57.529591 18.5044647,57.529591 Z" transform="scale(-1 1) rotate(75 0 24.914)"/>
    <path stroke="#22BA8E" stroke-linecap="square" stroke-width="2" d="M33,62 L33,35.9545689"/>
    <path stroke="#22BA8E" stroke-linecap="round" stroke-width="2" d="M45,50 C38.372583,50 33,55.372583 33,62"/>
    <path stroke="#22BA8E" stroke-linecap="round" stroke-width="2" d="M33,50 C26.372583,50 21,55.372583 21,62" transform="matrix(-1 0 0 1 54 0)"/>
  </g>
</svg>
