<svg xmlns="http://www.w3.org/2000/svg" width="64" height="64" viewBox="0 0 64 64">
  <g fill="none" transform="scale(1 -1) rotate(-45 -35.684 -26.52)">
    <path fill="#B4DFFB" d="M20,4 C21.1045695,4 22,3.1045695 22,2 C22,0.8954305 21.1045695,0 20,0 L0,0 L0,20 C0,21.1045695 0.8954305,22 2,22 C3.1045695,22 4,21.1045695 4,20 L4,4 L20,4 Z"/>
    <path fill="#5EA7FF" d="M30,14 C31.1045695,14 32,13.1045695 32,12 C32,10.8954305 31.1045695,10 30,10 L10,10 L10,30 C10,31.1045695 10.8954305,32 12,32 C13.1045695,32 14,31.1045695 14,30 L14,14 L30,14 Z"/>
    <path fill="#5B68C0" d="M40,24 C41.1045695,24 42,23.1045695 42,22 C42,20.8954305 41.1045695,20 40,20 L20,20 L20,40 C20,41.1045695 20.8954305,42 22,42 C23.1045695,42 24,41.1045695 24,40 L24,24 L40,24 Z"/>
  </g>
</svg>
