<?xml version="1.0" encoding="UTF-8"?>
<svg width="64px" height="64px" viewBox="0 0 64 64" version="1.1" xmlns="http://www.w3.org/2000/svg" xmlns:xlink="http://www.w3.org/1999/xlink">
    <!-- Generator: Sketch 43.2 (39069) - http://www.bohemiancoding.com/sketch -->
    <title>leisure</title>
    <desc>Created with Sketch.</desc>
    <defs></defs>
    <g id="Outdoor-Activities-(142)" stroke="none" stroke-width="1" fill="none" fill-rule="evenodd">
        <polyline id="Line-Copy-97" stroke="#979797" stroke-width="2" stroke-linecap="square" points="17 23.4453261 33 7.44532608 49 23.4453261"></polyline>
        <path d="M2,26.9932874 C2,25.8924252 2.90035102,25 3.99263021,25 L62.0073698,25 C63.1078691,25 64,25.8997127 64,26.9932874 L64,52.0067126 C64,53.1075748 63.099649,54 62.0073698,54 L3.99263021,54 C2.89213093,54 2,53.1002873 2,52.0067126 L2,26.9932874 Z" id="Rectangle-160-Copy-5" fill="#BD7575"></path>
        <rect id="Rectangle-162-Copy-5" fill="#E43535" x="4" y="27" width="58" height="25"></rect>
        <rect id="Rectangle-161-Copy-11" fill="#AB5F5F" x="11" y="22" width="10" height="3"></rect>
        <rect id="Rectangle-161-Copy-10" fill="#AB5F5F" x="45" y="22" width="10" height="3"></rect>
        <circle id="Oval-80-Copy-5" fill="#D8D8D8" cx="33" cy="9" r="3"></circle>
        <path d="M18.712,44.07 C18.5253324,44.4246684 18.1800025,44.602 17.676,44.602 C17.209331,44.602 16.8826676,44.4433349 16.696,44.126 C16.6399997,44.0326662 16.612,43.9300006 16.612,43.818 C16.612,43.7246662 16.6446663,43.5706677 16.71,43.356 C16.7753337,43.1413323 16.808,42.9640007 16.808,42.824 L16.752,33.78 L16.752,33.024 C16.7800001,32.9026661 16.9106655,32.8023337 17.144,32.723 C17.3773345,32.6436663 17.6246654,32.604 17.886,32.604 C18.2686686,32.604 18.5113328,32.6739993 18.614,32.814 C18.7166672,32.9540007 18.768,33.0986659 18.768,33.248 C18.768,33.3506672 18.730667,33.5209988 18.656,33.759 C18.581333,33.9970012 18.544,34.1906659 18.544,34.34 L18.544,42.74 C18.544,42.8800007 18.5836663,43.0643322 18.663,43.293 C18.7423337,43.5216678 18.782,43.6873328 18.782,43.79 C18.782,43.8926672 18.7586669,43.9859996 18.712,44.07 Z M24.9,42.53 C24.825333,42.8846684 24.5733355,43.2626647 24.144,43.664 C24.0786663,43.7666672 23.8220022,43.9019992 23.374,44.07 C22.8606641,44.266001 22.4173352,44.3500001 22.044,44.322 C21.3439965,44.2753331 20.7933353,43.8740038 20.392,43.118 C20.0279982,42.4179965 19.846,41.5593384 19.846,40.542 C19.846,39.4406612 20.0513313,38.4746708 20.462,37.644 C20.9193356,36.7293288 21.5306628,36.2160006 22.296,36.104 C22.4453341,36.0853332 22.5899993,36.076 22.73,36.076 C23.8406722,36.076 24.4519994,36.7573265 24.564,38.12 C24.6200003,38.7453365 24.3726694,39.426663 23.822,40.164 C23.2246637,40.9760041 22.459338,41.5453317 21.526,41.872 C21.6286672,42.2453352 21.7079997,42.4879994 21.764,42.6 C21.8946673,42.8333345 22.0719989,42.95 22.296,42.95 C22.5106677,42.95 22.7393321,42.8660008 22.982,42.698 C23.1873344,42.5579993 23.327333,42.4226673 23.402,42.292 C23.4393335,42.2733332 23.4766665,42.1683343 23.514,41.977 C23.5513335,41.7856657 23.6493325,41.6480004 23.808,41.564 C23.8640003,41.5359999 23.929333,41.522 24.004,41.522 C24.2280011,41.522 24.4449989,41.6316656 24.655,41.851 C24.8650011,42.0703344 24.9466669,42.2966655 24.9,42.53 Z M22.702,37.602 C22.3286648,37.602 22.0253345,37.8679973 21.792,38.4 C21.4839985,39.1093369 21.3579997,39.8093299 21.414,40.5 C21.8526689,40.3599993 22.2586648,40.0333359 22.632,39.52 C23.0053352,39.0066641 23.192,38.5493353 23.192,38.148 C23.192,37.7839982 23.0286683,37.602 22.702,37.602 Z M28.106,33.5 C28.1340001,33.5280001 28.148,33.5746663 28.148,33.64 C28.148,33.7240004 28.1200003,33.8686656 28.064,34.074 C27.9986663,34.3260013 27.9566668,34.4986662 27.938,34.592 C27.9193332,34.6853338 27.9286665,34.8906651 27.966,35.208 C27.966,35.404001 27.9076673,35.532333 27.791,35.593 C27.6743328,35.653667 27.5273342,35.684 27.35,35.684 C27.0979987,35.684 26.8413346,35.6326672 26.58,35.53 C26.2626651,35.3993327 26.104,35.2266677 26.104,35.012 C26.104,34.9466663 26.1319997,34.8556673 26.188,34.739 C26.2440003,34.6223328 26.2766666,34.526667 26.286,34.452 C26.3046668,34.377333 26.3046668,34.1906682 26.286,33.892 C26.2673332,33.6586655 26.3139994,33.5000004 26.426,33.416 C26.5753341,33.3039994 26.8413314,33.248 27.224,33.248 C27.6440021,33.248 27.9379992,33.3319992 28.106,33.5 Z M28.288,36.916 C28.288,37.0466673 28.2156674,37.2496653 28.071,37.525 C27.9263326,37.8003347 27.854,38.0266658 27.854,38.204 L27.854,42.32 C27.854,42.5066676 27.9053328,42.7703316 28.008,43.111 C28.1106672,43.4516684 28.162,43.6873327 28.162,43.818 C28.162,44.0046676 28.0873341,44.1446662 27.938,44.238 C27.7046655,44.3873341 27.452668,44.462 27.182,44.462 C26.8273316,44.462 26.5753341,44.3406679 26.426,44.098 C26.229999,43.7993318 26.132,42.9080074 26.132,41.424 C26.132,41.0693316 26.1389999,40.5163371 26.153,39.765 C26.1670001,39.0136629 26.174,38.4653351 26.174,38.12 C26.174,37.9893327 26.1600001,37.8190011 26.132,37.609 C26.1039999,37.398999 26.09,37.2473338 26.09,37.154 C26.09,36.8459985 26.2019989,36.5800011 26.426,36.356 C26.5193338,36.2626662 26.6919987,36.216 26.944,36.216 C27.1960013,36.216 27.4479987,36.2556663 27.7,36.335 C27.9520013,36.4143337 28.1129996,36.5053328 28.183,36.608 C28.2530004,36.7106672 28.288,36.8133328 28.288,36.916 Z M33.902,42.124 C33.902,42.7773366 33.668669,43.3349977 33.202,43.797 C32.735331,44.2590023 32.1846698,44.49 31.55,44.49 C31.1486647,44.49 30.7333355,44.2986686 30.304,43.916 C29.9679983,43.6079985 29.664668,43.2300022 29.394,42.782 C29.1606655,42.389998 29.0579999,42.1426672 29.086,42.04 C29.1886672,41.8066655 29.510664,41.69 30.052,41.69 C30.2760011,41.69 30.4533327,41.7226663 30.584,41.788 C30.8080011,41.9093339 30.9339999,42.0633324 30.962,42.25 C30.9900001,42.4646677 31.0366663,42.5999997 31.102,42.656 C31.298001,42.9546682 31.4753325,43.104 31.634,43.104 C31.7553339,43.104 31.8696661,43.0223341 31.977,42.859 C32.0843339,42.6956658 32.138,42.5020011 32.138,42.278 C32.138,42.1379993 32.1146669,41.9980007 32.068,41.858 C32.0213331,41.7179993 31.7693356,41.5033348 31.312,41.214 C30.7613306,40.8686649 30.3693345,40.5653346 30.136,40.304 C29.7346647,39.8559978 29.534,39.3333363 29.534,38.736 C29.534,38.0359965 29.7393313,37.422336 30.15,36.895 C30.5606687,36.367664 31.0833302,36.104 31.718,36.104 C32.3713366,36.104 32.8706649,36.3513309 33.216,36.846 C33.4960014,37.2473353 33.6126669,37.6533313 33.566,38.064 C33.6686672,38.1760006 33.72,38.3626654 33.72,38.624 C33.72,38.9040014 33.6173344,39.141999 33.412,39.338 C33.2066656,39.534001 32.9966677,39.632 32.782,39.632 C32.4646651,39.632 32.1893345,39.4220021 31.956,39.002 C31.8906663,38.8899994 31.858,38.7406676 31.858,38.554 C31.858,38.4699996 31.8649999,38.3510008 31.879,38.197 C31.8930001,38.0429992 31.9,37.9333337 31.9,37.868 C31.9,37.6253321 31.8113342,37.504 31.634,37.504 C31.363332,37.504 31.228,37.7699973 31.228,38.302 C31.228,38.843336 31.4053316,39.2773317 31.76,39.604 C31.9000007,39.7346673 32.203331,39.9213321 32.67,40.164 C33.0713353,40.3693344 33.3559992,40.5793323 33.524,40.794 C33.7760013,41.1206683 33.902,41.5639972 33.902,42.124 Z M40.188,37.168 C40.2066668,37.3080007 40.178667,37.4573325 40.104,37.616 C40.0106662,37.8306677 39.9546668,37.9893328 39.936,38.092 C39.936,40.033343 39.8566675,41.3819962 39.698,42.138 C39.3526649,43.7246746 38.6200056,44.518 37.5,44.518 C35.8666585,44.518 35.05,43.0293482 35.05,40.052 C35.05,39.2493293 35.1106661,38.4000045 35.232,37.504 C35.1666663,37.2893323 35.134,37.0980008 35.134,36.93 C35.134,36.659332 35.2226658,36.4306676 35.4,36.244 C35.5493341,36.0853325 35.7686652,36.006 36.058,36.006 C36.2913345,36.006 36.5106656,36.0549995 36.716,36.153 C36.9213344,36.2510005 37.0426665,36.3653327 37.08,36.496 C37.0986668,36.5613337 37.108,36.6266663 37.108,36.692 C37.108,36.8133339 37.0566672,37.0069987 36.954,37.273 C36.8513328,37.5390013 36.8093332,37.7559992 36.828,37.924 C36.7346662,38.4466693 36.688,39.1046627 36.688,39.898 C36.688,40.7006707 36.7393328,41.3679973 36.842,41.9 C36.9726673,42.5160031 37.1546655,42.824 37.388,42.824 C37.780002,42.824 38.0366661,42.16134 38.158,40.836 C38.2233337,40.17333 38.256,39.1186739 38.256,37.672 C38.256,37.5786662 38.2420001,37.4433342 38.214,37.266 C38.1859999,37.0886658 38.172,36.9580004 38.172,36.874 C38.172,36.6499989 38.2559992,36.4960004 38.424,36.412 C38.5173338,36.3653331 38.6479992,36.342 38.816,36.342 C39.1240015,36.342 39.4086654,36.4073327 39.67,36.538 C39.9780015,36.6966675 40.1506665,36.9066654 40.188,37.168 Z M46.796,36.86 C46.7586665,37.056001 46.5813349,37.191333 46.264,37.266 C45.8906648,37.3593338 45.6526672,37.4666661 45.55,37.588 L43.268,40.22 L43.268,42.348 C43.268,42.5533344 43.3263327,42.760999 43.443,42.971 C43.5596673,43.1810011 43.618,43.3419994 43.618,43.454 C43.618,43.5660006 43.5853337,43.6919993 43.52,43.832 C43.3613325,44.1866684 43.0393358,44.364 42.554,44.364 C42.2179983,44.364 41.952001,44.2566677 41.756,44.042 C41.6253327,43.9019993 41.56,43.7246677 41.56,43.51 C41.56,43.435333 41.5693332,43.3140008 41.588,43.146 C41.6066668,42.9779992 41.616,42.8426672 41.616,42.74 L41.616,37.504 C41.616,37.4199996 41.578667,37.3173339 41.504,37.196 C41.429333,37.0746661 41.392,36.976667 41.392,36.902 C41.392,36.8459997 41.4106665,36.780667 41.448,36.706 C41.5693339,36.4819989 41.9473302,36.37 42.582,36.37 C43.0766691,36.37 43.3566663,36.4866655 43.422,36.72 C43.4500001,36.8133338 43.464,36.8926663 43.464,36.958 C43.464,37.0606672 43.426667,37.1399997 43.352,37.196 C43.277333,37.2520003 43.24,37.3079997 43.24,37.364 L43.268,37.868 L44.472,36.594 C44.6120007,36.4353325 44.7589992,36.2766675 44.913,36.118 C45.0670008,35.9593325 45.2466656,35.8706668 45.452,35.852 C45.7693349,35.8239999 46.0749985,35.8939992 46.369,36.062 C46.6630015,36.2300008 46.81,36.449332 46.81,36.72 C46.81,36.7666669 46.8053334,36.8133331 46.796,36.86 Z M51.864,42.53 C51.789333,42.8846684 51.5373355,43.2626647 51.108,43.664 C51.0426663,43.7666672 50.7860022,43.9019992 50.338,44.07 C49.8246641,44.266001 49.3813352,44.3500001 49.008,44.322 C48.3079965,44.2753331 47.7573353,43.8740038 47.356,43.118 C46.9919982,42.4179965 46.81,41.5593384 46.81,40.542 C46.81,39.4406612 47.0153313,38.4746708 47.426,37.644 C47.8833356,36.7293288 48.4946628,36.2160006 49.26,36.104 C49.4093341,36.0853332 49.5539993,36.076 49.694,36.076 C50.8046722,36.076 51.4159994,36.7573265 51.528,38.12 C51.5840003,38.7453365 51.3366694,39.426663 50.786,40.164 C50.1886637,40.9760041 49.423338,41.5453317 48.49,41.872 C48.5926672,42.2453352 48.6719997,42.4879994 48.728,42.6 C48.8586673,42.8333345 49.0359989,42.95 49.26,42.95 C49.4746677,42.95 49.7033321,42.8660008 49.946,42.698 C50.1513344,42.5579993 50.291333,42.4226673 50.366,42.292 C50.4033335,42.2733332 50.4406665,42.1683343 50.478,41.977 C50.5153335,41.7856657 50.6133325,41.6480004 50.772,41.564 C50.8280003,41.5359999 50.893333,41.522 50.968,41.522 C51.1920011,41.522 51.408999,41.6316656 51.619,41.851 C51.829001,42.0703344 51.9106669,42.2966655 51.864,42.53 Z M49.666,37.602 C49.2926648,37.602 48.9893345,37.8679973 48.756,38.4 C48.4479985,39.1093369 48.3219997,39.8093299 48.378,40.5 C48.8166689,40.3599993 49.2226648,40.0333359 49.596,39.52 C49.9693352,39.0066641 50.156,38.5493353 50.156,38.148 C50.156,37.7839982 49.9926683,37.602 49.666,37.602 Z" id="leisure" fill="#FFFFFF"></path>
    </g>
</svg>