<svg xmlns="http://www.w3.org/2000/svg" width="64" height="64" viewBox="0 0 64 64">
  <g fill="none" fill-rule="evenodd">
    <path fill="#D8D8D8" d="M17.7272727,53 L54.0002326,53 C56.2013211,53 58,51.2114659 58,49.0051972 L58,19.9948028 C58,17.7845869 56.2092431,16 54.0002326,16 L6.99976742,16 C4.79867889,16 3,17.7885341 3,19.9948028 L3,49.0051972 C3,51.2154131 4.79075687,53 6.99976742,53 L12,53 L12,60 L17.7272727,53 Z"/>
    <path fill="#595959" d="M22.611,32.07 C22.4243324,32.4246684 22.0790025,32.602 21.575,32.602 C21.108331,32.602 20.7816676,32.4433349 20.595,32.126 C20.5389997,32.0326662 20.511,31.9300006 20.511,31.818 C20.511,31.7246662 20.5436663,31.5706677 20.609,31.356 C20.6743337,31.1413323 20.707,30.9640007 20.707,30.824 L20.651,21.78 L20.651,21.024 C20.6790001,20.9026661 20.8096655,20.8023337 21.043,20.723 C21.2763345,20.6436663 21.5236654,20.604 21.785,20.604 C22.1676686,20.604 22.4103328,20.6739993 22.513,20.814 C22.6156672,20.9540007 22.667,21.0986659 22.667,21.248 C22.667,21.3506672 22.629667,21.5209988 22.555,21.759 C22.480333,21.9970012 22.443,22.1906659 22.443,22.34 L22.443,30.74 C22.443,30.8800007 22.4826663,31.0643322 22.562,31.293 C22.6413337,31.5216678 22.681,31.6873328 22.681,31.79 C22.681,31.8926672 22.6576669,31.9859996 22.611,32.07 Z M28.799,30.53 C28.724333,30.8846684 28.4723355,31.2626647 28.043,31.664 C27.9776663,31.7666672 27.7210022,31.9019992 27.273,32.07 C26.7596641,32.266001 26.3163352,32.3500001 25.943,32.322 C25.2429965,32.2753331 24.6923353,31.8740038 24.291,31.118 C23.9269982,30.4179965 23.745,29.5593384 23.745,28.542 C23.745,27.4406612 23.9503313,26.4746708 24.361,25.644 C24.8183356,24.7293288 25.4296628,24.2160006 26.195,24.104 C26.3443341,24.0853332 26.4889993,24.076 26.629,24.076 C27.7396722,24.076 28.3509994,24.7573265 28.463,26.12 C28.5190003,26.7453365 28.2716694,27.426663 27.721,28.164 C27.1236637,28.9760041 26.358338,29.5453317 25.425,29.872 C25.5276672,30.2453352 25.6069997,30.4879994 25.663,30.6 C25.7936673,30.8333345 25.9709989,30.95 26.195,30.95 C26.4096677,30.95 26.6383321,30.8660008 26.881,30.698 C27.0863344,30.5579993 27.226333,30.4226673 27.301,30.292 C27.3383335,30.2733332 27.3756665,30.1683343 27.413,29.977 C27.4503335,29.7856657 27.5483325,29.6480004 27.707,29.564 C27.7630003,29.5359999 27.828333,29.522 27.903,29.522 C28.1270011,29.522 28.343999,29.6316656 28.554,29.851 C28.764001,30.0703344 28.8456669,30.2966655 28.799,30.53 Z M26.601,25.602 C26.2276648,25.602 25.9243345,25.8679973 25.691,26.4 C25.3829985,27.1093369 25.2569997,27.8093299 25.313,28.5 C25.7516689,28.3599993 26.1576648,28.0333359 26.531,27.52 C26.9043352,27.0066641 27.091,26.5493353 27.091,26.148 C27.091,25.7839982 26.9276683,25.602 26.601,25.602 Z M34.679,30.124 C34.679,30.7773366 34.445669,31.3349977 33.979,31.797 C33.512331,32.2590023 32.9616698,32.49 32.327,32.49 C31.9256647,32.49 31.5103355,32.2986686 31.081,31.916 C30.7449983,31.6079985 30.441668,31.2300022 30.171,30.782 C29.9376655,30.389998 29.8349999,30.1426672 29.863,30.04 C29.9656672,29.8066655 30.287664,29.69 30.829,29.69 C31.0530011,29.69 31.2303327,29.7226663 31.361,29.788 C31.5850011,29.9093339 31.7109999,30.0633324 31.739,30.25 C31.7670001,30.4646677 31.8136663,30.5999997 31.879,30.656 C32.075001,30.9546682 32.2523325,31.104 32.411,31.104 C32.5323339,31.104 32.6466661,31.0223342 32.754,30.859 C32.8613339,30.6956659 32.915,30.5020011 32.915,30.278 C32.915,30.1379993 32.8916669,29.9980007 32.845,29.858 C32.7983331,29.7179993 32.5463356,29.5033348 32.089,29.214 C31.5383306,28.8686649 31.1463345,28.5653346 30.913,28.304 C30.5116647,27.8559978 30.311,27.3333363 30.311,26.736 C30.311,26.0359965 30.5163313,25.422336 30.927,24.895 C31.3376687,24.367664 31.8603302,24.104 32.495,24.104 C33.1483366,24.104 33.6476649,24.3513309 33.993,24.846 C34.2730014,25.2473353 34.3896669,25.6533313 34.343,26.064 C34.4456672,26.1760006 34.497,26.3626654 34.497,26.624 C34.497,26.9040014 34.3943344,27.141999 34.189,27.338 C33.9836656,27.534001 33.7736677,27.632 33.559,27.632 C33.2416651,27.632 32.9663345,27.4220021 32.733,27.002 C32.6676663,26.8899994 32.635,26.7406676 32.635,26.554 C32.635,26.4699996 32.6419999,26.3510008 32.656,26.197 C32.6700001,26.0429992 32.677,25.9333337 32.677,25.868 C32.677,25.6253321 32.5883342,25.504 32.411,25.504 C32.140332,25.504 32.005,25.7699973 32.005,26.302 C32.005,26.843336 32.1823316,27.2773317 32.537,27.604 C32.6770007,27.7346673 32.980331,27.9213321 33.447,28.164 C33.8483353,28.3693344 34.1329992,28.5793323 34.301,28.794 C34.5530013,29.1206683 34.679,29.5639972 34.679,30.124 Z M40.601,30.124 C40.601,30.7773366 40.367669,31.3349977 39.901,31.797 C39.434331,32.2590023 38.8836698,32.49 38.249,32.49 C37.8476647,32.49 37.4323355,32.2986686 37.003,31.916 C36.6669983,31.6079985 36.363668,31.2300022 36.093,30.782 C35.8596655,30.389998 35.7569999,30.1426672 35.785,30.04 C35.8876672,29.8066655 36.209664,29.69 36.751,29.69 C36.9750011,29.69 37.1523327,29.7226663 37.283,29.788 C37.5070011,29.9093339 37.6329999,30.0633324 37.661,30.25 C37.6890001,30.4646677 37.7356663,30.5999997 37.801,30.656 C37.997001,30.9546682 38.1743325,31.104 38.333,31.104 C38.4543339,31.104 38.5686661,31.0223342 38.676,30.859 C38.7833339,30.6956659 38.837,30.5020011 38.837,30.278 C38.837,30.1379993 38.8136669,29.9980007 38.767,29.858 C38.7203331,29.7179993 38.4683356,29.5033348 38.011,29.214 C37.4603306,28.8686649 37.0683345,28.5653346 36.835,28.304 C36.4336647,27.8559978 36.233,27.3333363 36.233,26.736 C36.233,26.0359965 36.4383313,25.422336 36.849,24.895 C37.2596687,24.367664 37.7823302,24.104 38.417,24.104 C39.0703366,24.104 39.5696649,24.3513309 39.915,24.846 C40.1950014,25.2473353 40.3116669,25.6533313 40.265,26.064 C40.3676672,26.1760006 40.419,26.3626654 40.419,26.624 C40.419,26.9040014 40.3163344,27.141999 40.111,27.338 C39.9056656,27.534001 39.6956677,27.632 39.481,27.632 C39.1636651,27.632 38.8883345,27.4220021 38.655,27.002 C38.5896663,26.8899994 38.557,26.7406676 38.557,26.554 C38.557,26.4699996 38.5639999,26.3510008 38.578,26.197 C38.5920001,26.0429992 38.599,25.9333337 38.599,25.868 C38.599,25.6253321 38.5103342,25.504 38.333,25.504 C38.062332,25.504 37.927,25.7699973 37.927,26.302 C37.927,26.843336 38.1043316,27.2773317 38.459,27.604 C38.5990007,27.7346673 38.902331,27.9213321 39.369,28.164 C39.7703353,28.3693344 40.0549992,28.5793323 40.223,28.794 C40.4750013,29.1206683 40.601,29.5639972 40.601,30.124 Z M24.529,45.124 C24.529,45.7773366 24.295669,46.3349977 23.829,46.797 C23.362331,47.2590023 22.8116698,47.49 22.177,47.49 C21.7756647,47.49 21.3603355,47.2986686 20.931,46.916 C20.5949983,46.6079985 20.291668,46.2300022 20.021,45.782 C19.7876655,45.389998 19.6849999,45.1426672 19.713,45.04 C19.8156672,44.8066655 20.137664,44.69 20.679,44.69 C20.9030011,44.69 21.0803327,44.7226663 21.211,44.788 C21.4350011,44.9093339 21.5609999,45.0633324 21.589,45.25 C21.6170001,45.4646677 21.6636663,45.5999997 21.729,45.656 C21.925001,45.9546682 22.1023325,46.104 22.261,46.104 C22.3823339,46.104 22.4966661,46.0223342 22.604,45.859 C22.7113339,45.6956659 22.765,45.5020011 22.765,45.278 C22.765,45.1379993 22.7416669,44.9980007 22.695,44.858 C22.6483331,44.7179993 22.3963356,44.5033348 21.939,44.214 C21.3883306,43.8686649 20.9963345,43.5653346 20.763,43.304 C20.3616647,42.8559978 20.161,42.3333363 20.161,41.736 C20.161,41.0359965 20.3663313,40.422336 20.777,39.895 C21.1876687,39.367664 21.7103302,39.104 22.345,39.104 C22.9983366,39.104 23.4976649,39.3513309 23.843,39.846 C24.1230014,40.2473353 24.2396669,40.6533313 24.193,41.064 C24.2956672,41.1760006 24.347,41.3626654 24.347,41.624 C24.347,41.9040014 24.2443344,42.141999 24.039,42.338 C23.8336656,42.534001 23.6236677,42.632 23.409,42.632 C23.0916651,42.632 22.8163345,42.4220021 22.583,42.002 C22.5176663,41.8899994 22.485,41.7406676 22.485,41.554 C22.485,41.4699996 22.4919999,41.3510008 22.506,41.197 C22.5200001,41.0429992 22.527,40.9333337 22.527,40.868 C22.527,40.6253321 22.4383342,40.504 22.261,40.504 C21.990332,40.504 21.855,40.7699973 21.855,41.302 C21.855,41.843336 22.0323316,42.2773317 22.387,42.604 C22.5270007,42.7346673 22.830331,42.9213321 23.297,43.164 C23.6983353,43.3693344 23.9829992,43.5793323 24.151,43.794 C24.4030013,44.1206683 24.529,44.5639972 24.529,45.124 Z M31.837,46.412 C31.6969993,46.8693356 31.3516694,47.098 30.801,47.098 C30.6143324,47.098 30.4650006,47.0653337 30.353,47 C30.2036659,46.8973328 30.1010003,46.6920015 30.045,46.384 C29.9329994,45.8519973 29.8210006,45.4366682 29.709,45.138 C29.6809999,45.6513359 29.4010027,46.171664 28.869,46.699 C28.3369973,47.226336 27.800336,47.49 27.259,47.49 C26.5776633,47.49 26.1063346,47.0373379 25.845,46.132 C25.7516662,45.7959983 25.705,45.4786682 25.705,45.18 C25.705,44.3119957 26.1483289,43.5700031 27.035,42.954 C27.7630036,42.5246645 28.495663,42.1000021 29.233,41.68 C29.2703335,41.5213325 29.289,41.3673341 29.289,41.218 C29.289,40.9286652 29.2096675,40.7583336 29.051,40.707 C28.8923325,40.6556664 28.7570006,40.63 28.645,40.63 C28.448999,40.63 28.2880006,40.6929994 28.162,40.819 L27.805,41.176 C27.6929994,41.250667 27.5483342,41.423332 27.371,41.694 C27.2309993,41.9086677 27.0770008,42.0253332 26.909,42.044 C26.6663321,42.0720001 26.447001,41.988001 26.251,41.792 C26.054999,41.595999 25.957,41.3673346 25.957,41.106 C25.957,40.9566659 25.994333,40.8213339 26.069,40.7 C26.2836677,40.3453316 26.6056645,40.0373346 27.035,39.776 C27.6883366,39.383998 28.5049951,39.188 29.485,39.188 C30.1103365,39.188 30.5396655,39.4866637 30.773,40.084 C30.9223341,40.4853353 31.034333,41.2366612 31.109,42.338 C31.1930004,43.6726733 31.2956661,44.6479969 31.417,45.264 C31.4356668,45.3853339 31.5149993,45.5393324 31.655,45.726 C31.7950007,45.9126676 31.865,46.0759993 31.865,46.216 C31.865,46.2813337 31.8556668,46.3466663 31.837,46.412 Z M29.401,42.968 C29.1209986,43.1173341 28.8433347,43.2713325 28.568,43.43 C28.2926653,43.5886675 28.0383345,43.7986654 27.805,44.06 C27.4689983,44.4426686 27.301,44.769332 27.301,45.04 C27.301,45.2640011 27.3849992,45.4973321 27.553,45.74 C27.6463338,45.8706673 27.7489994,45.936 27.861,45.936 C28.1036679,45.936 28.3673319,45.665336 28.652,45.124 C28.9366681,44.582664 29.1863323,43.8640045 29.401,42.968 Z M35.127,47.07 C34.9403324,47.4246684 34.5950025,47.602 34.091,47.602 C33.624331,47.602 33.2976676,47.4433349 33.111,47.126 C33.0549997,47.0326662 33.027,46.9300006 33.027,46.818 C33.027,46.7246662 33.0596663,46.5706677 33.125,46.356 C33.1903337,46.1413323 33.223,45.9640007 33.223,45.824 L33.167,36.78 L33.167,36.024 C33.1950001,35.9026661 33.3256655,35.8023337 33.559,35.723 C33.7923345,35.6436663 34.0396654,35.604 34.301,35.604 C34.6836686,35.604 34.9263328,35.6739993 35.029,35.814 C35.1316672,35.9540007 35.183,36.0986659 35.183,36.248 C35.183,36.3506672 35.145667,36.5209988 35.071,36.759 C34.996333,36.9970012 34.959,37.1906659 34.959,37.34 L34.959,45.74 C34.959,45.8800007 34.9986663,46.0643322 35.078,46.293 C35.1573337,46.5216678 35.197,46.6873328 35.197,46.79 C35.197,46.8926672 35.1736669,46.9859996 35.127,47.07 Z M41.203,40.644 C41.128333,40.644 41.0116675,40.613667 40.853,40.553 C40.6943325,40.492333 40.5730004,40.462 40.489,40.462 C40.4236663,40.462 40.3583337,40.4759999 40.293,40.504 L39.775,40.77 L39.775,45.558 C39.775,45.7353342 39.8706657,45.9639986 40.062,46.244 C40.2533343,46.5240014 40.3303335,46.7479992 40.293,46.916 C40.2463331,47.1213344 40.1086678,47.2846661 39.88,47.406 C39.6513322,47.5273339 39.4063346,47.588 39.145,47.588 C38.6503309,47.588 38.3096676,47.3686689 38.123,46.93 C38.0669997,46.7993327 38.0343334,46.3840035 38.025,45.684 C38.0156666,45.217331 38.0203332,44.4893383 38.039,43.5 C38.0576668,42.3799944 38.067,41.6706682 38.067,41.372 C38.0109997,41.3906668 37.9176673,41.4536661 37.787,41.561 C37.6563327,41.6683339 37.5256673,41.722 37.395,41.722 C37.2923328,41.722 37.1616675,41.6940003 37.003,41.638 C36.3496634,41.4139989 36.023,41.1853345 36.023,40.952 C36.023,40.8959997 36.0369999,40.8353337 36.065,40.77 C36.1303337,40.6206659 36.2516658,40.5366668 36.429,40.518 C36.699668,40.4806665 36.8629997,40.4480001 36.919,40.42 C37.1336677,40.3359996 37.5256638,40.1353349 38.095,39.818 L38.095,38.6 C38.095,38.5066662 38.0693336,38.3830008 38.018,38.229 C37.9666664,38.0749992 37.941,37.960667 37.941,37.886 C37.941,37.8019996 37.9643331,37.722667 38.011,37.648 C38.2536679,37.2746648 38.5803313,37.088 38.991,37.088 C39.4670024,37.088 39.802999,37.2746648 39.999,37.648 C40.073667,37.7973341 40.111,37.9186662 40.111,38.012 C40.111,38.1240006 40.0550006,38.2406661 39.943,38.362 C39.8309994,38.4833339 39.775,38.5953328 39.775,38.698 L39.775,39.384 C39.9430008,39.309333 40.1296656,39.1833342 40.335,39.006 C40.4936675,38.8753327 40.6289994,38.81 40.741,38.81 C40.7876669,38.81 40.8389997,38.8193332 40.895,38.838 C41.4830029,38.9966675 41.777,39.3513306 41.777,39.902 C41.777,40.0793342 41.7233339,40.2473325 41.616,40.406 C41.5086661,40.5646675 41.3710008,40.644 41.203,40.644 Z"/>
    <path stroke="#5EA7FF" stroke-linecap="round" stroke-linejoin="round" stroke-width="2" d="M32,12 L32,4"/>
    <path stroke="#5EA7FF" stroke-linecap="round" stroke-width="2" d="M25.4142177,12.227824 L20,7"/>
    <path stroke="#5EA7FF" stroke-linecap="round" stroke-width="2" d="M43.4142177,12.227824 L38,7" transform="matrix(-1 0 0 1 81.414 0)"/>
  </g>
</svg>
