<svg xmlns="http://www.w3.org/2000/svg" width="64" height="64" viewBox="0 0 64 64">
  <g fill="none" fill-rule="evenodd">
    <path fill="#FF78C7" d="M18.7272727,53 L55.0002326,53 C57.2013211,53 59,51.2114659 59,49.0051972 L59,19.9948028 C59,17.7845869 57.2092431,16 55.0002326,16 L7.99976742,16 C5.79867889,16 4,17.7885341 4,19.9948028 L4,49.0051972 C4,51.2154131 5.79075687,53 7.99976742,53 L13,53 L13,60 L18.7272727,53 Z"/>
    <path fill="#FFF" d="M23.611,31.07 C23.4243324,31.4246684 23.0790025,31.602 22.575,31.602 C22.108331,31.602 21.7816676,31.4433349 21.595,31.126 C21.5389997,31.0326662 21.511,30.9300006 21.511,30.818 C21.511,30.7246662 21.5436663,30.5706677 21.609,30.356 C21.6743337,30.1413323 21.707,29.9640007 21.707,29.824 L21.651,20.78 L21.651,20.024 C21.6790001,19.9026661 21.8096655,19.8023337 22.043,19.723 C22.2763345,19.6436663 22.5236654,19.604 22.785,19.604 C23.1676686,19.604 23.4103328,19.6739993 23.513,19.814 C23.6156672,19.9540007 23.667,20.0986659 23.667,20.248 C23.667,20.3506672 23.629667,20.5209988 23.555,20.759 C23.480333,20.9970012 23.443,21.1906659 23.443,21.34 L23.443,29.74 C23.443,29.8800007 23.4826663,30.0643322 23.562,30.293 C23.6413337,30.5216678 23.681,30.6873328 23.681,30.79 C23.681,30.8926672 23.6576669,30.9859996 23.611,31.07 Z M29.799,29.53 C29.724333,29.8846684 29.4723355,30.2626647 29.043,30.664 C28.9776663,30.7666672 28.7210022,30.9019992 28.273,31.07 C27.7596641,31.266001 27.3163352,31.3500001 26.943,31.322 C26.2429965,31.2753331 25.6923353,30.8740038 25.291,30.118 C24.9269982,29.4179965 24.745,28.5593384 24.745,27.542 C24.745,26.4406612 24.9503313,25.4746708 25.361,24.644 C25.8183356,23.7293288 26.4296628,23.2160006 27.195,23.104 C27.3443341,23.0853332 27.4889993,23.076 27.629,23.076 C28.7396722,23.076 29.3509994,23.7573265 29.463,25.12 C29.5190003,25.7453365 29.2716694,26.426663 28.721,27.164 C28.1236637,27.9760041 27.358338,28.5453317 26.425,28.872 C26.5276672,29.2453352 26.6069997,29.4879994 26.663,29.6 C26.7936673,29.8333345 26.9709989,29.95 27.195,29.95 C27.4096677,29.95 27.6383321,29.8660008 27.881,29.698 C28.0863344,29.5579993 28.226333,29.4226673 28.301,29.292 C28.3383335,29.2733332 28.3756665,29.1683343 28.413,28.977 C28.4503335,28.7856657 28.5483325,28.6480004 28.707,28.564 C28.7630003,28.5359999 28.828333,28.522 28.903,28.522 C29.1270011,28.522 29.3439989,28.6316656 29.554,28.851 C29.764001,29.0703344 29.8456669,29.2966655 29.799,29.53 Z M27.601,24.602 C27.2276648,24.602 26.9243345,24.8679973 26.691,25.4 C26.3829985,26.1093369 26.2569997,26.8093299 26.313,27.5 C26.7516689,27.3599993 27.1576648,27.0333359 27.531,26.52 C27.9043352,26.0066641 28.091,25.5493353 28.091,25.148 C28.091,24.7839982 27.9276683,24.602 27.601,24.602 Z M35.679,29.124 C35.679,29.7773366 35.445669,30.3349977 34.979,30.797 C34.512331,31.2590023 33.9616698,31.49 33.327,31.49 C32.9256647,31.49 32.5103355,31.2986686 32.081,30.916 C31.7449983,30.6079985 31.441668,30.2300022 31.171,29.782 C30.9376655,29.389998 30.8349999,29.1426672 30.863,29.04 C30.9656672,28.8066655 31.287664,28.69 31.829,28.69 C32.0530011,28.69 32.2303327,28.7226663 32.361,28.788 C32.5850011,28.9093339 32.7109999,29.0633324 32.739,29.25 C32.7670001,29.4646677 32.8136663,29.5999997 32.879,29.656 C33.075001,29.9546682 33.2523325,30.104 33.411,30.104 C33.5323339,30.104 33.6466661,30.0223342 33.754,29.859 C33.8613339,29.6956659 33.915,29.5020011 33.915,29.278 C33.915,29.1379993 33.8916669,28.9980007 33.845,28.858 C33.7983331,28.7179993 33.5463356,28.5033348 33.089,28.214 C32.5383306,27.8686649 32.1463345,27.5653346 31.913,27.304 C31.5116647,26.8559978 31.311,26.3333363 31.311,25.736 C31.311,25.0359965 31.5163313,24.422336 31.927,23.895 C32.3376687,23.367664 32.8603302,23.104 33.495,23.104 C34.1483366,23.104 34.6476649,23.3513309 34.993,23.846 C35.2730014,24.2473353 35.3896669,24.6533313 35.343,25.064 C35.4456672,25.1760006 35.497,25.3626654 35.497,25.624 C35.497,25.9040014 35.3943344,26.141999 35.189,26.338 C34.9836656,26.534001 34.7736677,26.632 34.559,26.632 C34.2416651,26.632 33.9663345,26.4220021 33.733,26.002 C33.6676663,25.8899994 33.635,25.7406676 33.635,25.554 C33.635,25.4699996 33.6419999,25.3510008 33.656,25.197 C33.6700001,25.0429992 33.677,24.9333337 33.677,24.868 C33.677,24.6253321 33.5883342,24.504 33.411,24.504 C33.140332,24.504 33.005,24.7699973 33.005,25.302 C33.005,25.843336 33.1823316,26.2773317 33.537,26.604 C33.6770007,26.7346673 33.980331,26.9213321 34.447,27.164 C34.8483353,27.3693344 35.1329992,27.5793323 35.301,27.794 C35.5530013,28.1206683 35.679,28.5639972 35.679,29.124 Z M41.601,29.124 C41.601,29.7773366 41.367669,30.3349977 40.901,30.797 C40.434331,31.2590023 39.8836698,31.49 39.249,31.49 C38.8476647,31.49 38.4323355,31.2986686 38.003,30.916 C37.6669983,30.6079985 37.363668,30.2300022 37.093,29.782 C36.8596655,29.389998 36.7569999,29.1426672 36.785,29.04 C36.8876672,28.8066655 37.209664,28.69 37.751,28.69 C37.9750011,28.69 38.1523327,28.7226663 38.283,28.788 C38.5070011,28.9093339 38.6329999,29.0633324 38.661,29.25 C38.6890001,29.4646677 38.7356663,29.5999997 38.801,29.656 C38.997001,29.9546682 39.1743325,30.104 39.333,30.104 C39.4543339,30.104 39.5686661,30.0223342 39.676,29.859 C39.7833339,29.6956659 39.837,29.5020011 39.837,29.278 C39.837,29.1379993 39.8136669,28.9980007 39.767,28.858 C39.7203331,28.7179993 39.4683356,28.5033348 39.011,28.214 C38.4603306,27.8686649 38.0683345,27.5653346 37.835,27.304 C37.4336647,26.8559978 37.233,26.3333363 37.233,25.736 C37.233,25.0359965 37.4383313,24.422336 37.849,23.895 C38.2596687,23.367664 38.7823302,23.104 39.417,23.104 C40.0703366,23.104 40.5696649,23.3513309 40.915,23.846 C41.1950014,24.2473353 41.3116669,24.6533313 41.265,25.064 C41.3676672,25.1760006 41.419,25.3626654 41.419,25.624 C41.419,25.9040014 41.3163344,26.141999 41.111,26.338 C40.9056656,26.534001 40.6956677,26.632 40.481,26.632 C40.1636651,26.632 39.8883345,26.4220021 39.655,26.002 C39.5896663,25.8899994 39.557,25.7406676 39.557,25.554 C39.557,25.4699996 39.5639999,25.3510008 39.578,25.197 C39.5920001,25.0429992 39.599,24.9333337 39.599,24.868 C39.599,24.6253321 39.5103342,24.504 39.333,24.504 C39.062332,24.504 38.927,24.7699973 38.927,25.302 C38.927,25.843336 39.1043316,26.2773317 39.459,26.604 C39.5990007,26.7346673 39.902331,26.9213321 40.369,27.164 C40.7703353,27.3693344 41.0549992,27.5793323 41.223,27.794 C41.4750013,28.1206683 41.601,28.5639972 41.601,29.124 Z M21.042,44.124 C21.042,44.7773366 20.808669,45.3349977 20.342,45.797 C19.875331,46.2590023 19.3246698,46.49 18.69,46.49 C18.2886647,46.49 17.8733355,46.2986686 17.444,45.916 C17.1079983,45.6079985 16.804668,45.2300022 16.534,44.782 C16.3006655,44.389998 16.1979999,44.1426672 16.226,44.04 C16.3286672,43.8066655 16.650664,43.69 17.192,43.69 C17.4160011,43.69 17.5933327,43.7226663 17.724,43.788 C17.9480011,43.9093339 18.0739999,44.0633324 18.102,44.25 C18.1300001,44.4646677 18.1766663,44.5999997 18.242,44.656 C18.438001,44.9546682 18.6153325,45.104 18.774,45.104 C18.8953339,45.104 19.0096661,45.0223342 19.117,44.859 C19.2243339,44.6956659 19.278,44.5020011 19.278,44.278 C19.278,44.1379993 19.2546669,43.9980007 19.208,43.858 C19.1613331,43.7179993 18.9093356,43.5033348 18.452,43.214 C17.9013306,42.8686649 17.5093345,42.5653346 17.276,42.304 C16.8746647,41.8559978 16.674,41.3333363 16.674,40.736 C16.674,40.0359965 16.8793313,39.422336 17.29,38.895 C17.7006687,38.367664 18.2233302,38.104 18.858,38.104 C19.5113366,38.104 20.0106649,38.3513309 20.356,38.846 C20.6360014,39.2473353 20.7526669,39.6533313 20.706,40.064 C20.8086672,40.1760006 20.86,40.3626654 20.86,40.624 C20.86,40.9040014 20.7573344,41.141999 20.552,41.338 C20.3466656,41.534001 20.1366677,41.632 19.922,41.632 C19.6046651,41.632 19.3293345,41.4220021 19.096,41.002 C19.0306663,40.8899994 18.998,40.7406676 18.998,40.554 C18.998,40.4699996 19.0049999,40.3510008 19.019,40.197 C19.0330001,40.0429992 19.04,39.9333337 19.04,39.868 C19.04,39.6253321 18.9513342,39.504 18.774,39.504 C18.503332,39.504 18.368,39.7699973 18.368,40.302 C18.368,40.843336 18.5453316,41.2773317 18.9,41.604 C19.0400007,41.7346673 19.343331,41.9213321 19.81,42.164 C20.2113353,42.3693344 20.4959992,42.5793323 20.664,42.794 C20.9160013,43.1206683 21.042,43.5639972 21.042,44.124 Z M27.328,39.168 C27.3466668,39.3080007 27.318667,39.4573325 27.244,39.616 C27.1506662,39.8306677 27.0946668,39.9893328 27.076,40.092 C27.076,42.033343 26.9966675,43.3819962 26.838,44.138 C26.4926649,45.7246746 25.7600056,46.518 24.64,46.518 C23.0066585,46.518 22.19,45.0293482 22.19,42.052 C22.19,41.2493293 22.2506661,40.4000045 22.372,39.504 C22.3066663,39.2893323 22.274,39.0980008 22.274,38.93 C22.274,38.659332 22.3626658,38.4306676 22.54,38.244 C22.6893341,38.0853325 22.9086652,38.006 23.198,38.006 C23.4313345,38.006 23.6506656,38.0549995 23.856,38.153 C24.0613344,38.2510005 24.1826665,38.3653327 24.22,38.496 C24.2386668,38.5613337 24.248,38.6266663 24.248,38.692 C24.248,38.8133339 24.1966672,39.0069987 24.094,39.273 C23.9913328,39.5390013 23.9493332,39.7559992 23.968,39.924 C23.8746662,40.4466693 23.828,41.1046627 23.828,41.898 C23.828,42.7006707 23.8793328,43.3679973 23.982,43.9 C24.1126673,44.5160031 24.2946655,44.824 24.528,44.824 C24.920002,44.824 25.1766661,44.16134 25.298,42.836 C25.3633337,42.17333 25.396,41.1186739 25.396,39.672 C25.396,39.5786662 25.3820001,39.4433342 25.354,39.266 C25.3259999,39.0886658 25.312,38.9580004 25.312,38.874 C25.312,38.6499989 25.3959992,38.4960004 25.564,38.412 C25.6573338,38.3653331 25.7879992,38.342 25.956,38.342 C26.2640015,38.342 26.5486654,38.4073327 26.81,38.538 C27.1180015,38.6966675 27.2906665,38.9066654 27.328,39.168 Z M33.264,38.566 C33.2826668,39.3686707 33.3246663,40.6893241 33.39,42.528 C33.4273335,43.8253398 33.446,44.7539972 33.446,45.314 C33.446,46.5460062 33.348001,47.3859978 33.152,47.834 C32.955999,48.2820022 32.5593363,48.5293331 31.962,48.576 C31.2153296,48.6413337 30.5573362,48.4453356 29.988,47.988 C29.7079986,47.9039996 29.530667,47.8386669 29.456,47.792 C29.2973325,47.6986662 29.1946669,47.5400011 29.148,47.316 C29.0639996,46.8773311 29.4093295,46.658 30.184,46.658 C30.380001,46.658 30.5666658,46.6813331 30.744,46.728 C30.8746673,46.7560001 31.0193325,46.8656657 31.178,47.057 C31.3366675,47.2483343 31.4859993,47.3486666 31.626,47.358 C31.896668,47.3766668 32.032,46.9940039 32.032,46.21 C32.032,45.8739983 32.0086669,45.3280038 31.962,44.572 C31.6259983,45.1413362 31.3833341,45.5099992 31.234,45.678 C30.9259985,45.9953349 30.5666687,46.154 30.156,46.154 C29.5773304,46.154 29.1106684,45.7526707 28.756,44.95 C28.4293317,44.212663 28.266,43.3166719 28.266,42.262 C28.266,41.1793279 28.4386649,40.2646704 28.784,39.518 C29.176002,38.6779958 29.7173299,38.2486668 30.408,38.23 C30.7813352,38.2206666 31.0566658,38.2953325 31.234,38.454 C31.4113342,38.6126675 31.5839992,38.7759992 31.752,38.944 C31.6306661,38.6079983 31.6586658,38.3560008 31.836,38.188 C31.9386672,38.0853328 32.0926656,38.034 32.298,38.034 C32.494001,38.034 32.689999,38.0853328 32.886,38.188 C33.082001,38.2906672 33.2079997,38.4166659 33.264,38.566 Z M31.584,42.136 C31.6213335,41.594664 31.5560008,41.0813358 31.388,40.596 C31.2013324,40.054664 30.9586682,39.784 30.66,39.784 C30.4173321,39.784 30.2026676,40.054664 30.016,40.596 C29.8479992,41.0813358 29.7546668,41.594664 29.736,42.136 C29.7173332,42.7053362 29.7593328,43.2186644 29.862,43.676 C29.9926673,44.217336 30.1746655,44.488 30.408,44.488 C30.6133344,44.488 30.851332,44.224336 31.122,43.697 C31.392668,43.169664 31.5466665,42.6493359 31.584,42.136 Z M40.824,45.412 C40.6839993,45.8693356 40.3386694,46.098 39.788,46.098 C39.6013324,46.098 39.4520006,46.0653337 39.34,46 C39.1906659,45.8973328 39.0880003,45.6920015 39.032,45.384 C38.9199994,44.8519973 38.8080006,44.4366682 38.696,44.138 C38.6679999,44.6513359 38.3880027,45.171664 37.856,45.699 C37.3239973,46.226336 36.787336,46.49 36.246,46.49 C35.5646633,46.49 35.0933346,46.0373379 34.832,45.132 C34.7386662,44.7959983 34.692,44.4786682 34.692,44.18 C34.692,43.3119957 35.1353289,42.5700031 36.022,41.954 C36.7500036,41.5246645 37.482663,41.1000021 38.22,40.68 C38.2573335,40.5213325 38.276,40.3673341 38.276,40.218 C38.276,39.9286652 38.1966675,39.7583336 38.038,39.707 C37.8793325,39.6556664 37.7440006,39.63 37.632,39.63 C37.435999,39.63 37.2750006,39.6929994 37.149,39.819 L36.792,40.176 C36.6799994,40.250667 36.5353342,40.423332 36.358,40.694 C36.2179993,40.9086677 36.0640008,41.0253332 35.896,41.044 C35.6533321,41.0720001 35.434001,40.988001 35.238,40.792 C35.041999,40.595999 34.944,40.3673346 34.944,40.106 C34.944,39.9566659 34.981333,39.8213339 35.056,39.7 C35.2706677,39.3453316 35.5926645,39.0373346 36.022,38.776 C36.6753366,38.383998 37.4919951,38.188 38.472,38.188 C39.0973365,38.188 39.5266655,38.4866637 39.76,39.084 C39.9093341,39.4853353 40.021333,40.2366612 40.096,41.338 C40.1800004,42.6726733 40.2826661,43.6479969 40.404,44.264 C40.4226668,44.3853339 40.5019993,44.5393324 40.642,44.726 C40.7820007,44.9126676 40.852,45.0759993 40.852,45.216 C40.852,45.2813337 40.8426668,45.3466663 40.824,45.412 Z M38.388,41.968 C38.1079986,42.1173341 37.8303347,42.2713325 37.555,42.43 C37.2796653,42.5886675 37.0253345,42.7986654 36.792,43.06 C36.4559983,43.4426686 36.288,43.769332 36.288,44.04 C36.288,44.2640011 36.3719992,44.4973321 36.54,44.74 C36.6333338,44.8706673 36.7359994,44.936 36.848,44.936 C37.0906679,44.936 37.3543319,44.665336 37.639,44.124 C37.9236681,43.582664 38.1733323,42.8640045 38.388,41.968 Z M47.306,38.86 C47.2686665,39.056001 47.0913349,39.191333 46.774,39.266 C46.4006648,39.3593338 46.1626672,39.4666661 46.06,39.588 L43.778,42.22 L43.778,44.348 C43.778,44.5533344 43.8363327,44.7609989 43.953,44.971 C44.0696672,45.181001 44.128,45.3419994 44.128,45.454 C44.128,45.5660006 44.0953337,45.6919993 44.03,45.832 C43.8713325,46.1866684 43.5493358,46.364 43.064,46.364 C42.7279983,46.364 42.462001,46.2566677 42.266,46.042 C42.1353327,45.9019993 42.07,45.7246677 42.07,45.51 C42.07,45.435333 42.0793332,45.3140008 42.098,45.146 C42.1166668,44.9779992 42.126,44.8426672 42.126,44.74 L42.126,39.504 C42.126,39.4199996 42.088667,39.3173339 42.014,39.196 C41.939333,39.0746661 41.902,38.976667 41.902,38.902 C41.902,38.8459997 41.9206665,38.780667 41.958,38.706 C42.0793339,38.4819989 42.4573302,38.37 43.092,38.37 C43.5866691,38.37 43.8666663,38.4866655 43.932,38.72 C43.9600001,38.8133338 43.974,38.8926663 43.974,38.958 C43.974,39.0606672 43.936667,39.1399997 43.862,39.196 C43.787333,39.2520003 43.75,39.3079997 43.75,39.364 L43.778,39.868 L44.982,38.594 C45.1220007,38.4353325 45.2689992,38.2766675 45.423,38.118 C45.5770008,37.9593325 45.7566656,37.8706668 45.962,37.852 C46.2793349,37.8239999 46.5849985,37.8939992 46.879,38.062 C47.1730015,38.2300008 47.32,38.449332 47.32,38.72 C47.32,38.7666669 47.3153334,38.8133331 47.306,38.86 Z"/>
    <path stroke="#5EA7FF" stroke-linecap="round" stroke-linejoin="round" stroke-width="2" d="M33,12 L33,4"/>
    <path stroke="#5EA7FF" stroke-linecap="round" stroke-width="2" d="M26.4142177,12.227824 L21,7"/>
    <path stroke="#5EA7FF" stroke-linecap="round" stroke-width="2" d="M44.4142177,12.227824 L39,7" transform="matrix(-1 0 0 1 83.414 0)"/>
  </g>
</svg>
