<svg xmlns="http://www.w3.org/2000/svg" width="64" height="64" viewBox="0 0 64 64">
  <g fill="none" fill-rule="evenodd">
    <polygon fill="#979797" fill-rule="nonzero" points="13.711 25.16 31.947 6.703 30.524 5.297 12.289 23.754"/>
    <polygon fill="#979797" fill-rule="nonzero" points="51.947 23.754 33.711 5.297 32.289 6.703 50.524 25.16"/>
    <rect width="62" height="32" x="1" y="23" fill="#595959"/>
    <circle cx="32" cy="6" r="3" fill="#D8D8D8"/>
    <path fill="#979797" fill-rule="nonzero" d="M5,51 L59,51 L59,27 L5,27 L5,51 Z M61,25 L61,53 L3,53 L3,25 L61,25 Z"/>
    <path fill="#FFDD95" d="M26.63,42.144 C26.5646663,42.2653339 26.4200011,42.3399999 26.196,42.368 C26.1773332,42.368 25.9766686,42.3773332 25.594,42.396 C25.6593337,42.8160021 25.9019979,43.3386635 26.322,43.964 C26.5646679,44.1413342 26.686,44.3746652 26.686,44.664 C26.686,45.1213356 26.4060028,45.35 25.846,45.35 C25.3139973,45.35 24.950001,45.214668 24.754,44.944 C24.6886663,44.8506662 24.6466668,44.7246675 24.628,44.566 C24.628,44.4633328 24.6233334,44.3560006 24.614,44.244 C24.5299996,44.1599996 24.2780021,43.6186717 23.858,42.62 C23.0926628,42.7320006 22.1500056,42.8906656 21.03,43.096 C20.9179994,43.366668 20.7966673,43.7586641 20.666,44.272 C20.6846668,44.3653338 20.694,44.4539996 20.694,44.538 C20.694,44.7900013 20.6100008,44.983666 20.442,45.119 C20.2739992,45.254334 20.0733345,45.322 19.84,45.322 C19.5786654,45.322 19.3360011,45.224001 19.112,45.028 C18.8879989,44.831999 18.776,44.6033346 18.776,44.342 C18.776,44.1086655 18.8833323,43.8986676 19.098,43.712 C19.7980035,40.1559822 20.6473283,37.2160116 21.646,34.892 C21.6273332,34.7799994 21.618,34.6680006 21.618,34.556 C21.618,34.089331 21.7766651,33.7813341 22.094,33.632 C22.2246673,33.5759997 22.3926656,33.548 22.598,33.548 C22.990002,33.548 23.3166654,33.6086661 23.578,33.73 C23.9140017,33.8980008 24.082,34.1499983 24.082,34.486 C24.082,34.7940015 23.9980008,35.0693321 23.83,35.312 C24.0073342,36.8986746 24.3899971,38.7279896 24.978,40.8 C25.0340003,40.7906666 25.2253317,40.7440004 25.552,40.66 C25.748001,40.6039997 25.8973328,40.576 26,40.576 C26.1213339,40.576 26.219333,40.6039997 26.294,40.66 C26.6206683,40.9120013 26.784,41.2199982 26.784,41.584 C26.784,41.780001 26.7326672,41.9666658 26.63,42.144 Z M23.27,41.08 C23.1113325,40.4919971 22.8593351,39.362675 22.514,37.692 C21.85133,39.1386739 21.4593339,40.3799948 21.338,41.416 L23.27,41.08 Z M33.672,40.268 C33.672,40.8560029 33.3686697,41.5233296 32.762,42.27 C32.6406661,42.4100007 32.0340055,43.0493276 30.942,44.188 C30.7646658,44.5240017 30.5873342,44.8553317 30.41,45.182 C30.1766655,45.4993349 29.8966683,45.6393335 29.57,45.602 C28.9353302,45.527333 28.4033355,45.1960029 27.974,44.608 C27.8246659,44.411999 27.75,44.2300008 27.75,44.062 C27.75,43.8753324 27.8526656,43.6980008 28.058,43.53 C27.9646662,43.0166641 27.8760004,41.6260113 27.792,39.358 C27.7266663,37.491324 27.694,36.2173367 27.694,35.536 C27.497999,35.2279985 27.4,34.9106683 27.4,34.584 C27.4,34.3413321 27.4699993,34.1453341 27.61,33.996 C27.7126672,33.8933328 27.861999,33.842 28.058,33.842 C28.5620025,33.842 28.9726651,34.0333314 29.29,34.416 C30.1953379,34.0799983 30.9326638,33.912 31.502,33.912 C32.1460032,33.912 32.5753323,34.1173313 32.79,34.528 C32.9300007,34.7893346 33,35.0786651 33,35.396 C33,36.3760049 32.4726719,37.4026613 31.418,38.476 L32.706,38.868 C33.1073353,39.0173341 33.3686661,39.2203321 33.49,39.477 C33.6113339,39.7336679 33.672,39.997332 33.672,40.268 Z M30.69,35.648 C30.4566655,35.648 30.0273365,35.8533313 29.402,36.264 C29.402,36.3480004 29.4113332,36.6209977 29.43,37.083 C29.4486668,37.5450023 29.458,37.8506659 29.458,38 C29.8313352,37.6826651 30.1743318,37.3023355 30.487,36.859 C30.7996682,36.4156644 30.956,36.0866677 30.956,35.872 C30.956,35.7226659 30.8673342,35.648 30.69,35.648 Z M31.166,40.1 C30.624664,40.1 30.1113358,40.3053313 29.626,40.716 L29.682,42.844 C31.0166733,41.7893281 31.684,41.0006693 31.684,40.478 C31.684,40.2259987 31.5113351,40.1 31.166,40.1 Z M40.322,42.046 C39.4353289,44.2580111 38.5486711,45.3686666 37.662,45.378 C36.5886613,45.3873334 35.8046691,44.8320056 35.31,43.712 C34.9273314,42.853329 34.7313334,41.7286736 34.722,40.338 C34.7126666,38.7699922 34.9179979,37.3420064 35.338,36.054 C35.8233358,34.5513258 36.4813292,33.7533338 37.312,33.66 C37.4333339,33.6506666 37.5499994,33.646 37.662,33.646 C38.4366705,33.646 39.0339979,33.9913299 39.454,34.682 C39.7620015,35.2046693 40.0233323,36.0353276 40.238,37.174 C40.3966675,37.6313356 40.476,37.9113328 40.476,38.014 C40.476,38.3220015 40.2846686,38.5599992 39.902,38.728 C39.8179996,38.7653335 39.7200006,38.784 39.608,38.784 C39.337332,38.784 39.0386683,38.6953342 38.712,38.518 C38.3293314,38.3126656 38.138,38.0886679 38.138,37.846 C38.138,37.8086665 38.2033327,37.6266683 38.334,37.3 C38.3153332,36.8893313 38.2406673,36.4996685 38.11,36.131 C37.9793327,35.7623315 37.8300008,35.5593335 37.662,35.522 C37.4006654,35.4566663 37.172001,35.9746612 36.976,37.076 C36.8079992,37.9906712 36.7053335,38.9986612 36.668,40.1 C36.6399999,40.9306708 36.6866661,41.7006631 36.808,42.41 C36.9480007,43.2220041 37.1579986,43.6559997 37.438,43.712 C37.6060008,43.7400001 37.8066655,43.5300022 38.04,43.082 C38.2640011,42.6713313 38.4506659,42.1860028 38.6,41.626 C38.5813332,41.5326662 38.572,41.4440004 38.572,41.36 C38.572,40.8093306 38.9079966,40.534 39.58,40.534 C39.7293341,40.534 39.8786659,40.5479999 40.028,40.576 C40.4853356,40.6693338 40.714,40.8979982 40.714,41.262 C40.714,41.5606682 40.5833346,41.8219989 40.322,42.046 Z M47.406,35.872 C47.4433335,36.4973365 47.228669,37.5939922 46.762,39.162 C46.2673309,40.8420084 45.7073365,42.2746607 45.082,43.46 C44.3259962,44.8693404 43.6353365,45.574 43.01,45.574 C42.6926651,45.574 42.3870015,45.4340014 42.093,45.154 C41.7989985,44.8739986 41.652,44.5846682 41.652,44.286 C41.652,44.1459993 41.6939996,44.0200006 41.778,43.908 C41.6286659,39.8853132 41.5726665,37.1506739 41.61,35.704 C41.413999,35.3866651 41.316,35.1486675 41.316,34.99 C41.316,34.7659989 41.4419987,34.5700008 41.694,34.402 C41.9180011,34.2433325 42.1513321,34.164 42.394,34.164 C42.6180011,34.164 42.8046659,34.2293327 42.954,34.36 C44.1673394,33.8839976 44.9746647,33.646 45.376,33.646 C45.5906677,33.646 45.8006656,33.6973328 46.006,33.8 C46.3140015,33.9493341 46.6079986,34.2106648 46.888,34.584 C47.2053349,35.0133355 47.3779999,35.4426645 47.406,35.872 Z M45.502,35.452 C45.4086662,35.3399994 45.2873341,35.284 45.138,35.284 C44.8486652,35.284 44.2793376,35.6199966 43.43,36.292 C43.3739997,36.9920035 43.346,37.7666624 43.346,38.616 C43.346,39.8293394 43.4019994,41.0799936 43.514,42.368 C44.0086691,41.163994 44.4659979,39.89934 44.886,38.574 C45.3340022,37.1459929 45.558,36.1940024 45.558,35.718 C45.558,35.5873327 45.5393335,35.4986669 45.502,35.452 Z"/>
  </g>
</svg>
