<svg xmlns="http://www.w3.org/2000/svg" width="64" height="64" viewBox="0 0 64 64">
  <g fill="none" fill-rule="evenodd">
    <path fill="#C13F98" d="M22.41,55.77 C22.3899999,55.9500009 22.3500003,56.3799966 22.29,57.06 C22.2699999,57.4200018 22.1900007,57.6899991 22.05,57.87 C21.9499995,57.9300003 21.7800012,57.96 21.54,57.96 C20.8799967,57.96 20.0600049,57.7900017 19.08,57.45 C18.0199947,57.1299984 17.3000019,56.7500022 16.92,56.31 C16.7599992,56.1299991 16.6000008,55.5300051 16.44,54.51 C16.2199989,53.1699933 15.9700014,52.0600044 15.69,51.18 C14.9299962,51.2800005 13.8200073,51.5549977 12.36,52.005 C10.8999927,52.4550023 9.9500022,52.8299985 9.51,53.13 C9.2099985,53.9900043 8.8100025,55.0499937 8.31,56.31 C8.2499997,56.5900014 8.18500035,56.8549987 8.115,57.105 C8.04499965,57.3550012 7.8700014,57.5599992 7.59,57.72 C7.5299997,57.7600002 7.4400006,57.78 7.32,57.78 C6.8399976,57.78 6.03500565,57.5300025 4.905,57.03 C3.77499435,56.5299975 3.1900002,56.2000008 3.15,56.04 C3.0699996,55.7599986 3.2599977,55.0700055 3.72,53.97 C4.3600032,52.369992 4.7299995,51.3900018 4.83,51.03 C4.4099979,50.6099979 4.2,50.1900021 4.2,49.77 C4.2,49.6699995 4.2099999,49.5600006 4.23,49.44 C4.2700002,49.1999988 4.8799941,48.7700031 6.06,48.15 L9.93,34.92 C9.9900003,34.6799988 10.0000002,34.2400032 9.96,33.6 C9.9199998,33.0599973 9.9799992,32.7200007 10.14,32.58 C10.2400005,32.4799995 10.4799981,32.43 10.86,32.43 C11.8000047,32.43 13.1399913,32.6699976 14.88,33.15 C16.6200087,33.6300024 17.6599983,34.0599981 18,34.44 C18.1200006,36.6600111 18.5699961,39.9899778 19.35,44.43 C20.350005,49.9100274 21.3699948,53.6899896 22.41,55.77 Z M14.58,46.65 C14.3199987,45.3899937 14.1600003,44.560002 14.1,44.16 C13.8799989,42.8199933 13.7300004,41.4300072 13.65,39.99 C13.249998,40.9700049 12.7800027,42.3299913 12.24,44.07 C11.6599971,45.8900091 11.3500002,47.0299977 11.31,47.49 C11.6900019,47.3299992 12.779991,47.050002 14.58,46.65 Z"/>
    <path fill="#325AA6" d="M37.81,20.2 C37.8500002,20.5000015 37.87,20.7999985 37.87,21.1 C37.87,22.7600083 37.1600071,24.5499904 35.74,26.47 C34.5999943,28.0100077 33.2000083,29.3899939 31.54,30.61 C30.0199924,31.7100055 28.9900027,32.2200004 28.45,32.14 C27.849997,32.0599996 26.7900076,31.615004 25.27,30.805 C23.7499924,29.9949959 22.9300006,29.4400015 22.81,29.14 C22.7699998,29.0599996 22.75,28.9700005 22.75,28.87 C22.75,28.7499994 22.7849997,28.5950009 22.855,28.405 C22.9250004,28.2149991 22.96,28.0700005 22.96,27.97 L22.96,8.53 C22.96,8.2099984 23.3999956,8.05 24.28,8.05 C24.680002,8.05 25.0299985,8.0899996 25.33,8.17 C26.2700047,7.569997 27.4549929,7.03500235 28.885,6.565 C30.3150072,6.09499765 31.5399949,5.86 32.56,5.86 C33.160003,5.86 33.6249983,5.94499915 33.955,6.115 C34.2850017,6.28500085 34.5899986,6.5799979 34.87,7 C35.2300018,7.5800029 35.4799993,7.9399993 35.62,8.08 C35.6600002,8.1200002 35.9899969,8.3899975 36.61,8.89 C36.9700018,9.1900015 37.1999995,9.5099983 37.3,9.85 C37.3800004,10.0900012 37.42,10.3499986 37.42,10.63 C37.42,12.2100079 36.3700105,13.9299907 34.27,15.79 C36.4100107,17.4100081 37.5899989,18.8799934 37.81,20.2 Z M32.56,10.45 C32.5199998,10.3699996 32.4100009,10.33 32.23,10.33 C31.7699977,10.33 31.0500049,10.5699976 30.07,11.05 C29.0899951,11.5300024 28.4300017,11.9899978 28.09,12.43 L28.09,15.55 C29.3700064,14.5299949 30.4749953,13.4900053 31.405,12.43 C32.3350046,11.3699947 32.7200008,10.7100013 32.56,10.45 Z M33.64,19.33 C33.1199974,19.3500001 32.2400062,19.5999976 31,20.08 C29.6599933,20.6200027 28.690003,21.1499974 28.09,21.67 L28.09,27.25 C29.3900065,26.8899982 30.6699937,25.7900092 31.93,23.95 C33.1900063,22.1099908 33.7600006,20.5700062 33.64,19.33 Z"/>
    <path fill="#DFCC00" d="M57.96,40.12 C57.8999997,40.6200025 57.7100016,41.0199985 57.39,41.32 C56.8099971,42.5600062 55.920006,43.8099937 54.72,45.07 C53.4199935,46.4100067 52.370004,47.08 51.57,47.08 C51.4499994,47.08 51.3400005,47.0700001 51.24,47.05 C50.3599956,46.7699986 49.3700055,46.4200021 48.27,46 C46.3099902,45.199996 44.8100052,43.6700113 43.77,41.41 C42.8499954,39.3699898 42.39,37.0000135 42.39,34.3 C42.39,30.9999835 43.0199937,28.0900126 44.28,25.57 C45.6200067,22.8899866 47.2999899,21.5000005 49.32,21.4 C50.1000039,21.3599998 51.2449925,21.7599958 52.755,22.6 C54.2650076,23.4400042 55.2599976,24.2749958 55.74,25.105 C56.2200024,25.9350041 56.5499991,27.749986 56.73,30.55 C56.7700002,31.150003 56.690001,31.7599969 56.49,32.38 C56.2499988,33.1200037 55.9400019,33.4600003 55.56,33.4 C54.8599965,33.2999995 53.9800053,33.0800017 52.92,32.74 C51.6399936,32.3199979 50.9500005,31.9700014 50.85,31.69 C50.8099998,31.5899995 50.79,31.5000004 50.79,31.42 C50.79,31.2399991 50.8749992,31.0150013 51.045,30.745 C51.2150009,30.4749986 51.3,30.2500009 51.3,30.07 C51.4000005,29.2499959 51.45,28.4800036 51.45,27.76 C51.45,26.7199948 51.3300012,26.000002 51.09,25.6 C49.889994,26.4800044 48.9800031,27.9499897 48.36,30.01 C47.8399974,31.7500087 47.58,33.719989 47.58,35.92 C47.58,37.6200085 47.7299985,39.1349934 48.03,40.465 C48.3300015,41.7950067 48.6899979,42.5999986 49.11,42.88 C49.310001,43.0000006 49.8649955,42.5950047 50.775,41.665 C51.6850046,40.7349954 52.2699987,39.9900028 52.53,39.43 C52.5500001,39.4099999 52.6399992,39.0900031 52.8,38.47 C52.9200006,38.1099982 53.079999,37.8900004 53.28,37.81 C53.6200017,37.6899994 54.494993,37.9749966 55.905,38.665 C57.3150071,39.3550035 58.0000002,39.8399986 57.96,40.12 Z"/>
  </g>
</svg>
