<svg xmlns="http://www.w3.org/2000/svg" width="64" height="64" viewBox="0 0 64 64">
  <g fill="none" fill-rule="evenodd">
    <polygon fill="#325AA6" points="4 14 60 14 60 49 4 49"/>
    <rect width="52" height="31" x="6" y="16" fill="#FFDD95"/>
    <path fill="#4796E7" d="M0,49 L64,49 L64,51.5 C64,52.8807119 62.8891602,54 61.4911242,54 L2.50887585,54 C1.12326198,54 0,52.8903379 0,51.5 L0,49 Z"/>
    <path fill="#C13F98" d="M28.72,35.328 C28.6359996,35.4840008 28.4500014,35.5799998 28.162,35.616 C28.1379999,35.616 27.8800025,35.6279999 27.388,35.652 C27.4720004,36.1920027 27.7839973,36.863996 28.324,37.668 C28.6360016,37.8960011 28.792,38.1959981 28.792,38.568 C28.792,39.1560029 28.4320036,39.45 27.712,39.45 C27.0279966,39.45 26.5600013,39.2760017 26.308,38.928 C26.2239996,38.8079994 26.1700001,38.646001 26.146,38.442 C26.146,38.3099993 26.1400001,38.1720007 26.128,38.028 C26.0199995,37.9199995 25.6960027,37.2240064 25.156,35.94 C24.1719951,36.0840007 22.9600072,36.2879987 21.52,36.552 C21.3759993,36.9000017 21.2200008,37.4039967 21.052,38.064 C21.0760001,38.1840006 21.088,38.2979995 21.088,38.406 C21.088,38.7300016 20.9800011,38.9789991 20.764,39.153 C20.5479989,39.3270009 20.2900015,39.414 19.99,39.414 C19.6539983,39.414 19.3420014,39.2880013 19.054,39.036 C18.7659986,38.7839987 18.622,38.4900017 18.622,38.154 C18.622,37.8539985 18.7599986,37.5840012 19.036,37.344 C19.9360045,32.7719771 21.0279936,28.9920149 22.312,26.004 C22.2879999,25.8599993 22.276,25.7160007 22.276,25.572 C22.276,24.971997 22.479998,24.576001 22.888,24.384 C23.0560008,24.3119996 23.2719987,24.276 23.536,24.276 C24.0400025,24.276 24.4599983,24.3539992 24.796,24.51 C25.2280022,24.7260011 25.444,25.0499978 25.444,25.482 C25.444,25.878002 25.3360011,26.2319984 25.12,26.544 C25.3480011,28.5840102 25.8399962,30.9359867 26.596,33.6 C26.6680004,33.5879999 26.9139979,33.5280005 27.334,33.42 C27.5860013,33.3479996 27.7779993,33.312 27.91,33.312 C28.0660008,33.312 28.1919995,33.3479996 28.288,33.42 C28.7080021,33.7440016 28.918,34.1399977 28.918,34.608 C28.918,34.8600013 28.8520007,35.0999989 28.72,35.328 Z M24.4,33.96 C24.195999,33.2039962 23.8720022,31.7520107 23.428,29.604 C22.5759957,31.4640093 22.0720008,33.0599933 21.916,34.392 L24.4,33.96 Z M37.774,32.916 C37.774,33.6720038 37.3840039,34.5299952 36.604,35.49 C36.4479992,35.6700009 35.668007,36.4919927 34.264,37.956 C34.0359989,38.3880022 33.8080011,38.8139979 33.58,39.234 C33.2799985,39.642002 32.9200021,39.8220002 32.5,39.774 C31.6839959,39.6779995 31.0000028,39.2520038 30.448,38.496 C30.255999,38.2439987 30.16,38.0100011 30.16,37.794 C30.16,37.5539988 30.2919987,37.3260011 30.556,37.11 C30.4359994,36.4499967 30.3220005,34.6620146 30.214,31.746 C30.1299996,29.345988 30.088,27.7080044 30.088,26.832 C29.8359987,26.435998 29.71,26.0280021 29.71,25.608 C29.71,25.2959984 29.7999991,25.044001 29.98,24.852 C30.1120007,24.7199993 30.3039987,24.654 30.556,24.654 C31.2040032,24.654 31.731998,24.8999975 32.14,25.392 C33.3040058,24.9599978 34.2519963,24.744 34.984,24.744 C35.8120041,24.744 36.3639986,25.0079974 36.64,25.536 C36.8200009,25.8720017 36.91,26.243998 36.91,26.652 C36.91,27.9120063 36.2320068,29.2319931 34.876,30.612 L36.532,31.116 C37.0480026,31.308001 37.3839992,31.5689984 37.54,31.899 C37.6960008,32.2290017 37.774,32.5679983 37.774,32.916 Z M33.94,26.976 C33.6399985,26.976 33.088004,27.2399974 32.284,27.768 C32.284,27.8760005 32.2959999,28.226997 32.32,28.821 C32.3440001,29.415003 32.356,29.807999 32.356,30 C32.8360024,29.591998 33.276998,29.1030028 33.679,28.533 C34.081002,27.9629971 34.282,27.5400014 34.282,27.264 C34.282,27.071999 34.1680011,26.976 33.94,26.976 Z M34.552,32.7 C33.8559965,32.7 33.1960031,32.9639974 32.572,33.492 L32.644,36.228 C34.3600086,34.8719932 35.218,33.8580034 35.218,33.186 C35.218,32.8619984 34.9960022,32.7 34.552,32.7 Z M46.324,35.202 C45.1839943,38.0460142 44.0440057,39.4739999 42.904,39.486 C41.5239931,39.4980001 40.5160032,38.7840072 39.88,37.344 C39.3879975,36.2399945 39.1360001,34.7940089 39.124,33.006 C39.1119999,30.9899899 39.3759973,29.1540083 39.916,27.498 C40.5400031,25.5659903 41.3859947,24.5400006 42.454,24.42 C42.6100008,24.4079999 42.7599993,24.402 42.904,24.402 C43.900005,24.402 44.6679973,24.8459956 45.208,25.734 C45.604002,26.4060034 45.9399986,27.4739927 46.216,28.938 C46.420001,29.5260029 46.522,29.8859993 46.522,30.018 C46.522,30.414002 46.2760025,30.7199989 45.784,30.936 C45.6759995,30.9840002 45.5500007,31.008 45.406,31.008 C45.0579983,31.008 44.6740021,30.8940011 44.254,30.666 C43.7619975,30.4019987 43.516,30.1140016 43.516,29.802 C43.516,29.7539998 43.5999992,29.5200021 43.768,29.1 C43.7439999,28.5719974 43.6480008,28.0710024 43.48,27.597 C43.3119992,27.1229976 43.1200011,26.8620002 42.904,26.814 C42.5679983,26.7299996 42.2740013,27.3959929 42.022,28.812 C41.8059989,29.9880059 41.6740002,31.2839929 41.626,32.7 C41.5899998,33.7680053 41.6499992,34.7579954 41.806,35.67 C41.9860009,36.7140052 42.2559982,37.2719996 42.616,37.344 C42.8320011,37.3800002 43.0899985,37.1100029 43.39,36.534 C43.6780014,36.0059974 43.917999,35.3820036 44.11,34.662 C44.0859999,34.5419994 44.074,34.4280005 44.074,34.32 C44.074,33.6119965 44.5059957,33.258 45.37,33.258 C45.562001,33.258 45.753999,33.2759998 45.946,33.312 C46.5340029,33.4320006 46.828,33.7259977 46.828,34.194 C46.828,34.5780019 46.6600017,34.9139986 46.324,35.202 Z"/>
  </g>
</svg>
