<svg xmlns="http://www.w3.org/2000/svg" width="64" height="64" viewBox="0 0 64 64">
  <g fill="none" fill-rule="evenodd">
    <path fill="#E43535" d="M12 26.3369209C11.0046326 24.9234484 9.36015777 24 7.5 24 4.46243388 24 2 26.4624339 2 29.5 2 32.8738479 5.0427104 33.3998739 7.28167137 35.7548128 9.99303414 38.6066239 11.9921985 41.2075357 12 41.2075357 12.007802 41.2075357 14.0073001 38.606334 16.7187818 35.7543361 18.9575652 33.399533 22 32.8737552 22 29.5 22 26.4624339 19.5375661 24 16.5 24 14.6398422 24 12.9953674 24.9234484 12 26.3369209zM33 26.3369209C32.0046326 24.9234484 30.3601578 24 28.5 24 25.4624339 24 23 26.4624339 23 29.5 23 32.8738479 26.0427104 33.3998739 28.2816714 35.7548128 30.9930341 38.6066239 32.9921985 41.2075357 33 41.2075357 33.007802 41.2075357 35.0073001 38.606334 37.7187818 35.7543361 39.9575652 33.399533 43 32.8737552 43 29.5 43 26.4624339 40.5375661 24 37.5 24 35.6398422 24 33.9953674 24.9234484 33 26.3369209z"/>
    <path stroke="#E43535" stroke-linecap="round" stroke-linejoin="round" stroke-width="2" d="M54,28 L54,24 M56.8284271,29.1715729 L59.6568542,26.3431458 M58,32 L62,32 M56.8284271,34.8284271 L59.6568542,37.6568542 M54,36 L54,40 M51.1715729,34.8284271 L48.3431458,37.6568542 M50,32 L46,32 M51.1715729,29.1715729 L48.3431458,26.3431458"/>
  </g>
</svg>
