<svg xmlns="http://www.w3.org/2000/svg" width="64" height="64" viewBox="0 0 64 64">
  <g fill="none" fill-rule="evenodd">
    <path fill="#E43535" d="M11 26.3369209C10.0046326 24.9234484 8.36015777 24 6.5 24 3.46243388 24 1 26.4624339 1 29.5 1 32.8738479 4.0427104 33.3998739 6.28167137 35.7548128 8.99303414 38.6066239 10.9921985 41.2075357 11 41.2075357 11.007802 41.2075357 13.0073001 38.606334 15.7187818 35.7543361 17.9575652 33.399533 21 32.8737552 21 29.5 21 26.4624339 18.5375661 24 15.5 24 13.6398422 24 11.9953674 24.9234484 11 26.3369209zM32 26.3369209C31.0046326 24.9234484 29.3601578 24 27.5 24 24.4624339 24 22 26.4624339 22 29.5 22 32.8738479 25.0427104 33.3998739 27.2816714 35.7548128 29.9930341 38.6066239 31.9921985 41.2075357 32 41.2075357 32.007802 41.2075357 34.0073001 38.606334 36.7187818 35.7543361 38.9575652 33.399533 42 32.8737552 42 29.5 42 26.4624339 39.5375661 24 36.5 24 34.6398422 24 32.9953674 24.9234484 32 26.3369209zM53 26.3369209C52.0046326 24.9234484 50.3601578 24 48.5 24 45.4624339 24 43 26.4624339 43 29.5 43 32.8738479 46.0427104 33.3998739 48.2816714 35.7548128 50.9930341 38.6066239 52.9921985 41.2075357 53 41.2075357 53.007802 41.2075357 55.0073001 38.606334 57.7187818 35.7543361 59.9575652 33.399533 63 32.8737552 63 29.5 63 26.4624339 60.5375661 24 57.5 24 55.6398422 24 53.9953674 24.9234484 53 26.3369209z"/>
  </g>
</svg>
