<svg xmlns="http://www.w3.org/2000/svg" width="64" height="64" viewBox="0 0 64 64">
  <g fill="none" fill-rule="evenodd">
    <path fill="#E43535" d="M11 36.3369209C10.0046326 34.9234484 8.36015777 34 6.5 34 3.46243388 34 1 36.4624339 1 39.5 1 42.8738479 4.0427104 43.3998739 6.28167137 45.7548128 8.99303414 48.6066239 10.9921985 51.2075357 11 51.2075357 11.007802 51.2075357 13.0073001 48.606334 15.7187818 45.7543361 17.9575652 43.399533 21 42.8737552 21 39.5 21 36.4624339 18.5375661 34 15.5 34 13.6398422 34 11.9953674 34.9234484 11 36.3369209zM32 36.3369209C31.0046326 34.9234484 29.3601578 34 27.5 34 24.4624339 34 22 36.4624339 22 39.5 22 42.8738479 25.0427104 43.3998739 27.2816714 45.7548128 29.9930341 48.6066239 31.9921985 51.2075357 32 51.2075357 32.007802 51.2075357 34.0073001 48.606334 36.7187818 45.7543361 38.9575652 43.399533 42 42.8737552 42 39.5 42 36.4624339 39.5375661 34 36.5 34 34.6398422 34 32.9953674 34.9234484 32 36.3369209zM21 15.3369209C20.0046326 13.9234484 18.3601578 13 16.5 13 13.4624339 13 11 15.4624339 11 18.5 11 21.8738479 14.0427104 22.3998739 16.2816714 24.7548128 18.9930341 27.6066239 20.9921985 30.2075357 21 30.2075357 21.007802 30.2075357 23.0073001 27.606334 25.7187818 24.7543361 27.9575652 22.399533 31 21.8737552 31 18.5 31 15.4624339 28.5375661 13 25.5 13 23.6398422 13 21.9953674 13.9234484 21 15.3369209zM42 15.3369209C41.0046326 13.9234484 39.3601578 13 37.5 13 34.4624339 13 32 15.4624339 32 18.5 32 21.8738479 35.0427104 22.3998739 37.2816714 24.7548128 39.9930341 27.6066239 41.9921985 30.2075357 42 30.2075357 42.007802 30.2075357 44.0073001 27.606334 46.7187818 24.7543361 48.9575652 22.399533 52 21.8737552 52 18.5 52 15.4624339 49.5375661 13 46.5 13 44.6398422 13 42.9953674 13.9234484 42 15.3369209zM53 36.3369209C52.0046326 34.9234484 50.3601578 34 48.5 34 45.4624339 34 43 36.4624339 43 39.5 43 42.8738479 46.0427104 43.3998739 48.2816714 45.7548128 50.9930341 48.6066239 52.9921985 51.2075357 53 51.2075357 53.007802 51.2075357 55.0073001 48.606334 57.7187818 45.7543361 59.9575652 43.399533 63 42.8737552 63 39.5 63 36.4624339 60.5375661 34 57.5 34 55.6398422 34 53.9953674 34.9234484 53 36.3369209z"/>
  </g>
</svg>
