<svg xmlns="http://www.w3.org/2000/svg" width="64" height="64" viewBox="0 0 64 64">
  <g fill="none" fill-rule="evenodd">
    <path fill="#E8E8E8" d="M39,42.4224476 L39,56 L23,56 L23,42.4224476 C15.3702258,39.2763667 10,31.7653251 10,23 C10,11.4020203 19.4020203,2 31,2 C42.5979797,2 52,11.4020203 52,23 C52,31.7653251 46.6297742,39.2763667 39,42.4224476 Z"/>
    <polygon fill="#979797" fill-rule="nonzero" points="27 50 27 30 25 30 25 50"/>
    <polygon fill="#979797" fill-rule="nonzero" points="37 50 37 30 35 30 35 50"/>
    <rect width="22.474" height="4" x="19.763" y="50" fill="#80D25B" rx="2"/>
    <rect width="22.474" height="4" x="19.763" y="54" fill="#5DAF38" rx="2"/>
    <rect width="22.474" height="4" x="19.763" y="58" fill="#80D25B" rx="2"/>
    <path fill="#979797" fill-rule="nonzero" d="M28.9857384,34.1563659 L27.9785178,35.0248575 L28.0954947,34.1422192 L28.9857384,34.1563659 Z M29.3007305,36.1000896 C29.1920318,36.1382225 29.075118,36.1580387 28.9539608,36.1561134 L22.1988926,36.0487701 C21.6466776,36.0399949 21.2061325,35.5852226 21.2149076,35.0330075 C21.2236828,34.4807925 21.6784551,34.0402474 22.2306702,34.0490225 L28.0954947,34.1422192 L28.5319883,30.8486979 C28.6830186,29.7091133 30.3225055,29.6828654 30.5099381,30.8170313 C30.5243093,30.9039923 30.5447743,31.0284873 30.5701802,31.1839139 C30.5846313,31.2723224 30.600681,31.3707387 30.6181171,31.4779479 C30.6239494,31.5138085 30.6299367,31.5506529 30.6360713,31.5884357 C30.7305952,32.1706101 30.8251258,32.7609897 30.9134062,33.3237713 C30.9305323,33.4330533 30.9305323,33.4330533 30.9476267,33.5425756 C31.105168,34.5530069 31.215209,35.2944251 31.2749652,35.7790363 C31.2847451,35.8583492 31.2931781,35.9307834 31.300252,35.9963924 C31.3184505,36.1651815 31.3276538,36.2887975 31.3276538,36.3681517 C31.3362708,36.3140641 31.3365222,36.3124866 31.2397562,35.9925532 C31.2368493,35.982942 31.2338547,35.9730434 31.2307702,35.9628475 C31.187102,35.8896847 31.1528092,35.8323544 31.1202192,35.784054 C30.9590533,35.5451961 30.83953,35.5271697 30.140812,35.4217895 C30.0408096,35.4669494 29.9609362,35.5030192 29.8963142,35.5330506 C29.6398898,35.6522175 29.6236064,35.6763071 29.5427093,35.7959863 C29.4592845,35.9067436 29.4524396,35.9235597 29.4311731,35.9878128 C29.4546793,35.916793 29.496928,35.7652934 29.5517402,35.5532702 C29.6549942,35.1538654 29.7976184,34.5619094 29.9689662,33.8265531 C29.9895753,33.7380415 29.9895753,33.7380415 30.0101637,33.6493696 C30.1379104,33.0988073 30.2725398,32.508434 30.4056147,31.9179931 C30.4073609,31.9102455 30.4090983,31.9025356 30.4108269,31.8948638 C30.4799475,31.5880946 30.5349352,31.3422961 30.5701802,31.1839139 C30.5743603,31.1651294 30.5782627,31.1475747 30.581878,31.1312936 C30.8247398,30.0376111 32.407066,30.1093718 32.5499343,31.2205477 L33.1793162,36.1156407 L31.219723,35.9912819 L32.3314085,31.7200849 C32.3461209,31.6635586 32.3653217,31.6095253 32.3885126,31.5582377 C32.432449,31.4610703 32.4907068,31.3737587 32.5598956,31.2980224 C32.8298569,31.0025143 33.2662327,30.8832319 33.6676302,31.042326 L40.8419897,33.8858863 C41.3554168,34.0893834 41.6066648,34.6705652 41.4031677,35.1839923 C41.1996707,35.6974195 40.6184888,35.9486674 40.1050617,35.7451704 L33.9820618,33.3183168 L33.1552384,36.495048 C32.9104185,37.4356684 31.677683,37.4686896 31.297348,36.7109009 C31.2472675,36.6111194 31.2119661,36.4976266 31.1956453,36.3706892 L30.5662634,31.4755962 L32.5343197,31.5648503 C32.4990287,31.7237767 32.4370269,32.001211 32.3566744,32.3577274 C32.2227428,32.951969 32.0872159,33.5462782 31.9584067,34.1014195 C31.937614,34.1909714 31.937614,34.1909714 31.9167865,34.2804211 C31.748209,35.0038882 31.6065867,35.5925219 31.4996258,36.009045 C31.4957316,36.0242096 31.4918833,36.0391461 31.4880814,36.0538526 C31.4227329,36.3066321 31.3712564,36.4912215 31.3298758,36.6162459 C31.3183305,36.6511279 31.3077599,36.6822599 31.297348,36.7109009 C31.2576969,36.8199726 31.2203472,36.8929189 31.1402352,36.999278 C31.0324549,37.1567883 31.0324549,37.1567883 30.5302103,37.3835155 C29.6824225,37.2560648 29.6824225,37.2560648 29.4315967,36.8363318 C29.3199794,36.4667881 29.3199794,36.4667881 29.3276538,36.3681517 C29.3276538,36.3336126 29.318269,36.2412817 29.3007305,36.1000896 C29.2497671,35.6898139 29.1299562,34.8669712 28.9715017,33.8506829 C28.9545552,33.7421083 28.9545552,33.7421083 28.9375677,33.6337101 C28.8499001,33.0748354 28.755915,32.4878623 28.6619232,31.9089654 C28.6055305,31.561642 28.5616929,31.2943497 28.5367021,31.1431288 L30.5146519,31.1114622 L29.9611814,35.2876218 C29.9497809,35.3736433 29.9276722,35.4558722 29.8963142,35.5330506 C29.7880413,35.7995315 29.5694989,36.0058023 29.3007305,36.1000896 Z"/>
  </g>
</svg>
