<svg xmlns="http://www.w3.org/2000/svg" width="64" height="64" viewBox="0 0 64 64">
  <g fill="none" fill-rule="evenodd">
    <path fill="#B4DFFB" d="M19.7272727,52 L56.0002326,52 C58.2013211,52 60,50.2114659 60,48.0051972 L60,18.9948028 C60,16.7845869 58.2092431,15 56.0002326,15 L8.99976742,15 C6.79867889,15 5,16.7885341 5,18.9948028 L5,48.0051972 C5,50.2154131 6.79075687,52 8.99976742,52 L14,52 L14,59 L19.7272727,52 Z"/>
    <path fill="#E43535" d="M13.5737705,18 C10.4954621,18 8,19.5084783 8,23.5613198 C8,27.6141613 18,35 18,35 C18,35 28,27.6141613 28,23.5613198 C28,19.5084783 25.5045379,18 22.4262295,18 C20.6224114,18 19.0187247,18.8549505 18,20.1808807 C16.9812753,18.8549505 15.3775886,18 13.5737705,18 Z"/>
    <path stroke="#5EA7FF" stroke-linecap="round" stroke-linejoin="round" stroke-width="2" d="M34,11 L34,3"/>
    <path stroke="#5EA7FF" stroke-linecap="round" stroke-width="2" d="M27.4142177,11.227824 L22,6"/>
    <path stroke="#5EA7FF" stroke-linecap="round" stroke-width="2" d="M45.4142177,11.227824 L40,6" transform="matrix(-1 0 0 1 85.414 0)"/>
    <path fill="#E43535" d="M35.776,45.07 C35.5893324,45.4246684 35.2440025,45.602 34.74,45.602 C34.273331,45.602 33.9466676,45.4433349 33.76,45.126 C33.7039997,45.0326662 33.676,44.9300006 33.676,44.818 C33.676,44.7246662 33.7086663,44.5706677 33.774,44.356 C33.8393337,44.1413323 33.872,43.9640007 33.872,43.824 L33.816,34.78 L33.816,34.024 C33.8440001,33.9026661 33.9746655,33.8023337 34.208,33.723 C34.4413345,33.6436663 34.6886654,33.604 34.95,33.604 C35.3326686,33.604 35.5753328,33.6739993 35.678,33.814 C35.7806672,33.9540007 35.832,34.0986659 35.832,34.248 C35.832,34.3506672 35.794667,34.5209988 35.72,34.759 C35.645333,34.9970012 35.608,35.1906659 35.608,35.34 L35.608,43.74 C35.608,43.8800007 35.6476663,44.0643322 35.727,44.293 C35.8063337,44.5216678 35.846,44.6873328 35.846,44.79 C35.846,44.8926672 35.8226669,44.9859996 35.776,45.07 Z M39.052,34.5 C39.0800001,34.5280001 39.094,34.5746663 39.094,34.64 C39.094,34.7240004 39.0660003,34.8686656 39.01,35.074 C38.9446663,35.3260013 38.9026668,35.4986662 38.884,35.592 C38.8653332,35.6853338 38.8746665,35.8906651 38.912,36.208 C38.912,36.404001 38.8536673,36.532333 38.737,36.593 C38.6203327,36.653667 38.4733342,36.684 38.296,36.684 C38.0439987,36.684 37.7873346,36.6326672 37.526,36.53 C37.2086651,36.3993327 37.05,36.2266677 37.05,36.012 C37.05,35.9466663 37.0779997,35.8556672 37.134,35.739 C37.1900003,35.6223327 37.2226666,35.526667 37.232,35.452 C37.2506668,35.377333 37.2506668,35.1906682 37.232,34.892 C37.2133332,34.6586655 37.2599994,34.5000004 37.372,34.416 C37.5213341,34.3039994 37.7873314,34.248 38.17,34.248 C38.5900021,34.248 38.8839992,34.3319992 39.052,34.5 Z M39.234,37.916 C39.234,38.0466673 39.1616674,38.2496653 39.017,38.525 C38.8723326,38.8003347 38.8,39.0266658 38.8,39.204 L38.8,43.32 C38.8,43.5066676 38.8513328,43.7703316 38.954,44.111 C39.0566672,44.4516684 39.108,44.6873327 39.108,44.818 C39.108,45.0046676 39.0333341,45.1446662 38.884,45.238 C38.6506655,45.3873341 38.398668,45.462 38.128,45.462 C37.7733316,45.462 37.5213341,45.3406679 37.372,45.098 C37.175999,44.7993318 37.078,43.9080074 37.078,42.424 C37.078,42.0693316 37.0849999,41.5163371 37.099,40.765 C37.1130001,40.0136629 37.12,39.4653351 37.12,39.12 C37.12,38.9893327 37.1060001,38.8190011 37.078,38.609 C37.0499999,38.398999 37.036,38.2473338 37.036,38.154 C37.036,37.8459985 37.1479989,37.5800011 37.372,37.356 C37.4653338,37.2626662 37.6379987,37.216 37.89,37.216 C38.1420013,37.216 38.3939987,37.2556663 38.646,37.335 C38.8980013,37.4143337 39.0589996,37.5053328 39.129,37.608 C39.1990004,37.7106672 39.234,37.8133328 39.234,37.916 Z M46.99,43.908 C46.9993334,43.9733337 47.004,44.0386663 47.004,44.104 C47.004,44.6640028 46.6913365,45.041999 46.066,45.238 C45.9446661,45.2753335 45.8373338,45.294 45.744,45.294 C45.5759992,45.294 45.4220007,45.2146675 45.282,45.056 C45.0673323,44.8226655 44.9366669,44.6920001 44.89,44.664 L42.37,42.9 L42.37,44.076 C42.37,44.1600004 42.3956664,44.2649994 42.447,44.391 C42.4983336,44.5170006 42.524,44.6126663 42.524,44.678 C42.524,44.7806672 42.4726672,44.8879994 42.37,45 C42.1366655,45.2426679 41.8006689,45.364 41.362,45.364 C40.9419979,45.364 40.6713339,45.2240014 40.55,44.944 C40.4939997,44.8133327 40.4753332,44.6780007 40.494,44.538 C40.5313335,44.2953321 40.55,44.1320004 40.55,44.048 L40.55,34.836 C40.5406666,34.6679992 40.5593331,34.4160017 40.606,34.08 C40.6900004,33.8746656 40.9466645,33.772 41.376,33.772 C41.9360028,33.772 42.2953325,33.8746656 42.454,34.08 C42.5380004,34.1920006 42.58,34.3133327 42.58,34.444 C42.58,34.5466672 42.5450004,34.7053323 42.475,34.92 C42.4049996,35.1346677 42.37,35.3026661 42.37,35.424 C42.3513332,35.965336 42.3513332,37.4913208 42.37,40.002 C42.8926693,39.4979975 43.5646626,38.8400041 44.386,38.028 C44.4980006,37.9159994 44.6426658,37.7153348 44.82,37.426 C44.9226672,37.2579992 45.0766656,37.1460003 45.282,37.09 C45.3380003,37.0713332 45.403333,37.062 45.478,37.062 C45.748668,37.062 46.0263319,37.1646656 46.311,37.37 C46.5956681,37.5753344 46.738,37.7946655 46.738,38.028 C46.738,38.1586673 46.6446676,38.3173324 46.458,38.504 C46.2713324,38.6906676 46.0846676,38.8679992 45.898,39.036 L43.574,41.444 L46.066,43.236 C46.0846668,43.2546668 46.2713316,43.3293327 46.626,43.46 C46.8313344,43.5440004 46.9526665,43.6933323 46.99,43.908 Z M52.8,43.53 C52.725333,43.8846684 52.4733355,44.2626647 52.044,44.664 C51.9786663,44.7666672 51.7220022,44.9019992 51.274,45.07 C50.7606641,45.266001 50.3173352,45.3500001 49.944,45.322 C49.2439965,45.2753331 48.6933353,44.8740038 48.292,44.118 C47.9279982,43.4179965 47.746,42.5593384 47.746,41.542 C47.746,40.4406612 47.9513313,39.4746708 48.362,38.644 C48.8193356,37.7293288 49.4306628,37.2160006 50.196,37.104 C50.3453341,37.0853332 50.4899993,37.076 50.63,37.076 C51.7406722,37.076 52.3519994,37.7573265 52.464,39.12 C52.5200003,39.7453365 52.2726694,40.426663 51.722,41.164 C51.1246637,41.9760041 50.359338,42.5453317 49.426,42.872 C49.5286672,43.2453352 49.6079997,43.4879994 49.664,43.6 C49.7946673,43.8333345 49.9719989,43.95 50.196,43.95 C50.4106677,43.95 50.6393321,43.8660008 50.882,43.698 C51.0873344,43.5579993 51.227333,43.4226673 51.302,43.292 C51.3393335,43.2733332 51.3766665,43.1683343 51.414,42.977 C51.4513335,42.7856657 51.5493325,42.6480004 51.708,42.564 C51.7640003,42.5359999 51.829333,42.522 51.904,42.522 C52.1280011,42.522 52.3449989,42.6316656 52.555,42.851 C52.7650011,43.0703344 52.8466669,43.2966655 52.8,43.53 Z M50.602,38.602 C50.2286648,38.602 49.9253345,38.8679973 49.692,39.4 C49.3839985,40.1093369 49.2579997,40.8093299 49.314,41.5 C49.7526689,41.3599993 50.1586648,41.0333359 50.532,40.52 C50.9053352,40.0066641 51.092,39.5493353 51.092,39.148 C51.092,38.7839982 50.9286683,38.602 50.602,38.602 Z"/>
  </g>
</svg>
