<svg xmlns="http://www.w3.org/2000/svg" width="64" height="64" viewBox="0 0 64 64">
  <g fill="none" fill-rule="evenodd">
    <path fill="#5DAF38" fill-rule="nonzero" d="M43.7960939,12.4881773 L32.4881773,23.7960939 C29.3657704,26.9185008 29.3645354,31.9919524 32.4884687,35.1158857 L34.6034144,37.2308314 C37.7309745,40.3583915 42.7964646,40.3578643 45.9232062,37.2311228 L57.2311228,25.9232062 C60.3535297,22.8007993 60.3547646,17.7273476 57.2308314,14.6034144 L55.1158857,12.4884687 C51.9883256,9.36090862 46.9228355,9.36143576 43.7960939,12.4881773 Z M40.9676668,9.65975019 C45.6563738,4.97104323 53.2545238,4.97025254 57.9443129,9.66004161 L60.0592585,11.7749872 C64.7455973,16.461326 64.7437458,24.0674374 60.0595499,28.7516333 L48.7516333,40.0595499 C44.0629263,44.7482569 36.4647763,44.7490476 31.7749872,40.0592585 L29.6600416,37.9443129 C24.9737028,33.2579741 24.9755543,25.6518627 29.6597502,20.9676668 L40.9676668,9.65975019 Z"/>
    <path fill="#80D25B" fill-rule="nonzero" d="M17.7960939,21.4881773 L6.48817732,32.7960939 C3.36577042,35.9185008 3.36453545,40.9919524 6.48846873,44.1158857 L8.60341436,46.2308314 C11.7309745,49.3583915 16.7964646,49.3578643 19.9232062,46.2311228 L31.2311228,34.9232062 C34.3535297,31.8007993 34.3547646,26.7273476 31.2308314,23.6034144 L29.1158857,21.4884687 C25.9883256,18.3609086 20.9228355,18.3614358 17.7960939,21.4881773 Z M14.9676668,18.6597502 C19.6563738,13.9710432 27.2545238,13.9702525 31.9443129,18.6600416 L34.0592585,20.7749872 C38.7455973,25.461326 38.7437458,33.0674374 34.0595499,37.7516333 L22.7516333,49.0595499 C18.0629263,53.7482569 10.4647763,53.7490476 5.77498724,49.0592585 L3.66004161,46.9443129 C-1.02629717,42.2579741 -1.02444571,34.6518627 3.65975019,29.9676668 L14.9676668,18.6597502 Z"/>
    <path fill="#5DAF38" fill-rule="nonzero" d="M32.0245139,24.3854888 L36.361405,19.8025173 C37.1206173,19.0002264 37.0856951,17.7343781 36.2834043,16.9751659 C35.4811135,16.2159537 34.2152651,16.2508758 33.4560529,17.0531666 L29.1191618,21.6361382 C28.3599496,22.438429 28.3948717,23.7042773 29.1971626,24.4634896 C29.9994534,25.2227018 31.2653017,25.1877796 32.0245139,24.3854888 Z" transform="rotate(1 32.74 20.72)"/>
  </g>
</svg>
