<svg xmlns="http://www.w3.org/2000/svg" width="64" height="64" viewBox="0 0 64 64">
  <path fill="#0A3586" fill-rule="evenodd" d="M48.2645353,35.6397033 C48.2645353,31.4977024 45.0495092,28.2061364 41.4695955,28.2061364 C38.7342389,28.2061364 36.315954,28.2061364 34.7093605,31.6733106 C34.4127535,32.3134153 34.069406,34.1773034 34.069406,35.0991617 L34.069406,52.9999996 L25.3789962,52.999999 L25.3789959,30.2627511 L25.3789959,19.0477724 L34.4032662,19.0477724 L34.8484118,23.4707385 L35.0432215,23.4707385 C36.3461542,21.3690866 39.3073109,19.0477724 44.6496789,19.0477724 C51.1620507,19.0477724 57,24.2107227 57,33.6745179 L57,52.9999996 L48.2645353,52.9999996 L48.2645353,35.6397033 Z M13.6778785,15.0127708 C10.8346869,15.0127708 9,12.9977586 9,10.5079507 C9,7.95761931 10.894072,6 13.794565,6 C16.6950581,6 18.4724436,7.9565758 18.5318286,10.5079507 C18.5328705,12.9977586 16.6960999,15.0127708 13.6778785,15.0127708 L13.6778785,15.0127708 Z M10.0468786,52.9999996 L10.0468784,19.0477728 L17.6775281,19.0477732 L17.6775283,53 L10.0468786,52.9999996 Z"/>
</svg>
