<svg xmlns="http://www.w3.org/2000/svg" width="64" height="64" viewBox="0 0 64 64">
  <g fill="none" fill-rule="evenodd">
    <circle cx="32" cy="32" r="30" stroke="#0A3586" stroke-linecap="round" stroke-width="2"/>
    <path fill="#0A3586" d="M40.6322676,32.5045356 C40.6322676,30.4775991 39.0247546,28.8668327 37.2347977,28.8668327 C35.8671194,28.8668327 34.657977,28.8668327 33.8546802,30.563535 C33.7063767,30.8767777 33.534703,31.7888931 33.534703,32.2400153 L33.534703,40.9999998 L29.1894981,40.9999995 L29.189498,29.8732612 L29.189498,24.3850801 L33.7016331,24.3850801 L33.9242059,26.5495103 L34.0216107,26.5495103 C34.6730771,25.5210424 36.1536554,24.3850801 38.8248394,24.3850801 C42.0810254,24.3850801 45,26.9116302 45,31.5428492 L45,40.9999998 L40.6322676,40.9999998 L40.6322676,32.5045356 Z M23.3389393,22.4105049 C21.9173434,22.4105049 21,21.4244351 21,20.2060184 C21,18.9579839 21.947036,18 23.3972825,18 C24.847529,18 25.7362218,18.9574733 25.7659143,20.2060184 C25.7664352,21.4244351 24.84805,22.4105049 23.3389393,22.4105049 L23.3389393,22.4105049 Z M21.5234393,40.9999998 L21.5234392,24.3850803 L25.338764,24.3850805 L25.3387642,41 L21.5234393,40.9999998 Z"/>
  </g>
</svg>
