<svg xmlns="http://www.w3.org/2000/svg" width="64" height="64" viewBox="0 0 64 64">
  <path fill="#0A3586" fill-rule="evenodd" d="M37.6875,49 L32,62 L26.3125,49 L6,49 L6,5 L58,5 L58,49 L37.6875,49 Z M40.6322676,26.5045356 L40.6322676,34.9999998 L45,34.9999998 L45,25.5428492 C45,20.9116302 42.0810254,18.3850801 38.8248394,18.3850801 C36.1536554,18.3850801 34.6730771,19.5210424 34.0216107,20.5495103 L33.9242059,20.5495103 L33.7016331,18.3850801 L29.189498,18.3850801 L29.189498,23.8732612 L29.1894981,34.9999995 L33.534703,34.9999998 L33.534703,26.2400153 C33.534703,25.7888931 33.7063767,24.8767777 33.8546802,24.563535 C34.657977,22.8668327 35.8671194,22.8668327 37.2347977,22.8668327 C39.0247546,22.8668327 40.6322676,24.4775991 40.6322676,26.5045356 Z M23.3389393,16.4105049 C24.84805,16.4105049 25.7664352,15.4244351 25.7659143,14.2060184 C25.7362218,12.9574733 24.847529,12 23.3972825,12 C21.947036,12 21,12.9579839 21,14.2060184 C21,15.4244351 21.9173434,16.4105049 23.3389393,16.4105049 Z M21.5234393,34.9999998 L25.3387642,35 L25.338764,18.3850805 L21.5234392,18.3850803 L21.5234393,34.9999998 Z"/>
</svg>
