<svg xmlns="http://www.w3.org/2000/svg" width="64" height="64" viewBox="0 0 64 64">
  <g fill="none" fill-rule="evenodd">
    <rect width="58" height="43" x="3" y="11" fill="#BD7575" rx="4"/>
    <path stroke="#FFF" stroke-linecap="square" stroke-width="2" d="M4 17L60 17M47 12L47 15"/>
    <path fill="#FFAF40" d="M15.86,30.72 C15.8866668,30.9600012 15.766668,31.1866656 15.5,31.4 C15.0466644,31.7466684 14.8066668,31.9333332 14.78,31.96 L11.6,35.68 L15.08,38.96 C15.5333356,39.3866688 15.76,39.7733316 15.76,40.12 C15.76,40.253334 15.7333336,40.386666 15.68,40.52 C15.4533322,41.0933362 15.0333364,41.38 14.42,41.38 C14.1799988,41.38 13.9333346,41.3266672 13.68,41.22 C13.4266654,41.1133328 13.2866668,40.9800008 13.26,40.82 C13.2333332,40.6599992 13.2133334,40.4866676 13.2,40.3 C13.1866666,40.166666 13.1333338,40.0533338 13.04,39.96 L10.48,37.64 C9.7866632,37.0666638 9.44,36.4866696 9.44,35.9 C9.44,35.3266638 9.8166629,34.6166709 10.57,33.77 C11.3233371,32.9233291 12.0866628,32.0800042 12.86,31.24 C12.926667,31.1599996 13.059999,30.9133354 13.26,30.5 C13.4066674,30.2066652 13.5933322,30.0133338 13.82,29.92 C13.9666674,29.8666664 14.1333324,29.84 14.32,29.84 C14.6666684,29.84 15.0033317,29.9333324 15.33,30.12 C15.6566683,30.3066676 15.8333332,30.5066656 15.86,30.72 Z M20.04,41.1 C19.773332,41.6066692 19.2800036,41.86 18.56,41.86 C17.89333,41.86 17.426668,41.6333356 17.16,41.18 C17.0799996,41.046666 17.04,40.9000008 17.04,40.74 C17.04,40.606666 17.0866662,40.3866682 17.18,40.08 C17.2733338,39.7733318 17.32,39.520001 17.32,39.32 L17.24,26.4 L17.24,25.32 C17.2800002,25.1466658 17.466665,25.0033339 17.8,24.89 C18.133335,24.7766661 18.4866648,24.72 18.86,24.72 C19.4066694,24.72 19.7533326,24.819999 19.9,25.02 C20.0466674,25.220001 20.12,25.4266656 20.12,25.64 C20.12,25.7866674 20.0666672,26.0299983 19.96,26.37 C19.8533328,26.7100017 19.8,26.9866656 19.8,27.2 L19.8,39.2 C19.8,39.400001 19.8566661,39.6633317 19.97,39.99 C20.0833339,40.3166683 20.14,40.5533326 20.14,40.7 C20.14,40.8466674 20.106667,40.9799994 20.04,41.1 Z M24.72,26 C24.7600002,26.0400002 24.78,26.1066662 24.78,26.2 C24.78,26.3200006 24.7400004,26.5266652 24.66,26.82 C24.5666662,27.1800018 24.5066668,27.426666 24.48,27.56 C24.4533332,27.693334 24.4666664,27.9866644 24.52,28.44 C24.52,28.7200014 24.4366675,28.9033329 24.27,28.99 C24.1033325,29.0766671 23.8933346,29.12 23.64,29.12 C23.2799982,29.12 22.9133352,29.0466674 22.54,28.9 C22.0866644,28.7133324 21.86,28.4666682 21.86,28.16 C21.86,28.0666662 21.8999996,27.9366675 21.98,27.77 C22.0600004,27.6033325 22.1066666,27.4666672 22.12,27.36 C22.1466668,27.2533328 22.1466668,26.9866688 22.12,26.56 C22.0933332,26.226665 22.1599992,26.0000006 22.32,25.88 C22.5333344,25.7199992 22.9133306,25.64 23.46,25.64 C24.060003,25.64 24.4799988,25.7599988 24.72,26 Z M24.98,30.88 C24.98,31.0666676 24.8766677,31.3566647 24.67,31.75 C24.4633323,32.1433353 24.36,32.4666654 24.36,32.72 L24.36,38.6 C24.36,38.866668 24.4333326,39.2433309 24.58,39.73 C24.7266674,40.2166691 24.8,40.5533324 24.8,40.74 C24.8,41.006668 24.6933344,41.206666 24.48,41.34 C24.146665,41.5533344 23.7866686,41.66 23.4,41.66 C22.8933308,41.66 22.5333344,41.4866684 22.32,41.14 C22.0399986,40.7133312 21.9,39.4400106 21.9,37.32 C21.9,36.8133308 21.9099999,36.0233387 21.93,34.95 C21.9500001,33.8766613 21.96,33.0933358 21.96,32.6 C21.96,32.4133324 21.9400002,32.1700015 21.9,31.87 C21.8599998,31.5699985 21.84,31.353334 21.84,31.22 C21.84,30.7799978 21.9999984,30.4000016 22.32,30.08 C22.453334,29.946666 22.6999982,29.88 23.06,29.88 C23.4200018,29.88 23.7799982,29.9366661 24.14,30.05 C24.5000018,30.1633339 24.7299995,30.2933326 24.83,30.44 C24.9300005,30.5866674 24.98,30.7333326 24.98,30.88 Z M35.8,39.72 C35.7733332,40.0133348 35.5800018,40.2633323 35.22,40.47 C34.8599982,40.6766677 34.4600022,40.78 34.02,40.78 C33.3666634,40.78 32.9200012,40.5733354 32.68,40.16 C32.7866672,36.0533128 32.6666684,33.9733336 32.32,33.92 C31.986665,33.8666664 31.1733398,35.706648 29.88,39.44 L29.88,40.64 C29.8666666,41.1200024 29.7366679,41.459999 29.49,41.66 C29.2433321,41.860001 28.9800014,41.96 28.7,41.96 C28.2199976,41.96 27.7066694,41.7000026 27.16,41.18 C26.9999992,41.046666 26.9133334,40.0333428 26.9,38.14 C26.9133334,39.3000058 26.92,37.146694 26.92,31.68 C26.92,31.5599994 26.9066668,31.3966677 26.88,31.19 C26.8533332,30.9833323 26.84,30.8333338 26.84,30.74 C26.84,30.4866654 26.906666,30.2666676 27.04,30.08 C27.2000008,29.8399988 27.4533316,29.72 27.8,29.72 C28.1600018,29.72 28.5366647,29.8299989 28.93,30.05 C29.3233353,30.2700011 29.5599996,30.479999 29.64,30.68 C29.6933336,30.813334 29.72,30.946666 29.72,31.08 C29.72,31.213334 29.6666672,31.3999988 29.56,31.64 C29.4533328,31.8800012 29.4,32.0799992 29.4,32.24 L29.4,35 C30.2400042,33.2133244 30.8733312,32.0333362 31.3,31.46 C32.0600038,30.4733284 32.9199952,30.013333 33.88,30.08 C34.4533362,30.1200002 34.8599988,30.6533282 35.1,31.68 C35.2866676,32.4533372 35.3866666,33.5999924 35.4,35.12 L35.4,38.72 C35.4266668,38.8133338 35.5199992,38.9799988 35.68,39.22 C35.7733338,39.353334 35.8133334,39.519999 35.8,39.72 Z M46.8,39.44 C46.8133334,39.5333338 46.82,39.6266662 46.82,39.72 C46.82,40.520004 46.3733378,41.0599986 45.48,41.34 C45.3066658,41.3933336 45.153334,41.42 45.02,41.42 C44.7799988,41.42 44.560001,41.3066678 44.36,41.08 C44.0533318,40.746665 43.866667,40.5600002 43.8,40.52 L40.2,38 L40.2,39.68 C40.2,39.8000006 40.2366663,39.9499991 40.31,40.13 C40.3833337,40.3100009 40.42,40.4466662 40.42,40.54 C40.42,40.6866674 40.3466674,40.8399992 40.2,41 C39.866665,41.3466684 39.3866698,41.52 38.76,41.52 C38.159997,41.52 37.7733342,41.320002 37.6,40.92 C37.5199996,40.7333324 37.4933332,40.540001 37.52,40.34 C37.5733336,39.9933316 37.6,39.7600006 37.6,39.64 L37.6,26.48 C37.5866666,26.2399988 37.613333,25.8800024 37.68,25.4 C37.8000006,25.1066652 38.1666636,24.96 38.78,24.96 C39.580004,24.96 40.0933322,25.1066652 40.32,25.4 C40.4400006,25.5600008 40.5,25.7333324 40.5,25.92 C40.5,26.0666674 40.4500005,26.2933318 40.35,26.6 C40.2499995,26.9066682 40.2,27.1466658 40.2,27.32 C40.1733332,28.0933372 40.1733332,30.2733154 40.2,33.86 C40.9466704,33.1399964 41.9066608,32.2000058 43.08,31.04 C43.2400008,30.8799992 43.4466654,30.5933354 43.7,30.18 C43.8466674,29.9399988 44.0666652,29.7800004 44.36,29.7 C44.4400004,29.6733332 44.5333328,29.66 44.64,29.66 C45.0266686,29.66 45.4233313,29.8066652 45.83,30.1 C46.2366687,30.3933348 46.44,30.706665 46.44,31.04 C46.44,31.2266676 46.306668,31.453332 46.04,31.72 C45.773332,31.986668 45.506668,32.2399988 45.24,32.48 L41.92,35.92 L45.48,38.48 C45.5066668,38.5066668 45.7733308,38.6133324 46.28,38.8 C46.5733348,38.9200006 46.7466664,39.1333318 46.8,39.44 Z M52.68,37.42 L49.98,39.96 C49.8733328,40.0533338 49.82,40.2733316 49.82,40.62 C49.8066666,40.886668 49.6466682,41.086666 49.34,41.22 C49.0866654,41.3266672 48.8400012,41.38 48.6,41.38 C47.9866636,41.38 47.5666678,41.0933362 47.34,40.52 C47.2866664,40.386666 47.26,40.253334 47.26,40.12 C47.26,39.7733316 47.4866644,39.3866688 47.94,38.96 L51.42,35.68 L48.24,31.96 C48.2133332,31.9333332 47.9733356,31.7466684 47.52,31.4 C47.2399986,31.1866656 47.1199998,30.9600012 47.16,30.72 C47.1866668,30.5066656 47.3633317,30.3066676 47.69,30.12 C48.0166683,29.9333324 48.3533316,29.84 48.7,29.84 C48.8866676,29.84 49.0533326,29.8666664 49.2,29.92 C49.4266678,30.0133338 49.6133326,30.1999986 49.76,30.48 C49.9866678,30.9333356 50.1199998,31.1866664 50.16,31.24 C50.3866678,31.5333348 51.16666,32.379993 52.5,33.78 C53.2866706,34.6066708 53.68,35.2733308 53.68,35.78 C53.68,36.313336 53.34667,36.8599972 52.68,37.42 Z"/>
  </g>
</svg>
