<svg xmlns="http://www.w3.org/2000/svg" width="64" height="64" viewBox="0 0 64 64">
  <g fill="none" fill-rule="evenodd">
    <path stroke="#D8D8D8" stroke-linecap="round" stroke-width="2" d="M26.3308096,54.9991834 C26.3308096,54.9991834 23.3884557,53.3581749 18.2350085,56.2271042 C13.0815613,59.0960336 12.71026,55.0326124 9.76133973,55.0326124 C6.81241941,55.0326124 5.25378966,58.0215282 5.25378966,58.0215282"/>
    <path fill="#969696" d="M23,34 L45,34 L45,49.9985976 C45,56.0745044 40.076468,61 34,61 L34,61 C27.9248678,61 23,56.0791789 23,49.9985976 L23,34 Z"/>
    <path fill="#D8D8D8" d="M27,31 L41,31 L41,49.0028631 C41,52.8672751 37.8581267,56 34,56 L34,56 C30.1340068,56 27,52.8590466 27,49.0028631 L27,31 Z"/>
    <path fill="#ED9111" d="M35.7995349,46.9171562 C34.8056792,46.4246621 33.195164,46.4242442 32.2004651,46.9171562 L26.9070111,49.5402686 C25.9131555,50.0327628 24.7472975,49.6091499 24.3021517,48.5921773 L21.9332348,43.18019 C21.4884664,42.1640795 20.2550087,41.1285402 19.1761875,40.8667526 L13.4350623,39.4736066 C12.3571556,39.2120409 11.7363497,38.1381355 12.0490456,37.0729552 L13.7131083,31.4044219 C14.0255392,30.3401445 13.7462876,28.754024 13.0881364,27.8600302 L9.58567638,23.1024943 C8.9280831,22.2092583 9.14281126,20.9875527 10.0670349,20.3725742 L14.9854439,17.0998648 C15.9088842,16.4854076 16.7145037,15.0908694 16.7849788,13.982979 L17.1600238,8.08715716 C17.2304392,6.98020583 18.1802277,6.18234967 19.2835247,6.30532837 L25.1549016,6.95977984 C26.2572634,7.0826543 27.7707956,6.53221826 28.5369209,5.72882549 L32.6139832,1.45343824 C33.3794592,0.650726464 34.6198914,0.650045469 35.3860168,1.45343824 L39.4630791,5.72882549 C40.228555,6.53153727 41.7418014,7.08275854 42.8450984,6.95977984 L48.7164753,6.30532837 C49.8188371,6.18245391 50.7695011,6.97926673 50.8399762,8.08715716 L51.2150212,13.982979 C51.2854366,15.0899303 52.0903324,16.4848863 53.0145561,17.0998648 L57.9329651,20.3725742 C58.8564053,20.9870314 59.0724748,22.2085005 58.4143236,23.1024943 L54.9118636,27.8600302 C54.2542703,28.7532662 53.9741958,30.3392416 54.2868917,31.4044219 L55.9509544,37.0729552 C56.2633853,38.1372326 55.6437589,39.211819 54.5649377,39.4736066 L48.8238125,40.8667526 C47.7459058,41.1283183 46.511911,42.1632174 46.0667652,43.18019 L43.6978483,48.5921773 C43.2530798,49.6082878 42.0876877,50.0331806 41.0929889,49.5402686 L35.7995349,46.9171562 Z" transform="rotate(15 34 26)"/>
    <circle cx="34" cy="27" r="13" fill="#D8D8D8"/>
    <circle cx="29.5" cy="25.5" r="3.5" fill="#FFF"/>
    <circle cx="29.5" cy="26.5" r="1.5" fill="#595959"/>
    <circle cx="38.5" cy="25.5" r="3.5" fill="#FFF"/>
    <circle cx="38.5" cy="26.5" r="1.5" fill="#595959"/>
    <path fill="#969696" d="M37.5,38 C39.9852814,38 42,35.9852814 42,33.5 C42,31.0147186 39.9852814,29 37.5,29 C36.3468523,29 35.1531477,28.3877172 34,28.3877172 C32.8198144,28.3877172 31.6801856,29 30.5,29 C28.0147186,29 26,31.0147186 26,33.5 C26,35.9852814 28.0147186,38 30.5,38 C31.9136331,38 33.1750222,37.3481665 34,36.3286672 C34.8249778,37.3481665 36.0863669,38 37.5,38 Z"/>
    <path fill="#595959" d="M34,31.6328324 C35.6568542,31.6328324 37,33.055285 37,31 C37,28.944715 35.5,28 34,28 C32.5,28 31,29.0527572 31,31 C31,32.9472428 32.3431458,31.6328324 34,31.6328324 Z"/>
    <path fill="#969696" d="M5.26426684,56.1091988 C5.26426684,56.1091988 -0.490051154,58.0786646 1.13020861,63 C1.13020861,63 4.66495559,61.7983972 6.25457637,60.4042444 C7.84419716,59.0100916 5.26426684,56.1091988 5.26426684,56.1091988 Z"/>
  </g>
</svg>
