<svg xmlns="http://www.w3.org/2000/svg" width="64" height="64" viewBox="0 0 64 64">
  <g fill="none" fill-rule="evenodd">
    <rect width="60" height="30" x="2" y="14" fill="#E43535" rx="3"/>
    <path fill="#FFF" d="M32.029,31.844 C32.0850003,31.9560006 32.113,32.0819993 32.113,32.222 C32.113,32.4553345 32.0406674,32.6793323 31.896,32.894 C31.7513326,33.1086677 31.5833343,33.2509996 31.392,33.321 C31.2006657,33.3910004 30.9276684,33.426 30.573,33.426 C30.2183316,33.426 29.9616675,33.4493331 29.803,33.496 C29.6443325,33.5426669 29.4623344,33.6873321 29.257,33.93 C29.0796658,34.126001 28.7716689,34.2566663 28.333,34.322 C28.062332,34.3593335 27.7870014,34.2660011 27.507,34.042 C27.2269986,33.8179989 27.0356672,33.5426683 26.933,33.216 C26.9143332,33.1506663 26.905,33.0900003 26.905,33.034 C26.905,32.9126661 26.972666,32.7773341 27.108,32.628 C27.243334,32.4786659 27.3063334,32.3480006 27.297,32.236 L26.709,23.752 C26.709,23.7146665 26.6600005,23.628334 26.562,23.493 C26.4639995,23.357666 26.415,23.2433338 26.415,23.15 C26.415,23.0193327 26.4849993,22.8933339 26.625,22.772 C26.821001,22.5946658 27.1009982,22.506 27.465,22.506 C27.7730015,22.506 28.0693319,22.5713327 28.354,22.702 C28.6386681,22.8326673 28.818333,22.9866658 28.893,23.164 C28.9396669,23.2666672 28.963,23.355333 28.963,23.43 C28.963,23.5140004 28.9210004,23.5979996 28.837,23.682 C28.7529996,23.7660004 28.7156666,23.845333 28.725,23.92 L29.229,31.648 L30.069,31.312 C30.2463342,31.2279996 30.4259991,31.1463337 30.608,31.067 C30.7900009,30.9876663 30.9416661,30.948 31.063,30.948 C31.3990017,30.948 31.7209985,31.2466637 32.029,31.844 Z M34.997,33.888 C34.9129996,34.1213345 34.6703353,34.238 34.269,34.238 C34.1569994,34.238 34.0356673,34.2286668 33.905,34.21 C33.1396628,34.0886661 32.6916673,33.8600017 32.561,33.524 C32.5329999,33.4586663 32.519,33.3933337 32.519,33.328 C32.519,33.131999 32.6263323,32.936001 32.841,32.74 C32.8036665,31.339993 32.7196673,28.4840216 32.589,24.172 C32.5983334,24.0506661 32.565667,23.9083342 32.491,23.745 C32.416333,23.5816659 32.379,23.462667 32.379,23.388 C32.379,23.2199992 32.4863323,23.0426676 32.701,22.856 C32.8503341,22.7253327 33.060332,22.66 33.331,22.66 C33.6390015,22.66 33.9656649,22.7393325 34.311,22.898 C34.7216687,23.094001 34.927,23.3319986 34.927,23.612 C34.927,23.6773337 34.829001,23.9293311 34.633,24.368 L34.773,32.852 C34.773,32.9640006 34.8149996,33.1063325 34.899,33.279 C34.9830004,33.4516675 35.025,33.5893328 35.025,33.692 C35.025,33.7573337 35.0156668,33.8226663 34.997,33.888 Z M42.851,24.424 L40.583,32.656 C40.5736666,32.6933335 40.569,32.7353331 40.569,32.782 C40.569,32.8473337 40.5806666,32.9639992 40.604,33.132 C40.6273335,33.3000008 40.639,33.4306662 40.639,33.524 C40.639,33.8040014 40.5573341,34.0303325 40.394,34.203 C40.2306659,34.3756675 40.0323345,34.462 39.799,34.462 C39.4536649,34.462 39.0756687,34.2776685 38.665,33.909 C38.2543313,33.5403315 38.049,33.1880017 38.049,32.852 C38.049,32.7959997 38.0723331,32.6933341 38.119,32.544 C38.1563335,32.4226661 38.1656668,32.3200004 38.147,32.236 L36.551,24.256 C36.5416666,24.1906663 36.4460009,24.0880007 36.264,23.948 C36.0819991,23.8079993 35.991,23.6586675 35.991,23.5 C35.991,23.0799979 36.3876627,22.87 37.181,22.87 C37.5263351,22.87 37.8413319,22.9259994 38.126,23.038 C38.4106681,23.1500006 38.5856663,23.303999 38.651,23.5 C38.6696668,23.5560003 38.679,23.6119997 38.679,23.668 C38.679,23.7520004 38.641667,23.8733325 38.567,24.032 C38.492333,24.1906675 38.4643332,24.3213328 38.483,24.424 L39.491,29.688 L40.919,24.088 C40.9376668,24.0039996 40.947,23.9060006 40.947,23.794 L40.947,23.43 C40.947,23.1406652 41.0776654,22.9120008 41.339,22.744 C41.5070008,22.6413328 41.7123321,22.59 41.955,22.59 C42.3283352,22.59 42.6783317,22.6903323 43.005,22.891 C43.3316683,23.0916677 43.495,23.327332 43.495,23.598 C43.495,23.672667 43.4763335,23.7543329 43.439,23.843 C43.4016665,23.9316671 43.3013342,24.0249995 43.138,24.123 C42.9746658,24.2210005 42.8790001,24.3213328 42.851,24.424 Z M49.599,24.172 C49.3843323,24.3493342 49.1090017,24.438 48.773,24.438 C48.6329993,24.438 48.4696676,24.4240001 48.283,24.396 C48.012332,24.4800004 47.7696677,24.5639996 47.555,24.648 C47.0323307,24.844001 46.6870008,25.0119993 46.519,25.152 C46.4629997,26.1226715 46.4629997,27.2333271 46.519,28.484 C46.5750003,28.4466665 46.7149989,28.4093335 46.939,28.372 C47.0510006,28.175999 47.242332,28.078 47.513,28.078 C47.783668,28.078 48.0986649,28.2086654 48.458,28.47 C48.8173351,28.7313346 48.997,28.9879987 48.997,29.24 C48.997,29.3053337 48.9830001,29.3706663 48.955,29.436 C48.8429994,29.7160014 48.6703345,29.893333 48.437,29.968 C48.2969993,30.0146669 48.091668,30.0263334 47.821,30.003 C47.550332,29.9796665 47.377667,29.9866665 47.303,30.024 C47.0883323,30.1266672 46.8270015,30.2479993 46.519,30.388 C46.519,31.2280042 46.5469997,31.7693321 46.603,32.012 C46.995002,31.9186662 47.3216654,31.8066673 47.583,31.676 C47.6296669,31.6106663 47.6763331,31.5500003 47.723,31.494 C47.8163338,31.3913328 47.9843321,31.3493332 48.227,31.368 C48.4883346,31.3866668 48.7589986,31.5359986 49.039,31.816 C49.3190014,32.0960014 49.459,32.3806652 49.459,32.67 C49.459,32.9220013 49.3516677,33.1086661 49.137,33.23 C48.9223323,33.3513339 48.5630025,33.3933335 48.059,33.356 L46.743,34.014 C46.6869997,34.0420001 46.5656676,34.1353325 46.379,34.294 C46.2389993,34.4153339 46.1130006,34.476 46.001,34.476 C45.9636665,34.476 45.9216669,34.4713334 45.875,34.462 C45.3803309,34.3126659 44.9323353,33.9253365 44.531,33.3 C44.5029999,33.2533331 44.489,33.1973337 44.489,33.132 C44.489,33.1039999 44.5403328,32.9173351 44.643,32.572 C44.5403328,29.8559864 44.5216663,26.962682 44.587,23.892 C44.5216663,23.7986662 44.489,23.7053338 44.489,23.612 C44.489,23.3039985 44.7736638,23.1080004 45.343,23.024 C45.4643339,23.0053332 45.6183324,23.0379996 45.805,23.122 C45.9263339,23.1873337 46.0429994,23.2479997 46.155,23.304 L47.835,22.772 C47.8723335,22.7626666 47.9796658,22.7066672 48.157,22.604 C48.2783339,22.529333 48.4183325,22.492 48.577,22.492 C48.651667,22.492 48.7403328,22.5013332 48.843,22.52 C49.0483344,22.5573335 49.2513323,22.7183319 49.452,23.003 C49.6526677,23.2876681 49.753,23.5559987 49.753,23.808 C49.753,23.9666675 49.7016672,24.0879996 49.599,24.172 Z"/>
    <rect width="8" height="8" x="15" y="24" fill="#FFF"/>
  </g>
</svg>
