<svg xmlns="http://www.w3.org/2000/svg" width="64" height="64" viewBox="0 0 64 64">
  <g fill="none" fill-rule="evenodd">
    <rect width="58" height="58" x="4" y="3" fill="#ECECEC" rx="3"/>
    <path fill="#BD7575" d="M22,30.3333333 C22,33.4629469 24.4624339,36 27.5,36 C29.7186017,36 30.4995474,34.4707846 32.5,34.4707846 C34.5004526,34.4707846 35.2813983,36 37.5,36 C40.5375661,36 43,33.4629469 43,30.3333333 C43,27.7375102 41.3059222,25.5493501 38.9947139,24.8784354 C38.9982229,24.808165 39,24.7375679 39,24.6666667 C39,21.5370531 36.5286595,19 32.5,19 C28.4713405,19 26,21.5370531 26,24.6666667 C26,24.7375679 26.0017771,24.808165 26.0052861,24.8784354 C23.6940778,25.5493501 22,27.7375102 22,30.3333333 Z"/>
    <path fill="#BD7575" d="M28,15.9922734 C31.7020696,15.8421029 32,14.0816974 32,11.7248826 C32,9.36806769 30.2457936,7 28.0366546,7 C26.6635786,7 26.0074626,7.65784591 25.2764179,8.91618799 C24.5453733,10.1745301 24,10.8329307 24,11.7248826 C24,14.0816974 24.2979304,16.1424438 28,15.9922734 Z" transform="rotate(-22 28 11.5)"/>
    <path fill="#BD7575" d="M39,15.9922734 C42.7020696,15.8421029 43,14.0816974 43,11.7248826 C43,9.36806769 41.2457936,7 39.0366546,7 C37.6635786,7 37.0074626,7.65784591 36.2764179,8.91618799 C35.5453733,10.1745301 35,10.8329307 35,11.7248826 C35,14.0816974 35.2979304,16.1424438 39,15.9922734 Z" transform="scale(-1 1) rotate(-22 0 212.138)"/>
    <ellipse cx="22" cy="19.5" fill="#BD7575" rx="3" ry="4.5" transform="rotate(-45 22 19.5)"/>
    <ellipse cx="44" cy="20.5" fill="#BD7575" rx="3" ry="4.5" transform="rotate(48 44 20.5)"/>
    <text fill="#5EA7FF" font-family="MarkerFelt-Thin, Marker Felt" font-size="20" font-weight="300">
      <tspan x="15" y="56">LOST</tspan>
    </text>
  </g>
</svg>
