<svg xmlns="http://www.w3.org/2000/svg" width="64" height="64" viewBox="0 0 64 64">
  <g fill="none" fill-rule="evenodd">
    <path fill="#FF78C7" d="M6,55.5 C6,54.1192881 7.1181422,53 8.49257535,53 L26,53 L26,55.5 C26,56.8807119 24.8818578,58 23.5074247,58 L6,58 L6,55.5 Z"/>
    <g transform="rotate(-30 62.146 10.652)">
      <polygon fill="#5EA7FF" points="10 3 50 0 50 24 10 20"/>
      <polygon fill="#B4DFFB" points="50 0 55 1 55 23 50 24"/>
      <polygon fill="#D8D8D8" points="0 8 10 7 10 14.769 10 16 0 15"/>
      <path stroke="#FFF" stroke-width="2" d="M53,3 C51.3431458,3 50,4.34314575 50,6 C50,7.65685425 51.3431458,9 53,9 L53,9" transform="matrix(-1 0 0 1 103 0)"/>
      <path stroke="#FFF" stroke-width="2" d="M53,9 C51.3431458,9 50,10.3431458 50,12 C50,13.6568542 51.3431458,15 53,15 L53,15" transform="matrix(-1 0 0 1 103 0)"/>
      <path stroke="#FFF" stroke-width="2" d="M53,15 C51.3431458,15 50,16.3431458 50,18 C50,19.6568542 51.3431458,21 53,21 L53,21" transform="matrix(-1 0 0 1 103 0)"/>
    </g>
    <path fill="#E43535" d="M33.6628191,20.0621778 C31.4720896,20.0621778 29.6961524,21.3091021 29.6961524,23.8399556 C29.6961524,26.3708091 35.6850413,32.0621778 36.6961524,32.0621778 C37.7072635,32.0621778 43.6961524,26.3708091 43.6961524,23.8399556 C43.6961524,21.3091021 41.9202153,20.0621778 39.7294858,20.0621778 C38.5126497,20.0621778 37.4237863,20.5840029 36.6961524,21.4055037 C35.9685186,20.5840029 34.8796552,20.0621778 33.6628191,20.0621778 Z" transform="rotate(60 36.696 26.062)"/>
  </g>
</svg>
