<svg xmlns="http://www.w3.org/2000/svg" width="64" height="64" viewBox="0 0 64 64">
  <g fill="none" fill-rule="evenodd">
    <path fill="#B6B6B6" d="M6,27 L60,27 L60,59 L6,59 L6,27 Z M33,12 L60,27 L6,27 L33,12 Z"/>
    <polygon fill="#B4DFFB" points="13 5 42.105 5 53 16.753 53 55 13 55"/>
    <polygon fill="#4796E7" points="42 5 53 5 53 17" transform="rotate(-180 47.5 11)"/>
    <polygon fill="#D8D8D8" points="31 46.5 6 59 6 27"/>
    <polygon fill="#D8D8D8" points="60 46.5 35 59 35 27" transform="matrix(-1 0 0 1 95 0)"/>
    <polygon fill="#ECECEC" points="33 44 60 59 6 59"/>
    <path fill="#FF5EAC" d="M30.075362,34 C26.2285737,34 23.1101357,36.0589861 23.1101357,40.9652263 C23.1101357,45.8714665 32.8381592,55.2375388 33.9449322,54.4966884 C35.0517051,55.2375388 44.7797287,45.9714571 44.7797287,40.9652263 C44.7797287,35.9589956 41.6612906,34 37.8145024,34 C36.3826479,34 35.0517051,34.4320543 33.9449322,35.1729047 C32.8381592,34.4320543 31.5072164,34 30.075362,34 Z"/>
  </g>
</svg>
