<svg xmlns="http://www.w3.org/2000/svg" width="64" height="64" viewBox="0 0 64 64">
  <g fill="none" fill-rule="evenodd">
    <path fill="#5EA7FF" d="M19,5 C9.61115925,5 2,10.6111593 2,22 C2,33.3888407 27.6666667,59 32,59 C36.3333333,59 62,33.3888407 62,22 C62,10.6111593 54.3888407,5 45,5 C39.7849882,5 35.1184308,7.34821284 32,11.0449665 C28.8815692,7.34821284 24.2150118,5 19,5 Z"/>
    <path fill="#D8D8D8" d="M28.3214286,20 C25.7178005,20 24,22.9900983 24,26.6785714 C24,30.3670446 25.7178005,42 28.3214286,42 C29.8402925,42 30.0128203,32.3395704 32.0535714,32.3308234 C34.4871797,32.3395704 34.2668503,42 35.7857143,42 C38.3893424,42 40.1071429,30.3670446 40.1071429,26.6785714 C40.1071429,22.9900983 38.3893424,20 35.7857143,20 C34.5416667,20 33.297619,21.1785714 32.0535714,21.1785714 C30.8095238,21.1785714 29.5654762,20 28.3214286,20 Z"/>
  </g>
</svg>
