<svg xmlns="http://www.w3.org/2000/svg" width="64" height="64" viewBox="0 0 64 64">
  <g fill="none" fill-rule="evenodd">
    <polygon fill="#4796E7" points="11 5 18 5 18 56.505 11 56.505"/>
    <path fill="#5B68C0" d="M18,5 L50.0000796,5 C51.1046051,5 52,5.89493844 52,7.00138927 L52,53 L18,53 L18,5 Z"/>
    <path fill="#FF5EAC" d="M30.3768099,17 C25.7808387,17 22.0550678,19.4599849 22.0550678,25.3217421 C22.0550678,31.1834993 34.0033702,41.4885301 35,41.4885301 C36.0167841,41.4885301 47.9449322,31.3029636 47.9449322,25.3217421 C47.9449322,19.3405206 44.2191613,17 39.6231901,17 C37.9124741,17 36.322323,17.5161992 35,18.4013342 C33.677677,17.5161992 32.0875259,17 30.3768099,17 Z"/>
    <path fill="#ECECEC" d="M11,56.5 C11,54.5670034 12.5571833,53 14.4956369,53 L52,53 L52,60 L14.4956369,60 C12.56505,60 11,58.4290634 11,56.5 L11,56.5 Z"/>
  </g>
</svg>
