<svg xmlns="http://www.w3.org/2000/svg" width="64" height="64" viewBox="0 0 64 64">
  <g fill="none" fill-rule="evenodd">
    <rect width="58" height="58" x="5" y="4" fill="#B4DFFB"/>
    <polygon fill="#0A3586" points="8 7 60 7 60 59 8 59"/>
    <path fill="#B4DFFB" d="M35.88,41.84 C36.0400008,42.1600016 36.12,42.519998 36.12,42.92 C36.12,43.58667 35.9133354,44.2266636 35.5,44.84 C35.0866646,45.4533364 34.6066694,45.859999 34.06,46.06 C33.5133306,46.260001 32.7333384,46.36 31.72,46.36 C30.7066616,46.36 29.9733356,46.426666 29.52,46.56 C29.0666644,46.693334 28.5466696,47.1066632 27.96,47.8 C27.4533308,48.3600028 26.5733396,48.7333324 25.32,48.92 C24.5466628,49.0266672 23.760004,48.7600032 22.96,48.12 C22.159996,47.4799968 21.6133348,46.693338 21.32,45.76 C21.2666664,45.5733324 21.24,45.4000008 21.24,45.24 C21.24,44.8933316 21.4333314,44.5066688 21.82,44.08 C22.2066686,43.6533312 22.3866668,43.2800016 22.36,42.96 L20.68,18.72 C20.68,18.6133328 20.5400014,18.3666686 20.26,17.98 C19.9799986,17.5933314 19.84,17.266668 19.84,17 C19.84,16.6266648 20.039998,16.2666684 20.44,15.92 C21.0000028,15.4133308 21.7999948,15.16 22.84,15.16 C23.7200044,15.16 24.5666626,15.3466648 25.38,15.72 C26.1933374,16.0933352 26.7066656,16.5333308 26.92,17.04 C27.053334,17.3333348 27.12,17.5866656 27.12,17.8 C27.12,18.0400012 27.0000012,18.2799988 26.76,18.52 C26.5199988,18.7600012 26.4133332,18.9866656 26.44,19.2 L27.88,41.28 L30.28,40.32 C30.7866692,40.0799988 31.2999974,39.8466678 31.82,39.62 C32.3400026,39.3933322 32.7733316,39.28 33.12,39.28 C34.0800048,39.28 34.9999956,40.1333248 35.88,41.84 Z M53.52,27.6 C53.4133328,28.1600028 52.9066712,28.5466656 52,28.76 C50.933328,29.026668 50.2533348,29.3333316 49.96,29.68 L43.44,37.2 L43.44,43.28 C43.44,43.8666696 43.606665,44.459997 43.94,45.06 C44.273335,45.660003 44.44,46.1199984 44.44,46.44 C44.44,46.7600016 44.3466676,47.119998 44.16,47.52 C43.7066644,48.5333384 42.7866736,49.04 41.4,49.04 C40.4399952,49.04 39.6800028,48.7333364 39.12,48.12 C38.7466648,47.719998 38.56,47.2133364 38.56,46.6 C38.56,46.3866656 38.5866664,46.0400024 38.64,45.56 C38.6933336,45.0799976 38.72,44.6933348 38.72,44.4 L38.72,29.44 C38.72,29.1999988 38.6133344,28.9066684 38.4,28.56 C38.1866656,28.2133316 38.08,27.9333344 38.08,27.72 C38.08,27.5599992 38.1333328,27.3733344 38.24,27.16 C38.5866684,26.5199968 39.6666576,26.2 41.48,26.2 C42.8933404,26.2 43.6933324,26.53333 43.88,27.2 C43.9600004,27.466668 44,27.6933324 44,27.88 C44,28.1733348 43.8933344,28.3999992 43.68,28.56 C43.4666656,28.7200008 43.36,28.8799992 43.36,29.04 L43.44,30.48 L46.88,26.84 C47.280002,26.3866644 47.6999978,25.9333356 48.14,25.48 C48.5800022,25.0266644 49.0933304,24.7733336 49.68,24.72 C50.5866712,24.6399996 51.4599958,24.8399976 52.3,25.32 C53.1400042,25.8000024 53.56,26.4266628 53.56,27.2 C53.56,27.333334 53.5466668,27.466666 53.52,27.6 Z"/>
  </g>
</svg>
