<svg xmlns="http://www.w3.org/2000/svg" width="64" height="64" viewBox="0 0 64 64">
  <g fill="none" fill-rule="evenodd">
    <path fill="#5EA7FF" d="M1,25.9901786 C1,23.7864638 2.79044819,22 4.99936922,22 L22,22 L22,58 L4.99936922,58 C2.79057859,58 1,56.2147544 1,54.0098214 L1,25.9901786 Z"/>
    <polygon fill="#FCC24C" points="12 14 9.649 15.236 10.098 12.618 8.196 10.764 10.824 10.382 12 8 13.176 10.382 15.804 10.764 13.902 12.618 14.351 15.236"/>
    <polygon fill="#FCC24C" points="54 9 51.649 10.236 52.098 7.618 50.196 5.764 52.824 5.382 54 3 55.176 5.382 57.804 5.764 55.902 7.618 56.351 10.236"/>
    <polygon fill="#FCC24C" points="35 17 32.649 18.236 33.098 15.618 31.196 13.764 33.824 13.382 35 11 36.176 13.382 38.804 13.764 36.902 15.618 37.351 18.236"/>
    <rect width="21" height="36" x="22" y="22" fill="#E43535"/>
    <path fill="#FCC24C" d="M43,25.9901786 C43,23.7864638 44.7904482,22 46.9993692,22 L64,22 L64,58 L46.9993692,58 C44.7905786,58 43,56.2147544 43,54.0098214 L43,25.9901786 Z" transform="matrix(-1 0 0 1 107 0)"/>
    <path fill="#FFF" d="M18.528 33.644C18.4546663 33.9373348 18.2126687 34.2159987 17.802 34.48 17.3473311 34.7586681 17.0613339 35.0226654 16.944 35.272L12.192 45.964C12.0599993 46.2573348 11.9720002 46.9759943 11.928 48.12 11.8986665 48.9266707 11.6200026 49.4326656 11.092 49.638 10.8573322 49.7260004 10.6080013 49.77 10.344 49.77 9.6839967 49.77 9.07166949 49.5463356 8.507 49.099 7.94233051 48.6516644 7.67466652 48.1493361 7.704 47.592 7.73333348 47.195998 7.9313315 46.8440015 8.298 46.536 8.7380022 46.1693315 9.00933282 45.8760011 9.112 45.656L14.172 34.348 11.532 35.272C11.473333 35.3013335 11.1653361 35.4626652 10.608 35.756 10.2853317 35.9320009 9.9773348 35.990667 9.684 35.932 9.33199824 35.873333 8.99466828 35.6093357 8.672 35.14 8.34933172 34.6706643 8.188 34.2013357 8.188 33.732 8.188 33.3799982 8.29433227 33.0793346 8.507 32.83 8.71966773 32.5806654 9.0826641 32.4706665 9.596 32.5 10.3000035 32.5440002 10.7253326 32.5440002 10.872 32.5 11.7520044 32.3679993 12.9913253 32.0380026 14.59 31.51 15.9686736 31.0553311 16.7093328 30.8426665 16.812 30.872 17.3693361 31.0333341 17.8056651 31.311998 18.121 31.708 18.4363349 32.104002 18.594 32.5586641 18.594 33.072 18.594 33.2626676 18.5720002 33.4533324 18.528 33.644zM38.528 33.644C38.4546663 33.9373348 38.2126687 34.2159987 37.802 34.48 37.3473311 34.7586681 37.0613339 35.0226654 36.944 35.272L32.192 45.964C32.0599993 46.2573348 31.9720002 46.9759943 31.928 48.12 31.8986665 48.9266707 31.6200026 49.4326656 31.092 49.638 30.8573322 49.7260004 30.6080013 49.77 30.344 49.77 29.6839967 49.77 29.0716695 49.5463356 28.507 49.099 27.9423305 48.6516644 27.6746665 48.1493361 27.704 47.592 27.7333335 47.195998 27.9313315 46.8440015 28.298 46.536 28.7380022 46.1693315 29.0093328 45.8760011 29.112 45.656L34.172 34.348 31.532 35.272C31.473333 35.3013335 31.1653361 35.4626652 30.608 35.756 30.2853317 35.9320009 29.9773348 35.990667 29.684 35.932 29.3319982 35.873333 28.9946683 35.6093357 28.672 35.14 28.3493317 34.6706643 28.188 34.2013357 28.188 33.732 28.188 33.3799982 28.2943323 33.0793346 28.507 32.83 28.7196677 32.5806654 29.0826641 32.4706665 29.596 32.5 30.3000035 32.5440002 30.7253326 32.5440002 30.872 32.5 31.7520044 32.3679993 32.9913253 32.0380026 34.59 31.51 35.9686736 31.0553311 36.7093328 30.8426665 36.812 30.872 37.3693361 31.0333341 37.8056651 31.311998 38.121 31.708 38.4363349 32.104002 38.594 32.5586641 38.594 33.072 38.594 33.2626676 38.5720002 33.4533324 38.528 33.644zM58.528 33.644C58.4546663 33.9373348 58.2126687 34.2159987 57.802 34.48 57.3473311 34.7586681 57.0613339 35.0226654 56.944 35.272L52.192 45.964C52.0599993 46.2573348 51.9720002 46.9759943 51.928 48.12 51.8986665 48.9266707 51.6200026 49.4326656 51.092 49.638 50.8573322 49.7260004 50.6080013 49.77 50.344 49.77 49.6839967 49.77 49.0716695 49.5463356 48.507 49.099 47.9423305 48.6516644 47.6746665 48.1493361 47.704 47.592 47.7333335 47.195998 47.9313315 46.8440015 48.298 46.536 48.7380022 46.1693315 49.0093328 45.8760011 49.112 45.656L54.172 34.348 51.532 35.272C51.473333 35.3013335 51.1653361 35.4626652 50.608 35.756 50.2853317 35.9320009 49.9773348 35.990667 49.684 35.932 49.3319982 35.873333 48.9946683 35.6093357 48.672 35.14 48.3493317 34.6706643 48.188 34.2013357 48.188 33.732 48.188 33.3799982 48.2943323 33.0793346 48.507 32.83 48.7196677 32.5806654 49.0826641 32.4706665 49.596 32.5 50.3000035 32.5440002 50.7253326 32.5440002 50.872 32.5 51.7520044 32.3679993 52.9913253 32.0380026 54.59 31.51 55.9686736 31.0553311 56.7093328 30.8426665 56.812 30.872 57.3693361 31.0333341 57.8056651 31.311998 58.121 31.708 58.4363349 32.104002 58.594 32.5586641 58.594 33.072 58.594 33.2626676 58.5720002 33.4533324 58.528 33.644z"/>
  </g>
</svg>
