<svg xmlns="http://www.w3.org/2000/svg" width="64" height="64" viewBox="0 0 64 64">
  <g fill="none" fill-rule="evenodd">
    <rect width="6" height="11" x="29" y="45" fill="#D8D8D8"/>
    <rect width="14" height="1" x="25" y="57" stroke="#979797" stroke-width="2"/>
    <path fill="#868686" d="M2,10.995507 C2,9.34113416 3.33730974,8 4.99593743,8 L59.0040626,8 C60.6586731,8 62,9.34246828 62,10.995507 L62,44.004493 C62,45.6588658 60.6626903,47 59.0040626,47 L4.99593743,47 C3.34132688,47 2,45.6575317 2,44.004493 L2,10.995507 Z"/>
    <rect width="54" height="33" x="5" y="11" fill="#FFDD95"/>
    <path fill="#E43535" d="M23.704 33.294C23.9386678 33.6166683 24.056 33.9319985 24.056 34.24 24.056 34.6653355 23.8433355 35.0246652 23.418 35.318 22.9926645 35.6113348 22.5600022 35.758 22.12 35.758 21.9146656 35.758 21.6066687 35.7140004 21.196 35.626 20.8439982 35.5379996 20.6020007 35.5013333 20.47 35.516 19.79533 35.457333 18.8200064 35.5673319 17.544 35.846 15.9159919 36.1980018 15.0433339 36.3813333 14.926 36.396 14.529998 36.4400002 14.0533361 36.3446678 13.496 36.11 12.8359967 35.8313319 12.4986667 35.4793355 12.484 35.054 12.4693333 34.7459985 12.6453315 34.4893344 13.012 34.284 13.4520022 34.0346654 13.7159996 33.8220009 13.804 33.646 14.8600053 32.516661 16.0846597 30.9620099 17.478 28.982 19.6046773 25.9459848 20.668 23.7166738 20.668 22.294 20.668 21.7659974 20.5140015 21.3553348 20.206 21.062 20.1766665 21.0473333 20.1400002 21.04 20.096 21.04 19.8613322 21.04 19.4140033 21.3186639 18.754 21.876 18.1673304 22.3746692 17.8080007 22.7193324 17.676 22.91 17.5146659 23.0273339 17.3753339 23.3133311 17.258 23.768 17.1553328 24.164002 16.9280018 24.4353326 16.576 24.582 16.4733328 24.6260002 16.3486674 24.648 16.202 24.648 15.7619978 24.648 15.3073357 24.479335 14.838 24.142 14.3246641 23.7606648 14.038667 23.3353357 13.98 22.866 13.9506665 22.6313322 14.1706643 22.2793357 14.64 21.81 15.1093357 21.3406643 15.6226639 20.9446683 16.18 20.622 17.8373416 18.9353249 19.2453275 18.0993333 20.404 18.114 22.5600108 18.1580002 23.638 19.2726557 23.638 21.458 23.638 23.2033421 22.9853399 25.2933212 21.68 27.728 20.4479938 30.0453449 19.069341 31.8859932 17.544 33.25 17.9546687 33.191333 19.1573234 32.9566687 21.152 32.546 21.82667 32.4139993 22.1493335 32.348 22.12 32.348 22.7066696 32.348 23.2346643 32.6633302 23.704 33.294zM39.528 20.644C39.4546663 20.9373348 39.2126687 21.2159987 38.802 21.48 38.3473311 21.7586681 38.0613339 22.0226654 37.944 22.272L33.192 32.964C33.0599993 33.2573348 32.9720002 33.9759943 32.928 35.12 32.8986665 35.9266707 32.6200026 36.4326656 32.092 36.638 31.8573322 36.7260004 31.6080013 36.77 31.344 36.77 30.6839967 36.77 30.0716695 36.5463356 29.507 36.099 28.9423305 35.6516644 28.6746665 35.1493361 28.704 34.592 28.7333335 34.195998 28.9313315 33.8440015 29.298 33.536 29.7380022 33.1693315 30.0093328 32.8760011 30.112 32.656L35.172 21.348 32.532 22.272C32.473333 22.3013335 32.1653361 22.4626652 31.608 22.756 31.2853317 22.9320009 30.9773348 22.990667 30.684 22.932 30.3319982 22.873333 29.9946683 22.6093357 29.672 22.14 29.3493317 21.6706643 29.188 21.2013357 29.188 20.732 29.188 20.3799982 29.2943323 20.0793346 29.507 19.83 29.7196677 19.5806654 30.0826641 19.4706665 30.596 19.5 31.3000035 19.5440002 31.7253326 19.5440002 31.872 19.5 32.7520044 19.3679993 33.9913253 19.0380026 35.59 18.51 36.9686736 18.0553311 37.7093328 17.8426665 37.812 17.872 38.3693361 18.0333341 38.8056651 18.311998 39.121 18.708 39.4363349 19.104002 39.594 19.5586641 39.594 20.072 39.594 20.2626676 39.5720002 20.4533324 39.528 20.644zM53.528 20.644C53.4546663 20.9373348 53.2126687 21.2159987 52.802 21.48 52.3473311 21.7586681 52.0613339 22.0226654 51.944 22.272L47.192 32.964C47.0599993 33.2573348 46.9720002 33.9759943 46.928 35.12 46.8986665 35.9266707 46.6200026 36.4326656 46.092 36.638 45.8573322 36.7260004 45.6080013 36.77 45.344 36.77 44.6839967 36.77 44.0716695 36.5463356 43.507 36.099 42.9423305 35.6516644 42.6746665 35.1493361 42.704 34.592 42.7333335 34.195998 42.9313315 33.8440015 43.298 33.536 43.7380022 33.1693315 44.0093328 32.8760011 44.112 32.656L49.172 21.348 46.532 22.272C46.473333 22.3013335 46.1653361 22.4626652 45.608 22.756 45.2853317 22.9320009 44.9773348 22.990667 44.684 22.932 44.3319982 22.873333 43.9946683 22.6093357 43.672 22.14 43.3493317 21.6706643 43.188 21.2013357 43.188 20.732 43.188 20.3799982 43.2943323 20.0793346 43.507 19.83 43.7196677 19.5806654 44.0826641 19.4706665 44.596 19.5 45.3000035 19.5440002 45.7253326 19.5440002 45.872 19.5 46.7520044 19.3679993 47.9913253 19.0380026 49.59 18.51 50.9686736 18.0553311 51.7093328 17.8426665 51.812 17.872 52.3693361 18.0333341 52.8056651 18.311998 53.121 18.708 53.4363349 19.104002 53.594 19.5586641 53.594 20.072 53.594 20.2626676 53.5720002 20.4533324 53.528 20.644z"/>
  </g>
</svg>
