<svg xmlns="http://www.w3.org/2000/svg" width="64" height="64" viewBox="0 0 64 64">
  <g fill="none" fill-rule="evenodd">
    <path fill="#FFAF40" d="M26.1012701,42 L37.1012701,42 C37.1012701,42 36.6092632,44.6135827 37.1702861,47.5 C37.7313091,50.3864173 39.2393022,55 39.2393022,55 C39.2393022,55 37.3297942,56 35.4202861,58 C33.5107781,60 31.6012701,63 31.6012701,63 C31.6012701,63 29.7009526,60 27.8006351,58 C25.9003175,56 24,55 24,55 C24,55 25.5509729,50.1156962 26.0506351,47.5 C26.5502973,44.8843038 26.1012701,42 26.1012701,42 Z"/>
    <circle cx="31.5" cy="50.5" r="2.5" fill="#5B68C0"/>
    <path fill="#5B68C0" d="M24,10.4965075 C24,6.35630071 27.3662928,3 31.5,3 L31.5,3 C35.6421356,3 39,6.35887265 39,10.4965075 L39,42 L24,42 L24,10.4965075 Z"/>
    <path fill="#4796E7" d="M29,9.50226064 C29,8.12030025 30.1096621,7 31.5,7 L31.5,7 C32.8807119,7 34,8.12122893 34,9.50226064 L34,29 L29,29 L29,9.50226064 Z"/>
  </g>
</svg>
