<svg xmlns="http://www.w3.org/2000/svg" width="64" height="64" viewBox="0 0 64 64">
  <g fill="none" fill-rule="evenodd">
    <path fill="#6B6B6B" d="M26.4142136,4.27386361 L30.8198052,4.27386361 L30.8198052,62.2775562 C30.8198052,63.3800864 29.928268,64.2738636 28.8232526,64.2738636 L28.4107661,64.2738636 C27.3081006,64.2738636 26.4142136,63.3791332 26.4142136,62.2775562 L26.4142136,4.27386361 Z" transform="rotate(45 28.617 34.274)"/>
    <circle cx="50" cy="13" r="4" fill="#F5413E"/>
    <path fill="#ED9111" fill-rule="nonzero" d="M49.4130116,6.945626 L48.3777354,3.08192269 C48.2347936,2.54845659 47.6864566,2.2318741 47.1529905,2.37481591 C46.6195244,2.51775772 46.3029419,3.06609468 46.4458837,3.59956078 L47.4811599,7.46326409 C47.6241017,7.99673019 48.1724387,8.31331268 48.7059048,8.17037087 C49.2393709,8.02742906 49.5559534,7.4790921 49.4130116,6.945626 Z M54.9497475,9.46446609 L57.7781746,6.63603897 C58.1686989,6.24551468 58.1686989,5.6123497 57.7781746,5.22182541 C57.3876503,4.83130112 56.7544853,4.83130112 56.363961,5.22182541 L53.5355339,8.05025253 C53.1450096,8.44077682 53.1450096,9.0739418 53.5355339,9.46446609 C53.9260582,9.85499039 54.5592232,9.85499039 54.9497475,9.46446609 Z M55.5367359,15.5188401 L59.4004392,16.5541163 C59.9339053,16.6970581 60.4822423,16.3804756 60.6251841,15.8470095 C60.7681259,15.3135434 60.4515434,14.7652064 59.9180773,14.6222646 L56.054374,13.5869884 C55.5209079,13.4440466 54.9725709,13.7606291 54.8296291,14.2940952 C54.6866873,14.8275613 55.0032698,15.3758983 55.5367359,15.5188401 Z M50.5869884,19.054374 L51.6222646,22.9180773 C51.7652064,23.4515434 52.3135434,23.7681259 52.8470095,23.6251841 C53.3804756,23.4822423 53.6970581,22.9339053 53.5541163,22.4004392 L52.5188401,18.5367359 C52.3758983,18.0032698 51.8275613,17.6866873 51.2940952,17.8296291 C50.7606291,17.9725709 50.4440466,18.5209079 50.5869884,19.054374 Z M45.0502525,16.5355339 L42.2218254,19.363961 C41.8313011,19.7544853 41.8313011,20.3876503 42.2218254,20.7781746 C42.6123497,21.1686989 43.2455147,21.1686989 43.636039,20.7781746 L46.4644661,17.9497475 C46.8549904,17.5592232 46.8549904,16.9260582 46.4644661,16.5355339 C46.0739418,16.1450096 45.4407768,16.1450096 45.0502525,16.5355339 Z M44.4632641,10.4811599 L40.5995608,9.44588372 C40.0660947,9.30294191 39.5177577,9.6195244 39.3748159,10.1529905 C39.2318741,10.6864566 39.5484566,11.2347936 40.0819227,11.3777354 L43.945626,12.4130116 C44.4790921,12.5559534 45.0274291,12.2393709 45.1703709,11.7059048 C45.3133127,11.1724387 44.9967302,10.6241017 44.4632641,10.4811599 Z"/>
    <path fill="#FFAF40" fill-rule="nonzero" d="M44.7081489,42.2322266 L48.6537692,46.1778468 C49.0442935,46.5683711 49.6774585,46.5683711 50.0679828,46.1778468 C50.458507,45.7873225 50.458507,45.1541575 50.0679828,44.7636333 L46.1223625,40.818013 C45.7318382,40.4274887 45.0986732,40.4274887 44.7081489,40.818013 C44.3176246,41.2085373 44.3176246,41.8417023 44.7081489,42.2322266 Z"/>
    <path fill="#FFAF40" fill-rule="nonzero" d="M46.1223625 46.1778468L50.0679828 42.2322266C50.458507 41.8417023 50.458507 41.2085373 50.0679828 40.818013 49.6774585 40.4274887 49.0442935 40.4274887 48.6537692 40.818013L44.7081489 44.7636333C44.3176246 45.1541575 44.3176246 45.7873225 44.7081489 46.1778468 45.0986732 46.5683711 45.7318382 46.5683711 46.1223625 46.1778468zM21.7081489 48.2322266L25.6537692 52.1778468C26.0442935 52.5683711 26.6774585 52.5683711 27.0679828 52.1778468 27.458507 51.7873225 27.458507 51.1541575 27.0679828 50.7636333L23.1223625 46.818013C22.7318382 46.4274887 22.0986732 46.4274887 21.7081489 46.818013 21.3176246 47.2085373 21.3176246 47.8417023 21.7081489 48.2322266z"/>
    <path fill="#FFAF40" fill-rule="nonzero" d="M23.1223625 52.1778468L27.0679828 48.2322266C27.458507 47.8417023 27.458507 47.2085373 27.0679828 46.818013 26.6774585 46.4274887 26.0442935 46.4274887 25.6537692 46.818013L21.7081489 50.7636333C21.3176246 51.1541575 21.3176246 51.7873225 21.7081489 52.1778468 22.0986732 52.5683711 22.7318382 52.5683711 23.1223625 52.1778468zM26.7081489 8.23222655L30.6537692 12.1778468C31.0442935 12.5683711 31.6774585 12.5683711 32.0679828 12.1778468 32.458507 11.7873225 32.458507 11.1541575 32.0679828 10.7636333L28.1223625 6.81801299C27.7318382 6.4274887 27.0986732 6.4274887 26.7081489 6.81801299 26.3176246 7.20853728 26.3176246 7.84170226 26.7081489 8.23222655z"/>
    <path fill="#FFAF40" fill-rule="nonzero" d="M28.1223625 12.1778468L32.0679828 8.23222655C32.458507 7.84170226 32.458507 7.20853728 32.0679828 6.81801299 31.6774585 6.4274887 31.0442935 6.4274887 30.6537692 6.81801299L26.7081489 10.7636333C26.3176246 11.1541575 26.3176246 11.7873225 26.7081489 12.1778468 27.0986732 12.5683711 27.7318382 12.5683711 28.1223625 12.1778468zM20.7081489 20.2322266L24.6537692 24.1778468C25.0442935 24.5683711 25.6774585 24.5683711 26.0679828 24.1778468 26.458507 23.7873225 26.458507 23.1541575 26.0679828 22.7636333L22.1223625 18.818013C21.7318382 18.4274887 21.0986732 18.4274887 20.7081489 18.818013 20.3176246 19.2085373 20.3176246 19.8417023 20.7081489 20.2322266z"/>
    <path fill="#FFAF40" fill-rule="nonzero" d="M22.1223625,24.1778468 L26.0679828,20.2322266 C26.458507,19.8417023 26.458507,19.2085373 26.0679828,18.818013 C25.6774585,18.4274887 25.0442935,18.4274887 24.6537692,18.818013 L20.7081489,22.7636333 C20.3176246,23.1541575 20.3176246,23.7873225 20.7081489,24.1778468 C21.0986732,24.5683711 21.7318382,24.5683711 22.1223625,24.1778468 Z"/>
  </g>
</svg>
