<svg xmlns="http://www.w3.org/2000/svg" width="64" height="64" viewBox="0 0 64 64">
  <g fill="none" fill-rule="evenodd">
    <path fill="#979797" d="M37.6875,49 L58,49 L58,5 L6,5 L6,49 L26.3125,49 L32,62 L37.6875,49 Z"/>
    <path fill="#FFF" fill-rule="nonzero" d="M20,18 C20,17.4477153 19.5522847,17 19,17 C18.4477153,17 18,17.4477153 18,18 L18,34 C18,34.8322957 18.9573803,35.300346 19.614192,34.7891567 L31.5955788,25.4641749 C32.031418,25.124966 32.1097524,24.4966654 31.7705435,24.0608262 C31.4313347,23.624987 30.8030341,23.5466527 30.3671949,23.8858615 L20,31.9545355 L20,18 Z"/>
    <path fill="#FFF" fill-rule="nonzero" d="M19,35 L46,35 C46.5522847,35 47,34.5522847 47,34 C47,33.4477153 46.5522847,33 46,33 L19,33 C18.4477153,33 18,33.4477153 18,34 C18,34.5522847 18.4477153,35 19,35 Z"/>
    <path fill="#FFF" fill-rule="nonzero" d="M34.8292623,23.8153493 C34.3974194,23.4710673 33.7682458,23.5420494 33.4239637,23.9738923 C33.0796816,24.4057352 33.1506637,25.0349089 33.5825067,25.3791909 L45.3766222,34.7819208 C46.0316546,35.3041383 47,34.8377223 47,34 L47,18 C47,17.4477153 46.5522847,17 46,17 C45.4477153,17 45,17.4477153 45,18 L45,31.923859 L34.8292623,23.8153493 Z"/>
    <path fill="#FFF" fill-rule="nonzero" d="M32.9856429,26.3741573 C32.6836204,26.5419476 32.3163796,26.5419476 32.0143571,26.3741573 L18.5143571,18.8741573 C17.6123413,18.3730374 17.9681311,17 19,17 L46,17 C47.0318689,17 47.3876587,18.3730374 46.4856429,18.8741573 L32.9856429,26.3741573 Z M42.140874,19 L22.859126,19 L32.5,24.3560411 L42.140874,19 Z"/>
  </g>
</svg>
