<svg xmlns="http://www.w3.org/2000/svg" width="64" height="64" viewBox="0 0 64 64">
  <g fill="none" fill-rule="evenodd">
    <path fill="#5B68C0" d="M8,49.9206814 C8,47.707202 9.77500008,45.6994337 11.9692715,45.4356406 L31.875,43.0425936 L51.7807285,45.4356406 C53.9728966,45.6991808 55.75,47.7006188 55.75,49.9206814 L55.75,62.0425936 L8,62.0425936 L8,49.9206814 Z"/>
    <path fill="#FFDD95" d="M31.875,43.6331692 C39.8831289,43.6331692 46.375,33.1412981 46.375,25.1331692 C46.375,17.1250403 39.8831289,10.6331692 31.875,10.6331692 C23.8668711,10.6331692 17.375,17.1250403 17.375,25.1331692 C17.375,33.1412981 23.8668711,43.6331692 31.875,43.6331692 Z"/>
    <path fill="#FFDD95" d="M23.9659091,38.3604419 L39.7840909,38.3604419 L39.7840909,48.9058965 C39.7840909,48.9058965 34.4224889,50.8154815 31.875,50.8154815 C29.3275111,50.8154815 23.9659091,48.9058965 23.9659091,48.9058965 L23.9659091,38.3604419 Z"/>
    <circle cx="17.875" cy="28" r="3" fill="#FFDD95"/>
    <circle cx="45.875" cy="28" r="3" fill="#FFDD95"/>
    <path fill="#ECECEC" d="M19.5968619 34.0000009C22.1635951 39.2569987 26.7030812 43.6331692 31.875 43.6331692 37.0469191 43.6331692 41.5864054 39.2569982 44.1531385 34L19.59686 34zM18 4C18 4 25 2 32 2 39 2 46 4 46 4L46 21C46 21 39 16 32 16 25 16 18 21 18 21L18 4z"/>
    <circle cx="32" cy="16" r="5" fill="#5EA7FF"/>
    <circle cx="32" cy="16" r="2" fill="#B4DFFB"/>
    <circle cx="53" cy="11" r="11" fill="#80D25B"/>
    <polyline stroke="#FFF" stroke-linecap="round" stroke-linejoin="round" stroke-width="3" points="47.873 13.27 53.041 16.318 57.062 5.936"/>
  </g>
</svg>
