<svg xmlns="http://www.w3.org/2000/svg" width="64" height="64" viewBox="0 0 64 64">
  <g fill="none" fill-rule="evenodd">
    <path fill="#80D25B" d="M52.5044647,16.529591 C55.2658885,16.529591 57.5044647,14.1876959 57.5044647,11.2988218 C57.5044647,8.40994771 52.5044647,-0.470408985 52.5044647,-0.470408985 C52.5044647,-0.470408985 47.5044647,8.40994771 47.5044647,11.2988218 C47.5044647,14.1876959 49.743041,16.529591 52.5044647,16.529591 Z" transform="rotate(75 52.504 8.03)"/>
    <path stroke="#22BA8E" stroke-linecap="round" stroke-width="2" d="M49,9 C42.372583,9 37,14.372583 37,21"/>
    <path fill="#5B68C0" d="M1,50.9206814 C1,48.707202 2.77500008,46.6994337 4.96927149,46.4356406 L24.875,44.0425936 L44.7807285,46.4356406 C46.9728966,46.6991808 48.75,48.7006188 48.75,50.9206814 L48.75,63.0425936 L1,63.0425936 L1,50.9206814 Z"/>
    <path fill="#FFDD95" d="M16.9659091,41.0820517 C12.997906,37.3171352 10.375,31.2233999 10.375,26.1331692 C10.375,18.1250403 16.8668711,11.6331692 24.875,11.6331692 C32.8831289,11.6331692 39.375,18.1250403 39.375,26.1331692 C39.375,31.2233999 36.752094,37.3171352 32.7840909,41.0820517 L32.7840909,49.9058965 C32.7840909,49.9058965 27.4224889,51.8154815 24.875,51.8154815 C22.3275111,51.8154815 16.9659091,49.9058965 16.9659091,49.9058965 L16.9659091,41.0820517 Z"/>
    <circle cx="10.875" cy="29" r="3" fill="#FFDD95"/>
    <circle cx="38.875" cy="29" r="3" fill="#FFDD95"/>
    <path fill="#FFAF40" d="M6.875,14.5 C6.875,11.4624339 9.33285189,9 12.3759961,9 L38.875,9 L38.875,14.5 C38.875,17.5375661 36.4171481,20 33.3740039,20 L6.875,20 L6.875,14.5 Z" transform="matrix(-1 0 0 1 45.75 0)"/>
  </g>
</svg>
