<svg xmlns="http://www.w3.org/2000/svg" width="64" height="64" viewBox="0 0 64 64">
  <g fill="none" fill-rule="evenodd">
    <path fill="#5B68C0" d="M10,49.9206814 C10,47.707202 11.7750001,45.6994337 13.9692715,45.4356406 L33.875,43.0425936 L53.7807285,45.4356406 C55.9728966,45.6991808 57.75,47.7006188 57.75,49.9206814 L57.75,62.0425936 L10,62.0425936 L10,49.9206814 Z"/>
    <path fill="#FFDD95" d="M33.875,43.6331692 C41.8831289,43.6331692 48.375,33.1412981 48.375,25.1331692 C48.375,17.1250403 41.8831289,10.6331692 33.875,10.6331692 C25.8668711,10.6331692 19.375,17.1250403 19.375,25.1331692 C19.375,33.1412981 25.8668711,43.6331692 33.875,43.6331692 Z"/>
    <path fill="#FFDD95" d="M25.9659091,38.3604419 L41.7840909,38.3604419 L41.7840909,48.9058965 C41.7840909,48.9058965 36.4224889,50.8154815 33.875,50.8154815 C31.3275111,50.8154815 25.9659091,48.9058965 25.9659091,48.9058965 L25.9659091,38.3604419 Z"/>
    <circle cx="19.875" cy="28" r="3" fill="#FFDD95"/>
    <circle cx="47.875" cy="28" r="3" fill="#FFDD95"/>
    <path fill="#ECECEC" d="M21.5968619 34.0000009C24.1635951 39.2569987 28.7030812 43.6331692 33.875 43.6331692 39.0469191 43.6331692 43.5864054 39.2569982 46.1531385 34L21.59686 34zM20 4C20 4 27 2 34 2 41 2 48 4 48 4L48 21C48 21 41 16 34 16 27 16 20 21 20 21L20 4z"/>
    <circle cx="34" cy="16" r="5" fill="#5EA7FF"/>
    <circle cx="34" cy="16" r="2" fill="#B4DFFB"/>
    <circle cx="52" cy="11" r="11" fill="#E43535"/>
    <path stroke="#FFF" stroke-linecap="round" stroke-width="2" d="M48.1348059 15.2221058L56.6494991 6.70741257M56.6494991 15.2221058L48.1348059 6.70741257"/>
  </g>
</svg>
