<svg xmlns="http://www.w3.org/2000/svg" width="64" height="64" viewBox="0 0 64 64">
  <g fill="none" fill-rule="evenodd">
    <polygon fill="#D8D8D8" points="8 6 25 9 25 59 8 56"/>
    <polygon fill="#ECECEC" points="25 9 42 6 42 56 25 59"/>
    <polygon fill="#D8D8D8" points="42 6 59 9 59 59 42 56"/>
    <path stroke="#979797" stroke-dasharray="4" stroke-linecap="round" stroke-width="2" d="M18.2429508,20.0563671 C18.2429508,20.0563671 29.4682989,18.4277206 31.9394637,21.9846498 C34.4106286,25.5415789 10.3709098,32.1045971 11.4343182,37.9274836 C12.4977265,43.7503702 19.1481446,53.1208216 19.1481446,53.1208216 C19.1481446,53.1208216 37.8792538,38.5740904 25.5008959,38.6598778 C13.122538,38.7456652 32.3088327,28.827614 40.497691,30.7962435 C48.6865493,32.7648729 28.240972,48.6515526 35.8421224,50.0644844 C43.4432728,51.4774161 49.0258578,50.6784407 50.4451916,42.3237693 C51.8645255,33.969098 54.5508244,29.2463079 47.8523626,22.2949652 C41.1539008,15.3436226 42.083478,12.0689755 50.5693914,10.9076442"/>
  </g>
</svg>
