<svg xmlns="http://www.w3.org/2000/svg" width="64" height="64" viewBox="0 0 64 64">
  <g fill="none" fill-rule="evenodd">
    <path fill="#FF78C7" d="M42.6464625 25.0430244L39.5257851 24.7559024C37.5852689 24.5776585 35.8694625 26.0308293 35.693527 28.0020488L34.1501722 45.3189268C37.6697528 45.8580488 41.0369141 46.5236098 44.2054948 47.2936585L45.8411722 28.9354146C46.0171077 26.9641951 44.5869786 25.2221463 42.6464625 25.0430244L42.6464625 25.0430244zM28.565527 28.6974634L25.4448496 28.4103415C23.5043335 28.2320976 21.788527 29.6852683 21.6125915 31.6564878L20.5177851 43.9421463C22.3651077 44.0343415 24.2420431 44.1660488 26.1433657 44.3407805 27.6727851 44.4812683 29.1821722 44.6463415 30.6697851 44.8342439L31.7611077 32.5898537C31.9370431 30.6186341 30.5069141 28.8757073 28.565527 28.6974634L28.565527 28.6974634zM14.6805593 32.74L11.5598818 32.452878C9.61936572 32.2746341 7.90355927 33.7278049 7.72849475 35.6990244L6.98817217 44.0027317C10.2351399 43.7972683 13.6693657 43.7322927 17.2359786 43.8200976L17.8761399 36.6323902C18.0512044 34.6611707 16.6210754 32.9182439 14.6805593 32.74L14.6805593 32.74zM56.9120431 16.738439L53.7913657 16.4513171C51.8508496 16.2730732 50.1350431 17.7262439 49.9591077 19.6974634L47.4245915 48.1313171C51.0774302 49.1454634 54.4141077 50.3009756 57.3501399 51.5600976L60.1067528 20.6299512C60.2835593 18.6596098 58.8525593 16.9166829 56.9120431 16.738439L56.9120431 16.738439z"/>
  </g>
</svg>
