<svg xmlns="http://www.w3.org/2000/svg" width="64" height="64" viewBox="0 0 64 64">
  <g fill="none" fill-rule="evenodd">
    <rect width="58" height="37" x="4" y="13" fill="#E43535" rx="4"/>
    <rect width="10" height="3" x="8" y="35" fill="#FFAF40"/>
    <rect width="10" height="3" x="20" y="35" fill="#FFAF40"/>
    <rect width="10" height="3" x="32" y="35" fill="#FFAF40"/>
    <rect width="10" height="3" x="44" y="35" fill="#FFAF40"/>
    <path fill="#FFF" d="M15.988,27.978 C15.8193325,28.2200012 15.5736683,28.341 15.251,28.341 C14.9576652,28.341 14.6533349,28.2456676 14.338,28.055 C14.0519986,27.8863325 13.8906668,27.7213341 13.854,27.56 C13.8393333,27.501333 13.832,27.4463336 13.832,27.395 C13.832,27.2776661 13.8814995,27.1456674 13.9805,26.999 C14.0795005,26.8523326 14.1253334,26.7240005 14.118,26.614 L13.788,22.918 L11.896,27.186 C11.8739999,27.244667 11.863,27.3143329 11.863,27.395 C11.863,27.453667 11.8721666,27.5453327 11.8905,27.67 C11.9088334,27.7946673 11.918,27.8899997 11.918,27.956 C11.918,28.1246675 11.8520007,28.2529996 11.72,28.341 C11.5293324,28.4730007 11.305668,28.539 11.049,28.539 C10.792332,28.539 10.559501,28.4711673 10.3505,28.3355 C10.141499,28.1998327 10.0113336,28.0220011 9.96,27.802 C9.94533326,27.7359997 9.938,27.6773336 9.938,27.626 C9.938,27.5746664 9.94533326,27.5123337 9.96,27.439 C9.97466674,27.3656663 9.982,27.3106669 9.982,27.274 C9.982,27.2299998 9.97466674,27.1860002 9.96,27.142 L8.376,22.918 L8.53,26.9 C8.53733337,27.0026672 8.56299978,27.1474991 8.607,27.3345 C8.65100022,27.5215009 8.673,27.6589996 8.673,27.747 C8.673,28.0183347 8.47133535,28.2309992 8.068,28.385 C8.01666641,28.3996667 7.9543337,28.407 7.881,28.407 C7.65366553,28.407 7.41900121,28.3300008 7.177,28.176 C6.89833194,28.0073325 6.71866707,27.7873347 6.638,27.516 C6.62333326,27.4719998 6.616,27.4316668 6.616,27.395 C6.616,27.3216663 6.65999956,27.2391671 6.748,27.1475 C6.83600044,27.0558329 6.88,26.9733337 6.88,26.9 L6.748,20.63 C6.748,20.5273328 6.7113337,20.3971675 6.638,20.2395 C6.5646663,20.0818325 6.528,19.9626671 6.528,19.882 C6.528,19.7573327 6.59399934,19.6235007 6.726,19.4805 C6.85800066,19.3374993 7.08899835,19.266 7.419,19.266 C7.90300242,19.266 8.28799857,19.3833322 8.574,19.618 C8.73533414,19.7500007 8.816,19.8893326 8.816,20.036 C8.816,20.0580001 8.81233337,20.0909998 8.805,20.135 L8.805,20.234 C8.805,20.3000003 8.81599989,20.3586664 8.838,20.41 L11.016,25.69 L13.458,20.08 C13.4873335,20.0139997 13.502,19.9370004 13.502,19.849 C13.502,19.8196665 13.4983334,19.775667 13.491,19.717 L13.491,19.585 C13.491,19.4163325 13.5679992,19.2733339 13.722,19.156 C13.8466673,19.0606662 14.0116656,19.013 14.217,19.013 C14.5323349,19.013 14.8384985,19.1083324 15.1355,19.299 C15.4325015,19.4896676 15.5773334,19.7059988 15.57,19.948 C15.5626666,20.0653339 15.5076672,20.1624996 15.405,20.2395 C15.3023328,20.3165004 15.2546666,20.3879997 15.262,20.454 L15.724,26.944 C15.7313334,27.0173337 15.7899995,27.1438324 15.9,27.3235 C16.0100006,27.5031676 16.065,27.6479994 16.065,27.758 C16.065,27.8313337 16.0393336,27.9046663 15.988,27.978 Z M21.642,27.538 C21.5319995,27.8973351 21.2606688,28.077 20.828,28.077 C20.6813326,28.077 20.5640004,28.0513336 20.476,28 C20.3586661,27.9193329 20.2780002,27.7580012 20.234,27.516 C20.1459996,27.0979979 20.0580004,26.7716678 19.97,26.537 C19.9479999,26.9403354 19.7280021,27.3491646 19.31,27.7635 C18.8919979,28.1778354 18.4703355,28.385 18.045,28.385 C17.509664,28.385 17.1393344,28.0293369 16.934,27.318 C16.8606663,27.0539987 16.824,26.8046678 16.824,26.57 C16.824,25.8879966 17.1723299,25.3050024 17.869,24.821 C18.4410029,24.483665 19.0166638,24.1500017 19.596,23.82 C19.6253335,23.6953327 19.64,23.5743339 19.64,23.457 C19.64,23.2296655 19.5776673,23.0958335 19.453,23.0555 C19.3283327,23.0151665 19.2220004,22.995 19.134,22.995 C18.9799992,22.995 18.8535005,23.0444995 18.7545,23.1435 L18.474,23.424 C18.3859996,23.482667 18.272334,23.6183323 18.133,23.831 C18.0229995,23.9996675 17.9020007,24.0913333 17.77,24.106 C17.5793324,24.1280001 17.4070008,24.0620008 17.253,23.908 C17.0989992,23.7539992 17.022,23.5743344 17.022,23.369 C17.022,23.2516661 17.051333,23.1453338 17.11,23.05 C17.2786675,22.7713319 17.531665,22.5293344 17.869,22.324 C18.3823359,22.0159985 19.0239961,21.862 19.794,21.862 C20.2853358,21.862 20.6226657,22.0966643 20.806,22.566 C20.9233339,22.8813349 21.011333,23.4716623 21.07,24.337 C21.1360003,25.3856719 21.2166662,26.1519976 21.312,26.636 C21.3266667,26.7313338 21.3889995,26.8523326 21.499,26.999 C21.6090006,27.1456674 21.664,27.2739994 21.664,27.384 C21.664,27.4353336 21.6566667,27.4866664 21.642,27.538 Z M19.728,24.832 C19.5079989,24.9493339 19.2898344,25.0703327 19.0735,25.195 C18.8571656,25.3196673 18.6573343,25.4846656 18.474,25.69 C18.2099987,25.9906682 18.078,26.2473323 18.078,26.46 C18.078,26.6360009 18.1439993,26.8193324 18.276,27.01 C18.3493337,27.1126672 18.4299996,27.164 18.518,27.164 C18.7086676,27.164 18.9158322,26.9513355 19.1395,26.526 C19.3631678,26.1006645 19.5593325,25.5360035 19.728,24.832 Z M26.064,26.526 C26.064,27.0393359 25.8806685,27.4774982 25.514,27.8405 C25.1473315,28.2035018 24.7146692,28.385 24.216,28.385 C23.9006651,28.385 23.574335,28.2346682 23.237,27.934 C22.9729987,27.6919988 22.7346677,27.3950018 22.522,27.043 C22.3386658,26.7349985 22.2579999,26.5406671 22.28,26.46 C22.3606671,26.2766657 22.6136645,26.185 23.039,26.185 C23.2150009,26.185 23.3543328,26.2106664 23.457,26.262 C23.6330009,26.3573338 23.7319999,26.4783326 23.754,26.625 C23.7760001,26.7936675 23.8126664,26.8999998 23.864,26.944 C24.0180008,27.1786678 24.1573327,27.296 24.282,27.296 C24.3773338,27.296 24.4671662,27.231834 24.5515,27.1035 C24.6358338,26.975166 24.678,26.8230009 24.678,26.647 C24.678,26.5369994 24.6596668,26.4270006 24.623,26.317 C24.5863331,26.2069994 24.3883351,26.0383345 24.029,25.811 C23.5963312,25.5396653 23.2883342,25.3013344 23.105,25.096 C22.7896651,24.7439982 22.632,24.3333357 22.632,23.864 C22.632,23.3139973 22.7933317,22.8318354 23.116,22.4175 C23.4386683,22.0031646 23.8493308,21.796 24.348,21.796 C24.8613359,21.796 25.2536653,21.9903314 25.525,22.379 C25.7450011,22.6943349 25.8366669,23.0133317 25.8,23.336 C25.8806671,23.4240004 25.921,23.5706656 25.921,23.776 C25.921,23.9960011 25.8403341,24.1829992 25.679,24.337 C25.5176659,24.4910008 25.3526675,24.568 25.184,24.568 C24.9346654,24.568 24.7183343,24.4030017 24.535,24.073 C24.4836664,23.9849996 24.458,23.8676674 24.458,23.721 C24.458,23.6549997 24.4634999,23.5615006 24.4745,23.4405 C24.4855001,23.3194994 24.491,23.2333336 24.491,23.182 C24.491,22.9913324 24.421334,22.896 24.282,22.896 C24.0693323,22.896 23.963,23.1049979 23.963,23.523 C23.963,23.9483355 24.1023319,24.289332 24.381,24.546 C24.4910006,24.6486672 24.7293315,24.7953324 25.096,24.986 C25.4113349,25.1473341 25.6349993,25.3123325 25.767,25.481 C25.965001,25.737668 26.064,26.0859978 26.064,26.526 Z M30.728,23.006 C30.669333,23.006 30.5776673,22.9821669 30.453,22.9345 C30.3283327,22.8868331 30.2330003,22.863 30.167,22.863 C30.1156664,22.863 30.0643336,22.8739999 30.013,22.896 L29.606,23.105 L29.606,26.867 C29.606,27.006334 29.6811659,27.1859989 29.8315,27.406 C29.9818341,27.6260011 30.0423335,27.8019993 30.013,27.934 C29.9763332,28.0953341 29.8681676,28.2236662 29.6885,28.319 C29.5088324,28.4143338 29.3163344,28.462 29.111,28.462 C28.7223314,28.462 28.4546674,28.2896684 28.308,27.945 C28.2639998,27.8423328 28.2383334,27.5160027 28.231,26.966 C28.2236666,26.5993315 28.2273333,26.0273372 28.242,25.25 C28.2566667,24.3699956 28.264,23.8126678 28.264,23.578 C28.2199998,23.5926667 28.1466672,23.6421662 28.044,23.7265 C27.9413328,23.8108338 27.8386672,23.853 27.736,23.853 C27.6553329,23.853 27.5526673,23.8310002 27.428,23.787 C26.9146641,23.6109991 26.658,23.4313342 26.658,23.248 C26.658,23.2039998 26.6689999,23.1563336 26.691,23.105 C26.7423336,22.9876661 26.837666,22.9216667 26.977,22.907 C27.1896677,22.8776665 27.3179998,22.8520001 27.362,22.83 C27.5306675,22.7639997 27.8386644,22.6063346 28.286,22.357 L28.286,21.4 C28.286,21.3266663 28.2658335,21.2295006 28.2255,21.1085 C28.1851665,20.9874994 28.165,20.897667 28.165,20.839 C28.165,20.7729997 28.1833331,20.710667 28.22,20.652 C28.4106676,20.3586652 28.6673317,20.212 28.99,20.212 C29.3640019,20.212 29.6279992,20.3586652 29.782,20.652 C29.840667,20.7693339 29.87,20.8646663 29.87,20.938 C29.87,21.0260004 29.8260004,21.1176662 29.738,21.213 C29.6499996,21.3083338 29.606,21.3963329 29.606,21.477 L29.606,22.016 C29.7380007,21.957333 29.8846659,21.858334 30.046,21.719 C30.1706673,21.6163328 30.2769996,21.565 30.365,21.565 C30.4016669,21.565 30.4419998,21.5723333 30.486,21.587 C30.9480023,21.7116673 31.179,21.9903312 31.179,22.423 C31.179,22.562334 31.1368338,22.6943327 31.0525,22.819 C30.9681662,22.9436673 30.8600007,23.006 30.728,23.006 Z M35.425,26.845 C35.366333,27.1236681 35.168335,27.4206651 34.831,27.736 C34.7796664,27.8166671 34.5780018,27.9229993 34.226,28.055 C33.8226646,28.2090008 33.4743348,28.2750001 33.181,28.253 C32.6309973,28.2163331 32.1983349,27.901003 31.883,27.307 C31.5969986,26.7569972 31.454,26.0823373 31.454,25.283 C31.454,24.4176623 31.6153317,23.6586699 31.938,23.006 C32.2973351,22.2873297 32.7776637,21.8840004 33.379,21.796 C33.4963339,21.7813333 33.6099995,21.774 33.72,21.774 C34.592671,21.774 35.0729996,22.309328 35.161,23.38 C35.2050002,23.8713358 35.0106688,24.4066638 34.578,24.986 C34.1086643,25.6240032 33.507337,26.071332 32.774,26.328 C32.8546671,26.6213348 32.9169998,26.8119996 32.961,26.9 C33.0636672,27.0833343 33.2029991,27.175 33.379,27.175 C33.5476675,27.175 33.7273324,27.1090007 33.918,26.977 C34.0793341,26.8669994 34.189333,26.7606672 34.248,26.658 C34.2773335,26.6433333 34.3066665,26.5608341 34.336,26.4105 C34.3653335,26.2601659 34.4423327,26.1520003 34.567,26.086 C34.6110002,26.0639999 34.662333,26.053 34.721,26.053 C34.8970009,26.053 35.0674992,26.1391658 35.2325,26.3115 C35.3975008,26.4838342 35.4616669,26.6616657 35.425,26.845 Z M33.698,22.973 C33.4046652,22.973 33.1663343,23.1819979 32.983,23.6 C32.7409988,24.1573361 32.6419998,24.7073306 32.686,25.25 C33.0306684,25.1399994 33.3496652,24.8833354 33.643,24.48 C33.9363348,24.0766646 34.083,23.7173349 34.083,23.402 C34.083,23.1159986 33.9546679,22.973 33.698,22.973 Z M40.463,22.39 C40.4336665,22.5440008 40.2943346,22.650333 40.045,22.709 C39.7516652,22.7823337 39.5646671,22.8666662 39.484,22.962 L37.691,25.03 L37.691,26.702 C37.691,26.8633341 37.7368329,27.0264992 37.8285,27.1915 C37.9201671,27.3565008 37.966,27.4829996 37.966,27.571 C37.966,27.6590004 37.9403336,27.7579995 37.889,27.868 C37.7643327,28.1466681 37.5113352,28.286 37.13,28.286 C36.8659987,28.286 36.6570008,28.2016675 36.503,28.033 C36.4003328,27.9229995 36.349,27.7836675 36.349,27.615 C36.349,27.556333 36.3563333,27.4610007 36.371,27.329 C36.3856667,27.1969993 36.393,27.0906671 36.393,27.01 L36.393,22.896 C36.393,22.8299997 36.363667,22.7493338 36.305,22.654 C36.246333,22.5586662 36.217,22.481667 36.217,22.423 C36.217,22.3789998 36.2316665,22.327667 36.261,22.269 C36.3563338,22.0929991 36.6533308,22.005 37.152,22.005 C37.5406686,22.005 37.7606664,22.0966658 37.812,22.28 C37.8340001,22.3533337 37.845,22.4156664 37.845,22.467 C37.845,22.5476671 37.815667,22.6099998 37.757,22.654 C37.698333,22.6980002 37.669,22.7419998 37.669,22.786 L37.691,23.182 L38.637,22.181 C38.7470005,22.0563327 38.8624994,21.9316673 38.9835,21.807 C39.1045006,21.6823327 39.2456659,21.6126667 39.407,21.598 C39.6563346,21.5759999 39.8964988,21.6309993 40.1275,21.763 C40.3585012,21.8950007 40.474,22.0673323 40.474,22.28 C40.474,22.3166668 40.4703334,22.3533332 40.463,22.39 Z M44.214,26.174 C44.2066666,26.3353341 44.1370007,26.5003325 44.005,26.669 C43.7996656,26.9110012 43.667667,27.0943327 43.609,27.219 C43.1469977,27.9230035 42.6703358,28.275 42.179,28.275 C41.5996638,28.275 41.1486683,27.9816696 40.826,27.395 C40.5399986,26.859664 40.397,26.1850041 40.397,25.371 C40.397,24.439662 40.5729982,23.6293368 40.925,22.94 C41.3136686,22.1773295 41.8159969,21.796 42.432,21.796 C42.9160024,21.796 43.3083318,22.063664 43.609,22.599 C43.8583346,23.0536689 43.983,23.548664 43.983,24.084 C43.983,24.2306674 43.9720001,24.3589994 43.95,24.469 C43.8986664,24.7183346 43.6896685,24.843 43.323,24.843 C43.0369986,24.843 42.8170008,24.7623341 42.663,24.601 C42.5896663,24.5203329 42.553,24.3333348 42.553,24.04 C42.553,23.9666663 42.5566666,23.860334 42.564,23.721 L42.564,23.402 C42.564,23.0719984 42.5053339,22.907 42.388,22.907 C42.2633327,22.907 42.131334,23.2681631 41.992,23.9905 C41.852666,24.7128369 41.783,25.3893302 41.783,26.02 C41.783,26.753337 41.8929989,27.12 42.113,27.12 C42.3990014,27.12 42.611666,26.8890023 42.751,26.427 C42.809667,26.3609997 42.8426666,26.229001 42.85,26.031 C42.85,25.8549991 42.8939996,25.7395003 42.982,25.6845 C43.0700004,25.6294997 43.1983325,25.602 43.367,25.602 C43.5870011,25.602 43.7776659,25.6496662 43.939,25.745 C44.1296676,25.8550006 44.2213334,25.9979991 44.214,26.174 Z M49.89,27.538 C49.7799995,27.8973351 49.5086688,28.077 49.076,28.077 C48.9293326,28.077 48.8120004,28.0513336 48.724,28 C48.6066661,27.9193329 48.5260002,27.7580012 48.482,27.516 C48.3939996,27.0979979 48.3060004,26.7716678 48.218,26.537 C48.1959999,26.9403354 47.9760021,27.3491646 47.558,27.7635 C47.1399979,28.1778354 46.7183355,28.385 46.293,28.385 C45.757664,28.385 45.3873344,28.0293369 45.182,27.318 C45.1086663,27.0539987 45.072,26.8046678 45.072,26.57 C45.072,25.8879966 45.4203298,25.3050024 46.117,24.821 C46.6890029,24.483665 47.2646638,24.1500017 47.844,23.82 C47.8733335,23.6953327 47.888,23.5743339 47.888,23.457 C47.888,23.2296655 47.8256673,23.0958335 47.701,23.0555 C47.5763327,23.0151665 47.4700004,22.995 47.382,22.995 C47.2279992,22.995 47.1015005,23.0444995 47.0025,23.1435 L46.722,23.424 C46.6339996,23.482667 46.520334,23.6183323 46.381,23.831 C46.2709995,23.9996675 46.1500007,24.0913333 46.018,24.106 C45.8273324,24.1280001 45.6550008,24.0620008 45.501,23.908 C45.3469992,23.7539992 45.27,23.5743344 45.27,23.369 C45.27,23.2516661 45.299333,23.1453338 45.358,23.05 C45.5266675,22.7713319 45.779665,22.5293344 46.117,22.324 C46.6303359,22.0159985 47.2719961,21.862 48.042,21.862 C48.5333358,21.862 48.8706657,22.0966643 49.054,22.566 C49.1713339,22.8813349 49.259333,23.4716623 49.318,24.337 C49.3840003,25.3856719 49.4646662,26.1519976 49.56,26.636 C49.5746667,26.7313338 49.6369995,26.8523326 49.747,26.999 C49.8570006,27.1456674 49.912,27.2739994 49.912,27.384 C49.912,27.4353336 49.9046667,27.4866664 49.89,27.538 Z M47.976,24.832 C47.7559989,24.9493339 47.5378344,25.0703327 47.3215,25.195 C47.1051656,25.3196673 46.9053342,25.4846656 46.722,25.69 C46.4579987,25.9906682 46.326,26.2473323 46.326,26.46 C46.326,26.6360009 46.3919993,26.8193324 46.524,27.01 C46.5973337,27.1126672 46.6779996,27.164 46.766,27.164 C46.9566676,27.164 47.1638322,26.9513355 47.3875,26.526 C47.6111678,26.1006645 47.8073325,25.5360035 47.976,24.832 Z M54.983,22.39 C54.9536665,22.5440008 54.8143346,22.650333 54.565,22.709 C54.2716652,22.7823337 54.0846671,22.8666662 54.004,22.962 L52.211,25.03 L52.211,26.702 C52.211,26.8633341 52.2568329,27.0264992 52.3485,27.1915 C52.4401671,27.3565008 52.486,27.4829996 52.486,27.571 C52.486,27.6590004 52.4603336,27.7579995 52.409,27.868 C52.2843327,28.1466681 52.0313352,28.286 51.65,28.286 C51.3859987,28.286 51.1770008,28.2016675 51.023,28.033 C50.9203328,27.9229995 50.869,27.7836675 50.869,27.615 C50.869,27.556333 50.8763333,27.4610007 50.891,27.329 C50.9056667,27.1969993 50.913,27.0906671 50.913,27.01 L50.913,22.896 C50.913,22.8299997 50.883667,22.7493338 50.825,22.654 C50.766333,22.5586662 50.737,22.481667 50.737,22.423 C50.737,22.3789998 50.7516665,22.327667 50.781,22.269 C50.8763338,22.0929991 51.1733308,22.005 51.672,22.005 C52.0606686,22.005 52.2806664,22.0966658 52.332,22.28 C52.3540001,22.3533337 52.365,22.4156664 52.365,22.467 C52.365,22.5476671 52.335667,22.6099998 52.277,22.654 C52.218333,22.6980002 52.189,22.7419998 52.189,22.786 L52.211,23.182 L53.157,22.181 C53.2670005,22.0563327 53.3824994,21.9316673 53.5035,21.807 C53.6245006,21.6823327 53.7656659,21.6126667 53.927,21.598 C54.1763346,21.5759999 54.4164988,21.6309993 54.6475,21.763 C54.8785012,21.8950007 54.994,22.0673323 54.994,22.28 C54.994,22.3166668 54.9903334,22.3533332 54.983,22.39 Z M59.031,27.934 C58.9429996,28.132001 58.6716689,28.231 58.217,28.231 C57.9309986,28.231 57.7403338,28.1723339 57.645,28.055 C57.6083331,28.0183332 57.59,27.9670003 57.59,27.901 C57.59,27.8496664 57.6083331,27.7690005 57.645,27.659 C57.6816669,27.5489995 57.7036666,27.464667 57.711,27.406 C57.373665,27.8826691 56.9776689,28.121 56.523,28.121 C55.9143303,28.121 55.4706681,27.7763368 55.192,27.087 C54.9793323,26.5589974 54.873,25.8733375 54.873,25.03 C54.873,24.2526628 55.0379983,23.5450032 55.368,22.907 C55.7346685,22.2103298 56.185664,21.862 56.721,21.862 C57.0216682,21.862 57.3296651,22.1039976 57.645,22.588 L57.645,21.169 C57.645,21.0516661 57.5973338,20.9013343 57.502,20.718 C57.4066662,20.5346658 57.359,20.3953338 57.359,20.3 C57.359,20.2266663 57.3773331,20.1533337 57.414,20.08 C57.5680008,19.7499984 57.8686644,19.585 58.316,19.585 C58.6826685,19.585 58.9099996,19.7169987 58.998,19.981 C59.0273335,20.0690004 59.042,20.1533329 59.042,20.234 C59.042,20.3146671 59.0181669,20.4228327 58.9705,20.5585 C58.9228331,20.6941673 58.899,20.8096662 58.899,20.905 L58.899,27.175 C58.899,27.2556671 58.928333,27.3528328 58.987,27.4665 C59.045667,27.5801672 59.075,27.6736663 59.075,27.747 C59.075,27.805667 59.0603335,27.8679997 59.031,27.934 Z M57.513,25.03 C57.513,24.692665 57.443334,24.2966689 57.304,23.842 C57.1499992,23.3579976 56.9996674,23.116 56.853,23.116 C56.6843325,23.116 56.5486672,23.3396644 56.446,23.787 C56.3653329,24.1536685 56.325,24.5679977 56.325,25.03 C56.325,25.1106671 56.3213334,25.2426658 56.314,25.426 L56.314,25.833 C56.314,26.6616708 56.4936649,27.076 56.853,27.076 C57.0216675,27.076 57.175666,26.837669 57.315,26.361 C57.4470007,25.9209978 57.513,25.4773356 57.513,25.03 Z"/>
  </g>
</svg>
