<?xml version="1.0" encoding="UTF-8"?>
<svg width="64px" height="64px" viewBox="0 0 64 64" version="1.1" xmlns="http://www.w3.org/2000/svg" xmlns:xlink="http://www.w3.org/1999/xlink">
    <!-- Generator: Sketch 43.2 (39069) - http://www.bohemiancoding.com/sketch -->
    <title>match</title>
    <desc>Created with Sketch.</desc>
    <defs></defs>
    <g id="Outdoor-Activities-(142)" stroke="none" stroke-width="1" fill="none" fill-rule="evenodd">
        <g id="Group-11" transform="translate(31.060660, 34.060660) rotate(-45.000000) translate(-31.060660, -34.060660) translate(19.060660, 0.560660)">
            <path d="M9,18 L15,18 L15,63.8291906 C15,65.4856232 13.6534829,66.8284271 12,66.8284271 L12,66.8284271 C10.3431458,66.8284271 9,65.484315 9,63.8291906 L9,18 Z" id="Rectangle-172" fill="#AB5F5F"></path>
            <ellipse id="Oval-88" fill="#595959" cx="12" cy="13" rx="6" ry="7"></ellipse>
            <path d="M12,3 L12,3.63797881e-12 M20.660254,8 L23.2583302,6.5 M20.660254,18 L23.2583302,19.5 M12,23 L12,26 M3.33974596,18 L0.741669751,19.5 M3.33974596,8 L0.741669751,6.5" id="Line" stroke="#ED9111" stroke-width="2" stroke-linecap="round" stroke-linejoin="round"></path>
        </g>
    </g>
</svg>