<svg xmlns="http://www.w3.org/2000/svg" width="64" height="64" viewBox="0 0 64 64">
  <g fill="none" fill-rule="evenodd">
    <path fill="#6B6B6B" d="M2,13.995507 C2,12.3411342 3.33730974,11 4.99593743,11 L59.0040626,11 C60.6586731,11 62,12.3424683 62,13.995507 L62,50 L2,50 L2,13.995507 Z"/>
    <path fill="#DAD71E" d="M22.38 24.364C22.1039986 24.5920011 21.7500022 24.706 21.318 24.706 21.1379991 24.706 20.9280012 24.6880002 20.688 24.652 20.3399983 24.7600005 20.0280014 24.8679995 19.752 24.976 19.0799966 25.2280013 18.6360011 25.4439991 18.42 25.624 18.3479996 26.8720062 18.3479996 28.299992 18.42 29.908 18.4920004 29.8599998 18.6719986 29.8120002 18.96 29.764 19.1040007 29.5119987 19.3499983 29.386 19.698 29.386 20.0460017 29.386 20.4509977 29.5539983 20.913 29.89 21.3750023 30.2260017 21.606 30.5559984 21.606 30.88 21.606 30.9640004 21.5880002 31.0479996 21.552 31.132 21.4079993 31.4920018 21.1860015 31.7199995 20.886 31.816 20.7059991 31.8760003 20.4420017 31.8910002 20.094 31.861 19.7459983 31.8309999 19.5240005 31.8399998 19.428 31.888 19.1519986 32.0200007 18.816002 32.1759991 18.42 32.356 18.42 33.4360054 18.4559996 34.1319984 18.528 34.444 19.0320025 34.3239994 19.4519983 34.1800008 19.788 34.012 19.8480003 33.9279996 19.9079997 33.8500004 19.968 33.778 20.0880006 33.6459993 20.3039984 33.5919999 20.616 33.616 20.9520017 33.6400001 21.2999982 33.8319982 21.66 34.192 22.0200018 34.5520018 22.2 34.9179981 22.2 35.29 22.2 35.6140016 22.0620014 35.8539992 21.786 36.01 21.5099986 36.1660008 21.0480032 36.2200002 20.4 36.172L18.708 37.018C18.6359996 37.0540002 18.4800012 37.173999 18.24 37.378 18.0599991 37.5340008 17.8980007 37.612 17.754 37.612 17.7059998 37.612 17.6520003 37.6060001 17.592 37.594 16.9559968 37.401999 16.3800026 36.904004 15.864 36.1 15.8279998 36.0399997 15.81 35.9680004 15.81 35.884 15.81 35.8479998 15.8759993 35.6080022 16.008 35.164 15.8759993 31.6719825 15.8519996 27.9520197 15.936 24.004 15.8519996 23.8839994 15.81 23.7640006 15.81 23.644 15.81 23.247998 16.1759963 22.9960005 16.908 22.888 17.0640008 22.8639999 17.2619988 22.9059995 17.502 23.014 17.6580008 23.0980004 17.8079993 23.1759996 17.952 23.248L20.112 22.564C20.1600002 22.5519999 20.2979989 22.4800007 20.526 22.348 20.6820008 22.2519995 20.861999 22.204 21.066 22.204 21.1620005 22.204 21.2759993 22.2159999 21.408 22.24 21.6720013 22.2880002 21.9329987 22.4949982 22.191 22.861 22.4490013 23.2270018 22.578 23.5719984 22.578 23.896 22.578 24.100001 22.5120007 24.2559995 22.38 24.364zM29.04 28.756C28.9439995 28.8400004 28.8300007 28.882 28.698 28.882 28.6379997 28.882 28.5000011 28.8580002 28.284 28.81 28.0679989 28.7619998 27.9000006 28.7559998 27.78 28.792L25.836 29.26C25.7279995 29.2840001 25.5420013 29.3559994 25.278 29.476 25.073999 29.5600004 24.9060007 29.602 24.774 29.602 24.4739985 29.602 24.2100011 29.4640014 23.982 29.188 23.7539989 28.9119986 23.64 28.6240015 23.64 28.324 23.64 28.0839988 23.7119993 27.8800008 23.856 27.712 23.9040002 27.6639998 24.0899984 27.64 24.414 27.64 24.810002 27.64 25.0919992 27.6160002 25.26 27.568L27.312 27.028C27.8520027 26.8839993 28.1819994 26.812 28.302 26.812 28.4580008 26.812 28.5959994 26.8479996 28.716 26.92 29.0880019 27.1360011 29.274 27.5319971 29.274 28.108 29.274 28.4080015 29.1960008 28.6239993 29.04 28.756zM28.824 31.6C28.7279995 31.6840004 28.6140007 31.726 28.482 31.726 28.4219997 31.726 28.2840011 31.7020002 28.068 31.654 27.8519989 31.6059998 27.6840006 31.5999998 27.564 31.636L25.62 32.104C25.5119995 32.1280001 25.3260013 32.1999994 25.062 32.32 24.857999 32.4040004 24.6900007 32.446 24.558 32.446 24.2579985 32.446 23.9940011 32.3080014 23.766 32.032 23.5379989 31.7559986 23.424 31.4680015 23.424 31.168 23.424 30.9279988 23.4959993 30.7240008 23.64 30.556 23.6880002 30.5079998 23.8739984 30.484 24.198 30.484 24.594002 30.484 24.8759992 30.4600002 25.044 30.412L27.096 29.872C27.6360027 29.7279993 27.9659994 29.656 28.086 29.656 28.2420008 29.656 28.3799994 29.6919996 28.5 29.764 28.8720019 29.9800011 29.058 30.3759971 29.058 30.952 29.058 31.2520015 28.9800008 31.4679993 28.824 31.6zM34.9439161 31.2904949C34.943972 31.2893549 34.944 31.2905233 34.944 31.294 34.9439721 31.2928303 34.9439442 31.2916619 34.9439161 31.2904949L34.9439161 31.2904949zM34.9439161 31.2904949C34.9318327 30.7888013 34.895861 30.5319722 34.836 30.52 34.5599986 30.9760023 34.320001 31.4139979 34.116 31.834 33.6239975 32.842005 33.3420004 33.6819966 33.27 34.354 33.2099997 34.4980007 33.2039998 34.7799979 33.252 35.2 33.3000002 35.5600018 33.2460008 35.8059993 33.09 35.938 32.9339992 36.0700007 32.7240013 36.136 32.46 36.136 32.1719986 36.136 31.8810015 36.0550008 31.587 35.893 31.2929985 35.7309992 31.0800007 35.548001 30.948 35.344 30.755999 35.0439985 30.6480001 34.1680073 30.624 32.716L30.624 28.468C30.6119999 28.3479994 30.5640004 28.1800011 30.48 27.964 30.3959996 27.7479989 30.354 27.5860005 30.354 27.478 30.354 27.3699995 30.3839997 27.2680005 30.444 27.172 30.6000008 26.9319988 30.9959968 26.812 31.632 26.812 32.4120039 26.812 32.8799992 27.0039981 33.036 27.388 33.0720002 27.4720004 33.09 27.5559996 33.09 27.64 33.09 27.7480005 33.0330006 27.903999 32.919 28.108 32.8049994 28.312001 32.748 28.4799993 32.748 28.612L32.748 30.664C33.1080018 29.9079962 33.5819971 28.9480058 34.17 27.784 34.2420004 27.6279992 34.3109997 27.4720008 34.377 27.316 34.4430003 27.1599992 34.5419993 27.0220006 34.674 26.902 34.8060007 26.7819994 35.0279984 26.722 35.34 26.722 35.8200024 26.722 36.3029976 26.8299989 36.789 27.046 37.2750024 27.2620011 37.5239999 27.5199985 37.536 27.82 37.5480001 28.1320016 37.5030005 28.3689992 37.401 28.531 37.2989995 28.6930008 37.248 28.8279995 37.248 28.936L37.212 32.824C37.404001 32.3919978 37.7519975 31.372008 38.256 29.764 38.652002 28.5399939 38.951999 27.8560007 39.156 27.712 39.4200013 27.519999 39.8099974 27.424 40.326 27.424 41.2860048 27.424 41.7839998 27.6999972 41.82 28.252 41.8079999 29.7160073 41.8079999 32.1639828 41.82 35.596 41.82 35.7280007 41.9399988 35.8869991 42.18 36.073 42.4200012 36.2590009 42.54 36.453999 42.54 36.658 42.54 36.7540005 42.5160002 36.8679993 42.468 37 42.3119992 37.4440022 41.9580028 37.666 41.406 37.666 40.7099965 37.666 40.1940017 37.4260024 39.858 36.946 39.6779991 36.6819987 39.588 35.7760077 39.588 34.228L39.588 33.274C39.6000001 32.8539979 39.606 32.5600008 39.606 32.392 39.606 31.5519958 39.5640004 31.1200001 39.48 31.096 39.2999991 31.0239996 38.6880052 32.7039828 37.644 36.136 37.644 36.1480001 37.6200002 36.4359972 37.572 37 37.5479999 37.3480017 37.4280011 37.5819994 37.212 37.702 37.0559992 37.7860004 36.882001 37.828 36.69 37.828 36.3419983 37.828 36.0060016 37.7140011 35.682 37.486 35.3579984 37.2579989 35.1540004 36.9880016 35.07 36.676 34.9499994 36.2319978 34.8959999 35.3560065 34.908 34.048 34.9308412 32.2321226 34.9428131 31.3129622 34.9439161 31.2904949L34.9439161 31.2904949zM49.362 34.012C49.3499999 34.2760013 49.2360011 34.5459986 49.02 34.822 48.6839983 35.218002 48.4680005 35.517999 48.372 35.722 47.6159962 36.8740058 46.836004 37.45 46.032 37.45 45.0839953 37.45 44.3460026 36.9700048 43.818 36.01 43.3499977 35.1339956 43.116 34.0300067 43.116 32.698 43.116 31.1739924 43.4039971 29.8480056 43.98 28.72 44.6160032 27.4719938 45.437995 26.848 46.446 26.848 47.238004 26.848 47.8799975 27.2859956 48.372 28.162 48.780002 28.9060037 48.984 29.7159956 48.984 30.592 48.984 30.8320012 48.9660002 31.0419991 48.93 31.222 48.8459996 31.630002 48.504003 31.834 47.904 31.834 47.4359977 31.834 47.0760013 31.7020013 46.824 31.438 46.7039994 31.3059993 46.644 31.0000024 46.644 30.52 46.644 30.3999994 46.6499999 30.2260011 46.662 29.998L46.662 29.476C46.662 28.9359973 46.566001 28.666 46.374 28.666 46.169999 28.666 45.9540011 29.2569941 45.726 30.439 45.4979989 31.6210059 45.384 32.7279948 45.384 33.76 45.384 34.960006 45.5639982 35.56 45.924 35.56 46.3920023 35.56 46.7399989 35.1820038 46.968 34.426 47.0640005 34.3179995 47.1179999 34.1020016 47.13 33.778 47.13 33.4899986 47.2019993 33.3010005 47.346 33.211 47.4900007 33.1209996 47.6999986 33.076 47.976 33.076 48.3360018 33.076 48.6479987 33.1539992 48.912 33.31 49.2240016 33.4900009 49.3740001 33.7239986 49.362 34.012zM55.32 26.77C55.4266672 26.9166674 55.48 27.0599993 55.48 27.2 55.48 27.3933343 55.3833343 27.556666 55.19 27.69 54.9966657 27.823334 54.800001 27.89 54.6 27.89 54.5066662 27.89 54.3666676 27.8700002 54.18 27.83 54.0199992 27.7899998 53.9100003 27.7733333 53.85 27.78 53.5433318 27.7533332 53.1000029 27.8033327 52.52 27.93 51.7799963 28.0900008 51.3833336 28.1733333 51.33 28.18 51.1499991 28.2000001 50.9333346 28.1566672 50.68 28.05 50.3799985 27.9233327 50.2266667 27.7633343 50.22 27.57 50.2133333 27.4299993 50.2933325 27.3133338 50.46 27.22 50.660001 27.1066661 50.7799998 27.0100004 50.82 26.93 51.3000024 26.4166641 51.8566635 25.7100045 52.49 24.81 53.4566715 23.4299931 53.94 22.4166699 53.94 21.77 53.94 21.5299988 53.8700007 21.343334 53.73 21.21 53.7166666 21.2033333 53.7000001 21.2 53.68 21.2 53.5733328 21.2 53.3700015 21.3266654 53.07 21.58 52.803332 21.8066678 52.6400003 21.9633329 52.58 22.05 52.5066663 22.1033336 52.4433336 22.2333323 52.39 22.44 52.3433331 22.6200009 52.2400008 22.743333 52.08 22.81 52.0333331 22.8300001 51.976667 22.84 51.91 22.84 51.709999 22.84 51.5033344 22.7633341 51.29 22.61 51.0566655 22.4366658 50.9266668 22.2433344 50.9 22.03 50.8866666 21.9233328 50.9866656 21.7633344 51.2 21.55 51.4133344 21.3366656 51.6466654 21.1566674 51.9 21.01 52.6533371 20.2433295 53.2933307 19.8633333 53.82 19.87 54.8000049 19.8900001 55.29 20.3966617 55.29 21.39 55.29 22.1833373 54.9933363 23.1333278 54.4 24.24 53.8399972 25.2933386 53.2133368 26.1299969 52.52 26.75 52.7066676 26.7233332 53.2533288 26.6166676 54.16 26.43 54.4666682 26.3699997 54.6133334 26.34 54.6 26.34 54.866668 26.34 55.1066656 26.4833319 55.32 26.77z"/>
    <rect width="60" height="4" x="2" y="50" fill="#BD7575"/>
  </g>
</svg>
