<svg xmlns="http://www.w3.org/2000/svg" width="64" height="64" viewBox="0 0 64 64">
  <g fill="none" fill-rule="evenodd">
    <polygon fill="#FFDD95" points="10 5 17 5 17 56.507 10 56.507"/>
    <path fill="#FFAF40" d="M17,5 L49.0000796,5 C50.1046051,5 51,5.894703 51,7.00020325 L51,57.8324082 C51,58.93709 50.1080589,59.8326115 49.0000796,59.8326115 L17,59.8326115 L17,5 Z"/>
    <path fill="#595959" d="M27.156,36.892 C26.9999992,37.2520018 26.6040032,37.432 25.968,37.432 C25.367997,37.432 24.8220025,37.2880014 24.33,37 C23.7899973,36.6759984 23.5559996,36.2920022 23.628,35.848 C23.6640002,35.6679991 23.7959989,35.4610012 24.024,35.227 C24.2520011,34.9929988 24.3600001,34.7920008 24.348,34.624 L24.024,26.632 C24.0119999,26.3559986 23.7420026,26.0800014 23.214,25.804 C22.6859974,25.5279986 22.4160001,25.192002 22.404,24.796 C22.7640018,24.0399962 23.1779977,23.4400022 23.646,22.996 C24.0780022,22.5759979 24.4799981,22.3480002 24.852,22.312 C25.3560025,22.2639998 25.811998,22.4019984 26.22,22.726 C26.628002,23.0500016 26.8200001,23.4519976 26.796,23.932 C26.796,24.0640007 26.7300007,24.2229991 26.598,24.409 C26.4659993,24.5950009 26.4,24.7599993 26.4,24.904 L26.688,34.408 C26.7000001,34.6720013 26.807999,34.9689983 27.012,35.299 C27.216001,35.6290016 27.318,35.9139988 27.318,36.154 C27.318,36.3700011 27.2640005,36.6159986 27.156,36.892 Z M37.722,29.746 C37.529999,29.7339999 37.2240021,29.7399999 36.804,29.764 L35.508,29.98 L35.652,31.132 C35.6640001,31.2400005 35.7029997,31.392999 35.769,31.591 C35.8350003,31.789001 35.868,31.9359995 35.868,32.032 C35.868,32.2960013 35.7180015,32.4999993 35.418,32.644 C35.1779988,32.7640006 34.9080015,32.824 34.608,32.824 C34.199998,32.824 33.9150008,32.7310009 33.753,32.545 C33.5909992,32.3589991 33.4800003,32.0530021 33.42,31.627 C33.3599997,31.2009979 33.3000003,30.7600023 33.24,30.304 L32.484,30.628 C32.2679989,30.7240005 32.0520011,30.7600001 31.836,30.736 C31.5719987,30.7119999 31.3500009,30.5620014 31.17,30.286 C30.9899991,30.0099986 30.9,29.7100016 30.9,29.386 C30.9,29.181999 30.9539995,28.975001 31.062,28.765 C31.1700005,28.5549989 31.319999,28.45 31.512,28.45 C31.5600002,28.45 31.6559993,28.4739998 31.8,28.522 C31.9440007,28.5700002 32.0639995,28.5880001 32.16,28.576 L33.06,28.432 L32.88,26.956 C32.8679999,26.8839996 32.8380002,26.7820007 32.79,26.65 C32.7419998,26.5179993 32.718,26.4160004 32.718,26.344 C32.718,26.1279989 32.9399978,25.9540007 33.384,25.822 C33.7080016,25.7259995 34.0139986,25.678 34.302,25.678 C35.0100035,25.678 35.364,25.8399984 35.364,26.164 C35.364,26.2240003 35.3310003,26.3289992 35.265,26.479 C35.1989997,26.6290007 35.1719999,26.7519995 35.184,26.848 L35.292,28.144 L36.084,28 C36.1920005,27.9759999 36.3659988,27.9280004 36.606,27.856 C36.810001,27.7839996 36.9719994,27.748 37.092,27.748 C37.3800014,27.748 37.6409988,27.8859986 37.875,28.162 C38.1090012,28.4380014 38.226,28.7259985 38.226,29.026 C38.226,29.4100019 38.0580017,29.6499995 37.722,29.746 Z M45.336,36.892 C45.1799992,37.2520018 44.7840032,37.432 44.148,37.432 C43.547997,37.432 43.0020025,37.2880014 42.51,37 C41.9699973,36.6759984 41.7359996,36.2920022 41.808,35.848 C41.8440002,35.6679991 41.9759989,35.4610012 42.204,35.227 C42.4320011,34.9929988 42.5400001,34.7920008 42.528,34.624 L42.204,26.632 C42.1919999,26.3559986 41.9220026,26.0800014 41.394,25.804 C40.8659974,25.5279986 40.5960001,25.192002 40.584,24.796 C40.9440018,24.0399962 41.3579977,23.4400022 41.826,22.996 C42.2580022,22.5759979 42.6599981,22.3480002 43.032,22.312 C43.5360025,22.2639998 43.991998,22.4019984 44.4,22.726 C44.808002,23.0500016 45.0000001,23.4519976 44.976,23.932 C44.976,24.0640007 44.9100007,24.2229991 44.778,24.409 C44.6459993,24.5950009 44.58,24.7599993 44.58,24.904 L44.868,34.408 C44.8800001,34.6720013 44.987999,34.9689983 45.192,35.299 C45.396001,35.6290016 45.498,35.9139988 45.498,36.154 C45.498,36.3700011 45.4440005,36.6159986 45.336,36.892 Z"/>
    <path fill="#ECECEC" d="M10,56.5 C10,54.5670034 11.5571833,53 13.4956369,53 L51,53 L51,60 L13.4956369,60 C11.56505,60 10,58.4290634 10,56.5 L10,56.5 Z"/>
  </g>
</svg>
