<svg xmlns="http://www.w3.org/2000/svg" width="64" height="64" viewBox="0 0 64 64">
  <g fill="none" fill-rule="evenodd">
    <path fill="#868686" stroke="#595959" stroke-linecap="round" stroke-width="2" d="M42,53 C31.5065898,53 23,44.4934102 23,34 C23,23.5065898 31.5065898,15 42,15 C52.4934102,15 61,23.5065898 61,34 C61,44.4934102 52.4934102,53 42,53 Z M42,41 C45.8659932,41 49,37.8659932 49,34 C49,30.1340068 45.8659932,27 42,27 C38.1340068,27 35,30.1340068 35,34 C35,37.8659932 38.1340068,41 42,41 Z"/>
    <circle cx="42" cy="34" r="11" stroke="#595959" stroke-linecap="round" stroke-width="2"/>
    <path stroke="#595959" stroke-linecap="square" stroke-width="2" d="M41,53 L9.69492338,53"/>
    <polygon fill="#595959" points="10 50 18 54 2 54"/>
    <path stroke="#595959" stroke-linecap="round" stroke-width="2" d="M42.1535221,26.0539644 L42.1535221,24.0042503 M48.0651109,29.0884112 L49.5144777,27.6390444 M50.0995576,34 L52.1492718,34 M48.0651109,38.9115888 L49.5144777,40.3609556 M42.1535221,41.9460356 L42.1535221,43.9957497 M36.2419332,38.9115888 L34.7925664,40.3609556 M34.2074865,34 L32.1577723,34 M36.2419332,29.0884112 L34.7925664,27.6390444"/>
  </g>
</svg>
