<svg xmlns="http://www.w3.org/2000/svg" width="64" height="64" viewBox="0 0 64 64">
  <g fill="none" fill-rule="evenodd">
    <path fill="#FF78C7" d="M7.91283262 28.6708976C8.10989316 27.0281155 9.60639831 25.8662661 11.2473069 26.0748095L31.8749206 28.6963775 31.8749206 42.6963775 11.2353655 46.1938249C9.59744179 46.471377 8.07102487 45.3686328 7.86343946 43.7237714 7.86343946 43.7237714 7.42249919 41.6963775 7.42249919 36.6963775 7.42249919 31.6963775 7.91283262 28.6708976 7.91283262 28.6708976zM55.9505104 28.6592841C55.7541275 27.022916 54.456396 25.8410737 53.0687493 26.01743L31.9896493 28.6963775 31.9896493 42.6963775 53.0575453 46.4813931C54.4589029 46.6001257 55.793545 45.3686328 55.9998905 43.7345473 55.9998905 43.7345473 56.4420707 41.6963775 56.4420707 36.6963775"/>
    <polygon fill="#22BA8E" points="21 38 43 38 43 57 32 52.419 21 57"/>
    <path fill="#E552FF" d="M2.6642326,19.6760919 C2.84967181,18.030441 4.31525568,16.9242097 5.95336716,17.2079678 L31.8645699,21.6963775 L31.8645699,37.6963775 L5.99380157,39.4889396 C4.34037062,39.6035044 2.76554443,38.3686328 2.52196637,36.7345473 C2.52196637,36.7345473 2,34.6963775 2,29.6963775 C2,24.6963775 2.6642326,19.6760919 2.6642326,19.6760919 Z"/>
    <path fill="#E552FF" d="M32.6642326,19.6760919 C32.8496718,18.030441 34.3152557,16.9242097 35.9533672,17.2079678 L61.8645699,21.6963775 L61.8645699,37.6963775 L35.9938016,39.4889396 C34.3403706,39.6035044 32.7655444,38.3686328 32.5219664,36.7345473 C32.5219664,36.7345473 32,34.6963775 32,29.6963775 C32,24.6963775 32.6642326,19.6760919 32.6642326,19.6760919 Z" transform="matrix(-1 0 0 1 93.865 0)"/>
    <circle cx="32" cy="33" r="13" fill="#F7EE2D"/>
    <circle cx="32" cy="33" r="9" fill="#FFAF40"/>
  </g>
</svg>
