<svg xmlns="http://www.w3.org/2000/svg" width="64" height="64" viewBox="0 0 64 64">
  <g fill="none" fill-rule="evenodd">
    <path fill="#22BA8E" d="M3,36.0023695 C3,33.7919219 4.78716697,31.7942228 6.96428975,31.5435455 L20,30.0425936 L33.0357102,31.5435455 C35.225127,31.7956384 37,33.7918218 37,36.0023695 L37,43 L3,43 L3,36.0023695 Z"/>
    <path fill="#FFDD95" d="M14,25.3164468 C10.9897907,22.470456 9,17.8615543 9,14 C9,7.92486775 13.9248678,3 20,3 C26.0751322,3 31,7.92486775 31,14 C31,17.8615543 29.0102093,22.470456 26,25.3164468 L26,32 C26,32 21.9325778,33.4486507 20,33.4486507 C18.0674222,33.4486507 14,32 14,32 L14,25.3164468 Z"/>
    <circle cx="11" cy="19" r="3" fill="#FFDD95"/>
    <circle cx="29" cy="19" r="3" fill="#FFDD95"/>
    <path fill="#F5413E" d="M28,36.0023695 C28,33.7919219 29.787167,31.7942228 31.9642898,31.5435455 L45,30.0425936 L58.0357102,31.5435455 C60.225127,31.7956384 62,33.7918218 62,36.0023695 L62,43 L28,43 L28,36.0023695 Z"/>
    <path fill="#5B68C0" d="M49.8063492,49.5390579 L56.0563492,50.9693927 L48.5563492,32.0563492 L41.0563492,50.9693927 L47.3063492,49.5390579 L47.3063492,61.0563492 L49.8063492,61.0563492 L49.8063492,49.5390579 Z" transform="rotate(-45 48.556 46.556)"/>
    <path fill="#FFDD95" d="M39,25.3164468 C35.9897907,22.470456 34,17.8615543 34,14 C34,7.92486775 38.9248678,3 45,3 C51.0751322,3 56,7.92486775 56,14 C56,17.8615543 54.0102093,22.470456 51,25.3164468 L51,32 C51,32 46.9325778,33.4486507 45,33.4486507 C43.0674222,33.4486507 39,32 39,32 L39,25.3164468 Z"/>
    <circle cx="36" cy="19" r="3" fill="#FFDD95"/>
    <circle cx="54" cy="19" r="3" fill="#FFDD95"/>
  </g>
</svg>
