<svg xmlns="http://www.w3.org/2000/svg" width="64" height="64" viewBox="0 0 64 64">
  <g fill="none" fill-rule="evenodd">
    <path fill="#ED9111" d="M57.9450712,59 L62,59 L62,47.662143 C62,46.0013165 60.678797,44.4198218 59.0442388,44.1289265 L52.7785915,43.0138561 L52.6349476,32.0063237 C52.6132808,30.345977 51.2595018,29 49.5953285,29 L29,29 L29,59 L40.0549288,59 C40.0186333,58.6716661 40,58.3380091 40,58 C40,53.0294373 44.0294373,49 49,49 C53.9705627,49 58,53.0294373 58,58 C58,58.3380091 57.9813667,58.6716661 57.9450712,59 Z"/>
    <rect width="5" height="13" x="17" y="19" fill="#D8D8D8"/>
    <rect width="16" height="9" x="32" y="34" fill="#B4DFFB"/>
    <path fill="#5B68C0" d="M24.9450712,59 L29,59 L29,29 L7.00552025,29 C4.78708529,29 3,30.7905363 3,32.9992748 L3,55.0007252 C3,57.2132053 4.7933325,59 7.00552025,59 L7.05492878,59 C7.01863331,58.6716661 7,58.3380091 7,58 C7,53.0294373 11.0294373,49 16,49 C20.9705627,49 25,53.0294373 25,58 C25,58.3380091 24.9813667,58.6716661 24.9450712,59 Z"/>
    <rect width="19" height="9" x="7" y="34" fill="#B4DFFB"/>
    <circle cx="16" cy="58" r="6" fill="#595959"/>
    <circle cx="49" cy="58" r="6" fill="#595959"/>
    <g transform="matrix(-1 0 0 1 33 2)">
      <polygon stroke="#979797" stroke-linecap="round" stroke-width="2" points="11.074 5.266 23.393 3.392 21.918 15.313"/>
      <path stroke="#979797" stroke-linecap="round" stroke-width="2" d="M16.5392261,10.0493924 L23.3462553,3.6040982"/>
      <path fill="#22BA8E" d="M20.2885822,0.788582233 C13.1088805,0.788582233 7.28858223,6.60888049 7.28858223,13.7885822 C7.28858223,20.968284 13.1088805,26.7885822 20.2885822,26.7885822 L20.2885822,0.788582233 Z" transform="rotate(-45 13.789 13.789)"/>
    </g>
  </g>
</svg>
