<svg xmlns="http://www.w3.org/2000/svg" width="64" height="64" viewBox="0 0 64 64">
  <g fill="none" fill-rule="evenodd">
    <rect width="58" height="58" x="4" y="3" fill="#22BA8E" rx="5"/>
    <rect width="3" height="3" x="14" y="13" fill="#80D25B"/>
    <rect width="3" height="3" x="14" y="18" fill="#80D25B"/>
    <rect width="3" height="3" x="14" y="23" fill="#80D25B"/>
    <rect width="3" height="3" x="14" y="28" fill="#80D25B"/>
    <rect width="3" height="3" x="14" y="33" fill="#80D25B"/>
    <rect width="3" height="3" x="14" y="38" fill="#80D25B"/>
    <rect width="3" height="3" x="14" y="43" fill="#80D25B"/>
    <rect width="3" height="3" x="14" y="48" fill="#80D25B"/>
    <rect width="3" height="3" x="19" y="13" fill="#80D25B"/>
    <rect width="3" height="3" x="24" y="13" fill="#80D25B"/>
    <rect width="3" height="3" x="29" y="13" fill="#80D25B"/>
    <rect width="3" height="3" x="34" y="13" fill="#80D25B"/>
    <rect width="3" height="3" x="39" y="13" fill="#80D25B"/>
    <rect width="3" height="3" x="19" y="18" fill="#80D25B"/>
    <rect width="3" height="3" x="24" y="18" fill="#80D25B"/>
    <rect width="3" height="3" x="29" y="18" fill="#80D25B"/>
    <rect width="3" height="3" x="34" y="18" fill="#80D25B"/>
    <rect width="3" height="3" x="39" y="18" fill="#80D25B"/>
    <rect width="3" height="3" x="24" y="43" fill="#80D25B"/>
    <rect width="3" height="3" x="29" y="43" fill="#80D25B"/>
    <rect width="3" height="3" x="34" y="43" fill="#80D25B"/>
    <rect width="3" height="3" x="39" y="43" fill="#80D25B"/>
    <rect width="3" height="3" x="24" y="48" fill="#80D25B"/>
    <rect width="3" height="3" x="29" y="48" fill="#80D25B"/>
    <rect width="3" height="3" x="34" y="48" fill="#80D25B"/>
    <rect width="3" height="3" x="39" y="48" fill="#80D25B"/>
    <rect width="3" height="3" x="19" y="23" fill="#80D25B"/>
    <rect width="3" height="3" x="19" y="28" fill="#80D25B"/>
    <rect width="3" height="3" x="19" y="33" fill="#80D25B"/>
    <rect width="3" height="3" x="19" y="38" fill="#80D25B"/>
    <rect width="3" height="3" x="19" y="43" fill="#80D25B"/>
    <rect width="3" height="3" x="19" y="48" fill="#80D25B"/>
    <rect width="3" height="3" x="49" y="13" fill="#80D25B"/>
    <rect width="3" height="3" x="49" y="18" fill="#80D25B"/>
    <rect width="3" height="3" x="49" y="23" fill="#80D25B"/>
    <rect width="3" height="3" x="49" y="28" fill="#80D25B"/>
    <rect width="3" height="3" x="49" y="33" fill="#80D25B"/>
    <rect width="3" height="3" x="49" y="38" fill="#80D25B"/>
    <rect width="3" height="3" x="49" y="43" fill="#80D25B"/>
    <rect width="3" height="3" x="49" y="48" fill="#80D25B"/>
    <rect width="3" height="3" x="44" y="13" fill="#80D25B"/>
    <rect width="3" height="3" x="44" y="18" fill="#80D25B"/>
    <rect width="3" height="3" x="44" y="23" fill="#80D25B"/>
    <rect width="3" height="3" x="44" y="28" fill="#80D25B"/>
    <rect width="3" height="3" x="44" y="33" fill="#80D25B"/>
    <rect width="3" height="3" x="44" y="38" fill="#80D25B"/>
    <rect width="3" height="3" x="44" y="43" fill="#80D25B"/>
    <rect width="3" height="3" x="44" y="48" fill="#80D25B"/>
    <rect width="44" height="44" x="11" y="10" stroke="#FFDD95" stroke-linecap="round" stroke-width="2" rx="3"/>
  </g>
</svg>
