<svg xmlns="http://www.w3.org/2000/svg" width="64" height="64" viewBox="0 0 64 64">
  <g fill="none" fill-rule="evenodd">
    <rect width="58" height="58" x="3" y="3" fill="#22BA8E" rx="5"/>
    <rect width="3" height="3" x="13" y="13" fill="#80D25B"/>
    <rect width="3" height="3" x="13" y="18" fill="#80D25B"/>
    <rect width="3" height="3" x="13" y="23" fill="#80D25B"/>
    <rect width="3" height="3" x="13" y="28" fill="#80D25B"/>
    <rect width="3" height="3" x="13" y="33" fill="#80D25B"/>
    <rect width="3" height="3" x="13" y="38" fill="#80D25B"/>
    <rect width="3" height="3" x="13" y="43" fill="#80D25B"/>
    <rect width="3" height="3" x="13" y="48" fill="#80D25B"/>
    <rect width="3" height="3" x="18" y="13" fill="#80D25B"/>
    <rect width="3" height="3" x="23" y="13" fill="#80D25B"/>
    <rect width="3" height="3" x="28" y="13" fill="#80D25B"/>
    <rect width="3" height="3" x="33" y="13" fill="#80D25B"/>
    <rect width="3" height="3" x="38" y="13" fill="#80D25B"/>
    <rect width="3" height="3" x="18" y="18" fill="#80D25B"/>
    <rect width="3" height="3" x="23" y="18" fill="#80D25B"/>
    <rect width="3" height="3" x="28" y="18" fill="#80D25B"/>
    <rect width="3" height="3" x="33" y="18" fill="#80D25B"/>
    <rect width="3" height="3" x="38" y="18" fill="#80D25B"/>
    <rect width="3" height="3" x="23" y="43" fill="#80D25B"/>
    <path fill="#5B68C0" d="M32,41 C35.8659932,41 39,37.8659932 39,34 C39,30.1340068 32,22.4906887 32,22.4906887 C32,22.4906887 25,30.1340068 25,34 C25,37.8659932 28.1340068,41 32,41 Z"/>
    <rect width="3" height="3" x="28" y="43" fill="#80D25B"/>
    <rect width="3" height="3" x="33" y="43" fill="#80D25B"/>
    <rect width="3" height="3" x="38" y="43" fill="#80D25B"/>
    <rect width="3" height="3" x="23" y="48" fill="#80D25B"/>
    <rect width="3" height="3" x="28" y="48" fill="#80D25B"/>
    <rect width="3" height="3" x="33" y="48" fill="#80D25B"/>
    <rect width="3" height="3" x="38" y="48" fill="#80D25B"/>
    <rect width="3" height="3" x="18" y="23" fill="#80D25B"/>
    <rect width="3" height="3" x="18" y="28" fill="#80D25B"/>
    <rect width="3" height="3" x="18" y="33" fill="#80D25B"/>
    <rect width="3" height="3" x="18" y="38" fill="#80D25B"/>
    <rect width="3" height="3" x="18" y="43" fill="#80D25B"/>
    <rect width="3" height="3" x="18" y="48" fill="#80D25B"/>
    <rect width="3" height="3" x="48" y="13" fill="#80D25B"/>
    <rect width="3" height="3" x="48" y="18" fill="#80D25B"/>
    <rect width="3" height="3" x="48" y="23" fill="#80D25B"/>
    <rect width="3" height="3" x="48" y="28" fill="#80D25B"/>
    <rect width="3" height="3" x="48" y="33" fill="#80D25B"/>
    <rect width="3" height="3" x="48" y="38" fill="#80D25B"/>
    <rect width="3" height="3" x="48" y="43" fill="#80D25B"/>
    <rect width="3" height="3" x="48" y="48" fill="#80D25B"/>
    <rect width="3" height="3" x="43" y="13" fill="#80D25B"/>
    <rect width="3" height="3" x="43" y="18" fill="#80D25B"/>
    <rect width="3" height="3" x="43" y="23" fill="#80D25B"/>
    <rect width="3" height="3" x="43" y="28" fill="#80D25B"/>
    <rect width="3" height="3" x="43" y="33" fill="#80D25B"/>
    <rect width="3" height="3" x="43" y="38" fill="#80D25B"/>
    <rect width="3" height="3" x="43" y="43" fill="#80D25B"/>
    <rect width="3" height="3" x="43" y="48" fill="#80D25B"/>
    <rect width="44" height="44" x="10" y="10" stroke="#FFDD95" stroke-linecap="round" stroke-width="2" rx="3"/>
  </g>
</svg>
