<svg xmlns="http://www.w3.org/2000/svg" width="64" height="64" viewBox="0 0 64 64">
  <g fill="none" fill-rule="evenodd">
    <polygon fill="#979797" points="37.962 39.017 41 63 34 63 37.043 39.017"/>
    <polygon fill="#595959" points="37.5 3 41 33 34 33"/>
    <polygon fill="#595959" points="48.081 22.081 51.581 52.081 44.581 52.081" transform="rotate(120 48.081 37.081)"/>
    <polygon fill="#595959" points="27.081 22.081 30.581 52.081 23.581 52.081" transform="scale(1 -1) rotate(-60 -37.146 0)"/>
    <circle cx="37.5" cy="31.5" r="2.5" fill="#D8D8D8"/>
    <path stroke="#5EA7FF" stroke-linecap="round" stroke-width="2" d="M11,18.9192423 L30.2902106,18.9192423 C31.6443157,18.9192423 32.7420347,17.827503 32.7420347,16.4596212 L32.7420347,16.4596212 C32.7420347,15.1012099 31.6356849,14 30.280881,14 L28.613581,14"/>
    <path stroke="#5EA7FF" stroke-linecap="round" stroke-width="2" d="M5,28.9192423 L24.2902106,28.9192423 C25.6443157,28.9192423 26.7420347,27.827503 26.7420347,26.4596212 L26.7420347,26.4596212 C26.7420347,25.1012099 25.6356849,24 24.280881,24 L22.613581,24" transform="matrix(1 0 0 -1 0 52.92)"/>
    <path stroke="#5EA7FF" stroke-linecap="round" stroke-width="2" d="M11,56.9192423 L25.2896693,56.9192423 C26.6440733,56.9192423 27.7420347,55.827503 27.7420347,54.4596212 L27.7420347,54.4596212 C27.7420347,53.1012099 26.6356849,52 25.280881,52 L23.613581,52" transform="matrix(1 0 0 -1 0 108.92)"/>
  </g>
</svg>
