<svg xmlns="http://www.w3.org/2000/svg" width="64" height="64" viewBox="0 0 64 64">
  <g fill="none" fill-rule="evenodd">
    <polygon fill="#E6E6E6" points="19.045 3 52 3 52 61 12 61 12 9.065"/>
    <polygon fill="#CDCDCD" points="19 3 19 9 12 9"/>
    <path fill="#979797" d="M19.985,38.418 C20.0036668,38.5300006 19.9943335,38.6606659 19.957,38.81 C19.882333,39.0433345 19.8403334,39.1739999 19.831,39.202 C19.8216666,39.3513341 19.8100001,39.5076659 19.796,39.671 C19.7819999,39.8343342 19.7306671,39.9626662 19.642,40.056 C19.5533329,40.1493338 19.3783346,40.196 19.117,40.196 C18.8556654,40.196 18.627001,40.1446672 18.431,40.042 C18.1976655,39.9299994 18.0763334,39.776001 18.067,39.58 C18.067,39.4959996 18.0926664,39.3933339 18.144,39.272 C18.1953336,39.1506661 18.2279999,39.0573337 18.242,38.992 C18.2560001,38.9266663 18.2583334,38.7493348 18.249,38.46 C18.249,38.2453323 18.3026661,38.0866672 18.41,37.984 C18.5173339,37.8813328 18.6876655,37.83 18.921,37.83 C19.1636679,37.83 19.3923323,37.8836661 19.607,37.991 C19.8216677,38.0983339 19.9476665,38.2406658 19.985,38.418 Z M24.4229347,35.5592738 C24.4135366,35.1690677 24.3855586,34.9693117 24.339,34.96 C24.1243323,35.3146684 23.9376675,35.6553317 23.779,35.982 C23.3963314,36.7660039 23.1770003,37.4193307 23.121,37.942 C23.0743331,38.0540006 23.0696665,38.2733317 23.107,38.6 C23.1443335,38.8800014 23.1023339,39.0713328 22.981,39.174 C22.8596661,39.2766672 22.6963344,39.328 22.491,39.328 C22.2669989,39.328 22.0406678,39.2650006 21.812,39.139 C21.5833322,39.0129994 21.4176672,38.8706675 21.315,38.712 C21.1656659,38.4786655 21.0816668,37.797339 21.063,36.668 L21.063,33.364 C21.0536666,33.2706662 21.0163337,33.1400008 20.951,32.972 C20.8856663,32.8039992 20.853,32.6780004 20.853,32.594 C20.853,32.5099996 20.8763331,32.430667 20.923,32.356 C21.0443339,32.1693324 21.3523309,32.076 21.847,32.076 C22.4536697,32.076 22.8176661,32.2253318 22.939,32.524 C22.9670001,32.5893337 22.981,32.6546663 22.981,32.72 C22.981,32.8040004 22.9366671,32.9253325 22.848,33.084 C22.7593329,33.2426675 22.715,33.3733328 22.715,33.476 L22.715,35.072 C22.9950014,34.4839971 23.3636644,33.7373379 23.821,32.832 C23.8770003,32.7106661 23.9306664,32.5893339 23.982,32.468 C24.0333336,32.3466661 24.1103328,32.2393338 24.213,32.146 C24.3156672,32.0526662 24.4883321,32.006 24.731,32.006 C25.1043352,32.006 25.4799981,32.0899992 25.858,32.258 C26.2360019,32.4260008 26.4296666,32.6266655 26.439,32.86 C26.4483334,33.1026679 26.4133337,33.2869994 26.334,33.413 C26.2546663,33.5390006 26.215,33.6439996 26.215,33.728 L26.187,36.752 C26.3363341,36.4159983 26.606998,35.6226729 26.999,34.372 C27.3070015,33.4199952 27.5403325,32.8880006 27.699,32.776 C27.9043344,32.6266659 28.2076647,32.552 28.609,32.552 C29.3556704,32.552 29.7429999,32.7666645 29.771,33.196 C29.7616666,34.3346724 29.7616666,36.2386533 29.771,38.908 C29.771,39.0106672 29.8643324,39.1343326 30.051,39.279 C30.2376676,39.4236674 30.331,39.5753325 30.331,39.734 C30.331,39.808667 30.3123335,39.8973328 30.275,40 C30.1536661,40.3453351 29.8783355,40.518 29.449,40.518 C28.907664,40.518 28.5063346,40.3313352 28.245,39.958 C28.1049993,39.7526656 28.035,39.048006 28.035,37.844 L28.035,37.102 C28.0443334,36.7753317 28.049,36.5466673 28.049,36.416 C28.049,35.7626634 28.0163337,35.4266668 27.951,35.408 C27.8109993,35.3519997 27.3350041,36.6586533 26.523,39.328 C26.523,39.3373334 26.5043335,39.5613311 26.467,40 C26.4483332,40.270668 26.3550008,40.4526662 26.187,40.546 C26.0656661,40.6113337 25.9303341,40.644 25.781,40.644 C25.510332,40.644 25.2490013,40.5553342 24.997,40.378 C24.7449987,40.2006658 24.5863337,39.9906679 24.521,39.748 C24.4276662,39.4026649 24.3856666,38.7213384 24.395,37.704 C24.4127654,36.2916509 24.4220769,35.5767484 24.4229347,35.5592738 L24.4229347,35.5592738 Z M38.073,38.908 C38.0823334,38.9733337 38.087,39.0386663 38.087,39.104 C38.087,39.6640028 37.7743365,40.041999 37.149,40.238 C37.0276661,40.2753335 36.9203338,40.294 36.827,40.294 C36.6589992,40.294 36.5050007,40.2146675 36.365,40.056 C36.1503323,39.8226655 36.0196669,39.6920001 35.973,39.664 L33.453,37.9 L33.453,39.076 C33.453,39.1600004 33.4786664,39.2649994 33.53,39.391 C33.5813336,39.5170006 33.607,39.6126663 33.607,39.678 C33.607,39.7806672 33.5556672,39.8879994 33.453,40 C33.2196655,40.2426679 32.8836689,40.364 32.445,40.364 C32.0249979,40.364 31.7543339,40.2240014 31.633,39.944 C31.5769997,39.8133327 31.5583332,39.6780007 31.577,39.538 C31.6143335,39.2953321 31.633,39.1320004 31.633,39.048 L31.633,29.836 C31.6236666,29.6679992 31.6423331,29.4160017 31.689,29.08 C31.7730004,28.8746656 32.0296645,28.772 32.459,28.772 C33.0190028,28.772 33.3783325,28.8746656 33.537,29.08 C33.6210004,29.1920006 33.663,29.3133327 33.663,29.444 C33.663,29.5466672 33.6280004,29.7053323 33.558,29.92 C33.4879996,30.1346677 33.453,30.3026661 33.453,30.424 C33.4343332,30.965336 33.4343332,32.4913208 33.453,35.002 C33.9756693,34.4979975 34.6476626,33.8400041 35.469,33.028 C35.5810006,32.9159994 35.7256658,32.7153348 35.903,32.426 C36.0056672,32.2579992 36.1596656,32.1460003 36.365,32.09 C36.4210003,32.0713332 36.486333,32.062 36.561,32.062 C36.831668,32.062 37.1093319,32.1646656 37.394,32.37 C37.6786681,32.5753344 37.821,32.7946655 37.821,33.028 C37.821,33.1586673 37.7276676,33.3173324 37.541,33.504 C37.3543324,33.6906676 37.1676676,33.8679992 36.981,34.036 L34.657,36.444 L37.149,38.236 C37.1676668,38.2546668 37.3543316,38.3293327 37.709,38.46 C37.9143344,38.5440004 38.0356665,38.6933323 38.073,38.908 Z M45.493,32.44 C45.5583337,32.5613339 45.591,32.6873327 45.591,32.818 C45.591,33.0046676 45.5116675,33.2379986 45.353,33.518 C45.1289989,33.8913352 44.9983335,34.1293328 44.961,34.232 C44.5503313,35.4080059 44.0230032,36.891991 43.379,38.684 C43.2576661,39.3000031 43.1036676,39.7386654 42.917,40 C42.6836655,40.3546684 42.3383356,40.5180001 41.881,40.49 C41.4423311,40.4619999 41.1483341,40.3733341 40.999,40.224 C40.8869994,40.1119994 40.831,39.9393345 40.831,39.706 L40.831,39.412 C40.831,39.2439992 40.8170001,39.1040006 40.789,38.992 L39.361,33.868 C39.3329999,33.7559994 39.2116677,33.5740013 38.997,33.322 C38.8196658,33.125999 38.7496665,32.9440008 38.787,32.776 C38.8803338,32.3653313 39.2116638,32.16 39.781,32.16 C39.9023339,32.16 40.0143328,32.1693332 40.117,32.188 C40.4810018,32.262667 40.8403316,32.901994 41.195,34.106 C41.4843348,35.235339 41.7783318,36.3599944 42.077,37.48 L43.533,33 C43.607667,32.7759989 43.6683331,32.6220004 43.715,32.538 C43.7990004,32.3886659 43.9179992,32.2720004 44.072,32.188 C44.2260008,32.1039996 44.4149989,32.062 44.639,32.062 C45.0683355,32.062 45.3529993,32.1879987 45.493,32.44 Z"/>
  </g>
</svg>
