<svg xmlns="http://www.w3.org/2000/svg" width="64" height="64" viewBox="0 0 64 64">
  <g fill="none" fill-rule="evenodd">
    <rect width="58" height="32" x="-8" y="15" fill="#595959" rx="2" transform="rotate(90 21 31)"/>
    <circle cx="21" cy="57" r="2" fill="#868686" transform="rotate(90 21 57)"/>
    <rect width="49" height="28" x="-3.5" y="15.5" fill="#325AA6" rx="1" transform="rotate(90 21 29.5)"/>
    <path fill="#D8D8D8" d="M50.1074028,35.3955983 C51.7078611,36.6473354 55.367911,44.043357 57.6176718,43.4405354 C60.1581737,42.75981 60.7690852,36.8018283 58.982181,30.1330108 C57.1952767,23.4641934 56.1392519,18.2975934 53.2909227,17.4474491 C52.194988,17.1203441 49.9663927,16.4510575 47.602784,17.8648292 C45.2391754,19.2786009 37.767385,19.2786009 35.4037764,17.8648292 C33.0401678,16.4510575 30.8115725,17.1203441 29.7156378,17.4474491 C26.8673086,18.2975934 25.8112837,23.4641934 24.0243795,30.1330108 C22.2374752,36.8018283 22.8483868,42.75981 25.3888887,43.4405354 C27.6386494,44.043357 31.2986993,36.6473354 32.8991577,35.3955983 C34.0076121,34.5286631 37.1630894,34.4411904 39.230341,34.4693382 L44.5878784,34.4654589 C46.5932201,34.4747841 49.1361419,34.6359638 50.1074028,35.3955983 Z"/>
    <path fill="#595959" d="M34,25 L34,22 L31,22 L31,25 L28,25 L28,28 L31,28 L31,31 L34,31 L34,28 L37,28 L37,25 L34,25 Z"/>
    <circle cx="50.5" cy="26.5" r="3.5" fill="#595959"/>
  </g>
</svg>
