<svg xmlns="http://www.w3.org/2000/svg" width="64" height="64" viewBox="0 0 64 64">
  <g fill="none" fill-rule="evenodd">
    <path fill="#5B68C0" d="M40.0714286,25 C35.8109462,25 33,29.8928881 33,35.9285714 C33,41.9642548 35.8109462,61 40.0714286,61 C42.5568423,61 43.1962339,45.1920244 46.5356448,45.177711 C50.5179129,45.1920244 49.8003005,61 52.2857143,61 C56.5461966,61 59.3571429,41.9642548 59.3571429,35.9285714 C59.3571429,29.8928881 56.5461966,25 52.2857143,25 C50.25,25 48.5713591,26.9630984 46.5356448,26.9630984 C44.4999305,26.9630984 42.1071429,25 40.0714286,25 Z"/>
    <path fill="#595959" d="M4,4.99824564 C4,4.4469298 4.45470893,4 4.9999602,4 L20.0000398,4 C20.5523026,4 21,4.45552075 21,4.99824564 L21,32.0017544 C21,32.5530702 20.5452911,33 20.0000398,33 L4.9999602,33 C4.44769743,33 4,32.5444793 4,32.0017544 L4,4.99824564 Z"/>
    <rect width="15" height="21" x="5" y="7" fill="#B4DFFB"/>
    <circle cx="12.5" cy="30.5" r="1.5" fill="#868686"/>
    <polyline stroke="#979797" stroke-dasharray="4" stroke-linecap="round" stroke-width="2" points="24 15 45.993 15 45.993 22.98"/>
  </g>
</svg>
