<svg xmlns="http://www.w3.org/2000/svg" width="64" height="64" viewBox="0 0 64 64">
  <g fill="none" fill-rule="evenodd">
    <rect width="60" height="42" x="-8" y="9" fill="#D8D8D8" rx="2" transform="rotate(90 22 30)"/>
    <circle cx="25" cy="58" r="2" fill="#979797" transform="rotate(90 25 58)"/>
    <rect width="49" height="38" x="-2.5" y="8.5" fill="#5B68C0" rx="1" transform="rotate(90 22 27.5)"/>
    <path stroke="#5EA7FF" stroke-linecap="round" stroke-width="2" d="M13.0994253 8L9 12.0994253M19.0994253 8L9.61905129 17.480374"/>
    <path fill="#D8D8D8" d="M21.5,25.491617 C21.5,24.3916773 22.3959923,23.5 23.4992604,23.5 L70.5007396,23.5 C71.6049006,23.5 72.5,24.3978404 72.5,25.491617 L72.5,51.508383 C72.5,52.6083227 71.6040077,53.5 70.5007396,53.5 L23.4992604,53.5 C22.3950994,53.5 21.5,52.6021596 21.5,51.508383 L21.5,25.491617 Z" transform="rotate(90 47 38.5)"/>
    <circle cx="47" cy="61" r="2" fill="#868686" transform="rotate(90 47 61)"/>
    <path fill="#5B68C0" d="M25.5,24.5032996 C25.5,23.9491925 25.9538156,23.5 26.4996105,23.5 L67.5003895,23.5 C68.0524591,23.5 68.5,23.9512787 68.5,24.5032996 L68.5,48.4967004 C68.5,49.0508075 68.0461844,49.5 67.5003895,49.5 L26.4996105,49.5 C25.9475409,49.5 25.5,49.0487213 25.5,48.4967004 L25.5,24.5032996 Z" transform="rotate(90 47 36.5)"/>
    <path stroke="#5EA7FF" stroke-linecap="round" stroke-width="2" d="M42.0994253 18L38 22.0994253M47.0994253 20L37.6190513 29.480374"/>
  </g>
</svg>
