<svg xmlns="http://www.w3.org/2000/svg" width="64" height="64" viewBox="0 0 64 64">
  <g fill="none" fill-rule="evenodd">
    <rect width="17" height="11" x="24" y="7" stroke="#595959" stroke-linecap="round" stroke-width="2" rx="3"/>
    <rect width="59" height="38" x="3" y="14" fill="#595959"/>
    <polygon fill="#868686" points="3 14 62 14 62 23.5 32.5 33 3 23.5"/>
    <path fill="#FFAF40" d="M29,30 L35,30 L35,33.9907455 C35,35.6527109 33.6534829,37 32,37 L32,37 C30.3431458,37 29,35.6503296 29,33.9907455 L29,30 Z"/>
    <path fill="#D8D8D8" d="M41,33.9982456 C41,33.4469298 41.4547089,33 41.9999602,33 L57.0000398,33 C57.5523026,33 58,33.4555207 58,33.9982456 L58,61.0017544 C58,61.5530702 57.5452911,62 57.0000398,62 L41.9999602,62 C41.4476974,62 41,61.5444793 41,61.0017544 L41,33.9982456 Z"/>
    <rect width="15" height="21" x="42" y="36" fill="#5B68C0"/>
    <circle cx="49.5" cy="59.5" r="1.5" fill="#868686"/>
  </g>
</svg>
