<svg xmlns="http://www.w3.org/2000/svg" width="64" height="64" viewBox="0 0 64 64">
  <g fill="none" fill-rule="evenodd">
    <path fill="#D8D8D8" d="M57.9982567,3 C59.103789,3 60,3.88783214 60,4.99649128 L60,59.0035087 C60,60.1061404 59.1107383,61 57.9982567,61 L30.0017433,61 C28.896211,61 28,60.1121679 28,59.0035087 L28,4.99649128 C28,3.89385959 28.8892617,3 30.0017433,3"/>
    <circle cx="44" cy="58" r="2" fill="#868686"/>
    <path fill="#FFAF40" d="M57.0034652,6 C57.5538362,6 58,6.45379178 58,7.00099774 L58,53.9990023 C58,54.551838 57.5601869,55 57.0034652,55 L30.9965348,55 C30.4461638,55 30,54.5462082 30,53.9990023 L30,7.00099774 C30,6.44816195 30.4398131,6 30.9965348,6"/>
    <path fill="#5B68C0" d="M3,20.0018785 C3,17.791702 4.79309123,16 7.00180999,16 L42.99819,16 C45.2083286,16 47,17.7921947 47,20.0018785 L47,40.9981215 C47,43.208298 45.2069088,45 42.99819,45 L7.00180999,45 C4.79167136,45 3,43.2078053 3,40.9981215 L3,20.0018785 Z"/>
    <circle cx="12" cy="25" r="5" stroke="#F5413E" stroke-linecap="round" stroke-width="2"/>
    <circle cx="16" cy="25" r="5" stroke="#FFAF40" stroke-linecap="round" stroke-width="2"/>
    <rect width="18" height="3" x="6" y="38" fill="#D8D8D8"/>
  </g>
</svg>
