<svg xmlns="http://www.w3.org/2000/svg" width="64" height="64" viewBox="0 0 64 64">
  <g fill="none" fill-rule="evenodd">
    <path fill="#0A3586" d="M1,14.0052699 C1,12.8977899 1.88582923,12 2.9948984,12 L60.0051016,12 C61.1068536,12 62,12.8944731 62,14.0052699 L62,50.9947301 C62,52.1022101 61.1141708,53 60.0051016,53 L2.9948984,53 C1.89314644,53 1,52.1055269 1,50.9947301 L1,14.0052699 Z" transform="rotate(90 31.5 32.5)"/>
    <circle cx="31.5" cy="58.5" r="2.5" fill="#5B68C0" transform="rotate(90 31.5 58.5)"/>
    <path fill="#FFDD95" d="M8,13.0088498 C8,12.4516774 8.45010362,12 9.00340562,12 L53.9965944,12 C54.55076,12 55,12.4413032 55,13.0088498 L55,47.9911502 C55,48.5483226 54.5498964,49 53.9965944,49 L9.00340562,49 C8.44924,49 8,48.5586968 8,47.9911502 L8,13.0088498 Z" transform="rotate(90 31.5 30.5)"/>
    <path fill="#5EA7FF" d="M27.5609756,19 C24.8130222,19 23,21.9900983 23,25.6785714 C23,29.3670446 24.8130222,41 27.5609756,41 C29.1640338,41 29.3461252,31.3395704 31.5,31.3308234 C34.0685089,31.3395704 33.8359662,41 35.4390244,41 C38.1869778,41 40,29.3670446 40,25.6785714 C40,21.9900983 38.1869778,19 35.4390244,19 C34.1260163,19 32.8130081,20.1785714 31.5,20.1785714 C30.1869919,20.1785714 28.8739837,19 27.5609756,19 Z"/>
  </g>
</svg>
