<svg xmlns="http://www.w3.org/2000/svg" width="64" height="64" viewBox="0 0 64 64">
  <g fill="none" fill-rule="evenodd">
    <path fill="#595959" d="M46.5370825,39.9023289 C49.2256545,42.0050924 55.3740854,54.4294936 59.1534051,53.4168279 C63.421134,52.2732934 64.4473898,42.2646213 61.4456118,31.0618332 C58.4438337,19.859045 56.6698427,11.1797963 51.885002,9.75165911 C50.0439674,9.20216325 46.300203,8.07784445 42.3296329,10.452806 C38.3590629,12.8277675 25.8073796,12.8277675 21.8368096,10.452806 C17.8662396,8.07784445 14.1224752,9.20216325 12.2814405,9.75165911 C7.49659987,11.1797963 5.72260878,19.859045 2.72083073,31.0618332 C-0.280947311,42.2646213 0.745308569,52.2732934 5.0130374,53.4168279 C8.7923571,54.4294936 14.940788,42.0050924 17.62936,39.9023289 C19.4914263,38.4459851 24.7922378,38.2990419 28.2649646,38.3463266 L37.2649646,38.3398099 C40.6336904,38.355475 44.9054843,38.6262369 46.5370825,39.9023289 Z"/>
    <circle cx="32" cy="21" r="2" fill="#ED9111"/>
    <path fill="#FFDD95" d="M25,28 L25,25 L22,25 L22,28 L19,28 L19,31 L22,31 L22,34 L25,34 L25,31 L28,31 L28,28 L25,28 Z"/>
    <circle cx="15" cy="20" r="4" fill="#E43535"/>
    <circle cx="39" cy="30" r="4" fill="#80D25B"/>
    <polygon fill="#ED9111" points="45 14 49 14 49 18 47 19.133 45 18"/>
    <polygon fill="#E43535" points="49.566 17.434 53.566 17.434 53.566 21.434 51.566 22.566 49.566 21.434" transform="rotate(90 51.566 20)"/>
    <polygon fill="#5EA7FF" points="40.566 17.434 44.566 17.434 44.566 21.434 42.566 22.566 40.566 21.434" transform="matrix(0 1 1 0 22.566 -22.566)"/>
    <polygon fill="#22BA8E" points="45 21 49 21 49 25 47 26.133 45 25" transform="matrix(1 0 0 -1 0 47.133)"/>
  </g>
</svg>
