<svg xmlns="http://www.w3.org/2000/svg" width="64" height="64" viewBox="0 0 64 64">
  <g fill="none" fill-rule="evenodd">
    <text fill="#80D25B" font-family="MarkerFelt-Thin, Marker Felt" font-size="35" font-weight="300">
      <tspan x="1" y="29">$</tspan>
    </text>
    <path fill="#BD7575" d="M9.58349433,58.472458 C9.58349433,58.472458 22.8352379,42.8032765 24.2089934,34.7877654 C25.582749,26.7722543 27.7754891,15.41572 41.3851994,10.1368725 C41.3851994,10.1368725 31.0940424,18.4406166 30.4710873,28.0569055 C29.8481322,37.6731944 27.616651,43.4262317 25.9128222,46.7641555 C24.2089934,50.1020793 17.2991502,59.4642273 17.2991502,59.4642273 L9.58349433,58.472458 Z"/>
    <path stroke="#BD7575" stroke-linecap="round" stroke-width="2" d="M26.6030864,27.3781849 C26.6030864,27.3781849 24.131793,20.1992239 20.0532072,18.0529174"/>
    <path fill="#80D25B" d="M60.8879968 3.28821646C60.8879968 3.28821646 47.7953087 21.1108227 37.9423141 14.9015533 28.0893194 8.69228386 44.8280219 1.45920032 60.8879968 3.28821646zM45 34.7249648C45 34.7249648 37.4138463 45.0517234 31.704833 41.453954 25.9958196 37.8561847 35.6945437 33.6651979 45 34.7249648z"/>
  </g>
</svg>
