<svg xmlns="http://www.w3.org/2000/svg" width="64" height="64" viewBox="0 0 64 64">
  <g fill="none" fill-rule="evenodd">
    <circle cx="32" cy="32" r="17" fill="#22BA8E"/>
    <path stroke="#22BA8E" stroke-linecap="round" stroke-width="4" d="M12.9081169,51.0918831 C17.7941559,55.9779221 24.5441559,59 32,59 L32,59 C46.9116882,59 59,46.9116882 59,32 M51.0918831,12.9081169 C46.2058441,8.02207794 39.4558441,5 32,5 C17.0883118,5 5,17.0883118 5,32"/>
    <path fill="#FFDD95" d="M34.32,18.875 C34.6933352,19.0383342 34.88,19.3299979 34.88,19.75 C34.88,20.3800031 34.5883362,20.8349986 34.005,21.115 C33.6316648,21.3016676 33.1066701,21.395 32.43,21.395 C31.8233303,21.395 31.2050032,21.2958343 30.575,21.0975 C29.9449969,20.8991657 29.5950003,20.7183342 29.525,20.555 C29.1283314,19.4349944 29.3266627,18.6300024 30.12,18.14 C30.3066676,18.0233328 30.6683307,17.965 31.205,17.965 C32.6750073,17.965 33.7133303,18.2683303 34.32,18.875 Z M39.255,31.72 C39.255,33.4233418 38.3450091,35.5116543 36.525,37.985 C34.7749912,40.2250112 33.0950081,41.345 31.485,41.345 C29.8983254,41.345 28.2883415,40.8550049 26.655,39.875 C25.254993,38.8483282 24.5783331,37.9033377 24.625,37.04 C24.6716669,36.5499975 25.2666609,36.305 26.41,36.305 C27.3666715,36.305 28.2533292,36.4683317 29.07,36.795 C29.3500014,37.0283345 29.8049968,37.3199983 30.435,37.67 C30.8316686,37.6933334 31.3974963,37.238338 32.1325,36.305 C32.8675037,35.371662 33.235,34.6483359 33.235,34.135 C33.235,33.8316651 33.0366687,33.68 32.64,33.68 C32.429999,33.68 31.5433411,33.7499993 29.98,33.89 C28.4166588,34.0300007 27.2383373,34.1 26.445,34.1 C24.6716578,34.1 23.5633356,33.5750052 23.12,32.525 C23.0966666,32.5016665 23.085,32.3850011 23.085,32.175 C23.085,30.9616606 24.1349895,29.1183457 26.235,26.645 C28.5450116,24.0083202 30.5399916,22.69 32.22,22.69 C33.410006,22.69 34.6116606,23.1449955 35.825,24.055 C37.1083398,24.8716707 37.7033338,25.5016645 37.61,25.945 C37.3299986,27.4383408 36.3850081,28.185 34.775,28.185 C34.5183321,28.185 34.2383349,28.1441671 33.935,28.0625 C33.6316652,27.9808329 33.3166683,27.7241688 32.99,27.2925 C32.6633317,26.8608312 32.3133352,26.645 31.94,26.645 C31.5199979,26.645 30.7675054,27.2341608 29.6825,28.4125 C28.5974946,29.5908392 28.055,30.4366641 28.055,30.95 C28.055,31.0200004 28.1483324,31.055 28.335,31.055 C28.6850017,31.055 29.8399902,30.8450021 31.8,30.425 C33.7600098,30.0049979 35.2883278,29.795 36.385,29.795 C38.2983429,29.795 39.255,30.4366603 39.255,31.72 Z M34.355,44.6 C34.355,45.5800049 33.6900066,46.2916645 32.36,46.735 C32.0099982,46.8283338 31.3858378,46.705835 30.4875,46.3675 C29.5891622,46.029165 29.1283335,45.7200014 29.105,45.44 C28.9883328,44.4599951 29.1866641,43.7950017 29.7,43.445 C29.9800014,43.2349989 30.4349968,43.13 31.065,43.13 C31.8350039,43.13 32.5466634,43.2349989 33.2,43.445 C33.8533366,43.655001 34.2091664,43.8708322 34.2675,44.0925 C34.3258336,44.3141678 34.355,44.4833328 34.355,44.6 Z"/>
    <polygon fill="#22BA8E" points="53.778 10.778 59.778 20.778 47.778 20.778" transform="rotate(135 53.778 15.778)"/>
    <polygon fill="#22BA8E" points="10.696 42.33 16.696 52.33 4.696 52.33" transform="rotate(-35 10.696 47.33)"/>
  </g>
</svg>
