<svg xmlns="http://www.w3.org/2000/svg" width="64" height="64" viewBox="0 0 64 64">
  <g fill="none" fill-rule="evenodd">
    <path fill="#595959" d="M14,15.995507 C14,14.3411342 15.3433937,13 16.9936145,13 L61,13 L61,52 L16.9936145,52 C15.3402869,52 14,50.6575317 14,49.004493 L14,15.995507 Z" transform="matrix(-1 0 0 1 75 0)"/>
    <rect width="4" height="25" x="54" y="20" fill="#FF78C7"/>
    <path fill="#979797" d="M8,15.995507 C8,14.3411342 9.34339372,13 10.9936145,13 L55,13 L55,52 L10.9936145,52 C9.34028685,52 8,50.6575317 8,49.004493 L8,15.995507 Z"/>
    <rect width="4" height="25" x="49" y="20" fill="#FFAF40"/>
    <path fill="#595959" d="M3,15.995507 C3,14.3411342 4.34339372,13 5.99361448,13 L50,13 L50,52 L5.99361448,52 C4.34028685,52 3,50.6575317 3,49.004493 L3,15.995507 Z"/>
    <rect width="38" height="29" x="8" y="19" fill="#22BA8E"/>
    <polygon fill="#80D25B" points="9.673 16 45.673 19 9.673 19"/>
    <path stroke="#80D25B" stroke-width="2" d="M8,26 L8,26 C11.8659932,26 15,22.8659932 15,19"/>
    <path stroke="#80D25B" stroke-width="2" d="M8,48 L8,48 C11.8659932,48 15,44.8659932 15,41" transform="matrix(1 0 0 -1 0 89)"/>
    <path fill="#80D25B" d="M46,24 C40.4771525,24 36,28.4771525 36,34 C36,39.5228475 40.4771525,44 46,44 L46,24 Z"/>
    <path fill="#D8D8D8" d="M23,31.0008642 C23,29.8958174 23.8867064,29 24.9981014,29 L29.0018986,29 C30.1054196,29 31,29.9016273 31,31.0008642 L31,52 L23,52 L23,31.0008642 Z"/>
  </g>
</svg>
