<svg xmlns="http://www.w3.org/2000/svg" width="64" height="64" viewBox="0 0 64 64">
  <g fill="none" fill-rule="evenodd">
    <rect width="60" height="12" x="2" y="42" fill="#22BA8E"/>
    <polygon fill="#80D25B" points="12 21 53 21 56 32.5 56 42 8 42 8 32.5"/>
    <rect width="5" height="2" x="11" y="34" fill="#FFF"/>
    <rect width="5" height="2" x="20" y="34" fill="#FFF"/>
    <rect width="5" height="2" x="29" y="34" fill="#FFF"/>
    <rect width="5" height="2" x="38" y="34" fill="#FFF"/>
    <rect width="5" height="2" x="47" y="34" fill="#FFF"/>
    <rect width="5" height="2" x="12" y="38" fill="#FFF"/>
    <rect width="5" height="2" x="21" y="38" fill="#FFF"/>
    <rect width="5" height="2" x="30" y="38" fill="#FFF"/>
    <rect width="5" height="2" x="39" y="38" fill="#FFF"/>
    <rect width="5" height="2" x="48" y="38" fill="#FFF"/>
    <rect width="16" height="6" x="24" y="24" fill="#FFDD95"/>
    <path stroke="#FFF" stroke-linecap="square" stroke-width="2" d="M25,48 L39,48"/>
    <rect width="7" height="7" x="39" y="14" fill="#22BA8E"/>
    <rect width="23" height="9" x="31" y="5" fill="#FFAF40"/>
  </g>
</svg>
