<svg xmlns="http://www.w3.org/2000/svg" width="64" height="64" viewBox="0 0 64 64">
  <g fill="none" fill-rule="evenodd">
    <rect width="6" height="11" x="29" y="44" fill="#D8D8D8"/>
    <rect width="14" height="1" x="25" y="56" stroke="#979797" stroke-width="2"/>
    <path fill="#868686" d="M2,9.99550699 C2,8.34113416 3.33730974,7 4.99593743,7 L59.0040626,7 C60.6586731,7 62,8.34246828 62,9.99550699 L62,43.004493 C62,44.6588658 60.6626903,46 59.0040626,46 L4.99593743,46 C3.34132688,46 2,44.6575317 2,43.004493 L2,9.99550699 Z"/>
    <rect width="54" height="33" x="5" y="10" fill="#5B68C0"/>
    <path stroke="#5EA7FF" stroke-linecap="round" stroke-width="2" d="M14.0994253 14L10 18.0994253M20.0994253 14L10.6190513 23.480374"/>
    <path fill="#D8D8D8" d="M42,34.9982456 C42,34.4469298 42.4547089,34 42.9999602,34 L58.0000398,34 C58.5523026,34 59,34.4555207 59,34.9982456 L59,62.0017544 C59,62.5530702 58.5452911,63 58.0000398,63 L42.9999602,63 C42.4476974,63 42,62.5444793 42,62.0017544 L42,34.9982456 Z"/>
    <rect width="15" height="21" x="43" y="37" fill="#5B68C0"/>
    <circle cx="50.5" cy="60.5" r="1.5" fill="#868686"/>
  </g>
</svg>
