<svg xmlns="http://www.w3.org/2000/svg" width="64" height="64" viewBox="0 0 64 64">
  <g fill="none" fill-rule="evenodd">
    <rect width="6" height="11" x="29" y="46" fill="#D8D8D8"/>
    <rect width="14" height="1" x="25" y="58" stroke="#979797" stroke-width="2"/>
    <path fill="#868686" d="M2,11.995507 C2,10.3411342 3.33730974,9 4.99593743,9 L59.0040626,9 C60.6586731,9 62,10.3424683 62,11.995507 L62,45.004493 C62,46.6588658 60.6626903,48 59.0040626,48 L4.99593743,48 C3.34132688,48 2,46.6575317 2,45.004493 L2,11.995507 Z"/>
    <rect width="54" height="33" x="5" y="12" fill="#595959"/>
    <path fill="#80D25B" d="M47.5044647,31.529591 C50.2658885,31.529591 52.5044647,29.1876959 52.5044647,26.2988218 C52.5044647,23.4099477 47.5044647,14.529591 47.5044647,14.529591 C47.5044647,14.529591 42.5044647,23.4099477 42.5044647,26.2988218 C42.5044647,29.1876959 44.743041,31.529591 47.5044647,31.529591 Z" transform="rotate(75 47.504 23.03)"/>
    <path fill="#80D25B" d="M17.5044647,31.529591 C20.2658885,31.529591 22.5044647,29.1876959 22.5044647,26.2988218 C22.5044647,23.4099477 17.5044647,14.529591 17.5044647,14.529591 C17.5044647,14.529591 12.5044647,23.4099477 12.5044647,26.2988218 C12.5044647,29.1876959 14.743041,31.529591 17.5044647,31.529591 Z" transform="scale(-1 1) rotate(75 0 .217)"/>
    <path stroke="#22BA8E" stroke-linecap="round" stroke-width="2" d="M44,24 C37.372583,24 32,29.372583 32,36"/>
    <path stroke="#22BA8E" stroke-linecap="round" stroke-width="2" d="M32,24 C25.372583,24 20,29.372583 20,36" transform="matrix(-1 0 0 1 52 0)"/>
  </g>
</svg>
