<svg xmlns="http://www.w3.org/2000/svg" width="64" height="64" viewBox="0 0 64 64">
  <g fill="none" fill-rule="evenodd">
    <rect width="6" height="11" x="29" y="45" fill="#D8D8D8"/>
    <rect width="14" height="1" x="25" y="57" stroke="#979797" stroke-width="2"/>
    <path fill="#868686" d="M2,10.995507 C2,9.34113416 3.33730974,8 4.99593743,8 L59.0040626,8 C60.6586731,8 62,9.34246828 62,10.995507 L62,44.004493 C62,45.6588658 60.6626903,47 59.0040626,47 L4.99593743,47 C3.34132688,47 2,45.6575317 2,44.004493 L2,10.995507 Z"/>
    <rect width="54" height="33" x="5" y="11" fill="#325AA6"/>
    <path fill="#FFAF40" d="M17,36.550684 C17,36.9338062 16.8809536,37.2747798 16.6428571,37.5736151 C16.4047607,37.8724505 16.1031764,38.0142035 15.7380952,37.9988787 C15.4841257,37.9835538 14.8650843,37.6579048 13.8809524,37.0219219 C12.8968205,36.3859391 12.3968255,35.9453552 12.3809524,35.700157 C12.3809524,35.5928828 12.4047617,35.4511297 12.452381,35.2748935 C12.5000002,35.0986572 12.5238095,34.9645665 12.5238095,34.8726172 L12.5238095,25.2179861 C12.5238095,24.8655137 12.1666702,24.6126568 11.452381,24.4594079 C10.6587262,24.2755093 10.2063498,24.0226524 10.0952381,23.7008298 C10.0317457,23.532256 10,23.3713471 10,23.2180982 C10,22.8809507 10.1746014,22.4825096 10.5238095,22.0227629 C11.0000024,21.3944425 11.2857138,20.9883391 11.3809524,20.8044405 L11.952381,19.0114375 C12.2222236,18.3371425 12.6904729,18 13.3571429,18 C14.039686,18 14.7222188,18.1992206 15.4047619,18.5976676 C16.1666705,19.0420894 16.547619,19.5478031 16.547619,20.1148239 L16.547619,35.3553487 C16.547619,35.5085976 16.6230151,35.703987 16.7738095,35.9415227 C16.9246039,36.1790585 17,36.3821102 17,36.550684 Z"/>
    <path fill="#FFF" d="M36.4953071,34.517539 C36.5401496,34.9461842 36.2636251,35.2491875 35.6657251,35.4265579 C35.4714077,35.3969962 35.1874095,35.4043865 34.813722,35.4487291 C34.544667,35.4487291 33.7001461,35.6630485 32.2801338,36.0916937 C30.6807515,36.5351198 29.4924432,36.9489779 28.7151733,37.3332805 C28.5059084,37.4367466 28.3153306,37.5734676 28.1434344,37.7434476 C27.9715382,37.9134276 27.8631704,37.9984163 27.818328,37.9984163 C27.5941155,38.0279781 26.9439091,37.6436812 25.8676892,36.8455143 C25.5687393,36.6681438 25.2697938,36.4759954 24.9708438,36.2690632 C24.6718939,36.0621311 24.5149475,35.8182504 24.5,35.5374139 C24.5,35.4339478 25.1502064,34.4658154 26.4506387,32.6329875 C28.050021,30.3862954 29.2906447,28.5091531 30.1725471,27.0015045 C31.5327694,24.6217845 32.2651858,22.7372519 32.3698183,21.3478502 C31.2039135,21.820838 30.0380261,22.8850446 28.8721213,24.540502 C28.7824363,24.6144064 28.726384,24.7511273 28.7039628,24.9506691 C28.6815415,25.1502108 28.6404365,25.2869318 28.5806465,25.3608362 C28.4311716,25.5529875 28.2144361,25.6490617 27.9304336,25.6490617 C27.4371662,25.6490617 26.8392752,25.4125713 26.1367428,24.9395835 L25.2398974,24.4518172 C24.8811575,24.2596659 24.6943166,24.0896885 24.6793691,23.9418798 C24.6494741,23.6019198 25.0231559,22.944181 25.8004258,21.9686436 C26.6374857,20.9339827 27.5642167,20.0545342 28.5806465,19.3302716 C29.7913939,18.4434194 30.8675976,18 31.8092899,18 C32.1680299,18 32.5080804,18.11455 32.8294516,18.3436535 C33.1508228,18.572757 33.4609787,18.8055522 33.7599287,19.0420461 C34.970676,19.8697748 35.7404606,20.6531491 36.0693056,21.3921926 C36.1290956,21.5400013 36.1589901,21.7321497 36.1589901,21.9686436 C36.1589901,23.0033045 35.605941,24.6882983 34.4998261,27.0236757 C33.4535013,29.2260252 32.3324557,31.1401191 31.1366559,32.7660147 C31.6000283,32.618206 32.2427611,32.3964963 33.0648735,32.1008789 C33.1545585,32.0565363 33.3115049,31.9530718 33.5357173,31.7904822 C33.6851923,31.6870161 33.8271914,31.6426742 33.9617189,31.657455 C34.3204588,31.7017977 34.8249293,32.1193509 35.4751455,32.9101275 C36.1253616,33.700904 36.4654121,34.2367025 36.4953071,34.517539 Z"/>
    <path fill="#56E287" d="M53.7782444,22.9576924 C53.674758,23.9991272 53.0021062,25.2488302 51.7602688,26.7068389 C53.2534304,27.9714384 54,29.4145478 54,31.0362106 C54,32.7025063 53.268214,34.3018286 51.8046199,35.8342256 C50.4740799,37.2029685 49.2248693,37.9245232 48.0569509,37.9989114 C47.58387,38.0286667 46.615547,37.4484474 45.151953,36.2582362 C43.7327103,35.0977802 43.0157078,34.3687868 43.000924,34.071234 C42.9861402,33.7290483 43.1487593,33.4166225 43.4887862,33.1339474 C43.8288131,32.8512722 44.1540514,32.7173754 44.4645107,32.7322531 C44.6714836,32.7471307 45.0041136,33.0223629 45.4624108,33.557958 C45.9207079,34.093553 46.3420392,34.3985401 46.7264175,34.4729283 C47.3325524,34.606827 48.1530398,33.9894142 49.1879042,32.6206713 C50.1784174,31.3263166 50.6736665,30.3667232 50.6736665,29.7418624 C50.6736665,29.4740648 50.5036556,29.3401681 50.1636287,29.3401681 C49.9270883,29.3401681 49.6462007,29.4591874 49.3209576,29.6972297 C49.0844171,29.8608837 48.8515761,30.0282546 48.6224276,30.1993475 C48.393279,30.3704404 48.1678298,30.4411081 47.9460731,30.4113528 C47.6947489,30.3815975 47.2918969,30.1435589 46.7375053,29.6972297 C46.1831136,29.2509005 45.7285192,28.7897005 45.3737085,28.313616 C45.2997896,28.2094726 45.2628308,28.0904532 45.2628308,27.9565545 C45.2628308,27.5399805 45.4624088,27.2424322 45.8615708,27.0639005 C46.4233544,26.8109806 47.103398,26.2753936 47.901722,25.4571234 C49.0548567,24.2520346 49.7718592,22.9725767 50.052751,21.6187114 C49.4613998,21.7526102 48.8035316,22.306794 48.0791264,23.2812794 C47.3547213,24.2557648 46.9038228,24.7727551 46.7264175,24.8322656 C46.4455257,24.9364091 45.9096218,24.7578801 45.1186896,24.2966733 C44.3277575,23.8354664 43.8140289,23.4263375 43.5774885,23.0692741 C43.5331371,23.0097635 43.5109618,22.9353765 43.5109618,22.8461106 C43.5109618,22.6080684 43.7105398,22.2658878 44.1097018,21.8195586 C45.3367554,20.435938 46.1794181,19.5507317 46.6377153,19.1639131 C47.5986608,18.3456429 48.5152413,17.95883 49.3874843,18.0034629 C50.3632136,18.0629735 51.3647996,18.6655089 52.3922722,19.8110872 C53.4197447,20.9566655 53.8817309,22.0055234 53.7782444,22.9576924 Z"/>
  </g>
</svg>
