<svg xmlns="http://www.w3.org/2000/svg" width="64" height="64" viewBox="0 0 64 64">
  <g fill="none" fill-rule="evenodd">
    <rect width="6" height="11" x="29" y="45" fill="#D8D8D8"/>
    <rect width="14" height="1" x="25" y="57" stroke="#979797" stroke-width="2"/>
    <path fill="#868686" d="M2,10.995507 C2,9.34113416 3.33730974,8 4.99593743,8 L59.0040626,8 C60.6586731,8 62,9.34246828 62,10.995507 L62,44.004493 C62,45.6588658 60.6626903,47 59.0040626,47 L4.99593743,47 C3.34132688,47 2,45.6575317 2,44.004493 L2,10.995507 Z"/>
    <rect width="54" height="33" x="5" y="11" fill="#325AA6"/>
    <path fill="#C7857A" d="M24,35.3701528 C23.9854754,35.5041135 23.9564267,35.8241259 23.912853,36.3301998 C23.8983285,36.5981212 23.8402311,36.7990593 23.7385591,36.93302 C23.6659362,36.9776735 23.5424793,37 23.3681844,37 C22.8888737,37 22.2933753,36.8734834 21.5816715,36.6204465 C20.8118694,36.3822941 20.2889928,36.0994924 20.013026,35.7720329 C19.8968294,35.6380722 19.7806346,35.1915432 19.6644381,34.4324324 C19.5046678,33.4351693 19.3231135,32.6090906 19.1197695,31.9541716 C18.5678359,32.0285942 17.7617345,32.2332533 16.701441,32.5681551 C15.6411475,32.9030569 14.9512409,33.1821375 14.6317004,33.4054054 C14.4138319,34.0454399 14.1233449,34.8343079 13.7602307,35.7720329 C13.716657,35.9804162 13.6694528,36.1776332 13.6186169,36.3636898 C13.5677809,36.5497463 13.4406928,36.7023104 13.2373488,36.8213866 C13.1937751,36.8511557 13.1284156,36.86604 13.0412682,36.86604 C12.6926785,36.86604 12.1080734,36.6799862 11.2874353,36.3078731 C10.4667972,35.93576 10.04196,35.690169 10.0129109,35.5710928 C9.95481258,35.3627095 10.0927939,34.8492011 10.426859,34.0305523 C10.8916452,32.8397904 11.1603456,32.1104596 11.2329685,31.8425382 C10.9279525,31.5299632 10.7754469,31.2173929 10.7754469,30.9048179 C10.7754469,30.8303952 10.782709,30.7485316 10.7972336,30.6592244 C10.8262827,30.4806102 11.2692754,30.1605977 12.1262249,29.6991774 L14.9367148,19.853114 C14.9802885,19.6744997 14.9875507,19.3470451 14.9585016,18.8707403 C14.9294524,18.4688582 14.9730255,18.215825 15.089222,18.1116334 C15.1618449,18.0372108 15.3361371,18 15.6121039,18 C16.2947586,18 17.26789,18.1786116 18.5315275,18.5358402 C19.7951649,18.8930688 20.5504311,19.2130812 20.7973487,19.4958872 C20.8844962,21.1480694 21.211294,23.6263055 21.7777522,26.9306698 C22.5039806,31.0090294 23.2447225,33.8221623 24,35.3701528 Z M18.31366,28.5828437 C18.1248406,27.6451187 18.0086458,27.0274202 17.9650721,26.7297297 C17.8053019,25.7324666 17.6963693,24.6980077 17.638271,23.626322 C17.3477796,24.3556637 17.0064574,25.3677961 16.614294,26.6627497 C16.1930816,28.0172414 15.9679541,28.8656465 15.938905,29.2079906 C16.2148718,29.0889144 17.0064489,28.8805342 18.31366,28.5828437 Z"/>
    <path fill="#FFF" d="M38.9563492,27.9098645 C38.9854499,28.1381055 39,28.3663431 39,28.5945841 C39,29.8575175 38.4834708,31.219335 37.4503968,32.6800773 C36.6210276,33.8517143 35.6025193,34.9016071 34.3948413,35.8297871 C33.2890156,36.6666707 32.5396845,37.0546746 32.1468254,36.9938103 C31.7103153,36.9329461 30.939159,36.5943937 29.8333333,35.978143 C28.7275077,35.3618924 28.1309528,34.9396529 28.0436508,34.7114119 C28.0145501,34.6505476 28,34.5820764 28,34.505996 C28,34.4146996 28.0254627,34.2967769 28.0763889,34.1522243 C28.1273151,34.0076717 28.1527778,33.8973568 28.1527778,33.8212765 L28.1527778,19.0313346 C28.1527778,18.7878776 28.4728804,18.6661509 29.1130952,18.6661509 C29.404102,18.6661509 29.6587291,18.6965825 29.8769841,18.7574468 C30.56085,18.3009648 31.4229445,17.8939412 32.4632937,17.5363636 C33.5036428,17.1787861 34.3948376,17 35.1369048,17 C35.5734149,17 35.9117051,17.0646673 36.1517857,17.1940039 C36.3918663,17.3233404 36.6137556,17.547774 36.8174603,17.8673114 C37.0793664,18.3085773 37.2612429,18.5824624 37.3630952,18.6889748 C37.3921959,18.719407 37.6322729,18.9248208 38.0833333,19.3052224 C38.3452394,19.5334634 38.5125658,19.7769168 38.5853175,20.0355899 C38.6435188,20.2181827 38.672619,20.4159886 38.672619,20.6290135 C38.672619,21.8310827 37.9087378,23.1396447 36.3809524,24.5547388 C37.9378385,25.7872402 38.7962955,26.9056042 38.9563492,27.9098645 Z M35.1369048,20.4920696 C35.1078041,20.4312054 35.0277784,20.4007737 34.8968254,20.4007737 C34.5621676,20.4007737 34.0383634,20.5833637 33.3253968,20.9485493 C32.6124303,21.3137349 32.1322764,21.6636991 31.8849206,21.9984526 L31.8849206,24.372147 C32.8161422,23.5961276 33.6200363,22.8049041 34.296627,21.9984526 C34.9732177,21.1920011 35.2533075,20.6898785 35.1369048,20.4920696 Z M35.922619,27.247969 C35.5443103,27.2631851 34.904105,27.453383 34.0019841,27.8185686 C33.0271115,28.2294024 32.3214308,28.6326221 31.8849206,29.0282398 L31.8849206,33.2735009 C32.8306926,32.9996117 33.7619002,32.1627406 34.6785714,30.7628626 C35.5952427,29.3629846 36.0099211,28.1913651 35.922619,27.247969 Z"/>
    <path fill="#DFCC00" d="M54.4987244,31.8510141 C54.4524864,32.2209144 54.3060679,32.5168302 54.0594648,32.7387703 C53.6124966,33.656123 52.9266419,34.5808597 52.0018801,35.5130084 C51.0000548,36.5043411 50.1909003,37 49.5743924,37 C49.4819163,37 49.3971477,36.9926021 49.3200842,36.9778061 C48.6419256,36.770662 47.8790085,36.5117357 47.0313102,36.2010194 C45.5208659,35.609179 44.364931,34.4773012 43.5634708,32.805352 C42.8544867,31.296159 42.5,29.542858 42.5,27.5453966 C42.5,25.1040549 42.9854927,22.9512677 43.9564926,21.0869704 C44.9891432,19.104305 46.2837904,18.0759977 47.8404727,18.0020177 C48.4415679,17.9724256 49.3239316,18.2683414 50.4875902,18.8897738 C51.6512488,19.5112063 52.4180189,20.1289305 52.7879237,20.7429649 C53.1578284,21.3569993 53.4121341,22.6997171 53.5508483,24.7711586 C53.5816737,25.2150389 53.5200239,25.6663104 53.3658969,26.1249867 C53.1809445,26.6724391 52.9420513,26.9239675 52.6492101,26.8795795 C52.1097657,26.8055995 51.4316172,26.6428458 50.6147443,26.3913136 C49.6283317,26.0805974 49.0966016,25.8216711 49.0195381,25.6145269 C48.9887127,25.5405469 48.9733003,25.4739658 48.9733003,25.4147818 C48.9733003,25.2816177 49.0388033,25.1151651 49.1698112,24.9154189 C49.3008191,24.7156728 49.3663221,24.5492202 49.3663221,24.4160561 C49.4433856,23.8094197 49.4819167,23.2397818 49.4819167,22.7071254 C49.4819167,21.9377329 49.3894419,21.4050845 49.2044896,21.1091643 C48.2797278,21.7601888 47.5784606,22.8476792 47.100667,24.3716683 C46.6999369,25.6589212 46.4995748,27.1163063 46.4995748,28.7438675 C46.4995748,30.0015284 46.6151683,31.1223093 46.8463588,32.106244 C47.0775492,33.0901787 47.3549736,33.6857092 47.6786402,33.8928534 C47.8327672,33.9816294 48.2604631,33.6820147 48.9617408,32.9940002 C49.6630185,32.3059857 50.1138331,31.7548426 50.3141982,31.3405543 C50.3296109,31.3257583 50.398967,31.0890257 50.5222686,30.6303494 C50.6147447,30.3640212 50.7380445,30.2012675 50.8921714,30.1420835 C51.1541873,30.0533074 51.8284827,30.2641474 52.9150778,30.7746098 C54.0016729,31.2850721 54.5295498,31.64387 54.4987244,31.8510141 Z"/>
  </g>
</svg>
