<svg xmlns="http://www.w3.org/2000/svg" width="64" height="64" viewBox="0 0 64 64">
  <g fill="none" fill-rule="evenodd">
    <circle cx="12" cy="12" r="8" fill="#595959"/>
    <circle cx="12" cy="12" r="6" fill="#979797"/>
    <circle cx="52" cy="12" r="8" fill="#595959"/>
    <circle cx="52" cy="12" r="6" fill="#979797"/>
    <path fill="#595959" d="M32,62 C44.1502645,62 54,38.1502645 54,26 C54,13.8497355 44.1502645,4 32,4 C19.8497355,4 10,13.8497355 10,26 C10,38.1502645 19.8497355,62 32,62 Z"/>
    <path fill="#979797" d="M32,20.9990251 C30.1755424,18.5706862 27.2711979,17 24,17 C18.4771525,17 14,21.4771525 14,27 C14,32.5228475 18.4771525,37 24,37 C27.2711979,37 30.1755424,35.4293138 32,33.0009749 C33.8244576,35.4293138 36.7288021,37 40,37 C45.5228475,37 50,32.5228475 50,27 C50,21.4771525 45.5228475,17 40,17 C36.7288021,17 33.8244576,18.5706862 32,20.9990251 Z"/>
    <path fill="#979797" d="M32,56 C37.5228475,56 42,51.5228475 42,46 C42,40.4771525 37.5228475,30 32,30 C26.4771525,30 22,40.4771525 22,46 C22,51.5228475 26.4771525,56 32,56 Z"/>
    <path stroke="#595959" stroke-linecap="round" stroke-width="2" d="M21.9100611,45.5549234 C24.9322765,47.1174867 28.3630772,48 32,48 L32,48 C35.5565291,48 38.9159481,47.1560711 41.8889253,45.657545"/>
    <circle cx="24.5" cy="25.5" r="2.5" fill="#595959"/>
    <circle cx="40.5" cy="25.5" r="2.5" fill="#595959"/>
    <path fill="#595959" d="M30.6980894,34.5188957 C31.4171148,33.6800328 32.5862298,33.6839347 33.3019106,34.5188957 L36.6980894,38.4811043 C37.4171148,39.3199672 37.0980496,40 35.9914698,40 L28.0085302,40 C26.8992496,40 26.5862298,39.3160653 27.3019106,38.4811043 L30.6980894,34.5188957 Z"/>
  </g>
</svg>
