<svg xmlns="http://www.w3.org/2000/svg" width="64" height="64" viewBox="0 0 64 64">
  <g fill="none" fill-rule="evenodd">
    <ellipse cx="51.5" cy="22.5" fill="#BD7575" rx="5.5" ry="8.5" transform="rotate(45 51.5 22.5)"/>
    <ellipse cx="12.5" cy="22.5" fill="#BD7575" rx="5.5" ry="8.5" transform="scale(-1 1) rotate(45 0 -7.678)"/>
    <path fill="#9C4D4D" d="M32,62 C44.1502645,62 55,49.1502645 55,37 C55,24.8497355 44.1502645,2 32,2 C19.8497355,2 9,24.8497355 9,37 C9,49.1502645 19.8497355,62 32,62 Z"/>
    <path fill="#BD7575" d="M32,26.9990251 C30.1755424,24.5706862 27.2711979,23 24,23 C18.4771525,23 14,27.4771525 14,33 C14,38.5228475 18.4771525,43 24,43 C27.2711979,43 30.1755424,41.4293138 32,39.0009749 C33.8244576,41.4293138 36.7288021,43 40,43 C45.5228475,43 50,38.5228475 50,33 C50,27.4771525 45.5228475,23 40,23 C36.7288021,23 33.8244576,24.5706862 32,26.9990251 Z"/>
    <path fill="#BD7575" d="M32,53 C37.5228475,53 42,48.5228475 42,43 C42,37.4771525 37.5228475,27 32,27 C26.4771525,27 22,37.4771525 22,43 C22,48.5228475 26.4771525,53 32,53 Z"/>
    <path stroke="#9C4D4D" stroke-linecap="round" stroke-width="2" d="M21.9100611,45.5549234 C24.9322765,47.1174867 28.3630772,48 32,48 L32,48 C35.5565291,48 38.9159481,47.1560711 41.8889253,45.657545" transform="rotate(180 31.9 46.777)"/>
    <circle cx="26" cy="28" r="2" fill="#595959"/>
    <circle cx="39" cy="28" r="2" fill="#595959"/>
    <rect width="8" height="5" x="28" y="34" fill="#9C4D4D" rx="2"/>
  </g>
</svg>
