<svg xmlns="http://www.w3.org/2000/svg" width="64" height="64" viewBox="0 0 64 64">
  <g fill="none" fill-rule="evenodd">
    <circle cx="13" cy="14" r="8" fill="#9C4D4D"/>
    <circle cx="13" cy="14" r="6" fill="#BD7575"/>
    <circle cx="53" cy="14" r="8" fill="#9C4D4D"/>
    <circle cx="53" cy="14" r="6" fill="#BD7575"/>
    <path fill="#9C4D4D" d="M33,62.3076792 C69.9000215,62.3076792 55,40.1502645 55,28 C55,15.8497355 45.1502645,6 33,6 C20.8497355,6 11,15.8497355 11,28 C11,40.1502645 -3.90002155,62.3076792 33,62.3076792 Z"/>
    <path fill="#BD7575" d="M33,22.9990251 C31.1755424,20.5706862 28.2711979,19 25,19 C19.4771525,19 15,23.4771525 15,29 C15,34.5228475 19.4771525,39 25,39 C28.2711979,39 31.1755424,37.4293138 33,35.0009749 C34.8244576,37.4293138 37.7288021,39 41,39 C46.5228475,39 51,34.5228475 51,29 C51,23.4771525 46.5228475,19 41,19 C37.7288021,19 34.8244576,20.5706862 33,22.9990251 Z"/>
    <path fill="#BD7575" d="M33,58 C38.5228475,58 43,53.5228475 43,48 C43,42.4771525 38.5228475,32 33,32 C27.4771525,32 23,42.4771525 23,48 C23,53.5228475 27.4771525,58 33,58 Z"/>
    <path stroke="#9C4D4D" stroke-linecap="round" stroke-width="2" d="M22.9100611,47.5549234 C25.9322765,49.1174867 29.3630772,50 33,50 L33,50 C36.5565291,50 39.9159481,49.1560711 42.8889253,47.657545" transform="matrix(1 0 0 -1 0 97.555)"/>
    <circle cx="25" cy="27" r="4" fill="#FFF"/>
    <circle cx="42" cy="27" r="4" fill="#FFF"/>
    <circle cx="25" cy="27" r="2" fill="#595959"/>
    <circle cx="42" cy="27" r="2" fill="#595959"/>
    <path fill="#9C4D4D" d="M31.6980894,36.5188957 C32.4171148,35.6800328 33.5862298,35.6839347 34.3019106,36.5188957 L37.6980894,40.4811043 C38.4171148,41.3199672 38.0980496,42 36.9914698,42 L29.0085302,42 C27.8992496,42 27.5862298,41.3160653 28.3019106,40.4811043 L31.6980894,36.5188957 Z"/>
  </g>
</svg>
