<svg xmlns="http://www.w3.org/2000/svg" width="64" height="64" viewBox="0 0 64 64">
  <g fill="none" fill-rule="evenodd">
    <circle cx="12" cy="14" r="8" fill="#9C4D4D"/>
    <circle cx="12" cy="14" r="6" fill="#BD7575"/>
    <circle cx="52" cy="14" r="8" fill="#9C4D4D"/>
    <circle cx="52" cy="14" r="6" fill="#BD7575"/>
    <circle cx="32" cy="28" r="22" fill="#9C4D4D"/>
    <path fill="#BD7575" d="M32,22.9990251 C30.1755424,20.5706862 27.2711979,19 24,19 C18.4771525,19 14,23.4771525 14,29 C14,34.5228475 18.4771525,39 24,39 C27.2711979,39 30.1755424,37.4293138 32,35.0009749 C33.8244576,37.4293138 36.7288021,39 40,39 C45.5228475,39 50,34.5228475 50,29 C50,23.4771525 45.5228475,19 40,19 C36.7288021,19 33.8244576,20.5706862 32,22.9990251 Z"/>
    <path fill="#BD7575" d="M32,58 C37.5228475,58 42,53.5228475 42,48 C42,42.4771525 37.5228475,32 32,32 C26.4771525,32 22,42.4771525 22,48 C22,53.5228475 26.4771525,58 32,58 Z"/>
    <path stroke="#9C4D4D" stroke-linecap="round" stroke-width="2" d="M21.9100611,47.5549234 C24.9322765,49.1174867 28.3630772,50 32,50 L32,50 C35.5565291,50 38.9159481,49.1560711 41.8889253,47.657545"/>
    <circle cx="24" cy="27" r="4" fill="#FFAF40"/>
    <circle cx="41" cy="27" r="4" fill="#FFAF40"/>
    <circle cx="24" cy="27" r="2" fill="#595959"/>
    <circle cx="41" cy="27" r="2" fill="#595959"/>
    <path fill="#9C4D4D" d="M30.6980894,36.5188957 C31.4171148,35.6800328 32.5862298,35.6839347 33.3019106,36.5188957 L36.6980894,40.4811043 C37.4171148,41.3199672 37.0980496,42 35.9914698,42 L28.0085302,42 C26.8992496,42 26.5862298,41.3160653 27.3019106,40.4811043 L30.6980894,36.5188957 Z"/>
  </g>
</svg>
