<svg xmlns="http://www.w3.org/2000/svg" width="64" height="64" viewBox="0 0 64 64">
  <g fill="none" fill-rule="evenodd">
    <path fill="#5EA7FF" d="M19.7272727,53 L56.0002326,53 C58.2013211,53 60,51.2114659 60,49.0051972 L60,19.9948028 C60,17.7845869 58.2092431,16 56.0002326,16 L8.99976742,16 C6.79867889,16 5,17.7885341 5,19.9948028 L5,49.0051972 C5,51.2154131 6.79075687,53 8.99976742,53 L14,53 L14,60 L19.7272727,53 Z"/>
    <path fill="#FFF" d="M22.8679347,26.5592738 C22.8585366,26.1690677 22.8305586,25.9693117 22.784,25.96 C22.5693323,26.3146684 22.3826675,26.6553317 22.224,26.982 C21.8413314,27.7660039 21.6220003,28.4193307 21.566,28.942 C21.5193331,29.0540006 21.5146665,29.2733317 21.552,29.6 C21.5893335,29.8800014 21.5473339,30.0713328 21.426,30.174 C21.3046661,30.2766672 21.1413344,30.328 20.936,30.328 C20.7119989,30.328 20.4856678,30.2650006 20.257,30.139 C20.0283322,30.0129994 19.8626672,29.8706675 19.76,29.712 C19.6106659,29.4786655 19.5266668,28.797339 19.508,27.668 L19.508,24.364 C19.4986666,24.2706662 19.4613337,24.1400008 19.396,23.972 C19.3306663,23.8039992 19.298,23.6780004 19.298,23.594 C19.298,23.5099996 19.3213331,23.430667 19.368,23.356 C19.4893339,23.1693324 19.7973309,23.076 20.292,23.076 C20.8986697,23.076 21.2626661,23.2253318 21.384,23.524 C21.4120001,23.5893337 21.426,23.6546663 21.426,23.72 C21.426,23.8040004 21.3816671,23.9253325 21.293,24.084 C21.2043329,24.2426675 21.16,24.3733328 21.16,24.476 L21.16,26.072 C21.4400014,25.4839971 21.8086644,24.7373379 22.266,23.832 C22.3220003,23.7106661 22.3756664,23.5893339 22.427,23.468 C22.4783336,23.3466661 22.5553328,23.2393338 22.658,23.146 C22.7606672,23.0526662 22.9333321,23.006 23.176,23.006 C23.5493352,23.006 23.9249981,23.0899992 24.303,23.258 C24.6810019,23.4260008 24.8746666,23.6266655 24.884,23.86 C24.8933334,24.1026679 24.8583337,24.2869994 24.779,24.413 C24.6996663,24.5390006 24.66,24.6439996 24.66,24.728 L24.632,27.752 C24.7813341,27.4159983 25.051998,26.6226729 25.444,25.372 C25.7520015,24.4199952 25.9853325,23.8880006 26.144,23.776 C26.3493344,23.6266659 26.6526647,23.552 27.054,23.552 C27.8006704,23.552 28.1879999,23.7666645 28.216,24.196 C28.2066666,25.3346724 28.2066666,27.2386533 28.216,29.908 C28.216,30.0106672 28.3093324,30.1343326 28.496,30.279 C28.6826676,30.4236674 28.776,30.5753325 28.776,30.734 C28.776,30.808667 28.7573335,30.8973328 28.72,31 C28.5986661,31.3453351 28.3233355,31.518 27.894,31.518 C27.352664,31.518 26.9513346,31.3313352 26.69,30.958 C26.5499993,30.7526656 26.48,30.048006 26.48,28.844 L26.48,28.102 C26.4893334,27.7753317 26.494,27.5466673 26.494,27.416 C26.494,26.7626634 26.4613337,26.4266668 26.396,26.408 C26.2559993,26.3519997 25.7800041,27.6586533 24.968,30.328 C24.968,30.3373334 24.9493335,30.5613311 24.912,31 C24.8933332,31.270668 24.8000008,31.4526662 24.632,31.546 C24.5106661,31.6113337 24.3753341,31.644 24.226,31.644 C23.955332,31.644 23.6940013,31.5553342 23.442,31.378 C23.1899987,31.2006658 23.0313337,30.9906679 22.966,30.748 C22.8726662,30.4026649 22.8306666,29.7213384 22.84,28.704 C22.8577654,27.2916509 22.8670769,26.5767484 22.8679347,26.5592738 Z M33.858,23.776 C34.4833365,24.4106698 34.796,25.4793258 34.796,26.982 C34.796,28.1486725 34.5766689,29.1426626 34.138,29.964 C33.6433309,30.8880046 32.9620043,31.35 32.094,31.35 C31.235329,31.35 30.572669,30.9346708 30.106,30.104 C29.6953313,29.3759964 29.49,28.4520056 29.49,27.332 C29.49,26.3426617 29.6486651,25.4560039 29.966,24.672 C30.3020017,23.8319958 30.7313307,23.3373341 31.254,23.188 C31.524668,23.113333 31.8046652,23.076 32.094,23.076 C32.8126703,23.076 33.4006644,23.309331 33.858,23.776 Z M32.262,24.448 C31.9539985,24.4199999 31.6880011,24.7093303 31.464,25.316 C31.267999,25.8666694 31.17,26.4453303 31.17,27.052 C31.17,27.9293377 31.207333,28.5499982 31.282,28.914 C31.4126673,29.5673366 31.6833313,29.9266663 32.094,29.992 C32.3553346,30.0293335 32.5979989,29.6700038 32.822,28.914 C33.0366677,28.1859964 33.144,27.4066708 33.144,26.576 C33.144,25.2133265 32.8500029,24.5040003 32.262,24.448 Z M41.236,23.86 C41.1986665,24.056001 41.0213349,24.191333 40.704,24.266 C40.3306648,24.3593338 40.0926672,24.4666661 39.99,24.588 L37.708,27.22 L37.708,29.348 C37.708,29.5533344 37.7663327,29.760999 37.883,29.971 C37.9996673,30.1810011 38.058,30.3419994 38.058,30.454 C38.058,30.5660006 38.0253337,30.6919993 37.96,30.832 C37.8013325,31.1866684 37.4793358,31.364 36.994,31.364 C36.6579983,31.364 36.392001,31.2566677 36.196,31.042 C36.0653327,30.9019993 36,30.7246677 36,30.51 C36,30.435333 36.0093332,30.3140008 36.028,30.146 C36.0466668,29.9779992 36.056,29.8426672 36.056,29.74 L36.056,24.504 C36.056,24.4199996 36.018667,24.3173339 35.944,24.196 C35.869333,24.0746661 35.832,23.976667 35.832,23.902 C35.832,23.8459997 35.8506665,23.780667 35.888,23.706 C36.0093339,23.4819989 36.3873302,23.37 37.022,23.37 C37.5166691,23.37 37.7966663,23.4866655 37.862,23.72 C37.8900001,23.8133338 37.904,23.8926663 37.904,23.958 C37.904,24.0606672 37.866667,24.1399997 37.792,24.196 C37.717333,24.2520003 37.68,24.3079997 37.68,24.364 L37.708,24.868 L38.912,23.594 C39.0520007,23.4353325 39.1989992,23.2766675 39.353,23.118 C39.5070008,22.9593325 39.6866656,22.8706668 39.892,22.852 C40.2093349,22.8239999 40.5149985,22.8939992 40.809,23.062 C41.1030015,23.2300008 41.25,23.449332 41.25,23.72 C41.25,23.7666669 41.2453334,23.8133331 41.236,23.86 Z M46.304,29.53 C46.229333,29.8846684 45.9773355,30.2626647 45.548,30.664 C45.4826663,30.7666672 45.2260022,30.9019992 44.778,31.07 C44.2646641,31.266001 43.8213352,31.3500001 43.448,31.322 C42.7479965,31.2753331 42.1973353,30.8740038 41.796,30.118 C41.4319982,29.4179965 41.25,28.5593384 41.25,27.542 C41.25,26.4406612 41.4553313,25.4746708 41.866,24.644 C42.3233356,23.7293288 42.9346628,23.2160006 43.7,23.104 C43.8493341,23.0853332 43.9939993,23.076 44.134,23.076 C45.2446722,23.076 45.8559994,23.7573265 45.968,25.12 C46.0240003,25.7453365 45.7766694,26.426663 45.226,27.164 C44.6286637,27.9760041 43.863338,28.5453317 42.93,28.872 C43.0326672,29.2453352 43.1119997,29.4879994 43.168,29.6 C43.2986673,29.8333345 43.4759989,29.95 43.7,29.95 C43.9146677,29.95 44.1433321,29.8660008 44.386,29.698 C44.5913344,29.5579993 44.731333,29.4226673 44.806,29.292 C44.8433335,29.2733332 44.8806665,29.1683343 44.918,28.977 C44.9553335,28.7856657 45.0533325,28.6480004 45.212,28.564 C45.2680003,28.5359999 45.333333,28.522 45.408,28.522 C45.6320011,28.522 45.848999,28.6316656 46.059,28.851 C46.2690011,29.0703344 46.3506669,29.2966655 46.304,29.53 Z M44.106,24.602 C43.7326648,24.602 43.4293345,24.8679973 43.196,25.4 C42.8879985,26.1093369 42.7619997,26.8093299 42.818,27.5 C43.2566689,27.3599993 43.6626648,27.0333359 44.036,26.52 C44.4093352,26.0066641 44.596,25.5493353 44.596,25.148 C44.596,24.7839982 44.4326683,24.602 44.106,24.602 Z M16.414,38.776 C17.0393365,39.4106698 17.352,40.4793258 17.352,41.982 C17.352,43.1486725 17.1326689,44.1426626 16.694,44.964 C16.1993309,45.8880046 15.5180043,46.35 14.65,46.35 C13.791329,46.35 13.128669,45.9346708 12.662,45.104 C12.2513313,44.3759964 12.046,43.4520056 12.046,42.332 C12.046,41.3426617 12.2046651,40.4560039 12.522,39.672 C12.8580017,38.8319958 13.2873307,38.3373341 13.81,38.188 C14.080668,38.113333 14.3606652,38.076 14.65,38.076 C15.3686703,38.076 15.9566644,38.309331 16.414,38.776 Z M14.818,39.448 C14.5099985,39.4199999 14.2440011,39.7093303 14.02,40.316 C13.823999,40.8666694 13.726,41.4453303 13.726,42.052 C13.726,42.9293377 13.763333,43.5499982 13.838,43.914 C13.9686673,44.5673366 14.2393313,44.9266663 14.65,44.992 C14.9113346,45.0293335 15.1539989,44.6700038 15.378,43.914 C15.5926677,43.1859964 15.7,42.4066708 15.7,41.576 C15.7,40.2133265 15.4060029,39.5040003 14.818,39.448 Z M23.792,38.86 C23.7546665,39.056001 23.5773349,39.191333 23.26,39.266 C22.8866648,39.3593338 22.6486672,39.4666661 22.546,39.588 L20.264,42.22 L20.264,44.348 C20.264,44.5533344 20.3223327,44.760999 20.439,44.971 C20.5556673,45.1810011 20.614,45.3419994 20.614,45.454 C20.614,45.5660006 20.5813337,45.6919993 20.516,45.832 C20.3573325,46.1866684 20.0353358,46.364 19.55,46.364 C19.2139983,46.364 18.948001,46.2566677 18.752,46.042 C18.6213327,45.9019993 18.556,45.7246677 18.556,45.51 C18.556,45.435333 18.5653332,45.3140008 18.584,45.146 C18.6026668,44.9779992 18.612,44.8426672 18.612,44.74 L18.612,39.504 C18.612,39.4199996 18.574667,39.3173339 18.5,39.196 C18.425333,39.0746661 18.388,38.976667 18.388,38.902 C18.388,38.8459997 18.4066665,38.780667 18.444,38.706 C18.5653339,38.4819989 18.9433302,38.37 19.578,38.37 C20.0726691,38.37 20.3526663,38.4866655 20.418,38.72 C20.4460001,38.8133338 20.46,38.8926663 20.46,38.958 C20.46,39.0606672 20.422667,39.1399997 20.348,39.196 C20.273333,39.2520003 20.236,39.3079997 20.236,39.364 L20.264,39.868 L21.468,38.594 C21.6080007,38.4353325 21.7549992,38.2766675 21.909,38.118 C22.0630008,37.9593325 22.2426656,37.8706668 22.448,37.852 C22.7653349,37.8239999 23.0709985,37.8939992 23.365,38.062 C23.6590015,38.2300008 23.806,38.449332 23.806,38.72 C23.806,38.7666669 23.8013334,38.8133331 23.792,38.86 Z M28.986,38.566 C29.0046668,39.3686707 29.0466663,40.6893241 29.112,42.528 C29.1493335,43.8253398 29.168,44.7539972 29.168,45.314 C29.168,46.5460062 29.070001,47.3859978 28.874,47.834 C28.677999,48.2820022 28.2813363,48.5293331 27.684,48.576 C26.9373296,48.6413337 26.2793362,48.4453356 25.71,47.988 C25.4299986,47.9039996 25.252667,47.8386669 25.178,47.792 C25.0193325,47.6986662 24.9166669,47.5400011 24.87,47.316 C24.7859996,46.8773311 25.1313295,46.658 25.906,46.658 C26.102001,46.658 26.2886658,46.6813331 26.466,46.728 C26.5966673,46.7560001 26.7413325,46.8656657 26.9,47.057 C27.0586675,47.2483343 27.2079993,47.3486666 27.348,47.358 C27.618668,47.3766668 27.754,46.9940039 27.754,46.21 C27.754,45.8739983 27.7306669,45.3280038 27.684,44.572 C27.3479983,45.1413362 27.1053341,45.5099992 26.956,45.678 C26.6479985,45.9953349 26.2886687,46.154 25.878,46.154 C25.2993304,46.154 24.8326684,45.7526707 24.478,44.95 C24.1513317,44.212663 23.988,43.3166719 23.988,42.262 C23.988,41.1793279 24.1606649,40.2646704 24.506,39.518 C24.898002,38.6779958 25.4393299,38.2486668 26.13,38.23 C26.5033352,38.2206666 26.7786658,38.2953325 26.956,38.454 C27.1333342,38.6126675 27.3059992,38.7759992 27.474,38.944 C27.3526661,38.6079983 27.3806658,38.3560008 27.558,38.188 C27.6606672,38.0853328 27.8146656,38.034 28.02,38.034 C28.216001,38.034 28.411999,38.0853328 28.608,38.188 C28.804001,38.2906672 28.9299997,38.4166659 28.986,38.566 Z M27.306,42.136 C27.3433335,41.594664 27.2780008,41.0813358 27.11,40.596 C26.9233324,40.054664 26.6806682,39.784 26.382,39.784 C26.1393321,39.784 25.9246676,40.054664 25.738,40.596 C25.5699992,41.0813358 25.4766668,41.594664 25.458,42.136 C25.4393332,42.7053362 25.4813328,43.2186644 25.584,43.676 C25.7146673,44.217336 25.8966655,44.488 26.13,44.488 C26.3353344,44.488 26.573332,44.224336 26.844,43.697 C27.114668,43.169664 27.2686665,42.6493359 27.306,42.136 Z M36.546,45.412 C36.4059993,45.8693356 36.0606694,46.098 35.51,46.098 C35.3233324,46.098 35.1740006,46.0653337 35.062,46 C34.9126659,45.8973328 34.8100003,45.6920015 34.754,45.384 C34.6419994,44.8519973 34.5300006,44.4366682 34.418,44.138 C34.3899999,44.6513359 34.1100027,45.171664 33.578,45.699 C33.0459973,46.226336 32.509336,46.49 31.968,46.49 C31.2866633,46.49 30.8153346,46.0373379 30.554,45.132 C30.4606662,44.7959983 30.414,44.4786682 30.414,44.18 C30.414,43.3119957 30.8573289,42.5700031 31.744,41.954 C32.4720036,41.5246645 33.204663,41.1000021 33.942,40.68 C33.9793335,40.5213325 33.998,40.3673341 33.998,40.218 C33.998,39.9286652 33.9186675,39.7583336 33.76,39.707 C33.6013325,39.6556664 33.4660006,39.63 33.354,39.63 C33.157999,39.63 32.9970006,39.6929994 32.871,39.819 L32.514,40.176 C32.4019994,40.250667 32.2573342,40.423332 32.08,40.694 C31.9399993,40.9086677 31.7860008,41.0253332 31.618,41.044 C31.3753321,41.0720001 31.156001,40.988001 30.96,40.792 C30.763999,40.595999 30.666,40.3673346 30.666,40.106 C30.666,39.9566659 30.703333,39.8213339 30.778,39.7 C30.9926677,39.3453316 31.3146645,39.0373346 31.744,38.776 C32.3973366,38.383998 33.2139951,38.188 34.194,38.188 C34.8193365,38.188 35.2486655,38.4866637 35.482,39.084 C35.6313341,39.4853353 35.743333,40.2366612 35.818,41.338 C35.9020004,42.6726733 36.0046661,43.6479969 36.126,44.264 C36.1446668,44.3853339 36.2239993,44.5393324 36.364,44.726 C36.5040007,44.9126676 36.574,45.0759993 36.574,45.216 C36.574,45.2813337 36.5646668,45.3466663 36.546,45.412 Z M34.11,41.968 C33.8299986,42.1173341 33.5523347,42.2713325 33.277,42.43 C33.0016653,42.5886675 32.7473345,42.7986654 32.514,43.06 C32.1779983,43.4426686 32.01,43.769332 32.01,44.04 C32.01,44.2640011 32.0939992,44.4973321 32.262,44.74 C32.3553338,44.8706673 32.4579994,44.936 32.57,44.936 C32.8126679,44.936 33.0763319,44.665336 33.361,44.124 C33.6456681,43.582664 33.8953323,42.8640045 34.11,41.968 Z M44.008,45.104 C43.9893332,45.3093344 43.8540013,45.4843326 43.602,45.629 C43.3499987,45.7736674 43.0700015,45.846 42.762,45.846 C42.3046644,45.846 41.9920008,45.7013348 41.824,45.412 C41.898667,42.537319 41.8146679,41.0813335 41.572,41.044 C41.3386655,41.0066665 40.7693379,42.2946536 39.864,44.908 L39.864,45.748 C39.8546666,46.0840017 39.7636675,46.3219993 39.591,46.462 C39.4183325,46.6020007 39.234001,46.672 39.038,46.672 C38.7019983,46.672 38.3426686,46.4900018 37.96,46.126 C37.8479994,46.0326662 37.7873334,45.32334 37.778,43.998 C37.7873334,44.8100041 37.792,43.3026858 37.792,39.476 C37.792,39.3919996 37.7826668,39.2776674 37.764,39.133 C37.7453332,38.9883326 37.736,38.8833337 37.736,38.818 C37.736,38.6406658 37.7826662,38.4866673 37.876,38.356 C37.9880006,38.1879992 38.1653321,38.104 38.408,38.104 C38.6600013,38.104 38.9236653,38.1809992 39.199,38.335 C39.4743347,38.4890008 39.6399997,38.6359993 39.696,38.776 C39.7333335,38.8693338 39.752,38.9626662 39.752,39.056 C39.752,39.1493338 39.714667,39.2799992 39.64,39.448 C39.565333,39.6160008 39.528,39.7559994 39.528,39.868 L39.528,41.8 C40.1160029,40.5493271 40.5593318,39.7233353 40.858,39.322 C41.3900027,38.6313299 41.9919966,38.3093331 42.664,38.356 C43.0653353,38.3840001 43.3499992,38.7573297 43.518,39.476 C43.6486673,40.017336 43.7186666,40.8199947 43.728,41.884 L43.728,44.404 C43.7466668,44.4693337 43.8119994,44.5859992 43.924,44.754 C43.9893337,44.8473338 44.0173334,44.9639993 44.008,45.104 Z M47.144,35.5 C47.1720001,35.5280001 47.186,35.5746663 47.186,35.64 C47.186,35.7240004 47.1580003,35.8686656 47.102,36.074 C47.0366663,36.3260013 46.9946668,36.4986662 46.976,36.592 C46.9573332,36.6853338 46.9666665,36.8906651 47.004,37.208 C47.004,37.404001 46.9456673,37.532333 46.829,37.593 C46.7123327,37.653667 46.5653342,37.684 46.388,37.684 C46.1359987,37.684 45.8793346,37.6326672 45.618,37.53 C45.3006651,37.3993327 45.142,37.2266677 45.142,37.012 C45.142,36.9466663 45.1699997,36.8556673 45.226,36.739 C45.2820003,36.6223328 45.3146666,36.526667 45.324,36.452 C45.3426668,36.377333 45.3426668,36.1906682 45.324,35.892 C45.3053332,35.6586655 45.3519994,35.5000004 45.464,35.416 C45.6133341,35.3039994 45.8793314,35.248 46.262,35.248 C46.6820021,35.248 46.9759992,35.3319992 47.144,35.5 Z M47.326,38.916 C47.326,39.0466673 47.2536674,39.2496653 47.109,39.525 C46.9643326,39.8003347 46.892,40.0266658 46.892,40.204 L46.892,44.32 C46.892,44.5066676 46.9433328,44.7703316 47.046,45.111 C47.1486672,45.4516684 47.2,45.6873327 47.2,45.818 C47.2,46.0046676 47.1253341,46.1446662 46.976,46.238 C46.7426655,46.3873341 46.490668,46.462 46.22,46.462 C45.8653316,46.462 45.6133341,46.3406679 45.464,46.098 C45.267999,45.7993318 45.17,44.9080074 45.17,43.424 C45.17,43.0693316 45.1769999,42.5163371 45.191,41.765 C45.2050001,41.0136629 45.212,40.4653351 45.212,40.12 C45.212,39.9893327 45.1980001,39.8190011 45.17,39.609 C45.1419999,39.398999 45.128,39.2473338 45.128,39.154 C45.128,38.8459985 45.2399989,38.5800011 45.464,38.356 C45.5573338,38.2626662 45.7299987,38.216 45.982,38.216 C46.2340013,38.216 46.4859987,38.2556663 46.738,38.335 C46.9900013,38.4143337 47.1509997,38.5053328 47.221,38.608 C47.2910003,38.7106672 47.326,38.8133328 47.326,38.916 Z M53.052,43.676 C53.0426666,43.8813344 52.9540008,44.0913323 52.786,44.306 C52.5246654,44.6140015 52.356667,44.8473325 52.282,45.006 C51.6939971,45.9020045 51.0873365,46.35 50.462,46.35 C49.724663,46.35 49.1506687,45.9766704 48.74,45.23 C48.3759982,44.5486633 48.194,43.6900052 48.194,42.654 C48.194,41.4686607 48.4179978,40.4373377 48.866,39.56 C49.3606691,38.5893285 49.9999961,38.104 50.784,38.104 C51.4000031,38.104 51.8993314,38.4446633 52.282,39.126 C52.5993349,39.7046696 52.758,40.3346633 52.758,41.016 C52.758,41.2026676 52.7440001,41.3659993 52.716,41.506 C52.6506663,41.8233349 52.384669,41.982 51.918,41.982 C51.5539982,41.982 51.274001,41.8793344 51.078,41.674 C50.9846662,41.5713328 50.938,41.3333352 50.938,40.96 C50.938,40.8666662 50.9426666,40.7313342 50.952,40.554 L50.952,40.148 C50.952,39.7279979 50.8773341,39.518 50.728,39.518 C50.5693325,39.518 50.4013342,39.9776621 50.224,40.897 C50.0466658,41.8163379 49.958,42.6773293 49.958,43.48 C49.958,44.413338 50.0979986,44.88 50.378,44.88 C50.7420018,44.88 51.0126658,44.5860029 51.19,43.998 C51.264667,43.9139996 51.3066666,43.7460013 51.316,43.494 C51.316,43.2699989 51.3719994,43.1230004 51.484,43.053 C51.5960006,42.9829997 51.7593323,42.948 51.974,42.948 C52.2540014,42.948 52.4966656,43.0086661 52.702,43.13 C52.9446679,43.2700007 53.0613334,43.4519989 53.052,43.676 Z"/>
    <path stroke="#5EA7FF" stroke-linecap="round" stroke-linejoin="round" stroke-width="2" d="M34,12 L34,4"/>
    <path stroke="#5EA7FF" stroke-linecap="round" stroke-width="2" d="M27.4142177,12.227824 L22,7"/>
    <path stroke="#5EA7FF" stroke-linecap="round" stroke-width="2" d="M45.4142177,12.227824 L40,7" transform="matrix(-1 0 0 1 85.414 0)"/>
  </g>
</svg>
