<svg xmlns="http://www.w3.org/2000/svg" width="64" height="64" viewBox="0 0 64 64">
  <g fill="none" fill-rule="evenodd">
    <polygon fill="#BD7575" points="33 8 62 62 4 62"/>
    <path fill="#80D25B" d="M32,62 C32,58.1340068 28.8659932,55 25,55 C21.1340068,55 18,58.1340068 18,62 L32,62 Z"/>
    <path fill="#80D25B" d="M44,62 C44,58.1340068 40.8659932,55 37,55 C33.1340068,55 30,58.1340068 30,62 L44,62 Z"/>
    <path fill="#22BA8E" d="M60,62 C60,58.1340068 56.8659932,55 53,55 C49.1340068,55 46,58.1340068 46,62 L60,62 Z"/>
    <path fill="#80D25B" d="M49,62 C49,59.2385763 46.7614237,57 44,57 C41.2385763,57 39,59.2385763 39,62 L49,62 Z"/>
    <path fill="#22BA8E" d="M34,62 C34,59.2385763 31.7614237,57 29,57 C26.2385763,57 24,59.2385763 24,62 L34,62 Z"/>
    <polygon fill="#D8D8D8" points="33 5 42 21 34.38 25.692 31.743 17.318 24 21"/>
    <path stroke="#9C4D4D" stroke-linecap="square" stroke-width="2" d="M56,49 L56,61"/>
    <path fill="#22BA8E" d="M56,50 C59.8659932,50 63,48.7916306 63,41.75 C63,34.7083694 59.8659932,26 56,26 C52.1340068,26 49,34.7083694 49,41.75 C49,48.7916306 52.1340068,50 56,50 Z"/>
  </g>
</svg>
