<svg xmlns="http://www.w3.org/2000/svg" width="64" height="64" viewBox="0 0 64 64">
  <g fill="none" fill-rule="evenodd">
    <path fill="#ED9111" d="M15,23.0011388 C15,21.8959404 15.8919411,21 16.9999204,21 L47.0000796,21 C48.1046051,21 49,21.8878459 49,23.0011388 L49,53.0050732 C49,56.8682646 45.8623047,60 41.9964035,60 L22.0035965,60 C18.135617,60 15,56.874392 15,53.0050732 L15,23.0011388 Z"/>
    <path fill="#FFDD95" d="M15,4.99079514 C15,3.89130934 15.8919411,3 16.9999204,3 L47.0000796,3 C48.1046051,3 49,3.89821238 49,4.99079514 L49,23 L15,23 L15,4.99079514 Z"/>
    <path stroke="#FCC24C" stroke-linecap="square" stroke-width="2" d="M16 22L48.0624391 22M32 4L32 22"/>
  </g>
</svg>
