<svg xmlns="http://www.w3.org/2000/svg" width="64" height="64" viewBox="0 0 64 64">
  <g fill="none" fill-rule="evenodd">
    <path fill="#22BA8E" d="M29,9.14285714 L14,16 L14.6523538,46.0082757 C14.844299,54.8377521 22.1600874,62 30.9925028,62 L32.0074972,62 C40.8394915,62 48.1556465,54.8402612 48.3476462,46.0082757 L49,16 L34,9.14285714 L34,34 L29,34 L29,9.14285714 Z"/>
    <path stroke="#979797" stroke-linecap="round" stroke-width="2" d="M32,13 L32,3"/>
    <path fill="#80D25B" d="M29,9.14285714 L14,16 L18.447048,50.0940345 C19.3058623,56.6782775 25.374923,62 32.0052265,62 L30.9947735,62 C37.6365492,62 43.6952803,56.6695177 44.552952,50.0940345 L49,16 L34,9.14285714 L34,34 L29,34 L29,9.14285714 Z"/>
    <rect width="5" height="25" x="29" y="9" fill="#D8D8D8"/>
    <rect width="5" height="10" x="29" y="17" fill="#595959" rx="2"/>
  </g>
</svg>
