<svg xmlns="http://www.w3.org/2000/svg" width="64" height="64" viewBox="0 0 64 64">
  <g fill="none" fill-rule="evenodd">
    <polygon fill="#0A3586" points="2 2 6 2 6 28 2 28"/>
    <path fill="#C7857A" d="M6,2 L22.0000398,2 C22.5523026,2 23,2.44610862 23,2.99296544 L23,28.0070346 C23,28.5554342 22.5452911,29 22.0000398,29 L6,29 L6,2 Z"/>
    <path stroke="#B4DFFB" stroke-linecap="round" stroke-width="2" d="M52.0189067,31.2573502 L52.0189067,18.0025593 C52.0189067,15.7920068 50.2312982,14 48.0214402,14 L31.9717816,14 C29.7640418,14 27.9743151,15.792273 27.9743151,17.9947221 L27.9743151,43.1225942 C27.9743151,45.3288183 26.1829365,47.1173163 23.9811442,47.1173163 L16.9931709,47.1173163 C14.7878035,47.1173163 13,45.3205383 13,43.125816 L13,29.2322351"/>
    <path fill="#9F5757" d="M2,28 C2,26.8954305 2.90234375,26 3.99456145,26 L23,26 L23,30 L3.99456145,30 C2.89299558,30 2,29.1122704 2,28 L2,28 Z"/>
    <rect width="19" height="31" x="43" y="31" fill="#D8D8D8" rx="8"/>
    <rect width="3" height="6" x="51" y="33" fill="#ECECEC" rx="1.5"/>
    <path stroke="#FFDD95" stroke-linecap="round" stroke-linejoin="round" stroke-width="2" d="M40,41 L35,41"/>
    <path stroke="#FFDD95" stroke-linecap="round" stroke-width="2" d="M41.1823321 37.0527291L37.1110782 34.4662967M41.0665739 44.8110723L36.900869 47.1488154"/>
  </g>
</svg>
