<svg xmlns="http://www.w3.org/2000/svg" width="64" height="64" viewBox="0 0 64 64">
  <g fill="none" fill-rule="evenodd">
    <path fill="#E43535" d="M2,28.689839 C24.825072,17.0806935 31.4014384,23.937912 32.0561798,24.7278688 C32.7109212,23.937912 39.2872876,17.0806935 62.1123597,28.689839 C62.1123597,28.689839 50.9005812,48.3314902 32.0981484,49.0237284 C13.2117785,48.3314902 2,28.689839 2,28.689839 Z"/>
    <path fill="#FFF" d="M14,31 C14,31 25.9974744,31.9559435 32,31.9559435 C38.0025256,31.9559435 50,31 50,31 C50,31 41,38 32,38 C23,38 14,31 14,31 Z"/>
    <path stroke="#FFDD95" stroke-linecap="round" stroke-width="2" d="M24.5020287,50.0483352 C25.6358223,51.18821 28.5651062,52 32,52 C35.2374015,52 38.0256627,51.2788756 39.2848446,50.2416038"/>
  </g>
</svg>
