<svg xmlns="http://www.w3.org/2000/svg" width="64" height="64" viewBox="0 0 64 64">
  <g fill="none" fill-rule="evenodd">
    <path fill="#E43535" d="M2,17.689839 C24.825072,6.0806935 31.4014384,12.937912 32.0561798,13.7278688 C32.7109212,12.937912 39.2872876,6.0806935 62.1123597,17.689839 C62.1123597,17.689839 50.9005812,37.3314902 32.0981484,38.0237284 C13.2117785,37.3314902 2,17.689839 2,17.689839 Z"/>
    <path fill="#FFF" d="M14,20 C14,20 25.9974744,20.9559435 32,20.9559435 C38.0025256,20.9559435 50,20 50,20 C50,20 41,27 32,27 C23,27 14,20 14,20 Z"/>
    <path fill="#5EA7FF" d="M13 44.4622171C13 44.4622171 16 40.6568542 16 39 16 37.3431458 14.6568542 36 13 36 11.3431458 36 10 37.3431458 10 39 10 40.6568542 13 44.4622171 13 44.4622171zM23 55.4622171C23 55.4622171 26 51.6568542 26 50 26 48.3431458 24.6568542 47 23 47 21.3431458 47 20 48.3431458 20 50 20 51.6568542 23 55.4622171 23 55.4622171zM34 51.4622171C34 51.4622171 37 47.6568542 37 46 37 44.3431458 35.6568542 43 34 43 32.3431458 43 31 44.3431458 31 46 31 47.6568542 34 51.4622171 34 51.4622171zM50 45.4622171C50 45.4622171 53 41.6568542 53 40 53 38.3431458 51.6568542 37 50 37 48.3431458 37 47 38.3431458 47 40 47 41.6568542 50 45.4622171 50 45.4622171z"/>
  </g>
</svg>
