<svg xmlns="http://www.w3.org/2000/svg" width="64" height="64" viewBox="0 0 64 64">
  <g fill="none" fill-rule="evenodd">
    <g transform="translate(5 4)">
      <path fill="#FFDD95" d="M1.32524163,23.0978733 C1.32524163,23.0978733 4.11129694,23.3886417 8.59160075,23.2432575 C13.0719046,23.0978733 19.2108235,24.9275286 22.5750898,30.6588017 C22.5750898,30.6588017 32.987639,27.7093079 37.3206581,36.4147805 C37.3206581,36.4147805 40.7267343,37.2666559 41.1809411,36.7601868 C41.6351479,36.2537177 38.493709,32.3349959 39.3151773,19.4993769 C39.3151773,19.4993769 37.3505902,17.4948804 35.1821801,17.0031397 C33.0137701,16.5113991 32.1471663,17.8084541 29.8300463,15.5540489 C27.5129262,13.2996436 25.6224566,9.80614692 26.5646032,8.81743937 C27.5067498,7.82873181 28.7144839,7.81162779 28.7144839,7.81162779 C28.7144839,7.81162779 28.7444159,5.06025564 30.7213559,5.00181689 C32.6982959,4.94337815 39.9884106,6.29744664 41.6902609,8.6611276 C43.3921112,11.0248086 43.9917022,16.3009246 47.4020544,20.6957083 C50.8124065,25.090492 57.340442,32.3540004 55.4894066,46.4429643 C55.4894066,46.4429643 34.8448508,57.9620487 17.3854442,50.3920932 C17.3854442,50.3920932 16.1322494,55.41598 10.2924389,58.9062293 C10.2924389,58.9062293 5.74710669,51.4131083 1.87589615,42.1089949 C-1.9953144,32.8048815 1.32524163,23.0978733 1.32524163,23.0978733 Z"/>
      <circle cx="32" cy="11" r="11" fill="#595959"/>
      <circle cx="32" cy="11" r="5" fill="#979797"/>
    </g>
    <g stroke="#22BA8E" stroke-width="2" transform="rotate(-90 14.5 5.5)">
      <path stroke-linecap="square" d="M5,13 L5,2"/>
      <polyline stroke-linecap="round" stroke-linejoin="round" points=".707 5.31 5.052 .712 9.157 5.31"/>
    </g>
  </g>
</svg>
