<svg xmlns="http://www.w3.org/2000/svg" width="64" height="64" viewBox="0 0 64 64">
  <g fill="none" fill-rule="evenodd">
    <path fill="#5B68C0" d="M11,24 L45.9976004,24 C47.1034952,24 48,24.8897632 48,26.0035949 L48,46.9964051 C48,48.10296 47.1037214,49 45.9976004,49 L13.0023996,49 C11.8965048,49 11,48.1102368 11,46.9964051 L11,24 Z"/>
    <circle cx="21" cy="17" r="9" fill="#0A3586"/>
    <circle cx="37" cy="17" r="9" fill="#0A3586"/>
    <rect width="17" height="9" x="20" y="35" fill="#80D25B"/>
    <circle cx="42" cy="35" r="2" fill="#FF78C7"/>
    <circle cx="42" cy="40" r="2" fill="#80D25B"/>
    <path fill="#979797" d="M5,25.9974219 C5,24.8942762 5.89826062,24 6.99791312,24 L11,24 L11,43 L6.99791312,43 C5.89449617,43 5,42.1090746 5,41.0025781 L5,25.9974219 Z"/>
    <rect width="5" height="10" x="48" y="28" fill="#979797"/>
    <polygon fill="#FFDD95" points="53 28 61 23 61 43 53 38"/>
  </g>
</svg>
