<svg xmlns="http://www.w3.org/2000/svg" width="64" height="64" viewBox="0 0 64 64">
  <g fill="none" fill-rule="evenodd">
    <polygon fill="#E6E6E6" points="19.045 3 52 3 52 61 12 61 12 9.065"/>
    <polygon fill="#CDCDCD" points="19 3 19 9 12 9"/>
    <path fill="#979797" d="M20.146,38.418 C20.1646668,38.5300006 20.1553335,38.6606659 20.118,38.81 C20.043333,39.0433345 20.0013334,39.1739999 19.992,39.202 C19.9826666,39.3513341 19.9710001,39.5076659 19.957,39.671 C19.9429999,39.8343342 19.8916671,39.9626662 19.803,40.056 C19.7143329,40.1493338 19.5393346,40.196 19.278,40.196 C19.0166654,40.196 18.788001,40.1446672 18.592,40.042 C18.3586655,39.9299994 18.2373334,39.776001 18.228,39.58 C18.228,39.4959996 18.2536664,39.3933339 18.305,39.272 C18.3563336,39.1506661 18.3889999,39.0573337 18.403,38.992 C18.4170001,38.9266663 18.4193334,38.7493348 18.41,38.46 C18.41,38.2453323 18.4636661,38.0866672 18.571,37.984 C18.6783339,37.8813328 18.8486655,37.83 19.082,37.83 C19.3246679,37.83 19.5533323,37.8836661 19.768,37.991 C19.9826677,38.0983339 20.1086665,38.2406658 20.146,38.418 Z M24.5839347,35.5592738 C24.5839782,35.5583872 24.584,35.5592959 24.584,35.562 C24.5839783,35.5610902 24.5839566,35.5601815 24.5839347,35.5592738 L24.5839347,35.5592738 Z M24.5839347,35.5592738 C24.5745366,35.1690677 24.5465586,34.9693117 24.5,34.96 C24.2853323,35.3146684 24.0986675,35.6553317 23.94,35.982 C23.5573314,36.7660039 23.3380003,37.4193307 23.282,37.942 C23.2353331,38.0540006 23.2306665,38.2733317 23.268,38.6 C23.3053335,38.8800014 23.2633339,39.0713328 23.142,39.174 C23.0206661,39.2766672 22.8573344,39.328 22.652,39.328 C22.4279989,39.328 22.2016678,39.2650006 21.973,39.139 C21.7443322,39.0129994 21.5786672,38.8706675 21.476,38.712 C21.3266659,38.4786655 21.2426668,37.797339 21.224,36.668 L21.224,33.364 C21.2146666,33.2706662 21.1773337,33.1400008 21.112,32.972 C21.0466663,32.8039992 21.014,32.6780004 21.014,32.594 C21.014,32.5099996 21.0373331,32.430667 21.084,32.356 C21.2053339,32.1693324 21.5133309,32.076 22.008,32.076 C22.6146697,32.076 22.9786661,32.2253318 23.1,32.524 C23.1280001,32.5893337 23.142,32.6546663 23.142,32.72 C23.142,32.8040004 23.0976671,32.9253325 23.009,33.084 C22.9203329,33.2426675 22.876,33.3733328 22.876,33.476 L22.876,35.072 C23.1560014,34.4839971 23.5246644,33.7373379 23.982,32.832 C24.0380003,32.7106661 24.0916664,32.5893339 24.143,32.468 C24.1943336,32.3466661 24.2713328,32.2393338 24.374,32.146 C24.4766672,32.0526662 24.6493321,32.006 24.892,32.006 C25.2653352,32.006 25.6409981,32.0899992 26.019,32.258 C26.3970019,32.4260008 26.5906666,32.6266655 26.6,32.86 C26.6093334,33.1026679 26.5743337,33.2869994 26.495,33.413 C26.4156663,33.5390006 26.376,33.6439996 26.376,33.728 L26.348,36.752 C26.4973341,36.4159983 26.767998,35.6226729 27.16,34.372 C27.4680015,33.4199952 27.7013325,32.8880006 27.86,32.776 C28.0653344,32.6266659 28.3686647,32.552 28.77,32.552 C29.5166704,32.552 29.9039999,32.7666645 29.932,33.196 C29.9226666,34.3346724 29.9226666,36.2386533 29.932,38.908 C29.932,39.0106672 30.0253324,39.1343326 30.212,39.279 C30.3986676,39.4236674 30.492,39.5753325 30.492,39.734 C30.492,39.808667 30.4733335,39.8973328 30.436,40 C30.3146661,40.3453351 30.0393355,40.518 29.61,40.518 C29.068664,40.518 28.6673346,40.3313352 28.406,39.958 C28.2659993,39.7526656 28.196,39.048006 28.196,37.844 L28.196,37.102 C28.2053334,36.7753317 28.21,36.5466673 28.21,36.416 C28.21,35.7626634 28.1773337,35.4266668 28.112,35.408 C27.9719993,35.3519997 27.4960041,36.6586533 26.684,39.328 C26.684,39.3373334 26.6653335,39.5613311 26.628,40 C26.6093332,40.270668 26.5160008,40.4526662 26.348,40.546 C26.2266661,40.6113337 26.0913341,40.644 25.942,40.644 C25.671332,40.644 25.4100013,40.5553342 25.158,40.378 C24.9059987,40.2006658 24.7473337,39.9906679 24.682,39.748 C24.5886662,39.4026649 24.5466666,38.7213384 24.556,37.704 C24.5737654,36.2916509 24.5830769,35.5767484 24.5839347,35.5592738 L24.5839347,35.5592738 Z M36.876,36.136 C36.876,37.1253383 36.6660021,38.0259959 36.246,38.838 C35.779331,39.7153377 35.2053367,40.154 34.524,40.154 C34.1413314,40.154 33.7493353,39.8506697 33.348,39.244 L33.348,41.036 C33.348,41.1853341 33.4086661,41.3766655 33.53,41.61 C33.6513339,41.8433345 33.712,42.0206661 33.712,42.142 C33.712,42.2353338 33.6886669,42.3286662 33.642,42.422 C33.445999,42.8420021 33.0633362,43.052 32.494,43.052 C32.027331,43.052 31.7380006,42.8840017 31.626,42.548 C31.5886665,42.4359994 31.57,42.3286672 31.57,42.226 C31.57,42.1233328 31.600333,41.9856675 31.661,41.813 C31.721667,41.6403325 31.752,41.4933339 31.752,41.372 L31.752,33.406 C31.752,33.3033328 31.714667,33.1796674 31.64,33.035 C31.565333,32.8903326 31.528,32.7713338 31.528,32.678 C31.528,32.603333 31.5466665,32.5240004 31.584,32.44 C31.6960006,32.1786654 32.0413304,32.048 32.62,32.048 C32.9840018,32.048 33.2266661,32.1226659 33.348,32.272 C33.3946669,32.3280003 33.418,32.3979996 33.418,32.482 C33.418,32.5473337 33.3946669,32.6499993 33.348,32.79 C33.3013331,32.9300007 33.2733334,33.037333 33.264,33.112 C33.6933355,32.4959969 34.1973304,32.188 34.776,32.188 C35.5506705,32.188 36.1153316,32.6266623 36.47,33.504 C36.740668,34.1853367 36.876,35.0626613 36.876,36.136 Z M35.112,36.136 C35.112,35.2493289 35.0933335,34.6846679 35.056,34.442 C34.9626662,33.8353303 34.7293352,33.532 34.356,33.532 C34.1413323,33.532 33.9476675,33.8236637 33.775,34.407 C33.6023325,34.9903363 33.516,35.5666638 33.516,36.136 C33.516,36.5653355 33.6093324,37.0693304 33.796,37.648 C33.9826676,38.2640031 34.1693324,38.572 34.356,38.572 C34.5800011,38.572 34.7666659,38.2873362 34.916,37.718 C35.0466673,37.2233309 35.112,36.6960028 35.112,36.136 Z M44.38,34.792 C44.3986668,34.8386669 44.408,34.8946663 44.408,34.96 C44.408,35.6040032 43.8853386,36.6166598 42.84,37.998 C41.7853281,39.398007 40.9453365,40.1539994 40.32,40.266 C40.0026651,40.3220003 39.5266698,40.0653362 38.892,39.496 C38.2946637,38.9359972 37.9680003,38.5160014 37.912,38.236 C37.8653331,38.0213323 37.9353324,37.8253342 38.122,37.648 C38.3086676,37.4706658 38.5186655,37.3866666 38.752,37.396 C39.0506682,37.4146668 39.3423319,37.5266656 39.627,37.732 C39.9116681,37.9373344 40.1239993,38.0493332 40.264,38.068 C40.4040007,38.0866668 40.7866635,37.6783375 41.412,36.843 C42.0373365,36.0076625 42.35,35.4313349 42.35,35.114 C42.35,34.9553325 42.2380011,34.876 42.014,34.876 C41.8926661,34.876 41.7503342,34.9343327 41.587,35.051 C41.4236659,35.1676672 41.2626675,35.2773328 41.104,35.38 C40.9826661,35.4266669 40.8356675,35.5269992 40.663,35.681 C40.4903325,35.8350008 40.3293341,35.912 40.18,35.912 C39.8906652,35.912 39.5966682,35.7626682 39.298,35.464 C38.9713317,35.1466651 38.8173332,34.8106684 38.836,34.456 C38.8453334,34.2226655 39.0226649,34.0453339 39.368,33.924 C39.8533358,33.7559992 40.1239997,33.6533335 40.18,33.616 C40.572002,33.3173318 41.001331,32.8436699 41.468,32.195 C41.934669,31.5463301 42.168,31.0726682 42.168,30.774 C42.168,30.6899996 42.1493335,30.6293335 42.112,30.592 C42.0559997,30.5359997 41.8366686,30.6666651 41.454,30.984 C41.1086649,31.2640014 40.7866682,31.5719983 40.488,31.908 C40.3946662,31.982667 40.2686675,32.155332 40.11,32.426 C39.9886661,32.6313344 39.8346676,32.7666663 39.648,32.832 C39.5453328,32.8693335 39.4426672,32.888 39.34,32.888 C39.0413318,32.888 38.763668,32.7760011 38.507,32.552 C38.250332,32.3279989 38.0800004,32.0760014 37.996,31.796 C37.9306663,31.5719989 38.5349936,30.9793381 39.809,30.018 C41.0830064,29.0566619 41.990664,28.576 42.532,28.576 C42.998669,28.576 43.3719986,28.741665 43.652,29.073 C43.9320014,29.404335 44.0626668,29.7986644 44.044,30.256 C44.0159999,31.0120038 43.8853345,31.623331 43.652,32.09 C43.5026659,32.3980015 43.157336,32.8506637 42.616,33.448 C43.1106691,33.5786673 43.4839987,33.7279992 43.736,33.896 C44.0440015,34.1106677 44.2586661,34.4093314 44.38,34.792 Z"/>
  </g>
</svg>
