<svg xmlns="http://www.w3.org/2000/svg" width="64" height="64" viewBox="0 0 64 64">
  <g fill="none" fill-rule="evenodd">
    <polygon fill="#E6E6E6" points="18.045 3 51 3 51 61 11 61 11 9.065"/>
    <polygon fill="#CDCDCD" points="18 3 18 9 11 9"/>
    <path fill="#979797" d="M18.908,38.418 C18.9266668,38.5300006 18.9173335,38.6606659 18.88,38.81 C18.805333,39.0433345 18.7633334,39.1739999 18.754,39.202 C18.7446666,39.3513341 18.7330001,39.5076659 18.719,39.671 C18.7049999,39.8343342 18.6536671,39.9626662 18.565,40.056 C18.4763329,40.1493338 18.3013346,40.196 18.04,40.196 C17.7786654,40.196 17.550001,40.1446672 17.354,40.042 C17.1206655,39.9299994 16.9993334,39.776001 16.99,39.58 C16.99,39.4959996 17.0156664,39.3933339 17.067,39.272 C17.1183336,39.1506661 17.1509999,39.0573337 17.165,38.992 C17.1790001,38.9266663 17.1813334,38.7493348 17.172,38.46 C17.172,38.2453323 17.2256661,38.0866672 17.333,37.984 C17.4403339,37.8813328 17.6106655,37.83 17.844,37.83 C18.0866679,37.83 18.3153323,37.8836661 18.53,37.991 C18.7446677,38.0983339 18.8706665,38.2406658 18.908,38.418 Z M23.3459347,35.5592738 C23.3365366,35.1690677 23.3085586,34.9693117 23.262,34.96 C23.0473323,35.3146684 22.8606675,35.6553317 22.702,35.982 C22.3193314,36.7660039 22.1000003,37.4193307 22.044,37.942 C21.9973331,38.0540006 21.9926665,38.2733317 22.03,38.6 C22.0673335,38.8800014 22.0253339,39.0713328 21.904,39.174 C21.7826661,39.2766672 21.6193344,39.328 21.414,39.328 C21.1899989,39.328 20.9636678,39.2650006 20.735,39.139 C20.5063322,39.0129994 20.3406672,38.8706675 20.238,38.712 C20.0886659,38.4786655 20.0046668,37.797339 19.986,36.668 L19.986,33.364 C19.9766666,33.2706662 19.9393337,33.1400008 19.874,32.972 C19.8086663,32.8039992 19.776,32.6780004 19.776,32.594 C19.776,32.5099996 19.7993331,32.430667 19.846,32.356 C19.9673339,32.1693324 20.2753309,32.076 20.77,32.076 C21.3766697,32.076 21.7406661,32.2253318 21.862,32.524 C21.8900001,32.5893337 21.904,32.6546663 21.904,32.72 C21.904,32.8040004 21.8596671,32.9253325 21.771,33.084 C21.6823329,33.2426675 21.638,33.3733328 21.638,33.476 L21.638,35.072 C21.9180014,34.4839971 22.2866644,33.7373379 22.744,32.832 C22.8000003,32.7106661 22.8536664,32.5893339 22.905,32.468 C22.9563336,32.3466661 23.0333328,32.2393338 23.136,32.146 C23.2386672,32.0526662 23.4113321,32.006 23.654,32.006 C24.0273352,32.006 24.4029981,32.0899992 24.781,32.258 C25.1590019,32.4260008 25.3526666,32.6266655 25.362,32.86 C25.3713334,33.1026679 25.3363337,33.2869994 25.257,33.413 C25.1776663,33.5390006 25.138,33.6439996 25.138,33.728 L25.11,36.752 C25.2593341,36.4159983 25.529998,35.6226729 25.922,34.372 C26.2300015,33.4199952 26.4633325,32.8880006 26.622,32.776 C26.8273344,32.6266659 27.1306647,32.552 27.532,32.552 C28.2786704,32.552 28.6659999,32.7666645 28.694,33.196 C28.6846666,34.3346724 28.6846666,36.2386533 28.694,38.908 C28.694,39.0106672 28.7873324,39.1343326 28.974,39.279 C29.1606676,39.4236674 29.254,39.5753325 29.254,39.734 C29.254,39.808667 29.2353335,39.8973328 29.198,40 C29.0766661,40.3453351 28.8013355,40.518 28.372,40.518 C27.830664,40.518 27.4293346,40.3313352 27.168,39.958 C27.0279993,39.7526656 26.958,39.048006 26.958,37.844 L26.958,37.102 C26.9673334,36.7753317 26.972,36.5466673 26.972,36.416 C26.972,35.7626634 26.9393337,35.4266668 26.874,35.408 C26.7339993,35.3519997 26.2580041,36.6586533 25.446,39.328 C25.446,39.3373334 25.4273335,39.5613311 25.39,40 C25.3713332,40.270668 25.2780008,40.4526662 25.11,40.546 C24.9886661,40.6113337 24.8533341,40.644 24.704,40.644 C24.433332,40.644 24.1720013,40.5553342 23.92,40.378 C23.6679987,40.2006658 23.5093337,39.9906679 23.444,39.748 C23.3506662,39.4026649 23.3086666,38.7213384 23.318,37.704 C23.3357654,36.2916509 23.3450769,35.5767484 23.3459347,35.5592738 L23.3459347,35.5592738 Z M35.638,36.136 C35.638,37.1253383 35.4280021,38.0259959 35.008,38.838 C34.541331,39.7153377 33.9673367,40.154 33.286,40.154 C32.9033314,40.154 32.5113353,39.8506697 32.11,39.244 L32.11,41.036 C32.11,41.1853341 32.1706661,41.3766655 32.292,41.61 C32.4133339,41.8433345 32.474,42.0206661 32.474,42.142 C32.474,42.2353338 32.4506669,42.3286662 32.404,42.422 C32.207999,42.8420021 31.8253362,43.052 31.256,43.052 C30.789331,43.052 30.5000006,42.8840017 30.388,42.548 C30.3506665,42.4359994 30.332,42.3286672 30.332,42.226 C30.332,42.1233328 30.362333,41.9856675 30.423,41.813 C30.483667,41.6403325 30.514,41.4933339 30.514,41.372 L30.514,33.406 C30.514,33.3033328 30.476667,33.1796674 30.402,33.035 C30.327333,32.8903326 30.29,32.7713338 30.29,32.678 C30.29,32.603333 30.3086665,32.5240004 30.346,32.44 C30.4580006,32.1786654 30.8033304,32.048 31.382,32.048 C31.7460018,32.048 31.9886661,32.1226659 32.11,32.272 C32.1566669,32.3280003 32.18,32.3979996 32.18,32.482 C32.18,32.5473337 32.1566669,32.6499993 32.11,32.79 C32.0633331,32.9300007 32.0353334,33.037333 32.026,33.112 C32.4553355,32.4959969 32.9593304,32.188 33.538,32.188 C34.3126705,32.188 34.8773316,32.6266623 35.232,33.504 C35.502668,34.1853367 35.638,35.0626613 35.638,36.136 Z M33.874,36.136 C33.874,35.2493289 33.8553335,34.6846679 33.818,34.442 C33.7246662,33.8353303 33.4913352,33.532 33.118,33.532 C32.9033323,33.532 32.7096675,33.8236637 32.537,34.407 C32.3643325,34.9903363 32.278,35.5666638 32.278,36.136 C32.278,36.5653355 32.3713324,37.0693304 32.558,37.648 C32.7446676,38.2640031 32.9313324,38.572 33.118,38.572 C33.3420011,38.572 33.5286659,38.2873362 33.678,37.718 C33.8086673,37.2233309 33.874,36.6960028 33.874,36.136 Z M44.346,35.128 C44.3646668,35.3800013 44.2690011,35.5993324 44.059,35.786 C43.848999,35.9726676 43.6180013,36.066 43.366,36.066 C43.3006663,36.066 43.200334,36.0473335 43.065,36.01 C42.929666,35.9726665 42.8153338,35.9586666 42.722,35.968 C42.5633325,35.9960001 42.3113351,36.0146666 41.966,36.024 C41.966,37.3586733 41.9566668,38.0773328 41.938,38.18 C41.938,38.3666676 42.0009994,38.6139985 42.127,38.922 C42.2530006,39.2300015 42.316,39.4493327 42.316,39.58 C42.316,39.8973349 42.0500027,40.1819987 41.518,40.434 C41.4619997,40.4620001 41.3920004,40.476 41.308,40.476 C40.9719983,40.476 40.608002,40.2940018 40.216,39.93 C39.823998,39.5659982 39.6513331,39.2066684 39.698,38.852 C39.7073334,38.777333 39.7889992,38.6490009 39.943,38.467 C40.0970008,38.2849991 40.174,38.0866677 40.174,37.872 C40.1553332,37.1626631 40.146,36.6680014 40.146,36.388 C39.6979978,36.5093339 39.1100036,36.6213328 38.382,36.724 C38.2979996,36.7426668 38.1720008,36.8126661 38.004,36.934 C37.8733327,37.0366672 37.7473339,37.0786668 37.626,37.06 C37.3739987,37.0226665 37.1220013,36.8546682 36.87,36.556 C36.5899986,36.2199983 36.4686665,35.8840017 36.506,35.548 C36.5246668,35.3333323 36.6226658,35.1793338 36.8,35.086 C37.0240011,34.9646661 37.1593331,34.866667 37.206,34.792 L40.062,29.668 C40.1180003,29.5653328 40.1436667,29.3973345 40.139,29.164 C40.1343333,28.9306655 40.1739996,28.7626672 40.258,28.66 C40.3793339,28.5106659 40.5426656,28.436 40.748,28.436 C41.1213352,28.436 41.5249978,28.6273314 41.959,29.01 C42.3930022,29.3926686 42.61,29.7613316 42.61,30.116 C42.61,30.2933342 42.4980011,30.6059978 42.274,31.054 C42.0499989,31.5020022 41.938,31.8706652 41.938,32.16 L41.938,34.372 C42.1806679,34.2693328 42.5633307,34.1573339 43.086,34.036 C43.3753348,34.0173332 43.6529987,34.1176656 43.919,34.337 C44.1850013,34.5563344 44.3273332,34.8199985 44.346,35.128 Z M40.23,32.524 L38.97,34.96 L40.146,34.708 L40.23,32.524 Z"/>
  </g>
</svg>
