<svg xmlns="http://www.w3.org/2000/svg" width="64" height="64" viewBox="0 0 64 64">
  <path fill="#FCC24C" fill-rule="evenodd" d="M16.2235491,29.2196895 C16.2235491,29.2196895 19.8582344,28.0776617 23.9705004,28.0776617 C28.0827664,28.0776617 29.032494,25.9433407 27.9556732,24.2781476 C26.8788524,22.6129546 22.3131564,14.8352111 27.4974131,12.5152313 C32.6816698,10.1952515 34.5258801,10.2088363 36.2912987,12.9753028 C38.0567172,15.7417692 35.3294957,23.5246448 35.8103972,25.2583655 C36.2912987,26.9920862 37.2289509,26.9960107 37.2289509,26.9960107 C37.2289509,26.9960107 43.0673905,22.5903133 47.2714294,24.793162 C47.2714294,24.793162 49.651786,21.4229272 53.6559775,23.0603469 C53.6559775,23.0603469 53.8011838,16.0140687 52.2144806,15.1884156 C52.2144806,15.1884156 47.9222916,18.5592541 46.6190577,16.9701359 C45.3158238,15.3810177 46.8158862,12.1759135 50.0209903,12.1759135 C53.2260944,12.1759135 54.0306157,11.9546324 54.0306157,11.9546324 C54.0306157,11.9546324 63.1520456,22.3823151 63.1520456,24.3252416 C63.1520456,26.268168 61.4454945,29.8654197 59.2547211,30.4365845 C59.2547211,30.4365845 53.1195293,34.8842439 48.7521712,34.0296098 C48.7521712,34.0296098 47.9425178,45.5917732 39.0221428,51.1099137 C39.0221428,51.1099137 36.8337845,55.247538 38.0612455,57.606159 C38.0612455,57.606159 30.3562561,62.078271 22.0493096,58.3231339 C22.0493096,58.3231339 24.8266439,52.3648462 23.2713367,48.9420836 C23.2713367,48.9420836 17.1862577,43.7034877 17.6650459,38.6128151 C17.6650459,38.6128151 12.405922,41.339131 6.99313897,37.7316153 C6.99313897,37.7316153 3.14743665,37.7485208 1.92993783,35.9197065 C1.92993783,35.9197065 1.95378668,28.1380385 3.81912891,24.978217 C3.81912891,24.978217 4.42199157,19.7175836 5.97820442,18.741894 C5.97820442,18.741894 13.4060642,15.1766421 14.8219009,18.2138986 C14.8219009,18.2138986 15.9204574,21.7435282 9.89756648,21.6753024 C9.89756648,21.6753024 8.71206738,24.4686365 9.34481658,25.9590386 L10.1266966,29.4119897 C10.1266966,29.4119897 11.9801625,28.6400123 12.9641058,28.6089778 C13.9480491,28.5779434 16.2235491,29.2196895 16.2235491,29.2196895 Z"/>
</svg>
