<svg xmlns="http://www.w3.org/2000/svg" width="64" height="64" viewBox="0 0 64 64">
  <g fill="none" fill-rule="evenodd">
    <path fill="#D8D8D8" d="M31,7.54400273 C31,7.54400273 36.3000057,5 41.6000114,5 C46.9000171,5 52.2000227,7.54400273 52.2000227,7.54400273 L52.2000227,38.9200364 C52.2000227,38.9200364 46.9000171,36.3760337 41.6000114,36.3760337 C36.3000057,36.3760337 31,38.9200364 31,38.9200364 L31,7.54400273 Z"/>
    <path fill="#ECECEC" d="M10,7.54400273 C10,7.54400273 15.3000057,5 20.6000114,5 C25.9000171,5 31.2000227,7.54400273 31.2000227,7.54400273 L31.2000227,38.9200364 C31.2000227,38.9200364 25.9000171,36.3760337 20.6000114,36.3760337 C15.3000057,36.3760337 10,38.9200364 10,38.9200364 L10,7.54400273 Z"/>
    <polygon fill="#E43535" points="27 21 17 26 17 16"/>
    <rect width="14" height="12" x="40" y="49" fill="#FFDD95"/>
    <path fill="#FFDD95" d="M43,35 L53.9998779,35 C55.6567996,35 57,36.3529255 57,37.9925398 L57,48.0099002 C57,50.7658562 54.7645872,53 52.0079737,53 L39.9974219,53 C38.8942762,53 38,52.1073772 38,51.0049107 L38,37.2461332 L38,24.5028229 C38,23.120552 39.1096621,22 40.5,22 C41.8807119,22 43,23.1259806 43,24.5028229 L43,35 Z"/>
    <path stroke="#FFCC60" stroke-linecap="square" stroke-width="2" d="M44 36L44 40M48 36L48 40M52 36L52 40"/>
  </g>
</svg>
