<svg xmlns="http://www.w3.org/2000/svg" width="64" height="64" viewBox="0 0 64 64">
  <g fill="none" fill-rule="evenodd">
    <path fill="#B4DFFB" d="M32,61 C15.4314575,61 2,47.5685425 2,31 C2,14.4314575 15.4314575,1 32,1 C48.5685425,1 62,14.4314575 62,31 C62,47.5685425 48.5685425,61 32,61 Z M32,35 C34.209139,35 36,33.209139 36,31 C36,28.790861 34.209139,27 32,27 C29.790861,27 28,28.790861 28,31 C28,33.209139 29.790861,35 32,35 Z"/>
    <path fill="#5EA7FF" d="M32,40 C27.0294373,40 23,35.9705627 23,31 C23,26.0294373 27.0294373,22 32,22 C36.9705627,22 41,26.0294373 41,31 C41,35.9705627 36.9705627,40 32,40 Z M32,35 C34.209139,35 36,33.209139 36,31 C36,28.790861 34.209139,27 32,27 C29.790861,27 28,28.790861 28,31 C28,33.209139 29.790861,35 32,35 Z"/>
    <polygon fill="#E43535" points="45 46.294 60 41 60 44.706 45 50"/>
    <ellipse cx="42" cy="59.5" fill="#E43535" rx="4" ry="2.5"/>
    <polyline stroke="#E43535" stroke-linecap="round" stroke-width="2" points="45 59 45 43.055 60 38"/>
    <ellipse cx="57" cy="54.5" fill="#E43535" rx="4" ry="2.5"/>
    <path stroke="#E43535" stroke-linecap="round" stroke-width="2" d="M60,54 L60,38"/>
  </g>
</svg>
