<svg xmlns="http://www.w3.org/2000/svg" width="64" height="64" viewBox="0 0 64 64">
  <g fill="none" fill-rule="evenodd">
    <rect width="58" height="37" x="3" y="18" fill="#D8D8D8" rx="4"/>
    <circle cx="50" cy="44" r="6" fill="#979797"/>
    <path stroke="#FFF" stroke-linecap="square" stroke-width="2" d="M50 41L50 47M47 44L53 44"/>
    <rect width="6" height="3" x="48" y="15" fill="#979797"/>
    <circle cx="48" cy="23" r="2" fill="#80D25B"/>
    <circle cx="54" cy="23" r="2" fill="#FF78C7"/>
    <rect width="35" height="29" x="7" y="22" fill="#0A3586"/>
    <polygon fill="#979797" points="20 12 34 12 37 18 17 18"/>
    <polygon fill="#E43535" points="19 33.294 34 28 34 31.706 19 37"/>
    <ellipse cx="16" cy="46.5" fill="#E43535" rx="4" ry="2.5"/>
    <polyline stroke="#E43535" stroke-linecap="round" stroke-width="2" points="19 46 19 30.055 34 25"/>
    <ellipse cx="31" cy="41.5" fill="#E43535" rx="4" ry="2.5"/>
    <path stroke="#E43535" stroke-linecap="round" stroke-width="2" d="M34,41 L34,25"/>
  </g>
</svg>
