<svg xmlns="http://www.w3.org/2000/svg" width="64" height="64" viewBox="0 0 64 64">
  <g fill="none" fill-rule="evenodd">
    <path fill="#0A3586" d="M2,9.99480279 C2,7.78853413 3.79568082,6 6.0065556,6 L59.0040626,6 C60.6586731,6 62,7.33870834 62,8.99652399 L62,43 L2,43 L2,9.99480279 Z"/>
    <circle cx="22" cy="39" r="2" fill="#E43535"/>
    <circle cx="27" cy="39" r="2" fill="#5EA7FF"/>
    <circle cx="32" cy="39" r="2" fill="#FFDD95"/>
    <circle cx="37" cy="39" r="2" fill="#80D25B"/>
    <circle cx="42" cy="39" r="2" fill="#B4DFFB"/>
    <path fill="#D8D8D8" d="M2,43 L62,43 L62,47.9983345 C62,49.6561086 60.6626903,51 59.0040626,51 L4.99593743,51 C3.34132688,51 2,49.6609799 2,47.9983345 L2,43 Z"/>
    <circle cx="32" cy="47" r="2" fill="#979797"/>
    <path fill="#979797" d="M25.6128012,51 L37.6128012,51 L39.178831,58.047134 C39.4185061,59.1256721 38.7182875,60 37.6187409,60 L25.6068615,60 C24.5055724,60 23.8082111,59.1206553 24.0467714,58.047134 L25.6128012,51 Z"/>
    <polygon fill="#E43535" points="26 19.294 41 14 41 17.706 26 23"/>
    <ellipse cx="23" cy="32.5" fill="#E43535" rx="4" ry="2.5"/>
    <polyline stroke="#E43535" stroke-linecap="round" stroke-width="2" points="26 32 26 16.055 41 11"/>
    <ellipse cx="38" cy="27.5" fill="#E43535" rx="4" ry="2.5"/>
    <path stroke="#E43535" stroke-linecap="round" stroke-width="2" d="M41,27 L41,11"/>
  </g>
</svg>
