<svg xmlns="http://www.w3.org/2000/svg" width="64" height="64" viewBox="0 0 64 64">
  <g fill="none" fill-rule="evenodd">
    <path fill="#5EA7FF" d="M15,47 C6.71572875,47 0,40.2842712 0,32 C0,23.7157288 6.71572875,17 15,17 C17.1706646,17 19.2336397,17.4610733 21.0963309,18.2906254 C21.9447755,10.8112821 28.2937389,5 36,5 C44.2842712,5 51,11.7157288 51,20 C51,21.0287036 50.8964464,22.0332209 50.6991948,23.0036966 C50.7991647,23.001237 50.8994379,23 51,23 C57.627417,23 63,28.372583 63,35 C63,41.627417 57.627417,47 51,47 L15,47 Z"/>
    <polygon fill="#E43535" points="26 45.294 41 40 41 43.706 26 49"/>
    <ellipse cx="23" cy="58.5" fill="#E43535" rx="4" ry="2.5"/>
    <polyline stroke="#E43535" stroke-linecap="round" stroke-width="2" points="26 58 26 42.055 41 37"/>
    <ellipse cx="38" cy="53.5" fill="#E43535" rx="4" ry="2.5"/>
    <path stroke="#E43535" stroke-linecap="round" stroke-width="2" d="M41,53 L41,37"/>
  </g>
</svg>
