<svg xmlns="http://www.w3.org/2000/svg" width="64" height="64" viewBox="0 0 64 64">
  <g fill="none" fill-rule="evenodd">
    <path fill="#D650C7" fill-rule="nonzero" d="M32.5535593,61.5 C16.2611591,61.5 3.05355927,48.2924001 3.05355927,32 C3.05355927,15.7075999 16.2611591,2.5 32.5535593,2.5 C48.8459594,2.5 62.0535593,15.7075999 62.0535593,32 C62.0535593,48.2924001 48.8459594,61.5 32.5535593,61.5 Z M32.5535593,58.5 C47.1891051,58.5 59.0535593,46.6355459 59.0535593,32 C59.0535593,17.3644541 47.1891051,5.5 32.5535593,5.5 C17.9180134,5.5 6.05355927,17.3644541 6.05355927,32 C6.05355927,46.6355459 17.9180134,58.5 32.5535593,58.5 Z"/>
    <path fill="#D650C7" d="M43.5975142,44.81 C41.7187136,45.873 39.728068,46.175 37.6697266,45.373 C36.0430679,44.739 34.890279,43.634 34.6194963,41.802 C34.4026738,40.331 34.8843924,39.053 35.8556784,37.968 C37.3469457,36.302 39.2365384,35.638 41.4096681,35.701 C42.0287402,35.719 42.6242661,35.861 43.2139053,36.036 C43.4258223,36.099 43.5435539,36.104 43.5435539,35.795 C43.5317807,31.811 43.5327618,27.827 43.5415917,23.843 C43.5425728,23.58 43.464085,23.518 43.2227352,23.526 C41.2428816,23.592 39.2806878,23.841 37.3283049,24.158 C34.2986776,24.65 31.3092752,25.339 28.3591168,26.199 C27.6007289,26.42 27.6036721,26.416 27.5889557,27.214 C27.5055625,31.64 27.5712959,36.067 27.5565795,40.493 C27.5526551,41.756 27.5595228,43.019 27.5291088,44.282 C27.4869216,46.063 26.6971386,47.466 25.2774913,48.455 C23.0827775,49.984 20.7399181,50.331 18.2361587,49.25 C17.5905969,48.971 16.9862412,48.671 16.5349366,48.114 C15.4802574,46.813 15.324263,45.35 15.8354145,43.792 C16.2033259,42.669 16.9205077,41.798 17.8623608,41.124 C19.8167058,39.726 21.9466673,39.389 24.2306609,40.071 C24.5024248,40.152 24.5583473,40.116 24.5583473,39.824 C24.5514796,32.72 24.5534418,25.616 24.555404,18.512 C24.555404,18.188 24.5544229,17.865 24.5926857,17.542 C24.6103454,17.391 24.667249,17.324 24.8046026,17.269 C28.7437068,15.697 32.8280133,14.7 37.0045429,14.09 C39.5171321,13.723 42.0503244,13.542 44.5825355,13.376 C45.1103657,13.341 45.6362336,13.295 46.1670071,13.307 C46.4299411,13.313 46.4986178,13.405 46.5035233,13.669 C46.5839733,18.128 46.5270697,22.587 46.5535593,28.096 L46.5535593,39.774 C46.5535593,42.057 45.5126154,43.726 43.5975142,44.81 L43.5975142,44.81 Z"/>
  </g>
</svg>
