<svg xmlns="http://www.w3.org/2000/svg" width="64" height="64" viewBox="0 0 64 64">
  <g fill="none" fill-rule="evenodd">
    <path fill="#0A3586" d="M15.0774842,13.9909141 C15.0346909,12.8913626 15.8898926,12 16.9997073,12 L49.0002927,12 C50.1047006,12 50.9653986,12.8890643 50.9225158,13.9909141 L49.1315383,60.0090859 C49.0887449,61.1086374 48.1617881,62 47.0455481,62 L18.9544519,62 C17.8451847,62 16.9113445,61.1109357 16.8684617,60.0090859 L15.0774842,13.9909141 Z"/>
    <circle cx="33" cy="46" r="11" fill="#ED9111"/>
    <circle cx="33" cy="46" r="4" fill="#0A3586"/>
    <circle cx="33" cy="24" r="6" fill="#ED9111"/>
    <circle cx="33" cy="24" r="2" fill="#0A3586"/>
    <ellipse cx="7.5" cy="11" fill="#E43535" rx="3.5" ry="2"/>
    <polyline stroke="#E43535" stroke-linecap="round" stroke-width="2" points="10.049 10.478 10 4 12.946 5.363"/>
    <ellipse cx="57.5" cy="21" fill="#E43535" rx="3.5" ry="2"/>
    <polyline stroke="#E43535" stroke-linecap="round" stroke-width="2" points="60.049 20.478 60 14 62.946 15.363"/>
    <ellipse cx="47.5" cy="41" fill="#E43535" rx="3.5" ry="2"/>
    <polyline stroke="#E43535" stroke-linecap="round" stroke-width="2" points="50.049 40.478 50 34 52.946 35.363"/>
    <ellipse cx="17.5" cy="21" fill="#E43535" rx="3.5" ry="2"/>
    <polyline stroke="#E43535" stroke-linecap="round" stroke-width="2" points="20.049 20.478 20 14 22.946 15.363"/>
  </g>
</svg>
