<svg xmlns="http://www.w3.org/2000/svg" width="64" height="64" viewBox="0 0 64 64">
  <g fill="none" fill-rule="evenodd">
    <polygon fill="#868686" points="11 5 18 5 18 56.436 11 56.436"/>
    <path fill="#595959" d="M18,5 L50.0000796,5 C51.1046051,5 52,5.894703 52,7.00020325 L52,57.8324082 C52,58.93709 51.1080589,59.8326115 50.0000796,59.8326115 L18,59.8326115 L18,5 Z"/>
    <polygon fill="#FFAF40" points="41 30 38.649 31.236 39.098 28.618 37.196 26.764 39.824 26.382 41 24 42.176 26.382 44.804 26.764 42.902 28.618 43.351 31.236"/>
    <path fill="#FFAF40" d="M36,20.5121171 C35.0616632,20.1804627 34.0519063,20 33,20 C28.0294373,20 24,24.0294373 24,29 C24,33.9705627 28.0294373,38 33,38 C34.0519063,38 35.0616632,37.8195373 36,37.4878829 C32.5044229,36.2523737 30,32.9186565 30,29 C30,25.0813435 32.5044229,21.7476263 36,20.5121171 Z"/>
    <path fill="#ECECEC" d="M11,56.5 C11,54.5670034 12.5571833,53 14.4956369,53 L52,53 L52,60 L14.4956369,60 C12.56505,60 11,58.4290634 11,56.5 L11,56.5 Z"/>
  </g>
</svg>
