<svg xmlns="http://www.w3.org/2000/svg" width="64" height="64" viewBox="0 0 64 64">
  <g fill="none" fill-rule="evenodd">
    <path fill="#5EA7FF" d="M23,5 C16.372583,5 12,12.6111593 12,22 C12,31.3888407 16.372583,61 23,61 C26.8661992,61 27.3053608,36.4098157 32.5,36.3875505 C38.6946392,36.4098157 38.1338008,61 42,61 C48.627417,61 53,31.3888407 53,22 C53,12.6111593 48.627417,5 42,5 C38.8333333,5 35.6666667,8 32.5,8 C29.3333333,8 26.1666667,5 23,5 Z"/>
    <path stroke="#FCC24C" stroke-linecap="round" stroke-width="2" d="M20.3581444 15.3937383C21.2170084 13.7049025 20.0438974 11.1436439 21.8771249 10.6650098 25.0893529 9.82633487 29.405461 12.2802948 32.7233768 12.1653216 36.3279846 12.0404139 48.3316734 5.61363751 48.5241951 15.2452607 48.7004545 24.0633042 31.9891439 17.8276847 26.4639953 24.4971272 19.6555664 32.7156257 21.6995306 41.5644033 21.8771249 51.0979438M36.6689172 21.3888141C46.5781213 31.5182989 42.5884315 24.0766353 43.8559284 51.6820434M25.7468717 24.9013595C19.0067477 26.8123007 21.050485 24.8731654 18.3311527 28.9561202M23 31L25.6193475 36.1768941M21.260282 37.7862636C20.0128626 39.7014436 18.7654433 41.6166237 17.5180239 43.5318037M41.9297672 26.7503335L38.5000117 32.2603305M43.6536403 32L46.9217029 39.137032M43.5233752 43.1578888L39.9412553 47.1104255"/>
  </g>
</svg>
