<svg xmlns="http://www.w3.org/2000/svg" xmlns:xlink="http://www.w3.org/1999/xlink" width="64" height="64" viewBox="0 0 64 64">
  <defs>
    <path id="news-a" d="M0.397183367,33.3041876 L45.0203528,0.26319809 C54.1093611,7.0047866 60,17.8144771 60,30 C60,31.4987086 59.9108937,32.9766052 59.7376899,34.4286811 L3.7839069,42.3916911 L0.397183367,33.3041876 Z"/>
  </defs>
  <g fill="none" fill-rule="evenodd">
    <path fill="#5B68C0" fill-rule="nonzero" d="M19,46 L19,50 L28,50 L28,46 L19,46 Z M15,44.9970301 C15,43.3411703 16.3435639,42 17.9985023,42 L29.0014977,42 C30.6566349,42 32,43.347565 32,44.9970301 L32,51.0029699 C32,52.6588297 30.6564361,54 29.0014977,54 L17.9985023,54 C16.3433651,54 15,52.652435 15,51.0029699 L15,44.9970301 Z"/>
    <g transform="translate(2 7)">
      <mask id="news-b" fill="#fff">
        <use xlink:href="#news-a"/>
      </mask>
      <use fill="#22BA8E" xlink:href="#news-a"/>
      <polygon fill="#E43535" points="6.231 26.646 9.946 36.74 13.056 45.192 -.8 45.998 -2.784 35.496" mask="url(#news-b)"/>
    </g>
  </g>
</svg>
