<svg xmlns="http://www.w3.org/2000/svg" width="64" height="64" viewBox="0 0 64 64">
  <g fill="none" fill-rule="evenodd">
    <rect width="6" height="11" x="29" y="45" fill="#979797"/>
    <rect width="14" height="1" x="25" y="57" stroke="#979797" stroke-width="2"/>
    <path fill="#595959" d="M2,10.995507 C2,9.34113416 3.33730974,8 4.99593743,8 L59.0040626,8 C60.6586731,8 62,9.34246828 62,10.995507 L62,44.004493 C62,45.6588658 60.6626903,47 59.0040626,47 L4.99593743,47 C3.34132688,47 2,45.6575317 2,44.004493 L2,10.995507 Z"/>
    <rect width="54" height="33" x="5" y="11" fill="#ED9111"/>
    <path stroke="#5B68C0" stroke-linecap="square" stroke-width="2" d="M9 35L27.0277564 35M31 35L55.0277564 35M9 31L55 31M9 39L36 39"/>
    <path fill="#5B68C0" d="M17.563,23.992 C17.5443332,24.3280017 17.4276677,24.6103322 17.213,24.839 C16.9983323,25.0676678 16.7323349,25.1726668 16.415,25.154 C15.6216627,25.1073331 15.0803348,24.7200036 14.791,23.992 C14.7443331,23.8799994 14.7163334,23.6980013 14.707,23.446 C14.6883332,23.2219989 14.641667,23.0400007 14.567,22.9 C14.2216649,22.3679973 13.9043348,21.8546691 13.615,21.36 C12.9056631,20.1653274 12.3830017,19.1666707 12.047,18.364 C12.0096665,19.3160048 12.0843324,21.1079868 12.271,23.74 C12.271,23.7960003 12.3176662,23.921999 12.411,24.118 C12.5043338,24.314001 12.551,24.4773327 12.551,24.608 C12.551,24.7760008 12.4950006,24.9299993 12.383,25.07 C12.2243325,25.2753344 11.9863349,25.378 11.669,25.378 C11.3329983,25.378 11.0040016,25.273001 10.682,25.063 C10.3599984,24.852999 10.1803335,24.6080014 10.143,24.328 C10.1149999,24.1039989 10.1756659,23.9313339 10.325,23.81 C10.4743341,23.6886661 10.5443334,23.5813338 10.535,23.488 L10.115,14.92 C10.115,14.8733331 10.1056668,14.8033338 10.087,14.71 C10.0683332,14.6166662 10.059,14.5466669 10.059,14.5 C10.059,14.3599993 10.1313326,14.2480004 10.276,14.164 C10.4206674,14.0799996 10.6236654,14.038 10.885,14.038 C11.5850035,14.038 12.0843318,14.2199982 12.383,14.584 C12.4670004,14.6773338 12.509,14.7893327 12.509,14.92 C12.509,14.9760003 12.4996668,15.0506662 12.481,15.144 C12.4623332,15.2373338 12.453,15.3026665 12.453,15.34 C12.453,15.3680001 12.4576666,15.3959999 12.467,15.424 C12.6536676,16.3760048 13.6336578,18.3733181 15.407,21.416 L15.239,14.584 C15.239,14.4999996 15.2063337,14.4066672 15.141,14.304 C15.0756663,14.2013328 15.043,14.1220003 15.043,14.066 C15.043,13.9446661 15.1363324,13.7906676 15.323,13.604 C15.4256672,13.4919994 15.5843323,13.436 15.799,13.436 C16.1443351,13.436 16.4989982,13.5573321 16.863,13.8 C17.2270018,14.0426679 17.4136666,14.3039986 17.423,14.584 C17.4323334,14.7613342 17.3600008,14.9013328 17.206,15.004 C17.0519992,15.1066672 16.975,15.2093328 16.975,15.312 L17.171,22.984 C17.171,23.1146673 17.238666,23.2803323 17.374,23.481 C17.509334,23.6816677 17.5723334,23.8519993 17.563,23.992 Z M23.303,23.53 C23.228333,23.8846684 22.9763355,24.2626647 22.547,24.664 C22.4816663,24.7666672 22.2250022,24.9019992 21.777,25.07 C21.2636641,25.266001 20.8203352,25.3500001 20.447,25.322 C19.7469965,25.2753331 19.1963353,24.8740038 18.795,24.118 C18.4309982,23.4179965 18.249,22.5593384 18.249,21.542 C18.249,20.4406612 18.4543313,19.4746708 18.865,18.644 C19.3223356,17.7293288 19.9336628,17.2160006 20.699,17.104 C20.8483341,17.0853332 20.9929993,17.076 21.133,17.076 C22.2436722,17.076 22.8549994,17.7573265 22.967,19.12 C23.0230003,19.7453365 22.7756694,20.426663 22.225,21.164 C21.6276637,21.9760041 20.862338,22.5453317 19.929,22.872 C20.0316672,23.2453352 20.1109997,23.4879994 20.167,23.6 C20.2976673,23.8333345 20.4749989,23.95 20.699,23.95 C20.9136677,23.95 21.1423321,23.8660008 21.385,23.698 C21.5903344,23.5579993 21.730333,23.4226673 21.805,23.292 C21.8423335,23.2733332 21.8796665,23.1683343 21.917,22.977 C21.9543335,22.7856657 22.0523325,22.6480004 22.211,22.564 C22.2670003,22.5359999 22.332333,22.522 22.407,22.522 C22.6310011,22.522 22.847999,22.6316656 23.058,22.851 C23.268001,23.0703344 23.3496669,23.2966655 23.303,23.53 Z M21.105,18.602 C20.7316648,18.602 20.4283345,18.8679973 20.195,19.4 C19.8869985,20.1093369 19.7609997,20.8093299 19.817,21.5 C20.2556689,21.3599993 20.6616648,21.0333359 21.035,20.52 C21.4083352,20.0066641 21.595,19.5493353 21.595,19.148 C21.595,18.7839982 21.4316683,18.602 21.105,18.602 Z M34.433,17.356 C34.4610001,17.430667 34.475,17.5006663 34.475,17.566 C34.475,17.7153341 34.3910008,17.8973323 34.223,18.112 C34.0176656,18.3640013 33.8916669,18.5599993 33.845,18.7 L32.305,23.348 C32.2583331,23.4973341 32.235,23.6746656 32.235,23.88 L32.235,24.188 C32.2443334,24.3186673 32.249,24.4166663 32.249,24.482 C32.249,24.8273351 32.1323345,25.0839992 31.899,25.252 C31.6656655,25.4200008 31.3996682,25.504 31.101,25.504 C30.6529978,25.504 30.2796682,25.3360017 29.981,25 C29.8316659,24.8319992 29.757,24.6406677 29.757,24.426 C29.757,24.1086651 29.7476668,23.9080004 29.729,23.824 L28.889,20.716 L28.077,23.516 C28.0489999,23.6186672 28.0256668,23.8146652 28.007,24.104 C27.9883332,24.3373345 27.9370004,24.5239993 27.853,24.664 C27.4983316,25.2426696 27.0643359,25.532 26.551,25.532 C26.3736658,25.532 26.2103341,25.4806672 26.061,25.378 C25.8743324,25.2566661 25.7623335,25.0700013 25.725,24.818 C25.6876665,24.5659987 25.6503335,24.3186679 25.613,24.076 L24.381,19.288 C24.3529999,19.1666661 24.2690007,18.9426683 24.129,18.616 C24.0169994,18.3639987 23.961,18.1493342 23.961,17.972 C23.961,17.8506661 23.9843331,17.7293339 24.031,17.608 C24.1150004,17.3466654 24.4509971,17.216 25.039,17.216 C25.3656683,17.216 25.5849994,17.2626662 25.697,17.356 C25.8370007,17.4773339 25.9116666,17.673332 25.921,17.944 C25.9303334,18.3546687 25.9396666,18.5786665 25.949,18.616 L26.789,21.976 L27.965,18.532 C27.9836668,18.4666663 27.993,18.4013337 27.993,18.336 C27.993,18.2799997 27.9813334,18.1983339 27.958,18.091 C27.9346665,17.9836661 27.923,17.9020003 27.923,17.846 C27.923,17.6406656 28.0349989,17.4820006 28.259,17.37 C28.4456676,17.2673328 28.6509989,17.216 28.875,17.216 C29.1830015,17.216 29.4396656,17.2906659 29.645,17.44 C29.9063346,17.6266676 30.0509999,17.8669985 30.079,18.161 C30.1070001,18.4550015 30.1303332,18.7466652 30.149,19.036 L30.989,22.396 L32.333,18.364 C32.3516668,18.3079997 32.361,18.2473337 32.361,18.182 C32.361,18.107333 32.3470001,18.0070006 32.319,17.881 C32.2909999,17.7549994 32.277,17.6593337 32.277,17.594 C32.277,17.5099996 32.2956665,17.430667 32.333,17.356 C32.4730007,17.1039987 32.8416637,16.978 33.439,16.978 C33.9990028,16.978 34.3303328,17.1039987 34.433,17.356 Z M39.333,23.124 C39.333,23.7773366 39.099669,24.3349977 38.633,24.797 C38.166331,25.2590023 37.6156698,25.49 36.981,25.49 C36.5796647,25.49 36.1643355,25.2986686 35.735,24.916 C35.3989983,24.6079985 35.095668,24.2300022 34.825,23.782 C34.5916655,23.389998 34.4889999,23.1426672 34.517,23.04 C34.6196672,22.8066655 34.941664,22.69 35.483,22.69 C35.7070011,22.69 35.8843327,22.7226663 36.015,22.788 C36.2390011,22.9093339 36.3649999,23.0633324 36.393,23.25 C36.4210001,23.4646677 36.4676663,23.5999997 36.533,23.656 C36.729001,23.9546682 36.9063325,24.104 37.065,24.104 C37.1863339,24.104 37.3006661,24.0223342 37.408,23.859 C37.5153339,23.6956659 37.569,23.5020011 37.569,23.278 C37.569,23.1379993 37.5456669,22.9980007 37.499,22.858 C37.4523331,22.7179993 37.2003356,22.5033348 36.743,22.214 C36.1923306,21.8686649 35.8003345,21.5653346 35.567,21.304 C35.1656647,20.8559978 34.965,20.3333363 34.965,19.736 C34.965,19.0359965 35.1703313,18.422336 35.581,17.895 C35.9916687,17.367664 36.5143302,17.104 37.149,17.104 C37.8023366,17.104 38.3016649,17.3513309 38.647,17.846 C38.9270014,18.2473353 39.0436669,18.6533313 38.997,19.064 C39.0996672,19.1760006 39.151,19.3626654 39.151,19.624 C39.151,19.9040014 39.0483344,20.141999 38.843,20.338 C38.6376656,20.534001 38.4276677,20.632 38.213,20.632 C37.8956651,20.632 37.6203345,20.4220021 37.387,20.002 C37.3216663,19.8899994 37.289,19.7406676 37.289,19.554 C37.289,19.4699996 37.2959999,19.3510008 37.31,19.197 C37.3240001,19.0429992 37.331,18.9333337 37.331,18.868 C37.331,18.6253321 37.2423342,18.504 37.065,18.504 C36.794332,18.504 36.659,18.7699973 36.659,19.302 C36.659,19.843336 36.8363316,20.2773317 37.191,20.604 C37.3310007,20.7346673 37.634331,20.9213321 38.101,21.164 C38.5023353,21.3693344 38.7869992,21.5793323 38.955,21.794 C39.2070013,22.1206683 39.333,22.5639972 39.333,23.124 Z"/>
  </g>
</svg>
