<svg xmlns="http://www.w3.org/2000/svg" width="64" height="64" viewBox="0 0 64 64">
  <g fill="none" fill-rule="evenodd">
    <path fill="#ED9111" d="M2,9.99480279 C2,7.78853413 3.79568082,6 6.0065556,6 L59.0040626,6 C60.6586731,6 62,7.33870834 62,8.99652399 L62,43 L2,43 L2,9.99480279 Z"/>
    <path stroke="#5B68C0" stroke-linecap="square" stroke-width="2" d="M7 27L31 27M35 27L58 27M7 31L58 31"/>
    <circle cx="22" cy="39" r="2" fill="#E43535"/>
    <circle cx="27" cy="39" r="2" fill="#5EA7FF"/>
    <circle cx="32" cy="39" r="2" fill="#FFDD95"/>
    <circle cx="37" cy="39" r="2" fill="#80D25B"/>
    <circle cx="42" cy="39" r="2" fill="#B4DFFB"/>
    <path fill="#595959" d="M2,43 L62,43 L62,47.9983345 C62,49.6561086 60.6626903,51 59.0040626,51 L4.99593743,51 C3.34132688,51 2,49.6609799 2,47.9983345 L2,43 Z"/>
    <circle cx="32" cy="47" r="2" fill="#979797"/>
    <path fill="#979797" d="M25.6128012,51 L37.6128012,51 L39.178831,58.047134 C39.4185061,59.1256721 38.7182875,60 37.6187409,60 L25.6068615,60 C24.5055724,60 23.8082111,59.1206553 24.0467714,58.047134 L25.6128012,51 Z"/>
    <path fill="#5B68C0" d="M14.563,19.992 C14.5443332,20.3280017 14.4276677,20.6103322 14.213,20.839 C13.9983323,21.0676678 13.7323349,21.1726668 13.415,21.154 C12.6216627,21.1073331 12.0803348,20.7200036 11.791,19.992 C11.7443331,19.8799994 11.7163334,19.6980013 11.707,19.446 C11.6883332,19.2219989 11.641667,19.0400007 11.567,18.9 C11.2216649,18.3679973 10.9043348,17.8546691 10.615,17.36 C9.90566312,16.1653274 9.38300168,15.1666707 9.047,14.364 C9.00966648,15.3160048 9.0843324,17.1079868 9.271,19.74 C9.271,19.7960003 9.3176662,19.921999 9.411,20.118 C9.5043338,20.314001 9.551,20.4773327 9.551,20.608 C9.551,20.7760008 9.49500056,20.9299993 9.383,21.07 C9.22433254,21.2753344 8.98633492,21.378 8.669,21.378 C8.33299832,21.378 8.00400161,21.273001 7.682,21.063 C7.35999839,20.852999 7.18033352,20.6080014 7.143,20.328 C7.11499986,20.1039989 7.17566592,19.9313339 7.325,19.81 C7.47433408,19.6886661 7.54433338,19.5813338 7.535,19.488 L7.115,10.92 C7.115,10.8733331 7.10566676,10.8033338 7.087,10.71 C7.06833324,10.6166662 7.059,10.5466669 7.059,10.5 C7.059,10.3599993 7.13133261,10.2480004 7.276,10.164 C7.42066739,10.0799996 7.62366536,10.038 7.885,10.038 C8.5850035,10.038 9.08433184,10.2199982 9.383,10.584 C9.46700042,10.6773338 9.509,10.7893327 9.509,10.92 C9.509,10.9760003 9.49966676,11.0506662 9.481,11.144 C9.46233324,11.2373338 9.453,11.3026665 9.453,11.34 C9.453,11.3680001 9.45766662,11.3959999 9.467,11.424 C9.6536676,12.3760048 10.6336578,14.3733181 12.407,17.416 L12.239,10.584 C12.239,10.4999996 12.2063337,10.4066672 12.141,10.304 C12.0756663,10.2013328 12.043,10.1220003 12.043,10.066 C12.043,9.94466606 12.1363324,9.7906676 12.323,9.604 C12.4256672,9.49199944 12.5843323,9.436 12.799,9.436 C13.1443351,9.436 13.4989982,9.55733212 13.863,9.8 C14.2270018,10.0426679 14.4136666,10.3039986 14.423,10.584 C14.4323334,10.7613342 14.3600008,10.9013328 14.206,11.004 C14.0519992,11.1066672 13.975,11.2093328 13.975,11.312 L14.171,18.984 C14.171,19.1146673 14.238666,19.2803323 14.374,19.481 C14.509334,19.6816677 14.5723334,19.8519993 14.563,19.992 Z M20.303,19.53 C20.228333,19.8846684 19.9763355,20.2626647 19.547,20.664 C19.4816663,20.7666672 19.2250022,20.9019992 18.777,21.07 C18.2636641,21.266001 17.8203352,21.3500001 17.447,21.322 C16.7469965,21.2753331 16.1963353,20.8740038 15.795,20.118 C15.4309982,19.4179965 15.249,18.5593384 15.249,17.542 C15.249,16.4406612 15.4543313,15.4746708 15.865,14.644 C16.3223356,13.7293288 16.9336628,13.2160006 17.699,13.104 C17.8483341,13.0853332 17.9929993,13.076 18.133,13.076 C19.2436722,13.076 19.8549994,13.7573265 19.967,15.12 C20.0230003,15.7453365 19.7756694,16.426663 19.225,17.164 C18.6276637,17.9760041 17.862338,18.5453317 16.929,18.872 C17.0316672,19.2453352 17.1109997,19.4879994 17.167,19.6 C17.2976673,19.8333345 17.4749989,19.95 17.699,19.95 C17.9136677,19.95 18.1423321,19.8660008 18.385,19.698 C18.5903344,19.5579993 18.730333,19.4226673 18.805,19.292 C18.8423335,19.2733332 18.8796665,19.1683343 18.917,18.977 C18.9543335,18.7856657 19.0523325,18.6480004 19.211,18.564 C19.2670003,18.5359999 19.332333,18.522 19.407,18.522 C19.6310011,18.522 19.847999,18.6316656 20.058,18.851 C20.268001,19.0703344 20.3496669,19.2966655 20.303,19.53 Z M18.105,14.602 C17.7316648,14.602 17.4283345,14.8679973 17.195,15.4 C16.8869985,16.1093369 16.7609997,16.8093299 16.817,17.5 C17.2556689,17.3599993 17.6616648,17.0333359 18.035,16.52 C18.4083352,16.0066641 18.595,15.5493353 18.595,15.148 C18.595,14.7839982 18.4316683,14.602 18.105,14.602 Z M31.433,13.356 C31.4610001,13.430667 31.475,13.5006663 31.475,13.566 C31.475,13.7153341 31.3910008,13.8973323 31.223,14.112 C31.0176656,14.3640013 30.8916669,14.5599993 30.845,14.7 L29.305,19.348 C29.2583331,19.4973341 29.235,19.6746656 29.235,19.88 L29.235,20.188 C29.2443334,20.3186673 29.249,20.4166663 29.249,20.482 C29.249,20.8273351 29.1323345,21.0839992 28.899,21.252 C28.6656655,21.4200008 28.3996682,21.504 28.101,21.504 C27.6529978,21.504 27.2796682,21.3360017 26.981,21 C26.8316659,20.8319992 26.757,20.6406677 26.757,20.426 C26.757,20.1086651 26.7476668,19.9080004 26.729,19.824 L25.889,16.716 L25.077,19.516 C25.0489999,19.6186672 25.0256668,19.8146652 25.007,20.104 C24.9883332,20.3373345 24.9370004,20.5239993 24.853,20.664 C24.4983316,21.2426696 24.0643359,21.532 23.551,21.532 C23.3736658,21.532 23.2103341,21.4806672 23.061,21.378 C22.8743324,21.2566661 22.7623335,21.0700013 22.725,20.818 C22.6876665,20.5659987 22.6503335,20.3186679 22.613,20.076 L21.381,15.288 C21.3529999,15.1666661 21.2690007,14.9426683 21.129,14.616 C21.0169994,14.3639987 20.961,14.1493342 20.961,13.972 C20.961,13.8506661 20.9843331,13.7293339 21.031,13.608 C21.1150004,13.3466654 21.4509971,13.216 22.039,13.216 C22.3656683,13.216 22.5849994,13.2626662 22.697,13.356 C22.8370007,13.4773339 22.9116666,13.673332 22.921,13.944 C22.9303334,14.3546687 22.9396666,14.5786665 22.949,14.616 L23.789,17.976 L24.965,14.532 C24.9836668,14.4666663 24.993,14.4013337 24.993,14.336 C24.993,14.2799997 24.9813334,14.1983339 24.958,14.091 C24.9346665,13.9836661 24.923,13.9020003 24.923,13.846 C24.923,13.6406656 25.0349989,13.4820006 25.259,13.37 C25.4456676,13.2673328 25.6509989,13.216 25.875,13.216 C26.1830015,13.216 26.4396656,13.2906659 26.645,13.44 C26.9063346,13.6266676 27.0509999,13.8669985 27.079,14.161 C27.1070001,14.4550015 27.1303332,14.7466652 27.149,15.036 L27.989,18.396 L29.333,14.364 C29.3516668,14.3079997 29.361,14.2473337 29.361,14.182 C29.361,14.107333 29.3470001,14.0070006 29.319,13.881 C29.2909999,13.7549994 29.277,13.6593337 29.277,13.594 C29.277,13.5099996 29.2956665,13.430667 29.333,13.356 C29.4730007,13.1039987 29.8416637,12.978 30.439,12.978 C30.9990028,12.978 31.3303328,13.1039987 31.433,13.356 Z M36.333,19.124 C36.333,19.7773366 36.099669,20.3349977 35.633,20.797 C35.166331,21.2590023 34.6156698,21.49 33.981,21.49 C33.5796647,21.49 33.1643355,21.2986686 32.735,20.916 C32.3989983,20.6079985 32.095668,20.2300022 31.825,19.782 C31.5916655,19.389998 31.4889999,19.1426672 31.517,19.04 C31.6196672,18.8066655 31.941664,18.69 32.483,18.69 C32.7070011,18.69 32.8843327,18.7226663 33.015,18.788 C33.2390011,18.9093339 33.3649999,19.0633324 33.393,19.25 C33.4210001,19.4646677 33.4676663,19.5999997 33.533,19.656 C33.729001,19.9546682 33.9063325,20.104 34.065,20.104 C34.1863339,20.104 34.3006661,20.0223342 34.408,19.859 C34.5153339,19.6956659 34.569,19.5020011 34.569,19.278 C34.569,19.1379993 34.5456669,18.9980007 34.499,18.858 C34.4523331,18.7179993 34.2003356,18.5033348 33.743,18.214 C33.1923306,17.8686649 32.8003345,17.5653346 32.567,17.304 C32.1656647,16.8559978 31.965,16.3333363 31.965,15.736 C31.965,15.0359965 32.1703313,14.422336 32.581,13.895 C32.9916687,13.367664 33.5143302,13.104 34.149,13.104 C34.8023366,13.104 35.3016649,13.3513309 35.647,13.846 C35.9270014,14.2473353 36.0436669,14.6533313 35.997,15.064 C36.0996672,15.1760006 36.151,15.3626654 36.151,15.624 C36.151,15.9040014 36.0483344,16.141999 35.843,16.338 C35.6376656,16.534001 35.4276677,16.632 35.213,16.632 C34.8956651,16.632 34.6203345,16.4220021 34.387,16.002 C34.3216663,15.8899994 34.289,15.7406676 34.289,15.554 C34.289,15.4699996 34.2959999,15.3510008 34.31,15.197 C34.3240001,15.0429992 34.331,14.9333337 34.331,14.868 C34.331,14.6253321 34.2423342,14.504 34.065,14.504 C33.794332,14.504 33.659,14.7699973 33.659,15.302 C33.659,15.843336 33.8363316,16.2773317 34.191,16.604 C34.3310007,16.7346673 34.634331,16.9213321 35.101,17.164 C35.5023353,17.3693344 35.7869992,17.5793323 35.955,17.794 C36.2070013,18.1206683 36.333,18.5639972 36.333,19.124 Z"/>
  </g>
</svg>
