<svg xmlns="http://www.w3.org/2000/svg" width="64" height="64" viewBox="0 0 64 64">
  <g fill="none" fill-rule="evenodd">
    <path fill="#5B68C0" d="M9,47.9138849 C9,45.7041591 10.7750001,43.6994337 12.9692715,43.4356406 L32.875,41.0425936 L52.7807285,43.4356406 C54.9728966,43.6991808 56.75,45.6992053 56.75,47.9138849 L56.75,61.0506996 C56.75,62.703077 55.4323684,63.8218386 53.7985106,63.5481032 L32.875,60.0425936 L11.9514894,63.5481032 C10.3214268,63.8212027 9,62.6905655 9,61.0506996 L9,47.9138849 Z"/>
    <path fill="#FFDD95" d="M24.9659091,38.0820517 C20.997906,34.3171352 18.375,28.2233999 18.375,23.1331692 C18.375,15.1250403 24.8668711,8.63316921 32.875,8.63316921 C40.8831289,8.63316921 47.375,15.1250403 47.375,23.1331692 C47.375,28.2233999 44.752094,34.3171352 40.7840909,38.0820517 L40.7840909,46.9058965 C40.7840909,46.9058965 35.4224889,48.8154815 32.875,48.8154815 C30.3275111,48.8154815 24.9659091,46.9058965 24.9659091,46.9058965 L24.9659091,38.0820517 Z"/>
    <rect width="4" height="15" x="31" y="46" fill="#595959"/>
    <rect width="4" height="3" x="31" y="61" fill="#22BA8E"/>
    <circle cx="33" cy="43" r="5" fill="#595959"/>
    <rect width="10" height="6" x="28" y="47" fill="#E43535"/>
    <circle cx="18.875" cy="26" r="3" fill="#FFDD95"/>
    <circle cx="46.875" cy="26" r="3" fill="#FFDD95"/>
    <path fill="#FFAF40" d="M18.875,11.5 C18.875,8.46243388 21.3328519,6 24.3759961,6 L50.875,6 L50.875,11.5 C50.875,14.5375661 48.4171481,17 45.3740039,17 L18.875,17 L18.875,11.5 Z"/>
  </g>
</svg>
