<svg xmlns="http://www.w3.org/2000/svg" width="64" height="64" viewBox="0 0 64 64">
  <g fill="none" fill-rule="evenodd">
    <rect width="60" height="37" x="2" y="17" fill="#D8D8D8"/>
    <path stroke="#979797" stroke-linecap="square" stroke-width="2" d="M7 22L50.0464865 22M7 45L18.045361 45M7 35L25.0277564 35M7 40L31 40"/>
    <rect width="22" height="23" x="38" y="29" fill="#5B68C0"/>
    <path fill="#F5413E" d="M41,48.904899 C41,47.8011519 41.8935835,46.8111018 42.9928723,46.6938803 L49.5,46 L56.0071277,46.6938803 C57.1077607,46.8112451 58,47.7936275 58,48.904899 L58,52 L41,52 L41,48.904899 Z"/>
    <path stroke="#595959" stroke-linecap="round" stroke-width="2" d="M32.0057509,12.1783366 L32.0057509,3.65910774"/>
    <path fill="#FFDD95" d="M46.5,42.9938107 C44.9948954,41.5917827 44,39.3212872 44,37.4189593 C44,34.4261507 46.4624339,32 49.5,32 C52.5375661,32 55,34.4261507 55,37.4189593 C55,39.3212872 54.0051046,41.5917827 52.5,42.9938107 L52.5,46.2863473 C52.5,46.2863473 50.4662889,47 49.5,47 C48.5337111,47 46.5,46.2863473 46.5,46.2863473 L46.5,42.9938107 Z"/>
    <polygon fill="#9C4D4D" points="26 12 38 12 38 23 35 21 32 23 29 21 26 23"/>
  </g>
</svg>
