<svg xmlns="http://www.w3.org/2000/svg" width="64" height="64" viewBox="0 0 64 64">
  <g fill="none" fill-rule="evenodd">
    <path fill="#ECECEC" d="M8,5.99593743 C8,4.34132688 9.34984627,3 11.0036812,3 L46.9963188,3 C48.6552061,3 50,4.3371457 50,6.00423906 L50,43.1885718 L55,43.1885718 L55,63 L10.9936145,63 C9.34028685,63 8,61.6626903 8,60.0040626 L8,5.99593743 Z"/>
    <path stroke="#979797" stroke-linecap="square" stroke-width="2" d="M13 8L44.0644491 8M20 12L38 12M14 28L27 28M14 32L27 32M14 36L27 36M14 40L27 40"/>
    <rect width="14" height="14" x="30" y="27" fill="#D8D8D8"/>
    <path fill="#E43535" d="M38,33 L38,29 L36,29 L36,33 L32,33 L32,35 L36,35 L36,39 L38,39 L38,35 L42,35 L42,33 L38,33 Z"/>
    <path fill="#D8D8D8" d="M50,43 L59,43 L59,58.4991463 C59,60.9848992 56.9802243,63 54.5,63 L54.5,63 C52.0147186,63 50,60.9907522 50,58.4991463 L50,43 Z"/>
    <path stroke="#979797" stroke-linecap="square" stroke-width="2" d="M14 48L43.0172363 48M14 52L43.0172363 52"/>
  </g>
</svg>
