<svg xmlns="http://www.w3.org/2000/svg" width="64" height="64" viewBox="0 0 64 64">
  <g fill="none" fill-rule="evenodd">
    <path fill="#ECECEC" d="M9,4.99593743 C9,3.34132688 10.3498463,2 12.0036812,2 L47.9963188,2 C49.6552061,2 51,3.3371457 51,5.00423906 L51,42.1885718 L56,42.1885718 L56,62 L11.9936145,62 C10.3402869,62 9,60.6626903 9,59.0040626 L9,4.99593743 Z"/>
    <polygon fill="#FFAF40" points="13 17 36 17 36 30 13 30"/>
    <path stroke="#979797" stroke-linecap="square" stroke-width="2" d="M14 9L39.019992 9M14 34L39.019992 34M14 46L39.019992 46M14 13L29 13M14 38L45 38M14 42L35 42M14 50L35 50"/>
    <path fill="#D8D8D8" d="M51,42 L60,42 L60,57.4991463 C60,59.9848992 57.9802243,62 55.5,62 L55.5,62 C53.0147186,62 51,59.9907522 51,57.4991463 L51,42 Z"/>
    <path fill="#E43535" d="M21.6229508,18 C19.6220503,18 18,18.9760742 18,21.598501 C18,24.2209279 24.5,29 24.5,29 C24.5,29 31,24.2209279 31,21.598501 C31,18.9760742 29.3779497,18 27.3770492,18 C26.2045674,18 25.162171,18.5532033 24.5,19.4111581 C23.837829,18.5532033 22.7954326,18 21.6229508,18 Z"/>
  </g>
</svg>
