<svg xmlns="http://www.w3.org/2000/svg" width="64" height="64" viewBox="0 0 64 64">
  <g fill="none" fill-rule="evenodd">
    <rect width="60" height="42" x="3" y="12" fill="#595959" rx="2" transform="rotate(90 33 33)"/>
    <circle cx="32" cy="59" r="2" fill="#979797" transform="rotate(90 32 59)"/>
    <rect width="49" height="38" x="8.5" y="11.5" fill="#ED9111" rx="1" transform="rotate(90 33 30.5)"/>
    <path stroke="#5B68C0" stroke-linecap="square" stroke-width="2" d="M19 28L47 28M19 36L47 36M19 32L37.0277564 32M41 32L47 32M19 40L30 40"/>
    <path fill="#5B68C0" d="M26.563,20.992 C26.5443332,21.3280017 26.4276677,21.6103322 26.213,21.839 C25.9983323,22.0676678 25.7323349,22.1726668 25.415,22.154 C24.6216627,22.1073331 24.0803348,21.7200036 23.791,20.992 C23.7443331,20.8799994 23.7163334,20.6980013 23.707,20.446 C23.6883332,20.2219989 23.641667,20.0400007 23.567,19.9 C23.2216649,19.3679973 22.9043348,18.8546691 22.615,18.36 C21.9056631,17.1653274 21.3830017,16.1666707 21.047,15.364 C21.0096665,16.3160048 21.0843324,18.1079868 21.271,20.74 C21.271,20.7960003 21.3176662,20.921999 21.411,21.118 C21.5043338,21.314001 21.551,21.4773327 21.551,21.608 C21.551,21.7760008 21.4950006,21.9299993 21.383,22.07 C21.2243325,22.2753344 20.9863349,22.378 20.669,22.378 C20.3329983,22.378 20.0040016,22.273001 19.682,22.063 C19.3599984,21.852999 19.1803335,21.6080014 19.143,21.328 C19.1149999,21.1039989 19.1756659,20.9313339 19.325,20.81 C19.4743341,20.6886661 19.5443334,20.5813338 19.535,20.488 L19.115,11.92 C19.115,11.8733331 19.1056668,11.8033338 19.087,11.71 C19.0683332,11.6166662 19.059,11.5466669 19.059,11.5 C19.059,11.3599993 19.1313326,11.2480004 19.276,11.164 C19.4206674,11.0799996 19.6236654,11.038 19.885,11.038 C20.5850035,11.038 21.0843318,11.2199982 21.383,11.584 C21.4670004,11.6773338 21.509,11.7893327 21.509,11.92 C21.509,11.9760003 21.4996668,12.0506662 21.481,12.144 C21.4623332,12.2373338 21.453,12.3026665 21.453,12.34 C21.453,12.3680001 21.4576666,12.3959999 21.467,12.424 C21.6536676,13.3760048 22.6336578,15.3733181 24.407,18.416 L24.239,11.584 C24.239,11.4999996 24.2063337,11.4066672 24.141,11.304 C24.0756663,11.2013328 24.043,11.1220003 24.043,11.066 C24.043,10.9446661 24.1363324,10.7906676 24.323,10.604 C24.4256672,10.4919994 24.5843323,10.436 24.799,10.436 C25.1443351,10.436 25.4989982,10.5573321 25.863,10.8 C26.2270018,11.0426679 26.4136666,11.3039986 26.423,11.584 C26.4323334,11.7613342 26.3600008,11.9013328 26.206,12.004 C26.0519992,12.1066672 25.975,12.2093328 25.975,12.312 L26.171,19.984 C26.171,20.1146673 26.238666,20.2803323 26.374,20.481 C26.509334,20.6816677 26.5723334,20.8519993 26.563,20.992 Z M32.303,20.53 C32.228333,20.8846684 31.9763355,21.2626647 31.547,21.664 C31.4816663,21.7666672 31.2250022,21.9019992 30.777,22.07 C30.2636641,22.266001 29.8203352,22.3500001 29.447,22.322 C28.7469965,22.2753331 28.1963353,21.8740038 27.795,21.118 C27.4309982,20.4179965 27.249,19.5593384 27.249,18.542 C27.249,17.4406612 27.4543313,16.4746708 27.865,15.644 C28.3223356,14.7293288 28.9336628,14.2160006 29.699,14.104 C29.8483341,14.0853332 29.9929993,14.076 30.133,14.076 C31.2436722,14.076 31.8549994,14.7573265 31.967,16.12 C32.0230003,16.7453365 31.7756694,17.426663 31.225,18.164 C30.6276637,18.9760041 29.862338,19.5453317 28.929,19.872 C29.0316672,20.2453352 29.1109997,20.4879994 29.167,20.6 C29.2976673,20.8333345 29.4749989,20.95 29.699,20.95 C29.9136677,20.95 30.1423321,20.8660008 30.385,20.698 C30.5903344,20.5579993 30.730333,20.4226673 30.805,20.292 C30.8423335,20.2733332 30.8796665,20.1683343 30.917,19.977 C30.9543335,19.7856657 31.0523325,19.6480004 31.211,19.564 C31.2670003,19.5359999 31.332333,19.522 31.407,19.522 C31.6310011,19.522 31.8479989,19.6316656 32.058,19.851 C32.2680011,20.0703344 32.3496669,20.2966655 32.303,20.53 Z M30.105,15.602 C29.7316648,15.602 29.4283345,15.8679973 29.195,16.4 C28.8869985,17.1093369 28.7609997,17.8093299 28.817,18.5 C29.2556689,18.3599993 29.6616648,18.0333359 30.035,17.52 C30.4083352,17.0066641 30.595,16.5493353 30.595,16.148 C30.595,15.7839982 30.4316683,15.602 30.105,15.602 Z M43.433,14.356 C43.4610001,14.430667 43.475,14.5006663 43.475,14.566 C43.475,14.7153341 43.3910008,14.8973323 43.223,15.112 C43.0176656,15.3640013 42.8916669,15.5599993 42.845,15.7 L41.305,20.348 C41.2583331,20.4973341 41.235,20.6746656 41.235,20.88 L41.235,21.188 C41.2443334,21.3186673 41.249,21.4166663 41.249,21.482 C41.249,21.8273351 41.1323345,22.0839992 40.899,22.252 C40.6656655,22.4200008 40.3996682,22.504 40.101,22.504 C39.6529978,22.504 39.2796682,22.3360017 38.981,22 C38.8316659,21.8319992 38.757,21.6406677 38.757,21.426 C38.757,21.1086651 38.7476668,20.9080004 38.729,20.824 L37.889,17.716 L37.077,20.516 C37.0489999,20.6186672 37.0256668,20.8146652 37.007,21.104 C36.9883332,21.3373345 36.9370004,21.5239993 36.853,21.664 C36.4983316,22.2426696 36.0643359,22.532 35.551,22.532 C35.3736658,22.532 35.2103341,22.4806672 35.061,22.378 C34.8743324,22.2566661 34.7623335,22.0700013 34.725,21.818 C34.6876665,21.5659987 34.6503335,21.3186679 34.613,21.076 L33.381,16.288 C33.3529999,16.1666661 33.2690007,15.9426683 33.129,15.616 C33.0169994,15.3639987 32.961,15.1493342 32.961,14.972 C32.961,14.8506661 32.9843331,14.7293339 33.031,14.608 C33.1150004,14.3466654 33.4509971,14.216 34.039,14.216 C34.3656683,14.216 34.5849994,14.2626662 34.697,14.356 C34.8370007,14.4773339 34.9116666,14.673332 34.921,14.944 C34.9303334,15.3546687 34.9396666,15.5786665 34.949,15.616 L35.789,18.976 L36.965,15.532 C36.9836668,15.4666663 36.993,15.4013337 36.993,15.336 C36.993,15.2799997 36.9813335,15.1983339 36.958,15.091 C36.9346665,14.9836661 36.923,14.9020003 36.923,14.846 C36.923,14.6406656 37.0349989,14.4820006 37.259,14.37 C37.4456676,14.2673328 37.6509989,14.216 37.875,14.216 C38.1830015,14.216 38.4396656,14.2906659 38.645,14.44 C38.9063346,14.6266676 39.0509999,14.8669985 39.079,15.161 C39.1070001,15.4550015 39.1303332,15.7466652 39.149,16.036 L39.989,19.396 L41.333,15.364 C41.3516668,15.3079997 41.361,15.2473337 41.361,15.182 C41.361,15.107333 41.3470001,15.0070006 41.319,14.881 C41.2909999,14.7549994 41.277,14.6593337 41.277,14.594 C41.277,14.5099996 41.2956665,14.430667 41.333,14.356 C41.4730007,14.1039987 41.8416637,13.978 42.439,13.978 C42.9990028,13.978 43.3303328,14.1039987 43.433,14.356 Z M48.333,20.124 C48.333,20.7773366 48.099669,21.3349977 47.633,21.797 C47.166331,22.2590023 46.6156698,22.49 45.981,22.49 C45.5796647,22.49 45.1643355,22.2986686 44.735,21.916 C44.3989983,21.6079985 44.095668,21.2300022 43.825,20.782 C43.5916655,20.389998 43.4889999,20.1426672 43.517,20.04 C43.6196672,19.8066655 43.941664,19.69 44.483,19.69 C44.7070011,19.69 44.8843327,19.7226663 45.015,19.788 C45.2390011,19.9093339 45.3649999,20.0633324 45.393,20.25 C45.4210001,20.4646677 45.4676663,20.5999997 45.533,20.656 C45.729001,20.9546682 45.9063325,21.104 46.065,21.104 C46.1863339,21.104 46.3006661,21.0223342 46.408,20.859 C46.5153339,20.6956659 46.569,20.5020011 46.569,20.278 C46.569,20.1379993 46.5456669,19.9980007 46.499,19.858 C46.4523331,19.7179993 46.2003356,19.5033348 45.743,19.214 C45.1923306,18.8686649 44.8003345,18.5653346 44.567,18.304 C44.1656647,17.8559978 43.965,17.3333363 43.965,16.736 C43.965,16.0359965 44.1703313,15.422336 44.581,14.895 C44.9916687,14.367664 45.5143302,14.104 46.149,14.104 C46.8023366,14.104 47.3016649,14.3513309 47.647,14.846 C47.9270014,15.2473353 48.0436669,15.6533313 47.997,16.064 C48.0996672,16.1760006 48.151,16.3626654 48.151,16.624 C48.151,16.9040014 48.0483344,17.141999 47.843,17.338 C47.6376656,17.534001 47.4276677,17.632 47.213,17.632 C46.8956651,17.632 46.6203345,17.4220021 46.387,17.002 C46.3216663,16.8899994 46.289,16.7406676 46.289,16.554 C46.289,16.4699996 46.2959999,16.3510008 46.31,16.197 C46.3240001,16.0429992 46.331,15.9333337 46.331,15.868 C46.331,15.6253321 46.2423342,15.504 46.065,15.504 C45.794332,15.504 45.659,15.7699973 45.659,16.302 C45.659,16.843336 45.8363316,17.2773317 46.191,17.604 C46.3310007,17.7346673 46.634331,17.9213321 47.101,18.164 C47.5023353,18.3693344 47.7869992,18.5793323 47.955,18.794 C48.2070013,19.1206683 48.333,19.5639972 48.333,20.124 Z"/>
  </g>
</svg>
