<svg xmlns="http://www.w3.org/2000/svg" width="64" height="64" viewBox="0 0 64 64">
  <g fill="none" fill-rule="evenodd">
    <path fill="#ECECEC" d="M7,5.99593743 C7,4.34132688 8.34984627,3 10.0036812,3 L45.9963188,3 C47.6552061,3 49,4.3371457 49,6.00423906 L49,43.1885718 L54,43.1885718 L54,63 L9.99361448,63 C8.34028685,63 7,61.6626903 7,60.0040626 L7,5.99593743 Z"/>
    <path stroke="#979797" stroke-linecap="square" stroke-width="2" d="M14 46L42 46M14 51L42 51M14 56L42 56"/>
    <path fill="#D8D8D8" d="M49,43 L58,43 L58,58.4991463 C58,60.9848992 55.9802243,63 53.5,63 L53.5,63 C51.0147186,63 49,60.9907522 49,58.4991463 L49,43 Z"/>
    <circle cx="28" cy="26" r="14" fill="#B4DFFB" stroke="#0A3586" stroke-linecap="round" stroke-width="2"/>
    <path stroke="#0A3586" stroke-linecap="square" stroke-width="2" d="M41,26 L15,26"/>
    <path stroke="#0A3586" stroke-linecap="round" stroke-width="2" d="M28,40 C31.3137085,40 34.0385294,33.4558441 34.0385294,26 C34.0385294,18.5441559 31.3137085,12 28,12 C24.6862915,12 22.0385294,18.5441559 22.0385294,26 C22.0385294,33.4558441 24.6862915,40 28,40 Z"/>
  </g>
</svg>
