<svg xmlns="http://www.w3.org/2000/svg" width="64" height="64" viewBox="0 0 64 64">
  <g fill="none" fill-rule="evenodd">
    <polygon fill="#ECECEC" points="2 12 32 18 32 57 2 51"/>
    <polygon fill="#D8D8D8" points="32 12 62 18 62 57 32 51" transform="matrix(-1 0 0 1 94 0)"/>
    <path stroke="#979797" stroke-linecap="round" stroke-width="2" d="M5 17L26.2529845 21.8880457M5 23L26.2529845 27.8880457M5 29L26.2529845 33.8880457M5 35L26.2529845 39.8880457M18.4881051 44.1021749L26.2529845 45.8880457M18.4556816 50.0947177L26.2529845 51.8880457"/>
    <path fill="#979797" d="M4,40.999615 C4,39.8952581 4.88158174,39.1602876 5.96657956,39.3575599 L13.0334204,40.6424401 C14.1195323,40.839915 15,41.8874333 15,42.999615 L15,49.000385 C15,50.1047419 14.1184183,50.8397124 13.0334204,50.6424401 L5.96657956,49.3575599 C4.88046766,49.160085 4,48.1125667 4,47.000385 L4,40.999615 Z"/>
    <path stroke="#979797" stroke-linecap="round" stroke-width="2" d="M37,29 L58.2529845,33.8880457" transform="matrix(-1 0 0 1 95.253 0)"/>
    <path stroke="#979797" stroke-linecap="round" stroke-width="2" d="M37,35 L58.2529845,39.8880457" transform="matrix(-1 0 0 1 95.253 0)"/>
    <path stroke="#979797" stroke-linecap="round" stroke-width="2" d="M37,41 L58.2529845,45.8880457" transform="matrix(-1 0 0 1 95.253 0)"/>
    <path stroke="#979797" stroke-linecap="round" stroke-width="2" d="M37,47 L58.2529845,51.8880457" transform="matrix(-1 0 0 1 95.253 0)"/>
    <path fill="#979797" d="M36,22.9981014 C36,21.8945804 36.8735418,20.8100996 37.9609671,20.5737028 L57.0390329,16.4262972 C58.1220451,16.1908598 59,16.8867064 59,17.9981014 L59,22.0018986 C59,23.1054196 58.1264582,24.1899004 57.0390329,24.4262972 L37.9609671,28.5737028 C36.8779549,28.8091402 36,28.1132936 36,27.0018986 L36,22.9981014 Z"/>
  </g>
</svg>
