<svg xmlns="http://www.w3.org/2000/svg" width="64" height="64" viewBox="0 0 64 64">
  <g fill="none" fill-rule="evenodd">
    <polygon fill="#595959" points="12 1 41.105 1 53 12.753 53 61 12 61"/>
    <path stroke="#979797" stroke-linecap="square" stroke-width="2" d="M16 27L32 27M16 47L32 47M16 31L49 31M16 43L49 43M37 27L49 27M16 35L28 35"/>
    <path fill="#979797" d="M22.054,20.136 C22.0379999,20.4240014 21.9380009,20.665999 21.754,20.862 C21.5699991,21.058001 21.3420014,21.1480001 21.07,21.132 C20.3899966,21.0919998 19.9260012,20.7600031 19.678,20.136 C19.6379998,20.0399995 19.614,19.8840011 19.606,19.668 C19.5899999,19.475999 19.5500003,19.3200006 19.486,19.2 C19.1899985,18.7439977 18.9180012,18.3040021 18.67,17.88 C18.061997,16.8559949 17.6140014,16.0000034 17.326,15.312 C17.2939998,16.1280041 17.3579992,17.6639887 17.518,19.92 C17.518,19.9680002 17.5579996,20.0759992 17.638,20.244 C17.7180004,20.4120008 17.758,20.5519994 17.758,20.664 C17.758,20.8080007 17.7100005,20.9399994 17.614,21.06 C17.4779993,21.2360009 17.2740014,21.324 17.002,21.324 C16.7139986,21.324 16.4320014,21.2340009 16.156,21.054 C15.8799986,20.8739991 15.7260002,20.6640012 15.694,20.424 C15.6699999,20.231999 15.7219994,20.0840005 15.85,19.98 C15.9780006,19.8759995 16.038,19.7840004 16.03,19.704 L15.67,12.36 C15.67,12.3199998 15.6620001,12.2600004 15.646,12.18 C15.6299999,12.0999996 15.622,12.0400002 15.622,12 C15.622,11.8799994 15.6839994,11.7840004 15.808,11.712 C15.9320006,11.6399996 16.1059989,11.604 16.33,11.604 C16.930003,11.604 17.3579987,11.7599984 17.614,12.072 C17.6860004,12.1520004 17.722,12.2479994 17.722,12.36 C17.722,12.4080002 17.7140001,12.4719996 17.698,12.552 C17.6819999,12.6320004 17.674,12.6879998 17.674,12.72 C17.674,12.7440001 17.678,12.7679999 17.686,12.792 C17.8460008,13.6080041 18.6859924,15.319987 20.206,17.928 L20.062,12.072 C20.062,11.9999996 20.0340003,11.9200004 19.978,11.832 C19.9219997,11.7439996 19.894,11.6760002 19.894,11.628 C19.894,11.5239995 19.9739992,11.3920008 20.134,11.232 C20.2220004,11.1359995 20.3579991,11.088 20.542,11.088 C20.8380015,11.088 21.1419984,11.191999 21.454,11.4 C21.7660016,11.608001 21.926,11.8319988 21.934,12.072 C21.942,12.2240008 21.8800007,12.3439996 21.748,12.432 C21.6159993,12.5200004 21.55,12.6079996 21.55,12.696 L21.718,19.272 C21.718,19.3840006 21.7759994,19.5259991 21.892,19.698 C22.0080006,19.8700009 22.062,20.0159994 22.054,20.136 Z M26.974,19.74 C26.9099997,20.0440015 26.6940018,20.3679983 26.326,20.712 C26.2699997,20.8000004 26.0500019,20.9159993 25.666,21.06 C25.2259978,21.2280008 24.8460016,21.3000001 24.526,21.276 C23.925997,21.2359998 23.4540017,20.8920032 23.11,20.244 C22.7979984,19.643997 22.642,18.9080044 22.642,18.036 C22.642,17.0919953 22.8179982,16.2640036 23.17,15.552 C23.562002,14.7679961 24.0859967,14.3280005 24.742,14.232 C24.8700006,14.2159999 24.9939994,14.208 25.114,14.208 C26.0660048,14.208 26.5899995,14.7919942 26.686,15.96 C26.7340002,16.4960027 26.5220024,17.0799968 26.05,17.712 C25.5379974,18.4080035 24.882004,18.8959986 24.082,19.176 C24.1700004,19.4960016 24.2379998,19.7039995 24.286,19.8 C24.3980006,20.000001 24.549999,20.1 24.742,20.1 C24.9260009,20.1 25.121999,20.0280007 25.33,19.884 C25.5060009,19.7639994 25.6259997,19.6480006 25.69,19.536 C25.7220002,19.5199999 25.7539998,19.4300008 25.786,19.266 C25.8180002,19.1019992 25.9019993,18.9840004 26.038,18.912 C26.0860002,18.8879999 26.1419997,18.876 26.206,18.876 C26.398001,18.876 26.5839991,18.9699991 26.764,19.158 C26.9440009,19.3460009 27.0140002,19.539999 26.974,19.74 Z M25.09,15.516 C24.7699984,15.516 24.510001,15.7439977 24.31,16.2 C24.0459987,16.808003 23.9379998,17.407997 23.986,18 C24.3620019,17.8799994 24.7099984,17.6000022 25.03,17.16 C25.3500016,16.7199978 25.51,16.3280017 25.51,15.984 C25.51,15.6719984 25.3700014,15.516 25.09,15.516 Z M36.514,14.448 C36.5380001,14.5120003 36.55,14.5719997 36.55,14.628 C36.55,14.7560006 36.4780007,14.9119991 36.334,15.096 C36.1579991,15.3120011 36.0500002,15.4799994 36.01,15.6 L34.69,19.584 C34.6499998,19.7120006 34.63,19.8639991 34.63,20.04 L34.63,20.304 C34.638,20.4160006 34.642,20.4999997 34.642,20.556 C34.642,20.8520015 34.542001,21.0719993 34.342,21.216 C34.141999,21.3600007 33.9140013,21.432 33.658,21.432 C33.2739981,21.432 32.9540013,21.2880014 32.698,21 C32.5699994,20.8559993 32.506,20.6920009 32.506,20.508 C32.506,20.2359986 32.4980001,20.0640004 32.482,19.992 L31.762,17.328 L31.066,19.728 C31.0419999,19.8160004 31.0220001,19.9839988 31.006,20.232 C30.9899999,20.432001 30.9460004,20.5919994 30.874,20.712 C30.5699985,21.2080025 30.1980022,21.456 29.758,21.456 C29.6059992,21.456 29.4660006,21.4120004 29.338,21.324 C29.1779992,21.2199995 29.0820002,21.0600011 29.05,20.844 C29.0179998,20.6279989 28.9860002,20.416001 28.954,20.208 L27.898,16.104 C27.8739999,15.9999995 27.8020006,15.8080014 27.682,15.528 C27.5859995,15.3119989 27.538,15.1280008 27.538,14.976 C27.538,14.8719995 27.5579998,14.7680005 27.598,14.664 C27.6700004,14.4399989 27.9579975,14.328 28.462,14.328 C28.7420014,14.328 28.9299995,14.3679996 29.026,14.448 C29.1460006,14.5520005 29.21,14.7199988 29.218,14.952 C29.226,15.3040018 29.234,15.4959998 29.242,15.528 L29.962,18.408 L30.97,15.456 C30.9860001,15.3999997 30.994,15.3440003 30.994,15.288 C30.994,15.2399998 30.9840001,15.1700005 30.964,15.078 C30.9439999,14.9859995 30.934,14.9160002 30.934,14.868 C30.934,14.6919991 31.029999,14.5560005 31.222,14.46 C31.3820008,14.3719996 31.557999,14.328 31.75,14.328 C32.0140013,14.328 32.2339991,14.3919994 32.41,14.52 C32.6340011,14.6800008 32.7579999,14.8859987 32.782,15.138 C32.8060001,15.3900013 32.8259999,15.6399988 32.842,15.888 L33.562,18.768 L34.714,15.312 C34.7300001,15.2639998 34.738,15.2120003 34.738,15.156 C34.738,15.0919997 34.7260001,15.0060005 34.702,14.898 C34.6779999,14.7899995 34.666,14.7080003 34.666,14.652 C34.666,14.5799996 34.6819998,14.5120003 34.714,14.448 C34.8340006,14.2319989 35.1499974,14.124 35.662,14.124 C36.1420024,14.124 36.4259996,14.2319989 36.514,14.448 Z M40.714,19.392 C40.714,19.9520028 40.514002,20.429998 40.114,20.826 C39.713998,21.222002 39.2420027,21.42 38.698,21.42 C38.3539983,21.42 37.9980018,21.2560016 37.63,20.928 C37.3419986,20.6639987 37.0820012,20.3400019 36.85,19.956 C36.649999,19.6199983 36.5619999,19.4080004 36.586,19.32 C36.6740004,19.119999 36.9499977,19.02 37.414,19.02 C37.606001,19.02 37.7579994,19.0479997 37.87,19.104 C38.062001,19.2080005 38.1699999,19.3399992 38.194,19.5 C38.2180001,19.6840009 38.2579997,19.7999998 38.314,19.848 C38.4820008,20.1040013 38.6339993,20.232 38.77,20.232 C38.8740005,20.232 38.9719995,20.1620007 39.064,20.022 C39.1560005,19.8819993 39.202,19.716001 39.202,19.524 C39.202,19.4039994 39.1820002,19.2840006 39.142,19.164 C39.1019998,19.0439994 38.886002,18.8600012 38.494,18.612 C38.0219976,18.3159985 37.686001,18.0560011 37.486,17.832 C37.1419983,17.4479981 36.97,17.0000026 36.97,16.488 C36.97,15.887997 37.1459982,15.3620023 37.498,14.91 C37.8500018,14.4579977 38.2979973,14.232 38.842,14.232 C39.4020028,14.232 39.8299985,14.4439979 40.126,14.868 C40.3660012,15.2120017 40.4660002,15.5599982 40.426,15.912 C40.5140004,16.0080005 40.558,16.1679989 40.558,16.392 C40.558,16.6320012 40.4700009,16.8359992 40.294,17.004 C40.1179991,17.1720008 39.9380009,17.256 39.754,17.256 C39.4819986,17.256 39.246001,17.0760018 39.046,16.716 C38.9899997,16.6199995 38.962,16.4920008 38.962,16.332 C38.962,16.2599996 38.9679999,16.1580007 38.98,16.026 C38.9920001,15.8939993 38.998,15.8000003 38.998,15.744 C38.998,15.535999 38.9220008,15.432 38.77,15.432 C38.5379988,15.432 38.422,15.6599977 38.422,16.116 C38.422,16.5800023 38.5739985,16.9519986 38.878,17.232 C38.9980006,17.3440006 39.257998,17.503999 39.658,17.712 C40.0020017,17.8880009 40.2459993,18.0679991 40.39,18.252 C40.6060011,18.5320014 40.714,18.9119976 40.714,19.392 Z"/>
    <polygon fill="#979797" points="41 1 53 1 53 13" transform="rotate(-180 47 7)"/>
  </g>
</svg>
