<svg xmlns="http://www.w3.org/2000/svg" width="64" height="64" viewBox="0 0 64 64">
  <g fill="none" fill-rule="evenodd">
    <path fill="#ECECEC" d="M9,5.99593743 C9,4.34132688 10.3498463,3 12.0036812,3 L47.9963188,3 C49.6552061,3 51,4.3371457 51,6.00423906 L51,43.1885718 L56,43.1885718 L56,63 L11.9936145,63 C10.3402869,63 9,61.6626903 9,60.0040626 L9,5.99593743 Z"/>
    <rect width="13" height="13" x="13" y="18" fill="#979797"/>
    <rect width="13" height="13" x="29" y="18" fill="#979797"/>
    <path stroke="#979797" stroke-linecap="square" stroke-width="2" d="M14 10L39.019992 10M14 35L39.019992 35M14 47L39.019992 47M14 14L29 14M14 39L45 39M14 43L35 43M14 51L35 51"/>
    <path fill="#D8D8D8" d="M51,43 L60,43 L60,58.4991463 C60,60.9848992 57.9802243,63 55.5,63 L55.5,63 C53.0147186,63 51,60.9907522 51,58.4991463 L51,43 Z"/>
  </g>
</svg>
