<svg xmlns="http://www.w3.org/2000/svg" width="64" height="64" viewBox="0 0 64 64">
  <g fill="none" fill-rule="evenodd">
    <path fill="#ECECEC" d="M8,5.99593743 C8,4.34132688 9.34984627,3 11.0036812,3 L46.9963188,3 C48.6552061,3 50,4.3371457 50,6.00423906 L50,43.1885718 L55,43.1885718 L55,63 L10.9936145,63 C9.34028685,63 8,61.6626903 8,60.0040626 L8,5.99593743 Z"/>
    <rect width="9" height="53" x="12" y="7" fill="#D8D8D8"/>
    <rect width="20" height="13" x="25" y="7" fill="#979797"/>
    <path stroke="#979797" stroke-linecap="square" stroke-width="2" d="M26 23L44.0277564 23M26 27L44.0277564 27M26 31L44.0277564 31M26 35L44.0277564 35M26 39L44.0277564 39M26 43L44.0277564 43M26 47L44.0277564 47M26 51L44.0277564 51M26 55L44.0277564 55M26 59L44.0277564 59M15 10L18 10M15 14L18 14M15 18L18 18M15 22L18 22M15 26L18 26M15 30L18 30M15 34L18 34M15 38L18 38M15 42L18 42M15 46L18 46M15 50L18 50M15 54L18 54"/>
    <path fill="#D8D8D8" d="M50,43 L59,43 L59,58.4991463 C59,60.9848992 56.9802243,63 54.5,63 L54.5,63 C52.0147186,63 50,60.9907522 50,58.4991463 L50,43 Z"/>
  </g>
</svg>
