<svg xmlns="http://www.w3.org/2000/svg" width="64" height="64" viewBox="0 0 64 64">
  <g fill="none" fill-rule="evenodd">
    <rect width="58" height="32" x="3" y="17" fill="#595959" rx="2" transform="rotate(90 32 33)"/>
    <circle cx="32" cy="59" r="2" fill="#868686" transform="rotate(90 32 59)"/>
    <rect width="49" height="28" x="7.5" y="17.5" fill="#ED9111" rx="1" transform="rotate(90 32 31.5)"/>
    <path stroke="#5B68C0" stroke-linecap="square" stroke-width="2" d="M22 24L42 24M22 28L39 28M22 32L27 32M31 32L42 32M22 36L42 36M22 40L42 40"/>
    <path fill="#5B68C0" d="M27.045,17.28 C27.0316666,17.5200012 26.9483341,17.7216659 26.795,17.885 C26.6416659,18.0483342 26.4516678,18.1233334 26.225,18.11 C25.6583305,18.0766665 25.2716677,17.8000026 25.065,17.28 C25.0316665,17.1999996 25.0116667,17.0700009 25.005,16.89 C24.9916666,16.7299992 24.9583336,16.6000005 24.905,16.5 C24.6583321,16.1199981 24.4316677,15.7533351 24.225,15.4 C23.7183308,14.5466624 23.3450012,13.8333362 23.105,13.26 C23.0783332,13.9400034 23.131666,15.2199906 23.265,17.1 C23.265,17.1400002 23.298333,17.2299993 23.365,17.37 C23.431667,17.5100007 23.465,17.6266662 23.465,17.72 C23.465,17.8400006 23.4250004,17.9499995 23.345,18.05 C23.2316661,18.1966674 23.0616678,18.27 22.835,18.27 C22.5949988,18.27 22.3600012,18.1950007 22.13,18.045 C21.8999988,17.8949993 21.7716668,17.720001 21.745,17.52 C21.7249999,17.3599992 21.7683328,17.2366671 21.875,17.15 C21.9816672,17.0633329 22.0316667,16.986667 22.025,16.92 L21.725,10.8 C21.725,10.7666665 21.7183334,10.716667 21.705,10.65 C21.6916666,10.583333 21.685,10.5333335 21.685,10.5 C21.685,10.3999995 21.7366662,10.3200003 21.84,10.26 C21.9433339,10.1999997 22.0883324,10.17 22.275,10.17 C22.7750025,10.17 23.1316656,10.2999987 23.345,10.56 C23.4050003,10.626667 23.435,10.7066662 23.435,10.8 C23.435,10.8400002 23.4283334,10.893333 23.415,10.96 C23.4016666,11.026667 23.395,11.0733332 23.395,11.1 C23.395,11.1200001 23.3983333,11.1399999 23.405,11.16 C23.538334,11.8400034 24.238327,13.2666558 25.505,15.44 L25.385,10.56 C25.385,10.4999997 25.3616669,10.4333337 25.315,10.36 C25.2683331,10.2866663 25.245,10.2300002 25.245,10.19 C25.245,10.1033329 25.311666,9.993334 25.445,9.86 C25.5183337,9.7799996 25.6316659,9.74 25.785,9.74 C26.0316679,9.74 26.2849987,9.8266658 26.545,10 C26.8050013,10.1733342 26.9383333,10.359999 26.945,10.56 C26.9516667,10.6866673 26.9000005,10.7866663 26.79,10.86 C26.6799994,10.9333337 26.625,11.0066663 26.625,11.08 L26.765,16.56 C26.765,16.6533338 26.8133329,16.771666 26.91,16.915 C27.0066671,17.058334 27.0516667,17.1799995 27.045,17.28 Z M31.145,16.95 C31.0916664,17.2033346 30.9116682,17.4733319 30.605,17.76 C30.5583331,17.8333337 30.3750016,17.9299994 30.055,18.05 C29.6883315,18.1900007 29.371668,18.2500001 29.105,18.23 C28.6049975,18.1966665 28.2116681,17.9100027 27.925,17.37 C27.6649987,16.8699975 27.535,16.2566703 27.535,15.53 C27.535,14.7433294 27.6816652,14.0533363 27.975,13.46 C28.3016683,12.8066634 28.7383306,12.4400004 29.285,12.36 C29.3916672,12.3466666 29.4949995,12.34 29.595,12.34 C30.3883373,12.34 30.8249996,12.8266618 30.905,13.8 C30.9450002,14.2466689 30.7683353,14.7333307 30.375,15.26 C29.9483312,15.8400029 29.40167,16.2466655 28.735,16.48 C28.8083337,16.746668 28.8649998,16.9199996 28.905,17 C28.9983338,17.1666675 29.1249992,17.25 29.285,17.25 C29.4383341,17.25 29.6016658,17.1900006 29.775,17.07 C29.9216674,16.9699995 30.0216664,16.8733338 30.075,16.78 C30.1016668,16.7666666 30.1283332,16.6916673 30.155,16.555 C30.1816668,16.4183327 30.2516661,16.3200003 30.365,16.26 C30.4050002,16.2399999 30.4516664,16.23 30.505,16.23 C30.6650008,16.23 30.8199993,16.3083325 30.97,16.465 C31.1200008,16.6216674 31.1783335,16.7833325 31.145,16.95 Z M29.575,13.43 C29.308332,13.43 29.0916675,13.6199981 28.925,14 C28.7049989,14.5066692 28.6149998,15.0066642 28.655,15.5 C28.9683349,15.3999995 29.258332,15.1666685 29.525,14.8 C29.791668,14.4333315 29.925,14.1066681 29.925,13.82 C29.925,13.5599987 29.8083345,13.43 29.575,13.43 Z M39.095,12.54 C39.1150001,12.5933336 39.125,12.6433331 39.125,12.69 C39.125,12.7966672 39.0650006,12.9266659 38.945,13.08 C38.7983326,13.2600009 38.7083335,13.3999995 38.675,13.5 L37.575,16.82 C37.5416665,16.9266672 37.525,17.0533326 37.525,17.2 L37.525,17.42 C37.5316667,17.5133338 37.535,17.5833331 37.535,17.63 C37.535,17.8766679 37.4516675,18.0599994 37.285,18.18 C37.1183325,18.3000006 36.9283344,18.36 36.715,18.36 C36.3949984,18.36 36.1283344,18.2400012 35.915,18 C35.8083328,17.8799994 35.755,17.7433341 35.755,17.59 C35.755,17.3633322 35.7483334,17.2200003 35.735,17.16 L35.135,14.94 L34.555,16.94 C34.5349999,17.0133337 34.5183334,17.1533323 34.505,17.36 C34.4916666,17.5266675 34.4550003,17.6599995 34.395,17.76 C34.1416654,18.1733354 33.8316685,18.38 33.465,18.38 C33.3383327,18.38 33.2216672,18.3433337 33.115,18.27 C32.981666,18.1833329 32.9016668,18.0500009 32.875,17.87 C32.8483332,17.6899991 32.8216668,17.5133342 32.795,17.34 L31.915,13.92 C31.8949999,13.8333329 31.8350005,13.6733345 31.735,13.44 C31.6549996,13.2599991 31.615,13.1066673 31.615,12.98 C31.615,12.8933329 31.6316665,12.8066671 31.665,12.72 C31.7250003,12.5333324 31.9649979,12.44 32.385,12.44 C32.6183345,12.44 32.7749996,12.473333 32.855,12.54 C32.9550005,12.6266671 33.0083333,12.7666657 33.015,12.96 C33.0216667,13.2533348 33.0283333,13.4133332 33.035,13.44 L33.635,15.84 L34.475,13.38 C34.4883334,13.3333331 34.495,13.2866669 34.495,13.24 C34.495,13.1999998 34.4866668,13.1416671 34.47,13.065 C34.4533333,12.988333 34.445,12.9300002 34.445,12.89 C34.445,12.7433326 34.5249992,12.6300004 34.685,12.55 C34.818334,12.4766663 34.9649992,12.44 35.125,12.44 C35.3450011,12.44 35.5283326,12.4933328 35.675,12.6 C35.8616676,12.733334 35.9649999,12.9049989 35.985,13.115 C36.0050001,13.325001 36.0216666,13.5333323 36.035,13.74 L36.635,16.14 L37.595,13.26 C37.6083334,13.2199998 37.615,13.1766669 37.615,13.13 C37.615,13.0766664 37.6050001,13.0050005 37.585,12.915 C37.5649999,12.8249995 37.555,12.7566669 37.555,12.71 C37.555,12.6499997 37.5683332,12.5933336 37.595,12.54 C37.6950005,12.3599991 37.9583312,12.27 38.385,12.27 C38.785002,12.27 39.0216663,12.3599991 39.095,12.54 Z M42.595,16.66 C42.595,17.126669 42.428335,17.5249983 42.095,17.855 C41.761665,18.1850016 41.3683356,18.35 40.915,18.35 C40.6283319,18.35 40.3316682,18.2133347 40.025,17.94 C39.7849988,17.7199989 39.5683343,17.4500016 39.375,17.13 C39.2083325,16.8499986 39.1349999,16.6733337 39.155,16.6 C39.2283337,16.4333325 39.4583314,16.35 39.845,16.35 C40.0050008,16.35 40.1316662,16.3733331 40.225,16.42 C40.3850008,16.5066671 40.4749999,16.616666 40.495,16.75 C40.5150001,16.9033341 40.5483331,16.9999998 40.595,17.04 C40.7350007,17.2533344 40.8616661,17.36 40.975,17.36 C41.0616671,17.36 41.143333,17.3016672 41.22,17.185 C41.296667,17.0683327 41.335,16.9300008 41.335,16.77 C41.335,16.6699995 41.3183335,16.5700005 41.285,16.47 C41.2516665,16.3699995 41.0716683,16.2166677 40.745,16.01 C40.3516647,15.7633321 40.0716675,15.5466676 39.905,15.36 C39.6183319,15.0399984 39.475,14.6666688 39.475,14.24 C39.475,13.7399975 39.6216652,13.3016686 39.915,12.925 C40.2083348,12.5483314 40.5816644,12.36 41.035,12.36 C41.501669,12.36 41.8583321,12.5366649 42.105,12.89 C42.305001,13.1766681 42.3883335,13.4666652 42.355,13.76 C42.4283337,13.8400004 42.465,13.9733324 42.465,14.16 C42.465,14.360001 42.3916674,14.5299993 42.245,14.67 C42.0983326,14.8100007 41.9483341,14.88 41.795,14.88 C41.5683322,14.88 41.3716675,14.7300015 41.205,14.43 C41.1583331,14.3499996 41.135,14.243334 41.135,14.11 C41.135,14.0499997 41.1399999,13.9650006 41.15,13.855 C41.1600001,13.7449995 41.165,13.6666669 41.165,13.62 C41.165,13.4466658 41.1016673,13.36 40.975,13.36 C40.7816657,13.36 40.685,13.5499981 40.685,13.93 C40.685,14.3166686 40.8116654,14.6266655 41.065,14.86 C41.1650005,14.9533338 41.381665,15.0866658 41.715,15.26 C42.0016681,15.4066674 42.2049994,15.5566659 42.325,15.71 C42.5050009,15.9433345 42.595,16.259998 42.595,16.66 Z"/>
  </g>
</svg>
