<svg xmlns="http://www.w3.org/2000/svg" width="64" height="64" viewBox="0 0 64 64">
  <g fill="none" fill-rule="evenodd">
    <rect width="32" height="33" x="16.875" y="15" fill="#BD7575"/>
    <path fill="#ED9111" d="M9,47.9138849 C9,45.7041591 10.7750001,43.6994337 12.9692715,43.4356406 L32.875,41.0425936 L52.7807285,43.4356406 C54.9728966,43.6991808 56.75,45.6992053 56.75,47.9138849 L56.75,61.0506996 C56.75,62.703077 55.4323684,63.8218386 53.7985106,63.5481032 L32.875,60.0425936 L11.9514894,63.5481032 C10.3214268,63.8212027 9,62.6905655 9,61.0506996 L9,47.9138849 Z"/>
    <path fill="#FFDD95" d="M26.6704545,39.4906185 C21.7663848,36.0068513 18.375,28.9212508 18.375,23.1331692 C18.375,15.1250403 24.8668711,8.63316921 32.875,8.63316921 C40.8831289,8.63316921 47.375,15.1250403 47.375,23.1331692 C47.375,28.9212508 43.9836152,36.0068513 39.0795455,39.4906185 L39.0795455,46.9058965 C39.0795455,46.9058965 34.8734611,48.8154815 32.875,48.8154815 C30.8765389,48.8154815 26.6704545,46.9058965 26.6704545,46.9058965 L26.6704545,39.4906185 Z"/>
    <circle cx="19.875" cy="26" r="3" fill="#FFDD95"/>
    <circle cx="45.875" cy="26" r="3" fill="#FFDD95"/>
    <path fill="#BD7575" d="M16.875,12.5 C16.875,8.91014913 19.7854073,6 23.3699533,6 L42.3800467,6 C45.9671104,6 48.875,8.91745375 48.875,12.5 L48.875,19 L32.875,13.079188 L16.875,19 L16.875,12.5 Z"/>
    <rect width="4" height="15" x="31" y="46" fill="#595959"/>
    <rect width="4" height="3" x="31" y="61" fill="#22BA8E"/>
    <circle cx="33" cy="43" r="5" fill="#595959"/>
    <rect width="10" height="6" x="28" y="47" fill="#E43535"/>
  </g>
</svg>
