<svg xmlns="http://www.w3.org/2000/svg" width="64" height="64" viewBox="0 0 64 64">
  <g fill="none" fill-rule="evenodd">
    <circle cx="13" cy="18" r="4" fill="#595959"/>
    <path stroke="#979797" stroke-linecap="square" stroke-width="2" d="M21,18 L50.0610546,18 C51.6928167,18 53.0156212,16.6741598 53.0156212,15.0460675 L53.0156212,12.092135"/>
    <circle cx="13" cy="30" r="4" fill="#595959"/>
    <path stroke="#979797" stroke-linecap="square" stroke-width="2" d="M21,30 L50.0610546,30 C51.6928167,30 53.0156212,28.6741598 53.0156212,27.0460675 L53.0156212,24.092135"/>
    <circle cx="13" cy="42" r="4" fill="#595959"/>
    <path stroke="#979797" stroke-linecap="square" stroke-width="2" d="M21,42 L50.0610546,42 C51.6928167,42 53.0156212,40.6741598 53.0156212,39.0460675 L53.0156212,36.092135"/>
    <circle cx="13" cy="54" r="4" fill="#595959"/>
    <path stroke="#979797" stroke-linecap="square" stroke-width="2" d="M21,54 L50.0610546,54 C51.6928167,54 53.0156212,52.6741598 53.0156212,51.0460675 L53.0156212,48.092135"/>
  </g>
</svg>
