<svg xmlns="http://www.w3.org/2000/svg" width="64" height="64" viewBox="0 0 64 64">
  <g fill="none" fill-rule="evenodd">
    <polygon fill="#ECECEC" points="3 21 55 21 56 28 4 28"/>
    <path fill="#D8D8D8" d="M3.52863128,40 L61,40 L61,27 L3.52863128,27 C3.51910023,27.0001394 3.50955638,27 3.5,27 C2.11928813,27 1,29.9101491 1,33.5 C1,37.0898509 2.11928813,40 3.5,40 C3.50955638,40 3.51910023,39.9998606 3.52863128,39.9995825 Z"/>
    <ellipse cx="60.5" cy="33.5" fill="#595959" rx="2.5" ry="6.5"/>
    <path stroke="#979797" stroke-linecap="round" stroke-width="2" d="M27 26C25.3431458 26 24 29.1340068 24 33 24 36.8659932 25.3431458 40 27 40L27 40M36 26C34.3431458 26 33 29.1340068 33 33 33 36.8659932 34.3431458 40 36 40L36 40"/>
  </g>
</svg>
