<svg xmlns="http://www.w3.org/2000/svg" width="64" height="64" viewBox="0 0 64 64">
  <g fill="none" fill-rule="evenodd">
    <path fill="#ECECEC" d="M7,5.99593743 C7,4.34132688 8.34984627,3 10.0036812,3 L45.9963188,3 C47.6552061,3 49,4.3371457 49,6.00423906 L49,43.1885718 L54,43.1885718 L54,63 L9.99361448,63 C8.34028685,63 7,61.6626903 7,60.0040626 L7,5.99593743 Z"/>
    <path stroke="#979797" stroke-linecap="square" stroke-width="2" d="M14 10L41.0713377 10M14 31L25 31M14 35L25 35M31 31L41 31M31 35L41 35M14 39L25 39M31 39L41 39M14 43L25 43M31 43L41 43M14 47L25 47M31 47L41 47M14 51L25 51M31 51L41 51"/>
    <rect width="29" height="13" x="13" y="14" fill="#979797"/>
    <path fill="#D8D8D8" d="M49,43 L58,43 L58,58.4991463 C58,60.9848992 55.9802243,63 53.5,63 L53.5,63 C51.0147186,63 49,60.9907522 49,58.4991463 L49,43 Z"/>
  </g>
</svg>
