<?xml version="1.0" encoding="UTF-8"?>
<svg width="64px" height="64px" viewBox="0 0 64 64" version="1.1" xmlns="http://www.w3.org/2000/svg" xmlns:xlink="http://www.w3.org/1999/xlink">
    <!-- Generator: Sketch 43.2 (39069) - http://www.bohemiancoding.com/sketch -->
    <title>nightcamp</title>
    <desc>Created with Sketch.</desc>
    <defs></defs>
    <g id="Outdoor-Activities-(142)" stroke="none" stroke-width="1" fill="none" fill-rule="evenodd">
        <path d="M28.97017,4.88288665 C15.4155392,6.83662902 5,18.4994987 5,32.595048 C5,48.059021 17.536027,60.595048 33,60.595048 C45.1544481,60.595048 55.5000927,52.8506397 59.3716386,42.0271184 C55.2078876,45.5032858 49.8482224,47.595048 44,47.595048 C30.745166,47.595048 20,36.849882 20,23.595048 C20,16.0296384 23.5004947,9.28181326 28.97017,4.88288665 Z" id="Combined-Shape" fill="#5B68C0"></path>
        <path d="M41,10 L46,15" id="Path-3" stroke="#5EA7FF" stroke-width="2" stroke-linecap="round"></path>
        <path d="M40.7434176,14.8355061 L45.7434176,9.83550611" id="Path-3-Copy" stroke="#5EA7FF" stroke-width="2" stroke-linecap="round"></path>
        <path d="M30,27 L35,32" id="Path-3-Copy-3" stroke="#5EA7FF" stroke-width="2" stroke-linecap="round"></path>
        <path d="M29.7434176,31.8355061 L34.7434176,26.8355061" id="Path-3-Copy-2" stroke="#5EA7FF" stroke-width="2" stroke-linecap="round"></path>
        <path d="M55,21 L60,26" id="Path-3-Copy-5" stroke="#5EA7FF" stroke-width="2" stroke-linecap="round"></path>
        <path d="M54.7434176,25.8355061 L59.7434176,20.8355061" id="Path-3-Copy-4" stroke="#5EA7FF" stroke-width="2" stroke-linecap="round"></path>
    </g>
</svg>