<svg xmlns="http://www.w3.org/2000/svg" width="64" height="64" viewBox="0 0 64 64">
  <g fill="none" fill-rule="evenodd">
    <path fill="#FFDD95" d="M21.1772402,49 C24.3378686,50.9044595 28.0409957,52 32,52 C35.9590043,52 39.6621314,50.9044595 42.8227598,49 L21.1772402,49 Z M11.0233902,30 C11.5453432,18.8663664 20.7372462,10 32,10 C43.2627538,10 52.4546568,18.8663664 52.9766098,30 L11.0233902,30 Z"/>
    <path stroke="#ED9111" stroke-linecap="square" stroke-width="2" d="M30 18L30 18M24 20L23 21M37 16L38 18M43 21L44 21M36 22L35 24M29 24L29 24"/>
    <path fill="#FFDD95" d="M13,49 L51,49 L51,52.5 C51,54.4329966 49.4395108,56 47.4931641,56 L16.5068359,56 C14.5700639,56 13,54.4290634 13,52.5 L13,49 Z"/>
    <path stroke="#80D25B" stroke-linecap="square" stroke-width="2" d="M6,30 L51.0182052,30 C51.0182052,30 52.8122292,33.1779859 55.7532618,33.9720231"/>
    <path stroke="#ED9111" stroke-linecap="square" stroke-width="2" d="M13 32L50 32M13 48L50 48"/>
    <rect width="50" height="8" x="7" y="39" fill="#BD7575" rx="4"/>
    <rect width="37" height="6" x="14" y="33" fill="#E43535" rx="2"/>
    <path fill="#E43535" fill-rule="nonzero" stroke="#FFF" stroke-width="2" d="M6.41021742,60.2903139 L60.5872217,6.41819854 C61.3704711,5.63935699 61.3740444,4.37303208 60.5952028,3.58978268 C59.8163613,2.80653328 58.5500364,2.80296001 57.766787,3.58180156 L3.58978268,57.4539169 C2.80653328,58.2327584 2.80296001,59.4990834 3.58180156,60.2823328 C4.36064311,61.0655822 5.62696802,61.0691554 6.41021742,60.2903139 Z"/>
  </g>
</svg>
