<svg xmlns="http://www.w3.org/2000/svg" width="64" height="64" viewBox="0 0 64 64">
  <g fill="none" fill-rule="evenodd">
    <path fill="#ED9111" d="M11.6698651,22.4836121 C12.4044783,21.6642357 13.8923153,21 14.9968516,21 L60.0031484,21 C61.1059791,21 62,21.8997127 62,22.9932874 L62,48.0067126 C62,49.1075748 61.1076847,50 60.0031484,50 L14.9968516,50 C13.8940209,50 12.4076363,49.3392866 11.6698651,48.5163879 L0,35.5 L11.6698651,22.4836121 Z M10,38 C11.6568542,38 13,36.6568542 13,35 C13,33.3431458 11.6568542,32 10,32 C8.34314575,32 7,33.3431458 7,35 C7,36.6568542 8.34314575,38 10,38 Z"/>
    <path fill="#FFF" d="M46.206,35.724 C46.2246668,36.1440021 46.0426686,36.4006662 45.66,36.494 C45.6413332,36.5033334 45.2913367,36.5313331 44.61,36.578 C44.5539997,36.578 44.5166668,36.5826666 44.498,36.592 C43.9286638,36.862668 43.508668,37.0493328 43.238,37.152 C43.1353328,37.9826708 43.1259996,39.0933264 43.21,40.484 C43.3313339,40.3999996 43.5179987,40.2740008 43.77,40.106 C43.9940011,39.8446654 44.1806659,39.7186666 44.33,39.728 C44.6380015,39.7466668 44.9483318,39.8983319 45.261,40.183 C45.5736682,40.4676681 45.73,40.7639985 45.73,41.072 C45.73,41.1933339 45.7020003,41.3053328 45.646,41.408 C45.5433328,41.6133344 45.2866687,41.7253332 44.876,41.744 C44.409331,41.7626668 44.0966675,41.8373327 43.938,41.968 C43.8073327,42.0146669 43.6836672,42.0963327 43.567,42.213 C43.4503328,42.3296672 43.3406672,42.4439994 43.238,42.556 C43.163333,43.1813365 43.163333,44.058661 43.238,45.188 C43.2846669,45.3093339 43.308,45.4259994 43.308,45.538 C43.308,45.8366682 43.1446683,46.0699992 42.818,46.238 C42.6966661,46.3033337 42.5520008,46.336 42.384,46.336 C42.0853318,46.336 41.8100013,46.2473342 41.558,46.07 C41.2779986,45.8833324 41.1100003,45.6453348 41.054,45.356 C41.0353332,45.2253327 41.056333,45.1273337 41.117,45.062 C41.177667,44.9966663 41.2406663,44.9360003 41.306,44.88 C41.2499997,40.8106463 41.2499997,37.805343 41.306,35.864 C41.2966666,35.7706662 41.292,35.686667 41.292,35.612 C41.292,35.1266642 41.5859971,34.884 42.174,34.884 C42.2766672,34.884 42.3886661,34.8933332 42.51,34.912 C42.7153344,34.9400001 42.855333,34.9773331 42.93,35.024 C42.9486668,35.0333334 43.0139994,35.0986661 43.126,35.22 C43.3126676,35.1546663 43.6113313,35.0520007 44.022,34.912 C44.1153338,34.8559997 44.2156661,34.7930003 44.323,34.723 C44.4303339,34.6529996 44.6006655,34.618 44.834,34.618 C45.104668,34.618 45.3986651,34.7346655 45.716,34.968 C46.0333349,35.2013345 46.1966666,35.453332 46.206,35.724 Z M53.514,43.144 C53.4486663,43.2653339 53.3040011,43.3399999 53.08,43.368 C53.0613332,43.368 52.8606686,43.3773332 52.478,43.396 C52.5433337,43.8160021 52.7859979,44.3386635 53.206,44.964 C53.4486679,45.1413342 53.57,45.3746652 53.57,45.664 C53.57,46.1213356 53.2900028,46.35 52.73,46.35 C52.1979973,46.35 51.834001,46.214668 51.638,45.944 C51.5726663,45.8506662 51.5306668,45.7246675 51.512,45.566 C51.512,45.4633328 51.5073334,45.3560006 51.498,45.244 C51.4139996,45.1599996 51.1620021,44.6186717 50.742,43.62 C49.9766628,43.7320006 49.0340056,43.8906656 47.914,44.096 C47.8019994,44.366668 47.6806673,44.7586641 47.55,45.272 C47.5686668,45.3653338 47.578,45.4539996 47.578,45.538 C47.578,45.7900013 47.4940008,45.983666 47.326,46.119 C47.1579992,46.254334 46.9573345,46.322 46.724,46.322 C46.4626654,46.322 46.2200011,46.224001 45.996,46.028 C45.7719989,45.831999 45.66,45.6033346 45.66,45.342 C45.66,45.1086655 45.7673323,44.8986676 45.982,44.712 C46.6820035,41.1559822 47.5313283,38.2160116 48.53,35.892 C48.5113332,35.7799994 48.502,35.6680006 48.502,35.556 C48.502,35.089331 48.6606651,34.7813341 48.978,34.632 C49.1086673,34.5759997 49.2766656,34.548 49.482,34.548 C49.874002,34.548 50.2006654,34.6086661 50.462,34.73 C50.7980017,34.8980008 50.966,35.1499983 50.966,35.486 C50.966,35.7940015 50.8820008,36.0693321 50.714,36.312 C50.8913342,37.8986746 51.2739971,39.7279896 51.862,41.8 C51.9180003,41.7906666 52.1093317,41.7440004 52.436,41.66 C52.632001,41.6039997 52.7813328,41.576 52.884,41.576 C53.0053339,41.576 53.103333,41.6039997 53.178,41.66 C53.5046683,41.9120013 53.668,42.2199982 53.668,42.584 C53.668,42.780001 53.6166672,42.9666658 53.514,43.144 Z M50.154,42.08 C49.9953325,41.4919971 49.7433351,40.362675 49.398,38.692 C48.73533,40.1386739 48.3433339,41.3799948 48.222,42.416 L50.154,42.08 Z M59.45,36.34 C59.3473328,36.536001 59.1280017,36.634 58.792,36.634 C58.3533311,36.634 58.096667,36.6479999 58.022,36.676 C57.6766649,36.8253341 57.2753356,36.9933324 56.818,37.18 C56.7899999,37.8893369 56.776,38.6686624 56.776,39.518 C56.776,41.2446753 56.8273328,43.0133243 56.93,44.824 C56.93,44.9546673 56.9789995,45.1249989 57.077,45.335 C57.1750005,45.545001 57.224,45.6966662 57.224,45.79 C57.224,45.9113339 57.1820004,46.0233328 57.098,46.126 C56.8926656,46.4060014 56.5846687,46.546 56.174,46.546 C55.8193316,46.546 55.4810016,46.4503343 55.159,46.259 C54.8369984,46.0676657 54.6526669,45.8413346 54.606,45.58 C54.5779999,45.4399993 54.6503325,45.2813342 54.823,45.104 C54.9956675,44.9266658 55.082,44.7586675 55.082,44.6 C55.0166663,42.7426574 54.984,41.1186736 54.984,39.728 C54.984,38.8879958 54.9979999,38.2160025 55.026,37.712 C55.0166666,37.712 54.8860013,37.7586662 54.634,37.852 C54.4659992,37.9173337 54.3306672,37.95 54.228,37.95 C54.0786659,37.95 53.9433339,37.8986672 53.822,37.796 C53.5233318,37.5439987 53.336667,37.3760004 53.262,37.292 C53.1126659,37.1239992 53.038,36.9466676 53.038,36.76 C53.038,36.6946663 53.0473332,36.6200004 53.066,36.536 C53.0940001,36.4053327 53.7753267,36.1393353 55.11,35.738 C56.5473405,35.2993311 57.3219994,35.042667 57.434,34.968 C57.5366672,34.9306665 57.6509994,34.8466673 57.777,34.716 C57.9030006,34.5853327 58.0406659,34.5106668 58.19,34.492 C58.3953344,34.4733332 58.6659983,34.6086652 59.002,34.898 C59.3753352,35.2246683 59.562,35.5653316 59.562,35.92 C59.562,36.0600007 59.524667,36.1999993 59.45,36.34 Z"/>
    <path fill="#E43535" fill-rule="nonzero" stroke="#FFF" stroke-width="2" d="M6.41021742,60.2903139 L60.5872217,6.41819854 C61.3704711,5.63935699 61.3740444,4.37303208 60.5952028,3.58978268 C59.8163613,2.80653328 58.5500364,2.80296001 57.766787,3.58180156 L3.58978268,57.4539169 C2.80653328,58.2327584 2.80296001,59.4990834 3.58180156,60.2823328 C4.36064311,61.0655822 5.62696802,61.0691554 6.41021742,60.2903139 Z"/>
  </g>
</svg>
