<svg xmlns="http://www.w3.org/2000/svg" width="64" height="64" viewBox="0 0 64 64">
  <g fill="none" fill-rule="evenodd">
    <path fill="#ED9111" d="M20.7272727,53 L57.0002326,53 C59.2013211,53 61,51.2114659 61,49.0051972 L61,19.9948028 C61,17.7845869 59.2092431,16 57.0002326,16 L9.99976742,16 C7.79867889,16 6,17.7885341 6,19.9948028 L6,49.0051972 C6,51.2154131 7.79075687,53 9.99976742,53 L15,53 L15,60 L20.7272727,53 Z"/>
    <path fill="#FFF" d="M33.64,30.992 C33.6213332,31.3280017 33.5046677,31.6103322 33.29,31.839 C33.0753323,32.0676678 32.8093349,32.1726668 32.492,32.154 C31.6986627,32.1073331 31.1573348,31.7200036 30.868,30.992 C30.8213331,30.8799994 30.7933334,30.6980013 30.784,30.446 C30.7653332,30.2219989 30.718667,30.0400007 30.644,29.9 C30.2986649,29.3679973 29.9813348,28.8546691 29.692,28.36 C28.9826631,27.1653274 28.4600017,26.1666707 28.124,25.364 C28.0866665,26.3160048 28.1613324,28.1079868 28.348,30.74 C28.348,30.7960003 28.3946662,30.921999 28.488,31.118 C28.5813338,31.314001 28.628,31.4773327 28.628,31.608 C28.628,31.7760008 28.5720006,31.9299993 28.46,32.07 C28.3013325,32.2753344 28.0633349,32.378 27.746,32.378 C27.4099983,32.378 27.0810016,32.273001 26.759,32.063 C26.4369984,31.852999 26.2573335,31.6080014 26.22,31.328 C26.1919999,31.1039989 26.2526659,30.9313339 26.402,30.81 C26.5513341,30.6886661 26.6213334,30.5813338 26.612,30.488 L26.192,21.92 C26.192,21.8733331 26.1826668,21.8033338 26.164,21.71 C26.1453332,21.6166662 26.136,21.5466669 26.136,21.5 C26.136,21.3599993 26.2083326,21.2480004 26.353,21.164 C26.4976674,21.0799996 26.7006654,21.038 26.962,21.038 C27.6620035,21.038 28.1613318,21.2199982 28.46,21.584 C28.5440004,21.6773338 28.586,21.7893327 28.586,21.92 C28.586,21.9760003 28.5766668,22.0506662 28.558,22.144 C28.5393332,22.2373338 28.53,22.3026665 28.53,22.34 C28.53,22.3680001 28.5346666,22.3959999 28.544,22.424 C28.7306676,23.3760048 29.7106578,25.3733181 31.484,28.416 L31.316,21.584 C31.316,21.4999996 31.2833337,21.4066672 31.218,21.304 C31.1526663,21.2013328 31.12,21.1220003 31.12,21.066 C31.12,20.9446661 31.2133324,20.7906676 31.4,20.604 C31.5026672,20.4919994 31.6613323,20.436 31.876,20.436 C32.2213351,20.436 32.5759982,20.5573321 32.94,20.8 C33.3040018,21.0426679 33.4906666,21.3039986 33.5,21.584 C33.5093334,21.7613342 33.4370008,21.9013328 33.283,22.004 C33.1289992,22.1066672 33.052,22.2093328 33.052,22.312 L33.248,29.984 C33.248,30.1146673 33.315666,30.2803323 33.451,30.481 C33.586334,30.6816677 33.6493334,30.8519993 33.64,30.992 Z M41.102,26.12 C41.1673337,27.3706729 40.9526691,28.6609934 40.458,29.991 C39.9633309,31.3210066 39.4360028,32.0699992 38.876,32.238 C38.6519989,32.312667 38.4326677,32.3406668 38.218,32.322 C37.9939989,32.2939999 37.7746677,32.2660001 37.56,32.238 C35.6373237,32.0139989 34.578001,29.9746859 34.382,26.12 C34.3259997,25.0746614 34.493998,23.9546726 34.886,22.76 C35.2500018,21.6493278 35.627998,20.9633346 36.02,20.702 C36.1133338,20.6366663 36.2159994,20.604 36.328,20.604 C36.4120004,20.604 36.5426658,20.6296664 36.72,20.681 C36.8973342,20.7323336 37.0326662,20.758 37.126,20.758 C37.2380006,20.758 37.4409985,20.7323336 37.735,20.681 C38.0290015,20.6296664 38.2459993,20.604 38.386,20.604 C38.5166673,20.604 38.6239996,20.6226665 38.708,20.66 C40.1546739,21.2480029 40.9526659,23.0679847 41.102,26.12 Z M39.212,26.12 C39.1186662,24.9533275 38.9926675,24.0760029 38.834,23.488 C38.5726654,22.4986617 38.1853359,22.004 37.672,22.004 C37.5319993,22.004 37.3850008,22.041333 37.231,22.116 C37.0769992,22.190667 36.8740013,22.6713289 36.622,23.558 C36.3606654,24.5286715 36.23,25.382663 36.23,26.12 C36.23,27.0813381 36.3979983,28.0916614 36.734,29.151 C37.0700017,30.2103386 37.3919985,30.74 37.7,30.74 C37.9893348,30.74 38.3113316,30.2640048 38.666,29.312 C39.0393352,28.3226617 39.226,27.3846711 39.226,26.498 C39.226,26.3673327 39.2213334,26.2413339 39.212,26.12 Z M29.706,36.724 C29.7246668,37.1440021 29.5426686,37.4006662 29.16,37.494 C29.1413332,37.5033334 28.7913367,37.5313331 28.11,37.578 C28.0539997,37.578 28.0166668,37.5826666 27.998,37.592 C27.4286638,37.862668 27.008668,38.0493328 26.738,38.152 C26.6353328,38.9826708 26.6259996,40.0933264 26.71,41.484 C26.8313339,41.3999996 27.0179987,41.2740008 27.27,41.106 C27.4940011,40.8446654 27.6806659,40.7186666 27.83,40.728 C28.1380015,40.7466668 28.4483318,40.8983319 28.761,41.183 C29.0736682,41.4676681 29.23,41.7639985 29.23,42.072 C29.23,42.1933339 29.2020003,42.3053328 29.146,42.408 C29.0433328,42.6133344 28.7866687,42.7253332 28.376,42.744 C27.909331,42.7626668 27.5966675,42.8373327 27.438,42.968 C27.3073327,43.0146669 27.1836673,43.0963327 27.067,43.213 C26.9503327,43.3296673 26.8406672,43.4439994 26.738,43.556 C26.663333,44.1813365 26.663333,45.058661 26.738,46.188 C26.7846669,46.3093339 26.808,46.4259994 26.808,46.538 C26.808,46.8366682 26.6446683,47.0699992 26.318,47.238 C26.1966661,47.3033337 26.0520008,47.336 25.884,47.336 C25.5853318,47.336 25.3100013,47.2473342 25.058,47.07 C24.7779986,46.8833324 24.6100003,46.6453348 24.554,46.356 C24.5353332,46.2253327 24.556333,46.1273337 24.617,46.062 C24.677667,45.9966663 24.7406663,45.9360003 24.806,45.88 C24.7499997,41.8106463 24.7499997,38.805343 24.806,36.864 C24.7966666,36.7706662 24.792,36.686667 24.792,36.612 C24.792,36.1266642 25.0859971,35.884 25.674,35.884 C25.7766672,35.884 25.8886661,35.8933332 26.01,35.912 C26.2153344,35.9400001 26.355333,35.9773331 26.43,36.024 C26.4486668,36.0333334 26.5139994,36.0986661 26.626,36.22 C26.8126676,36.1546663 27.1113313,36.0520007 27.522,35.912 C27.6153338,35.8559997 27.7156661,35.7930004 27.823,35.723 C27.9303339,35.6529996 28.1006655,35.618 28.334,35.618 C28.604668,35.618 28.8986651,35.7346655 29.216,35.968 C29.5333349,36.2013345 29.6966666,36.453332 29.706,36.724 Z M37.014,44.144 C36.9486663,44.2653339 36.8040011,44.3399999 36.58,44.368 C36.5613332,44.368 36.3606686,44.3773332 35.978,44.396 C36.0433337,44.8160021 36.2859979,45.3386635 36.706,45.964 C36.9486679,46.1413342 37.07,46.3746652 37.07,46.664 C37.07,47.1213356 36.7900028,47.35 36.23,47.35 C35.6979973,47.35 35.334001,47.214668 35.138,46.944 C35.0726663,46.8506662 35.0306668,46.7246675 35.012,46.566 C35.012,46.4633328 35.0073334,46.3560006 34.998,46.244 C34.9139996,46.1599996 34.6620021,45.6186717 34.242,44.62 C33.4766628,44.7320006 32.5340056,44.8906656 31.414,45.096 C31.3019994,45.366668 31.1806673,45.7586641 31.05,46.272 C31.0686668,46.3653338 31.078,46.4539996 31.078,46.538 C31.078,46.7900013 30.9940008,46.983666 30.826,47.119 C30.6579992,47.254334 30.4573345,47.322 30.224,47.322 C29.9626654,47.322 29.7200011,47.224001 29.496,47.028 C29.2719989,46.831999 29.16,46.6033346 29.16,46.342 C29.16,46.1086655 29.2673323,45.8986676 29.482,45.712 C30.1820035,42.1559822 31.0313283,39.2160116 32.03,36.892 C32.0113332,36.7799994 32.002,36.6680006 32.002,36.556 C32.002,36.089331 32.1606651,35.7813341 32.478,35.632 C32.6086673,35.5759997 32.7766656,35.548 32.982,35.548 C33.374002,35.548 33.7006654,35.6086661 33.962,35.73 C34.2980017,35.8980008 34.466,36.1499983 34.466,36.486 C34.466,36.7940015 34.3820008,37.0693321 34.214,37.312 C34.3913342,38.8986746 34.7739971,40.7279896 35.362,42.8 C35.4180003,42.7906666 35.6093317,42.7440004 35.936,42.66 C36.132001,42.6039997 36.2813328,42.576 36.384,42.576 C36.5053339,42.576 36.603333,42.6039997 36.678,42.66 C37.0046683,42.9120013 37.168,43.2199982 37.168,43.584 C37.168,43.780001 37.1166672,43.9666658 37.014,44.144 Z M33.654,43.08 C33.4953325,42.4919971 33.2433351,41.362675 32.898,39.692 C32.23533,41.1386739 31.8433339,42.3799948 31.722,43.416 L33.654,43.08 Z M42.95,37.34 C42.8473328,37.536001 42.6280017,37.634 42.292,37.634 C41.8533311,37.634 41.596667,37.6479999 41.522,37.676 C41.1766649,37.8253341 40.7753356,37.9933324 40.318,38.18 C40.2899999,38.8893369 40.276,39.6686624 40.276,40.518 C40.276,42.2446753 40.3273328,44.0133243 40.43,45.824 C40.43,45.9546673 40.4789995,46.1249989 40.577,46.335 C40.6750005,46.5450011 40.724,46.6966662 40.724,46.79 C40.724,46.9113339 40.6820004,47.0233328 40.598,47.126 C40.3926656,47.4060014 40.0846687,47.546 39.674,47.546 C39.3193316,47.546 38.9810016,47.4503343 38.659,47.259 C38.3369984,47.0676657 38.1526669,46.8413346 38.106,46.58 C38.0779999,46.4399993 38.1503325,46.2813342 38.323,46.104 C38.4956675,45.9266658 38.582,45.7586675 38.582,45.6 C38.5166663,43.7426574 38.484,42.1186736 38.484,40.728 C38.484,39.8879958 38.4979999,39.2160025 38.526,38.712 C38.5166666,38.712 38.3860013,38.7586662 38.134,38.852 C37.9659992,38.9173337 37.8306672,38.95 37.728,38.95 C37.5786659,38.95 37.4433339,38.8986672 37.322,38.796 C37.0233318,38.5439987 36.836667,38.3760004 36.762,38.292 C36.6126659,38.1239992 36.538,37.9466676 36.538,37.76 C36.538,37.6946663 36.5473332,37.6200004 36.566,37.536 C36.5940001,37.4053327 37.2753267,37.1393353 38.61,36.738 C40.0473405,36.2993311 40.8219994,36.042667 40.934,35.968 C41.0366672,35.9306665 41.1509994,35.8466673 41.277,35.716 C41.4030006,35.5853327 41.5406659,35.5106668 41.69,35.492 C41.8953344,35.4733332 42.1659983,35.6086652 42.502,35.898 C42.8753352,36.2246683 43.062,36.5653316 43.062,36.92 C43.062,37.0600007 43.024667,37.1999993 42.95,37.34 Z"/>
    <path stroke="#5EA7FF" stroke-linecap="round" stroke-linejoin="round" stroke-width="2" d="M35,12 L35,4"/>
    <path stroke="#5EA7FF" stroke-linecap="round" stroke-width="2" d="M28.4142177,12.227824 L23,7"/>
    <path stroke="#5EA7FF" stroke-linecap="round" stroke-width="2" d="M46.4142177,12.227824 L41,7" transform="matrix(-1 0 0 1 87.414 0)"/>
  </g>
</svg>
