<svg xmlns="http://www.w3.org/2000/svg" width="64" height="64" viewBox="0 0 64 64">
  <g fill="none" fill-rule="evenodd">
    <path fill="#E43535" d="M12.6698651,22.4836121 C13.4044783,21.6642357 14.8923153,21 15.9968516,21 L61.0031484,21 C62.1059791,21 63,21.8997127 63,22.9932874 L63,48.0067126 C63,49.1075748 62.1076847,50 61.0031484,50 L15.9968516,50 C14.8940209,50 13.4076363,49.3392866 12.6698651,48.5163879 L1,35.5 L12.6698651,22.4836121 Z M11,38 C12.6568542,38 14,36.6568542 14,35 C14,33.3431458 12.6568542,32 11,32 C9.34314575,32 8,33.3431458 8,35 C8,36.6568542 9.34314575,38 11,38 Z"/>
    <path fill="#FFF" d="M34.931,35.752 C34.9216666,35.9573344 34.8446674,36.1183328 34.7,36.235 C34.5553326,36.3516673 34.483,36.4613328 34.483,36.564 C34.4549999,36.6106669 34.4316668,37.8659877 34.413,40.33 C34.3849999,42.9526798 34.2963341,44.6466628 34.147,45.412 C34.1003331,45.6640013 33.9090017,45.9089988 33.573,46.147 C33.2369983,46.3850012 32.8963351,46.4806669 32.551,46.434 C32.1123311,46.3779997 31.6410025,46.0466697 31.137,45.44 C30.8943321,45.1319985 30.3950038,44.3946725 29.639,43.228 C29.5176661,43.1253328 29.3940006,43.0203339 29.268,42.913 C29.1419994,42.8056661 29.079,42.6213346 29.079,42.36 C29.079,42.1919992 29.2796647,42.0566672 29.681,41.954 C30.0170017,41.8699996 30.3763314,41.828 30.759,41.828 C30.9923345,41.828 31.1323331,41.8466665 31.179,41.884 C31.3470008,42.0240007 31.4449999,42.2246654 31.473,42.486 C31.5103335,42.8313351 31.5616663,43.0599994 31.627,43.172 C31.701667,43.3866677 31.7833329,43.6059989 31.872,43.83 C31.9606671,44.0540011 32.0656661,44.1706666 32.187,44.18 C32.457668,44.1893334 32.593,42.5700162 32.593,39.322 C32.593,38.2579947 32.5790001,37.1800055 32.551,36.088 C32.551,35.9946662 32.5440001,35.8616675 32.53,35.689 C32.5159999,35.5163325 32.509,35.3973337 32.509,35.332 C32.509,34.9213313 32.7563309,34.6693338 33.251,34.576 C33.4656677,34.5386665 33.7923311,34.6459987 34.231,34.898 C34.7070024,35.1780014 34.9403334,35.4626652 34.931,35.752 Z M42.785,35.234 C42.8876672,35.4206676 42.939,35.5746661 42.939,35.696 L42.771,36.2 C42.7616666,37.2546719 42.7476668,38.3046614 42.729,39.35 C42.6263328,41.291343 42.3743353,42.8453275 41.973,44.012 C41.4129972,45.6173414 40.5870055,46.4479997 39.495,46.504 C38.2163269,46.5693337 37.3016694,45.5753436 36.751,43.522 C36.3683314,42.1126596 36.177,40.339344 36.177,38.202 C36.177,37.4179961 36.1956665,36.8346686 36.233,36.452 C36.1396662,36.1626652 36.093,35.920001 36.093,35.724 C36.093,35.4253318 36.1863324,35.178001 36.373,34.982 C36.4943339,34.8513327 36.7043318,34.786 37.003,34.786 C37.3670018,34.786 37.6936652,34.8699992 37.983,35.038 C38.3190017,35.234001 38.4963332,35.4859985 38.515,35.794 C38.5243334,35.9526675 38.4753339,36.1206658 38.368,36.298 C38.2606661,36.4753342 38.2163332,36.6246661 38.235,36.746 C38.1976665,36.8673339 38.216333,37.5813268 38.291,38.888 C38.3843338,40.3533407 38.5056659,41.5806617 38.655,42.57 C38.851001,43.8673398 39.0703321,44.5113334 39.313,44.502 C39.7330021,44.4833332 40.0829986,43.503343 40.363,41.562 C40.5870011,40.0033255 40.699,38.5566733 40.699,37.222 C40.699,36.9606654 40.6896668,36.7740006 40.671,36.662 C40.6896668,36.5406661 40.6196675,36.3633345 40.461,36.13 C40.3023325,35.8966655 40.223,35.7006675 40.223,35.542 C40.223,35.3739992 40.2883327,35.2013342 40.419,35.024 C40.615001,34.7439986 40.9743307,34.604 41.497,34.604 C42.1316698,34.604 42.5609989,34.8139979 42.785,35.234 Z M51.367,44.992 C51.3483332,45.3280017 51.2316677,45.6103322 51.017,45.839 C50.8023323,46.0676678 50.5363349,46.1726668 50.219,46.154 C49.4256627,46.1073331 48.8843348,45.7200036 48.595,44.992 C48.5483331,44.8799994 48.5203334,44.6980013 48.511,44.446 C48.4923332,44.2219989 48.445667,44.0400007 48.371,43.9 C48.0256649,43.3679973 47.7083348,42.8546691 47.419,42.36 C46.7096631,41.1653274 46.1870017,40.1666707 45.851,39.364 C45.8136665,40.3160048 45.8883324,42.1079868 46.075,44.74 C46.075,44.7960003 46.1216662,44.921999 46.215,45.118 C46.3083338,45.314001 46.355,45.4773327 46.355,45.608 C46.355,45.7760008 46.2990006,45.9299993 46.187,46.07 C46.0283325,46.2753344 45.7903349,46.378 45.473,46.378 C45.1369983,46.378 44.8080016,46.273001 44.486,46.063 C44.1639984,45.852999 43.9843335,45.6080014 43.947,45.328 C43.9189999,45.1039989 43.9796659,44.9313339 44.129,44.81 C44.2783341,44.6886661 44.3483334,44.5813338 44.339,44.488 L43.919,35.92 C43.919,35.8733331 43.9096668,35.8033338 43.891,35.71 C43.8723332,35.6166662 43.863,35.5466669 43.863,35.5 C43.863,35.3599993 43.9353326,35.2480004 44.08,35.164 C44.2246674,35.0799996 44.4276654,35.038 44.689,35.038 C45.3890035,35.038 45.8883318,35.2199982 46.187,35.584 C46.2710004,35.6773338 46.313,35.7893327 46.313,35.92 C46.313,35.9760003 46.3036668,36.0506662 46.285,36.144 C46.2663332,36.2373338 46.257,36.3026665 46.257,36.34 C46.257,36.3680001 46.2616666,36.3959999 46.271,36.424 C46.4576676,37.3760048 47.4376578,39.3733181 49.211,42.416 L49.043,35.584 C49.043,35.4999996 49.0103337,35.4066672 48.945,35.304 C48.8796663,35.2013328 48.847,35.1220003 48.847,35.066 C48.847,34.9446661 48.9403324,34.7906676 49.127,34.604 C49.2296672,34.4919994 49.3883323,34.436 49.603,34.436 C49.9483351,34.436 50.3029982,34.5573321 50.667,34.8 C51.0310018,35.0426679 51.2176666,35.3039986 51.227,35.584 C51.2363334,35.7613342 51.1640008,35.9013328 51.01,36.004 C50.8559992,36.1066672 50.779,36.2093328 50.779,36.312 L50.975,43.984 C50.975,44.1146673 51.042666,44.2803323 51.178,44.481 C51.313334,44.6816677 51.3763334,44.8519993 51.367,44.992 Z M60.075,44.488 C60.1030001,44.5906672 60.117,44.6979994 60.117,44.81 C60.117,45.202002 59.9630015,45.5659983 59.655,45.902 C59.3469985,46.2380017 59.0156684,46.406 58.661,46.406 C58.5489994,46.406 58.4416672,46.3873335 58.339,46.35 C58.0029983,46.2286661 57.7790006,45.9580021 57.667,45.538 C57.5456661,45.0526642 57.3963342,44.7400007 57.219,44.6 L54.699,42.64 L54.867,44.32 C54.8763334,44.4506673 54.9229996,44.6303322 55.007,44.859 C55.0910004,45.0876678 55.133,45.2579994 55.133,45.37 C55.133,45.566001 55.0420009,45.7479992 54.86,45.916 C54.6779991,46.0840008 54.4563346,46.168 54.195,46.168 C53.9056652,46.168 53.5976683,46.0606677 53.271,45.846 C52.9163316,45.6033321 52.739,45.346668 52.739,45.076 C52.739,44.9733328 52.7903328,44.8613339 52.893,44.74 C52.9956672,44.6186661 53.047,44.5066672 53.047,44.404 L52.683,36.144 C52.6736666,36.0226661 52.6246671,35.8780008 52.536,35.71 C52.4473329,35.5419992 52.403,35.4160004 52.403,35.332 C52.403,35.1546658 52.5243321,34.9586677 52.767,34.744 C52.8230003,34.6973331 52.9723321,34.674 53.215,34.674 C54.0456708,34.674 54.5683323,34.8653314 54.783,35.248 C54.8390003,35.3506672 54.867,35.4486662 54.867,35.542 C54.867,35.6353338 54.8250004,35.7636658 54.741,35.927 C54.6569996,36.0903341 54.615,36.2279994 54.615,36.34 L54.615,39.756 L56.967,35.584 C57.0603338,35.3413321 57.1489996,35.0986679 57.233,34.856 C57.3543339,34.6039987 57.5689985,34.478 57.877,34.478 C58.1756682,34.478 58.4789985,34.5853323 58.787,34.8 C59.1323351,35.0426679 59.2816669,35.3039986 59.235,35.584 C59.1976665,35.7893344 59.1090007,35.929333 58.969,36.004 C58.7916658,36.1066672 58.6843335,36.1906663 58.647,36.256 L55.819,41.184 L59.067,43.648 C59.263001,43.7693339 59.4659989,43.8953327 59.676,44.026 C59.8860011,44.1566673 60.0189997,44.3106658 60.075,44.488 Z"/>
    <path fill="#E43535" fill-rule="nonzero" stroke="#FFF" stroke-width="2" d="M8.41021742,60.2903139 L62.5872217,6.41819854 C63.3704711,5.63935699 63.3740444,4.37303208 62.5952028,3.58978268 C61.8163613,2.80653328 60.5500364,2.80296001 59.766787,3.58180156 L5.58978268,57.4539169 C4.80653328,58.2327584 4.80296001,59.4990834 5.58180156,60.2823328 C6.36064311,61.0655822 7.62696802,61.0691554 8.41021742,60.2903139 Z"/>
  </g>
</svg>
