<svg xmlns="http://www.w3.org/2000/svg" width="64" height="64" viewBox="0 0 64 64">
  <g fill="none" fill-rule="evenodd">
    <g transform="matrix(-1 0 0 1 57 -6)">
      <path fill="#80D25B" d="M34.1561026,55.217237 C42.904695,55.217237 51.3530187,46.6818331 51.3530187,37.9332407 C51.3530187,29.1846483 37.1894084,5.25771305 37.1894084,5.25771305 C37.1894084,5.25771305 20.1191741,27.3680678 19.0857195,36.7665352 C18.0522649,46.1650025 25.4075102,55.217237 34.1561026,55.217237 Z" transform="rotate(36 35.17 30.237)"/>
      <path stroke="#22BA8E" stroke-linecap="round" stroke-width="3" d="M41.7607359,22.8672252 C41.7607359,22.8672252 27.1835686,31.8145106 21.8825517,48.2933444 C16.5815349,64.7721783 0.881913516,62.9007026 0.881913516,62.9007026"/>
      <polyline stroke="#22BA8E" stroke-linecap="round" stroke-width="2" points="33.946 43.659 24.202 43.245 19.486 34.936"/>
      <polyline stroke="#22BA8E" stroke-linecap="round" stroke-width="2" points="36.938 34.965 30.294 33.606 28.16 28.188"/>
    </g>
    <path fill="#E43535" fill-rule="nonzero" stroke="#FFF" stroke-width="2" d="M6.41021742,61.2903139 L60.5872217,7.41819854 C61.3704711,6.63935699 61.3740444,5.37303208 60.5952028,4.58978268 C59.8163613,3.80653328 58.5500364,3.80296001 57.766787,4.58180156 L3.58978268,58.4539169 C2.80653328,59.2327584 2.80296001,60.4990834 3.58180156,61.2823328 C4.36064311,62.0655822 5.62696802,62.0691554 6.41021742,61.2903139 Z"/>
  </g>
</svg>
