<svg xmlns="http://www.w3.org/2000/svg" width="64" height="64" viewBox="0 0 64 64">
  <g fill="none" fill-rule="evenodd">
    <rect width="26" height="8" x="21" y="13" fill="#979797"/>
    <rect width="36" height="46" x="16" y="17" fill="#D8D8D8" rx="3"/>
    <rect width="24" height="21" x="28" y="31" fill="#22BA8E"/>
    <path fill="#22BA8E" d="M17,4.99961498 C17,3.89525812 17.8997849,3 19.0022853,3 L47.9977147,3 C49.1035463,3 50,3.88743329 50,4.99961498 L50,13 L17,13 L17,4.99961498 Z"/>
    <polyline stroke="#FCC24C" stroke-linecap="round" stroke-width="3" points="41.701 34 38 41.006 43.091 41.006 40.261 47.807"/>
    <path fill="#E43535" fill-rule="nonzero" stroke="#FFF" stroke-width="2" d="M5.41021742,61.2903139 L59.5872217,7.41819854 C60.3704711,6.63935699 60.3740444,5.37303208 59.5952028,4.58978268 C58.8163613,3.80653328 57.5500364,3.80296001 56.766787,4.58180156 L2.58978268,58.4539169 C1.80653328,59.2327584 1.80296001,60.4990834 2.58180156,61.2823328 C3.36064311,62.0655822 4.62696802,62.0691554 5.41021742,61.2903139 Z"/>
  </g>
</svg>
