<svg xmlns="http://www.w3.org/2000/svg" width="64" height="64" viewBox="0 0 64 64">
  <g fill="none" fill-rule="evenodd">
    <rect width="58" height="58" x="3" y="3" fill="#22BA8E" rx="5"/>
    <rect width="3" height="3" x="13" y="13" fill="#80D25B"/>
    <rect width="3" height="3" x="13" y="18" fill="#80D25B"/>
    <rect width="3" height="3" x="13" y="23" fill="#80D25B"/>
    <rect width="3" height="3" x="13" y="28" fill="#80D25B"/>
    <rect width="3" height="3" x="13" y="33" fill="#80D25B"/>
    <rect width="3" height="3" x="13" y="38" fill="#80D25B"/>
    <rect width="3" height="3" x="13" y="43" fill="#80D25B"/>
    <rect width="3" height="3" x="13" y="48" fill="#80D25B"/>
    <rect width="3" height="3" x="18" y="13" fill="#80D25B"/>
    <rect width="3" height="3" x="23" y="13" fill="#80D25B"/>
    <rect width="3" height="3" x="28" y="13" fill="#80D25B"/>
    <rect width="3" height="3" x="33" y="13" fill="#80D25B"/>
    <rect width="3" height="3" x="38" y="13" fill="#80D25B"/>
    <rect width="3" height="3" x="18" y="18" fill="#80D25B"/>
    <rect width="3" height="3" x="23" y="18" fill="#80D25B"/>
    <rect width="3" height="3" x="28" y="18" fill="#80D25B"/>
    <rect width="3" height="3" x="33" y="18" fill="#80D25B"/>
    <rect width="3" height="3" x="38" y="18" fill="#80D25B"/>
    <rect width="3" height="3" x="23" y="43" fill="#80D25B"/>
    <rect width="3" height="3" x="28" y="43" fill="#80D25B"/>
    <rect width="3" height="3" x="33" y="43" fill="#80D25B"/>
    <rect width="3" height="3" x="38" y="43" fill="#80D25B"/>
    <rect width="3" height="3" x="23" y="48" fill="#80D25B"/>
    <rect width="3" height="3" x="28" y="48" fill="#80D25B"/>
    <rect width="3" height="3" x="33" y="48" fill="#80D25B"/>
    <rect width="3" height="3" x="38" y="48" fill="#80D25B"/>
    <rect width="3" height="3" x="18" y="23" fill="#80D25B"/>
    <rect width="3" height="3" x="18" y="28" fill="#80D25B"/>
    <rect width="3" height="3" x="18" y="33" fill="#80D25B"/>
    <rect width="3" height="3" x="18" y="38" fill="#80D25B"/>
    <rect width="3" height="3" x="18" y="43" fill="#80D25B"/>
    <rect width="3" height="3" x="18" y="48" fill="#80D25B"/>
    <rect width="3" height="3" x="48" y="13" fill="#80D25B"/>
    <rect width="3" height="3" x="48" y="18" fill="#80D25B"/>
    <rect width="3" height="3" x="48" y="23" fill="#80D25B"/>
    <rect width="3" height="3" x="48" y="28" fill="#80D25B"/>
    <rect width="3" height="3" x="48" y="33" fill="#80D25B"/>
    <rect width="3" height="3" x="48" y="38" fill="#80D25B"/>
    <rect width="3" height="3" x="48" y="43" fill="#80D25B"/>
    <rect width="3" height="3" x="48" y="48" fill="#80D25B"/>
    <rect width="3" height="3" x="43" y="13" fill="#80D25B"/>
    <rect width="3" height="3" x="43" y="18" fill="#80D25B"/>
    <rect width="3" height="3" x="43" y="23" fill="#80D25B"/>
    <rect width="3" height="3" x="43" y="28" fill="#80D25B"/>
    <rect width="3" height="3" x="43" y="33" fill="#80D25B"/>
    <rect width="3" height="3" x="43" y="38" fill="#80D25B"/>
    <rect width="3" height="3" x="43" y="43" fill="#80D25B"/>
    <rect width="3" height="3" x="43" y="48" fill="#80D25B"/>
    <rect width="44" height="44" x="10" y="10" stroke="#FFDD95" stroke-linecap="round" stroke-width="2" rx="3"/>
    <path fill="#E43535" fill-rule="nonzero" stroke="#FFF" stroke-width="2" d="M6.41021742,60.2903139 L60.5872217,6.41819854 C61.3704711,5.63935699 61.3740444,4.37303208 60.5952028,3.58978268 C59.8163613,2.80653328 58.5500364,2.80296001 57.766787,3.58180156 L3.58978268,57.4539169 C2.80653328,58.2327584 2.80296001,59.4990834 3.58180156,60.2823328 C4.36064311,61.0655822 5.62696802,61.0691554 6.41021742,60.2903139 Z"/>
  </g>
</svg>
