<svg xmlns="http://www.w3.org/2000/svg" width="64" height="64" viewBox="0 0 64 64">
  <g fill="none" fill-rule="evenodd">
    <path stroke="#979797" stroke-linecap="round" stroke-width="2" d="M27.9623766 14.2353087L19.4666924 6.53514264M33.9969704 15.2684979L46.2339809 1.98517238"/>
    <rect width="60" height="45" x="2" y="12" fill="#D8D8D8"/>
    <rect width="24" height="3" x="20" y="57" fill="#979797"/>
    <polygon fill="#D8D8D8" points="13 60 32 58 51 60 51 62 13 62"/>
    <rect width="54" height="33" x="5" y="15" fill="#595959"/>
    <path fill="#E43535" fill-rule="nonzero" stroke="#FFF" stroke-width="2" d="M7.41021742,60.2903139 L61.5872217,6.41819854 C62.3704711,5.63935699 62.3740444,4.37303208 61.5952028,3.58978268 C60.8163613,2.80653328 59.5500364,2.80296001 58.766787,3.58180156 L4.58978268,57.4539169 C3.80653328,58.2327584 3.80296001,59.4990834 4.58180156,60.2823328 C5.36064311,61.0655822 6.62696802,61.0691554 7.41021742,60.2903139 Z"/>
  </g>
</svg>
