<svg xmlns="http://www.w3.org/2000/svg" width="64" height="64" viewBox="0 0 64 64">
  <g fill="none" fill-rule="evenodd">
    <path fill="#E43535" d="M8,8.99668583 C8,6.23709245 10.2399344,4 13.0086136,4 L19.9913864,4 C22.7575673,4 25,6.24157855 25,8.99668583 L25,20 L8,20 L8,8.99668583 Z"/>
    <path fill="#ECECEC" d="M8,24.9966858 C8,22.2370924 10.2399344,20 13.0086136,20 L19.9913864,20 C22.7575673,20 25,22.2415785 25,24.9966858 L25,36 L8,36 L8,24.9966858 Z" transform="matrix(1 0 0 -1 0 56)"/>
    <g transform="rotate(-90 35.5 24.5)">
      <path fill="#E43535" d="M0,4.99668583 C0,2.23709245 2.23993443,0 5.00861359,0 L11.9913864,0 C14.7575673,0 17,2.24157855 17,4.99668583 L17,16 L0,16 L0,4.99668583 Z"/>
      <path fill="#ECECEC" d="M0,20.9966858 C0,18.2370924 2.23993443,16 5.00861359,16 L11.9913864,16 C14.7575673,16 17,18.2415785 17,20.9966858 L17,32 L0,32 L0,20.9966858 Z" transform="matrix(1 0 0 -1 0 48)"/>
    </g>
    <g transform="rotate(45 18.05 62.956)">
      <path fill="#E43535" d="M0,4.99668583 C0,2.23709245 2.23993443,0 5.00861359,0 L11.9913864,0 C14.7575673,0 17,2.24157855 17,4.99668583 L17,16 L0,16 L0,4.99668583 Z"/>
      <path fill="#ECECEC" d="M0,20.9966858 C0,18.2370924 2.23993443,16 5.00861359,16 L11.9913864,16 C14.7575673,16 17,18.2415785 17,20.9966858 L17,32 L0,32 L0,20.9966858 Z" transform="matrix(1 0 0 -1 0 48)"/>
    </g>
    <path fill="#E43535" fill-rule="nonzero" stroke="#FFF" stroke-width="2" d="M6.41021742,61.2903139 L60.5872217,7.41819854 C61.3704711,6.63935699 61.3740444,5.37303208 60.5952028,4.58978268 C59.8163613,3.80653328 58.5500364,3.80296001 57.766787,4.58180156 L3.58978268,58.4539169 C2.80653328,59.2327584 2.80296001,60.4990834 3.58180156,61.2823328 C4.36064311,62.0655822 5.62696802,62.0691554 6.41021742,61.2903139 Z"/>
  </g>
</svg>
