<svg xmlns="http://www.w3.org/2000/svg" width="64" height="64" viewBox="0 0 64 64">
  <g fill="none" fill-rule="evenodd">
    <path fill="#D8D8D8" d="M12.6698651,22.4836121 C13.4044783,21.6642357 14.8923153,21 15.9968516,21 L61.0031484,21 C62.1059791,21 63,21.8997127 63,22.9932874 L63,48.0067126 C63,49.1075748 62.1076847,50 61.0031484,50 L15.9968516,50 C14.8940209,50 13.4076363,49.3392866 12.6698651,48.5163879 L1,35.5 L12.6698651,22.4836121 Z M11,38 C12.6568542,38 14,36.6568542 14,35 C14,33.3431458 12.6568542,32 11,32 C9.34314575,32 8,33.3431458 8,35 C8,36.6568542 9.34314575,38 11,38 Z"/>
    <path fill="#595959" d="M39.584,43.676 C39.584,44.4040036 39.3530023,45.0409973 38.891,45.587 C38.4289977,46.1330027 37.8573367,46.406 37.176,46.406 C35.8039931,46.406 34.7960032,45.7526732 34.152,44.446 C33.4519965,43.9886644 33.102,43.6013349 33.102,43.284 C33.102,43.1253325 33.199999,42.9946672 33.396,42.892 C33.7786686,42.6866656 34.1286651,42.584 34.446,42.584 C35.1366701,42.584 35.5986655,42.9946626 35.832,43.816 C35.9440006,44.0400011 36.0606661,44.2639989 36.182,44.488 C36.3033339,44.7120011 36.4666656,44.824 36.672,44.824 C37.2226694,44.824 37.498,44.4320039 37.498,43.648 C37.498,42.9479965 37.3720013,42.4766679 37.12,42.234 C37.0079994,42.1313328 36.5600039,41.9166683 35.776,41.59 C35.1506635,41.3286654 34.6466686,40.8806698 34.264,40.246 C33.9186649,39.6673304 33.7413334,39.0653365 33.732,38.44 C33.7226666,37.431995 33.9746641,36.5360039 34.488,35.752 C35.029336,34.9119958 35.7013293,34.492 36.504,34.492 C37.437338,34.492 38.1186645,34.8653296 38.548,35.612 C38.8280014,36.078669 38.9866665,36.6573299 39.024,37.348 C39.1266672,37.7026684 39.178,38.0246652 39.178,38.314 C39.178,38.5006676 39.1546669,38.6546661 39.108,38.776 C38.9679993,39.1213351 38.6926687,39.294 38.282,39.294 C37.9739985,39.294 37.6940013,39.1820011 37.442,38.958 C37.1619986,38.7153321 36.9893337,38.3746689 36.924,37.936 C36.8959999,37.7866659 36.9263329,37.6373341 37.015,37.488 C37.1036671,37.3386659 37.148,37.2546668 37.148,37.236 C37.148,37.2173332 37.1386668,37.1986668 37.12,37.18 C37.1293334,37.1333331 37.134,37.0866669 37.134,37.04 C37.134,36.7599986 36.9706683,36.6293332 36.644,36.648 C36.3266651,36.6666668 36.0793342,36.8766647 35.902,37.278 C35.7433325,37.6233351 35.6733332,38.0199978 35.692,38.468 C35.7200001,39.2613373 36.2426616,39.8959976 37.26,40.372 C38.0626707,40.7453352 38.6179985,41.1139982 38.926,41.478 C39.3646689,42.0006693 39.584,42.7333286 39.584,43.676 Z M48.068,43.144 C48.0026663,43.2653339 47.8580011,43.3399999 47.634,43.368 C47.6153332,43.368 47.4146686,43.3773332 47.032,43.396 C47.0973337,43.8160021 47.3399979,44.3386635 47.76,44.964 C48.0026679,45.1413342 48.124,45.3746652 48.124,45.664 C48.124,46.1213356 47.8440028,46.35 47.284,46.35 C46.7519973,46.35 46.388001,46.214668 46.192,45.944 C46.1266663,45.8506662 46.0846668,45.7246675 46.066,45.566 C46.066,45.4633328 46.0613334,45.3560006 46.052,45.244 C45.9679996,45.1599996 45.7160021,44.6186717 45.296,43.62 C44.5306628,43.7320006 43.5880056,43.8906656 42.468,44.096 C42.3559994,44.366668 42.2346673,44.7586641 42.104,45.272 C42.1226668,45.3653338 42.132,45.4539996 42.132,45.538 C42.132,45.7900013 42.0480008,45.983666 41.88,46.119 C41.7119992,46.254334 41.5113345,46.322 41.278,46.322 C41.0166654,46.322 40.7740011,46.224001 40.55,46.028 C40.3259989,45.831999 40.214,45.6033346 40.214,45.342 C40.214,45.1086655 40.3213323,44.8986676 40.536,44.712 C41.2360035,41.1559822 42.0853283,38.2160116 43.084,35.892 C43.0653332,35.7799994 43.056,35.6680006 43.056,35.556 C43.056,35.089331 43.2146651,34.7813341 43.532,34.632 C43.6626673,34.5759997 43.8306656,34.548 44.036,34.548 C44.428002,34.548 44.7546654,34.6086661 45.016,34.73 C45.3520017,34.8980008 45.52,35.1499983 45.52,35.486 C45.52,35.7940015 45.4360008,36.0693321 45.268,36.312 C45.4453342,37.8986746 45.8279971,39.7279896 46.416,41.8 C46.4720003,41.7906666 46.6633317,41.7440004 46.99,41.66 C47.186001,41.6039997 47.3353328,41.576 47.438,41.576 C47.5593339,41.576 47.657333,41.6039997 47.732,41.66 C48.0586683,41.9120013 48.222,42.2199982 48.222,42.584 C48.222,42.780001 48.1706672,42.9666658 48.068,43.144 Z M44.708,42.08 C44.5493325,41.4919971 44.2973351,40.362675 43.952,38.692 C43.28933,40.1386739 42.8973339,41.3799948 42.776,42.416 L44.708,42.08 Z M54.424,43.844 C54.4800003,43.9560006 54.508,44.0819993 54.508,44.222 C54.508,44.4553345 54.4356674,44.6793323 54.291,44.894 C54.1463326,45.1086677 53.9783343,45.2509996 53.787,45.321 C53.5956657,45.3910003 53.3226684,45.426 52.968,45.426 C52.6133316,45.426 52.3566675,45.4493331 52.198,45.496 C52.0393325,45.5426669 51.8573344,45.6873321 51.652,45.93 C51.4746658,46.126001 51.1666689,46.2566663 50.728,46.322 C50.457332,46.3593335 50.1820014,46.2660011 49.902,46.042 C49.6219986,45.8179989 49.4306672,45.5426683 49.328,45.216 C49.3093332,45.1506663 49.3,45.0900003 49.3,45.034 C49.3,44.9126661 49.367666,44.7773341 49.503,44.628 C49.638334,44.4786659 49.7013334,44.3480006 49.692,44.236 L49.104,35.752 C49.104,35.7146665 49.0550005,35.628334 48.957,35.493 C48.8589995,35.357666 48.81,35.2433338 48.81,35.15 C48.81,35.0193327 48.8799993,34.8933339 49.02,34.772 C49.216001,34.5946658 49.4959982,34.506 49.86,34.506 C50.1680015,34.506 50.4643319,34.5713327 50.749,34.702 C51.0336681,34.8326673 51.213333,34.9866658 51.288,35.164 C51.3346669,35.2666672 51.358,35.355333 51.358,35.43 C51.358,35.5140004 51.3160004,35.5979996 51.232,35.682 C51.1479996,35.7660004 51.1106666,35.845333 51.12,35.92 L51.624,43.648 L52.464,43.312 C52.6413342,43.2279996 52.8209991,43.1463337 53.003,43.067 C53.1850009,42.9876663 53.3366661,42.948 53.458,42.948 C53.7940017,42.948 54.1159985,43.2466637 54.424,43.844 Z M59.856,36.34 C59.7533328,36.536001 59.5340017,36.634 59.198,36.634 C58.7593311,36.634 58.502667,36.6479999 58.428,36.676 C58.0826649,36.8253341 57.6813356,36.9933324 57.224,37.18 C57.1959999,37.8893369 57.182,38.6686624 57.182,39.518 C57.182,41.2446753 57.2333328,43.0133243 57.336,44.824 C57.336,44.9546673 57.3849995,45.1249989 57.483,45.335 C57.5810005,45.545001 57.63,45.6966662 57.63,45.79 C57.63,45.9113339 57.5880004,46.0233328 57.504,46.126 C57.2986656,46.4060014 56.9906687,46.546 56.58,46.546 C56.2253316,46.546 55.8870016,46.4503343 55.565,46.259 C55.2429984,46.0676657 55.0586669,45.8413346 55.012,45.58 C54.9839999,45.4399993 55.0563325,45.2813342 55.229,45.104 C55.4016675,44.9266658 55.488,44.7586675 55.488,44.6 C55.4226663,42.7426574 55.39,41.1186736 55.39,39.728 C55.39,38.8879958 55.4039999,38.2160025 55.432,37.712 C55.4226666,37.712 55.2920013,37.7586662 55.04,37.852 C54.8719992,37.9173337 54.7366672,37.95 54.634,37.95 C54.4846659,37.95 54.3493339,37.8986672 54.228,37.796 C53.9293318,37.5439987 53.742667,37.3760004 53.668,37.292 C53.5186659,37.1239992 53.444,36.9466676 53.444,36.76 C53.444,36.6946663 53.4533332,36.6200004 53.472,36.536 C53.5000001,36.4053327 54.1813267,36.1393353 55.516,35.738 C56.9533405,35.2993311 57.7279994,35.042667 57.84,34.968 C57.9426672,34.9306665 58.0569994,34.8466673 58.183,34.716 C58.3090006,34.5853327 58.4466659,34.5106668 58.596,34.492 C58.8013344,34.4733332 59.0719983,34.6086652 59.408,34.898 C59.7813352,35.2246683 59.968,35.5653316 59.968,35.92 C59.968,36.0600007 59.930667,36.1999993 59.856,36.34 Z"/>
    <path fill="#E43535" fill-rule="nonzero" stroke="#FFF" stroke-width="2" d="M6.41021742,60.2903139 L60.5872217,6.41819854 C61.3704711,5.63935699 61.3740444,4.37303208 60.5952028,3.58978268 C59.8163613,2.80653328 58.5500364,2.80296001 57.766787,3.58180156 L3.58978268,57.4539169 C2.80653328,58.2327584 2.80296001,59.4990834 3.58180156,60.2823328 C4.36064311,61.0655822 5.62696802,61.0691554 6.41021742,60.2903139 Z"/>
  </g>
</svg>
