<svg xmlns="http://www.w3.org/2000/svg" width="64" height="64" viewBox="0 0 64 64">
  <g fill="none" fill-rule="evenodd">
    <circle cx="46" cy="32" r="7" fill="#0A3586"/>
    <path fill="#FCC24C" d="M19,32 L43.3968113,8.47450338 C45.3867975,6.55558815 47,7.23452093 47,10.0075238 L47,53.9924762 C47,56.7580552 45.394031,57.451387 43.3968113,55.5254966 L19,32 Z"/>
    <path fill="#D8840F" d="M14,25.0095579 C14,22.7951402 15.787167,21 18.0072357,21 L31,21 L31,43 L18.0072357,43 C15.7941006,43 14,41.1996477 14,38.9904421 L14,25.0095579 Z"/>
    <path fill="#E43535" fill-rule="nonzero" stroke="#FFF" stroke-width="2" d="M6.41021742,61.2903139 L60.5872217,7.41819854 C61.3704711,6.63935699 61.3740444,5.37303208 60.5952028,4.58978268 C59.8163613,3.80653328 58.5500364,3.80296001 57.766787,4.58180156 L3.58978268,58.4539169 C2.80653328,59.2327584 2.80296001,60.4990834 3.58180156,61.2823328 C4.36064311,62.0655822 5.62696802,62.0691554 6.41021742,61.2903139 Z"/>
  </g>
</svg>
