<svg xmlns="http://www.w3.org/2000/svg" width="64" height="64" viewBox="0 0 64 64">
  <g fill="none" fill-rule="evenodd">
    <path fill="#595959" d="M12.6698651,22.4836121 C13.4044783,21.6642357 14.8923153,21 15.9968516,21 L61.0031484,21 C62.1059791,21 63,21.8997127 63,22.9932874 L63,48.0067126 C63,49.1075748 62.1076847,50 61.0031484,50 L15.9968516,50 C14.8940209,50 13.4076363,49.3392866 12.6698651,48.5163879 L1,35.5 L12.6698651,22.4836121 Z M11,38 C12.6568542,38 14,36.6568542 14,35 C14,33.3431458 12.6568542,32 11,32 C9.34314575,32 8,33.3431458 8,35 C8,36.6568542 9.34314575,38 11,38 Z"/>
    <path fill="#FFF" d="M27.97,43.676 C27.97,44.4040036 27.7390023,45.0409973 27.277,45.587 C26.8149977,46.1330027 26.2433367,46.406 25.562,46.406 C24.1899931,46.406 23.1820032,45.7526732 22.538,44.446 C21.8379965,43.9886644 21.488,43.6013349 21.488,43.284 C21.488,43.1253325 21.585999,42.9946672 21.782,42.892 C22.1646686,42.6866656 22.5146651,42.584 22.832,42.584 C23.5226701,42.584 23.9846655,42.9946626 24.218,43.816 C24.3300006,44.0400011 24.4466661,44.2639989 24.568,44.488 C24.6893339,44.7120011 24.8526656,44.824 25.058,44.824 C25.6086694,44.824 25.884,44.4320039 25.884,43.648 C25.884,42.9479965 25.7580013,42.4766679 25.506,42.234 C25.3939994,42.1313328 24.9460039,41.9166683 24.162,41.59 C23.5366635,41.3286654 23.0326686,40.8806698 22.65,40.246 C22.3046649,39.6673304 22.1273334,39.0653365 22.118,38.44 C22.1086666,37.431995 22.3606641,36.5360039 22.874,35.752 C23.415336,34.9119958 24.0873293,34.492 24.89,34.492 C25.823338,34.492 26.5046645,34.8653296 26.934,35.612 C27.2140014,36.078669 27.3726665,36.6573299 27.41,37.348 C27.5126672,37.7026684 27.564,38.0246652 27.564,38.314 C27.564,38.5006676 27.5406669,38.6546661 27.494,38.776 C27.3539993,39.1213351 27.0786687,39.294 26.668,39.294 C26.3599985,39.294 26.0800013,39.1820011 25.828,38.958 C25.5479986,38.7153321 25.3753337,38.3746689 25.31,37.936 C25.2819999,37.7866659 25.3123329,37.6373341 25.401,37.488 C25.4896671,37.3386659 25.534,37.2546668 25.534,37.236 C25.534,37.2173332 25.5246668,37.1986668 25.506,37.18 C25.5153334,37.1333331 25.52,37.0866669 25.52,37.04 C25.52,36.7599986 25.3566683,36.6293332 25.03,36.648 C24.7126651,36.6666668 24.4653342,36.8766647 24.288,37.278 C24.1293325,37.6233351 24.0593332,38.0199978 24.078,38.468 C24.1060001,39.2613373 24.6286616,39.8959976 25.646,40.372 C26.4486707,40.7453352 27.0039985,41.1139982 27.312,41.478 C27.7506689,42.0006693 27.97,42.7333286 27.97,43.676 Z M35.32,35.234 C35.4226672,35.4206676 35.474,35.5746661 35.474,35.696 L35.306,36.2 C35.2966666,37.2546719 35.2826668,38.3046614 35.264,39.35 C35.1613328,41.291343 34.9093353,42.8453275 34.508,44.012 C33.9479972,45.6173414 33.1220055,46.4479997 32.03,46.504 C30.7513269,46.5693337 29.8366694,45.5753436 29.286,43.522 C28.9033314,42.1126596 28.712,40.339344 28.712,38.202 C28.712,37.4179961 28.7306665,36.8346686 28.768,36.452 C28.6746662,36.1626652 28.628,35.920001 28.628,35.724 C28.628,35.4253318 28.7213324,35.178001 28.908,34.982 C29.0293339,34.8513327 29.2393318,34.786 29.538,34.786 C29.9020018,34.786 30.2286652,34.8699992 30.518,35.038 C30.8540017,35.234001 31.0313332,35.4859985 31.05,35.794 C31.0593334,35.9526675 31.0103339,36.1206658 30.903,36.298 C30.7956661,36.4753342 30.7513332,36.6246661 30.77,36.746 C30.7326665,36.8673339 30.751333,37.5813268 30.826,38.888 C30.9193338,40.3533407 31.0406659,41.5806617 31.19,42.57 C31.386001,43.8673398 31.6053321,44.5113334 31.848,44.502 C32.2680021,44.4833332 32.6179986,43.503343 32.898,41.562 C33.1220011,40.0033255 33.234,38.5566733 33.234,37.222 C33.234,36.9606654 33.2246668,36.7740006 33.206,36.662 C33.2246668,36.5406661 33.1546675,36.3633345 32.996,36.13 C32.8373325,35.8966655 32.758,35.7006675 32.758,35.542 C32.758,35.3739992 32.8233327,35.2013342 32.954,35.024 C33.150001,34.7439986 33.5093307,34.604 34.032,34.604 C34.6666698,34.604 35.0959989,34.8139979 35.32,35.234 Z M43.006,41.884 C42.8753327,42.0520008 42.6560015,42.1406666 42.348,42.15 C42.0866654,42.1593334 41.8300013,42.164 41.578,42.164 C41.4566661,43.1346715 41.2280017,44.0166627 40.892,44.81 C40.5373316,45.6313374 40.1593353,46.1259992 39.758,46.294 C39.6926663,46.3220001 39.6180004,46.336 39.534,46.336 C39.1606648,46.336 38.7360024,46.1260021 38.26,45.706 C37.7373307,45.239331 37.3080017,44.6466703 36.972,43.928 C36.5893314,43.069329 36.398,42.1453383 36.398,41.156 C36.4073334,39.5226585 36.6359978,38.0806729 37.084,36.83 C37.6160027,35.3366592 38.3393288,34.5853334 39.254,34.576 C39.9353367,34.5666666 40.4906645,34.9959957 40.92,35.864 C41.2466683,36.5080032 41.4753327,37.3386616 41.606,38.356 C41.7553341,38.5426676 41.83,38.7479989 41.83,38.972 C41.83,39.2053345 41.7553341,39.3943326 41.606,39.539 C41.4566659,39.6836674 41.2700011,39.756 41.046,39.756 C40.7939987,39.756 40.5256681,39.6930006 40.241,39.567 C39.9563319,39.4409994 39.7673338,39.3080007 39.674,39.168 C39.6179997,39.0839996 39.59,38.9953338 39.59,38.902 C39.59,38.9486669 39.627333,38.7666687 39.702,38.356 C39.5713327,37.2733279 39.4220008,36.732 39.254,36.732 C39.1046659,36.732 38.9133345,37.2453282 38.68,38.272 C38.4279987,39.3453387 38.302,40.2973292 38.302,41.128 C38.302,41.7160029 38.3976657,42.3809963 38.589,43.123 C38.7803343,43.8650037 38.9459993,44.236 39.086,44.236 C39.2166673,44.236 39.3659992,44.0353353 39.534,43.634 C39.7020008,43.2326647 39.8139997,42.8266687 39.87,42.416 C39.6459989,42.3133328 39.4220011,42.1360013 39.198,41.884 C38.9459987,41.6039986 38.82,41.3473345 38.82,41.114 C38.82,40.9646659 38.8853327,40.8363339 39.016,40.729 C39.1466673,40.6216661 39.3659985,40.5633334 39.674,40.554 C40.5046708,40.5353332 40.9619996,40.5213334 41.046,40.512 C41.1860007,40.4466663 41.3329992,40.3790003 41.487,40.309 C41.6410008,40.2389997 41.7786661,40.204 41.9,40.204 C42.1893348,40.204 42.4716653,40.3346654 42.747,40.596 C43.0223347,40.8573346 43.16,41.1326652 43.16,41.422 C43.16,41.5993342 43.1086672,41.7533327 43.006,41.884 Z M51.21,43.144 C51.1446663,43.2653339 51.0000011,43.3399999 50.776,43.368 C50.7573332,43.368 50.5566686,43.3773332 50.174,43.396 C50.2393337,43.8160021 50.4819979,44.3386635 50.902,44.964 C51.1446679,45.1413342 51.266,45.3746652 51.266,45.664 C51.266,46.1213356 50.9860028,46.35 50.426,46.35 C49.8939973,46.35 49.530001,46.214668 49.334,45.944 C49.2686663,45.8506662 49.2266668,45.7246675 49.208,45.566 C49.208,45.4633328 49.2033334,45.3560006 49.194,45.244 C49.1099996,45.1599996 48.8580021,44.6186717 48.438,43.62 C47.6726628,43.7320006 46.7300056,43.8906656 45.61,44.096 C45.4979994,44.366668 45.3766673,44.7586641 45.246,45.272 C45.2646668,45.3653338 45.274,45.4539996 45.274,45.538 C45.274,45.7900013 45.1900008,45.983666 45.022,46.119 C44.8539992,46.254334 44.6533345,46.322 44.42,46.322 C44.1586654,46.322 43.9160011,46.224001 43.692,46.028 C43.4679989,45.831999 43.356,45.6033346 43.356,45.342 C43.356,45.1086655 43.4633323,44.8986676 43.678,44.712 C44.3780035,41.1559822 45.2273283,38.2160116 46.226,35.892 C46.2073332,35.7799994 46.198,35.6680006 46.198,35.556 C46.198,35.089331 46.3566651,34.7813341 46.674,34.632 C46.8046673,34.5759997 46.9726656,34.548 47.178,34.548 C47.570002,34.548 47.8966654,34.6086661 48.158,34.73 C48.4940017,34.8980008 48.662,35.1499983 48.662,35.486 C48.662,35.7940015 48.5780008,36.0693321 48.41,36.312 C48.5873342,37.8986746 48.9699971,39.7279896 49.558,41.8 C49.6140003,41.7906666 49.8053317,41.7440004 50.132,41.66 C50.328001,41.6039997 50.4773328,41.576 50.58,41.576 C50.7013339,41.576 50.799333,41.6039997 50.874,41.66 C51.2006683,41.9120013 51.364,42.2199982 51.364,42.584 C51.364,42.780001 51.3126672,42.9666658 51.21,43.144 Z M47.85,42.08 C47.6913325,41.4919971 47.4393351,40.362675 47.094,38.692 C46.43133,40.1386739 46.0393339,41.3799948 45.918,42.416 L47.85,42.08 Z M59.974,45.076 C59.9833334,45.1320003 59.988,45.1833331 59.988,45.23 C59.988,45.5100014 59.8246683,45.7456657 59.498,45.937 C59.1713317,46.1283343 58.8306684,46.224 58.476,46.224 C58.2613323,46.224 58.0886673,46.1820004 57.958,46.098 C57.8646662,46.0419997 57.7830004,45.9323342 57.713,45.769 C57.6429996,45.6056659 57.5660004,45.4960003 57.482,45.44 L54.388,43.368 L54.514,44.656 C54.5233334,44.7213337 54.595666,44.8566656 54.731,45.062 C54.866334,45.2673344 54.934,45.4399993 54.934,45.58 C54.934,45.7853344 54.8033346,45.9766658 54.542,46.154 C54.3833325,46.2660006 54.1826679,46.322 53.94,46.322 C53.5946649,46.322 53.2726682,46.2286676 52.974,46.042 C52.6473317,45.8553324 52.4513337,45.6173348 52.386,45.328 C52.3766666,45.2719997 52.372,45.2253335 52.372,45.188 C52.372,45.0573327 52.4349994,44.9430005 52.561,44.845 C52.6870006,44.7469995 52.75,44.6560004 52.75,44.572 L52.302,36.592 C52.2926666,36.4706661 52.2413338,36.3096677 52.148,36.109 C52.0546662,35.9083323 52.008,35.7613338 52.008,35.668 C52.008,35.4253321 52.1666651,35.2293341 52.484,35.08 C52.7453346,34.9493327 53.011332,34.884 53.282,34.884 C53.4593342,34.884 53.6133327,34.9096664 53.744,34.961 C53.8746673,35.0123336 53.9633331,35.0916661 54.01,35.199 C54.0566669,35.3063339 54.1126663,35.36 54.178,35.36 C54.1873334,35.3693334 54.4719972,35.2666677 55.032,35.052 C55.6853366,34.8093321 56.2593309,34.688 56.754,34.688 C57.4726703,34.688 58.0513311,34.9399975 58.49,35.444 C58.6113339,35.5840007 58.672,35.7799987 58.672,36.032 C58.672,36.7133367 58.2800039,37.6746605 57.496,38.916 C56.7493296,40.0826725 55.9793373,41.0159965 55.186,41.716 L58.798,44.236 C58.8073334,44.2453334 59.0406644,44.3573323 59.498,44.572 C59.7593346,44.6933339 59.9179997,44.8613323 59.974,45.076 Z M56.222,36.382 C56.0166656,36.382 55.6900022,36.577998 55.242,36.97 C55.1486662,37.044667 54.8033363,37.3666638 54.206,37.936 L54.178,40.442 C54.7566696,39.8073302 55.279331,39.1003372 55.746,38.321 C56.212669,37.5416628 56.446,36.9840017 56.446,36.648 C56.446,36.4706658 56.3713341,36.382 56.222,36.382 Z"/>
    <path fill="#E43535" fill-rule="nonzero" stroke="#FFF" stroke-width="2" d="M6.41021742,60.2903139 L60.5872217,6.41819854 C61.3704711,5.63935699 61.3740444,4.37303208 60.5952028,3.58978268 C59.8163613,2.80653328 58.5500364,2.80296001 57.766787,3.58180156 L3.58978268,57.4539169 C2.80653328,58.2327584 2.80296001,59.4990834 3.58180156,60.2823328 C4.36064311,61.0655822 5.62696802,61.0691554 6.41021742,60.2903139 Z"/>
  </g>
</svg>
