<svg xmlns="http://www.w3.org/2000/svg" width="64" height="64" viewBox="0 0 64 64">
  <g fill="none" fill-rule="evenodd">
    <path fill="#D650C7" d="M15.44,31.31 C15.44,31.8100025 15.2900015,32.254998 14.99,32.645 C14.6899985,33.0350019 14.3100023,33.2200001 13.85,33.2 C13.5299984,33.1799999 12.7500062,32.7550041 11.51,31.925 C10.2699938,31.0949958 9.6400001,30.5200016 9.62,30.2 C9.62,30.0599993 9.6499997,29.8750012 9.71,29.645 C9.7700003,29.4149989 9.8,29.2400006 9.8,29.12 L9.8,16.52 C9.8,16.0599977 9.3500045,15.730001 8.45,15.53 C7.449995,15.2899988 6.8800007,14.9600021 6.74,14.54 C6.6599996,14.3199989 6.62,14.110001 6.62,13.91 C6.62,13.4699978 6.8399978,12.950003 7.28,12.35 C7.880003,11.5299959 8.2399994,11.0000012 8.36,10.76 L9.08,8.42 C9.4200017,7.5399956 10.0099958,7.1 10.85,7.1 C11.7100043,7.1 12.5699957,7.3599974 13.43,7.88 C14.3900048,8.4600029 14.87,9.1199963 14.87,9.86 L14.87,29.75 C14.87,29.950001 14.964999,30.2049985 15.155,30.515 C15.3450009,30.8250016 15.44,31.0899989 15.44,31.31 Z"/>
    <path fill="#5EA7FF" d="M37.94,39 C38.0000003,39.5800029 37.630004,39.9899988 36.83,40.23 C36.5699987,40.1899998 36.1900025,40.1999997 35.69,40.26 C35.3299982,40.26 34.2000095,40.5499971 32.3,41.13 C30.1599893,41.730003 28.5700052,42.2899974 27.53,42.81 C27.2499986,42.9500007 26.9950012,43.1349988 26.765,43.365 C26.5349988,43.5950012 26.3900003,43.71 26.33,43.71 C26.0299985,43.7500002 25.1600072,43.2300054 23.72,42.15 C23.319998,41.9099988 22.920002,41.6500014 22.52,41.37 C22.119998,41.0899986 21.9100001,40.7600019 21.89,40.38 C21.89,40.2399993 22.7599913,38.9300124 24.5,36.45 C26.6400107,33.4099848 28.2999941,30.8700102 29.48,28.83 C31.3000091,25.6099839 32.2799993,23.0600094 32.42,21.18 C30.8599922,21.8200032 29.3000078,23.2599888 27.74,25.5 C27.6199994,25.6000005 27.5450002,25.7849986 27.515,26.055 C27.4849998,26.3250013 27.4300004,26.5099995 27.35,26.61 C27.149999,26.8700013 26.8600019,27 26.48,27 C25.8199967,27 25.0200047,26.6800032 24.08,26.04 L22.88,25.38 C22.3999976,25.1199987 22.1500001,24.890001 22.13,24.69 C22.0899998,24.2299977 22.5899948,23.3400066 23.63,22.02 C24.7500056,20.619993 25.9899932,19.4300049 27.35,18.45 C28.9700081,17.249994 30.4099937,16.65 31.67,16.65 C32.1500024,16.65 32.6049979,16.8049985 33.035,17.115 C33.4650021,17.4250015 33.879998,17.7399984 34.28,18.06 C35.9000081,19.1800056 36.9299978,20.239995 37.37,21.24 C37.4500004,21.440001 37.49,21.6999984 37.49,22.02 C37.49,23.420007 36.7500074,25.6999842 35.27,28.86 C33.869993,31.8400149 32.370008,34.429989 30.77,36.63 C31.3900031,36.429999 32.2499945,36.130002 33.35,35.73 C33.4700006,35.6699997 33.6799985,35.5300011 33.98,35.31 C34.180001,35.1699993 34.3699991,35.1099999 34.55,35.13 C35.0300024,35.1900003 35.7049957,35.7549947 36.575,36.825 C37.4450044,37.8950054 37.8999998,38.6199981 37.94,39 Z"/>
    <path fill="#56E287" d="M57.68,38.46 C57.5399993,39.860007 56.6300084,41.5399902 54.95,43.5 C56.9700101,45.2000085 57.98,47.1399891 57.98,49.32 C57.98,51.5600112 56.9900099,53.7099897 55.01,55.77 C53.209991,57.6100092 51.5200079,58.5799995 49.94,58.68 C49.2999968,58.7200002 47.9900099,57.940008 46.01,56.34 C44.0899904,54.7799922 43.1200001,53.800002 43.1,53.4 C43.0799999,52.9399977 43.2999977,52.5200019 43.76,52.14 C44.2200023,51.7599981 44.6599979,51.5799999 45.08,51.6 C45.3600014,51.6200001 45.8099969,51.9899964 46.43,52.71 C47.0500031,53.4300036 47.6199974,53.8399995 48.14,53.94 C48.9600041,54.1200009 50.069993,53.2900092 51.47,51.45 C52.8100067,49.7099913 53.48,48.4200042 53.48,47.58 C53.48,47.2199982 53.2500023,47.04 52.79,47.04 C52.4699984,47.04 52.0900022,47.1999984 51.65,47.52 C51.3299984,47.7400011 51.0150016,47.9649989 50.705,48.195 C50.3949985,48.4250012 50.0900015,48.5200002 49.79,48.48 C49.4499983,48.4399998 48.9050038,48.120003 48.155,47.52 C47.4049963,46.919997 46.7900024,46.3000032 46.31,45.66 C46.2099995,45.5199993 46.16,45.3600009 46.16,45.18 C46.16,44.6199972 46.4299973,44.2200012 46.97,43.98 C47.7300038,43.6399983 48.6499946,42.9200055 49.73,41.82 C51.2900078,40.1999919 52.2599981,38.4800091 52.64,36.66 C51.839996,36.8400009 50.9500049,37.5849935 49.97,38.895 C48.9899951,40.2050066 48.3800012,40.8999996 48.14,40.98 C47.7599981,41.1200007 47.0350054,40.8800031 45.965,40.26 C44.8949947,39.6399969 44.2000016,39.0900024 43.88,38.61 C43.8199997,38.5299996 43.79,38.4300006 43.79,38.31 C43.79,37.9899984 44.0599973,37.530003 44.6,36.93 C46.2600083,35.0699907 47.3999969,33.8800026 48.02,33.36 C49.3200065,32.2599945 50.5599941,31.7399997 51.74,31.8 C53.0600066,31.8800004 54.4149931,32.6899923 55.805,34.23 C57.195007,35.7700077 57.8200007,37.1799936 57.68,38.46 Z"/>
  </g>
</svg>
