<svg xmlns="http://www.w3.org/2000/svg" width="64" height="64" viewBox="0 0 64 64">
  <g fill="none" fill-rule="evenodd">
    <path fill="#FF78C7" d="M8.27458916,23.9957868 C8.27458916,23.9957868 0.955421246,35.3917054 14.4377598,34.2825808 C27.9200983,33.1734562 19.1736575,13.8906244 19.9242062,10.386892 C20.6747548,6.88315973 23.8908061,1.56897041 33.641494,2.41326443 C43.3921818,3.25755846 43.211722,9.90879078 43.211722,12.8277865 C43.211722,15.7467822 38.522111,29.3082184 43.0546985,31.7953996 C47.587286,34.2825808 61.4112092,37.1201353 56.1532671,24.2535865 L57.0268565,22.0540863 C57.0268565,22.0540863 65.4504618,30.9762996 56.6841001,36.9994381 C47.9177384,43.0225766 35.8907964,33.6533152 35.8907964,33.6533152 C35.8907964,33.6533152 31.5585895,52.8711112 43.1759816,54.3891999 C54.7933736,55.9072886 57.2442285,51.1239323 57.2442285,49.8478237 C57.2442285,48.5717152 59.4829846,51.2176776 59.4829846,51.2176776 C59.4829846,51.2176776 56.1749457,61.3691268 44.164995,60.0766128 C32.1550443,58.7840989 26.1424522,47.5786005 24.5300322,35.9160935 C24.5300322,35.9160935 17.7768518,41.4259762 12.2148232,40.1053386 C6.65279467,38.7847011 -0.509349789,33.4904326 6.28425827,22.344111 L8.27458916,23.9957868 Z"/>
    <circle cx="31.5" cy="15.5" r="5.5" fill="#FFF"/>
    <circle cx="31.5" cy="15.5" r="2.5" fill="#E43535"/>
  </g>
</svg>
