<svg xmlns="http://www.w3.org/2000/svg" width="64" height="64" viewBox="0 0 64 64">
  <g fill="none" fill-rule="evenodd">
    <path stroke="#D650C7" stroke-linecap="round" stroke-width="2" d="M17,41 L17,53.0062606 C17,56.3165115 14.3069658,59 11,59 L11,59 C7.6862915,59 5,56.3052181 5,53.0062606"/>
    <path stroke="#D650C7" stroke-linecap="round" stroke-width="2" d="M57,41.5 L57,53.5062606 C57,56.8165115 54.3069658,59.5 51,59.5 L51,59.5 C47.6862915,59.5 45,56.8052181 45,53.5062606" transform="matrix(-1 0 0 1 102 0)"/>
    <path stroke="#D650C7" stroke-linecap="round" stroke-linejoin="round" stroke-width="2" d="M31 40L31 58M24 34L24 52M38 34L38 52"/>
    <path fill="#FF78C7" d="M8,22 C8,10.954305 16.9511199,2 28.0090152,2 L33.9909848,2 C45.0416587,2 54,10.9518764 54,22 L54,42 L8,42 L8,22 Z"/>
    <circle cx="44" cy="24" r="2" fill="#595959"/>
    <circle cx="17.379" cy="24" r="2" fill="#595959"/>
  </g>
</svg>
