<svg xmlns="http://www.w3.org/2000/svg" width="64" height="64" viewBox="0 0 64 64">
  <g fill="none" fill-rule="evenodd">
    <rect width="7" height="20" x="53" y="41" fill="#9F5757"/>
    <polygon fill="#BD7575" points="3 41 60 41 53.19 48 3 48"/>
    <path fill="#D8D8D8" d="M40.1074028,32.3955983 C41.7078611,33.6473354 45.367911,41.043357 47.6176718,40.4405354 C50.1581737,39.75981 50.7690852,33.8018283 48.982181,27.1330108 C47.1952767,20.4641934 46.1392519,15.2975934 43.2909227,14.4474491 C42.194988,14.1203441 39.9663927,13.4510575 37.602784,14.8648292 C35.2391754,16.2786009 27.767385,16.2786009 25.4037764,14.8648292 C23.0401678,13.4510575 20.8115725,14.1203441 19.7156378,14.4474491 C16.8673086,15.2975934 15.8112837,20.4641934 14.0243795,27.1330108 C12.2374752,33.8018283 12.8483868,39.75981 15.3888887,40.4405354 C17.6386494,41.043357 21.2986993,33.6473354 22.8991577,32.3955983 C24.0076121,31.5286631 27.1630894,31.4411904 29.230341,31.4693382 L34.5878784,31.4654589 C36.5932201,31.4747841 39.1361419,31.6359638 40.1074028,32.3955983 Z"/>
    <path fill="#595959" d="M24,22 L24,19 L21,19 L21,22 L18,22 L18,25 L21,25 L21,28 L24,28 L24,25 L27,25 L27,22 L24,22 Z"/>
    <circle cx="40.5" cy="23.5" r="3.5" fill="#595959"/>
  </g>
</svg>
