<svg xmlns="http://www.w3.org/2000/svg" width="64" height="64" viewBox="0 0 64 64">
  <g fill="none" fill-rule="evenodd">
    <g transform="rotate(-15 27.692 -44.468)">
      <rect width="10" height="21" fill="#22BA8E"/>
      <polygon fill="#595959" fill-rule="nonzero" points="0 6 4 6 4 4 0 4"/>
      <polygon fill="#595959" fill-rule="nonzero" points="0 11 4 11 4 9 0 9"/>
      <polygon fill="#595959" fill-rule="nonzero" points="0 16 4 16 4 14 0 14"/>
    </g>
    <path stroke="#E43535" stroke-linecap="round" stroke-width="4" d="M39,31 L52.5069036,31 C53.331518,31 54,31.661977 54,32.5037099 L54,47.4962901 C54,48.3267661 53.3361142,49 52.5069036,49 L39,49 L39,31 Z"/>
    <path fill="#E43535" d="M15,22 L48,22 L48,58.2548747 C48,60.3232503 46.3181566,62 44.246609,62 L18.753391,62 C16.6804504,62 15,60.3195088 15,58.2548747 L15,22 Z"/>
    <path fill="#FFAF40" d="M32.6668065,46.7832581 C32.2985394,46.5924084 31.70552,46.5903046 31.3331935,46.7832581 L27.7225346,48.654436 C27.3542675,48.8452857 27.1119688,48.6767658 27.1830768,48.2680838 L27.8726513,44.3048653 C27.942984,43.9006391 27.7617607,43.3440333 27.4605422,43.0546031 L24.5394578,40.2478361 C24.2415235,39.9615616 24.3292386,39.6823309 24.7455123,39.622705 L28.7823517,39.0444792 C29.1940868,38.9855034 29.675104,38.6436059 29.8612673,38.2717747 L31.6665967,34.6659194 C31.8507303,34.2981423 32.14724,34.2940882 32.3334033,34.6659194 L34.1387327,38.2717747 C34.3228662,38.6395518 34.8013746,38.9848533 35.2176483,39.0444792 L39.2544877,39.622705 C39.6662228,39.6816808 39.7617607,39.9584059 39.4605422,40.2478361 L36.5394578,43.0546031 C36.2415235,43.3408776 36.0562407,43.8961832 36.1273487,44.3048653 L36.8169232,48.2680838 C36.8872559,48.6723099 36.649792,48.8473895 36.2774654,48.654436 L32.6668065,46.7832581 Z"/>
    <rect width="8" height="13" x="33" y="9" fill="#FFAF40"/>
    <rect width="8" height="3" x="33" y="6" fill="#D8D8D8"/>
    <path fill="#FF78C7" d="M33,4 C33,2.8954305 33.8867064,2 34.9981014,2 L39.0018986,2 C40.1054196,2 41,2.88772964 41,4 L41,6 L33,6 L33,4 Z"/>
  </g>
</svg>
