<svg xmlns="http://www.w3.org/2000/svg" width="64" height="64" viewBox="0 0 64 64">
  <g fill="none" fill-rule="evenodd">
    <rect width="7" height="20" x="53" y="44" fill="#9F5757"/>
    <polygon fill="#BD7575" points="3 44 60 44 53.19 51 3 51"/>
    <rect width="45" height="7" x="13" y="24" fill="#FF5EAC" rx="2"/>
    <rect width="45" height="7" x="10" y="17" fill="#5B68C0" rx="2"/>
    <path stroke="#FB3A3A" stroke-linecap="square" stroke-width="2" d="M23,25 L23,30"/>
    <path stroke="#BD7575" stroke-linecap="square" stroke-width="2" d="M20,18 L20,23"/>
    <path stroke="#FB3A3A" stroke-linecap="square" stroke-width="2" d="M47,25 L47,30"/>
    <path stroke="#BD7575" stroke-linecap="square" stroke-width="2" d="M44,18 L44,23"/>
    <path stroke="#FB3A3A" stroke-linecap="square" stroke-width="2" d="M51,25 L51,30"/>
    <path stroke="#BD7575" stroke-linecap="square" stroke-width="2" d="M48,18 L48,23"/>
    <rect width="48" height="13" x="10" y="31" fill="#56E287" rx="2"/>
    <path stroke="#3FBC6B" stroke-linecap="square" stroke-width="2" d="M48,32 L48,43"/>
    <polygon fill="#FB3A3A" points="16 30 24 30 24 40 20 36.733 16 40"/>
  </g>
</svg>
