<svg xmlns="http://www.w3.org/2000/svg" width="64" height="64" viewBox="0 0 64 64">
  <g fill="none" fill-rule="evenodd">
    <path fill="#BD7575" d="M9,33 L56,33 L56,39.9978137 C56,42.7604449 53.7647111,45 50.9924448,45 L14.0075552,45 C11.2419588,45 9,42.7710151 9,39.9978137 L9,33 Z"/>
    <rect width="9" height="13" x="29" y="45" fill="#D8D8D8"/>
    <path fill="#B6B6B6" d="M23,61 C23,59.3431458 24.3455902,58 26.008788,58 L40.991212,58 C42.6529197,58 44,59.3465171 44,61 L44,64 L23,64 L23,61 Z"/>
    <rect width="5" height="14" x="9" y="19" fill="#B6B6B6"/>
    <path fill="#B6B6B6" d="M5,19.5 C5,18.1192881 6.12165891,17 7.50700176,17 L14,17 L14,22 L7.50700176,22 C6.12242292,22 5,20.8903379 5,19.5 L5,19.5 Z"/>
    <rect width="5" height="14" x="51" y="19" fill="#B6B6B6"/>
    <path fill="#B6B6B6" d="M51,19.5 C51,18.1192881 52.1216589,17 53.5070018,17 L60,17 L60,22 L53.5070018,22 C52.1224229,22 51,20.8903379 51,19.5 L51,19.5 Z" transform="matrix(-1 0 0 1 111 0)"/>
    <path fill="#9F5757" d="M14,8.99240541 C14,4.57832179 17.5813344,1 22.005662,1 L42.994338,1 C47.415743,1 51,4.57766074 51,8.99240541 L51,33 L14,33 L14,8.99240541 Z"/>
  </g>
</svg>
