<svg xmlns="http://www.w3.org/2000/svg" width="64" height="64" viewBox="0 0 64 64">
  <g fill="none" fill-rule="evenodd">
    <g transform="rotate(60 24.62 35.857)">
      <path fill="#979797" d="M9,2.99686968 C9,1.34174426 10.3465171,0 12,0 L12,0 C13.6568542,0 15,1.34739093 15,2.99686968 L15,9 L9,9 L9,2.99686968 Z"/>
      <circle cx="12" cy="20" r="4" fill="#FFAF40"/>
      <path fill="#D8D8D8" d="M24,20 C24,13.372583 18.627417,8 12,8 C5.372583,8 0,13.372583 0,20 L24,20 Z"/>
    </g>
    <path fill="#FFAF40" d="M15.1135744,34.7412924 C15.1135744,33.909332 15.7793717,33.2348948 16.6135744,33.2348948 L16.6135744,33.2348948 C17.4420016,33.2348948 18.1135744,33.9113576 18.1135744,34.7412924 L18.1135744,42.2348948 L15.1135744,42.2348948 L15.1135744,34.7412924 Z" transform="scale(-1 1) rotate(-15 0 163.928)"/>
    <polygon fill="#979797" points="56 36 62 36 43 57 37 57"/>
    <path stroke="#979797" stroke-linecap="round" stroke-width="2" d="M45,10 L59.3734487,34.8955434"/>
    <circle cx="59" cy="35" r="4" fill="#D8D8D8"/>
    <path fill="#4796E7" d="M10,32.5063976 C10,31.6744372 10.6657972,31 11.5,31 L11.5,31 C12.3284271,31 13,31.6764628 13,32.5063976 L13,40 L10,40 L10,32.5063976 Z"/>
    <path fill="#22BA8E" d="M4.63121253,30.6580117 C4.63121253,29.8344087 5.29700977,29.1667464 6.13121253,29.1667464 L6.13121253,29.1667464 C6.95963966,29.1667464 7.63121253,29.8292908 7.63121253,30.6580117 L7.63121253,42.1667464 L4.63121253,42.1667464 L4.63121253,30.6580117 Z" transform="rotate(-15 6.131 35.667)"/>
    <path fill="#D8D8D8" d="M28.7563014,58.5546232 C29.4431772,57.6960285 30.9023438,57 31.9945615,57 L49.0054385,57 C50.1070044,57 51.5561829,57.6952286 52.2436986,58.5546232 L55,62 L26,62 L28.7563014,58.5546232 Z"/>
    <rect width="15" height="22" x="4" y="40" fill="#FF78C7"/>
  </g>
</svg>
