<svg xmlns="http://www.w3.org/2000/svg" width="64" height="64" viewBox="0 0 64 64">
  <g fill="none" fill-rule="evenodd">
    <polygon fill="#595959" points="8 4 33 4 33 63 8 63"/>
    <rect width="19" height="3" x="11" y="8" fill="#FFAF40"/>
    <rect width="19" height="3" x="11" y="14" fill="#FFAF40"/>
    <rect width="19" height="3" x="11" y="20" fill="#FFAF40"/>
    <rect width="19" height="3" x="11" y="26" fill="#4796E7"/>
    <rect width="19" height="3" x="11" y="32" fill="#4796E7"/>
    <rect width="19" height="3" x="11" y="38" fill="#4796E7"/>
    <rect width="19" height="3" x="11" y="44" fill="#FFAF40"/>
    <rect width="19" height="3" x="11" y="50" fill="#4796E7"/>
    <rect width="19" height="3" x="11" y="56" fill="#FFAF40"/>
    <rect width="23" height="30" x="33" y="33" fill="#979797"/>
    <rect width="7.076" height="5" x="41" y="58" fill="#FFAF40"/>
    <rect width="17" height="3" x="36" y="50" fill="#5B68C0"/>
    <rect width="17" height="3" x="36" y="44" fill="#5B68C0"/>
    <rect width="17" height="3" x="36" y="38" fill="#FFAF40"/>
  </g>
</svg>
