<svg xmlns="http://www.w3.org/2000/svg" width="64" height="64" viewBox="0 0 64 64">
  <g fill="none" fill-rule="evenodd">
    <rect width="7" height="20" x="55" y="44" fill="#9F5757"/>
    <polygon fill="#BD7575" points="5 44 62 44 55.19 51 5 51"/>
    <rect width="6" height="9" x="30" y="35" fill="#D8D8D8"/>
    <rect width="14" height="1" x="26" y="43" stroke="#979797" stroke-width="2"/>
    <path fill="#868686" d="M6,4.00741988 C6,2.34646775 7.33483887,1 8.99956092,1 L57.0004391,1 C58.6570508,1 60,2.34553934 60,4.00741988 L60,33.9925801 C60,35.6535323 58.6651611,37 57.0004391,37 L8.99956092,37 C7.34294917,37 6,35.6544607 6,33.9925801 L6,4.00741988 Z"/>
    <rect width="48" height="30" x="9" y="4" fill="#B4DFFB"/>
    <rect width="20" height="18" x="14" y="10" stroke="#979797" stroke-linecap="round" stroke-width="2"/>
    <path stroke="#979797" stroke-linecap="square" stroke-width="2" d="M15 16L32 16M15 22L32 22M20 11L20 28"/>
  </g>
</svg>
