<svg xmlns="http://www.w3.org/2000/svg" width="64" height="64" viewBox="0 0 64 64">
  <g fill="none" fill-rule="evenodd">
    <polygon fill="#4796E7" fill-rule="nonzero" points="24.609 57.209 26.326 59.669 56.737 38.444 40.101 15.481 37.672 17.241 52.516 37.732"/>
    <path fill="#B4DFFB" d="M29,10.5090731 C29,7.46649603 31.4686147,5 34.5,5 L34.5,5 C37.5375661,5 40,7.46140289 40,10.5090731 L40,28 L29,28 L29,10.5090731 Z" transform="rotate(45 34.5 16.5)"/>
    <path fill="#4796E7" d="M41.0312229,33.5312229 C41.0312229,24.1423822 33.4200637,16.5312229 24.0312229,16.5312229 C14.6423822,16.5312229 7.03122292,24.1423822 7.03122292,33.5312229 L41.0312229,33.5312229 Z" transform="rotate(45 24.031 25.031)"/>
    <path fill="#ED9111" d="M21.0533009,37.886039 C21.0533009,34.3875781 18.217238,31.5515152 14.7187771,31.5515152 C11.2203162,31.5515152 8.3842533,34.3875781 8.3842533,37.886039 L21.0533009,37.886039 Z" transform="scale(1 -1) rotate(-45 -69.1 0)"/>
    <rect width="49" height="4" x="7" y="57" fill="#BD7575" rx="2"/>
    <polygon fill="#FFAF40" fill-rule="nonzero" points="9.665 38.347 6.189 41.822 7.604 43.236 11.079 39.761"/>
    <polygon fill="#FFAF40" fill-rule="nonzero" points="7 35 4 35 4 37 7 37"/>
    <polygon fill="#FFAF40" fill-rule="nonzero" points="13 42 13 45 15 45 15 42"/>
  </g>
</svg>
