<svg xmlns="http://www.w3.org/2000/svg" width="64" height="64" viewBox="0 0 64 64">
  <g fill="none" fill-rule="evenodd">
    <path fill="#F5413E" d="M46,30 C48.1314227,30 55.013251,24.7889921 55.013251,20 C55.013251,14.4771525 52.5360984,10 47.013251,10 C46.0620827,10 45.2309146,10.1327977 44.5066255,10.3808639 C43.7823364,10.1327977 42.9511683,10 42,10 C36.4771525,10 34,14.4771525 34,20 C34,24.9031417 40.8818283,30 43.013251,30 C43.5052209,30 44.0047634,29.9644735 44.5066255,29.8958459 C45.0084875,29.9644735 45.50803,30 46,30 Z"/>
    <path stroke="#BD7575" stroke-width="2" d="M44.5390196,10.5419091 C44.5390196,10.5419091 44.2490302,9.28446254 47.7746085,6.69301947"/>
    <path fill="#56E287" d="M44.6359183,8.69500708 C44.6359183,8.69500708 38.4348825,7.56927161 40.3764208,4.70089761 C42.3179592,1.83252362 44.6359183,8.69500708 44.6359183,8.69500708 Z"/>
    <rect width="7" height="32" x="56" y="30" fill="#9F5757"/>
    <polygon fill="#BD7575" points="1 30 63 30 56.19 37 1 37"/>
    <rect width="39" height="13" x="15" y="39" fill="#BD7575"/>
    <rect width="10" height="3" x="30" y="41" fill="#9F5757"/>
  </g>
</svg>
