<svg xmlns="http://www.w3.org/2000/svg" width="64" height="64" viewBox="0 0 64 64">
  <g fill="none" fill-rule="evenodd" transform="translate(4 7)">
    <path fill="#D8D8D8" fill-rule="nonzero" d="M9.19247088,9.55125404 C8.86671803,9.99724005 8.96418628,10.622858 9.41017229,10.9486109 C9.85615831,11.2743637 10.4817763,11.1768955 10.8075291,10.7309094 L14.3053391,5.94208142 L10.7916703,1.38905142 C10.4542527,0.951823997 9.82627884,0.870912136 9.38905142,1.20832972 C8.951824,1.5457473 8.87091214,2.17372116 9.20832972,2.61094858 L11.8045238,5.97511007 L9.19247088,9.55125404 Z"/>
    <path fill="#D8D8D8" fill-rule="nonzero" d="M5.19247088,9.55125404 C4.86671803,9.99724005 4.96418628,10.622858 5.41017229,10.9486109 C5.85615831,11.2743637 6.48177627,11.1768955 6.80752912,10.7309094 L10.3053391,5.94208142 L6.79167028,1.38905142 C6.4542527,0.951823997 5.82627884,0.870912136 5.38905142,1.20832972 C4.951824,1.5457473 4.87091214,2.17372116 5.20832972,2.61094858 L7.80452379,5.97511007 L5.19247088,9.55125404 Z"/>
    <path fill="#D8D8D8" fill-rule="nonzero" d="M1.19247088,9.55125404 C0.866718034,9.99724005 0.964186277,10.622858 1.41017229,10.9486109 C1.85615831,11.2743637 2.48177627,11.1768955 2.80752912,10.7309094 L6.30533915,5.94208142 L2.79167028,1.38905142 C2.4542527,0.951823997 1.82627884,0.870912136 1.38905142,1.20832972 C0.951823997,1.5457473 0.870912136,2.17372116 1.20832972,2.61094858 L3.80452379,5.97511007 L1.19247088,9.55125404 Z"/>
    <polygon fill="#979797" fill-rule="nonzero" points="0 7 52 7 52 5 0 5"/>
    <polygon fill="#22BA8E" points="59 6 46 12 48 6 46 0"/>
    <path fill="#D8D8D8" fill-rule="nonzero" d="M9.19247088,29.551254 C8.86671803,29.9972401 8.96418628,30.622858 9.41017229,30.9486109 C9.85615831,31.2743637 10.4817763,31.1768955 10.8075291,30.7309094 L14.3053391,25.9420814 L10.7916703,21.3890514 C10.4542527,20.951824 9.82627884,20.8709121 9.38905142,21.2083297 C8.951824,21.5457473 8.87091214,22.1737212 9.20832972,22.6109486 L11.8045238,25.9751101 L9.19247088,29.551254 Z"/>
    <path fill="#D8D8D8" fill-rule="nonzero" d="M5.19247088,29.551254 C4.86671803,29.9972401 4.96418628,30.622858 5.41017229,30.9486109 C5.85615831,31.2743637 6.48177627,31.1768955 6.80752912,30.7309094 L10.3053391,25.9420814 L6.79167028,21.3890514 C6.4542527,20.951824 5.82627884,20.8709121 5.38905142,21.2083297 C4.951824,21.5457473 4.87091214,22.1737212 5.20832972,22.6109486 L7.80452379,25.9751101 L5.19247088,29.551254 Z"/>
    <path fill="#D8D8D8" fill-rule="nonzero" d="M1.19247088,29.551254 C0.866718034,29.9972401 0.964186277,30.622858 1.41017229,30.9486109 C1.85615831,31.2743637 2.48177627,31.1768955 2.80752912,30.7309094 L6.30533915,25.9420814 L2.79167028,21.3890514 C2.4542527,20.951824 1.82627884,20.8709121 1.38905142,21.2083297 C0.951823997,21.5457473 0.870912136,22.1737212 1.20832972,22.6109486 L3.80452379,25.9751101 L1.19247088,29.551254 Z"/>
    <polygon fill="#979797" fill-rule="nonzero" points="0 27 52 27 52 25 0 25"/>
    <polygon fill="#22BA8E" points="59 26 46 32 48 26 46 20"/>
    <path fill="#D8D8D8" fill-rule="nonzero" d="M9.19247088,49.551254 C8.86671803,49.9972401 8.96418628,50.622858 9.41017229,50.9486109 C9.85615831,51.2743637 10.4817763,51.1768955 10.8075291,50.7309094 L14.3053391,45.9420814 L10.7916703,41.3890514 C10.4542527,40.951824 9.82627884,40.8709121 9.38905142,41.2083297 C8.951824,41.5457473 8.87091214,42.1737212 9.20832972,42.6109486 L11.8045238,45.9751101 L9.19247088,49.551254 Z"/>
    <path fill="#D8D8D8" fill-rule="nonzero" d="M5.19247088,49.551254 C4.86671803,49.9972401 4.96418628,50.622858 5.41017229,50.9486109 C5.85615831,51.2743637 6.48177627,51.1768955 6.80752912,50.7309094 L10.3053391,45.9420814 L6.79167028,41.3890514 C6.4542527,40.951824 5.82627884,40.8709121 5.38905142,41.2083297 C4.951824,41.5457473 4.87091214,42.1737212 5.20832972,42.6109486 L7.80452379,45.9751101 L5.19247088,49.551254 Z"/>
    <path fill="#D8D8D8" fill-rule="nonzero" d="M1.19247088,49.551254 C0.866718034,49.9972401 0.964186277,50.622858 1.41017229,50.9486109 C1.85615831,51.2743637 2.48177627,51.1768955 2.80752912,50.7309094 L6.30533915,45.9420814 L2.79167028,41.3890514 C2.4542527,40.951824 1.82627884,40.8709121 1.38905142,41.2083297 C0.951823997,41.5457473 0.870912136,42.1737212 1.20832972,42.6109486 L3.80452379,45.9751101 L1.19247088,49.551254 Z"/>
    <polygon fill="#979797" fill-rule="nonzero" points="0 47 52 47 52 45 0 45"/>
    <polygon fill="#22BA8E" points="59 46 46 52 48 46 46 40"/>
  </g>
</svg>
