<svg xmlns="http://www.w3.org/2000/svg" width="64" height="64" viewBox="0 0 64 64">
  <g fill="none" fill-rule="evenodd">
    <path fill="#D8D8D8" fill-rule="nonzero" d="M11.1814561,30.4322401 C10.8744554,30.8720165 10.9663128,31.4889238 11.3866255,31.810141 C11.8069381,32.1313583 12.3965421,32.0352472 12.7035429,31.5954708 L16,26.8733192 L12.6885969,22.3836825 C12.3706029,21.9525427 11.7787787,21.8727574 11.3667204,22.205477 C10.9546622,22.5381966 10.878408,23.157427 11.196402,23.5885668 L13.6431451,26.9058879 L11.1814561,30.4322401 Z" transform="rotate(-45 13.5 27)"/>
    <path fill="#D8D8D8" fill-rule="nonzero" d="M8.18145612,33.4322401 C7.87445537,33.8720165 7.96631282,34.4889238 8.38662546,34.810141 C8.80693811,35.1313583 9.39654211,35.0352472 9.70354286,34.5954708 L13,29.8733192 L9.68859694,25.3836825 C9.37060294,24.9525427 8.77877866,24.8727574 8.36672042,25.205477 C7.95466218,25.5381966 7.87840804,26.157427 8.19640204,26.5885668 L10.6431451,29.9058879 L8.18145612,33.4322401 Z" transform="rotate(-45 10.5 30)"/>
    <path fill="#D8D8D8" fill-rule="nonzero" d="M6.18145612,36.4322401 C5.87445537,36.8720165 5.96631282,37.4889238 6.38662546,37.810141 C6.80693811,38.1313583 7.39654211,38.0352472 7.70354286,37.5954708 L11,32.8733192 L7.68859694,28.3836825 C7.37060294,27.9525427 6.77877866,27.8727574 6.36672042,28.205477 C5.95466218,28.5381966 5.87840804,29.157427 6.19640204,29.5885668 L8.64314512,32.9058879 L6.18145612,36.4322401 Z" transform="rotate(-45 8.5 33)"/>
    <polygon fill="#979797" fill-rule="nonzero" points="0 23 38 23 38 21 0 21" transform="rotate(-45 19 22)"/>
    <polygon fill="#22BA8E" points="39 8 26 14 28 8 26 2" transform="rotate(-45 32.5 8)"/>
    <path fill="#D8D8D8" fill-rule="nonzero" d="M33.1814561,54.4322401 C32.8744554,54.8720165 32.9663128,55.4889238 33.3866255,55.810141 C33.8069381,56.1313583 34.3965421,56.0352472 34.7035429,55.5954708 L38,50.8733192 L34.6885969,46.3836825 C34.3706029,45.9525427 33.7787787,45.8727574 33.3667204,46.205477 C32.9546622,46.5381966 32.878408,47.157427 33.196402,47.5885668 L35.6431451,50.9058879 L33.1814561,54.4322401 Z" transform="rotate(-45 35.5 51)"/>
    <path fill="#D8D8D8" fill-rule="nonzero" d="M30.1814561,57.4322401 C29.8744554,57.8720165 29.9663128,58.4889238 30.3866255,58.810141 C30.8069381,59.1313583 31.3965421,59.0352472 31.7035429,58.5954708 L35,53.8733192 L31.6885969,49.3836825 C31.3706029,48.9525427 30.7787787,48.8727574 30.3667204,49.205477 C29.9546622,49.5381966 29.878408,50.157427 30.196402,50.5885668 L32.6431451,53.9058879 L30.1814561,57.4322401 Z" transform="rotate(-45 32.5 54)"/>
    <path fill="#D8D8D8" fill-rule="nonzero" d="M28.1814561,60.4322401 C27.8744554,60.8720165 27.9663128,61.4889238 28.3866255,61.810141 C28.8069381,62.1313583 29.3965421,62.0352472 29.7035429,61.5954708 L33,56.8733192 L29.6885969,52.3836825 C29.3706029,51.9525427 28.7787787,51.8727574 28.3667204,52.205477 C27.9546622,52.5381966 27.878408,53.157427 28.196402,53.5885668 L30.6431451,56.9058879 L28.1814561,60.4322401 Z" transform="rotate(-45 30.5 57)"/>
    <polygon fill="#979797" fill-rule="nonzero" points="22 47 60 47 60 45 22 45" transform="rotate(-45 41 46)"/>
    <polygon fill="#22BA8E" points="61 32 48 38 50 32 48 26" transform="rotate(-45 54.5 32)"/>
    <path fill="#D8D8D8" fill-rule="nonzero" d="M17.1814561,47.4322401 C16.8744554,47.8720165 16.9663128,48.4889238 17.3866255,48.810141 C17.8069381,49.1313583 18.3965421,49.0352472 18.7035429,48.5954708 L22,43.8733192 L18.6885969,39.3836825 C18.3706029,38.9525427 17.7787787,38.8727574 17.3667204,39.205477 C16.9546622,39.5381966 16.878408,40.157427 17.196402,40.5885668 L19.6431451,43.9058879 L17.1814561,47.4322401 Z" transform="rotate(-45 19.5 44)"/>
    <path fill="#D8D8D8" fill-rule="nonzero" d="M15.1814561,50.4322401 C14.8744554,50.8720165 14.9663128,51.4889238 15.3866255,51.810141 C15.8069381,52.1313583 16.3965421,52.0352472 16.7035429,51.5954708 L20,46.8733192 L16.6885969,42.3836825 C16.3706029,41.9525427 15.7787787,41.8727574 15.3667204,42.205477 C14.9546622,42.5381966 14.878408,43.157427 15.196402,43.5885668 L17.6431451,46.9058879 L15.1814561,50.4322401 Z" transform="rotate(-45 17.5 47)"/>
    <path fill="#D8D8D8" fill-rule="nonzero" d="M12.1814561,53.4322401 C11.8744554,53.8720165 11.9663128,54.4889238 12.3866255,54.810141 C12.8069381,55.1313583 13.3965421,55.0352472 13.7035429,54.5954708 L17,49.8733192 L13.6885969,45.3836825 C13.3706029,44.9525427 12.7787787,44.8727574 12.3667204,45.205477 C11.9546622,45.5381966 11.878408,46.157427 12.196402,46.5885668 L14.6431451,49.9058879 L12.1814561,53.4322401 Z" transform="rotate(-45 14.5 50)"/>
    <polygon fill="#979797" fill-rule="nonzero" points="4 35 56 35 56 33 4 33" transform="rotate(-45 30 34)"/>
    <polygon fill="#22BA8E" points="55 15 42 21 44 15 42 9" transform="rotate(-45 48.5 15)"/>
  </g>
</svg>
