<svg xmlns="http://www.w3.org/2000/svg" width="64" height="64" viewBox="0 0 64 64">
  <g fill="none" fill-rule="evenodd" transform="scale(-1 1) rotate(-45 27.678 95.755)">
    <path fill="#D8D8D8" fill-rule="nonzero" d="M9.19247088,9.55125404 C8.86671803,9.99724005 8.96418628,10.622858 9.41017229,10.9486109 C9.85615831,11.2743637 10.4817763,11.1768955 10.8075291,10.7309094 L14.3053391,5.94208142 L10.7916703,1.38905142 C10.4542527,0.951823997 9.82627884,0.870912136 9.38905142,1.20832972 C8.951824,1.5457473 8.87091214,2.17372116 9.20832972,2.61094858 L11.8045238,5.97511007 L9.19247088,9.55125404 Z"/>
    <path fill="#D8D8D8" fill-rule="nonzero" d="M5.19247088,9.55125404 C4.86671803,9.99724005 4.96418628,10.622858 5.41017229,10.9486109 C5.85615831,11.2743637 6.48177627,11.1768955 6.80752912,10.7309094 L10.3053391,5.94208142 L6.79167028,1.38905142 C6.4542527,0.951823997 5.82627884,0.870912136 5.38905142,1.20832972 C4.951824,1.5457473 4.87091214,2.17372116 5.20832972,2.61094858 L7.80452379,5.97511007 L5.19247088,9.55125404 Z"/>
    <path fill="#D8D8D8" fill-rule="nonzero" d="M1.19247088,9.55125404 C0.866718034,9.99724005 0.964186277,10.622858 1.41017229,10.9486109 C1.85615831,11.2743637 2.48177627,11.1768955 2.80752912,10.7309094 L6.30533915,5.94208142 L2.79167028,1.38905142 C2.4542527,0.951823997 1.82627884,0.870912136 1.38905142,1.20832972 C0.951823997,1.5457473 0.870912136,2.17372116 1.20832972,2.61094858 L3.80452379,5.97511007 L1.19247088,9.55125404 Z"/>
    <polygon fill="#979797" fill-rule="nonzero" points="0 7 52 7 52 5 0 5"/>
    <polygon fill="#22BA8E" points="59 6 46 12 48 6 46 0"/>
  </g>
</svg>
