<svg xmlns="http://www.w3.org/2000/svg" width="64" height="64" viewBox="0 0 64 64">
  <g fill="none" fill-rule="evenodd">
    <path fill="#D8D8D8" fill-rule="nonzero" d="M13.1814561,33.4322401 C12.8744554,33.8720165 12.9663128,34.4889238 13.3866255,34.810141 C13.8069381,35.1313583 14.3965421,35.0352472 14.7035429,34.5954708 L18,29.8733192 L14.6885969,25.3836825 C14.3706029,24.9525427 13.7787787,24.8727574 13.3667204,25.205477 C12.9546622,25.5381966 12.878408,26.157427 13.196402,26.5885668 L15.6431451,29.9058879 L13.1814561,33.4322401 Z"/>
    <path fill="#D8D8D8" fill-rule="nonzero" d="M9.18145612,33.4322401 C8.87445537,33.8720165 8.96631282,34.4889238 9.38662546,34.810141 C9.80693811,35.1313583 10.3965421,35.0352472 10.7035429,34.5954708 L14,29.8733192 L10.6885969,25.3836825 C10.3706029,24.9525427 9.77877866,24.8727574 9.36672042,25.205477 C8.95466218,25.5381966 8.87840804,26.157427 9.19640204,26.5885668 L11.6431451,29.9058879 L9.18145612,33.4322401 Z"/>
    <path fill="#D8D8D8" fill-rule="nonzero" d="M5.18145612,33.4322401 C4.87445537,33.8720165 4.96631282,34.4889238 5.38662546,34.810141 C5.80693811,35.1313583 6.39654211,35.0352472 6.70354286,34.5954708 L10,29.8733192 L6.68859694,25.3836825 C6.37060294,24.9525427 5.77877866,24.8727574 5.36672042,25.205477 C4.95466218,25.5381966 4.87840804,26.157427 5.19640204,26.5885668 L7.64314512,29.9058879 L5.18145612,33.4322401 Z"/>
    <polygon fill="#979797" fill-rule="nonzero" points="4 32 56 32 56 30 4 30"/>
    <polygon fill="#22BA8E" points="63 31 50 37 52 31 50 25"/>
  </g>
</svg>
