<svg xmlns="http://www.w3.org/2000/svg" width="64" height="64" viewBox="0 0 64 64">
  <g fill="none" fill-rule="evenodd">
    <path fill="#C94C63" d="M8,35.0004544 C8,29.4773559 12.2323878,23.5133623 17.4641421,21.7633049 C17.4641421,21.7633049 27.122375,18.0700988 32,18.0700988 C36.877625,18.0700988 46.5514669,21.7683705 46.5514669,21.7683705 C51.7697476,23.5531502 56,29.4676957 56,35.0004544 L56,54 L8,54 L8,35.0004544 Z"/>
    <rect width="48" height="5" x="8" y="54" fill="#9F5757"/>
    <circle cx="32" cy="40" r="11" fill="#D8D8D8"/>
    <path fill="#C94C63" d="M32,35 C30.8954305,35 30,34.1045695 30,33 C30,31.8954305 30.8954305,31 32,31 C33.1045695,31 34,31.8954305 34,33 C34,34.1045695 33.1045695,35 32,35 Z M35.9185285,36.8942122 C35.2234003,36.0358004 35.3557679,34.7764076 36.2141796,34.0812795 C37.0725913,33.3861514 38.3319842,33.5185189 39.0271123,34.3769306 C39.7222404,35.2353423 39.5898729,36.4947352 38.7314612,37.1898633 C37.8730494,37.8849914 36.6136566,37.7526239 35.9185285,36.8942122 Z M36.8757553,41.1077444 C37.1242293,40.031485 38.198138,39.3604323 39.2743975,39.6089064 C40.3506569,39.8573805 41.0217096,40.9312892 40.7732355,42.0075486 C40.5247614,43.0838081 39.4508527,43.7548607 38.3745933,43.5063867 C37.2983338,43.2579126 36.6272812,42.1840039 36.8757553,41.1077444 Z M34.1604439,44.509194 C35.1532244,44.0249826 36.3505629,44.4372593 36.8347743,45.4300398 C37.3189857,46.4228203 36.906709,47.6201588 35.9139285,48.1043702 C34.921148,48.5885816 33.7238095,48.1763049 33.2395981,47.1835244 C32.7553867,46.1907439 33.1676634,44.9934054 34.1604439,44.509194 Z M29.8395561,44.509194 C30.8323366,44.9934054 31.2446133,46.1907439 30.7604019,47.1835244 C30.2761905,48.1763049 29.078852,48.5885816 28.0860715,48.1043702 C27.093291,47.6201588 26.6810143,46.4228203 27.1652257,45.4300398 C27.6494371,44.4372593 28.8467756,44.0249826 29.8395561,44.509194 Z M27.1242447,41.1077444 C27.3727188,42.1840039 26.7016662,43.2579126 25.6254067,43.5063867 C24.5491473,43.7548607 23.4752386,43.0838081 23.2267645,42.0075486 C22.9782904,40.9312892 23.6493431,39.8573805 24.7256025,39.6089064 C25.801862,39.3604323 26.8757707,40.031485 27.1242447,41.1077444 Z M28.0814715,36.8942122 C27.3863434,37.7526239 26.1269506,37.8849914 25.2685388,37.1898633 C24.4101271,36.4947352 24.2777596,35.2353423 24.9728877,34.3769306 C25.6680158,33.5185189 26.9274087,33.3861514 27.7858204,34.0812795 C28.6442321,34.7764076 28.7765997,36.0358004 28.0814715,36.8942122 Z"/>
    <path fill="#FFAF40" d="M62,21.0042651 L62,16.5 C62,13.4686147 59.5389088,11 56.502999,11 L7.49700101,11 C4.46393029,11 2,13.4624339 2,16.5 L2,21.0042651 L2,27.9914698 C2,29.0980496 2.89179693,30 3.99188419,30 L15.0081158,30 C16.1066027,30 17,29.1007504 17,27.9914698 L17,22 L47,22 L47,27.9914698 C47,29.0980496 47.8917969,30 48.9918842,30 L60.0081158,30 C61.1066027,30 62,29.1007504 62,27.9914698 L62,21.0042651 Z"/>
  </g>
</svg>
