<svg xmlns="http://www.w3.org/2000/svg" width="64" height="64" viewBox="0 0 64 64">
  <g fill="none" fill-rule="evenodd">
    <path stroke="#979797" stroke-linecap="round" stroke-width="2" d="M27.9623766 14.2353087L19.4666924 6.53514264M33.9969704 15.2684979L46.2339809 1.98517238"/>
    <rect width="60" height="45" x="2" y="12" fill="#D8D8D8"/>
    <rect width="24" height="3" x="20" y="57" fill="#979797"/>
    <polygon fill="#D8D8D8" points="13 60 32 58 51 60 51 62 13 62"/>
    <rect width="54" height="33" x="5" y="15" fill="#595959"/>
    <rect width="18" height="7" x="5" y="41" fill="#5B68C0"/>
    <rect width="18" height="7" x="23" y="41" fill="#D650C7"/>
    <rect width="18" height="21" x="5" y="15" fill="#FFAF40"/>
    <rect width="18" height="5" x="5" y="36" fill="#ECECEC"/>
    <rect width="18" height="5" x="23" y="36" fill="#D8D8D8"/>
    <rect width="18" height="5" x="41" y="36" fill="#979797"/>
    <rect width="18" height="21" x="23" y="15" fill="#80D25B"/>
    <rect width="18" height="21" x="41" y="15" fill="#F5413E"/>
  </g>
</svg>
