<svg xmlns="http://www.w3.org/2000/svg" width="64" height="64" viewBox="0 0 64 64">
  <g fill="none" fill-rule="evenodd">
    <path stroke="#979797" stroke-linecap="round" stroke-width="2" d="M28.9623766 14.2353087L20.4666924 6.53514264M34.9969704 15.2684979L47.2339809 1.98517238"/>
    <rect width="60" height="45" x="3" y="12" fill="#D8D8D8"/>
    <rect width="24" height="3" x="21" y="57" fill="#979797"/>
    <polygon fill="#D8D8D8" points="14 60 33 58 52 60 52 62 14 62"/>
    <rect width="54" height="33" x="6" y="15" fill="#595959"/>
    <path fill="#22BA8E" d="M17,46.4300731 C17,44.5121722 18.5386198,42.7802473 20.4606944,42.5589367 L34,41 L47.5393056,42.5589367 C49.4505943,42.7790054 51,44.5120296 51,46.4300731 L51,47.9574064 L17,47.9574064 L17,46.4300731 Z"/>
    <path fill="#FFDD95" d="M42.632989,34.9777752 C41.8924828,36.2244539 41.0028712,37.368286 40,38.3164468 L40,45 C40,45 35.9325778,46.4486507 34,46.4486507 C32.0674222,46.4486507 28,45 28,45 L28,38.3164468 C26.9971288,37.368286 26.1075172,36.2244539 25.367011,34.9777752 C25.2467275,34.992447 25.1242458,35 25,35 C23.3431458,35 22,33.6568542 22,32 C22,30.9904316 22.4986846,30.0973373 23.2631621,29.5536088 C23.0908744,28.6846078 23,27.8252381 23,27 C23,20.9248678 27.9248678,16 34,16 C40.0751322,16 45,20.9248678 45,27 C45,27.8252381 44.9091256,28.6846078 44.7368379,29.5536088 C45.5013154,30.0973373 46,30.9904316 46,32 C46,33.6568542 44.6568542,35 43,35 C42.8757542,35 42.7532725,34.992447 42.632989,34.9777752 Z"/>
  </g>
</svg>
