<svg xmlns="http://www.w3.org/2000/svg" xmlns:xlink="http://www.w3.org/1999/xlink" width="64" height="64" viewBox="0 0 64 64">
  <defs>
    <circle id="onlineweb-a" cx="18" cy="18" r="18"/>
  </defs>
  <g fill="none" fill-rule="evenodd">
    <rect width="6" height="11" x="29" y="48" fill="#D8D8D8"/>
    <rect width="14" height="1" x="25" y="60" stroke="#979797" stroke-width="2"/>
    <path fill="#868686" d="M2,13.995507 C2,12.3411342 3.33730974,11 4.99593743,11 L59.0040626,11 C60.6586731,11 62,12.3424683 62,13.995507 L62,47.004493 C62,48.6588658 60.6626903,50 59.0040626,50 L4.99593743,50 C3.34132688,50 2,48.6575317 2,47.004493 L2,13.995507 Z"/>
    <rect width="54" height="33" x="5" y="14" fill="#5B68C0"/>
    <g transform="translate(14 3)">
      <mask id="onlineweb-b" fill="#fff">
        <use xlink:href="#onlineweb-a"/>
      </mask>
      <use fill="#5EA7FF" xlink:href="#onlineweb-a"/>
      <path fill="#E8E8E8" d="M27.4995846 12.7538974C27.4995846 12.7538974 23.1285694 10.9700507 21.8266173 11.861974 20.5246651 12.7538974 21.2201882 16.9654295 21.2201882 16.9654295 21.2201882 16.9654295 19.2798118 19.7463344 20.25 21.2089567 21.2201882 22.671579 23.9151553 22.168808 25.4292591 23.4589466 26.943363 24.7490852 26.3142913 27.0645419 26.3142913 27.0645419L25.9480711 29.7678769C25.9480711 29.7678769 30.0035659 27.9505584 31.1721233 25.3323794 32.3406807 22.7142004 31.9621547 18.6094825 31.9621547 18.6094825L34.3292957 16.4633535 36.4108786 9.71288388 29.106228 7.35052093 28.3014296 3.75 23.0778696 5.23063215 22.6058196 9.15765453 26.6178479 10.4860101 27.4995846 12.7538974zM-1.35808945 15.0302297C-1.35808945 15.0302297.119366474 14.0882415.316563573 14.0732515 1.82943665 13.95825 7.10128473 14.2798648 8.47967433 12.2815326 10.0377316 10.0227256 11.3365045 7.03166932 11.3365045 7.03166932L11.2843185 4.73031431 3.13766281 2.73102683-1.35808945 15.0302297z" mask="url(#onlineweb-b)"/>
    </g>
    <path fill="#FFF" d="M42.3743687,41.7399652 L47.3743687,42.8743687 L41.3743687,27.8743687 L35.3743687,42.8743687 L40.3743687,41.7399652 L40.3743687,50.8743687 L42.3743687,50.8743687 L42.3743687,41.7399652 Z" transform="rotate(-45 41.374 39.374)"/>
  </g>
</svg>
