<svg xmlns="http://www.w3.org/2000/svg" width="64" height="64" viewBox="0 0 64 64">
  <g fill="none" fill-rule="evenodd">
    <rect width="6" height="11" x="31" y="46" fill="#D8D8D8"/>
    <rect width="14" height="1" x="27" y="58" stroke="#979797" stroke-width="2"/>
    <path fill="#868686" d="M4,11.995507 C4,10.3411342 5.33730974,9 6.99593743,9 L61.0040626,9 C62.6586731,9 64,10.3424683 64,11.995507 L64,45.004493 C64,46.6588658 62.6626903,48 61.0040626,48 L6.99593743,48 C5.34132688,48 4,46.6575317 4,45.004493 L4,11.995507 Z"/>
    <rect width="54" height="33" x="7" y="12" fill="#4796E7"/>
    <path fill="#FFF" d="M16.96,19.808 C17.4960027,20.3520027 17.764,21.2679936 17.764,22.556 C17.764,23.556005 17.5760019,24.4079965 17.2,25.112 C16.7759979,25.904004 16.1920037,26.3 15.448,26.3 C14.7119963,26.3 14.144002,25.9440036 13.744,25.232 C13.3919982,24.6079969 13.216,23.8160048 13.216,22.856 C13.216,22.0079958 13.3519986,21.2480034 13.624,20.576 C13.9120014,19.8559964 14.2799978,19.4320006 14.728,19.304 C14.9600012,19.2399997 15.1999988,19.208 15.448,19.208 C16.0640031,19.208 16.567998,19.407998 16.96,19.808 Z M15.592,20.384 C15.3279987,20.3599999 15.100001,20.6079974 14.908,21.128 C14.7399992,21.6000024 14.656,22.0959974 14.656,22.616 C14.656,23.3680038 14.6879997,23.8999984 14.752,24.212 C14.8640006,24.7720028 15.0959982,25.0799997 15.448,25.136 C15.6720011,25.1680002 15.879999,24.8600032 16.072,24.212 C16.2560009,23.5879969 16.348,22.9200036 16.348,22.208 C16.348,21.0399942 16.0960025,20.4320002 15.592,20.384 Z M24.196,25.232 C24.1799999,25.4080009 24.0640011,25.5579994 23.848,25.682 C23.6319989,25.8060006 23.3920013,25.868 23.128,25.868 C22.735998,25.868 22.4680007,25.7440012 22.324,25.496 C22.3880003,23.0319877 22.316001,21.7840002 22.108,21.752 C21.907999,21.7199998 21.4200039,22.8239888 20.644,25.064 L20.644,25.784 C20.636,26.0720014 20.5580007,26.2759994 20.41,26.396 C20.2619993,26.5160006 20.1040008,26.576 19.936,26.576 C19.6479986,26.576 19.3400016,26.4200016 19.012,26.108 C18.9159995,26.0279996 18.864,25.4200057 18.856,24.284 C18.864,24.9800035 18.868,23.6880164 18.868,20.408 C18.868,20.3359996 18.8600001,20.2380006 18.844,20.114 C18.8279999,19.9899994 18.82,19.9000003 18.82,19.844 C18.82,19.6919992 18.8599996,19.5600006 18.94,19.448 C19.0360005,19.3039993 19.187999,19.232 19.396,19.232 C19.6120011,19.232 19.8379988,19.2979993 20.074,19.43 C20.3100012,19.5620007 20.4519998,19.6879994 20.5,19.808 C20.5320002,19.8880004 20.548,19.9679996 20.548,20.048 C20.548,20.1280004 20.5160003,20.2399993 20.452,20.384 C20.3879997,20.5280007 20.356,20.6479995 20.356,20.744 L20.356,22.4 C20.8600025,21.3279946 21.2399987,20.6200017 21.496,20.276 C21.9520023,19.683997 22.4679971,19.4079998 23.044,19.448 C23.3880017,19.4720001 23.6319993,19.7919969 23.776,20.408 C23.8880006,20.8720023 23.948,21.5599954 23.956,22.472 L23.956,24.632 C23.9720001,24.6880003 24.0279995,24.7879993 24.124,24.932 C24.1800003,25.0120004 24.204,25.1119994 24.196,25.232 Z M26.944,26.06 C26.7839992,26.3640015 26.4880022,26.516 26.056,26.516 C25.655998,26.516 25.3760008,26.3800014 25.216,26.108 C25.1679998,26.0279996 25.144,25.9400005 25.144,25.844 C25.144,25.7639996 25.1719997,25.6320009 25.228,25.448 C25.2840003,25.2639991 25.312,25.1120006 25.312,24.992 L25.264,17.24 L25.264,16.592 C25.2880001,16.4879995 25.399999,16.4020003 25.6,16.334 C25.800001,16.2659997 26.0119989,16.232 26.236,16.232 C26.5640016,16.232 26.7719996,16.2919994 26.86,16.412 C26.9480004,16.5320006 26.992,16.6559994 26.992,16.784 C26.992,16.8720004 26.9600003,17.017999 26.896,17.222 C26.8319997,17.426001 26.8,17.5919994 26.8,17.72 L26.8,24.92 C26.8,25.0400006 26.8339997,25.197999 26.902,25.394 C26.9700003,25.590001 27.004,25.7319996 27.004,25.82 C27.004,25.9080004 26.9840002,25.9879996 26.944,26.06 Z M29.752,17 C29.7760001,17.0240001 29.788,17.0639997 29.788,17.12 C29.788,17.1920004 29.7640002,17.3159991 29.716,17.492 C29.6599997,17.7080011 29.6240001,17.8559996 29.608,17.936 C29.5919999,18.0160004 29.5999998,18.1919986 29.632,18.464 C29.632,18.6320008 29.5820005,18.7419997 29.482,18.794 C29.3819995,18.8460003 29.2560008,18.872 29.104,18.872 C28.8879989,18.872 28.6680011,18.8280004 28.444,18.74 C28.1719986,18.6279994 28.036,18.4800009 28.036,18.296 C28.036,18.2399997 28.0599998,18.1620005 28.108,18.062 C28.1560002,17.9619995 28.184,17.8800003 28.192,17.816 C28.2080001,17.7519997 28.2080001,17.5920013 28.192,17.336 C28.1759999,17.135999 28.2159995,17.0000004 28.312,16.928 C28.4400006,16.8319995 28.6679984,16.784 28.996,16.784 C29.3560018,16.784 29.6079993,16.8559993 29.752,17 Z M29.908,19.928 C29.908,20.0400006 29.8460006,20.2139988 29.722,20.45 C29.5979994,20.6860012 29.536,20.8799992 29.536,21.032 L29.536,24.56 C29.536,24.7200008 29.5799996,24.9459985 29.668,25.238 C29.7560004,25.5300015 29.8,25.7319994 29.8,25.844 C29.8,26.0040008 29.7360006,26.1239996 29.608,26.204 C29.407999,26.3320006 29.1920012,26.396 28.96,26.396 C28.6559985,26.396 28.4400006,26.292001 28.312,26.084 C28.1439992,25.8279987 28.06,25.0640064 28.06,23.792 C28.06,23.4879985 28.0659999,23.0140032 28.078,22.37 C28.0900001,21.7259968 28.096,21.2560015 28.096,20.96 C28.096,20.8479994 28.0840001,20.7020009 28.06,20.522 C28.0359999,20.3419991 28.024,20.2120004 28.024,20.132 C28.024,19.8679987 28.119999,19.640001 28.312,19.448 C28.3920004,19.3679996 28.5399989,19.328 28.756,19.328 C28.9720011,19.328 29.1879989,19.3619997 29.404,19.43 C29.6200011,19.4980003 29.7579997,19.5759996 29.818,19.664 C29.8780003,19.7520004 29.908,19.8399996 29.908,19.928 Z M36.4,25.232 C36.3839999,25.4080009 36.2680011,25.5579994 36.052,25.682 C35.8359989,25.8060006 35.5960013,25.868 35.332,25.868 C34.939998,25.868 34.6720007,25.7440012 34.528,25.496 C34.5920003,23.0319877 34.520001,21.7840002 34.312,21.752 C34.111999,21.7199998 33.6240039,22.8239888 32.848,25.064 L32.848,25.784 C32.84,26.0720014 32.7620007,26.2759994 32.614,26.396 C32.4659993,26.5160006 32.3080008,26.576 32.14,26.576 C31.8519986,26.576 31.5440016,26.4200016 31.216,26.108 C31.1199995,26.0279996 31.068,25.4200057 31.06,24.284 C31.068,24.9800035 31.072,23.6880164 31.072,20.408 C31.072,20.3359996 31.0640001,20.2380006 31.048,20.114 C31.0319999,19.9899994 31.024,19.9000003 31.024,19.844 C31.024,19.6919992 31.0639996,19.5600006 31.144,19.448 C31.2400005,19.3039993 31.391999,19.232 31.6,19.232 C31.8160011,19.232 32.0419988,19.2979993 32.278,19.43 C32.5140012,19.5620007 32.6559998,19.6879994 32.704,19.808 C32.7360002,19.8880004 32.752,19.9679996 32.752,20.048 C32.752,20.1280004 32.7200003,20.2399993 32.656,20.384 C32.5919997,20.5280007 32.56,20.6479995 32.56,20.744 L32.56,22.4 C33.0640025,21.3279946 33.4439987,20.6200017 33.7,20.276 C34.1560023,19.683997 34.6719971,19.4079998 35.248,19.448 C35.5920017,19.4720001 35.8359993,19.7919969 35.98,20.408 C36.0920006,20.8720023 36.152,21.5599954 36.16,22.472 L36.16,24.632 C36.1760001,24.6880003 36.2319995,24.7879993 36.328,24.932 C36.3840003,25.0120004 36.408,25.1119994 36.4,25.232 Z M41.524,24.74 C41.4599997,25.0440015 41.2440018,25.3679983 40.876,25.712 C40.8199997,25.8000004 40.6000019,25.9159993 40.216,26.06 C39.7759978,26.2280008 39.3960016,26.3000001 39.076,26.276 C38.475997,26.2359998 38.0040017,25.8920032 37.66,25.244 C37.3479984,24.643997 37.192,23.9080044 37.192,23.036 C37.192,22.0919953 37.3679982,21.2640036 37.72,20.552 C38.112002,19.7679961 38.6359967,19.3280005 39.292,19.232 C39.4200006,19.2159999 39.5439994,19.208 39.664,19.208 C40.6160048,19.208 41.1399995,19.7919942 41.236,20.96 C41.2840002,21.4960027 41.0720024,22.0799968 40.6,22.712 C40.0879974,23.4080035 39.432004,23.8959986 38.632,24.176 C38.7200004,24.4960016 38.7879998,24.7039995 38.836,24.8 C38.9480006,25.000001 39.099999,25.1 39.292,25.1 C39.4760009,25.1 39.671999,25.0280007 39.88,24.884 C40.0560009,24.7639994 40.1759997,24.6480006 40.24,24.536 C40.2720002,24.5199999 40.3039998,24.4300008 40.336,24.266 C40.3680002,24.1019992 40.4519993,23.9840004 40.588,23.912 C40.6360002,23.8879999 40.6919997,23.876 40.756,23.876 C40.948001,23.876 41.1339991,23.9699991 41.314,24.158 C41.4940009,24.3460009 41.5640002,24.539999 41.524,24.74 Z M39.64,20.516 C39.3199984,20.516 39.060001,20.7439977 38.86,21.2 C38.5959987,21.808003 38.4879998,22.407997 38.536,23 C38.9120019,22.8799994 39.2599984,22.6000022 39.58,22.16 C39.9000016,21.7199978 40.06,21.3280017 40.06,20.984 C40.06,20.6719984 39.9200014,20.516 39.64,20.516 Z M17.944,35.76 C17.944,36.6800046 17.8280012,37.4279971 17.596,38.004 C17.2919985,38.7560038 16.8080033,39.132 16.144,39.132 C15.6479975,39.132 15.2160018,38.8720026 14.848,38.352 C14.856,38.4160003 14.8799998,38.5079994 14.92,38.628 C14.9600002,38.7480006 14.98,38.8359997 14.98,38.892 C14.98,38.9640004 14.9600002,39.0199998 14.92,39.06 C14.8159995,39.1880006 14.6080016,39.252 14.296,39.252 C13.7999975,39.252 13.5040005,39.1440011 13.408,38.928 C13.3759998,38.8559996 13.36,38.7880003 13.36,38.724 C13.36,38.6439996 13.3919997,38.5420006 13.456,38.418 C13.5200003,38.2939994 13.552,38.1880004 13.552,38.1 L13.552,31.26 C13.552,31.1559995 13.5260003,31.0300007 13.474,30.882 C13.4219997,30.7339993 13.396,30.6160004 13.396,30.528 C13.396,30.4399996 13.4119998,30.3480005 13.444,30.252 C13.5400005,29.9639986 13.787998,29.82 14.188,29.82 C14.6760024,29.82 15.0039992,29.9999982 15.172,30.36 C15.2120002,30.4400004 15.232,30.5199996 15.232,30.6 C15.232,30.7040005 15.1800005,30.855999 15.076,31.056 C14.9719995,31.256001 14.92,31.4199994 14.92,31.548 L14.92,33.096 C15.2640017,32.5679974 15.5999984,32.304 15.928,32.304 C16.5120029,32.304 17.003998,32.6839962 17.404,33.444 C17.7640018,34.1400035 17.944,34.9119958 17.944,35.76 Z M16.36,35.76 C16.36,35.2559975 16.3160004,34.804002 16.228,34.404 C16.1159994,33.9159976 15.9680009,33.672 15.784,33.672 C15.6239992,33.672 15.4640008,33.9359974 15.304,34.464 C15.1439992,34.9600025 15.064,35.3919982 15.064,35.76 C15.064,36.2480024 15.1359993,36.7319976 15.28,37.212 C15.4320008,37.7320026 15.5999991,37.992 15.784,37.992 C16.176002,37.992 16.372,37.5400045 16.372,36.636 L16.372,36.192 C16.364,35.991999 16.36,35.8480004 16.36,35.76 Z M24.136,38.496 C24.0159994,38.888002 23.7200024,39.084 23.248,39.084 C23.0879992,39.084 22.9600005,39.0560003 22.864,39 C22.7359994,38.9119996 22.6480002,38.7360013 22.6,38.472 C22.5039995,38.0159977 22.4080005,37.6600013 22.312,37.404 C22.2879999,37.8440022 22.0480023,38.2899977 21.592,38.742 C21.1359977,39.1940023 20.6760023,39.42 20.212,39.42 C19.6279971,39.42 19.2240011,39.0320039 19,38.256 C18.9199996,37.9679986 18.88,37.6960013 18.88,37.44 C18.88,36.6959963 19.2599962,36.0600026 20.02,35.532 C20.6440031,35.1639982 21.2719968,34.8000018 21.904,34.44 C21.9360002,34.3039993 21.952,34.1720006 21.952,34.044 C21.952,33.7959988 21.8840007,33.6500002 21.748,33.606 C21.6119993,33.5619998 21.4960005,33.54 21.4,33.54 C21.2319992,33.54 21.0940005,33.5939995 20.986,33.702 L20.68,34.008 C20.5839995,34.0720003 20.4600008,34.2199988 20.308,34.452 C20.1879994,34.6360009 20.0560007,34.7359999 19.912,34.752 C19.703999,34.7760001 19.5160008,34.7040008 19.348,34.536 C19.1799992,34.3679992 19.096,34.1720011 19.096,33.948 C19.096,33.8199994 19.1279997,33.7040005 19.192,33.6 C19.3760009,33.2959985 19.6519982,33.0320011 20.02,32.808 C20.5800028,32.4719983 21.2799958,32.304 22.12,32.304 C22.6560027,32.304 23.023999,32.5599974 23.224,33.072 C23.3520006,33.4160017 23.4479997,34.0599953 23.512,35.004 C23.5840004,36.1480057 23.6719995,36.9839974 23.776,37.512 C23.7920001,37.6160005 23.8599994,37.7479992 23.98,37.908 C24.1000006,38.0680008 24.16,38.2079994 24.16,38.328 C24.16,38.3840003 24.1520001,38.4399997 24.136,38.496 Z M22.048,35.544 C21.8079988,35.6720006 21.5700012,35.8039993 21.334,35.94 C21.0979988,36.0760007 20.880001,36.2559989 20.68,36.48 C20.3919986,36.8080016 20.248,37.0879988 20.248,37.32 C20.248,37.512001 20.3199993,37.711999 20.464,37.92 C20.5440004,38.0320006 20.6319995,38.088 20.728,38.088 C20.936001,38.088 21.1619988,37.8560023 21.406,37.392 C21.6500012,36.9279977 21.8639991,36.3120038 22.048,35.544 Z M30.532,38.232 C30.5159999,38.4080009 30.4000011,38.5579994 30.184,38.682 C29.9679989,38.8060006 29.7280013,38.868 29.464,38.868 C29.071998,38.868 28.8040007,38.7440012 28.66,38.496 C28.7240003,36.0319877 28.652001,34.7840002 28.444,34.752 C28.243999,34.7199998 27.7560039,35.8239888 26.98,38.064 L26.98,38.784 C26.972,39.0720014 26.8940007,39.2759994 26.746,39.396 C26.5979993,39.5160006 26.4400008,39.576 26.272,39.576 C25.9839986,39.576 25.6760016,39.4200016 25.348,39.108 C25.2519995,39.0279996 25.2,38.4200057 25.192,37.284 C25.2,37.9800035 25.204,36.6880164 25.204,33.408 C25.204,33.3359996 25.1960001,33.2380006 25.18,33.114 C25.1639999,32.9899994 25.156,32.9000003 25.156,32.844 C25.156,32.6919992 25.1959996,32.5600006 25.276,32.448 C25.3720005,32.3039993 25.523999,32.232 25.732,32.232 C25.9480011,32.232 26.1739988,32.2979993 26.41,32.43 C26.6460012,32.5620007 26.7879998,32.6879994 26.836,32.808 C26.8680002,32.8880004 26.884,32.9679996 26.884,33.048 C26.884,33.1280004 26.8520003,33.2399993 26.788,33.384 C26.7239997,33.5280007 26.692,33.6479995 26.692,33.744 L26.692,35.4 C27.1960025,34.3279946 27.5759987,33.6200017 27.832,33.276 C28.2880023,32.683997 28.8039971,32.4079998 29.38,32.448 C29.7240017,32.4720001 29.9679993,32.7919969 30.112,33.408 C30.2240006,33.8720023 30.284,34.5599954 30.292,35.472 L30.292,37.632 C30.3080001,37.6880003 30.3639995,37.7879993 30.46,37.932 C30.5160003,38.0120004 30.54,38.1119994 30.532,38.232 Z M37.132,38.064 C37.14,38.1200003 37.144,38.1759997 37.144,38.232 C37.144,38.7120024 36.8760027,39.0359992 36.34,39.204 C36.2359995,39.2360002 36.1440004,39.252 36.064,39.252 C35.9199993,39.252 35.7880006,39.1840007 35.668,39.048 C35.4839991,38.847999 35.3720002,38.7360001 35.332,38.712 L33.172,37.2 L33.172,38.208 C33.172,38.2800004 33.1939998,38.3699995 33.238,38.478 C33.2820002,38.5860005 33.304,38.6679997 33.304,38.724 C33.304,38.8120004 33.2600004,38.9039995 33.172,39 C32.971999,39.208001 32.6840019,39.312 32.308,39.312 C31.9479982,39.312 31.7160005,39.1920012 31.612,38.952 C31.5639998,38.8399994 31.5479999,38.7240006 31.564,38.604 C31.5960002,38.395999 31.612,38.2560004 31.612,38.184 L31.612,30.288 C31.604,30.1439993 31.6199998,29.9280014 31.66,29.64 C31.7320004,29.4639991 31.9519982,29.376 32.32,29.376 C32.8000024,29.376 33.1079993,29.4639991 33.244,29.64 C33.3160004,29.7360005 33.352,29.8399994 33.352,29.952 C33.352,30.0400004 33.3220003,30.1759991 33.262,30.36 C33.2019997,30.5440009 33.172,30.6879995 33.172,30.792 C33.1559999,31.2560023 33.1559999,32.5639892 33.172,34.716 C33.6200022,34.2839978 34.1959965,33.7200035 34.9,33.024 C34.9960005,32.9279995 35.1199992,32.7560012 35.272,32.508 C35.3600004,32.3639993 35.4919991,32.2680002 35.668,32.22 C35.7160002,32.2039999 35.7719997,32.196 35.836,32.196 C36.0680012,32.196 36.3059988,32.2839991 36.55,32.46 C36.7940012,32.6360009 36.916,32.823999 36.916,33.024 C36.916,33.1360006 36.8360008,33.2719992 36.676,33.432 C36.5159992,33.5920008 36.3560008,33.7439993 36.196,33.888 L34.204,35.952 L36.34,37.488 C36.3560001,37.5040001 36.5159985,37.5679994 36.82,37.68 C36.9960009,37.7520004 37.0999998,37.8799991 37.132,38.064 Z M39.628,30 C39.6520001,30.0240001 39.664,30.0639997 39.664,30.12 C39.664,30.1920004 39.6400002,30.3159991 39.592,30.492 C39.5359997,30.7080011 39.5000001,30.8559996 39.484,30.936 C39.4679999,31.0160004 39.4759998,31.1919986 39.508,31.464 C39.508,31.6320008 39.4580005,31.7419997 39.358,31.794 C39.2579995,31.8460003 39.1320008,31.872 38.98,31.872 C38.7639989,31.872 38.5440011,31.8280004 38.32,31.74 C38.0479986,31.6279994 37.912,31.4800009 37.912,31.296 C37.912,31.2399997 37.9359998,31.1620005 37.984,31.062 C38.0320002,30.9619995 38.06,30.8800003 38.068,30.816 C38.0840001,30.7519997 38.0840001,30.5920013 38.068,30.336 C38.0519999,30.135999 38.0919995,30.0000004 38.188,29.928 C38.3160006,29.8319995 38.5439984,29.784 38.872,29.784 C39.2320018,29.784 39.4839993,29.8559993 39.628,30 Z M39.784,32.928 C39.784,33.0400006 39.7220006,33.2139988 39.598,33.45 C39.4739994,33.6860012 39.412,33.8799992 39.412,34.032 L39.412,37.56 C39.412,37.7200008 39.4559996,37.9459985 39.544,38.238 C39.6320004,38.5300015 39.676,38.7319994 39.676,38.844 C39.676,39.0040008 39.6120006,39.1239996 39.484,39.204 C39.283999,39.3320006 39.0680012,39.396 38.836,39.396 C38.5319985,39.396 38.3160006,39.292001 38.188,39.084 C38.0199992,38.8279987 37.936,38.0640064 37.936,36.792 C37.936,36.4879985 37.9419999,36.0140032 37.954,35.37 C37.9660001,34.7259968 37.972,34.2560015 37.972,33.96 C37.972,33.8479994 37.9600001,33.7020009 37.936,33.522 C37.9119999,33.3419991 37.9,33.2120004 37.9,33.132 C37.9,32.8679987 37.995999,32.640001 38.188,32.448 C38.2680004,32.3679996 38.4159989,32.328 38.632,32.328 C38.8480011,32.328 39.0639989,32.3619997 39.28,32.43 C39.4960011,32.4980003 39.6339997,32.5759996 39.694,32.664 C39.7540003,32.7520004 39.784,32.8399996 39.784,32.928 Z M46.276,38.232 C46.2599999,38.4080009 46.1440011,38.5579994 45.928,38.682 C45.7119989,38.8060006 45.4720013,38.868 45.208,38.868 C44.815998,38.868 44.5480007,38.7440012 44.404,38.496 C44.4680003,36.0319877 44.396001,34.7840002 44.188,34.752 C43.987999,34.7199998 43.5000039,35.8239888 42.724,38.064 L42.724,38.784 C42.716,39.0720014 42.6380007,39.2759994 42.49,39.396 C42.3419993,39.5160006 42.1840008,39.576 42.016,39.576 C41.7279986,39.576 41.4200016,39.4200016 41.092,39.108 C40.9959995,39.0279996 40.944,38.4200057 40.936,37.284 C40.944,37.9800035 40.948,36.6880164 40.948,33.408 C40.948,33.3359996 40.9400001,33.2380006 40.924,33.114 C40.9079999,32.9899994 40.9,32.9000003 40.9,32.844 C40.9,32.6919992 40.9399996,32.5600006 41.02,32.448 C41.1160005,32.3039993 41.267999,32.232 41.476,32.232 C41.6920011,32.232 41.9179988,32.2979993 42.154,32.43 C42.3900012,32.5620007 42.5319998,32.6879994 42.58,32.808 C42.6120002,32.8880004 42.628,32.9679996 42.628,33.048 C42.628,33.1280004 42.5960003,33.2399993 42.532,33.384 C42.4679997,33.5280007 42.436,33.6479995 42.436,33.744 L42.436,35.4 C42.9400025,34.3279946 43.3199987,33.6200017 43.576,33.276 C44.0320023,32.683997 44.5479971,32.4079998 45.124,32.448 C45.4680017,32.4720001 45.7119993,32.7919969 45.856,33.408 C45.9680006,33.8720023 46.028,34.5599954 46.036,35.472 L46.036,37.632 C46.0520001,37.6880003 46.1079995,37.7879993 46.204,37.932 C46.2600003,38.0120004 46.284,38.1119994 46.276,38.232 Z M51.292,32.628 C51.3080001,33.3160034 51.3439997,34.4479921 51.4,36.024 C51.4320002,37.1360056 51.448,37.9319976 51.448,38.412 C51.448,39.4680053 51.3640008,40.1879981 51.196,40.572 C51.0279992,40.9560019 50.6880026,41.1679998 50.176,41.208 C49.5359968,41.2640003 48.9720024,41.096002 48.484,40.704 C48.2439988,40.6319996 48.0920003,40.5760002 48.028,40.536 C47.8919993,40.4559996 47.8040002,40.320001 47.764,40.128 C47.6919996,39.7519981 47.9879967,39.564 48.652,39.564 C48.8200008,39.564 48.9799992,39.5839998 49.132,39.624 C49.2440006,39.6480001 49.3679993,39.7419992 49.504,39.906 C49.6400007,40.0700008 49.7679994,40.156 49.888,40.164 C50.1200012,40.1800001 50.236,39.8520034 50.236,39.18 C50.236,38.8919986 50.2160002,38.4240032 50.176,37.776 C49.8879986,38.2640024 49.6800006,38.5799993 49.552,38.724 C49.2879987,38.9960014 48.9800018,39.132 48.628,39.132 C48.1319975,39.132 47.7320015,38.7880034 47.428,38.1 C47.1479986,37.4679968 47.008,36.7000045 47.008,35.796 C47.008,34.8679954 47.1559985,34.0840032 47.452,33.444 C47.7880017,32.7239964 48.251997,32.3560001 48.844,32.34 C49.1640016,32.332 49.3999992,32.3959993 49.552,32.532 C49.7040008,32.6680007 49.8519993,32.8079993 49.996,32.952 C49.8919995,32.6639986 49.9159992,32.4480007 50.068,32.304 C50.1560004,32.2159996 50.2879991,32.172 50.464,32.172 C50.6320008,32.172 50.7999992,32.2159996 50.968,32.304 C51.1360008,32.3920004 51.2439998,32.4999994 51.292,32.628 Z M49.852,35.688 C49.8840002,35.2239977 49.8280007,34.7840021 49.684,34.368 C49.5239992,33.9039977 49.3160013,33.672 49.06,33.672 C48.851999,33.672 48.6680008,33.9039977 48.508,34.368 C48.3639993,34.7840021 48.2840001,35.2239977 48.268,35.688 C48.2519999,36.1760024 48.2879996,36.615998 48.376,37.008 C48.4880006,37.4720023 48.643999,37.704 48.844,37.704 C49.0200009,37.704 49.2239988,37.4780023 49.456,37.026 C49.6880012,36.5739977 49.8199998,36.1280022 49.852,35.688 Z"/>
  </g>
</svg>
