<svg xmlns="http://www.w3.org/2000/svg" width="64" height="64" viewBox="0 0 64 64">
  <g fill="none" fill-rule="evenodd">
    <rect width="6" height="11" x="29" y="46" fill="#D8D8D8"/>
    <rect width="14" height="1" x="25" y="58" stroke="#979797" stroke-width="2"/>
    <path fill="#868686" d="M2,11.995507 C2,10.3411342 3.33730974,9 4.99593743,9 L59.0040626,9 C60.6586731,9 62,10.3424683 62,11.995507 L62,45.004493 C62,46.6588658 60.6626903,48 59.0040626,48 L4.99593743,48 C3.34132688,48 2,46.6575317 2,45.004493 L2,11.995507 Z"/>
    <rect width="54" height="33" x="5" y="12" fill="#80D25B"/>
    <path fill="#0A3586" d="M41,34.7999996 L41,26 L22,26 L22,34.8 C22,36.0150264 26.2532949,37 31.5,37 C36.7467051,37 41,36.0150264 41,34.8 Z"/>
    <rect width="1" height="8" x="43" y="27" fill="#ED5144"/>
    <circle cx="43.5" cy="35.5" r="1.5" fill="#D3D824"/>
    <polygon fill="#325AA6" points="16 26.01 31.632 20 47 26.01 31.632 31"/>
  </g>
</svg>
