<svg xmlns="http://www.w3.org/2000/svg" width="64" height="64" viewBox="0 0 64 64">
  <g fill="none" fill-rule="evenodd">
    <path fill="#C13F98" d="M4,20.996524 C4,19.3415895 5.34275388,18 6.99100514,18 L57.0089949,18 C58.6608814,18 60,19.3387083 60,20.996524 L60,55 L4,55 L4,20.996524 Z"/>
    <circle cx="32" cy="54" r="3" fill="#C13F98"/>
    <path fill="#D8D8D8" d="M7,15 C7,15 13.25,12 19.5,12 C25.75,12 32,15 32,15 L32,52 C32,52 25.75,49 19.5,49 C13.25,49 7,52 7,52 L7,15 Z"/>
    <polygon fill="#B6B6B6" fill-rule="nonzero" points="11 23 28 23 28 21 11 21"/>
    <polygon fill="#B6B6B6" fill-rule="nonzero" points="11 27 20 27 20 25 11 25"/>
    <polygon fill="#B6B6B6" fill-rule="nonzero" points="11 31 25 31 25 29 11 29"/>
    <path fill="#E9E9E9" d="M32,15 C32,15 38.25,12 44.5,12 C50.75,12 57,15 57,15 L57,52 C57,52 50.75,49 44.5,49 C38.25,49 32,52 32,52 L32,15 Z"/>
    <polygon fill="#B6B6B6" fill-rule="nonzero" points="36 23 54 23 54 21 36 21"/>
    <polygon fill="#B6B6B6" fill-rule="nonzero" points="36 27 54 27 54 25 36 25"/>
    <polygon fill="#B6B6B6" fill-rule="nonzero" points="36 31 54 31 54 29 36 29"/>
    <polygon fill="#B6B6B6" fill-rule="nonzero" points="36 35 48 35 48 33 36 33"/>
  </g>
</svg>
