<svg xmlns="http://www.w3.org/2000/svg" width="64" height="64" viewBox="0 0 64 64">
  <g fill="none" fill-rule="evenodd">
    <rect width="28" height="43" x="31" y="11" fill="#4796E7"/>
    <rect width="25" height="21" x="32" y="22" fill="#D8D8D8"/>
    <rect width="24" height="21" x="30" y="25" fill="#FFF"/>
    <polyline stroke="#D8D8D8" stroke-linecap="round" stroke-width="2" points="53.673 25.685 37.06 35.901 23.165 26.538"/>
    <polygon fill="#5B68C0" points="6 10 32 7 32 58 6 55"/>
    <path fill="#FFF" d="M23.36,32.6 C23.4533338,34.3866756 23.1466702,36.2299905 22.44,38.13 C21.7333298,40.0300095 20.980004,41.0999988 20.18,41.34 C19.8599984,41.4466672 19.5466682,41.4866668 19.24,41.46 C18.9199984,41.4199998 18.6066682,41.3800002 18.3,41.34 C15.5533196,41.0199984 14.0400014,38.1066942 13.76,32.6 C13.6799996,31.1066592 13.9199972,29.5066752 14.48,27.8 C15.0000026,26.2133254 15.5399972,25.2333352 16.1,24.86 C16.233334,24.7666662 16.3799992,24.72 16.54,24.72 C16.6600006,24.72 16.8466654,24.7566663 17.1,24.83 C17.3533346,24.9033337 17.546666,24.94 17.68,24.94 C17.8400008,24.94 18.1299979,24.9033337 18.55,24.83 C18.9700021,24.7566663 19.279999,24.72 19.48,24.72 C19.6666676,24.72 19.8199994,24.7466664 19.94,24.8 C22.006677,25.6400042 23.1466656,28.2399782 23.36,32.6 Z M20.66,32.6 C20.526666,30.933325 20.3466678,29.6800042 20.12,28.84 C19.7466648,27.4266596 19.193337,26.72 18.46,26.72 C18.259999,26.72 18.0500011,26.7733328 17.83,26.88 C17.6099989,26.9866672 17.3200018,27.673327 16.96,28.94 C16.5866648,30.3266736 16.4,31.5466614 16.4,32.6 C16.4,33.9733402 16.6399976,35.4166591 17.12,36.93 C17.6000024,38.4433409 18.0599978,39.2 18.5,39.2 C18.9133354,39.2 19.3733308,38.5200068 19.88,37.16 C20.413336,35.7466596 20.68,34.406673 20.68,33.14 C20.68,32.9533324 20.6733334,32.7733342 20.66,32.6 Z"/>
    <path stroke="#D8D8D8" stroke-linecap="round" stroke-width="2" d="M41.6409233,32.9930067 L54.7567191,41.6791138"/>
  </g>
</svg>
