<svg xmlns="http://www.w3.org/2000/svg" width="64" height="64" viewBox="0 0 64 64">
  <g fill="none" transform="matrix(-1 0 0 1 60 5)">
    <path fill="#FF78C7" d="M37.5857866,12.5857866 L12.0830394,38.0885337 C11.3019908,38.8695823 11.3019908,40.1359123 12.0830394,40.9169609 C12.864088,41.6980095 14.1304179,41.6980095 14.9114665,40.9169609 L40.4142137,15.4142137 C41.1952623,14.6331651 41.1952623,13.3668352 40.4142137,12.5857866 C39.6331651,11.804738 38.3668352,11.804738 37.5857866,12.5857866 Z"/>
    <path fill="#4796E7" d="M18.0751029,15.3459578 L3.42080288,0.592406604 C2.64341044,-0.192281086 1.37709429,-0.198195052 0.592406604,0.57919739 C-0.192281086,1.35658983 -0.198195052,2.62290598 0.57919739,3.40759367 L15.1149013,18.0417456 L9.04004924,18.0417456 C7.93547974,18.0417456 7.04004924,18.9371761 7.04004924,20.0417456 C7.04004924,21.1463151 7.93547974,22.0417456 9.04004924,22.0417456 L19.5324747,22.0417456 C19.9662636,22.1380303 20.4260434,22.0885558 20.8334728,21.8929561 C21.5619936,21.5941942 22.0751029,20.8778914 22.0751029,20.0417456 L22.0751029,10.1632121 C22.0751029,9.05864265 21.1796724,8.16321215 20.0751029,8.16321215 C18.9705334,8.16321215 18.0751029,9.05864265 18.0751029,10.1632121 L18.0751029,15.3459578 Z" transform="rotate(180 11.038 11.045)"/>
    <path fill="#4796E7" d="M49.0751029,46.3459578 L34.4208029,31.5924066 C33.6434104,30.8077189 32.3770943,30.8018049 31.5924066,31.5791974 C30.8077189,32.3565898 30.8018049,33.622906 31.5791974,34.4075937 L46.1149013,49.0417456 L40.0400492,49.0417456 C38.9354797,49.0417456 38.0400492,49.9371761 38.0400492,51.0417456 C38.0400492,52.1463151 38.9354797,53.0417456 40.0400492,53.0417456 L50.5324747,53.0417456 C50.9662636,53.1380303 51.4260434,53.0885558 51.8334728,52.8929561 C52.5619936,52.5941942 53.0751029,51.8778914 53.0751029,51.0417456 L53.0751029,41.1632121 C53.0751029,40.0586427 52.1796724,39.1632121 51.0751029,39.1632121 C49.9705334,39.1632121 49.0751029,40.0586427 49.0751029,41.1632121 L49.0751029,46.3459578 Z"/>
  </g>
</svg>
