<svg xmlns="http://www.w3.org/2000/svg" width="64" height="64" viewBox="0 0 64 64">
  <g fill="none" fill-rule="evenodd">
    <path fill="#FF78C7" fill-rule="nonzero" d="M44.5282417,17.5956596 L18.5956596,43.5282417 C17.8014468,44.3224545 17.8014468,45.6101277 18.5956596,46.4043404 C19.3898723,47.1985532 20.6775455,47.1985532 21.4717583,46.4043404 L47.4043404,20.4717583 C48.1985532,19.6775455 48.1985532,18.3898723 47.4043404,17.5956596 C46.6101277,16.8014468 45.3224545,16.8014468 44.5282417,17.5956596 Z"/>
    <path fill="#4796E7" fill-rule="nonzero" d="M24.0136086,20.2838257 L9.40916478,5.59000809 C8.63441715,4.80849741 7.37240921,4.80260739 6.59039115,5.57685236 C5.80837308,6.35109733 5.80247924,7.61228647 6.57722687,8.39379715 L21.0634781,22.9686989 L15.0092936,22.9686989 C13.908482,22.9686989 13.0160979,23.860504 13.0160979,24.9606014 C13.0160979,26.0606988 13.908482,26.9525039 15.0092936,26.9525039 L25.4660222,26.9525039 C25.8983353,27.0483988 26.3565509,26.9991246 26.7625941,26.8043168 C27.4886364,26.5067645 28,25.7933619 28,24.9606014 L28,15.1220638 C28,14.0219664 27.1076159,13.1301613 26.0068043,13.1301613 C24.9059927,13.1301613 24.0136086,14.0219664 24.0136086,15.1220638 L24.0136086,20.2838257 Z" transform="rotate(180 17 16)"/>
    <path fill="#4796E7" fill-rule="nonzero" d="M55.0136086,51.2838257 L40.4091648,36.5900081 C39.6344172,35.8084974 38.3724092,35.8026074 37.5903911,36.5768524 C36.8083731,37.3510973 36.8024792,38.6122865 37.5772269,39.3937972 L52.0634781,53.9686989 L46.0092936,53.9686989 C44.908482,53.9686989 44.0160979,54.860504 44.0160979,55.9606014 C44.0160979,57.0606988 44.908482,57.9525039 46.0092936,57.9525039 L56.4660222,57.9525039 C56.8983353,58.0483988 57.3565509,57.9991246 57.7625941,57.8043168 C58.4886364,57.5067645 59,56.7933619 59,55.9606014 L59,46.1220638 C59,45.0219664 58.1076159,44.1301613 57.0068043,44.1301613 C55.9059927,44.1301613 55.0136086,45.0219664 55.0136086,46.1220638 L55.0136086,51.2838257 Z"/>
  </g>
</svg>
