<svg xmlns="http://www.w3.org/2000/svg" width="64" height="64" viewBox="0 0 64 64">
  <g fill="none" transform="rotate(-90 37 27)">
    <path fill="#FF78C7" d="M43.7949467,6.88408261 L17.3840826,33.2949467 C16.603034,34.0759953 16.603034,35.3423252 17.3840826,36.1233738 C18.1651312,36.9044224 19.4314612,36.9044224 20.2125097,36.1233738 L46.6233738,9.71250973 C47.4044224,8.93146115 47.4044224,7.66513119 46.6233738,6.88408261 C45.8423252,6.10303403 44.5759953,6.10303403 43.7949467,6.88408261 Z" transform="rotate(-45 32.004 21.504)"/>
    <path fill="#4796E7" d="M19.7110145,23.9139343 L7.88514162,11.9930029 C7.10774917,11.2083152 5.84143303,11.2024013 5.05674534,11.9797937 C4.27205765,12.7571861 4.26614368,14.0235023 5.04353612,14.80819 L16.755121,26.6139147 L10.6759608,26.6139147 C9.57139135,26.6139147 8.67596085,27.5093452 8.67596085,28.6139147 C8.67596085,29.7184842 9.57139135,30.6139147 10.6759608,30.6139147 L21.1683863,30.6139147 C21.6021752,30.7101995 22.061955,30.6607249 22.4693844,30.4651253 C23.1979052,30.1663634 23.7110145,29.4500606 23.7110145,28.6139147 L23.7110145,18.7353813 C23.7110145,17.6308118 22.815584,16.7353813 21.7110145,16.7353813 C20.606445,16.7353813 19.7110145,17.6308118 19.7110145,18.7353813 L19.7110145,23.9139343 Z" transform="scale(-1 1) rotate(-45 0 55.042)"/>
    <path fill="#4796E7" d="M55.7110145,23.9139343 L43.8851416,11.9930029 C43.1077492,11.2083152 41.841433,11.2024013 41.0567453,11.9797937 C40.2720576,12.7571861 40.2661437,14.0235023 41.0435361,14.80819 L52.755121,26.6139147 L46.6759608,26.6139147 C45.5713913,26.6139147 44.6759608,27.5093452 44.6759608,28.6139147 C44.6759608,29.7184842 45.5713913,30.6139147 46.6759608,30.6139147 L57.1683863,30.6139147 C57.6021752,30.7101995 58.061955,30.6607249 58.4693844,30.4651253 C59.1979052,30.1663634 59.7110145,29.4500606 59.7110145,28.6139147 L59.7110145,18.7353813 C59.7110145,17.6308118 58.815584,16.7353813 57.7110145,16.7353813 C56.606445,16.7353813 55.7110145,17.6308118 55.7110145,18.7353813 L55.7110145,23.9139343 Z" transform="rotate(-45 50.088 21.031)"/>
  </g>
</svg>
