<svg xmlns="http://www.w3.org/2000/svg" width="64" height="64" viewBox="0 0 64 64">
  <g fill="none" fill-rule="evenodd">
    <path fill="#6B6B6B" d="M45.2896491,11.7021268 C41.5498001,10.7155432 37.0516833,10.4079218 32,10.4079218 C26.5503201,10.4079218 21.7448681,10.7659245 17.8406394,11.9481353 C17.8410645,11.9460368 17.8414887,11.9439381 17.8419121,11.941839 C16.9410898,12.2083673 15.9872521,12.3514318 15,12.3514318 C10.0386877,12.3514318 5.92123858,8.73842382 5.13524484,4 C3.22900667,5.46224392 2,7.76331292 2,10.3514318 C2,14.4859856 5.13648408,17.8879742 9.15990338,18.3078489 C7.75596748,20.752625 7,23.9180364 7,28 C7,42.9116882 17.0883118,55 32,55 C46.9116882,55 57,42.9116882 57,28 C57,23.9086343 56.240546,20.7380478 54.8303851,18.290967 C58.7822756,17.8039932 61.8419121,14.4350207 61.8419121,10.3514318 C61.8419121,7.76331292 60.6129054,5.46224392 58.7066673,4 C57.9206735,8.73842382 53.8032244,12.3514318 48.8419121,12.3514318 C47.5908734,12.3514318 46.393491,12.121702 45.2896491,11.7021268 Z"/>
    <circle cx="28" cy="57" r="4" fill="#A0A0A0"/>
    <circle cx="36" cy="57" r="4" fill="#A0A0A0"/>
    <circle cx="19" cy="27" r="11" fill="#E77CFA"/>
    <circle cx="18.5" cy="26.5" r="7.5" fill="#FFF"/>
    <circle cx="18.5" cy="26.5" r="3.5" fill="#4796E7"/>
    <circle cx="17" cy="25" r="2" fill="#FFF"/>
    <circle cx="45" cy="27" r="11" fill="#E77CFA"/>
    <circle cx="45.5" cy="26.5" r="7.5" fill="#FFF"/>
    <circle cx="45.5" cy="26.5" r="3.5" fill="#4796E7"/>
    <circle cx="44" cy="25" r="2" fill="#FFF"/>
    <path fill="#E77CFA" d="M38.9919556,41.3385746 C38.9972983,41.226388 39,41.1135095 39,41 C39,37.1340068 35.8659932,34 32,34 C28.1340068,34 25,37.1340068 25,41 C25,41.0276637 25.0001605,41.05529 25.0004805,41.0828778 C25.3255376,41.0283708 25.6594556,41 26,41 C28.4597209,41 30.5737418,42.4801175 31.5,44.5982897 C32.4262582,42.4801175 34.5402791,41 37,41 C37.6982658,41 38.3686724,41.1192796 38.9919556,41.3385746 Z"/>
    <path fill="#A0A0A0" d="M11.6172197,32.8153786 C14.627429,35.4917892 16.6172197,40.123808 16.6172197,45.389564 C16.6172197,50.6553199 14.627429,55.2873387 11.6172197,57.9637493 C8.60701044,55.2873387 6.61721971,50.6553199 6.61721971,45.389564 C6.61721971,40.123808 8.60701044,35.4917892 11.6172197,32.8153786 Z" transform="rotate(-30 11.617 45.39)"/>
    <path fill="#A0A0A0" d="M52.6172197,32.8153786 C55.627429,35.4917892 57.6172197,40.123808 57.6172197,45.389564 C57.6172197,50.6553199 55.627429,55.2873387 52.6172197,57.9637493 C49.6070104,55.2873387 47.6172197,50.6553199 47.6172197,45.389564 C47.6172197,40.123808 49.6070104,35.4917892 52.6172197,32.8153786 Z" transform="scale(-1 1) rotate(-30 0 241.76)"/>
  </g>
</svg>
