<svg xmlns="http://www.w3.org/2000/svg" width="64" height="64" viewBox="0 0 64 64">
  <g fill="none" fill-rule="evenodd">
    <path fill="#5B68C0" d="M14.0714286,26 C9.81094622,26 7,30.8928881 7,36.9285714 C7,42.9642548 9.81094622,62 14.0714286,62 C16.5568423,62 17.1962339,46.1920244 20.5356448,46.177711 C24.5179129,46.1920244 23.8003005,62 26.2857143,62 C30.5461966,62 33.3571429,42.9642548 33.3571429,36.9285714 C33.3571429,30.8928881 30.5461966,26 26.2857143,26 C24.25,26 22.5713591,27.9630984 20.5356448,27.9630984 C18.4999305,27.9630984 16.1071429,26 14.0714286,26 Z"/>
    <polygon fill="#FF5656" points="57.622 16 50.328 16 44 29.467 50.509 29.467 45.862 41 59 25.617 51.751 25.617"/>
    <polygon fill="#FF5656" points="45.622 2 38.328 2 32 15.467 38.509 15.467 33.862 27 47 11.617 39.751 11.617"/>
    <path stroke="#FF5656" stroke-linecap="round" stroke-width="2" d="M23 32L27.9131028 36.9131028M23 36.9131028L27.9131028 32"/>
  </g>
</svg>
