<svg xmlns="http://www.w3.org/2000/svg" width="64" height="64" viewBox="0 0 64 64">
  <g fill="none" fill-rule="evenodd">
    <path fill="#595959" d="M50,26 C54.418278,26 59,20.418278 59,16 C59,11.581722 55.418278,8 51,8 C46.581722,8 42,13.581722 42,18 C42,22.418278 45.581722,26 50,26 Z"/>
    <path fill="#595959" d="M17,26 C21.418278,26 26,20.418278 26,16 C26,11.581722 22.418278,8 18,8 C13.581722,8 9,13.581722 9,18 C9,22.418278 12.581722,26 17,26 Z" transform="matrix(-1 0 0 1 35 0)"/>
    <path fill="#ECECEC" d="M32,54 C45.254834,54 61,51.045695 61,40 C61,28.954305 45.254834,11 32,11 C18.745166,11 3,28.954305 3,40 C3,51.045695 18.745166,54 32,54 Z"/>
    <path fill="#595959" d="M20.4230769,44 C23.9279609,44 26.0865905,40.1474245 27.9230769,35.9230769 C29.7595633,31.6987293 26.2356532,29 22.7307692,29 C19.2258852,29 14.0769231,31.4623155 14.0769231,35.9230769 C14.0769231,40.3838384 16.9181929,44 20.4230769,44 Z"/>
    <circle cx="24" cy="33" r="2" fill="#FFF"/>
    <path fill="#595959" d="M42.9173076,44 C46.4221916,44 48.5738607,40.5135026 50.4173076,35.9230769 C52.2607544,31.3326512 48.7298839,29 45.2249999,29 C41.7201159,29 36.5711537,31.4623155 36.5711537,35.9230769 C36.5711537,40.3838384 39.4124236,44 42.9173076,44 Z" transform="matrix(-1 0 0 1 87.494 0)"/>
    <path fill="#ECECEC" d="M32,61 C36.418278,61 42,57.418278 42,53 C42,48.581722 36.418278,45 32,45 C27.581722,45 22,48.581722 22,53 C22,57.418278 27.581722,61 32,61 Z"/>
    <circle cx="41" cy="33" r="2" fill="#FFF"/>
    <path stroke="#595959" stroke-linecap="round" stroke-width="2" d="M23 53C23 54.6568542 25.0147186 56 27.5 56L27.5 56C29.9852814 56 32 54.6568542 32 53M32 53C32 54.6568542 34.0147186 56 36.5 56L36.5 56C38.9852814 56 41 54.6568542 41 53"/>
    <path fill="#595959" d="M33.9149341,52.4042216 C32.8573452,53.2855457 31.1403463,53.2836219 30.0850659,52.4042216 L27.9149341,50.5957784 C26.8573452,49.7144543 27.1289309,49 28.5009863,49 L35.4990137,49 C36.8802703,49 37.1403463,49.7163781 36.0850659,50.5957784 L33.9149341,52.4042216 Z"/>
  </g>
</svg>
