<svg xmlns="http://www.w3.org/2000/svg" width="64" height="64" viewBox="0 0 64 64">
  <g fill="none" fill-rule="evenodd">
    <rect width="54" height="39" x="5" y="10" fill="#D8D8D8" rx="3" transform="rotate(-15 32 29.5)"/>
    <path fill="#ECECEC" d="M9,22.0065859 C9,20.3460944 10.3348389,19 11.9995609,19 L60.0004391,19 C61.6570508,19 63,20.3340567 63,22.0065859 L63,58.9934141 C63,60.6539056 61.6651611,62 60.0004391,62 L11.9995609,62 C10.3429492,62 9,60.6659433 9,58.9934141 L9,22.0065859 Z"/>
    <rect width="17" height="10" x="14" y="39" fill="#80D25B"/>
    <path stroke="#979797" stroke-linecap="square" stroke-width="2" d="M35 40L58.0217289 40M35 48L58.0217289 48M35 44L58.0217289 44"/>
    <path fill="#979797" d="M21.966,31.842 C21.966,32.5180034 21.7515021,33.1094975 21.3225,33.6165 C20.8934979,34.1235025 20.3626698,34.377 19.73,34.377 C18.4559936,34.377 17.520003,33.7703394 16.922,32.557 C16.2719967,32.1323312 15.947,31.7726681 15.947,31.478 C15.947,31.3306659 16.0379991,31.2093338 16.22,31.114 C16.5753351,30.9233324 16.9003319,30.828 17.195,30.828 C17.8363365,30.828 18.2653323,31.2093295 18.482,31.972 C18.5860005,32.180001 18.6943328,32.387999 18.807,32.596 C18.9196672,32.804001 19.0713324,32.908 19.262,32.908 C19.7733359,32.908 20.029,32.5440036 20.029,31.816 C20.029,31.1659968 19.9120012,30.7283345 19.678,30.503 C19.5739995,30.4076662 19.1580036,30.2083348 18.43,29.905 C17.8493304,29.6623321 17.3813351,29.2463363 17.026,28.657 C16.7053317,28.119664 16.5406667,27.5606696 16.532,26.98 C16.5233333,26.0439953 16.7573309,25.2120036 17.234,24.484 C17.7366692,23.7039961 18.3606629,23.314 19.106,23.314 C19.972671,23.314 20.6053313,23.6606632 21.004,24.354 C21.2640013,24.7873355 21.4113332,25.3246635 21.446,25.966 C21.5413338,26.295335 21.589,26.594332 21.589,26.863 C21.589,27.0363342 21.5673335,27.1793328 21.524,27.292 C21.3939993,27.6126683 21.1383352,27.773 20.757,27.773 C20.4709986,27.773 20.2110012,27.669001 19.977,27.461 C19.7169987,27.2356655 19.556667,26.9193354 19.496,26.512 C19.4699999,26.3733326 19.4981663,26.2346674 19.5805,26.096 C19.6628337,25.9573326 19.704,25.8793334 19.704,25.862 C19.704,25.8446666 19.6953334,25.8273334 19.678,25.81 C19.6866667,25.7666664 19.691,25.7233335 19.691,25.68 C19.691,25.4199987 19.5393349,25.2986666 19.236,25.316 C18.9413319,25.3333334 18.7116675,25.5283315 18.547,25.901 C18.3996659,26.2216683 18.3346666,26.5899979 18.352,27.006 C18.3780001,27.7426703 18.8633286,28.3319978 19.808,28.774 C20.5533371,29.1206684 21.0689986,29.4629983 21.355,29.801 C21.7623354,30.2863358 21.966,30.9666623 21.966,31.842 Z M28.128,31.257 C27.3046625,33.3110103 26.4813374,34.3423333 25.658,34.351 C24.6613283,34.3596667 23.9333356,33.8440052 23.474,32.804 C23.1186649,32.0066627 22.9366667,30.9623398 22.928,29.671 C22.9193333,28.2149927 23.109998,26.889006 23.5,25.693 C23.9506689,24.2976597 24.5616628,23.5566671 25.333,23.47 C25.4456672,23.4613333 25.5539995,23.457 25.658,23.457 C26.3773369,23.457 26.931998,23.7776635 27.322,24.419 C27.6080014,24.9043358 27.8506657,25.6756614 28.05,26.733 C28.1973341,27.1576688 28.271,27.4176662 28.271,27.513 C28.271,27.7990014 28.0933351,28.0199992 27.738,28.176 C27.6599996,28.2106668 27.5690005,28.228 27.465,28.228 C27.2136654,28.228 26.9363348,28.1456675 26.633,27.981 C26.2776649,27.7903324 26.1,27.5823345 26.1,27.357 C26.1,27.3223332 26.1606661,27.1533349 26.282,26.85 C26.2646666,26.4686648 26.1953339,26.106835 26.074,25.7645 C25.9526661,25.422165 25.8140008,25.2336668 25.658,25.199 C25.4153321,25.138333 25.2030009,25.6193282 25.021,26.642 C24.8649992,27.4913376 24.7696668,28.4273282 24.735,29.45 C24.7089999,30.2213372 24.7523328,30.93633 24.865,31.595 C24.9950006,32.3490038 25.1899987,32.7519997 25.45,32.804 C25.6060008,32.8300001 25.7923322,32.6350021 26.009,32.219 C26.217001,31.8376648 26.3903326,31.3870026 26.529,30.867 C26.5116666,30.7803329 26.503,30.6980004 26.503,30.62 C26.503,30.1086641 26.8149969,29.853 27.439,29.853 C27.5776674,29.853 27.7163326,29.8659999 27.855,29.892 C28.2796688,29.9786671 28.492,30.1909983 28.492,30.529 C28.492,30.8063347 28.3706679,31.048999 28.128,31.257 Z M31.638,33.896 C31.5599996,34.1126677 31.3346685,34.221 30.962,34.221 C30.8579995,34.221 30.7453339,34.2123334 30.624,34.195 C29.9133298,34.0823328 29.4973339,33.8700016 29.376,33.558 C29.3499999,33.497333 29.337,33.436667 29.337,33.376 C29.337,33.1939991 29.4366657,33.0120009 29.636,32.83 C29.6013332,31.5299935 29.5233339,28.87802 29.402,24.874 C29.4106667,24.7613328 29.3803337,24.6291674 29.311,24.4775 C29.2416663,24.3258326 29.207,24.2153337 29.207,24.146 C29.207,23.9899992 29.3066657,23.8253342 29.506,23.652 C29.6446674,23.5306661 29.8396654,23.47 30.091,23.47 C30.3770014,23.47 30.6803317,23.5436659 31.001,23.691 C31.3823352,23.8730009 31.573,24.0939987 31.573,24.354 C31.573,24.414667 31.4820009,24.6486646 31.3,25.056 L31.43,32.934 C31.43,33.0380005 31.4689996,33.1701659 31.547,33.3305 C31.6250004,33.4908341 31.664,33.6186662 31.664,33.714 C31.664,33.774667 31.6553334,33.835333 31.638,33.896 Z M37.306,24.874 C37.1066657,25.0386675 36.8510016,25.121 36.539,25.121 C36.4089994,25.121 36.2573342,25.1080001 36.084,25.082 C35.8326654,25.1600004 35.6073343,25.2379996 35.408,25.316 C34.9226642,25.4980009 34.6020008,25.6539994 34.446,25.784 C34.3939997,26.6853378 34.3939997,27.7166609 34.446,28.878 C34.4980003,28.8433332 34.627999,28.8086668 34.836,28.774 C34.9400005,28.5919991 35.1176654,28.501 35.369,28.501 C35.6203346,28.501 35.9128317,28.6223321 36.2465,28.865 C36.5801683,29.1076679 36.747,29.3459988 36.747,29.58 C36.747,29.640667 36.7340001,29.701333 36.708,29.762 C36.6039995,30.0220013 36.4436678,30.1866663 36.227,30.256 C36.0969994,30.2993335 35.9063346,30.3101668 35.655,30.2885 C35.4036654,30.2668332 35.2433337,30.2733332 35.174,30.308 C34.9746657,30.4033338 34.7320014,30.5159993 34.446,30.646 C34.446,31.4260039 34.4719997,31.9286655 34.524,32.154 C34.8880018,32.0673329 35.1913321,31.9633339 35.434,31.842 C35.4773336,31.781333 35.5206665,31.7250003 35.564,31.673 C35.6506671,31.5776662 35.8066655,31.5386666 36.032,31.556 C36.2746679,31.5733334 36.5259987,31.7119987 36.786,31.972 C37.0460013,32.2320013 37.176,32.496332 37.176,32.765 C37.176,32.9990012 37.0763343,33.1723328 36.877,33.285 C36.6776657,33.3976672 36.3440023,33.4366668 35.876,33.402 L34.654,34.013 C34.6019997,34.0390001 34.4893342,34.1256659 34.316,34.273 C34.1859993,34.3856672 34.0690005,34.442 33.965,34.442 C33.9303332,34.442 33.8913336,34.4376667 33.848,34.429 C33.3886644,34.2903326 32.9726685,33.9306696 32.6,33.35 C32.5739999,33.3066665 32.561,33.254667 32.561,33.194 C32.561,33.1679999 32.6086662,32.9946683 32.704,32.674 C32.6086662,30.1519874 32.591333,27.4653476 32.652,24.614 C32.591333,24.5273329 32.561,24.4406671 32.561,24.354 C32.561,24.0679986 32.8253307,23.8860004 33.354,23.808 C33.4666672,23.7906666 33.6096658,23.8209996 33.783,23.899 C33.8956672,23.959667 34.0039995,24.0159997 34.108,24.068 L35.668,23.574 C35.7026668,23.5653333 35.8023325,23.5133338 35.967,23.418 C36.0796672,23.3486663 36.2096659,23.314 36.357,23.314 C36.4263337,23.314 36.5086662,23.3226666 36.604,23.34 C36.7946676,23.3746668 36.9831657,23.5241653 37.1695,23.7885 C37.3558343,24.0528347 37.449,24.3019988 37.449,24.536 C37.449,24.6833341 37.4013338,24.7959996 37.306,24.874 Z M45.106,33.064 C45.0886666,33.3760016 44.9803343,33.6381656 44.781,33.8505 C44.5816657,34.0628344 44.3346681,34.1603334 44.04,34.143 C43.3033297,34.0996665 42.800668,33.7400034 42.532,33.064 C42.4886664,32.9599995 42.4626667,32.7910012 42.454,32.557 C42.4366666,32.348999 42.3933337,32.1800007 42.324,32.05 C42.0033317,31.5559975 41.708668,31.0793356 41.44,30.62 C40.78133,29.5106611 40.2960016,28.5833371 39.984,27.838 C39.9493332,28.7220044 40.0186658,30.3859878 40.192,32.83 C40.192,32.8820003 40.2353329,32.9989991 40.322,33.181 C40.4086671,33.3630009 40.452,33.5146661 40.452,33.636 C40.452,33.7920008 40.4000005,33.9349993 40.296,34.065 C40.1486659,34.2556676 39.9276681,34.351 39.633,34.351 C39.3209984,34.351 39.0155015,34.253501 38.7165,34.0585 C38.4174985,33.863499 38.2506668,33.6360013 38.216,33.376 C38.1899999,33.167999 38.2463326,33.0076672 38.385,32.895 C38.5236674,32.7823328 38.5886667,32.6826671 38.58,32.596 L38.19,24.64 C38.19,24.5966665 38.1813334,24.5316671 38.164,24.445 C38.1466666,24.3583329 38.138,24.2933335 38.138,24.25 C38.138,24.1199994 38.205166,24.0160004 38.3395,23.938 C38.473834,23.8599996 38.6623321,23.821 38.905,23.821 C39.5550033,23.821 40.0186653,23.9899983 40.296,24.328 C40.3740004,24.4146671 40.413,24.5186661 40.413,24.64 C40.413,24.6920003 40.4043334,24.7613329 40.387,24.848 C40.3696666,24.9346671 40.361,24.9953332 40.361,25.03 C40.361,25.0560001 40.3653333,25.0819999 40.374,25.108 C40.5473342,25.9920044 41.4573251,27.8466525 43.104,30.672 L42.948,24.328 C42.948,24.2499996 42.917667,24.1633338 42.857,24.068 C42.796333,23.9726662 42.766,23.8990003 42.766,23.847 C42.766,23.7343328 42.8526658,23.5913342 43.026,23.418 C43.1213338,23.3139995 43.2686657,23.262 43.468,23.262 C43.7886683,23.262 44.1179983,23.3746655 44.456,23.6 C44.7940017,23.8253345 44.9673333,24.0679987 44.976,24.328 C44.9846667,24.4926675 44.9175007,24.6226662 44.7745,24.718 C44.6314993,24.8133338 44.56,24.9086662 44.56,25.004 L44.742,32.128 C44.742,32.2493339 44.8048327,32.4031657 44.9305,32.5895 C45.0561673,32.7758343 45.1146667,32.9339993 45.106,33.064 Z M50.826,31.257 C50.0026625,33.3110103 49.1793375,34.3423333 48.356,34.351 C47.3593283,34.3596667 46.6313356,33.8440052 46.172,32.804 C45.8166649,32.0066627 45.6346667,30.9623398 45.626,29.671 C45.6173333,28.2149927 45.8079981,26.889006 46.198,25.693 C46.6486689,24.2976597 47.2596628,23.5566671 48.031,23.47 C48.1436672,23.4613333 48.2519995,23.457 48.356,23.457 C49.0753369,23.457 49.6299981,23.7776635 50.02,24.419 C50.3060014,24.9043358 50.5486657,25.6756614 50.748,26.733 C50.8953341,27.1576688 50.969,27.4176662 50.969,27.513 C50.969,27.7990014 50.7913351,28.0199992 50.436,28.176 C50.3579996,28.2106668 50.2670005,28.228 50.163,28.228 C49.9116654,28.228 49.6343348,28.1456675 49.331,27.981 C48.9756649,27.7903324 48.798,27.5823345 48.798,27.357 C48.798,27.3223332 48.8586661,27.1533349 48.98,26.85 C48.9626666,26.4686648 48.8933339,26.106835 48.772,25.7645 C48.6506661,25.422165 48.5120008,25.2336668 48.356,25.199 C48.1133321,25.138333 47.9010009,25.6193282 47.719,26.642 C47.5629992,27.4913376 47.4676668,28.4273282 47.433,29.45 C47.4069999,30.2213372 47.4503328,30.93633 47.563,31.595 C47.6930007,32.3490038 47.8879987,32.7519997 48.148,32.804 C48.3040008,32.8300001 48.4903323,32.6350021 48.707,32.219 C48.915001,31.8376648 49.0883326,31.3870026 49.227,30.867 C49.2096666,30.7803329 49.201,30.6980004 49.201,30.62 C49.201,30.1086641 49.5129969,29.853 50.137,29.853 C50.2756674,29.853 50.4143326,29.8659999 50.553,29.892 C50.9776688,29.9786671 51.19,30.1909983 51.19,30.529 C51.19,30.8063347 51.0686679,31.048999 50.826,31.257 Z M56.91,24.874 C56.7106657,25.0386675 56.4550016,25.121 56.143,25.121 C56.0129993,25.121 55.8613342,25.1080001 55.688,25.082 C55.4366654,25.1600004 55.2113343,25.2379996 55.012,25.316 C54.5266642,25.4980009 54.2060008,25.6539994 54.05,25.784 C53.9979997,26.6853378 53.9979997,27.7166609 54.05,28.878 C54.1020003,28.8433332 54.231999,28.8086668 54.44,28.774 C54.5440005,28.5919991 54.7216654,28.501 54.973,28.501 C55.2243346,28.501 55.5168317,28.6223321 55.8505,28.865 C56.1841683,29.1076679 56.351,29.3459988 56.351,29.58 C56.351,29.640667 56.3380001,29.701333 56.312,29.762 C56.2079995,30.0220013 56.0476677,30.1866663 55.831,30.256 C55.7009993,30.2993335 55.5103346,30.3101668 55.259,30.2885 C55.0076654,30.2668332 54.8473337,30.2733332 54.778,30.308 C54.5786657,30.4033338 54.3360014,30.5159993 54.05,30.646 C54.05,31.4260039 54.0759997,31.9286655 54.128,32.154 C54.4920018,32.0673329 54.7953321,31.9633339 55.038,31.842 C55.0813335,31.781333 55.1246664,31.7250003 55.168,31.673 C55.2546671,31.5776662 55.4106655,31.5386666 55.636,31.556 C55.8786679,31.5733334 56.1299987,31.7119987 56.39,31.972 C56.6500013,32.2320013 56.78,32.496332 56.78,32.765 C56.78,32.9990012 56.6803343,33.1723328 56.481,33.285 C56.2816657,33.3976672 55.9480023,33.4366668 55.48,33.402 L54.258,34.013 C54.2059997,34.0390001 54.0933342,34.1256659 53.92,34.273 C53.7899994,34.3856672 53.6730005,34.442 53.569,34.442 C53.5343332,34.442 53.4953335,34.4376667 53.452,34.429 C52.9926644,34.2903326 52.5766685,33.9306696 52.204,33.35 C52.1779999,33.3066665 52.165,33.254667 52.165,33.194 C52.165,33.1679999 52.2126662,32.9946683 52.308,32.674 C52.2126662,30.1519874 52.195333,27.4653476 52.256,24.614 C52.195333,24.5273329 52.165,24.4406671 52.165,24.354 C52.165,24.0679986 52.4293307,23.8860004 52.958,23.808 C53.0706672,23.7906666 53.2136658,23.8209996 53.387,23.899 C53.4996672,23.959667 53.6079995,24.0159997 53.712,24.068 L55.272,23.574 C55.3066668,23.5653333 55.4063325,23.5133338 55.571,23.418 C55.6836672,23.3486663 55.8136659,23.314 55.961,23.314 C56.0303337,23.314 56.1126662,23.3226666 56.208,23.34 C56.3986676,23.3746668 56.5871657,23.5241653 56.7735,23.7885 C56.9598343,24.0528347 57.053,24.3019988 57.053,24.536 C57.053,24.6833341 57.0053338,24.7959996 56.91,24.874 Z"/>
    <path stroke="#979797" stroke-linecap="square" stroke-width="2" d="M15 52L58.0464865 52M15 56L58.0464865 56"/>
  </g>
</svg>
