<svg xmlns="http://www.w3.org/2000/svg" width="64" height="64" viewBox="0 0 64 64">
  <g fill="none" fill-rule="evenodd">
    <rect width="54" height="39" x="5" y="11" fill="#D8D8D8" rx="3" transform="rotate(-15 32 30.5)"/>
    <path fill="#ECECEC" d="M9,23.0065859 C9,21.3460944 10.3348389,20 11.9995609,20 L60.0004391,20 C61.6570508,20 63,21.3340567 63,23.0065859 L63,59.9934141 C63,61.6539056 61.6651611,63 60.0004391,63 L11.9995609,63 C10.3429492,63 9,61.6659433 9,59.9934141 L9,23.0065859 Z"/>
    <rect width="17" height="10" x="14" y="40" fill="#979797"/>
    <path stroke="#979797" stroke-linecap="square" stroke-width="2" d="M35 41L58.0217289 41M35 45L58.0217289 45"/>
    <path fill="#979797" d="M27.881,34.064 C27.8636666,34.3760016 27.7553343,34.6381656 27.556,34.8505 C27.3566657,35.0628344 27.1096681,35.1603334 26.815,35.143 C26.0783297,35.0996665 25.575668,34.7400034 25.307,34.064 C25.2636665,33.9599995 25.2376667,33.7910012 25.229,33.557 C25.2116666,33.348999 25.1683337,33.1800007 25.099,33.05 C24.7783317,32.5559975 24.483668,32.0793356 24.215,31.62 C23.55633,30.5106611 23.0710016,29.5833371 22.759,28.838 C22.7243332,29.7220044 22.7936658,31.3859878 22.967,33.83 C22.967,33.8820003 23.0103329,33.9989991 23.097,34.181 C23.1836671,34.3630009 23.227,34.5146661 23.227,34.636 C23.227,34.7920008 23.1750005,34.9349993 23.071,35.065 C22.9236659,35.2556676 22.7026681,35.351 22.408,35.351 C22.0959984,35.351 21.7905015,35.253501 21.4915,35.0585 C21.1924985,34.863499 21.0256668,34.6360013 20.991,34.376 C20.9649999,34.167999 21.0213326,34.0076672 21.16,33.895 C21.2986674,33.7823328 21.3636667,33.6826671 21.355,33.596 L20.965,25.64 C20.965,25.5966665 20.9563334,25.5316671 20.939,25.445 C20.9216666,25.3583329 20.913,25.2933335 20.913,25.25 C20.913,25.1199994 20.980166,25.0160004 21.1145,24.938 C21.248834,24.8599996 21.4373321,24.821 21.68,24.821 C22.3300033,24.821 22.7936653,24.9899983 23.071,25.328 C23.1490004,25.4146671 23.188,25.5186661 23.188,25.64 C23.188,25.6920003 23.1793334,25.7613329 23.162,25.848 C23.1446666,25.9346671 23.136,25.9953332 23.136,26.03 C23.136,26.0560001 23.1403333,26.0819999 23.149,26.108 C23.3223342,26.9920044 24.2323251,28.8466525 25.879,31.672 L25.723,25.328 C25.723,25.2499996 25.692667,25.1633338 25.632,25.068 C25.571333,24.9726662 25.541,24.8990003 25.541,24.847 C25.541,24.7343328 25.6276658,24.5913342 25.801,24.418 C25.8963338,24.3139995 26.0436657,24.262 26.243,24.262 C26.5636683,24.262 26.8929983,24.3746655 27.231,24.6 C27.5690017,24.8253345 27.7423333,25.0679987 27.751,25.328 C27.7596667,25.4926675 27.6925007,25.6226662 27.5495,25.718 C27.4064993,25.8133338 27.335,25.9086662 27.335,26.004 L27.517,33.128 C27.517,33.2493339 27.5798327,33.4031657 27.7055,33.5895 C27.8311673,33.7758343 27.8896667,33.9339993 27.881,34.064 Z M33.783,25.874 C33.5836657,26.0386675 33.3280016,26.121 33.016,26.121 C32.8859994,26.121 32.7343342,26.1080001 32.561,26.082 C32.3096654,26.1600004 32.0843343,26.2379996 31.885,26.316 C31.3996642,26.4980009 31.0790008,26.6539994 30.923,26.784 C30.8709997,27.6853378 30.8709997,28.7166609 30.923,29.878 C30.9750003,29.8433332 31.104999,29.8086668 31.313,29.774 C31.4170005,29.5919991 31.5946654,29.501 31.846,29.501 C32.0973346,29.501 32.3898317,29.6223321 32.7235,29.865 C33.0571683,30.1076679 33.224,30.3459988 33.224,30.58 C33.224,30.640667 33.2110001,30.701333 33.185,30.762 C33.0809995,31.0220013 32.9206678,31.1866663 32.704,31.256 C32.5739994,31.2993335 32.3833346,31.3101668 32.132,31.2885 C31.8806654,31.2668332 31.7203337,31.2733332 31.651,31.308 C31.4516657,31.4033338 31.2090014,31.5159993 30.923,31.646 C30.923,32.4260039 30.9489997,32.9286655 31.001,33.154 C31.3650018,33.0673329 31.6683321,32.9633339 31.911,32.842 C31.9543336,32.781333 31.9976664,32.7250003 32.041,32.673 C32.1276671,32.5776662 32.2836655,32.5386666 32.509,32.556 C32.7516679,32.5733334 33.0029987,32.7119987 33.263,32.972 C33.5230013,33.2320013 33.653,33.496332 33.653,33.765 C33.653,33.9990012 33.5533343,34.1723328 33.354,34.285 C33.1546657,34.3976672 32.8210023,34.4366668 32.353,34.402 L31.131,35.013 C31.0789997,35.0390001 30.9663342,35.1256659 30.793,35.273 C30.6629994,35.3856672 30.5460005,35.442 30.442,35.442 C30.4073332,35.442 30.3683335,35.4376667 30.325,35.429 C29.8656644,35.2903326 29.4496685,34.9306696 29.077,34.35 C29.0509999,34.3066665 29.038,34.254667 29.038,34.194 C29.038,34.1679999 29.0856662,33.9946683 29.181,33.674 C29.0856662,31.1519874 29.068333,28.4653476 29.129,25.614 C29.068333,25.5273329 29.038,25.4406671 29.038,25.354 C29.038,25.0679986 29.3023307,24.8860004 29.831,24.808 C29.9436672,24.7906666 30.0866658,24.8209996 30.26,24.899 C30.3726672,24.959667 30.4809995,25.0159997 30.585,25.068 L32.145,24.574 C32.1796668,24.5653333 32.2793325,24.5133338 32.444,24.418 C32.5566672,24.3486663 32.6866659,24.314 32.834,24.314 C32.9033337,24.314 32.9856662,24.3226666 33.081,24.34 C33.2716676,24.3746668 33.4601657,24.5241653 33.6465,24.7885 C33.8328343,25.0528347 33.926,25.3019988 33.926,25.536 C33.926,25.6833341 33.8783338,25.7959996 33.783,25.874 Z M46.588,24.548 C46.6746671,24.6953341 46.718,24.8296661 46.718,24.951 C46.718,25.0636672 46.6703338,25.2023325 46.575,25.367 C46.4536661,25.575001 46.3800001,25.7266662 46.354,25.822 L44.43,32.14 C44.369333,32.3220009 44.339,32.5386654 44.339,32.79 C44.339,32.9026672 44.3476666,33.062999 44.365,33.271 C44.3823334,33.479001 44.391,33.6306662 44.391,33.726 C44.391,34.202669 44.2328349,34.538499 43.9165,34.7335 C43.6001651,34.928501 43.2643351,35.026 42.909,35.026 C42.4409977,35.026 42.0293351,34.861335 41.674,34.532 C41.4573322,34.3326657 41.349,34.0770016 41.349,33.765 C41.349,33.6696662 41.3641665,33.5158344 41.3945,33.3035 C41.4248335,33.0911656 41.44,32.9243339 41.44,32.803 C41.44,32.6556659 41.4226668,32.5213339 41.388,32.4 L40.27,28.448 L38.944,33.05 C38.9179999,33.1540005 38.9634994,33.2796659 39.0805,33.427 C39.1975006,33.5743341 39.256,33.6913329 39.256,33.778 C39.2473333,34.4800035 39.0653351,35.0389979 38.71,35.455 C38.5279991,35.663001 38.2810016,35.767 37.969,35.767 C37.5009977,35.767 37.1500012,35.5850018 36.916,35.221 C36.8379996,35.0996661 36.799,34.9523342 36.799,34.779 C36.7903333,34.5189987 36.7773334,34.3500004 36.76,34.272 L34.888,26.186 C34.8706666,26.0993329 34.8186671,25.9693342 34.732,25.796 C34.6539996,25.6486659 34.615,25.5273338 34.615,25.432 C34.615,25.1979988 34.749332,25.0030008 35.018,24.847 C35.2433345,24.7169993 35.4859987,24.652 35.746,24.652 C36.0233347,24.652 36.2573324,24.7213326 36.448,24.86 C36.6040008,24.9726672 36.6906666,25.1503321 36.708,25.393 C36.7253334,25.6356679 36.7426666,25.8739988 36.76,26.108 L37.696,31.126 L39.178,25.718 C39.1953334,25.6486663 39.1845002,25.5533339 39.1455,25.432 C39.1064998,25.3106661 39.087,25.219667 39.087,25.159 C39.087,25.0463328 39.1346662,24.9293339 39.23,24.808 C39.3946675,24.5913322 39.6979978,24.483 40.14,24.483 C40.6686693,24.483 41.0499988,24.6346651 41.284,24.938 C41.3793338,25.0593339 41.427,25.1849993 41.427,25.315 C41.427,25.375667 41.4118335,25.4666661 41.3815,25.588 C41.3511665,25.7093339 41.336,25.800333 41.336,25.861 C41.336,25.921667 41.3446666,25.9779997 41.362,26.03 L42.818,31.126 L44.404,25.796 C44.4213334,25.7439997 44.4386666,25.5056688 44.456,25.081 C44.4733334,24.7949986 44.5599992,24.5913339 44.716,24.47 C45.0020014,24.2446655 45.3399981,24.132 45.73,24.132 C46.1286687,24.132 46.4146658,24.2706653 46.588,24.548 Z M52.425,32.842 C52.425,33.5180034 52.2105021,34.1094975 51.7815,34.6165 C51.3524979,35.1235025 50.8216698,35.377 50.189,35.377 C48.9149936,35.377 47.979003,34.7703394 47.381,33.557 C46.7309968,33.1323312 46.406,32.7726681 46.406,32.478 C46.406,32.3306659 46.4969991,32.2093338 46.679,32.114 C47.0343351,31.9233324 47.3593319,31.828 47.654,31.828 C48.2953365,31.828 48.7243322,32.2093295 48.941,32.972 C49.0450005,33.180001 49.1533328,33.387999 49.266,33.596 C49.3786672,33.804001 49.5303324,33.908 49.721,33.908 C50.2323359,33.908 50.488,33.5440036 50.488,32.816 C50.488,32.1659968 50.3710012,31.7283345 50.137,31.503 C50.0329995,31.4076662 49.6170036,31.2083348 48.889,30.905 C48.3083304,30.6623321 47.8403351,30.2463363 47.485,29.657 C47.1643317,29.119664 46.9996667,28.5606696 46.991,27.98 C46.9823333,27.0439953 47.2163309,26.2120036 47.693,25.484 C48.1956692,24.7039961 48.8196629,24.314 49.565,24.314 C50.431671,24.314 51.0643313,24.6606632 51.463,25.354 C51.7230013,25.7873355 51.8703332,26.3246635 51.905,26.966 C52.0003338,27.295335 52.048,27.594332 52.048,27.863 C52.048,28.0363342 52.0263336,28.1793328 51.983,28.292 C51.8529994,28.6126683 51.5973352,28.773 51.216,28.773 C50.9299986,28.773 50.6700012,28.669001 50.436,28.461 C50.1759987,28.2356655 50.015667,27.9193354 49.955,27.512 C49.9289999,27.3733326 49.9571663,27.2346674 50.0395,27.096 C50.1218337,26.9573326 50.163,26.8793334 50.163,26.862 C50.163,26.8446666 50.1543334,26.8273334 50.137,26.81 C50.1456667,26.7666664 50.15,26.7233335 50.15,26.68 C50.15,26.4199987 49.9983348,26.2986666 49.695,26.316 C49.4003319,26.3333334 49.1706675,26.5283315 49.006,26.901 C48.8586659,27.2216683 48.7936666,27.5899979 48.811,28.006 C48.8370001,28.7426703 49.3223286,29.3319978 50.267,29.774 C51.0123371,30.1206684 51.5279986,30.4629983 51.814,30.801 C52.2213354,31.2863358 52.425,31.9666623 52.425,32.842 Z"/>
    <path stroke="#979797" stroke-linecap="square" stroke-width="2" d="M15 53L58.0464865 53M15 57L58.0464865 57"/>
    <path stroke="#E43535" stroke-linecap="round" d="M57.3969606,36.5849134 C48.706739,36.4688446 42.9332183,37.6690652 34.0606337,37.6690652 C29.6410624,37.6690652 33.1482194,48.0143485 33.3083999,48.1885365 C36.2553173,51.393155 41.405819,49.2569194 46.3703523,49.273592 C51.3348857,49.2902645 63.0970478,49.9369817 61.3906589,41.2531373 L57.3969606,36.5849134 Z"/>
  </g>
</svg>
