<svg xmlns="http://www.w3.org/2000/svg" width="64" height="64" viewBox="0 0 64 64">
  <g fill="none" fill-rule="evenodd">
    <rect width="54" height="39" x="5" y="11" fill="#D8D8D8" rx="3" transform="rotate(-15 32 30.5)"/>
    <path fill="#ECECEC" d="M9,23.0065859 C9,21.3460944 10.3348389,20 11.9995609,20 L60.0004391,20 C61.6570508,20 63,21.3340567 63,23.0065859 L63,59.9934141 C63,61.6539056 61.6651611,63 60.0004391,63 L11.9995609,63 C10.3429492,63 9,61.6659433 9,59.9934141 L9,23.0065859 Z"/>
    <rect width="17" height="10" x="14" y="40" fill="#FFAF40"/>
    <path stroke="#979797" stroke-linecap="square" stroke-width="2" d="M35 41L58.0217289 41M35 49L58.0217289 49M35 45L58.0217289 45"/>
    <path fill="#979797" d="M20.107,25.172 C20.2370007,25.3626676 20.302,25.6183317 20.302,25.939 C20.302,26.6930038 19.8903375,27.8543255 19.067,29.423 C18.2089957,31.0783416 17.5070027,31.906 16.961,31.906 C16.8223326,31.906 16.7183337,31.8280008 16.649,31.672 C16.6229999,31.8713343 16.61,32.1226652 16.61,32.426 C16.61,32.9460026 16.640333,33.5439966 16.701,34.22 C16.701,34.280667 16.7226664,34.3803326 16.766,34.519 C16.8093336,34.6576674 16.831,34.7616663 16.831,34.831 C16.831,34.9956675 16.7183345,35.1343328 16.493,35.247 C16.3889995,35.2990003 16.2503342,35.325 16.077,35.325 C15.7909986,35.325 15.5223346,35.2600006 15.271,35.13 C14.9849986,34.9913326 14.8203335,34.8093345 14.777,34.584 C14.7683333,34.523333 14.764,34.4713335 14.764,34.428 C14.764,34.2979994 14.8094995,34.1788339 14.9005,34.0705 C14.9915005,33.9621661 15.037,33.8906668 15.037,33.856 L14.803,25.432 C14.803,25.4059999 14.7900001,25.3540004 14.764,25.276 C14.7379999,25.1979996 14.725,25.1373335 14.725,25.094 C14.725,24.9379992 14.8376655,24.8166671 15.063,24.73 C15.2363342,24.6606663 15.4183324,24.626 15.609,24.626 C15.669667,24.626 15.9123312,24.6519997 16.337,24.704 C16.3890003,24.704 16.646831,24.6108343 17.1105,24.4245 C17.574169,24.2381657 17.9836649,24.145 18.339,24.145 C19.0323368,24.145 19.6216642,24.4873299 20.107,25.172 Z M18.17,25.692 C17.961999,25.692 17.6955016,25.8024989 17.3705,26.0235 C17.0454984,26.2445011 16.7616679,26.4979986 16.519,26.784 L16.571,29.774 C16.9523352,29.4879986 17.3661644,28.9138376 17.8125,28.0515 C18.2588356,27.1891624 18.482,26.5326689 18.482,26.082 C18.482,25.8219987 18.378001,25.692 18.17,25.692 Z M27.049,29.54 C27.109667,30.7013391 26.9103356,31.8994938 26.451,33.1345 C25.9916644,34.3695062 25.5020026,35.0649992 24.982,35.221 C24.773999,35.2903337 24.5703343,35.3163334 24.371,35.299 C24.162999,35.2729999 23.9593343,35.2470001 23.76,35.221 C21.9746577,35.012999 20.9910009,33.1193512 20.809,29.54 C20.7569997,28.5693285 20.9129982,27.5293389 21.277,26.42 C21.6150017,25.3886615 21.9659982,24.7516679 22.33,24.509 C22.4166671,24.448333 22.5119995,24.418 22.616,24.418 C22.6940004,24.418 22.8153325,24.4418331 22.98,24.4895 C23.1446675,24.5371669 23.2703329,24.561 23.357,24.561 C23.4610005,24.561 23.6494986,24.5371669 23.9225,24.4895 C24.1955014,24.4418331 24.3969993,24.418 24.527,24.418 C24.6483339,24.418 24.7479996,24.4353332 24.826,24.47 C26.1693401,25.0160027 26.9103326,26.7059858 27.049,29.54 Z M25.294,29.54 C25.2073329,28.4566612 25.0903341,27.6420027 24.943,27.096 C24.7003321,26.1773287 24.3406691,25.718 23.864,25.718 C23.7339993,25.718 23.5975007,25.7526663 23.4545,25.822 C23.3114993,25.8913337 23.1230012,26.3376625 22.889,27.161 C22.6463321,28.0623378 22.525,28.8553299 22.525,29.54 C22.525,30.4326711 22.6809984,31.3708284 22.993,32.3545 C23.3050016,33.3381716 23.6039986,33.83 23.89,33.83 C24.158668,33.83 24.457665,33.3880044 24.787,32.504 C25.1336684,31.5853287 25.307,30.7143375 25.307,29.891 C25.307,29.7696661 25.3026667,29.6526672 25.294,29.54 Z M32.886,32.998 C32.9380003,33.1020005 32.964,33.2189993 32.964,33.349 C32.964,33.5656678 32.896834,33.7736657 32.7625,33.973 C32.628166,34.1723343 32.4721676,34.3044997 32.2945,34.3695 C32.1168324,34.4345003 31.863335,34.467 31.534,34.467 C31.204665,34.467 30.9663341,34.4886665 30.819,34.532 C30.6716659,34.5753336 30.5026676,34.7096655 30.312,34.935 C30.1473325,35.1170009 29.8613354,35.238333 29.454,35.299 C29.2026654,35.3336668 28.9470013,35.247001 28.687,35.039 C28.4269987,34.830999 28.2493338,34.5753349 28.154,34.272 C28.1366666,34.211333 28.128,34.1550003 28.128,34.103 C28.128,33.9903328 28.1908327,33.8646674 28.3165,33.726 C28.4421673,33.5873326 28.5006667,33.4660005 28.492,33.362 L27.946,25.484 C27.946,25.4493332 27.9005005,25.3691673 27.8095,25.2435 C27.7184995,25.1178327 27.673,25.0116671 27.673,24.925 C27.673,24.8036661 27.7379994,24.6866672 27.868,24.574 C28.0500009,24.4093325 28.3099983,24.327 28.648,24.327 C28.9340014,24.327 29.2091653,24.3876661 29.4735,24.509 C29.7378347,24.6303339 29.9046663,24.7733325 29.974,24.938 C30.0173336,25.0333338 30.039,25.1156663 30.039,25.185 C30.039,25.2630004 30.0000004,25.3409996 29.922,25.419 C29.8439996,25.4970004 29.8093333,25.5706663 29.818,25.64 L30.286,32.816 L31.066,32.504 C31.2306675,32.4259996 31.3974992,32.350167 31.5665,32.2765 C31.7355008,32.202833 31.8763328,32.166 31.989,32.166 C32.3010016,32.166 32.5999986,32.4433306 32.886,32.998 Z M35.642,34.896 C35.5639996,35.1126677 35.3386685,35.221 34.966,35.221 C34.8619995,35.221 34.7493339,35.2123334 34.628,35.195 C33.9173298,35.0823328 33.5013339,34.8700016 33.38,34.558 C33.3539999,34.497333 33.341,34.436667 33.341,34.376 C33.341,34.1939991 33.4406657,34.0120009 33.64,33.83 C33.6053332,32.5299935 33.5273339,29.87802 33.406,25.874 C33.4146667,25.7613328 33.3843337,25.6291674 33.315,25.4775 C33.2456663,25.3258326 33.211,25.2153337 33.211,25.146 C33.211,24.9899992 33.3106657,24.8253342 33.51,24.652 C33.6486674,24.5306661 33.8436654,24.47 34.095,24.47 C34.3810014,24.47 34.6843317,24.5436659 35.005,24.691 C35.3863352,24.8730009 35.577,25.0939987 35.577,25.354 C35.577,25.414667 35.4860009,25.6486646 35.304,26.056 L35.434,33.934 C35.434,34.0380005 35.4729996,34.1701659 35.551,34.3305 C35.6290004,34.4908341 35.668,34.6186662 35.668,34.714 C35.668,34.774667 35.6593334,34.835333 35.642,34.896 Z M42.064,26.03 C41.9686662,26.2120009 41.7650016,26.303 41.453,26.303 C41.0456646,26.303 40.8073337,26.3159999 40.738,26.342 C40.4173317,26.4806674 40.0446688,26.6366658 39.62,26.81 C39.5939999,27.46867 39.581,28.1923294 39.581,28.981 C39.581,30.5843414 39.6286662,32.2266583 39.724,33.908 C39.724,34.0293339 39.7694995,34.187499 39.8605,34.3825 C39.9515005,34.577501 39.997,34.7183329 39.997,34.805 C39.997,34.9176672 39.9580004,35.0216662 39.88,35.117 C39.6893324,35.3770013 39.4033352,35.507 39.022,35.507 C38.692665,35.507 38.3785015,35.4181676 38.0795,35.2405 C37.7804985,35.0628324 37.6093335,34.8526679 37.566,34.61 C37.5399999,34.4799993 37.6071659,34.3326675 37.7675,34.168 C37.9278341,34.0033325 38.008,33.8473341 38.008,33.7 C37.947333,31.9753247 37.917,30.4673398 37.917,29.176 C37.917,28.3959961 37.9299999,27.7720023 37.956,27.304 C37.9473333,27.304 37.8260012,27.3473329 37.592,27.434 C37.4359992,27.494667 37.3103338,27.525 37.215,27.525 C37.0763326,27.525 36.9506672,27.4773338 36.838,27.382 C36.5606653,27.1479988 36.3873337,26.9920004 36.318,26.914 C36.1793326,26.7579992 36.11,26.5933342 36.11,26.42 C36.11,26.359333 36.1186666,26.2900004 36.136,26.212 C36.1620001,26.0906661 36.7946605,25.8436685 38.034,25.471 C39.3686733,25.0636646 40.0879995,24.8253337 40.192,24.756 C40.2873338,24.7213332 40.3934994,24.6433339 40.5105,24.522 C40.6275006,24.4006661 40.7553326,24.3313334 40.894,24.314 C41.0846676,24.2966666 41.3359984,24.422332 41.648,24.691 C41.9946684,24.9943348 42.168,25.310665 42.168,25.64 C42.168,25.7700007 42.1333337,25.8999994 42.064,26.03 Z M45.392,34.896 C45.3139996,35.1126677 45.0886685,35.221 44.716,35.221 C44.6119995,35.221 44.4993339,35.2123334 44.378,35.195 C43.6673298,35.0823328 43.2513339,34.8700016 43.13,34.558 C43.1039999,34.497333 43.091,34.436667 43.091,34.376 C43.091,34.1939991 43.1906657,34.0120009 43.39,33.83 C43.3553332,32.5299935 43.2773339,29.87802 43.156,25.874 C43.1646667,25.7613328 43.1343337,25.6291674 43.065,25.4775 C42.9956663,25.3258326 42.961,25.2153337 42.961,25.146 C42.961,24.9899992 43.0606657,24.8253342 43.26,24.652 C43.3986674,24.5306661 43.5936654,24.47 43.845,24.47 C44.1310014,24.47 44.4343317,24.5436659 44.755,24.691 C45.1363352,24.8730009 45.327,25.0939987 45.327,25.354 C45.327,25.414667 45.2360009,25.6486646 45.054,26.056 L45.184,33.934 C45.184,34.0380005 45.2229996,34.1701659 45.301,34.3305 C45.3790004,34.4908341 45.418,34.6186662 45.418,34.714 C45.418,34.774667 45.4093334,34.835333 45.392,34.896 Z M51.541,32.257 C50.7176626,34.3110103 49.8943374,35.3423333 49.071,35.351 C48.0743284,35.3596667 47.3463356,34.8440052 46.887,33.804 C46.5316649,33.0066627 46.3496667,31.9623398 46.341,30.671 C46.3323333,29.2149927 46.5229981,27.889006 46.913,26.693 C47.3636689,25.2976597 47.9746628,24.5566671 48.746,24.47 C48.8586672,24.4613333 48.9669995,24.457 49.071,24.457 C49.7903369,24.457 50.344998,24.7776635 50.735,25.419 C51.0210014,25.9043358 51.2636657,26.6756614 51.463,27.733 C51.6103341,28.1576688 51.684,28.4176662 51.684,28.513 C51.684,28.7990014 51.5063351,29.0199992 51.151,29.176 C51.0729996,29.2106668 50.9820005,29.228 50.878,29.228 C50.6266654,29.228 50.3493349,29.1456675 50.046,28.981 C49.6906649,28.7903324 49.513,28.5823345 49.513,28.357 C49.513,28.3223332 49.5736661,28.1533349 49.695,27.85 C49.6776666,27.4686648 49.6083339,27.106835 49.487,26.7645 C49.3656661,26.422165 49.2270008,26.2336668 49.071,26.199 C48.8283321,26.138333 48.6160009,26.6193282 48.434,27.642 C48.2779992,28.4913376 48.1826668,29.4273282 48.148,30.45 C48.1219999,31.2213372 48.1653328,31.93633 48.278,32.595 C48.4080007,33.3490038 48.6029987,33.7519997 48.863,33.804 C49.0190008,33.8300001 49.2053323,33.6350021 49.422,33.219 C49.630001,32.8376648 49.8033326,32.3870026 49.942,31.867 C49.9246666,31.7803329 49.916,31.6980004 49.916,31.62 C49.916,31.1086641 50.2279969,30.853 50.852,30.853 C50.9906674,30.853 51.1293326,30.8659999 51.268,30.892 C51.6926688,30.9786671 51.905,31.1909983 51.905,31.529 C51.905,31.8063347 51.7836679,32.048999 51.541,32.257 Z M58.509,32.842 C58.509,33.5180034 58.2945021,34.1094975 57.8655,34.6165 C57.4364979,35.1235025 56.9056698,35.377 56.273,35.377 C54.9989936,35.377 54.063003,34.7703394 53.465,33.557 C52.8149968,33.1323312 52.49,32.7726681 52.49,32.478 C52.49,32.3306659 52.5809991,32.2093338 52.763,32.114 C53.1183351,31.9233324 53.4433319,31.828 53.738,31.828 C54.3793365,31.828 54.8083322,32.2093295 55.025,32.972 C55.1290005,33.180001 55.2373328,33.387999 55.35,33.596 C55.4626672,33.804001 55.6143324,33.908 55.805,33.908 C56.3163359,33.908 56.572,33.5440036 56.572,32.816 C56.572,32.1659968 56.4550012,31.7283345 56.221,31.503 C56.1169995,31.4076662 55.7010036,31.2083348 54.973,30.905 C54.3923304,30.6623321 53.9243351,30.2463363 53.569,29.657 C53.2483317,29.119664 53.0836667,28.5606696 53.075,27.98 C53.0663333,27.0439953 53.3003309,26.2120036 53.777,25.484 C54.2796692,24.7039961 54.9036629,24.314 55.649,24.314 C56.515671,24.314 57.1483313,24.6606632 57.547,25.354 C57.8070013,25.7873355 57.9543332,26.3246635 57.989,26.966 C58.0843338,27.295335 58.132,27.594332 58.132,27.863 C58.132,28.0363342 58.1103335,28.1793328 58.067,28.292 C57.9369993,28.6126683 57.6813352,28.773 57.3,28.773 C57.0139986,28.773 56.7540012,28.669001 56.52,28.461 C56.2599987,28.2356655 56.099667,27.9193354 56.039,27.512 C56.0129999,27.3733326 56.0411663,27.2346674 56.1235,27.096 C56.2058337,26.9573326 56.247,26.8793334 56.247,26.862 C56.247,26.8446666 56.2383334,26.8273334 56.221,26.81 C56.2296667,26.7666664 56.234,26.7233335 56.234,26.68 C56.234,26.4199987 56.0823349,26.2986666 55.779,26.316 C55.4843319,26.3333334 55.2546675,26.5283315 55.09,26.901 C54.9426659,27.2216683 54.8776666,27.5899979 54.895,28.006 C54.9210001,28.7426703 55.4063286,29.3319978 56.351,29.774 C57.0963371,30.1206684 57.6119986,30.4629983 57.898,30.801 C58.3053354,31.2863358 58.509,31.9666623 58.509,32.842 Z"/>
    <path stroke="#979797" stroke-linecap="square" stroke-width="2" d="M15 53L58.0464865 53M15 57L58.0464865 57"/>
  </g>
</svg>
