<svg xmlns="http://www.w3.org/2000/svg" width="64" height="64" viewBox="0 0 64 64">
  <g fill="none" fill-rule="evenodd">
    <rect width="54" height="39" x="5" y="11" fill="#D8D8D8" rx="3" transform="rotate(-15 32 30.5)"/>
    <path fill="#ECECEC" d="M9,23.0065859 C9,21.3460944 10.3348389,20 11.9995609,20 L60.0004391,20 C61.6570508,20 63,21.3340567 63,23.0065859 L63,59.9934141 C63,61.6539056 61.6651611,63 60.0004391,63 L11.9995609,63 C10.3429492,63 9,61.6659433 9,59.9934141 L9,23.0065859 Z"/>
    <rect width="17" height="10" x="14" y="40" fill="#0A3586"/>
    <path stroke="#979797" stroke-linecap="square" stroke-width="2" d="M35 41L58.0217289 41M35 49L58.0217289 49M35 45L58.0217289 45"/>
    <path fill="#979797" d="M30.494,26.03 C30.3986662,26.2120009 30.1950016,26.303 29.883,26.303 C29.4756646,26.303 29.2373337,26.3159999 29.168,26.342 C28.8473317,26.4806674 28.4746688,26.6366658 28.05,26.81 C28.0239999,27.46867 28.011,28.1923294 28.011,28.981 C28.011,30.5843414 28.0586662,32.2266583 28.154,33.908 C28.154,34.0293339 28.1994995,34.187499 28.2905,34.3825 C28.3815005,34.577501 28.427,34.7183329 28.427,34.805 C28.427,34.9176672 28.3880004,35.0216662 28.31,35.117 C28.1193324,35.3770013 27.8333352,35.507 27.452,35.507 C27.122665,35.507 26.8085015,35.4181676 26.5095,35.2405 C26.2104985,35.0628324 26.0393336,34.8526679 25.996,34.61 C25.9699999,34.4799993 26.0371659,34.3326675 26.1975,34.168 C26.3578341,34.0033325 26.438,33.8473341 26.438,33.7 C26.377333,31.9753247 26.347,30.4673398 26.347,29.176 C26.347,28.3959961 26.3599999,27.7720023 26.386,27.304 C26.3773333,27.304 26.2560012,27.3473329 26.022,27.434 C25.8659992,27.494667 25.7403338,27.525 25.645,27.525 C25.5063326,27.525 25.3806672,27.4773338 25.268,27.382 C24.9906653,27.1479988 24.8173337,26.9920004 24.748,26.914 C24.6093326,26.7579992 24.54,26.5933342 24.54,26.42 C24.54,26.359333 24.5486666,26.2900004 24.566,26.212 C24.5920001,26.0906661 25.2246605,25.8436685 26.464,25.471 C27.7986733,25.0636646 28.5179995,24.8253337 28.622,24.756 C28.7173338,24.7213332 28.8234994,24.6433339 28.9405,24.522 C29.0575006,24.4006661 29.1853326,24.3313334 29.324,24.314 C29.5146676,24.2966666 29.7659984,24.422332 30.078,24.691 C30.4246684,24.9943348 30.598,25.310665 30.598,25.64 C30.598,25.7700007 30.5633337,25.8999994 30.494,26.03 Z M35.98,25.874 C35.7806657,26.0386675 35.5250016,26.121 35.213,26.121 C35.0829994,26.121 34.9313342,26.1080001 34.758,26.082 C34.5066654,26.1600004 34.2813343,26.2379996 34.082,26.316 C33.5966642,26.4980009 33.2760008,26.6539994 33.12,26.784 C33.0679997,27.6853378 33.0679997,28.7166609 33.12,29.878 C33.1720003,29.8433332 33.301999,29.8086668 33.51,29.774 C33.6140005,29.5919991 33.7916654,29.501 34.043,29.501 C34.2943346,29.501 34.5868317,29.6223321 34.9205,29.865 C35.2541683,30.1076679 35.421,30.3459988 35.421,30.58 C35.421,30.640667 35.4080001,30.701333 35.382,30.762 C35.2779995,31.0220013 35.1176678,31.1866663 34.901,31.256 C34.7709994,31.2993335 34.5803346,31.3101668 34.329,31.2885 C34.0776654,31.2668332 33.9173337,31.2733332 33.848,31.308 C33.6486657,31.4033338 33.4060014,31.5159993 33.12,31.646 C33.12,32.4260039 33.1459997,32.9286655 33.198,33.154 C33.5620018,33.0673329 33.8653321,32.9633339 34.108,32.842 C34.1513336,32.781333 34.1946664,32.7250003 34.238,32.673 C34.3246671,32.5776662 34.4806655,32.5386666 34.706,32.556 C34.9486679,32.5733334 35.1999987,32.7119987 35.46,32.972 C35.7200013,33.2320013 35.85,33.496332 35.85,33.765 C35.85,33.9990012 35.7503343,34.1723328 35.551,34.285 C35.3516657,34.3976672 35.0180023,34.4366668 34.55,34.402 L33.328,35.013 C33.2759997,35.0390001 33.1633342,35.1256659 32.99,35.273 C32.8599993,35.3856672 32.7430005,35.442 32.639,35.442 C32.6043332,35.442 32.5653335,35.4376667 32.522,35.429 C32.0626644,35.2903326 31.6466685,34.9306696 31.274,34.35 C31.2479999,34.3066665 31.235,34.254667 31.235,34.194 C31.235,34.1679999 31.2826662,33.9946683 31.378,33.674 C31.2826662,31.1519874 31.265333,28.4653476 31.326,25.614 C31.265333,25.5273329 31.235,25.4406671 31.235,25.354 C31.235,25.0679986 31.4993307,24.8860004 32.028,24.808 C32.1406672,24.7906666 32.2836658,24.8209996 32.457,24.899 C32.5696672,24.959667 32.6779995,25.0159997 32.782,25.068 L34.342,24.574 C34.3766668,24.5653333 34.4763325,24.5133338 34.641,24.418 C34.7536672,24.3486663 34.8836659,24.314 35.031,24.314 C35.1003337,24.314 35.1826662,24.3226666 35.278,24.34 C35.4686676,24.3746668 35.6571657,24.5241653 35.8435,24.7885 C36.0298343,25.0528347 36.123,25.3019988 36.123,25.536 C36.123,25.6833341 36.0753338,25.7959996 35.98,25.874 Z M41.7,32.257 C40.8766625,34.3110103 40.0533374,35.3423333 39.23,35.351 C38.2333283,35.3596667 37.5053356,34.8440052 37.046,33.804 C36.6906649,33.0066627 36.5086667,31.9623398 36.5,30.671 C36.4913333,29.2149927 36.681998,27.889006 37.072,26.693 C37.5226689,25.2976597 38.1336628,24.5566671 38.905,24.47 C39.0176672,24.4613333 39.1259995,24.457 39.23,24.457 C39.9493369,24.457 40.503998,24.7776635 40.894,25.419 C41.1800014,25.9043358 41.4226657,26.6756614 41.622,27.733 C41.7693341,28.1576688 41.843,28.4176662 41.843,28.513 C41.843,28.7990014 41.6653351,29.0199992 41.31,29.176 C41.2319996,29.2106668 41.1410005,29.228 41.037,29.228 C40.7856654,29.228 40.5083348,29.1456675 40.205,28.981 C39.8496649,28.7903324 39.672,28.5823345 39.672,28.357 C39.672,28.3223332 39.7326661,28.1533349 39.854,27.85 C39.8366666,27.4686648 39.7673339,27.106835 39.646,26.7645 C39.5246661,26.422165 39.3860008,26.2336668 39.23,26.199 C38.9873321,26.138333 38.7750009,26.6193282 38.593,27.642 C38.4369992,28.4913376 38.3416668,29.4273282 38.307,30.45 C38.2809999,31.2213372 38.3243328,31.93633 38.437,32.595 C38.5670006,33.3490038 38.7619987,33.7519997 39.022,33.804 C39.1780008,33.8300001 39.3643322,33.6350021 39.581,33.219 C39.789001,32.8376648 39.9623326,32.3870026 40.101,31.867 C40.0836666,31.7803329 40.075,31.6980004 40.075,31.62 C40.075,31.1086641 40.3869969,30.853 41.011,30.853 C41.1496674,30.853 41.2883326,30.8659999 41.427,30.892 C41.8516688,30.9786671 42.064,31.1909983 42.064,31.529 C42.064,31.8063347 41.9426679,32.048999 41.7,32.257 Z M47.784,30.684 C47.7493332,31.3773368 47.7579997,32.3739935 47.81,33.674 C47.81,33.7606671 47.840333,33.8819992 47.901,34.038 C47.961667,34.1940008 47.992,34.3066663 47.992,34.376 C47.992,34.5493342 47.8446681,34.6966661 47.55,34.818 C47.489333,34.8440001 47.4113338,34.857 47.316,34.857 C47.0299986,34.857 46.7266683,34.7790008 46.406,34.623 C46.0246648,34.4409991 45.834,34.2243346 45.834,33.973 C45.834,33.8603328 45.8751663,33.7130009 45.9575,33.531 C46.0398337,33.3489991 46.1199996,33.1713342 46.198,32.998 L46.198,30.762 L44.456,31.126 C44.456,31.5506688 44.4603333,32.1486628 44.469,32.92 C44.4776667,33.6913372 44.482,34.0813333 44.482,34.09 C44.482,34.1940005 44.5101664,34.3543323 44.5665,34.571 C44.6228336,34.7876677 44.651,34.9436662 44.651,35.039 C44.651,35.2123342 44.5925006,35.3531661 44.4755,35.4615 C44.3584994,35.5698339 44.2003343,35.624 44.001,35.624 C43.792999,35.624 43.5806677,35.5676672 43.364,35.455 C43.1473322,35.3423328 43.002167,35.2275006 42.9285,35.1105 C42.854833,34.9934994 42.818,34.9090003 42.818,34.857 C42.818,34.8396666 42.8526663,34.7486675 42.922,34.584 C42.922,34.2113315 42.9176667,33.6046709 42.909,32.764 C42.9003333,31.9233291 42.896,31.3860012 42.896,31.152 C42.8873333,31.1259999 42.7833343,30.9396684 42.584,30.593 C42.4626661,30.3936657 42.4193332,30.2073342 42.454,30.034 C42.4713334,29.9386662 42.5233329,29.860667 42.61,29.8 L42.87,29.618 C42.8439999,27.555323 42.8526665,26.1600036 42.896,25.432 C42.8179996,25.2759992 42.779,25.1503338 42.779,25.055 C42.779,24.8643324 42.913332,24.7040006 43.182,24.574 C43.2946672,24.5219997 43.454999,24.496 43.663,24.496 C44.3390034,24.496 44.7506659,24.6779982 44.898,25.042 C44.9240001,25.1113337 44.937,25.176333 44.937,25.237 C44.937,25.3583339 44.8611674,25.5381655 44.7095,25.7765 C44.5578326,26.0148345 44.482,26.2119992 44.482,26.368 C44.4299997,27.7546736 44.4213332,28.7859966 44.456,29.462 C45.3053376,29.3146659 45.8686653,29.2020004 46.146,29.124 C46.0679996,28.0666614 46.0766662,26.8273404 46.172,25.406 C46.0939996,25.1893323 46.055,25.0116674 46.055,24.873 C46.055,24.6129987 46.2153317,24.4006675 46.536,24.236 C46.6053337,24.2013332 46.7049993,24.184 46.835,24.184 C47.1383348,24.184 47.4329986,24.2576659 47.719,24.405 C48.048335,24.5783342 48.2173333,24.799332 48.226,25.068 C48.2346667,25.1893339 48.1588341,25.3409991 47.9985,25.523 C47.8381659,25.7050009 47.758,25.8653326 47.758,26.004 C47.7406666,27.2520062 47.7493332,28.3006624 47.784,29.15 C47.9226674,29.2626672 48.0634993,29.4273323 48.2065,29.644 C48.3495007,29.8606677 48.421,30.0383326 48.421,30.177 C48.421,30.3156674 48.3473341,30.4196663 48.2,30.489 C48.0526659,30.5583337 47.9140007,30.623333 47.784,30.684 Z"/>
    <path stroke="#979797" stroke-linecap="square" stroke-width="2" d="M15 53L58.0464865 53M15 57L58.0464865 57"/>
  </g>
</svg>
