<svg xmlns="http://www.w3.org/2000/svg" width="64" height="64" viewBox="0 0 64 64">
  <g fill="none" fill-rule="evenodd">
    <rect width="54" height="39" x="5" y="11" fill="#D8D8D8" rx="3" transform="rotate(-15 32 30.5)"/>
    <path fill="#ECECEC" d="M9,23.0065859 C9,21.3460944 10.3348389,20 11.9995609,20 L60.0004391,20 C61.6570508,20 63,21.3340567 63,23.0065859 L63,59.9934141 C63,61.6539056 61.6651611,63 60.0004391,63 L11.9995609,63 C10.3429492,63 9,61.6659433 9,59.9934141 L9,23.0065859 Z"/>
    <rect width="17" height="10" x="14" y="40" fill="#5EA7FF"/>
    <path stroke="#979797" stroke-linecap="square" stroke-width="2" d="M35 41L58.0217289 41M35 49L58.0217289 49M35 45L58.0217289 45"/>
    <path fill="#979797" d="M22.837,24.548 C22.9236671,24.6953341 22.967,24.8296661 22.967,24.951 C22.967,25.0636672 22.9193338,25.2023325 22.824,25.367 C22.7026661,25.575001 22.6290001,25.7266662 22.603,25.822 L20.679,32.14 C20.618333,32.3220009 20.588,32.5386654 20.588,32.79 C20.588,32.9026672 20.5966666,33.062999 20.614,33.271 C20.6313334,33.479001 20.64,33.6306662 20.64,33.726 C20.64,34.202669 20.4818349,34.538499 20.1655,34.7335 C19.8491651,34.928501 19.5133351,35.026 19.158,35.026 C18.6899977,35.026 18.2783351,34.861335 17.923,34.532 C17.7063322,34.3326657 17.598,34.0770016 17.598,33.765 C17.598,33.6696662 17.6131665,33.5158344 17.6435,33.3035 C17.6738335,33.0911656 17.689,32.9243339 17.689,32.803 C17.689,32.6556659 17.6716668,32.5213339 17.637,32.4 L16.519,28.448 L15.193,33.05 C15.1669999,33.1540005 15.2124994,33.2796659 15.3295,33.427 C15.4465006,33.5743341 15.505,33.6913329 15.505,33.778 C15.4963333,34.4800035 15.3143351,35.0389979 14.959,35.455 C14.7769991,35.663001 14.5300016,35.767 14.218,35.767 C13.7499977,35.767 13.3990012,35.5850018 13.165,35.221 C13.0869996,35.0996661 13.048,34.9523342 13.048,34.779 C13.0393333,34.5189987 13.0263334,34.3500004 13.009,34.272 L11.137,26.186 C11.1196666,26.0993329 11.0676671,25.9693342 10.981,25.796 C10.9029996,25.6486659 10.864,25.5273338 10.864,25.432 C10.864,25.1979988 10.998332,25.0030008 11.267,24.847 C11.4923345,24.7169993 11.7349987,24.652 11.995,24.652 C12.2723347,24.652 12.5063324,24.7213326 12.697,24.86 C12.8530008,24.9726672 12.9396666,25.1503321 12.957,25.393 C12.9743334,25.6356679 12.9916666,25.8739988 13.009,26.108 L13.945,31.126 L15.427,25.718 C15.4443334,25.6486663 15.4335002,25.5533339 15.3945,25.432 C15.3554998,25.3106661 15.336,25.219667 15.336,25.159 C15.336,25.0463328 15.3836662,24.9293339 15.479,24.808 C15.6436675,24.5913322 15.9469978,24.483 16.389,24.483 C16.9176693,24.483 17.2989988,24.6346651 17.533,24.938 C17.6283338,25.0593339 17.676,25.1849993 17.676,25.315 C17.676,25.375667 17.6608335,25.4666661 17.6305,25.588 C17.6001665,25.7093339 17.585,25.800333 17.585,25.861 C17.585,25.921667 17.5936666,25.9779997 17.611,26.03 L19.067,31.126 L20.653,25.796 C20.6703334,25.7439997 20.6876666,25.5056688 20.705,25.081 C20.7223334,24.7949986 20.8089992,24.5913339 20.965,24.47 C21.2510014,24.2446655 21.588998,24.132 21.979,24.132 C22.3776687,24.132 22.6636658,24.2706653 22.837,24.548 Z M28.427,25.874 C28.2276657,26.0386675 27.9720016,26.121 27.66,26.121 C27.5299994,26.121 27.3783342,26.1080001 27.205,26.082 C26.9536654,26.1600004 26.7283343,26.2379996 26.529,26.316 C26.0436642,26.4980009 25.7230008,26.6539994 25.567,26.784 C25.5149997,27.6853378 25.5149997,28.7166609 25.567,29.878 C25.6190003,29.8433332 25.748999,29.8086668 25.957,29.774 C26.0610005,29.5919991 26.2386654,29.501 26.49,29.501 C26.7413346,29.501 27.0338317,29.6223321 27.3675,29.865 C27.7011683,30.1076679 27.868,30.3459988 27.868,30.58 C27.868,30.640667 27.8550001,30.701333 27.829,30.762 C27.7249995,31.0220013 27.5646678,31.1866663 27.348,31.256 C27.2179994,31.2993335 27.0273346,31.3101668 26.776,31.2885 C26.5246654,31.2668332 26.3643337,31.2733332 26.295,31.308 C26.0956657,31.4033338 25.8530014,31.5159993 25.567,31.646 C25.567,32.4260039 25.5929997,32.9286655 25.645,33.154 C26.0090018,33.0673329 26.3123321,32.9633339 26.555,32.842 C26.5983336,32.781333 26.6416664,32.7250003 26.685,32.673 C26.7716671,32.5776662 26.9276655,32.5386666 27.153,32.556 C27.3956679,32.5733334 27.6469987,32.7119987 27.907,32.972 C28.1670013,33.2320013 28.297,33.496332 28.297,33.765 C28.297,33.9990012 28.1973343,34.1723328 27.998,34.285 C27.7986657,34.3976672 27.4650023,34.4366668 26.997,34.402 L25.775,35.013 C25.7229997,35.0390001 25.6103342,35.1256659 25.437,35.273 C25.3069993,35.3856672 25.1900005,35.442 25.086,35.442 C25.0513332,35.442 25.0123335,35.4376667 24.969,35.429 C24.5096644,35.2903326 24.0936685,34.9306696 23.721,34.35 C23.6949999,34.3066665 23.682,34.254667 23.682,34.194 C23.682,34.1679999 23.7296662,33.9946683 23.825,33.674 C23.7296662,31.1519874 23.712333,28.4653476 23.773,25.614 C23.712333,25.5273329 23.682,25.4406671 23.682,25.354 C23.682,25.0679986 23.9463307,24.8860004 24.475,24.808 C24.5876672,24.7906666 24.7306658,24.8209996 24.904,24.899 C25.0166672,24.959667 25.1249995,25.0159997 25.229,25.068 L26.789,24.574 C26.8236668,24.5653333 26.9233325,24.5133338 27.088,24.418 C27.2006672,24.3486663 27.3306659,24.314 27.478,24.314 C27.5473337,24.314 27.6296662,24.3226666 27.725,24.34 C27.9156676,24.3746668 28.1041657,24.5241653 28.2905,24.7885 C28.4768343,25.0528347 28.57,25.3019988 28.57,25.536 C28.57,25.6833341 28.5223338,25.7959996 28.427,25.874 Z M36.331,32.348 C36.270333,32.4606672 36.136001,32.5299999 35.928,32.556 C35.9106666,32.556 35.7243351,32.5646666 35.369,32.582 C35.429667,32.9720019 35.6549981,33.4573304 36.045,34.038 C36.2703345,34.2026675 36.383,34.419332 36.383,34.688 C36.383,35.1126688 36.1230026,35.325 35.603,35.325 C35.1089975,35.325 34.7710009,35.1993346 34.589,34.948 C34.528333,34.8613329 34.4893334,34.7443341 34.472,34.597 C34.472,34.5016662 34.4676667,34.4020005 34.459,34.298 C34.3809996,34.2199996 34.147002,33.717338 33.757,32.79 C33.0463298,32.8940005 32.1710052,33.0413324 31.131,33.232 C31.0269995,33.4833346 30.9143339,33.847331 30.793,34.324 C30.8103334,34.4106671 30.819,34.4929996 30.819,34.571 C30.819,34.8050012 30.7410008,34.9848327 30.585,35.1105 C30.4289992,35.2361673 30.2426678,35.299 30.026,35.299 C29.7833321,35.299 29.558001,35.2080009 29.35,35.026 C29.141999,34.8439991 29.038,34.6316679 29.038,34.389 C29.038,34.1723323 29.1376657,33.9773342 29.337,33.804 C29.9870033,30.5019835 30.775662,27.7720108 31.703,25.614 C31.6856666,25.5099995 31.677,25.4060005 31.677,25.302 C31.677,24.8686645 31.8243319,24.5826674 32.119,24.444 C32.2403339,24.3919997 32.3963324,24.366 32.587,24.366 C32.9510018,24.366 33.2543321,24.4223328 33.497,24.535 C33.8090016,24.6910008 33.965,24.9249984 33.965,25.237 C33.965,25.5230014 33.8870008,25.7786655 33.731,26.004 C33.8956675,27.4773407 34.2509973,29.1759904 34.797,31.1 C34.8490003,31.0913333 35.0266651,31.0480004 35.33,30.97 C35.5120009,30.9179997 35.6506662,30.892 35.746,30.892 C35.8586672,30.892 35.9496663,30.9179997 36.019,30.97 C36.3223348,31.2040012 36.474,31.4899983 36.474,31.828 C36.474,32.0100009 36.4263338,32.1833325 36.331,32.348 Z M33.211,31.36 C33.0636659,30.8139973 32.8296683,29.7653411 32.509,28.214 C31.8936636,29.55734 31.5296672,30.7099952 31.417,31.672 L33.211,31.36 Z M41.843,26.03 C41.7476662,26.2120009 41.5440016,26.303 41.232,26.303 C40.8246646,26.303 40.5863337,26.3159999 40.517,26.342 C40.1963317,26.4806674 39.8236688,26.6366658 39.399,26.81 C39.3729999,27.46867 39.36,28.1923294 39.36,28.981 C39.36,30.5843414 39.4076662,32.2266583 39.503,33.908 C39.503,34.0293339 39.5484995,34.187499 39.6395,34.3825 C39.7305005,34.577501 39.776,34.7183329 39.776,34.805 C39.776,34.9176672 39.7370004,35.0216662 39.659,35.117 C39.4683324,35.3770013 39.1823352,35.507 38.801,35.507 C38.471665,35.507 38.1575015,35.4181676 37.8585,35.2405 C37.5594985,35.0628324 37.3883335,34.8526679 37.345,34.61 C37.3189999,34.4799993 37.3861659,34.3326675 37.5465,34.168 C37.7068341,34.0033325 37.787,33.8473341 37.787,33.7 C37.726333,31.9753247 37.696,30.4673398 37.696,29.176 C37.696,28.3959961 37.7089999,27.7720023 37.735,27.304 C37.7263333,27.304 37.6050012,27.3473329 37.371,27.434 C37.2149992,27.494667 37.0893338,27.525 36.994,27.525 C36.8553326,27.525 36.7296672,27.4773338 36.617,27.382 C36.3396653,27.1479988 36.1663337,26.9920004 36.097,26.914 C35.9583326,26.7579992 35.889,26.5933342 35.889,26.42 C35.889,26.359333 35.8976666,26.2900004 35.915,26.212 C35.9410001,26.0906661 36.5736605,25.8436685 37.813,25.471 C39.1476733,25.0636646 39.8669995,24.8253337 39.971,24.756 C40.0663338,24.7213332 40.1724994,24.6433339 40.2895,24.522 C40.4065006,24.4006661 40.5343326,24.3313334 40.673,24.314 C40.8636676,24.2966666 41.1149984,24.422332 41.427,24.691 C41.7736684,24.9943348 41.947,25.310665 41.947,25.64 C41.947,25.7700007 41.9123337,25.8999994 41.843,26.03 Z M47.693,30.684 C47.6583332,31.3773368 47.6669997,32.3739935 47.719,33.674 C47.719,33.7606671 47.749333,33.8819992 47.81,34.038 C47.870667,34.1940008 47.901,34.3066663 47.901,34.376 C47.901,34.5493342 47.7536681,34.6966661 47.459,34.818 C47.398333,34.8440001 47.3203338,34.857 47.225,34.857 C46.9389986,34.857 46.6356683,34.7790008 46.315,34.623 C45.9336648,34.4409991 45.743,34.2243346 45.743,33.973 C45.743,33.8603328 45.7841663,33.7130009 45.8665,33.531 C45.9488337,33.3489991 46.0289996,33.1713342 46.107,32.998 L46.107,30.762 L44.365,31.126 C44.365,31.5506688 44.3693333,32.1486628 44.378,32.92 C44.3866667,33.6913372 44.391,34.0813333 44.391,34.09 C44.391,34.1940005 44.4191664,34.3543323 44.4755,34.571 C44.5318336,34.7876677 44.56,34.9436662 44.56,35.039 C44.56,35.2123342 44.5015006,35.3531661 44.3845,35.4615 C44.2674994,35.5698339 44.1093343,35.624 43.91,35.624 C43.701999,35.624 43.4896677,35.5676672 43.273,35.455 C43.0563322,35.3423328 42.911167,35.2275006 42.8375,35.1105 C42.763833,34.9934994 42.727,34.9090003 42.727,34.857 C42.727,34.8396666 42.7616663,34.7486675 42.831,34.584 C42.831,34.2113315 42.8266667,33.6046709 42.818,32.764 C42.8093333,31.9233291 42.805,31.3860012 42.805,31.152 C42.7963333,31.1259999 42.6923343,30.9396684 42.493,30.593 C42.3716661,30.3936657 42.3283332,30.2073342 42.363,30.034 C42.3803334,29.9386662 42.4323329,29.860667 42.519,29.8 L42.779,29.618 C42.7529999,27.555323 42.7616665,26.1600036 42.805,25.432 C42.7269996,25.2759992 42.688,25.1503338 42.688,25.055 C42.688,24.8643324 42.822332,24.7040006 43.091,24.574 C43.2036672,24.5219997 43.363999,24.496 43.572,24.496 C44.2480034,24.496 44.6596659,24.6779982 44.807,25.042 C44.8330001,25.1113337 44.846,25.176333 44.846,25.237 C44.846,25.3583339 44.7701674,25.5381655 44.6185,25.7765 C44.4668326,26.0148345 44.391,26.2119992 44.391,26.368 C44.3389997,27.7546736 44.3303332,28.7859966 44.365,29.462 C45.2143376,29.3146659 45.7776653,29.2020004 46.055,29.124 C45.9769996,28.0666614 45.9856662,26.8273404 46.081,25.406 C46.0029996,25.1893323 45.964,25.0116674 45.964,24.873 C45.964,24.6129987 46.1243317,24.4006675 46.445,24.236 C46.5143337,24.2013332 46.6139993,24.184 46.744,24.184 C47.0473348,24.184 47.3419986,24.2576659 47.628,24.405 C47.957335,24.5783342 48.1263333,24.799332 48.135,25.068 C48.1436667,25.1893339 48.0678341,25.3409991 47.9075,25.523 C47.7471659,25.7050009 47.667,25.8653326 47.667,26.004 C47.6496666,27.2520062 47.6583332,28.3006624 47.693,29.15 C47.8316674,29.2626672 47.9724993,29.4273323 48.1155,29.644 C48.2585007,29.8606677 48.33,30.0383326 48.33,30.177 C48.33,30.3156674 48.2563341,30.4196663 48.109,30.489 C47.9616659,30.5583337 47.8230007,30.623333 47.693,30.684 Z M54.154,25.874 C53.9546657,26.0386675 53.6990016,26.121 53.387,26.121 C53.2569994,26.121 53.1053342,26.1080001 52.932,26.082 C52.6806654,26.1600004 52.4553343,26.2379996 52.256,26.316 C51.7706642,26.4980009 51.4500008,26.6539994 51.294,26.784 C51.2419997,27.6853378 51.2419997,28.7166609 51.294,29.878 C51.3460003,29.8433332 51.475999,29.8086668 51.684,29.774 C51.7880005,29.5919991 51.9656654,29.501 52.217,29.501 C52.4683346,29.501 52.7608317,29.6223321 53.0945,29.865 C53.4281683,30.1076679 53.595,30.3459988 53.595,30.58 C53.595,30.640667 53.5820001,30.701333 53.556,30.762 C53.4519995,31.0220013 53.2916677,31.1866663 53.075,31.256 C52.9449993,31.2993335 52.7543346,31.3101668 52.503,31.2885 C52.2516654,31.2668332 52.0913337,31.2733332 52.022,31.308 C51.8226657,31.4033338 51.5800014,31.5159993 51.294,31.646 C51.294,32.4260039 51.3199997,32.9286655 51.372,33.154 C51.7360018,33.0673329 52.0393321,32.9633339 52.282,32.842 C52.3253335,32.781333 52.3686664,32.7250003 52.412,32.673 C52.4986671,32.5776662 52.6546655,32.5386666 52.88,32.556 C53.1226679,32.5733334 53.3739987,32.7119987 53.634,32.972 C53.8940013,33.2320013 54.024,33.496332 54.024,33.765 C54.024,33.9990012 53.9243343,34.1723328 53.725,34.285 C53.5256657,34.3976672 53.1920023,34.4366668 52.724,34.402 L51.502,35.013 C51.4499997,35.0390001 51.3373342,35.1256659 51.164,35.273 C51.0339994,35.3856672 50.9170005,35.442 50.813,35.442 C50.7783332,35.442 50.7393335,35.4376667 50.696,35.429 C50.2366644,35.2903326 49.8206685,34.9306696 49.448,34.35 C49.4219999,34.3066665 49.409,34.254667 49.409,34.194 C49.409,34.1679999 49.4566662,33.9946683 49.552,33.674 C49.4566662,31.1519874 49.439333,28.4653476 49.5,25.614 C49.439333,25.5273329 49.409,25.4406671 49.409,25.354 C49.409,25.0679986 49.6733307,24.8860004 50.202,24.808 C50.3146672,24.7906666 50.4576658,24.8209996 50.631,24.899 C50.7436672,24.959667 50.8519995,25.0159997 50.956,25.068 L52.516,24.574 C52.5506668,24.5653333 52.6503325,24.5133338 52.815,24.418 C52.9276672,24.3486663 53.0576659,24.314 53.205,24.314 C53.2743337,24.314 53.3566662,24.3226666 53.452,24.34 C53.6426676,24.3746668 53.8311657,24.5241653 54.0175,24.7885 C54.2038343,25.0528347 54.297,25.3019988 54.297,25.536 C54.297,25.6833341 54.2493338,25.7959996 54.154,25.874 Z M62.565,34.142 C62.5736667,34.1940003 62.578,34.2416665 62.578,34.285 C62.578,34.5450013 62.4263348,34.7638324 62.123,34.9415 C61.8196651,35.1191676 61.503335,35.208 61.174,35.208 C60.9746657,35.208 60.8143339,35.1690004 60.693,35.091 C60.6063329,35.0389997 60.5305003,34.9371674 60.4655,34.7855 C60.4004997,34.6338326 60.3290004,34.5320003 60.251,34.48 L57.378,32.556 L57.495,33.752 C57.5036667,33.812667 57.5708327,33.9383324 57.6965,34.129 C57.8221673,34.3196676 57.885,34.4799993 57.885,34.61 C57.885,34.8006676 57.7636679,34.9783325 57.521,35.143 C57.3736659,35.2470005 57.1873345,35.299 56.962,35.299 C56.6413317,35.299 56.3423347,35.2123342 56.065,35.039 C55.7616651,34.8656658 55.579667,34.644668 55.519,34.376 C55.5103333,34.3239997 55.506,34.2806668 55.506,34.246 C55.506,34.1246661 55.5644994,34.0185005 55.6815,33.9275 C55.7985006,33.8364995 55.857,33.7520004 55.857,33.674 L55.441,26.264 C55.4323333,26.1513328 55.3846671,26.0018343 55.298,25.8155 C55.2113329,25.6291657 55.168,25.4926671 55.168,25.406 C55.168,25.1806655 55.3153319,24.9986674 55.61,24.86 C55.8526679,24.7386661 56.0996654,24.678 56.351,24.678 C56.5156675,24.678 56.6586661,24.7018331 56.78,24.7495 C56.9013339,24.7971669 56.9836664,24.8708328 57.027,24.9705 C57.0703335,25.0701672 57.122333,25.12 57.183,25.12 C57.1916667,25.1286667 57.4559974,25.0333343 57.976,24.834 C58.5826697,24.6086655 59.1156644,24.496 59.575,24.496 C60.2423367,24.496 60.7796646,24.7299977 61.187,25.198 C61.2996672,25.3280006 61.356,25.5099988 61.356,25.744 C61.356,26.3766698 60.9920036,27.2693276 60.264,28.422 C59.5706632,29.5053388 58.8556703,30.3719968 58.119,31.022 L61.473,33.362 C61.4816667,33.3706667 61.6983312,33.4746657 62.123,33.674 C62.3656679,33.7866672 62.5129997,33.9426657 62.565,34.142 Z M59.081,26.069 C58.8903324,26.069 58.5870021,26.2509982 58.171,26.615 C58.0843329,26.6843337 57.7636694,26.9833307 57.209,27.512 L57.183,29.839 C57.720336,29.2496637 58.2056645,28.5931703 58.639,27.8695 C59.0723355,27.1458297 59.289,26.6280016 59.289,26.316 C59.289,26.1513325 59.2196674,26.069 59.081,26.069 Z"/>
    <path stroke="#979797" stroke-linecap="square" stroke-width="2" d="M15 53L58.0464865 53M15 57L58.0464865 57"/>
  </g>
</svg>
