<svg xmlns="http://www.w3.org/2000/svg" width="64" height="64" viewBox="0 0 64 64">
  <g fill="none" fill-rule="evenodd">
    <rect width="54" height="39" x="5" y="10" fill="#D8D8D8" rx="3" transform="rotate(-15 32 29.5)"/>
    <path fill="#ECECEC" d="M9,22.0065859 C9,20.3460944 10.3348389,19 11.9995609,19 L60.0004391,19 C61.6570508,19 63,20.3340567 63,22.0065859 L63,58.9934141 C63,60.6539056 61.6651611,62 60.0004391,62 L11.9995609,62 C10.3429492,62 9,60.6659433 9,58.9934141 L9,22.0065859 Z"/>
    <rect width="17" height="10" x="14" y="39" fill="#FFDD95"/>
    <path stroke="#979797" stroke-linecap="square" stroke-width="2" d="M35 40L58.0217289 40M35 48L58.0217289 48M35 44L58.0217289 44"/>
    <path fill="#979797" d="M29.272,24.484 C29.2633333,24.6746676 29.191834,24.8241661 29.0575,24.9325 C28.923166,25.0408339 28.856,25.1426662 28.856,25.238 C28.8299999,25.2813335 28.8083334,26.4469886 28.791,28.735 C28.7649999,31.1703455 28.6826674,32.7433298 28.544,33.454 C28.5006665,33.6880012 28.3230016,33.9154989 28.011,34.1365 C27.6989984,34.3575011 27.3826683,34.4463336 27.062,34.403 C26.6546646,34.3509997 26.2170023,34.0433361 25.749,33.48 C25.5236655,33.1939986 25.0600035,32.5093387 24.358,31.426 C24.2453328,31.3306662 24.1305006,31.2331672 24.0135,31.1335 C23.8964994,31.0338328 23.838,30.8626679 23.838,30.62 C23.838,30.4639992 24.0243315,30.3383338 24.397,30.243 C24.7090016,30.1649996 25.0426649,30.126 25.398,30.126 C25.6146677,30.126 25.7446664,30.1433332 25.788,30.178 C25.9440008,30.3080006 26.0349999,30.4943321 26.061,30.737 C26.0956668,31.0576683 26.143333,31.2699995 26.204,31.374 C26.2733337,31.5733343 26.3491663,31.776999 26.4315,31.985 C26.5138337,32.193001 26.6113328,32.3013333 26.724,32.31 C26.9753346,32.3186667 27.101,30.8150151 27.101,27.799 C27.101,26.8109951 27.0880001,25.8100051 27.062,24.796 C27.062,24.7093329 27.0555001,24.5858341 27.0425,24.4255 C27.0294999,24.2651659 27.023,24.154667 27.023,24.094 C27.023,23.7126648 27.2526644,23.4786671 27.712,23.392 C27.9113343,23.3573332 28.2146646,23.4569988 28.622,23.691 C29.0640022,23.9510013 29.2806667,24.215332 29.272,24.484 Z M36.084,28.54 C36.144667,29.7013391 35.9453356,30.8994938 35.486,32.1345 C35.0266644,33.3695062 34.5370026,34.0649992 34.017,34.221 C33.808999,34.2903337 33.6053343,34.3163334 33.406,34.299 C33.197999,34.2729999 32.9943343,34.2470001 32.795,34.221 C31.0096577,34.012999 30.0260009,32.1193512 29.844,28.54 C29.7919997,27.5693285 29.9479982,26.5293389 30.312,25.42 C30.6500017,24.3886615 31.0009982,23.7516679 31.365,23.509 C31.4516671,23.448333 31.5469995,23.418 31.651,23.418 C31.7290004,23.418 31.8503325,23.4418331 32.015,23.4895 C32.1796675,23.5371669 32.3053329,23.561 32.392,23.561 C32.4960005,23.561 32.6844986,23.5371669 32.9575,23.4895 C33.2305014,23.4418331 33.4319993,23.418 33.562,23.418 C33.6833339,23.418 33.7829996,23.4353332 33.861,23.47 C35.2043401,24.0160027 35.9453326,25.7059858 36.084,28.54 Z M34.329,28.54 C34.2423329,27.4566612 34.1253341,26.6420027 33.978,26.096 C33.7353321,25.1773287 33.3756691,24.718 32.899,24.718 C32.7689994,24.718 32.6325007,24.7526663 32.4895,24.822 C32.3464993,24.8913337 32.1580012,25.3376625 31.924,26.161 C31.6813321,27.0623378 31.56,27.8553299 31.56,28.54 C31.56,29.4326711 31.7159984,30.3708284 32.028,31.3545 C32.3400016,32.3381716 32.6389986,32.83 32.925,32.83 C33.193668,32.83 33.492665,32.3880044 33.822,31.504 C34.1686684,30.5853287 34.342,29.7143375 34.342,28.891 C34.342,28.7696661 34.3376667,28.6526672 34.329,28.54 Z M42.558,29.606 C42.558,30.1520027 42.2763362,30.7716632 41.713,31.465 C41.6003328,31.5950006 41.0370051,32.1886614 40.023,33.246 C39.8583325,33.5580016 39.6936675,33.8656651 39.529,34.169 C39.3123323,34.4636681 39.0523348,34.5936668 38.749,34.559 C38.1596637,34.4896663 37.6656687,34.1820027 37.267,33.636 C37.1283326,33.4539991 37.059,33.2850008 37.059,33.129 C37.059,32.9556658 37.1543324,32.7910008 37.345,32.635 C37.2583329,32.1583309 37.1760004,30.8670105 37.098,28.761 C37.037333,27.027658 37.007,25.8446698 37.007,25.212 C36.8249991,24.9259986 36.734,24.6313349 36.734,24.328 C36.734,24.1026655 36.7989994,23.9206674 36.929,23.782 C37.0243338,23.6866662 37.1629991,23.639 37.345,23.639 C37.8130023,23.639 38.1943319,23.8166649 38.489,24.172 C39.3296709,23.8599984 40.0143307,23.704 40.543,23.704 C41.141003,23.704 41.5396657,23.8946648 41.739,24.276 C41.8690006,24.5186679 41.934,24.7873319 41.934,25.082 C41.934,25.9920046 41.4443382,26.9453284 40.465,27.942 L41.661,28.306 C42.0336685,28.4446674 42.2763328,28.6331655 42.389,28.8715 C42.5016672,29.1098345 42.558,29.3546654 42.558,29.606 Z M39.789,25.316 C39.5723323,25.316 39.1736696,25.5066648 38.593,25.888 C38.593,25.9660004 38.6016666,26.2194979 38.619,26.6485 C38.6363334,27.0775021 38.645,27.3613326 38.645,27.5 C38.9916684,27.2053319 39.3101652,26.8521687 39.6005,26.4405 C39.8908348,26.0288313 40.036,25.7233343 40.036,25.524 C40.036,25.3853326 39.9536675,25.316 39.789,25.316 Z M40.231,29.45 C39.7283308,29.45 39.2516689,29.6406648 38.801,30.022 L38.853,31.998 C40.0923395,31.0186618 40.712,30.2863358 40.712,29.801 C40.712,29.5669988 40.5516683,29.45 40.231,29.45 Z M48.941,31.842 C48.941,32.5180034 48.7265021,33.1094975 48.2975,33.6165 C47.8684979,34.1235025 47.3376698,34.377 46.705,34.377 C45.4309936,34.377 44.495003,33.7703394 43.897,32.557 C43.2469967,32.1323312 42.922,31.7726681 42.922,31.478 C42.922,31.3306659 43.0129991,31.2093338 43.195,31.114 C43.5503351,30.9233324 43.8753319,30.828 44.17,30.828 C44.8113365,30.828 45.2403323,31.2093295 45.457,31.972 C45.5610005,32.180001 45.6693328,32.387999 45.782,32.596 C45.8946672,32.804001 46.0463324,32.908 46.237,32.908 C46.7483359,32.908 47.004,32.5440036 47.004,31.816 C47.004,31.1659968 46.8870012,30.7283345 46.653,30.503 C46.5489995,30.4076662 46.1330036,30.2083348 45.405,29.905 C44.8243304,29.6623321 44.3563351,29.2463363 44.001,28.657 C43.6803317,28.119664 43.5156667,27.5606696 43.507,26.98 C43.4983333,26.0439953 43.732331,25.2120036 44.209,24.484 C44.7116692,23.7039961 45.3356629,23.314 46.081,23.314 C46.947671,23.314 47.5803313,23.6606632 47.979,24.354 C48.2390013,24.7873355 48.3863332,25.3246635 48.421,25.966 C48.5163338,26.295335 48.564,26.594332 48.564,26.863 C48.564,27.0363342 48.5423335,27.1793328 48.499,27.292 C48.3689993,27.6126683 48.1133352,27.773 47.732,27.773 C47.4459986,27.773 47.1860012,27.669001 46.952,27.461 C46.6919987,27.2356655 46.531667,26.9193354 46.471,26.512 C46.4449999,26.3733326 46.4731663,26.2346674 46.5555,26.096 C46.6378337,25.9573326 46.679,25.8793334 46.679,25.862 C46.679,25.8446666 46.6703334,25.8273334 46.653,25.81 C46.6616667,25.7666664 46.666,25.7233335 46.666,25.68 C46.666,25.4199987 46.5143348,25.2986666 46.211,25.316 C45.9163319,25.3333334 45.6866675,25.5283315 45.522,25.901 C45.3746659,26.2216683 45.3096666,26.5899979 45.327,27.006 C45.3530001,27.7426703 45.8383286,28.3319978 46.783,28.774 C47.5283371,29.1206684 48.0439986,29.4629983 48.33,29.801 C48.7373354,30.2863358 48.941,30.9666623 48.941,31.842 Z"/>
    <path stroke="#979797" stroke-linecap="square" stroke-width="2" d="M15 52L58.0464865 52M15 56L58.0464865 56"/>
  </g>
</svg>
