<svg xmlns="http://www.w3.org/2000/svg" width="64" height="64" viewBox="0 0 64 64">
  <g fill="none" fill-rule="evenodd">
    <polygon fill="#979797" points="1 16 49 16 59 42 11 42"/>
    <rect width="51" height="37" x="11" y="5" fill="#D8D8D8"/>
    <path stroke="#979797" stroke-linecap="square" stroke-width="2" d="M38 10L55 10M38 14L55 14M38 18L55 18M38 22L55 22M18 26L55 26"/>
    <rect width="18" height="14" x="17" y="9" fill="#979797"/>
    <path stroke="#979797" stroke-linecap="square" stroke-width="2" d="M18 30L55 30M18 34L55 34"/>
    <circle cx="34" cy="54" r="6" fill="#B4DFFB" stroke="#5B68C0" stroke-linecap="round" stroke-width="2"/>
    <circle cx="52" cy="54" r="6" fill="#B4DFFB" stroke="#5B68C0" stroke-linecap="round" stroke-width="2"/>
    <polyline stroke="#5B68C0" stroke-linecap="round" stroke-width="2" points="58 53.962 58 36.089 61.063 32"/>
    <polyline stroke="#5B68C0" stroke-linecap="round" stroke-width="2" points="28 53.962 28 36.089 31.063 32"/>
    <path stroke="#5B68C0" stroke-linecap="square" stroke-width="2" d="M40,50 L47.0710678,50"/>
  </g>
</svg>
