<svg xmlns="http://www.w3.org/2000/svg" width="64" height="64" viewBox="0 0 64 64">
  <g fill="none" fill-rule="evenodd">
    <rect width="54" height="39" x="5" y="11" fill="#D8D8D8" rx="3" transform="rotate(-15 32 30.5)"/>
    <path fill="#ECECEC" d="M9,23.0065859 C9,21.3460944 10.3348389,20 11.9995609,20 L60.0004391,20 C61.6570508,20 63,21.3340567 63,23.0065859 L63,59.9934141 C63,61.6539056 61.6651611,63 60.0004391,63 L11.9995609,63 C10.3429492,63 9,61.6659433 9,59.9934141 L9,23.0065859 Z"/>
    <rect width="17" height="10" x="14" y="40" fill="#B4DFFB"/>
    <path stroke="#979797" stroke-linecap="square" stroke-width="2" d="M35 41L58.0217289 41M35 49L58.0217289 49M35 45L58.0217289 45"/>
    <path fill="#979797" d="M32.1645,25.874 C31.9651657,26.0386675 31.7095016,26.121 31.3975,26.121 C31.2674993,26.121 31.1158342,26.1080001 30.9425,26.082 C30.6911654,26.1600004 30.4658343,26.2379996 30.2665,26.316 C29.7811642,26.4980009 29.4605008,26.6539994 29.3045,26.784 C29.2524997,27.6853378 29.2524997,28.7166609 29.3045,29.878 C29.3565003,29.8433332 29.486499,29.8086668 29.6945,29.774 C29.7985005,29.5919991 29.9761654,29.501 30.2275,29.501 C30.4788346,29.501 30.7713317,29.6223321 31.105,29.865 C31.4386683,30.1076679 31.6055,30.3459988 31.6055,30.58 C31.6055,30.640667 31.5925001,30.701333 31.5665,30.762 C31.4624995,31.0220013 31.3021678,31.1866663 31.0855,31.256 C30.9554994,31.2993335 30.7648346,31.3101668 30.5135,31.2885 C30.2621654,31.2668332 30.1018337,31.2733332 30.0325,31.308 C29.8331657,31.4033338 29.5905014,31.5159993 29.3045,31.646 C29.3045,32.4260039 29.3304997,32.9286655 29.3825,33.154 C29.7465018,33.0673329 30.0498321,32.9633339 30.2925,32.842 C30.3358335,32.781333 30.3791664,32.7250003 30.4225,32.673 C30.5091671,32.5776662 30.6651655,32.5386666 30.8905,32.556 C31.1331679,32.5733334 31.3844987,32.7119987 31.6445,32.972 C31.9045013,33.2320013 32.0345,33.496332 32.0345,33.765 C32.0345,33.9990012 31.9348343,34.1723328 31.7355,34.285 C31.5361657,34.3976672 31.2025023,34.4366668 30.7345,34.402 L29.5125,35.013 C29.4604997,35.0390001 29.3478342,35.1256659 29.1745,35.273 C29.0444994,35.3856672 28.9275005,35.442 28.8235,35.442 C28.7888332,35.442 28.7498335,35.4376667 28.7065,35.429 C28.2471644,35.2903326 27.8311685,34.9306696 27.4585,34.35 C27.4324999,34.3066665 27.4195,34.254667 27.4195,34.194 C27.4195,34.1679999 27.4671662,33.9946683 27.5625,33.674 C27.4671662,31.1519874 27.449833,28.4653476 27.5105,25.614 C27.449833,25.5273329 27.4195,25.4406671 27.4195,25.354 C27.4195,25.0679986 27.6838307,24.8860004 28.2125,24.808 C28.3251672,24.7906666 28.4681658,24.8209996 28.6415,24.899 C28.7541672,24.959667 28.8624995,25.0159997 28.9665,25.068 L30.5265,24.574 C30.5611668,24.5653333 30.6608325,24.5133338 30.8255,24.418 C30.9381672,24.3486663 31.0681659,24.314 31.2155,24.314 C31.2848337,24.314 31.3671662,24.3226666 31.4625,24.34 C31.6531676,24.3746668 31.8416657,24.5241653 32.028,24.7885 C32.2143343,25.0528347 32.3075,25.3019988 32.3075,25.536 C32.3075,25.6833341 32.2598338,25.7959996 32.1645,25.874 Z M38.6125,26.524 C38.6471668,27.1046696 38.4478355,28.1229927 38.0145,29.579 C37.5551644,31.1390078 37.0351696,32.4693278 36.4545,33.57 C35.7524965,34.8786732 35.1111696,35.533 34.5305,35.533 C34.2358319,35.533 33.9520014,35.4030013 33.679,35.143 C33.4059986,34.8829987 33.2695,34.6143347 33.2695,34.337 C33.2695,34.2069994 33.3084996,34.0900005 33.3865,33.986 C33.2478326,30.250648 33.1958332,27.71134 33.2305,26.368 C33.0484991,26.0733319 32.9575,25.8523341 32.9575,25.705 C32.9575,25.496999 33.0744988,25.3150008 33.3085,25.159 C33.516501,25.0116659 33.7331655,24.938 33.9585,24.938 C34.166501,24.938 34.3398326,24.9986661 34.4785,25.12 C35.6051723,24.6779978 36.3548315,24.457 36.7275,24.457 C36.9268343,24.457 37.1218324,24.5046662 37.3125,24.6 C37.5985014,24.7386674 37.8714987,24.9813316 38.1315,25.328 C38.4261681,25.7266687 38.5864999,26.1253313 38.6125,26.524 Z M36.8445,26.134 C36.7578329,26.0299995 36.6451674,25.978 36.5065,25.978 C36.237832,25.978 35.7091706,26.2899969 34.9205,26.914 C34.8684997,27.5640033 34.8425,28.2833294 34.8425,29.072 C34.8425,30.1986723 34.8944995,31.359994 34.9985,32.556 C35.4578356,31.4379944 35.8824981,30.2636728 36.2725,29.033 C36.6885021,27.7069934 36.8965,26.8230022 36.8965,26.381 C36.8965,26.2596661 36.8791668,26.1773336 36.8445,26.134 Z M45.7365,25.003 C45.8318338,25.1763342 45.8795,25.3193328 45.8795,25.432 L45.7235,25.9 C45.7148333,26.8793382 45.7018334,27.8543285 45.6845,28.825 C45.5891662,30.6276757 45.3551685,32.0706612 44.9825,33.154 C44.4624974,34.6446741 43.6955051,35.4159997 42.6815,35.468 C41.4941607,35.528667 40.6448359,34.6056762 40.1335,32.699 C39.7781649,31.3903268 39.6005,29.7436766 39.6005,27.759 C39.6005,27.0309964 39.6178332,26.4893351 39.6525,26.134 C39.5658329,25.865332 39.5225,25.6400009 39.5225,25.458 C39.5225,25.1806653 39.6091658,24.9510009 39.7825,24.769 C39.8951672,24.6476661 40.0901653,24.587 40.3675,24.587 C40.7055017,24.587 41.008832,24.6649992 41.2775,24.821 C41.5895016,25.0030009 41.7541666,25.2369986 41.7715,25.523 C41.7801667,25.6703341 41.7346672,25.8263325 41.635,25.991 C41.5353328,26.1556675 41.4941666,26.2943328 41.5115,26.407 C41.4768332,26.5196672 41.4941663,27.1826606 41.5635,28.396 C41.6501671,29.7566735 41.7628326,30.8963287 41.9015,31.815 C42.0835009,33.0196727 42.2871655,33.6176667 42.5125,33.609 C42.9025019,33.5916666 43.2274987,32.6816757 43.4875,30.879 C43.695501,29.4316594 43.7995,28.0883395 43.7995,26.849 C43.7995,26.6063321 43.7908334,26.4330005 43.7735,26.329 C43.7908334,26.2163328 43.7258341,26.0516678 43.5785,25.835 C43.4311659,25.6183323 43.3575,25.4363341 43.3575,25.289 C43.3575,25.1329992 43.4181661,24.9726675 43.5395,24.808 C43.7215009,24.5479987 44.0551642,24.418 44.5405,24.418 C45.1298363,24.418 45.528499,24.6129981 45.7365,25.003 Z"/>
    <path stroke="#979797" stroke-linecap="square" stroke-width="2" d="M15 53L58.0464865 53M15 57L58.0464865 57"/>
  </g>
</svg>
