<svg xmlns="http://www.w3.org/2000/svg" width="64" height="64" viewBox="0 0 64 64">
  <g fill="none" fill-rule="evenodd">
    <path fill="#FF78C7" d="M0.25837482,22.9808736 C0.115678347,21.8868673 0.882987818,21.130813 1.98537447,21.2941296 L27,25 L27,40 L4.96402073,43.6726632 C3.87932203,43.8534463 2.88423466,43.1124657 2.74162518,42.0191264 L0.25837482,22.9808736 Z"/>
    <path fill="#FF78C7" d="M37.0170699,22.9808736 C36.8743735,21.8868673 37.6416829,21.130813 38.7440696,21.2941296 L63.7586951,25 L63.7586951,40 L41.7227158,43.6726632 C40.6380171,43.8534463 39.6429298,43.1124657 39.5003203,42.0191264 L37.0170699,22.9808736 Z" transform="matrix(-1 0 0 1 100.759 0)"/>
    <rect width="18" height="20" x="24" y="23" fill="#D650C7" rx="4"/>
    <path stroke="#D650C7" stroke-linecap="round" stroke-width="2" d="M25.7177481 31.2161584L19.8040128 29.4402595M26.0567004 34.5788827L20.2071479 36.4439022M39.9678779 31.5824977L45.4600233 29.5579133M40.4025377 34.9537622L45.948574 36.0789894"/>
  </g>
</svg>
