<?xml version="1.0" encoding="UTF-8"?>
<svg width="64px" height="64px" viewBox="0 0 64 64" version="1.1" xmlns="http://www.w3.org/2000/svg" xmlns:xlink="http://www.w3.org/1999/xlink">
    <!-- Generator: Sketch 43.2 (39069) - http://www.bohemiancoding.com/sketch -->
    <title>park</title>
    <desc>Created with Sketch.</desc>
    <defs></defs>
    <g id="Outdoor-Activities-(142)" stroke="none" stroke-width="1" fill="none" fill-rule="evenodd">
        <polyline id="Line-Copy-125" stroke="#979797" stroke-width="2" stroke-linecap="square" points="16 23.4453261 32 7.44532608 48 23.4453261"></polyline>
        <path d="M1,26.9932874 C1,25.8924252 1.90035102,25 2.99263021,25 L61.0073698,25 C62.1078691,25 63,25.8997127 63,26.9932874 L63,52.0067126 C63,53.1075748 62.099649,54 61.0073698,54 L2.99263021,54 C1.89213093,54 1,53.1002873 1,52.0067126 L1,26.9932874 Z" id="Rectangle-160-Copy-6" fill="#BD7575"></path>
        <rect id="Rectangle-162-Copy-6" fill="#80D25B" x="3" y="27" width="58" height="25"></rect>
        <rect id="Rectangle-161-Copy-13" fill="#AB5F5F" x="10" y="22" width="10" height="3"></rect>
        <rect id="Rectangle-161-Copy-12" fill="#AB5F5F" x="44" y="22" width="10" height="3"></rect>
        <circle id="Oval-80-Copy-6" fill="#D8D8D8" cx="32" cy="9" r="3"></circle>
        <path d="M25.524,40.136 C25.524,41.1253383 25.3140021,42.0259959 24.894,42.838 C24.427331,43.7153377 23.8533367,44.154 23.172,44.154 C22.7893314,44.154 22.3973353,43.8506697 21.996,43.244 L21.996,45.036 C21.996,45.1853341 22.0566661,45.3766655 22.178,45.61 C22.2993339,45.8433345 22.36,46.0206661 22.36,46.142 C22.36,46.2353338 22.3366669,46.3286662 22.29,46.422 C22.093999,46.8420021 21.7113362,47.052 21.142,47.052 C20.675331,47.052 20.3860006,46.8840017 20.274,46.548 C20.2366665,46.4359994 20.218,46.3286672 20.218,46.226 C20.218,46.1233328 20.248333,45.9856675 20.309,45.813 C20.369667,45.6403325 20.4,45.4933339 20.4,45.372 L20.4,37.406 C20.4,37.3033328 20.362667,37.1796674 20.288,37.035 C20.213333,36.8903326 20.176,36.7713338 20.176,36.678 C20.176,36.603333 20.1946665,36.5240004 20.232,36.44 C20.3440006,36.1786654 20.6893304,36.048 21.268,36.048 C21.6320018,36.048 21.8746661,36.1226659 21.996,36.272 C22.0426669,36.3280003 22.066,36.3979996 22.066,36.482 C22.066,36.5473337 22.0426669,36.6499993 21.996,36.79 C21.9493331,36.9300007 21.9213334,37.037333 21.912,37.112 C22.3413355,36.4959969 22.8453304,36.188 23.424,36.188 C24.1986705,36.188 24.7633316,36.6266623 25.118,37.504 C25.388668,38.1853367 25.524,39.0626613 25.524,40.136 Z M23.76,40.136 C23.76,39.2493289 23.7413335,38.6846679 23.704,38.442 C23.6106662,37.8353303 23.3773352,37.532 23.004,37.532 C22.7893323,37.532 22.5956675,37.8236638 22.423,38.407 C22.2503325,38.9903363 22.164,39.5666638 22.164,40.136 C22.164,40.5653355 22.2573324,41.0693304 22.444,41.648 C22.6306676,42.2640031 22.8173324,42.572 23.004,42.572 C23.2280011,42.572 23.4146659,42.2873362 23.564,41.718 C23.6946673,41.2233309 23.76,40.6960028 23.76,40.136 Z M32.65,43.412 C32.5099993,43.8693356 32.1646694,44.098 31.614,44.098 C31.4273324,44.098 31.2780006,44.0653337 31.166,44 C31.0166659,43.8973328 30.9140003,43.6920015 30.858,43.384 C30.7459994,42.8519973 30.6340006,42.4366682 30.522,42.138 C30.4939999,42.6513359 30.2140027,43.171664 29.682,43.699 C29.1499973,44.226336 28.613336,44.49 28.072,44.49 C27.3906633,44.49 26.9193346,44.0373379 26.658,43.132 C26.5646662,42.7959983 26.518,42.4786682 26.518,42.18 C26.518,41.3119957 26.9613289,40.5700031 27.848,39.954 C28.5760036,39.5246645 29.308663,39.1000021 30.046,38.68 C30.0833335,38.5213325 30.102,38.3673341 30.102,38.218 C30.102,37.9286652 30.0226675,37.7583336 29.864,37.707 C29.7053325,37.6556664 29.5700006,37.63 29.458,37.63 C29.261999,37.63 29.1010006,37.6929994 28.975,37.819 L28.618,38.176 C28.5059994,38.250667 28.3613342,38.423332 28.184,38.694 C28.0439993,38.9086677 27.8900008,39.0253332 27.722,39.044 C27.4793321,39.0720001 27.260001,38.988001 27.064,38.792 C26.867999,38.595999 26.77,38.3673346 26.77,38.106 C26.77,37.9566659 26.807333,37.8213339 26.882,37.7 C27.0966677,37.3453316 27.4186645,37.0373346 27.848,36.776 C28.5013366,36.383998 29.3179951,36.188 30.298,36.188 C30.9233365,36.188 31.3526655,36.4866637 31.586,37.084 C31.7353341,37.4853353 31.847333,38.2366612 31.922,39.338 C32.0060004,40.6726733 32.1086661,41.6479969 32.23,42.264 C32.2486668,42.3853339 32.3279993,42.5393324 32.468,42.726 C32.6080007,42.9126676 32.678,43.0759993 32.678,43.216 C32.678,43.2813337 32.6686668,43.3466663 32.65,43.412 Z M30.214,39.968 C29.9339986,40.1173341 29.6563347,40.2713325 29.381,40.43 C29.1056653,40.5886675 28.8513345,40.7986654 28.618,41.06 C28.2819983,41.4426686 28.114,41.769332 28.114,42.04 C28.114,42.2640011 28.1979992,42.4973321 28.366,42.74 C28.4593338,42.8706673 28.5619994,42.936 28.674,42.936 C28.9166679,42.936 29.1803319,42.665336 29.465,42.124 C29.7496681,41.582664 29.9993323,40.8640045 30.214,39.968 Z M39.132,36.86 C39.0946665,37.056001 38.9173349,37.191333 38.6,37.266 C38.2266648,37.3593338 37.9886672,37.4666661 37.886,37.588 L35.604,40.22 L35.604,42.348 C35.604,42.5533344 35.6623327,42.760999 35.779,42.971 C35.8956673,43.1810011 35.954,43.3419994 35.954,43.454 C35.954,43.5660006 35.9213337,43.6919993 35.856,43.832 C35.6973325,44.1866684 35.3753358,44.364 34.89,44.364 C34.5539983,44.364 34.288001,44.2566677 34.092,44.042 C33.9613327,43.9019993 33.896,43.7246677 33.896,43.51 C33.896,43.435333 33.9053332,43.3140008 33.924,43.146 C33.9426668,42.9779992 33.952,42.8426672 33.952,42.74 L33.952,37.504 C33.952,37.4199996 33.914667,37.3173339 33.84,37.196 C33.765333,37.0746661 33.728,36.976667 33.728,36.902 C33.728,36.8459997 33.7466665,36.780667 33.784,36.706 C33.9053339,36.4819989 34.2833302,36.37 34.918,36.37 C35.4126691,36.37 35.6926663,36.4866655 35.758,36.72 C35.7860001,36.8133338 35.8,36.8926663 35.8,36.958 C35.8,37.0606672 35.762667,37.1399997 35.688,37.196 C35.613333,37.2520003 35.576,37.3079997 35.576,37.364 L35.604,37.868 L36.808,36.594 C36.9480007,36.4353325 37.0949992,36.2766675 37.249,36.118 C37.4030008,35.9593325 37.5826656,35.8706668 37.788,35.852 C38.1053349,35.8239999 38.4109985,35.8939992 38.705,36.062 C38.9990015,36.2300008 39.146,36.449332 39.146,36.72 C39.146,36.7666669 39.1413334,36.8133331 39.132,36.86 Z M46.496,42.908 C46.5053334,42.9733337 46.51,43.0386663 46.51,43.104 C46.51,43.6640028 46.1973365,44.041999 45.572,44.238 C45.4506661,44.2753335 45.3433338,44.294 45.25,44.294 C45.0819992,44.294 44.9280007,44.2146675 44.788,44.056 C44.5733323,43.8226655 44.4426669,43.6920001 44.396,43.664 L41.876,41.9 L41.876,43.076 C41.876,43.1600004 41.9016664,43.2649994 41.953,43.391 C42.0043336,43.5170006 42.03,43.6126663 42.03,43.678 C42.03,43.7806672 41.9786672,43.8879994 41.876,44 C41.6426655,44.2426679 41.3066689,44.364 40.868,44.364 C40.4479979,44.364 40.1773339,44.2240014 40.056,43.944 C39.9999997,43.8133327 39.9813332,43.6780007 40,43.538 C40.0373335,43.2953321 40.056,43.1320004 40.056,43.048 L40.056,33.836 C40.0466666,33.6679992 40.0653331,33.4160017 40.112,33.08 C40.1960004,32.8746656 40.4526645,32.772 40.882,32.772 C41.4420028,32.772 41.8013325,32.8746656 41.96,33.08 C42.0440004,33.1920006 42.086,33.3133327 42.086,33.444 C42.086,33.5466672 42.0510004,33.7053323 41.981,33.92 C41.9109996,34.1346677 41.876,34.3026661 41.876,34.424 C41.8573332,34.965336 41.8573332,36.4913208 41.876,39.002 C42.3986693,38.4979975 43.0706626,37.8400041 43.892,37.028 C44.0040006,36.9159994 44.1486658,36.7153348 44.326,36.426 C44.4286672,36.2579992 44.5826656,36.1460003 44.788,36.09 C44.8440003,36.0713332 44.909333,36.062 44.984,36.062 C45.254668,36.062 45.5323319,36.1646656 45.817,36.37 C46.1016681,36.5753344 46.244,36.7946655 46.244,37.028 C46.244,37.1586673 46.1506676,37.3173324 45.964,37.504 C45.7773324,37.6906676 45.5906676,37.8679992 45.404,38.036 L43.08,40.444 L45.572,42.236 C45.5906668,42.2546668 45.7773316,42.3293327 46.132,42.46 C46.3373344,42.5440004 46.4586665,42.6933323 46.496,42.908 Z" id="park" fill="#FFFFFF"></path>
    </g>
</svg>