<svg xmlns="http://www.w3.org/2000/svg" width="64" height="64" viewBox="0 0 64 64">
  <g fill="none" fill-rule="evenodd">
    <path fill="#595959" d="M37.9290481,9.38231275 C37.9290481,9.38231275 1.85611026,5.73854376 1.07264365,38.9549307 C0.289177048,72.1713175 41.0213605,60.545712 43.8727172,55.6391622 C46.724074,50.7326124 48.1083426,39.1416352 36.0602711,35.4421723 L37.9290481,9.38231275 Z"/>
    <path fill="#FFAF40" d="M36.1794708,35.3347223 C36.1794708,35.3347223 31.0972416,42.5531076 29.2650513,46.7365265 C27.432861,50.9199453 21.7397371,55.0154586 17.1883987,50.8759925 C12.6370602,46.7365265 4.90284665,26.7710846 20.5411587,19.0047707 C36.1794708,11.2384568 44.1080151,22.7476738 44.1080151,22.7476738"/>
    <path fill="#E43535" d="M62.5620643,34.3628644 C62.5620643,34.3628644 64.025714,14.9973886 37.4627879,9.22034773 C37.4627879,9.22034773 23.8347259,27.478456 36.058051,35.4887199 C36.058051,35.4887199 38.1824798,33.1336388 45.7124515,32.7000374 C53.2424232,32.2664361 62.5620643,34.3628644 62.5620643,34.3628644 Z"/>
    <path stroke="#FFAF40" stroke-linecap="round" stroke-width="2" d="M62.4003934,34.0892299 C62.4003934,34.0892299 45.2519324,23.6084478 32.5984076,29.5006616"/>
    <circle cx="22.5" cy="27.5" r="7.5" fill="#5EA7FF"/>
    <circle cx="22.5" cy="27.5" r="5.5" fill="#0A3586"/>
    <circle cx="21" cy="25" r="2" fill="#FFF"/>
  </g>
</svg>
