<svg xmlns="http://www.w3.org/2000/svg" width="64" height="64" viewBox="0 0 64 64">
  <g fill="none" fill-rule="evenodd">
    <path fill="#22BA8E" d="M5,18.904899 C5,17.8011519 5.89358348,16.8111018 6.99287235,16.6938803 L13.5,16 L20.0071277,16.6938803 C21.1077607,16.8112451 22,17.7936275 22,18.904899 L22,22 L5,22 L5,18.904899 Z"/>
    <path fill="#FFDD95" d="M10.5,12.9938107 C8.99489536,11.5917827 8,9.32128716 8,7.41895934 C8,4.42615074 10.4624339,2 13.5,2 C16.5375661,2 19,4.42615074 19,7.41895934 C19,9.32128716 18.0051046,11.5917827 16.5,12.9938107 L16.5,16.2863473 C16.5,16.2863473 14.4662889,17 13.5,17 C12.5337111,17 10.5,16.2863473 10.5,16.2863473 L10.5,12.9938107 Z"/>
    <path fill="#BD7575" d="M41,55.904899 C41,54.8011519 41.8935835,53.8111018 42.9928723,53.6938803 L49.5,53 L56.0071277,53.6938803 C57.1077607,53.8112451 58,54.7936275 58,55.904899 L58,59 L41,59 L41,55.904899 Z"/>
    <path fill="#FFDD95" d="M46.5,49.9938107 C44.9948954,48.5917827 44,46.3212872 44,44.4189593 C44,41.4261507 46.4624339,39 49.5,39 C52.5375661,39 55,41.4261507 55,44.4189593 C55,46.3212872 54.0051046,48.5917827 52.5,49.9938107 L52.5,53.2863473 C52.5,53.2863473 50.4662889,54 49.5,54 C48.5337111,54 46.5,53.2863473 46.5,53.2863473 L46.5,49.9938107 Z"/>
    <path stroke="#D650C7" stroke-linecap="round" stroke-width="3" d="M8,31.5 C8,45.0309764 18.9690236,56 32.5,56 L32.5,56 M57,31.5 C57,17.9690236 46.0309764,7 32.5,7"/>
    <polyline stroke="#D650C7" stroke-linecap="round" stroke-linejoin="round" stroke-width="3" points="36.347 13.143 32 7.337 37.612 3"/>
    <polyline stroke="#D650C7" stroke-linecap="round" stroke-linejoin="round" stroke-width="3" points="31.347 60.143 27 54.337 32.612 50" transform="rotate(-180 29.806 55.071)"/>
  </g>
</svg>
