<svg xmlns="http://www.w3.org/2000/svg" width="64" height="64" viewBox="0 0 64 64">
  <g fill="none" fill-rule="evenodd">
    <path fill="#5B68C0" d="M3,45.9597759 C3,43.7493282 4.78716697,41.7516292 6.96428975,41.5009519 L20,40 L33.0357102,41.5009519 C35.225127,41.7530447 37,43.7492282 37,45.9597759 L37,52.9574064 L3,52.9574064 L3,45.9597759 Z"/>
    <path fill="#FFDD95" d="M14,35.3164468 C10.9897907,32.470456 9,27.8615543 9,24 C9,17.9248678 13.9248678,13 20,13 C26.0751322,13 31,17.9248678 31,24 C31,27.8615543 29.0102093,32.470456 26,35.3164468 L26,42 C26,42 21.9325778,43.4486507 20,43.4486507 C18.0674222,43.4486507 14,42 14,42 L14,35.3164468 Z"/>
    <circle cx="11" cy="29" r="3" fill="#FFDD95"/>
    <circle cx="29" cy="29" r="3" fill="#FFDD95"/>
    <rect width="19" height="4" x="42" y="49" fill="#FFAF40" rx="1" transform="matrix(-1 0 0 1 103 0)"/>
    <rect width="19" height="4" x="42" y="44" fill="#FFDD95" rx="1" transform="matrix(-1 0 0 1 103 0)"/>
    <rect width="19" height="4" x="42" y="39" fill="#FFAF40" rx="1" transform="matrix(-1 0 0 1 103 0)"/>
    <circle cx="51.5" cy="25.5" r="9.5" fill="#FFAF40"/>
    <text fill="#FFDD95" font-family="MarkerFelt-Thin, Marker Felt" font-size="16" font-weight="300">
      <tspan x="45" y="32">€</tspan>
    </text>
  </g>
</svg>
