<svg xmlns="http://www.w3.org/2000/svg" width="64" height="64" viewBox="0 0 64 64">
  <g fill="none" fill-rule="evenodd">
    <path fill="#5EA7FF" d="M12,12.0842941 C12,9.87118216 13.743184,7.64130448 15.875879,7.10813074 L40.124121,1.04607024 C42.2647099,0.510923025 44,1.86216423 44,4.08429405 L44,43.0699069 C44,45.2830188 42.256816,47.5128965 40.124121,48.0460702 L15.875879,54.1081307 C13.7352901,54.643278 12,53.2920367 12,51.0699069 L12,12.0842941 Z"/>
    <path fill="#0A3586" d="M12,11.9940093 C12,9.78817888 13.7852456,8 15.9901786,8 L44.0098214,8 C46.2135362,8 48,9.7899577 48,11.9940093 L48,56.0059907 C48,58.2118211 46.2147544,60 44.0098214,60 L15.9901786,60 C13.7864638,60 12,58.2100423 12,56.0059907 L12,11.9940093 Z"/>
    <circle cx="30" cy="27" r="10" stroke="#80D25B" stroke-linecap="round" stroke-width="2"/>
    <ellipse cx="30" cy="27" stroke="#80D25B" stroke-linecap="round" stroke-width="2" rx="5" ry="10"/>
    <path stroke="#80D25B" stroke-linecap="square" stroke-width="2" d="M30 18L30 36M21 27L39 27"/>
    <text fill="#ECECEC" font-family="MarkerFelt-Thin, Marker Felt" font-size="8" font-weight="300">
      <tspan x="14.14" y="51">PASSPORT</tspan>
    </text>
  </g>
</svg>
