<svg xmlns="http://www.w3.org/2000/svg" width="64" height="64" viewBox="0 0 64 64">
  <g fill="none" fill-rule="evenodd">
    <path fill="#9C4D4D" d="M27.0024246,32 L35.0024246,32 C35.0024246,32 36.938564,43.7445573 38.0024246,48 C39.0662853,52.2554427 40.7609379,52.1362122 41.0024246,56 C41.2439114,59.8637878 20.7439114,60.1362122 21.0024246,56 C21.2609379,51.8637878 23.0024246,51.8424077 24.0024246,48 C25.0024246,44.1575923 27.0024246,32 27.0024246,32 Z"/>
    <path fill="#BD7575" d="M14,58.5 C14,56.5670034 15.5717012,55 17.4946613,55 L44.5053387,55 C46.4353869,55 48,56.5709366 48,58.5 L48,62 L14,62 L14,58.5 Z"/>
    <circle cx="31" cy="29" r="7" fill="#BD7575"/>
  </g>
</svg>
