<svg xmlns="http://www.w3.org/2000/svg" width="64" height="64" viewBox="0 0 64 64">
  <g fill="none" fill-rule="evenodd">
    <rect width="15" height="11" x="47" y="23" fill="#979797" transform="matrix(1 0 0 -1 0 57)"/>
    <rect width="11" height="10" x="49" y="13" fill="#D8D8D8" transform="matrix(1 0 0 -1 0 36)"/>
    <path stroke="#979797" stroke-width="2" d="M53.9684445,48 L53.9684445,36.9801833 C53.9684445,34.7557598 52.1778438,32.9729496 49.9690258,32.9729496 L39,32.9729496" transform="matrix(1 0 0 -1 0 80.973)"/>
    <rect width="34" height="60" x="6" y="3" fill="#595959"/>
    <rect width="30" height="11" x="8" y="5" fill="#D8D8D8"/>
    <rect width="30" height="11" x="8" y="18" fill="#D8D8D8"/>
    <rect width="18" height="7" x="14" y="33" fill="#D8D8D8"/>
    <rect width="18" height="7" x="14" y="42" fill="#D8D8D8"/>
    <circle cx="34.5" cy="56.5" r="2.5" fill="#E43535"/>
  </g>
</svg>
