<svg xmlns="http://www.w3.org/2000/svg" width="64" height="64" viewBox="0 0 64 64">
  <g fill="none" fill-rule="evenodd">
    <rect width="34" height="60" x="9" y="2" fill="#595959"/>
    <rect width="30" height="11" x="11" y="4" fill="#D8D8D8"/>
    <rect width="30" height="11" x="11" y="17" fill="#D8D8D8"/>
    <rect width="18" height="7" x="17" y="32" fill="#D8D8D8"/>
    <rect width="18" height="7" x="17" y="41" fill="#D8D8D8"/>
    <circle cx="37.5" cy="55.5" r="2.5" fill="#E43535"/>
    <path fill="#22BA8E" d="M34.6567931,29.4852202 L33.1005051,27.9289322 L35.9289322,25.1005051 L37.4852202,26.6567931 C38.5348312,25.9616145 39.7232507,25.4592027 41,25.2000362 L41,23 L45,23 L45,25.2000362 C46.2767493,25.4592027 47.4651688,25.9616145 48.5147798,26.6567931 L50.0710678,25.1005051 L52.8994949,27.9289322 L51.3432069,29.4852202 C52.0383855,30.5348312 52.5407973,31.7232507 52.7999638,33 L55,33 L55,37 L52.7999638,37 C52.5407973,38.2767493 52.0383855,39.4651688 51.3432069,40.5147798 L52.8994949,42.0710678 L50.0710678,44.8994949 L48.5147798,43.3432069 C47.4651688,44.0383855 46.2767493,44.5407973 45,44.7999638 L45,47 L41,47 L41,44.7999638 C39.7232507,44.5407973 38.5348312,44.0383855 37.4852202,43.3432069 L35.9289322,44.8994949 L33.1005051,42.0710678 L34.6567931,40.5147798 C33.9616145,39.4651688 33.4592027,38.2767493 33.2000362,37 L31,37 L31,33 L33.2000362,33 C33.4592027,31.7232507 33.9616145,30.5348312 34.6567931,29.4852202 Z M43,39 C45.209139,39 47,37.209139 47,35 C47,32.790861 45.209139,31 43,31 C40.790861,31 39,32.790861 39,35 C39,37.209139 40.790861,39 43,39 Z"/>
  </g>
</svg>
