<svg xmlns="http://www.w3.org/2000/svg" width="64" height="64" viewBox="0 0 64 64">
  <g fill="none" fill-rule="evenodd">
    <g transform="translate(8 6)">
      <path fill="#FFAF40" d="M18,37.9163828 L18,37.430981 C15.6696153,36.0581929 14,32.3540628 14,28 L4,28 C4,32.3540628 2.33038475,36.0581929 6.10622664e-16,37.430981 L0,37.9163828 C4.80522831,40.1851395 8.38710531,46.4314501 8.92883679,54 L9.07116321,54 C9.61289469,46.4314501 13.1947717,40.1851395 18,37.9163828 Z"/>
      <path stroke="#ED9111" stroke-linecap="round" stroke-width="2" d="M9.14779467,53.6108465 L9.14779467,37.3802707"/>
      <circle cx="9" cy="36" r="2" fill="#0A3586"/>
      <rect width="10" height="28" x="4" fill="#0A3586"/>
    </g>
    <path stroke="#0A3586" stroke-linecap="round" stroke-width="2" d="M23.2389863,58.3507725 C23.2389863,58.3507725 38.7492769,57.5103989 37.5812347,52.3380533 C36.4131924,47.1657077 31.2620489,48.4311686 31.2620489,50.9946119 C31.2620489,53.5580552 50.087575,59.4899028 50.087575,59.4899028 L60.4139553,51.6191098"/>
  </g>
</svg>
