<svg xmlns="http://www.w3.org/2000/svg" width="64" height="64" viewBox="0 0 64 64">
  <g fill="none" fill-rule="evenodd">
    <g transform="matrix(1 0 0 -1 23 59)">
      <path fill="#FFAF40" d="M18,29.9163828 L18,29.430981 C15.6696153,28.0581929 14,24.3540628 14,20 L4,20 C4,24.3540628 2.33038475,28.0581929 6.10622664e-16,29.430981 L0,29.9163828 C4.80522831,32.1851395 8.38710531,38.4314501 8.92883679,46 L9.07116321,46 C9.61289469,38.4314501 13.1947717,32.1851395 18,29.9163828 Z"/>
      <path stroke="#ED9111" stroke-linecap="round" stroke-width="2" d="M9.14779467,45.6108465 L9.14779467,29.3802707"/>
      <circle cx="9" cy="28" r="2" fill="#0A3586"/>
      <rect width="10" height="20" x="4" fill="#0A3586"/>
    </g>
    <path stroke="#B4DFFB" stroke-linecap="round" stroke-width="2" d="M32.1446897,8.3280321 L32.1446897,3.41406596 M37.7634723,11.0426768 L41.5823412,7.95021772 M39.138212,17.0899422 L43.9262335,18.1953441 M25.1511674,17.0899422 L20.3631459,18.1953441 M26.5259072,11.0426768 L22.7070382,7.95021772"/>
  </g>
</svg>
