<svg xmlns="http://www.w3.org/2000/svg" xmlns:xlink="http://www.w3.org/1999/xlink" width="64" height="64" viewBox="0 0 64 64">
  <defs>
    <polygon id="pencilruler-a" points="5.962 0 11.925 13 0 13"/>
    <path id="pencilruler-b" d="M6.05959482,0.212114889 L8.81594408,6.22195616 L3.10867713,6.22195616 L5.95507252,0.0157816506 L6.05959482,0.212114889 Z"/>
  </defs>
  <g fill="none" fill-rule="evenodd">
    <path fill="#757575" d="M25.5,1.15083848 L33.4924559,1.15083848 C36.2580461,1.15083848 38.5,3.39412065 38.5,6.14253713 L38.5,57.1568502 C38.5,59.9136892 36.2652203,62.1485488 33.4924559,62.1485488 L25.5,62.1485488 L25.5,1.15083848 Z" transform="rotate(-45 32 31.65)"/>
    <polygon fill="#979797" fill-rule="nonzero" points="14 20.414 18.576 15.838 17.162 14.424 12.586 19"/>
    <polygon fill="#979797" fill-rule="nonzero" points="20 26.414 24.576 21.838 23.162 20.424 18.586 25"/>
    <polygon fill="#979797" fill-rule="nonzero" points="26 32.414 30.576 27.838 29.162 26.424 24.586 31"/>
    <polygon fill="#979797" fill-rule="nonzero" points="32 38.414 36.576 33.838 35.162 32.424 30.586 37"/>
    <polygon fill="#979797" fill-rule="nonzero" points="38 44.414 42.576 39.838 41.162 38.424 36.586 43"/>
    <polygon fill="#979797" fill-rule="nonzero" points="44 50.414 48.576 45.838 47.162 44.424 42.586 49"/>
    <path fill="#56E287" d="M24.9553201,7.44232965 L36.8799413,7.44232965 L36.8662149,58.7615704 C36.8654766,61.5217559 34.6219481,63.7593284 31.859596,63.7593284 L29.945539,63.7593284 C27.181198,63.7593284 24.9408567,61.5168823 24.9415937,58.7615704 L24.9553201,7.44232965 Z" transform="rotate(45 30.91 35.6)"/>
    <g transform="rotate(45 25.145 68.484)">
      <use fill="#D3B288" xlink:href="#pencilruler-a"/>
      <use fill="#2DA256" xlink:href="#pencilruler-b"/>
    </g>
    <path fill="#8AF2AE" fill-rule="nonzero" d="M48.4601551,15.9185245 L14.1893398,50.1893398 C13.7988155,50.5798641 13.7988155,51.2130291 14.1893398,51.6035534 C14.5798641,51.9940777 15.2130291,51.9940777 15.6035534,51.6035534 L49.8743687,17.3327381 C50.264893,16.9422138 50.264893,16.3090488 49.8743687,15.9185245 C49.4838444,15.5280003 48.8506794,15.5280003 48.4601551,15.9185245 Z"/>
  </g>
</svg>
