<svg xmlns="http://www.w3.org/2000/svg" xmlns:xlink="http://www.w3.org/1999/xlink" width="64" height="64" viewBox="0 0 64 64">
  <defs>
    <polygon id="pencilwrite-a" points="5.962 0 11.925 13 0 13"/>
    <path id="pencilwrite-b" d="M8.81594408,6.22195616 L5.9623106,-1.93622895e-13 L3.10867713,6.22195616 L8.81594408,6.22195616 Z"/>
  </defs>
  <g fill="none" fill-rule="evenodd">
    <path fill="#6B6B6B" d="M24.7228694,0.962945434 L36.6474906,0.962945434 L36.6577415,52.2901584 C36.6582928,55.0507727 34.4158097,57.2886927 31.6534576,57.2886927 L29.7394007,57.2886927 C26.9750597,57.2886927 24.7336707,55.0458983 24.7331203,52.2901584 L24.7228694,0.962945434 Z" transform="rotate(135 30.69 29.126)"/>
    <g transform="rotate(135 20.814 40.26)">
      <use fill="#D3B288" xlink:href="#pencilwrite-a"/>
      <use fill="#6B6B6B" xlink:href="#pencilwrite-b"/>
    </g>
    <path fill="#A8A8A8" fill-rule="nonzero" d="M50.3593885,46.682242 L16.0885733,12.4114267 C15.698049,12.0209024 15.064884,12.0209024 14.6743597,12.4114267 C14.2838354,12.801951 14.2838354,13.435116 14.6743597,13.8256403 L48.945175,48.0964556 C49.3356993,48.4869799 49.9688642,48.4869799 50.3593885,48.0964556 C50.7499128,47.7059313 50.7499128,47.0727663 50.3593885,46.682242 Z"/>
    <path fill="#979797" fill-rule="nonzero" d="M52.5271058 58L48.5271058 58C47.9748211 58 47.5271058 58.4477153 47.5271058 59 47.5271058 59.5522847 47.9748211 60 48.5271058 60L52.5271058 60C53.0793906 60 53.5271058 59.5522847 53.5271058 59 53.5271058 58.4477153 53.0793906 58 52.5271058 58zM44.5271058 58L40.5271058 58C39.9748211 58 39.5271058 58.4477153 39.5271058 59 39.5271058 59.5522847 39.9748211 60 40.5271058 60L44.5271058 60C45.0793906 60 45.5271058 59.5522847 45.5271058 59 45.5271058 58.4477153 45.0793906 58 44.5271058 58zM36.5271058 58L32.5271058 58C31.9748211 58 31.5271058 58.4477153 31.5271058 59 31.5271058 59.5522847 31.9748211 60 32.5271058 60L36.5271058 60C37.0793906 60 37.5271058 59.5522847 37.5271058 59 37.5271058 58.4477153 37.0793906 58 36.5271058 58zM28.5271058 58L24.5271058 58C23.9748211 58 23.5271058 58.4477153 23.5271058 59 23.5271058 59.5522847 23.9748211 60 24.5271058 60L28.5271058 60C29.0793906 60 29.5271058 59.5522847 29.5271058 59 29.5271058 58.4477153 29.0793906 58 28.5271058 58zM20.5271058 58L16.5271058 58C15.9748211 58 15.5271058 58.4477153 15.5271058 59 15.5271058 59.5522847 15.9748211 60 16.5271058 60L20.5271058 60C21.0793906 60 21.5271058 59.5522847 21.5271058 59 21.5271058 58.4477153 21.0793906 58 20.5271058 58zM12.5271058 58L8.52710584 58C7.97482109 58 7.52710584 58.4477153 7.52710584 59 7.52710584 59.5522847 7.97482109 60 8.52710584 60L12.5271058 60C13.0793906 60 13.5271058 59.5522847 13.5271058 59 13.5271058 58.4477153 13.0793906 58 12.5271058 58zM32 46L15 46C14.4477153 46 14 46.4477153 14 47 14 47.5522847 14.4477153 48 15 48L32 48C32.5522847 48 33 47.5522847 33 47 33 46.4477153 32.5522847 46 32 46z"/>
  </g>
</svg>
