<svg xmlns="http://www.w3.org/2000/svg" width="64" height="64" viewBox="0 0 64 64">
  <g fill="none" fill-rule="evenodd">
    <path fill="#FFAF40" d="M25.8180995,4.00180999 C25.9185604,1.79167136 27.7873299,0 29.9931023,0 L36.0068977,0 C38.2122272,0 40.0808794,1.7793479 40.1819005,4.00180999 L42,44 L24,44 L25.8180995,4.00180999 Z"/>
    <rect width="6" height="28" x="30" y="4" fill="#868686"/>
    <path fill="#595959" d="M24,44 L42,44 C42,44 38.2944784,48.5 36.5889567,53 C34.8834351,57.5 35.1779134,62 35.1779134,62 L31.096494,62 C31.096494,62 31.3223705,57.5 29.548247,53 C27.7741235,48.5 24,44 24,44 Z"/>
    <rect width="2" height="2" x="32" y="62" fill="#FFAF40"/>
  </g>
</svg>
