<svg xmlns="http://www.w3.org/2000/svg" xmlns:xlink="http://www.w3.org/1999/xlink" width="64" height="64" viewBox="0 0 64 64">
  <defs>
    <polygon id="pencillaptop-a" points="4.5 0 9 10 0 10"/>
  </defs>
  <g fill="none" fill-rule="evenodd">
    <path fill="#FB3A3A" d="M23.5,38.5 L32.5,38.5 L32.5,68.0026101 C32.5,70.4864499 30.4802243,72.5 28,72.5 L28,72.5 C25.5147186,72.5 23.5,70.4875399 23.5,68.0026101 L23.5,38.5 Z" transform="rotate(90 28 55.5)"/>
    <g transform="rotate(90 2 53)">
      <mask id="pencillaptop-b" fill="#fff">
        <use xlink:href="#pencillaptop-a"/>
      </mask>
      <use fill="#D3B288" xlink:href="#pencillaptop-a"/>
      <path fill="#FB3A3A" d="M4.5,0 L6.5530501,4.1061002 C6.79989371,4.59978743 6.55628335,5 6.00019251,5 L2.99980749,5 C2.44762906,5 2.19617081,4.60765839 2.4469499,4.1061002 L4.5,0 Z" mask="url(#pencillaptop-b)"/>
    </g>
    <path stroke="#FF8E8E" stroke-linecap="round" stroke-width="2" d="M28.5,41.5 L28.5,69.5" transform="rotate(90 29 55.5)"/>
    <polygon fill="#325AA6" points="4 6 60 6 60 41 4 41"/>
    <rect width="52" height="31" x="6" y="8" fill="#D8D8D8"/>
    <path fill="#4796E7" d="M0,41 L64,41 L64,43.5 C64,44.8807119 62.8891602,46 61.4911242,46 L2.50887585,46 C1.12326198,46 0,44.8903379 0,43.5 L0,41 Z"/>
  </g>
</svg>
