<svg xmlns="http://www.w3.org/2000/svg" width="64" height="64" viewBox="0 0 64 64">
  <g fill="none" fill-rule="evenodd">
    <polygon fill="#595959" points="4 8 60 8 60 43 4 43"/>
    <rect width="52" height="31" x="6" y="10" fill="#5EA7FF"/>
    <path fill="#22BA8E" d="M29,56.0023695 C29,53.7919219 30.787167,51.7942228 32.9642898,51.5435455 L46,50.0425936 L59.0357102,51.5435455 C61.225127,51.7956384 63,53.7918218 63,56.0023695 L63,63 L29,63 L29,56.0023695 Z"/>
    <path fill="#4796E7" d="M0,43 L64,43 L64,45.5 C64,46.8807119 62.8891602,48 61.4911242,48 L2.50887585,48 C1.12326198,48 0,46.8903379 0,45.5 L0,43 Z"/>
    <path fill="#FFDD95" d="M40,45.3164468 C38.9971288,44.368286 38.1075172,43.2244539 37.367011,41.9777752 C37.2467275,41.992447 37.1242458,42 37,42 C35.3431458,42 34,40.6568542 34,39 C34,37.9904316 34.4986846,37.0973373 35.2631621,36.5536088 C35.0908744,35.6846078 35,34.8252381 35,34 C35,27.9248678 39.9248678,23 46,23 C52.0751322,23 57,27.9248678 57,34 C57,34.8252381 56.9091256,35.6846078 56.7368379,36.5536088 C57.5013154,37.0973373 58,37.9904316 58,39 C58,40.6568542 56.6568542,42 55,42 C54.8757542,42 54.7532725,41.992447 54.632989,41.9777752 C53.8924828,43.2244539 53.0028712,44.368286 52,45.3164468 L52,52 C52,52 47.9325778,53.4486507 46,53.4486507 C44.0674222,53.4486507 40,52 40,52 L40,45.3164468 Z"/>
  </g>
</svg>
