<svg xmlns="http://www.w3.org/2000/svg" width="64" height="64" viewBox="0 0 64 64">
  <g fill="none" fill-rule="evenodd">
    <polygon fill="#F5413E" points="24.714 33.861 32.714 33.861 32.714 50.861 28.714 47.345 24.714 50.861" transform="rotate(30 28.714 42.361)"/>
    <polygon fill="#F5413E" points="34.714 33.861 42.714 33.861 42.714 50.861 38.714 47.345 34.714 50.861" transform="scale(-1 1) rotate(30 0 -102.122)"/>
    <path fill="#D8D8D8" d="M60,23 L8,23 L8,37 L60,37 C62.209139,37 64,33.8659932 64,30 C64,26.1340068 62.209139,23 60,23 Z"/>
    <path fill="#FF6F6C" d="M38,37 L30,37 C32.209139,37 34,33.8659932 34,30 C34,26.1340068 32.209139,23 30,23 L38,23 C40.209139,23 42,26.1340068 42,30 C42,33.8659932 40.209139,37 38,37 Z"/>
    <ellipse cx="8" cy="30" fill="#B6B6B6" rx="4" ry="7"/>
  </g>
</svg>
