<svg xmlns="http://www.w3.org/2000/svg" width="64" height="64" viewBox="0 0 64 64">
  <g fill="none" fill-rule="evenodd">
    <path fill="#D8D8D8" d="M60,56 C61.6568542,56 63,57.3431458 63,59 C63,60.6568542 61.6568542,62 60,62 C58.3431458,62 57,60.6568542 57,59 L9,59 C9,60.6568542 7.65685425,62 6,62 C4.34314575,62 3,60.6568542 3,59 C3,57.3431458 4.34314575,56 6,56 L6,8 C4.34314575,8 3,6.65685425 3,5 C3,3.34314575 4.34314575,2 6,2 C7.65685425,2 9,3.34314575 9,5 L57,5 C57,3.34314575 58.3431458,2 60,2 C61.6568542,2 63,3.34314575 63,5 C63,6.65685425 61.6568542,8 60,8 L60,56 Z M10,9 L10,55 L56,55 L56,9 L10,9 Z"/>
    <polygon fill="#80D25B" points="14 25 52 25 56 56 10 56"/>
    <circle cx="14" cy="25" r="2" fill="#80D25B"/>
    <circle cx="52" cy="25" r="2" fill="#80D25B"/>
  </g>
</svg>
