<svg xmlns="http://www.w3.org/2000/svg" width="64" height="64" viewBox="0 0 64 64">
  <g fill="none" fill-rule="evenodd">
    <path fill="#0A3586" d="M3.5,17.4999204 C3.5,16.3953949 4.38582923,15.5 5.4948984,15.5 L62.5051016,15.5 C63.6068536,15.5 64.5,16.3919411 64.5,17.4999204 L64.5,47.5000796 C64.5,48.6046051 63.6141708,49.5 62.5051016,49.5 L5.4948984,49.5 C4.39314644,49.5 3.5,48.6080589 3.5,47.5000796 L3.5,17.4999204 Z" transform="rotate(90 34 32.5)"/>
    <circle cx="34" cy="59" r="3" fill="#5B68C0" transform="rotate(90 34 59)"/>
    <path fill="#D8D8D8" d="M10.5,17.4981537 C10.5,16.9468886 10.9501036,16.5 11.5034056,16.5 L56.4965944,16.5 C57.05076,16.5 57.5,16.9473652 57.5,17.4981537 L57.5,45.5018463 C57.5,46.0531114 57.0498964,46.5 56.4965944,46.5 L11.5034056,46.5 C10.94924,46.5 10.5,46.0526348 10.5,45.5018463 L10.5,17.4981537 Z" transform="rotate(90 34 31.5)"/>
    <rect width="6" height="6" x="22" y="11" fill="#595959" rx="1"/>
    <rect width="6" height="6" x="31" y="11" fill="#595959" rx="1"/>
    <rect width="6" height="6" x="40" y="11" fill="#595959" rx="1"/>
    <rect width="6" height="6" x="22" y="20" fill="#595959" rx="1"/>
    <rect width="6" height="6" x="31" y="20" fill="#595959" rx="1"/>
    <path stroke="#5B68C0" stroke-linecap="round" stroke-linejoin="round" stroke-width="2" d="M30,5 L39,5"/>
  </g>
</svg>
