<svg xmlns="http://www.w3.org/2000/svg" width="64" height="64" viewBox="0 0 64 64">
  <g fill="none" fill-rule="evenodd">
    <rect width="58" height="32" x="3" y="16" fill="#D8D8D8" rx="2" transform="rotate(90 32 32)"/>
    <circle cx="32" cy="58" r="2" fill="#868686" transform="rotate(90 32 58)"/>
    <rect width="49" height="28" x="7.5" y="16.5" fill="#325AA6" rx="1" transform="rotate(90 32 30.5)"/>
    <circle cx="32" cy="31" r="10" fill="#22BA8E"/>
    <path fill="#FFF" d="M34.16,30.715 C34.1099998,30.715 33.8200027,30.6450007 33.29,30.505 L30.005,31.03 C30.005,31.3200014 30.0149999,31.6049986 30.035,31.885 L32.39,31.54 C32.7000016,31.2599986 32.9199993,31.1100001 33.05,31.09 C33.2400009,31.0599999 33.4474989,31.2024984 33.6725,31.5175 C33.8975011,31.8325016 34.0349997,32.1449984 34.085,32.455 C34.1150002,32.665001 34.0750005,32.8474992 33.965,33.0025 C33.8549994,33.1575008 33.7350007,33.2449999 33.605,33.265 C33.5549997,33.2750001 33.2650027,33.2100007 32.735,33.07 L30.305,33.46 C30.695002,34.7900066 31.4099948,35.455 32.45,35.455 C32.8700021,35.455 33.2199986,35.2950016 33.5,34.975 C33.7500012,34.6849986 33.8999998,34.3250021 33.95,33.895 C34.150001,33.484998 34.4999975,33.28 35,33.28 C35.3100015,33.28 35.5899987,33.3674991 35.84,33.5425 C36.0900013,33.7175009 36.215,33.9299987 36.215,34.18 C36.215,34.2400003 36.21,34.2999997 36.2,34.36 C36.1699999,34.4700005 36.0750008,34.5949993 35.915,34.735 C35.7349991,34.9050008 35.6250002,35.0149998 35.585,35.065 C35.5049996,35.1950007 35.3350013,35.4299983 35.075,35.77 C34.4249967,36.8000052 33.6700043,37.315 32.81,37.315 C31.6599942,37.315 30.6900039,36.9750034 29.9,36.295 C29.1799964,35.694997 28.6500017,34.8550054 28.31,33.775 L27.875,33.835 C27.5449984,34.0950013 27.3200006,34.2349999 27.2,34.255 C26.8099981,34.3150003 26.5650005,34.0350031 26.465,33.415 C26.455,33.3149995 26.45,33.2250004 26.45,33.145 C26.45,32.5949973 26.6999975,32.2800004 27.2,32.2 C27.3000005,32.19 27.5449981,32.185 27.935,32.185 L27.98,32.185 C27.9399998,31.9149986 27.915,31.6400014 27.905,31.36 L27.785,31.375 C27.4649984,31.6250013 27.2400006,31.7599999 27.11,31.78 C26.719998,31.8500004 26.4800005,31.5700032 26.39,30.94 C26.3699999,30.8499995 26.36,30.7650004 26.36,30.685 C26.36,30.1349973 26.6149974,29.8200004 27.125,29.74 C27.2150004,29.7199999 27.459998,29.7149999 27.86,29.725 L27.98,29.71 C28.170001,28.2699928 28.6449962,27.1250042 29.405,26.275 C30.2650043,25.3249953 31.399993,24.85 32.81,24.85 C33.2700023,24.85 33.7599974,25.0149983 34.28,25.345 C34.7200022,25.6250014 35.044999,25.9149985 35.255,26.215 C35.3650006,26.3850009 35.4999992,26.5349994 35.66,26.665 C35.8200008,26.7950006 35.905,26.865 35.915,26.875 C35.9950004,27.0150007 36.035,27.1549993 36.035,27.295 C36.035,27.5750014 35.8600018,27.814999 35.51,28.015 C35.1999985,28.1850008 34.8550019,28.27 34.475,28.27 C34.0349978,28.27 33.7550006,28.1600011 33.635,27.94 C33.6149999,27.8999998 33.5800003,27.6950019 33.53,27.325 C33.4799997,27.2349995 33.3350012,27.1150008 33.095,26.965 C32.8249986,26.8049992 32.6100008,26.725 32.45,26.725 C31.1899937,26.725 30.4150015,27.6149911 30.125,29.395 L32.945,28.99 C33.2650016,28.7099986 33.4849994,28.5600001 33.605,28.54 C33.795001,28.5099998 34.0024989,28.6499984 34.2275,28.96 C34.4525011,29.2700016 34.5899998,29.5799984 34.64,29.89 C34.6700002,30.1100011 34.6300005,30.2974992 34.52,30.4525 C34.4099994,30.6075008 34.2900006,30.6949999 34.16,30.715 Z"/>
  </g>
</svg>
