<svg xmlns="http://www.w3.org/2000/svg" width="64" height="64" viewBox="0 0 64 64">
  <g fill="none" fill-rule="evenodd">
    <path fill="#D8D8D8" d="M22.5,21.4912443 C22.5,20.3915104 23.3959923,19.5 24.4992604,19.5 L71.5007396,19.5 C72.6049006,19.5 73.5,20.3998975 73.5,21.4912443 L73.5,45.5087557 C73.5,46.6084896 72.6040077,47.5 71.5007396,47.5 L24.4992604,47.5 C23.3950994,47.5 22.5,46.6001025 22.5,45.5087557 L22.5,21.4912443 Z" transform="rotate(90 48 33.5)"/>
    <path stroke="#ECECEC" stroke-linecap="square" stroke-width="2" d="M35,18 L61,18"/>
    <circle cx="40" cy="13" r="2" fill="#868686" transform="rotate(90 40 13)"/>
    <path fill="#D8D8D8" d="M-9.5,20.491617 C-9.5,19.3916773 -8.60400771,18.5 -7.50073956,18.5 L39.5007396,18.5 C40.6049006,18.5 41.5,19.3978404 41.5,20.491617 L41.5,46.508383 C41.5,47.6083227 40.6040077,48.5 39.5007396,48.5 L-7.50073956,48.5 C-8.60490061,48.5 -9.5,47.6021596 -9.5,46.508383 L-9.5,20.491617 Z" transform="rotate(90 16 33.5)"/>
    <circle cx="16" cy="56" r="2" fill="#868686" transform="rotate(90 16 56)"/>
    <path fill="#595959" d="M-5.5,19.5032996 C-5.5,18.9491925 -5.04618438,18.5 -4.5003895,18.5 L36.5003895,18.5 C37.0524591,18.5 37.5,18.9512787 37.5,19.5032996 L37.5,43.4967004 C37.5,44.0508075 37.0461844,44.5 36.5003895,44.5 L-4.5003895,44.5 C-5.05245913,44.5 -5.5,44.0487213 -5.5,43.4967004 L-5.5,19.5032996 Z" transform="rotate(90 16 31.5)"/>
  </g>
</svg>
