<svg xmlns="http://www.w3.org/2000/svg" width="64" height="64" viewBox="0 0 64 64">
  <g fill="none" fill-rule="evenodd">
    <polygon fill="#979797" points="4 12 60 12 60 47 4 47"/>
    <rect width="52" height="31" x="6" y="14" fill="#5B68C0"/>
    <path fill="#D8D8D8" d="M0,47 L64,47 L64,49.5 C64,50.8807119 62.8891602,52 61.4911242,52 L2.50887585,52 C1.12326198,52 0,50.8903379 0,49.5 L0,47 Z"/>
    <path stroke="#5EA7FF" stroke-linecap="round" stroke-width="2" d="M13.0994253 17L9 21.0994253M19.0994253 17L9.61905129 26.480374"/>
    <path fill="#D8D8D8" d="M34,33.9982456 C34,33.4469298 34.4547089,33 34.9999602,33 L50.0000398,33 C50.5523026,33 51,33.4555207 51,33.9982456 L51,61.0017544 C51,61.5530702 50.5452911,62 50.0000398,62 L34.9999602,62 C34.4476974,62 34,61.5444793 34,61.0017544 L34,33.9982456 Z"/>
    <rect width="15" height="21" x="35" y="36" fill="#5B68C0"/>
    <circle cx="42.5" cy="59.5" r="1.5" fill="#868686"/>
  </g>
</svg>
