<svg xmlns="http://www.w3.org/2000/svg" width="64" height="64" viewBox="0 0 64 64">
  <g fill="none" fill-rule="evenodd">
    <path fill="#5B68C0" d="M11,7.99609755 C11,6.34139856 12.3408334,5 13.9982167,5 L49.0017833,5 C50.6576526,5 52,6.34590009 52,7.99609755 L52,57.0039024 C52,58.6586014 50.6591666,60 49.0017833,60 L13.9982167,60 C12.3423474,60 11,58.6540999 11,57.0039024 L11,7.99609755 Z"/>
    <rect width="6" height="55" x="16" y="5" fill="#FFAF40"/>
    <path fill="#22BA8E" d="M27,40.904899 C27,39.8011519 27.8935835,38.8111018 28.9928723,38.6938803 L35.5,38 L42.0071277,38.6938803 C43.1077607,38.8112451 44,39.7936275 44,40.904899 L44,44 L27,44 L27,40.904899 Z"/>
    <path fill="#FFDD95" d="M32.5,34.9938107 C30.9948954,33.5917827 30,31.3212872 30,29.4189593 C30,26.4261507 32.4624339,24 35.5,24 C38.5375661,24 41,26.4261507 41,29.4189593 C41,31.3212872 40.0051046,33.5917827 38.5,34.9938107 L38.5,38.2863473 C38.5,38.2863473 36.4662889,39 35.5,39 C34.5337111,39 32.5,38.2863473 32.5,38.2863473 L32.5,34.9938107 Z"/>
  </g>
</svg>
