<svg xmlns="http://www.w3.org/2000/svg" width="64" height="64" viewBox="0 0 64 64">
  <g fill="none" fill-rule="evenodd">
    <rect width="58" height="32" x="3" y="16" fill="#D8D8D8" rx="2" transform="rotate(90 32 32)"/>
    <circle cx="32" cy="58" r="2" fill="#868686" transform="rotate(90 32 58)"/>
    <rect width="49" height="28" x="7.5" y="16.5" fill="#325AA6" rx="1" transform="rotate(90 32 30.5)"/>
    <circle cx="32" cy="31" r="10" fill="#22BA8E"/>
    <path fill="#FFF" d="M34.04,23.5 C34.2533344,23.5933338 34.36,23.7599988 34.36,24 C34.36,24.3600018 34.193335,24.6199992 33.86,24.78 C33.6466656,24.8866672 33.3466686,24.94 32.96,24.94 C32.6133316,24.94 32.2600018,24.8833339 31.9,24.77 C31.5399982,24.6566661 31.3400002,24.5533338 31.3,24.46 C31.0733322,23.8199968 31.1866644,23.3600014 31.64,23.08 C31.7466672,23.013333 31.9533318,22.98 32.26,22.98 C33.1000042,22.98 33.6933316,23.1533316 34.04,23.5 Z M36.86,30.84 C36.86,31.8133382 36.3400052,33.0066596 35.3,34.42 C34.299995,35.7000064 33.3400046,36.34 32.42,36.34 C31.5133288,36.34 30.593338,36.0600028 29.66,35.5 C28.859996,34.9133304 28.4733332,34.3733358 28.5,33.88 C28.5266668,33.5999986 28.8666634,33.46 29.52,33.46 C30.0666694,33.46 30.573331,33.5533324 31.04,33.74 C31.2000008,33.873334 31.4599982,34.039999 31.82,34.24 C32.0466678,34.2533334 32.3699979,33.993336 32.79,33.46 C33.2100021,32.926664 33.42,32.5133348 33.42,32.22 C33.42,32.0466658 33.3066678,31.96 33.08,31.96 C32.9599994,31.96 32.4533378,31.9999996 31.56,32.08 C30.6666622,32.1600004 29.9933356,32.2 29.54,32.2 C28.5266616,32.2 27.8933346,31.900003 27.64,31.3 C27.6266666,31.2866666 27.62,31.2200006 27.62,31.1 C27.62,30.4066632 28.219994,29.3533404 29.42,27.94 C30.7400066,26.4333258 31.8799952,25.68 32.84,25.68 C33.5200034,25.68 34.2066632,25.9399974 34.9,26.46 C35.633337,26.926669 35.9733336,27.2866654 35.92,27.54 C35.7599992,28.3933376 35.2200046,28.82 34.3,28.82 C34.1533326,28.82 33.9933342,28.7966669 33.82,28.75 C33.6466658,28.7033331 33.4666676,28.5566679 33.28,28.31 C33.0933324,28.0633321 32.8933344,27.94 32.68,27.94 C32.4399988,27.94 32.0100031,28.2766633 31.39,28.95 C30.7699969,29.6233367 30.46,30.1066652 30.46,30.4 C30.46,30.4400002 30.5133328,30.46 30.62,30.46 C30.820001,30.46 31.4799944,30.3400012 32.6,30.1 C33.7200056,29.8599988 34.5933302,29.74 35.22,29.74 C36.3133388,29.74 36.86,30.106663 36.86,30.84 Z M34.06,38.2 C34.06,38.7600028 33.6800038,39.1666654 32.92,39.42 C32.719999,39.4733336 32.3633359,39.4033343 31.85,39.21 C31.3366641,39.0166657 31.0733334,38.8400008 31.06,38.68 C30.993333,38.1199972 31.1066652,37.740001 31.4,37.54 C31.5600008,37.4199994 31.8199982,37.36 32.18,37.36 C32.6200022,37.36 33.0266648,37.4199994 33.4,37.54 C33.7733352,37.6600006 33.9766665,37.7833327 34.01,37.91 C34.0433335,38.0366673 34.06,38.133333 34.06,38.2 Z"/>
  </g>
</svg>
