<svg xmlns="http://www.w3.org/2000/svg" width="64" height="64" viewBox="0 0 64 64">
  <g fill="none" fill-rule="evenodd">
    <rect width="58" height="32" x="2" y="16" fill="#D8D8D8" rx="2" transform="rotate(90 31 32)"/>
    <circle cx="31" cy="58" r="2" fill="#868686" transform="rotate(90 31 58)"/>
    <rect width="49" height="28" x="6.5" y="16.5" fill="#325AA6" rx="1" transform="rotate(90 31 30.5)"/>
    <circle cx="31" cy="31" r="10" fill="#22BA8E"/>
    <path fill="#FFF" d="M33.1063208,34.8193895 C33.176846,34.5224413 33.3239043,34.3193135 33.5475,34.21 C33.7725011,34.0999994 33.9999989,34.0799996 34.23,34.15 C34.7700027,34.340001 34.9650007,34.7249971 34.815,35.305 C34.404998,36.305005 33.7150049,36.909999 32.745,37.12 C32.544999,37.12 32.3300012,37.1050001 32.1,37.075 C31.8699989,37.0449998 31.6300013,36.9950003 31.38,36.925 C31.2399993,36.8949999 31.1000007,36.8675001 30.96,36.8425 C30.8199993,36.8174999 30.6850006,36.805 30.555,36.805 C30.3749991,36.805 30.2100008,36.8299997 30.06,36.88 L29.475,37.06 C29.0549979,37.1200003 28.6600019,37.1400001 28.29,37.12 C27.8699979,36.9899994 27.6075005,36.825001 27.5025,36.625 C27.3974995,36.424999 27.3749997,36.2050012 27.435,35.965 C27.4550001,35.8749996 27.4899997,35.7975003 27.54,35.7325 C27.5900003,35.6674997 27.6449997,35.5950004 27.705,35.515 C27.7550002,35.4349996 27.8124997,35.3575004 27.8775,35.2825 C27.9425003,35.2074996 27.9949998,35.1250004 28.035,35.035 L28.02,35.065 C28.1300005,34.5049972 28.2374995,33.9775025 28.3425,33.4825 C28.4475005,32.9874975 28.5499995,32.4650028 28.65,31.915 C28.5399995,31.925 28.4375005,31.9275 28.3425,31.9225 C28.2474995,31.9175 28.1450006,31.915 28.035,31.915 L27.825,31.915 C27.6449991,31.915 27.5025005,31.8325008 27.3975,31.6675 C27.2924995,31.5024992 27.24,31.3350009 27.24,31.165 C27.24,31.0349994 27.2549999,30.8925008 27.285,30.7375 C27.3150002,30.5824992 27.3699996,30.4500006 27.45,30.34 C27.5100003,30.2999998 27.6099993,30.2600002 27.75,30.22 C27.8900007,30.1799998 28.0299993,30.1500001 28.17,30.13 C28.3100007,30.1099999 28.4349995,30.0975 28.545,30.0925 C28.6550006,30.0875 28.71,30.0899999 28.71,30.1 C28.71,30.0899999 28.7399997,30.0825 28.8,30.0775 C28.8600003,30.0725 28.9399995,30.07 29.04,30.07 L29.94,25.51 C30.0300004,25.1699983 30.2449983,24.9200008 30.585,24.76 C30.9250017,24.5999992 31.3699973,24.5449997 31.92,24.595 L31.995,24.595 L32.61,24.655 C33.5600047,24.8950012 34.0749996,25.519995 34.155,26.53 C34.1750001,26.6600007 34.1650002,26.7799995 34.125,26.89 C34.0549996,27.1000011 33.920001,27.2549995 33.72,27.355 C33.519999,27.4550005 33.3100011,27.4800002 33.09,27.43 C32.899999,27.3699997 32.7500006,27.2650007 32.64,27.115 C32.5299995,26.9649992 32.475,26.7750012 32.475,26.545 C32.5050001,26.3949993 32.3800014,26.2850003 32.1,26.215 C31.9899994,26.225 31.9075003,26.2374999 31.8525,26.2525 C31.7974997,26.2675001 31.7450002,26.3049997 31.695,26.365 C31.6549998,26.4850006 31.5725006,26.844997 31.4475,27.445 C31.3224994,28.045003 31.1550011,28.9149943 30.945,30.055 C31.1250009,30.0349999 31.2849993,30.025 31.425,30.025 L31.86,30.025 C32.2800021,30.0149999 32.6499984,30.0449997 32.97,30.115 C33.1900011,30.1850004 33.3549994,30.3399988 33.465,30.58 C33.5750005,30.8200012 33.6100002,31.0699987 33.57,31.33 C33.4499994,31.9200029 33.1250026,32.1200009 32.595,31.93 C32.5549998,31.9099999 32.5150002,31.8975 32.475,31.8925 C32.4349998,31.8875 32.3900002,31.88 32.34,31.87 C32.0999988,31.7999997 31.7900019,31.7799999 31.41,31.81 L30.57,31.885 L29.955,34.885 C30.1150008,34.8649999 30.2649993,34.85 30.405,34.84 C30.5450007,34.8299999 30.6899993,34.825 30.84,34.825 C31.1400015,34.825 31.4224987,34.8549997 31.6875,34.915 C31.9525013,34.9750003 32.2149987,35.0749993 32.475,35.215 L32.46,35.215 C32.7228157,35.2442017 32.9382539,35.1123329 33.1063208,34.8193895 L33.1063208,34.8193895 Z"/>
  </g>
</svg>
