<svg xmlns="http://www.w3.org/2000/svg" width="64" height="64" viewBox="0 0 64 64">
  <g fill="none" fill-rule="evenodd">
    <path fill="#BD7575" d="M11,10.0073299 C11,8.89871223 11.9018508,8 13.0028592,8 L46.9971408,8 C48.1032894,8 49,8.89833832 49,10.0073299 L49,32.9926701 C49,34.1012878 48.0981492,35 46.9971408,35 L13.0028592,35 C11.8967106,35 11,34.1016617 11,32.9926701 L11,10.0073299 Z"/>
    <circle cx="34.5" cy="21.5" r="9.5" fill="#80D25B"/>
    <circle cx="34.5" cy="21.5" r="7.5" fill="#0A3586"/>
    <circle cx="31" cy="19" r="2" fill="#FFF"/>
    <path stroke="#979797" stroke-linecap="square" stroke-width="2" d="M24 37L36 37M30 37L30 47"/>
    <path stroke="#979797" stroke-linecap="round" stroke-width="2" d="M30.0461321,37.1140601 L19.1822003,61.5317727"/>
    <path stroke="#979797" stroke-linecap="round" stroke-width="2" d="M41.0461321,37.1140601 L30.1822003,61.5317727" transform="matrix(-1 0 0 1 71.228 0)"/>
    <rect width="7" height="3" x="14" y="11" fill="#D8D8D8"/>
    <polygon fill="#9C4D4D" points="22 3 30 3 32 8 20 8"/>
  </g>
</svg>
