<svg xmlns="http://www.w3.org/2000/svg" width="64" height="64" viewBox="0 0 64 64">
  <g fill="none" fill-rule="evenodd">
    <polygon fill="#5B68C0" points="13 2 42.105 2 54 13.753 54 61 13 61"/>
    <rect width="33" height="18" x="13" y="25" fill="#ECECEC"/>
    <polygon fill="#0A3586" points="42 2 54 2 54 14" transform="rotate(-180 48 8)"/>
    <path fill="#0A3586" d="M24.768,34.136 C24.768,35.1253383 24.5580021,36.0259959 24.138,36.838 C23.671331,37.7153377 23.0973367,38.154 22.416,38.154 C22.0333314,38.154 21.6413353,37.8506697 21.24,37.244 L21.24,39.036 C21.24,39.1853341 21.3006661,39.3766655 21.422,39.61 C21.5433339,39.8433345 21.604,40.0206661 21.604,40.142 C21.604,40.2353338 21.5806669,40.3286662 21.534,40.422 C21.337999,40.8420021 20.9553362,41.052 20.386,41.052 C19.919331,41.052 19.6300006,40.8840017 19.518,40.548 C19.4806665,40.4359994 19.462,40.3286672 19.462,40.226 C19.462,40.1233328 19.492333,39.9856675 19.553,39.813 C19.613667,39.6403325 19.644,39.4933339 19.644,39.372 L19.644,31.406 C19.644,31.3033328 19.606667,31.1796674 19.532,31.035 C19.457333,30.8903326 19.42,30.7713338 19.42,30.678 C19.42,30.603333 19.4386665,30.5240004 19.476,30.44 C19.5880006,30.1786654 19.9333304,30.048 20.512,30.048 C20.8760018,30.048 21.1186661,30.1226659 21.24,30.272 C21.2866669,30.3280003 21.31,30.3979996 21.31,30.482 C21.31,30.5473337 21.2866669,30.6499993 21.24,30.79 C21.1933331,30.9300007 21.1653334,31.037333 21.156,31.112 C21.5853355,30.4959969 22.0893304,30.188 22.668,30.188 C23.4426705,30.188 24.0073316,30.6266623 24.362,31.504 C24.632668,32.1853367 24.768,33.0626613 24.768,34.136 Z M23.004,34.136 C23.004,33.2493289 22.9853335,32.6846679 22.948,32.442 C22.8546662,31.8353303 22.6213352,31.532 22.248,31.532 C22.0333323,31.532 21.8396675,31.8236637 21.667,32.407 C21.4943325,32.9903363 21.408,33.5666638 21.408,34.136 C21.408,34.5653355 21.5013324,35.0693304 21.688,35.648 C21.8746676,36.2640031 22.0613324,36.572 22.248,36.572 C22.4720011,36.572 22.6586659,36.2873362 22.808,35.718 C22.9386673,35.2233309 23.004,34.6960028 23.004,34.136 Z M31.53,36.824 C31.5860003,37.0573345 31.614,37.2066663 31.614,37.272 C31.614,37.468001 31.4996678,37.6289994 31.271,37.755 C31.0423322,37.8810006 30.7973346,37.944 30.536,37.944 C30.1346647,37.944 29.8780006,37.7946682 29.766,37.496 C29.7193331,37.3746661 29.696,37.2720004 29.696,37.188 C29.696,37.0666661 29.7496661,36.9360007 29.857,36.796 C29.9643339,36.6559993 30.018,36.5253339 30.018,36.404 C30.1300006,35.9186642 30.186,35.2186712 30.186,34.304 C30.186,32.7173254 30.0740011,31.9053335 29.85,31.868 C29.6819992,31.8399999 29.4113352,32.1059972 29.038,32.666 C28.645998,33.2540029 28.3193346,33.9119964 28.058,34.64 C27.7499985,35.498671 27.6193331,36.2546634 27.666,36.908 C27.6379999,36.9640003 27.624,37.0199997 27.624,37.076 C27.624,37.1600004 27.661333,37.2789992 27.736,37.433 C27.810667,37.5870008 27.848,37.7106662 27.848,37.804 C27.848,37.8973338 27.8153337,37.9859996 27.75,38.07 C27.4979987,38.4340018 27.2460013,38.616 26.994,38.616 C26.7326654,38.616 26.4806679,38.4106687 26.238,38 C26.0979993,37.7573321 26.028,36.3620127 26.028,33.814 C26.028,32.880662 26.0513331,30.7573499 26.098,27.444 C26.098,27.3879997 26.0933334,27.3016672 26.084,27.185 C26.0746666,27.0683327 26.07,26.9773337 26.07,26.912 C26.0793334,26.8186662 26.1073331,26.734667 26.154,26.66 C26.2566672,26.463999 26.4759983,26.366 26.812,26.366 C27.1106682,26.366 27.3836654,26.4453325 27.631,26.604 C27.8783346,26.7626675 27.9740003,26.9493323 27.918,27.164 C27.9086666,27.2200003 27.8643337,27.285333 27.785,27.36 C27.7056663,27.434667 27.666,27.509333 27.666,27.584 L27.666,32.092 C28.1980027,30.8973274 28.9819948,30.262667 30.018,30.188 C30.5780028,30.1506665 31.0259983,30.5706623 31.362,31.448 C31.6700015,32.2506707 31.824,33.2353275 31.824,34.402 C31.824,35.2980045 31.726001,36.1053297 31.53,36.824 Z M38.222,34.136 C38.222,35.1253383 38.0120021,36.0259959 37.592,36.838 C37.125331,37.7153377 36.5513367,38.154 35.87,38.154 C35.4873314,38.154 35.0953353,37.8506697 34.694,37.244 L34.694,39.036 C34.694,39.1853341 34.7546661,39.3766655 34.876,39.61 C34.9973339,39.8433345 35.058,40.0206661 35.058,40.142 C35.058,40.2353338 35.0346669,40.3286662 34.988,40.422 C34.791999,40.8420021 34.4093362,41.052 33.84,41.052 C33.373331,41.052 33.0840006,40.8840017 32.972,40.548 C32.9346665,40.4359994 32.916,40.3286672 32.916,40.226 C32.916,40.1233328 32.946333,39.9856675 33.007,39.813 C33.067667,39.6403325 33.098,39.4933339 33.098,39.372 L33.098,31.406 C33.098,31.3033328 33.060667,31.1796674 32.986,31.035 C32.911333,30.8903326 32.874,30.7713338 32.874,30.678 C32.874,30.603333 32.8926665,30.5240004 32.93,30.44 C33.0420006,30.1786654 33.3873304,30.048 33.966,30.048 C34.3300018,30.048 34.5726661,30.1226659 34.694,30.272 C34.7406669,30.3280003 34.764,30.3979996 34.764,30.482 C34.764,30.5473337 34.7406669,30.6499993 34.694,30.79 C34.6473331,30.9300007 34.6193334,31.037333 34.61,31.112 C35.0393355,30.4959969 35.5433304,30.188 36.122,30.188 C36.8966705,30.188 37.4613316,30.6266623 37.816,31.504 C38.086668,32.1853367 38.222,33.0626613 38.222,34.136 Z M36.458,34.136 C36.458,33.2493289 36.4393335,32.6846679 36.402,32.442 C36.3086662,31.8353303 36.0753352,31.532 35.702,31.532 C35.4873323,31.532 35.2936675,31.8236637 35.121,32.407 C34.9483325,32.9903363 34.862,33.5666638 34.862,34.136 C34.862,34.5653355 34.9553324,35.0693304 35.142,35.648 C35.3286676,36.2640031 35.5153324,36.572 35.702,36.572 C35.9260011,36.572 36.1126659,36.2873362 36.262,35.718 C36.3926673,35.2233309 36.458,34.6960028 36.458,34.136 Z"/>
  </g>
</svg>
