<svg xmlns="http://www.w3.org/2000/svg" width="64" height="64" viewBox="0 0 64 64">
  <g fill="none" fill-rule="evenodd">
    <path fill="#22BA8E" d="M18,31.4978665 C18,22.9386312 24.9377042,16 33.5,16 L33.5,16 C42.0604136,16 49,22.9387041 49,31.4978665 L49,52.9988612 C49,54.1040596 48.1056623,55 47.0017862,55 L19.9982138,55 C18.8946308,55 18,54.1121541 18,52.9988612 L18,31.4978665 Z"/>
    <rect width="31" height="2" x="18" y="31" fill="#80D25B"/>
    <rect width="31" height="2" x="18" y="35" fill="#80D25B"/>
    <polyline stroke="#979797" stroke-linecap="round" stroke-width="2" points="15.086 6.049 23.893 6.049 34.24 12.032 45.01 5.991 55.091 5.991"/>
    <rect width="31" height="2" x="18" y="39" fill="#80D25B"/>
    <circle cx="34" cy="16" r="8" fill="#FCC24C"/>
    <circle cx="34" cy="16" r="4" fill="#FFDD95"/>
    <rect width="9" height="22" x="29" y="42" fill="#595959" rx="4"/>
    <path fill="#D8D8D8" d="M10,6 C10,4.8954305 10.9019504,4 12.0085302,4 L22,4 L22,8 L12.0085302,8 C10.8992496,8 10,7.11227036 10,6 L10,6 Z"/>
    <path fill="#D8D8D8" d="M47,6 C47,4.8954305 47.9019504,4 49.0085302,4 L59,4 L59,8 L49.0085302,8 C47.8992496,8 47,7.11227036 47,6 L47,6 Z" transform="matrix(-1 0 0 1 106 0)"/>
  </g>
</svg>
