<svg xmlns="http://www.w3.org/2000/svg" width="64" height="64" viewBox="0 0 64 64">
  <g fill="none" fill-rule="evenodd" transform="rotate(45 21.914 61.763)">
    <path fill="#FFAF40" d="M10,63.5836779 C11.7639252,62.8129974 13,61.0548275 13,59.0092102 L13,15 L3,15 L3,59.0092102 C3,61.0570126 4.23409522,62.8152363 6,63.5849734 L6,68 L10,68 L10,63.5836779 Z"/>
    <path fill="#9F5757" d="M13,12 L13,4.99478281 C13,2.24565156 10.7614237,8.18545232e-12 8,8.18545232e-12 C5.24419519,8.18545232e-12 3,2.23624043 3,4.99478281 L3,12 L-5.45696821e-12,12 L-5.45696821e-12,15 L16,15 L16,12 L13,12 Z"/>
    <path stroke="#979797" stroke-linecap="square" stroke-width="2" d="M4 40L6 40M4 34L6 34M4 28L6 28M4 58L6 58M4 52L6 52M4 46L6 46"/>
  </g>
</svg>
