<svg xmlns="http://www.w3.org/2000/svg" width="64" height="64" viewBox="0 0 64 64">
  <g fill="none" fill-rule="evenodd">
    <g transform="matrix(-1 0 0 1 58 7)">
      <path fill="#FF78C7" d="M13.854166,9.15471461 C13.854166,9.15471461 13.3737488,3.17838432 7.98349716,1.22174808 C7.98349716,1.22174808 1.94027333,5.87008943 6.10667708,14.3024771 C10.2730808,22.7348648 13.854166,9.15471461 13.854166,9.15471461 Z" transform="rotate(-34 9.248 9.142)"/>
      <path fill="#FFDD95" d="M9.2126724,10.9329665 C9.2126724,10.9329665 8.73225511,4.95663624 3.34200351,3 C3.34200351,3 -2.70122032,7.64834135 1.46518343,16.080729"/>
    </g>
    <path fill="#FF78C7" d="M20.854166,16.1547146 C20.854166,16.1547146 20.3737488,10.1783843 14.9834972,8.22174808 C14.9834972,8.22174808 8.94027333,12.8700894 13.1066771,21.3024771 C17.2730808,29.7348648 20.854166,16.1547146 20.854166,16.1547146 Z" transform="rotate(-34 16.248 16.142)"/>
    <path fill="#FFDD95" d="M32,59 C48.0162577,59 61,46.1502645 61,34 C61,21.8497355 48.0162577,12 32,12 C15.9837423,12 3,21.8497355 3,34 C3,46.1502645 15.9837423,59 32,59 Z"/>
    <path stroke="#5F5662" stroke-linecap="round" stroke-width="2" d="M25.0207634,32.0273485 C24.109896,30.7973597 22.6480647,30 21,30 C19.3519353,30 17.890104,30.7973597 16.9792366,32.0273485"/>
    <circle cx="32" cy="51" r="3" fill="#E43535"/>
    <path stroke="#5F5662" stroke-linecap="round" stroke-width="2" d="M47.0207634,32.0273485 C46.109896,30.7973597 44.6480647,30 43,30 C41.3519353,30 39.890104,30.7973597 38.9792366,32.0273485"/>
    <ellipse cx="32" cy="45" fill="#FF78C7" rx="12" ry="7"/>
    <ellipse cx="26" cy="45" fill="#5F5662" rx="2" ry="3"/>
    <ellipse cx="38" cy="45" fill="#5F5662" rx="2" ry="3"/>
    <path fill="#FFDD95" d="M16.2126724,17.9329665 C16.2126724,17.9329665 15.7322551,11.9566362 10.3420035,10 C10.3420035,10 4.29877968,14.6483413 8.46518343,23.080729"/>
  </g>
</svg>
