<svg xmlns="http://www.w3.org/2000/svg" width="64" height="64" viewBox="0 0 64 64">
  <g fill="none" fill-rule="evenodd">
    <path fill="#E43535" d="M6,8.99668583 C6,6.23709245 8.23993443,4 11.0086136,4 L17.9913864,4 C20.7575673,4 23,6.24157855 23,8.99668583 L23,20 L6,20 L6,8.99668583 Z"/>
    <path fill="#ECECEC" d="M6,24.9966858 C6,22.2370924 8.23993443,20 11.0086136,20 L17.9913864,20 C20.7575673,20 23,22.2415785 23,24.9966858 L23,36 L6,36 L6,24.9966858 Z" transform="matrix(1 0 0 -1 0 56)"/>
    <g transform="rotate(-90 34.5 25.5)">
      <path fill="#E43535" d="M0,4.99668583 C0,2.23709245 2.23993443,0 5.00861359,0 L11.9913864,0 C14.7575673,0 17,2.24157855 17,4.99668583 L17,16 L0,16 L0,4.99668583 Z"/>
      <path fill="#ECECEC" d="M0,20.9966858 C0,18.2370924 2.23993443,16 5.00861359,16 L11.9913864,16 C14.7575673,16 17,18.2415785 17,20.9966858 L17,32 L0,32 L0,20.9966858 Z" transform="matrix(1 0 0 -1 0 48)"/>
    </g>
    <g transform="rotate(45 17.05 60.542)">
      <path fill="#E43535" d="M0,4.99668583 C0,2.23709245 2.23993443,0 5.00861359,0 L11.9913864,0 C14.7575673,0 17,2.24157855 17,4.99668583 L17,16 L0,16 L0,4.99668583 Z"/>
      <path fill="#ECECEC" d="M0,20.9966858 C0,18.2370924 2.23993443,16 5.00861359,16 L11.9913864,16 C14.7575673,16 17,18.2415785 17,20.9966858 L17,32 L0,32 L0,20.9966858 Z" transform="matrix(1 0 0 -1 0 48)"/>
    </g>
  </g>
</svg>
