<svg xmlns="http://www.w3.org/2000/svg" width="64" height="64" viewBox="0 0 64 64">
  <path fill="#80D25B" fill-rule="evenodd" d="M37.6875,49 L32,62 L26.3125,49 L6,49 L6,5 L58,5 L58,49 L37.6875,49 Z M32,41.9963364 C32,41.9963364 45.5,30.9216353 45.5,23.4657912 C45.5,16.0099471 39.4558441,9.96579122 32,9.96579122 C24.5441559,9.96579122 18.5,16.0099471 18.5,23.4657912 C18.5,30.9216353 32,41.9963364 32,41.9963364 Z M32,24 C29.790861,24 28,22.209139 28,20 C28,17.790861 29.790861,16 32,16 C34.209139,16 36,17.790861 36,20 C36,22.209139 34.209139,24 32,24 Z"/>
</svg>
