<svg xmlns="http://www.w3.org/2000/svg" width="64" height="64" viewBox="0 0 64 64">
  <path fill="#E43535" fill-rule="evenodd" d="M37.6875,49 L32,62 L26.3125,49 L6,49 L6,5 L58,5 L58,49 L37.6875,49 Z M31.1984144,31.1805068 C31.5613459,31.7973037 32.0734094,32.206126 32.6864337,32.5365529 C33.3014378,32.872163 34.03192,33.1060534 34.9247316,33.1650119 C35.8445981,33.22721 36.7030962,33.0691234 37.4553543,32.8559656 C38.2142112,32.6428078 38.8826651,32.3220994 39.434981,31.9735314 C41.7135312,30.5358503 43.231245,28.0129437 43.7657442,24.9270154 C43.9082773,24.1028918 44,23.3208815 44,22.3853198 C44,21.4529976 43.8917804,20.6016623 43.6641233,19.8468636 C43.2279456,18.3955767 42.5396954,17.2338994 41.5947536,16.2354918 C40.6768667,15.2655916 39.5913715,14.4822854 38.231368,13.893996 C36.9432909,13.3374534 35.2315737,12.9247437 33.3496087,13.0115617 C32.7055701,13.040717 32.112342,13.0731118 31.5389102,13.1547467 C29.8093764,13.3983556 28.3893242,13.9043623 27.1296218,14.6241746 C25.4911508,15.5610321 24.1450047,16.8717256 23.225798,18.5115501 C22.7830215,19.3019831 22.3039519,20.7759463 22.0894923,21.830073 C21.8671143,22.9204818 22.0769547,24.917297 22.5223707,25.9804942 C23.0997618,27.3566251 23.5537562,27.9339004 24.6979804,28.7742214 C24.8774665,28.9057442 25.3895299,29.2063679 25.6211463,29.2011848 C26.1813806,29.1908184 26.1945781,28.5506973 26.3186347,28.085508 C26.4215753,27.7019536 26.66177,27.1713269 26.4539092,26.815632 C26.3074168,26.5655442 26.0856986,26.3841333 25.9365668,26.1651445 C25.463436,25.4718959 25.1711111,24.5829827 25.1711111,23.4368548 C25.1711111,21.9492858 25.5465803,20.7539179 26.1160529,19.7146928 C27.2022081,17.7314834 29.0472201,16.2938024 31.6609871,15.86036 C33.1001757,15.6225822 34.7208301,15.7450346 35.8907894,16.1143352 C37.0706469,16.4868754 38.0406639,17.149025 38.7249549,17.9809234 C39.4448791,18.854935 39.8982136,19.9822738 39.9958752,21.3823769 C40.0493251,22.1423588 39.9932357,22.9114113 39.91735,23.5806877 C39.6804547,25.6571941 39.0568723,27.4013299 38.0274664,28.6932344 C37.3840878,29.5018085 36.4206695,30.3596226 35.0349308,30.4056233 C34.2503388,30.432187 33.6815261,30.2475367 33.2017965,29.909335 C32.7385639,29.5834433 32.3980681,29.1480573 32.2456369,28.5176546 C32.0793482,27.830237 32.2806103,27.1771579 32.4587767,26.5409241 C32.8190687,25.2561466 33.2149941,24.257739 33.5165572,22.9295523 C33.649852,22.3393192 33.7732488,21.5359282 33.6063003,20.8640602 C33.4499098,20.2323617 33.1153528,19.7866093 32.6277048,19.5054224 C32.1539142,19.2333062 31.3732814,19.1244596 30.6698541,19.3622374 C29.5625829,19.7347776 28.8439784,20.7597489 28.5325172,21.9136515 C28.3563304,22.5654348 28.2929823,23.274233 28.3754668,24.0342149 C28.4460735,24.693125 28.6090627,25.259386 28.8584957,25.8897888 C28.8934691,25.975311 28.7944878,26.2253988 28.7575347,26.3757107 C28.2058788,28.6426985 27.6845771,30.849432 27.1375403,33.1008702 C26.8504944,34.2839282 26.5410128,35.4669861 26.4737055,36.8904134 C26.4143167,38.1376131 26.3060971,39.4217428 26.4644672,40.5348279 C26.4941616,40.7382673 26.5073591,40.8801565 26.6558311,40.9106076 C26.8518142,40.9481855 26.7139002,41.2403866 27.361898,40.5121516 C28.3378539,39.4185033 29.0821935,38.0669924 29.668163,36.668833 C30.0225162,35.8246247 30.2349961,34.8935982 30.4778303,33.9742339 C30.7246237,33.0425596 30.9621789,32.0888568 31.1984144,31.1805068 Z"/>
</svg>
