<svg xmlns="http://www.w3.org/2000/svg" width="64" height="64" viewBox="0 0 64 64">
  <g fill="none" fill-rule="evenodd">
    <rect width="58" height="58" x="3" y="3" fill="#5B68C0" rx="6"/>
    <path fill="#FFF" d="M31.1984144,37.1805068 C30.9621789,38.0888568 30.7246237,39.0425596 30.4778303,39.9742339 C30.2349961,40.8935982 30.0225162,41.8246247 29.668163,42.668833 C29.0821935,44.0669924 28.3378539,45.4185033 27.361898,46.5121516 C26.7139002,47.2403866 26.8518142,46.9481855 26.6558311,46.9106076 C26.5073591,46.8801565 26.4941616,46.7382673 26.4644672,46.5348279 C26.3060971,45.4217428 26.4143167,44.1376131 26.4737055,42.8904134 C26.5410128,41.4669861 26.8504944,40.2839282 27.1375403,39.1008702 C27.6845771,36.849432 28.2058788,34.6426985 28.7575347,32.3757107 C28.7944878,32.2253988 28.8934691,31.975311 28.8584957,31.8897888 C28.6090627,31.259386 28.4460735,30.693125 28.3754668,30.0342149 C28.2929823,29.274233 28.3563304,28.5654348 28.5325172,27.9136515 C28.8439784,26.7597489 29.5625829,25.7347776 30.6698541,25.3622374 C31.3732814,25.1244596 32.1539142,25.2333062 32.6277048,25.5054224 C33.1153528,25.7866093 33.4499098,26.2323617 33.6063003,26.8640602 C33.7732488,27.5359282 33.649852,28.3393192 33.5165572,28.9295523 C33.2149941,30.257739 32.8190687,31.2561466 32.4587767,32.5409241 C32.2806103,33.1771579 32.0793482,33.830237 32.2456369,34.5176546 C32.3980681,35.1480573 32.7385639,35.5834433 33.2017965,35.909335 C33.6815261,36.2475367 34.2503388,36.432187 35.0349308,36.4056233 C36.4206695,36.3596226 37.3840878,35.5018085 38.0274664,34.6932344 C39.0568723,33.4013299 39.6804547,31.6571941 39.91735,29.5806877 C39.9932357,28.9114113 40.0493251,28.1423588 39.9958752,27.3823769 C39.8982136,25.9822738 39.4448791,24.854935 38.7249549,23.9809234 C38.0406639,23.149025 37.0706469,22.4868754 35.8907894,22.1143352 C34.7208301,21.7450346 33.1001757,21.6225822 31.6609871,21.86036 C29.0472201,22.2938024 27.2022081,23.7314834 26.1160529,25.7146928 C25.5465803,26.7539179 25.1711111,27.9492858 25.1711111,29.4368548 C25.1711111,30.5829827 25.463436,31.4718959 25.9365668,32.1651445 C26.0856986,32.3841333 26.3074168,32.5655442 26.4539092,32.815632 C26.66177,33.1713269 26.4215753,33.7019536 26.3186347,34.085508 C26.1945781,34.5506973 26.1813806,35.1908184 25.6211463,35.2011848 C25.3895299,35.2063679 24.8774665,34.9057442 24.6979804,34.7742214 C23.5537562,33.9339004 23.0997618,33.3566251 22.5223707,31.9804942 C22.0769547,30.917297 21.8671143,28.9204818 22.0894923,27.830073 C22.3039519,26.7759463 22.7830215,25.3019831 23.225798,24.5115501 C24.1450047,22.8717256 25.4911508,21.5610321 27.1296218,20.6241746 C28.3893242,19.9043623 29.8093764,19.3983556 31.5389102,19.1547467 C32.112342,19.0731118 32.7055701,19.040717 33.3496087,19.0115617 C35.2315737,18.9247437 36.9432909,19.3374534 38.231368,19.893996 C39.5913715,20.4822854 40.6768667,21.2655916 41.5947536,22.2354918 C42.5396954,23.2338994 43.2279456,24.3955767 43.6641233,25.8468636 C43.8917804,26.6016623 44,27.4529976 44,28.3853198 C44,29.3208815 43.9082773,30.1028918 43.7657442,30.9270154 C43.231245,34.0129437 41.7135312,36.5358503 39.434981,37.9735314 C38.8826651,38.3220994 38.2142112,38.6428078 37.4553543,38.8559656 C36.7030962,39.0691234 35.8445981,39.22721 34.9247316,39.1650119 C34.03192,39.1060534 33.3014378,38.872163 32.6864337,38.5365529 C32.0734094,38.206126 31.5613459,37.7973037 31.1984144,37.1805068 L31.1984144,37.1805068 Z"/>
  </g>
</svg>
