<svg xmlns="http://www.w3.org/2000/svg" width="64" height="64" viewBox="0 0 64 64">
  <path fill="#E43535" fill-rule="evenodd" d="M26.978719,41.7117097 C26.5169861,43.4959688 26.0526737,45.3693135 25.5703046,47.1993881 C25.0956742,49.0052823 24.6803725,50.8340842 23.9877731,52.4923506 C22.8424691,55.2387351 21.3876235,57.8934886 19.4800733,60.0417263 C18.2135321,61.4721879 18.4830913,60.8982216 18.1000335,60.8244077 C17.8098383,60.764593 17.7840431,60.4858821 17.7260041,60.0862692 C17.4164625,57.8998519 17.6279826,55.3774542 17.7440607,52.9275978 C17.8756159,50.1315799 18.4805118,47.8077161 19.041556,45.4838523 C20.1107643,41.0613842 21.1296722,36.7267292 22.2079088,32.2737174 C22.2801352,31.978462 22.4735987,31.4872181 22.4052416,31.3192279 C21.9177135,30.0809369 21.5991436,28.9686384 21.4611396,27.6743506 C21.29992,26.181529 21.4237367,24.789247 21.7681017,23.5089584 C22.3768669,21.242364 23.781412,19.2290274 25.9456239,18.4972521 C27.3205046,18.0301886 28.8462868,18.2439942 29.7723321,18.7785084 C30.7254624,19.3308396 31.3793691,20.2064247 31.6850414,21.4472611 C32.0113499,22.7670019 31.7701654,24.3450912 31.5096345,25.5044778 C30.9202157,28.1134158 30.1463616,30.0745736 29.4421544,32.5982439 C29.0939201,33.8479888 28.7005443,35.1308227 29.025563,36.4811072 C29.3234968,37.7193983 29.9890113,38.5746209 30.8944205,39.2147652 C31.8320737,39.8790899 32.943844,40.2417959 34.4773648,40.1896171 C37.185854,40.0992588 39.0688988,38.4142666 40.3264116,36.8259961 C42.3384322,34.2883266 43.5572523,30.8623456 44.020275,26.7834938 C44.168597,25.4688435 44.2782263,23.9582048 44.173756,22.4653832 C43.982872,19.7151808 43.0968091,17.5007651 41.6896845,15.7839566 C40.3522068,14.1498706 38.4562644,12.8492195 36.1501793,12.1174442 C33.8634406,11.3920322 30.695798,11.1515008 27.8828385,11.6185644 C22.774112,12.469969 19.1679521,15.2939853 17.0450125,19.1895752 C15.9319524,21.2309101 15.1980809,23.5789543 15.1980809,26.5009649 C15.1980809,28.7522875 15.7694431,30.4983669 16.6941987,31.8601053 C16.9856837,32.2902619 17.419042,32.6466047 17.705368,33.1378486 C18.1116414,33.8365349 17.6421699,34.8788375 17.4409678,35.6322479 C17.1984936,36.5460125 17.1726984,37.8033933 16.077695,37.8237558 C15.6249903,37.833937 14.6241391,37.2434262 14.2733253,36.9850777 C12.0368871,35.3344471 11.1495344,34.2005136 10.0209973,31.4973993 C9.15041145,29.4089762 8.7402688,25.4866607 9.17491682,23.3447862 C9.59408777,21.2741803 10.5304512,18.3788954 11.395878,16.8262592 C13.1925091,13.6051752 15.8236129,11.0305988 19.0260789,9.19034306 C21.4882245,7.77642593 24.2637811,6.78248419 27.6442335,6.30396678 C28.7650321,6.14361254 29.9245234,6.0799799 31.183326,6.02271053 C34.8617123,5.85217507 38.2073413,6.66285483 40.7249465,7.75606349 C43.3831351,8.91163212 45.504785,10.4502692 47.2988366,12.3554303 C49.1457683,14.3165881 50.4909846,16.5984543 51.3435138,19.4491963 C51.7884799,20.9318367 52,22.6041023 52,24.4354496 C52,26.27316 51.8207238,27.8092518 51.5421364,29.428066 C50.4974334,35.4897108 47.5309929,40.4454203 43.0774628,43.2694366 C41.9979364,43.9541238 40.6914128,44.5840868 39.2081925,45.0027896 C37.7378698,45.4214923 36.0598963,45.7320195 34.2619754,45.6098449 C32.5169345,45.4940335 31.0891738,45.0346059 29.8871205,44.3753718 C28.6889365,43.7263189 27.6880852,42.9232751 26.978719,41.7117097 L26.978719,41.7117097 Z"/>
</svg>
