<svg xmlns="http://www.w3.org/2000/svg" width="64" height="64" viewBox="0 0 64 64">
  <g fill="none" fill-rule="evenodd">
    <rect width="24" height="5" x="6" y="16" fill="#979797"/>
    <polygon fill="#979797" points="20 26 45 26 41.875 31 20 31"/>
    <path stroke="#80D25B" stroke-linecap="round" stroke-width="2" d="M4.97899168,50.5907172 L4.97899168,54.0383655 C4.97899168,55.6924488 6.32216886,57.0333482 7.97673214,57.0333482 L12.0179331,57.0333482 C13.6735395,57.0333482 15.0156736,58.3750865 15.0156736,60.0301582 L15.0156736,61.8964536"/>
    <path fill="#595959" d="M6.58954123,26.7821236 C6.58954123,26.7821236 8.54317757,28.9043614 7.5663594,31.5876006 C6.58954123,34.2708399 -1.3510834,44.2807934 0.406854776,52.1883372 L14.5155213,48.0523392 L13.6601364,43.8515955 L22.3996109,26"/>
    <circle cx="20" cy="29" r="6" stroke="#595959" stroke-linecap="round" stroke-width="2"/>
    <path fill="#595959" d="M3,20 L62,20 L62,28 L7.00892456,28 C4.79485666,28 3,26.2046438 3,24 L3,20 Z"/>
    <rect width="2" height="4" x="62" y="22" fill="#979797"/>
  </g>
</svg>
