<svg xmlns="http://www.w3.org/2000/svg" width="64" height="64" viewBox="0 0 64 64">
  <g fill="none" fill-rule="evenodd">
    <polygon fill="#D8D8D8" points="11 23 15 23 15 41 11 41"/>
    <polygon fill="#D8D8D8" points="51 23 55 23 55 41 51 41"/>
    <polygon fill="#5B68C0" points="6 29 33 18 60 29 60 38 33 33 6 38"/>
    <path fill="#5EA7FF" d="M27,9.99825958 C27,6.68551229 29.6930342,4 33,4 L33,4 C36.3137085,4 39,6.6778684 39,9.99825958 L39,58 L27,58 L27,9.99825958 Z"/>
    <path fill="#B4DFFB" d="M37,10 C37,7.790861 35.209139,6 33,6 C30.790861,6 29,7.790861 29,10 L37,10 Z"/>
    <path fill="#5B68C0" d="M21,53.6367058 L33.5,50 L46,53.6367058 L46,61 C46,61 39.75,58.5050983 33.5,58.5050983 C27.25,58.5050983 21,61 21,61 L21,53.6367058 Z"/>
  </g>
</svg>
