<svg xmlns="http://www.w3.org/2000/svg" width="64" height="64" viewBox="0 0 64 64">
  <g fill="none" fill-rule="evenodd">
    <rect width="58" height="16" x="3" y="7" fill="#595959" rx="6"/>
    <rect width="58" height="16" x="3" y="28" fill="#595959" rx="6"/>
    <path stroke="#979797" stroke-linecap="square" stroke-width="2" d="M44 11L44 19M47 11L47 19M50 11L50 19M53 11L53 19M44 32L44 40M47 32L47 40M50 32L50 40M53 32L53 40"/>
    <circle cx="11" cy="36" r="3" fill="#ED9111"/>
    <path fill="#D8D8D8" d="M30.1074028,54.3955983 C31.7078611,55.6473354 35.367911,63.043357 37.6176718,62.4405354 C40.1581737,61.75981 40.7690852,55.8018283 38.982181,49.1330108 C37.1952767,42.4641934 36.1392519,37.2975934 33.2909227,36.4474491 C32.194988,36.1203441 29.9663927,35.4510575 27.602784,36.8648292 C25.2391754,38.2786009 17.767385,38.2786009 15.4037764,36.8648292 C13.0401678,35.4510575 10.8115725,36.1203441 9.71563778,36.4474491 C6.86730856,37.2975934 5.81128371,42.4641934 4.02437946,49.1330108 C2.2374752,55.8018283 2.84838679,61.75981 5.38888868,62.4405354 C7.63864944,63.043357 11.2986993,55.6473354 12.8991577,54.3955983 C14.0076121,53.5286631 17.1630894,53.4411904 19.230341,53.4693382 L24.5878784,53.4654589 C26.5932201,53.4747841 29.1361419,53.6359638 30.1074028,54.3955983 Z"/>
    <path fill="#595959" d="M14,44 L14,41 L11,41 L11,44 L8,44 L8,47 L11,47 L11,50 L14,50 L14,47 L17,47 L17,44 L14,44 Z"/>
    <circle cx="30.5" cy="45.5" r="3.5" fill="#595959"/>
    <circle cx="11" cy="15" r="3" fill="#80D25B"/>
  </g>
</svg>
