<svg xmlns="http://www.w3.org/2000/svg" width="64" height="64" viewBox="0 0 64 64">
  <g fill="none" fill-rule="evenodd">
    <polygon fill="#FF78C7" points="14 4 50 4 50 56 14 56"/>
    <polygon fill="#E43535" points="9 9 45 9 45 61 9 61"/>
    <path fill="#FFF" d="M27,29.3369209 C26.0046326,27.9234484 24.3601578,27 22.5,27 C19.4624339,27 17,29.4624339 17,32.5 C17,35.8738479 20.0427104,36.3998739 22.2816714,38.7548128 C24.9930341,41.6066239 26.9921985,44.2075357 27,44.2075357 C27.007802,44.2075357 29.0073001,41.606334 31.7187818,38.7543361 C33.9575652,36.399533 37,35.8737552 37,32.5 C37,29.4624339 34.5375661,27 31.5,27 C29.6398422,27 27.9953674,27.9234484 27,29.3369209 Z"/>
  </g>
</svg>
