<svg xmlns="http://www.w3.org/2000/svg" width="64" height="64" viewBox="0 0 64 64">
  <g fill="none" fill-rule="evenodd">
    <rect width="56" height="56" x="4" y="4" fill="#80D25B" rx="4"/>
    <path fill="#22BA8E" d="M47.5044647,25.529591 C50.2658885,25.529591 52.5044647,23.1876959 52.5044647,20.2988218 C52.5044647,17.4099477 47.5044647,8.52959101 47.5044647,8.52959101 C47.5044647,8.52959101 42.5044647,17.4099477 42.5044647,20.2988218 C42.5044647,23.1876959 44.743041,25.529591 47.5044647,25.529591 Z" transform="rotate(75 47.504 17.03)"/>
    <path fill="#22BA8E" d="M17.5044647,25.529591 C20.2658885,25.529591 22.5044647,23.1876959 22.5044647,20.2988218 C22.5044647,17.4099477 17.5044647,8.52959101 17.5044647,8.52959101 C17.5044647,8.52959101 12.5044647,17.4099477 12.5044647,20.2988218 C12.5044647,23.1876959 14.743041,25.529591 17.5044647,25.529591 Z" transform="scale(-1 1) rotate(75 0 -5.783)"/>
    <path stroke="#22BA8E" stroke-linecap="round" stroke-width="2" d="M44,18 C37.372583,18 32,23.372583 32,30"/>
    <path stroke="#22BA8E" stroke-linecap="round" stroke-width="2" d="M32,18 C25.372583,18 20,23.372583 20,30" transform="matrix(-1 0 0 1 52 0)"/>
    <rect width="34" height="26" x="15" y="29" fill="#FFF" rx="7"/>
    <rect width="4" height="8" x="22" y="34" fill="#D8D8D8"/>
    <rect width="4" height="8" x="38" y="34" fill="#D8D8D8"/>
    <circle cx="32" cy="49" r="3" fill="#D8D8D8"/>
  </g>
</svg>
