<svg xmlns="http://www.w3.org/2000/svg" width="64" height="64" viewBox="0 0 64 64">
  <g fill="none" fill-rule="evenodd">
    <path fill="#D8D8D8" d="M6,15 L36,15 L36,60.9986107 C36,62.1039475 35.1021596,63 34.008383,63 L7.99161703,63 C6.89167732,63 6,62.1050616 6,60.9986107 L6,15 Z"/>
    <rect width="24" height="9" x="9" y="20" fill="#22BA8E"/>
    <polygon fill="#ECECEC" points="11 3 16 8 21 3 26 8 31 3 31 15 11 15"/>
    <circle cx="12" cy="36" r="3" fill="#868686"/>
    <circle cx="12" cy="45" r="3" fill="#868686"/>
    <circle cx="21" cy="36" r="3" fill="#868686"/>
    <circle cx="21" cy="45" r="3" fill="#868686"/>
    <circle cx="30" cy="36" r="3" fill="#868686"/>
    <circle cx="30" cy="45" r="3" fill="#868686"/>
    <circle cx="12" cy="54" r="3" fill="#868686"/>
    <circle cx="21" cy="54" r="3" fill="#868686"/>
    <circle cx="30" cy="54" r="3" fill="#868686"/>
    <rect width="20" height="31" x="42" y="20" fill="#FFAF40"/>
    <rect width="5" height="31" x="47" y="20" fill="#BD7575"/>
  </g>
</svg>
