<svg xmlns="http://www.w3.org/2000/svg" width="64" height="64" viewBox="0 0 64 64">
  <g fill="none" fill-rule="evenodd">
    <path fill="#B4DFFB" stroke="#4796E7" stroke-linecap="round" stroke-width="4" d="M22.1904762,37 C16.0101468,37 11,31.8832543 11,25.5714286 C11,19.2596029 16.0101468,14.1428571 22.1904762,14.1428571 C23.8098609,14.1428571 25.3489058,14.4941511 26.7385326,15.1261908 C27.3714992,9.42764354 32.1080275,5 37.8571429,5 C44.0374722,5 49.047619,10.1167457 49.047619,16.4285714 C49.047619,17.2123456 48.9703648,17.9776921 48.8232088,18.7171021 C48.8977895,18.7152282 48.9725965,18.7142857 49.047619,18.7142857 C53.9918825,18.7142857 58,22.8076823 58,27.8571429 C58,32.9066034 53.9918825,37 49.047619,37 L22.1904762,37 Z"/>
    <path fill="#4796E7" d="M39.5134088,27.6740155 C39.5886357,27.3572707 39.7454979,27.140601 39.984,27.024 C40.2240012,26.9066661 40.4666654,26.885333 40.712,26.96 C41.2880029,27.1626677 41.4960008,27.5733302 41.336,28.192 C40.8986645,29.258672 40.1626718,29.9039989 39.128,30.128 C38.9146656,30.128 38.6853346,30.1120002 38.44,30.08 C38.1946654,30.0479998 37.938668,29.994667 37.672,29.92 C37.5226659,29.8879998 37.3733341,29.8586668 37.224,29.832 C37.0746659,29.8053332 36.9306674,29.792 36.792,29.792 C36.599999,29.792 36.4240008,29.8186664 36.264,29.872 L35.64,30.064 C35.1919978,30.1280003 34.7706686,30.1493334 34.376,30.128 C33.9279978,29.9893326 33.6480006,29.8133344 33.536,29.6 C33.4239994,29.3866656 33.3999997,29.1520013 33.464,28.896 C33.4853334,28.7999995 33.5226664,28.7173337 33.576,28.648 C33.6293336,28.5786663 33.6879997,28.5013338 33.752,28.416 C33.8053336,28.3306662 33.8666663,28.2480004 33.936,28.168 C34.0053337,28.0879996 34.0613331,28.0000005 34.104,27.904 L34.088,27.936 C34.2053339,27.3386637 34.3199994,26.7760026 34.432,26.248 C34.5440006,25.7199974 34.6533328,25.1626696 34.76,24.576 C34.6426661,24.5866667 34.5333338,24.5893334 34.432,24.584 C34.3306662,24.5786666 34.2213339,24.576 34.104,24.576 L33.88,24.576 C33.687999,24.576 33.5360006,24.4880009 33.424,24.312 C33.3119994,24.1359991 33.256,23.9573342 33.256,23.776 C33.256,23.6373326 33.2719998,23.4853342 33.304,23.32 C33.3360002,23.1546658 33.3946662,23.0133339 33.48,22.896 C33.5440003,22.8533331 33.6506659,22.8106669 33.8,22.768 C33.9493341,22.7253331 34.0986659,22.6933334 34.248,22.672 C34.3973341,22.6506666 34.5306661,22.6373334 34.648,22.632 C34.7653339,22.6266666 34.824,22.6293333 34.824,22.64 C34.824,22.6293333 34.8559997,22.6213334 34.92,22.616 C34.9840003,22.6106666 35.0693328,22.608 35.176,22.608 L36.136,17.744 C36.2320005,17.3813315 36.4613315,17.1146675 36.824,16.944 C37.1866685,16.7733325 37.6613304,16.7146664 38.248,16.768 L38.328,16.768 L38.984,16.832 C39.9973384,17.0880013 40.5466662,17.7546613 40.632,18.832 C40.6533334,18.9706674 40.6426669,19.0986661 40.6,19.216 C40.525333,19.4400011 40.3813344,19.6053328 40.168,19.712 C39.9546656,19.8186672 39.7306678,19.8453336 39.496,19.792 C39.2933323,19.7279997 39.1333339,19.6160008 39.016,19.456 C38.8986661,19.2959992 38.84,19.0933346 38.84,18.848 C38.8720002,18.6879992 38.7386682,18.570667 38.44,18.496 C38.3226661,18.5066667 38.234667,18.5199999 38.176,18.536 C38.117333,18.5520001 38.0613336,18.5919997 38.008,18.656 C37.9653331,18.7840006 37.877334,19.1679968 37.744,19.808 C37.610666,20.4480032 37.4320011,21.3759939 37.208,22.592 C37.400001,22.5706666 37.5706659,22.56 37.72,22.56 L38.184,22.56 C38.6320022,22.5493333 39.026665,22.581333 39.368,22.656 C39.6026678,22.730667 39.7786661,22.8959987 39.896,23.152 C40.0133339,23.4080013 40.0506669,23.6746653 40.008,23.952 C39.8799994,24.5813365 39.5333362,24.7946677 38.968,24.592 C38.9253331,24.5706666 38.8826669,24.5573334 38.84,24.552 C38.7973331,24.5466666 38.7493336,24.5386667 38.696,24.528 C38.4399987,24.453333 38.1093354,24.4319998 37.704,24.464 L36.808,24.544 L36.152,27.744 C36.3226675,27.7226666 36.4826659,27.7066667 36.632,27.696 C36.7813341,27.6853333 36.9359992,27.68 37.096,27.68 C37.4160016,27.68 37.7173319,27.7119997 38,27.776 C38.2826681,27.8400003 38.5626653,27.9466659 38.84,28.096 L38.824,28.096 C39.1043367,28.1271485 39.3341375,27.9864884 39.5134088,27.6740155 L39.5134088,27.6740155 Z"/>
    <rect width="4" height="12" x="21" y="43" fill="#80D25B"/>
    <polygon fill="#80D25B" points="23 40 28 46 18 46"/>
    <rect width="4" height="12" x="33" y="43" fill="#80D25B"/>
    <polygon fill="#80D25B" points="35 40 40 46 30 46"/>
    <rect width="4" height="12" x="45" y="43" fill="#80D25B"/>
    <polygon fill="#80D25B" points="47 40 52 46 42 46"/>
  </g>
</svg>
