<svg xmlns="http://www.w3.org/2000/svg" width="64" height="64" viewBox="0 0 64 64">
  <g fill="none" fill-rule="evenodd">
    <path fill="#4796E7" d="M20.1904762,37 C14.0101468,37 9,31.8832543 9,25.5714286 C9,19.2596029 14.0101468,14.1428571 20.1904762,14.1428571 C21.8098609,14.1428571 23.3489058,14.4941511 24.7385326,15.1261908 C25.3714992,9.42764354 30.1080275,5 35.8571429,5 C42.0374722,5 47.047619,10.1167457 47.047619,16.4285714 C47.047619,17.2123456 46.9703648,17.9776921 46.8232088,18.7171021 C46.8977895,18.7152282 46.9725965,18.7142857 47.047619,18.7142857 C51.9918825,18.7142857 56,22.8076823 56,27.8571429 C56,32.9066034 51.9918825,37 47.047619,37 L20.1904762,37 Z"/>
    <path fill="#FFDD95" d="M37.5134088,27.6740155 C37.5886357,27.3572707 37.7454979,27.140601 37.984,27.024 C38.2240012,26.9066661 38.4666654,26.885333 38.712,26.96 C39.2880029,27.1626677 39.4960008,27.5733302 39.336,28.192 C38.8986645,29.258672 38.1626718,29.9039989 37.128,30.128 C36.9146656,30.128 36.6853346,30.1120002 36.44,30.08 C36.1946654,30.0479998 35.938668,29.994667 35.672,29.92 C35.5226659,29.8879998 35.3733341,29.8586668 35.224,29.832 C35.0746659,29.8053332 34.9306674,29.792 34.792,29.792 C34.599999,29.792 34.4240008,29.8186664 34.264,29.872 L33.64,30.064 C33.1919978,30.1280003 32.7706686,30.1493334 32.376,30.128 C31.9279978,29.9893326 31.6480006,29.8133344 31.536,29.6 C31.4239994,29.3866656 31.3999997,29.1520013 31.464,28.896 C31.4853334,28.7999995 31.5226664,28.7173337 31.576,28.648 C31.6293336,28.5786663 31.6879997,28.5013338 31.752,28.416 C31.8053336,28.3306662 31.8666663,28.2480004 31.936,28.168 C32.0053337,28.0879996 32.0613331,28.0000005 32.104,27.904 L32.088,27.936 C32.2053339,27.3386637 32.3199994,26.7760026 32.432,26.248 C32.5440006,25.7199974 32.6533328,25.1626696 32.76,24.576 C32.6426661,24.5866667 32.5333338,24.5893334 32.432,24.584 C32.3306662,24.5786666 32.2213339,24.576 32.104,24.576 L31.88,24.576 C31.687999,24.576 31.5360006,24.4880009 31.424,24.312 C31.3119994,24.1359991 31.256,23.9573342 31.256,23.776 C31.256,23.6373326 31.2719998,23.4853342 31.304,23.32 C31.3360002,23.1546658 31.3946662,23.0133339 31.48,22.896 C31.5440003,22.8533331 31.6506659,22.8106669 31.8,22.768 C31.9493341,22.7253331 32.0986659,22.6933334 32.248,22.672 C32.3973341,22.6506666 32.5306661,22.6373334 32.648,22.632 C32.7653339,22.6266666 32.824,22.6293333 32.824,22.64 C32.824,22.6293333 32.8559997,22.6213334 32.92,22.616 C32.9840003,22.6106666 33.0693328,22.608 33.176,22.608 L34.136,17.744 C34.2320005,17.3813315 34.4613315,17.1146675 34.824,16.944 C35.1866685,16.7733325 35.6613304,16.7146664 36.248,16.768 L36.328,16.768 L36.984,16.832 C37.9973384,17.0880013 38.5466662,17.7546613 38.632,18.832 C38.6533334,18.9706674 38.6426669,19.0986661 38.6,19.216 C38.525333,19.4400011 38.3813344,19.6053328 38.168,19.712 C37.9546656,19.8186672 37.7306678,19.8453336 37.496,19.792 C37.2933323,19.7279997 37.1333339,19.6160008 37.016,19.456 C36.8986661,19.2959992 36.84,19.0933346 36.84,18.848 C36.8720002,18.6879992 36.7386682,18.570667 36.44,18.496 C36.3226661,18.5066667 36.234667,18.5199999 36.176,18.536 C36.117333,18.5520001 36.0613336,18.5919997 36.008,18.656 C35.9653331,18.7840006 35.877334,19.1679968 35.744,19.808 C35.610666,20.4480032 35.4320011,21.3759939 35.208,22.592 C35.400001,22.5706666 35.5706659,22.56 35.72,22.56 L36.184,22.56 C36.6320022,22.5493333 37.026665,22.581333 37.368,22.656 C37.6026678,22.730667 37.7786661,22.8959987 37.896,23.152 C38.0133339,23.4080013 38.0506669,23.6746653 38.008,23.952 C37.8799994,24.5813365 37.5333362,24.7946677 36.968,24.592 C36.9253331,24.5706666 36.8826669,24.5573334 36.84,24.552 C36.7973331,24.5466666 36.7493336,24.5386667 36.696,24.528 C36.4399987,24.453333 36.1093354,24.4319998 35.704,24.464 L34.808,24.544 L34.152,27.744 C34.3226675,27.7226666 34.4826659,27.7066667 34.632,27.696 C34.7813341,27.6853333 34.9359992,27.68 35.096,27.68 C35.4160016,27.68 35.7173319,27.7119997 36,27.776 C36.2826681,27.8400003 36.5626653,27.9466659 36.84,28.096 L36.824,28.096 C37.1043367,28.1271485 37.3341375,27.9864884 37.5134088,27.6740155 L37.5134088,27.6740155 Z"/>
    <path fill="#E43535" d="M47,46 L47,55 L43,55 L43,46 L40,46 L45,40 L50,46 L47,46 Z M35,46 L35,55 L31,55 L31,46 L28,46 L33,40 L38,46 L35,46 Z M23,46 L23,55 L19,55 L19,46 L16,46 L21,40 L26,46 L23,46 Z" transform="matrix(1 0 0 -1 0 95)"/>
  </g>
</svg>
