<svg xmlns="http://www.w3.org/2000/svg" width="64" height="64" viewBox="0 0 64 64">
  <g fill="none" fill-rule="evenodd">
    <polygon fill="#ECECEC" points="10 3 39.105 3 51 14.753 51 55 10 55"/>
    <circle cx="50" cy="54" r="10" fill="#D650C7"/>
    <rect width="12" height="12" x="14" y="24" fill="#D650C7"/>
    <polygon fill="#D8D8D8" points="39 3 51 3 51 15" transform="rotate(-180 45 9)"/>
    <path stroke="#979797" stroke-linecap="square" stroke-width="2" d="M29 25L48.0262976 25M15 20L48.0262976 20M15 40L47.3447059 40M29 30L48.0262976 30M15 45L36 45M29 35L48.0262976 35"/>
    <path fill="#FFDD95" d="M52.5134088,57.6740155 C52.5886357,57.3572707 52.7454979,57.140601 52.984,57.024 C53.2240012,56.9066661 53.4666654,56.885333 53.712,56.96 C54.2880029,57.1626677 54.4960008,57.5733302 54.336,58.192 C53.8986645,59.258672 53.1626718,59.9039989 52.128,60.128 C51.9146656,60.128 51.6853346,60.1120002 51.44,60.08 C51.1946654,60.0479998 50.938668,59.994667 50.672,59.92 C50.5226659,59.8879998 50.3733341,59.8586668 50.224,59.832 C50.0746659,59.8053332 49.9306674,59.792 49.792,59.792 C49.599999,59.792 49.4240008,59.8186664 49.264,59.872 L48.64,60.064 C48.1919978,60.1280003 47.7706686,60.1493334 47.376,60.128 C46.9279978,59.9893326 46.6480006,59.8133344 46.536,59.6 C46.4239994,59.3866656 46.3999997,59.1520013 46.464,58.896 C46.4853334,58.7999995 46.5226664,58.7173337 46.576,58.648 C46.6293336,58.5786663 46.6879997,58.5013338 46.752,58.416 C46.8053336,58.3306662 46.8666663,58.2480004 46.936,58.168 C47.0053337,58.0879996 47.0613331,58.0000005 47.104,57.904 L47.088,57.936 C47.2053339,57.3386637 47.3199994,56.7760026 47.432,56.248 C47.5440006,55.7199974 47.6533328,55.1626696 47.76,54.576 C47.6426661,54.5866667 47.5333338,54.5893334 47.432,54.584 C47.3306662,54.5786666 47.2213339,54.576 47.104,54.576 L46.88,54.576 C46.687999,54.576 46.5360006,54.4880009 46.424,54.312 C46.3119994,54.1359991 46.256,53.9573342 46.256,53.776 C46.256,53.6373326 46.2719998,53.4853342 46.304,53.32 C46.3360002,53.1546658 46.3946662,53.0133339 46.48,52.896 C46.5440003,52.8533331 46.6506659,52.8106669 46.8,52.768 C46.9493341,52.7253331 47.0986659,52.6933334 47.248,52.672 C47.3973341,52.6506666 47.5306661,52.6373334 47.648,52.632 C47.7653339,52.6266666 47.824,52.6293333 47.824,52.64 C47.824,52.6293333 47.8559997,52.6213334 47.92,52.616 C47.9840003,52.6106666 48.0693328,52.608 48.176,52.608 L49.136,47.744 C49.2320005,47.3813315 49.4613315,47.1146675 49.824,46.944 C50.1866685,46.7733325 50.6613304,46.7146664 51.248,46.768 L51.328,46.768 L51.984,46.832 C52.9973384,47.0880013 53.5466662,47.7546613 53.632,48.832 C53.6533334,48.9706674 53.6426669,49.0986661 53.6,49.216 C53.525333,49.4400011 53.3813344,49.6053328 53.168,49.712 C52.9546656,49.8186672 52.7306678,49.8453336 52.496,49.792 C52.2933323,49.7279997 52.1333339,49.6160008 52.016,49.456 C51.8986661,49.2959992 51.84,49.0933346 51.84,48.848 C51.8720002,48.6879992 51.7386682,48.570667 51.44,48.496 C51.3226661,48.5066667 51.234667,48.5199999 51.176,48.536 C51.117333,48.5520001 51.0613336,48.5919997 51.008,48.656 C50.9653331,48.7840006 50.877334,49.1679968 50.744,49.808 C50.610666,50.4480032 50.4320011,51.3759939 50.208,52.592 C50.400001,52.5706666 50.5706659,52.56 50.72,52.56 L51.184,52.56 C51.6320022,52.5493333 52.026665,52.581333 52.368,52.656 C52.6026678,52.730667 52.7786661,52.8959987 52.896,53.152 C53.0133339,53.4080013 53.0506669,53.6746653 53.008,53.952 C52.8799994,54.5813365 52.5333362,54.7946677 51.968,54.592 C51.9253331,54.5706666 51.8826669,54.5573334 51.84,54.552 C51.7973331,54.5466666 51.7493336,54.5386667 51.696,54.528 C51.4399987,54.453333 51.1093354,54.4319998 50.704,54.464 L49.808,54.544 L49.152,57.744 C49.3226675,57.7226666 49.4826659,57.7066667 49.632,57.696 C49.7813341,57.6853333 49.9359992,57.68 50.096,57.68 C50.4160016,57.68 50.7173319,57.7119997 51,57.776 C51.2826681,57.8400003 51.5626653,57.9466659 51.84,58.096 L51.824,58.096 C52.1043367,58.1271485 52.3341375,57.9864884 52.5134088,57.6740155 L52.5134088,57.6740155 Z"/>
  </g>
</svg>
