<svg xmlns="http://www.w3.org/2000/svg" width="64" height="64" viewBox="0 0 64 64">
  <g fill="none" fill-rule="evenodd">
    <path fill="#D650C7" d="M2,16.0079379 C2,16.0079379 10.0454499,20.2992936 17.25,21.0079379 C24.4545501,21.7165822 39.9822361,15.7532571 47.75,16.0079379 C55.5177639,16.2626187 63,20.0079379 63,20.0079379 L63,51.0079379 C63,51.0079379 55.2322361,47.2532571 47.75,47.0079379 C40.4103585,46.7672939 25.2954499,52.7992936 17.25,52.0079379 C9.20455009,51.2165822 2,47.0079379 2,47.0079379 L2,16.0079379 Z"/>
    <circle cx="32" cy="33.986" r="11" fill="#FF78C7"/>
    <text fill="#5B68C0" font-family="MarkerFelt-Thin, Marker Felt" font-size="16" font-weight="300">
      <tspan x="27" y="39.986">£</tspan>
    </text>
    <circle cx="49" cy="13.986" r="11" fill="#FFAF40"/>
    <path fill="#FFDD95" d="M50.5134088,17.6596748 C50.5886357,17.34293 50.7454979,17.1262603 50.984,17.0096593 C51.2240012,16.8923254 51.4666654,16.8709923 51.712,16.9456593 C52.2880029,17.148327 52.4960008,17.5589896 52.336,18.1776593 C51.8986645,19.2443313 51.1626718,19.8896582 50.128,20.1136593 C49.9146656,20.1136593 49.6853346,20.0976595 49.44,20.0656593 C49.1946654,20.0336592 48.938668,19.9803264 48.672,19.9056593 C48.5226659,19.8736592 48.3733341,19.8443261 48.224,19.8176593 C48.0746659,19.7909925 47.9306674,19.7776593 47.792,19.7776593 C47.599999,19.7776593 47.4240008,19.8043257 47.264,19.8576593 L46.64,20.0496593 C46.1919978,20.1136596 45.7706686,20.1349928 45.376,20.1136593 C44.9279978,19.974992 44.6480006,19.7989937 44.536,19.5856593 C44.4239994,19.3723249 44.3999997,19.1376606 44.464,18.8816593 C44.4853334,18.7856588 44.5226664,18.702993 44.576,18.6336593 C44.6293336,18.5643256 44.6879997,18.4869931 44.752,18.4016593 C44.8053336,18.3163256 44.8666663,18.2336597 44.936,18.1536593 C45.0053337,18.0736589 45.0613331,17.9856598 45.104,17.8896593 L45.088,17.9216593 C45.2053339,17.324323 45.3199994,16.761662 45.432,16.2336593 C45.5440006,15.7056567 45.6533328,15.1483289 45.76,14.5616593 C45.6426661,14.572326 45.5333338,14.5749927 45.432,14.5696593 C45.3306662,14.564326 45.2213339,14.5616593 45.104,14.5616593 L44.88,14.5616593 C44.687999,14.5616593 44.5360006,14.4736602 44.424,14.2976593 C44.3119994,14.1216584 44.256,13.9429936 44.256,13.7616593 C44.256,13.622992 44.2719998,13.4709935 44.304,13.3056593 C44.3360002,13.1403252 44.3946662,12.9989932 44.48,12.8816593 C44.5440003,12.8389924 44.6506659,12.7963262 44.8,12.7536593 C44.9493341,12.7109924 45.0986659,12.6789928 45.248,12.6576593 C45.3973341,12.6363259 45.5306661,12.6229927 45.648,12.6176593 C45.7653339,12.612326 45.824,12.6149926 45.824,12.6256593 C45.824,12.6149926 45.8559997,12.6069927 45.92,12.6016593 C45.9840003,12.596326 46.0693328,12.5936593 46.176,12.5936593 L47.136,7.72965931 C47.2320005,7.36699083 47.4613315,7.10032683 47.824,6.92965931 C48.1866685,6.75899179 48.6613304,6.70032571 49.248,6.75365931 L49.328,6.75365931 L49.984,6.81765931 C50.9973384,7.07366059 51.5466662,7.74032059 51.632,8.81765931 C51.6533334,8.95632667 51.6426669,9.08432539 51.6,9.20165931 C51.525333,9.42566043 51.3813344,9.59099211 51.168,9.69765931 C50.9546656,9.80432651 50.7306678,9.83099291 50.496,9.77765931 C50.2933323,9.71365899 50.1333339,9.60166011 50.016,9.44165931 C49.8986661,9.28165851 49.84,9.07899387 49.84,8.83365931 C49.8720002,8.67365851 49.7386682,8.55632635 49.44,8.48165931 C49.3226661,8.49232603 49.234667,8.50565923 49.176,8.52165931 C49.117333,8.53765939 49.0613336,8.57765899 49.008,8.64165931 C48.9653331,8.76965995 48.877334,9.15365611 48.744,9.79365931 C48.610666,10.4336625 48.4320011,11.3616532 48.208,12.5776593 C48.400001,12.5563259 48.5706659,12.5456593 48.72,12.5456593 L49.184,12.5456593 C49.6320022,12.5349926 50.026665,12.5669923 50.368,12.6416593 C50.6026678,12.7163264 50.7786661,12.881658 50.896,13.1376593 C51.0133339,13.3936606 51.0506669,13.6603246 51.008,13.9376593 C50.8799994,14.5669958 50.5333362,14.780327 49.968,14.5776593 C49.9253331,14.5563259 49.8826669,14.5429927 49.84,14.5376593 C49.7973331,14.532326 49.7493336,14.524326 49.696,14.5136593 C49.4399987,14.4389923 49.1093354,14.4176592 48.704,14.4496593 L47.808,14.5296593 L47.152,17.7296593 C47.3226675,17.7083259 47.4826659,17.692326 47.632,17.6816593 C47.7813341,17.6709926 47.9359992,17.6656593 48.096,17.6656593 C48.4160016,17.6656593 48.7173319,17.697659 49,17.7616593 C49.2826681,17.8256596 49.5626653,17.9323252 49.84,18.0816593 L49.824,18.0816593 C50.1043367,18.1128078 50.3341375,17.9721477 50.5134088,17.6596748 L50.5134088,17.6596748 Z"/>
  </g>
</svg>
