<svg xmlns="http://www.w3.org/2000/svg" width="64" height="64" viewBox="0 0 64 64">
  <g fill="none" fill-rule="evenodd">
    <polygon fill="#5B68C0" points="5 51 60 51 60 56 5 56"/>
    <rect width="7" height="27" x="7" y="22" fill="#4796E7" rx="2"/>
    <rect width="7" height="27" x="52" y="22" fill="#4796E7" rx="2"/>
    <path fill="#5B68C0" d="M31.2696051,4.9887971 C32.2252758,4.44269954 33.778104,4.44463086 34.7303949,4.9887971 L59.2696051,19.0112029 C60.2252758,19.5573005 60.0976918,20 59.0069304,20 L6.99306965,20 C5.89232768,20 5.77810401,19.5553691 6.73039492,19.0112029 L31.2696051,4.9887971 Z"/>
    <circle cx="33" cy="12" r="3" fill="#FFAF40"/>
    <path fill="#D650C7" d="M37.2126416,42.638779 C37.353692,42.0448826 37.6478086,41.6386269 38.095,41.42 C38.5450022,41.1999989 38.9999977,41.1599993 39.46,41.3 C40.5400054,41.6800019 40.9300015,42.4499942 40.63,43.61 C39.8099959,45.61001 38.4300097,46.8199979 36.49,47.24 C36.089998,47.24 35.6600023,47.2100003 35.2,47.15 C34.7399977,47.0899997 34.2600025,46.9900007 33.76,46.85 C33.4799986,46.7899997 33.2000014,46.7350002 32.92,46.685 C32.6399986,46.6349998 32.3700013,46.61 32.11,46.61 C31.7499982,46.61 31.4200015,46.6599995 31.12,46.76 L29.95,47.12 C29.1099958,47.2400006 28.3200037,47.2800002 27.58,47.24 C26.7399958,46.9799987 26.215001,46.650002 26.005,46.25 C25.794999,45.849998 25.7499994,45.4100024 25.87,44.93 C25.9100002,44.7499991 25.9799995,44.5950006 26.08,44.465 C26.1800005,44.3349993 26.2899994,44.1900008 26.41,44.03 C26.5100005,43.8699992 26.6249994,43.7150008 26.755,43.565 C26.8850006,43.4149992 26.9899996,43.2500009 27.07,43.07 L27.04,43.13 C27.2600011,42.0099944 27.474999,40.955005 27.685,39.965 C27.8950011,38.974995 28.099999,37.9300055 28.3,36.83 C28.0799989,36.8500001 27.8750009,36.855 27.685,36.845 C27.494999,36.8349999 27.2900011,36.83 27.07,36.83 L26.65,36.83 C26.2899982,36.83 26.005001,36.6650016 25.795,36.335 C25.5849989,36.0049984 25.48,35.6700017 25.48,35.33 C25.48,35.0699987 25.5099997,34.7850015 25.57,34.475 C25.6300003,34.1649984 25.7399992,33.9000011 25.9,33.68 C26.0200006,33.5999996 26.2199986,33.5200004 26.5,33.44 C26.7800014,33.3599996 27.0599986,33.3000002 27.34,33.26 C27.6200014,33.2199998 27.8699989,33.1950001 28.09,33.185 C28.3100011,33.1749999 28.42,33.1799999 28.42,33.2 C28.42,33.1799999 28.4799994,33.1650001 28.6,33.155 C28.7200006,33.145 28.879999,33.14 29.08,33.14 L30.88,24.02 C31.0600009,23.3399966 31.4899966,22.8400016 32.17,22.52 C32.8500034,22.1999984 33.7399945,22.0899995 34.84,22.19 L34.99,22.19 L36.22,22.31 C38.1200095,22.7900024 39.1499992,24.0399899 39.31,26.06 C39.3500002,26.3200013 39.3300004,26.5599989 39.25,26.78 C39.1099993,27.2000021 38.840002,27.509999 38.44,27.71 C38.039998,27.910001 37.6200022,27.9600005 37.18,27.86 C36.7999981,27.7399994 36.5000011,27.5300015 36.28,27.23 C36.0599989,26.9299985 35.95,26.5500023 35.95,26.09 C36.0100003,25.7899985 35.7600028,25.5700007 35.2,25.43 C34.9799989,25.4500001 34.8150005,25.4749999 34.705,25.505 C34.5949994,25.5350002 34.4900005,25.6099994 34.39,25.73 C34.3099996,25.9700012 34.1450012,26.689994 33.895,27.89 C33.6449988,29.090006 33.3100021,30.8299886 32.89,33.11 C33.2500018,33.0699998 33.5699986,33.05 33.85,33.05 L34.72,33.05 C35.5600042,33.0299999 36.2999968,33.0899993 36.94,33.23 C37.3800022,33.3700007 37.7099989,33.6799976 37.93,34.16 C38.1500011,34.6400024 38.2200004,35.1399974 38.14,35.66 C37.8999988,36.8400059 37.2500053,37.2400019 36.19,36.86 C36.1099996,36.8199998 36.0300004,36.7950001 35.95,36.785 C35.8699996,36.775 35.7800005,36.7600001 35.68,36.74 C35.1999976,36.5999993 34.5800038,36.5599997 33.82,36.62 L32.14,36.77 L30.91,42.77 C31.2300016,42.7299998 31.5299986,42.7000001 31.81,42.68 C32.0900014,42.6599999 32.3799985,42.65 32.68,42.65 C33.280003,42.65 33.8449974,42.7099994 34.375,42.83 C34.9050026,42.9500006 35.4299974,43.1499986 35.95,43.43 L35.92,43.43 C36.4456313,43.4884035 36.8765078,43.2246657 37.2126416,42.638779 L37.2126416,42.638779 Z"/>
  </g>
</svg>
