<svg xmlns="http://www.w3.org/2000/svg" width="64" height="64" viewBox="0 0 64 64">
  <g fill="none" fill-rule="evenodd">
    <circle cx="26" cy="38" r="23" fill="#FFAF40"/>
    <circle cx="26" cy="38" r="19" fill="#FFDD95"/>
    <path fill="#ED9111" d="M31.2126416,45.638779 C31.353692,45.0448826 31.6478086,44.6386269 32.095,44.42 C32.5450023,44.1999989 32.9999977,44.1599993 33.46,44.3 C34.5400054,44.6800019 34.9300015,45.4499942 34.63,46.61 C33.8099959,48.61001 32.4300097,49.8199979 30.49,50.24 C30.089998,50.24 29.6600023,50.2100003 29.2,50.15 C28.7399977,50.0899997 28.2600025,49.9900007 27.76,49.85 C27.4799986,49.7899997 27.2000014,49.7350002 26.92,49.685 C26.6399986,49.6349998 26.3700013,49.61 26.11,49.61 C25.7499982,49.61 25.4200015,49.6599995 25.12,49.76 L23.95,50.12 C23.1099958,50.2400006 22.3200037,50.2800002 21.58,50.24 C20.7399958,49.9799987 20.215001,49.650002 20.005,49.25 C19.794999,48.849998 19.7499994,48.4100024 19.87,47.93 C19.9100002,47.7499991 19.9799995,47.5950006 20.08,47.465 C20.1800005,47.3349993 20.2899994,47.1900008 20.41,47.03 C20.5100005,46.8699992 20.6249994,46.7150008 20.755,46.565 C20.8850007,46.4149992 20.9899996,46.2500009 21.07,46.07 L21.04,46.13 C21.2600011,45.0099944 21.4749989,43.955005 21.685,42.965 C21.8950011,41.974995 22.099999,40.9300055 22.3,39.83 C22.0799989,39.8500001 21.8750009,39.855 21.685,39.845 C21.4949991,39.8349999 21.2900011,39.83 21.07,39.83 L20.65,39.83 C20.2899982,39.83 20.0050011,39.6650016 19.795,39.335 C19.5849989,39.0049984 19.48,38.6700017 19.48,38.33 C19.48,38.0699987 19.5099997,37.7850015 19.57,37.475 C19.6300003,37.1649984 19.7399992,36.9000011 19.9,36.68 C20.0200006,36.5999996 20.2199986,36.5200004 20.5,36.44 C20.7800014,36.3599996 21.0599986,36.3000002 21.34,36.26 C21.6200014,36.2199998 21.8699989,36.1950001 22.09,36.185 C22.3100011,36.1749999 22.42,36.1799999 22.42,36.2 C22.42,36.1799999 22.4799994,36.1650001 22.6,36.155 C22.7200006,36.145 22.879999,36.14 23.08,36.14 L24.88,27.02 C25.0600009,26.3399966 25.4899966,25.8400016 26.17,25.52 C26.8500034,25.1999984 27.7399945,25.0899995 28.84,25.19 L28.99,25.19 L30.22,25.31 C32.1200095,25.7900024 33.1499992,27.0399899 33.31,29.06 C33.3500002,29.3200013 33.3300004,29.5599989 33.25,29.78 C33.1099993,30.2000021 32.840002,30.509999 32.44,30.71 C32.039998,30.910001 31.6200022,30.9600005 31.18,30.86 C30.7999981,30.7399994 30.5000011,30.5300015 30.28,30.23 C30.0599989,29.9299985 29.95,29.5500023 29.95,29.09 C30.0100003,28.7899985 29.7600028,28.5700007 29.2,28.43 C28.9799989,28.4500001 28.8150006,28.4749999 28.705,28.505 C28.5949995,28.5350002 28.4900005,28.6099994 28.39,28.73 C28.3099996,28.9700012 28.1450012,29.689994 27.895,30.89 C27.6449988,32.090006 27.3100021,33.8299886 26.89,36.11 C27.2500018,36.0699998 27.5699986,36.05 27.85,36.05 L28.72,36.05 C29.5600042,36.0299999 30.2999968,36.0899993 30.94,36.23 C31.3800022,36.3700007 31.7099989,36.6799976 31.93,37.16 C32.1500011,37.6400024 32.2200004,38.1399974 32.14,38.66 C31.8999988,39.8400059 31.2500053,40.2400019 30.19,39.86 C30.1099996,39.8199998 30.0300004,39.7950001 29.95,39.785 C29.8699996,39.775 29.7800005,39.7600001 29.68,39.74 C29.1999976,39.5999993 28.5800038,39.5599997 27.82,39.62 L26.14,39.77 L24.91,45.77 C25.2300016,45.7299998 25.5299986,45.7000001 25.81,45.68 C26.0900014,45.6599999 26.3799985,45.65 26.68,45.65 C27.280003,45.65 27.8449973,45.7099994 28.375,45.83 C28.9050027,45.9500006 29.4299974,46.1499986 29.95,46.43 L29.92,46.43 C30.4456313,46.4884035 30.8765078,46.2246657 31.2126416,45.638779 L31.2126416,45.638779 Z"/>
    <path stroke="#979797" stroke-linecap="round" stroke-width="2" d="M59,11 C59,6.581722 55.418278,3 51,3 C46.581722,3 43,6.581722 43,11"/>
    <rect width="22" height="21" x="40" y="11" fill="#0A3586"/>
    <circle cx="51" cy="18" r="3" fill="#D8D8D8"/>
    <rect width="2" height="7" x="50" y="20" fill="#D8D8D8"/>
  </g>
</svg>
