<svg xmlns="http://www.w3.org/2000/svg" width="64" height="64" viewBox="0 0 64 64">
  <g fill="none" fill-rule="evenodd">
    <circle cx="32" cy="32" r="29" fill="#ECECEC" stroke="#D650C7" stroke-linecap="round" stroke-width="2"/>
    <path stroke="#D650C7" stroke-linecap="square" stroke-width="2" d="M61,32 L57,32 M32,61 L32,57 M3,32 L7,32 M32,3 L32,7"/>
    <path fill="#D650C7" d="M36.6551699,39.7665348 C36.8244304,39.0538591 37.1773703,38.5663523 37.714,38.304 C38.2540027,38.0399987 38.7999972,37.9919992 39.352,38.16 C40.6480065,38.6160023 41.1160018,39.539993 40.756,40.932 C39.7719951,43.332012 38.1160116,44.7839975 35.788,45.288 C35.3079976,45.288 34.7920028,45.2520004 34.24,45.18 C33.6879972,45.1079996 33.112003,44.9880008 32.512,44.82 C32.1759983,44.7479996 31.8400017,44.6820003 31.504,44.622 C31.1679983,44.5619997 30.8440016,44.532 30.532,44.532 C30.0999978,44.532 29.7040018,44.5919994 29.344,44.712 L27.94,45.144 C26.931995,45.2880007 25.9840044,45.3360002 25.096,45.288 C24.087995,44.9759984 23.4580013,44.5800024 23.206,44.1 C22.9539987,43.6199976 22.8999993,43.0920029 23.044,42.516 C23.0920002,42.2999989 23.1759994,42.1140008 23.296,41.958 C23.4160006,41.8019992 23.5479993,41.628001 23.692,41.436 C23.8120006,41.243999 23.9499992,41.0580009 24.106,40.878 C24.2620008,40.6979991 24.3879995,40.5000011 24.484,40.284 L24.448,40.356 C24.7120013,39.0119933 24.9699987,37.7460059 25.222,36.558 C25.4740013,35.3699941 25.7199988,34.1160066 25.96,32.796 C25.6959987,32.8200001 25.4500011,32.8260001 25.222,32.814 C24.9939989,32.8019999 24.7480013,32.796 24.484,32.796 L23.98,32.796 C23.5479978,32.796 23.2060013,32.598002 22.954,32.202 C22.7019987,31.805998 22.576,31.404002 22.576,30.996 C22.576,30.6839984 22.6119996,30.3420019 22.684,29.97 C22.7560004,29.5979981 22.887999,29.2800013 23.08,29.016 C23.2240007,28.9199995 23.4639983,28.8240005 23.8,28.728 C24.1360017,28.6319995 24.4719983,28.5600002 24.808,28.512 C25.1440017,28.4639998 25.4439987,28.4340001 25.708,28.422 C25.9720013,28.4099999 26.104,28.4159999 26.104,28.44 C26.104,28.4159999 26.1759993,28.3980001 26.32,28.386 C26.4640007,28.3739999 26.6559988,28.368 26.896,28.368 L29.056,17.424 C29.2720011,16.6079959 29.7879959,16.0080019 30.604,15.624 C31.4200041,15.2399981 32.4879934,15.1079994 33.808,15.228 L33.988,15.228 L35.464,15.372 C37.7440114,15.9480029 38.979999,17.4479879 39.172,19.872 C39.2200002,20.1840016 39.1960005,20.4719987 39.1,20.736 C38.9319992,21.2400025 38.6080024,21.6119988 38.128,21.852 C37.6479976,22.0920012 37.1440026,22.1520006 36.616,22.032 C36.1599977,21.8879993 35.8000013,21.6360018 35.536,21.276 C35.2719987,20.9159982 35.14,20.4600028 35.14,19.908 C35.2120004,19.5479982 34.9120034,19.2840008 34.24,19.116 C33.9759987,19.1400001 33.7780007,19.1699998 33.646,19.206 C33.5139993,19.2420002 33.3880006,19.3319993 33.268,19.476 C33.1719995,19.7640014 32.9740015,20.6279928 32.674,22.068 C32.3739985,23.5080072 31.9720025,25.5959863 31.468,28.332 C31.9000022,28.2839998 32.2839983,28.26 32.62,28.26 L33.664,28.26 C34.672005,28.2359999 35.5599962,28.3079992 36.328,28.476 C36.8560026,28.6440008 37.2519987,29.0159971 37.516,29.592 C37.7800013,30.1680029 37.8640005,30.7679969 37.768,31.392 C37.4799986,32.8080071 36.7000064,33.2880023 35.428,32.832 C35.3319995,32.7839998 35.2360005,32.7540001 35.14,32.742 C35.0439995,32.7299999 34.9360006,32.7120001 34.816,32.688 C34.2399971,32.5199992 33.4960046,32.4719996 32.584,32.544 L30.568,32.724 L29.092,39.924 C29.4760019,39.8759998 29.8359983,39.8400001 30.172,39.816 C30.5080017,39.7919999 30.8559982,39.78 31.216,39.78 C31.9360036,39.78 32.6139968,39.8519993 33.25,39.996 C33.8860032,40.1400007 34.5159969,40.3799983 35.14,40.716 L35.104,40.716 C35.7347576,40.7860842 36.2518093,40.4695989 36.6551699,39.7665348 L36.6551699,39.7665348 Z"/>
  </g>
</svg>
