<svg xmlns="http://www.w3.org/2000/svg" width="64" height="64" viewBox="0 0 64 64">
  <g fill="none" fill-rule="evenodd">
    <rect width="57" height="38" x="3" y="15" fill="#BD7575" rx="2"/>
    <path fill="#9C4D4D" d="M45,31.9958262 C45,29.7889923 46.787167,28 49.0072357,28 L62,28 L62,40 L49.0072357,40 C46.7941006,40 45,38.2034788 45,36.0041738 L45,31.9958262 Z"/>
    <circle cx="51" cy="34" r="2" fill="#BD7575"/>
    <path stroke="#9C4D4D" stroke-dasharray="4" stroke-linecap="square" stroke-width="2" d="M13,16 L13,51"/>
    <circle cx="52" cy="13" r="11" fill="#FFAF40"/>
    <path fill="#FFDD95" d="M53.5134088,16.6740155 C53.5886357,16.3572707 53.7454979,16.140601 53.984,16.024 C54.2240012,15.9066661 54.4666654,15.885333 54.712,15.96 C55.2880029,16.1626677 55.4960008,16.5733302 55.336,17.192 C54.8986645,18.258672 54.1626718,18.9039989 53.128,19.128 C52.9146656,19.128 52.6853346,19.1120002 52.44,19.08 C52.1946654,19.0479998 51.938668,18.994667 51.672,18.92 C51.5226659,18.8879998 51.3733341,18.8586668 51.224,18.832 C51.0746659,18.8053332 50.9306674,18.792 50.792,18.792 C50.599999,18.792 50.4240008,18.8186664 50.264,18.872 L49.64,19.064 C49.1919978,19.1280003 48.7706686,19.1493334 48.376,19.128 C47.9279978,18.9893326 47.6480006,18.8133344 47.536,18.6 C47.4239994,18.3866656 47.3999997,18.1520013 47.464,17.896 C47.4853334,17.7999995 47.5226664,17.7173337 47.576,17.648 C47.6293336,17.5786663 47.6879997,17.5013338 47.752,17.416 C47.8053336,17.3306662 47.8666663,17.2480004 47.936,17.168 C48.0053337,17.0879996 48.0613331,17.0000005 48.104,16.904 L48.088,16.936 C48.2053339,16.3386637 48.3199994,15.7760026 48.432,15.248 C48.5440006,14.7199974 48.6533328,14.1626696 48.76,13.576 C48.6426661,13.5866667 48.5333338,13.5893334 48.432,13.584 C48.3306662,13.5786666 48.2213339,13.576 48.104,13.576 L47.88,13.576 C47.687999,13.576 47.5360006,13.4880009 47.424,13.312 C47.3119994,13.1359991 47.256,12.9573342 47.256,12.776 C47.256,12.6373326 47.2719998,12.4853342 47.304,12.32 C47.3360002,12.1546658 47.3946662,12.0133339 47.48,11.896 C47.5440003,11.8533331 47.6506659,11.8106669 47.8,11.768 C47.9493341,11.7253331 48.0986659,11.6933334 48.248,11.672 C48.3973341,11.6506666 48.5306661,11.6373334 48.648,11.632 C48.7653339,11.6266666 48.824,11.6293333 48.824,11.64 C48.824,11.6293333 48.8559997,11.6213334 48.92,11.616 C48.9840003,11.6106666 49.0693328,11.608 49.176,11.608 L50.136,6.744 C50.2320005,6.38133152 50.4613315,6.11466752 50.824,5.944 C51.1866685,5.77333248 51.6613304,5.7146664 52.248,5.768 L52.328,5.768 L52.984,5.832 C53.9973384,6.08800128 54.5466662,6.75466128 54.632,7.832 C54.6533334,7.97066736 54.6426669,8.09866608 54.6,8.216 C54.525333,8.44000112 54.3813344,8.6053328 54.168,8.712 C53.9546656,8.8186672 53.7306678,8.8453336 53.496,8.792 C53.2933323,8.72799968 53.1333339,8.6160008 53.016,8.456 C52.8986661,8.2959992 52.84,8.09333456 52.84,7.848 C52.8720002,7.6879992 52.7386682,7.57066704 52.44,7.496 C52.3226661,7.50666672 52.234667,7.51999992 52.176,7.536 C52.117333,7.55200008 52.0613336,7.59199968 52.008,7.656 C51.9653331,7.78400064 51.877334,8.1679968 51.744,8.808 C51.610666,9.4480032 51.4320011,10.3759939 51.208,11.592 C51.400001,11.5706666 51.5706659,11.56 51.72,11.56 L52.184,11.56 C52.6320022,11.5493333 53.026665,11.581333 53.368,11.656 C53.6026678,11.730667 53.7786661,11.8959987 53.896,12.152 C54.0133339,12.4080013 54.0506669,12.6746653 54.008,12.952 C53.8799994,13.5813365 53.5333362,13.7946677 52.968,13.592 C52.9253331,13.5706666 52.8826669,13.5573334 52.84,13.552 C52.7973331,13.5466666 52.7493336,13.5386667 52.696,13.528 C52.4399987,13.453333 52.1093354,13.4319998 51.704,13.464 L50.808,13.544 L50.152,16.744 C50.3226675,16.7226666 50.4826659,16.7066667 50.632,16.696 C50.7813341,16.6853333 50.9359992,16.68 51.096,16.68 C51.4160016,16.68 51.7173319,16.7119997 52,16.776 C52.2826681,16.8400003 52.5626653,16.9466659 52.84,17.096 L52.824,17.096 C53.1043367,17.1271485 53.3341375,16.9864884 53.5134088,16.6740155 L53.5134088,16.6740155 Z"/>
  </g>
</svg>
