<svg xmlns="http://www.w3.org/2000/svg" width="64" height="64" viewBox="0 0 64 64">
  <g fill="none" fill-rule="evenodd">
    <path fill="#D650C7" d="M16,45 C7.71572875,45 1,38.2842712 1,30 C1,21.7157288 7.71572875,15 16,15 C18.1706646,15 20.2336397,15.4610733 22.0963309,16.2906254 C22.9447755,8.81128214 29.2937389,3 37,3 C45.2842712,3 52,9.71572875 52,18 C52,19.0287036 51.8964464,20.0332209 51.6991948,21.0036966 C51.7991647,21.001237 51.8994379,21 52,21 C58.627417,21 64,26.372583 64,33 C64,39.627417 58.627417,45 52,45 L16,45 Z"/>
    <circle cx="32" cy="45" r="14" fill="#FFAF40"/>
    <path fill="#5B68C0" d="M35.141761,50.0925193 C35.2357946,49.6965884 35.4318724,49.4257513 35.73,49.28 C36.0300015,49.1333326 36.3333318,49.1066662 36.64,49.2 C37.3600036,49.4533346 37.620001,49.9666628 37.42,50.74 C36.8733306,52.07334 35.9533398,52.8799986 34.66,53.16 C34.393332,53.16 34.1066682,53.1400002 33.8,53.1 C33.4933318,53.0599998 33.173335,52.9933338 32.84,52.9 C32.6533324,52.8599998 32.4666676,52.8233335 32.28,52.79 C32.0933324,52.7566665 31.9133342,52.74 31.74,52.74 C31.4999988,52.74 31.280001,52.773333 31.08,52.84 L30.3,53.08 C29.7399972,53.1600004 29.2133358,53.1866668 28.72,53.16 C28.1599972,52.9866658 27.8100007,52.766668 27.67,52.5 C27.5299993,52.233332 27.4999996,51.9400016 27.58,51.62 C27.6066668,51.4999994 27.653333,51.3966671 27.72,51.31 C27.786667,51.2233329 27.8599996,51.1266672 27.94,51.02 C28.006667,50.9133328 28.0833329,50.8100005 28.17,50.71 C28.2566671,50.6099995 28.3266664,50.5000006 28.38,50.38 L28.36,50.42 C28.5066674,49.6733296 28.6499993,48.9700033 28.79,48.31 C28.9300007,47.6499967 29.066666,46.953337 29.2,46.22 C29.0533326,46.2333334 28.9166673,46.2366667 28.79,46.23 C28.6633327,46.2233333 28.5266674,46.22 28.38,46.22 L28.1,46.22 C27.8599988,46.22 27.6700007,46.1100011 27.53,45.89 C27.3899993,45.6699989 27.32,45.4466678 27.32,45.22 C27.32,45.0466658 27.3399998,44.8566677 27.38,44.65 C27.4200002,44.4433323 27.4933328,44.2666674 27.6,44.12 C27.6800004,44.0666664 27.8133324,44.0133336 28,43.96 C28.1866676,43.9066664 28.3733324,43.8666668 28.56,43.84 C28.7466676,43.8133332 28.9133326,43.7966667 29.06,43.79 C29.2066674,43.7833333 29.28,43.7866666 29.28,43.8 C29.28,43.7866666 29.3199996,43.7766667 29.4,43.77 C29.4800004,43.7633333 29.586666,43.76 29.72,43.76 L30.92,37.68 C31.0400006,37.2266644 31.3266644,36.8933344 31.78,36.68 C32.2333356,36.4666656 32.826663,36.393333 33.56,36.46 L33.66,36.46 L34.48,36.54 C35.746673,36.8600016 36.4333328,37.6933266 36.54,39.04 C36.5666668,39.2133342 36.5533336,39.3733326 36.5,39.52 C36.4066662,39.8000014 36.226668,40.006666 35.96,40.14 C35.693332,40.273334 35.4133348,40.306667 35.12,40.24 C34.8666654,40.1599996 34.6666674,40.020001 34.52,39.82 C34.3733326,39.619999 34.3,39.3666682 34.3,39.06 C34.3400002,38.859999 34.1733352,38.7133338 33.8,38.62 C33.6533326,38.6333334 33.5433337,38.6499999 33.47,38.67 C33.3966663,38.6900001 33.326667,38.7399996 33.26,38.82 C33.2066664,38.9800008 33.0966675,39.459996 32.93,40.26 C32.7633325,41.060004 32.5400014,42.2199924 32.26,43.74 C32.5000012,43.7133332 32.7133324,43.7 32.9,43.7 L33.48,43.7 C34.0400028,43.6866666 34.5333312,43.7266662 34.96,43.82 C35.2533348,43.9133338 35.4733326,44.1199984 35.62,44.44 C35.7666674,44.7600016 35.8133336,45.0933316 35.76,45.44 C35.5999992,46.2266706 35.1666702,46.4933346 34.46,46.24 C34.4066664,46.2133332 34.3533336,46.1966667 34.3,46.19 C34.2466664,46.1833333 34.186667,46.1733334 34.12,46.16 C33.7999984,46.0666662 33.3866692,46.0399998 32.88,46.08 L31.76,46.18 L30.94,50.18 C31.1533344,50.1533332 31.3533324,50.1333334 31.54,50.12 C31.7266676,50.1066666 31.919999,50.1 32.12,50.1 C32.520002,50.1 32.8966649,50.1399996 33.25,50.22 C33.6033351,50.3000004 33.9533316,50.4333324 34.3,50.62 L34.28,50.62 C34.6304209,50.6589357 34.9176718,50.4831105 35.141761,50.0925193 L35.141761,50.0925193 Z"/>
    <path stroke="#FFF" stroke-linecap="round" stroke-width="2" d="M16,19 C9.92486775,19 5,23.9248678 5,30"/>
  </g>
</svg>
