<svg xmlns="http://www.w3.org/2000/svg" width="64" height="64" viewBox="0 0 64 64">
  <g fill="none" fill-rule="evenodd">
    <polygon fill="#FF78C7" points="18 42 49 42 46 63 21 63"/>
    <path stroke="#22BA8E" stroke-linecap="round" stroke-width="2" d="M33.1572981 37.9240083C33.1572981 37.9240083 33.6297763 28.1629143 39.0199279 23.197122M32.8743918 37.9484826C32.8743918 37.9484826 28.7631257 26.5442925 23.6347247 22.406478M32.8528213 38.1032099C32.8528213 38.1032099 26.312378 34.1927159 15.1147676 32.4214409"/>
    <circle cx="43" cy="15" r="11" fill="#FFAF40"/>
    <rect width="33" height="4" x="17" y="38" fill="#D650C7"/>
    <circle cx="21.5" cy="16.5" r="7.5" fill="#FFAF40"/>
    <circle cx="11.5" cy="30.5" r="5.5" fill="#FFAF40"/>
    <path fill="#FFDD95" d="M44.5134088,18.6740155 C44.5886357,18.3572707 44.7454979,18.140601 44.984,18.024 C45.2240012,17.9066661 45.4666654,17.885333 45.712,17.96 C46.2880029,18.1626677 46.4960008,18.5733302 46.336,19.192 C45.8986645,20.258672 45.1626718,20.9039989 44.128,21.128 C43.9146656,21.128 43.6853346,21.1120002 43.44,21.08 C43.1946654,21.0479998 42.938668,20.994667 42.672,20.92 C42.5226659,20.8879998 42.3733341,20.8586668 42.224,20.832 C42.0746659,20.8053332 41.9306674,20.792 41.792,20.792 C41.599999,20.792 41.4240008,20.8186664 41.264,20.872 L40.64,21.064 C40.1919978,21.1280003 39.7706686,21.1493334 39.376,21.128 C38.9279978,20.9893326 38.6480006,20.8133344 38.536,20.6 C38.4239994,20.3866656 38.3999997,20.1520013 38.464,19.896 C38.4853334,19.7999995 38.5226664,19.7173337 38.576,19.648 C38.6293336,19.5786663 38.6879997,19.5013338 38.752,19.416 C38.8053336,19.3306662 38.8666663,19.2480004 38.936,19.168 C39.0053337,19.0879996 39.0613331,19.0000005 39.104,18.904 L39.088,18.936 C39.2053339,18.3386637 39.3199994,17.7760026 39.432,17.248 C39.5440006,16.7199974 39.6533328,16.1626696 39.76,15.576 C39.6426661,15.5866667 39.5333338,15.5893334 39.432,15.584 C39.3306662,15.5786666 39.2213339,15.576 39.104,15.576 L38.88,15.576 C38.687999,15.576 38.5360006,15.4880009 38.424,15.312 C38.3119994,15.1359991 38.256,14.9573342 38.256,14.776 C38.256,14.6373326 38.2719998,14.4853342 38.304,14.32 C38.3360002,14.1546658 38.3946662,14.0133339 38.48,13.896 C38.5440003,13.8533331 38.6506659,13.8106669 38.8,13.768 C38.9493341,13.7253331 39.0986659,13.6933334 39.248,13.672 C39.3973341,13.6506666 39.5306661,13.6373334 39.648,13.632 C39.7653339,13.6266666 39.824,13.6293333 39.824,13.64 C39.824,13.6293333 39.8559997,13.6213334 39.92,13.616 C39.9840003,13.6106666 40.0693328,13.608 40.176,13.608 L41.136,8.744 C41.2320005,8.38133152 41.4613315,8.11466752 41.824,7.944 C42.1866685,7.77333248 42.6613304,7.7146664 43.248,7.768 L43.328,7.768 L43.984,7.832 C44.9973384,8.08800128 45.5466662,8.75466128 45.632,9.832 C45.6533334,9.97066736 45.6426669,10.0986661 45.6,10.216 C45.525333,10.4400011 45.3813344,10.6053328 45.168,10.712 C44.9546656,10.8186672 44.7306678,10.8453336 44.496,10.792 C44.2933323,10.7279997 44.1333339,10.6160008 44.016,10.456 C43.8986661,10.2959992 43.84,10.0933346 43.84,9.848 C43.8720002,9.6879992 43.7386682,9.57066704 43.44,9.496 C43.3226661,9.50666672 43.234667,9.51999992 43.176,9.536 C43.117333,9.55200008 43.0613336,9.59199968 43.008,9.656 C42.9653331,9.78400064 42.877334,10.1679968 42.744,10.808 C42.610666,11.4480032 42.4320011,12.3759939 42.208,13.592 C42.400001,13.5706666 42.5706659,13.56 42.72,13.56 L43.184,13.56 C43.6320022,13.5493333 44.026665,13.581333 44.368,13.656 C44.6026678,13.730667 44.7786661,13.8959987 44.896,14.152 C45.0133339,14.4080013 45.0506669,14.6746653 45.008,14.952 C44.8799994,15.5813365 44.5333362,15.7946677 43.968,15.592 C43.9253331,15.5706666 43.8826669,15.5573334 43.84,15.552 C43.7973331,15.5466666 43.7493336,15.5386667 43.696,15.528 C43.4399987,15.453333 43.1093354,15.4319998 42.704,15.464 L41.808,15.544 L41.152,18.744 C41.3226675,18.7226666 41.4826659,18.7066667 41.632,18.696 C41.7813341,18.6853333 41.9359992,18.68 42.096,18.68 C42.4160016,18.68 42.7173319,18.7119997 43,18.776 C43.2826681,18.8400003 43.5626653,18.9466659 43.84,19.096 L43.824,19.096 C44.1043367,19.1271485 44.3341375,18.9864884 44.5134088,18.6740155 L44.5134088,18.6740155 Z"/>
  </g>
</svg>
