<svg xmlns="http://www.w3.org/2000/svg" width="64" height="64" viewBox="0 0 64 64">
  <g fill="none" fill-rule="evenodd">
    <rect width="22" height="10" x="1" y="35" fill="#FF78C7"/>
    <path fill="#FF78C7" d="M10.9729892,27.3696698 C6.64676354,30.9415344 4,35.7330039 4,41 C4,52.045695 15.6405965,61 30,61 C44.3594035,61 56,52.045695 56,41 C56,29.954305 44.3594035,21 30,21 C25.1893791,21 20.6839043,22.0049891 16.8190398,23.7569179 L10.9729892,20.3250059 L10.9729892,27.3696698 Z"/>
    <circle cx="14" cy="35" r="2" fill="#F5413E"/>
    <rect width="7" height="13" x="11" y="50" fill="#FF78C7"/>
    <rect width="7" height="13" x="43" y="50" fill="#FF78C7"/>
    <circle cx="32" cy="18" r="17" fill="#FFAF40"/>
    <path fill="#FFDD95" d="M36.2126416,26.638779 C36.353692,26.0448826 36.6478086,25.6386269 37.095,25.42 C37.5450023,25.1999989 37.9999977,25.1599993 38.46,25.3 C39.5400054,25.6800019 39.9300015,26.4499942 39.63,27.61 C38.8099959,29.61001 37.4300097,30.8199979 35.49,31.24 C35.089998,31.24 34.6600023,31.2100003 34.2,31.15 C33.7399977,31.0899997 33.2600025,30.9900007 32.76,30.85 C32.4799986,30.7899997 32.2000014,30.7350002 31.92,30.685 C31.6399986,30.6349998 31.3700013,30.61 31.11,30.61 C30.7499982,30.61 30.4200015,30.6599995 30.12,30.76 L28.95,31.12 C28.1099958,31.2400006 27.3200037,31.2800002 26.58,31.24 C25.7399958,30.9799987 25.215001,30.650002 25.005,30.25 C24.794999,29.849998 24.7499994,29.4100024 24.87,28.93 C24.9100002,28.7499991 24.9799995,28.5950006 25.08,28.465 C25.1800005,28.3349993 25.2899994,28.1900008 25.41,28.03 C25.5100005,27.8699992 25.6249994,27.7150008 25.755,27.565 C25.8850007,27.4149992 25.9899996,27.2500009 26.07,27.07 L26.04,27.13 C26.2600011,26.0099944 26.4749989,24.955005 26.685,23.965 C26.8950011,22.974995 27.099999,21.9300055 27.3,20.83 C27.0799989,20.8500001 26.8750009,20.855 26.685,20.845 C26.4949991,20.8349999 26.2900011,20.83 26.07,20.83 L25.65,20.83 C25.2899982,20.83 25.0050011,20.6650016 24.795,20.335 C24.5849989,20.0049984 24.48,19.6700017 24.48,19.33 C24.48,19.0699987 24.5099997,18.7850015 24.57,18.475 C24.6300003,18.1649984 24.7399992,17.9000011 24.9,17.68 C25.0200006,17.5999996 25.2199986,17.5200004 25.5,17.44 C25.7800014,17.3599996 26.0599986,17.3000002 26.34,17.26 C26.6200014,17.2199998 26.8699989,17.1950001 27.09,17.185 C27.3100011,17.1749999 27.42,17.1799999 27.42,17.2 C27.42,17.1799999 27.4799994,17.1650001 27.6,17.155 C27.7200006,17.145 27.879999,17.14 28.08,17.14 L29.88,8.02 C30.0600009,7.3399966 30.4899966,6.8400016 31.17,6.52 C31.8500034,6.1999984 32.7399945,6.0899995 33.84,6.19 L33.99,6.19 L35.22,6.31 C37.1200095,6.7900024 38.1499992,8.0399899 38.31,10.06 C38.3500002,10.3200013 38.3300004,10.5599989 38.25,10.78 C38.1099993,11.2000021 37.840002,11.509999 37.44,11.71 C37.039998,11.910001 36.6200022,11.9600005 36.18,11.86 C35.7999981,11.7399994 35.5000011,11.5300015 35.28,11.23 C35.0599989,10.9299985 34.95,10.5500023 34.95,10.09 C35.0100003,9.7899985 34.7600028,9.5700007 34.2,9.43 C33.9799989,9.4500001 33.8150006,9.47499985 33.705,9.505 C33.5949995,9.53500015 33.4900005,9.6099994 33.39,9.73 C33.3099996,9.9700012 33.1450012,10.689994 32.895,11.89 C32.6449988,13.090006 32.3100021,14.8299886 31.89,17.11 C32.2500018,17.0699998 32.5699986,17.05 32.85,17.05 L33.72,17.05 C34.5600042,17.0299999 35.2999968,17.0899993 35.94,17.23 C36.3800022,17.3700007 36.7099989,17.6799976 36.93,18.16 C37.1500011,18.6400024 37.2200004,19.1399974 37.14,19.66 C36.8999988,20.8400059 36.2500053,21.2400019 35.19,20.86 C35.1099996,20.8199998 35.0300004,20.7950001 34.95,20.785 C34.8699996,20.775 34.7800005,20.7600001 34.68,20.74 C34.1999976,20.5999993 33.5800038,20.5599997 32.82,20.62 L31.14,20.77 L29.91,26.77 C30.2300016,26.7299998 30.5299986,26.7000001 30.81,26.68 C31.0900014,26.6599999 31.3799985,26.65 31.68,26.65 C32.280003,26.65 32.8449973,26.7099994 33.375,26.83 C33.9050027,26.9500006 34.4299974,27.1499986 34.95,27.43 L34.92,27.43 C35.4456313,27.4884035 35.8765078,27.2246657 36.2126416,26.638779 L36.2126416,26.638779 Z"/>
    <rect width="27" height="6" x="19" y="30" fill="#FF78C7"/>
    <path stroke="#F5413E" stroke-linecap="square" stroke-width="2" d="M20,31 L44,31"/>
    <path stroke="#FF78C7" stroke-linecap="round" stroke-width="2" d="M50.3478777,33.2724048 C50.3478777,33.2724048 59.2700209,34.071115 59.2700209,29.7888351 C59.2700209,25.5065553 53.1403795,25.1691691 53.9746644,27.4790021 C54.8089493,29.7888351 55.3783746,31.0888047 56.3037767,29.2839034"/>
  </g>
</svg>
