<svg xmlns="http://www.w3.org/2000/svg" width="64" height="64" viewBox="0 0 64 64">
  <g fill="none" fill-rule="evenodd">
    <path fill="#D650C7" d="M2,16.0222786 C2,16.0222786 10.0454499,20.3136343 17.25,21.0222786 C24.4545501,21.7309229 39.9822361,15.7675978 47.75,16.0222786 C55.5177639,16.2769594 63,20.0222786 63,20.0222786 L63,51.0222786 C63,51.0222786 55.2322361,47.2675978 47.75,47.0222786 C40.4103585,46.7816346 25.2954499,52.8136343 17.25,52.0222786 C9.20455009,51.2309229 2,47.0222786 2,47.0222786 L2,16.0222786 Z"/>
    <circle cx="32" cy="34" r="11" fill="#FF78C7"/>
    <path fill="#5B68C0" d="M33.5134088,37.6740155 C33.5886357,37.3572707 33.7454979,37.140601 33.984,37.024 C34.2240012,36.9066661 34.4666654,36.885333 34.712,36.96 C35.2880029,37.1626677 35.4960008,37.5733302 35.336,38.192 C34.8986645,39.258672 34.1626718,39.9039989 33.128,40.128 C32.9146656,40.128 32.6853346,40.1120002 32.44,40.08 C32.1946654,40.0479998 31.938668,39.994667 31.672,39.92 C31.5226659,39.8879998 31.3733341,39.8586668 31.224,39.832 C31.0746659,39.8053332 30.9306674,39.792 30.792,39.792 C30.599999,39.792 30.4240008,39.8186664 30.264,39.872 L29.64,40.064 C29.1919978,40.1280003 28.7706686,40.1493334 28.376,40.128 C27.9279978,39.9893326 27.6480006,39.8133344 27.536,39.6 C27.4239994,39.3866656 27.3999997,39.1520013 27.464,38.896 C27.4853334,38.7999995 27.5226664,38.7173337 27.576,38.648 C27.6293336,38.5786663 27.6879997,38.5013338 27.752,38.416 C27.8053336,38.3306662 27.8666663,38.2480004 27.936,38.168 C28.0053337,38.0879996 28.0613331,38.0000005 28.104,37.904 L28.088,37.936 C28.2053339,37.3386637 28.3199994,36.7760026 28.432,36.248 C28.5440006,35.7199974 28.6533328,35.1626696 28.76,34.576 C28.6426661,34.5866667 28.5333338,34.5893334 28.432,34.584 C28.3306662,34.5786666 28.2213339,34.576 28.104,34.576 L27.88,34.576 C27.687999,34.576 27.5360006,34.4880009 27.424,34.312 C27.3119994,34.1359991 27.256,33.9573342 27.256,33.776 C27.256,33.6373326 27.2719998,33.4853342 27.304,33.32 C27.3360002,33.1546658 27.3946662,33.0133339 27.48,32.896 C27.5440003,32.8533331 27.6506659,32.8106669 27.8,32.768 C27.9493341,32.7253331 28.0986659,32.6933334 28.248,32.672 C28.3973341,32.6506666 28.5306661,32.6373334 28.648,32.632 C28.7653339,32.6266666 28.824,32.6293333 28.824,32.64 C28.824,32.6293333 28.8559997,32.6213334 28.92,32.616 C28.9840003,32.6106666 29.0693328,32.608 29.176,32.608 L30.136,27.744 C30.2320005,27.3813315 30.4613315,27.1146675 30.824,26.944 C31.1866685,26.7733325 31.6613304,26.7146664 32.248,26.768 L32.328,26.768 L32.984,26.832 C33.9973384,27.0880013 34.5466662,27.7546613 34.632,28.832 C34.6533334,28.9706674 34.6426669,29.0986661 34.6,29.216 C34.525333,29.4400011 34.3813344,29.6053328 34.168,29.712 C33.9546656,29.8186672 33.7306678,29.8453336 33.496,29.792 C33.2933323,29.7279997 33.1333339,29.6160008 33.016,29.456 C32.8986661,29.2959992 32.84,29.0933346 32.84,28.848 C32.8720002,28.6879992 32.7386682,28.570667 32.44,28.496 C32.3226661,28.5066667 32.234667,28.5199999 32.176,28.536 C32.117333,28.5520001 32.0613336,28.5919997 32.008,28.656 C31.9653331,28.7840006 31.877334,29.1679968 31.744,29.808 C31.610666,30.4480032 31.4320011,31.3759939 31.208,32.592 C31.400001,32.5706666 31.5706659,32.56 31.72,32.56 L32.184,32.56 C32.6320022,32.5493333 33.026665,32.581333 33.368,32.656 C33.6026678,32.730667 33.7786661,32.8959987 33.896,33.152 C34.0133339,33.4080013 34.0506669,33.6746653 34.008,33.952 C33.8799994,34.5813365 33.5333362,34.7946677 32.968,34.592 C32.9253331,34.5706666 32.8826669,34.5573334 32.84,34.552 C32.7973331,34.5466666 32.7493336,34.5386667 32.696,34.528 C32.4399987,34.453333 32.1093354,34.4319998 31.704,34.464 L30.808,34.544 L30.152,37.744 C30.3226675,37.7226666 30.4826659,37.7066667 30.632,37.696 C30.7813341,37.6853333 30.9359992,37.68 31.096,37.68 C31.4160016,37.68 31.7173319,37.7119997 32,37.776 C32.2826681,37.8400003 32.5626653,37.9466659 32.84,38.096 L32.824,38.096 C33.1043367,38.1271485 33.3341375,37.9864884 33.5134088,37.6740155 L33.5134088,37.6740155 Z"/>
  </g>
</svg>
