<svg xmlns="http://www.w3.org/2000/svg" width="64" height="64" viewBox="0 0 64 64">
  <g fill="none" fill-rule="evenodd">
    <path stroke="#979797" stroke-linecap="square" stroke-width="2" d="M31,9 L31,29"/>
    <rect width="32" height="44" x="15" y="19" fill="#D8D8D8"/>
    <polygon fill="#D650C7" points="15 19 22 19 15 26"/>
    <polygon fill="#D650C7" points="40 19 47 19 40 26" transform="matrix(-1 0 0 1 87 0)"/>
    <polygon fill="#D650C7" points="15 56 22 56 15 63" transform="matrix(1 0 0 -1 0 119)"/>
    <polygon fill="#D650C7" points="40 56 47 56 40 63" transform="rotate(180 43.5 59.5)"/>
    <path stroke="#FFAF40" stroke-linecap="square" stroke-width="2" d="M8,11 L50.0119031,11"/>
    <polygon fill="#FFDD95" points="1 6 14 6 16 11 3 11"/>
    <polygon fill="#FFAF40" points="1 11 14 11 16 16 3 16" transform="matrix(1 0 0 -1 0 27)"/>
    <polygon fill="#FFAF40" points="63 11 50 17 50 5"/>
    <path fill="#D650C7" d="M33.7701132,46.5110232 C33.8829536,46.0359061 34.1182468,45.7109015 34.476,45.536 C34.8360018,45.3599991 35.1999982,45.3279994 35.568,45.44 C36.4320043,45.7440015 36.7440012,46.3599954 36.504,47.288 C35.8479967,48.888008 34.7440078,49.8559983 33.192,50.192 C32.8719984,50.192 32.5280018,50.1680002 32.16,50.12 C31.7919982,50.0719998 31.408002,49.9920006 31.008,49.88 C30.7839989,49.8319998 30.5600011,49.7880002 30.336,49.748 C30.1119989,49.7079998 29.896001,49.688 29.688,49.688 C29.3999986,49.688 29.1360012,49.7279996 28.896,49.808 L27.96,50.096 C27.2879966,50.1920005 26.656003,50.2240002 26.064,50.192 C25.3919966,49.983999 24.9720008,49.7200016 24.804,49.4 C24.6359992,49.0799984 24.5999995,48.7280019 24.696,48.344 C24.7280002,48.1999993 24.7839996,48.0760005 24.864,47.972 C24.9440004,47.8679995 25.0319995,47.7520006 25.128,47.624 C25.2080004,47.4959994 25.2999995,47.3720006 25.404,47.252 C25.5080005,47.1319994 25.5919997,47.0000007 25.656,46.856 L25.632,46.904 C25.8080009,46.0079955 25.9799992,45.164004 26.148,44.372 C26.3160008,43.579996 26.4799992,42.7440044 26.64,41.864 C26.4639991,41.8800001 26.3000008,41.884 26.148,41.876 C25.9959992,41.868 25.8320009,41.864 25.656,41.864 L25.32,41.864 C25.0319986,41.864 24.8040008,41.7320013 24.636,41.468 C24.4679992,41.2039987 24.384,40.9360014 24.384,40.664 C24.384,40.455999 24.4079998,40.2280012 24.456,39.98 C24.5040002,39.7319988 24.5919994,39.5200009 24.72,39.344 C24.8160005,39.2799997 24.9759989,39.2160003 25.2,39.152 C25.4240011,39.0879997 25.6479989,39.0400002 25.872,39.008 C26.0960011,38.9759998 26.2959991,38.956 26.472,38.948 C26.6480009,38.94 26.736,38.9439999 26.736,38.96 C26.736,38.9439999 26.7839995,38.932 26.88,38.924 C26.9760005,38.916 27.1039992,38.912 27.264,38.912 L28.704,31.616 C28.8480007,31.0719973 29.1919973,30.6720013 29.736,30.416 C30.2800027,30.1599987 30.9919956,30.0719996 31.872,30.152 L31.992,30.152 L32.976,30.248 C34.4960076,30.6320019 35.3199994,31.6319919 35.448,33.248 C35.4800002,33.456001 35.4640003,33.6479991 35.4,33.824 C35.2879994,34.1600017 35.0720016,34.4079992 34.752,34.568 C34.4319984,34.7280008 34.0960018,34.7680004 33.744,34.688 C33.4399985,34.5919995 33.2000009,34.4240012 33.024,34.184 C32.8479991,33.9439988 32.76,33.6400018 32.76,33.272 C32.8080002,33.0319988 32.6080022,32.8560006 32.16,32.744 C31.9839991,32.7600001 31.8520004,32.7799999 31.764,32.804 C31.6759996,32.8280001 31.5920004,32.8879995 31.512,32.984 C31.4479997,33.176001 31.316001,33.7519952 31.116,34.712 C30.915999,35.6720048 30.6480017,37.0639909 30.312,38.888 C30.6000014,38.8559998 30.8559989,38.84 31.08,38.84 L31.776,38.84 C32.4480034,38.8239999 33.0399974,38.8719994 33.552,38.984 C33.9040018,39.0960006 34.1679991,39.3439981 34.344,39.728 C34.5200009,40.1120019 34.5760003,40.5119979 34.512,40.928 C34.319999,41.8720047 33.8000042,42.1920015 32.952,41.888 C32.8879997,41.8559998 32.8240003,41.836 32.76,41.828 C32.6959997,41.82 32.6240004,41.8080001 32.544,41.792 C32.1599981,41.6799994 31.664003,41.6479998 31.056,41.696 L29.712,41.816 L28.728,46.616 C28.9840013,46.5839998 29.2239989,46.5600001 29.448,46.544 C29.6720011,46.5279999 29.9039988,46.52 30.144,46.52 C30.6240024,46.52 31.0759979,46.5679995 31.5,46.664 C31.9240021,46.7600005 32.3439979,46.9199989 32.76,47.144 L32.736,47.144 C33.156505,47.1907228 33.5012062,46.9797326 33.7701132,46.5110232 L33.7701132,46.5110232 Z"/>
  </g>
</svg>
