<svg xmlns="http://www.w3.org/2000/svg" width="64" height="64" viewBox="0 0 64 64">
  <g fill="none" fill-rule="evenodd">
    <rect width="58" height="58" x="3" y="4" fill="#FF78C7"/>
    <polygon fill="#0A3586" points="6 7 58 7 58 59 6 59"/>
    <path fill="#FF78C7" d="M34,17.76 C34.400002,18.3466696 34.6,19.1333284 34.6,20.12 C34.6,22.4400116 33.333346,26.0133092 30.8,30.84 C28.1599868,35.9333588 26.0000084,38.48 24.32,38.48 C23.8933312,38.48 23.5733344,38.2400024 23.36,37.76 C23.2799996,38.3733364 23.24,39.146662 23.24,40.08 C23.24,41.680008 23.3333324,43.5199896 23.52,45.6 C23.52,45.7866676 23.586666,46.0933312 23.72,46.52 C23.853334,46.9466688 23.92,47.2666656 23.92,47.48 C23.92,47.9866692 23.5733368,48.4133316 22.88,48.76 C22.5599984,48.9200008 22.133336,49 21.6,49 C20.7199956,49 19.8933372,48.800002 19.12,48.4 C18.2399956,47.9733312 17.733334,47.4133368 17.6,46.72 C17.5733332,46.5333324 17.56,46.373334 17.56,46.24 C17.56,45.839998 17.6999986,45.473335 17.98,45.14 C18.2600014,44.806665 18.4,44.5866672 18.4,44.48 L17.68,18.56 C17.68,18.4799996 17.6400004,18.3200012 17.56,18.08 C17.4799996,17.8399988 17.44,17.653334 17.44,17.52 C17.44,17.0399976 17.7866632,16.666668 18.48,16.4 C19.013336,16.1866656 19.5733304,16.08 20.16,16.08 C20.3466676,16.08 21.0933268,16.1599992 22.4,16.32 C22.5600008,16.32 23.3533262,16.0333362 24.78,15.46 C26.2066738,14.8866638 27.4666612,14.6 28.56,14.6 C30.693344,14.6 32.5066592,15.6533228 34,17.76 Z M28.04,19.36 C27.3999968,19.36 26.580005,19.6999966 25.58,20.38 C24.579995,21.0600034 23.7066704,21.8399956 22.96,22.72 L23.12,31.92 C24.2933392,31.0399956 25.5666598,29.2733466 26.94,26.62 C28.3133402,23.9666534 29,21.9466736 29,20.56 C29,19.759996 28.6800032,19.36 28.04,19.36 Z M50.32,27.6 C50.2133328,28.1600028 49.7066712,28.5466656 48.8,28.76 C47.733328,29.026668 47.0533348,29.3333316 46.76,29.68 L40.24,37.2 L40.24,43.28 C40.24,43.8666696 40.406665,44.459997 40.74,45.06 C41.073335,45.660003 41.24,46.1199984 41.24,46.44 C41.24,46.7600016 41.1466676,47.119998 40.96,47.52 C40.5066644,48.5333384 39.5866736,49.04 38.2,49.04 C37.2399952,49.04 36.4800028,48.7333364 35.92,48.12 C35.5466648,47.719998 35.36,47.2133364 35.36,46.6 C35.36,46.3866656 35.3866664,46.0400024 35.44,45.56 C35.4933336,45.0799976 35.52,44.6933348 35.52,44.4 L35.52,29.44 C35.52,29.1999988 35.4133344,28.9066684 35.2,28.56 C34.9866656,28.2133316 34.88,27.9333344 34.88,27.72 C34.88,27.5599992 34.9333328,27.3733344 35.04,27.16 C35.3866684,26.5199968 36.4666576,26.2 38.28,26.2 C39.6933404,26.2 40.4933324,26.53333 40.68,27.2 C40.7600004,27.466668 40.8,27.6933324 40.8,27.88 C40.8,28.1733348 40.6933344,28.3999992 40.48,28.56 C40.2666656,28.7200008 40.16,28.8799992 40.16,29.04 L40.24,30.48 L43.68,26.84 C44.080002,26.3866644 44.4999978,25.9333356 44.94,25.48 C45.3800022,25.0266644 45.8933304,24.7733336 46.48,24.72 C47.3866712,24.6399996 48.2599958,24.8399976 49.1,25.32 C49.9400042,25.8000024 50.36,26.4266628 50.36,27.2 C50.36,27.333334 50.3466668,27.466666 50.32,27.6 Z"/>
  </g>
</svg>
