<svg xmlns="http://www.w3.org/2000/svg" width="64" height="64" viewBox="0 0 64 64">
  <g fill="none" fill-rule="evenodd">
    <path fill="#ECECEC" d="M10,57 C10,55.3431458 11.3517805,54 13.0004442,54 L52.9995558,54 C54.6566554,54 56,55.3465171 56,57 L56,57 C56,58.6568542 54.6482195,60 52.9995558,60 L13.0004442,60 C11.3433446,60 10,58.6534829 10,57 L10,57 Z"/>
    <path fill="#5B68C0" d="M42.815771,32.8073674 L39.2800778,8.98220896 C39.117616,7.88746518 38.0947324,7 36.9884451,7 L28.0177251,7 C26.9145531,7 25.8884231,7.888348 25.7260924,8.98220896 L22.1903992,32.8073674 L16.0428421,32.8073674 C14.9433053,32.8073674 14.676325,33.4513558 15.4385564,34.2375371 L31.1133982,50.4048925 C31.8791972,51.1947534 33.1245792,51.1910737 33.8870655,50.4048925 L49.56715,34.2375371 C50.3332052,33.4476762 50.0521643,32.8073674 48.9633281,32.8073674 L42.815771,32.8073674 Z"/>
  </g>
</svg>
