<svg xmlns="http://www.w3.org/2000/svg" width="64" height="64" viewBox="0 0 64 64">
  <g fill="none" fill-rule="evenodd">
    <path fill="#ECECEC" d="M8,57 C8,55.3431458 9.35178054,54 11.0004442,54 L50.9995558,54 C52.6566554,54 54,55.3465171 54,57 L54,57 C54,58.6568542 52.6482195,60 50.9995558,60 L11.0004442,60 C9.34334461,60 8,58.6534829 8,57 L8,57 Z"/>
    <path fill="#5B68C0" d="M40.815771,36.8073674 L37.2800778,12.982209 C37.117616,11.8874652 36.0947324,11 34.9884451,11 L26.0177251,11 C24.9145531,11 23.8884231,11.888348 23.7260924,12.982209 L20.1903992,36.8073674 L14.0428421,36.8073674 C12.9433053,36.8073674 12.676325,37.4513558 13.4385564,38.2375371 L29.1133982,54.4048925 C29.8791972,55.1947534 31.1245792,55.1910737 31.8870655,54.4048925 L47.56715,38.2375371 C48.3332052,37.4476762 48.0521643,36.8073674 46.9633281,36.8073674 L40.815771,36.8073674 Z" transform="matrix(0 -1 -1 0 63.5 63.5)"/>
  </g>
</svg>
