<svg xmlns="http://www.w3.org/2000/svg" width="64" height="64" viewBox="0 0 64 64">
  <g fill="none" fill-rule="evenodd">
    <path fill="#979797" d="M17.0520382,14.5226009 L31.0520382,14.5226009 L31.0520382,58.5248713 C31.0520382,62.3896107 27.9101649,65.5226009 24.0520382,65.5226009 L24.0520382,65.5226009 C20.186045,65.5226009 17.0520382,62.3899778 17.0520382,58.5248713 L17.0520382,14.5226009 Z" transform="rotate(45 24.052 40.023)"/>
    <rect width="18" height="2" x="17.527" y="36.548" fill="#5EA7FF" transform="rotate(45 26.527 37.548)"/>
    <circle cx="49.154" cy="14.92" r="14" fill="#595959" transform="rotate(45 49.154 14.92)"/>
    <rect width="2" height="2" x="44" y="5" fill="#979797"/>
    <rect width="2" height="2" x="49" y="5" fill="#979797"/>
    <rect width="2" height="2" x="54" y="5" fill="#979797"/>
    <rect width="2" height="2" x="49" y="10" fill="#979797"/>
    <rect width="2" height="2" x="54" y="10" fill="#979797"/>
    <rect width="2" height="2" x="59" y="10" fill="#979797"/>
    <rect width="2" height="2" x="44" y="15" fill="#979797"/>
    <rect width="2" height="2" x="39" y="10" fill="#979797"/>
    <rect width="2" height="2" x="44" y="10" fill="#979797"/>
    <rect width="34" height="17" x="16.244" y="22.33" fill="#E43535" rx="2" transform="rotate(45 33.244 30.83)"/>
    <path fill="#FFF" d="M24.3995526,27.4963492 C24.4995531,27.6430166 24.5495526,27.8396813 24.5495526,28.0863492 C24.5495526,28.6663521 24.2328891,29.5596765 23.5995526,30.7663492 C22.9395493,32.0396889 22.3995547,32.6763492 21.9795526,32.6763492 C21.8728854,32.6763492 21.7928862,32.6163498 21.7395526,32.4963492 C21.7195525,32.6496833 21.7095526,32.8430147 21.7095526,33.0763492 C21.7095526,33.4763512 21.7328857,33.9363466 21.7795526,34.4563492 C21.7795526,34.5030161 21.7962191,34.579682 21.8295526,34.6863492 C21.8628861,34.7930164 21.8795526,34.8730156 21.8795526,34.9263492 C21.8795526,35.0530165 21.7928868,35.1596821 21.6195526,35.2463492 C21.5395522,35.2863494 21.4328866,35.3063492 21.2995526,35.3063492 C21.0795515,35.3063492 20.8728869,35.2563497 20.6795526,35.1563492 C20.4595515,35.049682 20.3328861,34.9096834 20.2995526,34.7363492 C20.2928859,34.6896823 20.2895526,34.6496827 20.2895526,34.6163492 C20.2895526,34.5163487 20.3245523,34.4246829 20.3945526,34.3413492 C20.464553,34.2580154 20.4995526,34.203016 20.4995526,34.1763492 L20.3195526,27.6963492 C20.3195526,27.6763491 20.3095527,27.6363495 20.2895526,27.5763492 C20.2695525,27.5163489 20.2595526,27.4696827 20.2595526,27.4363492 C20.2595526,27.3163486 20.3462184,27.2230162 20.5195526,27.1563492 C20.6528866,27.1030156 20.7928852,27.0763492 20.9395526,27.0763492 C20.9862195,27.0763492 21.1728843,27.096349 21.4995526,27.1363492 C21.5395528,27.1363492 21.7378842,27.0646832 22.0945526,26.9213492 C22.4512211,26.7780151 22.7662179,26.7063492 23.0395526,26.7063492 C23.5728886,26.7063492 24.0262174,26.9696799 24.3995526,27.4963492 Z M22.9095526,27.8963492 C22.7495518,27.8963492 22.5445539,27.9813483 22.2945526,28.1513492 C22.0445514,28.32135 21.8262202,28.5163481 21.6395526,28.7363492 L21.6795526,31.0363492 C21.9728874,30.8163481 22.2912176,30.3746858 22.6345526,29.7113492 C22.9778877,29.0480125 23.1495526,28.5430176 23.1495526,28.1963492 C23.1495526,27.9963482 23.0695534,27.8963492 22.9095526,27.8963492 Z M30.8795526,34.3963492 C30.8862193,34.4363494 30.8895526,34.4730157 30.8895526,34.5063492 C30.8895526,34.7063502 30.7728871,34.8746818 30.5395526,35.0113492 C30.3062181,35.1480165 30.0628872,35.2163492 29.8095526,35.2163492 C29.6562185,35.2163492 29.5328864,35.1863495 29.4395526,35.1263492 C29.3728856,35.086349 29.3145529,35.0080164 29.2645526,34.8913492 C29.2145524,34.7746819 29.1595529,34.6963494 29.0995526,34.6563492 L26.8895526,33.1763492 L26.9795526,34.0963492 C26.9862193,34.1430161 27.0378855,34.2396818 27.1345526,34.3863492 C27.2312198,34.5330166 27.2795526,34.6563487 27.2795526,34.7563492 C27.2795526,34.9030166 27.1862202,35.0396819 26.9995526,35.1663492 C26.8862187,35.2463496 26.7428868,35.2863492 26.5695526,35.2863492 C26.3228847,35.2863492 26.092887,35.2196832 25.8795526,35.0863492 C25.6462181,34.9530152 25.5062195,34.7830169 25.4595526,34.5763492 C25.4528859,34.536349 25.4495526,34.503016 25.4495526,34.4763492 C25.4495526,34.3830154 25.4945522,34.3013495 25.5845526,34.2313492 C25.6745531,34.1613488 25.7195526,34.0963495 25.7195526,34.0363492 L25.3995526,28.3363492 C25.3928859,28.2496821 25.3562196,28.1346832 25.2895526,27.9913492 C25.2228856,27.8480151 25.1895526,27.7430162 25.1895526,27.6763492 C25.1895526,27.503015 25.3028848,27.3630164 25.5295526,27.2563492 C25.7162202,27.1630154 25.9062183,27.1163492 26.0995526,27.1163492 C26.2262199,27.1163492 26.3362188,27.1346823 26.4295526,27.1713492 C26.5228864,27.208016 26.5862191,27.2646821 26.6195526,27.3413492 C26.6528861,27.4180162 26.6928857,27.4563492 26.7395526,27.4563492 C26.7462193,27.4630159 26.9495506,27.3896833 27.3495526,27.2363492 C27.8162216,27.063015 28.2262175,26.9763492 28.5795526,26.9763492 C29.0928885,26.9763492 29.5062177,27.1563474 29.8195526,27.5163492 C29.9062197,27.6163497 29.9495526,27.7563483 29.9495526,27.9363492 C29.9495526,28.4230183 29.6695554,29.1096781 29.1095526,29.9963492 C28.5762166,30.8296867 28.0262221,31.4963467 27.4595526,31.9963492 L30.0395526,33.7963492 C30.0462193,33.8030159 30.2128843,33.8830151 30.5395526,34.0363492 C30.7262202,34.1230163 30.8395524,34.2430151 30.8795526,34.3963492 Z M28.1995526,28.1863492 C28.0528852,28.1863492 27.8195542,28.3263478 27.4995526,28.6063492 C27.4328856,28.6596828 27.1862214,28.8896805 26.7595526,29.2963492 L26.7395526,31.0863492 C27.152888,30.6330136 27.5262176,30.1280186 27.8595526,29.5713492 C28.1928876,29.0146797 28.3595526,28.6163504 28.3595526,28.3763492 C28.3595526,28.2496819 28.3062198,28.1863492 28.1995526,28.1863492 Z M35.2195526,28.0363492 C35.0662185,28.1630165 34.8695538,28.2263492 34.6295526,28.2263492 C34.5295521,28.2263492 34.4128866,28.2163493 34.2795526,28.1963492 C34.0862183,28.2563495 33.9128867,28.3163489 33.7595526,28.3763492 C33.3862174,28.5163499 33.1395532,28.6363487 33.0195526,28.7363492 C32.9795524,29.429686 32.9795524,30.2230114 33.0195526,31.1163492 C33.0595528,31.0896824 33.1595518,31.063016 33.3195526,31.0363492 C33.399553,30.8963485 33.5362183,30.8263492 33.7295526,30.8263492 C33.9228869,30.8263492 34.1478847,30.9196816 34.4045526,31.1063492 C34.6612206,31.2930168 34.7895526,31.4763483 34.7895526,31.6563492 C34.7895526,31.7030161 34.7795527,31.7496823 34.7595526,31.7963492 C34.6795522,31.9963502 34.5562201,32.1230156 34.3895526,32.1763492 C34.2895521,32.2096827 34.1428869,32.2180159 33.9495526,32.2013492 C33.7562183,32.1846824 33.6328862,32.1896824 33.5795526,32.2163492 C33.4262185,32.2896829 33.2395537,32.3763487 33.0195526,32.4763492 C33.0195526,33.0763522 33.0395524,33.463015 33.0795526,33.6363492 C33.359554,33.5696822 33.592885,33.489683 33.7795526,33.3963492 C33.8128861,33.3496823 33.8462191,33.3063494 33.8795526,33.2663492 C33.9462196,33.1930155 34.0662184,33.1630158 34.2395526,33.1763492 C34.4262202,33.1896826 34.6195516,33.2963482 34.8195526,33.4963492 C35.0195536,33.6963502 35.1195526,33.8996815 35.1195526,34.1063492 C35.1195526,34.2863501 35.0428867,34.4196821 34.8895526,34.5063492 C34.7362185,34.5930163 34.4795544,34.623016 34.1195526,34.5963492 L33.1795526,35.0663492 C33.1395524,35.0863493 33.0528866,35.1530153 32.9195526,35.2663492 C32.8195521,35.3530163 32.729553,35.3963492 32.6495526,35.3963492 C32.6228858,35.3963492 32.5928861,35.3930159 32.5595526,35.3863492 C32.2062175,35.279682 31.8862207,35.0030181 31.5995526,34.5563492 C31.5795525,34.5230157 31.5695526,34.4830161 31.5695526,34.4363492 C31.5695526,34.4163491 31.6062189,34.2830171 31.6795526,34.0363492 C31.6062189,32.0963395 31.5928857,30.0296935 31.6395526,27.8363492 C31.5928857,27.7696822 31.5695526,27.7030162 31.5695526,27.6363492 C31.5695526,27.4163481 31.7728839,27.2763495 32.1795526,27.2163492 C32.2662197,27.2030158 32.3762186,27.2263489 32.5095526,27.2863492 C32.5962197,27.3330161 32.6795522,27.376349 32.7595526,27.4163492 L33.9595526,27.0363492 C33.9862194,27.0296825 34.0628853,26.9896829 34.1895526,26.9163492 C34.2762197,26.8630156 34.3762187,26.8363492 34.4895526,26.8363492 C34.5428862,26.8363492 34.6062189,26.8430158 34.6795526,26.8563492 C34.82622,26.883016 34.9712186,26.9980148 35.1145526,27.2013492 C35.2578867,27.4046835 35.3295526,27.5963483 35.3295526,27.7763492 C35.3295526,27.8896831 35.2928863,27.9763489 35.2195526,28.0363492 Z M40.1395526,33.3963492 C40.1395526,33.9163518 39.9745543,34.3713472 39.6445526,34.7613492 C39.314551,35.1513511 38.9062217,35.3463492 38.4195526,35.3463492 C37.4395477,35.3463492 36.7195549,34.8796872 36.2595526,33.9463492 C35.7595501,33.6196809 35.5095526,33.343017 35.5095526,33.1163492 C35.5095526,33.0030153 35.5795519,32.9096829 35.7195526,32.8363492 C35.9928873,32.6896818 36.2428848,32.6163492 36.4695526,32.6163492 C36.9628884,32.6163492 37.2928851,32.9096796 37.4595526,33.4963492 C37.539553,33.65635 37.6228855,33.8163484 37.7095526,33.9763492 C37.7962197,34.13635 37.9128852,34.2163492 38.0595526,34.2163492 C38.4528879,34.2163492 38.6495526,33.936352 38.6495526,33.3763492 C38.6495526,32.8763467 38.5595535,32.5396834 38.3795526,32.3663492 C38.2995522,32.2930155 37.9795554,32.1396837 37.4195526,31.9063492 C36.9728837,31.7196816 36.6128873,31.3996848 36.3395526,30.9463492 C36.0928847,30.5330138 35.9662193,30.1030181 35.9595526,29.6563492 C35.9528859,28.9363456 36.1328841,28.296352 36.4995526,27.7363492 C36.8862212,27.1363462 37.3662164,26.8363492 37.9395526,26.8363492 C38.6062226,26.8363492 39.0928844,27.1030132 39.3995526,27.6363492 C39.5995536,27.9696842 39.7128858,28.3830134 39.7395526,28.8763492 C39.8128863,29.1296838 39.8495526,29.3596815 39.8495526,29.5663492 C39.8495526,29.6996832 39.8328861,29.8096821 39.7995526,29.8963492 C39.6995521,30.1430171 39.5028874,30.2663492 39.2095526,30.2663492 C38.9895515,30.2663492 38.7895535,30.18635 38.6095526,30.0263492 C38.4095516,29.853015 38.2862195,29.6096841 38.2395526,29.2963492 C38.2195525,29.189682 38.241219,29.0830164 38.3045526,28.9763492 C38.3678863,28.869682 38.3995526,28.8096826 38.3995526,28.7963492 C38.3995526,28.7830158 38.392886,28.7696826 38.3795526,28.7563492 C38.3862193,28.7230157 38.3895526,28.6896827 38.3895526,28.6563492 C38.3895526,28.4563482 38.2728871,28.3630158 38.0395526,28.3763492 C37.8128848,28.3896826 37.6362199,28.5396811 37.5095526,28.8263492 C37.3962187,29.0730171 37.3462192,29.3563476 37.3595526,29.6763492 C37.3795527,30.2430187 37.7528823,30.6963475 38.4795526,31.0363492 C39.0528888,31.3030172 39.4495515,31.5663479 39.6695526,31.8263492 C39.9828875,32.1996844 40.1395526,32.7230125 40.1395526,33.3963492 Z M45.4595526,33.3963492 C45.4595526,33.9163518 45.2945543,34.3713472 44.9645526,34.7613492 C44.634551,35.1513511 44.2262217,35.3463492 43.7395526,35.3463492 C42.7595477,35.3463492 42.0395549,34.8796872 41.5795526,33.9463492 C41.0795501,33.6196809 40.8295526,33.343017 40.8295526,33.1163492 C40.8295526,33.0030153 40.8995519,32.9096829 41.0395526,32.8363492 C41.3128873,32.6896818 41.5628848,32.6163492 41.7895526,32.6163492 C42.2828884,32.6163492 42.6128851,32.9096796 42.7795526,33.4963492 C42.859553,33.65635 42.9428855,33.8163484 43.0295526,33.9763492 C43.1162197,34.13635 43.2328852,34.2163492 43.3795526,34.2163492 C43.7728879,34.2163492 43.9695526,33.936352 43.9695526,33.3763492 C43.9695526,32.8763467 43.8795535,32.5396834 43.6995526,32.3663492 C43.6195522,32.2930155 43.2995554,32.1396837 42.7395526,31.9063492 C42.2928837,31.7196816 41.9328873,31.3996848 41.6595526,30.9463492 C41.4128847,30.5330138 41.2862193,30.1030181 41.2795526,29.6563492 C41.2728859,28.9363456 41.4528841,28.296352 41.8195526,27.7363492 C42.2062212,27.1363462 42.6862164,26.8363492 43.2595526,26.8363492 C43.9262226,26.8363492 44.4128844,27.1030132 44.7195526,27.6363492 C44.9195536,27.9696842 45.0328858,28.3830134 45.0595526,28.8763492 C45.1328863,29.1296838 45.1695526,29.3596815 45.1695526,29.5663492 C45.1695526,29.6996832 45.1528861,29.8096821 45.1195526,29.8963492 C45.0195521,30.1430171 44.8228874,30.2663492 44.5295526,30.2663492 C44.3095515,30.2663492 44.1095535,30.18635 43.9295526,30.0263492 C43.7295516,29.853015 43.6062195,29.6096841 43.5595526,29.2963492 C43.5395525,29.189682 43.561219,29.0830164 43.6245526,28.9763492 C43.6878863,28.869682 43.7195526,28.8096826 43.7195526,28.7963492 C43.7195526,28.7830158 43.712886,28.7696826 43.6995526,28.7563492 C43.7062193,28.7230157 43.7095526,28.6896827 43.7095526,28.6563492 C43.7095526,28.4563482 43.5928871,28.3630158 43.3595526,28.3763492 C43.1328848,28.3896826 42.9562199,28.5396811 42.8295526,28.8263492 C42.7162187,29.0730171 42.6662192,29.3563476 42.6795526,29.6763492 C42.6995527,30.2430187 43.0728823,30.6963475 43.7995526,31.0363492 C44.3728888,31.3030172 44.7695515,31.5663479 44.9895526,31.8263492 C45.3028875,32.1996844 45.4595526,32.7230125 45.4595526,33.3963492 Z" transform="rotate(45 32.86 31.051)"/>
  </g>
</svg>
