<svg xmlns="http://www.w3.org/2000/svg" width="64" height="64" viewBox="0 0 64 64">
  <g fill="none" fill-rule="evenodd">
    <rect width="5" height="10" x="42" y="25" fill="#E43535"/>
    <path fill="#D8D8D8" d="M30,2.50247397 C30,1.67268051 30.6657972,1 31.5,1 L31.5,1 C32.3284271,1 33,1.67854309 33,2.50247397 L33,49 L30,49 L30,2.50247397 Z"/>
    <rect width="64" height="5" y="5" fill="#BD7575" rx="2"/>
    <path fill="#B4DFFB" d="M3,10 L60,10 L60,41.0021074 C60,43.2100825 58.1999609,45 55.9918707,45 L7.00812931,45 C4.79450062,45 3,43.2162267 3,41.0021074 L3,10 Z"/>
    <path stroke="#D8D8D8" stroke-linecap="round" stroke-width="2" d="M31.7242161,48 L22,55.2163054"/>
    <path stroke="#D8D8D8" stroke-linecap="round" stroke-width="2" d="M40.7242161,48 L31,55.2163054" transform="matrix(-1 0 0 1 71.724 0)"/>
    <path fill="#22BA8E" d="M29,55.9597759 C29,53.7493282 30.787167,51.7516292 32.9642898,51.5009519 L46,50 L59.0357102,51.5009519 C61.225127,51.7530447 63,53.7492282 63,55.9597759 L63,62.9574064 L29,62.9574064 L29,55.9597759 Z"/>
    <path fill="#FFDD95" d="M40,45.3164468 C36.9897907,42.470456 35,37.8615543 35,34 C35,27.9248678 39.9248678,23 46,23 C52.0751322,23 57,27.9248678 57,34 C57,37.8615543 55.0102093,42.470456 52,45.3164468 L52,52 C52,52 47.9325778,53.4486507 46,53.4486507 C44.0674222,53.4486507 40,52 40,52 L40,45.3164468 Z"/>
    <circle cx="37" cy="39" r="3" fill="#FFDD95"/>
    <circle cx="55" cy="39" r="3" fill="#FFDD95"/>
    <polyline stroke="#FF5EAC" stroke-linecap="round" stroke-linejoin="round" stroke-width="2" points="36.337 14.773 26.43 20.325 33.381 24.221 16.337 33.773" transform="rotate(-180 26.337 24.273)"/>
    <polyline stroke="#FF5EAC" stroke-linecap="round" stroke-linejoin="round" stroke-width="2" points="15.722 29.598 19.983 31.474 19.632 35.89" transform="rotate(-180 17.852 32.744)"/>
  </g>
</svg>
