<svg xmlns="http://www.w3.org/2000/svg" width="64" height="64" viewBox="0 0 64 64">
  <g fill="none" fill-rule="evenodd">
    <path fill="#ECECEC" d="M9,57 C9,55.3431458 10.3517805,54 12.0004442,54 L51.9995558,54 C53.6566554,54 55,55.3465171 55,57 L55,57 C55,58.6568542 53.6482195,60 51.9995558,60 L12.0004442,60 C10.3433446,60 9,58.6534829 9,57 L9,57 Z"/>
    <path fill="#5B68C0" d="M41.815771,36.8073674 L38.2800778,12.982209 C38.117616,11.8874652 37.0947324,11 35.9884451,11 L27.0177251,11 C25.9145531,11 24.8884231,11.888348 24.7260924,12.982209 L21.1903992,36.8073674 L15.0428421,36.8073674 C13.9433053,36.8073674 13.676325,37.4513558 14.4385564,38.2375371 L30.1133982,54.4048925 C30.8791972,55.1947534 32.1245792,55.1910737 32.8870655,54.4048925 L48.56715,38.2375371 C49.3332052,37.4476762 49.0521643,36.8073674 47.9633281,36.8073674 L41.815771,36.8073674 Z" transform="rotate(-90 31.5 33)"/>
  </g>
</svg>
