<svg xmlns="http://www.w3.org/2000/svg" width="64" height="64" viewBox="0 0 64 64">
  <g fill="none" fill-rule="evenodd">
    <path fill="#ECECEC" d="M9,57 C9,55.3431458 10.3517805,54 12.0004442,54 L51.9995558,54 C53.6566554,54 55,55.3465171 55,57 L55,57 C55,58.6568542 53.6482195,60 51.9995558,60 L12.0004442,60 C10.3433446,60 9,58.6534829 9,57 L9,57 Z"/>
    <path fill="#5B68C0" d="M41.815771,30.8073674 L38.2800778,6.98220896 C38.117616,5.88746518 37.0947324,5 35.9884451,5 L27.0177251,5 C25.9145531,5 24.8884231,5.888348 24.7260924,6.98220896 L21.1903992,30.8073674 L15.0428421,30.8073674 C13.9433053,30.8073674 13.676325,31.4513558 14.4385564,32.2375371 L30.1133982,48.4048925 C30.8791972,49.1947534 32.1245792,49.1910737 32.8870655,48.4048925 L48.56715,32.2375371 C49.3332052,31.4476762 49.0521643,30.8073674 47.9633281,30.8073674 L41.815771,30.8073674 Z" transform="matrix(1 0 0 -1 0 54)"/>
  </g>
</svg>
