<svg xmlns="http://www.w3.org/2000/svg" width="64" height="64" viewBox="0 0 64 64">
  <g fill="none" fill-rule="evenodd">
    <circle cx="17.875" cy="26" r="3" fill="#FFDD95"/>
    <circle cx="45.875" cy="26" r="3" fill="#FFDD95"/>
    <path fill="#5B68C0" d="M6,47.9206814 C6,45.707202 7.78708529,43.71554 9.97714269,43.4737721 L32,41.0425936 L54.0228573,43.4737721 C56.2193726,43.7162529 58,45.7006188 58,47.9206814 L58,60.0425936 L6,60.0425936 L6,47.9206814 Z"/>
    <path fill="#FFDD95" d="M23.9684201,37.5779909 C19.2430691,33.3280175 16.0639517,25.8669718 16.0639517,19.6898362 C16.0639517,10.4722942 23.1427991,3 31.875,3 C40.6072009,3 47.6860483,10.4722942 47.6860483,19.6898362 C47.6860483,25.8669718 44.5069309,33.3280175 39.7815799,37.5779909 L39.7815799,46.7332373 C39.7815799,46.7332373 34.4216801,48.8154815 31.875,48.8154815 C29.3283199,48.8154815 23.9684201,46.7332373 23.9684201,46.7332373 L23.9684201,37.5779909 Z"/>
    <path fill="#979797" fill-rule="nonzero" d="M25.5 30C22.4624339 30 20 27.5375661 20 24.5 20 21.4624339 22.4624339 19 25.5 19 28.5375661 19 31 21.4624339 31 24.5 31 27.5375661 28.5375661 30 25.5 30zM25.5 28C27.4329966 28 29 26.4329966 29 24.5 29 22.5670034 27.4329966 21 25.5 21 23.5670034 21 22 22.5670034 22 24.5 22 26.4329966 23.5670034 28 25.5 28zM38.6966991 30C35.659133 30 33.1966991 27.5375661 33.1966991 24.5 33.1966991 21.4624339 35.659133 19 38.6966991 19 41.7342653 19 44.1966991 21.4624339 44.1966991 24.5 44.1966991 27.5375661 41.7342653 30 38.6966991 30zM38.6966991 28C40.6296958 28 42.1966991 26.4329966 42.1966991 24.5 42.1966991 22.5670034 40.6296958 21 38.6966991 21 36.7637025 21 35.1966991 22.5670034 35.1966991 24.5 35.1966991 26.4329966 36.7637025 28 38.6966991 28z"/>
    <polygon fill="#979797" fill-rule="nonzero" points="26 21 38 21 38 19 26 19"/>
  </g>
</svg>
