<svg xmlns="http://www.w3.org/2000/svg" width="64" height="64" viewBox="0 0 64 64">
  <g fill="none" fill-rule="evenodd">
    <rect width="58" height="58" x="3" y="3" fill="#0A3586" rx="2"/>
    <path fill="#80D25B" d="M6,53.9637513 C6,51.7546617 7.78716697,49.7573872 9.96428975,49.5058858 L23,48 L36.0357102,49.5058858 C38.225127,49.7588074 40,51.7615527 40,53.9637513 L40,61 L6,61 L6,53.9637513 Z"/>
    <path fill="#FFDD95" d="M17,43.7205421 C13.9897907,40.8230175 12,36.1306601 12,32.1991826 C12,26.0140449 16.9248678,21 23,21 C29.0751322,21 34,26.0140449 34,32.1991826 C34,36.1306601 32.0102093,40.8230175 29,43.7205421 L29,50.5251179 C29,50.5251179 24.9325778,52 23,52 C21.0674222,52 17,50.5251179 17,50.5251179 L17,43.7205421 Z"/>
    <circle cx="14" cy="37" r="3" fill="#FFDD95"/>
    <circle cx="32" cy="37" r="3" fill="#FFDD95"/>
    <path fill="#FFAF40" d="M49.0145669,18.9864877 L49.0145669,13 L35,20 L49.0145669,27 L49.0145669,21.0135123 L61,27 L61,13 L49.0145669,18.9864877 Z" transform="rotate(90 48 20)"/>
  </g>
</svg>
