<svg xmlns="http://www.w3.org/2000/svg" width="64" height="64" viewBox="0 0 64 64">
  <g fill="none" fill-rule="evenodd">
    <path fill="#FF78C7" d="M6,24.904899 C6,23.8011519 6.89358348,22.8111018 7.99287235,22.6938803 L14.5,22 L21.0071277,22.6938803 C22.1077607,22.8112451 23,23.7936275 23,24.904899 L23,28 L6,28 L6,24.904899 Z"/>
    <path fill="#FFDD95" d="M11.5,18.9938107 C9.99489536,17.5917827 9,15.3212872 9,13.4189593 C9,10.4261507 11.4624339,8 14.5,8 C17.5375661,8 20,10.4261507 20,13.4189593 C20,15.3212872 19.0051046,17.5917827 17.5,18.9938107 L17.5,22.2863473 C17.5,22.2863473 15.4662889,23 14.5,23 C13.5337111,23 11.5,22.2863473 11.5,22.2863473 L11.5,18.9938107 Z"/>
    <path stroke="#979797" stroke-linecap="square" stroke-width="2" d="M31 13L58 13M33 19L58 19M31 25L58 25M31 41L58 41M33 47L58 47M31 53L58 53"/>
    <rect width="16" height="16" x="7" y="39" fill="#5EA7FF"/>
    <path stroke="#FFF" stroke-linecap="round" stroke-width="2" d="M10.0595737 42.1442933L19.9710655 52.0250532M10.0749397 52.0404192L19.9556996 42.1289274"/>
  </g>
</svg>
