<svg xmlns="http://www.w3.org/2000/svg" width="64" height="64" viewBox="0 0 64 64">
  <g fill="none" fill-rule="evenodd">
    <rect width="41" height="16" x="14" y="42" fill="#D8D8D8"/>
    <rect width="41" height="16" x="14" y="10" fill="#D8D8D8"/>
    <polygon fill="#979797" points="27 42 42 42 40 47 29 47"/>
    <rect width="41" height="16" x="14" y="26" fill="#D8D8D8"/>
    <polyline stroke="#979797" stroke-linecap="square" stroke-width="2" points="4 24.993 44.013 24.993 54 21" transform="matrix(-1 0 0 1 58 0)"/>
    <polyline stroke="#979797" stroke-linecap="square" stroke-width="2" points="4 40.993 44.013 40.993 54 37" transform="matrix(-1 0 0 1 58 0)"/>
    <polygon fill="#979797" points="31 4 55 4 55 10 27 10"/>
    <polygon fill="#979797" points="27 26 42 26 40 31 29 31"/>
    <rect width="3" height="3" x="18" y="58" fill="#979797"/>
    <rect width="3" height="3" x="48" y="58" fill="#979797"/>
  </g>
</svg>
