<svg xmlns="http://www.w3.org/2000/svg" width="64" height="64" viewBox="0 0 64 64">
  <g fill="none" fill-rule="evenodd">
    <rect width="58" height="58" x="3" y="4" fill="#5EA7FF"/>
    <polygon fill="#0A3586" points="6 7 58 7 58 59 6 59"/>
    <path fill="#5EA7FF" d="M36,17.76 C36.400002,18.3466696 36.6,19.1333284 36.6,20.12 C36.6,22.4400116 35.333346,26.0133092 32.8,30.84 C30.1599868,35.9333588 28.0000084,38.48 26.32,38.48 C25.8933312,38.48 25.5733344,38.2400024 25.36,37.76 C25.2799996,38.3733364 25.24,39.146662 25.24,40.08 C25.24,41.680008 25.3333324,43.5199896 25.52,45.6 C25.52,45.7866676 25.586666,46.0933312 25.72,46.52 C25.853334,46.9466688 25.92,47.2666656 25.92,47.48 C25.92,47.9866692 25.5733368,48.4133316 24.88,48.76 C24.5599984,48.9200008 24.133336,49 23.6,49 C22.7199956,49 21.8933372,48.800002 21.12,48.4 C20.2399956,47.9733312 19.733334,47.4133368 19.6,46.72 C19.5733332,46.5333324 19.56,46.373334 19.56,46.24 C19.56,45.839998 19.6999986,45.473335 19.98,45.14 C20.2600014,44.806665 20.4,44.5866672 20.4,44.48 L19.68,18.56 C19.68,18.4799996 19.6400004,18.3200012 19.56,18.08 C19.4799996,17.8399988 19.44,17.653334 19.44,17.52 C19.44,17.0399976 19.7866632,16.666668 20.48,16.4 C21.013336,16.1866656 21.5733304,16.08 22.16,16.08 C22.3466676,16.08 23.0933268,16.1599992 24.4,16.32 C24.5600008,16.32 25.3533262,16.0333362 26.78,15.46 C28.2066738,14.8866638 29.4666612,14.6 30.56,14.6 C32.693344,14.6 34.5066592,15.6533228 36,17.76 Z M30.04,19.36 C29.3999968,19.36 28.580005,19.6999966 27.58,20.38 C26.579995,21.0600034 25.7066704,21.8399956 24.96,22.72 L25.12,31.92 C26.2933392,31.0399956 27.5666598,29.2733466 28.94,26.62 C30.3133402,23.9666534 31,21.9466736 31,20.56 C31,19.759996 30.6800032,19.36 30.04,19.36 Z M48.64,42.64 C48.64,44.506676 47.97334,46.0999934 46.64,47.42 C45.30666,48.7400066 43.7333424,49.4 41.92,49.4 C40.7733276,49.4 39.5866728,48.8533388 38.36,47.76 C37.3999952,46.8799956 36.5333372,45.8000064 35.76,44.52 C35.09333,43.3999944 34.7999996,42.6933348 34.88,42.4 C35.1733348,41.73333 36.0933256,41.4 37.64,41.4 C38.2800032,41.4 38.7866648,41.4933324 39.16,41.68 C39.8000032,42.0266684 40.1599996,42.466664 40.24,43 C40.3200004,43.6133364 40.4533324,43.9999992 40.64,44.16 C41.2000028,45.0133376 41.7066644,45.44 42.16,45.44 C42.5066684,45.44 42.8333318,45.206669 43.14,44.74 C43.4466682,44.273331 43.6,43.7200032 43.6,43.08 C43.6,42.679998 43.533334,42.280002 43.4,41.88 C43.266666,41.479998 42.5466732,40.8666708 41.24,40.04 C39.6666588,39.0533284 38.54667,38.1866704 37.88,37.44 C36.7333276,36.1599936 36.16,34.6666752 36.16,32.96 C36.16,30.95999 36.7466608,29.2066742 37.92,27.7 C39.0933392,26.1933258 40.5866576,25.44 42.4,25.44 C44.266676,25.44 45.6933284,26.1466596 46.68,27.56 C47.480004,28.7066724 47.813334,29.8666608 47.68,31.04 C47.9733348,31.3600016 48.12,31.8933296 48.12,32.64 C48.12,33.440004 47.8266696,34.1199972 47.24,34.68 C46.6533304,35.2400028 46.0533364,35.52 45.44,35.52 C44.5333288,35.52 43.74667,34.920006 43.08,33.72 C42.8933324,33.3999984 42.8,32.973336 42.8,32.44 C42.8,32.1999988 42.8199998,31.8600022 42.86,31.42 C42.9000002,30.9799978 42.92,30.6666676 42.92,30.48 C42.92,29.7866632 42.6666692,29.44 42.16,29.44 C41.3866628,29.44 41,30.1999924 41,31.72 C41,33.2666744 41.5066616,34.506662 42.52,35.44 C42.920002,35.8133352 43.78666,36.3466632 45.12,37.04 C46.2666724,37.6266696 47.0799976,38.2266636 47.56,38.84 C48.2800036,39.773338 48.64,41.039992 48.64,42.64 Z"/>
  </g>
</svg>
