<svg xmlns="http://www.w3.org/2000/svg" width="64" height="64" viewBox="0 0 64 64">
  <g fill="none" fill-rule="evenodd">
    <circle cx="33" cy="32" r="29" fill="#5B68C0"/>
    <path fill="#FFF" fill-rule="nonzero" d="M18.8578644,19.2720779 L45.7279221,46.1421356 C46.5089706,46.9231842 47.7753006,46.9231842 48.5563492,46.1421356 C49.3373978,45.361087 49.3373978,44.0947571 48.5563492,43.3137085 L21.6862915,16.4436508 C20.9052429,15.6626022 19.638913,15.6626022 18.8578644,16.4436508 C18.0768158,17.2246994 18.0768158,18.4910294 18.8578644,19.2720779 Z"/>
    <path fill="#FFF" fill-rule="nonzero" d="M20.9791847,46.8492424 L47.8492424,19.9791847 C48.630291,19.1981361 48.630291,17.9318062 47.8492424,17.1507576 C47.0681938,16.369709 45.8018639,16.369709 45.0208153,17.1507576 L18.1507576,44.0208153 C17.369709,44.8018639 17.369709,46.0681938 18.1507576,46.8492424 C18.9318062,47.630291 20.1981361,47.630291 20.9791847,46.8492424 Z"/>
  </g>
</svg>
