<svg xmlns="http://www.w3.org/2000/svg" width="64" height="64" viewBox="0 0 64 64">
  <g fill="none" fill-rule="evenodd">
    <rect width="56" height="56" x="3" y="4" fill="#ECECEC"/>
    <path fill="#5B68C0" fill-rule="nonzero" d="M37 48L49 48 49 36 37 36 37 48zM35 35.9956222C35 34.8942632 35.896865 34 36.9956222 34L49.0043778 34C50.1057368 34 51 34.896865 51 35.9956222L51 48.0043778C51 49.1057368 50.103135 50 49.0043778 50L36.9956222 50C35.8942632 50 35 49.103135 35 48.0043778L35 35.9956222zM12.7171094 48L26.2828906 48 19.5 36.0283458 12.7171094 48zM20.3698879 33.5069874L28.8685764 48.5069874C29.2462776 49.1736218 28.7647971 50 27.9986885 50L11.0013115 50C10.2352029 50 9.75372241 49.1736218 10.1314236 48.5069874L18.6301121 33.5069874C19.0131101 32.8310042 19.9868899 32.8310042 20.3698879 33.5069874zM43 30C38.0294373 30 34 25.9705627 34 21 34 16.0294373 38.0294373 12 43 12 47.9705627 12 52 16.0294373 52 21 52 25.9705627 47.9705627 30 43 30zM43 28C46.8659932 28 50 24.8659932 50 21 50 17.1340068 46.8659932 14 43 14 39.1340068 14 36 17.1340068 36 21 36 24.8659932 39.1340068 28 43 28zM12.2846382 14.6589928L25.3410072 27.7153618C25.7205248 28.0948794 26.3358443 28.0948794 26.7153618 27.7153618 27.0948794 27.3358443 27.0948794 26.7205248 26.7153618 26.3410072L13.6589928 13.2846382C13.2794752 12.9051206 12.6641557 12.9051206 12.2846382 13.2846382 11.9051206 13.6641557 11.9051206 14.2794752 12.2846382 14.6589928z"/>
    <path fill="#5B68C0" fill-rule="nonzero" d="M13.6589928,27.7153618 L26.7153618,14.6589928 C27.0948794,14.2794752 27.0948794,13.6641557 26.7153618,13.2846382 C26.3358443,12.9051206 25.7205248,12.9051206 25.3410072,13.2846382 L12.2846382,26.3410072 C11.9051206,26.7205248 11.9051206,27.3358443 12.2846382,27.7153618 C12.6641557,28.0948794 13.2794752,28.0948794 13.6589928,27.7153618 Z"/>
  </g>
</svg>
