<svg xmlns="http://www.w3.org/2000/svg" width="64" height="64" viewBox="0 0 64 64">
  <g fill="none" fill-rule="evenodd">
    <polygon fill="#5B68C0" points="11 2 40.105 2 52 13.753 52 61 11 61"/>
    <rect width="33" height="18" x="11" y="25" fill="#5EA7FF"/>
    <polygon fill="#0A3586" points="40 2 52 2 52 14" transform="rotate(-180 46 8)"/>
    <path fill="#FFF" d="M23.768,34.136 C23.768,35.1253383 23.5580021,36.0259959 23.138,36.838 C22.671331,37.7153377 22.0973367,38.154 21.416,38.154 C21.0333314,38.154 20.6413353,37.8506697 20.24,37.244 L20.24,39.036 C20.24,39.1853341 20.3006661,39.3766655 20.422,39.61 C20.5433339,39.8433345 20.604,40.0206661 20.604,40.142 C20.604,40.2353338 20.5806669,40.3286662 20.534,40.422 C20.337999,40.8420021 19.9553362,41.052 19.386,41.052 C18.919331,41.052 18.6300006,40.8840017 18.518,40.548 C18.4806665,40.4359994 18.462,40.3286672 18.462,40.226 C18.462,40.1233328 18.492333,39.9856675 18.553,39.813 C18.613667,39.6403325 18.644,39.4933339 18.644,39.372 L18.644,31.406 C18.644,31.3033328 18.606667,31.1796674 18.532,31.035 C18.457333,30.8903326 18.42,30.7713338 18.42,30.678 C18.42,30.603333 18.4386665,30.5240004 18.476,30.44 C18.5880006,30.1786654 18.9333304,30.048 19.512,30.048 C19.8760018,30.048 20.1186661,30.1226659 20.24,30.272 C20.2866669,30.3280003 20.31,30.3979996 20.31,30.482 C20.31,30.5473337 20.2866669,30.6499993 20.24,30.79 C20.1933331,30.9300007 20.1653334,31.037333 20.156,31.112 C20.5853355,30.4959969 21.0893304,30.188 21.668,30.188 C22.4426705,30.188 23.0073316,30.6266623 23.362,31.504 C23.632668,32.1853367 23.768,33.0626613 23.768,34.136 Z M22.004,34.136 C22.004,33.2493289 21.9853335,32.6846679 21.948,32.442 C21.8546662,31.8353303 21.6213352,31.532 21.248,31.532 C21.0333323,31.532 20.8396675,31.8236637 20.667,32.407 C20.4943325,32.9903363 20.408,33.5666638 20.408,34.136 C20.408,34.5653355 20.5013324,35.0693304 20.688,35.648 C20.8746676,36.2640031 21.0613324,36.572 21.248,36.572 C21.4720011,36.572 21.6586659,36.2873362 21.808,35.718 C21.9386673,35.2233309 22.004,34.6960028 22.004,34.136 Z M29.466,36.124 C29.466,36.7773366 29.232669,37.3349977 28.766,37.797 C28.299331,38.2590023 27.7486698,38.49 27.114,38.49 C26.7126647,38.49 26.2973355,38.2986686 25.868,37.916 C25.5319983,37.6079985 25.228668,37.2300022 24.958,36.782 C24.7246655,36.389998 24.6219999,36.1426672 24.65,36.04 C24.7526672,35.8066655 25.074664,35.69 25.616,35.69 C25.8400011,35.69 26.0173327,35.7226663 26.148,35.788 C26.3720011,35.9093339 26.4979999,36.0633324 26.526,36.25 C26.5540001,36.4646677 26.6006663,36.5999997 26.666,36.656 C26.862001,36.9546682 27.0393325,37.104 27.198,37.104 C27.3193339,37.104 27.4336661,37.0223342 27.541,36.859 C27.6483339,36.6956659 27.702,36.5020011 27.702,36.278 C27.702,36.1379993 27.6786669,35.9980007 27.632,35.858 C27.5853331,35.7179993 27.3333356,35.5033348 26.876,35.214 C26.3253306,34.8686649 25.9333345,34.5653346 25.7,34.304 C25.2986647,33.8559978 25.098,33.3333363 25.098,32.736 C25.098,32.0359965 25.3033313,31.422336 25.714,30.895 C26.1246687,30.367664 26.6473302,30.104 27.282,30.104 C27.9353366,30.104 28.4346649,30.3513309 28.78,30.846 C29.0600014,31.2473353 29.1766669,31.6533313 29.13,32.064 C29.2326672,32.1760006 29.284,32.3626654 29.284,32.624 C29.284,32.9040014 29.1813344,33.141999 28.976,33.338 C28.7706656,33.534001 28.5606677,33.632 28.346,33.632 C28.0286651,33.632 27.7533345,33.4220021 27.52,33.002 C27.4546663,32.8899994 27.422,32.7406676 27.422,32.554 C27.422,32.4699996 27.4289999,32.3510008 27.443,32.197 C27.4570001,32.0429992 27.464,31.9333337 27.464,31.868 C27.464,31.6253321 27.3753342,31.504 27.198,31.504 C26.927332,31.504 26.792,31.7699973 26.792,32.302 C26.792,32.843336 26.9693316,33.2773317 27.324,33.604 C27.4640007,33.7346673 27.767331,33.9213321 28.234,34.164 C28.6353353,34.3693344 28.9199992,34.5793323 29.088,34.794 C29.3400013,35.1206683 29.466,35.5639972 29.466,36.124 Z M35.85,37.916 C35.7379994,38.1680013 35.3926696,38.294 34.814,38.294 C34.4499982,38.294 34.2073339,38.2193341 34.086,38.07 C34.0393331,38.0233331 34.016,37.9580004 34.016,37.874 C34.016,37.8086663 34.0393331,37.7060007 34.086,37.566 C34.1326669,37.4259993 34.1606666,37.318667 34.17,37.244 C33.7406645,37.8506697 33.2366696,38.154 32.658,38.154 C31.8833295,38.154 31.3186684,37.7153377 30.964,36.838 C30.693332,36.1659966 30.558,35.2933387 30.558,34.22 C30.558,33.2306617 30.7679979,32.3300041 31.188,31.518 C31.654669,30.6313289 32.2286633,30.188 32.91,30.188 C33.2926686,30.188 33.6846647,30.4959969 34.086,31.112 L34.086,29.306 C34.086,29.1566659 34.0253339,28.9653345 33.904,28.732 C33.7826661,28.4986655 33.722,28.3213339 33.722,28.2 C33.722,28.1066662 33.7453331,28.0133338 33.792,27.92 C33.988001,27.4999979 34.3706638,27.29 34.94,27.29 C35.406669,27.29 35.6959994,27.4579983 35.808,27.794 C35.8453335,27.9060006 35.864,28.0133328 35.864,28.116 C35.864,28.2186672 35.833667,28.3563325 35.773,28.529 C35.712333,28.7016675 35.682,28.8486661 35.682,28.97 L35.682,36.95 C35.682,37.0526672 35.719333,37.1763326 35.794,37.321 C35.868667,37.4656674 35.906,37.5846662 35.906,37.678 C35.906,37.752667 35.8873335,37.8319996 35.85,37.916 Z M33.918,34.22 C33.918,33.7906645 33.8293342,33.2866696 33.652,32.708 C33.455999,32.0919969 33.2646676,31.784 33.078,31.784 C32.8633323,31.784 32.6906673,32.0686638 32.56,32.638 C32.4573328,33.104669 32.406,33.6319971 32.406,34.22 C32.406,34.3226672 32.4013334,34.4906655 32.392,34.724 L32.392,35.242 C32.392,36.2966719 32.6206644,36.824 33.078,36.824 C33.2926677,36.824 33.4886658,36.5206697 33.666,35.914 C33.8340008,35.3539972 33.918,34.7893362 33.918,34.22 Z"/>
  </g>
</svg>
