<svg xmlns="http://www.w3.org/2000/svg" width="64" height="64" viewBox="0 0 64 64">
  <g fill="none" fill-rule="evenodd">
    <rect width="28" height="43" x="32" y="11" fill="#FFAF40"/>
    <path fill="#5DAF38" d="M41,16 C34.9248678,16 30,20.9248678 30,27 C30,33.0751322 34.9248678,38 41,38 C47.0751322,38 52,33.0751322 52,27 L41,27 L41,16 Z"/>
    <path fill="#FFDD95" d="M54,25 C54,18.9248678 49.0751322,14 43,14 L43,25 L54,25 Z"/>
    <rect width="24" height="4" x="32" y="44" fill="#FFF"/>
    <polygon fill="#F5413E" points="7 10 33 7 33 58 7 55"/>
    <path fill="#FFDD95" d="M25.45,25.368 C25.6700011,25.6906683 25.78,26.1233306 25.78,26.666 C25.78,27.9420064 25.0833403,29.9073201 23.69,32.562 C22.2379927,35.3633473 21.0500046,36.764 20.126,36.764 C19.8913322,36.764 19.7153339,36.6320013 19.598,36.368 C19.5539998,36.705335 19.532,37.1306641 19.532,37.644 C19.532,38.5240044 19.5833328,39.5359943 19.686,40.68 C19.686,40.7826672 19.7226663,40.9513322 19.796,41.186 C19.8693337,41.4206678 19.906,41.5966661 19.906,41.714 C19.906,41.9926681 19.7153352,42.2273324 19.334,42.418 C19.1579991,42.5060004 18.9233348,42.55 18.63,42.55 C18.1459976,42.55 17.6913355,42.4400011 17.266,42.22 C16.7819976,41.9853322 16.5033337,41.6773352 16.43,41.296 C16.4153333,41.1933328 16.408,41.1053337 16.408,41.032 C16.408,40.8119989 16.4849992,40.6103343 16.639,40.427 C16.7930008,40.2436658 16.87,40.122667 16.87,40.064 L16.474,25.808 C16.474,25.7639998 16.4520002,25.6760007 16.408,25.544 C16.3639998,25.4119993 16.342,25.3093337 16.342,25.236 C16.342,24.9719987 16.5326648,24.7666674 16.914,24.62 C17.2073348,24.5026661 17.5153317,24.444 17.838,24.444 C17.9406672,24.444 18.3513297,24.4879996 19.07,24.576 C19.1580004,24.576 19.5943294,24.4183349 20.379,24.103 C21.1636706,23.7876651 21.8566637,23.63 22.458,23.63 C23.6313392,23.63 24.6286626,24.2093275 25.45,25.368 Z M22.172,26.248 C21.8199982,26.248 21.3690027,26.4349981 20.819,26.809 C20.2689972,27.1830019 19.7886687,27.6119976 19.378,28.096 L19.466,33.156 C20.1113366,32.6719976 20.8116629,31.7003406 21.567,30.241 C22.3223371,28.7816594 22.7,27.6706705 22.7,26.908 C22.7,26.4679978 22.5240018,26.248 22.172,26.248 Z"/>
  </g>
</svg>
