<svg xmlns="http://www.w3.org/2000/svg" width="64" height="64" viewBox="0 0 64 64">
  <g fill="none" fill-rule="evenodd">
    <path fill="#595959" d="M0,34.0058389 C0,31.2411904 2.234375,29 5.00957977,29 L46.9904202,29 C49.7571347,29 52,31.2440262 52,34.0058389 L52,51.9941611 C52,54.7588096 49.765625,57 46.9904202,57 L5.00957977,57 C2.24286526,57 0,54.7559738 0,51.9941611 L0,34.0058389 Z"/>
    <path stroke="#979797" stroke-linecap="round" stroke-linejoin="round" stroke-width="2" d="M18 44L36 44M16 49L19 49M9 39L27 39"/>
    <polygon fill="#D650C7" points="6 23 46 23 48 29 4 29"/>
    <path stroke="#979797" stroke-linecap="round" stroke-linejoin="round" stroke-width="2" d="M56 55L63 55M55 51L60 51M56 39L60 39M56 33L61 33"/>
    <path fill="#D650C7" fill-rule="nonzero" d="M35.8303726,19 C36.9349421,19 37.8303726,18.1045695 37.8303726,17 C37.8303726,15.8954305 36.9349421,15 35.8303726,15 L15,15 L15,23.5626196 C15,24.6671891 15.8954305,25.5626196 17,25.5626196 C18.1045695,25.5626196 19,24.6671891 19,23.5626196 L19,19 L35.8303726,19 Z"/>
  </g>
</svg>
