<svg xmlns="http://www.w3.org/2000/svg" width="64" height="64" viewBox="0 0 64 64">
  <g fill="none" fill-rule="evenodd">
    <path fill="#56E287" d="M33,21 L33,33 L25,33 C25,30.2385763 22.7614237,28 20,28 C17.2385763,28 15,30.2385763 15,33 L7,33 L7,21 L5.82929429,21 C5.41745788,22.1651924 4.30621883,23 3,23 C1.34314575,23 0,21.6568542 0,20 C0,18.3431458 1.34314575,17 3,17 C4.30621883,17 5.41745788,17.8348076 5.82929429,19 L7,19 L7,7 L15,7 C15,9.76142375 17.2385763,12 20,12 C22.7614237,12 25,9.76142375 25,7 L33,7 L33,19 L34.1707057,19 C34.5825421,17.8348076 35.6937812,17 37,17 C38.6568542,17 40,18.3431458 40,20 C40,21.6568542 38.6568542,23 37,23 C35.6937812,23 34.5825421,22.1651924 34.1707057,21 L33,21 Z"/>
    <path fill="#6B6B6B" d="M63,21 L63,33 L55,33 C55,30.2385763 52.7614237,28 50,28 C47.2385763,28 45,30.2385763 45,33 L37,33 L37,21 L35.8292943,21 C35.4174579,22.1651924 34.3062188,23 33,23 C31.3431458,23 30,21.6568542 30,20 C30,18.3431458 31.3431458,17 33,17 C34.3062188,17 35.4174579,17.8348076 35.8292943,19 L37,19 L37,7 L45,7 C45,9.76142375 47.2385763,12 50,12 C52.7614237,12 55,9.76142375 55,7 L63,7 L63,19 L64.1707057,19 C64.5825421,17.8348076 65.6937812,17 67,17 C68.6568542,17 70,18.3431458 70,20 C70,21.6568542 68.6568542,23 67,23 C65.6937812,23 64.5825421,22.1651924 64.1707057,21 L63,21 Z" transform="rotate(-90 50 20)"/>
    <path fill="#4796E7" d="M33,44 L33,56 L21,56 L21,57.1707057 C22.1651924,57.5825421 23,58.6937812 23,60 C23,61.6568542 21.6568542,63 20,63 C18.3431458,63 17,61.6568542 17,60 C17,58.6937812 17.8348076,57.5825421 19,57.1707057 L19,56 L7,56 L7,48 C9.76142375,48 12,45.7614237 12,43 C12,40.2385763 9.76142375,38 7,38 L7,30 L15,30 C15,32.7614237 17.2385763,35 20,35 C22.7614237,35 25,32.7614237 25,30 L33,30 L33,42 L34.1707057,42 C34.5825421,40.8348076 35.6937812,40 37,40 C38.6568542,40 40,41.3431458 40,43 C40,44.6568542 38.6568542,46 37,46 C35.6937812,46 34.5825421,45.1651924 34.1707057,44 L33,44 Z" transform="rotate(-90 23.5 46.5)"/>
  </g>
</svg>
