<svg xmlns="http://www.w3.org/2000/svg" width="64" height="64" viewBox="0 0 64 64">
  <g fill="none" fill-rule="evenodd">
    <circle cx="32" cy="32" r="29" fill="#595959"/>
    <path fill="#FF78C7" d="M44,27 L44,39 L32,39 L32,40.1707057 C33.1651924,40.5825421 34,41.6937812 34,43 C34,44.6568542 32.6568542,46 31,46 C29.3431458,46 28,44.6568542 28,43 C28,41.6937812 28.8348076,40.5825421 30,40.1707057 L30,39 L18,39 L18,31 C20.7614237,31 23,28.7614237 23,26 C23,23.2385763 20.7614237,21 18,21 L18,13 L26,13 C26,15.7614237 28.2385763,18 31,18 C33.7614237,18 36,15.7614237 36,13 L44,13 L44,25 L45.1707057,25 C45.5825421,23.8348076 46.6937812,23 48,23 C49.6568542,23 51,24.3431458 51,26 C51,27.6568542 49.6568542,29 48,29 C46.6937812,29 45.5825421,28.1651924 45.1707057,27 L44,27 Z" transform="rotate(-90 34.5 29.5)"/>
  </g>
</svg>
