<svg xmlns="http://www.w3.org/2000/svg" width="64" height="64" viewBox="0 0 64 64">
  <g fill="none" fill-rule="evenodd">
    <path fill="#BD7575" d="M16,58.5 C16,56.5670034 17.5717012,55 19.4946613,55 L46.5053387,55 C48.4353869,55 50,56.5709366 50,58.5 L50,62 L16,62 L16,58.5 Z"/>
    <path fill="#9C4D4D" d="M28.0206123,23 L38.0206123,23 C38.0206123,23 39.9567516,34.7445573 41.0206123,39 C42.084473,43.2554427 43.7791256,43.1362122 44.0206123,47 C44.262099,50.8637878 42.0206123,55 42.0206123,55 L24.0206123,55 C24.0206123,55 21.762099,51.1362122 22.0206123,47 C22.2791256,42.8637878 24.0206123,42.8424077 25.0206123,39 C26.0206123,35.1575923 28.0206123,23 28.0206123,23 Z"/>
    <rect width="22" height="6" x="22" y="17" fill="#BD7575" rx="3"/>
    <path fill="#9C4D4D" d="M38,5 L42,5 L40,17 L26,17 L24,5 L28,5 L28,10 L31,10 L31,5 L35,5 L35,10 L38,10 L38,5 Z"/>
  </g>
</svg>
