<svg xmlns="http://www.w3.org/2000/svg" width="64" height="64" viewBox="0 0 64 64">
  <path fill="#E43535" fill-rule="evenodd" d="M55.9685027,26.769322 C56.6785404,34.5370847 54.338314,41.2367458 48.9315215,46.7685424 C47.7514461,47.976678 46.3657857,48.9761356 44.9502385,50.1778644 C45.3686536,50.7132881 45.7925027,51.382339 46.3368046,51.9269153 C47.51688,53.1085085 48.9858612,53.8114237 50.5345404,54.359661 C50.7084272,54.4209831 50.9647291,54.6058644 50.9683517,54.7394915 C51.0018612,56.0190169 50.9882762,57.3012881 50.9882762,58.6073559 C50.0735593,58.7455593 49.2276725,58.8727797 48.3817857,59 L46.8158989,59 C46.6248046,58.9597288 46.4300876,58.9286102 46.2417102,58.8764407 C45.1277479,58.5698305 43.9630687,58.3812881 42.911597,57.9227458 C40.8584649,57.0276271 39.4963517,55.3325763 38.4041253,53.4050508 C38.2012574,53.0471864 38.015597,52.9565763 37.5980876,53.0499322 C34.5686536,53.7299661 31.5256347,53.7821356 28.463597,53.2421356 C18.7232196,51.5242034 10.74888,43.1898983 9.36593663,33.245661 C9.22374795,32.2205763 9.119597,31.1909153 8.99733285,30.1630847 L8.99733285,28.4451525 C9.03446493,28.2291525 9.09333285,28.0140678 9.10510644,27.7962373 C9.29982342,24.2121017 10.2562008,20.8485424 11.9072196,17.6835932 C16.9752951,7.96725424 27.9899366,3.00383051 38.3878234,5.75233898 C47.9534083,8.28027119 55.0510687,16.7317288 55.9685027,26.769322 Z M44.6160498,34.7475932 C44.8044272,31.2256949 44.8388423,27.6735932 44.6178612,24.1553559 C44.3751442,20.3094576 42.8056347,16.9486441 40.0605781,14.2202712 C36.2278234,10.4100678 30.6924272,10.0192542 26.4693329,13.362678 C22.8186159,16.2530508 21.1304649,20.2472203 20.8189178,24.8353898 C20.639597,27.4804746 20.7645781,30.1484407 20.7618612,32.806339 C20.7582385,35.6381356 21.3940121,38.318 22.7026913,40.8129831 C24.3220121,43.9001356 26.6169555,46.2267119 29.9860121,47.2728475 C31.8091064,47.8384746 33.6358234,47.8540339 35.5395215,47.2582034 C34.170163,44.9371186 32.3362008,43.3949153 29.7351442,42.9134915 L29.7351442,38.1651525 C34.3576347,37.986678 38.2094083,39.6240678 41.4706913,42.969322 C43.3046536,40.4871525 44.4557479,37.7523729 44.6160498,34.7475932 Z"/>
</svg>
