<svg xmlns="http://www.w3.org/2000/svg" width="64" height="64" viewBox="0 0 64 64">
  <g fill="none" fill-rule="evenodd">
    <path fill="#979797" d="M46.2896121,10.085088 C46.2896121,6.7757011 48.9826463,4.09291293 52.2896121,4.09291293 L52.2896121,4.09291293 C55.6033206,4.09291293 58.2896121,6.78048636 58.2896121,10.085088 L58.2896121,31.0929129 L46.2896121,31.0929129 L46.2896121,10.085088 Z" transform="rotate(15 52.29 17.593)"/>
    <path fill="#979797" d="M7.28961207,10.085088 C7.28961207,6.7757011 9.9826463,4.09291293 13.2896121,4.09291293 L13.2896121,4.09291293 C16.6033206,4.09291293 19.2896121,6.78048636 19.2896121,10.085088 L19.2896121,31.0929129 L7.28961207,31.0929129 L7.28961207,10.085088 Z" transform="scale(-1 1) rotate(15 0 -83.352)"/>
    <ellipse cx="33" cy="38" fill="#D8D8D8" rx="26" ry="21"/>
    <path stroke="#979797" stroke-linecap="round" stroke-width="2" d="M20 31C20 33.209139 21.790861 35 24 35L24 35C26.209139 35 28 33.209139 28 31M38 31C38 33.209139 39.790861 35 42 35L42 35C44.209139 35 46 33.209139 46 31"/>
    <rect width="10" height="13" x="28" y="43" fill="#FFF" stroke="#979797" stroke-linecap="round" stroke-width="2"/>
    <path stroke="#979797" stroke-linecap="square" stroke-width="2" d="M33,55 L33,45"/>
    <path fill="#D8D8D8" stroke="#979797" stroke-linecap="round" stroke-width="2" d="M34 42C34 44.7614237 36.2385763 47 39 47L39 47C41.7614237 47 44 44.7614237 44 42M22 42C22 44.7614237 24.2385763 47 27 47L27 47C29.7614237 47 32 44.7614237 32 42"/>
    <path fill="#979797" d="M29,39 C29,41.209139 30.790861,43 33,43 C35.209139,43 37,41.209139 37,39 L29,39 Z"/>
  </g>
</svg>
