<?xml version="1.0" encoding="UTF-8"?>
<svg width="64px" height="64px" viewBox="0 0 64 64" version="1.1" xmlns="http://www.w3.org/2000/svg" xmlns:xlink="http://www.w3.org/1999/xlink">
    <!-- Generator: Sketch 43.2 (39069) - http://www.bohemiancoding.com/sketch -->
    <title>raceflag</title>
    <desc>Created with Sketch.</desc>
    <defs></defs>
    <g id="Outdoor-Activities-(142)" stroke="none" stroke-width="1" fill="none" fill-rule="evenodd">
        <rect id="Rectangle-79-Copy" fill="#595959" transform="translate(13.500000, 32.500000) rotate(-360.000000) translate(-13.500000, -32.500000) " x="12" y="3" width="3" height="59"></rect>
        <rect id="Rectangle-102" fill="#ECECEC" x="15" y="7" width="4" height="4"></rect>
        <rect id="Rectangle-102-Copy-10" fill="#ECECEC" x="15" y="15" width="4" height="4"></rect>
        <rect id="Rectangle-102-Copy-20" fill="#ECECEC" x="35" y="11" width="4" height="4"></rect>
        <rect id="Rectangle-102-Copy-30" fill="#ECECEC" x="35" y="19" width="4" height="4"></rect>
        <rect id="Rectangle-102-Copy-4" fill="#ECECEC" x="19" y="11" width="4" height="4"></rect>
        <rect id="Rectangle-102-Copy-11" fill="#ECECEC" x="19" y="19" width="4" height="4"></rect>
        <rect id="Rectangle-102-Copy-21" fill="#ECECEC" x="39" y="15" width="4" height="4"></rect>
        <rect id="Rectangle-102-Copy-31" fill="#ECECEC" x="39" y="23" width="4" height="4"></rect>
        <rect id="Rectangle-102-Copy-2" fill="#ECECEC" x="23" y="7" width="4" height="4"></rect>
        <rect id="Rectangle-102-Copy-12" fill="#ECECEC" x="23" y="15" width="4" height="4"></rect>
        <rect id="Rectangle-102-Copy-22" fill="#ECECEC" x="43" y="11" width="4" height="4"></rect>
        <rect id="Rectangle-102-Copy-32" fill="#ECECEC" x="43" y="19" width="4" height="4"></rect>
        <rect id="Rectangle-102-Copy-9" fill="#ECECEC" x="31" y="7" width="4" height="4"></rect>
        <rect id="Rectangle-102-Copy-13" fill="#ECECEC" x="31" y="15" width="4" height="4"></rect>
        <rect id="Rectangle-102-Copy-23" fill="#ECECEC" x="51" y="11" width="4" height="4"></rect>
        <rect id="Rectangle-102-Copy-33" fill="#ECECEC" x="51" y="19" width="4" height="4"></rect>
        <rect id="Rectangle-102-Copy-5" fill="#ECECEC" x="27" y="11" width="4" height="4"></rect>
        <rect id="Rectangle-102-Copy-14" fill="#ECECEC" x="27" y="19" width="4" height="4"></rect>
        <rect id="Rectangle-102-Copy-24" fill="#ECECEC" x="47" y="15" width="4" height="4"></rect>
        <rect id="Rectangle-102-Copy-34" fill="#ECECEC" x="47" y="23" width="4" height="4"></rect>
        <rect id="Rectangle-102-Copy" fill="#979797" x="19" y="7" width="4" height="4"></rect>
        <rect id="Rectangle-102-Copy-15" fill="#979797" x="19" y="15" width="4" height="4"></rect>
        <rect id="Rectangle-102-Copy-25" fill="#979797" x="39" y="11" width="4" height="4"></rect>
        <rect id="Rectangle-102-Copy-35" fill="#979797" x="39" y="19" width="4" height="4"></rect>
        <rect id="Rectangle-102-Copy-6" fill="#979797" x="23" y="11" width="4" height="4"></rect>
        <rect id="Rectangle-102-Copy-16" fill="#979797" x="23" y="19" width="4" height="4"></rect>
        <rect id="Rectangle-102-Copy-26" fill="#979797" x="43" y="15" width="4" height="4"></rect>
        <rect id="Rectangle-102-Copy-36" fill="#979797" x="43" y="23" width="4" height="4"></rect>
        <rect id="Rectangle-102-Copy-3" fill="#979797" x="27" y="7" width="4" height="4"></rect>
        <rect id="Rectangle-102-Copy-17" fill="#979797" x="27" y="15" width="4" height="4"></rect>
        <rect id="Rectangle-102-Copy-27" fill="#979797" x="47" y="11" width="4" height="4"></rect>
        <rect id="Rectangle-102-Copy-37" fill="#979797" x="47" y="19" width="4" height="4"></rect>
        <rect id="Rectangle-102-Copy-49" fill="#ECECEC" x="15" y="23" width="4" height="4"></rect>
        <rect id="Rectangle-102-Copy-48" fill="#ECECEC" x="35" y="27" width="4" height="4"></rect>
        <rect id="Rectangle-102-Copy-47" fill="#ECECEC" x="23" y="23" width="4" height="4"></rect>
        <rect id="Rectangle-102-Copy-46" fill="#ECECEC" x="43" y="27" width="4" height="4"></rect>
        <rect id="Rectangle-102-Copy-45" fill="#ECECEC" x="31" y="23" width="4" height="4"></rect>
        <rect id="Rectangle-102-Copy-44" fill="#ECECEC" x="51" y="27" width="4" height="4"></rect>
        <rect id="Rectangle-102-Copy-43" fill="#979797" x="19" y="23" width="4" height="4"></rect>
        <rect id="Rectangle-102-Copy-42" fill="#979797" x="39" y="27" width="4" height="4"></rect>
        <rect id="Rectangle-102-Copy-41" fill="#979797" x="27" y="23" width="4" height="4"></rect>
        <rect id="Rectangle-102-Copy-40" fill="#979797" x="47" y="27" width="4" height="4"></rect>
        <rect id="Rectangle-102-Copy-7" fill="#979797" x="31" y="11" width="4" height="4"></rect>
        <rect id="Rectangle-102-Copy-18" fill="#979797" x="31" y="19" width="4" height="4"></rect>
        <rect id="Rectangle-102-Copy-28" fill="#979797" x="51" y="15" width="4" height="4"></rect>
        <rect id="Rectangle-102-Copy-38" fill="#979797" x="51" y="23" width="4" height="4"></rect>
        <rect id="Rectangle-102-Copy-8" fill="#979797" x="15" y="11" width="4" height="4"></rect>
        <rect id="Rectangle-102-Copy-19" fill="#979797" x="15" y="19" width="4" height="4"></rect>
        <rect id="Rectangle-102-Copy-29" fill="#979797" x="35" y="15" width="4" height="4"></rect>
        <rect id="Rectangle-102-Copy-39" fill="#979797" x="35" y="23" width="4" height="4"></rect>
    </g>
</svg>