<svg xmlns="http://www.w3.org/2000/svg" width="64" height="64" viewBox="0 0 64 64">
  <g fill="none" fill-rule="evenodd">
    <circle cx="32" cy="24" r="11" fill="#0A3586"/>
    <rect width="60" height="37" x="2" y="20" fill="#5B68C0" rx="4"/>
    <rect width="2" height="2" x="5" y="24" fill="#5EA7FF"/>
    <rect width="2" height="2" x="9" y="24" fill="#5EA7FF"/>
    <rect width="2" height="2" x="13" y="24" fill="#5EA7FF"/>
    <rect width="2" height="2" x="17" y="24" fill="#5EA7FF"/>
    <rect width="2" height="2" x="5" y="36" fill="#5EA7FF"/>
    <rect width="2" height="2" x="5" y="28" fill="#5EA7FF"/>
    <rect width="2" height="2" x="5" y="32" fill="#5EA7FF"/>
    <rect width="2" height="2" x="9" y="36" fill="#5EA7FF"/>
    <rect width="2" height="2" x="9" y="28" fill="#5EA7FF"/>
    <rect width="2" height="2" x="9" y="32" fill="#5EA7FF"/>
    <rect width="2" height="2" x="13" y="36" fill="#5EA7FF"/>
    <rect width="2" height="2" x="13" y="28" fill="#5EA7FF"/>
    <rect width="2" height="2" x="13" y="32" fill="#5EA7FF"/>
    <rect width="2" height="2" x="17" y="36" fill="#5EA7FF"/>
    <rect width="2" height="2" x="17" y="28" fill="#5EA7FF"/>
    <rect width="2" height="2" x="17" y="32" fill="#5EA7FF"/>
    <rect width="2" height="2" x="44" y="24" fill="#5EA7FF"/>
    <rect width="2" height="2" x="48" y="24" fill="#5EA7FF"/>
    <rect width="2" height="2" x="52" y="24" fill="#5EA7FF"/>
    <rect width="2" height="2" x="56" y="24" fill="#5EA7FF"/>
    <rect width="2" height="2" x="44" y="36" fill="#5EA7FF"/>
    <rect width="2" height="2" x="44" y="28" fill="#5EA7FF"/>
    <rect width="2" height="2" x="44" y="32" fill="#5EA7FF"/>
    <rect width="2" height="2" x="48" y="36" fill="#5EA7FF"/>
    <rect width="2" height="2" x="48" y="28" fill="#5EA7FF"/>
    <rect width="2" height="2" x="48" y="32" fill="#5EA7FF"/>
    <rect width="2" height="2" x="52" y="36" fill="#5EA7FF"/>
    <rect width="2" height="2" x="52" y="28" fill="#5EA7FF"/>
    <rect width="2" height="2" x="52" y="32" fill="#5EA7FF"/>
    <rect width="2" height="2" x="56" y="36" fill="#5EA7FF"/>
    <rect width="2" height="2" x="56" y="28" fill="#5EA7FF"/>
    <rect width="2" height="2" x="56" y="32" fill="#5EA7FF"/>
    <rect width="42" height="9" x="11" y="43" fill="#80D25B"/>
    <path stroke="#FFF" stroke-linecap="square" stroke-width="2" d="M16 51L16 48M24 51L24 48"/>
    <path stroke="#5B68C0" stroke-linecap="square" stroke-width="2" d="M28,44 L28,48"/>
    <path stroke="#FFF" stroke-linecap="square" stroke-width="2" d="M32 51L32 48M40 51L40 48M48 51L48 48"/>
    <circle cx="32" cy="31" r="6" fill="#0A3586"/>
    <rect width="7" height="4" x="8" y="57" fill="#0A3586"/>
    <rect width="7" height="4" x="49" y="57" fill="#0A3586"/>
    <path stroke="#5B68C0" stroke-linecap="round" stroke-width="2" d="M37.0261475 35.5681517L35.240157 33.7821611M28.4588152 15.8906567L20.0335923 7.41583636"/>
  </g>
</svg>
