<?xml version="1.0" encoding="UTF-8"?>
<svg width="64px" height="64px" viewBox="0 0 64 64" version="1.1" xmlns="http://www.w3.org/2000/svg" xmlns:xlink="http://www.w3.org/1999/xlink">
    <!-- Generator: Sketch 43.2 (39069) - http://www.bohemiancoding.com/sketch -->
    <title>rake</title>
    <desc>Created with Sketch.</desc>
    <defs></defs>
    <g id="Outdoor-Activities-(142)" stroke="none" stroke-width="1" fill="none" fill-rule="evenodd">
        <rect id="Rectangle-69" fill="#9C4D4D" x="4" y="42" width="56" height="5"></rect>
        <path d="M6,47 L6,55.0024554 C6,55.553384 6.44386482,56 7,56 L7,56 C7.55228475,56 8,55.5536886 8,55.0024554 L8,47 L6,47 Z" id="Line" fill="#BD7575" fill-rule="nonzero"></path>
        <path d="M11,47 L11,55.0024554 C11,55.553384 11.4438648,56 12,56 L12,56 C12.5522847,56 13,55.5536886 13,55.0024554 L13,47 L11,47 Z" id="Line-Copy-23" fill="#BD7575" fill-rule="nonzero"></path>
        <path d="M16,47 L16,55.0024554 C16,55.553384 16.4438648,56 17,56 L17,56 C17.5522847,56 18,55.5536886 18,55.0024554 L18,47 L16,47 Z" id="Line-Copy-24" fill="#BD7575" fill-rule="nonzero"></path>
        <path d="M21,47 L21,55.0024554 C21,55.553384 21.4438648,56 22,56 L22,56 C22.5522847,56 23,55.5536886 23,55.0024554 L23,47 L21,47 Z" id="Line-Copy-25" fill="#BD7575" fill-rule="nonzero"></path>
        <path d="M26,47 L26,55.0024554 C26,55.553384 26.4438648,56 27,56 L27,56 C27.5522847,56 28,55.5536886 28,55.0024554 L28,47 L26,47 Z" id="Line-Copy-26" fill="#BD7575" fill-rule="nonzero"></path>
        <path d="M31,47 L31,55.0024554 C31,55.553384 31.4438648,56 32,56 L32,56 C32.5522847,56 33,55.5536886 33,55.0024554 L33,47 L31,47 Z" id="Line-Copy-27" fill="#BD7575" fill-rule="nonzero"></path>
        <path d="M36,47 L36,55.0024554 C36,55.553384 36.4438648,56 37,56 L37,56 C37.5522847,56 38,55.5536886 38,55.0024554 L38,47 L36,47 Z" id="Line-Copy-28" fill="#BD7575" fill-rule="nonzero"></path>
        <path d="M41,47 L41,55.0024554 C41,55.553384 41.4438648,56 42,56 L42,56 C42.5522847,56 43,55.5536886 43,55.0024554 L43,47 L41,47 Z" id="Line-Copy-29" fill="#BD7575" fill-rule="nonzero"></path>
        <path d="M46,47 L46,55.0024554 C46,55.553384 46.4438648,56 47,56 L47,56 C47.5522847,56 48,55.5536886 48,55.0024554 L48,47 L46,47 Z" id="Line-Copy-30" fill="#BD7575" fill-rule="nonzero"></path>
        <path d="M51,47 L51,55.0024554 C51,55.553384 51.4438648,56 52,56 L52,56 C52.5522847,56 53,55.5536886 53,55.0024554 L53,47 L51,47 Z" id="Line-Copy-31" fill="#BD7575" fill-rule="nonzero"></path>
        <path d="M56,47 L56,55.0024554 C56,55.553384 56.4438648,56 57,56 L57,56 C57.5522847,56 58,55.5536886 58,55.0024554 L58,47 L56,47 Z" id="Line-Copy-32" fill="#BD7575" fill-rule="nonzero"></path>
        <polygon id="Rectangle-70" fill="#BD7575" points="29 4 35 4 34 42 30 42"></polygon>
    </g>
</svg>