<svg xmlns="http://www.w3.org/2000/svg" width="64" height="64" viewBox="0 0 64 64">
  <g fill="none" fill-rule="evenodd">
    <rect width="6" height="11" x="26" y="46" fill="#D8D8D8"/>
    <rect width="14" height="1" x="22" y="58" stroke="#979797" stroke-width="2"/>
    <rect width="54" height="39" x="2" y="9" fill="#868686" rx="3"/>
    <rect width="48" height="33" x="5" y="12" fill="#5EA7FF"/>
    <circle cx="54" cy="11" r="9" fill="#FFAF40"/>
    <path fill="#C13F98" d="M15.3970949 32.4023464C14.9117512 32.1471861 14.1214595 32.1489704 13.6395097 32.4023464L11.688891 33.4278474C11.2035472 33.6830077 10.8858886 33.447965 10.9779328 32.9113061L11.3504679 30.7392601C11.4431603 30.1988219 11.1972498 29.4477613 10.8073442 29.0676973L9.22926044 27.5294458C8.83660911 27.1467054 8.96198603 26.7719619 9.50082228 26.6936644L11.6816804 26.3767672C12.2243112 26.2979183 12.8626217 25.8319531 13.1035966 25.3436846L14.078906 23.3674919C14.3215779 22.875785 14.7167237 22.8792234 14.9576986 23.3674919L15.933008 25.3436846C16.1756799 25.8353915 16.816088 26.2984697 17.3549242 26.3767672L19.5357824 26.6936644C20.0784131 26.7725133 20.1972498 27.1493818 19.8073442 27.5294458L18.2292604 29.0676973C17.8366091 29.4504378 17.5940925 30.2026011 17.6861368 30.7392601L18.0586718 32.9113061C18.1513642 33.4517443 17.8296635 33.6812234 17.3477137 33.4278474L15.3970949 32.4023464zM29.8760712 32.5549631C29.3890824 32.2989379 28.5961339 32.3007167 28.1125285 32.5549631L26.5199879 33.3922113C26.032999 33.6482365 25.7142595 33.4124216 25.8066199 32.873919L26.1107681 31.1005991C26.2037747 30.558329 25.9570484 29.8047399 25.5658034 29.4233702L24.277411 28.1674981C23.8834287 27.7834602 24.009206 27.4074501 24.5498934 27.3288836L26.3304078 27.0701597C26.874878 26.9910436 27.5153412 26.5235211 27.7571439 26.0335753L28.5534142 24.4201555C28.7969086 23.9267819 29.1933828 23.9302097 29.4351856 24.4201555L30.2314558 26.0335753C30.4749503 26.5269489 31.1175046 26.9915933 31.6581919 27.0701597L33.4387064 27.3288836C33.9831765 27.4079998 34.1024337 27.7861284 33.7111887 28.1674981L32.4227963 29.4233702C32.0288141 29.807408 31.7854712 30.5620965 31.8778317 31.1005991L32.1819798 32.873919C32.2749864 33.4161891 31.9522172 33.6464577 31.4686118 33.3922113L29.8760712 32.5549631zM44.3970949 32.4023464C43.9117512 32.1471861 43.1214595 32.1489704 42.6395097 32.4023464L40.688891 33.4278474C40.2035472 33.6830077 39.8858886 33.447965 39.9779328 32.9113061L40.3504679 30.7392601C40.4431603 30.1988219 40.1972498 29.4477613 39.8073442 29.0676973L38.2292604 27.5294458C37.8366091 27.1467054 37.961986 26.7719619 38.5008223 26.6936644L40.6816804 26.3767672C41.2243112 26.2979183 41.8626217 25.8319531 42.1035966 25.3436846L43.078906 23.3674919C43.3215779 22.875785 43.7167237 22.8792234 43.9576986 23.3674919L44.933008 25.3436846C45.1756799 25.8353915 45.816088 26.2984697 46.3549242 26.3767672L48.5357824 26.6936644C49.0784131 26.7725133 49.1972498 27.1493818 48.8073442 27.5294458L47.2292604 29.0676973C46.8366091 29.4504378 46.5940925 30.2026011 46.6861368 30.7392601L47.0586718 32.9113061C47.1513642 33.4517443 46.8296635 33.6812234 46.3477137 33.4278474L44.3970949 32.4023464z"/>
    <path stroke="#FFF" stroke-linecap="round" stroke-width="2" d="M56.4118179,5.82788278 L52,16"/>
  </g>
</svg>
