<svg xmlns="http://www.w3.org/2000/svg" width="64" height="64" viewBox="0 0 64 64">
  <g fill="none" fill-rule="evenodd">
    <path stroke="#E43535" stroke-linecap="round" stroke-width="4" d="M22.4307202,55.1031594 C25.3783008,56.3254096 28.6103709,57 32,57 L32,57 C35.3896291,57 38.6216992,56.3254096 41.5692798,55.1031594 C44.6249511,53.836088 47.3748853,51.9804537 49.6776695,49.6776695 M55.1031594,41.5692798 C56.3254096,38.6216992 57,35.3896291 57,32 C57,28.6103709 56.3254096,25.3783008 55.1031594,22.4307202 C53.836088,19.3750489 51.9804537,16.6251147 49.6776695,14.3223305 M41.5692798,8.89684061 C38.6216992,7.67459037 35.3896291,7 32,7 C28.6103709,7 25.3783008,7.67459037 22.4307202,8.89684061 C19.3750489,10.163912 16.6251147,12.0195463 14.3223305,14.3223305 M8.89684061,22.4307202 C7.67459037,25.3783008 7,28.6103709 7,32 C7,35.3896291 7.67459037,38.6216992 8.89684061,41.5692798 C10.163912,44.6249511 12.0195463,47.3748853 14.3223305,49.6776695"/>
    <polygon fill="#22BA8E" points="42 4 48 15 36 15" transform="rotate(117 42 9.5)"/>
    <polygon fill="#22BA8E" points="54 36 60 47 48 47" transform="rotate(-150 54 41.5)"/>
    <polygon fill="#22BA8E" points="22 49 28 60 16 60" transform="rotate(-68 22 54.5)"/>
    <polygon fill="#22BA8E" points="9 16 15 27 3 27" transform="rotate(21 9 21.5)"/>
    <circle cx="32" cy="32" r="13" fill="#ED9111"/>
  </g>
</svg>
