<svg xmlns="http://www.w3.org/2000/svg" width="64" height="64" viewBox="0 0 64 64">
  <g fill="none" fill-rule="evenodd">
    <path fill="#5EA7FF" d="M28.3214286,22 C25.7178005,22 24,24.9900983 24,28.6785714 C24,32.3670446 25.7178005,44 28.3214286,44 C29.8402925,44 30.0128203,34.3395704 32.0535714,34.3308234 C34.4871797,34.3395704 34.2668503,44 35.7857143,44 C38.3893424,44 40.1071429,32.3670446 40.1071429,28.6785714 C40.1071429,24.9900983 38.3893424,22 35.7857143,22 C34.5416667,22 33.297619,23.1785714 32.0535714,23.1785714 C30.8095238,23.1785714 29.5654762,22 28.3214286,22 Z"/>
    <path stroke="#B4DFFB" stroke-width="6" d="M8,32 C8,45.254834 18.745166,56 32,56 L32,56 C38.627417,56 44.627417,53.3137085 48.9705627,48.9705627 M56,32 C56,18.745166 45.254834,8 32,8 C25.372583,8 19.372583,10.6862915 15.0294373,15.0294373"/>
    <polygon fill="#80D25B" points="8 19 15 33 1 33"/>
    <polygon fill="#80D25B" points="56 46 49 32 63 32"/>
  </g>
</svg>
