<svg xmlns="http://www.w3.org/2000/svg" xmlns:xlink="http://www.w3.org/1999/xlink" width="64" height="64" viewBox="0 0 64 64">
  <defs>
    <circle id="recycle6-a" cx="18" cy="18" r="18"/>
  </defs>
  <g fill="none" fill-rule="evenodd">
    <g transform="rotate(-13 24.73 -32.746)">
      <path fill="#80D25B" d="M10.5044647,16 C13.2658885,16 15.5044647,13.6581048 15.5044647,10.7692308 C15.5044647,7.88035669 10.5044647,-1 10.5044647,-1 C10.5044647,-1 5.50446475,7.88035669 5.50446475,10.7692308 C5.50446475,13.6581048 7.743041,16 10.5044647,16 Z" transform="rotate(75 10.504 7.5)"/>
      <path stroke="#22BA8E" stroke-linecap="round" stroke-width="2" d="M7,8.47040899 C4.60798666,8.47040899 2.37943836,9.170286 0.507960627,10.3764345"/>
    </g>
    <g transform="rotate(52 25.91 53.124)">
      <path fill="#80D25B" d="M10.5044647,16 C13.2658885,16 15.5044647,13.6581048 15.5044647,10.7692308 C15.5044647,7.88035669 10.5044647,-1 10.5044647,-1 C10.5044647,-1 5.50446475,7.88035669 5.50446475,10.7692308 C5.50446475,13.6581048 7.743041,16 10.5044647,16 Z" transform="rotate(75 10.504 7.5)"/>
      <path stroke="#22BA8E" stroke-linecap="round" stroke-width="2" d="M7,8.47040899 C4.60798666,8.47040899 2.37943836,9.170286 0.507960627,10.3764345"/>
    </g>
    <g transform="rotate(119 24.262 38.047)">
      <path fill="#80D25B" d="M10.5044647,16 C13.2658885,16 15.5044647,13.6581048 15.5044647,10.7692308 C15.5044647,7.88035669 10.5044647,-1 10.5044647,-1 C10.5044647,-1 5.50446475,7.88035669 5.50446475,10.7692308 C5.50446475,13.6581048 7.743041,16 10.5044647,16 Z" transform="rotate(75 10.504 7.5)"/>
      <path stroke="#22BA8E" stroke-linecap="round" stroke-width="2" d="M7,8.47040899 C4.60798666,8.47040899 2.37943836,9.170286 0.507960627,10.3764345"/>
    </g>
    <g transform="rotate(-101 21.396 23.91)">
      <path fill="#80D25B" d="M10.5044647,16 C13.2658885,16 15.5044647,13.6581048 15.5044647,10.7692308 C15.5044647,7.88035669 10.5044647,-1 10.5044647,-1 C10.5044647,-1 5.50446475,7.88035669 5.50446475,10.7692308 C5.50446475,13.6581048 7.743041,16 10.5044647,16 Z" transform="rotate(75 10.504 7.5)"/>
      <path stroke="#22BA8E" stroke-linecap="round" stroke-width="2" d="M7,8.47040899 C4.60798666,8.47040899 2.37943836,9.170286 0.507960627,10.3764345"/>
    </g>
    <g transform="rotate(-173 22.569 31.445)">
      <path fill="#80D25B" d="M10.5044647,16 C13.2658885,16 15.5044647,13.6581048 15.5044647,10.7692308 C15.5044647,7.88035669 10.5044647,-1 10.5044647,-1 C10.5044647,-1 5.50446475,7.88035669 5.50446475,10.7692308 C5.50446475,13.6581048 7.743041,16 10.5044647,16 Z" transform="rotate(75 10.504 7.5)"/>
      <path stroke="#22BA8E" stroke-linecap="round" stroke-width="2" d="M7,8.47040899 C4.60798666,8.47040899 2.37943836,9.170286 0.507960627,10.3764345"/>
    </g>
    <g transform="translate(15 13)">
      <mask id="recycle6-b" fill="#fff">
        <use xlink:href="#recycle6-a"/>
      </mask>
      <use fill="#80D25B" xlink:href="#recycle6-a"/>
      <path fill="#22BA8E" d="M27.3232659 12.9977108C27.3232659 12.9977108 23.0673031 11.2150898 21.7996205 12.1064003 20.5319378 12.9977108 21.2091535 17.2063492 21.2091535 17.2063492 21.2091535 17.2063492 19.3198511 19.9853433 20.2645023 21.4469607 21.2091535 22.908578 23.8331847 22.4061524 25.3074348 23.6954046 26.781685 24.9846567 26.1691715 27.2985224 26.1691715 27.2985224L25.8125908 30C25.8125908 30 29.7613383 28.1839302 30.8991373 25.5675502 32.0369364 22.9511701 31.6683739 18.8492726 31.6683739 18.8492726L33.9732078 16.7046181 36 9.95878678 28.8876198 7.59804701 28.104005 4 23.0179377 5.47961481 22.5583129 9.40393893 26.4647379 10.7313818 27.3232659 12.9977108zM-1 15C-1 15 .513000503 14.0809276.714941762 14.0663022 2.26421148 13.9540984 7.66288946 14.2678893 9.07444031 12.3181705 10.6699813 10.1143136 12 7.19602072 12 7.19602072L11.9465585 4.95065079 3.60391089 3-1 15z" mask="url(#recycle6-b)"/>
    </g>
  </g>
</svg>
