<svg xmlns="http://www.w3.org/2000/svg" width="64" height="64" viewBox="0 0 64 64">
  <g fill="none" fill-rule="evenodd">
    <path stroke="#ED9111" stroke-linecap="round" stroke-width="4" d="M23.0032265,55.4461463 C25.9508071,56.6683965 29.1828772,57.3429869 32.5725063,57.3429869 L32.5725063,57.3429869 C35.9621354,57.3429869 39.1942055,56.6683965 42.141786,55.4461463 C45.1974574,54.1790749 47.9473916,52.3234406 50.2501758,50.0206564 M55.6756657,41.9122667 C56.8979159,38.9646861 57.5725063,35.732616 57.5725063,32.3429869 C57.5725063,28.9533578 56.8979159,25.7212877 55.6756657,22.7737071 C54.4085943,19.7180358 52.55296,16.9681016 50.2501758,14.6653174 M42.141786,9.23982751 C39.1942055,8.01757727 35.9621354,7.34298689 32.5725063,7.34298689 C29.1828772,7.34298689 25.9508071,8.01757727 23.0032265,9.23982751 C19.9475552,10.5068989 17.197621,12.3625331 14.8948368,14.6653174 M9.4693469,22.7737071 C8.24709665,25.7212877 7.57250628,28.9533578 7.57250628,32.3429869 C7.57250628,35.732616 8.24709665,38.9646861 9.4693469,41.9122667 C10.7364183,44.967938 12.5920525,47.7178722 14.8948368,50.0206564"/>
    <g transform="matrix(-1 0 0 1 47 13)">
      <path fill="#80D25B" d="M15.435675,31 C20.301337,31 25,26.2163013 25,21.3131203 C25,16.4099394 17.1226939,3 17.1226939,3 C17.1226939,3 7.62882483,15.3918301 7.05405343,20.6592359 C6.47928203,25.9266417 10.570013,31 15.435675,31 Z" transform="rotate(36 16 17)"/>
      <path stroke="#22BA8E" stroke-linecap="round" stroke-width="2" d="M22,10 C22,10 12.8859478,15.6488685 9.57160406,26.0527799 C8.71883296,28.7296763 7.43565096,30.6395938 6,32"/>
      <polyline stroke="#22BA8E" stroke-linecap="round" stroke-width="2" points="17 24 10.935 23.715 8 18"/>
      <polyline stroke="#22BA8E" stroke-linecap="round" stroke-width="2" points="19 18 14.459 17.197 13 14"/>
    </g>
    <polygon fill="#FFAF40" points="42.573 4.343 48.573 15.343 36.573 15.343" transform="rotate(117 42.573 9.843)"/>
    <polygon fill="#FFAF40" points="54.573 36.343 60.573 47.343 48.573 47.343" transform="rotate(-150 54.573 41.843)"/>
    <polygon fill="#FFAF40" points="22.573 49.343 28.573 60.343 16.573 60.343" transform="rotate(-68 22.573 54.843)"/>
    <polygon fill="#FFAF40" points="9.573 16.343 15.573 27.343 3.573 27.343" transform="rotate(21 9.573 21.843)"/>
  </g>
</svg>
