<svg xmlns="http://www.w3.org/2000/svg" width="64" height="64" viewBox="0 0 64 64">
  <g fill="none" fill-rule="evenodd">
    <g transform="matrix(-1 0 0 1 48.523 13)">
      <path fill="#80D25B" d="M15.435675,31 C20.301337,31 25,26.2163013 25,21.3131203 C25,16.4099394 17.1226939,3 17.1226939,3 C17.1226939,3 7.62882483,15.3918301 7.05405343,20.6592359 C6.47928203,25.9266417 10.570013,31 15.435675,31 Z" transform="rotate(36 16 17)"/>
      <path stroke="#22BA8E" stroke-linecap="round" stroke-width="2" d="M22,10 C22,10 12.8859478,15.6488685 9.57160406,26.0527799 C8.71883296,28.7296763 7.43565096,30.6395938 6,32"/>
      <polyline stroke="#22BA8E" stroke-linecap="round" stroke-width="2" points="17 24 10.935 23.715 8 18"/>
      <polyline stroke="#22BA8E" stroke-linecap="round" stroke-width="2" points="19 18 14.459 17.197 13 14"/>
    </g>
    <path stroke="#5EA7FF" stroke-linecap="round" stroke-width="4" d="M43.141786,9.23575965 C40.1942055,8.01613058 36.9621354,7.34298689 33.5725063,7.34298689 C27.3827305,7.34298689 21.718353,9.58766078 17.3522935,13.3057467 C15.9918638,14.4642729 14.7574874,15.7658521 13.6725467,17.1871518 M8.57250628,32.2893733 C8.57250628,39.1781277 11.3707266,45.4147242 15.8948368,49.9291322 C18.197621,52.226978 20.9475552,54.0786328 24.0032265,55.3429869 M43.141786,55.3429869 C46.1974574,54.0786328 48.9473916,52.226978 51.2501758,49.9291322 C55.774286,45.4147242 58.5725063,39.1781277 58.5725063,32.2893733 C58.5725063,28.9070134 57.8979159,25.6818746 56.6756657,22.7406153"/>
    <polygon fill="#B4DFFB" points="49.467 5.376 56.467 19.376 42.467 19.376" transform="rotate(118 49.467 12.376)"/>
    <polygon fill="#B4DFFB" points="40.573 48.343 47.573 62.343 33.573 62.343" transform="rotate(-105 40.573 55.343)"/>
    <polygon fill="#B4DFFB" points="8.573 21.343 15.573 35.343 1.573 35.343"/>
  </g>
</svg>
