<svg xmlns="http://www.w3.org/2000/svg" width="64" height="64" viewBox="0 0 64 64">
  <g fill="none" fill-rule="evenodd">
    <rect width="8" height="5" x="28" y="54" fill="#595959"/>
    <path stroke="#BD7575" stroke-linecap="round" stroke-width="2" d="M31.9804928,14.841429 C31.9804928,14.841429 29.0622049,7.01852621 39.3069451,1.22082595"/>
    <path fill="#E43535" d="M21.8952051,60.2346635 C24.5478192,60.2346635 31.7079005,58.3504817 33.6135423,55.1783517 C38.4528573,47.1228311 36,31.7362267 36,25 C36,15.6111593 28.3888407,8 19,8 C9.61115925,8 2,15.6111593 2,25 C2,34.3888407 12.5063644,60.2346635 21.8952051,60.2346635 Z"/>
    <path stroke="#FF78C7" stroke-linecap="round" stroke-width="2" d="M20.5,13 C13.0441559,13 7,19.0441559 7,26.5"/>
    <path fill="#E43535" d="M46.8952051,60.2346635 C49.5478192,60.2346635 56.7079005,58.3504817 58.6135423,55.1783517 C63.4528573,47.1228311 61,31.7362267 61,25 C61,15.6111593 53.3888407,8 44,8 C34.6111593,8 27,15.6111593 27,25 C27,34.3888407 37.5063644,60.2346635 46.8952051,60.2346635 Z" transform="matrix(-1 0 0 1 88.622 0)"/>
  </g>
</svg>
