<svg xmlns="http://www.w3.org/2000/svg" width="64" height="64" viewBox="0 0 64 64">
  <g fill="none" fill-rule="evenodd">
    <g stroke="#979797" stroke-linecap="round" stroke-width="2" transform="translate(44 9)">
      <polyline points="0 6.184 7.615 4.818 11.556 0"/>
      <polyline points="2 16.184 9.615 14.818 13.556 10"/>
      <polyline points="5.866 22.143 13 30.242 17.852 31.456"/>
    </g>
    <g stroke="#979797" stroke-linecap="round" stroke-width="2" transform="matrix(-1 0 0 1 22 9)">
      <polyline points="0 6.184 7.615 4.818 11.556 0"/>
      <polyline points="2 16.184 9.615 14.818 13.556 10"/>
      <polyline points="5.866 22.143 13 30.242 17.852 31.456"/>
    </g>
    <path fill="#E43535" d="M33,58 C42.9411255,58 53,47.254834 53,34 C53,20.745166 42.9411255,10 33,10 C23.0588745,10 13,20.745166 13,34 C13,47.254834 23.0588745,58 33,58 Z"/>
    <path fill="#595959" d="M33,25.0046594 C35.5873419,25.0046594 45,19.3137085 45,16 C45,12.6862915 39.627417,10 33,10 C26.372583,10 21,12.6862915 21,16 C21,19.3137085 30.4126581,25.0046594 33,25.0046594 Z"/>
    <ellipse cx="33" cy="10" fill="#979797" rx="8" ry="2"/>
    <path stroke="#595959" stroke-linecap="round" stroke-width="2" d="M33.0229615,57 L33.0229615,24.5017671"/>
    <circle cx="44" cy="29" r="2" fill="#D8D8D8"/>
    <circle cx="42" cy="43" r="2" fill="#D8D8D8"/>
    <circle cx="27" cy="43" r="2" fill="#D8D8D8"/>
    <circle cx="20" cy="32" r="2" fill="#D8D8D8"/>
  </g>
</svg>
