<svg xmlns="http://www.w3.org/2000/svg" width="64" height="64" viewBox="0 0 64 64">
  <g fill="none" fill-rule="evenodd">
    <polygon fill="#E43535" points="12 3 52 3 52 61 12 61"/>
    <path fill="#FFF" d="M32 26.3369209C31.0046326 24.9234484 29.3601578 24 27.5 24 24.4624339 24 22 26.4624339 22 29.5 22 32.8738479 25.0427104 33.3998739 27.2816714 35.7548128 29.9930341 38.6066239 31.9921985 41.2075357 32 41.2075357 32.007802 41.2075357 34.0073001 38.606334 36.7187818 35.7543361 38.9575652 33.399533 42 32.8737552 42 29.5 42 26.4624339 39.5375661 24 36.5 24 34.6398422 24 32.9953674 24.9234484 32 26.3369209zM18.6074519 6.84303296C18.2483779 6.33312958 17.6551415 6 16.9840985 6 15.8883112 6 15 6.88831117 15 7.98409853 15 9.20119793 16.0976431 9.39095927 16.9053375 10.2404921 17.8834486 11.2692693 18.6046375 12.2075357 18.6074519 12.2075357 18.6102664 12.2075357 19.3315757 11.2691647 20.3097297 10.2403202 21.1173601 9.3908363 22.2149038 9.20116449 22.2149038 7.98409853 22.2149038 6.88831117 21.3265926 6 20.2308052 6 19.5597623 6 18.9665259 6.33312958 18.6074519 6.84303296zM45.6074519 52.843033C45.2483779 52.3331296 44.6551415 52 43.9840985 52 42.8883112 52 42 52.8883112 42 53.9840985 42 55.2011979 43.0976431 55.3909593 43.9053375 56.2404921 44.8834486 57.2692693 45.6046375 58.2075357 45.6074519 58.2075357 45.6102664 58.2075357 46.3315757 57.2691647 47.3097297 56.2403202 48.1173601 55.3908363 49.2149038 55.2011645 49.2149038 53.9840985 49.2149038 52.8883112 48.3265926 52 47.2308052 52 46.5597623 52 45.9665259 52.3331296 45.6074519 52.843033z"/>
  </g>
</svg>
