<svg xmlns="http://www.w3.org/2000/svg" width="64" height="64" viewBox="0 0 64 64">
  <g fill="none" fill-rule="evenodd">
    <circle cx="32" cy="32" r="30" fill="#5B68C0"/>
    <path fill="#80D25B" fill-rule="nonzero" d="M46.1421356,46.1421356 C49.8667105,42.4175608 52,37.3738978 52,32 C52,20.954305 43.045695,12 32,12 L32,18 C39.7319865,18 46,24.2680135 46,32 C46,35.7662425 44.5100061,39.2889838 41.8994949,41.8994949 L46.1421356,46.1421356 Z M17.8578644,17.8578644 C14.1332895,21.5824392 12,26.6261022 12,32 C12,43.045695 20.954305,52 32,52 L32,46 C24.2680135,46 18,39.7319865 18,32 C18,28.2337575 19.4899939,24.7110162 22.1005051,22.1005051 L17.8578644,17.8578644 Z"/>
    <polygon fill="#80D25B" points="22 15.5 35 8 35 23"/>
    <polygon fill="#80D25B" points="29 48.5 42 41 42 56" transform="rotate(-180 35.5 48.5)"/>
  </g>
</svg>
