<svg xmlns="http://www.w3.org/2000/svg" width="64" height="64" viewBox="0 0 64 64">
  <g fill="none" fill-rule="evenodd">
    <path fill="#595959" d="M30.9999947,60.9830816 C15.7787233,60.4672853 3.53271484,48.2212769 3.01691839,33.0000056 L15.0289236,33 C15.5273479,41.5924965 22.4075035,48.4726521 31,48.9710764 L31,60.9830818 Z M33.0000053,60.9830816 C48.2212767,60.4672853 60.4672852,48.2212769 60.9830816,33.0000056 L48.9710764,33 C48.4726521,41.5924965 41.5924965,48.4726521 33,48.9710764 L33,60.9830818 Z M30.9999947,3.01691838 C15.7787233,3.53271467 3.53271484,15.7787231 3.01691839,30.9999944 L15.0289236,31 C15.5273479,22.4075035 22.4075035,15.5273479 31,15.0289236 L31,3.0169182 Z M33.0000053,3.01691838 C48.2212767,3.53271467 60.4672852,15.7787231 60.9830816,30.9999944 L48.9710764,31 C48.4726521,22.4075035 41.5924965,15.5273479 33,15.0289236 L33,3.0169182 Z" transform="rotate(45 32 32)"/>
    <path fill="#D8D8D8" d="M31.4438171,5.83427429 C31.7509885,5.37351732 32.2502179,5.37532687 32.5561829,5.83427429 L35.4438171,10.1657257 C35.7509885,10.6264827 35.5469637,11 35.0029699,11 L28.9970301,11 C28.4463856,11 28.2502179,10.6246731 28.5561829,10.1657257 L31.4438171,5.83427429 Z M58.1657257,31.4438171 C58.6264827,31.7509885 58.6246731,32.2502179 58.1657257,32.5561829 L53.8342743,35.4438171 C53.3735173,35.7509885 53,35.5469637 53,35.0029699 L53,28.9970301 C53,28.4463856 53.3753269,28.2502179 53.8342743,28.5561829 L58.1657257,31.4438171 Z M32.5561829,58.1657257 C32.2490115,58.6264827 31.7497821,58.6246731 31.4438171,58.1657257 L28.5561829,53.8342743 C28.2490115,53.3735173 28.4530363,53 28.9970301,53 L35.0029699,53 C35.5536144,53 35.7497821,53.3753269 35.4438171,53.8342743 L32.5561829,58.1657257 Z M5.83427429,32.5561829 C5.37351732,32.2490115 5.37532687,31.7497821 5.83427429,31.4438171 L10.1657257,28.5561829 C10.6264827,28.2490115 11,28.4530363 11,28.9970301 L11,35.0029699 C11,35.5536144 10.6246731,35.7497821 10.1657257,35.4438171 L5.83427429,32.5561829 Z"/>
  </g>
</svg>
