<svg xmlns="http://www.w3.org/2000/svg" width="64" height="64" viewBox="0 0 64 64">
  <g fill="none" fill-rule="evenodd">
    <rect width="17" height="6" x="2" y="31" fill="#D650C7" transform="matrix(1 0 0 -1 0 68)"/>
    <polygon fill="#D8D8D8" points="19 13 45 13 38.5 34.5 45 56 19 56 25.5 34.5" transform="matrix(1 0 0 -1 0 69)"/>
    <polygon fill="#E43535" points="24 34 14 41 14 27" transform="matrix(1 0 0 -1 0 68)"/>
    <rect width="17" height="6" x="46" y="31" fill="#D650C7" transform="matrix(1 0 0 -1 0 68)"/>
    <polygon fill="#E43535" points="50 34 40 41 40 27" transform="rotate(180 45 34)"/>
  </g>
</svg>
