<?xml version="1.0" encoding="UTF-8"?>
<svg width="64px" height="64px" viewBox="0 0 64 64" version="1.1" xmlns="http://www.w3.org/2000/svg" xmlns:xlink="http://www.w3.org/1999/xlink">
    <!-- Generator: Sketch 43.2 (39069) - http://www.bohemiancoding.com/sketch -->
    <title>resort</title>
    <desc>Created with Sketch.</desc>
    <defs></defs>
    <g id="Outdoor-Activities-(142)" stroke="none" stroke-width="1" fill="none" fill-rule="evenodd">
        <polyline id="Line-Copy-93" stroke="#979797" stroke-width="2" stroke-linecap="square" points="16 23.4453261 32 7.44532608 48 23.4453261"></polyline>
        <path d="M1,26.9932874 C1,25.8924252 1.90035102,25 2.99263021,25 L61.0073698,25 C62.1078691,25 63,25.8997127 63,26.9932874 L63,52.0067126 C63,53.1075748 62.099649,54 61.0073698,54 L2.99263021,54 C1.89213093,54 1,53.1002873 1,52.0067126 L1,26.9932874 Z" id="Rectangle-160-Copy" fill="#BD7575"></path>
        <rect id="Rectangle-162-Copy" fill="#FCC24C" x="3" y="27" width="58" height="25"></rect>
        <rect id="Rectangle-161-Copy-3" fill="#AB5F5F" x="10" y="22" width="10" height="3"></rect>
        <rect id="Rectangle-161-Copy-2" fill="#AB5F5F" x="44" y="22" width="10" height="3"></rect>
        <circle id="Oval-80-Copy" fill="#D8D8D8" cx="32" cy="9" r="3"></circle>
        <path d="M21.422,36.86 C21.3846665,37.056001 21.2073349,37.191333 20.89,37.266 C20.5166648,37.3593338 20.2786672,37.4666661 20.176,37.588 L17.894,40.22 L17.894,42.348 C17.894,42.5533344 17.9523327,42.760999 18.069,42.971 C18.1856673,43.1810011 18.244,43.3419994 18.244,43.454 C18.244,43.5660006 18.2113337,43.6919993 18.146,43.832 C17.9873325,44.1866684 17.6653358,44.364 17.18,44.364 C16.8439983,44.364 16.578001,44.2566677 16.382,44.042 C16.2513327,43.9019993 16.186,43.7246677 16.186,43.51 C16.186,43.435333 16.1953332,43.3140008 16.214,43.146 C16.2326668,42.9779992 16.242,42.8426672 16.242,42.74 L16.242,37.504 C16.242,37.4199996 16.204667,37.3173339 16.13,37.196 C16.055333,37.0746661 16.018,36.976667 16.018,36.902 C16.018,36.8459997 16.0366665,36.780667 16.074,36.706 C16.1953339,36.4819989 16.5733302,36.37 17.208,36.37 C17.7026691,36.37 17.9826663,36.4866655 18.048,36.72 C18.0760001,36.8133338 18.09,36.8926663 18.09,36.958 C18.09,37.0606672 18.052667,37.1399997 17.978,37.196 C17.903333,37.2520003 17.866,37.3079997 17.866,37.364 L17.894,37.868 L19.098,36.594 C19.2380007,36.4353325 19.3849992,36.2766675 19.539,36.118 C19.6930008,35.9593325 19.8726656,35.8706668 20.078,35.852 C20.3953349,35.8239999 20.7009985,35.8939992 20.995,36.062 C21.2890015,36.2300008 21.436,36.449332 21.436,36.72 C21.436,36.7666669 21.4313334,36.8133331 21.422,36.86 Z M26.49,42.53 C26.415333,42.8846684 26.1633355,43.2626647 25.734,43.664 C25.6686663,43.7666672 25.4120022,43.9019992 24.964,44.07 C24.4506641,44.266001 24.0073352,44.3500001 23.634,44.322 C22.9339965,44.2753331 22.3833353,43.8740038 21.982,43.118 C21.6179982,42.4179965 21.436,41.5593384 21.436,40.542 C21.436,39.4406612 21.6413313,38.4746708 22.052,37.644 C22.5093356,36.7293288 23.1206628,36.2160006 23.886,36.104 C24.0353341,36.0853332 24.1799993,36.076 24.32,36.076 C25.4306722,36.076 26.0419994,36.7573265 26.154,38.12 C26.2100003,38.7453365 25.9626694,39.426663 25.412,40.164 C24.8146637,40.9760041 24.049338,41.5453317 23.116,41.872 C23.2186672,42.2453352 23.2979997,42.4879994 23.354,42.6 C23.4846673,42.8333345 23.6619989,42.95 23.886,42.95 C24.1006677,42.95 24.3293321,42.8660008 24.572,42.698 C24.7773344,42.5579993 24.917333,42.4226673 24.992,42.292 C25.0293335,42.2733332 25.0666665,42.1683343 25.104,41.977 C25.1413335,41.7856657 25.2393325,41.6480004 25.398,41.564 C25.4540003,41.5359999 25.519333,41.522 25.594,41.522 C25.8180011,41.522 26.034999,41.6316656 26.245,41.851 C26.455001,42.0703344 26.5366669,42.2966655 26.49,42.53 Z M24.292,37.602 C23.9186648,37.602 23.6153345,37.8679973 23.382,38.4 C23.0739985,39.1093369 22.9479997,39.8093299 23.004,40.5 C23.4426689,40.3599993 23.8486648,40.0333359 24.222,39.52 C24.5953352,39.0066641 24.782,38.5493353 24.782,38.148 C24.782,37.7839982 24.6186683,37.602 24.292,37.602 Z M32.37,42.124 C32.37,42.7773366 32.136669,43.3349977 31.67,43.797 C31.203331,44.2590023 30.6526698,44.49 30.018,44.49 C29.6166647,44.49 29.2013355,44.2986686 28.772,43.916 C28.4359983,43.6079985 28.132668,43.2300022 27.862,42.782 C27.6286655,42.389998 27.5259999,42.1426672 27.554,42.04 C27.6566672,41.8066655 27.978664,41.69 28.52,41.69 C28.7440011,41.69 28.9213327,41.7226663 29.052,41.788 C29.2760011,41.9093339 29.4019999,42.0633324 29.43,42.25 C29.4580001,42.4646677 29.5046663,42.5999997 29.57,42.656 C29.766001,42.9546682 29.9433325,43.104 30.102,43.104 C30.2233339,43.104 30.3376661,43.0223341 30.445,42.859 C30.5523339,42.6956658 30.606,42.5020011 30.606,42.278 C30.606,42.1379993 30.5826669,41.9980007 30.536,41.858 C30.4893331,41.7179993 30.2373356,41.5033348 29.78,41.214 C29.2293306,40.8686649 28.8373345,40.5653346 28.604,40.304 C28.2026647,39.8559978 28.002,39.3333363 28.002,38.736 C28.002,38.0359965 28.2073313,37.422336 28.618,36.895 C29.0286687,36.367664 29.5513302,36.104 30.186,36.104 C30.8393366,36.104 31.3386649,36.3513309 31.684,36.846 C31.9640014,37.2473353 32.0806669,37.6533313 32.034,38.064 C32.1366672,38.1760006 32.188,38.3626654 32.188,38.624 C32.188,38.9040014 32.0853344,39.141999 31.88,39.338 C31.6746656,39.534001 31.4646677,39.632 31.25,39.632 C30.9326651,39.632 30.6573345,39.4220021 30.424,39.002 C30.3586663,38.8899994 30.326,38.7406676 30.326,38.554 C30.326,38.4699996 30.3329999,38.3510008 30.347,38.197 C30.3610001,38.0429992 30.368,37.9333337 30.368,37.868 C30.368,37.6253321 30.2793342,37.504 30.102,37.504 C29.831332,37.504 29.696,37.7699973 29.696,38.302 C29.696,38.843336 29.8733316,39.2773317 30.228,39.604 C30.3680007,39.7346673 30.671331,39.9213321 31.138,40.164 C31.5393353,40.3693344 31.8239992,40.5793323 31.992,40.794 C32.2440013,41.1206683 32.37,41.5639972 32.37,42.124 Z M37.844,36.776 C38.4693365,37.4106698 38.782,38.4793258 38.782,39.982 C38.782,41.1486725 38.5626689,42.1426626 38.124,42.964 C37.6293309,43.8880046 36.9480043,44.35 36.08,44.35 C35.221329,44.35 34.558669,43.9346708 34.092,43.104 C33.6813313,42.3759964 33.476,41.4520056 33.476,40.332 C33.476,39.3426617 33.6346651,38.4560039 33.952,37.672 C34.2880017,36.8319958 34.7173307,36.3373341 35.24,36.188 C35.510668,36.113333 35.7906652,36.076 36.08,36.076 C36.7986703,36.076 37.3866644,36.309331 37.844,36.776 Z M36.248,37.448 C35.9399985,37.4199999 35.6740011,37.7093303 35.45,38.316 C35.253999,38.8666694 35.156,39.4453303 35.156,40.052 C35.156,40.9293377 35.193333,41.5499982 35.268,41.914 C35.3986673,42.5673366 35.6693313,42.9266663 36.08,42.992 C36.3413346,43.0293335 36.5839989,42.6700038 36.808,41.914 C37.0226677,41.1859964 37.13,40.4066708 37.13,39.576 C37.13,38.2133265 36.8360029,37.5040003 36.248,37.448 Z M45.222,36.86 C45.1846665,37.056001 45.0073349,37.191333 44.69,37.266 C44.3166648,37.3593338 44.0786672,37.4666661 43.976,37.588 L41.694,40.22 L41.694,42.348 C41.694,42.5533344 41.7523328,42.760999 41.869,42.971 C41.9856673,43.1810011 42.044,43.3419994 42.044,43.454 C42.044,43.5660006 42.0113337,43.6919993 41.946,43.832 C41.7873325,44.1866684 41.4653358,44.364 40.98,44.364 C40.6439983,44.364 40.378001,44.2566677 40.182,44.042 C40.0513327,43.9019993 39.986,43.7246677 39.986,43.51 C39.986,43.435333 39.9953332,43.3140008 40.014,43.146 C40.0326668,42.9779992 40.042,42.8426672 40.042,42.74 L40.042,37.504 C40.042,37.4199996 40.004667,37.3173339 39.93,37.196 C39.855333,37.0746661 39.818,36.976667 39.818,36.902 C39.818,36.8459997 39.8366665,36.780667 39.874,36.706 C39.9953339,36.4819989 40.3733302,36.37 41.008,36.37 C41.5026691,36.37 41.7826663,36.4866655 41.848,36.72 C41.8760001,36.8133338 41.89,36.8926663 41.89,36.958 C41.89,37.0606672 41.852667,37.1399997 41.778,37.196 C41.703333,37.2520003 41.666,37.3079997 41.666,37.364 L41.694,37.868 L42.898,36.594 C43.0380007,36.4353325 43.1849992,36.2766675 43.339,36.118 C43.4930008,35.9593325 43.6726656,35.8706668 43.878,35.852 C44.1953349,35.8239999 44.5009985,35.8939992 44.795,36.062 C45.0890015,36.2300008 45.236,36.449332 45.236,36.72 C45.236,36.7666669 45.2313334,36.8133331 45.222,36.86 Z M50.066,37.644 C49.991333,37.644 49.8746675,37.613667 49.716,37.553 C49.5573325,37.492333 49.4360004,37.462 49.352,37.462 C49.2866663,37.462 49.2213337,37.4759999 49.156,37.504 L48.638,37.77 L48.638,42.558 C48.638,42.7353342 48.7336657,42.9639986 48.925,43.244 C49.1163343,43.5240014 49.1933335,43.7479992 49.156,43.916 C49.1093331,44.1213344 48.9716678,44.2846661 48.743,44.406 C48.5143322,44.5273339 48.2693346,44.588 48.008,44.588 C47.5133309,44.588 47.1726676,44.3686689 46.986,43.93 C46.9299997,43.7993327 46.8973334,43.3840035 46.888,42.684 C46.8786666,42.217331 46.8833332,41.4893383 46.902,40.5 C46.9206668,39.3799944 46.93,38.6706682 46.93,38.372 C46.8739997,38.3906668 46.7806673,38.4536661 46.65,38.561 C46.5193327,38.6683339 46.3886673,38.722 46.258,38.722 C46.1553328,38.722 46.0246675,38.6940003 45.866,38.638 C45.2126634,38.4139989 44.886,38.1853345 44.886,37.952 C44.886,37.8959997 44.8999999,37.8353337 44.928,37.77 C44.9933337,37.6206659 45.1146658,37.5366668 45.292,37.518 C45.562668,37.4806665 45.7259997,37.4480001 45.782,37.42 C45.9966677,37.3359996 46.3886638,37.1353349 46.958,36.818 L46.958,35.6 C46.958,35.5066662 46.9323336,35.3830008 46.881,35.229 C46.8296664,35.0749992 46.804,34.960667 46.804,34.886 C46.804,34.8019996 46.8273331,34.722667 46.874,34.648 C47.1166679,34.2746648 47.4433313,34.088 47.854,34.088 C48.3300024,34.088 48.665999,34.2746648 48.862,34.648 C48.936667,34.7973341 48.974,34.9186662 48.974,35.012 C48.974,35.1240006 48.9180006,35.2406661 48.806,35.362 C48.6939994,35.4833339 48.638,35.5953328 48.638,35.698 L48.638,36.384 C48.8060008,36.309333 48.9926656,36.1833342 49.198,36.006 C49.3566675,35.8753327 49.4919994,35.81 49.604,35.81 C49.6506669,35.81 49.7019997,35.8193332 49.758,35.838 C50.3460029,35.9966675 50.64,36.3513306 50.64,36.902 C50.64,37.0793342 50.5863339,37.2473325 50.479,37.406 C50.3716661,37.5646675 50.2340008,37.644 50.066,37.644 Z" id="resort" fill="#AB5F5F"></path>
    </g>
</svg>