<svg xmlns="http://www.w3.org/2000/svg" width="64" height="64" viewBox="0 0 64 64">
  <g fill="none" fill-rule="evenodd">
    <rect width="58" height="40" x="-6" y="13" fill="#D8D8D8" rx="2" transform="rotate(90 23 33)"/>
    <circle cx="23" cy="59" r="2" fill="#868686" transform="rotate(90 23 59)"/>
    <rect width="49" height="36" x="-1.5" y="13.5" fill="#595959" rx="1" transform="rotate(90 23 31.5)"/>
    <path fill="#595959" d="M44,18.9982456 C44,18.4469298 44.4547089,18 44.9999602,18 L60.0000398,18 C60.5523026,18 61,18.4555207 61,18.9982456 L61,46.0017544 C61,46.5530702 60.5452911,47 60.0000398,47 L44.9999602,47 C44.4476974,47 44,46.5444793 44,46.0017544 L44,18.9982456 Z"/>
    <rect width="15" height="21" x="45" y="21" fill="#B4DFFB"/>
    <rect width="22" height="36" x="12" y="14" fill="#B4DFFB"/>
    <rect width="7" height="6" x="49" y="23" fill="#FFAF40"/>
    <rect width="16" height="6" x="15" y="17" fill="#FFAF40"/>
    <rect width="7" height="6" x="49" y="31" fill="#BD7575"/>
    <rect width="16" height="6" x="15" y="25" fill="#BD7575"/>
    <rect width="7" height="3" x="49" y="39" fill="#80D25B"/>
    <rect width="16" height="6" x="15" y="33" fill="#80D25B"/>
    <circle cx="52.5" cy="44.5" r="1.5" fill="#868686"/>
  </g>
</svg>
