<svg xmlns="http://www.w3.org/2000/svg" width="64" height="64" viewBox="0 0 64 64">
  <g fill="none" fill-rule="evenodd">
    <path fill="#80D25B" d="M33.7203135,13.391114 C33.7203135,13.391114 37.4140661,8.47736381 42.4140661,7.97736381 L38.4140661,14.9773638 L34.9370783,16.7106748" transform="rotate(12 38.067 12.344)"/>
    <path fill="#80D25B" d="M20.5235046,13.002313 C20.5235046,13.002313 24.2172571,8.08856284 29.2172571,7.58856284 L25.2172571,14.5885628 L19.8398995,17.0425939" transform="scale(-1 1) rotate(12 0 -221.058)"/>
    <polyline fill="#80D25B" points="28.098 14.464 31.098 3.464 34.098 14.464"/>
    <path fill="#E43535" d="M30.0976,59.5628163 C38.9815805,59.5628163 53.1959494,41.5218823 53.1959494,28.7650162 C53.1959494,16.0081501 42.8544661,13.3661166 30.0976,13.3661166 C17.3407339,13.3661166 6.99925059,16.0081501 6.99925059,28.7650162 C6.99925059,41.5218823 21.2136195,59.5628163 30.0976,59.5628163 Z"/>
    <path stroke="#FF5656" stroke-linecap="round" stroke-linejoin="round" stroke-width="2" d="M42.0976,19 C42.0976,19 51.0976,19.5 49.0976,29.5"/>
    <circle cx="21.098" cy="23.464" r="1" fill="#FF5656"/>
    <circle cx="17.098" cy="29.464" r="1" fill="#FF5656"/>
    <circle cx="28.098" cy="25.464" r="1" fill="#FF5656"/>
    <circle cx="25.098" cy="32.464" r="1" fill="#FF5656"/>
    <circle cx="25.098" cy="41.464" r="1" fill="#FF5656"/>
    <circle cx="28.098" cy="47.464" r="1" fill="#FF5656"/>
    <circle cx="20.098" cy="35.464" r="1" fill="#FF5656"/>
    <circle cx="29.098" cy="39.464" r="1" fill="#FF5656"/>
  </g>
</svg>
