<svg xmlns="http://www.w3.org/2000/svg" width="64" height="64" viewBox="0 0 64 64">
  <g fill="none" fill-rule="evenodd">
    <rect width="60" height="42" x="2" y="11" fill="#5B68C0" rx="2" transform="rotate(90 32 32)"/>
    <circle cx="32" cy="58" r="2" fill="#0A3586" transform="rotate(90 32 58)"/>
    <rect width="49" height="38" x="7.5" y="10.5" fill="#ECECEC" rx="1" transform="rotate(90 32 29.5)"/>
    <path fill="#979797" d="M22,31 L42,31 L42,40.0049709 C42,42.7636493 39.763962,45 37.0047466,45 L26.9952534,45 C24.2364511,45 22,42.7661779 22,40.0049709 L22,31 Z"/>
    <rect width="20" height="11" x="22" y="20" fill="#D8D8D8"/>
    <path stroke="#979797" stroke-linecap="square" stroke-width="2" d="M21,19 L43,19"/>
    <path stroke="#979797" stroke-linecap="round" stroke-width="2" d="M38,19 C38,15.6862915 35.3137085,13 32,13 C28.6862915,13 26,15.6862915 26,19"/>
  </g>
</svg>
