<svg xmlns="http://www.w3.org/2000/svg" width="64" height="64" viewBox="0 0 64 64">
  <g fill="none" fill-rule="evenodd">
    <path stroke="#BD7575" stroke-linecap="square" stroke-width="2" d="M33.7387188,-5.13651742 L33.7387188,59.8943034 C33.7387188,61.5511252 32.3973074,62.8942445 30.7481199,62.8942445 L28.3803168,62.8942445 C26.7286546,62.8942445 25.3897179,61.5537567 25.3897179,59.8887545 L25.3897179,59.2942963" transform="rotate(45 29.564 28.879)"/>
    <circle cx="48.79" cy="15.556" r="9" fill="#FF5656" transform="rotate(45 48.79 15.556)"/>
    <circle cx="30.052" cy="34.295" r="9" fill="#E43535" transform="rotate(45 30.052 34.295)"/>
    <path fill="#FCC24C" d="M41.5270756,25.5236287 C47.6022079,25.5236287 52.5270756,27.3092188 52.5270756,24.547795 C52.5270756,21.7863713 47.6022079,19.547795 41.5270756,19.547795 C35.4519434,19.547795 30.5270756,21.7863713 30.5270756,24.547795 C30.5270756,27.3092188 35.4519434,25.5236287 41.5270756,25.5236287 Z" transform="rotate(45 41.527 22.82)"/>
    <path fill="#80D25B" d="M22.7887459,44.2619584 C28.8638782,44.2619584 33.7887459,46.0475485 33.7887459,43.2861247 C33.7887459,40.524701 28.8638782,38.2861247 22.7887459,38.2861247 C16.7136137,38.2861247 11.7887459,40.524701 11.7887459,43.2861247 C11.7887459,46.0475485 16.7136137,44.2619584 22.7887459,44.2619584 Z" transform="rotate(45 22.789 41.558)"/>
    <path fill="#9C4D4D" d="M26.7695526,26.5788299 C26.7695526,24.9210559 28.1128646,23.5771645 29.7637547,23.5771645 L43.7753505,23.5771645 C45.4290027,23.5771645 46.7695526,24.9161846 46.7695526,26.5788299 L46.7695526,28.575499 C46.7695526,30.2332731 45.4262407,31.5771645 43.7753505,31.5771645 L29.7637547,31.5771645 C28.1101026,31.5771645 26.7695526,30.2381443 26.7695526,28.575499 L26.7695526,26.5788299 Z" transform="rotate(45 36.77 27.577)"/>
    <path fill="#9C4D4D" d="M8.03122292,45.3171596 C8.03122292,43.6593856 9.37453489,42.3154942 11.025425,42.3154942 L25.0370208,42.3154942 C26.690673,42.3154942 28.0312229,43.6545143 28.0312229,45.3171596 L28.0312229,47.3138287 C28.0312229,48.9716028 26.687911,50.3154942 25.0370208,50.3154942 L11.025425,50.3154942 C9.37177285,50.3154942 8.03122292,48.976474 8.03122292,47.3138287 L8.03122292,45.3171596 Z" transform="rotate(45 18.031 46.315)"/>
  </g>
</svg>
