<svg xmlns="http://www.w3.org/2000/svg" xmlns:xlink="http://www.w3.org/1999/xlink" width="64" height="64" viewBox="0 0 64 64">
  <defs>
    <path id="restaurant2-copy-18-a" d="M1.43830283,6.82052555 C1.46091788,6.8647699 1.51773437,6.97963154 1.60386966,7.16018448 C1.75604925,7.47917652 1.92795154,7.85429332 2.11470267,8.28054908 C2.65524459,9.51432525 3.19822265,10.8953003 3.70497875,12.3824356 C5.13197904,16.5701353 5.98238389,20.7294899 5.98238389,24.4951865 C5.98238389,28.2608831 5.13197904,32.4202378 3.70497875,36.6079375 C3.19822265,38.0950727 2.65524459,39.4760478 2.11470267,40.709824 C1.92795154,41.1360797 1.75604925,41.5111965 1.60386966,41.8301886 C1.51773437,42.0107415 1.46091788,42.1256031 1.43830283,42.1698475 C0.432854333,44.1369185 1.21240342,46.5466217 3.17947445,47.5520702 C5.14654548,48.5575187 7.55624867,47.7779696 8.56169717,45.8108986 C8.7522282,45.4381415 9.0586983,44.7957326 9.44229229,43.9201869 C10.0694966,42.4886056 10.6942648,40.8996108 11.2774051,39.188317 C12.9643948,34.2376481 13.9823839,29.258634 13.9823839,24.4951865 C13.9823839,19.731739 12.9643948,14.752725 11.2774051,9.80205602 C10.6942648,8.09076221 10.0694966,6.50176747 9.44229229,5.07018611 C9.0586983,4.19464045 8.7522282,3.55223155 8.56169717,3.17947445 C7.55624867,1.21240342 5.14654548,0.432854333 3.17947445,1.43830283 C1.21240342,2.44375133 0.432854333,4.85345452 1.43830283,6.82052555 Z"/>
    <path id="restaurant2-copy-18-c" d="M1.43830283,6.82052555 C1.46091788,6.8647699 1.51773437,6.97963154 1.60386966,7.16018448 C1.75604925,7.47917652 1.92795154,7.85429332 2.11470267,8.28054908 C2.65524459,9.51432525 3.19822265,10.8953003 3.70497875,12.3824356 C5.13197904,16.5701353 5.98238389,20.7294899 5.98238389,24.4951865 C5.98238389,28.2608831 5.13197904,32.4202378 3.70497875,36.6079375 C3.19822265,38.0950727 2.65524459,39.4760478 2.11470267,40.709824 C1.92795154,41.1360797 1.75604925,41.5111965 1.60386966,41.8301886 C1.51773437,42.0107415 1.46091788,42.1256031 1.43830283,42.1698475 C0.432854333,44.1369185 1.21240342,46.5466217 3.17947445,47.5520702 C5.14654548,48.5575187 7.55624867,47.7779696 8.56169717,45.8108986 C8.7522282,45.4381415 9.0586983,44.7957326 9.44229229,43.9201869 C10.0694966,42.4886056 10.6942648,40.8996108 11.2774051,39.188317 C12.9643948,34.2376481 13.9823839,29.258634 13.9823839,24.4951865 C13.9823839,19.731739 12.9643948,14.752725 11.2774051,9.80205602 C10.6942648,8.09076221 10.0694966,6.50176747 9.44229229,5.07018611 C9.0586983,4.19464045 8.7522282,3.55223155 8.56169717,3.17947445 C7.55624867,1.21240342 5.14654548,0.432854333 3.17947445,1.43830283 C1.21240342,2.44375133 0.432854333,4.85345452 1.43830283,6.82052555 Z"/>
    <path id="restaurant2-copy-18-e" d="M1.43830283,6.82052555 C1.46091788,6.8647699 1.51773437,6.97963154 1.60386966,7.16018448 C1.75604925,7.47917652 1.92795154,7.85429332 2.11470267,8.28054908 C2.65524459,9.51432525 3.19822265,10.8953003 3.70497875,12.3824356 C5.13197904,16.5701353 5.98238389,20.7294899 5.98238389,24.4951865 C5.98238389,28.2608831 5.13197904,32.4202378 3.70497875,36.6079375 C3.19822265,38.0950727 2.65524459,39.4760478 2.11470267,40.709824 C1.92795154,41.1360797 1.75604925,41.5111965 1.60386966,41.8301886 C1.51773437,42.0107415 1.46091788,42.1256031 1.43830283,42.1698475 C0.432854333,44.1369185 1.21240342,46.5466217 3.17947445,47.5520702 C5.14654548,48.5575187 7.55624867,47.7779696 8.56169717,45.8108986 C8.7522282,45.4381415 9.0586983,44.7957326 9.44229229,43.9201869 C10.0694966,42.4886056 10.6942648,40.8996108 11.2774051,39.188317 C12.9643948,34.2376481 13.9823839,29.258634 13.9823839,24.4951865 C13.9823839,19.731739 12.9643948,14.752725 11.2774051,9.80205602 C10.6942648,8.09076221 10.0694966,6.50176747 9.44229229,5.07018611 C9.0586983,4.19464045 8.7522282,3.55223155 8.56169717,3.17947445 C7.55624867,1.21240342 5.14654548,0.432854333 3.17947445,1.43830283 C1.21240342,2.44375133 0.432854333,4.85345452 1.43830283,6.82052555 Z"/>
  </defs>
  <g fill="none" fill-rule="evenodd">
    <polygon fill="#9C4D4D" points="11.845 52.845 14.845 58.845 8.845 58.845" transform="rotate(20 11.845 55.845)"/>
    <polygon fill="#9C4D4D" points="11.226 5.226 14.226 11.226 8.226 11.226" transform="rotate(140 11.226 8.226)"/>
    <g transform="translate(9 7)">
      <mask id="restaurant2-copy-18-b" fill="#fff">
        <use xlink:href="#restaurant2-copy-18-a"/>
      </mask>
      <use fill="#BD7575" fill-rule="nonzero" xlink:href="#restaurant2-copy-18-a"/>
      <path stroke="#9C4D4D" stroke-linecap="round" stroke-width="2" d="M2.58794651 11.4233414L5.77917091 10.4195426M4.58794651 17.4233414L7.77917091 16.4195426M5.58794651 25.4233414L8.77917091 24.4195426M3.58794651 34.4233414L6.77917091 33.4195426" mask="url(#restaurant2-copy-18-b)"/>
    </g>
    <polygon fill="#9C4D4D" points="28.845 52.845 31.845 58.845 25.845 58.845" transform="rotate(20 28.845 55.845)"/>
    <polygon fill="#9C4D4D" points="28.226 5.226 31.226 11.226 25.226 11.226" transform="rotate(140 28.226 8.226)"/>
    <g transform="translate(26 7)">
      <mask id="restaurant2-copy-18-d" fill="#fff">
        <use xlink:href="#restaurant2-copy-18-c"/>
      </mask>
      <use fill="#BD7575" fill-rule="nonzero" xlink:href="#restaurant2-copy-18-c"/>
      <path stroke="#9C4D4D" stroke-linecap="round" stroke-width="2" d="M2.58794651 11.4233414L5.77917091 10.4195426M4.58794651 17.4233414L7.77917091 16.4195426M5.58794651 25.4233414L8.77917091 24.4195426M3.58794651 34.4233414L6.77917091 33.4195426" mask="url(#restaurant2-copy-18-d)"/>
    </g>
    <polygon fill="#9C4D4D" points="45.845 52.845 48.845 58.845 42.845 58.845" transform="rotate(20 45.845 55.845)"/>
    <polygon fill="#9C4D4D" points="45.226 5.226 48.226 11.226 42.226 11.226" transform="rotate(140 45.226 8.226)"/>
    <g transform="translate(43 7)">
      <mask id="restaurant2-copy-18-f" fill="#fff">
        <use xlink:href="#restaurant2-copy-18-e"/>
      </mask>
      <use fill="#BD7575" fill-rule="nonzero" xlink:href="#restaurant2-copy-18-e"/>
      <path stroke="#9C4D4D" stroke-linecap="round" stroke-width="2" d="M2.58794651 11.4233414L5.77917091 10.4195426M4.58794651 17.4233414L7.77917091 16.4195426M5.58794651 25.4233414L8.77917091 24.4195426M3.58794651 34.4233414L6.77917091 33.4195426" mask="url(#restaurant2-copy-18-f)"/>
    </g>
  </g>
</svg>
