<svg xmlns="http://www.w3.org/2000/svg" width="64" height="64" viewBox="0 0 64 64">
  <g fill="none" fill-rule="evenodd">
    <path fill="#9C4D4D" d="M19,9.99357759 C19,5.57884659 22.5878911,2 26.9952753,2 L37.0047247,2 C41.4203933,2 45,5.58204887 45,9.99357759 L45,43.9950767 C45,45.1023652 44.1050211,46 43.0029953,46 L20.9970047,46 C19.8940894,46 19,45.1011449 19,43.9950767 L19,9.99357759 Z"/>
    <path fill="#9C4D4D" d="M19,44 L24,44 L24,49.4906996 C24,50.876548 22.8903379,52 21.5,52 L21.5,52 C20.1192881,52 19,50.8876343 19,49.4906996 L19,44 Z"/>
    <path fill="#BD7575" d="M36 30L41 30 41 38.5039297C41 39.8824713 39.8903379 41 38.5 41L38.5 41C37.1192881 41 36 39.8847265 36 38.5039297L36 30zM22 22L27 22 27 27.4906996C27 28.876548 25.8903379 30 24.5 30L24.5 30C23.1192881 30 22 28.8876343 22 27.4906996L22 22zM27 2L32 2 32 14.5062169C32 15.8834953 30.8903379 17 29.5 17L29.5 17C28.1192881 17 27 15.8725621 27 14.5062169L27 2z"/>
    <rect width="6" height="16" x="29" y="46" fill="#ED9111"/>
  </g>
</svg>
