<svg xmlns="http://www.w3.org/2000/svg" width="64" height="64" viewBox="0 0 64 64">
  <g fill="none" fill-rule="evenodd">
    <g transform="rotate(30 17.286 94.368)">
      <path fill="#80D25B" d="M3,15.0000055 C1.34567043,15.003137 0,16.3461362 0,18.0023584 L0,49 L11,49 L11,18.0023584 C11,16.3452445 9.65739077,15.0031291 8,15.0000055 L8,5 L3,5 L3,15.0000051 Z"/>
      <rect width="5" height="6" x="3" fill="#595959"/>
    </g>
    <rect width="5" height="17" x="37.915" y="22.111" fill="#D8D8D8" transform="rotate(30 40.415 30.611)"/>
    <polygon fill="#595959" points="12 36 51 36 48 63 15 63"/>
    <path stroke="#979797" stroke-linecap="round" stroke-width="2" d="M21,43 C21,48.7989899 25.7010101,53.5 31.5,53.5 L31.5,53.5 C37.2989899,53.5 42,48.7989899 42,43"/>
    <path fill="#5EA7FF" d="M9,35 C9,33.8954305 9.89889206,33 10.9916575,33 L52.0083425,33 C53.1083045,33 54,33.8877296 54,35 L54,35 C54,36.1045695 53.1011079,37 52.0083425,37 L10.9916575,37 C9.89169545,37 9,36.1122704 9,35 L9,35 Z"/>
  </g>
</svg>
