<svg xmlns="http://www.w3.org/2000/svg" width="64" height="64" viewBox="0 0 64 64">
  <g fill="none" fill-rule="evenodd">
    <path stroke="#595959" stroke-linecap="round" stroke-linejoin="round" stroke-width="2" d="M36.5 58.7682763L36 61.2682763M36.5 58.7682763L34 60.7682763M37 59L39.5 60.5"/>
    <path stroke="#9C4D4D" stroke-linecap="round" stroke-linejoin="round" stroke-width="2" d="M34,13.2682763 C34,13.2682763 33.5,7.76827632 31,5.26827632"/>
    <path fill="#80D25B" d="M28.5 1.26827634C31.1281029 2.12301917 32.8600111 4.2461215 32.8600111 4.2461215 32.8600111 4.2461215 28.5 12.2682763 21 11.2682763 21 11.2682763 17 10.2682763 16 8.76827632 16 8.76827632 19 7.26827632 21.5 3.26827632 22.6700251 1.39623619 26.1879667.516329413 28.5 1.26827634zM36.5436893 59C44.0504719 59 49.5922324 56.8161388 49.5922324 43.8117123 49.5922324 33.0170386 43.3816167 17.3276591 37.132686 12.7991209 35.8534818 11.8720943 34.4438609 13.9477355 33.1682849 13.9477355 32.5105471 13.9477355 30.9296776 13.1284968 30.3365699 13.3734282 24.16052 15.9239065 22.4077676 31.9467224 22.4077676 43.8117123 22.4077676 56.8161388 29.0369067 59 36.5436893 59z"/>
  </g>
</svg>
