<svg xmlns="http://www.w3.org/2000/svg" width="64" height="64" viewBox="0 0 64 64">
  <g fill="none" fill-rule="evenodd">
    <path fill="#80D25B" d="M34.7607569,9.92664788 C34.7607569,9.92664788 38.4545095,5.01289771 43.4545095,4.51289771 L39.4545095,11.5128977 L35.9775217,13.2462087" transform="rotate(12 39.108 8.88)"/>
    <path fill="#80D25B" d="M21.563948,9.53784692 C21.563948,9.53784692 25.2577005,4.62409675 30.2577005,4.12409675 L26.2577005,11.1240967 L20.8803429,13.5781278" transform="scale(-1 1) rotate(12 0 -234.422)"/>
    <polyline fill="#80D25B" points="29.138 11 32.138 0 35.138 11"/>
    <path fill="#FF5656" d="M32,62 C35.8429387,62 44,27.627417 44,21 C44,14.372583 38.627417,9 32,9 C25.372583,9 20,14.372583 20,21 C20,27.627417 28.1570613,62 32,62 Z"/>
    <path stroke="#FCC24C" stroke-linecap="round" stroke-width="2" d="M25 23.3811665C25 23.3811665 28.7989707 20 32.5979413 20 36.396912 20 40.1958827 23.3811665 40.1958827 23.3811665M27 33.3811665C27 33.3811665 29.6754026 31 32.3508053 31 35.0262079 31 37.7016105 33.3811665 37.7016105 33.3811665M29.2471361 42.8811665C29.2471361 42.8811665 30.7989707 41.5 32.3508053 41.5 33.9026398 41.5 35.4544744 42.8811665 35.4544744 42.8811665"/>
  </g>
</svg>
