<svg xmlns="http://www.w3.org/2000/svg" width="64" height="64" viewBox="0 0 64 64">
  <g fill="none" fill-rule="evenodd">
    <path fill="#ECECEC" d="M10.8786038,54.5276117 C10.8786038,54.5276117 -6.21706647,39.6497981 7.15750575,31.998727 C20.532078,24.347656 23.7449686,31.2133903 25.4759988,20.3634084 C27.207029,9.51342647 28.175748,3.77923487 43.8915282,9.1918907 C59.6073084,14.6045465 54.8993998,20.1043706 58.2989621,28.1723691 C61.6985244,36.2403677 65.279002,46.7120722 56.3582347,52.0540066 C47.4374674,57.395941 49.7531828,60.6063647 44.7344289,60.5397549 C39.7156749,60.4731452 45.5896647,57.2076247 30.4133409,57.9633571 C15.2370171,58.7190895 10.8786038,54.5276117 10.8786038,54.5276117 Z"/>
    <circle cx="40" cy="25" r="11" fill="#FCC24C"/>
    <path stroke="#FFF" stroke-linecap="round" stroke-width="2" d="M40,17 C35.581722,17 32,20.581722 32,25"/>
  </g>
</svg>
