<svg xmlns="http://www.w3.org/2000/svg" width="64" height="64" viewBox="0 0 64 64">
  <g fill="none" fill-rule="evenodd">
    <path fill="#FCC24C" d="M51,48 C51,34.745166 40.254834,24 27,24 C13.745166,24 3,34.745166 3,48 L51,48 Z"/>
    <circle cx="37" cy="32" r="5" fill="#80D25B"/>
    <circle cx="17" cy="35" r="5" fill="#22BA8E"/>
    <circle cx="49" cy="27" r="5" fill="#80D25B"/>
    <circle cx="21" cy="27" r="6" fill="#80D25B"/>
    <circle cx="41" cy="26" r="6" fill="#22BA8E"/>
    <circle cx="30" cy="24" r="6" fill="#80D25B"/>
    <circle cx="28" cy="28" r="5" fill="#22BA8E"/>
    <circle cx="36" cy="23" r="5" fill="#80D25B"/>
    <path fill="#FFDD95" d="M63,48 C63,34.745166 52.254834,24 39,24 C25.745166,24 15,34.745166 15,48 L63,48 Z"/>
    <circle cx="27" cy="39" r="3" fill="#FCC24C"/>
    <circle cx="34" cy="32" r="2" fill="#FCC24C"/>
    <circle cx="41" cy="43" r="2" fill="#FCC24C"/>
  </g>
</svg>
