<svg xmlns="http://www.w3.org/2000/svg" width="64" height="64" viewBox="0 0 64 64">
  <g fill="none" fill-rule="evenodd">
    <polygon fill="#D8D8D8" points="54 11 64 11 64 14 54 17"/>
    <polygon fill="#D8D8D8" points="1 11 11 11 11 14 1 17" transform="matrix(-1 0 0 1 12 0)"/>
    <path fill="#979797" d="M11,8 L55,8 L55,32.0056985 C55,37.5253988 50.5184744,42 45.001964,42 L20.998036,42 C15.4762732,42 11,37.5201311 11,32.0056985 L11,8 Z"/>
    <path fill="#E43535" d="M33 56.1394421C35.7614237 56.1394421 38 53.9008658 38 51.1394421 38 48.3780183 33 43 33 43 33 43 28 48.3780183 28 51.1394421 28 53.9008658 30.2385763 56.1394421 33 56.1394421zM43 55.8836653C44.6568542 55.8836653 46 54.5405195 46 52.8836653 46 51.226811 43 48 43 48 43 48 40 51.226811 40 52.8836653 40 54.5405195 41.3431458 55.8836653 43 55.8836653zM23 55.8836653C24.6568542 55.8836653 26 54.5405195 26 52.8836653 26 51.226811 23 48 23 48 23 48 20 51.226811 20 52.8836653 20 54.5405195 21.3431458 55.8836653 23 55.8836653z"/>
    <rect width="24" height="3" x="21" y="58" fill="#D8D8D8"/>
    <path stroke="#979797" stroke-linecap="square" stroke-width="2" d="M20,62 L46,62"/>
  </g>
</svg>
