<svg xmlns="http://www.w3.org/2000/svg" width="64" height="64" viewBox="0 0 64 64">
  <g fill="none" fill-rule="evenodd">
    <ellipse cx="32" cy="50.5" fill="#D8D8D8" rx="29" ry="8.5"/>
    <ellipse cx="32" cy="44.5" fill="#ECECEC" rx="29" ry="8.5"/>
    <ellipse cx="32" cy="38.5" fill="#D8D8D8" rx="29" ry="8.5"/>
    <ellipse cx="32" cy="32.5" fill="#ECECEC" rx="29" ry="8.5"/>
    <ellipse cx="32" cy="26.5" fill="#D8D8D8" rx="29" ry="8.5"/>
    <path fill="#ED9111" d="M19.4753428,30.3130219 C19.4753428,30.3130219 11.2074379,30.8939501 11.2494593,27.7803079 C11.2914808,24.6666658 12.260923,24.179733 16.6278366,23.5737394 C20.9947501,22.9677458 24.137881,22.2655453 26.8578485,21.2544501 C29.577816,20.243355 32.8794488,23.9629908 32.8794488,23.9629908 C32.8794488,23.9629908 34.8581431,21.2271731 37.6064935,21.2408116 C40.3548439,21.2544501 42.5244779,22.6920261 45.9628647,22.932728 C49.4012516,23.1734298 52.8049892,23.4491495 53.3870232,24.314644 C53.9690572,25.1801384 54.8253364,26.9129704 50.0798612,28.0910455 C47.6484827,28.6946408 39.7474214,30.8628138 32.5487631,31.2736079 C25.3501048,31.6844019 19.4753428,30.3130219 19.4753428,30.3130219 Z" transform="rotate(2 32.549 26.215)"/>
    <path fill="#ED9111" d="M18 28L24 28 24 40.9905224C24 42.652611 22.6534829 44 21 44L21 44C19.3431458 44 18 42.6633689 18 40.9905224L18 28zM40 27L46 27 46 48.0089096C46 49.6608432 44.6534829 51 43 51L43 51C41.3431458 51 40 49.6582294 40 48.0089096L40 27zM30 28L34 28 34 39.9941413C34 41.1019465 33.1122704 42 32 42L32 42C30.8954305 42 30 41.1029399 30 39.9941413L30 28z"/>
  </g>
</svg>
