<svg xmlns="http://www.w3.org/2000/svg" width="64" height="64" viewBox="0 0 64 64">
  <g fill="none" fill-rule="evenodd">
    <path fill="#E43535" d="M9,17 L27,17 L27,59.9995558 C27,61.6566554 25.6470745,63 24.0074602,63 L11.9925398,63 C10.3398057,63 9,61.6482195 9,59.9995558 L9,17 Z"/>
    <rect width="18" height="12" x="9" y="34" fill="#D8D8D8"/>
    <rect width="22" height="3" x="7" y="14" fill="#FF5656"/>
    <polygon fill="#E43535" points="16 1 20 1 27 14 9 14"/>
    <path fill="#ED9111" d="M39,27 L57,27 L57,59.9925801 C57,61.6535323 55.6470745,63 54.0074602,63 L41.9925398,63 C40.3398057,63 39,61.6544607 39,59.9925801 L39,27 Z"/>
    <rect width="18" height="12" x="39" y="34" fill="#D8D8D8"/>
    <rect width="22" height="3" x="37" y="24" fill="#FCC24C"/>
    <polygon fill="#ED9111" points="46 11 50 11 57 24 39 24"/>
  </g>
</svg>
