<svg xmlns="http://www.w3.org/2000/svg" xmlns:xlink="http://www.w3.org/1999/xlink" width="64" height="64" viewBox="0 0 64 64">
  <defs>
    <path id="restaurant8-copy-5-a" d="M28.5,0 C28.5,0 20.5,2.5 17.5,5.5 C14.5,8.5 14.5,15.5 13,18.5 C11.5,21.5 3.5,24.5 2.5,28.5 C1.5,32.5 3.25438906,41.6836237 0,43.5 L13.5,51.5 C13.5,51.5 15.5505663,48.6613176 16,45.7489229 C16.4494337,42.8365282 15.5493818,38.3024729 16,36.5 C17,32.5 25,29.5 26.5,26.5 C28,23.5 28,16.5 31,13.5 C34,10.5 42,8 42,8 L42.5136986,8.06849313 L28.5,0 Z"/>
    <path id="restaurant8-copy-5-c" d="M28.5,0 C28.5,0 20.5,2.5 17.5,5.5 C14.5,8.5 14.5,15.5 13,18.5 C11.5,21.5 3.5,24.5 2.5,28.5 C1.5,32.5 3.25438906,41.6836237 0,43.5 L13.5,51.5 C13.5,51.5 15.5505663,48.6613176 16,45.7489229 C16.4494337,42.8365282 15.5493818,38.3024729 16,36.5 C17,32.5 25,29.5 26.5,26.5 C28,23.5 28,16.5 31,13.5 C34,10.5 42,8 42,8 L42.5136986,8.06849313 L28.5,0 Z"/>
  </defs>
  <g fill="none" fill-rule="evenodd">
    <g transform="translate(3 1)">
      <mask id="restaurant8-copy-5-b" fill="#fff">
        <use xlink:href="#restaurant8-copy-5-a"/>
      </mask>
      <use fill="#E43535" xlink:href="#restaurant8-copy-5-a"/>
      <path fill="#D8D8D8" d="M8.78501177,49.4805674 C8.78501177,49.4805674 10.8923077,46.4193548 10.8923077,42.2903226 C10.8923077,38.1612903 9.41538462,33 12.8615385,30.4193548 C16.3076923,27.8387097 19.5848904,26.2903226 21.2307692,23.7096774 C22.876648,21.1290323 23.2,12.3548387 25.1692308,10.2903226 C27.1384615,8.22580645 36,4.09677419 36,4.09677419 L30.5846154,1 C30.5846154,1 21.7230769,4.09677419 20.2461538,7.19354839 C18.7692308,10.2903226 17.7624617,18.3255745 15.8153846,21.1290323 C14.6407355,22.8203259 8.92307692,26.0322581 5.96923077,29.9032258 C3.30563756,33.3938218 6.2615401,39.4814451 3.80000164,45.6749935 C1.33846318,51.8685419 8.78501177,49.4805674 8.78501177,49.4805674 Z" mask="url(#restaurant8-copy-5-b)"/>
    </g>
    <g transform="translate(20 12)">
      <mask id="restaurant8-copy-5-d" fill="#fff">
        <use xlink:href="#restaurant8-copy-5-c"/>
      </mask>
      <use fill="#E43535" xlink:href="#restaurant8-copy-5-c"/>
      <path fill="#D8D8D8" d="M8.78501177,49.4805674 C8.78501177,49.4805674 10.8923077,46.4193548 10.8923077,42.2903226 C10.8923077,38.1612903 9.41538462,33 12.8615385,30.4193548 C16.3076923,27.8387097 19.5848904,26.2903226 21.2307692,23.7096774 C22.876648,21.1290323 23.2,12.3548387 25.1692308,10.2903226 C27.1384615,8.22580645 36,4.09677419 36,4.09677419 L30.5846154,1 C30.5846154,1 21.7230769,4.09677419 20.2461538,7.19354839 C18.7692308,10.2903226 17.7624617,18.3255745 15.8153846,21.1290323 C14.6407355,22.8203259 8.92307692,26.0322581 5.96923077,29.9032258 C3.30563756,33.3938218 6.2615401,39.4814451 3.80000164,45.6749935 C1.33846318,51.8685419 8.78501177,49.4805674 8.78501177,49.4805674 Z" mask="url(#restaurant8-copy-5-d)"/>
    </g>
  </g>
</svg>
