<svg xmlns="http://www.w3.org/2000/svg" width="64" height="64" viewBox="0 0 64 64">
  <g fill="none" fill-rule="evenodd">
    <path fill="#ED9111" d="M45.9471068,5.04711788 C45.9471068,5.04711788 49.178927,12.5880317 47.5630169,16.3584886 C46.7037117,18.3635342 46.0674297,26.6179415 41.0993779,33.0562254 C36.7250859,38.7250338 28.1450618,42.6939319 24.9402755,43.8289603 C18.09569,46.2530844 14.7061782,45.4448704 10.3970846,46.5221438 C6.08799096,47.5994172 1.77889735,49.2153274 1.77889735,49.2153274 C1.77889735,49.2153274 0.803141759,51.1111197 2.85617075,52.4471467 C9.6460651,56.865731 28.2750713,64.1243297 44.3311967,52.4471476 C68.0312116,35.2107731 57.7971142,20.1289455 55.1039307,15.8198519 C52.4107472,11.5107583 50.2562004,6.66302798 50.2562004,3.96984448 C50.2562004,1.27666097 45.9471068,5.04711788 45.9471068,5.04711788 Z"/>
    <path stroke="#FFDD95" stroke-linecap="round" stroke-linejoin="round" stroke-width="2" d="M10.3449314 50.900277C10.3449314 50.900277 25.8449314 51.900277 34.3449314 45.400277M37.3449314 42.900277L39.8449314 40.400277"/>
  </g>
</svg>
