<svg xmlns="http://www.w3.org/2000/svg" width="64" height="64" viewBox="0 0 64 64">
  <g fill="none" fill-rule="evenodd">
    <rect width="28" height="3" x="19" y="13" fill="#9C4D4D"/>
    <rect width="39" height="49" x="13" y="15" fill="#ED9111" rx="4"/>
    <rect width="27" height="31" x="19" y="24" fill="#ECECEC"/>
    <path stroke="#BD7575" stroke-linecap="round" stroke-linejoin="round" d="M36.1860465,41 C36.1860465,41 34.3953488,33.6829268 39,31 C39,31 29.7906977,33.4390244 28,39.7804878"/>
    <path fill="#80D25B" d="M37,29.4759937 C37,29.4759937 30.2758621,22.5452258 22,31.8751056 C22,31.8751056 25.6206897,35.6070575 37,29.4759936"/>
    <path fill="#E43535" d="M36,51 C39.3137085,51 42,48.3250556 42,45.0253444 C42,43.3754888 41.3284271,41.8818249 40.2426407,40.8006249 C39.1568542,39.7194249 37.6568542,40.0464647 36,40.0464647 C34.3431458,40.0464647 32.8431458,39.7194249 31.7573593,40.8006249 C30.6715729,41.8818249 30,43.3754888 30,45.0253444 C30,48.3250556 32.6862915,51 36,51 Z"/>
    <path fill="#FF5656" d="M27,50 C30.3137085,50 33,47.3250556 33,44.0253444 C33,42.3754888 32.3284271,40.8818249 31.2426407,39.8006249 C30.1568542,38.7194249 28.6568542,39.0464647 27,39.0464647 C25.3431458,39.0464647 23.8431458,38.7194249 22.7573593,39.8006249 C21.6715729,40.8818249 21,42.3754888 21,44.0253444 C21,47.3250556 23.6862915,50 27,50 Z"/>
    <rect width="34" height="7" x="16" y="6" fill="#FF5656" rx="3"/>
  </g>
</svg>
