<svg xmlns="http://www.w3.org/2000/svg" width="64" height="64" viewBox="0 0 64 64">
  <g fill="none" fill-rule="evenodd">
    <path fill="#ED9111" d="M61,38 C61,21.9837423 48.0162577,9 32,9 C15.9837423,9 3,21.9837423 3,38 L61,38 Z"/>
    <path stroke="#FFF" stroke-linecap="round" stroke-width="2" d="M32.4912342,14 C23.079198,14 14.9325824,19.4179091 11,27.3051145"/>
    <rect width="58" height="3" x="3" y="39" fill="#FCC24C"/>
    <circle cx="32" cy="4" r="3" fill="#FCC24C"/>
    <g transform="matrix(0 1 1 0 4 45)">
      <path fill="#FCC24C" d="M2,13.5 C2,12.1192881 3.11962422,11 4.50653076,11 L15,11 L15,16 L4.50653076,16 C3.12221205,16 2,14.8903379 2,13.5 L2,13.5 Z" transform="rotate(31 8.5 13.5)"/>
      <path fill="#FFDD95" d="M5.74754919,45 L5.72261255,33.7278318 C5.72261255,33.7278318 -2.07361885,19.2972435 0.533437164,17.1467274 C3.14049318,14.9962114 6.86640485,22.8939456 6.86640485,22.8939456 L8.80393538,19.7465907 L8.98743148,9.39428538 L6.33491838,4.25482498 C5.82680831,3.27032029 6.20643971,2.03932817 7.16474182,1.51522993 L8.09249696,1.0078379 C9.05890586,0.479306025 10.2606359,0.845765847 10.7776149,1.82820886 L14.4640841,8.83380412 L15.9704723,20.4872241 C15.9704723,20.4872241 18.8043877,24.9512976 15.0686802,44.5559449"/>
      <rect width="17" height="8" x="2" y="44" fill="#D8D8D8"/>
    </g>
  </g>
</svg>
