<svg xmlns="http://www.w3.org/2000/svg" width="64" height="64" viewBox="0 0 64 64">
  <g fill="none" fill-rule="evenodd">
    <rect width="18" height="8" y="44" fill="#ED9111"/>
    <rect width="42" height="8" x="18" y="44" fill="#ECECEC"/>
    <path fill="#E43535" d="M60,44 L64,44 C64,44 62,45.894979 62,46.9560956 C62,47.3198798 63.8455215,48.4474999 64,49.2198627 C64.1544785,49.9922255 62.0071135,52 62.0071135,52 L60,52 L60,44 Z"/>
    <rect width="3" height="8" x="18" y="44" fill="#325AA6"/>
    <path fill="#E43535" d="M26.2333333,14 C22.7907584,14 20,16.0782071 20,20.2962963 C20,24.5143855 29.4111111,34 31,34 C32.5888889,34 42,24.5143855 42,20.2962963 C42,16.0782071 39.2092416,14 35.7666667,14 C33.8544957,14 32.1434246,14.8697085 31,16.2388765 C29.8565754,14.8697085 28.1455043,14 26.2333333,14 Z"/>
  </g>
</svg>
