<svg xmlns="http://www.w3.org/2000/svg" width="64" height="64" viewBox="0 0 64 64">
  <g fill="none" fill-rule="evenodd">
    <g transform="rotate(-45 28.707 19.308)">
      <rect width="4" height="31" x="19" y="29" fill="#D8D8D8"/>
      <rect width="6" height="21" x="18" y="48" fill="#979797" rx="3"/>
      <circle cx="21" cy="21" r="21" fill="#979797"/>
      <circle cx="21" cy="21" r="17" fill="#595959"/>
    </g>
    <path fill="#FF5656" stroke="#E43535" stroke-linecap="round" stroke-width="2" d="M22.2408778,28.6451579 C22.7160215,29.368444 29.7553418,34.9414706 33.9632978,28.4230758 C38.1712537,21.904681 33.1951172,18.1559424 28.4715073,18.1579025 C23.7478974,18.1598626 20.8642862,18.2468922 19.517604,15.9739315 C18.1709218,13.7009709 16.6616993,18.5697982 16.6616993,18.5697982 C16.0439938,20.108923 16.8064297,21.831337 18.2610687,22.5930148 C18.2610687,22.5930148 19.5910525,22.5264325 20.6070271,25.1071328 C21.6230017,27.687833 21.7657341,27.9218719 22.2408778,28.6451579 Z"/>
    <circle cx="30.5" cy="23.5" r="2.5" fill="#D8D8D8"/>
  </g>
</svg>
