<svg xmlns="http://www.w3.org/2000/svg" width="64" height="64" viewBox="0 0 64 64">
  <g fill="none" fill-rule="evenodd">
    <polygon fill="#E43535" points="13 2 22 2 23 8 12 8"/>
    <path fill="#595959" d="M13,8 L22,8 L23.1393114,13.0501097 C23.3822602,14.1270044 24.055591,15.7491226 24.6567781,16.6945047 L28.0306471,22 L28.0306471,40 L26.4503969,47.090839 C25.9692532,49.249809 26.330063,52.6189194 27.2607085,54.6254883 L27.6081052,55.3745117 C28.5367717,57.3768136 27.9820616,60.2359554 26.3817424,61.7486574 L24.7244058,63.3152552 C24.3243275,63.6934293 23.5525106,64 23.0014977,64 L11.9985023,64 C11.4470447,64 10.671589,63.6872276 10.27001,63.3047714 L8.65139922,61.7632374 C7.04900068,60.2371435 6.50886846,57.3810806 7.44944763,55.3745117 L7.80055237,54.6254883 C8.73913138,52.6231864 9.10386757,49.2570173 8.61155432,47.090839 L7,40 L7,22 L10.4221379,16.6766744 C11.0174247,15.7506727 11.6869432,14.1275986 11.9178336,13.0501097 L13,8 Z"/>
    <rect width="21" height="18" x="7" y="22" fill="#FF5656"/>
    <path fill="#595959" d="M33.8125,37.1702955 L58.1875,37.1702955 L56.7473261,60.4346436 C56.6452495,62.0835736 55.2250104,63.4202955 53.5582372,63.4202955 L38.4417628,63.4202955 C36.7825543,63.4202955 35.354682,62.0824655 35.2526739,60.4346436 L33.8125,37.1702955 Z"/>
    <polygon fill="#ECECEC" points="33 24.42 59 24.42 58.188 37.17 33.813 37.17"/>
    <polyline stroke="#80D25B" stroke-width="2" points="45.533 57.643 50.761 8.699 61.56 1"/>
  </g>
</svg>
