<svg xmlns="http://www.w3.org/2000/svg" width="64" height="64" viewBox="0 0 64 64">
  <g fill="none" fill-rule="evenodd">
    <path fill="#FF78C7" d="M5.24041014,32.3787228 C5.24041014,32.3787228 11.2356469,33.1225248 8.87119856,28.4134295 C6.50675026,23.7043341 4.55767801,10.3320463 14.3709935,12.46428 C24.184309,14.5965137 31.2749537,16.1059084 31.5517211,13.0335657 C31.8284884,9.96122301 34.8328769,8 34.8328769,8 C34.8328769,8 35.4021626,14.5942636 39.9127955,14.6136148 C44.4234284,14.632966 55.1615519,12.0286527 57.8410199,15.2742562 C60.520488,18.5198598 49.6240726,30.3544012 57.0944231,33.1459263 C64.5647736,35.9374514 57.3752407,41.4769234 57.3752407,41.4769234 C57.3752407,41.4769234 62.3885552,47.0667239 51.4146169,47.8394224 C40.4406786,48.6121209 39.8416031,47.5788532 38.7853868,49.7385387 C37.7291706,51.8982241 34.5968105,56.9131969 30.4610511,53.7247469 C26.3252917,50.536297 29.8830164,47.0383722 23.7666828,47.4388973 C17.6503492,47.8394224 0.15235171,48.0630864 4.76514102,43.0250205 C9.37793034,37.9869545 8.10525052,35.9374514 8.10525052,35.9374514 L5.24041014,32.3787228 Z"/>
    <text fill="#FFF" font-family="MarkerFelt-Thin, Marker Felt" font-size="13" font-weight="300">
      <tspan x="21.17" y="29">Daily</tspan> <tspan x="18.31" y="43">offers</tspan>
    </text>
  </g>
</svg>
