<svg xmlns="http://www.w3.org/2000/svg" width="64" height="64" viewBox="0 0 64 64">
  <g fill="none" fill-rule="evenodd">
    <path fill="#9C4D4D" d="M58,29.9778555 L58.1902632,29.9778555 C59.2810247,29.9778555 59.4130081,29.5274723 58.4627644,28.9718965 L32,13.5 L5.90239785,28.9595271 C5.0095524,29.488425 5.06560881,29.9260216 6,29.9735731 L6,31 L58,31 L58,29.9778555 Z"/>
    <path fill="#BD7575" d="M4 40L60 40 60 45.9970707C60 46.5509732 59.5492312 47 59.004248 47L4.99575199 47C4.44581335 47 4 46.5621186 4 45.9970707L4 40zM4 31.0029293C4 30.4490268 4.45076883 30 4.99575199 30L59.004248 30C59.5541866 30 60 30.4378814 60 31.0029293L60 37 4 37 4 31.0029293z"/>
    <rect width="56" height="3" x="4" y="37" fill="#FCC24C"/>
  </g>
</svg>
