<svg xmlns="http://www.w3.org/2000/svg" width="64" height="64" viewBox="0 0 64 64">
  <g fill="none" fill-rule="evenodd">
    <path fill="#FCC24C" d="M22.9115148,61.1559068 C26.0898952,61.708892 32.5,59.46753 32.5,59.46753 C32.5,59.46753 38.9106669,61.7089718 42.0891359,61.1557936 C46.0171128,60.4721716 50.7170343,55.8416434 50.7170343,48.4269032 C50.7170343,41.9733936 45.517235,33.5525071 42.4380071,26.550753 C39.1165663,18.9982392 39.6764074,13.0968973 32.5,13.0968973 C25.3235926,13.0968973 25.8834337,18.9982392 22.5619929,26.550753 C19.482765,33.5525071 14.2829657,41.9733936 14.2829657,48.4269032 C14.2829657,55.8420527 18.9831624,60.4724391 22.9115148,61.1559068 Z"/>
    <path stroke="#FFF" stroke-linecap="round" stroke-linejoin="round" stroke-width="2" d="M18,49 C18,52.8659932 21.1340068,56 25,56 L25,56"/>
    <path fill="#93C927" d="M28.9672662,4.81447189 C30.4722533,5.75545156 31.4733296,7.42741074 31.4733296,9.33318383 C31.4733296,11.2389569 30.4722533,12.9109161 28.9672662,13.8518958 C27.4622792,12.9109161 26.4612029,11.2389569 26.4612029,9.33318383 C26.4612029,7.42741074 27.4622792,5.75545156 28.9672662,4.81447189 Z" transform="rotate(-45 28.967 9.333)"/>
    <path fill="#93C927" d="M37.0217946,1 C39.1492646,2.33018156 40.5643996,4.69368563 40.5643996,7.38771219 C40.5643996,10.0817388 39.1492646,12.4452428 37.0217946,13.7754244 C34.8943246,12.4452428 33.4791896,10.0817388 33.4791896,7.38771219 C33.4791896,4.69368563 34.8943246,2.33018156 37.0217946,1 Z" transform="rotate(-135 37.022 7.388)"/>
  </g>
</svg>
