<svg xmlns="http://www.w3.org/2000/svg" width="64" height="64" viewBox="0 0 64 64">
  <g fill="none" fill-rule="evenodd">
    <circle cx="17" cy="36" r="9" fill="#ED9111"/>
    <circle cx="25" cy="46" r="8" fill="#ED9111"/>
    <circle cx="51.5" cy="41.5" r="7.5" fill="#ED9111"/>
    <circle cx="54.5" cy="51.5" r="5.5" fill="#ED9111"/>
    <path stroke="#BD7575" stroke-linecap="round" stroke-width="2" d="M29.732689,25.2877827 C29.732689,25.2877827 9.29741559,20.3487052 7.28559942,7.31565664"/>
    <path fill="#80D25B" d="M20.5361648,2.69467385 C23.7219257,5.39679522 26.3740061,9.23958094 26.3740061,13.0159032 C26.3740061,16.7922254 22.7692533,19.8724415 19.3761378,21.0104349 C15.9830223,19.8724415 12.7847773,17.9301042 15.576566,12.3535993 C18.3683548,6.77709445 19.5202734,7.67155317 20.5361648,2.69467385 Z" transform="rotate(-27 20.443 11.853)"/>
    <path fill="#80D25B" d="M11.0045566,14.8043933 C14.1903175,17.5065147 16.8423979,21.3493004 16.8423979,25.1256226 C16.8423979,28.9019448 13.2376451,31.982161 9.84452959,33.1201544 C6.45141411,31.982161 3.25316909,30.0398237 6.04495782,24.4633188 C8.83674656,18.8868139 9.98866519,19.7812726 11.0045566,14.8043933 Z" transform="rotate(-123 10.91 23.962)"/>
    <circle cx="44" cy="29" r="7" fill="#ED9111"/>
    <circle cx="22.5" cy="27.5" r="7.5" fill="#FCC24C"/>
    <circle cx="43.5" cy="37.5" r="7.5" fill="#FCC24C"/>
    <circle cx="35.5" cy="28.5" r="7.5" fill="#ED9111"/>
    <circle cx="46.5" cy="51.5" r="6.5" fill="#FCC24C"/>
    <circle cx="38.5" cy="46.5" r="7.5" fill="#ED9111"/>
    <circle cx="34.739" cy="21.5" r="8.5" fill="#FCC24C"/>
    <circle cx="29.5" cy="38.5" r="7.5" fill="#FCC24C"/>
  </g>
</svg>
