<svg xmlns="http://www.w3.org/2000/svg" width="64" height="64" viewBox="0 0 64 64">
  <g fill="none" fill-rule="evenodd">
    <path fill="#595959" d="M33,62 C26.2974508,62 10,37.7025492 10,25 C10,12.2974508 20.2974508,2 33,2 C45.7025492,2 56,12.2974508 56,25 C56,37.7025492 39.7025492,62 33,62 Z M33,37 C40.1797017,37 46,31.1797017 46,24 C46,16.8202983 40.1797017,11 33,11 C25.8202983,11 20,16.8202983 20,24 C20,31.1797017 25.8202983,37 33,37 Z"/>
    <path stroke="#ED9111" stroke-linecap="round" stroke-width="2" d="M29,43 L29,13"/>
    <path fill="#ED9111" d="M26.7507425,10.4925753 C26.8884036,9.115964 28.1170893,8 29.504611,8 L30,8 L30,28 L25,28 L26.7507425,10.4925753 Z"/>
    <path stroke="#ED9111" stroke-linecap="round" stroke-width="2" d="M41,9 L41,14.9914698 C41,16.1007504 40.1017394,17 39.0020869,17 L36.9979131,17 C35.8944962,17 35,16.0980496 35,14.9914698 L35,9"/>
    <path stroke="#ED9111" stroke-linecap="round" stroke-linejoin="round" stroke-width="2" d="M38,43 L38,9"/>
  </g>
</svg>
