<svg xmlns="http://www.w3.org/2000/svg" width="64" height="64" viewBox="0 0 64 64">
  <g fill="none" fill-rule="evenodd">
    <path stroke="#979797" stroke-linecap="round" stroke-width="3" d="M44.3450292,15.0271964 C44.3450292,15.0271964 49.632262,13.0183654 50.6278432,15.4538009 C51.6234244,17.8892363 47.6905201,30.142977 47.6905201,30.142977"/>
    <ellipse cx="31.5" cy="9" stroke="#979797" stroke-linecap="round" stroke-width="2" rx="12.5" ry="6"/>
    <path fill="#D8D8D8" d="M18,9 L45,9 L43.1075287,44.0107193 C43.0481422,45.1093687 42.0983727,46 40.9991358,46 L22.0008642,46 C20.8958174,46 19.9515525,45.1037214 19.8924713,44.0107193 L18,9 Z"/>
    <path stroke="#979797" stroke-linecap="square" stroke-width="2" d="M25 17L38 17M25 22L38 22"/>
    <path fill="#595959" d="M20,48 L43,48 L45.1603436,58.0816033 C45.624073,60.2456741 44.2078053,62 41.9981215,62 L21.0018785,62 C18.791702,62 17.3738863,60.2551973 17.8396564,58.0816033 L20,48 Z"/>
    <circle cx="31" cy="55" r="3" fill="#80D25B"/>
  </g>
</svg>
