<svg xmlns="http://www.w3.org/2000/svg" width="64" height="64" viewBox="0 0 64 64">
  <g fill="none" fill-rule="evenodd">
    <path fill="#22BA8E" d="M16.8784282,37.8470399 C16.8784282,37.8470399 26.7480411,47.3054189 28.4210825,60.2666822 L39.1719246,60.2666822 C39.1719246,60.2666822 41.9577773,38.5844503 51.7985447,33.6163605 L45.6396518,32.6400499 C45.6396518,32.6400499 38.5487482,41.8321624 37.501511,46.0421322 L35.0116074,30.0773513 L31.4294661,30.3311609 L30.7544571,46.511135 C30.7544571,46.511135 23.9459751,36.1150617 19.2411544,35.2228353 C14.5363337,34.3306088 16.8784282,37.8470399 16.8784282,37.8470399 Z"/>
    <path fill="#80D25B" d="M20.7404624,39.5081165 C19.5926864,39.7461267 18.4520386,39.3993734 17.6239014,38.6693207 C17.1717316,39.6648661 16.2742654,40.4342557 15.1264893,40.6722658 C13.5639888,40.9962759 12.0146987,40.2365932 11.2490479,38.9014782 C10.701345,39.6911252 9.86535866,40.2778197 8.85199288,40.4879577 C6.72039105,40.9299802 4.61114008,39.5384841 4.14084898,37.379964 C4.04345562,36.9329525 4.02398998,36.488101 4.07328448,36.0597599 C2.61500138,35.8454519 1.3643772,34.7357315 1.02924671,33.1975653 C0.719500246,31.7759054 1.27679284,30.3782776 2.34428687,29.5632596 C1.82405153,29.0343187 1.44118554,28.3555377 1.27155269,27.5769648 C0.821935362,25.5133322 2.03312564,23.4957328 4.00314691,22.936081 C3.90510197,22.7131866 3.82771832,22.4773214 3.77392356,22.2304167 C3.3463862,20.2681257 4.57071206,18.35162 6.5085319,17.9497813 C6.48282199,17.7156389 6.40678304,17.4827791 6.35370693,17.2391729 C5.92616957,15.2768819 7.15049542,13.3603761 9.08831527,12.9585374 C10.2360913,12.7205272 11.3767391,13.0672805 12.2048763,13.7973332 C12.6570461,12.8017878 13.5545123,12.0323983 14.7022884,11.7943881 C16.6401083,11.3925494 18.5576091,12.6575459 18.9851465,14.6198368 C19.0382226,14.8634431 19.0658407,15.1063437 19.0697962,15.3457284 C21.0777913,14.9286066 22.9952922,16.1936031 23.4228296,18.155894 C23.4766243,18.4027987 23.504267,18.6489785 23.5076269,18.8915074 C25.5406592,18.6210605 27.4883078,19.9836229 27.9379251,22.0472554 C28.107558,22.8258284 28.0407877,23.5978488 27.7860535,24.2874924 C29.1010525,24.6084614 30.1928592,25.6641214 30.5026057,27.0857813 C30.8377362,28.6239475 30.1578953,30.1339814 28.915036,30.9084156 C29.1386514,31.2801644 29.3063348,31.6942805 29.4037281,32.141292 C29.8740192,34.2998121 28.5272608,36.4079684 26.395659,36.849991 C25.3822932,37.060129 24.3739788,36.8558805 23.5444102,36.3518334 C23.4015853,37.8753357 22.3029629,39.1841064 20.7404624,39.5081165 Z"/>
    <path stroke="#22BA8E" stroke-linecap="round" stroke-width="2" d="M9,26 C7.34314575,26 6,27.3431458 6,29 C6,30.6568542 7.34314575,32 9,32 L9,32"/>
    <path stroke="#22BA8E" stroke-linecap="round" stroke-width="2" d="M15,17 C13.3431458,17 12,18.3431458 12,20 C12,21.6568542 13.3431458,23 15,23 L15,23" transform="rotate(72 13.5 20)"/>
    <path stroke="#22BA8E" stroke-linecap="round" stroke-width="2" d="M17.7623147,29.0774295 C16.1054605,29.0774295 14.7623147,30.4205752 14.7623147,32.0774295 C14.7623147,33.7342837 16.1054605,35.0774295 17.7623147,35.0774295 L17.7623147,35.0774295" transform="rotate(50 16.262 32.077)"/>
    <path fill="#80D25B" d="M62.5463735,27.4343334 C62.2229356,28.5347529 61.373606,29.3545023 60.3240872,29.7251107 C61.0128216,30.5819845 61.2878203,31.7162576 60.9643825,32.8166771 C60.5240772,34.3147096 59.1091811,35.2925999 57.5413882,35.3253238 C57.9989247,36.1678252 58.137439,37.1633701 57.8518773,38.134925 C57.251202,40.1785781 55.0015994,41.3421935 52.8272492,40.7339328 C52.3769595,40.6079671 51.9652094,40.4158894 51.600683,40.1723338 C50.7221017,41.3278696 49.1306202,41.88416 47.5811735,41.4507121 C46.1490875,41.0500951 45.1458018,39.9139035 44.9093304,38.6117492 C44.1863784,38.811551 43.392305,38.8226787 42.6080223,38.6032806 C40.5292555,38.0217587 39.2718528,36.0312485 39.6902106,34.0715553 C39.4424514,34.0513675 39.1926529,34.0072928 38.9439375,33.9377163 C36.9672556,33.384752 35.8075141,31.4303875 36.3535826,29.5725211 C36.1296027,29.4847441 35.8831555,29.4409221 35.6377627,29.372275 C33.6610808,28.8193107 32.5013394,26.8649462 33.0474078,25.0070798 C33.3708457,23.9066603 34.2201753,23.086911 35.2696941,22.7163025 C34.5809597,21.8594288 34.3059609,20.7251556 34.6293988,19.6247362 C35.1754673,17.7668697 37.2205605,16.7090375 39.1972425,17.2620018 C39.4426353,17.3306489 39.6754377,17.4208939 39.893949,17.529871 C40.4591308,15.6043815 42.5042241,14.5465493 44.4809061,15.0995135 C44.7296215,15.1690901 44.9654032,15.2608534 45.1864806,15.3718197 C45.8961643,13.4936231 48.0437128,12.4556265 50.1224796,13.0371483 C50.9067623,13.2565465 51.5741303,13.6765032 52.0786996,14.2196963 C52.9865462,13.2376578 54.4545403,12.792791 55.8866263,13.193408 C57.4360731,13.626856 58.4835586,14.9213807 58.6009708,16.3555395 C59.0424019,16.3374454 59.495919,16.3874207 59.9462088,16.5133864 C62.1205589,17.1216472 63.3962745,19.2714481 62.7955992,21.3151012 C62.5100375,22.286656 61.8518081,23.0593169 61.006163,23.5372616 C62.3179518,24.3755302 62.9866787,25.9363009 62.5463735,27.4343334 Z"/>
    <path stroke="#22BA8E" stroke-linecap="round" stroke-width="2" d="M53.8539389,15.6633045 C52.1970846,15.6633045 50.8539389,17.0064503 50.8539389,18.6633045 C50.8539389,20.3201588 52.1970846,21.6633045 53.8539389,21.6633045 L53.8539389,21.6633045" transform="rotate(64 52.354 18.663)"/>
    <path stroke="#22BA8E" stroke-linecap="round" stroke-width="2" d="M56.5,23.891923 C54.8431458,23.891923 53.5,25.2350687 53.5,26.891923 C53.5,28.5487772 54.8431458,29.891923 56.5,29.891923 L56.5,29.891923" transform="rotate(123 55 26.892)"/>
    <path fill="#22BA8E" d="M31.2134307,34.2118828 C30.1254564,33.783046 29.3785717,32.8733071 29.110473,31.8162852 C28.1649717,32.3949536 26.9799328,32.543204 25.8919585,32.1143672 C24.410868,31.5305794 23.56189,30.0555763 23.6924099,28.5310237 C22.7857266,28.8868776 21.7563758,28.9172065 20.7958087,28.5385887 C18.7752682,27.7421709 17.8242101,25.4378904 18.671561,23.3918342 C18.8470402,22.9681131 19.0858865,22.5886952 19.3722738,22.2604764 C18.2861414,21.2872572 17.8854064,19.6849935 18.4892305,18.2269693 C19.0473187,16.8793813 20.3104401,16.0247199 21.662592,15.9313986 C21.5344804,15.2090782 21.6061399,14.4374751 21.9117773,13.6994676 C22.721879,11.7433551 24.8824669,10.7314404 26.8364748,11.3421907 C26.8829525,11.1039156 26.9539939,10.8661587 27.050919,10.6321183 C27.821238,8.77206724 29.93477,7.85112898 31.771625,8.57514516 C31.8845183,8.36700656 31.9549518,8.13247488 32.0505821,7.90156108 C32.8209011,6.04150999 34.9344331,5.12057174 36.7712881,5.84458791 C37.8592624,6.27342471 38.6061471,7.18316356 38.8742458,8.24018554 C39.8197471,7.6615171 41.004786,7.51326673 42.0927603,7.94210352 C43.9296153,8.6661197 44.7942135,10.7609201 44.0238946,12.6209712 C43.9282643,12.851885 43.8119328,13.0683255 43.6779994,13.2689422 C45.5817924,14.0185715 46.4463906,16.1133719 45.6760717,17.973423 C45.5791465,18.2074633 45.4609558,18.4266358 45.3247265,18.6295343 C47.1652038,19.5144213 47.9988719,21.7065542 47.1887702,23.6626668 C46.8831328,24.4006742 46.3852642,25.0042824 45.7787839,25.4370555 C46.6849916,26.4205336 46.9850477,27.8913382 46.4269595,29.2389263 C45.8231354,30.6969505 44.393987,31.5779459 42.9197128,31.5419532 C42.8920161,31.9721377 42.7936651,32.4069333 42.6181858,32.8306545 C41.770835,34.8767107 39.4459497,35.8897427 37.4254093,35.093325 C36.4648422,34.7147071 35.7459847,33.995303 35.3471554,33.1248672 C34.3554935,34.3099914 32.6945213,34.7956706 31.2134307,34.2118828 Z"/>
    <path stroke="#22BA8E" stroke-linecap="round" stroke-width="2" d="M52.4981562,31.2148955 C50.8413019,31.2148955 49.4981562,32.5580413 49.4981562,34.2148955 C49.4981562,35.8717498 50.8413019,37.2148955 52.4981562,37.2148955 L52.4981562,37.2148955" transform="rotate(170 50.998 34.215)"/>
    <path stroke="#80D25B" stroke-linecap="round" stroke-width="2" d="M31.8074718,21.3115722 C30.1506176,21.3115722 28.8074718,22.654718 28.8074718,24.3115722 C28.8074718,25.9684265 30.1506176,27.3115722 31.8074718,27.3115722 L31.8074718,27.3115722" transform="rotate(107 30.307 24.312)"/>
    <path stroke="#80D25B" stroke-linecap="round" stroke-width="2" d="M42.8074718,21.3115722 C41.1506176,21.3115722 39.8074718,22.654718 39.8074718,24.3115722 C39.8074718,25.9684265 41.1506176,27.3115722 42.8074718,27.3115722 L42.8074718,27.3115722" transform="rotate(-174 41.307 24.312)"/>
    <path stroke="#80D25B" stroke-linecap="round" stroke-width="2" d="M31.7754185,12.9293926 C30.1185642,12.9293926 28.7754185,14.2725383 28.7754185,15.9293926 C28.7754185,17.5862468 30.1185642,18.9293926 31.7754185,18.9293926 L31.7754185,18.9293926" transform="rotate(51 30.275 15.93)"/>
  </g>
</svg>
