<svg xmlns="http://www.w3.org/2000/svg" width="64" height="64" viewBox="0 0 64 64">
  <g fill="none" fill-rule="evenodd">
    <path fill="#FFDD95" d="M37.6875,49 L58,49 L58,5 L6,5 L6,49 L26.3125,49 L32,62 L37.6875,49 Z"/>
    <path fill="#FF5656" stroke="#E43535" stroke-linecap="round" stroke-width="2" d="M27.6976333,32.0929452 C28.172777,32.8162313 35.2120972,38.3892579 39.4200532,31.8708631 C43.6280091,25.3524683 38.6518726,21.6037297 33.9282627,21.6056898 C29.2046528,21.6076499 26.3210416,21.6946795 24.9743594,19.4217188 C23.6276772,17.1487582 22.1184547,22.0175855 22.1184547,22.0175855 C21.5007492,23.5567103 22.2631851,25.2791243 23.7178241,26.0408021 C23.7178241,26.0408021 25.0478079,25.9742198 26.0637825,28.5549201 C27.0797571,31.1356203 27.2224896,31.3696592 27.6976333,32.0929452 Z"/>
    <circle cx="35.5" cy="26.5" r="2.5" fill="#D8D8D8"/>
  </g>
</svg>
