<svg xmlns="http://www.w3.org/2000/svg" width="64" height="64" viewBox="0 0 64 64">
  <g fill="none" fill-rule="evenodd">
    <rect width="28" height="3" x="19" y="13" fill="#9C4D4D"/>
    <rect width="39" height="49" x="13" y="15" fill="#ED9111" rx="4"/>
    <rect width="27" height="31" x="19" y="24" fill="#ECECEC"/>
    <rect width="34" height="7" x="16" y="6" fill="#0A3586" rx="3"/>
    <path stroke="#0A3586" stroke-linecap="round" stroke-linejoin="round" d="M33.0915021,34 C33.0915021,34 32.049236,30.5789474 37,29"/>
    <path fill="#80D25B" d="M30.4816973,34.0379429 L30.4454177,34.0581138 L28,31.5632114 C29.6685721,31.3535776 31.2244133,32.1321466 31.9853511,32.6004678 L33.6595013,31 L35.1172032,32.4930848 C36.6368032,32.0658734 38.5684645,31.6665174 40,31.8653114 L37.239329,34.2915781 L37.0323136,34.4546807 L33.0536161,38 L30.4816973,34.0379429 Z" transform="rotate(-1 34 34.5)"/>
    <path fill="#0A3586" d="M31.2857143,34 C31.9866853,34 32.6090448,34.3265816 33,34.8314888 C33.3909552,34.3265816 34.0133147,34 34.7142857,34 C35.6685376,34 36.4771055,34.6052261 36.7545181,35.4416529 C37.1750825,35.0631201 37.7382591,34.8316915 38.3571429,34.8316915 C39.6589569,34.8316915 40.7142857,35.8556841 40.7142857,37.1188431 C40.7142857,37.3804327 40.6690259,37.6317653 40.58569,37.8658703 C41.4105122,38.1551747 42,38.9217105 42,39.8218404 C42,40.6537911 41.4964302,41.3716192 40.7689109,41.7040071 C41.005556,42.060563 41.1428571,42.4850651 41.1428571,42.9406835 C41.1428571,44.1483146 40.1782725,45.1373444 38.955898,45.2219653 C38.9848111,45.3581474 39,45.499193 39,45.6436808 C39,46.7920071 38.0406102,47.7229095 36.8571429,47.7229095 C36.842357,47.856991 34.9285714,49 33,49 C31.0714286,49 29.157643,47.856991 29.1858077,47.7225002 C27.9593898,47.7229095 27,46.7920071 27,45.6436808 C27,45.499193 27.0151889,45.3581474 27.044102,45.2219653 C25.8217275,45.1373444 24.8571429,44.1483146 24.8571429,42.9406835 C24.8571429,42.4850651 24.994444,42.060563 25.2310891,41.7040071 C24.5035698,41.3716192 24,40.6537911 24,39.8218404 C24,38.9217105 24.5894878,38.1551747 25.41431,37.8658703 C25.3309741,37.6317653 25.2857143,37.3804327 25.2857143,37.1188431 C25.2857143,35.8556841 26.3410431,34.8316915 27.6428571,34.8316915 C28.2617409,34.8316915 28.8249175,35.0631201 29.2454819,35.4416529 C29.5228945,34.6052261 30.3314624,34 31.2857143,34 Z"/>
  </g>
</svg>
