<svg xmlns="http://www.w3.org/2000/svg" width="64" height="64" viewBox="0 0 64 64">
  <g fill="none" fill-rule="evenodd">
    <path stroke="#0A3586" stroke-linecap="round" stroke-linejoin="round" stroke-width="2" d="M30.5976,15.9644661 C30.5976,15.9644661 28.5976,9.46446609 38.0976,6.46446609"/>
    <path fill="#80D25B" d="M24.3108488,19.6195098 L24.2355532,19.6603807 L19.160286,14.6051184 C22.6232729,14.180351 25.8522958,15.7579159 27.4315608,16.7068452 L30.9061246,13.463919 L33.9314675,16.4892619 C37.0852746,15.6236306 41.0942819,14.8144409 44.0653184,15.2172446 L38.3357683,20.1334347 L37.9061246,20.463919 L29.6486588,27.6475744 L24.3108488,19.6195098 Z" transform="rotate(-1 31.613 20.556)"/>
    <path fill="#0A3586" d="M26.3807411,19.4644661 C28.3094635,19.4644661 30.0218864,20.3905542 31.0976,21.8223207 C32.1733136,20.3905542 33.8857365,19.4644661 35.8144589,19.4644661 C38.4400839,19.4644661 40.6648593,21.1807072 41.4281603,23.5525645 C42.5853436,22.4791583 44.1349246,21.8228955 45.8377839,21.8228955 C49.4197266,21.8228955 52.3234648,24.7266338 52.3234648,28.3085764 C52.3234648,29.0503669 52.1989324,29.7630711 51.9696336,30.4269232 C54.2391327,31.2473043 55.861109,33.4209718 55.861109,35.9734721 C55.861109,38.3326366 54.4755362,40.3681833 52.473766,41.3107366 C53.1248953,42.3218228 53.5026796,43.5255845 53.5026796,44.8175824 C53.5026796,48.2420646 50.8486239,51.0466589 47.4852593,51.2866185 C47.5648137,51.6727904 47.606606,52.0727537 47.606606,52.4824781 C47.606606,55.7387896 44.9668439,58.3785516 41.7105324,58.3785516 C41.6698493,58.7587667 36.4040662,62 31.0976,62 C25.7911338,62 20.5253507,58.7587667 20.6028462,58.3773909 C17.2283561,58.3785516 14.588594,55.7387896 14.588594,52.4824781 C14.588594,52.0727537 14.6303863,51.6727904 14.7099407,51.2866185 C11.3465761,51.0466589 8.69252044,48.2420646 8.69252044,44.8175824 C8.69252044,43.5255845 9.0703047,42.3218228 9.72143395,41.3107366 C7.71966385,40.3681833 6.33409101,38.3326366 6.33409101,35.9734721 C6.33409101,33.4209718 7.95606731,31.2473043 10.2255664,30.4269232 C9.99626763,29.7630711 9.87173515,29.0503669 9.87173515,28.3085764 C9.87173515,24.7266338 12.7754734,21.8228955 16.3574161,21.8228955 C18.0602754,21.8228955 19.6098564,22.4791583 20.7670397,23.5525645 C21.5303407,21.1807072 23.7551161,19.4644661 26.3807411,19.4644661 Z"/>
    <path stroke="#5B68C0" stroke-linecap="round" stroke-linejoin="round" stroke-width="2" d="M23.0976 26.4644661C23.0976 28.6736051 24.888461 30.4644661 27.0976 30.4644661L27.0976 30.4644661C29.306739 30.4644661 31.0976 28.6736051 31.0976 26.4644661M31.0976 26.4644661C31.0976 28.6736051 32.888461 30.4644661 35.0976 30.4644661L35.0976 30.4644661C37.306739 30.4644661 39.0976 28.6736051 39.0976 26.4644661M15.0976 32.4644661C15.0976 34.1213203 16.4407458 35.4644661 18.0976 35.4644661L18.0976 35.4644661C19.7544542 35.4644661 21.0976 34.1213203 21.0976 32.4644661M41.0976 32.4644661C41.0976 34.1213203 42.4407458 35.4644661 44.0976 35.4644661L44.0976 35.4644661C45.7544542 35.4644661 47.0976 34.1213203 47.0976 32.4644661M24.0976 34.4644661C24.0976 36.1213203 25.4407458 37.4644661 27.0976 37.4644661L27.0976 37.4644661C28.7544542 37.4644661 30.0976 36.1213203 30.0976 34.4644661M20.0976 41.4644661C20.0976 43.1213203 21.4407458 44.4644661 23.0976 44.4644661L23.0976 44.4644661C24.7544542 44.4644661 26.0976 43.1213203 26.0976 41.4644661M24.0976 48.4644661C24.0976 50.1213203 25.4407458 51.4644661 27.0976 51.4644661L27.0976 51.4644661C28.7544542 51.4644661 30.0976 50.1213203 30.0976 48.4644661M30 47C30 48.6568542 31.3431458 50 33 50L33 50C34.6568542 50 36 48.6568542 36 47M33 53C33 54.6568542 34.3431458 56 36 56L36 56C37.6568542 56 39 54.6568542 39 53M33.0976 38.4644661C33.0976 40.1213203 34.4407458 41.4644661 36.0976 41.4644661L36.0976 41.4644661C37.7544542 41.4644661 39.0976 40.1213203 39.0976 38.4644661"/>
  </g>
</svg>
