<svg xmlns="http://www.w3.org/2000/svg" width="64" height="64" viewBox="0 0 64 64">
  <g fill="none" fill-rule="evenodd">
    <circle cx="32" cy="33" r="27" fill="#D8D8D8"/>
    <circle cx="32" cy="33" r="18" fill="#ECECEC"/>
    <path stroke="#979797" stroke-linecap="round" stroke-width="2" d="M17,4 L17,15.9913864 C17,18.7575673 14.7710151,21 11.9978137,21 L10.0021863,21 C7.23955507,21 5,18.7600656 5,15.9913864 L5,4 L5,4"/>
    <path fill="#979797" d="M9 21L13 21 13 57.9988612C13 59.1040596 12.1122704 60 11 60L11 60C9.8954305 60 9 59.1121541 9 57.9988612L9 21zM26 21L30 21 30 57.9988612C30 59.1040596 29.1122704 60 28 60L28 60C26.8954305 60 26 59.1121541 26 57.9988612L26 21z"/>
    <path fill="#979797" d="M25.779245,3.98679537 C25.9011646,2.88951858 26.8877296,2 28,2 L28,2 C29.1045695,2 30,2.88989258 30,3.99970728 L30,38 L22,38 L25.779245,3.98679537 Z"/>
    <path stroke="#979797" stroke-linecap="round" stroke-linejoin="round" stroke-width="2" d="M11,20 L11,4"/>
    <circle cx="50" cy="16" r="13" fill="#80D25B"/>
    <polyline stroke="#FFF" stroke-linecap="round" stroke-linejoin="round" stroke-width="3" points="44 18.583 49.42 22.05 56.102 10"/>
  </g>
</svg>
