<svg xmlns="http://www.w3.org/2000/svg" width="64" height="64" viewBox="0 0 64 64">
  <g fill="none" fill-rule="evenodd">
    <path fill="#ECECEC" d="M17,54.9597759 C17,52.7493282 18.787167,50.7516292 20.9642898,50.5009519 L34,49 L47.0357102,50.5009519 C49.225127,50.7530447 51,52.7492282 51,54.9597759 L51,61.9574064 L17,61.9574064 L17,54.9597759 Z"/>
    <path fill="#FFDD95" d="M28,44.3164468 C24.9897907,41.470456 23,36.8615543 23,33 C23,26.9248678 27.9248678,22 34,22 C40.0751322,22 45,26.9248678 45,33 C45,36.8615543 43.0102093,41.470456 40,44.3164468 L40,51 C40,51 35.9325778,52.4486507 34,52.4486507 C32.0674222,52.4486507 28,51 28,51 L28,44.3164468 Z"/>
    <rect width="22" height="16" x="23" y="14" fill="#D8D8D8"/>
    <circle cx="27" cy="13" r="10" fill="#D8D8D8"/>
    <circle cx="41" cy="13" r="10" fill="#D8D8D8"/>
    <circle cx="25" cy="38" r="3" fill="#FFDD95"/>
    <circle cx="43" cy="38" r="3" fill="#FFDD95"/>
    <path stroke="#595959" stroke-linecap="round" stroke-width="2" d="M34.2228847,39.8674184 C34.2228847,39.8674184 32.9629996,37.3744809 29.5803992,39.2126376 C26.1977987,41.0507943 27.2072686,37.5987209 28.0390357,37"/>
    <path stroke="#595959" stroke-linecap="round" stroke-width="2" d="M41,39.8674184 C41,39.8674184 39.740115,37.3744809 36.3575145,39.2126376 C32.974914,41.0507943 33.9843839,37.5987209 34.816151,37" transform="matrix(-1 0 0 1 75 0)"/>
  </g>
</svg>
