<svg xmlns="http://www.w3.org/2000/svg" width="64" height="64" viewBox="0 0 64 64">
  <g fill="none" fill-rule="evenodd">
    <path fill="#E43535" d="M11.7807333,16.3115083 C6.77490882,20.2546902 3.7833662,25.8035406 3.7833662,32.2522695 C3.7833662,45.1860403 15.8170136,54.5 32,54.5 L32,54.5 C48.1829864,54.5 60.2166338,45.1860403 60.2166338,32.2522695 C60.2166338,25.8035406 57.2250912,20.2546902 52.2192667,16.3115083"/>
    <path stroke="#FF78C7" stroke-linecap="round" stroke-linejoin="round" stroke-width="2" d="M10,33 C10,41.836556 19.4020203,49 31,49 L31,49"/>
    <path fill="#80D25B" d="M26.1428571,10.5 L8.19642857,16.3928571 L23.7321429,16.9285714 L18.9107143,24.4285714 L27.4821429,17.4642857 L31.2321429,25.5 L36.5892857,18 L43.5535714,23.8928571 L41.9464286,16.9285714 L54.8035714,16.9285714 L36.5892857,10.5 C36.5892857,10.5 34.9821429,11.0357143 31.2321429,11.0357143 C27.4821429,11.0357143 26.1428571,10.5 26.1428571,10.5 Z"/>
  </g>
</svg>
