<svg xmlns="http://www.w3.org/2000/svg" width="64" height="64" viewBox="0 0 64 64">
  <g fill="none" fill-rule="evenodd">
    <circle cx="32" cy="32" r="31" fill="#ECECEC"/>
    <circle cx="32" cy="32" r="25" fill="#D8D8D8"/>
    <path fill="#FF5656" stroke="#E43535" stroke-linecap="round" stroke-width="2" d="M20.7482732,46.1797973 C21.5817195,47.4050631 33.9293436,56.8459184 41.3104907,45.8035843 C48.6916377,34.7612501 39.9630304,28.4107873 31.6773782,28.4141078 C23.391726,28.4174283 18.3336031,28.5648587 15.9713969,24.7144029 C13.6091908,20.8639471 10.0961162,31.0484699 10.0961162,31.0484699 C9.49074794,32.5862336 10.2701658,34.2599531 11.8033929,34.8961875 C11.8033929,34.8961875 16.1002325,35.8145138 17.8823467,40.1862886 C19.6644609,44.5580634 19.9148268,44.9545315 20.7482732,46.1797973 Z"/>
    <circle cx="35" cy="37" r="4" fill="#D8D8D8"/>
    <circle cx="45" cy="19" r="4" fill="#80D25B"/>
    <circle cx="47" cy="23" r="4" fill="#80D25B"/>
    <circle cx="52" cy="26" r="4" fill="#80D25B"/>
    <circle cx="47" cy="28" r="4" fill="#80D25B"/>
  </g>
</svg>
