<svg xmlns="http://www.w3.org/2000/svg" width="64" height="64" viewBox="0 0 64 64">
  <g fill="none" fill-rule="evenodd">
    <path stroke="#5EA7FF" stroke-linecap="square" stroke-width="2" d="M6 55L16 55M53 38L53 54M48 55L58 55"/>
    <path fill="#FF5656" d="M27.2333333,5 C23.7907584,5 21,7.07820713 21,11.2962963 C21,15.5143855 30.4111111,25 32,25 C33.5888889,25 43,15.5143855 43,11.2962963 C43,7.07820713 40.2092416,5 36.7666667,5 C34.8544957,5 33.1434246,5.86970846 32,7.2388765 C30.8565754,5.86970846 29.1455043,5 27.2333333,5 Z"/>
    <path stroke="#5EA7FF" stroke-linecap="square" stroke-width="2" d="M11,38 L11,54"/>
    <path fill="#B4DFFB" d="M45 18L61 18 61 31.0049706C61 34.8682186 57.8580054 38 54.005443 38L51.994557 38C48.1315698 38 45 34.875 45 31.0049706L45 18zM3 18L19 18 19 31.0049706C19 34.8682186 15.8580054 38 12.005443 38L9.99455699 38C6.13156983 38 3 34.875 3 31.0049706L3 18z"/>
  </g>
</svg>
