<svg xmlns="http://www.w3.org/2000/svg" width="64" height="64" viewBox="0 0 64 64">
  <g fill="none" fill-rule="evenodd">
    <ellipse cx="32" cy="20" fill="#979797" rx="22" ry="9"/>
    <rect width="5" height="29" x="13" y="6" fill="#FCC24C"/>
    <rect width="5" height="29" x="23" y="9" fill="#FCC24C"/>
    <rect width="5" height="29" x="43.223" y="5.585" fill="#FFDD95" transform="rotate(37 45.723 20.085)"/>
    <rect width="5" height="29" x="35.915" y="6.307" fill="#FFDD95" transform="rotate(30 38.415 20.807)"/>
    <rect width="5" height="29" x="33" y="3" fill="#FCC24C"/>
    <rect width="5" height="29" x="43" y="2" fill="#FCC24C" transform="rotate(-15 45.5 16.5)"/>
    <rect width="5" height="29" x="17.668" y="2.153" fill="#FFDD95" transform="rotate(-15 20.168 16.653)"/>
    <rect width="5" height="29" x="27" y="5" fill="#FFDD95"/>
    <path fill="#D8D8D8" d="M18,20 L10,20 L13,61 L51,61 L54,20 L46,20 C46,24.418278 39.7319865,28 32,28 C24.2680135,28 18,24.418278 18,20 Z"/>
    <circle cx="32" cy="45" r="8" fill="#FF5656"/>
  </g>
</svg>
