<svg xmlns="http://www.w3.org/2000/svg" width="64" height="64" viewBox="0 0 64 64">
  <g fill="none" fill-rule="evenodd">
    <path fill="#FCC24C" d="M17,8.99188419 C17,7.89179693 17.9016273,7 19.0008642,7 L37.9991358,7 C39.1041826,7 40,7.89339733 40,8.99188419 L40,22 L17,22 L17,8.99188419 Z"/>
    <path fill="#FFDD95" d="M25,12.0085302 C25,10.8992496 25.9016273,10 27.0008642,10 L45.9991358,10 C47.1041826,10 48,10.9019504 48,12.0085302 L48,22 L25,22 L25,12.0085302 Z"/>
    <circle cx="29.5" cy="14.5" r="1.5" fill="#ED9111"/>
    <circle cx="41.5" cy="22.5" r="1.5" fill="#ED9111"/>
    <circle cx="35.5" cy="17.5" r="1.5" fill="#ED9111"/>
    <circle cx="44.5" cy="15.5" r="1.5" fill="#ED9111"/>
    <path fill="#80D25B" d="M8,31.0081258 C8,26.0330753 12.0304669,22 17.0002635,22 L46.9997365,22 C51.9704448,22 56,26.0209279 56,31.0081258 L56,53 L8,53 L8,31.0081258 Z"/>
    <rect width="4" height="21" x="30" y="28" fill="#22BA8E" rx="2"/>
    <rect width="8" height="3" x="28" y="33" fill="#FFF"/>
    <rect width="56" height="4" x="4" y="53" fill="#595959" rx="2"/>
  </g>
</svg>
