<svg xmlns="http://www.w3.org/2000/svg" width="64" height="64" viewBox="0 0 64 64">
  <g fill="none" fill-rule="evenodd">
    <path fill="#D650C7" d="M7,54.9597759 C7,52.7493282 8.78716697,50.7516292 10.9642898,50.5009519 L24,49 L37.0357102,50.5009519 C39.225127,50.7530447 41,52.7492282 41,54.9597759 L41,61.9574064 L7,61.9574064 L7,54.9597759 Z"/>
    <path fill="#FFDD95" d="M18,44.3164468 C14.9897907,41.470456 13,36.8615543 13,33 C13,26.9248678 17.9248678,22 24,22 C30.0751322,22 35,26.9248678 35,33 C35,36.8615543 33.0102093,41.470456 30,44.3164468 L30,51 C30,51 25.9325778,52.4486507 24,52.4486507 C22.0674222,52.4486507 18,51 18,51 L18,44.3164468 Z"/>
    <circle cx="15" cy="38" r="3" fill="#FFDD95"/>
    <circle cx="33" cy="38" r="3" fill="#FFDD95"/>
    <path stroke="#ED9111" stroke-linecap="round" stroke-linejoin="round" stroke-width="2" d="M45,39 L45,9"/>
    <path fill="#ED9111" d="M42.7507425,6.49257535 C42.8884036,5.115964 44.1170893,4 45.504611,4 L46,4 L46,24 L41,24 L42.7507425,6.49257535 Z"/>
    <path stroke="#ED9111" stroke-linecap="round" stroke-width="2" d="M57,5 L57,10.9914698 C57,12.1007504 56.1017394,13 55.0020869,13 L52.9979131,13 C51.8944962,13 51,12.0980496 51,10.9914698 L51,5"/>
    <path stroke="#ED9111" stroke-linecap="round" stroke-linejoin="round" stroke-width="2" d="M54,39 L54,5"/>
  </g>
</svg>
