<svg xmlns="http://www.w3.org/2000/svg" width="64" height="64" viewBox="0 0 64 64">
  <g fill="none" fill-rule="evenodd">
    <rect width="17" height="23" x="8" y="25" stroke="#9C4D4D" stroke-linecap="round" stroke-width="3" rx="2"/>
    <path fill="#BD7575" d="M17,20 L51,20 L51,58.9963188 C51,60.6552061 49.6566876,62 47.9976416,62 L20.0023584,62 C18.3442017,62 17,60.6501537 17,58.9963188 L17,20 Z"/>
    <path fill="#FCC24C" d="M19.2268781,8.42683449 C18.5383398,8.15146689 17.7868584,8 17,8 C13.6862915,8 11,10.6862915 11,14 C11,17.3137085 13.6862915,20 17,20 L51,20 C54.3137085,20 57,17.3137085 57,14 C57,10.6862915 54.3137085,8 51,8 C49.6556086,8 48.4144883,8.4421565 47.414127,9.18898169 C46.447548,7.17146507 44.3864842,5.77817459 42,5.77817459 C40.253725,5.77817459 38.6816921,6.52419343 37.585219,7.71491325 C36.3948844,3.82717877 32.7776037,1 28.5,1 C23.9653643,1 20.1727904,4.17714469 19.2268781,8.42683449 Z"/>
    <path stroke="#9C4D4D" stroke-linecap="square" stroke-width="2" d="M28 26L28 57M23 26L23 57M45 26L45 57M34 26L34 57M40 26L40 57"/>
  </g>
</svg>
