<svg xmlns="http://www.w3.org/2000/svg" width="64" height="64" viewBox="0 0 64 64">
  <g fill="none" fill-rule="evenodd">
    <path fill="#ECECEC" d="M2,53.9597759 C2,51.7493282 3.78716697,49.7516292 5.96428975,49.5009519 L19,48 L32.0357102,49.5009519 C34.225127,49.7530447 36,51.7492282 36,53.9597759 L36,60.9574064 L2,60.9574064 L2,53.9597759 Z"/>
    <path fill="#FFDD95" d="M13,43.3164468 C9.98979073,40.470456 8,35.8615543 8,32 C8,25.9248678 12.9248678,21 19,21 C25.0751322,21 30,25.9248678 30,32 C30,35.8615543 28.0102093,40.470456 25,43.3164468 L25,50 C25,50 20.9325778,51.4486507 19,51.4486507 C17.0674222,51.4486507 13,50 13,50 L13,43.3164468 Z"/>
    <rect width="22" height="16" x="8" y="13" fill="#D8D8D8"/>
    <circle cx="12" cy="12" r="10" fill="#D8D8D8"/>
    <circle cx="26" cy="12" r="10" fill="#D8D8D8"/>
    <circle cx="10" cy="37" r="3" fill="#FFDD95"/>
    <circle cx="28" cy="37" r="3" fill="#FFDD95"/>
    <path stroke="#595959" stroke-linecap="round" stroke-width="2" d="M19.2228847,38.8674184 C19.2228847,38.8674184 17.9629996,36.3744809 14.5803992,38.2126376 C11.1977987,40.0507943 12.2072686,36.5987209 13.0390357,36"/>
    <path stroke="#595959" stroke-linecap="round" stroke-width="2" d="M26,38.8674184 C26,38.8674184 24.740115,36.3744809 21.3575145,38.2126376 C17.974914,40.0507943 18.9843839,36.5987209 19.816151,36" transform="matrix(-1 0 0 1 45 0)"/>
    <text fill="#595959" font-family="MarkerFelt-Thin, Marker Felt" font-size="12" font-weight="300">
      <tspan x="35.12" y="26">24/7</tspan>
    </text>
  </g>
</svg>
