<svg xmlns="http://www.w3.org/2000/svg" width="64" height="64" viewBox="0 0 64 64">
  <g fill="none" fill-rule="evenodd">
    <path stroke="#9C4D4D" stroke-linecap="round" stroke-width="2" d="M46.3846116,16.831822 C46.3846116,16.831822 37.6286821,6.16864682 45.208726,3.62316041 C52.7887699,1.07767399 55.3376549,8.51090215 50.2731904,9.62901301 C45.208726,10.7471239 33.6870864,9.32722503 27.1286356,6.88641282"/>
    <path fill="#80D25B" d="M12.0477991,61.3901574 C12.0477991,61.3901574 5.88154004,57.8544207 23.4664075,41.4067919 C41.0512749,24.9591631 34.3651353,17.7311763 41.6915151,16.321641 C49.0178948,14.9121058 56.2124739,17.8899778 50.6562507,30.1565955 C45.1000276,42.4232133 38.0784369,53.961266 29.6875835,58.6708528 C21.29673,63.3804395 12.0477991,61.3901574 12.0477991,61.3901574 Z"/>
    <polygon fill="#80D25B" points="14.658 52.279 14.186 48.993 19.593 48.226 23.291 40.293 28.763 39.932 32.711 28.285 37.322 27.365 52.384 28.83 48.487 32.457 46.296 40.888 40.595 45.151 35.843 55.605 31.502 55.371"/>
    <circle cx="40.5" cy="26.5" r="1.5" fill="#22BA8E"/>
    <circle cx="42.5" cy="36.5" r="1.5" fill="#22BA8E"/>
    <circle cx="31.5" cy="39.5" r="1.5" fill="#22BA8E"/>
    <circle cx="31.5" cy="50.5" r="1.5" fill="#22BA8E"/>
    <circle cx="21.5" cy="52.5" r="1.5" fill="#22BA8E"/>
  </g>
</svg>
