<svg xmlns="http://www.w3.org/2000/svg" width="64" height="64" viewBox="0 0 64 64">
  <g fill="none" fill-rule="evenodd">
    <path fill="#979797" d="M13,37 L53,37 L53,57.9971835 C53,60.207878 51.2035752,62 48.9999745,62 L17.0000255,62 C14.7908724,62 13,60.2020617 13,57.9971835 L13,37 Z"/>
    <rect width="24" height="25" x="21" y="37" fill="#595959"/>
    <polyline stroke="#5EA7FF" stroke-linecap="round" stroke-width="2" points="10 38.973 10 34 55.881 34 55.881 39.156"/>
    <g transform="rotate(30 -8.847 61.088)">
      <circle cx="20" cy="4" r="4" fill="#5EA7FF"/>
      <path fill="#D8D8D8" d="M0,8 C0,5.790861 1.79642476,4 4.00002553,4 L35.9999745,4 C38.2091276,4 40,5.79535615 40,8 L40,12 L0,12 L0,8 Z"/>
    </g>
    <path stroke="#FFDD95" stroke-linecap="round" stroke-linejoin="round" stroke-width="2" d="M12.7654144 28C12.7654144 28 16.7654144 22.2424242 14.2654144 18.5 11.7654144 14.7575758 10.7654146 13.030303 14.2654144 9M17.7654144 28C17.7654144 28 21.7654144 22.2424242 19.2654144 18.5 16.7654144 14.7575758 15.7654146 13.030303 19.2654144 9"/>
  </g>
</svg>
