<svg xmlns="http://www.w3.org/2000/svg" width="64" height="64" viewBox="0 0 64 64">
  <g fill="none" fill-rule="evenodd">
    <path fill="#FCC24C" d="M31.0008962,56.3370409 L9.84912109,50.5996094 L11.3491211,28.5996094 C11.3491211,28.5996094 1.84912109,19.0996094 14.8491211,14.0996094 C27.8491211,9.09960938 51.5920684,14.9566615 51.5920684,14.9566615 L31.0008962,56.3370409 Z"/>
    <path fill="#FFDD95" d="M32.9862326,29.1893023 C31.1108308,27.6033841 30,25.6338507 30,23.5 C30,18.2532949 36.7157288,14 45,14 C53.2842712,14 60,18.2532949 60,23.5 C60,25.6301169 58.8930533,27.596491 57.0236052,29.1809736 L60,52 L31,56.5 L32.9862326,29.1893023 Z"/>
    <circle cx="40.5" cy="22.5" r="1.5" fill="#FCC24C"/>
    <circle cx="51.5" cy="33.5" r="1.5" fill="#FCC24C"/>
    <circle cx="40.5" cy="41.5" r="1.5" fill="#FCC24C"/>
    <circle cx="51" cy="24" r="1" fill="#FCC24C"/>
    <circle cx="41" cy="32" r="1" fill="#FCC24C"/>
    <circle cx="39" cy="48" r="1" fill="#FCC24C"/>
    <circle cx="48" cy="41" r="1" fill="#FCC24C"/>
  </g>
</svg>
