<svg xmlns="http://www.w3.org/2000/svg" width="64" height="64" viewBox="0 0 64 64">
  <g fill="none" fill-rule="evenodd">
    <path stroke="#9C4D4D" stroke-linecap="round" stroke-linejoin="round" stroke-width="2" d="M11,23 L20,23 L20,36 L15.5,36 C13.0147186,36 11,33.9830136 11,31.507934 L11,23 Z"/>
    <path fill="#BD7575" d="M19,22 L49,22 L49,36.5 C49,44.5081289 42.5089227,51 34.5052861,51 L33.4947139,51 C25.4895045,51 19,44.5098896 19,36.5 L19,22 Z"/>
    <rect width="35" height="3" x="16" y="51" fill="#BD7575" rx="1.5"/>
    <path stroke="#FFDD95" stroke-linecap="round" stroke-linejoin="round" stroke-width="2" d="M28.7654144 18.5C28.7654144 18.5 32.7654144 13.6515152 30.2654144 10.5 27.7654144 7.34848485 26.7654146 5.89393939 30.2654144 2.5M36.7654144 18.5C36.7654144 18.5 40.7654144 13.6515152 38.2654144 10.5 35.7654144 7.34848485 34.7654146 5.89393939 38.2654144 2.5"/>
    <path fill="#80D25B" d="M15.6929589,33.9423565 C19.7857743,37.4138298 23.1929589,42.350739 23.1929589,47.2022612 C23.1929589,52.0537834 18.5618556,56.0110032 14.2026473,57.4730077 C9.84343906,56.0110032 5.73458506,53.5156408 9.32125595,46.3513853 C12.9079268,39.1871298 14.3878214,40.3362601 15.6929589,33.9423565 Z" transform="rotate(-45 15.573 45.708)"/>
    <path stroke="#22BA8E" stroke-linecap="round" stroke-width="2" d="M15.3350272,46.7387332 C15.3350272,46.7387332 24.4411186,55.1937491 25.8814864,60.7387332" transform="rotate(9 20.608 53.739)"/>
  </g>
</svg>
