<svg xmlns="http://www.w3.org/2000/svg" width="64" height="64" viewBox="0 0 64 64">
  <g fill="none" fill-rule="evenodd">
    <path fill="#FFDD95" d="M46,26.4436508 L40,20.4436508 L40,30.0025781 C40,31.1057238 39.1122704,32 38,32 C36.8954305,32 36,31.1090746 36,30.0025781 L36,16.4436508 L30,10.4436508 L30,20.0025781 C30,21.1057238 29.1122704,22 28,22 C26.8954305,22 26,21.1090746 26,20.0025781 L26,6.44365081 L24.3319819,4.77563275 C20.0368438,0.480494596 13.0739418,0.482407384 8.77817459,4.77817459 L2.4079592,11.14839 C1.62909448,11.9272547 1.63055183,13.186901 2.40837694,13.9647261 L49.7962045,61.3525537 C50.5698101,62.1261592 51.8349463,62.1305658 52.6125407,61.3529714 L58.9827561,54.9827561 C63.2794678,50.6860443 63.2796613,43.7233121 58.9852979,39.4289487 L50,30.4436508 L50,40.0025781 C50,41.1057238 49.1122704,42 48,42 C46.8954305,42 46,41.1090746 46,40.0025781 L46,26.4436508 Z"/>
    <path stroke="#FCC24C" stroke-linecap="square" stroke-width="2" d="M7,13 L34,40"/>
  </g>
</svg>
