<svg xmlns="http://www.w3.org/2000/svg" width="64" height="64" viewBox="0 0 64 64">
  <g fill="none" fill-rule="evenodd">
    <path fill="#22BA8E" d="M4.95405845,28 C4.95405845,43.463973 17.4900855,56 32.9540585,56 C48.4180314,56 60.9540585,43.463973 60.9540585,28 L4.95405845,28 Z"/>
    <path fill="#E43535" d="M10,28 C10,40.7025492 20.2974508,51 33,51 C45.7025492,51 56,40.7025492 56,28 L10,28 Z"/>
    <path stroke="#0A3586" stroke-linecap="round" stroke-linejoin="round" stroke-width="2" d="M32.7781746,44.9609372 L32.7781746,46.9609372 M25.7781746,43.0852928 L24.7781746,44.8173436 M20.6538189,37.9609372 L18.9217681,38.9609372 M18.7781746,30.9609372 L16.7781746,30.9609372 M46.7781746,30.9609372 L48.7781746,30.9609372 M44.9025302,37.9609372 L46.6345811,38.9609372 M39.7781746,43.0852928 L40.7781746,44.8173436"/>
  </g>
</svg>
