<svg xmlns="http://www.w3.org/2000/svg" width="64" height="64" viewBox="0 0 64 64">
  <g fill="none" fill-rule="evenodd">
    <polygon fill="#E43535" points="17 2 26 2 27 8 16 8"/>
    <path fill="#595959" d="M17,8 L26,8 L27.1393114,13.0501097 C27.3822602,14.1270044 28.055591,15.7491226 28.6567781,16.6945047 L32.0306471,22 L32.0306471,40 L30.4503969,47.090839 C29.9692532,49.249809 30.330063,52.6189194 31.2607085,54.6254883 L31.6081052,55.3745117 C32.5367717,57.3768136 31.9820616,60.2359554 30.3817424,61.7486574 L28.7244058,63.3152552 C28.3243275,63.6934293 27.5525106,64 27.0014977,64 L15.9985023,64 C15.4470447,64 14.671589,63.6872276 14.27001,63.3047714 L12.6513992,61.7632374 C11.0490007,60.2371435 10.5088685,57.3810806 11.4494476,55.3745117 L11.8005524,54.6254883 C12.7391314,52.6231864 13.1038676,49.2570173 12.6115543,47.090839 L11,40 L11,22 L14.4221379,16.6766744 C15.0174247,15.7506727 15.6869432,14.1275986 15.9178336,13.0501097 L17,8 Z"/>
    <rect width="21" height="18" x="11" y="22" fill="#FF5656"/>
    <circle cx="50" cy="15" r="13" fill="#E43535"/>
    <circle cx="50" cy="24" r="2" fill="#FFF"/>
    <path stroke="#FFF" stroke-linecap="round" stroke-width="4" d="M51.3819417,17.65833 C54.1433654,17.65833 56.3819417,15.4197538 56.3819417,12.65833 C56.3819417,9.89690629 54.1433654,7.65833004 51.3819417,7.65833004 C48.6205179,7.65833004 46.3819417,9.89690629 46.3819417,12.65833 L43.6180583,12.65833" transform="matrix(0 -1 -1 0 62.658 62.658)"/>
  </g>
</svg>
