<svg xmlns="http://www.w3.org/2000/svg" width="64" height="64" viewBox="0 0 64 64">
  <g fill="none" fill-rule="evenodd">
    <rect width="16" height="18" x="24" y="13" fill="#80D25B"/>
    <path fill="#22BA8E" d="M18,34.9940646 C18,32.2359189 20.2440262,30 23.0058389,30 L40.9941611,30 C43.7588096,30 46,32.2422798 46,34.9940646 L46,58.0059354 C46,60.7640811 43.7559738,63 40.9941611,63 L23.0058389,63 C20.2411904,63 18,60.7577202 18,58.0059354 L18,34.9940646 Z"/>
    <path stroke="#22BA8E" stroke-linecap="square" stroke-width="2" d="M32,8 L32,2"/>
    <path stroke="#80D25B" stroke-linecap="square" stroke-width="2" d="M20,9 L14,9"/>
    <path stroke="#22BA8E" stroke-linecap="square" stroke-width="2" d="M28,1 L36,1"/>
    <path fill="#22BA8E" d="M18,8.00292933 C18,7.44902676 18.4398131,7 18.9965348,7 L45.0034652,7 C45.5538362,7 46,7.43788135 46,8.00292933 L46,10.9907455 C46,12.6527109 44.6495018,14 43.0035095,14 L20.9964905,14 C19.3415745,14 18,12.6503296 18,10.9907455 L18,8.00292933 Z"/>
  </g>
</svg>
