<svg xmlns="http://www.w3.org/2000/svg" width="64" height="64" viewBox="0 0 64 64">
  <g fill="none" fill-rule="evenodd">
    <path fill="#FCC24C" d="M15.5342461,30 C15.5342461,30 1.77887912,41.9648759 3.08782548,45.030883 C4.39677184,48.0968901 23.1689062,42.7839199 23.1689062,42.7839199 L15.5342461,30 Z"/>
    <path fill="#FCC24C" d="M54.5342461,30 C54.5342461,30 40.7788791,41.9648759 42.0878255,45.030883 C43.3967718,48.0968901 62.1689062,42.7839199 62.1689062,42.7839199 L54.5342461,30 Z" transform="matrix(-1 0 0 1 104.169 0)"/>
    <path fill="#FFDD95" d="M14.7000189,30.8667171 C14.3134091,29.8357577 14.8546881,28.7558034 15.9172854,28.4522042 L28,25 L28,45 L21.9981014,45 C20.8945804,45 19.6858617,44.162298 19.2999811,43.1332829 L14.7000189,30.8667171 Z"/>
    <path fill="#FFDD95" d="M37.7000189,30.8667171 C37.3134091,29.8357577 37.8546881,28.7558034 38.9172854,28.4522042 L51,25 L51,45 L44.9981014,45 C43.8945804,45 42.6858617,44.162298 42.2999811,43.1332829 L37.7000189,30.8667171 Z" transform="matrix(-1 0 0 1 88 0)"/>
    <path fill="#FCC24C" d="M25.2492575,25.9910904 C25.1115964,24.3391568 26.3443507,23 27.9994225,23 L37.0005775,23 C38.6571128,23 39.8881858,24.3417706 39.7507425,25.9910904 L38.2492575,44.0089096 C38.1115964,45.6608432 36.6511841,47 34.9942017,47 L30.0057983,47 C28.3457418,47 26.8881858,45.6582294 26.7507425,44.0089096 L25.2492575,25.9910904 Z"/>
  </g>
</svg>
