<svg xmlns="http://www.w3.org/2000/svg" width="64" height="64" viewBox="0 0 64 64">
  <g fill="none" fill-rule="evenodd">
    <path stroke="#595959" stroke-linecap="round" stroke-width="2" d="M29,16 L33.3338486,23.6685634"/>
    <path fill="#D650C7" d="M19.0490678,29.7885482 C20.1265379,26.2537557 21.8021724,20.5048285 22.4990219,18 L22.4990219,18 L42.0814577,22.6893458 C43.6933241,23.0753345 45,24.7272603 45,26.3899056 L45,28.3865747 C45,30.0443488 43.6525607,31.3882402 41.9929028,31.3882402 L22.5625375,31.3882402 C20.3527991,31.3882402 19.0845819,29.6720395 19.72716,27.5639711 L19.0490678,29.7885482 Z"/>
    <path fill="#FF78C7" d="M10,34.2976797 C10,30.2672825 13.1822416,27.7491888 17.1303838,28.5252349 C17.1303838,28.5252349 21.25,30.0151369 32.5,30.0151369 C43.75,30.0151369 47.8696162,28.5252349 47.8696162,28.5252349 C51.8076184,27.6828709 55,30.276448 55,34.2976797 L55,35.7023203 C55,39.7327175 51.727463,43 47.694905,43 L17.305095,43 C13.2706024,43 10,39.723552 10,35.7023203 L10,34.2976797 Z"/>
    <path fill="#FFDD95" d="M10.4130044,43.9617709 C10.1849084,42.8783147 10.8988551,42 12.0049233,42 L51.9950767,42 C53.1023652,42 53.815094,42.8783036 53.5869956,43.9617709 L50.4130044,59.0382291 C50.1849084,60.1216853 49.1101074,61 48.0002927,61 L15.9997073,61 C14.8952994,61 13.815094,60.1216964 13.5869956,59.0382291 L10.4130044,43.9617709 Z"/>
    <path stroke="#FCC24C" stroke-linecap="round" stroke-linejoin="round" stroke-width="2" d="M17 45L20 58M47 45L44 58"/>
    <path stroke="#FCC24C" stroke-linecap="round" stroke-width="2" d="M26.0662718 57.9960277L25 44.2800987M38 57.9960277L39.0662718 44.2800987M32 57.7893992L32 44"/>
    <circle cx="27" cy="11" r="5" stroke="#595959" stroke-linecap="round" stroke-width="2"/>
    <path stroke="#FFDD95" stroke-linecap="round" stroke-width="2" d="M21.6242777 33.8643005L21.0983641 35.6926928M28.6697786 35.6188605L31.97709 37.0205396M36.3964304 35.2319031L37.8594472 34.8237427M40.7385309 35.4072077L42.7505575 37.6891958M45.1900546 34.9536119L47.4387235 35.8218048M48.4939584 32.7094866L49.5991721 32.7575723M46.3709939 39.8840995L48.2205893 38.2669814"/>
  </g>
</svg>
