<svg xmlns="http://www.w3.org/2000/svg" width="64" height="64" viewBox="0 0 64 64">
  <g fill="none" fill-rule="evenodd">
    <ellipse cx="33" cy="54" fill="#5EA7FF" rx="19" ry="3"/>
    <path fill="#B4DFFB" d="M45.2108338,60.3546663 C50.5182073,60.3546663 54.8206835,47.4496379 54.8206835,37.5085124 C54.8206835,27.5673869 50.5182073,24.3546663 45.2108338,24.3546663 C39.9034604,24.3546663 35.6009841,27.5673869 35.6009841,37.5085124 C35.6009841,47.4496379 39.9034604,60.3546663 45.2108338,60.3546663 Z" transform="rotate(54 45.21 42.355)"/>
    <path fill="#B4DFFB" d="M21.2108338,60.3546663 C26.5182073,60.3546663 30.8206835,47.4496379 30.8206835,37.5085124 C30.8206835,27.5673869 26.5182073,24.3546663 21.2108338,24.3546663 C15.9034604,24.3546663 11.6009841,27.5673869 11.6009841,37.5085124 C11.6009841,47.4496379 15.9034604,60.3546663 21.2108338,60.3546663 Z" transform="scale(-1 1) rotate(54 0 .726)"/>
    <path fill="#5EA7FF" d="M43.322374,57.9679323 C48.6297474,57.9679323 52.9322237,42.1951199 52.9322237,30.0448554 C52.9322237,17.8945909 48.6297474,13.9679323 43.322374,13.9679323 C38.0150005,13.9679323 33.7125243,17.8945909 33.7125243,30.0448554 C33.7125243,42.1951199 38.0150005,57.9679323 43.322374,57.9679323 Z" transform="rotate(30 43.322 35.968)"/>
    <path fill="#5EA7FF" d="M23.1181923,57.9679323 C28.4255658,57.9679323 32.728042,42.1951199 32.728042,30.0448554 C32.728042,17.8945909 28.4255658,13.9679323 23.1181923,13.9679323 C17.8108189,13.9679323 13.5083426,17.8945909 13.5083426,30.0448554 C13.5083426,42.1951199 17.8108189,57.9679323 23.1181923,57.9679323 Z" transform="scale(-1 1) rotate(30 0 -50.31)"/>
    <path fill="#B4DFFB" d="M39.0811256,56.2096322 C44.388499,56.2096322 48.6909753,39.149315 48.6909753,26.0072474 C48.6909753,12.8651798 44.388499,8.61799556 39.0811256,8.61799556 C33.7737521,8.61799556 29.4712759,12.8651798 29.4712759,26.0072474 C29.4712759,39.149315 33.7737521,56.2096322 39.0811256,56.2096322 Z" transform="rotate(14 39.081 32.414)"/>
    <path fill="#B4DFFB" d="M27.0811256,56.2096322 C32.388499,56.2096322 36.6909753,39.149315 36.6909753,26.0072474 C36.6909753,12.8651798 32.388499,8.61799556 27.0811256,8.61799556 C21.7737521,8.61799556 17.4712759,12.8651798 17.4712759,26.0072474 C17.4712759,39.149315 21.7737521,56.2096322 27.0811256,56.2096322 Z" transform="scale(-1 1) rotate(14 0 -188.144)"/>
    <path fill="#5EA7FF" d="M33.5,56 C39.2989899,56 44,37.3594035 44,23 C44,8.64059651 39.2989899,4 33.5,4 C27.7010101,4 23,8.64059651 23,23 C23,37.3594035 27.7010101,56 33.5,56 Z"/>
  </g>
</svg>
