<svg xmlns="http://www.w3.org/2000/svg" width="64" height="64" viewBox="0 0 64 64">
  <g fill="none" fill-rule="evenodd">
    <path stroke="#BD7575" stroke-linecap="round" stroke-linejoin="round" stroke-width="2" d="M41,33.5 C41,33.5 37.5,18.5 46.5,13 C46.5,13 28.5,18 25,31"/>
    <path fill="#80D25B" d="M42,10.6442066 C42,10.6442066 29,-2.35579337 13,15.1442066 C13,15.1442066 20,22.1442065 42,10.6442065"/>
    <path fill="#E43535" d="M41,54.0933236 C47.627417,54.0933236 53,48.7207406 53,42.0933236 C53,38.7796151 51.6568542,35.7796151 49.4852814,33.6080422 C47.3137085,31.4364693 44.3137085,32.0933236 41,32.0933236 C37.6862915,32.0933236 34.6862915,31.4364693 32.5147186,33.6080422 C30.3431458,35.7796151 29,38.7796151 29,42.0933236 C29,48.7207406 34.372583,54.0933236 41,54.0933236 Z"/>
    <path fill="#FF5656" d="M22,52.0933236 C28.627417,52.0933236 34,46.7207406 34,40.0933236 C34,36.7796151 32.6568542,33.7796151 30.4852814,31.6080422 C28.3137085,29.4364693 25.3137085,30.0933236 22,30.0933236 C18.6862915,30.0933236 15.6862915,29.4364693 13.5147186,31.6080422 C11.3431458,33.7796151 10,36.7796151 10,40.0933236 C10,46.7207406 15.372583,52.0933236 22,52.0933236 Z"/>
  </g>
</svg>
