<svg xmlns="http://www.w3.org/2000/svg" width="64" height="64" viewBox="0 0 64 64">
  <g fill="none" fill-rule="evenodd">
    <polygon fill="#868686" points="12 5 19 5 19 56.833 12 56.833"/>
    <path fill="#595959" d="M19,5 L51.0000796,5 C52.1046051,5 53,5.894703 53,7.00020325 L53,57.8324082 C53,58.93709 52.1080589,59.8326115 51.0000796,59.8326115 L19,59.8326115 L19,5 Z"/>
    <path fill="#BD7575" d="M26,26 L44,26 L44,32.9976305 C44,35.2080781 42.2082844,37 40.0052166,37 L29.9947834,37 C27.7885255,37 26,35.2081782 26,32.9976305 L26,26 Z"/>
    <circle cx="44" cy="30" r="3" stroke="#BD7575" stroke-linecap="round" stroke-width="2"/>
    <path fill="#ECECEC" d="M12,56.5 C12,54.5670034 13.5571833,53 15.4956369,53 L53,53 L53,60 L15.4956369,60 C13.56505,60 12,58.4290634 12,56.5 L12,56.5 Z"/>
  </g>
</svg>
