<svg xmlns="http://www.w3.org/2000/svg" width="64" height="64" viewBox="0 0 64 64">
  <g fill="none" fill-rule="evenodd">
    <path fill="#5EA7FF" d="M13.3137085,32.3232664 C13.3137085,30.1088487 15.1015081,28.3137085 17.3234715,28.3137085 L19.3039455,28.3137085 C21.5184765,28.3137085 23.3137085,30.1140608 23.3137085,32.3232664 L23.3137085,50.3137085 L13.3137085,50.3137085 L13.3137085,32.3232664 Z" transform="rotate(-45 18.314 39.314)"/>
    <path fill="#5EA7FF" d="M20.448839,17.9965564 C20.2009521,11.923326 24.9219194,7 31.0021775,7 L43.9978225,7 C50.0741573,7 54.7990752,11.9226571 54.551161,17.9965564 L53,56 L22,56 L20.448839,17.9965564 Z"/>
    <path stroke="#FFF" stroke-linecap="round" stroke-width="2" d="M50,19 C50,14.581722 46.418278,11 42,11"/>
    <path stroke="#B4DFFB" stroke-linecap="round" stroke-width="2" d="M31 30L42.8045899 41.8045899M31 35L42.8045899 46.8045899"/>
  </g>
</svg>
