<svg xmlns="http://www.w3.org/2000/svg" width="64" height="64" viewBox="0 0 64 64">
  <g fill="none" fill-rule="evenodd">
    <rect width="28" height="3" x="19" y="13" fill="#9C4D4D"/>
    <rect width="39" height="49" x="13" y="15" fill="#ED9111" rx="4"/>
    <rect width="27" height="31" x="19" y="24" fill="#ECECEC"/>
    <rect width="34" height="7" x="16" y="6" fill="#325AA6" rx="3"/>
    <path fill="#0A3586" d="M34.9856428,40.0913469 C32.8920598,43.7319256 28.2552658,44.9792799 24.6290736,42.8773909 C21.0028813,40.7755018 19.7604561,36.1203119 21.8540392,32.4797332 C23.9476222,28.8391546 28.5844162,27.5918002 32.2106085,29.6936893 C35.8368007,31.7955783 37.0792259,36.4507682 34.9856428,40.0913469 Z"/>
    <polyline fill="#5EA7FF" points="27.646 35.948 28.076 33.863 26.493 35.279 24.415 34.848 25.826 36.438 25.396 38.523 26.98 37.106 29.057 37.538"/>
    <ellipse cx="36.137" cy="43.837" fill="#325AA6" rx="6.7" ry="6.727"/>
    <polyline fill="#5EA7FF" points="36.632 42.492 37.585 40.589 35.69 41.546 33.795 40.589 34.748 42.492 33.795 44.394 35.69 43.438 37.585 44.394"/>
  </g>
</svg>
