<svg xmlns="http://www.w3.org/2000/svg" width="64" height="64" viewBox="0 0 64 64">
  <g fill="none" fill-rule="evenodd" stroke-linecap="round" stroke-linejoin="round">
    <path fill="#E43535" stroke="#E43535" stroke-width="2" d="M2.13292032,30.1932107 L2.13292032,37.4911429 C2.13292032,39.1528888 3.39538494,40.9590915 4.9763741,41.4848197 C4.9763741,41.4848197 18.3558695,46.899376 36.7488738,45.5 C44.8425401,44.8842179 57.2110036,39.452813 57.2110036,39.452813 C58.7406039,38.8174895 59.9805899,36.9633433 59.9805899,35.2998576 L59.9805899,25.5644487 L2.13292032,30.1932107 Z"/>
    <path fill="#FF5656" stroke="#FF5656" stroke-width="2" d="M32.2693006,39.5239334 C18.0199879,39.52724 3.09510136,34.8657776 2.26880764,31.5239334 C1.44251391,28.1820892 3.99960532,23.0239334 20.7306495,25.0239334 C20.7306495,25.0239334 37.4616937,17.5239334 45.5387495,18.0239334 C53.6158053,18.5239334 62.8467265,22.2619677 59.3851311,28.7619677 C57.7215796,31.8856964 45.4527756,39.5208741 32.2693006,39.5239334 Z"/>
    <path stroke="#FFDD95" stroke-width="2" d="M12 28L17.255949 33.255949M43 22L48.255949 27.255949M19 28L27.5146933 36.5146933M25 27L33.5146933 35.5146933M31 25L39.5146933 33.5146933M37 23L45.5146933 31.5146933"/>
  </g>
</svg>
