<svg xmlns="http://www.w3.org/2000/svg" width="64" height="64" viewBox="0 0 64 64">
  <g fill="none" fill-rule="evenodd">
    <path fill="#D8D8D8" d="M50.487067,49.987067 L50.487067,38.987067 L46.487067,38.987067 L46.487067,49.987067 C44.8302128,49.987067 43.487067,51.777928 43.487067,53.987067 C43.487067,56.196206 44.8302128,57.987067 46.487067,57.987067 C47.2554215,57.987067 47.9563106,57.601929 48.487067,56.9685424 C49.0178235,57.601929 49.7187126,57.987067 50.487067,57.987067 C52.1439213,57.987067 53.487067,56.196206 53.487067,53.987067 C53.487067,51.777928 52.1439213,49.987067 50.487067,49.987067 Z" transform="rotate(-45 48.487 48.487)"/>
    <path fill="#BD7575" d="M26.0918831,50.263456 C33.9062779,50.263456 41.4201976,29.0097188 41.4201976,17.9393262 C41.4201976,6.86893356 33.9062779,1.92031022 26.0918831,1.92031022 C18.2774883,1.92031022 10.7635686,6.86893356 10.7635686,17.9393262 C10.7635686,29.0097188 18.2774883,50.263456 26.0918831,50.263456 Z" transform="rotate(-45 26.092 26.092)"/>
    <path stroke="#9C4D4D" stroke-linecap="round" stroke-width="2" d="M10.2582168,13 C10.2582168,13 3.19291923,22.8904204 14.0567327,29.4443234"/>
  </g>
</svg>
