<svg xmlns="http://www.w3.org/2000/svg" width="64" height="64" viewBox="0 0 64 64">
  <g fill="none" fill-rule="evenodd">
    <g transform="rotate(54 8.89 18.506)">
      <path fill="#9C4D4D" d="M43,0 L72.9982567,0 C74.103789,0 74.6846176,0.84101975 74.2966333,1.87564456 L72.7033667,6.12435544 C72.314908,7.16024532 71.1002873,7.93795085 70.0067126,7.8625319 L43,6 L43,0 Z"/>
      <path fill="#D8D8D8" d="M0,2.99420208 C0,1.34054993 1.34339372,0 2.99361448,0 L47,0 L47,17 L0,20 L0,2.99420208 Z M4,7 C5.1045695,7 6,6.1045695 6,5 C6,3.8954305 5.1045695,3 4,3 C2.8954305,3 2,3.8954305 2,5 C2,6.1045695 2.8954305,7 4,7 Z"/>
    </g>
    <path stroke="#FFF" stroke-linecap="round" stroke-width="2" d="M9.04036253,11.6819698 L18.5979058,23.5546422"/>
  </g>
</svg>
