<svg xmlns="http://www.w3.org/2000/svg" width="64" height="64" viewBox="0 0 64 64">
  <g fill="none" fill-rule="evenodd">
    <path stroke="#D8D8D8" stroke-linecap="square" stroke-width="2" d="M33,34 L33,58"/>
    <ellipse cx="33" cy="61" fill="#D8D8D8" rx="10" ry="3"/>
    <path fill="#ECECEC" stroke="#D8D8D8" stroke-linecap="round" stroke-linejoin="round" stroke-width="2" d="M14,16 L52,16 L52,30.5 C52,38.5081289 45.5107442,45 37.4983045,45 L28.5016955,45 C20.4926302,45 14,38.5098896 14,30.5 L14,16 Z"/>
    <path fill="#E43535" stroke="#D8D8D8" stroke-linecap="round" stroke-linejoin="round" stroke-width="2" d="M52,30.5 L52,30.5 C52,38.5081289 45.5107442,45 37.4983045,45 L28.5016955,45 C20.4926302,45 14,38.5133883 14,30.5 L14,30.5"/>
    <ellipse cx="33" cy="16" fill="#ECECEC" stroke="#D8D8D8" stroke-linecap="round" stroke-width="2" rx="19" ry="4"/>
    <ellipse cx="33" cy="31" fill="#E43535" stroke="#D8D8D8" stroke-linecap="round" stroke-width="2" rx="19" ry="4"/>
  </g>
</svg>
