<svg xmlns="http://www.w3.org/2000/svg" width="64" height="64" viewBox="0 0 64 64">
  <g fill="none" fill-rule="evenodd">
    <polyline stroke="#FF5656" stroke-linecap="round" stroke-width="2" points="19 37 33 31 33 31 47 37"/>
    <polyline stroke="#FF5656" stroke-linecap="round" stroke-width="2" points="19 41 33 35 33 35 47 41"/>
    <polyline stroke="#FF5656" stroke-linecap="round" stroke-width="2" points="19 45 33 39 33 39 47 45"/>
    <path fill="#FF5656" d="M33,52 C37.418278,52 41,39.7899831 41,30.125 C41,20.4600169 37.418278,17 33,17 C28.581722,17 25,20.4600169 25,30.125 C25,39.7899831 28.581722,52 33,52 Z"/>
    <ellipse cx="33" cy="53.5" fill="#E43535" rx="11" ry="3.5"/>
    <circle cx="26" cy="56" r="4" fill="#FF5656"/>
    <circle cx="40" cy="56" r="4" fill="#FF5656"/>
    <circle cx="33" cy="58" r="4" fill="#E43535"/>
    <g transform="translate(10 2)">
      <path fill="#FF5656" d="M9.24496214,15.9809427 C9.24496214,15.9809427 12.7084529,5.81299073 9.26817589,1.43123056 C9.26817589,1.43123056 15.9888867,7.03038584 12.1128545,18.6518498 C8.23682236,30.2733138 9.24496214,15.9809427 9.24496214,15.9809427 Z"/>
      <path fill="#E43535" d="M7.04827862,0.57961774 C7.04827862,0.57961774 3.16760371,6.90668974 8.17447688,11.4277324 C13.18135,15.948775 15.2775512,20.2718376 13.4993783,24.3514875 C11.7212055,28.4311373 3.73634046,24.5869412 1.12081465,17.2513978 C-1.49471115,9.91585434 7.04827862,0.57961774 7.04827862,0.57961774 Z"/>
    </g>
    <g transform="matrix(-1 0 0 1 56 2)">
      <path fill="#FF5656" d="M9.24496214,15.9809427 C9.24496214,15.9809427 12.7084529,5.81299073 9.26817589,1.43123056 C9.26817589,1.43123056 15.9888867,7.03038584 12.1128545,18.6518498 C8.23682236,30.2733138 9.24496214,15.9809427 9.24496214,15.9809427 Z"/>
      <path fill="#E43535" d="M7.04827862,0.57961774 C7.04827862,0.57961774 3.16760371,6.90668974 8.17447688,11.4277324 C13.18135,15.948775 15.2775512,20.2718376 13.4993783,24.3514875 C11.7212055,28.4311373 3.73634046,24.5869412 1.12081465,17.2513978 C-1.49471115,9.91585434 7.04827862,0.57961774 7.04827862,0.57961774 Z"/>
    </g>
    <path stroke="#E43535" stroke-linecap="round" stroke-width="2" d="M27,17 L29.7953774,19.5009549"/>
    <path stroke="#E43535" stroke-linecap="round" stroke-width="2" d="M36,17 L38.7953774,19.5009549" transform="matrix(-1 0 0 1 74.795 0)"/>
  </g>
</svg>
