<svg xmlns="http://www.w3.org/2000/svg" width="64" height="64" viewBox="0 0 64 64">
  <g fill="none" fill-rule="evenodd">
    <path fill="#7781CB" d="M37.6875,49 L58,49 L58,5 L6,5 L6,49 L26.3125,49 L32,62 L37.6875,49 Z"/>
    <path stroke="#DCE6FF" stroke-linecap="square" stroke-linejoin="round" stroke-width="2" d="M32 29L32 40M28 41L36.0622578 41"/>
    <path fill="#E43535" d="M24,19 C24.4333691,24.622736 27.8288327,29 31.9532868,29 C36.077741,29 39.4732046,24.622736 39.9065737,19 L24,19 Z"/>
    <path fill="#DCE6FF" d="M24.0467132,19 C24.0158402,18.6135768 24,18.2210558 24,17.8235294 C24,15.2367458 24.6707307,12.8619107 25.7897314,11 L38.2102686,11 C39.3292693,12.8619107 40,15.2367458 40,17.8235294 C40,18.2210558 39.9841598,18.6135768 39.9532868,19 L24.0467132,19 Z"/>
  </g>
</svg>
