<svg xmlns="http://www.w3.org/2000/svg" width="64" height="64" viewBox="0 0 64 64">
  <g fill="none" fill-rule="evenodd">
    <circle cx="10" cy="23" r="6" stroke="#595959" stroke-linecap="round" stroke-width="2"/>
    <circle cx="54" cy="23" r="6" stroke="#595959" stroke-linecap="round" stroke-width="2"/>
    <circle cx="32" cy="11" r="4" fill="#D650C7"/>
    <path fill="#D650C7" d="M12,16 L52,16 C52,16 55,22.25 55,28.5 C55,34.75 54.1722954,39.1381382 54.1722954,39.1381382 C52.9725698,49.0029721 43.9414999,57 34.0038425,57 L29.9961575,57 C20.0571542,57 10.9738646,49.009938 9.82770462,39.1381382 C9.82770462,39.1381382 9,34.75 9,28.5 C9,22.25 12,16 12,16 Z"/>
    <path fill="#595959" d="M18 53L46 53 46 55C46 56.1045695 45.1001025 57 44.0087557 57L19.9912443 57C18.8915104 57 18 56.1122704 18 55L18 53zM12 13.5C12 12.1192881 13.1115772 11 14.5021791 11L49.4978209 11C50.8797362 11 52 12.1096621 52 13.5L52 16 12 16 12 13.5z"/>
  </g>
</svg>
