<svg xmlns="http://www.w3.org/2000/svg" width="64" height="64" viewBox="0 0 64 64">
  <g fill="none" fill-rule="evenodd">
    <path stroke="#9C4D4D" stroke-linecap="round" stroke-linejoin="round" stroke-width="2" d="M33,22.5 C33,22.5 35,15 27,7"/>
    <path fill="#5B68C0" d="M32.5,61 C41.0604136,61 48,52.2695526 48,41.5 C48,36.1152237 46.2651034,31.2402237 43.4601551,27.7114178 C42.0324289,25.9152461 40.3274697,24.4678514 38.4329535,23.4795357 C36.6054535,22.5261805 34.60157,23 32.5,23 C30.39843,23 28.3945465,22.5261805 26.5670465,23.4795357 C24.6725303,24.4678514 22.9675711,25.9152461 21.5398449,27.7114178 C18.7348966,31.2402237 17,36.1152237 17,41.5 C17,52.2695526 23.9395864,61 32.5,61 Z"/>
    <path stroke="#5EA7FF" stroke-linecap="round" stroke-linejoin="round" stroke-width="2" d="M31,24 C31,24 46,30.5 38.5,47"/>
    <path fill="#80D25B" d="M29,10 C29,10 16.5,4 13,15 C13,15 21.5,20.5 30.5,11.5"/>
  </g>
</svg>
