<svg xmlns="http://www.w3.org/2000/svg" width="64" height="64" viewBox="0 0 64 64">
  <g fill="none" fill-rule="evenodd">
    <rect width="48" height="26" x="8" y="23" fill="#FFDD95"/>
    <rect width="64" height="10" y="31" fill="#BD7575" rx="5"/>
    <path stroke="#ED9111" stroke-linecap="round" stroke-width="2" d="M6.05821456,37.8430124 C6.05821456,37.8430124 9.85478462,35.2302053 14.770811,36.9533082 C19.6868374,38.676411 22.3336243,37.7613506 25.5258549,36.5211341 C28.7180856,35.2809177 29.93995,37.2769726 34.6744548,38.6242071 C39.4089596,39.9714415 39.6840989,37.1058182 43.2266266,36.2530296 C46.7691544,35.400241 46.3318324,38.5514944 50.173673,39.1496024 C54.0155135,39.7477104 55.7476602,35.7682788 58.0582146,36.0106542"/>
    <path stroke="#E43535" stroke-linecap="round" stroke-width="2" d="M58.0582146,34.8430124 C58.0582146,34.8430124 54.2616445,32.2302053 49.3456181,33.9533082 C44.4295917,35.676411 41.7828048,34.7613506 38.5905742,33.5211341 C35.3983435,32.2809177 34.1764791,34.2769726 29.4419743,35.6242071 C24.7074695,36.9714415 24.4323302,34.1058182 20.8898025,33.2530296 C17.3472748,32.400241 17.7845967,35.5514944 13.9427562,36.1496024 C10.1009156,36.7477104 8.36876895,32.7682788 6.05821456,33.0106542"/>
  </g>
</svg>
