<svg xmlns="http://www.w3.org/2000/svg" width="64" height="64" viewBox="0 0 64 64">
  <g fill="none" fill-rule="evenodd">
    <polygon fill="#BD7575" points="4 29 60 29 64 49 0 49"/>
    <rect width="64" height="5" y="49" fill="#9C4D4D"/>
    <path fill="#D8D8D8" d="M4.08101584,37 C4.63556402,38.6961471 7.96974639,40 12,40 C16.0302536,40 19.364436,38.6961471 19.9189842,37 L20,37 L20,21 L4,21 L4,37 L4.08101584,37 Z"/>
    <ellipse cx="12" cy="21.5" fill="#D650C7" rx="8" ry="3.5"/>
    <ellipse cx="10.5" cy="21.5" fill="#FF78C7" rx="2.5" ry="1.5"/>
    <path fill="#D8D8D8" d="M24.0810158,37 C24.635564,38.6961471 27.9697464,40 32,40 C36.0302536,40 39.364436,38.6961471 39.9189842,37 L40,37 L40,21 L24,21 L24,37 L24.0810158,37 Z"/>
    <ellipse cx="32" cy="21.5" fill="#D650C7" rx="8" ry="3.5"/>
    <ellipse cx="34.5" cy="21.5" fill="#FF78C7" rx="2.5" ry="1.5"/>
    <path fill="#D8D8D8" d="M44.0810158,37 C44.635564,38.6961471 47.9697464,40 52,40 C56.0302536,40 59.364436,38.6961471 59.9189842,37 L60,37 L60,21 L44,21 L44,37 L44.0810158,37 Z"/>
    <ellipse cx="52" cy="21.5" fill="#D650C7" rx="8" ry="3.5"/>
    <ellipse cx="52.5" cy="21.5" fill="#FF78C7" rx="2.5" ry="1.5"/>
  </g>
</svg>
