<svg xmlns="http://www.w3.org/2000/svg" width="64" height="64" viewBox="0 0 64 64">
  <g fill="none" fill-rule="evenodd">
    <path fill="#FF78C7" d="M35.2735614,34.8200979 C28.2789387,34.8200979 0.686713319,36.9717345 3.58634782,27.0640085 C6.48598233,17.1562826 25.3985453,16.0571345 33.2258268,11.1968314 C41.0531083,6.3365283 62.9268773,9.80473746 61.352955,19.932293 C59.7790326,30.0598486 42.268184,34.8200979 35.2735614,34.8200979 Z"/>
    <ellipse cx="32" cy="42.5" fill="#D8D8D8" rx="29" ry="5.5"/>
    <path fill="#BD7575" d="M23.4365567,54.6728304 C23.4365567,54.6728304 12.437299,51.3103392 17.1928077,45.5355369 C21.9483164,39.7607347 30.3852615,38.1296603 33.558843,39.4100486 C36.7324244,40.6904369 38.5580401,43.3827849 43.3391463,44.1394478 C48.1202525,44.8961107 48.218547,51.9676837 42.3034703,53.320257 C36.3883937,54.6728304 23.4365567,54.6728304 23.4365567,54.6728304 Z"/>
    <path fill="#D650C7" d="M61,42.5 C61,49.9558441 48.0162577,56 32,56 C15.9837423,56 3,49.9558441 3,42.5 C3,45.5375661 15.9837423,48 32,48 C48.0162577,48 61,45.5375661 61,42.5 Z"/>
    <path stroke="#D650C7" stroke-linecap="round" stroke-width="2" d="M30 16C30 16 42.2414164 18.3289311 45.6788971 23.9971849M27.3211029 19C27.3211029 19 39.5625193 21.3289311 43 26.9971849"/>
  </g>
</svg>
