<svg xmlns="http://www.w3.org/2000/svg" xmlns:xlink="http://www.w3.org/1999/xlink" width="64" height="64" viewBox="0 0 64 64">
  <defs>
    <path id="restaurant7-copy-21-a" d="M33.0946101,22.3501822 C33.0946101,22.3501822 38.9197217,27.3450048 45.0297405,28.274335 C51.1397593,29.2036652 59.7506799,39.8163543 49.2274334,48.1790172 C38.7041869,56.5416801 24.6547212,55.0355543 10.7780325,42.0711799 C-3.09865628,29.1068054 -1.31373146,13.0424821 4.7321505,5.62660162 C10.7780325,-1.78927886 17.5743595,-1.03054402 23.0451911,3.82727873 C25.352784,5.87630493 24.9649343,9.73790607 27.1863174,14.551662 C29.4077006,19.3654179 33.0946101,22.3501822 33.0946101,22.3501822 Z"/>
  </defs>
  <g fill="none" fill-rule="evenodd">
    <g transform="translate(6 6)">
      <mask id="restaurant7-copy-21-b" fill="#fff">
        <use xlink:href="#restaurant7-copy-21-a"/>
      </mask>
      <use fill="#FFDD95" xlink:href="#restaurant7-copy-21-a"/>
      <ellipse cx="30.939" cy="22.088" fill="#ED9111" mask="url(#restaurant7-copy-21-b)" rx="7" ry="10" transform="rotate(-43 30.94 22.088)"/>
    </g>
    <path stroke="#ED9111" stroke-linecap="round" stroke-width="2" d="M52.4063268 39.028778C52.4063268 39.028778 58.304416 41.6927526 56.3383863 47.5310551M11.957583 16.048152C11.957583 16.048152 6.68378836 25.1452635 11.2934306 31.877334"/>
  </g>
</svg>
