<svg xmlns="http://www.w3.org/2000/svg" width="64" height="64" viewBox="0 0 64 64">
  <g fill="none" fill-rule="evenodd">
    <polygon fill="#E43535" points="24 2 33 2 34 8 23 8"/>
    <path fill="#595959" d="M24,8 L33,8 L34.1393114,13.0501097 C34.3822602,14.1270044 35.055591,15.7491226 35.6567781,16.6945047 L39.0306471,22 L39.0306471,40 L37.4503969,47.090839 C36.9692532,49.249809 37.330063,52.6189194 38.2607085,54.6254883 L38.6081052,55.3745117 C39.5367717,57.3768136 38.9820616,60.2359554 37.3817424,61.7486574 L35.7244058,63.3152552 C35.3243275,63.6934293 34.5525106,64 34.0014977,64 L22.9985023,64 C22.4470447,64 21.671589,63.6872276 21.27001,63.3047714 L19.6513992,61.7632374 C18.0490007,60.2371435 17.5088685,57.3810806 18.4494476,55.3745117 L18.8005524,54.6254883 C19.7391314,52.6231864 20.1038676,49.2570173 19.6115543,47.090839 L18,40 L18,22 L21.4221379,16.6766744 C22.0174247,15.7506727 22.6869432,14.1275986 22.9178336,13.0501097 L24,8 Z"/>
    <rect width="21" height="18" x="18" y="22" fill="#FF5656"/>
  </g>
</svg>
