<svg xmlns="http://www.w3.org/2000/svg" width="64" height="64" viewBox="0 0 64 64">
  <g fill="none" fill-rule="evenodd">
    <rect width="48" height="26" x="8" y="33" fill="#FFDD95"/>
    <rect width="64" height="10" y="41" fill="#BD7575" rx="5"/>
    <path stroke="#ED9111" stroke-linecap="round" stroke-width="2" d="M6.05821456,47.8430124 C6.05821456,47.8430124 9.85478462,45.2302053 14.770811,46.9533082 C19.6868374,48.676411 22.3336243,47.7613506 25.5258549,46.5211341 C28.7180856,45.2809177 29.93995,47.2769726 34.6744548,48.6242071 C39.4089596,49.9714415 39.6840989,47.1058182 43.2266266,46.2530296 C46.7691544,45.400241 46.3318324,48.5514944 50.173673,49.1496024 C54.0155135,49.7477104 55.7476602,45.7682788 58.0582146,46.0106542"/>
    <path stroke="#E43535" stroke-linecap="round" stroke-width="2" d="M58.0582146,44.8430124 C58.0582146,44.8430124 54.2616445,42.2302053 49.3456181,43.9533082 C44.4295917,45.676411 41.7828048,44.7613506 38.5905742,43.5211341 C35.3983435,42.2809177 34.1764791,44.2769726 29.4419743,45.6242071 C24.7074695,46.9714415 24.4323302,44.1058182 20.8898025,43.2530296 C17.3472748,42.400241 17.7845967,45.5514944 13.9427562,46.1496024 C10.1009156,46.7477104 8.36876895,42.7682788 6.05821456,43.0106542"/>
    <path fill="#E43535" d="M26.2333333,7 C22.7907584,7 20,9.07820713 20,13.2962963 C20,17.5143855 29.4111111,27 31,27 C32.5888889,27 42,17.5143855 42,13.2962963 C42,9.07820713 39.2092416,7 35.7666667,7 C33.8544957,7 32.1434246,7.86970846 31,9.2388765 C29.8565754,7.86970846 28.1455043,7 26.2333333,7 Z"/>
  </g>
</svg>
