<svg xmlns="http://www.w3.org/2000/svg" width="64" height="64" viewBox="0 0 64 64">
  <g fill="none" fill-rule="evenodd">
    <rect width="42.249" height="42.249" x="11.25" y="11.624" fill="#ED9111" transform="rotate(-45 32.374 32.749)"/>
    <rect width="35.885" height="35.885" x="14.432" y="14.806" fill="#FFDD95" transform="rotate(-45 32.374 32.749)"/>
    <path fill="#22BA8E" d="M23 22L27 22 27 58.9988612C27 60.1040596 26.1122704 61 25 61L25 61C23.8954305 61 23 60.1121541 23 58.9988612L23 22zM39 22L43 22 43 58.9988612C43 60.1040596 42.1122704 61 41 61L41 61C39.8954305 61 39 60.1121541 39 58.9988612L39 22z"/>
    <path fill="#D8D8D8" d="M38.779245,4.98679537 C38.9011646,3.88951858 39.8877296,3 41,3 L41,3 C42.1045695,3 43,3.88989258 43,4.99970728 L43,39 L35,39 L38.779245,4.98679537 Z"/>
    <path stroke="#D8D8D8" stroke-linecap="round" stroke-width="2" d="M31,5 L31,16.9913864 C31,19.7575673 28.7710151,22 25.9978137,22 L24.0021863,22 C21.2395551,22 19,19.7600656 19,16.9913864 L19,5 L19,5"/>
    <path stroke="#D8D8D8" stroke-linecap="round" stroke-linejoin="round" stroke-width="2" d="M25,21 L25,5"/>
  </g>
</svg>
