<svg xmlns="http://www.w3.org/2000/svg" width="64" height="64" viewBox="0 0 64 64">
  <g fill="none" fill-rule="evenodd">
    <path fill="#979797" d="M12,21 L52,21 L52,41.9971835 C52,44.207878 50.2035752,46 47.9999745,46 L16.0000255,46 C13.7908724,46 12,44.2020617 12,41.9971835 L12,21 Z"/>
    <circle cx="32" cy="7" r="4" fill="#5EA7FF"/>
    <polyline stroke="#5EA7FF" stroke-linecap="round" stroke-width="2" points="9 22.973 9 18 54.881 18 54.881 23.156"/>
    <path fill="#D8D8D8" d="M12,11 C12,8.790861 13.7964248,7 16.0000255,7 L47.9999745,7 C50.2091276,7 52,8.79535615 52,11 L52,15 L12,15 L12,11 Z"/>
    <rect width="24" height="25" x="20" y="21" fill="#595959"/>
    <path fill="#595959" d="M9,55 C9,53.8954305 9.89194115,53 10.9999204,53 L43,53 L43,57 L10.9999204,57 C9.89539486,57 9,56.1122704 9,55 L9,55 Z"/>
    <ellipse cx="50" cy="55" fill="#595959" rx="9" ry="6"/>
    <ellipse cx="50" cy="55" fill="#979797" rx="7" ry="4"/>
  </g>
</svg>
