<svg xmlns="http://www.w3.org/2000/svg" width="64" height="64" viewBox="0 0 64 64">
  <g fill="none" fill-rule="evenodd">
    <path fill="#ED9111" d="M32,62 C38.627417,62 44,56.627417 44,50 C44,43.372583 38.627417,0.975441255 32,0.975441255 C25.372583,0.975441255 20,43.372583 20,50 C20,56.627417 25.372583,62 32,62 Z"/>
    <circle cx="37" cy="33" r="2" fill="#FCC24C"/>
    <circle cx="37" cy="39.495" r="2" fill="#FCC24C"/>
    <circle cx="31" cy="35" r="2" fill="#FCC24C"/>
    <circle cx="34" cy="27" r="2" fill="#FCC24C"/>
    <circle cx="29" cy="21" r="2" fill="#FCC24C"/>
    <circle cx="35" cy="21" r="2" fill="#FCC24C"/>
    <circle cx="31" cy="15" r="2" fill="#FCC24C"/>
    <circle cx="31" cy="8" r="2" fill="#FCC24C"/>
    <circle cx="28" cy="28" r="2" fill="#FCC24C"/>
    <path fill="#80D25B" d="M20,50 C20,56.627417 25.372583,62 32,62 C38.627417,62 44,56.627417 44,50 C44,50 44.4324168,42.4071876 48.4390953,38.6516169 C48.4390953,38.6516169 35.5469011,46.5803596 34.900047,51.0912629 C34.900047,51.0912629 28.985181,30.5026626 12.111618,28.483348 C12.111618,28.483348 18.1096335,36.3023095 19.2567154,40.7571243 C20.4037974,45.2119391 20,50 20,50 Z"/>
  </g>
</svg>
