<svg xmlns="http://www.w3.org/2000/svg" width="64" height="64" viewBox="0 0 64 64">
  <g fill="none" fill-rule="evenodd">
    <circle cx="33" cy="33" r="27" fill="#D8D8D8"/>
    <circle cx="33" cy="33" r="18" fill="#ECECEC"/>
    <path stroke="#979797" stroke-linecap="round" stroke-width="2" d="M18,4 L18,15.9913864 C18,18.7575673 15.7710151,21 12.9978137,21 L11.0021863,21 C8.23955507,21 6,18.7600656 6,15.9913864 L6,4 L6,4"/>
    <path fill="#979797" d="M10 21L14 21 14 57.9988612C14 59.1040596 13.1122704 60 12 60L12 60C10.8954305 60 10 59.1121541 10 57.9988612L10 21zM52 21L56 21 56 57.9988612C56 59.1040596 55.1122704 60 54 60L54 60C52.8954305 60 52 59.1121541 52 57.9988612L52 21z"/>
    <path fill="#979797" d="M51.779245,3.98679537 C51.9011646,2.88951858 52.8877296,2 54,2 L54,2 C55.1045695,2 56,2.88989258 56,3.99970728 L56,38 L48,38 L51.779245,3.98679537 Z"/>
    <path stroke="#979797" stroke-linecap="round" stroke-linejoin="round" stroke-width="2" d="M12,20 L12,4"/>
  </g>
</svg>
