<svg xmlns="http://www.w3.org/2000/svg" width="64" height="64" viewBox="0 0 64 64">
  <g fill="none" fill-rule="evenodd">
    <g transform="rotate(-45 28.707 19.308)">
      <rect width="4" height="31" x="19" y="29" fill="#D8D8D8"/>
      <rect width="6" height="21" x="18" y="48" fill="#979797" rx="3"/>
      <circle cx="21" cy="21" r="21" fill="#979797"/>
      <circle cx="21" cy="21" r="17" fill="#595959"/>
    </g>
    <path fill="#ECECEC" d="M13.4996154,31.1892797 C13.4996154,31.1892797 6.65261845,25.0920785 12.0092762,21.956529 C17.365934,18.8209796 18.6527307,21.6346836 19.3460266,17.1881618 C20.0393225,12.74164 20.4273048,10.391663 26.7216411,12.6098687 C33.0159775,14.8280745 31.1304103,17.0820034 32.491971,20.3884173 C33.8535317,23.6948313 35.2875508,27.9863281 31.7146891,30.1755509 C28.1418273,32.3647737 29.0692959,33.6804642 27.0592318,33.6531664 C25.0491677,33.6258685 27.4017628,32.2875982 21.3234844,32.5973112 C15.2452061,32.9070242 13.4996154,31.1892797 13.4996154,31.1892797 Z"/>
    <ellipse cx="25.163" cy="19.088" fill="#FCC24C" rx="4.406" ry="4.508"/>
  </g>
</svg>
