<svg xmlns="http://www.w3.org/2000/svg" width="64" height="64" viewBox="0 0 64 64">
  <g fill="none" fill-rule="evenodd">
    <path fill="#595959" d="M16,7.00492334 C16,5.89763476 16.8877296,5 18,5 L18,5 C19.1045695,5 20,5.89885511 20,7.00492334 L20,49 L16,49 L16,7.00492334 Z"/>
    <path fill="#979797" d="M15,4.99420208 C15,3.34054993 16.3465171,2 18,2 L18,2 C19.6568542,2 21,3.34331197 21,4.99420208 L21,22 L15,22 L15,4.99420208 Z"/>
    <path fill="#D8D8D8" d="M2,46 C2,54.836556 9.163444,62 18,62 C26.836556,62 34,54.836556 34,46 L2,46 Z"/>
    <g transform="rotate(-180 30 31)">
      <path fill="#595959" d="M10,5.00228533 C10,3.89645368 10.8877296,3 12,3 L12,3 C13.1045695,3 14,3.89978493 14,5.00228533 L14,36 L10,36 L10,5.00228533 Z"/>
      <path fill="#979797" d="M9,2.99420208 C9,1.34054993 10.3465171,0 12,0 L12,0 C13.6568542,0 15,1.34331197 15,2.99420208 L15,20 L9,20 L9,2.99420208 Z"/>
      <path fill="#D8D8D8" d="M23.8463843,58.0029953 C23.9312239,59.1059106 23.1029738,60 21.9950534,60 L2.00494659,60 C0.897645164,60 0.068844527,59.1050211 0.153615743,58.0029953 L1.84638426,35.9970047 C1.93122389,34.8940894 2.89821238,34 3.99079514,34 L20.0092049,34 C21.1086907,34 22.0688445,34.8949789 22.1536157,35.9970047 L23.8463843,58.0029953 Z M5,38.5032506 L5,55.4967494 C5,56.3345642 5.67157288,57 6.5,57 C7.33420277,57 8,56.3269718 8,55.4967494 L8,38.5032506 C8,37.6654358 7.32842712,37 6.5,37 C5.66579723,37 5,37.6730282 5,38.5032506 Z M10,38.9907951 L10,55.0092049 C10,56.1017876 10.8954305,57 12,57 C13.1122704,57 14,56.1086907 14,55.0092049 L14,38.9907951 C14,37.8982124 13.1045695,37 12,37 C10.8877296,37 10,37.8913093 10,38.9907951 Z M16,38.5032506 L16,55.4967494 C16,56.3345642 16.6715729,57 17.5,57 C18.3342028,57 19,56.3269718 19,55.4967494 L19,38.5032506 C19,37.6654358 18.3284271,37 17.5,37 C16.6657972,37 16,37.6730282 16,38.5032506 Z"/>
    </g>
  </g>
</svg>
