<svg xmlns="http://www.w3.org/2000/svg" width="64" height="64" viewBox="0 0 64 64">
  <g fill="none" fill-rule="evenodd">
    <polygon fill="#325AA6" points="4 18 60 18 60 53 4 53"/>
    <rect width="52" height="31" x="6" y="20" fill="#0A3586"/>
    <path stroke="#ED9111" stroke-linecap="round" stroke-linejoin="round" stroke-width="2" d="M28,41 L28,11"/>
    <path fill="#ED9111" d="M25.7507425,8.49257535 C25.8884036,7.115964 27.1170893,6 28.504611,6 L29,6 L29,26 L24,26 L25.7507425,8.49257535 Z"/>
    <path stroke="#ED9111" stroke-linecap="round" stroke-width="2" d="M40,7 L40,12.9914698 C40,14.1007504 39.1017394,15 38.0020869,15 L35.9979131,15 C34.8944962,15 34,14.0980496 34,12.9914698 L34,7"/>
    <path stroke="#ED9111" stroke-linecap="round" stroke-linejoin="round" stroke-width="2" d="M37,41 L37,7"/>
    <path fill="#595959" d="M0,53 L64,53 L64,55.5 C64,56.8807119 62.8891602,58 61.4911242,58 L2.50887585,58 C1.12326198,58 0,56.8903379 0,55.5 L0,53 Z"/>
  </g>
</svg>
