<svg xmlns="http://www.w3.org/2000/svg" width="64" height="64" viewBox="0 0 64 64">
  <g fill="none" fill-rule="evenodd">
    <g transform="rotate(45 22.981 52.067)">
      <polygon fill="#BD7575" points="6 57 9 63 3 63"/>
      <polygon fill="#BD7575" points="6 0 9 6 3 6" transform="matrix(1 0 0 -1 0 6)"/>
      <rect width="12" height="57" y="3" fill="#9C4D4D" rx="5"/>
      <path stroke="#BD7575" stroke-linecap="square" stroke-width="2" d="M3,11 L3,51.012498"/>
    </g>
    <g transform="rotate(45 14.757 73.127)">
      <polygon fill="#BD7575" points="6 57 9 63 3 63"/>
      <polygon fill="#BD7575" points="6 0 9 6 3 6" transform="matrix(1 0 0 -1 0 6)"/>
      <rect width="12" height="57" y="3" fill="#9C4D4D" rx="5"/>
      <path stroke="#BD7575" stroke-linecap="square" stroke-width="2" d="M3,11 L3,51.012498"/>
    </g>
  </g>
</svg>
