<svg xmlns="http://www.w3.org/2000/svg" width="64" height="64" viewBox="0 0 64 64">
  <g fill="none" fill-rule="evenodd">
    <rect width="28" height="3" x="19" y="13" fill="#9C4D4D"/>
    <rect width="39" height="49" x="13" y="15" fill="#ED9111" rx="4"/>
    <rect width="27" height="31" x="19" y="24" fill="#ECECEC"/>
    <rect width="34" height="7" x="16" y="6" fill="#FF78C7" rx="3"/>
    <path fill="#80D25B" d="M34.5482128 33.8972699C34.5482128 33.8972699 37.2082932 31.4914002 40.0750155 31.8193506L36.9940487 35.4030077 34.8351896 37.1738864M31.6734583 33.7126704C31.6734583 33.7126704 29.0133779 31.3068007 26.1466556 31.6347511L29.2276224 35.2184082 31.9654218 36.2802637"/>
    <polyline fill="#80D25B" points="31.391 35.089 33.113 28.536 34.835 35.089 32.826 38.663"/>
    <path fill="#FF78C7" d="M31.2312664,33 C31.9269989,33 32.5447074,33.3467457 32.9327409,33.8828273 C33.3207744,33.3467457 33.9384829,33 34.6342153,33 C35.5813359,33 36.3838612,33.6425945 36.6592006,34.5306646 C37.076622,34.1287602 37.6355898,33.8830425 38.2498485,33.8830425 C39.5419338,33.8830425 40.5893759,34.9702593 40.5893759,36.3114093 C40.5893759,36.5891502 40.5444543,36.8560008 40.4617412,37.1045601 C41.2803993,37.4117269 41.8654817,38.2255909 41.8654817,39.1812973 C41.8654817,40.0646151 41.3656752,40.8267639 40.6435928,41.1796744 C40.8784694,41.558245 41.0147445,42.0089571 41.0147445,42.4927066 C41.0147445,43.7749003 40.0573684,44.8249957 38.844129,44.9148413 C38.872826,45.0594317 38.8879015,45.2091858 38.8879015,45.3625947 C38.8879015,46.5818219 37.9356814,47.5702009 36.7610584,47.5702009 C36.7463831,47.7125609 36.7610584,47.8603626 36.7610584,48.0117221 C36.7610584,49.2309494 35.8088383,50.2193283 34.6342153,50.2193283 C33.9384829,50.2193283 33.3207744,49.8725827 32.9327409,49.3365011 C32.5447074,49.8725827 31.9269989,50.2193283 31.2312664,50.2193283 C30.0566434,50.2193283 29.1044234,49.2309494 29.1044234,48.0117221 C29.1044234,47.8603626 29.1190987,47.7125609 29.147053,47.5697663 C27.9298004,47.5702009 26.9775803,46.5818219 26.9775803,45.3625947 C26.9775803,45.2091858 26.9926557,45.0594317 27.0213527,44.9148413 C25.8081133,44.8249957 24.8507372,43.7749003 24.8507372,42.4927066 C24.8507372,42.0089571 24.9870123,41.558245 25.2218889,41.1796744 C24.4998065,40.8267639 24,40.0646151 24,39.1812973 C24,38.2255909 24.5850824,37.4117269 25.4037405,37.1045601 C25.3210274,36.8560008 25.2761058,36.5891502 25.2761058,36.3114093 C25.2761058,34.9702593 26.3235479,33.8830425 27.6156332,33.8830425 C28.2298919,33.8830425 28.7888598,34.1287602 29.2062812,34.5306646 C29.4816206,33.6425945 30.2841459,33 31.2312664,33 Z"/>
  </g>
</svg>
