<svg xmlns="http://www.w3.org/2000/svg" width="64" height="64" viewBox="0 0 64 64">
  <g fill="none" fill-rule="evenodd">
    <g transform="rotate(30 4.884 25.691)">
      <rect width="6" height="7" x="12.657" y="23.349" fill="#FF5656" transform="rotate(-75 15.657 26.85)"/>
      <path fill="#FF5656" d="M9.14086068,17.7054806 C9.14086068,17.7054806 13.2737426,6.0309868 9.16856096,1 C9.16856096,1 17.188188,7.42875812 12.5630325,20.7721246 C7.93787705,34.1154911 9.14086068,17.7054806 9.14086068,17.7054806 Z"/>
      <path fill="#E43535" d="M7.13885421,0 C7.13885421,0 2.82718984,7.21461921 8.39012854,12.3698634 C13.9530672,17.5251076 16.2820734,22.4545995 14.3064159,27.1065333 C12.3307584,31.7584671 3.45909075,27.3750159 0.553083494,19.0104592 C-2.35292376,10.6459025 7.13885421,0 7.13885421,0 Z"/>
    </g>
    <g transform="scale(-1 1) rotate(30 -27.026 -93.4)">
      <rect width="6" height="7" x="12.657" y="23.349" fill="#FF5656" transform="rotate(-75 15.657 26.85)"/>
      <path fill="#FF5656" d="M9.14086068,17.7054806 C9.14086068,17.7054806 13.2737426,6.0309868 9.16856096,1 C9.16856096,1 17.188188,7.42875812 12.5630325,20.7721246 C7.93787705,34.1154911 9.14086068,17.7054806 9.14086068,17.7054806 Z"/>
      <path fill="#E43535" d="M7.13885421,0 C7.13885421,0 2.82718984,7.21461921 8.39012854,12.3698634 C13.9530672,17.5251076 16.2820734,22.4545995 14.3064159,27.1065333 C12.3307584,31.7584671 3.45909075,27.3750159 0.553083494,19.0104592 C-2.35292376,10.6459025 7.13885421,0 7.13885421,0 Z"/>
    </g>
    <path stroke="#E43535" stroke-linecap="round" stroke-width="2" d="M26,22 L28.7953774,24.5009549"/>
    <path stroke="#E43535" stroke-linecap="round" stroke-width="2" d="M35,22 L37.7953774,24.5009549" transform="matrix(-1 0 0 1 72.795 0)"/>
    <path stroke="#FF5656" stroke-linecap="round" stroke-width="2" d="M44 56C44 49.372583 38.627417 44 32 44 25.372583 44 20 49.372583 20 56M54.627417 42.2720779C48.836556 39.0147186 40.836556 37 32 37 23.163444 37 15.163444 39.0147186 9.372583 42.2720779"/>
    <path stroke="#FF5656" stroke-linecap="round" stroke-width="2" d="M52,55 C52,46.163444 43.045695,39 32,39 C20.954305,39 12,46.163444 12,55"/>
    <path fill="#E43535" d="M32,55 C36.7606939,55 50,43.8148871 50,37 C50,30.1851129 40.2842712,23 32,23 C23.7157288,23 14,30.4690597 14,37 C14,43.5309403 27.2393061,55 32,55 Z"/>
  </g>
</svg>
