<svg xmlns="http://www.w3.org/2000/svg" width="64" height="64" viewBox="0 0 64 64">
  <g fill="none" fill-rule="evenodd">
    <path fill="#E43535" d="M27.8885357,61.795274 C28.502752,58.5878624 27.5694166,52.382253 16.2107927,44.303391 C-0.712082592,32.2669353 11.7125061,16.9778216 24.5910156,20.8226383 L30.7221908,23.1508536 C30.7221908,23.1508536 51.0374152,16.7903802 51.9742173,33.3643425 C52.3704016,40.3736611 44.0731602,46.0117346 38.8388427,51.2938491 C35.3143255,54.8505502 31.1301989,59.4773333 28.7727636,62.1205238 C27.6291334,63.4027784 27.8885357,61.795274 27.8885357,61.795274 Z"/>
    <path fill="#22BA8E" d="M28.2672991 21.313058C28.2672991 21.313058 28.5892857 16.2198661 19.921875 14.4553571 11.2544643 12.6908482 14.5658482 1.69308036 14.5658482 1.69308036 14.5658482 1.69308036 27.9335937-.515625 28.8337054 7.95145089 29.733817 16.4185268 28.2672991 21.313058 28.2672991 21.313058zM32.2717634 20.4107143C32.2717634 20.4107143 34.7287946 11.9888393 47.7388393 12.2879464 60.7488839 12.5870536 45.6104911 18.1222098 45.6104911 18.1222098L32.2717634 20.4107143zM31.5521071 17.5569637C31.5521071 17.5569637 30.8679554 7.01455297 30.0353661 4.30194137 29.2027768 1.58932976 43.3640491 3.51399494 41.6112589 6.43252172 39.8584688 9.35104851 31.5521071 17.5569637 31.5521071 17.5569637z"/>
    <path stroke="#FF78C7" stroke-linecap="round" stroke-width="2" d="M10.6792951,31.2211198 C10.6792951,31.2211198 28.6377538,62.5886539 47.9483128,35.7401048"/>
  </g>
</svg>
