<svg xmlns="http://www.w3.org/2000/svg" width="64" height="64" viewBox="0 0 64 64">
  <g fill="none" fill-rule="evenodd">
    <path fill="#595959" d="M9.70753468 30L19.7075347 30 22.3991822 56.0192595C22.5694806 57.665477 21.3709036 59 19.6980571 59L9.71701229 59C8.0549237 59 6.8462142 57.6594313 7.01588714 56.0192595L9.70753468 30zM45.7075347 30L55.7075347 30 58.3991822 56.0192595C58.5694806 57.665477 57.3709036 59 55.6980571 59L45.7170123 59C44.0549237 59 42.8462142 57.6594313 43.0158871 56.0192595L45.7075347 30z"/>
    <path fill="#ED9111" d="M15 29C9.4771525 29 7 27.8659932 7 24 7 20.1340068 9.4771525 15 15 15 20.5228475 15 23 20.1340068 23 24 23 27.8659932 20.5228475 29 15 29zM12.5 23C13.3284271 23 14 22.3284271 14 21.5 14 20.6715729 13.3284271 20 12.5 20 11.6715729 20 11 20.6715729 11 21.5 11 22.3284271 11.6715729 23 12.5 23zM17.5 23C18.3284271 23 19 22.3284271 19 21.5 19 20.6715729 18.3284271 20 17.5 20 16.6715729 20 16 20.6715729 16 21.5 16 22.3284271 16.6715729 23 17.5 23zM51 29C45.4771525 29 43 27.8659932 43 24 43 20.1340068 45.4771525 15 51 15 56.5228475 15 59 20.1340068 59 24 59 27.8659932 56.5228475 29 51 29zM51 21C52.1045695 21 53 20.1045695 53 19 53 17.8954305 52.1045695 17 51 17 49.8954305 17 49 17.8954305 49 19 49 20.1045695 49.8954305 21 51 21z"/>
    <path fill="#D8D8D8" d="M4.24207211,59.9682884 C4.10837937,59.4335175 4.44228058,59 5.00140315,59 L59.9985969,59 C60.5516565,59 60.8929825,59.4280701 60.7579279,59.9682884 L60.2420721,62.0317116 C60.1083794,62.5664825 59.5572806,63 58.9984217,63 L6.00157835,63 C5.4484219,63 4.89298248,62.5719299 4.75792789,62.0317116 L4.24207211,59.9682884 Z"/>
    <polygon fill="#979797" points="31 3 34 3 35 60 30 60"/>
    <path stroke="#979797" stroke-linecap="round" stroke-width="2" d="M28,1 L37,1 L37,7.99967027 C37,9.65670662 35.6526091,11 34.0031303,11 L30.9968697,11 C29.3417443,11 28,9.6513555 28,7.99967027 L28,1 Z"/>
  </g>
</svg>
