<svg xmlns="http://www.w3.org/2000/svg" width="64" height="64" viewBox="0 0 64 64">
  <g fill="none" fill-rule="evenodd">
    <path fill="#BD7575" d="M3.08875986,24.9627954 C2.37919763,27.5207419 2,30.2160878 2,33 C2,49.5685425 15.4314575,63 32,63 C48.5685425,63 62,49.5685425 62,33 C62,16.4314575 48.5685425,3 32,3 C30.4292619,3 28.8867184,3.12071523 27.3811407,3.3533745 C27.7819955,4.49456249 28,5.7218224 28,7 C28,13.0751322 23.0751322,18 17,18 C16.0929103,18 15.2114647,17.8902047 14.3682279,17.683179 C12.8535087,21.9469234 8.78329648,25 4,25 C3.69315677,25 3.38924793,24.9874363 3.08875986,24.9627954 Z"/>
    <path stroke="#9C4D4D" stroke-linecap="round" stroke-width="2" d="M7,32.5 C7,46.0309764 17.9690236,57 31.5,57 L31.5,57 C45.0309764,57 56,46.0309764 56,32.5 C56,18.9690236 45.0309764,8 31.5,8"/>
    <circle cx="40" cy="19" r="3" fill="#FFDD95"/>
    <circle cx="48" cy="36" r="3" fill="#5EA7FF"/>
    <circle cx="35" cy="29" r="3" fill="#FF78C7"/>
    <circle cx="31" cy="42" r="3" fill="#ED9111"/>
    <circle cx="18" cy="35" r="3" fill="#325AA6"/>
    <circle cx="37" cy="49" r="3" fill="#E43535"/>
  </g>
</svg>
