<svg xmlns="http://www.w3.org/2000/svg" width="64" height="64" viewBox="0 0 64 64">
  <g fill="none" fill-rule="evenodd">
    <rect width="18" height="8" y="44" fill="#ED9111"/>
    <rect width="42" height="8" x="18" y="44" fill="#ECECEC"/>
    <path fill="#E43535" d="M60,44 L64,44 C64,44 62,45.894979 62,46.9560956 C62,47.3198798 63.8455215,48.4474999 64,49.2198627 C64.1544785,49.9922255 62.0071135,52 62.0071135,52 L60,52 L60,44 Z"/>
    <rect width="3" height="8" x="18" y="44" fill="#325AA6"/>
    <path stroke="#FCC24C" stroke-linecap="round" stroke-width="2" d="M60.2171724,40.0783431 C60.2171724,40.0783431 63.1189291,34.4456474 58.5623585,32.2116084 C54.0057879,29.9775695 40.4988489,39.0992919 33.9203537,28.2600062 C27.3418584,17.4207205 39.1526869,8.15472818 46.951309,8"/>
    <path stroke="#FCC24C" stroke-linecap="round" stroke-width="2" d="M57.2171724,36.0783431 C57.2171724,36.0783431 60.1189291,30.4456474 55.5623585,28.2116084 C51.0057879,25.9775695 33.9310528,36.5938256 27.3525575,25.7545399 C20.7740623,14.9152543 39.8723781,5.65994207 47.0529612,14.8095019"/>
    <path fill="#E43535" fill-rule="nonzero" stroke="#FFF" stroke-width="2" d="M6.41021742,60.2903139 L60.5872217,6.41819854 C61.3704711,5.63935699 61.3740444,4.37303208 60.5952028,3.58978268 C59.8163613,2.80653328 58.5500364,2.80296001 57.766787,3.58180156 L3.58978268,57.4539169 C2.80653328,58.2327584 2.80296001,59.4990834 3.58180156,60.2823328 C4.36064311,61.0655822 5.62696802,61.0691554 6.41021742,60.2903139 Z"/>
  </g>
</svg>
