<svg xmlns="http://www.w3.org/2000/svg" width="64" height="64" viewBox="0 0 64 64">
  <g fill="none" fill-rule="evenodd">
    <rect width="48" height="26" x="8" y="26" fill="#FFDD95"/>
    <rect width="64" height="10" y="34" fill="#BD7575" rx="5"/>
    <path stroke="#ED9111" stroke-linecap="round" stroke-width="2" d="M6.05821456,40.8430124 C6.05821456,40.8430124 9.85478462,38.2302053 14.770811,39.9533082 C19.6868374,41.676411 22.3336243,40.7613506 25.5258549,39.5211341 C28.7180856,38.2809177 29.93995,40.2769726 34.6744548,41.6242071 C39.4089596,42.9714415 39.6840989,40.1058182 43.2266266,39.2530296 C46.7691544,38.400241 46.3318324,41.5514944 50.173673,42.1496024 C54.0155135,42.7477104 55.7476602,38.7682788 58.0582146,39.0106542"/>
    <path stroke="#E43535" stroke-linecap="round" stroke-width="2" d="M58.0582146,37.8430124 C58.0582146,37.8430124 54.2616445,35.2302053 49.3456181,36.9533082 C44.4295917,38.676411 41.7828048,37.7613506 38.5905742,36.5211341 C35.3983435,35.2809177 34.1764791,37.2769726 29.4419743,38.6242071 C24.7074695,39.9714415 24.4323302,37.1058182 20.8898025,36.2530296 C17.3472748,35.400241 17.7845967,38.5514944 13.9427562,39.1496024 C10.1009156,39.7477104 8.36876895,35.7682788 6.05821456,36.0106542"/>
    <path fill="#E43535" fill-rule="nonzero" stroke="#FFF" stroke-width="2" d="M6.41021742,60.2903139 L60.5872217,6.41819854 C61.3704711,5.63935699 61.3740444,4.37303208 60.5952028,3.58978268 C59.8163613,2.80653328 58.5500364,2.80296001 57.766787,3.58180156 L3.58978268,57.4539169 C2.80653328,58.2327584 2.80296001,59.4990834 3.58180156,60.2823328 C4.36064311,61.0655822 5.62696802,61.0691554 6.41021742,60.2903139 Z"/>
  </g>
</svg>
