<svg xmlns="http://www.w3.org/2000/svg" width="64" height="64" viewBox="0 0 64 64">
  <g fill="none" fill-rule="evenodd">
    <path fill="#9C4D4D" d="M42.8401423,34.049899 C44.2213905,31.3324338 45,28.2571439 45,25 C45,13.954305 36.045695,5 25,5 C13.954305,5 5,13.954305 5,25 C5,36.045695 13.954305,45 25,45 C26.5330585,45 28.0258298,44.8275103 29.4599653,44.5008795 C29.1628014,43.7242367 29,42.8811305 29,42 C29,38.1340068 32.1340068,35 36,35 C36.6820821,35 37.341379,35.0975553 37.9646988,35.2794743 C39.1051594,34.4735138 40.4972822,34 42,34 C42.2843252,34 42.5646911,34.0169515 42.8401423,34.049899 Z"/>
    <circle cx="23" cy="16" r="3" fill="#BD7575"/>
    <circle cx="35.5" cy="24.5" r="3.5" fill="#BD7575"/>
    <circle cx="18.5" cy="34.5" r="2.5" fill="#BD7575"/>
    <path fill="#BD7575" d="M57.9917137,47.2874182 C58.6459159,45.3102902 59,43.1964955 59,41 C59,29.954305 50.045695,21 39,21 C27.954305,21 19,29.954305 19,41 C19,52.045695 27.954305,61 39,61 C40.5330585,61 42.0258298,60.8275103 43.4599653,60.5008795 C43.1628014,59.7242367 43,58.8811305 43,58 C43,54.2446224 45.957229,51.1799427 49.670007,51.0076409 C50.7919052,48.6385752 53.2045977,47 56,47 C56.6919443,47 57.3604396,47.1003968 57.9917137,47.2874182 Z"/>
    <circle cx="37" cy="32" r="3" fill="#9C4D4D"/>
    <circle cx="49.5" cy="40.5" r="3.5" fill="#9C4D4D"/>
    <circle cx="32.5" cy="50.5" r="2.5" fill="#9C4D4D"/>
  </g>
</svg>
