<svg xmlns="http://www.w3.org/2000/svg" width="64" height="64" viewBox="0 0 64 64">
  <path fill="#ED9111" fill-rule="evenodd" d="M5,28.9170416 C5.32520847,28.9716012 5.65928779,29 6,29 C9.3137085,29 12,26.3137085 12,23 C12,19.6862915 9.3137085,17 6,17 C5.65928779,17 5.32520847,17.0283988 5,17.0829584 L5,5 L12,5 C12,7.76142375 14.2385763,10 17,10 C19.7614237,10 22,7.76142375 22,5 L39,5 C39,7.76142375 41.2385763,10 44,10 C46.7614237,10 49,7.76142375 49,5 L61,5 L61,27.0618938 C60.6724058,27.0210433 60.3386603,27 60,27 C55.581722,27 52,30.581722 52,35 C52,39.418278 55.581722,43 60,43 C60.3386603,43 60.6724058,42.9789567 61,42.9381062 L61,60 L53.245371,60 C54.3432817,58.6304021 55,56.8918934 55,55 C55,50.581722 51.418278,47 47,47 C42.581722,47 39,50.581722 39,55 C39,56.8918934 39.6567183,58.6304021 40.754629,60 L5,60 L5,28.9170416 Z M33,33 C39.0751322,33 44,28.0751322 44,22 C44,15.9248678 39.0751322,11 33,11 C26.9248678,11 22,15.9248678 22,22 C22,28.0751322 26.9248678,33 33,33 Z M17,50 C20.3137085,50 23,47.3137085 23,44 C23,40.6862915 20.3137085,38 17,38 C13.6862915,38 11,40.6862915 11,44 C11,47.3137085 13.6862915,50 17,50 Z M34,41 C35.1045695,41 36,40.1045695 36,39 C36,37.8954305 35.1045695,37 34,37 C32.8954305,37 32,37.8954305 32,39 C32,40.1045695 32.8954305,41 34,41 Z M29,55 C30.1045695,55 31,54.1045695 31,53 C31,51.8954305 30.1045695,51 29,51 C27.8954305,51 27,51.8954305 27,53 C27,54.1045695 27.8954305,55 29,55 Z"/>
</svg>
