<svg xmlns="http://www.w3.org/2000/svg" width="64" height="64" viewBox="0 0 64 64">
  <g fill="none" fill-rule="evenodd">
    <path fill="#22BA8E" d="M49.9510122,15.8390838 C49.9510122,15.8390838 47.7064629,26.4370774 47.9613894,29.650011 C48.216316,32.8629445 44.6699104,41.162863 40.8790629,44.6960401 C37.0882154,48.2292172 20.0505854,59.0239537 12.5142348,59.5708574 C4.97788422,60.1177612 7.12959606,57.7680618 7.12959606,57.7680618 L49.9510122,15.8390838 Z"/>
    <circle cx="43" cy="27" r="4" fill="#FFDD95"/>
    <circle cx="31" cy="43" r="4" fill="#FFDD95"/>
    <circle cx="22.5" cy="50.5" r="3.5" fill="#FFDD95"/>
    <circle cx="15" cy="55" r="2" fill="#FFDD95"/>
    <path stroke="#22BA8E" stroke-linecap="round" stroke-width="2" d="M49.0623831,15.900142 C49.0623831,15.900142 52.8302338,6.28044171 48.8953777,8.63945218 C44.9605216,10.9984627 50.9513043,18.6987905 58.3718625,8.63945218"/>
    <path fill="#22BA8E" d="M16.5065425,50.6842865 C16.5065425,50.6842865 10.9711892,51.6784881 7.27655529,50.904036 C3.58192137,50.1295839 6.00779095,46.6166366 8.61078504,45.9634781 C11.2137791,45.3103196 27.828464,35.7291392 31.4007893,27.3984502 C34.9731145,19.0677612 45.8986748,19.8457659 45.8986748,19.8457659 L16.5065425,50.6842865 Z"/>
    <circle cx="38.5" cy="36.5" r="4.5" fill="#FFDD95"/>
    <path fill="#80D25B" d="M48.0916627,15.7305482 C48.0916627,15.7305482 50.2197471,16.2502442 49.8043745,17.0125711 C49.3890019,17.774898 44.2880038,25.0751808 41.8456749,29.5161086 C38.6913003,35.251761 29.4467964,45.6471431 25.0837654,48.7937099 C20.7207344,51.9402766 7.0685397,57.788868 7.0685397,57.788868 C7.0685397,57.788868 21.8675924,41.6800079 27.0293673,37.4161367 C32.1911422,33.1522655 44.0303135,18.9372418 44.0303135,18.9372418 L48.0916627,15.7305482 Z"/>
  </g>
</svg>
