<svg xmlns="http://www.w3.org/2000/svg" width="64" height="64" viewBox="0 0 64 64">
  <g fill="none" fill-rule="evenodd">
    <polygon fill="#E43535" points="20 2 29 2 30 8 19 8"/>
    <path fill="#595959" d="M20,8 L29,8 L30.1393114,13.0501097 C30.3822602,14.1270044 31.055591,15.7491226 31.6567781,16.6945047 L35.0306471,22 L35.0306471,40 L33.4503969,47.090839 C32.9692532,49.249809 33.330063,52.6189194 34.2607085,54.6254883 L34.6081052,55.3745117 C35.5367717,57.3768136 34.9820616,60.2359554 33.3817424,61.7486574 L31.7244058,63.3152552 C31.3243275,63.6934293 30.5525106,64 30.0014977,64 L18.9985023,64 C18.4470447,64 17.671589,63.6872276 17.27001,63.3047714 L15.6513992,61.7632374 C14.0490007,60.2371435 13.5088685,57.3810806 14.4494476,55.3745117 L14.8005524,54.6254883 C15.7391314,52.6231864 16.1038676,49.2570173 15.6115543,47.090839 L14,40 L14,22 L17.4221379,16.6766744 C18.0174247,15.7506727 18.6869432,14.1275986 18.9178336,13.0501097 L20,8 Z"/>
    <rect width="21" height="18" x="14" y="22" fill="#FF5656"/>
    <polygon fill="#80D25B" points="33 2 42 2 43 8 32 8"/>
    <path fill="#BD7575" d="M33,8 L42,8 L43.1393114,13.0501097 C43.3822602,14.1270044 44.055591,15.7491226 44.6567781,16.6945047 L48.0306471,22 L48.0306471,40 L46.4503969,47.090839 C45.9692532,49.249809 46.330063,52.6189194 47.2607085,54.6254883 L47.6081052,55.3745117 C48.5367717,57.3768136 47.9820616,60.2359554 46.3817424,61.7486574 L44.7244058,63.3152552 C44.3243275,63.6934293 43.5525106,64 43.0014977,64 L31.9985023,64 C31.4470447,64 30.671589,63.6872276 30.27001,63.3047714 L28.6513992,61.7632374 C27.0490007,60.2371435 26.5088685,57.3810806 27.4494476,55.3745117 L27.8005524,54.6254883 C28.7391314,52.6231864 29.1038676,49.2570173 28.6115543,47.090839 L27,40 L27,22 L30.4221379,16.6766744 C31.0174247,15.7506727 31.6869432,14.1275986 31.9178336,13.0501097 L33,8 Z"/>
    <rect width="21" height="18" x="27" y="22" fill="#80D25B"/>
  </g>
</svg>
