<svg xmlns="http://www.w3.org/2000/svg" width="64" height="64" viewBox="0 0 64 64">
  <g fill="none" fill-rule="evenodd">
    <path fill="#FFDD95" d="M31,54 C33.7614237,54 36,51.7614237 36,49 C36,46.2385763 33.7614237,19.6020632 31,19.6020632 C28.2385763,19.6020632 26,46.2385763 26,49 C26,51.7614237 28.2385763,54 31,54 Z"/>
    <path fill="#BD7575" d="M44.3825321,24.1901013 C44.6353797,23.2820716 44.6238603,22.501112 44.6238603,21.623865 C44.6238603,14.0996121 38.5242481,8 30.9999952,8 C23.4757423,8 17.3761302,14.0996121 17.3761302,21.623865 C17.3761302,22.4619326 17.4518019,23.2823262 17.5966854,24.0785857 C17.7415689,24.8748453 44.1296846,25.098131 44.3825321,24.1901013 Z"/>
    <path fill="#FFDD95" d="M51.3639792 57C53.2218536 57 54.7279584 55.4381089 54.7279584 53.5114187 54.7279584 51.5847284 53.2218536 33 51.3639792 33 49.5061048 33 48 51.5847284 48 53.5114187 48 55.4381089 49.5061048 57 51.3639792 57zM10.3639792 57C12.2218536 57 13.7279584 55.4381089 13.7279584 53.5114187 13.7279584 51.5847284 12.2218536 33 10.3639792 33 8.5061048 33 7 51.5847284 7 53.5114187 7 55.4381089 8.5061048 57 10.3639792 57z"/>
    <path fill="#BD7575" d="M59.8405247 37.0913909C60.0075567 36.4693248 59.9999469 35.934311 59.9999469 35.3333333 59.9999469 30.1786757 55.9705216 26 50.9999735 26 46.0294254 26 42 30.1786757 42 35.3333333 42 35.9074703 42.049989 36.4694992 42.1456996 37.0149946 42.2414101 37.56049 59.6734928 37.7134569 59.8405247 37.0913909zM19.8405247 37.0913909C20.0075567 36.4693248 19.9999469 35.934311 19.9999469 35.3333333 19.9999469 30.1786757 15.9705216 26 10.9999735 26 6.02942537 26 2 30.1786757 2 35.3333333 2 35.9074703 2.049989 36.4694992 2.14569957 37.0149946 2.24141014 37.56049 19.6734928 37.7134569 19.8405247 37.0913909z"/>
    <path stroke="#9C4D4D" stroke-linecap="round" stroke-width="2" d="M4 33.6845307C4 33.6845307 5.16920261 28.7732915 9.81130465 28M44 33.6845307C44 33.6845307 45.1692026 28.7732915 49.8113046 28M20.4445262 17.7523863C20.4445262 17.7523863 22.9242755 12.0187926 27.9611338 10.7530898"/>
  </g>
</svg>
