<svg xmlns="http://www.w3.org/2000/svg" width="64" height="64" viewBox="0 0 64 64">
  <g fill="none" fill-rule="evenodd">
    <path fill="#80D25B" d="M10.6775653,17.6119367 C10.6775653,17.6119367 7.85834988,14.3652253 8.2426445,10.8663007 L12.4419997,14.6267173 L13.1209234,17.2616726"/>
    <path fill="#80D25B" d="M9.83927548,25.3877445 C9.83927548,25.3877445 12.6584909,22.141033 12.2741963,18.6421085 L8.07484108,22.402525 L7.17960232,26.4446233" transform="rotate(-160 9.745 22.543)"/>
    <polyline fill="#80D25B" points="12.074 20.465 4.395 18.363 12.074 16.262"/>
    <path fill="#FF5656" d="M27.1049164,34.4788215 C30.1072122,34.4788215 33.3549164,12.3127411 33.3549164,7.13507153 C33.3549164,1.957402 32.2825859,2.54092095 27.1049164,2.54092095 C21.9272469,2.54092095 20.8549164,1.957402 20.8549164,7.13507153 C20.8549164,12.3127411 24.1026205,34.4788215 27.1049164,34.4788215 Z" transform="rotate(-90 27.105 18.5)"/>
    <path fill="#80D25B" d="M10.6775653,47.6119367 C10.6775653,47.6119367 7.85834988,44.3652253 8.2426445,40.8663007 L12.4419997,44.6267173 L13.1209234,47.2616726"/>
    <path fill="#80D25B" d="M9.83927548,55.3877445 C9.83927548,55.3877445 12.6584909,52.141033 12.2741963,48.6421085 L8.07484108,52.402525 L7.17960232,56.4446233" transform="rotate(-160 9.745 52.543)"/>
    <polyline fill="#80D25B" points="12.074 50.465 4.395 48.363 12.074 46.262"/>
    <path fill="#FF5656" d="M27.1049164,64.4788215 C30.1072122,64.4788215 33.3549164,42.3127411 33.3549164,37.1350715 C33.3549164,31.957402 32.2825859,32.5409209 27.1049164,32.5409209 C21.9272469,32.5409209 20.8549164,31.957402 20.8549164,37.1350715 C20.8549164,42.3127411 24.1026205,64.4788215 27.1049164,64.4788215 Z" transform="rotate(-90 27.105 48.5)"/>
    <g transform="matrix(-1 0 0 1 64 25)">
      <path fill="#80D25B" d="M6.6775653,7.61193675 C6.6775653,7.61193675 3.85834988,4.36522525 4.2426445,0.866300743 L8.4419997,4.62671734 L9.12092344,7.26167258"/>
      <path fill="#80D25B" d="M5.83927548,15.3877445 C5.83927548,15.3877445 8.6584909,12.141033 8.27419629,8.64210845 L4.07484108,12.402525 L3.17960232,16.4446233" transform="rotate(-160 5.745 12.543)"/>
      <polyline fill="#80D25B" points="8.074 10.465 .395 8.363 8.074 6.262"/>
      <path fill="#FF5656" d="M23.1049164,24.4788215 C26.1072122,24.4788215 29.3549164,2.31274106 29.3549164,-2.86492847 C29.3549164,-8.042598 28.2825859,-7.45907905 23.1049164,-7.45907905 C17.9272469,-7.45907905 16.8549164,-8.042598 16.8549164,-2.86492847 C16.8549164,2.31274106 20.1026205,24.4788215 23.1049164,24.4788215 Z" transform="rotate(-90 23.105 8.5)"/>
    </g>
    <path stroke="#E43535" stroke-linecap="round" stroke-width="2" d="M17 15L17 21.5463101M51 30L51 36.5463101M17 45L17 51.5463101M22 16L22 20.5463101M46 31L46 35.5463101M22 46L22 50.5463101"/>
  </g>
</svg>
