<svg xmlns="http://www.w3.org/2000/svg" width="64" height="64" viewBox="0 0 64 64">
  <g fill="none" fill-rule="evenodd">
    <path stroke="#5EA7FF" stroke-linecap="square" stroke-width="2" d="M32,26 L32,22"/>
    <path fill="#325AA6" d="M61,54 C61,37.9837423 48.0162577,25 32,25 C15.9837423,25 3,37.9837423 3,54 L61,54 Z"/>
    <path stroke="#B4DFFB" stroke-linecap="round" stroke-width="2" d="M32,30 C22.5879639,30 14.4413482,35.4179091 10.5087658,43.3051145"/>
    <rect width="64" height="5" y="54" fill="#5EA7FF" rx="2.5"/>
    <rect width="8" height="3" x="28" y="20" fill="#325AA6"/>
    <path fill="#E43535" d="M47.2333333,3 C43.7907584,3 41,5.07820713 41,9.2962963 C41,13.5143855 50.4111111,23 52,23 C53.5888889,23 63,13.5143855 63,9.2962963 C63,5.07820713 60.2092416,3 56.7666667,3 C54.8544957,3 53.1434246,3.86970846 52,5.2388765 C50.8565754,3.86970846 49.1455043,3 47.2333333,3 Z"/>
  </g>
</svg>
