<svg xmlns="http://www.w3.org/2000/svg" width="64" height="64" viewBox="0 0 64 64">
  <g fill="none" fill-rule="evenodd">
    <path stroke="#979797" stroke-linecap="square" stroke-width="2" d="M32,23 L29,3"/>
    <polygon fill="#595959" points="27 20 54 20 51 56 30 56"/>
    <circle cx="40.5" cy="37.5" r="8.5" fill="#22BA8E"/>
    <rect width="31" height="4" x="25" y="16" fill="#5EA7FF" rx="2"/>
    <path fill="#FFDD95" d="M7.38099862,56 C4.66550216,53.1326708 3,49.2608348 3,45 C3,36.163444 10.163444,29 19,29 C27.836556,29 35,36.163444 35,45 C35,49.2608348 33.3344978,53.1326708 30.6190014,56 L7.38099862,56 Z"/>
    <rect width="38" height="6" y="44" fill="#BD7575" rx="3"/>
    <circle cx="14" cy="35" r="1" fill="#ED9111"/>
    <circle cx="19" cy="34" r="1" fill="#ED9111"/>
    <circle cx="17" cy="40" r="1" fill="#ED9111"/>
    <circle cx="20" cy="40" r="1" fill="#ED9111"/>
    <circle cx="26" cy="37" r="1" fill="#ED9111"/>
  </g>
</svg>
