<svg xmlns="http://www.w3.org/2000/svg" width="64" height="64" viewBox="0 0 64 64">
  <g fill="none" fill-rule="evenodd">
    <polygon fill="#FF78C7" points="13 5 20 5 20 56.833 13 56.833"/>
    <path fill="#FFDD95" d="M20,5 L52.0000796,5 C53.1046051,5 54,5.894703 54,7.00020325 L54,57.8324082 C54,58.93709 53.1080589,59.8326115 52.0000796,59.8326115 L20,59.8326115 L20,5 Z"/>
    <path stroke="#BD7575" stroke-linecap="round" stroke-linejoin="round" d="M41.1860465,32 C41.1860465,32 39.3953488,23.9512195 44,21 C44,21 34.7906977,23.6829268 33,30.6585366"/>
    <path fill="#80D25B" d="M42,19.8886593 C42,19.8886593 35.2758621,11.8027635 27,22.6876233 C27,22.6876233 30.6206897,27.0415671 42,19.8886592"/>
    <path fill="#E43535" d="M41.5454545,42 C45.1604093,42 48.0909091,39.0818788 48.0909091,35.4821939 C48.0909091,33.6823514 47.3582841,32.0528999 46.1737898,30.8734089 C44.9892955,29.693918 43.3529319,30.0506887 41.5454545,30.0506887 C39.7379772,30.0506887 38.1016135,29.693918 36.9171193,30.8734089 C35.732625,32.0528999 35,33.6823514 35,35.4821939 C35,39.0818788 37.9304998,42 41.5454545,42 Z"/>
    <path fill="#FF5656" d="M32.5454545,41 C36.1604093,41 39.0909091,38.0818788 39.0909091,34.4821939 C39.0909091,32.6823514 38.3582841,31.0528999 37.1737898,29.8734089 C35.9892955,28.693918 34.3529319,29.0506887 32.5454545,29.0506887 C30.7379772,29.0506887 29.1016135,28.693918 27.9171193,29.8734089 C26.732625,31.0528999 26,32.6823514 26,34.4821939 C26,38.0818788 28.9304998,41 32.5454545,41 Z"/>
    <path fill="#ECECEC" d="M13,56.5 C13,54.5670034 14.5571833,53 16.4956369,53 L54,53 L54,60 L16.4956369,60 C14.56505,60 13,58.4290634 13,56.5 L13,56.5 Z"/>
  </g>
</svg>
