<svg xmlns="http://www.w3.org/2000/svg" width="64" height="64" viewBox="0 0 64 64">
  <g fill="none" fill-rule="evenodd">
    <path fill="#93C927" d="M34.4341063 14.9481666C34.4341063 14.9481666 26 14.9481666 26 8.62258686 26 8.62258686 36.5426329 5.81121808 37.2454751 12.1367978M39 10.4481665C39 10.4481665 45 1.9481666 52.5 8.4481666 52.5 8.4481666 48 14.9481666 39 11.4481666"/>
    <path stroke="#9C4D4D" stroke-linecap="round" stroke-linejoin="round" stroke-width="2" d="M35.4999999,18.9481666 C35.4999999,18.9481666 32.5,12.4481666 44.5,8.9481666"/>
    <path fill="#80D25B" d="M17.4798042,52.4068192 C19.6337822,55.123079 22.2203209,59.8507827 25.1065662,61.500323 C28.1269212,63.2265095 31.4754816,60.6018262 35,60.6018262 C38.5246227,60.6018262 41.873277,63.22645 44.893702,61.5001698 C47.780014,59.8505399 50.3665978,55.1227154 52.5205871,52.4063258 C56.6609898,47.1848759 59.2030165,41.6628707 59.2030165,35.1886589 C59.2030165,28.5378146 56.5203922,22.2021513 52.1781559,18.7306001 C47.7933069,15.2249806 41.7161126,18.2465473 35,18.2465473 C28.2838874,18.2465473 22.2066931,15.2249806 17.8218441,18.7306001 C13.4796078,22.2021513 10.7969835,28.5378146 10.7969835,35.1886589 C10.7969835,41.6630747 13.3391703,47.1853001 17.4798042,52.4068192 Z"/>
    <path stroke="#FFF" stroke-linecap="round" stroke-linejoin="round" stroke-width="2" d="M21,20.4481666 C21,20.4481666 14.5,24.9481666 17,33.4481666"/>
  </g>
</svg>
