<svg xmlns="http://www.w3.org/2000/svg" width="64" height="64" viewBox="0 0 64 64">
  <g fill="none" fill-rule="evenodd">
    <path stroke="#979797" stroke-linecap="square" stroke-width="2" d="M8 52L8 60M55 52L55 60"/>
    <rect width="60" height="6" x="2" y="28" fill="#BD7575"/>
    <path fill="#FF78C7" d="M4,34 L59,34 L59,51.9904421 C59,54.2048598 57.258553,55.6200479 55.0965812,55.148345 L49.1534188,53.851655 C46.9976201,53.3812989 43.508553,53.3799521 41.3465812,53.851655 L35.4034188,55.148345 C33.2476201,55.6187011 29.758553,55.6200479 27.5965812,55.148345 L21.6534188,53.851655 C19.4976201,53.3812989 16.008553,53.3799521 13.8465812,53.851655 L7.90341878,55.148345 C5.74762012,55.6187011 4,54.1996477 4,51.9904421 L4,34 Z"/>
    <rect width="7" height="16" x="28" y="12" fill="#D650C7"/>
    <rect width="3" height="5" x="30" y="7" fill="#FF78C7"/>
    <polygon fill="#E43535" points="12 16 18 16 17 24 13 24"/>
    <polygon fill="#E43535" points="45 16 51 16 50 24 46 24"/>
    <path stroke="#E43535" stroke-linecap="square" stroke-width="2" d="M48 24L48 27M15 24L15 27"/>
  </g>
</svg>
