<svg xmlns="http://www.w3.org/2000/svg" width="64" height="64" viewBox="0 0 64 64">
  <g fill="none" fill-rule="evenodd">
    <circle cx="9" cy="30" r="6" stroke="#595959" stroke-linecap="round" stroke-width="2"/>
    <polygon fill="#595959" points="28 23 62 23 62 26 28 32"/>
    <circle cx="21" cy="18" r="4" fill="#D650C7"/>
    <path fill="#D650C7" d="M11,23 L31,23 C31,23 34,29.25 34,35.5 C34,41.75 31,48 31,48 L11,48 C11,48 8,41.75 8,35.5 C8,29.25 11,23 11,23 Z"/>
    <path fill="#595959" d="M11 48L31 48 31 50C31 51.1045695 30.1017876 52 29.0092049 52L12.9907951 52C11.8913093 52 11 51.1122704 11 50L11 48zM11 20.5C11 19.1192881 12.1181422 18 13.4925753 18L28.5074247 18C29.884036 18 31 19.1096621 31 20.5L31 23 11 23 11 20.5z"/>
  </g>
</svg>
