<svg xmlns="http://www.w3.org/2000/svg" width="64" height="64" viewBox="0 0 64 64">
  <g fill="none" fill-rule="evenodd">
    <path stroke="#979797" stroke-linecap="square" stroke-width="2" d="M8 51L8 59M55 51L55 59"/>
    <rect width="60" height="6" x="2" y="27" fill="#BD7575"/>
    <path fill="#FF78C7" d="M4,33 L59,33 L59,50.9904421 C59,53.2048598 57.258553,54.6200479 55.0965812,54.148345 L49.1534188,52.851655 C46.9976201,52.3812989 43.508553,52.3799521 41.3465812,52.851655 L35.4034188,54.148345 C33.2476201,54.6187011 29.758553,54.6200479 27.5965812,54.148345 L21.6534188,52.851655 C19.4976201,52.3812989 16.008553,52.3799521 13.8465812,52.851655 L7.90341878,54.148345 C5.74762012,54.6187011 4,53.1996477 4,50.9904421 L4,33 Z"/>
    <polygon fill="#979797" points="6 24 29 24 27 27 8 27"/>
    <circle cx="46" cy="9" r="6" stroke="#979797" stroke-linecap="round" stroke-width="2"/>
    <path stroke="#D8D8D8" stroke-linecap="square" stroke-width="2" d="M6 24L29.0217289 24M33 9L59 9"/>
    <path fill="#979797" d="M34,10 L58,10 L58,22.9927643 C58,25.2058994 56.2157067,27 54.009947,27 L37.990053,27 C35.7864076,27 34,25.212833 34,22.9927643 L34,10 Z"/>
  </g>
</svg>
