<svg xmlns="http://www.w3.org/2000/svg" width="64" height="64" viewBox="0 0 64 64">
  <g fill="none" fill-rule="evenodd">
    <path fill="#ED9111" d="M8 21L12 21 12 57.9988612C12 59.1040596 11.1122704 60 10 60L10 60C8.8954305 60 8 59.1121541 8 57.9988612L8 21zM30 21L34 21 34 57.9988612C34 59.1040596 33.1122704 60 32 60L32 60C30.8954305 60 30 59.1121541 30 57.9988612L30 21zM51 21L55 21 55 57.9988612C55 59.1040596 54.1122704 60 53 60L53 60C51.8954305 60 51 59.1121541 51 57.9988612L51 21z"/>
    <ellipse cx="53" cy="16" fill="#D8D8D8" rx="8" ry="13"/>
    <path fill="#D8D8D8" d="M29.779245,3.98679537 C29.9011646,2.88951858 30.8877296,2 32,2 L32,2 C33.1045695,2 34,2.88989258 34,3.99970728 L34,38 L26,38 L29.779245,3.98679537 Z"/>
    <path stroke="#D8D8D8" stroke-linecap="round" stroke-width="2" d="M16,4 L16,15.9913864 C16,18.7575673 13.7710151,21 10.9978137,21 L9.00218626,21 C6.23955507,21 4,18.7600656 4,15.9913864 L4,4 L4,4"/>
    <path stroke="#D8D8D8" stroke-linecap="round" stroke-linejoin="round" stroke-width="2" d="M10,20 L10,4"/>
  </g>
</svg>
