<svg xmlns="http://www.w3.org/2000/svg" width="64" height="64" viewBox="0 0 64 64">
  <g fill="none" fill-rule="evenodd">
    <path fill="#FF5656" d="M27.0493353,55.4996746 C31.7365874,55.4996746 40.5952106,56.1406699 48.8320459,50.9405026 C55.966591,46.436245 62.9987248,36.3619301 62.0029872,32.19724 C61.5408855,30.2644912 53.4042244,29.4913138 50.3517699,28.1446426 C33.1282313,20.5460227 37.6807269,17 27.0493353,17 C16.4179437,17 7.79949798,25.6184457 7.79949798,36.2498373 C7.79949798,46.8812289 16.4179437,55.4996746 27.0493353,55.4996746 Z"/>
    <path stroke="#9C4D4D" stroke-linecap="round" stroke-linejoin="round" stroke-width="2" d="M10,27.5 L5,25"/>
    <path fill="#80D25B" d="M5.0976,25 C5.0976,25 1.5976,19 7.0976,14 C7.0976,14 12.0976,17.5 6.5976,25.5"/>
    <path stroke="#FFDD95" stroke-linecap="round" stroke-linejoin="round" stroke-width="2" d="M14.0976,37 C14.0976,45.0081289 20.5894711,51.5 28.5976,51.5 L28.5976,51.5"/>
  </g>
</svg>
