<svg xmlns="http://www.w3.org/2000/svg" width="64" height="64" viewBox="0 0 64 64">
  <g fill="none" fill-rule="evenodd">
    <g transform="rotate(45 27.707 52.52)">
      <path stroke="#BD7575" stroke-linecap="round" stroke-width="2" d="M18.2872288,6.81506474 C18.2872288,6.81506474 17.3813888,3.60274755 20.9119741,0.586287653"/>
      <path fill="#5B68C0" d="M18,65 C27.9411255,65 36,56.9411255 36,47 C36,37.0588745 27.9411255,6 18,6 C8.0588745,6 0,37.0588745 0,47 C0,56.9411255 8.0588745,65 18,65 Z"/>
      <path fill="#80D25B" d="M13.4056949,9.06669803 C13.4056949,9.06669803 15.5756421,14.887701 18.1853483,17.2335518 C18.1853483,17.2335518 22.3078258,10.9488669 22.6582259,8.72403776 C22.6582259,8.72403776 27.8192384,12.9196912 28.3012144,17.7380434 C28.7831903,22.5563957 36.5074706,-1.05057522 18.8580038,5.38327599 C18.8580038,5.38327599 3.53609392,-0.636146268 6.3350725,16.4961638 L13.4056949,9.06669803 Z"/>
    </g>
    <path stroke="#80D25B" stroke-linecap="round" stroke-width="2" d="M10.6352233,45.7596963 C10.6352233,45.7596963 8.3946208,33.5217967 21.5789424,26.3100003"/>
  </g>
</svg>
