<svg xmlns="http://www.w3.org/2000/svg" width="64" height="64" viewBox="0 0 64 64">
  <g fill="none" fill-rule="evenodd">
    <polygon fill="#E43535" points="16 2 25 2 26 8 15 8"/>
    <path fill="#595959" d="M16,8 L25,8 L26.1393114,13.0501097 C26.3822602,14.1270044 27.055591,15.7491226 27.6567781,16.6945047 L31.0306471,22 L31.0306471,40 L29.4503969,47.090839 C28.9692532,49.249809 29.330063,52.6189194 30.2607085,54.6254883 L30.6081052,55.3745117 C31.5367717,57.3768136 30.9820616,60.2359554 29.3817424,61.7486574 L27.7244058,63.3152552 C27.3243275,63.6934293 26.5525106,64 26.0014977,64 L14.9985023,64 C14.4470447,64 13.671589,63.6872276 13.27001,63.3047714 L11.6513992,61.7632374 C10.0490007,60.2371435 9.50886846,57.3810806 10.4494476,55.3745117 L10.8005524,54.6254883 C11.7391314,52.6231864 12.1038676,49.2570173 11.6115543,47.090839 L10,40 L10,22 L13.4221379,16.6766744 C14.0174247,15.7506727 14.6869432,14.1275986 14.9178336,13.0501097 L16,8 Z"/>
    <rect width="21" height="18" x="10" y="22" fill="#FF5656"/>
    <rect width="18" height="8" y="53" fill="#ED9111"/>
    <rect width="42" height="8" x="18" y="53" fill="#ECECEC"/>
    <path fill="#E43535" d="M60,53 L64,53 C64,53 62,54.894979 62,55.9560956 C62,56.3198798 63.8455215,57.4474999 64,58.2198627 C64.1544785,58.9922255 62.0071135,61 62.0071135,61 L60,61 L60,53 Z"/>
    <rect width="3" height="8" x="18" y="53" fill="#325AA6"/>
    <path stroke="#FCC24C" stroke-linecap="round" stroke-width="2" d="M59.1241577,46.9585329 C59.1241577,46.9585329 60.6108782,43.9734714 58.2763107,42.7895367 C55.9417432,41.6056021 47.1934706,47.2317141 43.8229662,41.487407 C40.4524619,35.7430998 50.2375198,30.8382235 53.916505,35.6870561"/>
  </g>
</svg>
