<svg xmlns="http://www.w3.org/2000/svg" width="64" height="64" viewBox="0 0 64 64">
  <g fill="none" fill-rule="evenodd">
    <path stroke="#9C4D4D" stroke-linecap="round" stroke-linejoin="round" stroke-width="2" d="M10,31 L19,31 L19,44 L14.5,44 C12.0147186,44 10,41.9830136 10,39.507934 L10,31 Z"/>
    <path fill="#BD7575" d="M18,30 L48,30 L48,52.9911813 C48,56.3097602 45.3112985,59 42.001155,59 L23.998845,59 C20.6857744,59 18,56.3107742 18,52.9911813 L18,30 Z"/>
    <path fill="#FF5656" d="M28.2333333,5 C24.7907584,5 22,7.07820713 22,11.2962963 C22,15.5143855 31.4111111,25 33,25 C34.5888889,25 44,15.5143855 44,11.2962963 C44,7.07820713 41.2092416,5 37.7666667,5 C35.8544957,5 34.1434246,5.86970846 33,7.2388765 C31.8565754,5.86970846 30.1455043,5 28.2333333,5 Z"/>
    <rect width="35" height="3" x="15" y="59" fill="#BD7575" rx="1.5"/>
  </g>
</svg>
