<svg xmlns="http://www.w3.org/2000/svg" width="64" height="64" viewBox="0 0 64 64">
  <g fill="none" fill-rule="evenodd">
    <rect width="58" height="32" x="5" y="16" fill="#D8D8D8" rx="2" transform="rotate(90 34 32)"/>
    <circle cx="34" cy="58" r="2" fill="#868686" transform="rotate(90 34 58)"/>
    <rect width="49" height="28" x="9.5" y="16.5" fill="#5B68C0" rx="1" transform="rotate(90 34 30.5)"/>
    <path fill="#979797" d="M24,31 L44,31 L44,40.0049709 C44,42.7636493 41.763962,45 39.0047466,45 L28.9952534,45 C26.2364511,45 24,42.7661779 24,40.0049709 L24,31 Z"/>
    <rect width="20" height="11" x="24" y="20" fill="#D8D8D8"/>
    <path stroke="#979797" stroke-linecap="square" stroke-width="2" d="M23,19 L45,19"/>
    <path stroke="#979797" stroke-linecap="round" stroke-width="2" d="M40,19 C40,15.6862915 37.3137085,13 34,13 C30.6862915,13 28,15.6862915 28,19"/>
  </g>
</svg>
