<svg xmlns="http://www.w3.org/2000/svg" width="64" height="64" viewBox="0 0 64 64">
  <g fill="none" fill-rule="evenodd">
    <rect width="10" height="5" x="29" y="11" fill="#979797"/>
    <rect width="26" height="7" x="37" y="10" fill="#D8D8D8" rx="3"/>
    <path fill="#BD7575" d="M2,8 L30,8 L30,32.0056985 C30,37.5253988 25.5323558,42 20.0099418,42 L11.9900582,42 C6.47270139,42 2,37.5201311 2,32.0056985 L2,8 Z"/>
    <path fill="#E43535" d="M16 56.1394421C18.7614237 56.1394421 21 53.9008658 21 51.1394421 21 48.3780183 16 43 16 43 16 43 11 48.3780183 11 51.1394421 11 53.9008658 13.2385763 56.1394421 16 56.1394421zM26 55.8836653C27.6568542 55.8836653 29 54.5405195 29 52.8836653 29 51.226811 26 48 26 48 26 48 23 51.226811 23 52.8836653 23 54.5405195 24.3431458 55.8836653 26 55.8836653zM6 55.8836653C7.65685425 55.8836653 9 54.5405195 9 52.8836653 9 51.226811 6 48 6 48 6 48 3 51.226811 3 52.8836653 3 54.5405195 4.34314575 55.8836653 6 55.8836653z"/>
    <rect width="24" height="3" x="4" y="58" fill="#D8D8D8"/>
    <path stroke="#979797" stroke-linecap="square" stroke-width="2" d="M3,62 L29,62"/>
  </g>
</svg>
