<svg xmlns="http://www.w3.org/2000/svg" width="64" height="64" viewBox="0 0 64 64">
  <g fill="none" fill-rule="evenodd">
    <circle cx="15" cy="36" r="9" fill="#FF78C7"/>
    <circle cx="23" cy="46" r="8" fill="#FF78C7"/>
    <circle cx="49.5" cy="41.5" r="7.5" fill="#FF78C7"/>
    <circle cx="52.5" cy="51.5" r="5.5" fill="#FF78C7"/>
    <path stroke="#BD7575" stroke-linecap="round" stroke-width="2" d="M33.5035385,24.5542493 C33.5035385,24.5542493 13.0682651,19.6151718 11.0564489,6.58212322" transform="rotate(32 22.28 15.568)"/>
    <path fill="#80D25B" d="M11.0666266,12.1331541 C14.2523875,14.8352754 16.9044679,18.6780612 16.9044679,22.4543834 C16.9044679,26.2307056 13.2997151,29.3109217 9.90659958,30.4489151 C6.51348411,29.3109217 3.31523908,27.3685845 6.10702782,21.7920796 C8.89881656,16.2155747 10.0507352,17.1100334 11.0666266,12.1331541 Z" transform="rotate(-99 10.973 21.291)"/>
    <circle cx="42" cy="29" r="7" fill="#FF78C7"/>
    <circle cx="20.5" cy="27.5" r="7.5" fill="#D650C7"/>
    <circle cx="41.5" cy="37.5" r="7.5" fill="#D650C7"/>
    <circle cx="33.5" cy="28.5" r="7.5" fill="#FF78C7"/>
    <circle cx="44.5" cy="51.5" r="6.5" fill="#D650C7"/>
    <circle cx="36.5" cy="46.5" r="7.5" fill="#FF78C7"/>
    <circle cx="32.739" cy="21.5" r="8.5" fill="#D650C7"/>
    <circle cx="27.5" cy="38.5" r="7.5" fill="#D650C7"/>
  </g>
</svg>
