<svg xmlns="http://www.w3.org/2000/svg" width="64" height="64" viewBox="0 0 64 64">
  <g fill="none" fill-rule="evenodd">
    <path fill="#595959" d="M29,7.00228533 C29,5.89645368 29.8877296,5 31,5 L31,5 C32.1045695,5 33,5.89978493 33,7.00228533 L33,38 L29,38 L29,7.00228533 Z"/>
    <path fill="#979797" d="M28,4.99420208 C28,3.34054993 29.3465171,2 31,2 L31,2 C32.6568542,2 34,3.34331197 34,4.99420208 L34,22 L28,22 L28,4.99420208 Z"/>
    <path fill="#D8D8D8" d="M42.8463843,60.0029953 C42.9312239,61.1059106 42.1029738,62 40.9950534,62 L21.0049466,62 C19.8976452,62 19.0688445,61.1050211 19.1536157,60.0029953 L20.8463843,37.9970047 C20.9312239,36.8940894 21.8982124,36 22.9907951,36 L39.0092049,36 C40.1086907,36 41.0688445,36.8949789 41.1536157,37.9970047 L42.8463843,60.0029953 Z M24,40.5032506 L24,57.4967494 C24,58.3345642 24.6715729,59 25.5,59 C26.3342028,59 27,58.3269718 27,57.4967494 L27,40.5032506 C27,39.6654358 26.3284271,39 25.5,39 C24.6657972,39 24,39.6730282 24,40.5032506 Z M29,40.9907951 L29,57.0092049 C29,58.1017876 29.8954305,59 31,59 C32.1122704,59 33,58.1086907 33,57.0092049 L33,40.9907951 C33,39.8982124 32.1045695,39 31,39 C29.8877296,39 29,39.8913093 29,40.9907951 Z M35,40.5032506 L35,57.4967494 C35,58.3345642 35.6715729,59 36.5,59 C37.3342028,59 38,58.3269718 38,57.4967494 L38,40.5032506 C38,39.6654358 37.3284271,39 36.5,39 C35.6657972,39 35,39.6730282 35,40.5032506 Z"/>
  </g>
</svg>
