<svg xmlns="http://www.w3.org/2000/svg" width="64" height="64" viewBox="0 0 64 64">
  <g fill="none" fill-rule="evenodd">
    <circle cx="50" cy="15" r="13" fill="#E43535"/>
    <circle cx="50" cy="24" r="2" fill="#FFF"/>
    <path stroke="#FFF" stroke-linecap="round" stroke-width="4" d="M51.3819417,17.65833 C54.1433654,17.65833 56.3819417,15.4197538 56.3819417,12.65833 C56.3819417,9.89690629 54.1433654,7.65833004 51.3819417,7.65833004 C48.6205179,7.65833004 46.3819417,9.89690629 46.3819417,12.65833 L43.6180583,12.65833" transform="matrix(0 -1 -1 0 62.658 62.658)"/>
    <path fill="#ED9111" d="M14 24L18 24 18 60.9988612C18 62.1040596 17.1122704 63 16 63L16 63C14.8954305 63 14 62.1121541 14 60.9988612L14 24zM30 24L34 24 34 60.9988612C34 62.1040596 33.1122704 63 32 63L32 63C30.8954305 63 30 62.1121541 30 60.9988612L30 24z"/>
    <path fill="#D8D8D8" d="M29.779245,6.98679537 C29.9011646,5.88951858 30.8877296,5 32,5 L32,5 C33.1045695,5 34,5.88989258 34,6.99970728 L34,41 L26,41 L29.779245,6.98679537 Z"/>
    <path stroke="#D8D8D8" stroke-linecap="round" stroke-width="2" d="M22,7 L22,18.9913864 C22,21.7575673 19.7710151,24 16.9978137,24 L15.0021863,24 C12.2395551,24 10,21.7600656 10,18.9913864 L10,7 L10,7"/>
    <path stroke="#D8D8D8" stroke-linecap="round" stroke-linejoin="round" stroke-width="2" d="M16,23 L16,7"/>
  </g>
</svg>
