<svg xmlns="http://www.w3.org/2000/svg" width="64" height="64" viewBox="0 0 64 64">
  <g fill="none" fill-rule="evenodd">
    <polygon fill="#FF5656" points="13 5 20 5 20 56.833 13 56.833"/>
    <path fill="#22BA8E" d="M20,5 L52.0000796,5 C53.1046051,5 54,5.894703 54,7.00020325 L54,57.8324082 C54,58.93709 53.1080589,59.8326115 52.0000796,59.8326115 L20,59.8326115 L20,5 Z"/>
    <path stroke="#DCE6FF" stroke-linecap="square" stroke-linejoin="round" stroke-width="2" d="M36 32L36 43M32 44L40.0622578 44"/>
    <path fill="#E43535" d="M28,22 C28.4333691,27.622736 31.8288327,32 35.9532868,32 C40.077741,32 43.4732046,27.622736 43.9065737,22 L28,22 Z"/>
    <path fill="#DCE6FF" d="M28.0467132,22 C28.0158402,21.6135768 28,21.2210558 28,20.8235294 C28,18.2367458 28.6707307,15.8619107 29.7897314,14 L42.2102686,14 C43.3292693,15.8619107 44,18.2367458 44,20.8235294 C44,21.2210558 43.9841598,21.6135768 43.9532868,22 L28.0467132,22 Z"/>
    <path fill="#ECECEC" d="M13,56.5 C13,54.5670034 14.5571833,53 16.4956369,53 L54,53 L54,60 L16.4956369,60 C14.56505,60 13,58.4290634 13,56.5 L13,56.5 Z"/>
  </g>
</svg>
