<svg xmlns="http://www.w3.org/2000/svg" width="64" height="64" viewBox="0 0 64 64">
  <g fill="none" fill-rule="evenodd">
    <path fill="#FCC24C" d="M7.50900337,30.1624123 C9.84221464,20.3675121 19.9206569,13 32,13 C44.0755688,13 54.151487,20.3629088 56.4888073,30.1532316 C59.0544619,30.9398058 61,34.5061841 61,35 C61,35.5123162 58.9059563,39.3317275 56.1979076,39.9231603 C53.4032122,49.1718103 43.6288207,56 32,56 C20.3718264,56 10.5978756,49.1725702 7.80255902,39.9247043 C5.1835489,39.3000744 4,35 4,35 C4,35 5.09494747,31.0218326 7.50900337,30.1624123 Z"/>
    <path stroke="#FFDD95" stroke-linecap="square" stroke-linejoin="round" stroke-width="2" d="M22.8492424 29.636039L22.8492424 29.636039M25.6776695 23.9791847L25.6776695 23.9791847M28.5060967 28.2218254L28.5060967 28.2218254M23.5563492 36L23.5563492 36M14.8492424 25.636039L14.8492424 25.636039M17.6776695 19.9791847L17.6776695 19.9791847M20.5060967 24.2218254L20.5060967 24.2218254M15.5563492 32L15.5563492 32"/>
  </g>
</svg>
