<svg xmlns="http://www.w3.org/2000/svg" width="64" height="64" viewBox="0 0 64 64">
  <g fill="none" fill-rule="evenodd">
    <rect width="28" height="3" x="19" y="13" fill="#9C4D4D"/>
    <rect width="39" height="49" x="13" y="15" fill="#ED9111" rx="4"/>
    <rect width="27" height="31" x="19" y="24" fill="#ECECEC"/>
    <rect width="34" height="7" x="16" y="6" fill="#E43535" rx="3"/>
    <path fill="#80D25B" d="M33.4620832 30.8995557C33.4620832 30.8995557 35.2679244 29.1718477 37.2140481 29.4073561L35.1224809 31.9808591 33.6569023 32.3969259M31.5105068 30.7669907C31.5105068 30.7669907 29.7046656 29.0392827 27.7585419 29.2747911L29.8501091 31.8482942 32.0983494 32.3969259"/>
    <polyline fill="#80D25B" points="31.319 31.755 32.488 27.049 33.657 31.755"/>
    <path fill="#E43535" d="M33.0983494,48.8971885 C36.1563591,48.8971885 41.0491747,42.0786724 41.0491747,37.2572537 C41.0491747,32.435835 37.489469,31.4372864 33.0983494,31.4372864 C28.7072299,31.4372864 25.1475241,32.435835 25.1475241,37.2572537 C25.1475241,42.0786724 30.0403397,48.8971885 33.0983494,48.8971885 Z"/>
  </g>
</svg>
