<svg xmlns="http://www.w3.org/2000/svg" width="64" height="64" viewBox="0 0 64 64">
  <g fill="none" fill-rule="evenodd">
    <path fill="#D8D8D8" d="M32,53 C47.463973,53 60,48.0751322 60,42 C60,35.9248678 47.463973,31 32,31 C16.536027,31 4,35.9248678 4,42 C4,48.0751322 16.536027,53 32,53 Z"/>
    <path fill="#ECECEC" d="M32,46 C47.463973,46 60,41.0751322 60,35 C60,28.9248678 47.463973,24 32,24 C16.536027,24 4,28.9248678 4,35 C4,41.0751322 16.536027,46 32,46 Z"/>
    <path fill="#D8D8D8" d="M32,39 C47.463973,39 60,34.0751322 60,28 C60,21.9248678 47.463973,17 32,17 C16.536027,17 4,21.9248678 4,28 C4,34.0751322 16.536027,39 32,39 Z"/>
    <ellipse cx="32" cy="22" fill="#ECECEC" rx="28" ry="11"/>
    <ellipse cx="32" cy="20" fill="#D8D8D8" rx="18" ry="6"/>
  </g>
</svg>
