<svg xmlns="http://www.w3.org/2000/svg" width="64" height="64" viewBox="0 0 64 64">
  <g fill="none" fill-rule="evenodd">
    <g transform="rotate(-45 47.092 -13.02)">
      <path fill="#ED9111" d="M4,17 L8,17 L8,46.0017862 C8,47.1053692 7.11227036,48 6,48 L6,48 C4.8954305,48 4,47.1056623 4,46.0017862 L4,17 Z"/>
      <path stroke="#D8D8D8" stroke-linecap="round" stroke-width="2" d="M12,0 L12,11.9913864 C12,14.7575673 9.77101511,17 6.99781374,17 L5.00218626,17 C2.23955507,17 0,14.7600656 0,11.9913864 L0,0 L0,0"/>
      <path stroke="#D8D8D8" stroke-linecap="round" stroke-linejoin="round" stroke-width="2" d="M6,16 L6,0"/>
    </g>
    <g transform="rotate(45 22.981 52.067)">
      <polygon fill="#BD7575" points="6 57 9 63 3 63"/>
      <polygon fill="#BD7575" points="6 0 9 6 3 6" transform="matrix(1 0 0 -1 0 6)"/>
      <rect width="12" height="57" y="3" fill="#9C4D4D" rx="5"/>
      <path stroke="#BD7575" stroke-linecap="square" stroke-width="2" d="M3,11 L3,51.012498"/>
    </g>
  </g>
</svg>
