<svg xmlns="http://www.w3.org/2000/svg" xmlns:xlink="http://www.w3.org/1999/xlink" width="64" height="64" viewBox="0 0 64 64">
  <defs>
    <path id="restaurant11-copy-9-a" d="M28.5,0 C28.5,0 20.5,2.5 17.5,5.5 C14.5,8.5 14.5,15.5 13,18.5 C11.5,21.5 3.5,24.5 2.5,28.5 C1.5,32.5 3.25438906,41.6836237 0,43.5 L13.5,51.5 C13.5,51.5 15.5505663,48.6613176 16,45.7489229 C16.4494337,42.8365282 15.5493818,38.3024729 16,36.5 C17,32.5 25,29.5 26.5,26.5 C28,23.5 28,16.5 31,13.5 C34,10.5 42,8 42,8 L42.5136986,8.06849313 L28.5,0 Z"/>
  </defs>
  <g fill="none" fill-rule="evenodd">
    <g transform="rotate(-90 32 30)">
      <path fill="#ECECEC" d="M8.83337609,47.4030589 C8.83337609,47.4030589 -8.26229422,32.5252452 5.112278,24.8741742 C18.4868502,17.2231031 21.6997409,24.0888374 23.430771,13.2388555 C25.1618012,2.38887361 26.1305202,-3.34531799 41.8463005,2.06733784 C57.5620807,7.47999366 52.8541721,12.9798178 56.2537344,21.0478163 C59.6532967,29.1158148 63.2337743,39.5875194 54.313007,44.9294538 C45.3922397,50.2713882 47.7079551,53.4818118 42.6892011,53.4152021 C37.6704472,53.3485924 43.5444369,50.0830718 28.3681131,50.8388042 C13.1917893,51.5945366 8.83337609,47.4030589 8.83337609,47.4030589 Z"/>
      <circle cx="37.955" cy="17.875" r="11" fill="#FCC24C"/>
      <path stroke="#FFF" stroke-linecap="round" stroke-width="2" d="M37.9547723,9.87544714 C33.5364943,9.87544714 29.9547723,13.4571691 29.9547723,17.8754471"/>
    </g>
    <g transform="translate(20 11)">
      <mask id="restaurant11-copy-9-b" fill="#fff">
        <use xlink:href="#restaurant11-copy-9-a"/>
      </mask>
      <use fill="#E43535" xlink:href="#restaurant11-copy-9-a"/>
      <path fill="#D8D8D8" d="M8.78501177,49.4805674 C8.78501177,49.4805674 10.8923077,46.4193548 10.8923077,42.2903226 C10.8923077,38.1612903 9.41538462,33 12.8615385,30.4193548 C16.3076923,27.8387097 19.5848904,26.2903226 21.2307692,23.7096774 C22.876648,21.1290323 23.2,12.3548387 25.1692308,10.2903226 C27.1384615,8.22580645 36,4.09677419 36,4.09677419 L30.5846154,1 C30.5846154,1 21.7230769,4.09677419 20.2461538,7.19354839 C18.7692308,10.2903226 17.7624617,18.3255745 15.8153846,21.1290323 C14.6407355,22.8203259 8.92307692,26.0322581 5.96923077,29.9032258 C3.30563756,33.3938218 6.2615401,39.4814451 3.80000164,45.6749935 C1.33846318,51.8685419 8.78501177,49.4805674 8.78501177,49.4805674 Z" mask="url(#restaurant11-copy-9-b)"/>
    </g>
  </g>
</svg>
