<svg xmlns="http://www.w3.org/2000/svg" width="64" height="64" viewBox="0 0 64 64">
  <g fill="none" fill-rule="evenodd">
    <g transform="rotate(-45 29.707 16.893)">
      <rect width="4" height="31" x="19" y="29" fill="#D8D8D8"/>
      <rect width="6" height="21" x="18" y="48" fill="#979797" rx="3"/>
      <circle cx="21" cy="21" r="21" fill="#979797"/>
      <circle cx="21" cy="21" r="17" fill="#595959"/>
    </g>
    <path stroke="#BD7575" stroke-linecap="round" stroke-width="4" d="M30,15 C30,15 34.3654728,20.3220421 34.2192862,26.6350815 C34.0730995,32.9481209 31.0513787,37.5906069 31.0513787,37.5906069"/>
    <path stroke="#BD7575" stroke-linecap="round" stroke-width="4" d="M21.211339,14.6074373 C21.211339,14.6074373 25.5768118,19.9294794 25.4306251,26.2425188 C25.2844385,32.5555582 22.2627177,37.1980442 22.2627177,37.1980442" transform="rotate(29 23.323 25.903)"/>
    <path stroke="#9C4D4D" stroke-linecap="round" stroke-width="4" d="M24,15 C24,15 28.3654728,20.3220421 28.2192862,26.6350815 C28.0730995,32.9481209 25.0513787,37.5906069 25.0513787,37.5906069"/>
  </g>
</svg>
