<svg xmlns="http://www.w3.org/2000/svg" width="64" height="64" viewBox="0 0 64 64">
  <g fill="none" fill-rule="evenodd">
    <path fill="#595959" d="M30,7.00492334 C30,5.89763476 30.8877296,5 32,5 L32,5 C33.1045695,5 34,5.89885511 34,7.00492334 L34,49 L30,49 L30,7.00492334 Z"/>
    <path fill="#979797" d="M29,4.99420208 C29,3.34054993 30.3465171,2 32,2 L32,2 C33.6568542,2 35,3.34331197 35,4.99420208 L35,22 L29,22 L29,4.99420208 Z"/>
    <path fill="#D8D8D8" d="M16,46 C16,54.836556 23.163444,62 32,62 C40.836556,62 48,54.836556 48,46 L16,46 Z"/>
  </g>
</svg>
