<svg xmlns="http://www.w3.org/2000/svg" width="64" height="64" viewBox="0 0 64 64">
  <g fill="none" fill-rule="evenodd">
    <g transform="translate(7 3)">
      <path fill="#80D25B" d="M3,15.0000055 C1.34567043,15.003137 0,16.3461362 0,18.0023584 L0,49 L11,49 L11,18.0023584 C11,16.3452445 9.65739077,15.0031291 8,15.0000055 L8,5 L3,5 L3,15.0000051 Z"/>
      <rect width="5" height="6" x="3" fill="#595959"/>
    </g>
    <rect width="5" height="26" x="10" y="23" fill="#D8D8D8"/>
    <g transform="translate(27 3)">
      <path fill="#80D25B" d="M3,15.0000055 C1.34567043,15.003137 0,16.3461362 0,18.0023584 L0,49 L11,49 L11,18.0023584 C11,16.3452445 9.65739077,15.0031291 8,15.0000055 L8,5 L3,5 L3,15.0000051 Z"/>
      <rect width="5" height="6" x="3" fill="#595959"/>
    </g>
    <rect width="5" height="26" x="30" y="23" fill="#D8D8D8"/>
    <g transform="translate(47 3)">
      <path fill="#80D25B" d="M3,15.0000055 C1.34567043,15.003137 0,16.3461362 0,18.0023584 L0,49 L11,49 L11,18.0023584 C11,16.3452445 9.65739077,15.0031291 8,15.0000055 L8,5 L3,5 L3,15.0000051 Z"/>
      <rect width="5" height="6" x="3" fill="#595959"/>
    </g>
    <rect width="5" height="26" x="50" y="23" fill="#D8D8D8"/>
    <path fill="#BD7575" d="M1,32 L64,32 L64,53 L1,53 L1,32 Z M23,36.5 C23,37.3342028 23.6674978,38 24.4908981,38 L40.5091019,38 C41.3237799,38 42,37.3284271 42,36.5 C42,35.6657972 41.3325022,35 40.5091019,35 L24.4908981,35 C23.6762201,35 23,35.6715729 23,36.5 Z"/>
  </g>
</svg>
