<svg xmlns="http://www.w3.org/2000/svg" width="64" height="64" viewBox="0 0 64 64">
  <g fill="none" fill-rule="evenodd">
    <path fill="#ED9111" d="M1,48 L63,48 L63,51 C63,52.6568542 61.6473821,54 60.0096111,54 L3.99038887,54 C2.3388427,54 1,52.6534829 1,51 L1,48 Z"/>
    <rect width="6" height="16" x="17.953" y="29.326" fill="#D8D8D8" transform="rotate(-48 20.953 37.326)"/>
    <circle cx="17" cy="29" r="4" fill="#D8D8D8"/>
    <circle cx="13" cy="33" r="4" fill="#D8D8D8"/>
    <path fill="#979797" d="M13.5,54 L50.5,54 L50.5,55.5 C50.5,56.3284271 49.8262109,57 49.0037302,57 L14.9962698,57 C14.1699028,57 13.5,56.3342028 13.5,55.5 L13.5,54 Z"/>
    <path fill="#BD7575" d="M30.3221795,48 C30.1111759,47.033532 30,46.0297493 30,45 C30,37.2680135 36.2680135,31 44,31 C51.7319865,31 58,37.2680135 58,45 C58,46.0297493 57.8888241,47.033532 57.6778205,48 L30.3221795,48 Z"/>
    <path fill="#BD7575" d="M18.1900344,48 C18.0654175,47.3537801 18,46.6849317 18,46 C18,40.4771525 22.2532949,36 27.5,36 C32.7467051,36 37,40.4771525 37,46 C37,46.6849317 36.9345825,47.3537801 36.8099656,48 L18.1900344,48 Z"/>
  </g>
</svg>
