<svg xmlns="http://www.w3.org/2000/svg" width="64" height="64" viewBox="0 0 64 64">
  <g fill="none" fill-rule="evenodd">
    <path stroke="#979797" stroke-linecap="round" stroke-width="4" d="M32,11 L48.0029381,11 C51.3150239,11 54,13.6907526 54,17.0064114 L54,41.9935886 C54,45.310838 51.3133742,48 48.0029381,48 L32,48 L32,11 Z"/>
    <path fill="#D8D8D8" d="M8,6 L46,6 L43.2139478,58.0063083 C43.0957877,60.2119633 41.2075447,62 39.0015293,62 L19.9984707,62 C17.7901763,62 15.9041898,60.2042357 15.7865121,57.9986089 L13.3079866,11.5437591 L8,6 Z"/>
    <path stroke="#979797" stroke-linecap="square" stroke-width="2" d="M19 21L26 21M19 26L26 26M19 31L26 31M19 36L26 36M19 41L26 41M19 46L26 46"/>
  </g>
</svg>
