<svg xmlns="http://www.w3.org/2000/svg" width="64" height="64" viewBox="0 0 64 64">
  <g fill="none" fill-rule="evenodd">
    <polygon fill="#325AA6" points="4 17 60 17 60 52 4 52"/>
    <rect width="52" height="31" x="6" y="19" fill="#0A3586"/>
    <path fill="#595959" d="M0,52 L64,52 L64,54.5 C64,55.8807119 62.8891602,57 61.4911242,57 L2.50887585,57 C1.12326198,57 0,55.8903379 0,54.5 L0,52 Z"/>
    <path fill="#979797" d="M22,22 L42,22 L42,31.0049709 C42,33.7636493 39.763962,36 37.0047466,36 L26.9952534,36 C24.2364511,36 22,33.7661779 22,31.0049709 L22,22 Z"/>
    <rect width="20" height="11" x="22" y="11" fill="#D8D8D8"/>
    <path stroke="#979797" stroke-linecap="square" stroke-width="2" d="M21,10 L43,10"/>
    <path stroke="#979797" stroke-linecap="round" stroke-width="2" d="M38,10 C38,6.6862915 35.3137085,4 32,4 C28.6862915,4 26,6.6862915 26,10"/>
  </g>
</svg>
