<svg xmlns="http://www.w3.org/2000/svg" width="64" height="64" viewBox="0 0 64 64">
  <g fill="none" fill-rule="evenodd">
    <path fill="#80D25B" d="M35.5169452,12.3697391 C35.5169452,12.3697391 39.2106978,7.45598894 44.2106978,6.95598894 L40.2106978,13.9559889 L37.1495333,17.6455951" transform="rotate(12 39.864 12.3)"/>
    <path fill="#80D25B" d="M21.8765972,12.0703057 C21.8765972,12.0703057 25.5703497,7.15655555 30.5703497,6.65655555 L26.5703497,13.6565555 L22.2750956,16.3917487" transform="scale(-1 1) rotate(12 0 -237.976)"/>
    <polyline fill="#80D25B" points="30.098 13.464 33.098 2.464 36.098 13.464 32.598 19.464"/>
    <path fill="#FF78C7" d="M22.2320158,15.3144323 C23.0375763,12.8112592 25.3855244,11 28.1565148,11 C30.1920191,11 31.9992487,11.9773602 33.1345183,13.4883951 C34.2697878,11.9773602 36.0770174,11 38.1125217,11 C40.8835121,11 43.2314602,12.8112592 44.0370207,15.3144323 C45.2582704,14.1815979 46.8936425,13.4890017 48.6907791,13.4890017 C52.4710328,13.4890017 55.5355339,16.5535028 55.5355339,20.3337565 C55.5355339,21.1166155 55.4041068,21.868778 55.1621131,22.5693836 C57.557261,23.4351844 59.2690365,25.729195 59.2690365,28.4230122 C59.2690365,30.9127897 57.8067527,33.0610326 55.6941564,34.0557695 C56.3813348,35.1228335 56.7800348,36.3932404 56.7800348,37.7567687 C56.7800348,41.3708442 53.9790397,44.3307123 50.4294655,44.5839571 C50.5134243,44.991509 50.5575304,45.4136159 50.5575304,45.8460243 C50.5575304,49.2826186 47.7716203,52.0685287 44.3350261,52.0685287 C44.2933553,52.0685287 44.2517803,52.0681191 44.2103047,52.0673037 C44.2920905,52.469794 44.3350261,52.8863977 44.3350261,53.3130296 C44.3350261,56.7496238 41.549116,59.5355339 38.1125217,59.5355339 C36.0770174,59.5355339 34.2697878,58.5581737 33.1345183,57.0471388 C31.9992487,58.5581737 30.1920191,59.5355339 28.1565148,59.5355339 C24.7199205,59.5355339 21.9340104,56.7496238 21.9340104,53.3130296 C21.9340104,52.8863977 21.976946,52.469794 22.0587319,52.0673037 C22.0172563,52.0681191 21.9756812,52.0685287 21.9340104,52.0685287 C18.4974162,52.0685287 15.7115061,49.2826186 15.7115061,45.8460243 C15.7115061,45.4136159 15.7556122,44.991509 15.839571,44.5839571 C12.2899968,44.3307123 9.48900174,41.3708442 9.48900174,37.7567687 C9.48900174,36.3932404 9.88770168,35.1228335 10.5748801,34.0557695 C8.46228382,33.0610326 7,30.9127897 7,28.4230122 C7,25.729195 8.71177555,23.4351844 11.1069234,22.5693836 C10.8649297,21.868778 10.7335026,21.1166155 10.7335026,20.3337565 C10.7335026,16.5535028 13.7980037,13.4890017 17.5782574,13.4890017 C19.375394,13.4890017 21.0107661,14.1815979 22.2320158,15.3144323 L22.2320158,15.3144323 Z"/>
    <circle cx="20.098" cy="20.464" r="1" fill="#D650C7"/>
    <circle cx="20.098" cy="35.464" r="1" fill="#D650C7"/>
    <circle cx="37.098" cy="19.464" r="1" fill="#D650C7"/>
    <circle cx="27.098" cy="30.464" r="1" fill="#D650C7"/>
    <circle cx="17.098" cy="27.464" r="1" fill="#D650C7"/>
    <circle cx="48.098" cy="27.464" r="1" fill="#D650C7"/>
    <circle cx="29.098" cy="19.464" r="1" fill="#D650C7"/>
    <circle cx="46.098" cy="34.464" r="1" fill="#D650C7"/>
    <circle cx="40.098" cy="30.464" r="1" fill="#D650C7"/>
    <circle cx="42.098" cy="41.464" r="1" fill="#D650C7"/>
    <circle cx="46.098" cy="20.464" r="1" fill="#D650C7"/>
    <circle cx="29.098" cy="47.464" r="1" fill="#D650C7"/>
    <circle cx="33.098" cy="42.464" r="1" fill="#D650C7"/>
    <circle cx="33.098" cy="35.464" r="1" fill="#D650C7"/>
    <circle cx="33.098" cy="24.464" r="1" fill="#D650C7"/>
    <circle cx="37.098" cy="47.464" r="1" fill="#D650C7"/>
    <circle cx="25.098" cy="41.464" r="1" fill="#D650C7"/>
  </g>
</svg>
