<svg xmlns="http://www.w3.org/2000/svg" xmlns:xlink="http://www.w3.org/1999/xlink" width="64" height="64" viewBox="0 0 64 64">
  <defs>
    <path id="restaurant2-copy-19-a" d="M20.0697723,23.6034144 C20.3991046,20.034379 22.1709526,17.1338927 22.9841172,12.8711233 C24.2285621,6.34749754 23.5697721,-3.48955401 23.5697721,-3.48955401 L30.5697721,-3.48955401 C30.5697721,-3.48955401 29.9109825,6.34749754 31.1554275,12.8711233 C31.9685921,17.1338927 33.7404401,20.034379 34.0697723,23.6034144 C34.7924603,31.435319 33.2790344,54.5246166 33.2790344,54.5246166 C33.2108407,55.6213599 32.2605539,56.510446 31.1456711,56.510446 L22.9938736,56.510446 C21.8838433,56.510446 20.9277111,55.6216185 20.8598609,54.5138598 C20.8598609,54.5138598 19.3470844,31.435319 20.0697723,23.6034144 Z"/>
  </defs>
  <g fill="none" fill-rule="evenodd">
    <path stroke="#DCE6FF" stroke-linecap="square" stroke-linejoin="round" stroke-width="2" d="M51.9540585 46.2023755L51.9540585 57.2023755M47.9540585 58.2023755L56.0163162 58.2023755"/>
    <path fill="#C74522" d="M43.9540585,36.2023755 C44.3874276,41.8251115 47.7828912,46.2023755 51.9073453,46.2023755 C56.0317994,46.2023755 59.427263,41.8251115 59.8606321,36.2023755 L43.9540585,36.2023755 Z"/>
    <path fill="#DCE6FF" d="M44.0007716,36.2023755 C43.9698986,35.8159523 43.9540585,35.4234313 43.9540585,35.0259049 C43.9540585,32.4391213 44.6247891,30.0642862 45.7437899,28.2023755 L58.164327,28.2023755 C59.2833278,30.0642862 59.9540585,32.4391213 59.9540585,35.0259049 C59.9540585,35.4234313 59.9382183,35.8159523 59.9073453,36.2023755 L44.0007716,36.2023755 Z"/>
    <g transform="translate(2 1)">
      <mask id="restaurant2-copy-19-b" fill="#fff">
        <use xlink:href="#restaurant2-copy-19-a"/>
      </mask>
      <use fill="#D650C7" transform="rotate(45 27.07 26.51)" xlink:href="#restaurant2-copy-19-a"/>
      <rect width="7" height="4" x="38.389" y="9.889" fill="#FFDD95" mask="url(#restaurant2-copy-19-b)" transform="rotate(45 41.89 11.89)"/>
      <rect width="17.092" height="4" x="10.343" y="31.889" fill="#FFDD95" mask="url(#restaurant2-copy-19-b)" transform="rotate(45 18.89 33.89)"/>
    </g>
  </g>
</svg>
