<svg xmlns="http://www.w3.org/2000/svg" width="64" height="64" viewBox="0 0 64 64">
  <g fill="none" fill-rule="evenodd">
    <polygon fill="#FCC24C" points="19 16 45 16 48 23.25 48 58.5 45 63 19 63 16 58.5 16 23.25"/>
    <path fill="#BD7575" d="M38.4150635,5.23707472 C38.4150635,4.13698746 39.3089633,3.24519053 40.419945,3.24519053 L41.410182,3.24519053 C42.5174475,3.24519053 43.4150635,4.13858786 43.4150635,5.23707472 L43.4150635,18.2451905 L38.4150635,18.2451905 L38.4150635,5.23707472 Z" transform="rotate(30 40.915 10.745)"/>
    <path fill="#D650C7" d="M16,18 L48,18 L49.5056179,27.0337071 C49.7786576,28.6719455 48.7124939,29.6321411 47.1169407,29.1762688 L42.3830593,27.8237312 C40.7907896,27.368797 38.2615275,27.495389 36.7072768,28.1170893 L34.7927232,28.8829107 C33.2503448,29.4998621 30.7615275,29.504611 29.2072768,28.8829107 L27.2927232,28.1170893 C25.7503448,27.5001379 23.2124939,27.3678589 21.6169407,27.8237312 L16.8830593,29.1762688 C15.2907896,29.631203 14.2216766,28.6699405 14.4943821,27.0337071 L16,18 Z"/>
    <rect width="32" height="4" x="16" y="14" fill="#ED9111"/>
    <path stroke="#FFF" stroke-linecap="square" stroke-width="2" d="M23 35L23 58.0217289M28 45L28 58.0217289"/>
  </g>
</svg>
