<svg xmlns="http://www.w3.org/2000/svg" width="64" height="64" viewBox="0 0 64 64">
  <g fill="none" fill-rule="evenodd">
    <path fill="#0A3586" d="M40.4903811,8.49038106 C32.2061098,8.49038106 25.4903811,15.2061098 25.4903811,23.4903811 C25.4903811,31.7746523 32.2061098,38.4903811 40.4903811,38.4903811 C46.5305284,38.4903811 51.7368358,34.9202875 54.1142725,29.775131 C54.9975726,27.8635272 55.4903811,25.7345049 55.4903811,23.4903811" transform="scale(-1 1) rotate(60 0 -46.641)"/>
    <circle cx="19.722" cy="29.16" r="16.974" fill="#0A3586" transform="scale(-1 1) rotate(60 0 -5)"/>
    <polygon fill="#5EA7FF" points="14.196 29.305 9.954 31.439 12.087 27.196 9.954 22.954 14.196 25.087 18.439 22.954 16.305 27.196 18.439 31.439" transform="scale(1 -1) rotate(-75 -21.247 0)"/>
    <polygon fill="#5EA7FF" points="43.243 22.352 39 24.485 41.134 20.243 39 16 43.243 18.134 47.485 16 45.352 20.243 47.485 24.485" transform="matrix(0 1 1 0 23 -23)"/>
    <circle cx="37" cy="46" r="15" fill="#325AA6"/>
    <polygon fill="#5EA7FF" points="34.243 43.352 30 45.485 32.134 41.243 30 37 34.243 39.134 38.485 37 36.352 41.243 38.485 45.485" transform="matrix(0 1 1 0 -7 7)"/>
  </g>
</svg>
