<svg xmlns="http://www.w3.org/2000/svg" width="64" height="64" viewBox="0 0 64 64">
  <g fill="none" fill-rule="evenodd">
    <polygon fill="#E43535" points="27 1 36 1 37 7 26 7"/>
    <path fill="#595959" d="M27,7 L36,7 L37.1393114,12.0501097 C37.3822602,13.1270044 38.055591,14.7491226 38.6567781,15.6945047 L42.0306471,21 L42.0306471,39 L40.4503969,46.090839 C39.9692532,48.249809 40.330063,51.6189194 41.2607085,53.6254883 L41.6081052,54.3745117 C42.5367717,56.3768136 41.9820616,59.2359554 40.3817424,60.7486574 L38.7244058,62.3152552 C38.3243275,62.6934293 37.5525106,63 37.0014977,63 L25.9985023,63 C25.4470447,63 24.671589,62.6872276 24.27001,62.3047714 L22.6513992,60.7632374 C21.0490007,59.2371435 20.5088685,56.3810806 21.4494476,54.3745117 L21.8005524,53.6254883 C22.7391314,51.6231864 23.1038676,48.2570173 22.6115543,46.090839 L21,39 L21,21 L24.4221379,15.6766744 C25.0174247,14.7506727 25.6869432,13.1275986 25.9178336,12.0501097 L27,7 Z"/>
    <rect width="21" height="18" x="21" y="21" fill="#FF5656"/>
    <path fill="#E43535" fill-rule="nonzero" stroke="#FFF" stroke-width="2" d="M6.41021742,61.2903139 L60.5872217,7.41819854 C61.3704711,6.63935699 61.3740444,5.37303208 60.5952028,4.58978268 C59.8163613,3.80653328 58.5500364,3.80296001 57.766787,4.58180156 L3.58978268,58.4539169 C2.80653328,59.2327584 2.80296001,60.4990834 3.58180156,61.2823328 C4.36064311,62.0655822 5.62696802,62.0691554 6.41021742,61.2903139 Z"/>
  </g>
</svg>
