<svg xmlns="http://www.w3.org/2000/svg" width="64" height="64" viewBox="0 0 64 64">
  <g fill="none" fill-rule="evenodd">
    <ellipse cx="33" cy="20" fill="#979797" rx="22" ry="9"/>
    <path fill="#FFDD95" d="M43,29 C48.5228475,29 53,24.5228475 53,19 C53,13.4771525 48.5228475,9 43,9 L43,29 Z"/>
    <path fill="#FCC24C" d="M38.4178196,20.9533535 C43.9406671,20.9533535 48.4178196,16.476201 48.4178196,10.9533535 C48.4178196,5.43050599 43.9406671,0.953353488 38.4178196,0.953353488 L38.4178196,20.9533535 Z" transform="rotate(-165 43.418 10.953)"/>
    <path fill="#FCC24C" d="M36.330127,32.160254 C41.8529745,32.160254 46.330127,27.6831015 46.330127,22.160254 C46.330127,16.6374065 41.8529745,12.160254 36.330127,12.160254 L36.330127,32.160254 Z" transform="rotate(-30 41.33 22.16)"/>
    <path fill="#FCC24C" d="M15.9949376,32.1800177 C21.5177851,32.1800177 25.9949376,27.7028652 25.9949376,22.1800177 C25.9949376,16.6571702 21.5177851,12.1800177 15.9949376,12.1800177 L15.9949376,32.1800177 Z" transform="rotate(27 20.995 22.18)"/>
    <path fill="#FCC24C" d="M24.9949376,25.1800177 C30.5177851,25.1800177 34.9949376,20.7028652 34.9949376,15.1800177 C34.9949376,9.65717024 30.5177851,5.18001774 24.9949376,5.18001774 L24.9949376,25.1800177 Z" transform="rotate(27 29.995 15.18)"/>
    <path fill="#FFDD95" d="M11.562682,25.9908037 C17.0855295,25.9908037 21.562682,21.5136512 21.562682,15.9908037 C21.562682,10.4679562 17.0855295,5.99080374 11.562682,5.99080374 L11.562682,25.9908037 Z" transform="rotate(-16 16.563 15.99)"/>
    <path fill="#FFDD95" d="M26.562682,33.9908037 C32.0855295,33.9908037 36.562682,29.5136512 36.562682,23.9908037 C36.562682,18.4679562 32.0855295,13.9908037 26.562682,13.9908037 L26.562682,33.9908037 Z" transform="rotate(-16 31.563 23.99)"/>
    <path fill="#FFDD95" d="M32.8162259,40.7703168 C38.3390734,40.7703168 42.8162259,36.2931643 42.8162259,30.7703168 C42.8162259,25.2474693 38.3390734,20.7703168 32.8162259,20.7703168 L32.8162259,40.7703168 Z" transform="rotate(-169 37.816 30.77)"/>
    <path fill="#FFDD95" d="M21.562682,37.9908037 C27.0855295,37.9908037 31.562682,33.5136512 31.562682,27.9908037 C31.562682,22.4679562 27.0855295,17.9908037 21.562682,17.9908037 L21.562682,37.9908037 Z" transform="rotate(-145 26.563 27.99)"/>
    <path fill="#D8D8D8" d="M19,20 L11,20 L14,61 L52,61 L55,20 L47,20 C47,24.418278 40.7319865,28 33,28 C25.2680135,28 19,24.418278 19,20 Z"/>
    <circle cx="33" cy="45" r="8" fill="#22BA8E"/>
  </g>
</svg>
