<svg xmlns="http://www.w3.org/2000/svg" width="64" height="64" viewBox="0 0 64 64">
  <g fill="none" fill-rule="evenodd">
    <rect width="18" height="8" y="41" fill="#ED9111"/>
    <rect width="42" height="8" x="18" y="41" fill="#ECECEC"/>
    <path fill="#E43535" d="M60,41 L64,41 C64,41 62,42.894979 62,43.9560956 C62,44.3198798 63.8455215,45.4474999 64,46.2198627 C64.1544785,46.9922255 62.0071135,49 62.0071135,49 L60,49 L60,41 Z"/>
    <rect width="3" height="8" x="18" y="41" fill="#325AA6"/>
    <path stroke="#FCC24C" stroke-linecap="round" stroke-width="2" d="M60.2171724,37.0783431 C60.2171724,37.0783431 63.1189291,31.4456474 58.5623585,29.2116084 C54.0057879,26.9775695 40.4988489,36.0992919 33.9203537,25.2600062 C27.3418584,14.4207205 39.1526869,5.15472818 46.951309,5"/>
    <path stroke="#FCC24C" stroke-linecap="round" stroke-width="2" d="M57.2171724,33.0783431 C57.2171724,33.0783431 60.1189291,27.4456474 55.5623585,25.2116084 C51.0057879,22.9775695 33.9310528,33.5938256 27.3525575,22.7545399 C20.7740623,11.9152543 39.8723781,2.65994207 47.0529612,11.8095019"/>
  </g>
</svg>
