<svg xmlns="http://www.w3.org/2000/svg" width="64" height="64" viewBox="0 0 64 64">
  <g fill="none" fill-rule="evenodd">
    <circle cx="22" cy="39" r="2" fill="#595959"/>
    <path fill="#595959" d="M3,44 L41,44 L41,50.5 C41,54.0898509 38.0813009,57 34.4999596,57 L9.50004045,57 C5.91016724,57 3,54.0825462 3,50.5 L3,44 Z"/>
    <path stroke="#979797" stroke-linecap="square" stroke-width="2" d="M6,47 L18,47"/>
    <path fill="#D8D8D8" d="M41,44 C41,41.2385763 32.4934102,39 22,39 C11.5065898,39 3,41.2385763 3,44 L41,44 Z"/>
    <polygon fill="#979797" points="41 44 62 44 62 46 41 50"/>
    <path stroke="#FFDD95" stroke-linecap="round" stroke-linejoin="round" stroke-width="2" d="M17.7654144 31.5C17.7654144 31.5 21.7654144 24.3787879 19.2654144 19.75 16.7654144 15.1212121 15.7654146 12.9848485 19.2654144 8M25.7654144 31.5C25.7654144 31.5 29.7654144 24.3787879 27.2654144 19.75 24.7654144 15.1212121 23.7654146 12.9848485 27.2654144 8"/>
  </g>
</svg>
