<svg xmlns="http://www.w3.org/2000/svg" width="64" height="64" viewBox="0 0 64 64">
  <g fill="none" fill-rule="evenodd">
    <polygon fill="#B4DFFB" points="8 7 56 7 56 14 8 14"/>
    <polygon fill="#B4DFFB" points="8 54 56 54 56 61 8 61"/>
    <rect width="42" height="40" x="11" y="14" fill="#325AA6"/>
    <rect width="18" height="3" x="23" y="51" fill="#5EA7FF"/>
    <rect width="28" height="4" x="18" y="3" fill="#5EA7FF"/>
    <rect width="14" height="4" x="25" y="14" fill="#5EA7FF"/>
    <rect width="10" height="4" x="27" y="18" fill="#B4DFFB"/>
    <rect width="4" height="4" x="30" y="22" fill="#5EA7FF"/>
    <path fill="#BD7575" d="M23,40 L41,40 L41,46.9976305 C41,49.2080781 39.2082844,51 37.0052166,51 L26.9947834,51 C24.7885255,51 23,49.2081782 23,46.9976305 L23,40 Z"/>
    <circle cx="41" cy="44" r="3" stroke="#BD7575" stroke-linecap="round" stroke-width="2"/>
  </g>
</svg>
