<svg xmlns="http://www.w3.org/2000/svg" width="64" height="64" viewBox="0 0 64 64">
  <g fill="none" fill-rule="evenodd">
    <polyline stroke="#979797" stroke-linecap="round" stroke-linejoin="round" stroke-width="2" points="34 15 34 21 31 24.5 37 28 31 31 37 34.5 31 38 37 40.5 33 44 34 59.216"/>
    <path fill="#9C4D4D" d="M41,12 L48.9925801,12 C50.6544607,12 52,10.6561086 52,8.99833453 L52,7.00166547 C52,5.33902013 50.6535323,4 48.9925801,4 L19.0074199,4 C17.3455393,4 16,5.34389141 16,7.00166547 L16,8.99833453 C16,10.6609799 17.3464677,12 19.0074199,12 L27,12 C27,13.6568542 30.1340068,15 34,15 C37.8659932,15 41,13.6568542 41,12 Z"/>
    <rect width="5" height="10" x="12" y="3" fill="#BD7575" rx="2.5"/>
    <rect width="5" height="10" x="51" y="3" fill="#BD7575" rx="2.5"/>
  </g>
</svg>
