<svg xmlns="http://www.w3.org/2000/svg" width="64" height="64" viewBox="0 0 64 64">
  <g fill="none" fill-rule="evenodd">
    <path fill="#FF5656" d="M27.8691816,14.1631821 C16.5967448,16.0927692 8.12790698,24.4391849 8.12790698,36.4084453 C8.12790698,50.1219875 19.2449295,60.1594203 32.9584718,60.1594203 C46.672014,60.1594203 57.7890365,50.1219875 57.7890365,36.4084453 C57.7890365,24.2945706 49.114319,15.8916129 37.6379585,14.0960565 C38.087918,10.8707431 38.9484542,6.99833033 38.9484542,6.99833033 C37.9501234,6.99833033 34.9551324,10.9916516 34.9551324,10.9916516 L32.9584718,6 L30.4626459,10.9916516 C30.4626459,10.9916516 25.9701595,4.00333934 26.9684898,6.99833033 C27.5068568,8.61343134 27.7549,11.6801513 27.8691816,14.1631821 Z"/>
    <circle cx="42" cy="30" r="1" fill="#FFDD95"/>
    <circle cx="27" cy="21" r="1" fill="#FFDD95"/>
    <circle cx="44" cy="21" r="1" fill="#FFDD95"/>
    <circle cx="35" cy="49" r="1" fill="#FFDD95"/>
    <circle cx="21" cy="46" r="1" fill="#FFDD95"/>
    <circle cx="28" cy="32" r="1" fill="#FFDD95"/>
    <circle cx="44" cy="42" r="1" fill="#FFDD95"/>
    <path stroke="#FFDD95" stroke-linecap="round" stroke-linejoin="round" stroke-width="2" d="M22.9609478,22 C17.7045696,24.1963349 14,29.6290209 14,36.9997081"/>
  </g>
</svg>
