<svg xmlns="http://www.w3.org/2000/svg" width="64" height="64" viewBox="0 0 64 64">
  <g fill="none" fill-rule="evenodd">
    <circle cx="14" cy="38" r="9" stroke="#FFDD95" stroke-linecap="round" stroke-width="2"/>
    <circle cx="22" cy="40" r="9" stroke="#FFDD95" stroke-linecap="round" stroke-width="2"/>
    <circle cx="29" cy="43" r="9" stroke="#FFDD95" stroke-linecap="round" stroke-width="2"/>
    <circle cx="42" cy="37" r="9" stroke="#FFDD95" stroke-linecap="round" stroke-width="2"/>
    <circle cx="49.5" cy="36.5" r="5.5" stroke="#FFDD95" stroke-linecap="round" stroke-width="2"/>
    <circle cx="42.5" cy="37.5" r="5.5" stroke="#FFDD95" stroke-linecap="round" stroke-width="2"/>
    <circle cx="14" cy="38" r="5" stroke="#FFDD95" stroke-linecap="round" stroke-width="2"/>
    <path fill="#325AA6" d="M1.58020258,37 C1.19951207,38.941179 1,40.9472902 1,43 C1,50.1594952 3.42705097,56.7521223 7.50327167,62 L56.4967283,62 C60.572949,56.7521223 63,50.1594952 63,43 C63,40.9472902 62.8004879,38.941179 62.4197974,37 L1.58020258,37 Z"/>
    <path stroke="#B4DFFB" stroke-linecap="square" stroke-width="2" d="M6,41 L20,41"/>
    <path stroke="#979797" stroke-linecap="square" stroke-width="2" d="M4 63L60.0089279 63M57 2L18 15M59 18L14 18"/>
    <path stroke="#FFDD95" stroke-linecap="square" stroke-width="2" d="M22 11L22 24.0384048M14 18L14 25M17 15L17 22"/>
  </g>
</svg>
