<svg xmlns="http://www.w3.org/2000/svg" width="64" height="64" viewBox="0 0 64 64">
  <g fill="none" fill-rule="evenodd">
    <polygon fill="#595959" points="13 5 20 5 20 56.833 13 56.833"/>
    <path fill="#F6B44D" d="M20,5 L52.0000796,5 C53.1046051,5 54,5.894703 54,7.00020325 L54,57.8324082 C54,58.93709 53.1080589,59.8326115 52.0000796,59.8326115 L20,59.8326115 L20,5 Z"/>
    <path fill="#FF5656" stroke="#E43535" stroke-linecap="round" stroke-width="2" d="M32.6976333,35.0929452 C33.172777,35.8162313 40.2120972,41.3892579 44.4200532,34.8708631 C48.6280091,28.3524683 43.6518726,24.6037297 38.9282627,24.6056898 C34.2046528,24.6076499 31.3210416,24.6946795 29.9743594,22.4217188 C28.6276772,20.1487582 27.1184547,25.0175855 27.1184547,25.0175855 C26.5007492,26.5567103 27.2631851,28.2791243 28.7178241,29.0408021 C28.7178241,29.0408021 30.0478079,28.9742198 31.0637825,31.5549201 C32.0797571,34.1356203 32.2224896,34.3696592 32.6976333,35.0929452 Z"/>
    <circle cx="40.5" cy="29.5" r="2.5" fill="#D8D8D8"/>
    <path fill="#ECECEC" d="M13,56.5 C13,54.5670034 14.5571833,53 16.4956369,53 L54,53 L54,60 L16.4956369,60 C14.56505,60 13,58.4290634 13,56.5 L13,56.5 Z"/>
  </g>
</svg>
