<svg xmlns="http://www.w3.org/2000/svg" width="64" height="64" viewBox="0 0 64 64">
  <g fill="none" fill-rule="evenodd">
    <path fill="#D8D8D8" d="M6,26 L12.75,19 L20.5,19 L27.25,19 L34,26 L34,59 L6,59 L6,26 Z M20,27 C21.6568542,27 23,25.6568542 23,24 C23,22.3431458 21.6568542,21 20,21 C18.3431458,21 17,22.3431458 17,24 C17,25.6568542 18.3431458,27 20,27 Z"/>
    <rect width="28" height="4" x="6" y="56" fill="#9B9B9B"/>
    <polygon fill="#80D25B" points="44.606 26.15 47.106 23.525 49.606 23.525 52.106 23.525 54.606 26.15 54.606 38.525 44.606 38.525" transform="rotate(-39 49.606 31.025)"/>
    <path stroke="#979797" stroke-linecap="round" stroke-width="2" d="M19.5618856,24.1761224 C19.5618856,24.1761224 15.4114056,7.53568664 26.5999626,4.86833464 C37.7885197,2.20098264 37.991948,22.2872227 45.9831545,27.3512315"/>
  </g>
</svg>
