<svg xmlns="http://www.w3.org/2000/svg" width="64" height="64" viewBox="0 0 64 64">
  <g fill="none" fill-rule="evenodd">
    <circle cx="18" cy="36" r="9" fill="#5B68C0"/>
    <circle cx="26" cy="46" r="8" fill="#5B68C0"/>
    <circle cx="52.5" cy="41.5" r="7.5" fill="#5B68C0"/>
    <circle cx="55.5" cy="51.5" r="5.5" fill="#5B68C0"/>
    <path stroke="#BD7575" stroke-linecap="round" stroke-width="2" d="M30.732689,25.2877827 C30.732689,25.2877827 10.2974156,20.3487052 8.28559942,7.31565664"/>
    <path fill="#80D25B" d="M21.5361648,2.69467385 C24.7219257,5.39679522 27.3740061,9.23958094 27.3740061,13.0159032 C27.3740061,16.7922254 23.7692533,19.8724415 20.3761378,21.0104349 C16.9830223,19.8724415 13.7847773,17.9301042 16.576566,12.3535993 C19.3683548,6.77709445 20.5202734,7.67155317 21.5361648,2.69467385 Z" transform="rotate(-27 21.443 11.853)"/>
    <circle cx="45" cy="29" r="7" fill="#5B68C0"/>
    <circle cx="23.5" cy="27.5" r="7.5" fill="#325AA6"/>
    <circle cx="44.5" cy="37.5" r="7.5" fill="#325AA6"/>
    <circle cx="36.5" cy="28.5" r="7.5" fill="#5B68C0"/>
    <circle cx="47.5" cy="51.5" r="6.5" fill="#325AA6"/>
    <circle cx="39.5" cy="46.5" r="7.5" fill="#5B68C0"/>
    <circle cx="35.739" cy="21.5" r="8.5" fill="#325AA6"/>
    <circle cx="30.5" cy="38.5" r="7.5" fill="#325AA6"/>
  </g>
</svg>
