<svg xmlns="http://www.w3.org/2000/svg" width="64" height="64" viewBox="0 0 64 64">
  <g fill="none" fill-rule="evenodd">
    <circle cx="11" cy="30" r="6" stroke="#595959" stroke-linecap="round" stroke-width="2"/>
    <circle cx="55" cy="30" r="6" stroke="#595959" stroke-linecap="round" stroke-width="2"/>
    <circle cx="33" cy="18" r="4" fill="#D650C7"/>
    <path fill="#D650C7" d="M13,23 L53,23 C53,23 56,29.25 56,35.5 C56,41.75 53,48 53,48 L13,48 C13,48 10,41.75 10,35.5 C10,29.25 13,23 13,23 Z"/>
    <path fill="#595959" d="M13 48L53 48 53 50C53 51.1045695 52.1084602 52 51.0027084 52L14.9972916 52C13.8942179 52 13 51.1122704 13 50L13 48zM13 20.5C13 19.1192881 14.1115772 18 15.5021791 18L50.4978209 18C51.8797362 18 53 19.1096621 53 20.5L53 23 13 23 13 20.5z"/>
  </g>
</svg>
