<svg xmlns="http://www.w3.org/2000/svg" width="64" height="64" viewBox="0 0 64 64">
  <g fill="none" fill-rule="evenodd">
    <path fill="#979797" d="M13,37 L53,37 L53,57.9971835 C53,60.207878 51.2035752,62 48.9999745,62 L17.0000255,62 C14.7908724,62 13,60.2020617 13,57.9971835 L13,37 Z"/>
    <rect width="24" height="25" x="21" y="37" fill="#595959"/>
    <circle cx="33" cy="23" r="4" fill="#5EA7FF"/>
    <polyline stroke="#5EA7FF" stroke-linecap="round" stroke-width="2" points="10 38.973 10 34 55.881 34 55.881 39.156"/>
    <path fill="#D8D8D8" d="M13,27 C13,24.790861 14.7964248,23 17.0000255,23 L48.9999745,23 C51.2091276,23 53,24.7953562 53,27 L53,31 L13,31 L13,27 Z"/>
    <path stroke="#FFDD95" stroke-linecap="round" stroke-linejoin="round" stroke-width="2" d="M28.7654144 15C28.7654144 15 32.7654144 11.6666667 30.2654144 9.5 27.7654144 7.33333333 26.7654146 6.33333333 30.2654144 4M36.7654144 15C36.7654144 15 40.7654144 11.6666667 38.2654144 9.5 35.7654144 7.33333333 34.7654146 6.33333333 38.2654144 4"/>
  </g>
</svg>
