<svg xmlns="http://www.w3.org/2000/svg" width="64" height="64" viewBox="0 0 64 64">
  <g fill="none" fill-rule="evenodd">
    <path fill="#ECECEC" d="M10.8333761,52.4030589 C10.8333761,52.4030589 -6.26229422,37.5252452 7.112278,29.8741742 C20.4868502,22.2231031 23.6997409,29.0888374 25.430771,18.2388555 C27.1618012,7.38887361 28.1305202,1.65468201 43.8463005,7.06733784 C59.5620807,12.4799937 54.8541721,17.9798178 58.2537344,26.0478163 C61.6532967,34.1158148 65.2337743,44.5875194 56.313007,49.9294538 C47.3922397,55.2713882 49.7079551,58.4818118 44.6892011,58.4152021 C39.6704472,58.3485924 45.5444369,55.0830718 30.3681131,55.8388042 C15.1917893,56.5945366 10.8333761,52.4030589 10.8333761,52.4030589 Z"/>
    <g transform="translate(8 10)">
      <path fill="#ED9111" d="M4,17 L8,17 L8,46.0017862 C8,47.1053692 7.11227036,48 6,48 L6,48 C4.8954305,48 4,47.1056623 4,46.0017862 L4,17 Z"/>
      <path stroke="#D8D8D8" stroke-linecap="round" stroke-width="2" d="M12,0 L12,11.9913864 C12,14.7575673 9.77101511,17 6.99781374,17 L5.00218626,17 C2.23955507,17 0,14.7600656 0,11.9913864 L0,0 L0,0"/>
      <path stroke="#D8D8D8" stroke-linecap="round" stroke-linejoin="round" stroke-width="2" d="M6,16 L6,0"/>
    </g>
    <circle cx="39.955" cy="22.875" r="11" fill="#FCC24C"/>
    <path stroke="#FFF" stroke-linecap="round" stroke-width="2" d="M39.9547723,14.8754471 C35.5364943,14.8754471 31.9547723,18.4571691 31.9547723,22.8754471"/>
  </g>
</svg>
