<svg xmlns="http://www.w3.org/2000/svg" width="64" height="64" viewBox="0 0 64 64">
  <g fill="none" fill-rule="evenodd">
    <path stroke="#979797" stroke-linecap="square" stroke-width="2" d="M53,31 L34,31"/>
    <rect width="16" height="4" x="48" y="29" fill="#D8D8D8" rx="2"/>
    <path fill="#595959" d="M2,30 L38,30 L38,34 C38,36.209139 36.2147544,38 34.0098214,38 L5.99017859,38 C3.7864638,38 2,36.2046438 2,34 L2,30 Z"/>
    <path fill="#E43535" d="M16 54.1394421C18.7614237 54.1394421 21 51.9008658 21 49.1394421 21 46.3780183 16 41 16 41 16 41 11 46.3780183 11 49.1394421 11 51.9008658 13.2385763 54.1394421 16 54.1394421zM26 53.8836653C27.6568542 53.8836653 29 52.5405195 29 50.8836653 29 49.226811 26 46 26 46 26 46 23 49.226811 23 50.8836653 23 52.5405195 24.3431458 53.8836653 26 53.8836653zM6 53.8836653C7.65685425 53.8836653 9 52.5405195 9 50.8836653 9 49.226811 6 46 6 46 6 46 3 49.226811 3 50.8836653 3 52.5405195 4.34314575 53.8836653 6 53.8836653z"/>
    <rect width="24" height="3" x="4" y="56" fill="#D8D8D8"/>
    <path stroke="#979797" stroke-linecap="square" stroke-width="2" d="M3,60 L29,60"/>
  </g>
</svg>
