<svg xmlns="http://www.w3.org/2000/svg" width="64" height="64" viewBox="0 0 64 64">
  <g fill="none" fill-rule="evenodd">
    <rect width="40" height="19" x="12" y="42" fill="#595959"/>
    <path stroke="#979797" stroke-linecap="square" stroke-width="2" d="M17 60L17 57M22 60L22 57M27 60L27 57M32 60L32 57M37 60L37 57M42 60L42 57M47 60L47 57"/>
    <path fill="#FFDD95" d="M4,6.00002553 C4,3.79087243 5.79979503,2 8.00490831,2 L55.9950917,2 C58.2069415,2 60,3.79642476 60,6.00002553 L60,37.9999745 C60,40.2091276 58.200205,42 55.9950917,42 L8.00490831,42 C5.79305852,42 4,40.2035752 4,37.9999745 L4,6.00002553 Z"/>
    <path stroke="#979797" stroke-linecap="square" stroke-width="2" d="M31,46 L48,46"/>
    <rect width="9" height="6" x="35" y="44" fill="#D8D8D8"/>
    <rect width="10" height="3" x="14" y="43" fill="#22BA8E"/>
    <rect width="10" height="3" x="14" y="46" fill="#D650C7"/>
    <rect width="10" height="3" x="14" y="49" fill="#B4DFFB"/>
    <rect width="46" height="30" x="9" y="7" fill="#5B68C0" rx="3"/>
    <path stroke="#B4DFFB" stroke-linecap="round" stroke-width="2" d="M12 14.3909344L15.3909344 11M12.1931365 19.1977979L20.3909344 11"/>
  </g>
</svg>
