<svg xmlns="http://www.w3.org/2000/svg" width="64" height="64" viewBox="0 0 64 64">
  <g fill="none" fill-rule="evenodd">
    <path fill="#80D25B" d="M48.5044647,36.529591 C51.2658885,36.529591 53.5044647,34.1876959 53.5044647,31.2988218 C53.5044647,28.4099477 48.5044647,19.529591 48.5044647,19.529591 C48.5044647,19.529591 43.5044647,28.4099477 43.5044647,31.2988218 C43.5044647,34.1876959 45.743041,36.529591 48.5044647,36.529591 Z" transform="rotate(75 48.504 28.03)"/>
    <path fill="#80D25B" d="M18.5044647,36.529591 C21.2658885,36.529591 23.5044647,34.1876959 23.5044647,31.2988218 C23.5044647,28.4099477 18.5044647,19.529591 18.5044647,19.529591 C18.5044647,19.529591 13.5044647,28.4099477 13.5044647,31.2988218 C13.5044647,34.1876959 15.743041,36.529591 18.5044647,36.529591 Z" transform="scale(-1 1) rotate(75 0 3.914)"/>
    <path stroke="#22BA8E" stroke-linecap="round" stroke-width="2" d="M45,29 C38.372583,29 33,34.372583 33,41"/>
    <path stroke="#22BA8E" stroke-linecap="round" stroke-width="2" d="M33,29 C26.372583,29 21,34.372583 21,41" transform="matrix(-1 0 0 1 54 0)"/>
    <path stroke="#5EA7FF" stroke-linecap="round" stroke-width="2" d="M5,32 C5,47.463973 17.536027,60 33,60 C48.463973,60 61,47.463973 61,32 C61,16.536027 48.463973,4 33,4 L33,17.9842359"/>
    <polyline stroke="#5EA7FF" stroke-linecap="round" stroke-width="2" points="28.232 13.032 32.99 18.855 37.997 13.171"/>
  </g>
</svg>
