<svg xmlns="http://www.w3.org/2000/svg" width="64" height="64" viewBox="0 0 64 64">
  <g fill="none" fill-rule="evenodd">
    <path fill="#22BA8E" d="M27.4348249,22.8723205 C11.3299574,26.925753 5.50322883,41 5.50322883,41 C-1.27386448,23.8230257 16.8339658,12.3176996 20.7649228,10.0633698 L17.41671,3.63342643 C16.9058695,2.65240288 17.3551503,2.06901565 18.4359781,2.33426511 L38.8067539,7.33352306 C39.8805206,7.59703962 40.4214347,8.64799504 40.0210164,9.6654056 L32.3727637,29.098616 C31.9696156,30.1229626 31.2296879,30.1600155 30.7178409,29.1770593 L27.4348249,22.8723205 Z"/>
    <path fill="#E43535" d="M49.4348249,44.8723205 C33.3299574,48.925753 27.5032288,63 27.5032288,63 C20.7261355,45.8230257 38.8339658,34.3176996 42.7649228,32.0633698 L39.41671,25.6334264 C38.9058695,24.6524029 39.3551503,24.0690157 40.4359781,24.3342651 L60.8067539,29.3335231 C61.8805206,29.5970396 62.4214347,30.647995 62.0210164,31.6654056 L54.3727637,51.098616 C53.9696156,52.1229626 53.2296879,52.1600155 52.7178409,51.1770593 L49.4348249,44.8723205 Z" transform="rotate(180 44 43.5)"/>
  </g>
</svg>
