<svg xmlns="http://www.w3.org/2000/svg" width="64" height="64" viewBox="0 0 64 64">
  <g fill="none" fill-rule="evenodd">
    <rect width="6" height="11" x="27" y="46" fill="#D8D8D8"/>
    <rect width="14" height="1" x="23" y="58" stroke="#979797" stroke-width="2"/>
    <rect width="54" height="39" x="3" y="9" fill="#868686" rx="3"/>
    <rect width="48" height="33" x="6" y="12" fill="#ECECEC"/>
    <path fill="#5B68C0" d="M28.221,29.128 C28.2396668,29.3800013 28.1440011,29.5993324 27.934,29.786 C27.723999,29.9726676 27.4930013,30.066 27.241,30.066 C27.1756663,30.066 27.075334,30.0473335 26.94,30.01 C26.804666,29.9726665 26.6903338,29.9586666 26.597,29.968 C26.4383325,29.9960001 26.1863351,30.0146666 25.841,30.024 C25.841,31.3586733 25.8316668,32.0773328 25.813,32.18 C25.813,32.3666676 25.8759994,32.6139985 26.002,32.922 C26.1280006,33.2300015 26.191,33.4493327 26.191,33.58 C26.191,33.8973349 25.9250027,34.1819987 25.393,34.434 C25.3369997,34.4620001 25.2670004,34.476 25.183,34.476 C24.8469983,34.476 24.483002,34.2940018 24.091,33.93 C23.698998,33.5659982 23.5263331,33.2066684 23.573,32.852 C23.5823334,32.777333 23.6639992,32.6490009 23.818,32.467 C23.9720008,32.2849991 24.049,32.0866677 24.049,31.872 C24.0303332,31.1626631 24.021,30.6680014 24.021,30.388 C23.5729978,30.5093339 22.9850036,30.6213328 22.257,30.724 C22.1729996,30.7426668 22.0470008,30.8126661 21.879,30.934 C21.7483327,31.0366672 21.6223339,31.0786668 21.501,31.06 C21.2489987,31.0226665 20.9970013,30.8546682 20.745,30.556 C20.4649986,30.2199983 20.3436665,29.8840017 20.381,29.548 C20.3996668,29.3333323 20.4976658,29.1793338 20.675,29.086 C20.8990011,28.9646661 21.0343331,28.866667 21.081,28.792 L23.937,23.668 C23.9930003,23.5653328 24.0186667,23.3973345 24.014,23.164 C24.0093333,22.9306655 24.0489996,22.7626672 24.133,22.66 C24.2543339,22.5106659 24.4176656,22.436 24.623,22.436 C24.9963352,22.436 25.3999978,22.6273314 25.834,23.01 C26.2680022,23.3926686 26.485,23.7613316 26.485,24.116 C26.485,24.2933342 26.3730011,24.6059978 26.149,25.054 C25.9249989,25.5020022 25.813,25.8706652 25.813,26.16 L25.813,28.372 C26.0556679,28.2693328 26.4383307,28.1573339 26.961,28.036 C27.2503348,28.0173332 27.5279987,28.1176656 27.794,28.337 C28.0600013,28.5563344 28.2023332,28.8199985 28.221,29.128 Z M24.105,26.524 L22.845,28.96 L24.021,28.708 L24.105,26.524 Z M34.297,23.668 C34.297,23.7800006 34.2036676,23.9199992 34.017,24.088 C33.7929989,24.2746676 33.6530003,24.4239994 33.597,24.536 L29.285,32.712 C29.2289997,32.8053338 29.1216675,33.1133307 28.963,33.636 C28.8509994,33.9720017 28.7250007,34.1539999 28.585,34.182 C28.3609989,34.2286669 28.0763351,34.154001 27.731,33.958 C27.3483314,33.7339989 27.157,33.4680015 27.157,33.16 C27.1663334,33.0106659 27.2316661,32.8613341 27.353,32.712 C27.5303342,32.4973323 27.6329999,32.3666669 27.661,32.32 L32.281,23.668 C32.3183335,23.6026663 32.3696663,23.4160015 32.435,23.108 C32.4910003,22.8839989 32.5889993,22.734667 32.729,22.66 C32.8223338,22.6133331 32.9296661,22.59 33.051,22.59 C33.3403348,22.59 33.620332,22.6926656 33.891,22.898 C34.1710014,23.1313345 34.3063334,23.3879986 34.297,23.668 Z M41.367,23.92 C41.367,24.1533345 41.2783342,24.3539992 41.101,24.522 C40.9236658,24.6900008 40.7043346,24.7973331 40.443,24.844 C40.3123327,24.8720001 40.1443344,24.8323339 39.939,24.725 C39.7336656,24.6176661 39.5656673,24.5733332 39.435,24.592 L37.167,24.9 C37.1856668,25.8146712 37.1856668,26.4866645 37.167,26.916 C37.6990027,26.5426648 38.3149965,26.356 39.015,26.356 C39.4723356,26.356 39.866665,26.5006652 40.198,26.79 C40.529335,27.0793348 40.695,27.4666642 40.695,27.952 C40.695,28.6706703 40.4430025,29.6086609 39.939,30.766 C39.5003311,31.774005 38.9893362,32.6956625 38.406,33.531 C37.8226637,34.3663375 37.4190011,34.7700001 37.195,34.742 C36.7563311,34.6859997 36.1146709,34.2753372 35.27,33.51 C34.4253291,32.7446628 34.040333,32.226668 34.115,31.956 C34.2270006,31.5733314 34.5443307,31.382 35.067,31.382 C35.1510004,31.382 35.2349996,31.3866666 35.319,31.396 C35.5243344,31.4240001 35.7599987,31.5569988 36.026,31.795 C36.2920013,32.0330012 36.5323323,32.152 36.747,32.152 C36.9803345,32.152 37.3326643,31.6433384 37.804,30.626 C38.2753357,29.6086616 38.511,28.8760022 38.511,28.428 C38.511,28.2599992 38.4503339,28.176 38.329,28.176 C38.1889993,28.176 37.8343362,28.3883312 37.265,28.813 C36.6956638,29.2376688 36.2990011,29.4266669 36.075,29.38 C35.9256659,29.3426665 35.7903339,29.2493341 35.669,29.1 C35.5476661,28.9506659 35.4310006,28.8013341 35.319,28.652 C35.1789993,28.5399994 35.0320008,28.4210006 34.878,28.295 C34.7239992,28.1689994 34.6376668,28.0266675 34.619,27.868 C34.6003332,27.7093325 34.6983323,27.5390009 34.913,27.357 C35.1276677,27.1749991 35.235,27.0093341 35.235,26.86 L35.235,25.236 C35.235,25.1146661 35.2023337,24.8696685 35.137,24.501 C35.0716663,24.1323315 35.039,23.8733341 35.039,23.724 C35.039,23.5839993 35.0576665,23.4813337 35.095,23.416 C35.1883338,23.2759993 35.5243304,23.1966668 36.103,23.178 C37.1390052,23.1313331 37.6709999,23.108 37.699,23.108 C38.1563356,23.0519997 38.7723295,22.9586673 39.547,22.828 C40.0790027,22.7439996 40.3869996,22.702 40.471,22.702 C41.0683363,22.702 41.367,23.1079959 41.367,23.92 Z"/>
    <circle cx="55" cy="11" r="9" fill="#FFAF40"/>
    <path fill="#C13F98" d="M55.8767618,14.6583221 C55.3835816,14.399042 54.5939003,14.3938259 54.0907985,14.6583221 L52.4780115,15.5062144 C51.9848313,15.7654946 51.6594903,15.5415451 51.7555741,14.981333 L52.0635891,13.1854682 C52.1577781,12.6363041 51.9187139,11.8836606 51.5116961,11.4869162 L50.2069239,10.2150777 C49.8079328,9.82615753 49.9203856,9.44753558 50.4828704,9.36580175 L52.2860212,9.10378861 C52.8374133,9.02366664 53.4793449,8.56372349 53.7308958,8.05402574 L54.5372893,6.42009399 C54.7838794,5.92044794 55.1787201,5.91039624 55.430271,6.42009399 L56.2366645,8.05402574 C56.4832545,8.55367179 57.1190543,9.02205477 57.6815391,9.10378861 L59.4846898,9.36580175 C60.036082,9.44592372 60.1676542,9.81833338 59.7606364,10.2150777 L58.4558642,11.4869162 C58.0568731,11.8758365 57.8078873,12.6252562 57.9039712,13.1854682 L58.2119861,14.981333 C58.3061752,15.5304972 57.9926506,15.7707107 57.4895488,15.5062144 L55.8767618,14.6583221 Z"/>
  </g>
</svg>
