<svg xmlns="http://www.w3.org/2000/svg" width="64" height="64" viewBox="0 0 64 64">
  <g fill="none" fill-rule="evenodd">
    <path fill="#979797" d="M2,10 L17,10 L17,20 L10.0021863,20 C7.23955507,20 4.35642473,17.8547491 3.5615081,15.205027 L2,10 Z" transform="rotate(30 9.5 15)"/>
    <path fill="#979797" d="M48,10 L63,10 L63,20 L56.0021863,20 C53.2395551,20 50.3564247,17.8547491 49.5615081,15.205027 L48,10 Z" transform="scale(-1 1) rotate(30 0 -192.129)"/>
    <path fill="#D8D8D8" d="M16,12 L48,12 L52.5,28 L51.5606777,38.0194376 C51.251024,41.322411 48.3127737,44 44.9997559,44 L19.0002441,44 C15.6864008,44 12.7489337,41.3219597 12.4393223,38.0194376 L11.5,28 L16,12 Z" transform="matrix(1 0 0 -1 0 56)"/>
    <path fill="#595959" d="M11,44.9971369 C11,41.1327249 14.1396498,38 18.0062098,38 L45.9937902,38 C49.863213,38 53,41.1409534 53,44.9971369 L53,50.5 C53,57.4035594 47.4010153,63 40.4981301,63 L23.5018699,63 C16.5972778,63 11,57.4050773 11,50.5 L11,44.9971369 Z" transform="matrix(1 0 0 -1 0 101)"/>
    <ellipse cx="18.451" cy="52.572" fill="#979797" rx="3" ry="6" transform="rotate(-15 18.45 52.572)"/>
    <ellipse cx="46.451" cy="52.572" fill="#979797" rx="3" ry="6" transform="scale(-1 1) rotate(-15 0 405.4)"/>
    <circle cx="18" cy="34" r="2" fill="#595959"/>
    <circle cx="46" cy="34" r="2" fill="#595959"/>
    <path fill="#979797" d="M32,3 L38,35 C38,35 35,37 32,37 C29,37 26,35 26,35 L32,3 Z"/>
  </g>
</svg>
