<svg xmlns="http://www.w3.org/2000/svg" width="64" height="64" viewBox="0 0 64 64">
  <g fill="none" fill-rule="evenodd">
    <path stroke="#979797" stroke-linecap="square" stroke-width="2" d="M16 22L16 3M45 34L45 3"/>
    <path fill="#ED9111" fill-rule="nonzero" d="M15.5 40.5C8.872583 40.5 3.5 35.127417 3.5 28.5 3.5 21.872583 8.872583 16.5 15.5 16.5 22.127417 16.5 27.5 21.872583 27.5 28.5 27.5 35.127417 22.127417 40.5 15.5 40.5zM15.5 37.5C20.4705627 37.5 24.5 33.4705627 24.5 28.5 24.5 23.5294373 20.4705627 19.5 15.5 19.5 10.5294373 19.5 6.5 23.5294373 6.5 28.5 6.5 33.4705627 10.5294373 37.5 15.5 37.5zM45.5 61C36.3873016 61 29 53.6126984 29 44.5 29 35.3873016 36.3873016 28 45.5 28 54.6126984 28 62 35.3873016 62 44.5 62 53.6126984 54.6126984 61 45.5 61zM45.5 57C52.4035594 57 58 51.4035594 58 44.5 58 37.5964406 52.4035594 32 45.5 32 38.5964406 32 33 37.5964406 33 44.5 33 51.4035594 38.5964406 57 45.5 57z"/>
  </g>
</svg>
