<svg xmlns="http://www.w3.org/2000/svg" width="64" height="64" viewBox="0 0 64 64">
  <g fill="none" fill-rule="evenodd">
    <path stroke="#BD7575" stroke-linecap="square" stroke-width="2" d="M13,33 L13,40"/>
    <path fill="#22BA8E" d="M13,34 C16.8659932,34 20,33.1944204 20,28.5 C20,23.8055796 16.8659932,18 13,18 C9.13400675,18 6,23.8055796 6,28.5 C6,33.1944204 9.13400675,34 13,34 Z"/>
    <path stroke="#5EA7FF" stroke-linecap="round" stroke-width="4" d="M21.127467,41.1325207 L8.06609839,41.1325207 C5.8568635,41.1325207 4.06592477,42.9290193 4.06592477,45.1374279 L4.06592477,45.044652 C4.06592477,47.2565011 5.85432894,49.0495591 8.05933915,49.0495591 L29.0111741,49.0495591 C31.216676,49.0495591 33.0045885,50.8482689 33.0045885,53.0548516 L33.0045885,55.1052921 C33.0045885,57.3173541 34.7954255,59.1105846 37.0054062,59.1105846 L57.9058454,59.1105846"/>
    <path stroke="#BD7575" stroke-linecap="square" stroke-width="2" d="M51 50L51 57M34 37L34 44"/>
    <path fill="#22BA8E" d="M51,51 C54.8659932,51 58,49.7412818 58,42.40625 C58,35.0712182 54.8659932,26 51,26 C47.1340068,26 44,35.0712182 44,42.40625 C44,49.7412818 47.1340068,51 51,51 Z"/>
    <path fill="#80D25B" d="M34,38 C37.8659932,38 41,36.7412818 41,29.40625 C41,22.0712182 37.8659932,13 34,13 C30.1340068,13 27,22.0712182 27,29.40625 C27,36.7412818 30.1340068,38 34,38 Z"/>
    <rect width="19" height="7" x="43" y="8" fill="#5EA7FF" rx="3.5"/>
    <rect width="19" height="7" x="4" y="8" fill="#5EA7FF" rx="3.5"/>
    <rect width="19" height="7" x="35" y="4" fill="#5EA7FF" rx="3.5"/>
  </g>
</svg>
