<svg xmlns="http://www.w3.org/2000/svg" width="64" height="64" viewBox="0 0 64 64">
  <g fill="none" fill-rule="evenodd">
    <path stroke="#BD7575" stroke-linecap="square" stroke-width="2" d="M13,33 L13,40"/>
    <path fill="#FF78C7" d="M13,34 C16.8659932,34 20,33.1944204 20,28.5 C20,23.8055796 16.8659932,18 13,18 C9.13400675,18 6,23.8055796 6,28.5 C6,33.1944204 9.13400675,34 13,34 Z"/>
    <path stroke="#5EA7FF" stroke-linecap="round" stroke-width="4" d="M21.127467,41.1325207 L8.06609839,41.1325207 C5.8568635,41.1325207 4.06592477,42.9290193 4.06592477,45.1374279 L4.06592477,45.044652 C4.06592477,47.2565011 5.85432894,49.0495591 8.05933915,49.0495591 L29.0111741,49.0495591 C31.216676,49.0495591 33.0045885,50.8482689 33.0045885,53.0548516 L33.0045885,55.1052921 C33.0045885,57.3173541 34.7954255,59.1105846 37.0054062,59.1105846 L57.9058454,59.1105846"/>
    <path stroke="#BD7575" stroke-linecap="square" stroke-width="2" d="M51,50 L51,57"/>
    <circle cx="40" cy="18" r="12" fill="#ED9111"/>
    <path stroke="#BD7575" stroke-linecap="square" stroke-width="2" d="M34,37 L34,44"/>
    <path fill="#22BA8E" d="M51,51 C54.8659932,51 58,48.8853535 58,36.5625 C58,24.2396465 54.8659932,9 51,9 C47.1340068,9 44,24.2396465 44,36.5625 C44,48.8853535 47.1340068,51 51,51 Z"/>
    <path fill="#80D25B" d="M34,38 C37.8659932,38 41,37.0937229 41,31.8125 C41,26.5312771 37.8659932,20 34,20 C30.1340068,20 27,26.5312771 27,31.8125 C27,37.0937229 30.1340068,38 34,38 Z"/>
  </g>
</svg>
