<svg xmlns="http://www.w3.org/2000/svg" width="64" height="64" viewBox="0 0 64 64">
  <g fill="none" fill-rule="evenodd">
    <polygon fill="#FF5656" points="15.5 34 21 34 32 34 43 34 48.5 34 54 44 32 39 10 44"/>
    <path fill="#E43535" d="M38.6472809,50 C42.1901519,44.6747301 44.3488705,37.605694 44.3488705,29.8491183 C44.3488705,18.0959667 39.39249,7.92139418 32.1744352,3 C24.9563804,7.92139418 20,18.0959667 20,29.8491183 C20,37.605694 22.1587186,44.6747301 25.7015896,50 L38.6472809,50 L38.6472809,50 Z"/>
    <polygon fill="#D8D8D8" points="26 52 32 52 32 63 24 63"/>
    <polygon fill="#979797" points="32 52 38 52 40 63 32 63"/>
    <circle cx="32" cy="14" r="4" fill="#B4DFFB"/>
    <path stroke="#FF5656" stroke-linecap="square" stroke-width="2" d="M32,29 L32,43.0831892"/>
  </g>
</svg>
