<svg xmlns="http://www.w3.org/2000/svg" width="64" height="64" viewBox="0 0 64 64">
  <g fill="none" fill-rule="evenodd">
    <path fill="#9C4D4D" d="M30.0206123,26 L38.0206123,26 C38.0206123,26 39.9567516,37.7445573 41.0206123,42 C42.084473,46.2554427 43.7791256,46.1362122 44.0206123,50 C44.262099,53.8637878 43.0206123,58 43.0206123,58 L26.0206123,58 C26.0206123,58 23.762099,54.1362122 24.0206123,50 C24.2791256,45.8637878 26.0206123,45.8424077 27.0206123,42 C28.0206123,38.1575923 30.0206123,26 30.0206123,26 Z"/>
    <path fill="#BD7575" d="M17 58.5C17 56.5670034 18.5717012 55 20.4946613 55L47.5053387 55C49.4353869 55 51 56.5709366 51 58.5L51 62 17 62 17 58.5zM41 11L45 11 45 25 34 28 23 25 23 11 27 11 27 16 32 16 32 11 36 11 36 16 41 16 41 11z"/>
  </g>
</svg>
