<svg xmlns="http://www.w3.org/2000/svg" width="64" height="64" viewBox="0 0 64 64">
  <g fill="none" fill-rule="evenodd">
    <path fill="#80D25B" d="M43.9030603,43 L56,43 C56,29.745166 45.4786916,19 32.5,19 C19.5213084,19 9,29.745166 9,43 L21.0969397,43 C21.0329878,42.5090539 21,42.0083793 21,41.5 C21,35.1487254 26.1487254,30 32.5,30 C38.8512746,30 44,35.1487254 44,41.5 C44,42.0083793 43.9670122,42.5090539 43.9030603,43 Z"/>
    <polygon fill="#6DC048" points="2 43 63 43 63 54 2 54"/>
    <path fill="#D8D8D8" d="M4 51.9989566C4 51.4472481 4.44386482 51 5 51L5 51C5.55228475 51 6 51.4426603 6 51.9989566L6 54 4 54 4 51.9989566zM14 51.9989566C14 51.4472481 14.4438648 51 15 51L15 51C15.5522847 51 16 51.4426603 16 51.9989566L16 54 14 54 14 51.9989566zM9 48.990778C9 48.4435864 9.44386482 48 10 48L10 48C10.5522847 48 11 48.4509752 11 48.990778L11 54 9 54 9 48.990778zM19 48.990778C19 48.4435864 19.4438648 48 20 48L20 48C20.5522847 48 21 48.4509752 21 48.990778L21 54 19 54 19 48.990778zM24 51.9989566C24 51.4472481 24.4438648 51 25 51L25 51C25.5522847 51 26 51.4426603 26 51.9989566L26 54 24 54 24 51.9989566zM29 48.990778C29 48.4435864 29.4438648 48 30 48L30 48C30.5522847 48 31 48.4509752 31 48.990778L31 54 29 54 29 48.990778zM34 51.9989566C34 51.4472481 34.4438648 51 35 51L35 51C35.5522847 51 36 51.4426603 36 51.9989566L36 54 34 54 34 51.9989566zM39 48.990778C39 48.4435864 39.4438648 48 40 48L40 48C40.5522847 48 41 48.4509752 41 48.990778L41 54 39 54 39 48.990778zM44 51.9989566C44 51.4472481 44.4438648 51 45 51L45 51C45.5522847 51 46 51.4426603 46 51.9989566L46 54 44 54 44 51.9989566zM49 48.990778C49 48.4435864 49.4438648 48 50 48L50 48C50.5522847 48 51 48.4509752 51 48.990778L51 54 49 54 49 48.990778zM54 51.9989566C54 51.4472481 54.4438648 51 55 51L55 51C55.5522847 51 56 51.4426603 56 51.9989566L56 54 54 54 54 51.9989566zM59 48.990778C59 48.4435864 59.4438648 48 60 48L60 48C60.5522847 48 61 48.4509752 61 48.990778L61 54 59 54 59 48.990778z"/>
  </g>
</svg>
