<svg xmlns="http://www.w3.org/2000/svg" width="64" height="64" viewBox="0 0 64 64">
  <path fill="#B4DFFB" fill-rule="evenodd" d="M37.6875,49 L32,62 L26.3125,49 L6,49 L6,5 L58,5 L58,49 L37.6875,49 Z M47,34 C47,21.8497355 37.1502645,12 25,12 L25,16 C34.9411255,16 43,24.0588745 43,34 L47,34 Z M39,35 C39,26.7157288 32.2842712,20 24,20 L24,24 C30.0751322,24 35,28.9248678 35,35 L39,35 Z M25,38 C27.209139,38 29,36.209139 29,34 C29,31.790861 27.209139,30 25,30 C22.790861,30 21,31.790861 21,34 C21,36.209139 22.790861,38 25,38 Z"/>
</svg>
