<svg xmlns="http://www.w3.org/2000/svg" width="64" height="64" viewBox="0 0 64 64">
  <g fill="none" fill-rule="evenodd">
    <circle cx="32" cy="32" r="29" fill="#FF78C7"/>
    <circle cx="25.657" cy="38.351" r="4" stroke="#D650C7" stroke-linecap="round" stroke-width="2" transform="rotate(45 25.657 38.351)"/>
    <path stroke="#D650C7" stroke-width="2" d="M47.6922451,42.3601551 C47.7730396,35.6053869 45.2109635,29.1268879 40.3890873,24.3050116 C35.5672111,19.4831354 29.0887121,16.9210593 22.3339439,17.0018538 C21.2294534,17.0150648 20.3447965,17.9211408 20.3580074,19.0256313 C20.3712184,20.1301218 21.2772944,21.0147787 22.3817849,21.0015677 C28.0734092,20.9334896 33.5112237,23.0840023 37.5606602,27.1334388 C41.6100966,31.1828752 43.7606093,36.6206897 43.6925312,42.3123141 C43.6793203,43.4168045 44.5639772,44.3228806 45.6684677,44.3360915 C46.7729581,44.3493024 47.6790342,43.4646456 47.6922451,42.3601551 Z"/>
    <path stroke="#D650C7" stroke-width="2" d="M39.5086602,41.4493483 C39.3305762,37.1919421 37.5053381,33.0425828 34.3284271,29.8656718 C31.1515162,26.6887608 27.0021568,24.8635227 22.7447506,24.6854387 C21.6411462,24.6392758 20.7090756,25.4965015 20.6629126,26.6001059 C20.6167497,27.7037104 21.4739754,28.635781 22.5775799,28.6819439 C25.831668,28.8180599 29.0315302,30.2256291 31.5,32.6940989 C33.9684698,35.1625688 35.376039,38.3624309 35.512155,41.6165191 C35.558318,42.7201235 36.4903886,43.5773492 37.593993,43.5311863 C38.6975975,43.4850234 39.5548232,42.5529528 39.5086602,41.4493483 Z"/>
  </g>
</svg>
