<svg xmlns="http://www.w3.org/2000/svg" width="64" height="64" viewBox="0 0 64 64">
  <g fill="none" fill-rule="evenodd">
    <rect width="58" height="58" x="3" y="3" fill="#80D25B" rx="3"/>
    <circle cx="12.657" cy="50.657" r="4" fill="#FFF" transform="rotate(45 12.657 50.657)"/>
    <path fill="#FFF" fill-rule="nonzero" d="M35.6922451,53.6660561 C35.7730396,46.9112879 33.2109635,40.4327889 28.3890873,35.6109127 C23.5672111,30.7890365 17.0887121,28.2269604 10.3339439,28.3077549 C9.22945338,28.3209658 8.3447965,29.2270419 8.35800743,30.3315323 C8.37121836,31.4360228 9.27729439,32.3206797 10.3817849,32.3074688 C16.0734092,32.2393907 21.5112237,34.3899034 25.5606602,38.4393398 C29.6100966,42.4887763 31.7606093,47.9265908 31.6925312,53.6182151 C31.6793203,54.7227056 32.5639772,55.6287816 33.6684677,55.6419926 C34.7729581,55.6552035 35.6790342,54.7705466 35.6922451,53.6660561 Z"/>
    <path fill="#FFF" fill-rule="nonzero" d="M27.5086602,52.7552494 C27.3305762,48.4978432 25.5053381,44.3484838 22.3284271,41.1715729 C19.1515162,37.9946619 15.0021568,36.1694238 10.7447506,35.9913398 C9.64114617,35.9451768 8.70907555,36.8024025 8.66291263,37.906007 C8.6167497,39.0096114 9.47397542,39.941682 10.5775799,39.987845 C13.831668,40.123961 17.0315302,41.5315302 19.5,44 C21.9684698,46.4684698 23.376039,49.668332 23.512155,52.9224201 C23.558318,54.0260246 24.4903886,54.8832503 25.593993,54.8370874 C26.6975975,54.7909244 27.5548232,53.8588538 27.5086602,52.7552494 Z"/>
  </g>
</svg>
