<?xml version="1.0" encoding="UTF-8"?>
<svg width="64px" height="64px" viewBox="0 0 64 64" version="1.1" xmlns="http://www.w3.org/2000/svg" xmlns:xlink="http://www.w3.org/1999/xlink">
    <!-- Generator: Sketch 43.2 (39069) - http://www.bohemiancoding.com/sketch -->
    <title>rugbyfield</title>
    <desc>Created with Sketch.</desc>
    <defs></defs>
    <g id="Outdoor-Activities-(142)" stroke="none" stroke-width="1" fill="none" fill-rule="evenodd">
        <rect id="Rectangle-56-Copy" fill="#22BA8E" x="0" y="17" width="64" height="36"></rect>
        <rect id="Rectangle-57-Copy" fill="#80D25B" x="3" y="20" width="58" height="30"></rect>
        <circle id="Oval-31" fill="#FFFFFF" cx="9" cy="35" r="3"></circle>
        <circle id="Oval-31-Copy" fill="#FFFFFF" cx="56" cy="35" r="3"></circle>
        <circle id="Oval-27-Copy" stroke="#FFFFFF" stroke-width="2" stroke-linecap="round" cx="32" cy="35" r="5"></circle>
        <path d="M4,28 L14.7979922,28 C16.4600808,28 17.8074698,29.3423789 17.8074698,31.0033512 L17.8074698,38.9966488 C17.8074698,40.6553538 16.4708388,42 14.7979922,42 L4,42" id="Rectangle-58-Copy-3" stroke="#FFFFFF" stroke-width="2" stroke-linecap="square"></path>
        <path d="M46,28 L56.7979922,28 C58.4600808,28 59.8074698,29.3423789 59.8074698,31.0033512 L59.8074698,38.9966488 C59.8074698,40.6553538 58.4708388,42 56.7979922,42 L46,42" id="Rectangle-58-Copy-4" stroke="#FFFFFF" stroke-width="2" stroke-linecap="square" transform="translate(52.903735, 35.000000) scale(-1, 1) translate(-52.903735, -35.000000) "></path>
        <path d="M32,21 L32,49" id="Line-Copy-21" stroke="#FFFFFF" stroke-width="2" stroke-linecap="square"></path>
    </g>
</svg>