<svg xmlns="http://www.w3.org/2000/svg" width="64" height="64" viewBox="0 0 64 64">
  <g fill="none" fill-rule="evenodd">
    <rect width="64" height="17" y="24" fill="#C13F98"/>
    <rect width="64" height="3" y="21" fill="#E9BEA7"/>
    <path fill="#FFF" d="M4 35.0029293C4 34.4490268 4.44386482 34 5 34L5 34C5.55228475 34 6 34.4378814 6 35.0029293L6 41 4 41 4 35.0029293zM16 35.0029293C16 34.4490268 16.4438648 34 17 34L17 34C17.5522847 34 18 34.4378814 18 35.0029293L18 41 16 41 16 35.0029293zM28 35.0029293C28 34.4490268 28.4438648 34 29 34L29 34C29.5522847 34 30 34.4378814 30 35.0029293L30 41 28 41 28 35.0029293zM10 31.9953976C10 31.4456547 10.4438648 31 11 31L11 31C11.5522847 31 12 31.4556644 12 31.9953976L12 41 10 41 10 31.9953976zM22 31.9953976C22 31.4456547 22.4438648 31 23 31L23 31C23.5522847 31 24 31.4556644 24 31.9953976L24 41 22 41 22 31.9953976zM34 31.9953976C34 31.4456547 34.4438648 31 35 31L35 31C35.5522847 31 36 31.4556644 36 31.9953976L36 41 34 41 34 31.9953976zM40 35.0029293C40 34.4490268 40.4438648 34 41 34L41 34C41.5522847 34 42 34.4378814 42 35.0029293L42 41 40 41 40 35.0029293zM46 31.9953976C46 31.4456547 46.4438648 31 47 31L47 31C47.5522847 31 48 31.4556644 48 31.9953976L48 41 46 41 46 31.9953976zM52 35.0029293C52 34.4490268 52.4438648 34 53 34L53 34C53.5522847 34 54 34.4378814 54 35.0029293L54 41 52 41 52 35.0029293zM58 31.9953976C58 31.4456547 58.4438648 31 59 31L59 31C59.5522847 31 60 31.4556644 60 31.9953976L60 41 58 41 58 31.9953976z"/>
  </g>
</svg>
