<svg xmlns="http://www.w3.org/2000/svg" xmlns:xlink="http://www.w3.org/1999/xlink" width="64" height="64" viewBox="0 0 64 64">
  <defs>
    <path id="running-a" d="M40.8886181,48.2046949 L58.8109964,48.2046949 C58.8109964,48.2046949 63.9684388,41.9925643 61.0962255,38.1483359 C58.2240123,34.3041075 40.7142526,35.5193673 35.9635165,15.1836349 C35.9635165,15.1836349 16.7292358,19.3282776 14.5773204,0 C14.5773204,0 0.582856065,14.7382262 0.582856065,15.150453 L1.26193745,20.9012964 L40.8886181,48.2046949 Z"/>
  </defs>
  <g fill="none" fill-rule="evenodd">
    <path fill="#FFDD95" d="M13.9491967,15.9303707 C13.9491967,15.9303707 18.1839472,14.6172759 19.9697977,13.2962975 C21.7556482,11.9753191 30.8893717,2 30.8893717,2 L64,2 C64,2 54.5564359,8.88053273 46.9794395,14.1991477 C42.658133,17.2324559 37.1523495,21.6258885 35.862938,23.6711073 C34.5735264,25.716326 34.1879743,30.2020321 34.1879743,30.2020321 L18.3466363,30.9465727 L14.897285,21.1703723"/>
    <g transform="translate(0 13.711)">
      <mask id="running-b" fill="#fff">
        <use xlink:href="#running-a"/>
      </mask>
      <use fill="#D650C7" xlink:href="#running-a"/>
      <polyline stroke="#595959" stroke-linecap="round" stroke-width="2" points="-2 7.24 4.729 18.721 42.285 45.011 62 45.011" mask="url(#running-b)"/>
    </g>
    <path stroke="#979797" stroke-linecap="round" stroke-width="2" d="M41.4595828 37.7109658L35 39.3686993M43.4595828 41.7109658L37 43.3686993M46.4595828 45.7109658L40 47.3686993"/>
  </g>
</svg>
