<svg xmlns="http://www.w3.org/2000/svg" width="64" height="64" viewBox="0 0 64 64">
  <g fill="none" fill-rule="evenodd">
    <circle cx="32" cy="32" r="29" fill="#595959"/>
    <circle cx="32" cy="32" r="19" fill="#ED9111"/>
    <circle cx="32" cy="20" r="2" fill="#FFF"/>
    <circle cx="32" cy="43" r="2" fill="#FFF"/>
    <circle cx="44" cy="32" r="2" fill="#FFF"/>
    <circle cx="20" cy="32" r="2" fill="#FFF"/>
    <circle cx="32" cy="32" r="6" fill="#FFF"/>
    <path stroke="#FFF" stroke-linecap="square" stroke-width="2" d="M32,26 L32,22 M38,32 L42,32 M32,38 L32,42 M26,32 L22,32"/>
    <path stroke="#ED9111" stroke-linecap="square" stroke-width="2" d="M32,14 L32,7 M38.8601348,15.358357 L41.5952527,8.91482306 M44.7279221,19.2720779 L49.6776695,14.3223305 M48.6182665,25.0834293 L55.1085534,22.4611831 M50,32 L57,32 M48.641643,38.8601348 L55.0851769,41.5952527 M44.7279221,44.7279221 L49.6776695,49.6776695 M38.9165707,48.6182665 L41.5388169,55.1085534 M32,50 L32,57 M25.1398652,48.641643 L22.4047473,55.0851769 M19.2720779,44.7279221 L14.3223305,49.6776695 M15.358357,38.8601348 L8.91482306,41.5952527 M14,32 L7,32 M15.358357,25.1398652 L8.91482306,22.4047473 M19.2720779,19.2720779 L14.3223305,14.3223305 M25.0834293,15.3817335 L22.4611831,8.89144656"/>
  </g>
</svg>
