<svg xmlns="http://www.w3.org/2000/svg" width="64" height="64" viewBox="0 0 64 64">
  <g fill="none" fill-rule="evenodd">
    <path fill="#ED9111" d="M24,5 C17.372583,5 13,12.6111593 13,22 C13,31.3888407 17.372583,61 24,61 C27.8661992,61 28.3053608,36.4098157 33.5,36.3875505 C39.6946392,36.4098157 39.1338008,61 43,61 C49.627417,61 54,31.3888407 54,22 C54,12.6111593 49.627417,5 43,5 C39.8333333,5 36.6666667,8 33.5,8 C30.3333333,8 27.1666667,5 24,5 Z"/>
    <path stroke="#9C4D4D" stroke-linecap="round" stroke-width="2" d="M27,26 C28.4573878,27.9679821 30.796318,29.2437576 33.4332215,29.2437576 C36.070125,29.2437576 38.4090551,27.9679821 39.8664429,26" transform="rotate(-180 33.433 27.622)"/>
    <path stroke="#9C4D4D" stroke-linecap="round" stroke-width="2" d="M29 18C29 15.790861 27.209139 14 25 14 22.790861 14 21 15.790861 21 18M46 18C46 15.790861 44.209139 14 42 14 39.790861 14 38 15.790861 38 18"/>
  </g>
</svg>
