<svg xmlns="http://www.w3.org/2000/svg" width="64" height="64" viewBox="0 0 64 64">
  <g fill="none" fill-rule="evenodd">
    <path fill="#80D25B" d="M5,7 L57,7 L57,55.0059907 C57,57.2118211 55.2100423,59 53.0059907,59 L8.99400932,59 C6.78817888,59 5,57.2100423 5,55.0059907 L5,7 Z"/>
    <rect width="52" height="14" x="5" y="7" fill="#BD7575"/>
    <rect width="5" height="11" x="14" y="3" fill="#B4DFFB" rx="2"/>
    <rect width="5" height="11" x="29" y="3" fill="#B4DFFB" rx="2"/>
    <rect width="5" height="11" x="44" y="3" fill="#B4DFFB" rx="2"/>
    <path fill="#5B68C0" d="M18.63,41.124 C18.63,41.7773366 18.396669,42.3349977 17.93,42.797 C17.463331,43.2590023 16.9126698,43.49 16.278,43.49 C15.8766647,43.49 15.4613355,43.2986686 15.032,42.916 C14.6959983,42.6079985 14.392668,42.2300022 14.122,41.782 C13.8886655,41.389998 13.7859999,41.1426672 13.814,41.04 C13.9166672,40.8066655 14.238664,40.69 14.78,40.69 C15.0040011,40.69 15.1813327,40.7226663 15.312,40.788 C15.5360011,40.9093339 15.6619999,41.0633324 15.69,41.25 C15.7180001,41.4646677 15.7646663,41.5999997 15.83,41.656 C16.026001,41.9546682 16.2033325,42.104 16.362,42.104 C16.4833339,42.104 16.5976661,42.0223342 16.705,41.859 C16.8123339,41.6956658 16.866,41.5020011 16.866,41.278 C16.866,41.1379993 16.8426669,40.9980007 16.796,40.858 C16.7493331,40.7179993 16.4973356,40.5033348 16.04,40.214 C15.4893306,39.8686649 15.0973345,39.5653346 14.864,39.304 C14.4626647,38.8559978 14.262,38.3333363 14.262,37.736 C14.262,37.0359965 14.4673313,36.422336 14.878,35.895 C15.2886687,35.367664 15.8113302,35.104 16.446,35.104 C17.0993366,35.104 17.5986649,35.3513309 17.944,35.846 C18.2240014,36.2473353 18.3406669,36.6533313 18.294,37.064 C18.3966672,37.1760006 18.448,37.3626654 18.448,37.624 C18.448,37.9040014 18.3453344,38.141999 18.14,38.338 C17.9346656,38.534001 17.7246677,38.632 17.51,38.632 C17.1926651,38.632 16.9173345,38.4220021 16.684,38.002 C16.6186663,37.8899994 16.586,37.7406676 16.586,37.554 C16.586,37.4699996 16.5929999,37.3510008 16.607,37.197 C16.6210001,37.0429992 16.628,36.9333337 16.628,36.868 C16.628,36.6253321 16.5393342,36.504 16.362,36.504 C16.091332,36.504 15.956,36.7699973 15.956,37.302 C15.956,37.843336 16.1333316,38.2773317 16.488,38.604 C16.6280007,38.7346673 16.931331,38.9213321 17.398,39.164 C17.7993353,39.3693344 18.0839992,39.5793323 18.252,39.794 C18.5040013,40.1206683 18.63,40.5639972 18.63,41.124 Z M25.938,42.412 C25.7979993,42.8693356 25.4526694,43.098 24.902,43.098 C24.7153324,43.098 24.5660006,43.0653337 24.454,43 C24.3046659,42.8973328 24.2020003,42.6920015 24.146,42.384 C24.0339994,41.8519973 23.9220006,41.4366682 23.81,41.138 C23.7819999,41.6513359 23.5020027,42.171664 22.97,42.699 C22.4379973,43.226336 21.901336,43.49 21.36,43.49 C20.6786633,43.49 20.2073346,43.0373379 19.946,42.132 C19.8526662,41.7959983 19.806,41.4786682 19.806,41.18 C19.806,40.3119957 20.2493289,39.5700031 21.136,38.954 C21.8640036,38.5246645 22.596663,38.1000021 23.334,37.68 C23.3713335,37.5213325 23.39,37.3673341 23.39,37.218 C23.39,36.9286652 23.3106675,36.7583336 23.152,36.707 C22.9933325,36.6556664 22.8580006,36.63 22.746,36.63 C22.549999,36.63 22.3890006,36.6929994 22.263,36.819 L21.906,37.176 C21.7939994,37.250667 21.6493342,37.423332 21.472,37.694 C21.3319993,37.9086677 21.1780008,38.0253332 21.01,38.044 C20.7673321,38.0720001 20.548001,37.988001 20.352,37.792 C20.155999,37.595999 20.058,37.3673346 20.058,37.106 C20.058,36.9566659 20.095333,36.8213339 20.17,36.7 C20.3846677,36.3453316 20.7066645,36.0373346 21.136,35.776 C21.7893366,35.383998 22.6059951,35.188 23.586,35.188 C24.2113365,35.188 24.6406655,35.4866637 24.874,36.084 C25.0233341,36.4853353 25.135333,37.2366612 25.21,38.338 C25.2940004,39.6726733 25.3966661,40.6479969 25.518,41.264 C25.5366668,41.3853339 25.6159993,41.5393324 25.756,41.726 C25.8960007,41.9126676 25.966,42.0759993 25.966,42.216 C25.966,42.2813337 25.9566668,42.3466663 25.938,42.412 Z M23.502,38.968 C23.2219986,39.1173341 22.9443347,39.2713325 22.669,39.43 C22.3936653,39.5886675 22.1393345,39.7986654 21.906,40.06 C21.5699983,40.4426686 21.402,40.769332 21.402,41.04 C21.402,41.2640011 21.4859992,41.4973321 21.654,41.74 C21.7473338,41.8706673 21.8499994,41.936 21.962,41.936 C22.2046679,41.936 22.4683319,41.665336 22.753,41.124 C23.0376681,40.582664 23.2873323,39.8640045 23.502,38.968 Z M29.228,43.07 C29.0413324,43.4246684 28.6960025,43.602 28.192,43.602 C27.725331,43.602 27.3986676,43.4433349 27.212,43.126 C27.1559997,43.0326662 27.128,42.9300006 27.128,42.818 C27.128,42.7246662 27.1606663,42.5706677 27.226,42.356 C27.2913337,42.1413323 27.324,41.9640007 27.324,41.824 L27.268,32.78 L27.268,32.024 C27.2960001,31.9026661 27.4266655,31.8023337 27.66,31.723 C27.8933345,31.6436663 28.1406654,31.604 28.402,31.604 C28.7846686,31.604 29.0273328,31.6739993 29.13,31.814 C29.2326672,31.9540007 29.284,32.0986659 29.284,32.248 C29.284,32.3506672 29.246667,32.5209988 29.172,32.759 C29.097333,32.9970012 29.06,33.1906659 29.06,33.34 L29.06,41.74 C29.06,41.8800007 29.0996663,42.0643322 29.179,42.293 C29.2583337,42.5216678 29.298,42.6873328 29.298,42.79 C29.298,42.8926672 29.2746669,42.9859996 29.228,43.07 Z M36.48,42.412 C36.3399993,42.8693356 35.9946694,43.098 35.444,43.098 C35.2573324,43.098 35.1080006,43.0653337 34.996,43 C34.8466659,42.8973328 34.7440003,42.6920015 34.688,42.384 C34.5759994,41.8519973 34.4640006,41.4366682 34.352,41.138 C34.3239999,41.6513359 34.0440027,42.171664 33.512,42.699 C32.9799973,43.226336 32.443336,43.49 31.902,43.49 C31.2206633,43.49 30.7493346,43.0373379 30.488,42.132 C30.3946662,41.7959983 30.348,41.4786682 30.348,41.18 C30.348,40.3119957 30.7913289,39.5700031 31.678,38.954 C32.4060036,38.5246645 33.138663,38.1000021 33.876,37.68 C33.9133335,37.5213325 33.932,37.3673341 33.932,37.218 C33.932,36.9286652 33.8526675,36.7583336 33.694,36.707 C33.5353325,36.6556664 33.4000006,36.63 33.288,36.63 C33.091999,36.63 32.9310006,36.6929994 32.805,36.819 L32.448,37.176 C32.3359994,37.250667 32.1913342,37.423332 32.014,37.694 C31.8739993,37.9086677 31.7200008,38.0253332 31.552,38.044 C31.3093321,38.0720001 31.090001,37.988001 30.894,37.792 C30.697999,37.595999 30.6,37.3673346 30.6,37.106 C30.6,36.9566659 30.637333,36.8213339 30.712,36.7 C30.9266677,36.3453316 31.2486645,36.0373346 31.678,35.776 C32.3313366,35.383998 33.1479951,35.188 34.128,35.188 C34.7533365,35.188 35.1826655,35.4866637 35.416,36.084 C35.5653341,36.4853353 35.677333,37.2366612 35.752,38.338 C35.8360004,39.6726733 35.9386661,40.6479969 36.06,41.264 C36.0786668,41.3853339 36.1579993,41.5393324 36.298,41.726 C36.4380007,41.9126676 36.508,42.0759993 36.508,42.216 C36.508,42.2813337 36.4986668,42.3466663 36.48,42.412 Z M34.044,38.968 C33.7639986,39.1173341 33.4863347,39.2713325 33.211,39.43 C32.9356653,39.5886675 32.6813345,39.7986654 32.448,40.06 C32.1119983,40.4426686 31.944,40.769332 31.944,41.04 C31.944,41.2640011 32.0279992,41.4973321 32.196,41.74 C32.2893338,41.8706673 32.3919994,41.936 32.504,41.936 C32.7466679,41.936 33.0103319,41.665336 33.295,41.124 C33.5796681,40.582664 33.8293323,39.8640045 34.044,38.968 Z M42.962,35.86 C42.9246665,36.056001 42.7473349,36.191333 42.43,36.266 C42.0566648,36.3593338 41.8186672,36.4666661 41.716,36.588 L39.434,39.22 L39.434,41.348 C39.434,41.5533344 39.4923328,41.760999 39.609,41.971 C39.7256673,42.181001 39.784,42.3419994 39.784,42.454 C39.784,42.5660006 39.7513337,42.6919993 39.686,42.832 C39.5273325,43.1866684 39.2053358,43.364 38.72,43.364 C38.3839983,43.364 38.118001,43.2566677 37.922,43.042 C37.7913327,42.9019993 37.726,42.7246677 37.726,42.51 C37.726,42.435333 37.7353332,42.3140008 37.754,42.146 C37.7726668,41.9779992 37.782,41.8426672 37.782,41.74 L37.782,36.504 C37.782,36.4199996 37.744667,36.3173339 37.67,36.196 C37.595333,36.0746661 37.558,35.976667 37.558,35.902 C37.558,35.8459997 37.5766665,35.780667 37.614,35.706 C37.7353339,35.4819989 38.1133302,35.37 38.748,35.37 C39.2426691,35.37 39.5226663,35.4866655 39.588,35.72 C39.6160001,35.8133338 39.63,35.8926663 39.63,35.958 C39.63,36.0606672 39.592667,36.1399997 39.518,36.196 C39.443333,36.2520003 39.406,36.3079997 39.406,36.364 L39.434,36.868 L40.638,35.594 C40.7780007,35.4353325 40.9249992,35.2766675 41.079,35.118 C41.2330008,34.9593325 41.4126656,34.8706668 41.618,34.852 C41.9353349,34.8239999 42.2409985,34.8939992 42.535,35.062 C42.8290015,35.2300008 42.976,35.449332 42.976,35.72 C42.976,35.7666669 42.9713334,35.8133331 42.962,35.86 Z M50.298,36.028 C50.3260001,36.2146676 50.2793339,36.4153323 50.158,36.63 C49.9433323,36.9846684 49.8313334,37.1759999 49.822,37.204 C49.429998,38.137338 48.8233374,39.6399896 48.002,41.712 C47.6286648,42.7013383 47.3953338,43.5926627 47.302,44.386 C47.2833332,44.460667 47.2786666,44.6239987 47.288,44.876 C47.2973334,45.0813344 47.264667,45.2353328 47.19,45.338 C47.0406659,45.534001 46.8166682,45.632 46.518,45.632 C45.9859973,45.632 45.6406675,45.4313353 45.482,45.03 C45.4446665,44.9273328 45.426,44.838667 45.426,44.764 C45.426,44.6706662 45.463333,44.5656672 45.538,44.449 C45.612667,44.3323328 45.6593332,44.236667 45.678,44.162 L46.014,42.412 L43.998,36.616 C43.9699999,36.541333 43.8953339,36.3873345 43.774,36.154 C43.6899996,35.9859992 43.648,35.8413339 43.648,35.72 C43.648,35.6546663 43.6573332,35.5893337 43.676,35.524 C43.7693338,35.1879983 44.086664,35.02 44.628,35.02 C44.9640017,35.02 45.229999,35.0759994 45.426,35.188 C45.6593345,35.3280007 45.7946665,35.5753316 45.832,35.93 C45.8786669,36.5086696 45.9113332,36.8306663 45.93,36.896 L46.854,39.808 L48.282,36.196 C48.2913334,36.1679999 48.333333,35.9626686 48.408,35.58 C48.4546669,35.3466655 48.5526659,35.1880004 48.702,35.104 C48.7953338,35.0479997 48.9026661,35.02 49.024,35.02 C49.294668,35.02 49.565332,35.1203323 49.836,35.321 C50.106668,35.5216677 50.2606665,35.757332 50.298,36.028 Z"/>
  </g>
</svg>
