<svg xmlns="http://www.w3.org/2000/svg" width="64" height="64" viewBox="0 0 64 64">
  <g fill="none" fill-rule="evenodd">
    <rect width="22" height="11" x="4" y="13" fill="#D650C7" rx="2"/>
    <rect width="16" height="6" x="7" y="7" fill="#D8D8D8"/>
    <path stroke="#979797" stroke-linecap="square" stroke-width="2" d="M11,8 L11,10"/>
    <path stroke="#FCC24C" stroke-linecap="square" stroke-width="2" d="M8 17L22 17M8 20L22 20"/>
    <path fill="#979797" d="M30,24 L44,24 L44,48.1246363 C44,50.3335862 45.3765526,53.257163 47.0902982,54.6675337 L56,62 L43.0094776,62 C41.347389,62 39.041158,61.0453876 37.8792572,59.8886123 L32.83885,54.8704396 C31.2709964,53.3095022 30,50.2471657 30,48.0409768 L30,24 Z" transform="matrix(-1 0 0 1 86 0)"/>
    <rect width="22" height="11" x="38" y="23" fill="#D650C7" rx="2"/>
    <rect width="16" height="6" x="41" y="17" fill="#D8D8D8"/>
    <path stroke="#979797" stroke-linecap="square" stroke-width="2" d="M45,18 L45,20"/>
    <path stroke="#FCC24C" stroke-linecap="square" stroke-width="2" d="M42 27L56 27M42 30L56 30"/>
    <path fill="#595959" d="M8,24 L22,24 L22,48.1246363 C22,50.3335862 23.3765526,53.257163 25.0902982,54.6675337 L34,62 L21.0094776,62 C19.347389,62 17.041158,61.0453876 15.8792572,59.8886123 L10.83885,54.8704396 C9.27099645,53.3095022 8,50.2471657 8,48.0409768 L8,24 Z"/>
    <path stroke="#979797" stroke-linecap="round" stroke-width="2" d="M17,30 L17,48.1025998 C17,49.7601476 17.9629791,52.0471188 19.1476386,53.2075239 L26.160109,60.0764229"/>
    <path stroke="#979797" stroke-linecap="round" stroke-width="2" d="M12,30 L12,48.1025998 C12,49.7601476 12.9221787,52.0928579 14.0458009,53.2979009 L19.9041755,59.5807897"/>
    <path stroke="#595959" stroke-linecap="round" stroke-width="2" d="M47.3165138 41L47.3165138 49.1463714C47.3165138 50.339693 46.6980627 52.051695 45.9388739 52.9657686L43 56.504213M51.3165138 41L51.3165138 49.1463714C51.3165138 50.339693 50.6980627 52.051695 49.9388739 52.9657686L47 56.504213"/>
  </g>
</svg>
