<svg xmlns="http://www.w3.org/2000/svg" width="64" height="64" viewBox="0 0 64 64">
  <g fill="none" fill-rule="evenodd">
    <polygon fill="#FFAF40" points="9 5 16 5 16 56.435 9 56.435"/>
    <path fill="#80D25B" d="M16,5 L48.0000796,5 C49.1046051,5 50,5.894703 50,7.00020325 L50,57.8324082 C50,58.93709 49.1080589,59.8326115 48.0000796,59.8326115 L16,59.8326115 L16,5 Z"/>
    <path fill="#5B68C0" fill-rule="nonzero" d="M33,44 C29.9041734,44 28,37.3353931 28,29 C28,20.6646069 29.9041734,14 33,14 C36.0958266,14 38,20.6646069 38,29 C38,37.3353931 36.0958266,44 33,44 Z M33,42 C33.4455488,42 34.2375345,40.827564 34.8669032,38.6247738 C35.5847273,36.1123895 36,32.676037 36,29 C36,25.323963 35.5847273,21.8876105 34.8669032,19.3752262 C34.2375345,17.172436 33.4455488,16 33,16 C32.5544512,16 31.7624655,17.172436 31.1330968,19.3752262 C30.4152727,21.8876105 30,25.323963 30,29 C30,32.676037 30.4152727,36.1123895 31.1330968,38.6247738 C31.7624655,40.827564 32.5544512,42 33,42 Z"/>
    <path fill="#5B68C0" fill-rule="nonzero" d="M48,29 C48,32.0958266 41.3353931,34 33,34 C24.6646069,34 18,32.0958266 18,29 C18,25.9041734 24.6646069,24 33,24 C41.3353931,24 48,25.9041734 48,29 Z M46,29 C46,28.5544512 44.827564,27.7624655 42.6247738,27.1330968 C40.1123895,26.4152727 36.676037,26 33,26 C29.323963,26 25.8876105,26.4152727 23.3752262,27.1330968 C21.172436,27.7624655 20,28.5544512 20,29 C20,29.4455488 21.172436,30.2375345 23.3752262,30.8669032 C25.8876105,31.5847273 29.323963,32 33,32 C36.676037,32 40.1123895,31.5847273 42.6247738,30.8669032 C44.827564,30.2375345 46,29.4455488 46,29 Z"/>
    <path fill="#5B68C0" fill-rule="nonzero" d="M43.6066017,18.3933983 C45.7956817,20.5824783 42.4295469,26.6415209 36.5355339,32.5355339 C30.6415209,38.4295469 24.5824783,41.7956817 22.3933983,39.6066017 C20.2043183,37.4175217 23.5704531,31.3584791 29.4644661,25.4644661 C35.3584791,19.5704531 41.4175217,16.2043183 43.6066017,18.3933983 Z M42.1923882,19.8076118 C41.8773376,19.4925612 40.4882817,19.7615802 38.4856429,20.8741573 C36.2015406,22.143103 33.4780303,24.279329 30.8786797,26.8786797 C28.279329,29.4780303 26.143103,32.2015406 24.8741573,34.4856429 C23.7615802,36.4882817 23.4925612,37.8773376 23.8076118,38.1923882 C24.1226624,38.5074388 25.5117183,38.2384198 27.5143571,37.1258427 C29.7984594,35.856897 32.5219697,33.720671 35.1213203,31.1213203 C37.720671,28.5219697 39.856897,25.7984594 41.1258427,23.5143571 C42.2384198,21.5117183 42.5074388,20.1226624 42.1923882,19.8076118 Z"/>
    <path fill="#5B68C0" fill-rule="nonzero" d="M36.5355339,25.4644661 C42.4295469,31.3584791 45.7956817,37.4175217 43.6066017,39.6066017 C41.4175217,41.7956817 35.3584791,38.4295469 29.4644661,32.5355339 C23.5704531,26.6415209 20.2043183,20.5824783 22.3933983,18.3933983 C24.5824783,16.2043183 30.6415209,19.5704531 36.5355339,25.4644661 Z M23.8076118,19.8076118 C23.4925612,20.1226624 23.7615802,21.5117183 24.8741573,23.5143571 C26.143103,25.7984594 28.279329,28.5219697 30.8786797,31.1213203 C33.4780303,33.720671 36.2015406,35.856897 38.4856429,37.1258427 C40.4882817,38.2384198 41.8773376,38.5074388 42.1923882,38.1923882 C42.5074388,37.8773376 42.2384198,36.4882817 41.1258427,34.4856429 C39.856897,32.2015406 37.720671,29.4780303 35.1213203,26.8786797 C32.5219697,24.279329 29.7984594,22.143103 27.5143571,20.8741573 C25.5117183,19.7615802 24.1226624,19.4925612 23.8076118,19.8076118 Z"/>
    <path fill="#ECECEC" d="M9,56.5 C9,54.5670034 10.5571833,53 12.4956369,53 L50,53 L50,60 L12.4956369,60 C10.56505,60 9,58.4290634 9,56.5 L9,56.5 Z"/>
  </g>
</svg>
