<svg xmlns="http://www.w3.org/2000/svg" width="64" height="64" viewBox="0 0 64 64">
  <g fill="none" fill-rule="evenodd">
    <path fill="#D8D8D8" d="M33.8492424,17.8492424 L37.8492424,17.8492424 C40.0583814,17.8492424 41.8492424,19.6412743 41.8492424,21.8494548 L41.8492424,51.8492424 L33.8492424,51.8492424 L33.8492424,17.8492424 Z" transform="rotate(45 37.85 34.85)"/>
    <path fill="#979797" d="M21.8492424,17.8492424 L25.8492424,17.8492424 C28.0583814,17.8492424 29.8492424,19.6412743 29.8492424,21.8494548 L29.8492424,51.8492424 L21.8492424,51.8492424 L21.8492424,17.8492424 Z" transform="scale(-1 1) rotate(45 0 -27.556)"/>
    <circle cx="31.5" cy="40.5" r="1.5" fill="#D8D8D8"/>
    <circle cx="22" cy="52" r="7" stroke="#E43535" stroke-linecap="round" stroke-width="4"/>
    <circle cx="42" cy="52" r="7" stroke="#E43535" stroke-linecap="round" stroke-width="4"/>
    <path fill="#80D25B" d="M47.5044647,20.529591 C50.2658885,20.529591 52.5044647,18.1876959 52.5044647,15.2988218 C52.5044647,12.4099477 47.5044647,3.52959101 47.5044647,3.52959101 C47.5044647,3.52959101 42.5044647,12.4099477 42.5044647,15.2988218 C42.5044647,18.1876959 44.743041,20.529591 47.5044647,20.529591 Z" transform="rotate(75 47.504 12.03)"/>
    <path fill="#80D25B" d="M17.5044647,20.529591 C20.2658885,20.529591 22.5044647,18.1876959 22.5044647,15.2988218 C22.5044647,12.4099477 17.5044647,3.52959101 17.5044647,3.52959101 C17.5044647,3.52959101 12.5044647,12.4099477 12.5044647,15.2988218 C12.5044647,18.1876959 14.743041,20.529591 17.5044647,20.529591 Z" transform="scale(-1 1) rotate(75 0 -10.783)"/>
    <path stroke="#22BA8E" stroke-linecap="round" stroke-width="2" d="M44,13 C37.372583,13 32,18.372583 32,25"/>
    <path stroke="#22BA8E" stroke-linecap="round" stroke-width="2" d="M32,13 C25.372583,13 20,18.372583 20,25" transform="matrix(-1 0 0 1 52 0)"/>
  </g>
</svg>
