<svg xmlns="http://www.w3.org/2000/svg" width="64" height="64" viewBox="0 0 64 64">
  <g fill="none" fill-rule="evenodd">
    <path fill="#D8D8D8" d="M35.8492424,17.8492424 L39.8492424,17.8492424 C42.0583814,17.8492424 43.8492424,19.6412743 43.8492424,21.8494548 L43.8492424,51.8492424 L35.8492424,51.8492424 L35.8492424,17.8492424 Z" transform="rotate(45 39.85 34.85)"/>
    <path fill="#979797" d="M20.8492424,10.6066017 L24.8492424,10.6066017 C27.0583814,10.6066017 28.8492424,12.4050049 28.8492424,14.6035138 L28.8492424,53.0918831 L20.8492424,53.0918831 L20.8492424,10.6066017 Z" transform="scale(-1 1) rotate(45 0 -28.142)"/>
    <circle cx="33.5" cy="40.5" r="1.5" fill="#D8D8D8"/>
    <circle cx="24" cy="52" r="7" stroke="#E43535" stroke-linecap="round" stroke-width="4"/>
    <circle cx="44" cy="52" r="7" stroke="#E43535" stroke-linecap="round" stroke-width="4"/>
    <path fill="#FFAF40" d="M34.8933209,20.4696466 C34.3999534,20.2102679 33.6005679,20.2099939 33.1066791,20.4696466 L27.8398979,23.2385573 C27.3465304,23.497936 27.0228617,23.2634298 27.1171861,22.7134765 L28.1230518,16.8488294 C28.2172766,16.2994566 27.9705136,15.5391112 27.5709491,15.1496321 L23.3100336,10.996266 C22.9108909,10.607198 23.0339005,10.2269044 23.5860849,10.1466673 L29.4745254,9.29102681 C30.026127,9.2108744 30.6730045,8.74122913 30.9199489,8.24086511 L33.5533395,2.90503292 C33.8000233,2.40519704 34.199716,2.40466891 34.4466605,2.90503292 L37.0800511,8.24086511 C37.3267348,8.74070099 37.9732902,9.21078971 38.5254746,9.29102681 L44.4139151,10.1466673 C44.9655167,10.2268197 45.0895308,10.6067869 44.6899664,10.996266 L40.4290509,15.1496321 C40.0299082,15.5387001 39.7826238,16.2988761 39.8769482,16.8488294 L40.8828139,22.7134765 C40.9770387,23.2628493 40.6539909,23.4982101 40.1601021,23.2385573 L34.8933209,20.4696466 Z"/>
  </g>
</svg>
