<svg xmlns="http://www.w3.org/2000/svg" width="64" height="64" viewBox="0 0 64 64">
  <g fill="none" fill-rule="evenodd">
    <path fill="#5B68C0" d="M11,7.99306965 C11,6.89232768 11.8936875,6 12.9926161,6 L45.7411759,6 L53,12.9939998 L53,60.0029039 C53,61.1058696 52.1033397,62 51.0025078,62 L12.9974922,62 C11.8943077,62 11,61.0976918 11,60.0069304 L11,7.99306965 Z"/>
    <path fill="#5EA7FF" d="M17,58.5 C17,56.5670034 18.5706913,55 20.5000946,55 L43.4999054,55 C45.4329543,55 47,56.5709366 47,58.5 L47,62 L17,62 L17,58.5 Z"/>
    <rect width="34" height="17" x="15" y="13" fill="#FFDD95" rx="2"/>
    <path stroke="#ED9111" stroke-linecap="round" stroke-linejoin="round" stroke-width="2" d="M22 16L22 27M18 16L18 27M26 16L26 27M30 16L30 27M34 16L34 27M38 16L38 27M42 16L42 27M46 16L46 27"/>
  </g>
</svg>
