<svg xmlns="http://www.w3.org/2000/svg" width="64" height="64" viewBox="0 0 64 64">
  <g fill="none" fill-rule="evenodd">
    <path fill="#FFDD95" d="M33,3 C25.5902769,3 8,14.1928813 8,28 C14.8389575,28 17.7141483,27.4812429 20.6029908,29.537632 C23.4918333,31.5940211 22.6874621,35.2309737 26.2797812,37.8876568 C28.7968636,39.7491535 30.3925133,38.0295748 33,37.0485002 L33,3 Z"/>
    <circle cx="26" cy="12" r="2" fill="#0A3586"/>
    <path fill="#ED9111" d="M58,3 C50.5902769,3 33,14.1928813 33,28 C39.8389575,28 42.7141483,27.4812429 45.6029908,29.537632 C48.4918333,31.5940211 47.6874621,35.2309737 51.2797812,37.8876568 C53.7968636,39.7491535 55.3925133,38.0295748 58,37.0485002 L58,3 Z" transform="matrix(-1 0 0 1 91 0)"/>
    <circle cx="40" cy="12" r="2" fill="#0A3586"/>
    <path stroke="#FFAF40" stroke-linecap="round" stroke-width="2" d="M32.9539087,3.29217805 L32.9539087,58.2098039 C32.9539087,59.3099978 33.8558353,60.2018812 34.9465778,60.2018812 L40.9265037,60.2018812 C42.0270245,60.2018812 42.9191729,59.3159821 42.9191729,58.2013195 L42.9191729,46.1502762 C42.9191729,45.0453964 43.8078849,44.1497144 44.9111057,44.1497144 L53.8569596,44.1497144 C54.9570737,44.1497144 55.8488924,45.035438 55.8488924,46.1456013 L55.8488924,50.1449612 C55.8488924,51.2472591 54.9488061,52.1408481 53.8574811,52.1408481 L50.9553588,52.1408481 C49.8555327,52.1408481 48.9639475,51.2355021 48.9639475,50.1393422 L48.9639475,48.1813646"/>
  </g>
</svg>
