<svg xmlns="http://www.w3.org/2000/svg" width="64" height="64" viewBox="0 0 64 64">
  <g fill="none" fill-rule="evenodd">
    <path fill="#D650C7" fill-rule="nonzero" d="M31 33L31 59C31 60.1045695 31.8954305 61 33 61 34.1045695 61 35 60.1045695 35 59L35 33C35 31.8954305 34.1045695 31 33 31 31.8954305 31 31 31.8954305 31 33zM24.2936993 35.3313468C24.3037966 35.3759275 24.3249676 35.478378 24.3536444 35.6333644 24.403325 35.9018678 24.4534562 36.2124876 24.500501 36.5598409 24.8351888 39.0309953 24.82361 41.6792549 24.2421501 44.1205501 23.2068322 48.467396 20.577506 51.300002 15.7362412 52.1647598 14.9207219 52.3104298 14.3777017 53.0896276 14.5233716 53.905147 14.6690416 54.7206663 15.4482394 55.2636865 16.2637588 55.1180166 22.3638158 54.0284103 25.8644861 50.2570944 27.1605151 44.815637 27.8403312 41.9613875 27.8534386 38.9635079 27.4733587 36.1572035 27.3807746 35.4736122 27.2864729 34.9639504 27.2195902 34.6686532 27.0365924 33.8606908 26.2332605 33.3540568 25.425298 33.5370546 24.6173356 33.7200523 24.1107016 34.5233843 24.2936993 35.3313468zM39.2551281 34.6686532C39.1882454 34.9639504 39.0939437 35.4736122 39.0013596 36.1572035 38.6212798 38.9635079 38.6343872 41.9613875 39.3142032 44.815637 40.6102322 50.2570944 44.1109025 54.0284103 50.2109596 55.1180166 51.0264789 55.2636865 51.8056767 54.7206663 51.9513467 53.905147 52.0970166 53.0896276 51.5539964 52.3104298 50.7384771 52.1647598 45.8972123 51.300002 43.2678861 48.467396 42.2325682 44.1205501 41.6511083 41.6792549 41.6395295 39.0309953 41.9742173 36.5598409 42.0212621 36.2124876 42.0713933 35.9018678 42.1210739 35.6333644 42.1497508 35.478378 42.1709217 35.3759275 42.181019 35.3313468 42.3640167 34.5233843 41.8573828 33.7200523 41.0494203 33.5370546 40.2414579 33.3540568 39.4381259 33.8606908 39.2551281 34.6686532z"/>
    <circle cx="42" cy="48" r="3" fill="#FF78C7"/>
    <circle cx="24" cy="48" r="3" fill="#FF78C7"/>
    <circle cx="33" cy="51" r="4" fill="#FF78C7"/>
    <path fill="#FF78C7" d="M34,35.3026977 C48.3594035,35.3026977 60,44.3594035 60,30 C60,15.6405965 48.3594035,4 34,4 C19.6405965,4 8,15.6405965 8,30 C8,44.3594035 19.6405965,35.3026977 34,35.3026977 Z"/>
  </g>
</svg>
