<svg xmlns="http://www.w3.org/2000/svg" width="64" height="64" viewBox="0 0 64 64">
  <g fill="none" fill-rule="evenodd">
    <path fill="#D8D8D8" d="M24,9.54400273 C24,9.54400273 29.3000057,7 34.6000114,7 C39.9000171,7 45.2000227,9.54400273 45.2000227,9.54400273 L45.2000227,40.9200364 C45.2000227,40.9200364 39.9000171,38.3760337 34.6000114,38.3760337 C29.3000057,38.3760337 24,40.9200364 24,40.9200364 L24,9.54400273 Z"/>
    <path fill="#ECECEC" d="M3,9.54400273 C3,9.54400273 8.30000568,7 13.6000114,7 C18.9000171,7 24.001028,9.54400273 24.001028,9.54400273 L24.001028,40.9200364 C24.001028,40.9200364 18.9000171,38.3760337 13.6000114,38.3760337 C8.30000568,38.3760337 3,40.9200364 3,40.9200364 L3,9.54400273 Z"/>
    <path fill="#B6B6B6" fill-rule="nonzero" d="M6.51270029 14.7351954C6.58680384 14.6909439 6.75037346 14.6020763 6.99554693 14.4831713 7.41626029 14.2791326 7.90338226 14.0737512 8.44893505 13.881424 12.214662 12.5538684 16.3087534 12.5610754 20.2945164 14.7846289L21.268895 13.0380362C16.7206513 10.5006892 12.0466333 10.4924614 7.78397388 11.9952038 6.71858124 12.3707934 5.93406918 12.7512683 5.48729971 13.0180601L6.51270029 14.7351954zM6.51270029 19.7351954C6.58680384 19.6909439 6.75037346 19.6020763 6.99554693 19.4831713 7.41626029 19.2791326 7.90338226 19.0737512 8.44893505 18.881424 12.214662 17.5538684 16.3087534 17.5610754 20.2945164 19.7846289L21.268895 18.0380362C16.7206513 15.5006892 12.0466333 15.4924614 7.78397388 16.9952038 6.71858124 17.3707934 5.93406918 17.7512683 5.48729971 18.0180601L6.51270029 19.7351954zM6.51270029 24.7351954C6.58680384 24.6909439 6.75037346 24.6020763 6.99554693 24.4831713 7.41626029 24.2791326 7.90338226 24.0737512 8.44893505 23.881424 12.214662 22.5538684 16.3087534 22.5610754 20.2945164 24.7846289L21.268895 23.0380362C16.7206513 20.5006892 12.0466333 20.4924614 7.78397388 21.9952038 6.71858124 22.3707934 5.93406918 22.7512683 5.48729971 23.0180601L6.51270029 24.7351954zM6.51270029 29.7351954C6.58680384 29.6909439 6.75037346 29.6020763 6.99554693 29.4831713 7.41626029 29.2791326 7.90338226 29.0737512 8.44893505 28.881424 12.214662 27.5538684 16.3087534 27.5610754 20.2945164 29.7846289L21.268895 28.0380362C16.7206513 25.5006892 12.0466333 25.4924614 7.78397388 26.9952038 6.71858124 27.3707934 5.93406918 27.7512683 5.48729971 28.0180601L6.51270029 29.7351954zM6.51270029 34.7351954C6.58680384 34.6909439 6.75037346 34.6020763 6.99554693 34.4831713 7.41626029 34.2791326 7.90338226 34.0737512 8.44893505 33.881424 12.214662 32.5538684 16.3087534 32.5610754 20.2945164 34.7846289L21.268895 33.0380362C16.7206513 30.5006892 12.0466333 30.4924614 7.78397388 31.9952038 6.71858124 32.3707934 5.93406918 32.7512683 5.48729971 33.0180601L6.51270029 34.7351954zM27.5127003 14.7351954C27.5868038 14.6909439 27.7503735 14.6020763 27.9955469 14.4831713 28.4162603 14.2791326 28.9033823 14.0737512 29.4489351 13.881424 33.214662 12.5538684 37.3087534 12.5610754 41.2945164 14.7846289L42.268895 13.0380362C37.7206513 10.5006892 33.0466333 10.4924614 28.7839739 11.9952038 27.7185812 12.3707934 26.9340692 12.7512683 26.4872997 13.0180601L27.5127003 14.7351954zM27.5127003 19.7351954C27.5868038 19.6909439 27.7503735 19.6020763 27.9955469 19.4831713 28.4162603 19.2791326 28.9033823 19.0737512 29.4489351 18.881424 33.214662 17.5538684 37.3087534 17.5610754 41.2945164 19.7846289L42.268895 18.0380362C37.7206513 15.5006892 33.0466333 15.4924614 28.7839739 16.9952038 27.7185812 17.3707934 26.9340692 17.7512683 26.4872997 18.0180601L27.5127003 19.7351954zM27.5127003 24.7351954C27.5868038 24.6909439 27.7503735 24.6020763 27.9955469 24.4831713 28.4162603 24.2791326 28.9033823 24.0737512 29.4489351 23.881424 33.214662 22.5538684 37.3087534 22.5610754 41.2945164 24.7846289L42.268895 23.0380362C37.7206513 20.5006892 33.0466333 20.4924614 28.7839739 21.9952038 27.7185812 22.3707934 26.9340692 22.7512683 26.4872997 23.0180601L27.5127003 24.7351954z"/>
    <rect width="3" height="27" x="52.107" y="37.107" fill="#BD7575" transform="rotate(-45 53.607 50.607)"/>
    <path fill="#B6B6B6" fill-rule="nonzero" d="M27.5127003 29.7351954C27.5868038 29.6909439 27.7503735 29.6020763 27.9955469 29.4831713 28.4162603 29.2791326 28.9033823 29.0737512 29.4489351 28.881424 33.214662 27.5538684 37.3087534 27.5610754 41.2945164 29.7846289L42.268895 28.0380362C37.7206513 25.5006892 33.0466333 25.4924614 28.7839739 26.9952038 27.7185812 27.3707934 26.9340692 27.7512683 26.4872997 28.0180601L27.5127003 29.7351954zM27.5127003 34.7351954C27.5868038 34.6909439 27.7503735 34.6020763 27.9955469 34.4831713 28.4162603 34.2791326 28.9033823 34.0737512 29.4489351 33.881424 33.214662 32.5538684 37.3087534 32.5610754 41.2945164 34.7846289L42.268895 33.0380362C37.7206513 30.5006892 33.0466333 30.4924614 28.7839739 31.9952038 27.7185812 32.3707934 26.9340692 32.7512683 26.4872997 33.0180601L27.5127003 34.7351954z"/>
    <g transform="translate(27 23)">
      <circle cx="14" cy="14" r="12" fill="#E3F4FF"/>
      <path fill="#B4DFFB" fill-rule="nonzero" d="M14,28 C6.2680135,28 0,21.7319865 0,14 C0,6.2680135 6.2680135,0 14,0 C21.7319865,0 28,6.2680135 28,14 C28,21.7319865 21.7319865,28 14,28 Z M14,26 C20.627417,26 26,20.627417 26,14 C26,7.372583 20.627417,2 14,2 C7.372583,2 2,7.372583 2,14 C2,20.627417 7.372583,26 14,26 Z"/>
      <path fill="#B4DFFB" d="M5.99016699,22.9356156 C4.91469806,21.9709241 4.0143743,20.8149023 3.34273973,19.5210941 L13.4514378,2.01231543 C13.6332676,2.00413444 13.816151,2 14,2 C15.304096,2 16.5596054,2.20802411 17.7351551,2.59269935 L5.99016699,22.9356156 Z"/>
    </g>
  </g>
</svg>
