<svg xmlns="http://www.w3.org/2000/svg" width="64" height="64" viewBox="0 0 64 64">
  <g fill="none" fill-rule="evenodd">
    <rect width="6" height="11" x="29" y="49" fill="#D8D8D8"/>
    <rect width="14" height="1" x="25" y="61" stroke="#979797" stroke-width="2"/>
    <path fill="#868686" d="M2,14.995507 C2,13.3411342 3.33730974,12 4.99593743,12 L59.0040626,12 C60.6586731,12 62,13.3424683 62,14.995507 L62,48.004493 C62,49.6588658 60.6626903,51 59.0040626,51 L4.99593743,51 C3.34132688,51 2,49.6575317 2,48.004493 L2,14.995507 Z"/>
    <rect width="54" height="33" x="5" y="15" fill="#595959"/>
    <rect width="46" height="22" x="9" y="26" fill="#D8D8D8"/>
    <polygon fill="#979797" points="14 32 49 32 49 44 14 44"/>
    <rect width="46" height="21" x="9" y="7" fill="#22BA8E"/>
    <circle cx="31" cy="18" r="3" stroke="#FFF" stroke-linecap="round" stroke-width="2"/>
    <path stroke="#FFF" stroke-linecap="round" stroke-width="2" d="M33.1198668,20.342051 L36.6879185,23.9101027"/>
    <rect width="46" height="7" x="9" y="5" fill="#0A3586"/>
    <circle cx="12.5" cy="8.5" r="1.5" fill="#E43535"/>
    <circle cx="17.5" cy="8.5" r="1.5" fill="#FFC05F"/>
    <circle cx="22.5" cy="8.5" r="1.5" fill="#80D25B"/>
  </g>
</svg>
