<svg xmlns="http://www.w3.org/2000/svg" width="64" height="64" viewBox="0 0 64 64">
  <g fill="none" fill-rule="evenodd">
    <path fill="#FFAF40" d="M34.6590141,48.3979264 C33.1904812,47.625873 30.8156316,47.6226593 29.3409859,48.3979264 L17.0254565,54.8725834 C15.5569236,55.6446369 14.5926367,54.9516962 14.8742689,53.3096541 L17.2263258,39.5961106 C17.5067906,37.9608752 16.7759781,35.7012659 15.5829647,34.5383653 L5.61949209,24.8263798 C4.43142399,23.6682996 4.79246869,22.5370779 6.44117262,22.2975071 L20.2103531,20.2967281 C21.8522228,20.0581505 23.7754054,18.6648488 24.5127283,17.1708696 L30.670493,4.6938755 C31.4047594,3.20608914 32.5921842,3.19989629 33.329507,4.6938755 L39.4872717,17.1708696 C40.2215382,18.6586559 42.140943,20.0571574 43.7896469,20.2967281 L57.5588274,22.2975071 C59.2006971,22.5360848 59.5735213,23.6634792 58.3805079,24.8263798 L48.4170353,34.5383653 C47.2289672,35.6964454 46.492042,37.9540686 46.7736742,39.5961106 L49.1257311,53.3096541 C49.4061959,54.9448896 48.4491891,55.6478505 46.9745435,54.8725834 L34.6590141,48.3979264 Z"/>
    <path stroke="#FFDD95" stroke-linecap="round" stroke-width="2" d="M32,22 C30.3431458,22 29,20.6568542 29,19 C29,17.3431458 30.3431458,16 32,16 C33.6568542,16 35,17.3431458 35,19 C35,20.6568542 33.6568542,22 32,22 Z M41.0350369,28.5643386 C40.5230408,26.9885765 41.3853934,25.2961141 42.9611555,24.784118 C44.5369175,24.2721219 46.2293799,25.1344746 46.741376,26.7102366 C47.2533721,28.2859986 46.3910195,29.978461 44.8152574,30.4904571 C43.2394954,31.0024532 41.547033,30.1401006 41.0350369,28.5643386 Z M37.5839599,39.1856614 C38.9243831,38.211787 40.8004921,38.5089334 41.7743666,39.8493567 C42.7482411,41.1897799 42.4510947,43.0658889 41.1106714,44.0397634 C39.7702482,45.0136379 37.8941392,44.7164914 36.9202647,43.3760682 C35.9463902,42.0356449 36.2435367,40.1595359 37.5839599,39.1856614 Z M26.4160401,39.1856614 C27.7564633,40.1595359 28.0536098,42.0356449 27.0797353,43.3760682 C26.1058608,44.7164914 24.2297518,45.0136379 22.8893286,44.0397634 C21.5489053,43.0658889 21.2517589,41.1897799 22.2256334,39.8493567 C23.1995079,38.5089334 25.0756169,38.211787 26.4160401,39.1856614 Z M22.9649631,28.5643386 C22.452967,30.1401006 20.7605046,31.0024532 19.1847426,30.4904571 C17.6089805,29.978461 16.7466279,28.2859986 17.258624,26.7102366 C17.7706201,25.1344746 19.4630825,24.2721219 21.0388445,24.784118 C22.6146066,25.2961141 23.4769592,26.9885765 22.9649631,28.5643386 Z"/>
    <path fill="#FFDD95" d="M32,13 C30.8954305,13 30,12.1045695 30,11 C30,9.8954305 30.8954305,9 32,9 C33.1045695,9 34,9.8954305 34,11 C34,12.1045695 33.1045695,13 32,13 Z M49.5945456,25.7831856 C49.2532148,24.7326776 49.8281166,23.6043693 50.8786246,23.2630386 C51.9291326,22.9217078 53.0574409,23.4966096 53.3987716,24.5471176 C53.7401024,25.5976256 53.1652006,26.7259339 52.1146926,27.0672646 C51.0641846,27.4085954 49.9358763,26.8336936 49.5945456,25.7831856 Z M42.8740272,46.4668144 C43.7676427,45.8175647 45.018382,46.0156624 45.6676317,46.9092779 C46.3168813,47.8028934 46.1187837,49.0536327 45.2251682,49.7028824 C44.3315527,50.352132 43.0808133,50.1540344 42.4315637,49.2604189 C41.782314,48.3668034 41.9804117,47.1160641 42.8740272,46.4668144 Z M21.1259728,46.4668144 C22.0195883,47.1160641 22.217686,48.3668034 21.5684363,49.2604189 C20.9191867,50.1540344 19.6684473,50.352132 18.7748318,49.7028824 C17.8812163,49.0536327 17.6831187,47.8028934 18.3323683,46.9092779 C18.981618,46.0156624 20.2323573,45.8175647 21.1259728,46.4668144 Z M14.4054544,25.7831856 C14.0641237,26.8336936 12.9358154,27.4085954 11.8853074,27.0672646 C10.8347994,26.7259339 10.2598976,25.5976256 10.6012284,24.5471176 C10.9425591,23.4966096 12.0708674,22.9217078 13.1213754,23.2630386 C14.1718834,23.6043693 14.7467852,24.7326776 14.4054544,25.7831856 Z"/>
  </g>
</svg>
