<svg xmlns="http://www.w3.org/2000/svg" width="64" height="64" viewBox="0 0 64 64">
  <g fill="none" fill-rule="evenodd">
    <path fill="#0A3586" d="M1,14.0052699 C1,12.8977899 1.88582923,12 2.9948984,12 L60.0051016,12 C61.1068536,12 62,12.8944731 62,14.0052699 L62,50.9947301 C62,52.1022101 61.1141708,53 60.0051016,53 L2.9948984,53 C1.89314644,53 1,52.1055269 1,50.9947301 L1,14.0052699 Z" transform="rotate(90 31.5 32.5)"/>
    <circle cx="33" cy="59" r="3" fill="#5B68C0" transform="rotate(90 33 59)"/>
    <path fill="#FFDD95" d="M8,14.0088498 C8,13.4516774 8.45010362,13 9.00340562,13 L53.9965944,13 C54.55076,13 55,13.4413032 55,14.0088498 L55,48.9911502 C55,49.5483226 54.5498964,50 53.9965944,50 L9.00340562,50 C8.44924,50 8,49.5586968 8,48.9911502 L8,14.0088498 Z" transform="rotate(90 31.5 31.5)"/>
    <rect width="6" height="6" x="15" y="11" fill="#595959" rx="1"/>
    <rect width="6" height="6" x="24" y="11" fill="#595959" rx="1"/>
    <rect width="6" height="6" x="33" y="11" fill="#595959" rx="1"/>
    <rect width="6" height="6" x="42" y="11" fill="#595959" rx="1"/>
    <rect width="6" height="6" x="15" y="20" fill="#595959" rx="1"/>
    <rect width="6" height="6" x="15" y="29" fill="#595959" rx="1"/>
    <rect width="6" height="6" x="15" y="38" fill="#595959" rx="1"/>
    <rect width="6" height="6" x="24" y="20" fill="#E43535" rx="1"/>
    <rect width="6" height="6" x="24" y="29" fill="#595959" rx="1"/>
    <rect width="6" height="6" x="33" y="20" fill="#595959" rx="1"/>
    <rect width="6" height="6" x="33" y="29" fill="#595959" rx="1"/>
    <rect width="6" height="6" x="42" y="20" fill="#595959" rx="1"/>
    <rect width="6" height="6" x="42" y="29" fill="#595959" rx="1"/>
    <path stroke="#5B68C0" stroke-linecap="round" stroke-linejoin="round" stroke-width="2" d="M28,5 L37,5"/>
  </g>
</svg>
