<svg xmlns="http://www.w3.org/2000/svg" width="64" height="64" viewBox="0 0 64 64">
  <g fill="none" fill-rule="evenodd">
    <rect width="57" height="14" x="4" y="3" fill="#595959" rx="3"/>
    <circle cx="41" cy="13" r="1" fill="#E43535"/>
    <circle cx="45" cy="13" r="1" fill="#D8D8D8"/>
    <circle cx="49" cy="13" r="1" fill="#D8D8D8"/>
    <circle cx="53" cy="13" r="1" fill="#80D25B"/>
    <circle cx="57" cy="13" r="1" fill="#D8D8D8"/>
    <circle cx="10" cy="10" r="3" fill="#80D25B"/>
    <rect width="57" height="14" x="4" y="18" fill="#595959" rx="3"/>
    <circle cx="10" cy="25.169" r="3" fill="#80D25B"/>
    <circle cx="41" cy="29" r="1" fill="#80D25B"/>
    <circle cx="45" cy="29" r="1" fill="#D8D8D8"/>
    <circle cx="49" cy="29" r="1" fill="#E43535"/>
    <circle cx="53" cy="29" r="1" fill="#D8D8D8"/>
    <circle cx="57" cy="29" r="1" fill="#D8D8D8"/>
    <path fill="#0A3586" d="M29,35.9974219 C29,34.8942762 29.8978404,34 30.991617,34 L57.008383,34 C58.1083227,34 59,34.8909254 59,35.9974219 L59,53 L29,53 L29,35.9974219 Z"/>
    <path fill="#D8D8D8" d="M29,53 L59,53 L59,55 C59,56.1045695 58.1021596,57 57.008383,57 L30.991617,57 C29.8916773,57 29,56.1122704 29,55 L29,53 Z"/>
    <path stroke="#979797" stroke-linecap="square" stroke-width="2" d="M44 58L44 60M40 62L48 62"/>
    <path stroke="#979797" stroke-linecap="round" stroke-width="2" d="M15.138085,35.0550263 L15.138085,44.0678771 C15.138085,45.7249976 16.4807905,47.0683592 18.1391446,47.0683592 L25.9117258,47.0683592"/>
  </g>
</svg>
