<svg xmlns="http://www.w3.org/2000/svg" width="64" height="64" viewBox="0 0 64 64">
  <g fill="none" fill-rule="evenodd">
    <rect width="57" height="14" x="4" y="3" fill="#595959" rx="3"/>
    <circle cx="41" cy="13" r="1" fill="#E43535"/>
    <circle cx="45" cy="13" r="1" fill="#D8D8D8"/>
    <circle cx="49" cy="13" r="1" fill="#D8D8D8"/>
    <circle cx="53" cy="13" r="1" fill="#80D25B"/>
    <circle cx="57" cy="13" r="1" fill="#D8D8D8"/>
    <circle cx="10" cy="10" r="3" fill="#80D25B"/>
    <rect width="57" height="14" x="4" y="18" fill="#595959" rx="3"/>
    <circle cx="10" cy="25.169" r="3" fill="#80D25B"/>
    <circle cx="41" cy="29" r="1" fill="#80D25B"/>
    <circle cx="45" cy="29" r="1" fill="#D8D8D8"/>
    <circle cx="49" cy="29" r="1" fill="#E43535"/>
    <circle cx="53" cy="29" r="1" fill="#D8D8D8"/>
    <circle cx="57" cy="29" r="1" fill="#D8D8D8"/>
    <path fill="#0A3586" d="M36,36.0049466 C36,34.8976452 36.8945138,34 37.9940603,34 L50.0059397,34 C51.1072288,34 52,34.8970262 52,36.0049466 L52,58 L36,58 L36,36.0049466 Z"/>
    <path fill="#D8D8D8" d="M36,58 L52,58 L52,60 C52,61.1045695 51.1054862,62 50.0059397,62 L37.9940603,62 C36.8927712,62 36,61.1122704 36,60 L36,58 Z"/>
    <path stroke="#979797" stroke-linecap="round" stroke-width="2" d="M15.138085,35.0550263 L15.138085,44.0678771 C15.138085,45.7249976 16.4739968,47.0683592 18.1330425,47.0683592 L32.9117258,47.0683592"/>
  </g>
</svg>
