<svg xmlns="http://www.w3.org/2000/svg" width="64" height="64" viewBox="0 0 64 64">
  <g fill="none" fill-rule="evenodd">
    <polygon fill="#FFDD95" points="31 5 55.249 19 55.249 47 31 61 6.751 47 6.751 19"/>
    <circle cx="31" cy="5" r="3" fill="#E43535"/>
    <circle cx="31" cy="60" r="3" fill="#E43535"/>
    <circle cx="55" cy="47" r="3" fill="#E43535"/>
    <circle cx="7" cy="47" r="3" fill="#E43535"/>
    <circle cx="55" cy="19" r="3" fill="#E43535"/>
    <circle cx="7" cy="19" r="3" fill="#E43535"/>
    <path fill="#22BA8E" d="M23.3800958,28.2085229 L21.8076118,26.636039 L24.636039,23.8076118 L26.2085229,25.3800958 C27.0544216,24.8470663 27.9952899,24.4509973 29,24.2230164 L29,22 L33,22 L33,24.2230164 C34.0047101,24.4509973 34.9455784,24.8470663 35.7914771,25.3800958 L37.363961,23.8076118 L40.1923882,26.636039 L38.6199042,28.2085229 C39.1529337,29.0544216 39.5490027,29.9952899 39.7769836,31 L42,31 L42,35 L39.7769836,35 C39.5490027,36.0047101 39.1529337,36.9455784 38.6199042,37.7914771 L40.1923882,39.363961 L37.363961,42.1923882 L35.7914771,40.6199042 C34.9455784,41.1529337 34.0047101,41.5490027 33,41.7769836 L33,44 L29,44 L29,41.7769836 C27.9952899,41.5490027 27.0544216,41.1529337 26.2085229,40.6199042 L24.636039,42.1923882 L21.8076118,39.363961 L23.3800958,37.7914771 C22.8470663,36.9455784 22.4509973,36.0047101 22.2230164,35 L20,35 L20,31 L22.2230164,31 C22.4509973,29.9952899 22.8470663,29.0544216 23.3800958,28.2085229 Z M31,36 C32.6568542,36 34,34.6568542 34,33 C34,31.3431458 32.6568542,30 31,30 C29.3431458,30 28,31.3431458 28,33 C28,34.6568542 29.3431458,36 31,36 Z"/>
  </g>
</svg>
