<svg xmlns="http://www.w3.org/2000/svg" width="64" height="64" viewBox="0 0 64 64">
  <g fill="none" fill-rule="evenodd">
    <path fill="#5B68C0" d="M16.7601916,22.4170459 L13.6152237,19.2720779 L19.2720779,13.6152237 L22.4170459,16.7601916 C24.1088432,15.6941326 25.9905797,14.9019945 28,14.4460328 L28,10 L36,10 L36,14.4460328 C38.0094203,14.9019945 39.8911568,15.6941326 41.5829541,16.7601916 L44.7279221,13.6152237 L50.3847763,19.2720779 L47.2398084,22.4170459 C48.3058674,24.1088432 49.0980055,25.9905797 49.5539672,28 L54,28 L54,36 L49.5539672,36 C49.0980055,38.0094203 48.3058674,39.8911568 47.2398084,41.5829541 L50.3847763,44.7279221 L44.7279221,50.3847763 L41.5829541,47.2398084 C39.8911568,48.3058674 38.0094203,49.0980055 36,49.5539672 L36,54 L28,54 L28,49.5539672 C25.9905797,49.0980055 24.1088432,48.3058674 22.4170459,47.2398084 L19.2720779,50.3847763 L13.6152237,44.7279221 L16.7601916,41.5829541 C15.6941326,39.8911568 14.9019945,38.0094203 14.4460328,36 L10,36 L10,28 L14.4460328,28 C14.9019945,25.9905797 15.6941326,24.1088432 16.7601916,22.4170459 Z M32,38 C35.3137085,38 38,35.3137085 38,32 C38,28.6862915 35.3137085,26 32,26 C28.6862915,26 26,28.6862915 26,32 C26,35.3137085 28.6862915,38 32,38 Z"/>
    <circle cx="32" cy="32" r="9" stroke="#80D25B" stroke-linecap="round" stroke-width="2"/>
    <path fill="#80D25B" d="M32,0 L40,9 L24,9 L32,0 Z M64,32 L55,40 L55,24 L64,32 Z M32,64 L24,55 L40,55 L32,64 Z M3.0678068e-16,32 L9,24 L9,40 L3.0678068e-16,32 Z"/>
  </g>
</svg>
