<svg xmlns="http://www.w3.org/2000/svg" width="64" height="64" viewBox="0 0 64 64">
  <g fill="none" fill-rule="evenodd">
    <path fill="#5B68C0" d="M38.3800958,26.2085229 L36.8076118,24.636039 L39.636039,21.8076118 L41.2085229,23.3800958 C42.0544216,22.8470663 42.9952899,22.4509973 44,22.2230164 L44,20 L48,20 L48,22.2230164 C49.0047101,22.4509973 49.9455784,22.8470663 50.7914771,23.3800958 L52.363961,21.8076118 L55.1923882,24.636039 L53.6199042,26.2085229 C54.1529337,27.0544216 54.5490027,27.9952899 54.7769836,29 L57,29 L57,33 L54.7769836,33 C54.5490027,34.0047101 54.1529337,34.9455784 53.6199042,35.7914771 L55.1923882,37.363961 L52.363961,40.1923882 L50.7914771,38.6199042 C49.9455784,39.1529337 49.0047101,39.5490027 48,39.7769836 L48,42 L44,42 L44,39.7769836 C42.9952899,39.5490027 42.0544216,39.1529337 41.2085229,38.6199042 L39.636039,40.1923882 L36.8076118,37.363961 L38.3800958,35.7914771 C37.8470663,34.9455784 37.4509973,34.0047101 37.2230164,33 L35,33 L35,29 L37.2230164,29 C37.4509973,27.9952899 37.8470663,27.0544216 38.3800958,26.2085229 Z M46,34 C47.6568542,34 49,32.6568542 49,31 C49,29.3431458 47.6568542,28 46,28 C44.3431458,28 43,29.3431458 43,31 C43,32.6568542 44.3431458,34 46,34 Z"/>
    <g fill="#80D25B" transform="rotate(-90 35.5 25)">
      <polygon points="0 8 53 6 53 14 0 12"/>
      <polygon points="15.5 5.5 25.5 14.5 5.5 14.5"/>
      <polygon points="28.5 5.5 38.5 14.5 18.5 14.5"/>
      <polygon points="41.5 5.5 51.5 14.5 31.5 14.5"/>
      <polygon points="54.5 5.5 64.5 14.5 44.5 14.5"/>
    </g>
  </g>
</svg>
