<svg xmlns="http://www.w3.org/2000/svg" width="64" height="64" viewBox="0 0 64 64">
  <g fill="none" fill-rule="evenodd">
    <path fill="#5B68C0" d="M24.3800958,14.2085229 L22.8076118,12.636039 L25.636039,9.80761184 L27.2085229,11.3800958 C28.0544216,10.8470663 28.9952899,10.4509973 30,10.2230164 L30,8 L34,8 L34,10.2230164 C35.0047101,10.4509973 35.9455784,10.8470663 36.7914771,11.3800958 L38.363961,9.80761184 L41.1923882,12.636039 L39.6199042,14.2085229 C40.1529337,15.0544216 40.5490027,15.9952899 40.7769836,17 L43,17 L43,21 L40.7769836,21 C40.5490027,22.0047101 40.1529337,22.9455784 39.6199042,23.7914771 L41.1923882,25.363961 L38.363961,28.1923882 L36.7914771,26.6199042 C35.9455784,27.1529337 35.0047101,27.5490027 34,27.7769836 L34,30 L30,30 L30,27.7769836 C28.9952899,27.5490027 28.0544216,27.1529337 27.2085229,26.6199042 L25.636039,28.1923882 L22.8076118,25.363961 L24.3800958,23.7914771 C23.8470663,22.9455784 23.4509973,22.0047101 23.2230164,21 L21,21 L21,17 L23.2230164,17 C23.4509973,15.9952899 23.8470663,15.0544216 24.3800958,14.2085229 Z M32,22 C33.6568542,22 35,20.6568542 35,19 C35,17.3431458 33.6568542,16 32,16 C30.3431458,16 29,17.3431458 29,19 C29,20.6568542 30.3431458,22 32,22 Z"/>
    <g fill="#80D25B" transform="matrix(-1 0 0 1 62 33)">
      <polygon points="0 8 53 6 53 14 0 12"/>
      <polygon points="15.5 5.5 25.5 14.5 5.5 14.5"/>
      <polygon points="28.5 5.5 38.5 14.5 18.5 14.5"/>
      <polygon points="41.5 5.5 51.5 14.5 31.5 14.5"/>
      <polygon points="54.5 5.5 64.5 14.5 44.5 14.5"/>
    </g>
  </g>
</svg>
