<svg xmlns="http://www.w3.org/2000/svg" width="64" height="64" viewBox="0 0 64 64">
  <g fill="none" fill-rule="evenodd">
    <path fill="#FFAF40" d="M41,43.4224476 L41,57 L25,57 L25,43.4224476 C17.3702258,40.2763667 12,32.7653251 12,24 C12,12.4020203 21.4020203,3 33,3 C44.5979797,3 54,12.4020203 54,24 C54,32.7653251 48.6297742,40.2763667 41,43.4224476 Z"/>
    <rect width="22.474" height="4" x="21.763" y="51" fill="#80D25B" rx="2"/>
    <rect width="22.474" height="4" x="21.763" y="55" fill="#5DAF38" rx="2"/>
    <rect width="22.474" height="4" x="21.763" y="59" fill="#80D25B" rx="2"/>
    <path stroke="#FFF" stroke-linecap="round" stroke-width="2" d="M40.6568542,28 C40.6568542,23.581722 37.0751322,20 32.6568542,20 C28.2385763,20 24.6568542,23.581722 24.6568542,28"/>
    <rect width="4" height="4" x="22.657" y="28" fill="#D8D8D8"/>
    <path stroke="#FFF" stroke-linecap="square" stroke-width="2" d="M19.6568542,20 L45.6568542,20"/>
    <rect width="4" height="4" x="30.657" y="18" fill="#D8D8D8"/>
    <rect width="4" height="4" x="44.485" y="17.828" fill="#D8D8D8" transform="rotate(45 46.485 19.828)"/>
    <rect width="4" height="4" x="16.828" y="17.828" fill="#D8D8D8" transform="rotate(45 18.828 19.828)"/>
    <rect width="4" height="4" x="38.657" y="28" fill="#D8D8D8"/>
  </g>
</svg>
