<svg xmlns="http://www.w3.org/2000/svg" width="64" height="64" viewBox="0 0 64 64">
  <g fill="none" fill-rule="evenodd">
    <path fill="#595959" fill-rule="nonzero" d="M31.5535593,6.5 C16.9180134,6.5 5.05355927,18.3644541 5.05355927,33 C5.05355927,47.6355459 16.9180134,59.5 31.5535593,59.5 C46.1891051,59.5 58.0535593,47.6355459 58.0535593,33 C58.0535593,18.3644541 46.1891051,6.5 31.5535593,6.5 Z"/>
    <path fill="#FFF" d="M53.0535593,33 C53.0535593,21.1258779 43.4276814,11.5 31.5535593,11.5 C19.6794371,11.5 10.0535593,21.1258779 10.0535593,33 C10.0535593,37 11.2823329,38.0253991 12.0535593,38.5 C18.5535595,42.500001 20.5535593,32 21.5535593,29.5 C22.5535593,27 22.5535593,18 22.5535593,18 C22.5535593,18 28.0535593,17.2905178 37.0535593,27 C46.0535593,36.7094822 46.5535594,39.2557685 50.0535594,38.5000007 C51.2951026,38.2319097 52.2220683,37.0215379 52.90141,35.5711236 C53.0018753,34.7280889 53.0535593,33.8700802 53.0535593,33 Z"/>
  </g>
</svg>
