<svg xmlns="http://www.w3.org/2000/svg" width="64" height="64" viewBox="0 0 64 64">
  <g fill="none" fill-rule="evenodd">
    <path fill="#979797" fill-rule="nonzero" d="M11.7465023,35.4229155 L52.0668259,18.3642843 C52.82978,18.0414955 53.1866043,17.161327 52.8638155,16.3983729 C52.5410266,15.6354189 51.6608581,15.2785945 50.8979041,15.6013834 L10.5775805,32.6600146 C9.81462644,32.9828035 9.45780207,33.862972 9.78059093,34.625926 C10.1033798,35.38888 10.9835483,35.7457044 11.7465023,35.4229155 Z"/>
    <path fill="#979797" fill-rule="nonzero" d="M10.4095285,35.8440554 L51.0258241,53.2740356 C51.7871126,53.6007331 52.6690996,53.2484275 52.9957971,52.487139 C53.3224946,51.7258505 52.970189,50.8438635 52.2089005,50.5171659 L11.592605,33.0871858 C10.8313164,32.7604882 9.94932946,33.1127938 9.62263192,33.8740823 C9.29593438,34.6353709 9.64823998,35.5173578 10.4095285,35.8440554 Z"/>
    <circle cx="11" cy="34" r="7" fill="#9C4D4D"/>
    <circle cx="51" cy="17" r="7" fill="#9C4D4D"/>
    <circle cx="51" cy="51" r="7" fill="#9C4D4D"/>
  </g>
</svg>
