<svg xmlns="http://www.w3.org/2000/svg" width="64" height="64" viewBox="0 0 64 64">
  <g fill="none" fill-rule="evenodd">
    <path fill="#4796E7" d="M15,20.5383461 L15,7.99609755 C15,6.34139856 16.3433124,5 18.0023584,5 L45.9976416,5 C47.6557983,5 49,6.34590009 49,7.99609755 L49,20.5383461 C46.1085111,22.1365089 44,27.1109617 44,33 C44,38.8890383 46.1085111,43.8634911 49,45.4616539 L49,57.0039024 C49,58.6586014 47.6566876,60 45.9976416,60 L18.0023584,60 C16.3442017,60 15,58.6540999 15,57.0039024 L15,45.4616539 C17.8914889,43.8634911 20,38.8890383 20,33 C20,27.1109617 17.8914889,22.1365089 15,20.5383461 Z"/>
    <path fill="#D8D8D8" d="M29,17 L34,17 C36.7614237,17 39,19.2362996 39,21.9957102 L39,60 L29,60 L29,17 Z"/>
    <circle cx="35" cy="52" r="2" fill="#FFF"/>
    <circle cx="35" cy="27" r="2" fill="#FFF"/>
    <polygon fill="#D8D8D8" fill-rule="nonzero" points="25 17 25 60.012 27 60.012 27 17"/>
  </g>
</svg>
