<svg xmlns="http://www.w3.org/2000/svg" width="64" height="64" viewBox="0 0 64 64">
  <g fill="none" fill-rule="evenodd">
    <rect width="58" height="58" x="3" y="3" fill="#5B68C0" rx="6"/>
    <path fill="#FFF" d="M39.3748949,36.7876978 C38.3936528,36.7876978 37.4912253,37.1731694 36.7628468,37.8153975 L28.0288724,32.7813538 C28.0288724,32.7510283 28.0328132,32.7213766 28.0328132,32.6903772 C28.0328132,32.657356 28.0288724,32.6263565 28.0288724,32.5940092 L36.4574401,27.4245114 C37.2567518,28.2284758 38.2931641,28.7177283 39.4294084,28.7177283 C41.95279,28.7177283 44,26.3186392 44,23.359538 C44,20.4004369 41.9521332,18 39.4287516,18 C36.9073403,18 34.864071,20.3957196 34.8601303,23.3514512 L26.3645702,28.5822741 C25.5869325,27.8396347 24.5964954,27.393512 23.516735,27.393512 C21.0229088,27.393512 19,29.765645 19,32.6903772 C19,35.6137615 21.0229088,37.9852206 23.516735,37.9852206 C24.5918979,37.9852206 25.5783943,37.5431413 26.3540616,36.8065671 L35.0315521,41.660679 C35.028925,41.7381777 35.0217003,41.8143285 35.0217003,41.8938489 C35.0217003,44.7161481 36.970392,47 39.3748949,47 C41.7793979,47 43.7294031,44.7154742 43.7294031,41.8938489 C43.7294031,39.0742453 41.7800546,36.7876978 39.3748949,36.7876978 L39.3748949,36.7876978 Z"/>
  </g>
</svg>
