<svg xmlns="http://www.w3.org/2000/svg" width="64" height="64" viewBox="0 0 64 64">
  <path fill="#22BA8E" fill-rule="evenodd" d="M46.7497898,40.927544 C44.7873056,40.927544 42.9824506,41.6851951 41.5256936,42.9475054 L24.0577449,33.0530058 C24.0577449,32.9934004 24.0656263,32.9351196 24.0656263,32.8741896 C24.0656263,32.8092859 24.0577449,32.7483559 24.0577449,32.6847768 L40.9148802,22.5240397 C42.5135036,24.1042456 44.5863283,25.0658797 46.8588167,25.0658797 C51.9055801,25.0658797 56,20.3504287 56,14.5342644 C56,8.71810006 51.9042665,4 46.8575032,4 C41.8146805,4 37.7281421,8.70882811 37.7202606,14.5183696 L20.7291404,24.7996421 C19.1738651,23.3399716 17.1929908,22.4631097 15.0334699,22.4631097 C10.0458176,22.4631097 6,27.125578 6,32.8741896 C6,38.620152 10.0458176,43.2812957 15.0334699,43.2812957 C17.1837957,43.2812957 19.1567886,42.4123812 20.7081232,40.9646318 L38.0631042,50.5054725 C38.0578499,50.6577975 38.0434006,50.8074733 38.0434006,50.963772 C38.0434006,56.5110497 41.9407839,61 46.7497898,61 C51.5587957,61 55.4588062,56.5097251 55.4588062,50.963772 C55.4588062,45.4217926 51.5601093,40.927544 46.7497898,40.927544 L46.7497898,40.927544 Z"/>
</svg>
