<svg xmlns="http://www.w3.org/2000/svg" width="64" height="64" viewBox="0 0 64 64">
  <g fill="none" fill-rule="evenodd">
    <path fill="#5EA7FF" d="M36.7358865,42.6157241 C38.172232,41.3038966 39.5343956,39.9101379 40.8817229,38.5098621 C42.7835593,36.5332759 42.7538865,33.7476207 40.865032,32.0242759 C38.9669047,30.2934828 36.213832,30.4908621 34.2813956,32.4506897 C32.8422684,33.9105517 31.419832,35.3964828 29.8731411,36.7418276 C26.7241229,39.4818621 21.3783956,39.3524483 18.2840865,36.5537586 C14.2356138,32.891069 13.9565047,27.357 17.7453411,23.4485172 C20.9193956,20.175 24.2167775,17.016 27.4733593,13.8197586 C28.7427956,12.5731034 29.2286865,11.0936897 28.7798865,9.40013793 C28.3181047,7.65910345 27.135832,6.57724138 25.3295047,6.18341379 C25.1607411,6.14617241 25.0012502,6.06237931 24.8380502,6 L23.9821775,6 C22.4317775,6.34168966 21.2736138,7.27086207 20.1914865,8.36110345 C17.1620865,11.4121034 14.069632,14.4035172 11.0634138,17.4768621 C8.26675927,20.3351379 6.61621381,23.7566897 6.18410472,27.7247586 C6.17276032,27.8282216 6.05226125,28.5372032 6.05355927,29.5 C6.0548076,30.4259416 6.17715698,31.6059531 6.20079563,31.7552069 C7.3135229,38.8068621 11.0383775,44.0066897 17.9085411,46.4413448 C24.8324865,48.8955517 31.2547775,47.6218966 36.7358865,42.6157241 Z"/>
    <path fill="#5EA7FF" d="M50.7754162,53.6878584 C52.2117617,52.3760308 53.5739253,50.9822722 54.9212526,49.5819964 C56.8230889,47.6054101 56.7934162,44.819755 54.9045617,43.0964101 C53.0064344,41.365617 50.2533617,41.5629964 48.3209253,43.5228239 C46.881798,44.982686 45.4593617,46.468617 43.9126708,47.8139619 C40.7636526,50.5539964 35.4179253,50.4245826 32.3236162,47.6258929 C28.2751435,43.9632033 27.9960344,38.4291343 31.7848708,34.5206515 C34.9589253,31.2471343 38.2563071,28.0881343 41.5128889,24.8918929 C42.7823253,23.6452377 43.2682162,22.1658239 42.8194162,20.4722722 C42.3576344,18.7312377 41.1753617,17.6493757 39.3690344,17.2555481 C39.2002708,17.2183067 39.0407798,17.1345136 38.8775798,17.0721343 L38.0217071,17.0721343 C36.4713071,17.4138239 35.3131435,18.3429964 34.2310162,19.4332377 C31.2016162,22.4842377 28.1091617,25.4756515 25.1029435,28.5489964 C22.3062889,31.4072722 20.6557435,34.8288239 20.2236344,38.7968929 C20.21229,38.9003559 20.0917909,39.6093375 20.0930889,40.5721343 C20.0943373,41.4980759 20.2166866,42.6780874 20.2403253,42.8273412 C21.3530526,49.8789964 25.0779071,55.0788239 31.9480708,57.5134791 C38.8720162,59.967686 45.2943071,58.6940308 50.7754162,53.6878584 Z" transform="rotate(-180 38.214 37.899)"/>
  </g>
</svg>
