<svg xmlns="http://www.w3.org/2000/svg" width="64" height="64" viewBox="0 0 64 64">
  <g fill="none" fill-rule="evenodd">
    <polygon fill="#E43535" points="19 0 26 15 19 15"/>
    <polygon fill="#E43535" points="17 47 24 62 17 62" transform="matrix(1 0 0 -1 0 109)"/>
    <polygon fill="#E43535" points="41 0 48 15 41 15" transform="matrix(-1 0 0 1 89 0)"/>
    <polygon fill="#E43535" points="43 47 50 62 43 62" transform="rotate(180 46.5 54.5)"/>
    <path fill="#D650C7" d="M11,11 L33,4 L55,11 L55,35.0044072 C55,39.9725359 51.6706236,46.2700293 47.5671424,49.0678575 L33,59 L18.4328576,49.0678575 C14.3278037,46.2689571 11,39.9700614 11,35.0044072 L11,11 Z"/>
    <path fill="#FF78C7" d="M16,15.4727273 L33,10 L50,15.4727273 L50,32.2672523 C50,37.2408388 46.6818724,43.561703 42.5930058,46.382365 L33,53 L23.4069942,46.382365 C19.3162243,43.56039 16,37.2414773 16,32.2672523 L16,15.4727273 Z"/>
  </g>
</svg>
