<svg xmlns="http://www.w3.org/2000/svg" width="64" height="64" viewBox="0 0 64 64">
  <g fill="none" fill-rule="evenodd">
    <path fill="#5EA7FF" d="M10,11 L32,4 L54,11 L54,35.0044072 C54,39.9725359 50.6706236,46.2700293 46.5671424,49.0678575 L32,59 L17.4328576,49.0678575 C13.3278037,46.2689571 10,39.9700614 10,35.0044072 L10,11 Z"/>
    <path fill="#0A3586" d="M15,15.4727273 L32,10 L49,15.4727273 L49,32.2672523 C49,37.2408388 45.6818724,43.561703 41.5930058,46.382365 L32,53 L22.4069942,46.382365 C18.3162243,43.56039 15,37.2414773 15,32.2672523 L15,15.4727273 Z"/>
    <rect width="3" height="22" x="31" y="19" fill="#D8D8D8"/>
    <rect width="13" height="3" x="26" y="24" fill="#D8D8D8"/>
  </g>
</svg>
