<svg xmlns="http://www.w3.org/2000/svg" width="64" height="64" viewBox="0 0 64 64">
  <g fill="none" fill-rule="evenodd">
    <path fill="#B4DFFB" d="M10,11 L32,4 L54,11 L54,35.0044072 C54,39.9725359 50.6706236,46.2700293 46.5671424,49.0678575 L32,59 L17.4328576,49.0678575 C13.3278037,46.2689571 10,39.9700614 10,35.0044072 L10,11 Z"/>
    <path fill="#5B68C0" d="M15,15.4727273 L32,10 L49,15.4727273 L49,32.2672523 C49,37.2408388 45.6818724,43.561703 41.5930058,46.382365 L32,53 L22.4069942,46.382365 C18.3162243,43.56039 15,37.2414773 15,32.2672523 L15,15.4727273 Z"/>
    <polygon fill="#FCC24C" points="32 18 36 26 28 26"/>
    <polygon fill="#FCC24C" points="25 28 29 36 21 36"/>
    <polygon fill="#FCC24C" points="39 28 43 36 35 36"/>
  </g>
</svg>
