<svg xmlns="http://www.w3.org/2000/svg" width="64" height="64" viewBox="0 0 64 64">
  <g fill="none" fill-rule="evenodd">
    <polyline stroke="#868686" stroke-linecap="round" stroke-width="4" points="3.976 17.995 11.116 17.995 18.979 48.995 57.723 48.995"/>
    <circle cx="22" cy="55" r="3" fill="#9C4D4D"/>
    <circle cx="55" cy="55" r="3" fill="#9C4D4D"/>
    <path fill="#80D25B" d="M39,29 C43.418278,29 47,25.418278 47,21 C47,16.581722 39,3 39,3 C39,3 31,16.581722 31,21 C31,25.418278 34.581722,29 39,29 Z"/>
    <path fill="#80D25B" d="M54.5044647,39.529591 C57.2658885,39.529591 59.5044647,37.1876959 59.5044647,34.2988218 C59.5044647,31.4099477 54.5044647,22.529591 54.5044647,22.529591 C54.5044647,22.529591 49.5044647,31.4099477 49.5044647,34.2988218 C49.5044647,37.1876959 51.743041,39.529591 54.5044647,39.529591 Z" transform="rotate(75 54.504 31.03)"/>
    <path fill="#80D25B" d="M24.5044647,39.529591 C27.2658885,39.529591 29.5044647,37.1876959 29.5044647,34.2988218 C29.5044647,31.4099477 24.5044647,22.529591 24.5044647,22.529591 C24.5044647,22.529591 19.5044647,31.4099477 19.5044647,34.2988218 C19.5044647,37.1876959 21.743041,39.529591 24.5044647,39.529591 Z" transform="scale(-1 1) rotate(75 0 -.905)"/>
    <path stroke="#22BA8E" stroke-linecap="square" stroke-width="2" d="M39,44 L39,17.9545689"/>
    <path stroke="#22BA8E" stroke-linecap="round" stroke-width="2" d="M51,32 C44.372583,32 39,37.372583 39,44"/>
    <path stroke="#22BA8E" stroke-linecap="round" stroke-width="2" d="M39,32 C32.372583,32 27,37.372583 27,44" transform="matrix(-1 0 0 1 66 0)"/>
  </g>
</svg>
