<svg xmlns="http://www.w3.org/2000/svg" width="64" height="64" viewBox="0 0 64 64">
  <g fill="none" fill-rule="evenodd">
    <path fill="#D8D8D8" d="M28,8.54400273 C28,8.54400273 33.3000057,6 38.6000114,6 C43.9000171,6 49.2000227,8.54400273 49.2000227,8.54400273 L49.2000227,39.9200364 C49.2000227,39.9200364 43.9000171,37.3760337 38.6000114,37.3760337 C33.3000057,37.3760337 28,39.9200364 28,39.9200364 L28,8.54400273 Z"/>
    <path fill="#ECECEC" d="M7,8.54400273 C7,8.54400273 12.3000057,6 17.6000114,6 C22.9000171,6 28.0124026,8.54400273 28.0124026,8.54400273 L28.0124026,39.9200364 C28.0124026,39.9200364 22.9000171,37.3760337 17.6000114,37.3760337 C12.3000057,37.3760337 7,39.9200364 7,39.9200364 L7,8.54400273 Z"/>
    <path fill="#B6B6B6" fill-rule="nonzero" d="M10.5127003 13.7351954C10.5868038 13.6909439 10.7503735 13.6020763 10.9955469 13.4831713 11.4162603 13.2791326 11.9033823 13.0737512 12.4489351 12.881424 16.214662 11.5538684 20.3087534 11.5610754 24.2945164 13.7846289L25.268895 12.0380362C20.7206513 9.50068925 16.0466333 9.49246142 11.7839739 10.9952038 10.7185812 11.3707934 9.93406918 11.7512683 9.48729971 12.0180601L10.5127003 13.7351954zM10.5127003 18.7351954C10.5868038 18.6909439 10.7503735 18.6020763 10.9955469 18.4831713 11.4162603 18.2791326 11.9033823 18.0737512 12.4489351 17.881424 16.214662 16.5538684 20.3087534 16.5610754 24.2945164 18.7846289L25.268895 17.0380362C20.7206513 14.5006892 16.0466333 14.4924614 11.7839739 15.9952038 10.7185812 16.3707934 9.93406918 16.7512683 9.48729971 17.0180601L10.5127003 18.7351954zM10.5127003 23.7351954C10.5868038 23.6909439 10.7503735 23.6020763 10.9955469 23.4831713 11.4162603 23.2791326 11.9033823 23.0737512 12.4489351 22.881424 16.214662 21.5538684 20.3087534 21.5610754 24.2945164 23.7846289L25.268895 22.0380362C20.7206513 19.5006892 16.0466333 19.4924614 11.7839739 20.9952038 10.7185812 21.3707934 9.93406918 21.7512683 9.48729971 22.0180601L10.5127003 23.7351954zM10.5127003 28.7351954C10.5868038 28.6909439 10.7503735 28.6020763 10.9955469 28.4831713 11.4162603 28.2791326 11.9033823 28.0737512 12.4489351 27.881424 16.214662 26.5538684 20.3087534 26.5610754 24.2945164 28.7846289L25.268895 27.0380362C20.7206513 24.5006892 16.0466333 24.4924614 11.7839739 25.9952038 10.7185812 26.3707934 9.93406918 26.7512683 9.48729971 27.0180601L10.5127003 28.7351954zM10.5127003 33.7351954C10.5868038 33.6909439 10.7503735 33.6020763 10.9955469 33.4831713 11.4162603 33.2791326 11.9033823 33.0737512 12.4489351 32.881424 16.214662 31.5538684 20.3087534 31.5610754 24.2945164 33.7846289L25.268895 32.0380362C20.7206513 29.5006892 16.0466333 29.4924614 11.7839739 30.9952038 10.7185812 31.3707934 9.93406918 31.7512683 9.48729971 32.0180601L10.5127003 33.7351954zM31.5127003 13.7351954C31.5868038 13.6909439 31.7503735 13.6020763 31.9955469 13.4831713 32.4162603 13.2791326 32.9033823 13.0737512 33.4489351 12.881424 37.214662 11.5538684 41.3087534 11.5610754 45.2945164 13.7846289L46.268895 12.0380362C41.7206513 9.50068925 37.0466333 9.49246142 32.7839739 10.9952038 31.7185812 11.3707934 30.9340692 11.7512683 30.4872997 12.0180601L31.5127003 13.7351954zM31.5127003 18.7351954C31.5868038 18.6909439 31.7503735 18.6020763 31.9955469 18.4831713 32.4162603 18.2791326 32.9033823 18.0737512 33.4489351 17.881424 37.214662 16.5538684 41.3087534 16.5610754 45.2945164 18.7846289L46.268895 17.0380362C41.7206513 14.5006892 37.0466333 14.4924614 32.7839739 15.9952038 31.7185812 16.3707934 30.9340692 16.7512683 30.4872997 17.0180601L31.5127003 18.7351954zM31.5127003 23.7351954C31.5868038 23.6909439 31.7503735 23.6020763 31.9955469 23.4831713 32.4162603 23.2791326 32.9033823 23.0737512 33.4489351 22.881424 37.214662 21.5538684 41.3087534 21.5610754 45.2945164 23.7846289L46.268895 22.0380362C41.7206513 19.5006892 37.0466333 19.4924614 32.7839739 20.9952038 31.7185812 21.3707934 30.9340692 21.7512683 30.4872997 22.0180601L31.5127003 23.7351954zM31.5127003 28.7351954C31.5868038 28.6909439 31.7503735 28.6020763 31.9955469 28.4831713 32.4162603 28.2791326 32.9033823 28.0737512 33.4489351 27.881424 37.214662 26.5538684 41.3087534 26.5610754 45.2945164 28.7846289L46.268895 27.0380362C41.7206513 24.5006892 37.0466333 24.4924614 32.7839739 25.9952038 31.7185812 26.3707934 30.9340692 26.7512683 30.4872997 27.0180601L31.5127003 28.7351954zM31.5127003 33.7351954C31.5868038 33.6909439 31.7503735 33.6020763 31.9955469 33.4831713 32.4162603 33.2791326 32.9033823 33.0737512 33.4489351 32.881424 37.214662 31.5538684 41.3087534 31.5610754 45.2945164 33.7846289L46.268895 32.0380362C41.7206513 29.5006892 37.0466333 29.4924614 32.7839739 30.9952038 31.7185812 31.3707934 30.9340692 31.7512683 30.4872997 32.0180601L31.5127003 33.7351954z"/>
    <rect width="14" height="12" x="37" y="50" fill="#FFDD95"/>
    <path fill="#FFDD95" d="M40,36 L50.9998779,36 C52.6567996,36 54,37.3529255 54,38.9925398 L54,49.0099002 C54,51.7658562 51.7645872,54 49.0079737,54 L36.9974219,54 C35.8942762,54 35,53.1073772 35,52.0049107 L35,38.2461332 L35,25.5028229 C35,24.120552 36.1096621,23 37.5,23 C38.8807119,23 40,24.1259806 40,25.5028229 L40,36 Z"/>
    <polygon fill="#FFCC60" fill-rule="nonzero" points="40 36 40 42 42 42 42 36"/>
    <polygon fill="#FFCC60" fill-rule="nonzero" points="44 36 44 42 46 42 46 36"/>
    <polygon fill="#FFCC60" fill-rule="nonzero" points="48 36 48 42 50 42 50 36"/>
  </g>
</svg>
