<svg xmlns="http://www.w3.org/2000/svg" width="64" height="64" viewBox="0 0 64 64">
  <g fill="none" fill-rule="evenodd">
    <path stroke="#FF78C7" stroke-linecap="round" stroke-width="2" d="M47,35 L38,37"/>
    <ellipse cx="52.047" cy="27.047" fill="#D650C7" rx="11.518" ry="6.5" transform="rotate(-41 52.047 27.047)"/>
    <path stroke="#D650C7" stroke-linecap="round" stroke-width="2" d="M27.2867654,14.2746146 L21.5373942,16.8901507"/>
    <ellipse cx="53.3" cy="18.042" fill="#FF78C7" rx="11.518" ry="6.5" transform="rotate(55 53.3 18.042)"/>
    <ellipse cx="47.047" cy="12.047" fill="#D650C7" rx="11.518" ry="6.5" transform="rotate(20 47.047 12.047)"/>
    <path stroke="#D650C7" stroke-linecap="round" stroke-width="2" d="M31.4590485,16.6008107 L24.6704145,19.039951"/>
    <ellipse cx="37.808" cy="11.26" fill="#FF78C7" rx="11.518" ry="6.5" transform="rotate(-15 37.808 11.26)"/>
    <circle cx="31.5" cy="10.5" r="1.5" fill="#0A3586"/>
    <path stroke="#FF78C7" stroke-linecap="round" stroke-width="2" d="M32.4226744 17.1272399C32.4226744 17.1272399 23.0056202 21.7032646 26.9549543 30.0971644M27 56L18 58"/>
    <ellipse cx="32.047" cy="48.047" fill="#D650C7" rx="11.518" ry="6.5" transform="rotate(-41 32.047 48.047)"/>
    <path stroke="#D650C7" stroke-linecap="round" stroke-width="2" d="M7.28676545,35.2746146 L1.53739424,37.8901507"/>
    <ellipse cx="33.3" cy="39.042" fill="#FF78C7" rx="11.518" ry="6.5" transform="rotate(55 33.3 39.042)"/>
    <ellipse cx="27.047" cy="33.047" fill="#D650C7" rx="11.518" ry="6.5" transform="rotate(20 27.047 33.047)"/>
    <path stroke="#D650C7" stroke-linecap="round" stroke-width="2" d="M11.4590485,37.6008107 L4.67041445,40.039951"/>
    <ellipse cx="17.808" cy="32.26" fill="#FF78C7" rx="11.518" ry="6.5" transform="rotate(-15 17.808 32.26)"/>
    <circle cx="11.5" cy="31.5" r="1.5" fill="#0A3586"/>
    <path stroke="#FF78C7" stroke-linecap="round" stroke-width="2" d="M12.4226744,38.1272399 C12.4226744,38.1272399 3.00562025,42.7032646 6.95495426,51.0971644"/>
  </g>
</svg>
