<svg xmlns="http://www.w3.org/2000/svg" width="64" height="64" viewBox="0 0 64 64">
  <g fill="none" fill-rule="evenodd">
    <path fill="#FF78C7" stroke="#D650C7" stroke-linecap="round" stroke-width="2" d="M22.0996637,37.2105883 C22.0344168,37.4686138 22,37.7315808 22,38 C22,49.045695 30.954305,58 42,58 C53.045695,58 62,49.045695 62,38 C62,30.5901815 57.9704094,24.1215244 51.9830489,20.6658493 C49.0451493,18.9702062 42,16.9538009 34.6670636,9.45115926 C34.3694409,9.14664868 34.5348896,12.9359808 33.5987255,13.2724662 C33.4300336,13.3330991 24.8590247,5.08524808 24.1779922,5.9543133 C23.9218232,6.28121046 35.0310271,20.5433843 34.6670636,25.1712013 C34.653025,25.3497029 34.6212239,25.5259702 34.5730514,25.7002011 C39.8545002,27.9649887 47,34.886558 47,39 C47,43.9705627 42.9705627,48 38,48 C33.0294373,48 29,43.9705627 29,39 C29,37.5888774 25.07404,37.70955 22.0996637,37.2105883 Z"/>
    <circle cx="39" cy="19" r="2" fill="#D650C7"/>
    <path stroke="#D650C7" stroke-linecap="round" stroke-width="2" d="M22 37.8063478L22.6558878 31M26 39.8063478L26.6558878 33"/>
    <polyline stroke="#D650C7" stroke-linecap="round" stroke-width="2" points="34.047 22.525 21.54 20.682 11.977 24.911"/>
    <polyline stroke="#D650C7" stroke-linecap="round" stroke-width="2" points="32.147 18.97 14.846 14.99 1.423 17.506"/>
    <polyline stroke="#D650C7" stroke-linecap="round" stroke-width="2" points="28.516 12.519 21.719 12.516 11.236 6.744"/>
    <path stroke="#D650C7" stroke-linecap="round" stroke-width="2" d="M47 29L53.34355 23.2728297M51 43L59.6303936 45.3625721M42 51L43.2694953 56.6255837"/>
  </g>
</svg>
