<svg xmlns="http://www.w3.org/2000/svg" width="64" height="64" viewBox="0 0 64 64">
  <g fill="none" fill-rule="evenodd">
    <circle cx="33" cy="32" r="29" fill="#5EA7FF"/>
    <path fill="#FFF" fill-rule="nonzero" d="M43.9620446,20 L18.9924286,20 C16.7903779,20 15,21.7940649 15,23.9918416 L15,27.912782 C15,28.4650668 15.4477153,28.912782 16,28.912782 C16.5522847,28.912782 17,28.4650668 17,27.912782 L17,23.9918416 C17,22.8977144 17.8958695,22 18.9924286,22 L43.9620446,22 C44.5143293,22 44.9620446,21.5522847 44.9620446,21 C44.9620446,20.4477153 44.5143293,20 43.9620446,20 Z"/>
    <polygon fill="#D8D8D8" points="50 21 43 26 43 16"/>
    <g transform="rotate(180 25 24)">
      <path fill="#FFF" fill-rule="nonzero" d="M28.9620446,4 L3.99242859,4 C1.79037787,4 0,5.79406485 0,7.99184161 L0,11.912782 C0,12.4650668 0.44771525,12.912782 1,12.912782 C1.55228475,12.912782 2,12.4650668 2,11.912782 L2,7.99184161 C2,6.89771435 2.89586946,6 3.99242859,6 L28.9620446,6 C29.5143293,6 29.9620446,5.55228475 29.9620446,5 C29.9620446,4.44771525 29.5143293,4 28.9620446,4 Z"/>
      <polygon fill="#D8D8D8" points="35 5 28 10 28 0"/>
    </g>
  </g>
</svg>
