<svg xmlns="http://www.w3.org/2000/svg" width="64" height="64" viewBox="0 0 64 64">
  <g fill="none" fill-rule="evenodd">
    <polygon fill="#ECECEC" points="3 1 32.105 1 44 12.753 44 61 3 61"/>
    <polygon fill="#D8D8D8" points="32 1 44 1 44 13" transform="rotate(-180 38 7)"/>
    <rect width="12" height="14" x="7" y="13" fill="#80D25B"/>
    <path stroke="#979797" stroke-linecap="square" stroke-width="2" d="M22 16L41.0262976 16M8 31L40.3447059 31M22 21L41.0262976 21M8 36L23.0332964 36M22 26L41.0262976 26"/>
    <g transform="rotate(-45 74.552 -10.132)">
      <rect width="26" height="6" x="5" fill="#325AA6"/>
      <rect width="4" height="4" x="31" y="1" fill="#5EA7FF"/>
      <path stroke="#325AA6" stroke-linecap="square" stroke-width="2" d="M5 3L0 3M29 8L21 8M29 6L29 8"/>
    </g>
  </g>
</svg>
