<svg xmlns="http://www.w3.org/2000/svg" width="64" height="64" viewBox="0 0 64 64">
  <g fill="none" fill-rule="evenodd">
    <path fill="#FFDD95" d="M34,62 L51.5284332,62 C54.3390569,57.5235772 56,51.9919036 56,46.0049707 C56,29.010252 46,25.0114947 46,18.0136694 C46,11.0158441 50,11.0158441 50,4.01801872 C50,3.75640066 49.9986764,3.49565192 49.9960069,3.23582258 L32,1.99471865 L15.005816,3.16673134 C15.0019338,3.44941662 15,3.7332025 15,4.01801872 C15,11.0158441 19,11.0158441 19,18.0136694 C19,25.0114947 10,29.010252 10,46.0049707 C10,51.9919036 11.6609431,57.5235772 14.4715668,62 L32,62 L32,59.000932 L34,59.000932 L34,62 Z"/>
    <g stroke="#22BA8E" stroke-width="2" transform="rotate(-90 35 -13)">
      <path stroke-linecap="square" d="M5,13 L5,2"/>
      <polyline stroke-linecap="round" stroke-linejoin="round" points=".707 5.31 5.052 .712 9.157 5.31"/>
    </g>
    <g stroke="#22BA8E" stroke-width="2" transform="matrix(0 -1 -1 0 17 22)">
      <path stroke-linecap="square" d="M5,13 L5,2"/>
      <polyline stroke-linecap="round" stroke-linejoin="round" points=".707 5.31 5.052 .712 9.157 5.31"/>
    </g>
    <path fill="#D650C7" d="M54.8107189,36.6740885 C54.4720676,35.4559375 54.076119,34.3339074 53.6430435,33.2918622 C47.5573066,35.041776 40.0812049,33 32,33 C24.6707021,33 17.8391434,35.220552 12.0911562,33.7620889 C12.0478588,33.7511028 12.0046228,33.7400782 11.9614486,33.7290151 C11.633699,34.6467126 11.3326503,35.6255158 11.0699338,36.6757638 C18.2816883,36.7549437 24.9719339,39.6449632 28.7643658,46.2136478 C30.9203263,49.9478809 31.8795509,54.4202801 31.8064619,59 L33.7690757,59 C33.6959867,54.4202801 34.6552113,49.9478809 36.8111718,46.2136478 C40.6570338,39.5524194 47.4829373,36.674241 54.8107189,36.6740885 Z"/>
  </g>
</svg>
