<svg xmlns="http://www.w3.org/2000/svg" width="64" height="64" viewBox="0 0 64 64">
  <g fill="none" fill-rule="evenodd">
    <circle cx="13" cy="54" r="6" fill="#80D25B"/>
    <circle cx="49" cy="51" r="9" fill="#FF78C7"/>
    <path fill="#4796E7" fill-rule="nonzero" d="M47.0010936,12.9864572 L47.0010936,34.6986368 C47.0010936,35.7994666 47.8962793,36.6918654 49.0005468,36.6918654 C50.1048143,36.6918654 51,35.7994666 51,34.6986368 L51,9 L11,9 L11,41.0067714 C11,42.1076012 11.8951857,43 12.9994532,43 C14.1037207,43 14.9989064,42.1076012 14.9989064,41.0067714 L14.9989064,12.9864572 L47.0010936,12.9864572 Z"/>
    <polygon fill="#5B68C0" points="13 37 21 45 5 45" transform="rotate(180 13 41)"/>
    <polygon fill="#5B68C0" points="49 31 57 39 41 39" transform="rotate(180 49 35)"/>
  </g>
</svg>
