<?xml version="1.0" encoding="UTF-8"?>
<svg width="64px" height="64px" viewBox="0 0 64 64" version="1.1" xmlns="http://www.w3.org/2000/svg" xmlns:xlink="http://www.w3.org/1999/xlink">
    <!-- Generator: Sketch 43.2 (39069) - http://www.bohemiancoding.com/sketch -->
    <title>skateboard</title>
    <desc>Created with Sketch.</desc>
    <defs></defs>
    <g id="Outdoor-Activities-(142)" stroke="none" stroke-width="1" fill="none" fill-rule="evenodd">
        <rect id="Rectangle-114" fill="#FF78C7" transform="translate(32.000000, 32.000000) rotate(-45.000000) translate(-32.000000, -32.000000) " x="-3" y="20" width="70" height="24" rx="7"></rect>
        <rect id="Rectangle-117" fill="#979797" transform="translate(19.272078, 44.727922) rotate(-45.000000) translate(-19.272078, -44.727922) " x="13.2720779" y="42.7279221" width="12" height="4"></rect>
        <polygon id="Rectangle-116" fill="#D8D8D8" transform="translate(19.254501, 44.745499) rotate(-45.000000) translate(-19.254501, -44.745499) " points="18.2793585 38.7454989 22.2793585 38.7454989 22.2793585 50.7454989 18.2793585 50.7454989 16.2296437 44.7454989"></polygon>
        <rect id="Rectangle-115" fill="#595959" transform="translate(14.675884, 38.717514) rotate(-45.000000) translate(-14.675884, -38.717514) " x="9.67588386" y="36.2175144" width="10" height="5" rx="2"></rect>
        <rect id="Rectangle-115-Copy" fill="#595959" transform="translate(25.282486, 49.324116) rotate(-45.000000) translate(-25.282486, -49.324116) " x="20.2824856" y="46.8241161" width="10" height="5" rx="2"></rect>
        <rect id="Rectangle-117-Copy" fill="#979797" transform="translate(46.142136, 17.857864) rotate(-45.000000) translate(-46.142136, -17.857864) " x="40.1421356" y="15.8578644" width="12" height="4"></rect>
        <polygon id="Rectangle-116-Copy" fill="#D8D8D8" transform="translate(46.124559, 17.875441) rotate(-45.000000) translate(-46.124559, -17.875441) " points="45.1494162 11.8754412 49.1494162 11.8754412 49.1494162 23.8754412 45.1494162 23.8754412 43.0997013 17.8754412"></polygon>
        <rect id="Rectangle-115-Copy-3" fill="#595959" transform="translate(41.545942, 11.847457) rotate(-45.000000) translate(-41.545942, -11.847457) " x="36.5459415" y="9.34745674" width="10" height="5" rx="2"></rect>
        <rect id="Rectangle-115-Copy-2" fill="#595959" transform="translate(52.152543, 22.454058) rotate(-45.000000) translate(-52.152543, -22.454058) " x="47.1525433" y="19.9540585" width="10" height="5" rx="2"></rect>
    </g>
</svg>