<svg xmlns="http://www.w3.org/2000/svg" width="64" height="64" viewBox="0 0 64 64">
  <g fill="none" fill-rule="evenodd">
    <path fill="#D8D8D8" d="M31,44 C37.4575247,44 47.3193875,46.9243619 51.6333072,43.2628419 C56.1742183,39.4086585 57,36.7973093 57,30 C57,16.745166 44.254834,2 31,2 C17.745166,2 5,16.745166 5,30 C5,36.7973093 5.82578168,39.4086585 10.3666928,43.2628419 C14.6806125,46.9243619 24.5424753,44 31,44 Z"/>
    <polygon fill="#D8D8D8" points="18 48 44 48 42 61 20 61"/>
    <path stroke="#979797" stroke-linecap="square" stroke-width="2" d="M21 52L21 48.9377423M25 52L25 48.9377423M29 52L29 48.9377423M33 52L33 48.9377423M37 52L37 48.9377423M41 52L41 48.9377423"/>
    <path fill="#595959" d="M31 39.0436511C33.5490205 39.0436511 35.6154099 39.590567 35.6154099 37.0415465 35.6154099 34.492526 31.6764531 32 31 32 30.3235469 32 26.3845901 34.492526 26.3845901 37.0415465 26.3845901 39.590567 28.4509795 39.0436511 31 39.0436511zM18 33C21.8659932 33 29 28.8659932 29 25 29 21.1340068 25.8659932 18 22 18 18.1340068 18 13 22.1340068 13 26 13 29.8659932 14.1340068 33 18 33z"/>
    <path fill="#595959" d="M38,33 C41.8659932,33 49,28.8659932 49,25 C49,21.1340068 45.8659932,18 42,18 C38.1340068,18 33,22.1340068 33,26 C33,29.8659932 34.1340068,33 38,33 Z" transform="matrix(-1 0 0 1 82 0)"/>
  </g>
</svg>
