<svg xmlns="http://www.w3.org/2000/svg" width="64" height="64" viewBox="0 0 64 64">
  <g fill="none" fill-rule="evenodd">
    <circle cx="32" cy="32" r="30" stroke="#5EA7FF" stroke-linecap="round" stroke-width="2"/>
    <path fill="#5EA7FF" d="M43.8027902,44.5721013 C39.8998359,48.9118846 34.6060055,46.1103157 34.6060055,46.1103157 C30.8633225,46.4946904 27.9226928,45.3408506 27.9226928,45.3408506 C21.2923392,43.3087469 19.5816174,36.9926909 19.5816174,36.9926909 C18.0311669,32.8168216 18.9398354,29.5771945 18.9398354,29.5771945 C16.3197483,24.4128309 20.0094721,20.4581381 20.0094721,20.4581381 C24.4475931,15.8449263 29.7414235,19.1403843 29.7414235,19.1403843 C37.7089971,17.9314294 41.9331908,23.1501923 41.9331908,23.1501923 C46.8528225,28.0940952 45.3560281,35.1796163 45.3560281,35.1796163 C47.438858,40.8378692 43.8027902,44.5721013 43.8027902,44.5721013 L43.8027902,44.5721013 Z M29.4738401,26.6052697 C33.4081519,24.5037352 35.1850727,27.2573466 35.1850727,27.2573466 C37.1954321,30.3101547 38.5117472,29.0639791 38.5117472,29.0639791 C40.5917898,27.1893474 38.1270961,24.9525302 38.1270961,24.9525302 C34.3502683,21.3356862 28.2564752,23.5467353 28.2564752,23.5467353 C23.6782909,25.1264651 24.6712761,29.4676799 24.6712761,29.4676799 C26.0482155,33.3808574 32.1935742,33.8733151 32.1935742,33.8733151 C35.8435786,34.1696486 35.8756329,36.2418361 35.8756329,36.2418361 C36.0359042,38.5445052 32.3858998,38.9703952 32.3858998,38.9703952 C29.2404015,38.8079128 28.5874702,37.4243071 28.5874702,37.4243071 C27.2084403,35.5503912 26.8342417,35.1531324 25.975745,35.1302274 C23.8190509,35.0722491 24.0552769,37.4665383 24.0552769,37.4665383 C25.1109769,42.0038772 31.234037,41.8979416 31.234037,41.8979416 C39.717266,42.424041 40.1653288,36.5038121 40.1653288,36.5038121 C40.5499799,32.4267207 35.5237329,30.9472003 35.5237329,30.9472003 C31.937837,30.2893971 29.888455,29.3030502 29.888455,29.3030502 C27.7450007,28.0532957 29.4738401,26.6052697 29.4738401,26.6052697 L29.4738401,26.6052697 Z"/>
  </g>
</svg>
