<svg xmlns="http://www.w3.org/2000/svg" width="64" height="64" viewBox="0 0 64 64">
  <path fill="#5EA7FF" fill-rule="evenodd" d="M55.6055805,57.2279232 C47.7996718,65.7578421 37.2120111,60.2513103 37.2120111,60.2513103 C29.7266451,61.0068053 23.8453856,58.7389133 23.8453856,58.7389133 C10.5846785,54.7447784 7.16323485,42.3304614 7.16323485,42.3304614 C4.06233382,34.1227183 5.87967087,27.7551754 5.87967087,27.7551754 C0.639496542,17.6045297 8.01894417,9.83151278 8.01894417,9.83151278 C16.8951863,0.76416542 27.482847,7.24144506 27.482847,7.24144506 C43.4179942,4.86522323 51.8663816,15.1227918 51.8663816,15.1227918 C61.7056451,24.8401182 58.7120561,38.7668321 58.7120561,38.7668321 C62.877716,49.8882256 55.6055805,57.2279232 55.6055805,57.2279232 L55.6055805,57.2279232 Z M26.9476803,21.9138059 C34.8163037,17.7832036 38.3701454,23.1954744 38.3701454,23.1954744 C42.3908642,29.1958214 45.0234944,26.7464418 45.0234944,26.7464418 C49.1835796,23.0618207 44.2541922,18.6653179 44.2541922,18.6653179 C36.7005366,11.5563488 24.5129503,15.9022038 24.5129503,15.9022038 C15.3565819,19.00719 17.3425522,27.5399226 17.3425522,27.5399226 C20.0964311,35.2313404 32.3871485,36.1992745 32.3871485,36.1992745 C39.6871573,36.7817232 39.7512658,40.8546434 39.7512658,40.8546434 C40.0718084,45.3805792 32.7717996,46.2176733 32.7717996,46.2176733 C26.480803,45.8983114 25.1749404,43.1788106 25.1749404,43.1788106 C22.4168806,39.4955964 21.6684834,38.7147775 19.9514901,38.6697573 C15.6381019,38.5558 16.1105538,43.2618166 16.1105538,43.2618166 C18.2219538,52.1800346 30.468074,51.9718162 30.468074,51.9718162 C47.434532,53.0058736 48.3306576,41.3695618 48.3306576,41.3695618 C49.0999598,33.3559682 39.0474658,30.4479454 39.0474658,30.4479454 C31.875674,29.1550219 27.77691,27.21634 27.77691,27.21634 C23.4900014,24.7599259 26.9476803,21.9138059 26.9476803,21.9138059 L26.9476803,21.9138059 Z"/>
</svg>
