<svg xmlns="http://www.w3.org/2000/svg" width="64" height="64" viewBox="0 0 64 64">
  <path fill="#5EA7FF" fill-rule="evenodd" d="M37.6875,49 L32,62 L26.3125,49 L6,49 L6,5 L58,5 L58,49 L37.6875,49 Z M43.8027902,38.5721013 C43.8027902,38.5721013 47.438858,34.8378692 45.3560281,29.1796163 C45.3560281,29.1796163 46.8528225,22.0940952 41.9331908,17.1501923 C41.9331908,17.1501923 37.7089971,11.9314294 29.7414235,13.1403843 C29.7414235,13.1403843 24.4475931,9.84492627 20.0094721,14.4581381 C20.0094721,14.4581381 16.3197483,18.4128309 18.9398354,23.5771945 C18.9398354,23.5771945 18.0311669,26.8168216 19.5816174,30.9926909 C19.5816174,30.9926909 21.2923392,37.3087469 27.9226928,39.3408506 C27.9226928,39.3408506 30.8633225,40.4946904 34.6060055,40.1103157 C34.6060055,40.1103157 39.8998359,42.9118846 43.8027902,38.5721013 Z M29.4738401,20.6052697 C29.4738401,20.6052697 27.7450007,22.0532957 29.888455,23.3030502 C29.888455,23.3030502 31.937837,24.2893971 35.5237329,24.9472003 C35.5237329,24.9472003 40.5499799,26.4267207 40.1653288,30.5038121 C40.1653288,30.5038121 39.717266,36.424041 31.234037,35.8979416 C31.234037,35.8979416 25.1109769,36.0038772 24.0552769,31.4665383 C24.0552769,31.4665383 23.8190509,29.0722491 25.975745,29.1302274 C26.8342417,29.1531324 27.2084403,29.5503912 28.5874702,31.4243071 C28.5874702,31.4243071 29.2404015,32.8079128 32.3858998,32.9703952 C32.3858998,32.9703952 36.0359042,32.5445052 35.8756329,30.2418361 C35.8756329,30.2418361 35.8435786,28.1696486 32.1935742,27.8733151 C32.1935742,27.8733151 26.0482155,27.3808574 24.6712761,23.4676799 C24.6712761,23.4676799 23.6782909,19.1264651 28.2564752,17.5467353 C28.2564752,17.5467353 34.3502683,15.3356862 38.1270961,18.9525302 C38.1270961,18.9525302 40.5917898,21.1893474 38.5117472,23.0639791 C38.5117472,23.0639791 37.1954321,24.3101547 35.1850727,21.2573466 C35.1850727,21.2573466 33.4081519,18.5037352 29.4738401,20.6052697 Z"/>
</svg>
