<svg xmlns="http://www.w3.org/2000/svg" width="64" height="64" viewBox="0 0 64 64">
  <g fill="none" fill-rule="evenodd">
    <path fill="#B4DFFB" d="M7,18 L59,18 L59,45.0047989 C59,52.734135 52.727585,59 44.9965501,59 L7,59 L7,18 Z"/>
    <path fill="#80D25B" d="M45,7 L59,7 L59,21 L7,21 L7,7 L22,7 L22,12.007983 C22,13.0998238 22.897616,14 24.0048815,14 L24.9951185,14 C26.1061002,14 27,13.1081436 27,12.007983 L27,7 L40,7 L40,12.007983 C40,13.0998238 40.897616,14 42.0048815,14 L42.9951185,14 C44.1061002,14 45,13.1081436 45,12.007983 L45,7 Z"/>
    <rect width="3" height="11" x="23" y="2" fill="#9F5757" rx="1.5"/>
    <rect width="3" height="11" x="41" y="2" fill="#9F5757" rx="1.5"/>
    <rect width="5" height="5" x="14" y="27" fill="#4796E7"/>
    <rect width="10" height="10" x="28" y="25" fill="#4796E7"/>
    <rect width="10" height="10" x="43" y="25" fill="#4796E7"/>
    <rect width="10" height="10" x="12" y="40" fill="#4796E7"/>
    <rect width="10" height="10" x="28" y="40" fill="#4796E7"/>
    <rect width="10" height="10" x="43" y="40" fill="#4796E7"/>
    <path stroke="#E43535" stroke-linecap="round" d="M13.1777537,35.8383737 C9.67237418,31.391946 11.3106469,20.5138498 19.4369405,27.0279938 C26.1222441,32.3870212 15.1409719,37.0763931 14.4466423,30.852836 C14.3594532,30.0713247 15.9109569,28.4249507 16.114547,29.1844985"/>
  </g>
</svg>
