<svg xmlns="http://www.w3.org/2000/svg" width="64" height="64" viewBox="0 0 64 64">
  <g fill="none" fill-rule="evenodd">
    <rect width="6" height="10" x="55" y="21" fill="#D8D8D8"/>
    <circle cx="9" cy="25" r="5" fill="#80D25B"/>
    <path fill="#FFAF40" d="M23,17 L55.0007894,17 C56.6572077,17 58,18.3339615 58,20.0001262 L58,30.9998738 C58,32.6567977 56.6494043,34 55.0007894,34 L23,34 L23,17 Z"/>
    <rect width="14" height="4" x="35" y="42" fill="#80D25B"/>
    <rect width="4" height="34" x="9" y="8" fill="#ED9111"/>
    <polygon fill="#ED9111" points="36 34 44 34 49 56 41 56"/>
    <polygon fill="#FFAF40" points="39 25 13 42 13 8"/>
    <rect width="6" height="6" x="30" y="19" fill="#E43535"/>
    <rect width="6" height="6" x="38" y="19" fill="#80D25B"/>
  </g>
</svg>
