<svg xmlns="http://www.w3.org/2000/svg" width="64" height="64" viewBox="0 0 64 64">
  <g fill="none" fill-rule="evenodd">
    <path fill="#E43535" d="M5.76545491,52.986116 C9.94115328,58.578776 12.9437451,57.6399964 17.5028751,56.2396547 C22.0620051,54.8393129 22.7750593,38.0541423 27.9042291,30.7777053 C33.0333989,23.5012684 36.7679567,9.83269921 33.1066356,5.42051527 C29.4453144,1.00833132 15.2796996,-0.160350277 11.2944175,11.2033698 C7.30913539,22.5670899 11.9713186,29.9502857 8.86838675,35.8564098 C5.76545491,41.7625338 1.58975655,47.393456 5.76545491,52.986116 Z"/>
    <polygon fill="#B4DFFB" points="13 51 10.649 52.236 11.098 49.618 9.196 47.764 11.824 47.382 13 45 14.176 47.382 16.804 47.764 14.902 49.618 15.351 52.236" transform="rotate(14 13 49)"/>
    <path stroke="#FCC24C" stroke-linecap="round" stroke-width="3" d="M10.8482346,39.846212 C10.8482346,39.846212 -1.7489151,21.7389112 23.6546597,14.3429823 C23.6546597,14.3429823 39.2506562,31.6239137 21.6025347,42.3406515"/>
    <path fill="#E43535" d="M31.0202046,56.6373517 C35.195903,62.2300117 38.1984948,61.2912322 42.7576248,59.8908904 C47.3167548,58.4905486 48.029809,41.705378 53.1589788,34.4289411 C58.2881486,27.1525041 62.0227064,13.4839349 58.3613853,9.07175099 C54.7000641,4.65956705 40.5344493,3.49088545 36.5491672,14.8546055 C32.5638851,26.2183257 37.2260683,33.6015214 34.1231365,39.5076455 C31.0202046,45.4137696 26.8445063,51.0446917 31.0202046,56.6373517 Z" transform="scale(-1 1) rotate(-32 0 188.79)"/>
    <polygon fill="#B4DFFB" points="39 55 36.649 56.236 37.098 53.618 35.196 51.764 37.824 51.382 39 49 40.176 51.382 42.804 51.764 40.902 53.618 41.351 56.236" transform="rotate(14 39 53)"/>
    <path stroke="#FCC24C" stroke-linecap="round" stroke-width="3" d="M36.8482346,43.846212 C36.8482346,43.846212 24.2510849,25.7389112 49.6546597,18.3429823 C49.6546597,18.3429823 65.2506562,35.6239137 47.6025347,46.3406515"/>
  </g>
</svg>
