<svg xmlns="http://www.w3.org/2000/svg" width="64" height="64" viewBox="0 0 64 64">
  <g fill="none" fill-rule="evenodd">
    <rect width="24" height="24" x="20" y="20" fill="#E43535"/>
    <rect width="5" height="14" x="15" y="25" fill="#ED9111"/>
    <path stroke="#979797" stroke-linecap="square" stroke-width="2" d="M14 28L3 28M28 4L28 15M28 49L28 60M32 4L32 15M32 49L32 60M36 4L36 15M36 49L36 60M14 32L3 32M14 36L3 36M61 28L50 28M61 32L50 32M61 36L50 36"/>
    <rect width="5" height="14" x="29.5" y="10.5" fill="#ED9111" transform="rotate(90 32 17.5)"/>
    <rect width="5" height="14" x="29.5" y="39.5" fill="#ED9111" transform="rotate(90 32 46.5)"/>
    <rect width="5" height="14" x="44" y="25" fill="#ED9111"/>
  </g>
</svg>
