<svg xmlns="http://www.w3.org/2000/svg" xmlns:xlink="http://www.w3.org/1999/xlink" width="64" height="64" viewBox="0 0 64 64">
  <defs>
    <ellipse id="smallbell-a" cx="4" cy="16" rx="4" ry="16"/>
  </defs>
  <g fill="none" fill-rule="evenodd">
    <g transform="translate(30 3)">
      <mask id="smallbell-b" fill="#fff">
        <use xlink:href="#smallbell-a"/>
      </mask>
      <use fill="#BD7575" xlink:href="#smallbell-a"/>
      <rect width="21" height="14" x="-6" y="6" fill="#22BA8E" mask="url(#smallbell-b)"/>
    </g>
    <path fill="#ED9111" d="M25.4041866,40.9892253 C25.1809605,36.0246132 29.0283444,32 34,32 L34,32 C38.9705627,32 42.814529,36.028119 42.6134577,40.9937074 C42.6134577,40.9937074 42.5,42.2395963 42.5,45.5 C42.5,48.7604037 46.1838515,55.4330743 46.1838515,55.4330743 C47.1868826,57.403033 46.2058797,59 44.0031611,59 L23.9968389,59 C21.7894457,59 20.8959109,57.4464565 21.9468343,55.4992864 C21.9468343,55.4992864 25.5,49.9169699 25.5,45.5 C25.5,41.0830301 25.4041866,40.9892253 25.4041866,40.9892253 Z"/>
    <path fill="#DAD71E" d="M31,60 C31,61.6568542 32.3431458,63 34,63 C35.6568542,63 37,61.6568542 37,60 L31,60 Z"/>
  </g>
</svg>
