<svg xmlns="http://www.w3.org/2000/svg" width="64" height="64" viewBox="0 0 64 64">
  <g fill="none" fill-rule="evenodd">
    <rect width="34" height="39" x="16" y="12" fill="#0A3586" rx="6"/>
    <path fill="#E43535" d="M28.5737705,24 C25.4954621,24 23,25.5084783 23,29.5613198 C23,33.6141613 33,41 33,41 C33,41 43,33.6141613 43,29.5613198 C43,25.5084783 40.5045379,24 37.4262295,24 C35.6224114,24 34.0187247,24.8549505 33,26.1808807 C31.9812753,24.8549505 30.3775886,24 28.5737705,24 Z"/>
    <rect width="2" height="9" x="50" y="23" fill="#5B68C0"/>
    <rect width="2" height="9" x="50" y="34" fill="#5B68C0"/>
    <path fill="#5EA7FF" d="M22.4640367,2.94779813 C22.7600411,1.31977418 24.343312,0 25.9942021,0 L40.0057979,0 C41.6594501,0 43.2412467,1.32685702 43.5359633,2.94779813 L45,11 L21,11 L22.4640367,2.94779813 Z"/>
    <path fill="#5EA7FF" d="M22.4640367,54.9477981 C22.7600411,53.3197742 24.343312,52 25.9942021,52 L40.0057979,52 C41.6594501,52 43.2412467,53.326857 43.5359633,54.9477981 L45,63 L21,63 L22.4640367,54.9477981 Z" transform="matrix(1 0 0 -1 0 115)"/>
  </g>
</svg>
