<svg xmlns="http://www.w3.org/2000/svg" width="64" height="64" viewBox="0 0 64 64">
  <g fill="none" fill-rule="evenodd">
    <rect width="34" height="39" x="16" y="12" fill="#0A3586" rx="6"/>
    <rect width="2" height="9" x="50" y="23" fill="#5B68C0"/>
    <rect width="2" height="9" x="50" y="34" fill="#5B68C0"/>
    <path fill="#5EA7FF" d="M22.4640367,2.94779813 C22.7600411,1.31977418 24.343312,0 25.9942021,0 L40.0057979,0 C41.6594501,0 43.2412467,1.32685702 43.5359633,2.94779813 L45,11 L21,11 L22.4640367,2.94779813 Z"/>
    <path fill="#5EA7FF" d="M22.4640367,54.9477981 C22.7600411,53.3197742 24.343312,52 25.9942021,52 L40.0057979,52 C41.6594501,52 43.2412467,53.326857 43.5359633,54.9477981 L45,63 L21,63 L22.4640367,54.9477981 Z" transform="matrix(1 0 0 -1 0 115)"/>
    <polyline stroke="#80D25B" stroke-linecap="round" stroke-linejoin="round" stroke-width="2" points="18.383 33.175 22.078 33.175 24.552 29.31 26.841 38.433 30.628 23.44 31.668 37.651 34.493 29.031 37.846 33.273 45.795 33.273"/>
  </g>
</svg>
