<svg xmlns="http://www.w3.org/2000/svg" width="64" height="64" viewBox="0 0 64 64">
  <g fill="none" fill-rule="evenodd">
    <rect width="34" height="39" x="15" y="12" fill="#0A3586" rx="6"/>
    <circle cx="32" cy="31" r="10" fill="#ED9111"/>
    <circle cx="32" cy="31" r="2" fill="#FFF"/>
    <path stroke="#FFF" stroke-linecap="round" stroke-width="2" d="M32.1409801,30.3748327 L38.5402487,20.6678687"/>
    <rect width="2" height="9" x="49" y="23" fill="#5B68C0"/>
    <rect width="2" height="9" x="49" y="34" fill="#5B68C0"/>
    <path fill="#5EA7FF" d="M21.4640367,2.94779813 C21.7600411,1.31977418 23.343312,0 24.9942021,0 L39.0057979,0 C40.6594501,0 42.2412467,1.32685702 42.5359633,2.94779813 L44,11 L20,11 L21.4640367,2.94779813 Z"/>
    <path fill="#5EA7FF" d="M21.4640367,54.9477981 C21.7600411,53.3197742 23.343312,52 24.9942021,52 L39.0057979,52 C40.6594501,52 42.2412467,53.326857 42.5359633,54.9477981 L44,63 L20,63 L21.4640367,54.9477981 Z" transform="matrix(1 0 0 -1 0 115)"/>
  </g>
</svg>
