<svg xmlns="http://www.w3.org/2000/svg" width="64" height="64" viewBox="0 0 64 64">
  <g fill="none" fill-rule="evenodd">
    <rect width="34" height="39" x="15" y="12" fill="#0A3586" rx="6"/>
    <path fill="#E43535" d="M25,21.9950291 C25,19.2363507 27.2338221,17 29.9950291,17 L34.0049709,17 C36.7636493,17 39,19.2338221 39,21.9950291 L39,31 L25,31 L25,21.9950291 Z"/>
    <path fill="#ECECEC" d="M25,40.6278999 C25,43.0425441 26.8446519,45 29.1247406,45 L34.8752594,45 C37.1532907,45 39,43.0386188 39,40.6278999 L39,31 L25,31"/>
    <rect width="2" height="9" x="49" y="23" fill="#5B68C0"/>
    <rect width="2" height="9" x="49" y="34" fill="#5B68C0"/>
    <path fill="#5EA7FF" d="M21.4640367,2.94779813 C21.7600411,1.31977418 23.343312,0 24.9942021,0 L39.0057979,0 C40.6594501,0 42.2412467,1.32685702 42.5359633,2.94779813 L44,11 L20,11 L21.4640367,2.94779813 Z"/>
    <path fill="#5EA7FF" d="M21.4640367,54.9477981 C21.7600411,53.3197742 23.343312,52 24.9942021,52 L39.0057979,52 C40.6594501,52 42.2412467,53.326857 42.5359633,54.9477981 L44,63 L20,63 L21.4640367,54.9477981 Z" transform="matrix(1 0 0 -1 0 115)"/>
  </g>
</svg>
