<svg xmlns="http://www.w3.org/2000/svg" width="64" height="64" viewBox="0 0 64 64">
  <g fill="none" fill-rule="evenodd">
    <rect width="58" height="32" x="3" y="16" fill="#D8D8D8" rx="2" transform="rotate(90 32 32)"/>
    <circle cx="32" cy="58" r="2" fill="#868686" transform="rotate(90 32 58)"/>
    <rect width="49" height="28" x="7.5" y="16.5" fill="#0A3586" rx="1" transform="rotate(90 32 30.5)"/>
    <path fill="#E43535" d="M27.5737705,24 C24.4954621,24 22,25.5084783 22,29.5613198 C22,33.6141613 32,41 32,41 C32,41 42,33.6141613 42,29.5613198 C42,25.5084783 39.5045379,24 36.4262295,24 C34.6224114,24 33.0187247,24.8549505 32,26.1808807 C30.9812753,24.8549505 29.3775886,24 27.5737705,24 Z"/>
  </g>
</svg>
