<svg xmlns="http://www.w3.org/2000/svg" width="64" height="64" viewBox="0 0 64 64">
  <g fill="none" fill-rule="evenodd">
    <rect width="58" height="32" x="3" y="16" fill="#D8D8D8" rx="2" transform="rotate(90 32 32)"/>
    <circle cx="32" cy="58" r="2" fill="#868686" transform="rotate(90 32 58)"/>
    <rect width="49" height="28" x="7.5" y="16.5" fill="#0A3586" rx="1" transform="rotate(90 32 30.5)"/>
    <path fill="#E43535" d="M25,21.9950291 C25,19.2363507 27.2338221,17 29.9950291,17 L34.0049709,17 C36.7636493,17 39,19.2338221 39,21.9950291 L39,31 L25,31 L25,21.9950291 Z"/>
    <path fill="#ECECEC" d="M25,40.6278999 C25,43.0425441 26.8446519,45 29.1247406,45 L34.8752594,45 C37.1532907,45 39,43.0386188 39,40.6278999 L39,31 L25,31"/>
  </g>
</svg>
