<svg xmlns="http://www.w3.org/2000/svg" width="64" height="64" viewBox="0 0 64 64">
  <path fill="#22BA8E" fill-rule="evenodd" d="M47,29.6690282 L47,22.0038724 C47,13.7065851 40.2842712,7 32,7 C23.7139073,7 17,13.7174625 17,22.0038724 L17,29.785933 C16.0646261,29.6566072 14.6356171,29.3831323 12.9032778,28.806327 C9.75328551,27.7574954 7.52839849,29.9203007 8.2948019,31.3097074 C9.0612053,32.6991142 16.8870016,32.9198978 16.2316459,36.9622058 C15.5762901,41.0045138 6.24697899,50.5248792 4.74739902,51.0919216 C4.74739902,51.0919216 11.3486113,51.8443347 12.3790806,53.8501869 C13.40955,55.856039 12.9443742,56.2394593 15.5723553,55.3292187 C18.2003364,54.418978 20.9717176,52.4564082 28.8145645,56.4493131 C36.6574115,60.442218 38.5876289,52.8756785 42.3409507,52.8756785 C46.0942726,52.8756785 48.4048499,56.5280082 50.1225904,55.5731737 C51.8403308,54.6183391 52.2106352,53.1747201 52.2106352,53.1747201 C52.2106352,53.1747201 54.8561042,53.5389038 56.7732057,52.545596 C58.6903072,51.5522882 59.8370705,50.7058781 59.8370705,50.7058781 C59.8370705,50.7058781 43.6564715,39.821026 47.9335534,35.5653667 C52.2106352,31.3097074 55.2776295,33.4957301 56.0254176,31.6983971 C56.7732057,29.9010641 53.844043,28.2028134 51.4841086,28.5045702 C49.6580349,28.738064 48.2631852,29.669397 47,29.6690282 Z"/>
</svg>
