<svg xmlns="http://www.w3.org/2000/svg" width="64" height="64" viewBox="0 0 64 64">
  <g fill="none" fill-rule="evenodd">
    <path stroke="#BD7575" stroke-linecap="square" stroke-width="2" d="M10 46L10 58M55 46L55 58"/>
    <path fill="#22BA8E" d="M10,47 C13.8659932,47 17,45.3888407 17,36 C17,26.6111593 13.8659932,15 10,15 C6.13400675,15 3,26.6111593 3,36 C3,45.3888407 6.13400675,47 10,47 Z"/>
    <path fill="#ECECEC" d="M10,23.406915 C13.8659932,23.406915 17,28.7016183 17,24.1594525 C17,19.6172867 13.8659932,14 10,14 C6.13400675,14 3,19.6172867 3,24.1594525 C3,28.7016183 6.13400675,23.406915 10,23.406915 Z"/>
    <path fill="#22BA8E" d="M55,47 C58.8659932,47 62,45.7916306 62,38.75 C62,31.7083694 58.8659932,23 55,23 C51.1340068,23 48,31.7083694 48,38.75 C48,45.7916306 51.1340068,47 55,47 Z"/>
    <path fill="#ECECEC" d="M55,31.406915 C58.8659932,31.406915 62,36.7016183 62,32.1594525 C62,27.6172867 58.8659932,22 55,22 C51.1340068,22 48,27.6172867 48,32.1594525 C48,36.7016183 51.1340068,31.406915 55,31.406915 Z"/>
    <polygon fill="#979797" points="25 2 39 2 51 63 13 63"/>
    <path stroke="#FFF" stroke-dasharray="4" stroke-linecap="square" stroke-width="2" d="M32,61 L32,4"/>
  </g>
</svg>
