<svg xmlns="http://www.w3.org/2000/svg" width="64" height="64" viewBox="0 0 64 64">
  <g fill="none" fill-rule="evenodd">
    <path fill="#FCC24C" d="M9.62299676,29.2935522 C9.32421497,26.2731292 11.5393405,23.8245925 14.572784,23.8245925 L15.591225,23.8245925 C18.6236988,23.8245925 20.8391997,26.2791366 20.5410122,29.2935522 L17.8648621,56.3470937 C17.7560227,57.447365 16.7669717,58.3393111 15.6683258,58.3393111 L14.4956831,58.3393111 C13.3914091,58.3393111 12.4083903,57.451449 12.2991469,56.3470937 L9.62299676,29.2935522 Z" transform="rotate(-45 15.082 41.082)"/>
    <circle cx="7" cy="33" r="3" fill="#595959"/>
    <path fill="#FCC24C" d="M40.2613378,23.1242861 C39.962556,20.103863 42.1776815,17.6553263 45.211125,17.6553263 L46.229566,17.6553263 C49.2620398,17.6553263 51.4775407,20.1098705 51.1793532,23.1242861 L48.5032031,50.1778276 C48.3943637,51.2780989 47.4053127,52.170045 46.3066668,52.170045 L45.1340241,52.170045 C44.0297501,52.170045 43.0467313,51.2821829 42.9374879,50.1778276 L40.2613378,23.1242861 Z" transform="rotate(60 45.72 34.913)"/>
    <circle cx="55.619" cy="29.198" r="3" fill="#595959" transform="rotate(105 55.619 29.198)"/>
    <circle cx="30" cy="18" r="7" fill="#0A3586"/>
    <path stroke="#FFF" stroke-linecap="round" stroke-width="2" d="M30,14 C27.790861,14 26,15.790861 26,18"/>
  </g>
</svg>
