<?xml version="1.0" encoding="UTF-8"?>
<svg width="64px" height="64px" viewBox="0 0 64 64" version="1.1" xmlns="http://www.w3.org/2000/svg" xmlns:xlink="http://www.w3.org/1999/xlink">
    <!-- Generator: Sketch 43.2 (39069) - http://www.bohemiancoding.com/sketch -->
    <title>socceball</title>
    <desc>Created with Sketch.</desc>
    <defs></defs>
    <g id="Outdoor-Activities-(142)" stroke="none" stroke-width="1" fill="none" fill-rule="evenodd">
        <circle id="Oval-53-Copy-2" stroke="#979797" stroke-width="2" fill="#D8D8D8" stroke-linecap="round" transform="translate(33.012193, 32.341540) rotate(-315.000000) translate(-33.012193, -32.341540) " cx="33.0121933" cy="32.3415403" r="29"></circle>
        <polygon id="Polygon" stroke="#979797" stroke-width="2" fill="#D8D8D8" stroke-linecap="round" points="33 23 42 29.8753882 38.5623059 41 27.4376941 41 24 29.8753882"></polygon>
        <polyline id="Polygon-Copy" stroke="#979797" stroke-width="2" stroke-linecap="round" transform="translate(33.000000, 8.437694) rotate(-180.000000) translate(-33.000000, -8.437694) " points="24 11.8753882 33 5 33 5 42 11.8753882"></polyline>
        <g id="Group-8" transform="translate(4.000000, 15.000000)" stroke-width="2" stroke="#979797">
            <polyline id="Polygon-Copy-2" stroke-linecap="round" transform="translate(16.513076, 37.477130) scale(1, -1) rotate(-210.000000) translate(-16.513076, -37.477130) " points="7.51307568 40.9148245 16.5130757 34.0394363 16.5130757 34.0394363 25.5130757 40.9148245"></polyline>
            <polyline id="Polygon-Copy-3" stroke-linecap="round" transform="translate(6.680994, 9.627758) scale(1, -1) rotate(-293.000000) translate(-6.680994, -9.627758) " points="-2.31900574 13.0654519 6.68099426 6.19006368 6.68099426 6.19006368 15.6809943 13.0654519"></polyline>
            <path d="M20,15 L10,11" id="Line" stroke-linecap="square"></path>
            <path d="M23,27 L19,34" id="Line" stroke-linecap="square"></path>
        </g>
        <polyline id="Polygon-Copy-2" stroke="#979797" stroke-width="2" stroke-linecap="round" transform="translate(45.486924, 52.477130) scale(-1, -1) rotate(-210.000000) translate(-45.486924, -52.477130) " points="36.4869243 55.9148245 45.4869243 49.0394363 45.4869243 49.0394363 54.4869243 55.9148245"></polyline>
        <polyline id="Polygon-Copy-3" stroke="#979797" stroke-width="2" stroke-linecap="round" transform="translate(55.319006, 24.627758) scale(-1, -1) rotate(-293.000000) translate(-55.319006, -24.627758) " points="46.3190057 28.0654519 55.3190057 21.1900637 55.3190057 21.1900637 64.3190057 28.0654519"></polyline>
        <path d="M52,30 L42,26" id="Line" stroke="#979797" stroke-width="2" stroke-linecap="square" transform="translate(47.000000, 28.000000) scale(-1, 1) translate(-47.000000, -28.000000) "></path>
        <path d="M43,42 L39,49" id="Line" stroke="#979797" stroke-width="2" stroke-linecap="square" transform="translate(41.000000, 45.500000) scale(-1, 1) translate(-41.000000, -45.500000) "></path>
        <path d="M33,23 L33,12" id="Line" stroke="#979797" stroke-width="2" stroke-linecap="square"></path>
    </g>
</svg>