<svg xmlns="http://www.w3.org/2000/svg" width="64" height="64" viewBox="0 0 64 64">
  <g fill="none" fill-rule="evenodd">
    <path fill="#ED9111" stroke="#ED9111" stroke-width="2" d="M51.390254 31.8355338C50.581378 31.7553569 50.213707 31.6857916 50.213707 31.6857916 49.878584 25.3246932 44.5889447 20 37.9105941 20 35.7154179 20 32.1664894 21.0788517 30.5535593 22.0409752L30.5535593 46.1424045 37.8816627 46.1424045 51.8350755 46.199C55.1790727 46.199 58.1276729 42.4707715 58.1276729 38.7543337 58.1276729 34.9152723 55.1513467 32.2093 51.390254 31.8355338L51.390254 31.8355338zM25 25L25 47M20 27L20 47M15 28L15 47M10 32L10 47M5 35L5 44"/>
  </g>
</svg>
