<svg xmlns="http://www.w3.org/2000/svg" width="64" height="64" viewBox="0 0 64 64">
  <g fill="none" fill-rule="evenodd">
    <circle cx="35" cy="31" r="7" fill="#80D25B"/>
    <polygon fill="#5DAF38" points="11 31 39 4 39 58"/>
    <path fill="#E43535" fill-rule="nonzero" d="M45.9393398,25.0606602 L56.9393398,36.0606602 C57.5251263,36.6464466 58.4748737,36.6464466 59.0606602,36.0606602 C59.6464466,35.4748737 59.6464466,34.5251263 59.0606602,33.9393398 L48.0606602,22.9393398 C47.4748737,22.3535534 46.5251263,22.3535534 45.9393398,22.9393398 C45.3535534,23.5251263 45.3535534,24.4748737 45.9393398,25.0606602 Z"/>
    <path fill="#80D25B" d="M6,24.0095579 C6,21.7951402 7.78716697,20 10.0072357,20 L23,20 L23,42 L10.0072357,42 C7.79410055,42 6,40.1996477 6,37.9904421 L6,24.0095579 Z"/>
    <path fill="#E43535" fill-rule="nonzero" d="M48.0606602,36.0606602 L59.0606602,25.0606602 C59.6464466,24.4748737 59.6464466,23.5251263 59.0606602,22.9393398 C58.4748737,22.3535534 57.5251263,22.3535534 56.9393398,22.9393398 L45.9393398,33.9393398 C45.3535534,34.5251263 45.3535534,35.4748737 45.9393398,36.0606602 C46.5251263,36.6464466 47.4748737,36.6464466 48.0606602,36.0606602 Z"/>
  </g>
</svg>
