<svg xmlns="http://www.w3.org/2000/svg" width="64" height="64" viewBox="0 0 64 64">
  <g fill="none" fill-rule="evenodd">
    <path fill="#FFDD95" d="M29,12 L29,8 L7.99109042,8 C6.33915679,8 5,9.35292554 5,10.9925398 L5,26 L25,26 L25,30 L59,30 L59,14.9925398 C59,13.3398057 57.6526814,12 55.9999809,12 L29,12 Z"/>
    <rect width="54" height="37" x="5" y="19" fill="#ED9111" rx="5"/>
    <path fill="#5B68C0" d="M32.4140551,43.0855526 L39.1190421,49.4877954 C40.1099348,50.4339472 40.9230769,50.0883334 40.9230769,48.704226 L40.9230769,41.0183498 C42.6627149,40.7719495 44,39.290485 44,37.4997378 C44,35.7089906 42.6627149,34.2275261 40.9230769,33.9811258 L40.9230769,26.2952496 C40.9230769,24.9151698 40.115383,24.5603262 39.1190421,25.5116802 L32.4140551,31.9139229 L26.0000735,31.9139229 C24.9001378,31.9139229 24,32.8081283 24,33.9111864 L24,41.0882891 C24,42.1902158 24.8954634,43.0855526 26.0000735,43.0855526 L32.4140551,43.0855526 Z"/>
  </g>
</svg>
