<svg xmlns="http://www.w3.org/2000/svg" width="64" height="64" viewBox="0 0 64 64">
  <g fill="none" fill-rule="evenodd">
    <path fill="#0A3586" d="M2,18.0028592 C2,16.8967106 2.89989752,16 3.99124431,16 L28.0087557,16 C29.1084896,16 30,16.9018508 30,18.0028592 L30,51.9971408 C30,53.1032894 29.1001025,54 28.0087557,54 L3.99124431,54 C2.89151044,54 2,53.0981492 2,51.9971408 L2,18.0028592 Z"/>
    <circle cx="16" cy="29" r="9" fill="#979797"/>
    <circle cx="16" cy="29" r="5" fill="#D8D8D8"/>
    <circle cx="16" cy="46" r="4" fill="#D8D8D8"/>
    <path fill="#0A3586" d="M34,18.0028592 C34,16.8967106 34.8998975,16 35.9912443,16 L60.0087557,16 C61.1084896,16 62,16.9018508 62,18.0028592 L62,51.9971408 C62,53.1032894 61.1001025,54 60.0087557,54 L35.9912443,54 C34.8915104,54 34,53.0981492 34,51.9971408 L34,18.0028592 Z"/>
    <circle cx="48" cy="29" r="9" fill="#979797"/>
    <circle cx="48" cy="29" r="5" fill="#D8D8D8"/>
    <circle cx="48" cy="46" r="4" fill="#D8D8D8"/>
  </g>
</svg>
