<svg xmlns="http://www.w3.org/2000/svg" width="64" height="64" viewBox="0 0 64 64">
  <g fill="none" fill-rule="evenodd">
    <path fill="#5B68C0" d="M15,42.0023695 C15,39.7919219 16.787167,37.7942228 18.9642898,37.5435455 L32,36.0425936 L45.0357102,37.5435455 C47.225127,37.7956384 49,39.7918218 49,42.0023695 L49,49 L15,49 L15,42.0023695 Z"/>
    <path fill="#FFDD95" d="M26,30.3164468 C22.9897907,27.470456 21,22.8615543 21,19 C21,12.9248678 25.9248678,8 32,8 C38.0751322,8 43,12.9248678 43,19 C43,22.8615543 41.0102093,27.470456 38,30.3164468 L38,36.7734539 C38,36.7734539 33.9325778,38 32,38 C30.0674222,38 26,36.7734539 26,36.7734539 L26,30.3164468 Z"/>
    <circle cx="23" cy="24" r="3" fill="#FFDD95"/>
    <circle cx="41" cy="24" r="3" fill="#FFDD95"/>
    <polygon fill="#FFF" points="24 35.947 31.998 37.825 24 41.947"/>
    <polyline fill="#FFF" points="40.081 35.947 32 37.798 40.081 41.947"/>
    <rect width="64" height="11" y="49" fill="#9C4D4D"/>
    <g transform="translate(2 28)">
      <path stroke="#979797" stroke-linecap="square" stroke-width="2" d="M4 20L4 9M0 12L8 5"/>
      <circle cx="9.5" cy="3.5" r="3.5" fill="#D8D8D8"/>
    </g>
    <g transform="matrix(-1 0 0 1 62 28)">
      <path stroke="#979797" stroke-linecap="square" stroke-width="2" d="M4 20L4 9M0 12L8 5"/>
      <circle cx="9.5" cy="3.5" r="3.5" fill="#D8D8D8"/>
    </g>
  </g>
</svg>
