<svg xmlns="http://www.w3.org/2000/svg" width="64" height="64" viewBox="0 0 64 64">
  <g fill="none" fill-rule="evenodd">
    <g stroke="#979797" stroke-linecap="round" stroke-width="2" transform="translate(6 14)">
      <polyline points="25.048 14.753 11.962 9.617 11.962 .488"/>
      <polyline points="25.026 14.732 8.365 12.994 .805 17.858"/>
      <polyline points="24.588 14.824 5.087 21.427 5.087 41.652"/>
    </g>
    <g stroke="#979797" stroke-linecap="round" stroke-width="2" transform="matrix(-1 0 0 1 55 14)">
      <polyline points="25.048 14.753 11.962 9.617 11.962 .488"/>
      <polyline points="25.026 14.732 8.365 12.994 .805 17.858"/>
      <polyline points="24.588 14.824 5.087 21.427 5.087 41.652"/>
    </g>
    <ellipse cx="31" cy="46" fill="#D650C7" rx="15" ry="17"/>
    <path stroke="#FF78C7" stroke-linecap="round" stroke-width="2" d="M40,54 C40,50.6862915 35.9705627,48 31,48 C26.0294373,48 22,50.6862915 22,54"/>
    <path stroke="#FF78C7" stroke-linecap="round" stroke-width="2" d="M40,49 C40,45.6862915 35.9705627,43 31,43 C26.0294373,43 22,45.6862915 22,49"/>
    <circle cx="31" cy="21" r="8" fill="#FF78C7"/>
    <path stroke="#979797" stroke-linecap="round" stroke-width="2" d="M27.1124321,14.5748134 C27.1124321,14.5748134 21.9246618,12.1323577 23.2024965,7"/>
    <path stroke="#979797" stroke-linecap="round" stroke-width="2" d="M39.1124321,14.5748134 C39.1124321,14.5748134 33.9246618,12.1323577 35.2024965,7" transform="matrix(-1 0 0 1 74.112 0)"/>
  </g>
</svg>
