<?xml version="1.0" encoding="UTF-8"?>
<svg width="64px" height="64px" viewBox="0 0 64 64" version="1.1" xmlns="http://www.w3.org/2000/svg" xmlns:xlink="http://www.w3.org/1999/xlink">
    <!-- Generator: Sketch 43.2 (39069) - http://www.bohemiancoding.com/sketch -->
    <title>sportcar</title>
    <desc>Created with Sketch.</desc>
    <defs></defs>
    <g id="Outdoor-Activities-(142)" stroke="none" stroke-width="1" fill="none" fill-rule="evenodd">
        <path d="M4,40 L16,40 L16,58.0052288 C16,58.5546258 15.544239,59 14.9975267,59 L5.00247329,59 C4.44882258,59 4,58.5490746 4,58.0052288 L4,40 Z" id="Rectangle-180" fill="#595959"></path>
        <path d="M48,40 L60,40 L60,58.0052288 C60,58.5546258 59.544239,59 58.9975267,59 L49.0024733,59 C48.4488226,59 48,58.5490746 48,58.0052288 L48,40 Z" id="Rectangle-180-Copy" fill="#595959"></path>
        <path d="M12.3711017,21.9348588 C12.7184326,20.313981 14.3157786,18.7091828 15.9427546,18.3972219 C15.9427546,18.3972219 21,17 32,17 C43,17 48.0723587,18.3999341 48.0723587,18.3999341 C49.6892503,18.7313413 51.2822327,20.317086 51.6288983,21.9348588 L54,33 L10,33 L12.3711017,21.9348588 Z" id="Rectangle-182" stroke="#5B68C0" stroke-width="2" fill="#B4DFFB" stroke-linecap="round"></path>
        <path d="M3.71780829,39.9726036 C3.32137372,35.0171715 7.03239867,31 11.9988624,31 L52.0011376,31 C56.9710721,31 60.6786654,35.0166825 60.2821917,39.9726036 L59.3987243,51.015946 C59.178515,53.768563 56.7824659,55.7400895 54.0286526,55.4518815 C54.0286526,55.4518815 45.5000217,54.2639083 32.0000145,54.2639083 C18.5000074,54.2639083 9.95932405,55.4530727 9.95932405,55.4530727 C7.22036501,55.7551323 4.82075324,53.7594154 4.60127568,51.015946 L3.71780829,39.9726036 Z" id="Rectangle-176" fill="#5B68C0"></path>
        <rect id="Rectangle-181" fill="#0A3586" x="23" y="42" width="18" height="8" rx="3"></rect>
        <rect id="Rectangle-178" fill="#FCC24C" x="9" y="49" width="11" height="2"></rect>
        <rect id="Rectangle-178-Copy" fill="#FCC24C" x="45" y="49" width="11" height="2"></rect>
        <path d="M7.3274374,41.9646244 C7.14659872,40.8795923 7.88158174,40.1602876 8.96657956,40.3575599 L16.0334204,41.6424401 C17.1195323,41.839915 18,42.8877296 18,44 L18,44 C18,45.1045695 17.1125667,46 16.000385,46 L9.99961498,46 C8.89525812,46 7.85244656,45.1146793 7.6725626,44.0353756 L7.3274374,41.9646244 Z" id="Rectangle-179" fill="#FCC24C"></path>
        <path d="M46.3274374,41.9646244 C46.1465987,40.8795923 46.8815817,40.1602876 47.9665796,40.3575599 L55.0334204,41.6424401 C56.1195323,41.839915 57,42.8877296 57,44 L57,44 C57,45.1045695 56.1125667,46 55.000385,46 L48.999615,46 C47.8952581,46 46.8524466,45.1146793 46.6725626,44.0353756 L46.3274374,41.9646244 Z" id="Rectangle-179-Copy" fill="#FCC24C" transform="translate(51.500000, 43.000000) scale(-1, 1) translate(-51.500000, -43.000000) "></path>
        <path d="M55,27.532984 C55,26.429567 55.8629578,25.7747813 56.9307258,26.0713836 L64,28.0350708 L64,29.5396981 C64,30.641712 63.1041422,31.5350708 62.0026083,31.5350708 L55,31.5350708 L55,27.532984 Z" id="Rectangle-177" fill="#5B68C0"></path>
        <path d="M0,27.532984 C0,26.429567 0.862957835,25.7747813 1.9307258,26.0713836 L9,28.0350708 L9,29.5396981 C9,30.641712 8.10414219,31.5350708 7.0026083,31.5350708 L0,31.5350708 L0,27.532984 Z" id="Rectangle-177-Copy" fill="#5B68C0" transform="translate(4.500000, 28.767535) scale(-1, 1) translate(-4.500000, -28.767535) "></path>
        <path d="M27,30.9979131 C27,29.8944962 27.8874333,29 28.999615,29 L35.000385,29 C36.1047419,29 37,29.8982606 37,30.9979131 L37,35 L27,35 L27,30.9979131 Z" id="Rectangle-183" fill="#5B68C0"></path>
    </g>
</svg>