<svg xmlns="http://www.w3.org/2000/svg" width="64" height="64" viewBox="0 0 64 64">
  <g fill="none" fill-rule="evenodd">
    <polyline stroke="#979797" stroke-linecap="square" stroke-width="2" points="16 24.445 32 8.445 48 24.445"/>
    <path fill="#BD7575" d="M1,27.9932874 C1,26.8924252 1.90035102,26 2.99263021,26 L61.0073698,26 C62.1078691,26 63,26.8997127 63,27.9932874 L63,53.0067126 C63,54.1075748 62.099649,55 61.0073698,55 L2.99263021,55 C1.89213093,55 1,54.1002873 1,53.0067126 L1,27.9932874 Z"/>
    <rect width="58" height="25" x="3" y="28" fill="#5EA7FF"/>
    <rect width="10" height="3" x="10" y="23" fill="#AB5F5F"/>
    <rect width="10" height="3" x="44" y="23" fill="#AB5F5F"/>
    <circle cx="32" cy="10" r="3" fill="#D8D8D8"/>
    <path fill="#FFF" d="M23.27,43.124 C23.27,43.7773366 23.036669,44.3349977 22.57,44.797 C22.103331,45.2590023 21.5526698,45.49 20.918,45.49 C20.5166647,45.49 20.1013355,45.2986686 19.672,44.916 C19.3359983,44.6079985 19.032668,44.2300022 18.762,43.782 C18.5286655,43.389998 18.4259999,43.1426672 18.454,43.04 C18.5566672,42.8066655 18.878664,42.69 19.42,42.69 C19.6440011,42.69 19.8213327,42.7226663 19.952,42.788 C20.1760011,42.9093339 20.3019999,43.0633324 20.33,43.25 C20.3580001,43.4646677 20.4046663,43.5999997 20.47,43.656 C20.666001,43.9546682 20.8433325,44.104 21.002,44.104 C21.1233339,44.104 21.2376661,44.0223342 21.345,43.859 C21.4523339,43.6956659 21.506,43.5020011 21.506,43.278 C21.506,43.1379993 21.4826669,42.9980007 21.436,42.858 C21.3893331,42.7179993 21.1373356,42.5033348 20.68,42.214 C20.1293306,41.8686649 19.7373345,41.5653346 19.504,41.304 C19.1026647,40.8559978 18.902,40.3333363 18.902,39.736 C18.902,39.0359965 19.1073313,38.422336 19.518,37.895 C19.9286687,37.367664 20.4513302,37.104 21.086,37.104 C21.7393366,37.104 22.2386649,37.3513309 22.584,37.846 C22.8640014,38.2473353 22.9806669,38.6533313 22.934,39.064 C23.0366672,39.1760006 23.088,39.3626654 23.088,39.624 C23.088,39.9040014 22.9853344,40.141999 22.78,40.338 C22.5746656,40.534001 22.3646677,40.632 22.15,40.632 C21.8326651,40.632 21.5573345,40.4220021 21.324,40.002 C21.2586663,39.8899994 21.226,39.7406676 21.226,39.554 C21.226,39.4699996 21.2329999,39.3510008 21.247,39.197 C21.2610001,39.0429992 21.268,38.9333337 21.268,38.868 C21.268,38.6253321 21.1793342,38.504 21.002,38.504 C20.731332,38.504 20.596,38.7699973 20.596,39.302 C20.596,39.843336 20.7733316,40.2773317 21.128,40.604 C21.2680007,40.7346673 21.571331,40.9213321 22.038,41.164 C22.4393353,41.3693344 22.7239992,41.5793323 22.892,41.794 C23.1440013,42.1206683 23.27,42.5639972 23.27,43.124 Z M29.696,41.136 C29.696,42.1253383 29.4860021,43.0259959 29.066,43.838 C28.599331,44.7153377 28.0253367,45.154 27.344,45.154 C26.9613314,45.154 26.5693353,44.8506697 26.168,44.244 L26.168,46.036 C26.168,46.1853341 26.2286661,46.3766655 26.35,46.61 C26.4713339,46.8433345 26.532,47.0206661 26.532,47.142 C26.532,47.2353338 26.5086669,47.3286662 26.462,47.422 C26.265999,47.8420021 25.8833362,48.052 25.314,48.052 C24.847331,48.052 24.5580006,47.8840017 24.446,47.548 C24.4086665,47.4359994 24.39,47.3286672 24.39,47.226 C24.39,47.1233328 24.420333,46.9856675 24.481,46.813 C24.541667,46.6403325 24.572,46.4933339 24.572,46.372 L24.572,38.406 C24.572,38.3033328 24.534667,38.1796674 24.46,38.035 C24.385333,37.8903326 24.348,37.7713338 24.348,37.678 C24.348,37.603333 24.3666665,37.5240004 24.404,37.44 C24.5160006,37.1786654 24.8613304,37.048 25.44,37.048 C25.8040018,37.048 26.0466661,37.1226659 26.168,37.272 C26.2146669,37.3280003 26.238,37.3979996 26.238,37.482 C26.238,37.5473337 26.2146669,37.6499993 26.168,37.79 C26.1213331,37.9300007 26.0933334,38.037333 26.084,38.112 C26.5133355,37.4959969 27.0173304,37.188 27.596,37.188 C28.3706705,37.188 28.9353316,37.6266623 29.29,38.504 C29.560668,39.1853367 29.696,40.0626613 29.696,41.136 Z M27.932,41.136 C27.932,40.2493289 27.9133335,39.6846679 27.876,39.442 C27.7826662,38.8353303 27.5493352,38.532 27.176,38.532 C26.9613323,38.532 26.7676675,38.8236637 26.595,39.407 C26.4223325,39.9903363 26.336,40.5666638 26.336,41.136 C26.336,41.5653355 26.4293324,42.0693304 26.616,42.648 C26.8026676,43.2640031 26.9893324,43.572 27.176,43.572 C27.4000011,43.572 27.5866659,43.2873362 27.736,42.718 C27.8666673,42.2233309 27.932,41.6960028 27.932,41.136 Z M35.24,37.776 C35.8653365,38.4106698 36.178,39.4793258 36.178,40.982 C36.178,42.1486725 35.9586689,43.1426626 35.52,43.964 C35.0253309,44.8880046 34.3440043,45.35 33.476,45.35 C32.617329,45.35 31.954669,44.9346708 31.488,44.104 C31.0773313,43.3759964 30.872,42.4520056 30.872,41.332 C30.872,40.3426617 31.0306651,39.4560039 31.348,38.672 C31.6840017,37.8319958 32.1133307,37.3373341 32.636,37.188 C32.906668,37.113333 33.1866652,37.076 33.476,37.076 C34.1946703,37.076 34.7826644,37.309331 35.24,37.776 Z M33.644,38.448 C33.3359985,38.4199999 33.0700011,38.7093303 32.846,39.316 C32.649999,39.8666694 32.552,40.4453303 32.552,41.052 C32.552,41.9293377 32.589333,42.5499982 32.664,42.914 C32.7946673,43.5673366 33.0653313,43.9266663 33.476,43.992 C33.7373346,44.0293335 33.9799989,43.6700038 34.204,42.914 C34.4186677,42.1859964 34.526,41.4066708 34.526,40.576 C34.526,39.2133265 34.2320029,38.5040003 33.644,38.448 Z M42.618,37.86 C42.5806665,38.056001 42.4033349,38.191333 42.086,38.266 C41.7126648,38.3593338 41.4746672,38.4666661 41.372,38.588 L39.09,41.22 L39.09,43.348 C39.09,43.5533344 39.1483328,43.7609989 39.265,43.971 C39.3816673,44.181001 39.44,44.3419994 39.44,44.454 C39.44,44.5660006 39.4073337,44.6919993 39.342,44.832 C39.1833325,45.1866684 38.8613358,45.364 38.376,45.364 C38.0399983,45.364 37.774001,45.2566677 37.578,45.042 C37.4473327,44.9019993 37.382,44.7246677 37.382,44.51 C37.382,44.435333 37.3913332,44.3140008 37.41,44.146 C37.4286668,43.9779992 37.438,43.8426672 37.438,43.74 L37.438,38.504 C37.438,38.4199996 37.400667,38.3173339 37.326,38.196 C37.251333,38.0746661 37.214,37.976667 37.214,37.902 C37.214,37.8459997 37.2326665,37.780667 37.27,37.706 C37.3913339,37.4819989 37.7693302,37.37 38.404,37.37 C38.8986691,37.37 39.1786663,37.4866655 39.244,37.72 C39.2720001,37.8133338 39.286,37.8926663 39.286,37.958 C39.286,38.0606672 39.248667,38.1399997 39.174,38.196 C39.099333,38.2520003 39.062,38.3079997 39.062,38.364 L39.09,38.868 L40.294,37.594 C40.4340007,37.4353325 40.5809992,37.2766675 40.735,37.118 C40.8890008,36.9593325 41.0686656,36.8706668 41.274,36.852 C41.5913349,36.8239999 41.8969985,36.8939992 42.191,37.062 C42.4850015,37.2300008 42.632,37.449332 42.632,37.72 C42.632,37.7666669 42.6273334,37.8133331 42.618,37.86 Z M47.462,38.644 C47.387333,38.644 47.2706675,38.613667 47.112,38.553 C46.9533325,38.492333 46.8320004,38.462 46.748,38.462 C46.6826663,38.462 46.6173337,38.4759999 46.552,38.504 L46.034,38.77 L46.034,43.558 C46.034,43.7353342 46.1296657,43.9639986 46.321,44.244 C46.5123343,44.5240014 46.5893335,44.7479992 46.552,44.916 C46.5053331,45.1213344 46.3676678,45.2846661 46.139,45.406 C45.9103322,45.5273339 45.6653346,45.588 45.404,45.588 C44.9093309,45.588 44.5686676,45.3686689 44.382,44.93 C44.3259997,44.7993327 44.2933334,44.3840035 44.284,43.684 C44.2746666,43.217331 44.2793332,42.4893383 44.298,41.5 C44.3166668,40.3799944 44.326,39.6706682 44.326,39.372 C44.2699997,39.3906668 44.1766673,39.4536661 44.046,39.561 C43.9153327,39.6683339 43.7846673,39.722 43.654,39.722 C43.5513328,39.722 43.4206675,39.6940003 43.262,39.638 C42.6086634,39.4139989 42.282,39.1853345 42.282,38.952 C42.282,38.8959997 42.2959999,38.8353337 42.324,38.77 C42.3893337,38.6206659 42.5106658,38.5366668 42.688,38.518 C42.958668,38.4806665 43.1219997,38.4480001 43.178,38.42 C43.3926677,38.3359996 43.7846638,38.1353349 44.354,37.818 L44.354,36.6 C44.354,36.5066662 44.3283336,36.3830008 44.277,36.229 C44.2256664,36.0749992 44.2,35.960667 44.2,35.886 C44.2,35.8019996 44.2233331,35.722667 44.27,35.648 C44.5126679,35.2746648 44.8393313,35.088 45.25,35.088 C45.7260024,35.088 46.061999,35.2746648 46.258,35.648 C46.332667,35.7973341 46.37,35.9186662 46.37,36.012 C46.37,36.1240006 46.3140006,36.2406661 46.202,36.362 C46.0899994,36.4833339 46.034,36.5953328 46.034,36.698 L46.034,37.384 C46.2020008,37.309333 46.3886656,37.1833342 46.594,37.006 C46.7526675,36.8753327 46.8879994,36.81 47,36.81 C47.0466669,36.81 47.0979997,36.8193332 47.154,36.838 C47.7420029,36.9966675 48.036,37.3513306 48.036,37.902 C48.036,38.0793342 47.9823339,38.2473325 47.875,38.406 C47.7676661,38.5646675 47.6300008,38.644 47.462,38.644 Z"/>
  </g>
</svg>
