<svg xmlns="http://www.w3.org/2000/svg" width="64" height="64" viewBox="0 0 64 64">
  <path fill="#80D25B" fill-rule="evenodd" d="M32.5535593,61.5 C16.8134439,61.5 4.05355927,48.7401154 4.05355927,33 C4.05355927,17.2598846 16.8134439,4.5 32.5535593,4.5 C48.2936746,4.5 61.0535593,17.2598846 61.0535593,33 C61.0535593,48.7401154 48.2936746,61.5 32.5535593,61.5 Z M15.5787447,26.4023676 C15.7523021,26.3377881 16.1217708,26.2121953 16.6685598,26.0455353 C17.6016504,25.7611314 18.6755967,25.4751693 19.8716591,25.2074497 C27.8667537,23.4178741 36.3694069,23.3724021 44.2621463,26.1968565 C46.3098974,26.929654 48.2767939,27.848877 50.1546013,28.9654112 C51.2386996,29.6100102 52.6400856,29.2537256 53.2846846,28.1696273 C53.9292836,27.085529 53.572999,25.6841429 52.4889007,25.039544 C50.3547535,23.7705916 48.1213675,22.7268254 45.801053,21.8964898 C36.975635,18.7382719 27.6399274,18.7881991 18.8739996,20.7503135 C16.6169533,21.2555177 14.9403425,21.7665449 13.9859291,22.1216754 C12.8038486,22.5615193 12.2021469,23.8763489 12.6419908,25.0584294 C13.0818347,26.2405099 14.3966642,26.8422115 15.5787447,26.4023676 Z M19.0672298,34.9481832 C19.1183627,34.9204862 19.2839805,34.8412588 19.5617335,34.7262988 C20.0667379,34.517281 20.6794709,34.303936 21.3977829,34.1019328 C27.9172411,32.2685355 36.5764592,32.7592692 47.2249535,37.3229095 C48.3842344,37.8197442 49.7267814,37.2827254 50.2236161,36.1234445 C50.7204507,34.9641636 50.183432,33.6216166 49.024151,33.1247819 C37.402901,28.1442462 27.6723767,27.5927997 20.1612976,29.7050599 C18.61032,30.1412247 17.5147452,30.5946753 16.8918414,30.9320815 C15.7828256,31.5327984 15.3707679,32.9188107 15.9714848,34.0278265 C16.5722017,35.1368424 17.958214,35.5489001 19.0672298,34.9481832 Z M19.7280662,43.2870702 C19.8158078,43.2526003 20.0262389,43.1775489 20.3493105,43.0749319 C20.9127144,42.8959784 21.5692928,42.7151338 22.3089141,42.5452647 C29.0576019,40.9952914 36.4302804,41.4810088 43.3375717,45.4280324 C44.4326521,46.0537926 45.8276691,45.6733334 46.4534293,44.578253 C47.0791896,43.4831726 46.6987304,42.0881557 45.60365,41.4623954 C37.5655872,36.8692167 29.0584335,36.3087592 21.2865298,38.0937349 C19.7953515,38.4362144 18.694379,38.7859153 18.0579758,39.0359309 C16.8840561,39.4971136 16.3062686,40.822626 16.7674513,41.9965457 C17.2286341,43.1704654 18.5541465,43.7482529 19.7280662,43.2870702 Z"/>
</svg>
