<svg xmlns="http://www.w3.org/2000/svg" width="64" height="64" viewBox="0 0 64 64">
  <g fill="none" fill-rule="evenodd">
    <path fill="#B6B6B6" d="M7,27 L61,27 L61,59 L7,59 L7,27 Z M34,12 L61,27 L7,27 L34,12 Z"/>
    <polygon fill="#B4DFFB" points="14 5 43.105 5 54 16.753 54 55 14 55"/>
    <polygon fill="#4796E7" points="43 5 54 5 54 17" transform="rotate(-180 48.5 11)"/>
    <polygon fill="#D8D8D8" points="32 46.5 7 59 7 27"/>
    <polygon fill="#D8D8D8" points="61 46.5 36 59 36 27" transform="matrix(-1 0 0 1 97 0)"/>
    <polygon fill="#ECECEC" points="34 44 61 59 7 59"/>
    <path fill="#FDB145" d="M28,42 L40,42 L40,54.0005775 C40,55.6571128 38.6583772,57 37.002848,57 L30.997152,57 C29.3418707,57 28,55.6556493 28,54.0005775 L28,42 Z"/>
    <path fill="#F5413E" d="M36.2062715,48.4047712 C34.9877832,47.2787187 33.0136553,47.2773953 31.793735,48.4047712 L31.6605773,48.5278275 C30.442089,49.65388 29.5519882,49.227243 29.6727982,47.5705635 L29.685985,47.3897323 C29.8066533,45.7349976 28.5768393,44.1907371 26.9348135,43.9398724 L26.7555818,43.9124898 C25.1154834,43.6619195 24.8940729,42.7000069 26.2646409,41.7615373 L26.4142422,41.6591007 C27.7832014,40.7217327 28.2237764,38.7973948 27.396124,37.3571957 L27.3057834,37.1999939 C26.4791025,35.7614854 27.0931089,34.9886369 28.6813692,35.4750639 L28.8547322,35.5281588 C30.4411281,36.0140148 32.2203301,35.1586651 32.8302903,33.6136309 L32.8968691,33.4449861 C33.5061133,31.9017656 34.4931772,31.899952 35.1031374,33.4449861 L35.1697162,33.6136309 C35.7789604,35.1568515 37.557014,36.0145858 39.1452743,35.5281588 L39.3186373,35.4750639 C40.9050332,34.9892079 41.5218755,35.7597948 40.6942231,37.1999939 L40.6038825,37.3571957 C39.7772016,38.7957042 40.2151962,40.7206311 41.5857643,41.6591007 L41.7353656,41.7615373 C43.1043248,42.6989053 42.8864506,43.661625 41.2444247,43.9124898 L41.065193,43.9398724 C39.4250947,44.1904426 38.1932114,45.7330529 38.3140215,47.3897323 L38.3272082,47.5705635 C38.4478765,49.2252983 37.5593495,49.6552034 36.3394292,48.5278275 L36.2062715,48.4047712 Z"/>
  </g>
</svg>
