<svg xmlns="http://www.w3.org/2000/svg" width="64" height="64" viewBox="0 0 64 64">
  <g fill="none" fill-rule="evenodd" transform="matrix(-1 0 0 1 55 19)">
    <rect width="4" height="26" x="6" fill="#80D25B" rx="1"/>
    <rect width="4" height="26" fill="#80D25B" rx="1"/>
    <rect width="4" height="26" x="12" fill="#80D25B" rx="1"/>
    <rect width="4" height="26" x="18" fill="#80D25B" rx="1"/>
    <path fill="#22BA8E" d="M26,1.00329963 C26,0.449192547 26.4471413,0 26.9954634,0 L30.0431275,0 C30.5929068,0 31.360941,0.321350098 31.748963,0.708168512 L43.3686706,12.2918315 C43.7609983,12.6829422 43.756178,13.3213501 43.3768118,13.6989365 L31.7199987,25.3010635 C31.3321673,25.6870755 30.5724744,26 30.0264184,26 L26.9913495,26 C26.4438423,26 26,25.5487213 26,24.9967004 L26,1.00329963 Z"/>
  </g>
</svg>
