<svg xmlns="http://www.w3.org/2000/svg" width="64" height="64" viewBox="0 0 64 64">
  <g fill="none" fill-rule="evenodd">
    <path fill="#D8D8D8" d="M23.948706,50.3008464 L23.948706,51 L3,51 L3,35.8388323 L20.1036052,35.8388323 C32.3807729,30.996427 58.6701672,23 58.6701672,23 L59.8683065,26.0751001 C60.2698179,27.1056042 59.7402432,28.1958 58.6838573,28.5059856 L23.948706,38.7052362 L23.948706,45.2471238 L32.9239694,45.2471238 C34.0273616,45.2471238 34.9218377,46.1506282 34.9218377,47.2444888 L34.9218377,50.3008464 L23.948706,50.3008464 Z"/>
    <circle cx="20" cy="42" r="2" fill="#FFF"/>
    <path fill="#5B68C0" d="M3,49 L63,49 L63,51.9951185 C63,53.102384 62.1052696,54 61.0036926,54 L4.99630737,54 C3.89377725,54 3,53.1061002 3,51.9951185 L3,49 Z"/>
    <path fill="#5B68C0" d="M3,48 C3,46.8954305 3.89451376,46 4.99406028,46 L17.0059397,46 C18.1072288,46 19,46.8877296 19,48 L19,50 L3,50 L3,48 Z"/>
    <path fill="#5B68C0" d="M-1.49117278,23.4069112 L61.3279051,22.3808507 L61.3279051,30.3850245 C61.3279051,32.5918584 59.5322243,34.3808507 57.3213495,34.3808507 L3.32421246,34.3808507 C2.22168234,34.3808507 1.10669677,33.5197441 0.830399822,32.4441917 L-1.49117278,23.4069112 Z" transform="scale(1 -1) rotate(20 190.874 0)"/>
  </g>
</svg>
