<svg xmlns="http://www.w3.org/2000/svg" xmlns:xlink="http://www.w3.org/1999/xlink" width="64" height="64" viewBox="0 0 64 64">
  <defs>
    <path id="star-a" d="M32.1527818,47.6446499 C30.6876909,46.874406 28.3136229,46.8737154 26.8472182,47.6446499 L13.6375464,54.5893854 C12.1724554,55.3596293 11.2113424,54.662985 11.4914008,53.0301194 L14.0142236,38.3209336 C14.2940311,36.6895309 13.5610606,34.4314446 12.3747143,33.2750428 L1.6878653,22.8579396 C0.502581837,21.7025737 0.868129662,20.573226 2.50761997,20.3349941 L17.276482,18.1889529 C18.9145035,17.9509344 20.8355708,16.5560511 21.5687732,15.0704208 L28.1736091,1.68756152 C28.9061546,0.203262279 30.0931886,0.201931286 30.8263909,1.68756152 L37.4312268,15.0704208 C38.1637723,16.5547201 40.0840276,17.950721 41.723518,18.1889529 L56.49238,20.3349941 C58.1304015,20.5730126 58.498481,21.7015377 57.3121347,22.8579396 L46.6252857,33.2750428 C45.4400022,34.4304086 44.705718,36.688068 44.9857764,38.3209336 L47.5085992,53.0301194 C47.7884067,54.6615221 46.8288583,55.36032 45.3624536,54.5893854 L32.1527818,47.6446499 Z"/>
  </defs>
  <g fill="none" fill-rule="evenodd" transform="translate(3 5)">
    <mask id="star-b" fill="#fff">
      <use xlink:href="#star-a"/>
    </mask>
    <use fill="#FFAF40" xlink:href="#star-a"/>
    <rect width="41" height="64" x="30" y="-2" fill="#FFDD95" mask="url(#star-b)"/>
  </g>
</svg>
