<svg xmlns="http://www.w3.org/2000/svg" width="64" height="64" viewBox="0 0 64 64">
  <g fill="none" fill-rule="evenodd">
    <path fill="#979797" stroke="#949EA7" stroke-linecap="round" stroke-linejoin="round" stroke-width="2" d="M42.5535593,40 L45.5535593,33 C45.5535593,33 47.2895545,35.5750543 48.8035593,37 C50.1228878,38.241721 55.0535593,38 55.0535593,38 L48.0535593,44 L42.5535593,40 Z"/>
    <circle cx="53.554" cy="31" r="7" stroke="#595959" stroke-linecap="round" stroke-linejoin="round" stroke-width="2"/>
    <circle cx="53.554" cy="31" r="3" stroke="#595959" stroke-linecap="round" stroke-linejoin="round" stroke-width="2"/>
    <path stroke="#595959" stroke-linecap="round" stroke-linejoin="round" stroke-width="2" d="M17.5057414 32.7075685C17.1148459 29.4914805 14.3751608 27 11.0535593 27 7.46370839 27 4.55355927 29.9101491 4.55355927 33.5 4.55355927 37.0898509 7.46370839 40 11.0535593 40L11.0535593 40C12.5190539 40 13.8712736 39.5150121 14.9584729 38.6967817M36.7593314 47.9955366C37.4107855 50.3063242 39.5343828 52 42.0535593 52 45.0911254 52 47.5535593 49.5375661 47.5535593 46.5 47.5535593 43.4624339 45.0911254 41 42.0535593 41 40.8876983 41 39.806562 41.3627493 38.9168601 41.9815382"/>
    <path fill="#979797" fill-rule="nonzero" stroke="#595959" stroke-width="2" d="M9.41588902,36.2759154 L39.915889,48.7759154 C41.4489848,49.4042333 43.2011568,48.670766 43.8294747,47.1376703 C44.4577926,45.6045745 43.7243253,43.8524025 42.1912295,43.2240846 L11.6912295,30.7240846 C10.1581338,30.0957667 8.40596178,30.829234 7.77764385,32.3623297 C7.14932592,33.8954255 7.88279327,35.6475975 9.41588902,36.2759154 L9.41588902,36.2759154 Z"/>
    <path stroke="#595959" stroke-linecap="round" stroke-linejoin="round" stroke-width="2" d="M47.0535593 28.5L42.5535593 40.5M47.5535593 45.5L58.5535593 36"/>
  </g>
</svg>
