<?xml version="1.0" encoding="UTF-8"?>
<svg width="64px" height="64px" viewBox="0 0 64 64" version="1.1" xmlns="http://www.w3.org/2000/svg" xmlns:xlink="http://www.w3.org/1999/xlink">
    <!-- Generator: Sketch 43.2 (39069) - http://www.bohemiancoding.com/sketch -->
    <title>stratrace</title>
    <desc>Created with Sketch.</desc>
    <defs>
        <polygon id="path-1" points="10 0 37 0 47 57 0 57"></polygon>
    </defs>
    <g id="Outdoor-Activities-(142)" stroke="none" stroke-width="1" fill="none" fill-rule="evenodd">
        <rect id="Rectangle-112-Copy-3" fill="#BD7575" x="2" y="4" width="3" height="55"></rect>
        <rect id="Rectangle-112-Copy-2" fill="#BD7575" x="60" y="4" width="3" height="55"></rect>
        <g id="Path-51" transform="translate(9.000000, 5.000000)">
            <mask id="mask-2" fill="white">
                <use xlink:href="#path-1"></use>
            </mask>
            <use id="Mask" fill="#E43535" xlink:href="#path-1"></use>
            <path d="M1,45 L46,45" id="Line" stroke="#ED9111" stroke-width="2" stroke-linecap="square" mask="url(#mask-2)"></path>
            <path d="M9,59 L13.503853,-5" stroke="#ED9111" stroke-width="2" stroke-linecap="round" mask="url(#mask-2)"></path>
            <path d="M34,59 L38.503853,-5" id="Path-51-Copy" stroke="#ED9111" stroke-width="2" stroke-linecap="round" mask="url(#mask-2)" transform="translate(36.251926, 27.000000) scale(-1, 1) translate(-36.251926, -27.000000) "></path>
            <path d="M19,60.6178623 L20.7442781,-10" id="Path-52" stroke="#ED9111" stroke-width="2" stroke-linecap="round" mask="url(#mask-2)"></path>
            <path d="M27,60.6178623 L28.7442781,-10" id="Path-52-Copy" stroke="#ED9111" stroke-width="2" stroke-linecap="round" mask="url(#mask-2)" transform="translate(27.872139, 25.308931) scale(-1, 1) translate(-27.872139, -25.308931) "></path>
        </g>
        <path d="M2,7 C2,7 17.25,10 32.5,10 C47.75,10 63,7 63,7 L63,25 C63,25 47.75,28 32.5,28 C17.25,28 2,25 2,25 L2,7 Z" id="Rectangle-111-Copy" fill="#5B68C0"></path>
        <path d="M23.538,22.008 C23.538,22.6320031 23.340002,23.1779977 22.944,23.646 C22.547998,24.1140023 22.0580029,24.348 21.474,24.348 C20.2979941,24.348 19.4340028,23.7880056 18.882,22.668 C18.281997,22.275998 17.982,21.9440014 17.982,21.672 C17.982,21.5359993 18.0659992,21.4240004 18.234,21.336 C18.5620016,21.1599991 18.8619986,21.072 19.134,21.072 C19.726003,21.072 20.121999,21.4239965 20.322,22.128 C20.4180005,22.320001 20.5179995,22.511999 20.622,22.704 C20.7260005,22.896001 20.8659991,22.992 21.042,22.992 C21.5140024,22.992 21.75,22.6560034 21.75,21.984 C21.75,21.383997 21.6420011,20.980001 21.426,20.772 C21.3299995,20.6839996 20.9460034,20.5000014 20.274,20.22 C19.7379973,19.9959989 19.3060016,19.6120027 18.978,19.068 C18.6819985,18.5719975 18.53,18.0560027 18.522,17.52 C18.514,16.6559957 18.7299978,15.8880034 19.17,15.216 C19.6340023,14.4959964 20.2099966,14.136 20.898,14.136 C21.698004,14.136 22.2819982,14.4559968 22.65,15.096 C22.8900012,15.496002 23.0259998,15.991997 23.058,16.584 C23.1460004,16.8880015 23.19,17.1639988 23.19,17.412 C23.19,17.5720008 23.1700002,17.7039995 23.13,17.808 C23.0099994,18.1040015 22.7740018,18.252 22.422,18.252 C22.1579987,18.252 21.9180011,18.156001 21.702,17.964 C21.4619988,17.755999 21.3140003,17.4640019 21.258,17.088 C21.2339999,16.9599994 21.2599996,16.8320006 21.336,16.704 C21.4120004,16.5759994 21.45,16.5040001 21.45,16.488 C21.45,16.4719999 21.4420001,16.4560001 21.426,16.44 C21.434,16.3999998 21.438,16.3600002 21.438,16.32 C21.438,16.0799988 21.2980014,15.9679999 21.018,15.984 C20.7459986,16.0000001 20.5340008,16.1799983 20.382,16.524 C20.2459993,16.8200015 20.1859999,17.1599981 20.202,17.544 C20.2260001,18.2240034 20.6739956,18.767998 21.546,19.176 C22.2340034,19.4960016 22.7099987,19.8119984 22.974,20.124 C23.3500019,20.5720022 23.538,21.199996 23.538,22.008 Z M29.37,15.72 C29.2819996,15.8880008 29.0940014,15.972 28.806,15.972 C28.4299981,15.972 28.2100003,15.9839999 28.146,16.008 C27.8499985,16.1360006 27.506002,16.2799992 27.114,16.44 C27.0899999,17.048003 27.078,17.7159964 27.078,18.444 C27.078,19.9240074 27.1219996,21.4399922 27.21,22.992 C27.21,23.1040006 27.2519996,23.2499991 27.336,23.43 C27.4200004,23.6100009 27.462,23.7399996 27.462,23.82 C27.462,23.9240005 27.4260004,24.0199996 27.354,24.108 C27.1779991,24.3480012 26.9140018,24.468 26.562,24.468 C26.2579985,24.468 25.9680014,24.3860008 25.692,24.222 C25.4159986,24.0579992 25.2580002,23.8640011 25.218,23.64 C25.1939999,23.5199994 25.2559993,23.3840008 25.404,23.232 C25.5520007,23.0799992 25.626,22.9360007 25.626,22.8 C25.5699997,21.207992 25.542,19.816006 25.542,18.624 C25.542,17.9039964 25.5539999,17.3280022 25.578,16.896 C25.57,16.896 25.4580011,16.9359996 25.242,17.016 C25.0979993,17.0720003 24.9820004,17.1 24.894,17.1 C24.7659994,17.1 24.6500005,17.0560004 24.546,16.968 C24.2899987,16.7519989 24.1300003,16.6080004 24.066,16.536 C23.9379994,16.3919993 23.874,16.2400008 23.874,16.08 C23.874,16.0239997 23.8819999,15.9600004 23.898,15.888 C23.9220001,15.7759994 24.5059943,15.5480017 25.65,15.204 C26.8820062,14.8279981 27.5459995,14.6080003 27.642,14.544 C27.7300004,14.5119998 27.8279995,14.4400006 27.936,14.328 C28.0440005,14.2159994 28.1619994,14.1520001 28.29,14.136 C28.4660009,14.1199999 28.6979986,14.2359988 28.986,14.484 C29.3060016,14.7640014 29.466,15.0559985 29.466,15.36 C29.466,15.4800006 29.4340003,15.5999994 29.37,15.72 Z M35.142,21.552 C35.0859997,21.6560005 34.962001,21.7199999 34.77,21.744 C34.7539999,21.744 34.5820016,21.7519999 34.254,21.768 C34.3100003,22.1280018 34.5179982,22.5759973 34.878,23.112 C35.086001,23.2640008 35.19,23.4639988 35.19,23.712 C35.19,24.104002 34.9500024,24.3 34.47,24.3 C34.0139977,24.3 33.7020008,24.1840012 33.534,23.952 C33.4779997,23.8719996 33.4420001,23.7640007 33.426,23.628 C33.426,23.5399996 33.422,23.4480005 33.414,23.352 C33.3419996,23.2799996 33.1260018,22.8160043 32.766,21.96 C32.1099967,22.0560005 31.3020048,22.1919991 30.342,22.368 C30.2459995,22.6000012 30.1420006,22.9359978 30.03,23.376 C30.0460001,23.4560004 30.054,23.5319996 30.054,23.604 C30.054,23.8200011 29.9820007,23.9859994 29.838,24.102 C29.6939993,24.2180006 29.522001,24.276 29.322,24.276 C29.0979989,24.276 28.890001,24.1920008 28.698,24.024 C28.505999,23.8559992 28.41,23.6600011 28.41,23.436 C28.41,23.235999 28.5019991,23.0560008 28.686,22.896 C29.286003,19.8479848 30.0139957,17.32801 30.87,15.336 C30.8539999,15.2399995 30.846,15.1440005 30.846,15.048 C30.846,14.647998 30.9819986,14.3840006 31.254,14.256 C31.3660006,14.2079998 31.5099991,14.184 31.686,14.184 C32.0220017,14.184 32.3019989,14.2359995 32.526,14.34 C32.8140014,14.4840007 32.958,14.6999986 32.958,14.988 C32.958,15.2520013 32.8860007,15.487999 32.742,15.696 C32.8940008,17.0560068 33.2219975,18.6239911 33.726,20.4 C33.7740002,20.392 33.9379986,20.3520004 34.218,20.28 C34.3860008,20.2319998 34.5139996,20.208 34.602,20.208 C34.7060005,20.208 34.7899997,20.2319998 34.854,20.28 C35.1340014,20.4960011 35.274,20.7599984 35.274,21.072 C35.274,21.2400008 35.2300004,21.3999992 35.142,21.552 Z M32.262,20.64 C32.1259993,20.1359975 31.9100015,19.1680072 31.614,17.736 C31.0459972,18.9760062 30.7100005,20.0399956 30.606,20.928 L32.262,20.64 Z M42.654,23.208 C42.662,23.2560002 42.666,23.2999998 42.666,23.34 C42.666,23.5800012 42.5260014,23.7819992 42.246,23.946 C41.9659986,24.1100008 41.6740015,24.192 41.37,24.192 C41.1859991,24.192 41.0380006,24.1560004 40.926,24.084 C40.8459996,24.0359998 40.7760003,23.9420007 40.716,23.802 C40.6559997,23.6619993 40.5900004,23.5680002 40.518,23.52 L37.866,21.744 L37.974,22.848 C37.982,22.9040003 38.0439994,23.0199991 38.16,23.196 C38.2760006,23.3720009 38.334,23.5199994 38.334,23.64 C38.334,23.8160009 38.2220011,23.9799992 37.998,24.132 C37.8619993,24.2280005 37.690001,24.276 37.482,24.276 C37.1859985,24.276 36.9100013,24.1960008 36.654,24.036 C36.3739986,23.8759992 36.2060003,23.6720012 36.15,23.424 C36.142,23.3759998 36.138,23.3360002 36.138,23.304 C36.138,23.1919994 36.1919995,23.0940004 36.3,23.01 C36.4080005,22.9259996 36.462,22.8480004 36.462,22.776 L36.078,15.936 C36.07,15.8319995 36.0260004,15.6940009 35.946,15.522 C35.8659996,15.3499991 35.826,15.2240004 35.826,15.144 C35.826,14.935999 35.9619986,14.7680006 36.234,14.64 C36.4580011,14.5279994 36.6859988,14.472 36.918,14.472 C37.0700008,14.472 37.2019994,14.4939998 37.314,14.538 C37.4260006,14.5820002 37.5019998,14.6499995 37.542,14.742 C37.5820002,14.8340005 37.6299997,14.88 37.686,14.88 C37.694,14.888 37.9379976,14.8000009 38.418,14.616 C38.9780028,14.407999 39.4699979,14.304 39.894,14.304 C40.5100031,14.304 41.0059981,14.5199978 41.382,14.952 C41.4860005,15.0720006 41.538,15.2399989 41.538,15.456 C41.538,16.0400029 41.2020034,16.8639947 40.53,17.928 C39.8899968,18.928005 39.2300034,19.727997 38.55,20.328 L41.646,22.488 C41.654,22.496 41.853998,22.5919991 42.246,22.776 C42.4700011,22.8800005 42.6059998,23.0239991 42.654,23.208 Z M39.438,15.756 C39.2619991,15.756 38.9820019,15.9239983 38.598,16.26 C38.5179996,16.3240003 38.2220026,16.5999976 37.71,17.088 L37.686,19.236 C38.1820025,18.6919973 38.629998,18.0860033 39.03,17.418 C39.430002,16.7499967 39.63,16.2720014 39.63,15.984 C39.63,15.8319992 39.5660006,15.756 39.438,15.756 Z M47.982,15.72 C47.8939996,15.8880008 47.7060014,15.972 47.418,15.972 C47.0419981,15.972 46.8220003,15.9839999 46.758,16.008 C46.4619985,16.1360006 46.118002,16.2799992 45.726,16.44 C45.7019999,17.048003 45.69,17.7159964 45.69,18.444 C45.69,19.9240074 45.7339996,21.4399922 45.822,22.992 C45.822,23.1040006 45.8639996,23.2499991 45.948,23.43 C46.0320004,23.6100009 46.074,23.7399996 46.074,23.82 C46.074,23.9240005 46.0380004,24.0199996 45.966,24.108 C45.7899991,24.3480012 45.5260018,24.468 45.174,24.468 C44.8699985,24.468 44.5800014,24.3860008 44.304,24.222 C44.0279986,24.0579992 43.8700002,23.8640011 43.83,23.64 C43.8059999,23.5199994 43.8679993,23.3840008 44.016,23.232 C44.1640007,23.0799992 44.238,22.9360007 44.238,22.8 C44.1819997,21.207992 44.154,19.816006 44.154,18.624 C44.154,17.9039964 44.1659999,17.3280022 44.19,16.896 C44.182,16.896 44.0700011,16.9359996 43.854,17.016 C43.7099993,17.0720003 43.5940004,17.1 43.506,17.1 C43.3779994,17.1 43.2620005,17.0560004 43.158,16.968 C42.9019987,16.7519989 42.7420003,16.6080004 42.678,16.536 C42.5499994,16.3919993 42.486,16.2400008 42.486,16.08 C42.486,16.0239997 42.4939999,15.9600004 42.51,15.888 C42.5340001,15.7759994 43.1179943,15.5480017 44.262,15.204 C45.4940062,14.8279981 46.1579995,14.6080003 46.254,14.544 C46.3420004,14.5119998 46.4399995,14.4400006 46.548,14.328 C46.6560005,14.2159994 46.7739994,14.1520001 46.902,14.136 C47.0780009,14.1199999 47.3099986,14.2359988 47.598,14.484 C47.9180016,14.7640014 48.078,15.0559985 48.078,15.36 C48.078,15.4800006 48.0460003,15.5999994 47.982,15.72 Z" id="START" fill="#FFFFFF"></path>
    </g>
</svg>