<?xml version="1.0" encoding="UTF-8"?>
<svg width="64px" height="64px" viewBox="0 0 64 64" version="1.1" xmlns="http://www.w3.org/2000/svg" xmlns:xlink="http://www.w3.org/1999/xlink">
    <!-- Generator: Sketch 43.2 (39069) - http://www.bohemiancoding.com/sketch -->
    <title>streetskate</title>
    <desc>Created with Sketch.</desc>
    <defs></defs>
    <g id="Outdoor-Activities-(142)" stroke="none" stroke-width="1" fill="none" fill-rule="evenodd">
        <rect id="Rectangle-211" fill="#595959" transform="translate(57.870058, 21.186292) rotate(-315.000000) translate(-57.870058, -21.186292) " x="54.8700577" y="15.6862915" width="6" height="11" rx="2"></rect>
        <rect id="Rectangle-211-Copy-2" fill="#595959" transform="translate(25.343146, 53.713203) rotate(-315.000000) translate(-25.343146, -53.713203) " x="22.3431458" y="48.2132034" width="6" height="11" rx="2"></rect>
        <rect id="Rectangle-211-Copy" fill="#595959" transform="translate(42.313708, 5.629942) rotate(-315.000000) translate(-42.313708, -5.629942) " x="39.3137085" y="0.129942315" width="6" height="11" rx="2"></rect>
        <rect id="Rectangle-211-Copy-3" fill="#595959" transform="translate(9.786797, 38.156854) rotate(-315.000000) translate(-9.786797, -38.156854) " x="6.78679656" y="32.6568542" width="6" height="11" rx="2"></rect>
        <path d="M34.2498754,71.112974 C38.9064893,62.8398166 44.1174728,37.79029 44.1174728,23.0486588 C44.1174728,4.82326209 37.7448898,-7.83066381 31.1174728,-7.83066381 C24.4900558,-7.83066381 18.1174728,4.82326209 18.1174728,23.0486588 C18.1174728,37.8262373 23.3539012,62.9522781 28.0191256,71.1732322 C29.1075885,73.0912971 33.149417,73.0680997 34.2498754,71.112974 Z" id="Oval-104" fill="#80D25B" transform="translate(31.117473, 32.382527) rotate(-315.000000) translate(-31.117473, -32.382527) "></path>
        <path d="M44.4350288,9.49390335 L44.4350288,13.617009" id="Line" stroke="#979797" stroke-width="2" stroke-linecap="square" transform="translate(44.435029, 11.993903) rotate(-315.000000) translate(-44.435029, -11.993903) "></path>
        <path d="M51.5060967,16.5649712 L51.5060967,20.6880768" id="Line-Copy-144" stroke="#979797" stroke-width="2" stroke-linecap="square" transform="translate(51.506097, 19.064971) rotate(-315.000000) translate(-51.506097, -19.064971) "></path>
        <path d="M47.9705627,13.0294373 L47.9705627,17.1525429" id="Line-Copy-145" stroke="#979797" stroke-width="2" stroke-linecap="square" transform="translate(47.970563, 15.529437) rotate(-315.000000) translate(-47.970563, -15.529437) "></path>
        <path d="M16.1507576,37.7781746 L16.1507576,41.9012802" id="Line-Copy-142" stroke="#979797" stroke-width="2" stroke-linecap="square" transform="translate(16.150758, 40.278175) rotate(-315.000000) translate(-16.150758, -40.278175) "></path>
        <path d="M23.2218254,44.8492424 L23.2218254,48.972348" id="Line-Copy-147" stroke="#979797" stroke-width="2" stroke-linecap="square" transform="translate(23.221825, 47.349242) rotate(-315.000000) translate(-23.221825, -47.349242) "></path>
        <path d="M19.6862915,41.3137085 L19.6862915,45.4368141" id="Line-Copy-146" stroke="#979797" stroke-width="2" stroke-linecap="square" transform="translate(19.686292, 43.813708) rotate(-315.000000) translate(-19.686292, -43.813708) "></path>
    </g>
</svg>