<svg xmlns="http://www.w3.org/2000/svg" width="64" height="64" viewBox="0 0 64 64">
  <g fill="none" fill-rule="evenodd">
    <path fill="#5B68C0" d="M9.125,49.9206814 C9.125,47.707202 10.9000001,45.6994337 13.0942715,45.4356406 L33,43.0425936 L52.9057285,45.4356406 C55.0978966,45.6991808 56.875,47.7006188 56.875,49.9206814 L56.875,62.0425936 L9.125,62.0425936 L9.125,49.9206814 Z"/>
    <path fill="#FFDD95" d="M25.0909091,40.0820517 C21.122906,36.3171352 18.5,30.2233999 18.5,25.1331692 C18.5,17.1250403 24.9918711,10.6331692 33,10.6331692 C41.0081289,10.6331692 47.5,17.1250403 47.5,25.1331692 C47.5,30.2233999 44.877094,36.3171352 40.9090909,40.0820517 L40.9090909,48.9058965 C40.9090909,48.9058965 35.5474889,50.8154815 33,50.8154815 C30.4525111,50.8154815 25.0909091,48.9058965 25.0909091,48.9058965 L25.0909091,40.0820517 Z"/>
    <circle cx="19" cy="28" r="3" fill="#FFDD95"/>
    <circle cx="47" cy="28" r="3" fill="#FFDD95"/>
    <path fill="#595959" d="M47,18.9999995 L47,10 L18,10 L18,19 C18,20.6568542 24.4918711,22 32.5,22 C40.5081289,22 47,20.6568542 47,19 Z"/>
    <polygon fill="#6C6C6C" points="12 11.196 33.17 3 54 11.196 33.17 15.835"/>
  </g>
</svg>
