<svg xmlns="http://www.w3.org/2000/svg" width="64" height="64" viewBox="0 0 64 64">
  <g fill="none" fill-rule="evenodd">
    <path fill="#595959" d="M48,52 L48,40 L16,40 L16,52 C16,53.6568542 23.163444,55 32,55 C40.836556,55 48,53.6568542 48,52 Z"/>
    <polygon fill="#868686" points="8 39.907 32.718 31 57.02 39.907 32.718 47.301"/>
    <path fill="#80D25B" fill-rule="nonzero" d="M8,11 L22.9962991,11 C25.2117034,11 27,12.7853228 27,15.0006595 L27,29 L31,29 L31,15.0006595 C31,10.5746921 27.4193535,7 22.9962991,7 L8,7 L8,11 Z"/>
    <polygon fill="#80D25B" points="3 9 11 4 11 14"/>
    <path fill="#80D25B" fill-rule="nonzero" d="M58,7 L43.0037009,7 C38.5806465,7 35,10.5746921 35,15.0006595 L35,29 L39,29 L39,15.0006595 C39,12.7853228 40.7882966,11 43.0037009,11 L58,11 L58,7 Z"/>
    <polygon fill="#80D25B" points="55 9 63 4 63 14" transform="matrix(-1 0 0 1 118 0)"/>
    <polygon fill="#F1BE27" fill-rule="nonzero" points="21.967 39.792 21.584 37.829 14 40.376 14 57.096 16 57.096 16 42.023"/>
    <polygon fill="#FF462C" fill-rule="nonzero" points="16.018 60.425 16.848 62.029 18.624 61.109 16.013 56.065 14.058 56.087 11.447 61.131 13.223 62.05 14.018 60.516 14.015 64.055 16.015 64.056"/>
  </g>
</svg>
