<svg xmlns="http://www.w3.org/2000/svg" width="64" height="64" viewBox="0 0 64 64">
  <g fill="none" fill-rule="evenodd">
    <polyline stroke="#D8D8D8" stroke-dasharray="4" stroke-linecap="round" stroke-width="2" points="37 45.6 44.887 45.6 44.887 25"/>
    <polygon fill="#325AA6" points="30 3 58 3 58 21 30 21"/>
    <path fill="#4796E7" d="M28,21 L60,21 L60,22.5 C60,23.3284271 59.3316345,24 58.4994941,24 L29.5005059,24 C28.6717994,24 28,23.3342028 28,22.5 L28,21 Z"/>
    <path fill="#D650C7" d="M3,55.9597759 C3,53.7493282 4.78716697,51.7516292 6.96428975,51.5009519 L20,50 L33.0357102,51.5009519 C35.225127,51.7530447 37,53.7492282 37,55.9597759 L37,62.9574064 L3,62.9574064 L3,55.9597759 Z"/>
    <path fill="#FFDD95" d="M14,45.3164468 C10.9897907,42.470456 9,37.8615543 9,34 C9,27.9248678 13.9248678,23 20,23 C26.0751322,23 31,27.9248678 31,34 C31,37.8615543 29.0102093,42.470456 26,45.3164468 L26,52 C26,52 21.9325778,53.4486507 20,53.4486507 C18.0674222,53.4486507 14,52 14,52 L14,45.3164468 Z"/>
    <circle cx="11" cy="39" r="3" fill="#FFDD95"/>
    <circle cx="29" cy="39" r="3" fill="#FFDD95"/>
  </g>
</svg>
