<svg xmlns="http://www.w3.org/2000/svg" width="64" height="64" viewBox="0 0 64 64">
  <g fill="none" fill-rule="evenodd">
    <path fill="#595959" d="M7.10517764,39.9436912 C7.37354539,38.8702202 8.4834157,38 9.58795205,38 L54.5942488,38 C55.6970795,38 56.8081883,38.8683514 57.0770233,39.9436912 L62.1051776,60.0563088 C62.3735454,61.1297798 61.7052712,62 60.596202,62 L3.58599885,62 C2.48424688,62 1.80818828,61.1316486 2.07702325,60.0563088 L7.10517764,39.9436912 Z"/>
    <polygon fill="#B4DFFB" points="10.6 40.974 53.604 40.974 57.083 57.041 7.099 57.041"/>
    <polygon fill="#4796E7" points="19.187 43.041 44.005 43.041 46.596 53.041 16.596 53.041"/>
    <path fill="#595959" d="M48,26 L48,14 L16,14 L16,26 C16,27.6568542 23.163444,29 32,29 C40.836556,29 48,27.6568542 48,26 Z"/>
    <polygon fill="#868686" points="8 13.907 32.718 5 57.02 13.907 32.718 21.301"/>
    <polygon fill="#F1BE27" fill-rule="nonzero" points="21.967 13.792 21.584 11.829 14 14.376 14 31.096 16 31.096 16 16.023"/>
    <polygon fill="#FF462B" fill-rule="nonzero" points="14.135 29.631 11.282 35.246 13.065 36.152 15.918 30.537"/>
    <polygon fill="#FF462B" fill-rule="nonzero" points="14.202 30.629 16.813 35.673 18.589 34.754 15.978 29.71"/>
    <polygon fill="#FF462B" fill-rule="nonzero" points="14.116 30.594 14.111 36.593 16.111 36.594 16.116 30.595"/>
  </g>
</svg>
