<svg xmlns="http://www.w3.org/2000/svg" width="64" height="64" viewBox="0 0 64 64">
  <g fill="none" fill-rule="evenodd">
    <path fill="#D650C7" d="M14,37.0023695 C14,34.7919219 15.787167,32.7942228 17.9642898,32.5435455 L31,31.0425936 L44.0357102,32.5435455 C46.225127,32.7956384 48,34.7918218 48,37.0023695 L48,44 L14,44 L14,37.0023695 Z"/>
    <path fill="#FFDD95" d="M25,26.3164468 C21.9897907,23.470456 20,18.8615543 20,15 C20,8.92486775 24.9248678,4 31,4 C37.0751322,4 42,8.92486775 42,15 C42,18.8615543 40.0102093,23.470456 37,26.3164468 L37,33 C37,33 32.9325778,34.4486507 31,34.4486507 C29.0674222,34.4486507 25,33 25,33 L25,26.3164468 Z"/>
    <circle cx="22" cy="20" r="3" fill="#FFDD95"/>
    <circle cx="40" cy="20" r="3" fill="#FFDD95"/>
    <path fill="#FFAF40" d="M14.0635626 58.4415043C13.5704914 58.1822814 12.7762629 58.1795486 12.2779936 58.4415043L9.94906586 59.6658941C9.45599459 59.925117 9.13162705 59.6959595 9.22678801 59.1411285L9.67157363 56.5478294C9.76574186 55.9987864 9.52291076 55.2425858 9.11980245 54.8496523L7.23566034 53.0130676C6.8367573 52.6242333 6.95446395 52.2449279 7.51154593 52.1639791L10.1153663 51.7856219C10.6666367 51.7055176 11.3107873 51.2408926 11.559922 50.7360907L12.7243858 48.3766292C12.9709215 47.8770935 13.3680357 47.8718273 13.6171704 48.3766292L14.7816342 50.7360907C15.0281699 51.2356265 15.6691079 51.7046731 16.2261899 51.7856219L18.8300103 52.1639791C19.3812807 52.2440834 19.5090042 52.6201342 19.1058959 53.0130676L17.2217538 54.8496523C16.8228507 55.2384867 16.5748216 55.9929984 16.6699826 56.5478294L17.1147682 59.1411285C17.2089364 59.6901714 16.8907596 59.9278497 16.3924904 59.6658941L14.0635626 58.4415043zM49.3927014 58.4415043C48.8996301 58.1822814 48.1054016 58.1795486 47.6071324 58.4415043L45.2782046 59.6658941C44.7851334 59.925117 44.4607658 59.6959595 44.5559268 59.1411285L45.0007124 56.5478294C45.0948806 55.9987864 44.8520495 55.2425858 44.4489412 54.8496523L42.5647991 53.0130676C42.1658961 52.6242333 42.2836027 52.2449279 42.8406847 52.1639791L45.4445051 51.7856219C45.9957755 51.7055176 46.6399261 51.2408926 46.8890608 50.7360907L48.0535246 48.3766292C48.3000603 47.8770935 48.6971745 47.8718273 48.9463091 48.3766292L50.110773 50.7360907C50.3573086 51.2356265 50.9982467 51.7046731 51.5553287 51.7856219L54.1591491 52.1639791C54.7104195 52.2440834 54.838143 52.6201342 54.4350346 53.0130676L52.5508925 54.8496523C52.1519895 55.2384867 51.9039604 55.9929984 51.9991214 56.5478294L52.443907 59.1411285C52.5380752 59.6901714 52.2198984 59.9278497 51.7216291 59.6658941L49.3927014 58.4415043zM31.7218402 58.4415043C31.2287689 58.1822814 30.4345404 58.1795486 29.9362711 58.4415043L27.6073434 59.6658941C27.1142721 59.925117 26.7899046 59.6959595 26.8850656 59.1411285L27.3298512 56.5478294C27.4240194 55.9987864 27.1811883 55.2425858 26.77808 54.8496523L24.8939379 53.0130676C24.4950348 52.6242333 24.6127415 52.2449279 25.1698235 52.1639791L27.7736438 51.7856219C28.3249143 51.7055176 28.9690649 51.2408926 29.2181995 50.7360907L30.3826634 48.3766292C30.629199 47.8770935 31.0263133 47.8718273 31.2754479 48.3766292L32.4399118 50.7360907C32.6864474 51.2356265 33.3273855 51.7046731 33.8844675 51.7856219L36.4882878 52.1639791C37.0395583 52.2440834 37.1672817 52.6201342 36.7641734 53.0130676L34.8800313 54.8496523C34.4811283 55.2384867 34.2330992 55.9929984 34.3282601 56.5478294L34.7730457 59.1411285C34.867214 59.6901714 34.5490372 59.9278497 34.0507679 59.6658941L31.7218402 58.4415043z"/>
  </g>
</svg>
