<svg xmlns="http://www.w3.org/2000/svg" width="64" height="64" viewBox="0 0 64 64">
  <g fill="none" fill-rule="evenodd">
    <path fill="#595959" d="M47,50 L47,38 L15,38 L15,50 C15,51.6568542 22.163444,53 31,53 C39.836556,53 47,51.6568542 47,50 Z"/>
    <polygon fill="#868686" points="7 37.907 31.718 29 56.02 37.907 31.718 45.301"/>
    <polygon fill="#F1BE27" fill-rule="nonzero" points="20.967 37.792 20.584 35.829 13 38.376 13 55.096 15 55.096 15 40.023"/>
    <polygon fill="#FF462C" fill-rule="nonzero" points="14.961 58.363 15.791 59.967 17.568 59.047 14.957 54.003 13.001 54.025 10.391 59.069 12.167 59.988 12.961 58.454 12.959 61.993 14.959 61.994"/>
    <circle cx="49" cy="18" r="12" fill="#F5413E"/>
    <path fill="#FFF" fill-rule="nonzero" d="M42.636039,13.0502525 L53.9497475,24.363961 C54.3402718,24.7544853 54.9734367,24.7544853 55.363961,24.363961 C55.7544853,23.9734367 55.7544853,23.3402718 55.363961,22.9497475 L44.0502525,11.636039 C43.6597282,11.2455147 43.0265633,11.2455147 42.636039,11.636039 C42.2455147,12.0265633 42.2455147,12.6597282 42.636039,13.0502525 Z"/>
    <path fill="#FFF" fill-rule="nonzero" d="M44.0502525,24.363961 L55.363961,13.0502525 C55.7544853,12.6597282 55.7544853,12.0265633 55.363961,11.636039 C54.9734367,11.2455147 54.3402718,11.2455147 53.9497475,11.636039 L42.636039,22.9497475 C42.2455147,23.3402718 42.2455147,23.9734367 42.636039,24.363961 C43.0265633,24.7544853 43.6597282,24.7544853 44.0502525,24.363961 Z"/>
  </g>
</svg>
