<svg xmlns="http://www.w3.org/2000/svg" width="64" height="64" viewBox="0 0 64 64">
  <g fill="none" fill-rule="evenodd">
    <path fill="#595959" d="M46,50 L46,38 L14,38 L14,50 C14,51.6568542 21.163444,53 30,53 C38.836556,53 46,51.6568542 46,50 Z"/>
    <polygon fill="#868686" points="6 37.907 30.718 29 55.02 37.907 30.718 45.301"/>
    <polygon fill="#F1BE27" fill-rule="nonzero" points="19.967 37.792 19.584 35.829 12 38.376 12 55.096 14 55.096 14 40.023"/>
    <polygon fill="#5B68C0" fill-rule="nonzero" points="13.571 58.359 14.401 59.963 16.177 59.044 13.566 54 11.611 54.022 9 59.066 10.776 59.985 11.57 58.45 11.568 61.99 13.568 61.991"/>
    <circle cx="48" cy="18" r="12" fill="#5B68C0"/>
    <path fill="#FFF" fill-rule="nonzero" d="M41.6795115,20.1172718 C41.2179383,19.8140085 40.5979159,19.942344 40.2946526,20.4039172 C39.9913893,20.8654904 40.1197248,21.4855129 40.581298,21.7887762 L46.8538378,25.9099667 L54.4975359,12.966158 C54.7783655,12.4906023 54.6205088,11.8774309 54.1449531,11.5966013 C53.6693974,11.3157718 53.056226,11.4736285 52.7753965,11.9491842 L46.1985565,23.0863793 L41.6795115,20.1172718 Z"/>
  </g>
</svg>
