<svg xmlns="http://www.w3.org/2000/svg" width="64" height="64" viewBox="0 0 64 64">
  <g fill="none" fill-rule="evenodd">
    <path fill="#FF78C7" d="M8,41.0023695 C8,38.7919219 9.78716697,36.7942228 11.9642898,36.5435455 L25,35.0425936 L38.0357102,36.5435455 C40.225127,36.7956384 42,38.7918218 42,41.0023695 L42,48 L8,48 L8,41.0023695 Z"/>
    <path fill="#ED9111" d="M14,15 L36,15 L36,30.0074602 C36,31.6601943 34.6569187,33 32.9986131,33 L17.0013869,33 C15.3437667,33 14,31.6470745 14,30.0074602 L14,15 Z"/>
    <path fill="#FFDD95" d="M19,31.2210693 C15.9897907,29.2583682 14,25.8615543 14,22 C14,15.9248678 18.9248678,11 25,11 C31.0751322,11 36,15.9248678 36,22 C36,25.8615543 34.0102093,29.2583682 31,31.2210693 L31,37 C31,37 26.9325778,38.4486507 25,38.4486507 C23.0674222,38.4486507 19,37 19,37 L19,31.2210693 Z"/>
    <path fill="#ED9111" d="M14,11 C14,8.23857625 16.23631,6 19.0019727,6 L38,6 L38,11 C38,13.7614237 35.76369,16 32.9980273,16 L14,16 L14,11 Z"/>
    <path fill="#5B68C0" d="M23,54.0023695 C23,51.7919219 24.787167,49.7942228 26.9642898,49.5435455 L40,48.0425936 L53.0357102,49.5435455 C55.225127,49.7956384 57,51.7918218 57,54.0023695 L57,61 L23,61 L23,54.0023695 Z"/>
    <path fill="#FFDD95" d="M34,44.2210693 C30.9897907,42.2583682 29,38.8615543 29,35 C29,28.9248678 33.9248678,24 40,24 C46.0751322,24 51,28.9248678 51,35 C51,38.8615543 49.0102093,42.2583682 46,44.2210693 L46,50 C46,50 41.9325778,51.4486507 40,51.4486507 C38.0674222,51.4486507 34,50 34,50 L34,44.2210693 Z"/>
    <path fill="#6B6B6B" d="M29,24 C29,21.2385763 31.23631,19 34.0019727,19 L53,19 L53,24 C53,26.7614237 50.76369,29 47.9980273,29 L29,29 L29,24 Z"/>
  </g>
</svg>
