<svg xmlns="http://www.w3.org/2000/svg" width="64" height="64" viewBox="0 0 64 64">
  <g fill="none" fill-rule="evenodd">
    <path fill="#D650C7" d="M15,34.9597759 C15,32.7493282 16.787167,30.7516292 18.9642898,30.5009519 L32,29 L45.0357102,30.5009519 C47.225127,30.7530447 49,32.7492282 49,34.9597759 L49,41.9574064 L15,41.9574064 L15,34.9597759 Z"/>
    <path fill="#FFDD95" d="M26,24.3164468 C22.9897907,21.470456 21,16.8615543 21,13 C21,6.92486775 25.9248678,2 32,2 C38.0751322,2 43,6.92486775 43,13 C43,16.8615543 41.0102093,21.470456 38,24.3164468 L38,31 C38,31 33.9325778,32.4486507 32,32.4486507 C30.0674222,32.4486507 26,31 26,31 L26,24.3164468 Z"/>
    <circle cx="23" cy="18" r="3" fill="#FFDD95"/>
    <circle cx="41" cy="18" r="3" fill="#FFDD95"/>
    <rect width="38" height="23" x="13" y="37" fill="#868686"/>
    <circle cx="32" cy="49" r="4" fill="#D8D8D8"/>
    <path fill="#595959" d="M13,60 L51,60 L51,61.5 C51,62.3284271 50.3243111,63 49.4986508,63 L14.5013492,63 C13.6721769,63 13,62.3342028 13,61.5 L13,60 Z"/>
  </g>
</svg>
