<svg xmlns="http://www.w3.org/2000/svg" width="64" height="64" viewBox="0 0 64 64">
  <g fill="none" fill-rule="evenodd">
    <path fill="#F5413E" d="M26,56.0023695 C26,53.7919219 27.787167,51.7942228 29.9642898,51.5435455 L43,50.0425936 L56.0357102,51.5435455 C58.225127,51.7956384 60,53.7918218 60,56.0023695 L60,63 L26,63 L26,56.0023695 Z"/>
    <path fill="#FFDD95" d="M37,45.3164468 C33.9897907,42.470456 32,37.8615543 32,34 C32,27.9248678 36.9248678,23 43,23 C49.0751322,23 54,27.9248678 54,34 C54,37.8615543 52.0102093,42.470456 49,45.3164468 L49,52 C49,52 44.9325778,53.4486507 43,53.4486507 C41.0674222,53.4486507 37,52 37,52 L37,45.3164468 Z"/>
    <circle cx="34" cy="39" r="3" fill="#FFDD95"/>
    <circle cx="52" cy="39" r="3" fill="#FFDD95"/>
    <path fill="#B4DFFB" d="M29.9505146,25.5415626 C34.221216,23.1800673 37,19.3381882 37,15 C37,7.82029825 29.3888407,2 20,2 C10.6111593,2 3,7.82029825 3,15 C3,22.1797017 10.6111593,28 20,28 C22.3587854,28 24.6053672,27.6326347 26.6472422,26.9686418 L29.737135,29.1448584 L29.9505146,25.5415626 Z"/>
    <ellipse cx="14" cy="20" fill="#FFF" rx="3" ry="2"/>
    <path fill="#FFF" fill-rule="nonzero" d="M25.4622621,8.67944715 C25.982317,8.49354028 26.2531974,7.9212452 26.0672906,7.40119032 C25.8813837,6.88113544 25.3090886,6.61025496 24.7890337,6.79616183 L15.6633858,10.0583573 C15.2655367,10.2005787 15,10.5774946 15,11 L15,20 C15,20.5522847 15.4477153,21 16,21 C16.5522847,21 17,20.5522847 17,20 L17,11.7044985 L25.4622621,8.67944715 Z"/>
    <ellipse cx="23" cy="17" fill="#FFF" rx="3" ry="2"/>
    <path fill="#FFF" fill-rule="nonzero" d="M26,17 L26,8 C26,7.44771525 25.5522847,7 25,7 C24.4477153,7 24,7.44771525 24,8 L24,17 C24,17.5522847 24.4477153,18 25,18 C25.5522847,18 26,17.5522847 26,17 Z"/>
  </g>
</svg>
