<svg xmlns="http://www.w3.org/2000/svg" width="64" height="64" viewBox="0 0 64 64">
  <g fill="none" fill-rule="evenodd">
    <path fill="#22BA8E" d="M26,56.0023695 C26,53.7919219 27.787167,51.7942228 29.9642898,51.5435455 L43,50.0425936 L56.0357102,51.5435455 C58.225127,51.7956384 60,53.7918218 60,56.0023695 L60,63 L26,63 L26,56.0023695 Z"/>
    <path fill="#FFDD95" d="M37,45.3164468 C33.9897907,42.470456 32,37.8615543 32,34 C32,27.9248678 36.9248678,23 43,23 C49.0751322,23 54,27.9248678 54,34 C54,37.8615543 52.0102093,42.470456 49,45.3164468 L49,52 C49,52 44.9325778,53.4486507 43,53.4486507 C41.0674222,53.4486507 37,52 37,52 L37,45.3164468 Z"/>
    <circle cx="34" cy="39" r="3" fill="#FFDD95"/>
    <circle cx="52" cy="39" r="3" fill="#FFDD95"/>
    <path fill="#FF5EAC" d="M29.9505146,25.5415626 C34.221216,23.1800673 37,19.3381882 37,15 C37,7.82029825 29.3888407,2 20,2 C10.6111593,2 3,7.82029825 3,15 C3,22.1797017 10.6111593,28 20,28 C22.3587854,28 24.6053672,27.6326347 26.6472422,26.9686418 L29.737135,29.1448584 L29.9505146,25.5415626 Z"/>
    <path fill="#FFF" d="M22.966,8.068 C23.6260033,8.58400258 23.956,9.2019964 23.956,9.922 C23.956,10.5940034 23.5960036,11.5539938 22.876,12.802 C21.9039951,14.4580083 21.322001,15.5439974 21.13,16.06 C21.0459996,16.2760011 21.004,16.4439994 21.004,16.564 C21.004,16.6000002 21.0159999,16.6599996 21.04,16.744 C21.0640001,16.8280004 21.0700001,16.9119996 21.058,16.996 C21.0700001,16.8759994 21.0819999,17.0979972 21.094,17.662 C21.094,17.8900011 21.0280007,18.0489995 20.896,18.139 C20.7639993,18.2290005 20.6140008,18.274 20.446,18.274 C20.0739981,18.274 19.7020019,18.1150016 19.33,17.797 C18.9579981,17.4789984 18.7540002,17.1400018 18.718,16.78 C18.6579997,16.2279972 19.1139951,15.0400091 20.086,13.216 C21.094005,11.3439906 21.598,10.1680024 21.598,9.688 C21.598,9.36399838 21.5140008,9.202 21.346,9.202 C20.9619981,9.202 20.3020047,9.86799334 19.366,11.2 C19.2939996,11.2720004 19.2070005,11.4159989 19.105,11.632 C19.0029995,11.8480011 18.8800007,11.9949996 18.736,12.073 C18.5919993,12.1510004 18.424001,12.19 18.232,12.19 C17.8959983,12.19 17.5900014,12.0820011 17.314,11.866 C17.0379986,11.6499989 16.9059999,11.3920015 16.918,11.092 C16.9420001,10.6119976 17.2299972,10.2640011 17.782,10.048 C18.4420033,9.25599604 18.9939978,8.67400186 19.438,8.302 C20.1220034,7.74999724 20.7759969,7.474 21.4,7.474 C21.9280026,7.474 22.4499974,7.67199802 22.966,8.068 Z M21.814,22.27 C21.6579992,22.5340013 21.4300015,22.666 21.13,22.666 C20.8539986,22.666 20.5690015,22.564001 20.275,22.36 C19.9809985,22.155999 19.7620007,21.9280013 19.618,21.676 C19.5219995,21.5079992 19.474,21.3160011 19.474,21.1 L19.474,20.452 C19.4619999,20.3439995 19.4290003,20.2000009 19.375,20.02 C19.3209997,19.8399991 19.294,19.7080004 19.294,19.624 C19.294,19.5039994 19.3329996,19.3900005 19.411,19.282 C19.4890004,19.1739995 19.725998,19.12 20.122,19.12 C20.8420036,19.12 21.3219988,19.323998 21.562,19.732 C21.6580005,19.8880008 21.706,20.0799989 21.706,20.308 L21.706,20.92 C21.7180001,21.0400006 21.7539997,21.2109989 21.814,21.433 C21.8740003,21.6550011 21.904,21.8199995 21.904,21.928 C21.904,22.0480006 21.8740003,22.1619995 21.814,22.27 Z"/>
  </g>
</svg>
