<svg xmlns="http://www.w3.org/2000/svg" width="64" height="64" viewBox="0 0 64 64">
  <g fill="none" fill-rule="evenodd">
    <path fill="#5B68C0" d="M26,56.0023695 C26,53.7919219 27.787167,51.7942228 29.9642898,51.5435455 L43,50.0425936 L56.0357102,51.5435455 C58.225127,51.7956384 60,53.7918218 60,56.0023695 L60,63 L26,63 L26,56.0023695 Z"/>
    <path fill="#FFDD95" d="M37,45.3164468 C33.9897907,42.470456 32,37.8615543 32,34 C32,27.9248678 36.9248678,23 43,23 C49.0751322,23 54,27.9248678 54,34 C54,37.8615543 52.0102093,42.470456 49,45.3164468 L49,52 C49,52 44.9325778,53.4486507 43,53.4486507 C41.0674222,53.4486507 37,52 37,52 L37,45.3164468 Z"/>
    <circle cx="34" cy="39" r="3" fill="#FFDD95"/>
    <circle cx="52" cy="39" r="3" fill="#FFDD95"/>
    <path fill="#80D25B" d="M29.9505146,25.5415626 C34.221216,23.1800673 37,19.3381882 37,15 C37,7.82029825 29.3888407,2 20,2 C10.6111593,2 3,7.82029825 3,15 C3,22.1797017 10.6111593,28 20,28 C22.3587854,28 24.6053672,27.6326347 26.6472422,26.9686418 L29.737135,29.1448584 L29.9505146,25.5415626 Z"/>
    <circle cx="13" cy="15" r="2" fill="#FFF"/>
    <circle cx="20" cy="15" r="2" fill="#FFF"/>
    <circle cx="27" cy="15" r="2" fill="#FFF"/>
  </g>
</svg>
