<svg xmlns="http://www.w3.org/2000/svg" width="64" height="64" viewBox="0 0 64 64">
  <g fill="none" fill-rule="evenodd">
    <path fill="#595959" d="M47,50 L47,38 L15,38 L15,50 C15,51.6568542 22.163444,53 31,53 C39.836556,53 47,51.6568542 47,50 Z"/>
    <polygon fill="#868686" points="7 37.907 31.718 29 56.02 37.907 31.718 45.301"/>
    <polygon fill="#F1BE27" fill-rule="nonzero" points="20.967 37.792 20.584 35.829 13 38.376 13 55.096 15 55.096 15 40.023"/>
    <polygon fill="#FF462B" fill-rule="nonzero" points="13.135 53.631 10.282 59.246 12.065 60.152 14.918 54.537"/>
    <polygon fill="#FF462B" fill-rule="nonzero" points="13.202 54.629 15.813 59.673 17.589 58.754 14.978 53.71"/>
    <polygon fill="#FF462B" fill-rule="nonzero" points="13.116 54.594 13.111 62.165 15.111 62.166 15.116 54.595"/>
    <circle cx="46.607" cy="25" r="3" fill="#5DAF38"/>
    <path stroke="#5DAF38" stroke-linecap="round" stroke-width="2" d="M51.5563492 20.0502525C50.2895983 18.7835017 48.5395983 18 46.6066017 18 44.6736051 18 42.9236051 18.7835017 41.6568542 20.0502525M54.3847763 17.2218254C52.3941678 15.2312169 49.6441678 14 46.6066017 14 43.5690356 14 40.8190356 15.2312169 38.8284271 17.2218254"/>
    <path stroke="#5DAF38" stroke-linecap="round" stroke-width="2" d="M57.2132034,14.3933983 C54.4987373,11.6789322 50.7487373,10 46.6066017,10 C42.4644661,10 38.7144661,11.6789322 36,14.3933983"/>
  </g>
</svg>
