<svg xmlns="http://www.w3.org/2000/svg" width="64" height="64" viewBox="0 0 64 64">
  <g fill="none" fill-rule="evenodd">
    <rect width="32" height="33" x="18" y="17" fill="#BD7575"/>
    <path fill="#FF78C7" d="M10.125,49.9206814 C10.125,47.707202 11.9000001,45.6994337 14.0942715,45.4356406 L34,43.0425936 L53.9057285,45.4356406 C56.0978966,45.6991808 57.875,47.7006188 57.875,49.9206814 L57.875,62.0425936 L10.125,62.0425936 L10.125,49.9206814 Z"/>
    <path fill="#FFDD95" d="M27.7954545,41.4906185 C22.8913848,38.0068513 19.5,30.9212508 19.5,25.1331692 C19.5,17.1250403 25.9918711,10.6331692 34,10.6331692 C42.0081289,10.6331692 48.5,17.1250403 48.5,25.1331692 C48.5,30.9212508 45.1086152,38.0068513 40.2045455,41.4906185 L40.2045455,48.9058965 C40.2045455,48.9058965 35.9984611,50.8154815 34,50.8154815 C32.0015389,50.8154815 27.7954545,48.9058965 27.7954545,48.9058965 L27.7954545,41.4906185 Z"/>
    <circle cx="21" cy="28" r="3" fill="#FFDD95"/>
    <circle cx="47" cy="28" r="3" fill="#FFDD95"/>
    <path fill="#BD7575" d="M18,14.5 C18,10.9101491 20.9104073,8 24.4949533,8 L43.5050467,8 C47.0921104,8 50,10.9174538 50,14.5 L50,21 L34,15.079188 L18,21 L18,14.5 Z"/>
    <path fill="#595959" d="M49.9863948,18.9999995 L49.9863948,10 L17.9863948,10 L17.9863948,19 C17.9863948,20.6568542 25.1498388,22 33.9863948,22 C42.8229508,22 49.9863948,20.6568542 49.9863948,19 Z"/>
    <polygon fill="#6C6C6C" points="13.324 11.196 34.494 3 55.324 11.196 34.494 15.835"/>
  </g>
</svg>
