<svg xmlns="http://www.w3.org/2000/svg" width="64" height="64" viewBox="0 0 64 64">
  <g fill="none" fill-rule="evenodd">
    <polyline stroke="#D8D8D8" stroke-dasharray="4" stroke-linecap="round" stroke-width="2" points="37 45.6 44.887 45.6 44.887 25"/>
    <path fill="#5EA7FF" d="M35.3333333,26 C30.7309604,26 27,22.1624407 27,17.4285714 C27,12.6947021 30.7309604,8.85714286 35.3333333,8.85714286 C36.5392581,8.85714286 37.6853554,9.1206133 38.7201838,9.59464306 C39.191542,5.32073265 42.7187439,2 47,2 C51.6023729,2 55.3333333,5.83755929 55.3333333,10.5714286 C55.3333333,11.1592592 55.2758036,11.7332691 55.1662193,12.2878266 C55.2217582,12.2864211 55.2774655,12.2857143 55.3333333,12.2857143 C59.0152317,12.2857143 62,15.3557617 62,19.1428571 C62,22.9299526 59.0152317,26 55.3333333,26 L35.3333333,26 Z"/>
    <path fill="#D650C7" d="M3,55.9597759 C3,53.7493282 4.78716697,51.7516292 6.96428975,51.5009519 L20,50 L33.0357102,51.5009519 C35.225127,51.7530447 37,53.7492282 37,55.9597759 L37,62.9574064 L3,62.9574064 L3,55.9597759 Z"/>
    <path fill="#FFDD95" d="M14,45.3164468 C10.9897907,42.470456 9,37.8615543 9,34 C9,27.9248678 13.9248678,23 20,23 C26.0751322,23 31,27.9248678 31,34 C31,37.8615543 29.0102093,42.470456 26,45.3164468 L26,52 C26,52 21.9325778,53.4486507 20,53.4486507 C18.0674222,53.4486507 14,52 14,52 L14,45.3164468 Z"/>
    <circle cx="11" cy="39" r="3" fill="#FFDD95"/>
    <circle cx="29" cy="39" r="3" fill="#FFDD95"/>
  </g>
</svg>
