<svg xmlns="http://www.w3.org/2000/svg" width="64" height="64" viewBox="0 0 64 64">
  <g fill="none" fill-rule="evenodd">
    <path stroke="#80D25B" stroke-width="6" d="M8,31 C8,44.254834 18.745166,55 32,55 L32,55 C38.627417,55 44.627417,52.3137085 48.9705627,47.9705627 M56,31 C56,17.745166 45.254834,7 32,7 C25.372583,7 19.372583,9.6862915 15.0294373,14.0294373"/>
    <circle cx="32" cy="30" r="10" fill="#FFAF40"/>
    <path stroke="#FFAF40" stroke-linecap="round" stroke-linejoin="round" stroke-width="2" d="M32,17 L32,14 M41.1923882,20.8076118 L43.3137085,18.6862915 M45,30 L48,30 M41.1923882,39.1923882 L43.3137085,41.3137085 M32,43 L32,46 M22.8076118,39.1923882 L20.6862915,41.3137085 M19,30 L16,30 M22.8076118,20.8076118 L20.6862915,18.6862915"/>
    <polygon fill="#80D25B" points="8 17 15 31 1 31"/>
    <polygon fill="#80D25B" points="56 45 49 31 63 31"/>
  </g>
</svg>
