<svg xmlns="http://www.w3.org/2000/svg" width="64" height="64" viewBox="0 0 64 64">
  <g fill="none" fill-rule="evenodd">
    <path fill="#5B68C0" d="M8,50.9206814 C8,48.707202 9.77500008,46.6994337 11.9692715,46.4356406 L31.875,44.0425936 L51.7807285,46.4356406 C53.9728966,46.6991808 55.75,48.7006188 55.75,50.9206814 L55.75,63.0425936 L8,63.0425936 L8,50.9206814 Z"/>
    <path fill="#FFDD95" d="M23.9659091,41.0820517 C19.997906,37.3171352 17.375,31.2233999 17.375,26.1331692 C17.375,18.1250403 23.8668711,11.6331692 31.875,11.6331692 C39.8831289,11.6331692 46.375,18.1250403 46.375,26.1331692 C46.375,31.2233999 43.752094,37.3171352 39.7840909,41.0820517 L39.7840909,49.9058965 C39.7840909,49.9058965 34.4224889,51.8154815 31.875,51.8154815 C29.3275111,51.8154815 23.9659091,49.9058965 23.9659091,49.9058965 L23.9659091,41.0820517 Z"/>
    <path fill="#FFAF40" d="M17.875,14.5 C17.875,11.4624339 20.3328519,9 23.3759961,9 L49.875,9 L49.875,14.5 C49.875,17.5375661 47.4171481,20 44.3740039,20 L17.875,20 L17.875,14.5 Z"/>
    <path stroke="#979797" stroke-linecap="round" stroke-width="2" d="M15,28 L15,12.9911656 L15,12.9911656 C15,9.13005145 17.5416212,6 20.6716936,6 L43.3283064,6 C46.4606963,6 49,9.12869969 49,12.9911656 L49,28"/>
    <path stroke="#868686" stroke-linecap="round" stroke-width="2" d="M38,46 L38,46 C47.9411255,46 56,37.9411255 56,28"/>
    <rect width="9" height="2" x="29" y="45" stroke="#FF5EAC" stroke-width="2" rx="1"/>
    <rect width="8" height="17" x="46" y="18" fill="#FF5EAC" rx="2"/>
    <rect width="8" height="17" x="10" y="18" fill="#FF5EAC" rx="2"/>
    <rect width="1" height="5" x="55" y="24" stroke="#979797" stroke-width="2"/>
  </g>
</svg>
