<svg xmlns="http://www.w3.org/2000/svg" width="64" height="64" viewBox="0 0 64 64">
  <g fill="none" fill-rule="evenodd">
    <ellipse cx="52.554" cy="37.5" fill="#FFAF40" rx="6" ry="10.5" transform="rotate(-24 52.554 37.5)"/>
    <path fill="#FFAF40" d="M41.1709936 27.4407651C35.0732019 29.061756 30.5535593 34.9653677 30.5535593 42 30.5535593 50.2842712 36.8215728 57 44.5535593 57 48.6474205 57 52.3308725 55.117317 54.8908443 52.1159556 50.6707282 52.9046668 45.21801 48.3622495 42.229268 41.3212146 40.0036089 36.0778903 39.7238517 30.8141859 41.1709936 27.4407651zM27.5535593 49C26.3080654 46.1531569 25.0535593 40 25.0535593 40 25.0535593 40 18.5535593 48 19.5535593 51 20.5535593 54 32.0535593 56 32.0535593 56 32.0535593 56 28.6413987 51.4864902 27.5535593 49zM22.5467861 28.0036327C29.641293 28.4469718 34.0535593 25.2420078 34.0535593 25.2420078 34.0535593 25.2420078 18.8646195 3.14900532 9.19893096 16.0365899 3.75230701 23.2987552 13.2454326 27.4223869 22.5467861 28.0036327z"/>
    <path fill="#FFAF40" d="M41.0535593,24 C41.0535593,24 45.5535593,20.418278 45.5535593,16 C45.5535593,11.581722 43.5388406,8 41.0535593,8 C38.5682779,8 36.5535593,11.581722 36.5535593,16 C36.5535593,20.418278 41.0535593,24 41.0535593,24 Z" transform="rotate(30 41.054 16)"/>
  </g>
</svg>
