<svg xmlns="http://www.w3.org/2000/svg" width="64" height="64" viewBox="0 0 64 64">
  <path fill="#E43535" fill-rule="evenodd" d="M3.55355927,37.3426834 C6.46192263,41.7658462 10.5677065,45.0794779 15.460536,48.5054741 C28.8781119,57.9005619 42.2512338,55.6218724 47.4605361,50.7846631 C47.4605361,50.7846631 49.0535593,48.9999997 52.483792,50.0012726 C54.8698319,50.6977493 58.0346622,53.222023 59.1787676,54.40119 C59.423952,53.3437931 59.5535593,52.2420947 59.5535593,51.1101249 C59.5535593,47.0476505 57.8842342,43.3750679 55.1941126,40.7409057 C59.2801353,29.2569077 52.9180169,13.9896305 39.2265579,4.27966663 C45.1819955,13.3369497 47.1467705,23.3131079 42.9954198,31.2031485 C33.7127478,25.1843398 15.4605359,9.24965967 15.4605359,9.24965967 C15.4605359,9.24965967 24.0186755,22.2729155 30.5303034,28.5984969 C24.0186755,24.6915202 20.4837917,21.9008225 9.13495449,12.4124504 C16.9076736,25.1714421 30.1922152,36.7421918 34.9954198,40.7409051 C20.4837919,48.5054741 3.55355927,37.3426834 3.55355927,37.3426834 Z"/>
</svg>
