<?xml version="1.0" encoding="UTF-8"?>
<svg width="64px" height="64px" viewBox="0 0 64 64" version="1.1" xmlns="http://www.w3.org/2000/svg" xmlns:xlink="http://www.w3.org/1999/xlink">
    <!-- Generator: Sketch 43.2 (39069) - http://www.bohemiancoding.com/sketch -->
    <title>swimglasses</title>
    <desc>Created with Sketch.</desc>
    <defs></defs>
    <g id="Outdoor-Activities-(142)" stroke="none" stroke-width="1" fill="none" fill-rule="evenodd">
        <rect id="Rectangle-74-Copy" fill="#D8D8D8" x="27" y="47" width="9" height="6"></rect>
        <path d="M7.07835905,49.2293789 C7.07835905,49.2293789 1.01066925,30.9537766 11.3533223,26.186306 C21.6959754,21.4188354 20.1441297,23.3172272 24.5453539,16.0800564 C28.9465782,8.84288566 33.5260005,6.28274323 42.3812816,11.9044901 C51.2365626,17.5262369 64.2423369,14.3625492 59.7775345,20.2744276 C55.3127321,26.186306 53.5719427,26.3671905 56.6747386,32.1384805 C59.7775345,37.9097704 57.6222181,49.2293789 57.6222181,49.2293789" id="Path-33" stroke="#979797" stroke-width="3" stroke-linecap="round"></path>
        <ellipse id="Oval-35-Copy-3" fill="#595959" cx="18" cy="50" rx="12" ry="8"></ellipse>
        <ellipse id="Oval-35-Copy-4" fill="#979797" cx="18.5" cy="49.5" rx="8.5" ry="5.5"></ellipse>
        <ellipse id="Oval-35-Copy-2" fill="#595959" cx="47" cy="50" rx="12" ry="8"></ellipse>
        <ellipse id="Oval-35-Copy-5" fill="#979797" cx="46.5" cy="49.5" rx="8.5" ry="5.5"></ellipse>
    </g>
</svg>