<?xml version="1.0" encoding="UTF-8"?>
<svg width="64px" height="64px" viewBox="0 0 64 64" version="1.1" xmlns="http://www.w3.org/2000/svg" xmlns:xlink="http://www.w3.org/1999/xlink">
    <!-- Generator: Sketch 43.2 (39069) - http://www.bohemiancoding.com/sketch -->
    <title>swissknife</title>
    <desc>Created with Sketch.</desc>
    <defs></defs>
    <g id="Outdoor-Activities-(142)" stroke="none" stroke-width="1" fill="none" fill-rule="evenodd">
        <path d="M22.5373196,16.9454365 L66.5373196,16.9454365 C66.5373196,16.9454365 64.7881543,21.4454365 56.8405809,23.3003267 C48.8930074,25.1552169 22.5373196,25.9454365 22.5373196,25.9454365 L22.5373196,16.9454365 Z M36.5373196,22.9454365 C37.6418891,22.9454365 38.5373196,22.050006 38.5373196,20.9454365 C38.5373196,19.840867 37.6418891,18.9454365 36.5373196,18.9454365 C35.4327501,18.9454365 34.5373196,19.840867 34.5373196,20.9454365 C34.5373196,22.050006 35.4327501,22.9454365 36.5373196,22.9454365 Z" id="Combined-Shape" fill="#D8D8D8" transform="translate(44.537320, 21.445436) rotate(-45.000000) translate(-44.537320, -21.445436) "></path>
        <path d="M4.45181316,39.5195746 C4.45181316,38.4152178 5.34809179,37.5199596 6.45421278,37.5199596 L39.4494135,37.5199596 C40.5553083,37.5199596 41.4518132,38.4201358 41.4518132,39.5119767 L41.4518132,46.5279426 C41.4518132,47.6281032 40.5555345,48.4957359 39.4625325,48.4661953 L6.44109386,47.573724 C5.34244446,47.5440308 4.45181316,46.6325264 4.45181316,45.5203447 L4.45181316,39.5195746 Z" id="Rectangle-147" fill="#E43535" transform="translate(22.951813, 42.993444) rotate(-45.000000) translate(-22.951813, -42.993444) "></path>
        <path d="M14.4852814,48.7903679 L14.4852814,52.7903679" id="Line" stroke="#FF78C7" stroke-width="2" stroke-linecap="square" transform="translate(14.485281, 50.790368) rotate(-45.000000) translate(-14.485281, -50.790368) "></path>
        <path d="M17.3137085,45.9619408 L17.3137085,49.9619408" id="Line-Copy-81" stroke="#FF78C7" stroke-width="2" stroke-linecap="square" transform="translate(17.313708, 47.961941) rotate(-45.000000) translate(-17.313708, -47.961941) "></path>
        <path d="M20.1421356,43.1335137 L20.1421356,47.1335137" id="Line-Copy-82" stroke="#FF78C7" stroke-width="2" stroke-linecap="square" transform="translate(20.142136, 45.133514) rotate(-45.000000) translate(-20.142136, -45.133514) "></path>
        <path d="M22.9705627,40.3050865 L22.9705627,44.3050865" id="Line-Copy-83" stroke="#FF78C7" stroke-width="2" stroke-linecap="square" transform="translate(22.970563, 42.305087) rotate(-45.000000) translate(-22.970563, -42.305087) "></path>
        <path d="M25.7989899,37.4766594 L25.7989899,41.4766594" id="Line-Copy-84" stroke="#FF78C7" stroke-width="2" stroke-linecap="square" transform="translate(25.798990, 39.476659) rotate(-45.000000) translate(-25.798990, -39.476659) "></path>
        <path d="M28.627417,34.6482323 L28.627417,38.6482323" id="Line-Copy-85" stroke="#FF78C7" stroke-width="2" stroke-linecap="square" transform="translate(28.627417, 36.648232) rotate(-45.000000) translate(-28.627417, -36.648232) "></path>
        <path d="M31.4558441,31.8198052 L31.4558441,35.8198052" id="Line-Copy-86" stroke="#FF78C7" stroke-width="2" stroke-linecap="square" transform="translate(31.455844, 33.819805) rotate(-45.000000) translate(-31.455844, -33.819805) "></path>
    </g>
</svg>