<?xml version="1.0" encoding="UTF-8"?>
<svg width="64px" height="64px" viewBox="0 0 64 64" version="1.1" xmlns="http://www.w3.org/2000/svg" xmlns:xlink="http://www.w3.org/1999/xlink">
    <!-- Generator: Sketch 43.2 (39069) - http://www.bohemiancoding.com/sketch -->
    <title>swissknife5</title>
    <desc>Created with Sketch.</desc>
    <defs></defs>
    <g id="Outdoor-Activities-(142)" stroke="none" stroke-width="1" fill="none" fill-rule="evenodd">
        <path d="M59,33 L59,30.493205 C59,28.5628011 57.4329966,27 55.5,27 L52,27 L52,50 L59,50 L59,44 C57.3431458,44 56,42.6511841 56,40.9942017 L56,36.0057983 C56,34.3457418 57.3465171,33 59,33 Z" id="Combined-Shape" fill="#979797" transform="translate(55.500000, 38.500000) scale(-1, 1) translate(-55.500000, -38.500000) "></path>
        <path d="M8,3 C8,3 13.0983757,4.09809682 16.9064669,14.601546 C18.1914793,18.1458577 19.1333874,25.0592057 19.1333874,30.5844467 L19.1333874,51 L8,51 L8,3 Z" id="Rectangle-150-Copy-3" fill="#D8D8D8"></path>
        <path d="M4,49 L61,49 L61,55 C61,58.3137085 58.3082008,61 55.0077343,61 L9.99226572,61 C6.68282874,61 4,58.3069658 4,55 L4,49 Z" id="Rectangle-149-Copy-3" fill="#E43535"></path>
        <circle id="Oval-78-Copy-7" fill="#FF78C7" cx="11" cy="55" r="2"></circle>
        <circle id="Oval-78-Copy-6" fill="#FF78C7" cx="55" cy="55" r="2"></circle>
        <path d="M11,13 L11,45" id="Line-Copy-92" stroke="#FFFFFF" stroke-width="2" stroke-linecap="square"></path>
    </g>
</svg>