<svg xmlns="http://www.w3.org/2000/svg" width="64" height="64" viewBox="0 0 64 64">
  <g fill="none" fill-rule="evenodd">
    <rect width="18" height="8" x="4" y="8" fill="#B6B6B6" stroke="#979797" stroke-linecap="round" stroke-width="2"/>
    <rect width="12" height="8" x="22" y="8" fill="#B6B6B6" stroke="#979797" stroke-linecap="round" stroke-width="2"/>
    <rect width="12" height="8" x="34" y="8" fill="#B6B6B6" stroke="#979797" stroke-linecap="round" stroke-width="2"/>
    <rect width="18" height="6" x="4" y="16" fill="#B6B6B6" stroke="#979797" stroke-linecap="round" stroke-width="2"/>
    <polygon fill="#D8D8D8" stroke="#979797" stroke-linecap="round" stroke-width="2" points="22 16 34 16 34 22 22 22"/>
    <polygon fill="#D8D8D8" stroke="#979797" stroke-linecap="round" stroke-width="2" points="34 16 46 16 46 22 34 22"/>
    <polygon fill="#D8D8D8" stroke="#979797" stroke-linecap="round" stroke-width="2" points="22 22 34 22 34 28 22 28"/>
    <polygon fill="#D8D8D8" stroke="#979797" stroke-linecap="round" stroke-width="2" points="34 22 46 22 46 28 34 28"/>
    <polygon fill="#D8D8D8" stroke="#979797" stroke-linecap="round" stroke-width="2" points="22 28 34 28 34 34 22 34"/>
    <polygon fill="#D8D8D8" stroke="#979797" stroke-linecap="round" stroke-width="2" points="34 28 46 28 46 34 34 34"/>
    <polygon fill="#D8D8D8" stroke="#979797" stroke-linecap="round" stroke-width="2" points="22 34 34 34 34 40 22 40"/>
    <polygon fill="#D8D8D8" stroke="#979797" stroke-linecap="round" stroke-width="2" points="34 34 46 34 46 40 34 40"/>
    <polygon fill="#D8D8D8" stroke="#979797" stroke-linecap="round" stroke-width="2" points="22 40 34 40 34 46 22 46"/>
    <polygon fill="#D8D8D8" stroke="#979797" stroke-linecap="round" stroke-width="2" points="34 40 46 40 46 46 34 46"/>
    <polygon fill="#D8D8D8" stroke="#979797" stroke-linecap="round" stroke-width="2" points="22 46 34 46 34 52 22 52"/>
    <polygon fill="#D8D8D8" stroke="#979797" stroke-linecap="round" stroke-width="2" points="22 52 34 52 34 58 22 58"/>
    <polygon fill="#D8D8D8" stroke="#979797" stroke-linecap="round" stroke-width="2" points="34 46 46 46 46 52 34 52"/>
    <polygon fill="#D8D8D8" stroke="#979797" stroke-linecap="round" stroke-width="2" points="34 52 46 52 46 58 34 58"/>
    <rect width="18" height="6" x="4" y="22" fill="#B6B6B6" stroke="#979797" stroke-linecap="round" stroke-width="2"/>
    <rect width="18" height="6" x="4" y="28" fill="#B6B6B6" stroke="#979797" stroke-linecap="round" stroke-width="2"/>
    <rect width="18" height="6" x="4" y="34" fill="#B6B6B6" stroke="#979797" stroke-linecap="round" stroke-width="2"/>
    <rect width="18" height="6" x="4" y="40" fill="#B6B6B6" stroke="#979797" stroke-linecap="round" stroke-width="2"/>
    <rect width="18" height="6" x="4" y="46" fill="#B6B6B6" stroke="#979797" stroke-linecap="round" stroke-width="2"/>
    <rect width="18" height="6" x="4" y="52" fill="#B6B6B6" stroke="#979797" stroke-linecap="round" stroke-width="2"/>
    <rect width="11" height="60" x="51" y="3" fill="#DFCC00"/>
    <path stroke="#979797" stroke-linecap="square" stroke-width="2" d="M52 10L55 10M52 20L55 20M52 15L53 15M52 25L53 25M52 30L55 30M52 35L53 35M52 40L55 40M52 45L53 45M52 50L55 50M52 55L53 55"/>
  </g>
</svg>
