<svg xmlns="http://www.w3.org/2000/svg" width="64" height="64" viewBox="0 0 64 64">
  <g fill="none" fill-rule="evenodd">
    <rect width="58" height="40" x="-3" y="13" fill="#5B68C0" rx="2" transform="rotate(90 26 33)"/>
    <circle cx="26" cy="59" r="2" fill="#4796E7" transform="rotate(90 26 59)"/>
    <rect width="49" height="36" x="1.5" y="13.5" fill="#B4DFFB" rx="1" transform="rotate(90 26 31.5)"/>
    <path fill="#F5413E" d="M26,44.0023695 C26,41.7919219 27.787167,39.7942228 29.9642898,39.5435455 L43,38.0425936 L56.0357102,39.5435455 C58.225127,39.7956384 60,41.7918218 60,44.0023695 L60,51 L26,51 L26,44.0023695 Z"/>
    <path fill="#FFDD95" d="M37,33.3164468 C33.9897907,30.470456 32,25.8615543 32,22 C32,15.9248678 36.9248678,11 43,11 C49.0751322,11 54,15.9248678 54,22 C54,25.8615543 52.0102093,30.470456 49,33.3164468 L49,40 C49,40 44.9325778,41.4486507 43,41.4486507 C41.0674222,41.4486507 37,40 37,40 L37,33.3164468 Z"/>
    <circle cx="34" cy="27" r="3" fill="#FFDD95"/>
    <circle cx="52" cy="27" r="3" fill="#FFDD95"/>
  </g>
</svg>
