<?xml version="1.0" encoding="UTF-8"?>
<svg width="64px" height="64px" viewBox="0 0 64 64" version="1.1" xmlns="http://www.w3.org/2000/svg" xmlns:xlink="http://www.w3.org/1999/xlink">
    <!-- Generator: Sketch 43.2 (39069) - http://www.bohemiancoding.com/sketch -->
    <title>tabletenisset</title>
    <desc>Created with Sketch.</desc>
    <defs>
        <path d="M13,39.4432241 C5.54126951,37.326979 0,29.424803 0,20 C0,8.954305 7.61115925,0 17,0 C26.3888407,0 34,8.954305 34,20 C34,29.424803 28.4587305,37.326979 21,39.4432241 L21,50.9941413 C21,52.1019465 20.1132936,53 19.0018986,53 L14.9981014,53 C13.8945804,53 13,52.1029399 13,50.9941413 L13,39.4432241 Z" id="path-1"></path>
        <path d="M13,39.4432241 C5.54126951,37.326979 0,29.424803 0,20 C0,8.954305 7.61115925,0 17,0 C26.3888407,0 34,8.954305 34,20 C34,29.424803 28.4587305,37.326979 21,39.4432241 L21,50.9941413 C21,52.1019465 20.1132936,53 19.0018986,53 L14.9981014,53 C13.8945804,53 13,52.1029399 13,50.9941413 L13,39.4432241 Z" id="path-3"></path>
    </defs>
    <g id="Outdoor-Activities-(142)" stroke="none" stroke-width="1" fill="none" fill-rule="evenodd">
        <g id="Rectangle-83-Copy-2" transform="translate(1.000000, 7.000000)">
            <mask id="mask-2" fill="white">
                <use xlink:href="#path-1"></use>
            </mask>
            <use id="Mask" fill="#80D25B" xlink:href="#path-1"></use>
            <rect id="Rectangle-83" fill="#595959" mask="url(#mask-2)" x="0" y="44" width="34" height="11"></rect>
            <rect id="Rectangle-83-Copy" fill="#FCC24C" mask="url(#mask-2)" x="0" y="33" width="34" height="11"></rect>
        </g>
        <g id="Rectangle-83-Copy-3" transform="translate(16.000000, 3.000000)">
            <mask id="mask-4" fill="white">
                <use xlink:href="#path-3"></use>
            </mask>
            <use id="Mask" fill="#ED9111" xlink:href="#path-3"></use>
            <rect id="Rectangle-83" fill="#595959" mask="url(#mask-4)" x="0" y="44" width="34" height="11"></rect>
            <rect id="Rectangle-83-Copy" fill="#D650C7" mask="url(#mask-4)" x="0" y="33" width="34" height="11"></rect>
        </g>
        <circle id="Oval-42-Copy-3" fill="#595959" cx="52.5" cy="49.5" r="5.5"></circle>
        <path d="M52.5,46 C50.5670034,46 49,47.5670034 49,49.5" id="Oval-42-Copy-2" stroke="#FFFFFF" stroke-width="2" stroke-linecap="round"></path>
    </g>
</svg>