<svg xmlns="http://www.w3.org/2000/svg" width="64" height="64" viewBox="0 0 64 64">
  <g fill="none" fill-rule="evenodd">
    <rect width="60" height="42" x="3" y="11" fill="#5B68C0" rx="2" transform="rotate(90 33 32)"/>
    <circle cx="32" cy="58" r="2" fill="#0A3586" transform="rotate(90 32 58)"/>
    <rect width="49" height="38" x="8.5" y="10.5" fill="#ECECEC" rx="1" transform="rotate(90 33 29.5)"/>
    <path fill="#FF5EAC" d="M42.9505146,39.5415626 C47.221216,37.1800673 50,33.3381882 50,29 C50,21.8202983 42.3888407,16 33,16 C23.6111593,16 16,21.8202983 16,29 C16,36.1797017 23.6111593,42 33,42 C35.3587854,42 37.6053672,41.6326347 39.6472422,40.9686418 L42.737135,43.1448584 L42.9505146,39.5415626 Z"/>
    <path fill="#FFF" d="M35.966,22.068 C36.6260033,22.5840026 36.956,23.2019964 36.956,23.922 C36.956,24.5940034 36.5960036,25.5539938 35.876,26.802 C34.9039951,28.4580083 34.322001,29.5439974 34.13,30.06 C34.0459996,30.2760011 34.004,30.4439994 34.004,30.564 C34.004,30.6000002 34.0159999,30.6599996 34.04,30.744 C34.0640001,30.8280004 34.0700001,30.9119996 34.058,30.996 C34.0700001,30.8759994 34.0819999,31.0979972 34.094,31.662 C34.094,31.8900011 34.0280007,32.0489996 33.896,32.139 C33.7639993,32.2290005 33.6140008,32.274 33.446,32.274 C33.0739981,32.274 32.7020019,32.1150016 32.33,31.797 C31.9579981,31.4789984 31.7540002,31.1400018 31.718,30.78 C31.6579997,30.2279972 32.1139951,29.0400091 33.086,27.216 C34.094005,25.3439906 34.598,24.1680024 34.598,23.688 C34.598,23.3639984 34.5140008,23.202 34.346,23.202 C33.9619981,23.202 33.3020047,23.8679933 32.366,25.2 C32.2939996,25.2720004 32.2070005,25.4159989 32.105,25.632 C32.0029995,25.8480011 31.8800007,25.9949996 31.736,26.073 C31.5919993,26.1510004 31.424001,26.19 31.232,26.19 C30.8959983,26.19 30.5900014,26.0820011 30.314,25.866 C30.0379986,25.6499989 29.9059999,25.3920015 29.918,25.092 C29.9420001,24.6119976 30.2299972,24.2640011 30.782,24.048 C31.4420033,23.255996 31.9939978,22.6740019 32.438,22.302 C33.1220034,21.7499972 33.7759969,21.474 34.4,21.474 C34.9280026,21.474 35.4499974,21.671998 35.966,22.068 Z M34.814,36.27 C34.6579992,36.5340013 34.4300015,36.666 34.13,36.666 C33.8539986,36.666 33.5690015,36.564001 33.275,36.36 C32.9809985,36.155999 32.7620007,35.9280013 32.618,35.676 C32.5219995,35.5079992 32.474,35.3160011 32.474,35.1 L32.474,34.452 C32.4619999,34.3439995 32.4290003,34.2000009 32.375,34.02 C32.3209997,33.8399991 32.294,33.7080004 32.294,33.624 C32.294,33.5039994 32.3329996,33.3900005 32.411,33.282 C32.4890004,33.1739995 32.725998,33.12 33.122,33.12 C33.8420036,33.12 34.3219988,33.323998 34.562,33.732 C34.6580005,33.8880008 34.706,34.0799989 34.706,34.308 L34.706,34.92 C34.7180001,35.0400006 34.7539997,35.2109989 34.814,35.433 C34.8740003,35.6550011 34.904,35.8199995 34.904,35.928 C34.904,36.0480006 34.8740003,36.1619995 34.814,36.27 Z"/>
  </g>
</svg>
