<svg xmlns="http://www.w3.org/2000/svg" width="64" height="64" viewBox="0 0 64 64">
  <g fill="none" fill-rule="evenodd">
    <rect width="58" height="40" x="-6" y="11" fill="#D8D8D8" rx="2" transform="rotate(90 23 31)"/>
    <circle cx="23" cy="57" r="2" fill="#868686" transform="rotate(90 23 57)"/>
    <rect width="49" height="36" x="-1.5" y="11.5" fill="#4796E7" rx="1" transform="rotate(90 23 29.5)"/>
    <path fill="#FFF" d="M17.156,34.892 C16.9999992,35.2520018 16.6040032,35.432 15.968,35.432 C15.367997,35.432 14.8220025,35.2880014 14.33,35 C13.7899973,34.6759984 13.5559996,34.2920022 13.628,33.848 C13.6640002,33.6679991 13.7959989,33.4610012 14.024,33.227 C14.2520011,32.9929988 14.3600001,32.7920008 14.348,32.624 L14.024,24.632 C14.0119999,24.3559986 13.7420026,24.0800014 13.214,23.804 C12.6859974,23.5279986 12.4160001,23.192002 12.404,22.796 C12.7640018,22.0399962 13.1779977,21.4400022 13.646,20.996 C14.0780022,20.5759979 14.4799981,20.3480002 14.852,20.312 C15.3560025,20.2639998 15.811998,20.4019984 16.22,20.726 C16.628002,21.0500016 16.8200001,21.4519976 16.796,21.932 C16.796,22.0640007 16.7300007,22.2229991 16.598,22.409 C16.4659993,22.5950009 16.4,22.7599993 16.4,22.904 L16.688,32.408 C16.7000001,32.6720013 16.807999,32.9689983 17.012,33.299 C17.216001,33.6290016 17.318,33.9139988 17.318,34.154 C17.318,34.3700011 17.2640005,34.6159986 17.156,34.892 Z M27.722,27.746 C27.529999,27.7339999 27.2240021,27.7399999 26.804,27.764 L25.508,27.98 L25.652,29.132 C25.6640001,29.2400005 25.7029997,29.392999 25.769,29.591 C25.8350003,29.789001 25.868,29.9359995 25.868,30.032 C25.868,30.2960013 25.7180015,30.4999993 25.418,30.644 C25.1779988,30.7640006 24.9080015,30.824 24.608,30.824 C24.199998,30.824 23.9150008,30.7310009 23.753,30.545 C23.5909992,30.3589991 23.4800003,30.0530021 23.42,29.627 C23.3599997,29.2009979 23.3000003,28.7600023 23.24,28.304 L22.484,28.628 C22.2679989,28.7240005 22.0520011,28.7600001 21.836,28.736 C21.5719987,28.7119999 21.3500009,28.5620014 21.17,28.286 C20.9899991,28.0099986 20.9,27.7100016 20.9,27.386 C20.9,27.181999 20.9539995,26.975001 21.062,26.765 C21.1700005,26.5549989 21.319999,26.45 21.512,26.45 C21.5600002,26.45 21.6559993,26.4739998 21.8,26.522 C21.9440007,26.5700002 22.0639995,26.5880001 22.16,26.576 L23.06,26.432 L22.88,24.956 C22.8679999,24.8839996 22.8380002,24.7820007 22.79,24.65 C22.7419998,24.5179993 22.718,24.4160004 22.718,24.344 C22.718,24.1279989 22.9399978,23.9540007 23.384,23.822 C23.7080016,23.7259995 24.0139986,23.678 24.302,23.678 C25.0100035,23.678 25.364,23.8399984 25.364,24.164 C25.364,24.2240003 25.3310003,24.3289992 25.265,24.479 C25.1989997,24.6290007 25.1719999,24.7519995 25.184,24.848 L25.292,26.144 L26.084,26 C26.1920005,25.9759999 26.3659988,25.9280004 26.606,25.856 C26.810001,25.7839996 26.9719994,25.748 27.092,25.748 C27.3800014,25.748 27.6409988,25.8859986 27.875,26.162 C28.1090012,26.4380014 28.226,26.7259985 28.226,27.026 C28.226,27.4100019 28.0580017,27.6499995 27.722,27.746 Z M35.336,34.892 C35.1799992,35.2520018 34.7840032,35.432 34.148,35.432 C33.547997,35.432 33.0020025,35.2880014 32.51,35 C31.9699973,34.6759984 31.7359996,34.2920022 31.808,33.848 C31.8440002,33.6679991 31.9759989,33.4610012 32.204,33.227 C32.4320011,32.9929988 32.5400001,32.7920008 32.528,32.624 L32.204,24.632 C32.1919999,24.3559986 31.9220026,24.0800014 31.394,23.804 C30.8659974,23.5279986 30.5960001,23.192002 30.584,22.796 C30.9440018,22.0399962 31.3579977,21.4400022 31.826,20.996 C32.2580022,20.5759979 32.6599981,20.3480002 33.032,20.312 C33.5360025,20.2639998 33.991998,20.4019984 34.4,20.726 C34.808002,21.0500016 35.0000001,21.4519976 34.976,21.932 C34.976,22.0640007 34.9100007,22.2229991 34.778,22.409 C34.6459993,22.5950009 34.58,22.7599993 34.58,22.904 L34.868,32.408 C34.8800001,32.6720013 34.987999,32.9689983 35.192,33.299 C35.396001,33.6290016 35.498,33.9139988 35.498,34.154 C35.498,34.3700011 35.4440005,34.6159986 35.336,34.892 Z"/>
    <rect width="14" height="12" x="46.294" y="46.579" fill="#FFDD95" transform="rotate(-30 53.294 52.579)"/>
    <path fill="#FFDD95" d="M40.4772413,34.6733938 L51.4771193,34.6733938 C53.1340409,34.6733938 54.4772413,36.0263193 54.4772413,37.6659335 L54.4772413,47.6832939 C54.4772413,50.43925 52.2418285,52.6733938 49.485215,52.6733938 L37.4746632,52.6733938 C36.3715176,52.6733938 35.4772413,51.780771 35.4772413,50.6783045 L35.4772413,36.919527 L35.4772413,24.1762166 C35.4772413,22.7939457 36.5869034,21.6733938 37.9772413,21.6733938 C39.3579532,21.6733938 40.4772413,22.7993744 40.4772413,24.1762166 L40.4772413,34.6733938 Z" transform="rotate(-30 44.977 37.173)"/>
    <path stroke="#FFCC60" stroke-linecap="square" stroke-width="2" d="M42.1961524,37.3564065 L42.1961524,41.3564065" transform="rotate(-30 42.196 39.356)"/>
    <path stroke="#FFCC60" stroke-linecap="square" stroke-width="2" d="M45.660254,35.3564065 L45.660254,39.3564065" transform="rotate(-30 45.66 37.356)"/>
    <path stroke="#FFCC60" stroke-linecap="square" stroke-width="2" d="M49.1243557,33.3564065 L49.1243557,37.3564065" transform="rotate(-30 49.124 35.356)"/>
  </g>
</svg>
