<svg xmlns="http://www.w3.org/2000/svg" width="64" height="64" viewBox="0 0 64 64">
  <g fill="none" fill-rule="evenodd">
    <rect width="58" height="40" x="3" y="8" fill="#D8D8D8" rx="2"/>
    <circle cx="58" cy="28" r="2" fill="#868686"/>
    <rect width="49" height="34" x="6" y="11" fill="#325AA6" rx="1"/>
    <path stroke="#80D25B" stroke-linecap="square" stroke-width="2" d="M11 16L50 16M11 22L25 22M11 28L40 28M30 22L44 22"/>
    <rect width="14" height="12" x="34" y="48" fill="#FFDD95"/>
    <path fill="#FFDD95" d="M37,34 L47.9998779,34 C49.6567996,34 51,35.3529255 51,36.9925398 L51,47.0099002 C51,49.7658562 48.7645872,52 46.0079737,52 L33.9974219,52 C32.8942762,52 32,51.1073772 32,50.0049107 L32,36.2461332 L32,23.5028229 C32,22.120552 33.1096621,21 34.5,21 C35.8807119,21 37,22.1259806 37,23.5028229 L37,34 Z"/>
    <path stroke="#FFCC60" stroke-linecap="square" stroke-width="2" d="M38 35L38 39M42 35L42 39M46 35L46 39"/>
  </g>
</svg>
