<svg xmlns="http://www.w3.org/2000/svg" width="64" height="64" viewBox="0 0 64 64">
  <g fill="none" fill-rule="evenodd">
    <rect width="58" height="40" x="-7" y="10" fill="#5B68C0" rx="2" transform="rotate(90 22 30)"/>
    <circle cx="22" cy="56" r="2" fill="#0A3586" transform="rotate(90 22 56)"/>
    <rect width="49" height="36" x="-2.5" y="10.5" fill="#ECECEC" rx="1" transform="rotate(90 22 28.5)"/>
    <rect width="52" height="10" x="11" y="53" fill="#C7857A" rx="2"/>
    <path stroke="#9F5757" stroke-linecap="square" stroke-width="2" d="M19 54L19 62M24 54L24 62M46 54L46 62"/>
    <path stroke="#FFF" stroke-linecap="square" stroke-width="2" d="M27,58 L43,58"/>
    <rect width="52" height="10" x="11" y="43" fill="#22BA8E" rx="2"/>
    <path stroke="#9ACCFF" stroke-linecap="square" stroke-width="2" d="M29 44L29 52M34 44L34 52M56 44L56 52"/>
    <path stroke="#FFF" stroke-linecap="square" stroke-width="2" d="M37,48 L53,48"/>
  </g>
</svg>
