<svg xmlns="http://www.w3.org/2000/svg" width="64" height="64" viewBox="0 0 64 64">
  <g fill="none" fill-rule="evenodd">
    <rect width="60" height="40" x="2" y="8" fill="#D8D8D8" rx="2"/>
    <circle cx="59" cy="28" r="2" fill="#868686"/>
    <rect width="51" height="34" x="5" y="11" fill="#80D25B" rx="1"/>
    <path fill="#325AA6" d="M13.386,32.916 C13.2646661,33.1960014 12.9566691,33.336 12.462,33.336 C11.995331,33.336 11.5706686,33.2240011 11.188,33 C10.7679979,32.7479987 10.5859997,32.4493351 10.642,32.104 C10.6700001,31.9639993 10.7726658,31.8030009 10.95,31.621 C11.1273342,31.4389991 11.2113334,31.2826673 11.202,31.152 L10.95,24.936 C10.9406666,24.7213323 10.7306687,24.5066677 10.32,24.292 C9.90933128,24.0773323 9.69933338,23.8160015 9.69,23.508 C9.9700014,22.9199971 10.2919982,22.4533351 10.656,22.108 C10.9920017,21.7813317 11.3046652,21.6040001 11.594,21.576 C11.986002,21.5386665 12.3406651,21.6459987 12.658,21.898 C12.9753349,22.1500013 13.1246668,22.4626648 13.106,22.836 C13.106,22.9386672 13.0546672,23.0623326 12.952,23.207 C12.8493328,23.3516674 12.798,23.4799994 12.798,23.592 L13.022,30.984 C13.0313334,31.1893344 13.1153325,31.4203321 13.274,31.677 C13.4326675,31.9336679 13.512,32.1553324 13.512,32.342 C13.512,32.5100008 13.4700004,32.7013323 13.386,32.916 Z M23.466,31.278 C23.6153341,31.4833344 23.69,31.683999 23.69,31.88 C23.69,32.150668 23.554668,32.3793324 23.284,32.566 C23.013332,32.7526676 22.7380014,32.846 22.458,32.846 C22.3273327,32.846 22.1313346,32.8180003 21.87,32.762 C21.6459989,32.7059997 21.4920004,32.6826666 21.408,32.692 C20.9786645,32.6546665 20.3580041,32.7246658 19.546,32.902 C18.5099948,33.1260011 17.954667,33.2426666 17.88,33.252 C17.6279987,33.2800001 17.3246684,33.2193341 16.97,33.07 C16.5499979,32.8926658 16.3353334,32.668668 16.326,32.398 C16.3166666,32.201999 16.4286655,32.0386673 16.662,31.908 C16.9420014,31.7493325 17.1099997,31.6140006 17.166,31.502 C17.8380034,30.7833297 18.6173289,29.7940063 19.504,28.534 C20.8573401,26.6019903 21.534,25.1833379 21.534,24.278 C21.534,23.9419983 21.436001,23.6806676 21.24,23.494 C21.2213332,23.4846666 21.1980001,23.48 21.17,23.48 C21.0206659,23.48 20.7360021,23.6573316 20.316,24.012 C19.9426648,24.3293349 19.7140004,24.5486661 19.63,24.67 C19.5273328,24.744667 19.438667,24.9266652 19.364,25.216 C19.2986663,25.4680013 19.1540011,25.6406662 18.93,25.734 C18.8646663,25.7620001 18.7853338,25.776 18.692,25.776 C18.4119986,25.776 18.1226682,25.6686677 17.824,25.454 C17.4973317,25.2113321 17.3153335,24.9406682 17.278,24.642 C17.2593332,24.4926659 17.3993318,24.2686682 17.698,23.97 C17.9966682,23.6713318 18.3233316,23.4193344 18.678,23.214 C19.7326719,22.1406613 20.628663,21.6086666 21.366,21.618 C22.7380069,21.6460001 23.424,22.3553264 23.424,23.746 C23.424,24.8566722 23.0086708,26.1866589 22.178,27.736 C21.3939961,29.210674 20.5166715,30.3819957 19.546,31.25 C19.8073346,31.2126665 20.5726603,31.0633346 21.842,30.802 C22.2713355,30.7179996 22.4766668,30.676 22.458,30.676 C22.8313352,30.676 23.1673318,30.8766647 23.466,31.278 Z M31.25,27.792 C31.2686668,27.8386669 31.278,27.8946663 31.278,27.96 C31.278,28.6040032 30.7553386,29.6166598 29.71,30.998 C28.6553281,32.398007 27.8153365,33.1539994 27.19,33.266 C26.8726651,33.3220003 26.3966698,33.0653362 25.762,32.496 C25.1646637,31.9359972 24.8380003,31.5160014 24.782,31.236 C24.7353331,31.0213323 24.8053324,30.8253342 24.992,30.648 C25.1786676,30.4706658 25.3886655,30.3866666 25.622,30.396 C25.9206682,30.4146668 26.2123319,30.5266656 26.497,30.732 C26.7816681,30.9373344 26.9939993,31.0493332 27.134,31.068 C27.2740007,31.0866668 27.6566635,30.6783375 28.282,29.843 C28.9073365,29.0076625 29.22,28.4313349 29.22,28.114 C29.22,27.9553325 29.1080011,27.876 28.884,27.876 C28.7626661,27.876 28.6203342,27.9343328 28.457,28.051 C28.2936659,28.1676673 28.1326675,28.2773328 27.974,28.38 C27.8526661,28.4266669 27.7056675,28.5269992 27.533,28.681 C27.3603325,28.8350008 27.1993341,28.912 27.05,28.912 C26.7606652,28.912 26.4666682,28.7626682 26.168,28.464 C25.8413317,28.1466651 25.6873332,27.8106684 25.706,27.456 C25.7153334,27.2226655 25.8926649,27.0453339 26.238,26.924 C26.7233358,26.7559992 26.9939997,26.6533335 27.05,26.616 C27.442002,26.3173318 27.871331,25.8436699 28.338,25.195 C28.804669,24.5463301 29.038,24.0726682 29.038,23.774 C29.038,23.6899996 29.0193335,23.6293335 28.982,23.592 C28.9259997,23.5359997 28.7066686,23.6666651 28.324,23.984 C27.9786649,24.2640014 27.6566682,24.5719983 27.358,24.908 C27.2646662,24.982667 27.1386675,25.155332 26.98,25.426 C26.8586661,25.6313344 26.7046676,25.7666663 26.518,25.832 C26.4153328,25.8693335 26.3126672,25.888 26.21,25.888 C25.9113318,25.888 25.633668,25.7760011 25.377,25.552 C25.120332,25.3279989 24.9500004,25.0760014 24.866,24.796 C24.8006663,24.5719989 25.4049936,23.9793381 26.679,23.018 C27.9530064,22.0566619 28.860664,21.576 29.402,21.576 C29.868669,21.576 30.2419986,21.741665 30.522,22.073 C30.8020014,22.404335 30.9326668,22.7986644 30.914,23.256 C30.8859999,24.0120038 30.7553345,24.623331 30.522,25.09 C30.3726659,25.3980015 30.027336,25.8506637 29.486,26.448 C29.9806691,26.5786673 30.3539987,26.7279992 30.606,26.896 C30.9140015,27.1106677 31.1286661,27.4093314 31.25,27.792 Z M38.222,32.412 C38.0819993,32.8693356 37.7366694,33.098 37.186,33.098 C36.9993324,33.098 36.8500006,33.0653337 36.738,33 C36.5886659,32.8973328 36.4860003,32.6920015 36.43,32.384 C36.3179994,31.8519973 36.2060006,31.4366682 36.094,31.138 C36.0659999,31.6513359 35.7860027,32.171664 35.254,32.699 C34.7219973,33.226336 34.185336,33.49 33.644,33.49 C32.9626633,33.49 32.4913346,33.0373379 32.23,32.132 C32.1366662,31.7959983 32.09,31.4786682 32.09,31.18 C32.09,30.3119957 32.5333289,29.5700031 33.42,28.954 C34.1480036,28.5246645 34.880663,28.1000021 35.618,27.68 C35.6553335,27.5213325 35.674,27.3673341 35.674,27.218 C35.674,26.9286652 35.5946675,26.7583336 35.436,26.707 C35.2773325,26.6556664 35.1420006,26.63 35.03,26.63 C34.833999,26.63 34.6730006,26.6929994 34.547,26.819 L34.19,27.176 C34.0779994,27.250667 33.9333342,27.423332 33.756,27.694 C33.6159993,27.9086677 33.4620008,28.0253332 33.294,28.044 C33.0513321,28.0720001 32.832001,27.988001 32.636,27.792 C32.439999,27.595999 32.342,27.3673346 32.342,27.106 C32.342,26.9566659 32.379333,26.8213339 32.454,26.7 C32.6686677,26.3453316 32.9906645,26.0373346 33.42,25.776 C34.0733366,25.383998 34.8899951,25.188 35.87,25.188 C36.4953365,25.188 36.9246655,25.4866637 37.158,26.084 C37.3073341,26.4853353 37.419333,27.2366612 37.494,28.338 C37.5780004,29.6726733 37.6806661,30.6479969 37.802,31.264 C37.8206668,31.3853339 37.8999993,31.5393324 38.04,31.726 C38.1800007,31.9126676 38.25,32.0759993 38.25,32.216 C38.25,32.2813337 38.2406668,32.3466663 38.222,32.412 Z M35.786,28.968 C35.5059986,29.1173341 35.2283347,29.2713325 34.953,29.43 C34.6776653,29.5886675 34.4233345,29.7986654 34.19,30.06 C33.8539983,30.4426686 33.686,30.769332 33.686,31.04 C33.686,31.2640011 33.7699992,31.4973321 33.938,31.74 C34.0313338,31.8706673 34.1339994,31.936 34.246,31.936 C34.4886679,31.936 34.7523319,31.665336 35.037,31.124 C35.3216681,30.582664 35.5713323,29.8640045 35.786,28.968 Z M44.774,29.22 C44.774,30.2933387 44.638668,31.1659966 44.368,31.838 C44.0133316,32.7153377 43.4486705,33.154 42.674,33.154 C42.0953304,33.154 41.5913355,32.8506697 41.162,32.244 C41.1713334,32.318667 41.1993331,32.4259993 41.246,32.566 C41.2926669,32.7060007 41.316,32.8086663 41.316,32.874 C41.316,32.9580004 41.2926669,33.0233331 41.246,33.07 C41.1246661,33.2193341 40.8820018,33.294 40.518,33.294 C39.9393304,33.294 39.5940006,33.1680013 39.482,32.916 C39.4446665,32.8319996 39.426,32.752667 39.426,32.678 C39.426,32.5846662 39.463333,32.4656674 39.538,32.321 C39.612667,32.1763326 39.65,32.0526672 39.65,31.95 L39.65,23.97 C39.65,23.8486661 39.619667,23.7016675 39.559,23.529 C39.498333,23.3563325 39.468,23.2186672 39.468,23.116 C39.468,23.0133328 39.4866665,22.9060006 39.524,22.794 C39.6360006,22.4579983 39.925331,22.29 40.392,22.29 C40.9613362,22.29 41.343999,22.4999979 41.54,22.92 C41.5866669,23.0133338 41.61,23.1066662 41.61,23.2 C41.61,23.3213339 41.5493339,23.4986655 41.428,23.732 C41.3066661,23.9653345 41.246,24.1566659 41.246,24.306 L41.246,26.112 C41.6473353,25.4959969 42.0393314,25.188 42.422,25.188 C43.1033367,25.188 43.677331,25.6313289 44.144,26.518 C44.5640021,27.3300041 44.774,28.2306617 44.774,29.22 Z M42.926,29.22 C42.926,28.6319971 42.8746672,28.104669 42.772,27.638 C42.6413327,27.0686638 42.4686677,26.784 42.254,26.784 C42.0673324,26.784 41.8806676,27.0919969 41.694,27.708 C41.5073324,28.2866696 41.414,28.7906645 41.414,29.22 C41.414,29.7893362 41.4979992,30.3539972 41.666,30.914 C41.8433342,31.5206697 42.0393323,31.824 42.254,31.824 C42.7113356,31.824 42.94,31.2966719 42.94,30.242 L42.94,29.724 C42.9306666,29.4906655 42.926,29.3226672 42.926,29.22 Z M50.808,30.676 C50.7986666,30.8813344 50.7100008,31.0913323 50.542,31.306 C50.2806654,31.6140015 50.112667,31.8473325 50.038,32.006 C49.4499971,32.9020045 48.8433365,33.35 48.218,33.35 C47.480663,33.35 46.9066687,32.9766704 46.496,32.23 C46.1319982,31.5486633 45.95,30.6900052 45.95,29.654 C45.95,28.4686607 46.1739978,27.4373377 46.622,26.56 C47.1166691,25.5893285 47.7559961,25.104 48.54,25.104 C49.1560031,25.104 49.6553314,25.4446633 50.038,26.126 C50.3553349,26.7046696 50.514,27.3346633 50.514,28.016 C50.514,28.2026676 50.5000001,28.3659993 50.472,28.506 C50.4066663,28.8233349 50.140669,28.982 49.674,28.982 C49.3099982,28.982 49.030001,28.8793344 48.834,28.674 C48.7406662,28.5713328 48.694,28.3333352 48.694,27.96 C48.694,27.8666662 48.6986666,27.7313342 48.708,27.554 L48.708,27.148 C48.708,26.7279979 48.6333341,26.518 48.484,26.518 C48.3253325,26.518 48.1573342,26.9776621 47.98,27.897 C47.8026658,28.8163379 47.714,29.6773293 47.714,30.48 C47.714,31.413338 47.8539986,31.88 48.134,31.88 C48.4980018,31.88 48.7686658,31.5860029 48.946,30.998 C49.020667,30.9139996 49.0626666,30.7460013 49.072,30.494 C49.072,30.2699989 49.1279994,30.1230003 49.24,30.053 C49.3520006,29.9829997 49.5153323,29.948 49.73,29.948 C50.0100014,29.948 50.2526656,30.0086661 50.458,30.13 C50.7006679,30.2700007 50.8173334,30.4519989 50.808,30.676 Z"/>
  </g>
</svg>
