<svg xmlns="http://www.w3.org/2000/svg" width="64" height="64" viewBox="0 0 64 64">
  <g fill="none" fill-rule="evenodd">
    <rect width="58" height="40" x="-5" y="12" fill="#595959" rx="2" transform="rotate(90 24 32)"/>
    <circle cx="24" cy="58" r="2" fill="#868686" transform="rotate(90 24 58)"/>
    <rect width="49" height="36" x="-.5" y="12.5" fill="#325AA6" rx="1" transform="rotate(90 24 30.5)"/>
    <path fill="#D8D8D8" d="M52.1074028,35.3955983 C53.7078611,36.6473354 57.367911,44.043357 59.6176718,43.4405354 C62.1581737,42.75981 62.7690852,36.8018283 60.982181,30.1330108 C59.1952767,23.4641934 58.1392519,18.2975934 55.2909227,17.4474491 C54.194988,17.1203441 51.9663927,16.4510575 49.602784,17.8648292 C47.2391754,19.2786009 39.767385,19.2786009 37.4037764,17.8648292 C35.0401678,16.4510575 32.8115725,17.1203441 31.7156378,17.4474491 C28.8673086,18.2975934 27.8112837,23.4641934 26.0243795,30.1330108 C24.2374752,36.8018283 24.8483868,42.75981 27.3888887,43.4405354 C29.6386494,44.043357 33.2986993,36.6473354 34.8991577,35.3955983 C36.0076121,34.5286631 39.1630894,34.4411904 41.230341,34.4693382 L46.5878784,34.4654589 C48.5932201,34.4747841 51.1361419,34.6359638 52.1074028,35.3955983 Z"/>
    <path fill="#595959" d="M36,25 L36,22 L33,22 L33,25 L30,25 L30,28 L33,28 L33,31 L36,31 L36,28 L39,28 L39,25 L36,25 Z"/>
    <circle cx="52.5" cy="26.5" r="3.5" fill="#595959"/>
  </g>
</svg>
