<svg xmlns="http://www.w3.org/2000/svg" width="64" height="64" viewBox="0 0 64 64">
  <g fill="none" fill-rule="evenodd">
    <polygon fill="#B4DFFB" points="10 7 46 7 46 60 28 47.968 10 60"/>
    <circle cx="46" cy="24" r="12" fill="#F5413E"/>
    <path fill="#FFF" fill-rule="nonzero" d="M39.636039,19.0502525 L50.9497475,30.363961 C51.3402718,30.7544853 51.9734367,30.7544853 52.363961,30.363961 C52.7544853,29.9734367 52.7544853,29.3402718 52.363961,28.9497475 L41.0502525,17.636039 C40.6597282,17.2455147 40.0265633,17.2455147 39.636039,17.636039 C39.2455147,18.0265633 39.2455147,18.6597282 39.636039,19.0502525 Z"/>
    <path fill="#FFF" fill-rule="nonzero" d="M41.0502525,30.363961 L52.363961,19.0502525 C52.7544853,18.6597282 52.7544853,18.0265633 52.363961,17.636039 C51.9734367,17.2455147 51.3402718,17.2455147 50.9497475,17.636039 L39.636039,28.9497475 C39.2455147,29.3402718 39.2455147,29.9734367 39.636039,30.363961 C40.0265633,30.7544853 40.6597282,30.7544853 41.0502525,30.363961 Z"/>
  </g>
</svg>
