<svg xmlns="http://www.w3.org/2000/svg" width="64" height="64" viewBox="0 0 64 64">
  <g fill="none" fill-rule="evenodd">
    <path fill="#22BA8E" d="M20.5109203,34.4932326 C20.5109203,28.9680915 24.9868585,24.4890797 30.5109203,24.4890797 L30.5109203,24.4890797 C36.0337678,24.4890797 40.5109203,28.9639958 40.5109203,34.4932326 L40.5109203,67.5067674 C40.5109203,73.0319085 36.0349821,77.5109203 30.5109203,77.5109203 L30.5109203,77.5109203 C24.9880728,77.5109203 20.5109203,73.0360042 20.5109203,67.5067674 L20.5109203,34.4932326 Z" transform="rotate(90 30.51 51)"/>
    <path stroke="#FFF" stroke-linecap="round" stroke-linejoin="round" stroke-width="2" d="M35,44 L49,44"/>
    <path fill="#4796E7" d="M12.3207924,18.6610676 C12.2083221,13.1379367 16.5930852,8.66055442 22.117147,8.66055442 L22.117147,8.66055442 C27.6399945,8.66055442 32.20841,13.1422525 32.3207924,18.6610676 L33.0044777,52.2351397 C33.1208692,57.9508335 28.5765513,62.5843188 22.8637251,62.5843188 L23.5667213,62.5843188 C17.8497468,62.5843188 13.1208894,57.9518242 13.0044777,52.2351397 L12.3207924,18.6610676 Z" transform="rotate(30 22.663 35.622)"/>
    <path stroke="#FFF" stroke-linecap="round" stroke-width="2" d="M32.2920629,14.0586267 C32.2920629,14.0586267 27.9655947,12.9112308 24.4419976,18.31917"/>
    <path fill="#C13F98" d="M4,12.9905068 C4,7.47290224 8.47593818,3 14,3 L14,3 C19.5228475,3 24,7.47207592 24,12.9905068 L24,43 L4,43 L4,12.9905068 Z"/>
    <path stroke="#FFF" stroke-linecap="round" stroke-width="2" d="M14,6 C10.1340068,6 7,9.13400675 7,13"/>
    <path fill="#FFAF40" d="M4,43 L24,43 L24,52 C24,56.9705627 19.9767601,61 14.9946296,61 L13.0053704,61 C8.03184168,61 4,56.9716556 4,52 L4,43 Z"/>
    <circle cx="14" cy="51" r="3" fill="#FFF"/>
  </g>
</svg>
