<svg xmlns="http://www.w3.org/2000/svg" width="64" height="64" viewBox="0 0 64 64">
  <g fill="none" fill-rule="evenodd">
    <rect width="60" height="4" x="3" y="51" fill="#BD7575"/>
    <rect width="60" height="39" x="3" y="12" fill="#6B6B6B"/>
    <path fill="#FF78C7" d="M29,55.0023695 C29,52.7919219 30.787167,50.7942228 32.9642898,50.5435455 L46,49.0425936 L59.0357102,50.5435455 C61.225127,50.7956384 63,52.7918218 63,55.0023695 L63,62 L29,62 L29,55.0023695 Z"/>
    <path fill="#ED9111" d="M35,29 L57,29 L57,44.0074602 C57,45.6601943 55.6569187,47 53.9986131,47 L38.0013869,47 C36.3437667,47 35,45.6470745 35,44.0074602 L35,29 Z"/>
    <path fill="#FFDD95" d="M41,45.8005808 C37.4383241,43.9798698 35,40.2746855 35,36 C35,29.9248678 39.9248678,25 46,25 C52.0751322,25 57,29.9248678 57,36 C57,40.2746855 54.5616759,43.9798698 51,45.8005808 L51,51 C51,51 47.6104815,52.4486507 46,52.4486507 C44.3895185,52.4486507 41,51 41,51 L41,45.8005808 Z"/>
    <path fill="#ED9111" d="M35,25 C35,22.2385763 37.23631,20 40.0019727,20 L59,20 L59,25 C59,27.7614237 56.76369,30 53.9980273,30 L35,30 L35,25 Z"/>
    <path fill="#FFF" d="M13.96,41.54 C13.96,41.873335 13.860001,42.1699987 13.66,42.43 C13.459999,42.6900013 13.2066682,42.8133334 12.9,42.8 C12.6866656,42.7866666 12.1666708,42.5033361 11.34,41.95 C10.5133292,41.3966639 10.0933334,41.0133344 10.08,40.8 C10.08,40.7066662 10.0999998,40.5833341 10.14,40.43 C10.1800002,40.2766659 10.2,40.1600004 10.2,40.08 L10.2,31.68 C10.2,31.3733318 9.900003,31.153334 9.3,31.02 C8.63333,30.8599992 8.2533338,30.6400014 8.16,30.36 C8.1066664,30.2133326 8.08,30.073334 8.08,29.94 C8.08,29.6466652 8.2266652,29.300002 8.52,28.9 C8.920002,28.3533306 9.1599996,28.0000008 9.24,27.84 L9.72,26.28 C9.9466678,25.6933304 10.3399972,25.4 10.9,25.4 C11.4733362,25.4 12.0466638,25.5733316 12.62,25.92 C13.2600032,26.3066686 13.58,26.7466642 13.58,27.24 L13.58,40.5 C13.58,40.633334 13.6433327,40.8033323 13.77,41.01 C13.8966673,41.2166677 13.96,41.3933326 13.96,41.54 Z M29.96,40 C30.0000002,40.3866686 29.753336,40.6599992 29.22,40.82 C29.0466658,40.7933332 28.793335,40.7999998 28.46,40.84 C28.2199988,40.84 27.466673,41.0333314 26.2,41.42 C24.7733262,41.820002 23.7133368,42.1933316 23.02,42.54 C22.8333324,42.6333338 22.6633341,42.7566659 22.51,42.91 C22.3566659,43.0633341 22.2600002,43.14 22.22,43.14 C22.019999,43.1666668 21.4400048,42.8200036 20.48,42.1 C20.213332,41.9399992 19.946668,41.7666676 19.68,41.58 C19.413332,41.3933324 19.2733334,41.1733346 19.26,40.92 C19.26,40.8266662 19.8399942,39.9533416 21,38.3 C22.4266738,36.2733232 23.5333294,34.5800068 24.32,33.22 C25.5333394,31.0733226 26.1866662,29.3733396 26.28,28.12 C25.2399948,28.5466688 24.2000052,29.5066592 23.16,31 C23.0799996,31.066667 23.0300001,31.1899991 23.01,31.37 C22.9899999,31.5500009 22.9533336,31.673333 22.9,31.74 C22.766666,31.9133342 22.5733346,32 22.32,32 C21.8799978,32 21.3466698,31.7866688 20.72,31.36 L19.92,30.92 C19.5999984,30.7466658 19.4333334,30.593334 19.42,30.46 C19.3933332,30.1533318 19.7266632,29.5600044 20.42,28.68 C21.1666704,27.746662 21.9933288,26.9533366 22.9,26.3 C23.9800054,25.499996 24.9399958,25.1 25.78,25.1 C26.1000016,25.1 26.4033319,25.2033323 26.69,25.41 C26.9766681,25.6166677 27.253332,25.8266656 27.52,26.04 C28.6000054,26.7866704 29.2866652,27.49333 29.58,28.16 C29.6333336,28.293334 29.66,28.4666656 29.66,28.68 C29.66,29.613338 29.1666716,31.1333228 28.18,33.24 C27.246662,35.2266766 26.246672,36.953326 25.18,38.42 C25.5933354,38.286666 26.166663,38.086668 26.9,37.82 C26.9800004,37.7799998 27.119999,37.6866674 27.32,37.54 C27.453334,37.4466662 27.5799994,37.4066666 27.7,37.42 C28.0200016,37.4600002 28.4699971,37.8366631 29.05,38.55 C29.6300029,39.2633369 29.9333332,39.7466654 29.96,40 Z"/>
  </g>
</svg>
