<svg xmlns="http://www.w3.org/2000/svg" width="64" height="64" viewBox="0 0 64 64">
  <g fill="none" fill-rule="evenodd">
    <rect width="60" height="4" x="3" y="51" fill="#BD7575"/>
    <rect width="60" height="39" x="3" y="12" fill="#6B6B6B"/>
    <path fill="#FFF" fill-rule="nonzero" d="M19.7566338,34.9083999 L18.1722563,35.4127961 L18.5871586,33.9754894 L19.7566338,34.9083999 Z M7.4472136,41.3416408 L5.65835921,40.4472136 L11.6579826,28.4479668 L18.5871586,33.9754894 L22.7921041,19.4086935 L31.6512067,43.6403303 L44.8482423,20.2828117 L60.8712005,32.4261825 L59.663184,34.0201385 L45.463907,23.2588869 L31.2607978,48.3970617 L23.0157884,25.8451076 L19.6788964,37.4047875 L12.3420174,31.5520332 L7.4472136,41.3416408 Z"/>
    <path fill="#FF78C7" d="M29,55.0023695 C29,52.7919219 30.787167,50.7942228 32.9642898,50.5435455 L46,49.0425936 L59.0357102,50.5435455 C61.225127,50.7956384 63,52.7918218 63,55.0023695 L63,62 L29,62 L29,55.0023695 Z"/>
    <path fill="#ED9111" d="M35,29 L57,29 L57,44.0074602 C57,45.6601943 55.6569187,47 53.9986131,47 L38.0013869,47 C36.3437667,47 35,45.6470745 35,44.0074602 L35,29 Z"/>
    <path fill="#FFDD95" d="M40,45.2210693 C36.9897907,43.2583682 35,39.8615543 35,36 C35,29.9248678 39.9248678,25 46,25 C52.0751322,25 57,29.9248678 57,36 C57,39.8615543 55.0102093,43.2583682 52,45.2210693 L52,51 C52,51 47.9325778,52.4486507 46,52.4486507 C44.0674222,52.4486507 40,51 40,51 L40,45.2210693 Z"/>
    <path fill="#ED9111" d="M35,25 C35,22.2385763 37.23631,20 40.0019727,20 L59,20 L59,25 C59,27.7614237 56.76369,30 53.9980273,30 L35,30 L35,25 Z"/>
  </g>
</svg>
