<svg xmlns="http://www.w3.org/2000/svg" width="64" height="64" viewBox="0 0 64 64">
  <g fill="none" fill-rule="evenodd">
    <rect width="60" height="4" x="2" y="51" fill="#BD7575"/>
    <rect width="60" height="39" x="2" y="12" fill="#80D25B"/>
    <polygon fill="#FFF" fill-rule="nonzero" points="8 21 30 21 30 19 8 19"/>
    <polygon fill="#FFF" fill-rule="nonzero" points="8 31 30 31 30 29 8 29"/>
    <polygon fill="#FFF" fill-rule="nonzero" points="8 26 22 26 22 24 8 24"/>
    <polygon fill="#FFF" fill-rule="nonzero" points="25 26 39 26 39 24 25 24"/>
    <path fill="#5B68C0" d="M28,55.0023695 C28,52.7919219 29.787167,50.7942228 31.9642898,50.5435455 L45,49.0425936 L58.0357102,50.5435455 C60.225127,50.7956384 62,52.7918218 62,55.0023695 L62,62 L28,62 L28,55.0023695 Z"/>
    <path fill="#6B6B6B" d="M34,29 L56,29 L56,44.0074602 C56,45.6601943 54.6569187,47 52.9986131,47 L37.0013869,47 C35.3437667,47 34,45.6470745 34,44.0074602 L34,29 Z"/>
    <path fill="#FFDD95" d="M40,45.8005808 C36.4383241,43.9798698 34,40.2746855 34,36 C34,29.9248678 38.9248678,25 45,25 C51.0751322,25 56,29.9248678 56,36 C56,40.2746855 53.5616759,43.9798698 50,45.8005808 L50,51 C50,51 46.6104815,52.4486507 45,52.4486507 C43.3895185,52.4486507 40,51 40,51 L40,45.8005808 Z"/>
    <path fill="#6B6B6B" d="M34,25 C34,22.2385763 36.23631,20 39.0019727,20 L58,20 L58,25 C58,27.7614237 55.76369,30 52.9980273,30 L34,30 L34,25 Z"/>
  </g>
</svg>
