<svg xmlns="http://www.w3.org/2000/svg" width="64" height="64" viewBox="0 0 64 64">
  <g fill="none" fill-rule="evenodd">
    <rect width="32" height="33" x="17" y="17" fill="#BD7575"/>
    <path fill="#FF78C7" d="M9.125,49.9206814 C9.125,47.707202 10.9000001,45.6994337 13.0942715,45.4356406 L33,43.0425936 L52.9057285,45.4356406 C55.0978966,45.6991808 56.875,47.7006188 56.875,49.9206814 L56.875,62.0425936 L9.125,62.0425936 L9.125,49.9206814 Z"/>
    <path fill="#FFDD95" d="M26.7954545,41.4906185 C21.8913848,38.0068513 18.5,30.9212508 18.5,25.1331692 C18.5,17.1250403 24.9918711,10.6331692 33,10.6331692 C41.0081289,10.6331692 47.5,17.1250403 47.5,25.1331692 C47.5,30.9212508 44.1086152,38.0068513 39.2045455,41.4906185 L39.2045455,48.9058965 C39.2045455,48.9058965 34.9984611,50.8154815 33,50.8154815 C31.0015389,50.8154815 26.7954545,48.9058965 26.7954545,48.9058965 L26.7954545,41.4906185 Z"/>
    <circle cx="20" cy="28" r="3" fill="#FFDD95"/>
    <circle cx="46" cy="28" r="3" fill="#FFDD95"/>
    <path fill="#BD7575" d="M17,14.5 C17,10.9101491 19.9104073,8 23.4949533,8 L42.5050467,8 C46.0921104,8 49,10.9174538 49,14.5 L49,21 L33,15.079188 L17,21 L17,14.5 Z"/>
  </g>
</svg>
