<svg xmlns="http://www.w3.org/2000/svg" width="64" height="64" viewBox="0 0 64 64">
  <g fill="none" fill-rule="evenodd">
    <rect width="60" height="4" x="2" y="51" fill="#BD7575"/>
    <rect width="60" height="39" x="2" y="12" fill="#80D25B"/>
    <path fill="#5B68C0" d="M28,55.0023695 C28,52.7919219 29.787167,50.7942228 31.9642898,50.5435455 L45,49.0425936 L58.0357102,50.5435455 C60.225127,50.7956384 62,52.7918218 62,55.0023695 L62,62 L28,62 L28,55.0023695 Z"/>
    <path fill="#6B6B6B" d="M34,29 L56,29 L56,44.0074602 C56,45.6601943 54.6569187,47 52.9986131,47 L37.0013869,47 C35.3437667,47 34,45.6470745 34,44.0074602 L34,29 Z"/>
    <path fill="#FFDD95" d="M39,45.2210693 C35.9897907,43.2583682 34,39.8615543 34,36 C34,29.9248678 38.9248678,25 45,25 C51.0751322,25 56,29.9248678 56,36 C56,39.8615543 54.0102093,43.2583682 51,45.2210693 L51,51 C51,51 46.9325778,52.4486507 45,52.4486507 C43.0674222,52.4486507 39,51 39,51 L39,45.2210693 Z"/>
    <path fill="#6B6B6B" d="M34,25 C34,22.2385763 36.23631,20 39.0019727,20 L58,20 L58,25 C58,27.7614237 55.76369,30 52.9980273,30 L34,30 L34,25 Z"/>
    <path fill="#FFF" d="M24.58,41.55 C24.5599999,41.8300014 24.4400011,42.069999 24.22,42.27 C23.9999989,42.470001 23.7500014,42.5500002 23.47,42.51 C20.9899876,42.1699983 19.6100014,41.700003 19.33,41.1 C19.2899998,41.0199996 19.27,40.9400004 19.27,40.86 C19.27,40.7599995 19.3149996,40.6500006 19.405,40.53 C19.4950005,40.4099994 19.5499999,40.3050004 19.57,40.215 C19.5900001,40.1249995 19.6299997,40.0400004 19.69,39.96 C19.7300002,39.7999992 19.7400001,39.4500027 19.72,38.91 C19.4799988,39.0900009 19.1200024,39.5699961 18.64,40.35 C18.1399975,41.2100043 17.7000019,41.8099983 17.32,42.15 C16.6799968,42.750003 15.9500041,43.05 15.13,43.05 C14.6499976,43.05 14.1800023,42.8600019 13.72,42.48 C13.4999989,42.2999991 13.1100028,41.910003 12.55,41.31 C11.5899952,40.2299946 11.0700004,39.6400005 10.99,39.54 C10.5699979,38.9799972 10.36,38.4500025 10.36,37.95 C10.36,37.7899992 10.3799998,37.6300008 10.42,37.47 C10.8000019,35.7099912 11.9799901,34.0400079 13.96,32.46 C15.4000072,31.3199943 17.4399868,30.1100064 20.08,28.83 C20.08,28.1899968 19.9200016,27.7800009 19.6,27.6 C19.399999,27.4799994 18.700006,27.7049972 17.5,28.275 C16.299994,28.8450029 15.4600024,29.329998 14.98,29.73 C14.8199992,29.8900008 14.5600018,30.1099986 14.2,30.39 C13.8599983,30.590001 13.5500014,30.6500004 13.27,30.57 C13.0499989,30.5099997 12.5800036,30.1500033 11.86,29.49 C11.1399964,28.8299967 10.7500003,28.3900011 10.69,28.17 C10.5299992,27.6299973 10.6999975,27.2100015 11.2,26.91 C11.2200001,26.8899999 11.6199961,26.7700011 12.4,26.55 L14.62,25.35 C16.1800078,24.6099963 17.4999946,24.2100003 18.58,24.15 C19.0400023,24.1299999 19.5599971,24.3699975 20.14,24.87 C20.6600026,25.3300023 21.1849974,25.7849978 21.715,26.235 C22.2450026,26.6850023 22.7899972,27.1199979 23.35,27.54 C23.9900032,28.1000028 24.31,28.6399974 24.31,29.16 L24.31,40.5 C24.510001,41.0200026 24.6000001,41.3699991 24.58,41.55 Z M19.78,32.79 C18.7999951,33.1700019 17.9600035,33.7499961 17.26,34.53 C16.7399974,35.1700032 16.2200026,35.7999969 15.7,36.42 C15.2799979,36.8400021 14.8850018,37.3849966 14.515,38.055 C14.1449981,38.7250033 13.96,39.2199984 13.96,39.54 C13.96,39.7000008 14.0199994,39.78 14.14,39.78 C14.5600021,39.78 15.4999927,38.8750091 16.96,37.065 C18.4200073,35.2549909 19.3599979,33.8300052 19.78,32.79 Z"/>
  </g>
</svg>
