<svg xmlns="http://www.w3.org/2000/svg" width="64" height="64" viewBox="0 0 64 64">
  <g fill="none" fill-rule="evenodd">
    <path fill="#22BA8E" d="M5,23.904899 C5,22.8011519 5.89358348,21.8111018 6.99287235,21.6938803 L13.5,21 L20.0071277,21.6938803 C21.1077607,21.8112451 22,22.7936275 22,23.904899 L22,27 L5,27 L5,23.904899 Z"/>
    <path fill="#FFDD95" d="M10.5,17.9938107 C8.99489536,16.5917827 8,14.3212872 8,12.4189593 C8,9.42615074 10.4624339,7 13.5,7 C16.5375661,7 19,9.42615074 19,12.4189593 C19,14.3212872 18.0051046,16.5917827 16.5,17.9938107 L16.5,21.2863473 C16.5,21.2863473 14.4662889,22 13.5,22 C12.5337111,22 10.5,21.2863473 10.5,21.2863473 L10.5,17.9938107 Z"/>
    <path fill="#F5413E" d="M25,23.904899 C25,22.8011519 25.8935835,21.8111018 26.9928723,21.6938803 L33.5,21 L40.0071277,21.6938803 C41.1077607,21.8112451 42,22.7936275 42,23.904899 L42,27 L25,27 L25,23.904899 Z"/>
    <path fill="#FFDD95" d="M30.5,17.9938107 C28.9948954,16.5917827 28,14.3212872 28,12.4189593 C28,9.42615074 30.4624339,7 33.5,7 C36.5375661,7 39,9.42615074 39,12.4189593 C39,14.3212872 38.0051046,16.5917827 36.5,17.9938107 L36.5,21.2863473 C36.5,21.2863473 34.4662889,22 33.5,22 C32.5337111,22 30.5,21.2863473 30.5,21.2863473 L30.5,17.9938107 Z"/>
    <path fill="#80D25B" d="M45,23.904899 C45,22.8011519 45.8935835,21.8111018 46.9928723,21.6938803 L53.5,21 L60.0071277,21.6938803 C61.1077607,21.8112451 62,22.7936275 62,23.904899 L62,27 L45,27 L45,23.904899 Z"/>
    <path fill="#FFDD95" d="M50.5,17.9938107 C48.9948954,16.5917827 48,14.3212872 48,12.4189593 C48,9.42615074 50.4624339,7 53.5,7 C56.5375661,7 59,9.42615074 59,12.4189593 C59,14.3212872 58.0051046,16.5917827 56.5,17.9938107 L56.5,21.2863473 C56.5,21.2863473 54.4662889,22 53.5,22 C52.5337111,22 50.5,21.2863473 50.5,21.2863473 L50.5,17.9938107 Z"/>
    <circle cx="13.5" cy="35.5" r="3.5" fill="#22BA8E"/>
    <circle cx="33.5" cy="35.5" r="3.5" fill="#F5413E"/>
    <circle cx="53.5" cy="35.5" r="3.5" fill="#80D25B"/>
    <path stroke="#979797" stroke-linecap="square" stroke-width="2" d="M6 45L21 45M26 45L41 45M8 49L19 49M28 49L39 49M8 53L19 53M28 53L39 53M46 45L61 45M48 49L59 49M48 53L59 53"/>
  </g>
</svg>
