<svg xmlns="http://www.w3.org/2000/svg" width="64" height="64" viewBox="0 0 64 64">
  <g fill="none" fill-rule="evenodd">
    <path fill="#80D25B" d="M4,44.0023695 C4,41.7919219 5.78716697,39.7942228 7.96428975,39.5435455 L21,38.0425936 L34.0357102,39.5435455 C36.225127,39.7956384 38,41.7918218 38,44.0023695 L38,51 L4,51 L4,44.0023695 Z"/>
    <path fill="#FFDD95" d="M15,33.3164468 C11.9897907,30.470456 10,25.8615543 10,22 C10,15.9248678 14.9248678,11 21,11 C27.0751322,11 32,15.9248678 32,22 C32,25.8615543 30.0102093,30.470456 27,33.3164468 L27,40 C27,40 22.9325778,41.4486507 21,41.4486507 C19.0674222,41.4486507 15,40 15,40 L15,33.3164468 Z"/>
    <circle cx="12" cy="27" r="3" fill="#FFDD95"/>
    <circle cx="30" cy="27" r="3" fill="#FFDD95"/>
    <path fill="#4796E7" d="M26,44.0023695 C26,41.7919219 27.787167,39.7942228 29.9642898,39.5435455 L43,38.0425936 L56.0357102,39.5435455 C58.225127,39.7956384 60,41.7918218 60,44.0023695 L60,51 L26,51 L26,44.0023695 Z"/>
    <path fill="#FFDD95" d="M37,33.3164468 C33.9897907,30.470456 32,25.8615543 32,22 C32,15.9248678 36.9248678,11 43,11 C49.0751322,11 54,15.9248678 54,22 C54,25.8615543 52.0102093,30.470456 49,33.3164468 L49,40 C49,40 44.9325778,41.4486507 43,41.4486507 C41.0674222,41.4486507 37,40 37,40 L37,33.3164468 Z"/>
    <circle cx="34" cy="27" r="3" fill="#FFDD95"/>
    <circle cx="52" cy="27" r="3" fill="#FFDD95"/>
    <path fill="#F5413E" d="M15,50.0023695 C15,47.7919219 16.787167,45.7942228 18.9642898,45.5435455 L32,44.0425936 L45.0357102,45.5435455 C47.225127,45.7956384 49,47.7918218 49,50.0023695 L49,57 L15,57 L15,50.0023695 Z"/>
    <path fill="#FFAF40" d="M26,39.3164468 C22.9897907,36.470456 21,31.8615543 21,28 C21,21.9248678 25.9248678,17 32,17 C38.0751322,17 43,21.9248678 43,28 C43,31.8615543 41.0102093,36.470456 38,39.3164468 L38,46 C38,46 33.9325778,47.4486507 32,47.4486507 C30.0674222,47.4486507 26,46 26,46 L26,39.3164468 Z"/>
    <circle cx="23" cy="33" r="3" fill="#FFAF40"/>
    <circle cx="41" cy="33" r="3" fill="#FFAF40"/>
  </g>
</svg>
