<svg xmlns="http://www.w3.org/2000/svg" width="64" height="64" viewBox="0 0 64 64">
  <g fill="none" fill-rule="evenodd">
    <path fill="#22BA8E" d="M4,23.904899 C4,22.8011519 4.89358348,21.8111018 5.99287235,21.6938803 L12.5,21 L19.0071277,21.6938803 C20.1077607,21.8112451 21,22.7936275 21,23.904899 L21,27 L4,27 L4,23.904899 Z"/>
    <path fill="#FFDD95" d="M9.5,17.9938107 C7.99489536,16.5917827 7,14.3212872 7,12.4189593 C7,9.42615074 9.46243388,7 12.5,7 C15.5375661,7 18,9.42615074 18,12.4189593 C18,14.3212872 17.0051046,16.5917827 15.5,17.9938107 L15.5,21.2863473 C15.5,21.2863473 13.4662889,22 12.5,22 C11.5337111,22 9.5,21.2863473 9.5,21.2863473 L9.5,17.9938107 Z"/>
    <path fill="#F5413E" d="M24,23.904899 C24,22.8011519 24.8935835,21.8111018 25.9928723,21.6938803 L32.5,21 L39.0071277,21.6938803 C40.1077607,21.8112451 41,22.7936275 41,23.904899 L41,27 L24,27 L24,23.904899 Z"/>
    <path fill="#FFDD95" d="M29.5,17.9938107 C27.9948954,16.5917827 27,14.3212872 27,12.4189593 C27,9.42615074 29.4624339,7 32.5,7 C35.5375661,7 38,9.42615074 38,12.4189593 C38,14.3212872 37.0051046,16.5917827 35.5,17.9938107 L35.5,21.2863473 C35.5,21.2863473 33.4662889,22 32.5,22 C31.5337111,22 29.5,21.2863473 29.5,21.2863473 L29.5,17.9938107 Z"/>
    <path fill="#5B68C0" d="M14,52.904899 C14,51.8011519 14.8935835,50.8111018 15.9928723,50.6938803 L22.5,50 L29.0071277,50.6938803 C30.1077607,50.8112451 31,51.7936275 31,52.904899 L31,56 L14,56 L14,52.904899 Z"/>
    <path fill="#FFDD95" d="M19.5,46.9938107 C17.9948954,45.5917827 17,43.3212872 17,41.4189593 C17,38.4261507 19.4624339,36 22.5,36 C25.5375661,36 28,38.4261507 28,41.4189593 C28,43.3212872 27.0051046,45.5917827 25.5,46.9938107 L25.5,50.2863473 C25.5,50.2863473 23.4662889,51 22.5,51 C21.5337111,51 19.5,50.2863473 19.5,50.2863473 L19.5,46.9938107 Z"/>
    <path fill="#BD7575" d="M34,52.904899 C34,51.8011519 34.8935835,50.8111018 35.9928723,50.6938803 L42.5,50 L49.0071277,50.6938803 C50.1077607,50.8112451 51,51.7936275 51,52.904899 L51,56 L34,56 L34,52.904899 Z"/>
    <path fill="#FFDD95" d="M39.5,46.9938107 C37.9948954,45.5917827 37,43.3212872 37,41.4189593 C37,38.4261507 39.4624339,36 42.5,36 C45.5375661,36 48,38.4261507 48,41.4189593 C48,43.3212872 47.0051046,45.5917827 45.5,46.9938107 L45.5,50.2863473 C45.5,50.2863473 43.4662889,51 42.5,51 C41.5337111,51 39.5,50.2863473 39.5,50.2863473 L39.5,46.9938107 Z"/>
    <path fill="#80D25B" d="M44,23.904899 C44,22.8011519 44.8935835,21.8111018 45.9928723,21.6938803 L52.5,21 L59.0071277,21.6938803 C60.1077607,21.8112451 61,22.7936275 61,23.904899 L61,27 L44,27 L44,23.904899 Z"/>
    <path fill="#FFDD95" d="M49.5,17.9938107 C47.9948954,16.5917827 47,14.3212872 47,12.4189593 C47,9.42615074 49.4624339,7 52.5,7 C55.5375661,7 58,9.42615074 58,12.4189593 C58,14.3212872 57.0051046,16.5917827 55.5,17.9938107 L55.5,21.2863473 C55.5,21.2863473 53.4662889,22 52.5,22 C51.5337111,22 49.5,21.2863473 49.5,21.2863473 L49.5,17.9938107 Z"/>
  </g>
</svg>
