<svg xmlns="http://www.w3.org/2000/svg" width="64" height="64" viewBox="0 0 64 64">
  <g fill="none" fill-rule="evenodd">
    <path fill="#80D25B" d="M4,42.0023695 C4,39.7919219 5.78716697,37.7942228 7.96428975,37.5435455 L21,36.0425936 L34.0357102,37.5435455 C36.225127,37.7956384 38,39.7918218 38,42.0023695 L38,49 L4,49 L4,42.0023695 Z"/>
    <path fill="#FFDD95" d="M15,31.3164468 C11.9897907,28.470456 10,23.8615543 10,20 C10,13.9248678 14.9248678,9 21,9 C27.0751322,9 32,13.9248678 32,20 C32,23.8615543 30.0102093,28.470456 27,31.3164468 L27,38 C27,38 22.9325778,39.4486507 21,39.4486507 C19.0674222,39.4486507 15,38 15,38 L15,31.3164468 Z"/>
    <circle cx="12" cy="25" r="3" fill="#FFDD95"/>
    <circle cx="30" cy="25" r="3" fill="#FFDD95"/>
    <path fill="#4796E7" d="M26,42.0023695 C26,39.7919219 27.787167,37.7942228 29.9642898,37.5435455 L43,36.0425936 L56.0357102,37.5435455 C58.225127,37.7956384 60,39.7918218 60,42.0023695 L60,49 L26,49 L26,42.0023695 Z"/>
    <path fill="#FFDD95" d="M37,31.3164468 C33.9897907,28.470456 32,23.8615543 32,20 C32,13.9248678 36.9248678,9 43,9 C49.0751322,9 54,13.9248678 54,20 C54,23.8615543 52.0102093,28.470456 49,31.3164468 L49,38 C49,38 44.9325778,39.4486507 43,39.4486507 C41.0674222,39.4486507 37,38 37,38 L37,31.3164468 Z"/>
    <circle cx="34" cy="25" r="3" fill="#FFDD95"/>
    <circle cx="52" cy="25" r="3" fill="#FFDD95"/>
    <path fill="#F5413E" d="M15,48.0023695 C15,45.7919219 16.787167,43.7942228 18.9642898,43.5435455 L32,42.0425936 L45.0357102,43.5435455 C47.225127,43.7956384 49,45.7918218 49,48.0023695 L49,55 L15,55 L15,48.0023695 Z"/>
    <path fill="#FFAF40" d="M26,37.3164468 C22.9897907,34.470456 21,29.8615543 21,26 C21,19.9248678 25.9248678,15 32,15 C38.0751322,15 43,19.9248678 43,26 C43,29.8615543 41.0102093,34.470456 38,37.3164468 L38,44 C38,44 33.9325778,45.4486507 32,45.4486507 C30.0674222,45.4486507 26,44 26,44 L26,37.3164468 Z"/>
    <circle cx="32" cy="33" r="26" stroke="#0A3586" stroke-linecap="round" stroke-width="2"/>
    <path stroke="#0A3586" stroke-linecap="square" stroke-width="2" d="M57,33 L55,33 M32,58 L32,56 M7,33 L9,33 M32,8 L32,10"/>
    <circle cx="23" cy="31" r="3" fill="#FFAF40"/>
    <circle cx="41" cy="31" r="3" fill="#FFAF40"/>
  </g>
</svg>
