<svg xmlns="http://www.w3.org/2000/svg" width="64" height="64" viewBox="0 0 64 64">
  <g fill="none" fill-rule="evenodd">
    <polygon fill="#ECECEC" points="13 7 42.105 7 54 18.753 54 59 13 59"/>
    <path fill="#5EA7FF" d="M30.3214286,24 C27.7178005,24 26,26.9900983 26,30.6785714 C26,34.3670446 27.7178005,46 30.3214286,46 C31.8402925,46 32.0128203,36.3395704 34.0535714,36.3308234 C36.4871797,36.3395704 36.2668503,46 37.7857143,46 C40.3893424,46 42.1071429,34.3670446 42.1071429,30.6785714 C42.1071429,26.9900983 40.3893424,24 37.7857143,24 C36.5416667,24 35.297619,25.1785714 34.0535714,25.1785714 C32.8095238,25.1785714 31.5654762,24 30.3214286,24 Z"/>
    <polygon fill="#D8D8D8" points="42 7 54 7 54 19" transform="rotate(-180 48 13)"/>
  </g>
</svg>
