<svg xmlns="http://www.w3.org/2000/svg" width="64" height="64" viewBox="0 0 64 64">
  <g fill="none" fill-rule="evenodd">
    <g transform="translate(18 14)">
      <path fill="#B4DFFB" d="M7.07142857,0 C2.81094622,0 0,4.89288809 0,10.9285714 C0,16.9642548 2.81094622,36 7.07142857,36 C9.55684234,36 9.83916051,20.1920244 13.1785714,20.177711 C17.1608395,20.1920244 16.8003005,36 19.2857143,36 C23.5461966,36 26.3571429,16.9642548 26.3571429,10.9285714 C26.3571429,4.89288809 23.5461966,0 19.2857143,0 C17.25,0 15.2142857,1.92857143 13.1785714,1.92857143 C11.1428571,1.92857143 9.10714286,0 7.07142857,0 Z"/>
      <path stroke="#FFF" stroke-linecap="round" stroke-width="2" d="M8.17857143,3 C5.41714768,3 3.17857143,5.23857625 3.17857143,8"/>
    </g>
    <path stroke="#FFAF40" stroke-linecap="round" stroke-linejoin="round" stroke-width="2" d="M31,10 L31,4 M46.2027958,16.2972042 L50.4454365,12.0545635 M52.5,31.5 L58.5,31.5 M46.2027958,46.7027958 L50.4454365,50.9454365 M31,53 L31,59 M15.7972042,46.7027958 L11.5545635,50.9454365 M9.5,31.5 L3.5,31.5 M15.7972042,16.2972042 L11.5545635,12.0545635"/>
  </g>
</svg>
