<svg xmlns="http://www.w3.org/2000/svg" width="64" height="64" viewBox="0 0 64 64">
  <g fill="none" fill-rule="evenodd">
    <path fill="#5EA7FF" d="M19.3214286,9 C16.7178005,9 15,11.9900983 15,15.6785714 C15,19.3670446 16.7178005,31 19.3214286,31 C20.8402925,31 21.0128203,21.3395704 23.0535714,21.3308234 C25.4871797,21.3395704 25.2668503,31 26.7857143,31 C29.3893424,31 31.1071429,19.3670446 31.1071429,15.6785714 C31.1071429,11.9900983 29.3893424,9 26.7857143,9 C25.5416667,9 24.297619,10.1785714 23.0535714,10.1785714 C21.8095238,10.1785714 20.5654762,9 19.3214286,9 Z"/>
    <polyline stroke="#80D25B" stroke-linecap="round" stroke-width="2" points="7.215 54.664 15.692 48.466 24.213 55.113 28.351 48.226 38.672 50.486 47.135 46.095 55.347 36.034"/>
    <polyline stroke="#979797" stroke-linecap="round" stroke-width="2" points="7.015 5 7.015 59.894 59.787 59.894"/>
    <path stroke="#979797" stroke-linecap="square" stroke-width="2" d="M36 15L58.0227155 15M36 19L45 19M49 19L55 19"/>
  </g>
</svg>
