<?xml version="1.0" encoding="UTF-8"?>
<svg width="64px" height="64px" viewBox="0 0 64 64" version="1.1" xmlns="http://www.w3.org/2000/svg" xmlns:xlink="http://www.w3.org/1999/xlink">
    <!-- Generator: Sketch 43.2 (39069) - http://www.bohemiancoding.com/sketch -->
    <title>tenisballsset</title>
    <desc>Created with Sketch.</desc>
    <defs>
        <circle id="path-1" cx="11" cy="11" r="11"></circle>
        <circle id="path-3" cx="11" cy="11" r="11"></circle>
    </defs>
    <g id="Outdoor-Activities-(142)" stroke="none" stroke-width="1" fill="none" fill-rule="evenodd">
        <rect id="Rectangle-144" fill="#B4DFFB" x="16" y="7" width="30" height="55"></rect>
        <g id="Oval-77" transform="translate(20.000000, 10.000000)">
            <mask id="mask-2" fill="white">
                <use xlink:href="#path-1"></use>
            </mask>
            <use id="Mask" fill="#ED9111" xlink:href="#path-1"></use>
            <ellipse stroke="#FCC24C" stroke-width="2" stroke-linecap="round" mask="url(#mask-2)" cx="0" cy="11" rx="7" ry="11"></ellipse>
            <ellipse id="Oval-77-Copy" stroke="#FCC24C" stroke-width="2" stroke-linecap="round" mask="url(#mask-2)" cx="22" cy="11" rx="7" ry="11"></ellipse>
        </g>
        <g id="Oval-77-Copy-2" transform="translate(20.000000, 36.000000)">
            <mask id="mask-4" fill="white">
                <use xlink:href="#path-3"></use>
            </mask>
            <use id="Mask" fill="#ED9111" xlink:href="#path-3"></use>
            <ellipse id="Oval-77" stroke="#FCC24C" stroke-width="2" stroke-linecap="round" mask="url(#mask-4)" cx="0" cy="11" rx="7" ry="11"></ellipse>
            <ellipse id="Oval-77-Copy" stroke="#FCC24C" stroke-width="2" stroke-linecap="round" mask="url(#mask-4)" cx="22" cy="11" rx="7" ry="11"></ellipse>
        </g>
        <path d="M11,4.0048815 C11,2.89761602 11.8915398,2 12.9972916,2 L49.0027084,2 C50.1057821,2 51,2.8938998 51,4.0048815 L51,4.9951185 C51,6.10238398 50.1084602,7 49.0027084,7 L12.9972916,7 C11.8942179,7 11,6.1061002 11,4.9951185 L11,4.0048815 Z" id="Rectangle-145" fill="#595959"></path>
    </g>
</svg>