<svg xmlns="http://www.w3.org/2000/svg" width="64" height="64" viewBox="0 0 64 64">
  <g fill="none" fill-rule="evenodd">
    <path stroke="#325AA6" stroke-linecap="round" stroke-width="4" d="M24.0615422,39 L11.0001736,39 C8.79093873,39 7,40.7964986 7,43.0049072 L7,42.9121313 C7,45.1239804 8.78840417,46.9170384 10.9934144,46.9170384 L31.9452493,46.9170384 C34.1507512,46.9170384 35.9386637,48.7157481 35.9386637,50.9223309 L35.9386637,52.9727714 C35.9386637,55.1848334 37.7295007,56.9780639 39.9394814,56.9780639 L60.8399206,56.9780639"/>
    <path stroke="#325AA6" stroke-linecap="square" stroke-width="2" d="M54,48 L54,55"/>
    <path fill="#325AA6" d="M35 7.26727153C36.3273403 4.16985571 39.4037732 2 42.987003 2 47.783866 2 51.6724918 5.88862576 51.6724918 10.6854887 51.6724918 13.5803463 50.2562548 16.1444239 48.0788432 17.7226596 48.5284108 16.6735707 48.7773289 15.5180755 48.7773289 14.3044424 48.7773289 9.50757939 44.8887031 5.61895364 40.0918401 5.61895364 38.1898347 5.61895364 36.4306227 6.23032491 35 7.26727153zM54 49C57.8659932 49 61 47.4391895 61 38.34375 61 29.2483105 57.8659932 18 54 18 50.1340068 18 47 29.2483105 47 38.34375 47 47.4391895 50.1340068 49 54 49z"/>
    <polygon fill="#5EA7FF" points="11 19 40 19 35 35 6 35"/>
    <polyline fill="#325AA6" points="40 19 11 19 16 35 45 35"/>
    <path stroke="#5EA7FF" stroke-linecap="round" stroke-linejoin="round" stroke-width="2" d="M28 9L28 13M26 11L30 11M58 5L58 9M56 7L60 7"/>
  </g>
</svg>
