<svg xmlns="http://www.w3.org/2000/svg" width="64" height="64" viewBox="0 0 64 64">
  <g fill="none" fill-rule="evenodd">
    <path stroke="#5EA7FF" stroke-linecap="round" stroke-width="4" d="M23.0615422,41 L10.0001736,41 C7.79093873,41 6,42.7964986 6,45.0049072 L6,44.9121313 C6,47.1239804 7.78840417,48.9170384 9.99341437,48.9170384 L30.9452493,48.9170384 C33.1507512,48.9170384 34.9386637,50.7157481 34.9386637,52.9223309 L34.9386637,54.9727714 C34.9386637,57.1848334 36.7295007,58.9780639 38.9394814,58.9780639 L59.8399206,58.9780639"/>
    <path stroke="#BD7575" stroke-linecap="square" stroke-width="2" d="M53,50 L53,57"/>
    <circle cx="44" cy="18" r="12" fill="#ED9111"/>
    <path fill="#22BA8E" d="M53,51 C56.8659932,51 60,49.4391895 60,40.34375 C60,31.2483105 56.8659932,20 53,20 C49.1340068,20 46,31.2483105 46,40.34375 C46,49.4391895 49.1340068,51 53,51 Z"/>
    <polygon fill="#979797" points="10 21 39 21 34 37 5 37"/>
    <polyline fill="#595959" points="39 21 10 21 15 37 44 37"/>
  </g>
</svg>
