<?xml version="1.0" encoding="UTF-8"?>
<svg width="64px" height="64px" viewBox="0 0 64 64" version="1.1" xmlns="http://www.w3.org/2000/svg" xmlns:xlink="http://www.w3.org/1999/xlink">
    <!-- Generator: Sketch 43.2 (39069) - http://www.bohemiancoding.com/sketch -->
    <title>tent</title>
    <desc>Created with Sketch.</desc>
    <defs></defs>
    <g id="Outdoor-Activities-(142)" stroke="none" stroke-width="1" fill="none" fill-rule="evenodd">
        <polyline id="Line-Copy-96" stroke="#979797" stroke-width="2" stroke-linecap="square" points="16 23.4453261 32 7.44532608 48 23.4453261"></polyline>
        <path d="M1,26.9932874 C1,25.8924252 1.90035102,25 2.99263021,25 L61.0073698,25 C62.1078691,25 63,25.8997127 63,26.9932874 L63,52.0067126 C63,53.1075748 62.099649,54 61.0073698,54 L2.99263021,54 C1.89213093,54 1,53.1002873 1,52.0067126 L1,26.9932874 Z" id="Rectangle-160-Copy-4" fill="#BD7575"></path>
        <rect id="Rectangle-162-Copy-4" fill="#22BA8E" x="3" y="27" width="58" height="25"></rect>
        <rect id="Rectangle-161-Copy-9" fill="#AB5F5F" x="10" y="22" width="10" height="3"></rect>
        <rect id="Rectangle-161-Copy-8" fill="#AB5F5F" x="44" y="22" width="10" height="3"></rect>
        <circle id="Oval-80-Copy-4" fill="#D8D8D8" cx="32" cy="9" r="3"></circle>
        <path d="M25.685,37.644 C25.610333,37.644 25.4936675,37.613667 25.335,37.553 C25.1763325,37.492333 25.0550004,37.462 24.971,37.462 C24.9056663,37.462 24.8403337,37.4759999 24.775,37.504 L24.257,37.77 L24.257,42.558 C24.257,42.7353342 24.3526657,42.9639986 24.544,43.244 C24.7353343,43.5240014 24.8123335,43.7479992 24.775,43.916 C24.7283331,44.1213344 24.5906678,44.2846661 24.362,44.406 C24.1333322,44.5273339 23.8883346,44.588 23.627,44.588 C23.1323309,44.588 22.7916676,44.3686689 22.605,43.93 C22.5489997,43.7993327 22.5163334,43.3840035 22.507,42.684 C22.4976666,42.217331 22.5023332,41.4893383 22.521,40.5 C22.5396668,39.3799944 22.549,38.6706682 22.549,38.372 C22.4929997,38.3906668 22.3996673,38.4536661 22.269,38.561 C22.1383327,38.6683339 22.0076673,38.722 21.877,38.722 C21.7743328,38.722 21.6436675,38.6940003 21.485,38.638 C20.8316634,38.4139989 20.505,38.1853345 20.505,37.952 C20.505,37.8959997 20.5189999,37.8353337 20.547,37.77 C20.6123337,37.6206659 20.7336658,37.5366668 20.911,37.518 C21.181668,37.4806665 21.3449997,37.4480001 21.401,37.42 C21.6156677,37.3359996 22.0076638,37.1353349 22.577,36.818 L22.577,35.6 C22.577,35.5066662 22.5513336,35.3830008 22.5,35.229 C22.4486664,35.0749992 22.423,34.960667 22.423,34.886 C22.423,34.8019996 22.4463331,34.722667 22.493,34.648 C22.7356679,34.2746648 23.0623313,34.088 23.473,34.088 C23.9490024,34.088 24.284999,34.2746648 24.481,34.648 C24.555667,34.7973341 24.593,34.9186662 24.593,35.012 C24.593,35.1240006 24.5370006,35.2406661 24.425,35.362 C24.3129994,35.4833339 24.257,35.5953328 24.257,35.698 L24.257,36.384 C24.4250008,36.309333 24.6116656,36.1833342 24.817,36.006 C24.9756675,35.8753327 25.1109994,35.81 25.223,35.81 C25.2696669,35.81 25.3209997,35.8193332 25.377,35.838 C25.9650029,35.9966675 26.259,36.3513306 26.259,36.902 C26.259,37.0793342 26.2053339,37.2473325 26.098,37.406 C25.9906661,37.5646675 25.8530008,37.644 25.685,37.644 Z M31.663,42.53 C31.588333,42.8846684 31.3363355,43.2626647 30.907,43.664 C30.8416663,43.7666672 30.5850022,43.9019992 30.137,44.07 C29.6236641,44.266001 29.1803352,44.3500001 28.807,44.322 C28.1069965,44.2753331 27.5563353,43.8740038 27.155,43.118 C26.7909982,42.4179965 26.609,41.5593384 26.609,40.542 C26.609,39.4406612 26.8143313,38.4746708 27.225,37.644 C27.6823356,36.7293288 28.2936628,36.2160006 29.059,36.104 C29.2083341,36.0853332 29.3529993,36.076 29.493,36.076 C30.6036722,36.076 31.2149994,36.7573265 31.327,38.12 C31.3830003,38.7453365 31.1356694,39.426663 30.585,40.164 C29.9876637,40.9760041 29.222338,41.5453317 28.289,41.872 C28.3916672,42.2453352 28.4709997,42.4879994 28.527,42.6 C28.6576673,42.8333345 28.8349989,42.95 29.059,42.95 C29.2736677,42.95 29.5023321,42.8660008 29.745,42.698 C29.9503344,42.5579993 30.090333,42.4226673 30.165,42.292 C30.2023335,42.2733332 30.2396665,42.1683343 30.277,41.977 C30.3143335,41.7856657 30.4123325,41.6480004 30.571,41.564 C30.6270003,41.5359999 30.692333,41.522 30.767,41.522 C30.9910011,41.522 31.207999,41.6316656 31.418,41.851 C31.628001,42.0703344 31.7096669,42.2966655 31.663,42.53 Z M29.465,37.602 C29.0916648,37.602 28.7883345,37.8679973 28.555,38.4 C28.2469985,39.1093369 28.1209997,39.8093299 28.177,40.5 C28.6156689,40.3599993 29.0216648,40.0333359 29.395,39.52 C29.7683352,39.0066641 29.955,38.5493353 29.955,38.148 C29.955,37.7839982 29.7916683,37.602 29.465,37.602 Z M39.139,43.104 C39.1203332,43.3093344 38.9850013,43.4843326 38.733,43.629 C38.4809987,43.7736674 38.2010015,43.846 37.893,43.846 C37.4356644,43.846 37.1230008,43.7013348 36.955,43.412 C37.029667,40.537319 36.9456679,39.0813335 36.703,39.044 C36.4696655,39.0066665 35.9003379,40.2946536 34.995,42.908 L34.995,43.748 C34.9856666,44.0840017 34.8946675,44.3219993 34.722,44.462 C34.5493325,44.6020007 34.365001,44.672 34.169,44.672 C33.8329983,44.672 33.4736686,44.4900018 33.091,44.126 C32.9789994,44.0326662 32.9183334,43.32334 32.909,41.998 C32.9183334,42.8100041 32.923,41.3026858 32.923,37.476 C32.923,37.3919996 32.9136668,37.2776674 32.895,37.133 C32.8763332,36.9883326 32.867,36.8833337 32.867,36.818 C32.867,36.6406658 32.9136662,36.4866673 33.007,36.356 C33.1190006,36.1879992 33.2963321,36.104 33.539,36.104 C33.7910013,36.104 34.0546653,36.1809992 34.33,36.335 C34.6053347,36.4890008 34.7709997,36.6359993 34.827,36.776 C34.8643335,36.8693338 34.883,36.9626662 34.883,37.056 C34.883,37.1493338 34.845667,37.2799992 34.771,37.448 C34.696333,37.6160008 34.659,37.7559994 34.659,37.868 L34.659,39.8 C35.2470029,38.5493271 35.6903318,37.7233353 35.989,37.322 C36.5210027,36.6313299 37.1229966,36.3093331 37.795,36.356 C38.1963353,36.3840001 38.4809992,36.7573297 38.649,37.476 C38.7796673,38.017336 38.8496666,38.8199947 38.859,39.884 L38.859,42.404 C38.8776668,42.4693337 38.9429994,42.5859992 39.055,42.754 C39.1203337,42.8473338 39.1483334,42.9639993 39.139,43.104 Z M44.907,37.644 C44.832333,37.644 44.7156675,37.613667 44.557,37.553 C44.3983325,37.492333 44.2770004,37.462 44.193,37.462 C44.1276663,37.462 44.0623337,37.4759999 43.997,37.504 L43.479,37.77 L43.479,42.558 C43.479,42.7353342 43.5746657,42.9639986 43.766,43.244 C43.9573343,43.5240014 44.0343335,43.7479992 43.997,43.916 C43.9503331,44.1213344 43.8126678,44.2846661 43.584,44.406 C43.3553322,44.5273339 43.1103346,44.588 42.849,44.588 C42.3543309,44.588 42.0136676,44.3686689 41.827,43.93 C41.7709997,43.7993327 41.7383334,43.3840035 41.729,42.684 C41.7196666,42.217331 41.7243332,41.4893383 41.743,40.5 C41.7616668,39.3799944 41.771,38.6706682 41.771,38.372 C41.7149997,38.3906668 41.6216673,38.4536661 41.491,38.561 C41.3603327,38.6683339 41.2296673,38.722 41.099,38.722 C40.9963328,38.722 40.8656675,38.6940003 40.707,38.638 C40.0536634,38.4139989 39.727,38.1853345 39.727,37.952 C39.727,37.8959997 39.7409999,37.8353337 39.769,37.77 C39.8343337,37.6206659 39.9556658,37.5366668 40.133,37.518 C40.403668,37.4806665 40.5669997,37.4480001 40.623,37.42 C40.8376677,37.3359996 41.2296638,37.1353349 41.799,36.818 L41.799,35.6 C41.799,35.5066662 41.7733336,35.3830008 41.722,35.229 C41.6706664,35.0749992 41.645,34.960667 41.645,34.886 C41.645,34.8019996 41.6683331,34.722667 41.715,34.648 C41.9576679,34.2746648 42.2843313,34.088 42.695,34.088 C43.1710024,34.088 43.506999,34.2746648 43.703,34.648 C43.777667,34.7973341 43.815,34.9186662 43.815,35.012 C43.815,35.1240006 43.7590006,35.2406661 43.647,35.362 C43.5349994,35.4833339 43.479,35.5953328 43.479,35.698 L43.479,36.384 C43.6470008,36.309333 43.8336656,36.1833342 44.039,36.006 C44.1976675,35.8753327 44.3329994,35.81 44.445,35.81 C44.4916669,35.81 44.5429997,35.8193332 44.599,35.838 C45.1870029,35.9966675 45.481,36.3513306 45.481,36.902 C45.481,37.0793342 45.4273339,37.2473325 45.32,37.406 C45.2126661,37.5646675 45.0750008,37.644 44.907,37.644 Z" id="tent" fill="#FFFFFF"></path>
    </g>
</svg>