<svg xmlns="http://www.w3.org/2000/svg" width="64" height="64" viewBox="0 0 64 64">
  <g fill="none" fill-rule="evenodd">
    <path fill="#5EA7FF" d="M11.544622,29 C12.9093486,41.3910921 16.7461577,60 22,60 C25.8661992,60 26.3053608,35.4098157 31.5,35.3875505 C37.6946392,35.4098157 37.1338008,60 41,60 C47.627417,60 52,30.3888407 52,21 C52,11.6111593 47.627417,4 41,4 C37.8333333,4 34.6666667,7 31.5,7 C28.3333333,7 25.1666667,4 22,4 C16.6008958,4 12.6982664,9.05132871 11.437115,16 L20.0037973,16 C22.2108391,16 24,17.7939455 24,20.0065045 L24,24.9934955 C24,27.2062268 22.2111696,29 20.0037973,29 L11.544622,29 Z"/>
    <path stroke="#FFF" stroke-linecap="round" stroke-width="2" d="M20,32 L20,32 C23.8659932,32 27,28.8659932 27,25"/>
  </g>
</svg>
