<svg xmlns="http://www.w3.org/2000/svg" width="64" height="64" viewBox="0 0 64 64">
  <g fill="none" fill-rule="evenodd">
    <circle cx="33.554" cy="33" r="29" fill="#0A3586"/>
    <circle cx="33.554" cy="33" r="4" stroke="#FFF" stroke-linecap="round" stroke-linejoin="round" stroke-width="2"/>
    <path stroke="#FFF" stroke-linecap="round" stroke-linejoin="round" stroke-width="2" d="M30.6894644,10.8540085 C30.6144061,9.27778313 31.8260049,8 33.41298,8 L33.6941385,8 C35.273353,8 36.4925101,9.28203212 36.4176541,10.8540085 L35.5535593,29 L31.5535593,29 L30.6894644,10.8540085 Z M54.1645887,41.5926222 C55.567169,42.3157325 56.0679623,44.0038994 55.2744747,45.3782602 L55.1338955,45.6217505 C54.3442883,46.9893904 52.6244373,47.4041954 51.3004938,46.55338 L36.0176516,36.7320562 L38.0176516,33.2679545 L54.1645887,41.5926222 Z M15.8066062,46.5533693 C14.4790842,47.4064844 12.7666921,46.9961006 11.9732045,45.6217398 L11.8326253,45.3782495 C11.0430181,44.0106096 11.5437119,42.3137725 12.9425114,41.5926115 L29.0894484,33.2679438 L31.0894484,36.7320455 L15.8066062,46.5533693 Z"/>
  </g>
</svg>
