<svg xmlns="http://www.w3.org/2000/svg" width="64" height="64" viewBox="0 0 64 64">
  <g fill="none" fill-rule="evenodd">
    <rect width="14" height="6" x="4" y="16" fill="#5B68C0" rx="3"/>
    <rect width="54" height="6" x="4" y="30" fill="#5B68C0" rx="3"/>
    <path fill="#5B68C0" d="M4,47 C4,45.3431458 5.34331243,44 7.00235843,44 L34.9976416,44 C36.6557983,44 38,45.3465171 38,47 L38,47 C38,48.6568542 36.6566876,50 34.9976416,50 L7.00235843,50 C5.34420165,50 4,48.6534829 4,47 L4,47 Z"/>
    <rect width="34" height="6" x="24" y="16" fill="#5B68C0" rx="3"/>
    <path fill="#5B68C0" d="M44,47 C44,45.3431458 45.3423789,44 47.0033512,44 L54.9966488,44 C56.6553538,44 58,45.3465171 58,47 L58,47 C58,48.6568542 56.6576211,50 54.9966488,50 L47.0033512,50 C45.3446462,50 44,48.6534829 44,47 L44,47 Z"/>
  </g>
</svg>
