<svg xmlns="http://www.w3.org/2000/svg" xmlns:xlink="http://www.w3.org/1999/xlink" width="64" height="64" viewBox="0 0 64 64">
  <defs>
    <circle id="thermometerhot-a" cx="26.811" cy="27" r="26.5"/>
  </defs>
  <g fill="none" fill-rule="evenodd">
    <g transform="translate(3 3)">
      <mask id="thermometerhot-b" fill="#fff">
        <use xlink:href="#thermometerhot-a"/>
      </mask>
      <use fill="#80D25B" xlink:href="#thermometerhot-a"/>
      <path fill="#22BA8E" d="M42.4768987 20.0051965C42.4768987 20.0051965 36.6488785 17.6267342 34.9129423 18.8159654 33.1770061 20.0051965 34.1043701 25.6205727 34.1043701 25.6205727 34.1043701 25.6205727 31.5172017 29.3284459 32.8107859 31.278609 34.1043701 33.228772 37.6976596 32.5584107 39.7164648 34.2785955 41.73527 35.9987803 40.8965076 39.0860558 40.8965076 39.0860558L40.408214 42.6905025C40.408214 42.6905025 45.8155404 40.2674113 47.373617 36.7765059 48.9316935 33.2856006 48.4269923 27.8126434 48.4269923 27.8126434L51.5831802 24.951138 54.3586241 15.9505118 44.6190899 12.8006946 43.5460254 8 36.5812787 9.9741762 35.9518788 15.210206 41.3012498 16.9813469 42.4768987 20.0051965zM-1 23.0403062C-1 23.0403062.969941238 21.784322 1.2328707 21.7643353 3.25003481 21.611 10.2791656 22.0398197 12.1170184 19.3753768 14.1944281 16.3636342 15.9261253 12.3755591 15.9261253 12.3755591L15.856544 9.30708574 4.99433636 6.6413691-1 23.0403062zM16.0762462 48.1005004L16.9965049 37.937221 9.60330138 32.2773871C9.60330138 32.2773871 9.1763272 27.7480643 14.5426164 27.1080074 19.9089055 26.4679505 23.2151251 29.7871087 23.2151251 29.7871087 23.2151251 29.7871087 25.3455484 33.0839663 24.5510368 35.3236214 23.7565252 37.5632766 21.7009032 40.917145 21.7009032 40.917145 21.7009032 40.917145 21.5378451 44.7273251 20.1446309 46.5066252 18.7514166 48.2859253 16.0762462 48.1005004 16.0762462 48.1005004z" mask="url(#thermometerhot-b)"/>
    </g>
    <path fill="#D8D8D8" d="M57,43.0702576 L57,7.00172845 C57,4.78913646 55.209139,3 53,3 C50.7953562,3 49,4.79163485 49,7.00172845 L49,43.0702576 C46.6087945,44.4534952 45,47.0388706 45,50 C45,54.418278 48.581722,58 53,58 C57.418278,58 61,54.418278 61,50 C61,47.0388706 59.3912055,44.4534952 57,43.0702576 Z"/>
    <circle cx="53" cy="50" r="6" fill="#E43535"/>
    <rect width="4" height="30" x="51" y="16" fill="#E43535"/>
  </g>
</svg>
