<svg xmlns="http://www.w3.org/2000/svg" width="64" height="64" viewBox="0 0 64 64">
  <g fill="none" fill-rule="evenodd">
    <path fill="#39C058" d="M-6.5,36.5 C-6.5,33.7385763 -4.26471113,31.5 -1.49244481,31.5 L40.5,31.5 L40.5,41.5 L-6.5,41.5 L-6.5,36.5 Z" transform="rotate(-90 17 36.5)"/>
    <rect width="33" height="42" x="19" y="18" fill="#DFCC00"/>
    <rect width="17" height="11" x="31" y="45" fill="#FC3939" rx="3"/>
    <path fill="#6B6B6B" d="M12,13 C12,10.2385763 14.2352052,8 17.0069123,8 L50,8 L50,18 L17.0069123,18 C14.241671,18 12,15.7558048 12,13 L12,13 Z"/>
    <path fill="#989898" fill-rule="nonzero" d="M17,14 L47,14 C47.5522847,14 48,13.5522847 48,13 C48,12.4477153 47.5522847,12 47,12 L17,12 C16.4477153,12 16,12.4477153 16,13 C16,13.5522847 16.4477153,14 17,14 Z"/>
  </g>
</svg>
