<svg xmlns="http://www.w3.org/2000/svg" width="64" height="64" viewBox="0 0 64 64">
  <g fill="none" fill-rule="evenodd">
    <polyline stroke="#D8D8D8" stroke-dasharray="4" stroke-linecap="round" stroke-width="2" points="31 46.6 38.887 46.6 38.887 26"/>
    <path fill="#D650C7" d="M1,55.9597759 C1,53.7493282 2.78716697,51.7516292 4.96428975,51.5009519 L18,50 L31.0357102,51.5009519 C33.225127,51.7530447 35,53.7492282 35,55.9597759 L35,62.9574064 L1,62.9574064 L1,55.9597759 Z"/>
    <path fill="#FFDD95" d="M12,45.3164468 C8.98979073,42.470456 7,37.8615543 7,34 C7,27.9248678 11.9248678,23 18,23 C24.0751322,23 29,27.9248678 29,34 C29,37.8615543 27.0102093,42.470456 24,45.3164468 L24,52 C24,52 19.9325778,53.4486507 18,53.4486507 C16.0674222,53.4486507 12,52 12,52 L12,45.3164468 Z"/>
    <circle cx="9" cy="39" r="3" fill="#FFDD95"/>
    <circle cx="27" cy="39" r="3" fill="#FFDD95"/>
    <path fill="#80D25B" d="M54.5044647,18.529591 C57.2658885,18.529591 59.5044647,16.1876959 59.5044647,13.2988218 C59.5044647,10.4099477 54.5044647,1.52959101 54.5044647,1.52959101 C54.5044647,1.52959101 49.5044647,10.4099477 49.5044647,13.2988218 C49.5044647,16.1876959 51.743041,18.529591 54.5044647,18.529591 Z" transform="rotate(75 54.504 10.03)"/>
    <path fill="#80D25B" d="M24.5044647,18.529591 C27.2658885,18.529591 29.5044647,16.1876959 29.5044647,13.2988218 C29.5044647,10.4099477 24.5044647,1.52959101 24.5044647,1.52959101 C24.5044647,1.52959101 19.5044647,10.4099477 19.5044647,13.2988218 C19.5044647,16.1876959 21.743041,18.529591 24.5044647,18.529591 Z" transform="scale(-1 1) rotate(75 0 -21.905)"/>
    <path stroke="#22BA8E" stroke-linecap="round" stroke-width="2" d="M51,11 C44.372583,11 39,16.372583 39,23"/>
    <path stroke="#22BA8E" stroke-linecap="round" stroke-width="2" d="M39,11 C32.372583,11 27,16.372583 27,23" transform="matrix(-1 0 0 1 66 0)"/>
  </g>
</svg>
