<svg xmlns="http://www.w3.org/2000/svg" width="64" height="64" viewBox="0 0 64 64">
  <g fill="none" fill-rule="evenodd">
    <path fill="#22BA8E" d="M14,55.0023695 C14,52.7919219 15.787167,50.7942228 17.9642898,50.5435455 L31,49.0425936 L44.0357102,50.5435455 C46.225127,50.7956384 48,52.7918218 48,55.0023695 L48,62 L14,62 L14,55.0023695 Z"/>
    <path fill="#FFAF40" d="M20,29 L42,29 L42,44.0074602 C42,45.6601943 40.6569187,47 38.9986131,47 L23.0013869,47 C21.3437667,47 20,45.6470745 20,44.0074602 L20,29 Z"/>
    <path fill="#FFDD95" d="M25,45.2210693 C21.9897907,43.2583682 20,39.8615543 20,36 C20,29.9248678 24.9248678,25 31,25 C37.0751322,25 42,29.9248678 42,36 C42,39.8615543 40.0102093,43.2583682 37,45.2210693 L37,51 C37,51 32.9325778,52.4486507 31,52.4486507 C29.0674222,52.4486507 25,51 25,51 L25,45.2210693 Z"/>
    <path fill="#FFAF40" d="M20,25 C20,22.2385763 22.23631,20 25.0019727,20 L44,20 L44,25 C44,27.7614237 41.76369,30 38.9980273,30 L20,30 L20,25 Z"/>
    <path fill="#FFAF40" fill-rule="nonzero" d="M16.8436118 14.8074741C16.3759988 15.4913085 16.5512809 16.4247411 17.2351153 16.8923542 17.9189498 17.3599672 18.8523824 17.1846852 19.3199954 16.5008507L24.563768 8.83238997 19.659258 8.67664253 22.0930528 4.79714225C22.5333023 4.09537885 22.3213034 3.16959447 21.61954 2.72934496 20.9177766 2.28909545 19.9919922 2.50109435 19.5517427 3.20285775L14.340742 11.5092602 18.9978355 11.6571507 16.8436118 14.8074741zM29.8436118 14.8074741C29.3759988 15.4913085 29.5512809 16.4247411 30.2351153 16.8923542 30.9189498 17.3599672 31.8523824 17.1846852 32.3199954 16.5008507L37.563768 8.83238997 32.659258 8.67664253 35.0930528 4.79714225C35.5333023 4.09537885 35.3213034 3.16959447 34.61954 2.72934496 33.9177766 2.28909545 32.9919922 2.50109435 32.5517427 3.20285775L27.340742 11.5092602 31.9978355 11.6571507 29.8436118 14.8074741zM42.8436118 14.8074741C42.3759988 15.4913085 42.5512809 16.4247411 43.2351153 16.8923542 43.9189498 17.3599672 44.8523824 17.1846852 45.3199954 16.5008507L50.563768 8.83238997 45.659258 8.67664253 48.0930528 4.79714225C48.5333023 4.09537885 48.3213034 3.16959447 47.61954 2.72934496 46.9177766 2.28909545 45.9919922 2.50109435 45.5517427 3.20285775L40.340742 11.5092602 44.9978355 11.6571507 42.8436118 14.8074741z"/>
  </g>
</svg>
