<svg xmlns="http://www.w3.org/2000/svg" width="64" height="64" viewBox="0 0 64 64">
  <g fill="none" fill-rule="evenodd">
    <rect width="64" height="31" y="17" fill="#ECECEC"/>
    <rect width="64" height="3" y="48" fill="#E43535"/>
    <path stroke="#979797" stroke-linecap="square" stroke-width="2" d="M33 21L53.0249844 21M33 35L53.0249844 35M33 39L47 39M33 25L42 25M47 25L59.3345238 25M33 29L49 29"/>
    <rect width="25" height="25" x="4" y="20" fill="#0A3586"/>
    <path fill="#22BA8E" d="M14.8894841,38.4505685 L14.8894841,33.1477687 L8.66726189,34.3076128 L8.66726189,31.6234022 L14.8894841,29.0717453 L14.8894841,25.9562165 C14.8894841,24.9682042 15.6874202,24.1672619 16.6672619,24.1672619 C17.6491014,24.1672619 18.4450397,24.9659244 18.4450397,25.9562165 L18.4450397,29.0717453 L24.6672619,31.6234022 L24.6672619,34.3076128 L18.4450397,33.1477687 L18.4450397,38.363798 L20.5191137,38.9711917 L20.5191137,41.1672619 C20.5191137,41.1672619 18.6672619,40.4231684 16.81541,40.4231684 C14.9635582,40.4231684 13.1117063,41.1672619 13.1117063,41.1672619 L13.1117063,38.9711917 L14.8894841,38.4505685 Z" transform="rotate(45 16.667 32.667)"/>
  </g>
</svg>
