<svg xmlns="http://www.w3.org/2000/svg" width="64" height="64" viewBox="0 0 64 64">
  <g fill="none" fill-rule="evenodd">
    <path fill="#FF78C7" d="M41,63 L37,63 C37,60.790861 35.209139,59 33,59 C30.790861,59 29,60.790861 29,63 L25,63 C25,60.790861 23.209139,59 21,59 C18.790861,59 17,60.790861 17,63 L11,63 L11,59 C13.209139,59 15,57.209139 15,55 C15,52.790861 13.209139,51 11,51 L11,45 C13.209139,45 15,43.209139 15,41 C15,38.790861 13.209139,37 11,37 L11,31 C13.209139,31 15,29.209139 15,27 C15,24.790861 13.209139,23 11,23 L11,19 C13.209139,19 15,17.209139 15,15 C15,12.790861 13.209139,11 11,11 L11,5 L17,5 C17,7.209139 18.790861,9 21,9 C23.209139,9 25,7.209139 25,5 L29,5 C29,7.209139 30.790861,9 33,9 C35.209139,9 37,7.209139 37,5 L41,5 C41,7.209139 42.790861,9 45,9 C47.209139,9 49,7.209139 49,5 L55,5 L55,11 C52.790861,11 51,12.790861 51,15 C51,17.209139 52.790861,19 55,19 L55,23 C52.790861,23 51,24.790861 51,27 C51,29.209139 52.790861,31 55,31 L55,37 C52.790861,37 51,38.790861 51,41 C51,43.209139 52.790861,45 55,45 L55,49 C52.790861,49 51,50.790861 51,53 C51,55.209139 52.790861,57 55,57 L55,63 L49,63 C49,60.790861 47.209139,59 45,59 C42.790861,59 41,60.790861 41,63 Z"/>
    <rect width="30" height="41" x="18" y="13" fill="#FFDD95"/>
  </g>
</svg>
