<svg xmlns="http://www.w3.org/2000/svg" width="64" height="64" viewBox="0 0 64 64">
  <g fill="none" fill-rule="evenodd">
    <path fill="#ECECEC" d="M18,7 C18,21.9116882 26.2439533,34 31,34 C35.7560467,34 44,21.9116882 44,7 L18,7 Z"/>
    <path fill="#ECECEC" d="M18,31 C18,45.9116882 26.2439533,58 31,58 C35.7560467,58 44,45.9116882 44,31 L18,31 Z" transform="matrix(1 0 0 -1 0 89)"/>
    <path fill="#FFDD95" d="M20,42 C20,50.836556 26.9756528,58 31,58 C35.0243472,58 42,50.836556 42,42 L20,42 Z" transform="matrix(1 0 0 -1 0 100)"/>
    <path fill="#FFDD95" d="M24,20 C24,25.5228475 28.4390518,30 31,30 C33.5609482,30 38,25.5228475 38,20 L24,20 Z" transform="matrix(-1 0 0 1 62 0)"/>
    <rect width="30" height="3" x="16" y="4" fill="#FFAF40" rx="1"/>
    <rect width="30" height="3" x="16" y="58" fill="#FFAF40" rx="1"/>
  </g>
</svg>
