<svg xmlns="http://www.w3.org/2000/svg" width="64" height="64" viewBox="0 0 64 64">
  <g fill="none" fill-rule="evenodd">
    <circle cx="26" cy="39" r="23" fill="#FF78C7"/>
    <circle cx="26" cy="39" r="20" fill="#B4DFFB"/>
    <path fill="#5B68C0" d="M42.0714286,3 C37.8109462,3 35,7.89288809 35,13.9285714 C35,19.9642548 37.8109462,39 42.0714286,39 C44.5568423,39 45.1962339,23.1920244 48.5356448,23.177711 C52.5179129,23.1920244 51.8003005,39 54.2857143,39 C58.5461966,39 61.3571429,19.9642548 61.3571429,13.9285714 C61.3571429,7.89288809 58.5461966,3 54.2857143,3 C52.25,3 50.5713591,4.96309836 48.5356448,4.96309836 C46.4999305,4.96309836 44.1071429,3 42.0714286,3 Z"/>
    <path fill="#FFF" d="M24,22.9940603 C24,21.8927712 24.8877296,21 26,21 L26,21 C27.1045695,21 28,21.8945138 28,22.9940603 L28,37 L24,37 L24,22.9940603 Z"/>
    <path fill="#FFF" d="M30.0710678,39.0651281 C30.0710678,37.963839 30.9587975,37.0710678 32.0710678,37.0710678 L32.0710678,37.0710678 C33.1756373,37.0710678 34.0710678,37.9655816 34.0710678,39.0651281 L34.0710678,53.0710678 L30.0710678,53.0710678 L30.0710678,39.0651281 Z" transform="rotate(135 32.071 45.071)"/>
    <circle cx="26" cy="39" r="4" fill="#FFAF40"/>
  </g>
</svg>
