<svg xmlns="http://www.w3.org/2000/svg" width="64" height="64" viewBox="0 0 64 64">
  <g fill="none" fill-rule="evenodd">
    <path fill="#ECECEC" d="M19,7 C19,21.9116882 27.2439533,34 32,34 C36.7560467,34 45,21.9116882 45,7 L19,7 Z"/>
    <path fill="#ECECEC" d="M19,31 C19,45.9116882 27.2439533,58 32,58 C36.7560467,58 45,45.9116882 45,31 L19,31 Z" transform="matrix(1 0 0 -1 0 89)"/>
    <path fill="#FFDD95" d="M21,37 C21,48.5979797 27.9756528,58 32,58 C36.0243472,58 43,48.5979797 43,37 L21,37 Z" transform="matrix(1 0 0 -1 0 95)"/>
    <rect width="30" height="3" x="17" y="4" fill="#FFAF40" rx="1"/>
    <rect width="30" height="3" x="17" y="58" fill="#FFAF40" rx="1"/>
  </g>
</svg>
