<svg xmlns="http://www.w3.org/2000/svg" width="64" height="64" viewBox="0 0 64 64">
  <g fill="none" fill-rule="evenodd">
    <path fill="#ECECEC" d="M20,7 C20,21.9116882 28.2439533,34 33,34 C37.7560467,34 46,21.9116882 46,7 L20,7 Z"/>
    <path fill="#ECECEC" d="M20,31 C20,45.9116882 28.2439533,58 33,58 C37.7560467,58 46,45.9116882 46,31 L20,31 Z" transform="matrix(1 0 0 -1 0 89)"/>
    <path fill="#FFDD95" d="M22,7 C22,18.5979797 28.9756528,28 33,28 C37.0243472,28 44,18.5979797 44,7 L22,7 Z" transform="matrix(-1 0 0 1 66 0)"/>
    <rect width="30" height="3" x="18" y="4" fill="#FFAF40" rx="1"/>
    <rect width="30" height="3" x="18" y="58" fill="#FFAF40" rx="1"/>
    <path stroke="#FFDD95" stroke-linecap="round" stroke-width="2" d="M33 34L33 35.6509456M33 41.4033174L33 43.0542631"/>
  </g>
</svg>
