<svg xmlns="http://www.w3.org/2000/svg" width="64" height="64" viewBox="0 0 64 64">
  <g fill="none" fill-rule="evenodd">
    <path fill="#B4DFFB" d="M12.0714286 18C7.81094622 18 5 22.8928881 5 28.9285714 5 34.9642548 7.81094622 54 12.0714286 54 14.5568423 54 14.8391605 38.1920244 18.1785714 38.177711 22.1608395 38.1920244 21.8003005 54 24.2857143 54 28.5461966 54 31.3571429 34.9642548 31.3571429 28.9285714 31.3571429 22.8928881 28.5461966 18 24.2857143 18 22.25 18 20.2142857 19.9285714 18.1785714 19.9285714 16.1428571 19.9285714 14.1071429 18 12.0714286 18zM40.0714286 18C35.8109462 18 33 22.8928881 33 28.9285714 33 34.9642548 35.8109462 54 40.0714286 54 42.5568423 54 42.8391605 38.1920244 46.1785714 38.177711 50.1608395 38.1920244 49.8003005 54 52.2857143 54 56.5461966 54 59.3571429 34.9642548 59.3571429 28.9285714 59.3571429 22.8928881 56.5461966 18 52.2857143 18 50.25 18 48.2142857 19.9285714 46.1785714 19.9285714 44.1428571 19.9285714 42.1071429 18 40.0714286 18z"/>
    <path stroke="#979797" stroke-linecap="square" stroke-width="2" d="M5,28 L59,28"/>
    <rect width="6" height="8" x="15" y="24" fill="#ECECEC"/>
    <rect width="6" height="8" x="43.179" y="24" fill="#ECECEC"/>
  </g>
</svg>
