<svg xmlns="http://www.w3.org/2000/svg" width="64" height="64" viewBox="0 0 64 64">
  <g fill="none" fill-rule="evenodd">
    <path fill="#B4DFFB" d="M23,6 C16.372583,6 12,13.6111593 12,23 C12,32.3888407 16.372583,62 23,62 C26.8661992,62 27.3053608,37.4098157 32.5,37.3875505 C38.6946392,37.4098157 38.1338008,62 42,62 C48.627417,62 53,32.3888407 53,23 C53,13.6111593 48.627417,6 42,6 C38.8333333,6 35.6666667,9 32.5,9 C29.3333333,9 26.1666667,6 23,6 Z"/>
    <path stroke="#FFF" stroke-linecap="round" stroke-width="2" d="M25,10 C20.581722,10 17,13.581722 17,18"/>
    <polygon fill="#FF78C7" points="47.728 15.228 41.364 17.092 43.228 10.728 41.364 4.364 47.728 6.228 54.092 4.364 52.228 10.728 54.092 17.092" transform="rotate(-45 47.728 10.728)"/>
    <polygon fill="#FF78C7" points="34.561 25.341 30.629 26.493 31.78 22.561 30.629 18.629 34.561 19.78 38.493 18.629 37.341 22.561 38.493 26.493" transform="rotate(-45 34.56 22.56)"/>
  </g>
</svg>
