<svg xmlns="http://www.w3.org/2000/svg" width="64" height="64" viewBox="0 0 64 64">
  <g fill="none" fill-rule="evenodd">
    <path stroke="#E43535" stroke-linecap="round" stroke-width="6" d="M6,11 C6,15.9705627 17.8644541,20 32.5,20 L32.5,20 C47.1355459,20 59,15.9705627 59,11" transform="matrix(1 0 0 -1 0 31)"/>
    <path fill="#B4DFFB" d="M23,4 C16.372583,4 12,11.6111593 12,21 C12,30.3888407 16.372583,60 23,60 C26.8661992,60 27.3053608,35.4098157 32.5,35.3875505 C38.6946392,35.4098157 38.1338008,60 42,60 C48.627417,60 53,30.3888407 53,21 C53,11.6111593 48.627417,4 42,4 C38.8333333,4 35.6666667,7 32.5,7 C29.3333333,7 26.1666667,4 23,4 Z"/>
    <path stroke="#FF5656" stroke-linecap="round" stroke-width="6" d="M6,20 C6,24.9705627 17.8644541,29 32.5,29 M47.9197813,27.3203301 C54.6287287,25.6873995 59,23.0170712 59,20"/>
    <polygon fill="#FF5656" points="40 29 31 35 31 23"/>
    <path stroke="#FFF" stroke-linecap="round" stroke-width="2" d="M25,8 C20.581722,8 17,11.581722 17,16"/>
  </g>
</svg>
