<svg xmlns="http://www.w3.org/2000/svg" width="64" height="64" viewBox="0 0 64 64">
  <g fill="none" fill-rule="evenodd">
    <path fill="#D8D8D8" d="M23,4 C16.372583,4 12,11.6111593 12,21 C12,30.3888407 16.372583,60 23,60 C26.8661992,60 27.3053608,35.4098157 32.5,35.3875505 C38.6946392,35.4098157 38.1338008,60 42,60 C48.627417,60 53,30.3888407 53,21 C53,11.6111593 48.627417,4 42,4 C38.8333333,4 35.6666667,7 32.5,7 C29.3333333,7 26.1666667,4 23,4 Z"/>
    <circle cx="23" cy="17" r="5" fill="#BD7575"/>
    <polyline stroke="#BD7575" stroke-linecap="round" stroke-width="2" points="23.594 13.019 25.378 8.296 24.118 6.277"/>
    <polyline stroke="#BD7575" stroke-linecap="round" stroke-width="2" points="23.75 13.196 31.817 18.498 33.258 22.182"/>
    <path stroke="#BD7575" stroke-linecap="round" stroke-width="2" d="M31.7867053,18.5430823 L36.4124343,17.1692448"/>
    <polyline stroke="#BD7575" stroke-linecap="round" stroke-width="2" points="22.625 18.807 19.025 24.74 23.428 28.916"/>
    <polyline stroke="#BD7575" stroke-linecap="round" stroke-width="2" points="19.533 17.225 15.149 15.342 13.802 17.773"/>
    <polyline stroke="#BD7575" stroke-linecap="round" stroke-width="2" points="24.051 19.661 26.982 26.302 36.951 28.427"/>
  </g>
</svg>
