<svg xmlns="http://www.w3.org/2000/svg" width="64" height="64" viewBox="0 0 64 64">
  <g fill="none" fill-rule="evenodd">
    <path fill="#D650C7" d="M0,41 C0,39.8954305 0.904756604,39 2.00134006,39 L42.3792329,39 L61.0277499,36.412416 C62.6692783,36.1846449 64,37.3496704 64,39.0092545 L64,39.9907455 C64,41.6527109 62.663269,43 60.9989882,43 L2.00329863,43 C0.896907345,43 0,42.1122704 0,41 L0,41 Z"/>
    <path stroke="#979797" stroke-linecap="square" stroke-width="2" d="M3,37 L3,30.9172375"/>
    <path stroke="#D8D8D8" stroke-linecap="square" stroke-width="2" d="M7,37 L7,30.9172375"/>
    <path stroke="#979797" stroke-linecap="square" stroke-width="2" d="M11,37 L11,30.9172375"/>
    <path stroke="#D8D8D8" stroke-linecap="square" stroke-width="2" d="M15,37 L15,30.9172375"/>
    <path stroke="#979797" stroke-linecap="square" stroke-width="2" d="M19,37 L19,30.9172375"/>
    <path fill="#5EA7FF" d="M2,26.5 C2,25.1192881 3.1181422,24 4.49257535,24 L22,24 L22,26.5 C22,27.8807119 20.8818578,29 19.5074247,29 L2,29 L2,26.5 Z"/>
  </g>
</svg>
