<svg xmlns="http://www.w3.org/2000/svg" width="64" height="64" viewBox="0 0 64 64">
  <g fill="none" fill-rule="evenodd">
    <path fill="#FF5656" d="M2,39.7321538 C2,39.7321538 7.60735188,37.8258652 15.3350495,40.165557 C20.0340347,41.5882547 25.5170174,45.7321538 31,45.7321538 C36.4831458,45.7321538 41.9662915,41.5881866 46.66537,40.16543 C54.392851,37.8257533 60,39.7321538 60,39.7321538 L60,56.7321538 L2,56.7321538 L2,39.7321538 Z"/>
    <path stroke="#979797" stroke-linecap="square" stroke-width="2" d="M31,16 L31,21"/>
    <g transform="translate(18 26)">
      <path fill="#B4DFFB" d="M7.07142857,0 C2.81094622,0 0,4.89288809 0,10.9285714 C0,16.9642548 2.81094622,36 7.07142857,36 C9.55684234,36 9.83916051,20.1920244 13.1785714,20.177711 C17.1608395,20.1920244 16.8003005,36 19.2857143,36 C23.5461966,36 26.3571429,16.9642548 26.3571429,10.9285714 C26.3571429,4.89288809 23.5461966,0 19.2857143,0 C17.25,0 15.2142857,1.92857143 13.1785714,1.92857143 C11.1428571,1.92857143 9.10714286,0 7.07142857,0 Z"/>
      <path stroke="#FFF" stroke-linecap="round" stroke-width="2" d="M8.17857143,3 C5.41714768,3 3.17857143,5.23857625 3.17857143,8"/>
    </g>
    <path fill="#D8D8D8" d="M25,1 L37,1 L37,10.0069348 C37,13.3168133 34.3069658,16 31,16 L31,16 C27.6862915,16 25,13.3183006 25,10.0069348 L25,1 Z"/>
    <path stroke="#979797" stroke-linecap="square" stroke-width="2" d="M26,8 L31,8"/>
    <circle cx="31" cy="22" r="2" fill="#D8D8D8"/>
    <rect width="27" height="4" x="37" y="4" fill="#979797"/>
  </g>
</svg>
