<svg xmlns="http://www.w3.org/2000/svg" width="64" height="64" viewBox="0 0 64 64">
  <g fill="none" fill-rule="evenodd">
    <path fill="#D8D8D8" d="M25,5 C18.372583,5 14,12.6111593 14,22 C14,31.3888407 18.372583,61 25,61 C28.8661992,61 29.3053608,36.4098157 34.5,36.3875505 C40.6946392,36.4098157 40.1338008,61 44,61 C50.627417,61 55,31.3888407 55,22 C55,12.6111593 50.627417,5 44,5 C40.8333333,5 37.6666667,8 34.5,8 C31.3333333,8 28.1666667,5 25,5 Z"/>
    <circle cx="25" cy="16" r="5" fill="#BD7575"/>
    <circle cx="39" cy="19" r="3" fill="#9C4D4D"/>
    <circle cx="27.5" cy="30.5" r="3.5" fill="#BD7575"/>
  </g>
</svg>
