<svg xmlns="http://www.w3.org/2000/svg" width="64" height="64" viewBox="0 0 64 64">
  <g fill="none" fill-rule="evenodd">
    <path fill="#FCC24C" d="M23,4 C16.372583,4 12,11.6111593 12,21 C12,30.3888407 16.372583,60 23,60 C26.8661992,60 27.3053608,35.4098157 32.5,35.3875505 C38.6946392,35.4098157 38.1338008,60 42,60 C48.627417,60 53,30.3888407 53,21 C53,11.6111593 48.627417,4 42,4 C38.8333333,4 35.6666667,7 32.5,7 C29.3333333,7 26.1666667,4 23,4 Z"/>
    <rect width="23" height="14" x="21" y="15" fill="#ECECEC"/>
    <path stroke="#979797" stroke-linecap="square" stroke-width="2" d="M22,22 L43,22"/>
    <rect width="16" height="4" x="5" y="20" fill="#D8D8D8"/>
    <rect width="16" height="4" x="44" y="20" fill="#D8D8D8"/>
    <rect width="3" height="8" x="26" y="18" fill="#D8D8D8"/>
    <rect width="3" height="8" x="35" y="18" fill="#D8D8D8"/>
  </g>
</svg>
