<svg xmlns="http://www.w3.org/2000/svg" width="64" height="64" viewBox="0 0 64 64">
  <g fill="none" fill-rule="evenodd">
    <circle cx="32" cy="32" r="30" fill="#325AA6"/>
    <circle cx="54" cy="10" r="10" fill="#5EA7FF"/>
    <polyline stroke="#FFF" stroke-linecap="square" stroke-width="2" points="58.659 15.373 53.852 5.054 49.255 8.737" transform="matrix(1 0 0 -1 0 20.427)"/>
    <path fill="#B4DFFB" d="M25.8928571,14 C21.6323748,14 18.8214286,18.8928881 18.8214286,24.9285714 C18.8214286,30.9642548 21.6323748,50 25.8928571,50 C28.3782709,50 28.6605891,34.1920244 32,34.177711 C35.9822681,34.1920244 35.6217291,50 38.1071429,50 C42.3676252,50 45.1785714,30.9642548 45.1785714,24.9285714 C45.1785714,18.8928881 42.3676252,14 38.1071429,14 C36.0714286,14 34.0357143,15.9285714 32,15.9285714 C29.9642857,15.9285714 27.9285714,14 25.8928571,14 Z"/>
    <path stroke="#FFF" stroke-linecap="round" stroke-width="2" d="M27,17 C24.2385763,17 22,19.2385763 22,22"/>
  </g>
</svg>
