<svg xmlns="http://www.w3.org/2000/svg" width="64" height="64" viewBox="0 0 64 64">
  <g fill="none" fill-rule="evenodd">
    <path fill="#5EA7FF" d="M23,6 C16.372583,6 12,13.6111593 12,23 C12,32.3888407 16.372583,62 23,62 C26.8661992,62 27.3053608,37.4098157 32.5,37.3875505 C38.6946392,37.4098157 38.1338008,62 42,62 C48.627417,62 53,32.3888407 53,23 C53,13.6111593 48.627417,6 42,6 C38.8333333,6 35.6666667,9 32.5,9 C29.3333333,9 26.1666667,6 23,6 Z"/>
    <path stroke="#80D25B" stroke-linejoin="round" stroke-width="6" d="M53,25 C53,15.6111593 48.627417,8 42,8 C38.8333333,8 35.6666667,11 32.5,11 C29.3333333,11 26.1666667,8 23,8 L23,8 C16.372583,8 12,15.6111593 12,25"/>
  </g>
</svg>
