<svg xmlns="http://www.w3.org/2000/svg" width="64" height="64" viewBox="0 0 64 64">
  <g fill="none" fill-rule="evenodd">
    <path fill="#ED9111" d="M37.4709268,11.3510587 C35.6472845,12.0238795 33.8236423,13.3071797 32,13.3071797 C29.5284553,13.3071797 27.0569106,10.9500368 24.5853659,10.9500368 C19.4127477,10.9500368 16,16.9302334 16,24.3071797 C16,31.684126 19.4127477,54.9500368 24.5853659,54.9500368 C27.6028872,54.9500368 27.9456474,35.6291777 32,35.6116836 C36.8348404,35.6291777 36.3971128,54.9500368 39.4146341,54.9500368 C43.9109127,54.9500368 47.0774527,37.3705724 47.8286562,27.928283 L43.6679267,27.7048464 L43.3238589,23.8233926 L40.9400542,23.4441286 L41.2170189,17.13249 L36.5151969,16.3881061 L37.4709268,11.3510587 Z"/>
    <path stroke="#FF5656" stroke-dasharray="5" stroke-linecap="round" stroke-linejoin="round" stroke-width="2" d="M32,62 L32,62 C48.5685425,62 62,48.5685425 62,32 C62,15.4314575 48.5685425,2 32,2"/>
    <path stroke="#FF5656" stroke-linecap="round" stroke-width="2" d="M32,2 C15.4314575,2 2,15.4314575 2,32 C2,48.5685425 15.4314575,62 32,62 L32,62"/>
  </g>
</svg>
