<svg xmlns="http://www.w3.org/2000/svg" width="64" height="64" viewBox="0 0 64 64">
  <g fill="none" fill-rule="evenodd">
    <rect width="5.743" height="36" x="33.887" y="19.758" fill="#9C4D4D" transform="rotate(-45 36.758 37.758)"/>
    <rect width="7.114" height="22" x="47.252" y="40.809" fill="#BD7575" rx="2" transform="rotate(-45 50.809 51.809)"/>
    <circle cx="19" cy="19" r="19" fill="#E3F4FF" stroke="#B4DFFB" stroke-width="2" transform="translate(3 3)"/>
    <path fill="#5EA7FF" d="M18.3214286,12 C15.7178005,12 14,14.9900983 14,18.6785714 C14,22.3670446 15.7178005,34 18.3214286,34 C19.8402925,34 20.0128203,24.3395704 22.0535714,24.3308234 C24.4871797,24.3395704 24.2668503,34 25.7857143,34 C28.3893424,34 30.1071429,22.3670446 30.1071429,18.6785714 C30.1071429,14.9900983 28.3893424,12 25.7857143,12 C24.5416667,12 23.297619,13.1785714 22.0535714,13.1785714 C20.8095238,13.1785714 19.5654762,12 18.3214286,12 Z"/>
  </g>
</svg>
