<svg xmlns="http://www.w3.org/2000/svg" width="64" height="64" viewBox="0 0 64 64">
  <g fill="none" fill-rule="evenodd">
    <path fill="#D8D8D8" d="M25,5 C18.372583,5 14,12.6111593 14,22 C14,31.3888407 18.372583,61 25,61 C28.8661992,61 29.3053608,36.4098157 34.5,36.3875505 C40.6946392,36.4098157 40.1338008,61 44,61 C50.627417,61 55,31.3888407 55,22 C55,12.6111593 50.627417,5 44,5 C40.8333333,5 37.6666667,8 34.5,8 C31.3333333,8 28.1666667,5 25,5 Z"/>
    <path fill="#BD7575" d="M54.1182297,32.7969828 C52.5242053,45.003224 48.8711648,61 44,61 C40.1338008,61 40.6946392,36.4098157 34.5,36.3875505 C29.3053608,36.4098157 28.8661992,61 25,61 C20.2561719,61 16.6676148,45.8286337 15.0109842,33.7616474 L26.5344906,25.97369 L30.7911544,29.504141 L35.167542,24.3397112 L41.461761,30.6451719 L50.4033966,27.5919305 L54.1182297,32.7969828 Z"/>
    <path stroke="#9C4D4D" stroke-linecap="round" stroke-linejoin="round" stroke-width="2" d="M22 36L22 41M27 31L27 36M44 40L44 45M44 35L44 37M23 50L23 52M47 37L47 42"/>
  </g>
</svg>
