<svg xmlns="http://www.w3.org/2000/svg" width="64" height="64" viewBox="0 0 64 64">
  <g fill="none" fill-rule="evenodd">
    <path fill="#B4DFFB" d="M23,4 C16.372583,4 12,11.6111593 12,21 C12,30.3888407 16.372583,60 23,60 C26.8661992,60 27.3053608,35.4098157 32.5,35.3875505 C38.6946392,35.4098157 38.1338008,60 42,60 C48.627417,60 53,30.3888407 53,21 C53,11.6111593 48.627417,4 42,4 C38.8333333,4 35.6666667,7 32.5,7 C29.3333333,7 26.1666667,4 23,4 Z"/>
    <rect width="5" height="21" x="30" y="11" fill="#FF5656"/>
    <rect width="5" height="21" x="30" y="11" fill="#FF5656" transform="rotate(-90 32.5 21.5)"/>
    <path stroke="#FFF" stroke-linecap="round" stroke-width="2" d="M25,8 C20.581722,8 17,11.581722 17,16"/>
  </g>
</svg>
