<svg xmlns="http://www.w3.org/2000/svg" width="64" height="64" viewBox="0 0 64 64">
  <g fill="none" fill-rule="evenodd">
    <path fill="#D8D8D8" d="M23,5 C16.372583,5 12,12.6111593 12,22 C12,31.3888407 16.372583,61 23,61 C26.8661992,61 27.3053608,36.4098157 32.5,36.3875505 C38.6946392,36.4098157 38.1338008,61 42,61 C48.627417,61 53,31.3888407 53,22 C53,12.6111593 48.627417,5 42,5 C38.8333333,5 35.6666667,8 32.5,8 C29.3333333,8 26.1666667,5 23,5 Z"/>
    <path stroke="#ED9111" stroke-linecap="round" stroke-width="2" d="M41.7577246 11L34 18.7577246M37.8801102 21.8776144L32 27.7577246M46.8801102 12.8776144L42.877029 16.8806956M47.7577246 20L40 27.7577246"/>
  </g>
</svg>
