<svg xmlns="http://www.w3.org/2000/svg" width="64" height="64" viewBox="0 0 64 64">
  <g fill="none" fill-rule="evenodd">
    <path fill="#FF5656" d="M3,40.7321538 C3,40.7321538 8.60735188,38.8258652 16.3350495,41.165557 C21.0340347,42.5882547 26.5170174,46.7321538 32,46.7321538 C37.4831458,46.7321538 42.9662915,42.5881866 47.66537,41.16543 C55.392851,38.8257533 61,40.7321538 61,40.7321538 L61,57.7321538 L3,57.7321538 L3,40.7321538 Z"/>
    <polygon fill="#979797" points="30 23 35 23 35 49 32.5 53 30 49"/>
    <polygon fill="#595959" fill-rule="nonzero" points="30 45 35 48 35 46 30 43"/>
    <polygon fill="#595959" fill-rule="nonzero" points="30 40 35 43 35 41 30 38"/>
    <polygon fill="#595959" fill-rule="nonzero" points="30 35 35 38 35 36 30 33"/>
    <polygon fill="#595959" fill-rule="nonzero" points="30 30 35 33 35 31 30 28"/>
    <g transform="translate(19 4)">
      <path fill="#B4DFFB" d="M7.07142857,0 C2.81094622,0 0,4.89288809 0,10.9285714 C0,16.9642548 2.81094622,36 7.07142857,36 C9.55684234,36 10.1962339,20.1920244 13.5356448,20.177711 C17.5179129,20.1920244 16.8003005,36 19.2857143,36 C23.5461966,36 26.3571429,16.9642548 26.3571429,10.9285714 C26.3571429,4.89288809 23.5461966,0 19.2857143,0 C17.25,0 15.5713591,1.96309836 13.5356448,1.96309836 C11.4999305,1.96309836 9.10714286,0 7.07142857,0 Z"/>
      <path stroke="#FFF" stroke-linecap="round" stroke-width="2" d="M8.17857143,3 C5.41714768,3 3.17857143,5.23857625 3.17857143,8"/>
    </g>
  </g>
</svg>
