<svg xmlns="http://www.w3.org/2000/svg" width="64" height="64" viewBox="0 0 64 64">
  <g fill="none" fill-rule="evenodd">
    <path fill="#FCC24C" d="M24,4 C17.372583,4 13,11.6111593 13,21 C13,30.3888407 17.372583,60 24,60 C27.8661992,60 28.3053608,35.4098157 33.5,35.3875505 C39.6946392,35.4098157 39.1338008,60 43,60 C49.627417,60 54,30.3888407 54,21 C54,11.6111593 49.627417,4 43,4 C39.8333333,4 36.6666667,7 33.5,7 C30.3333333,7 27.1666667,4 24,4 Z"/>
    <path stroke="#D650C7" stroke-dasharray="4" stroke-linecap="round" stroke-width="2" d="M12,7 C12,16.3888407 21.6258779,24 33.5,24 L33.5,24 C45.3741221,24 55,16.3888407 55,7"/>
    <path stroke="#FFF" stroke-linecap="round" stroke-width="2" d="M26,8 C21.581722,8 18,11.581722 18,16"/>
  </g>
</svg>
