<svg xmlns="http://www.w3.org/2000/svg" width="64" height="64" viewBox="0 0 64 64">
  <g fill="none" fill-rule="evenodd">
    <path fill="#FF5656" d="M3,40.7321538 C3,40.7321538 8.60735188,36.8258652 16.3350495,39.165557 C21.0340347,40.5882547 26.5170174,32.9210349 32,32.9210349 C37.4831458,32.9210349 42.9662915,40.5881866 47.66537,39.16543 C55.392851,36.8257533 61,40.7321538 61,40.7321538 L61,57.7321538 L3,57.7321538 L3,40.7321538 Z"/>
    <circle cx="12" cy="48" r="3" fill="#9C4D4D"/>
    <circle cx="30.5" cy="53.5" r="2.5" fill="#9C4D4D"/>
    <circle cx="52.5" cy="49.5" r="3.5" fill="#9C4D4D"/>
    <g transform="translate(19 13)">
      <path fill="#B4DFFB" d="M7.07142857,0 C2.81094622,0 0,4.89288809 0,10.9285714 C0,16.9642548 2.81094622,36 7.07142857,36 C9.55684234,36 9.83916051,20.1920244 13.1785714,20.177711 C17.1608395,20.1920244 16.8003005,36 19.2857143,36 C23.5461966,36 26.3571429,16.9642548 26.3571429,10.9285714 C26.3571429,4.89288809 23.5461966,0 19.2857143,0 C17.25,0 15.2142857,1.92857143 13.1785714,1.92857143 C11.1428571,1.92857143 9.10714286,0 7.07142857,0 Z"/>
      <path stroke="#FFF" stroke-linecap="round" stroke-width="2" d="M8.17857143,3 C5.41714768,3 3.17857143,5.23857625 3.17857143,8"/>
    </g>
  </g>
</svg>
