<svg xmlns="http://www.w3.org/2000/svg" width="64" height="64" viewBox="0 0 64 64">
  <g fill="none" fill-rule="evenodd">
    <path fill="#B4DFFB" d="M52.8272243,24 C52.9413104,22.4469002 53,21.0877362 53,20 C53,10.6111593 48.627417,3 42,3 C38.8333333,3 35.6666667,6 32.5,6 C29.3333333,6 26.1666667,3 23,3 C16.372583,3 12,10.6111593 12,20 C12,21.0877362 12.0586896,22.4469002 12.1727757,24 L52.8272243,24 L52.8272243,24 Z"/>
    <path stroke="#FFF" stroke-linecap="round" stroke-width="2" d="M25,7 C20.581722,7 17,10.581722 17,15"/>
    <path fill="#979797" d="M13,24 L52,24 C52,24 53.0103037,34.9175701 52,43 C50.9896963,51.0824299 48,59 48,59 C48,59 45.8349655,50.3821545 42.25,44.6859835 C38.6650345,38.9898126 32.5,34.371967 32.5,34.371967 C32.5,34.371967 26.9150345,38.068138 22.75,44.6859835 C18.5849655,51.3038291 17,59 17,59 C17,59 13.9896963,50.9175701 13,43 C12.0103037,35.0824299 13,24 13,24 Z"/>
    <path stroke="#D8D8D8" stroke-linecap="square" stroke-width="2" d="M17 25L17 30M22 25L22 29M27 25L27 28M38 25L38 28M43 25L43 29M48 25L48 30"/>
  </g>
</svg>
