<svg xmlns="http://www.w3.org/2000/svg" width="64" height="64" viewBox="0 0 64 64">
  <g fill="none" fill-rule="evenodd">
    <path fill="#B4DFFB" d="M30.1585366,9.41463415 C24.3393412,9.41463415 20.5,16.0976032 20.5,24.3414634 C20.5,32.5853236 24.3393412,58.5853659 30.1585366,58.5853659 C33.5532481,58.5853659 33.9388534,36.9939845 38.5,36.9744346 C43.9391954,36.9939845 43.4467519,58.5853659 46.8414634,58.5853659 C52.6606588,58.5853659 56.5,32.5853236 56.5,24.3414634 C56.5,16.0976032 52.6606588,9.41463415 46.8414634,9.41463415 C44.0609756,9.41463415 41.2804878,12.0487805 38.5,12.0487805 C35.7195122,12.0487805 32.9390244,9.41463415 30.1585366,9.41463415 Z"/>
    <path fill="#5EA7FF" d="M18,6 C11.372583,6 7,13.6111593 7,23 C7,32.3888407 11.372583,62 18,62 C21.8661992,62 22.3053608,37.4098157 27.5,37.3875505 C33.6946392,37.4098157 33.1338008,62 37,62 C43.627417,62 48,32.3888407 48,23 C48,13.6111593 43.627417,6 37,6 C33.8333333,6 30.6666667,9 27.5,9 C24.3333333,9 21.1666667,6 18,6 Z"/>
    <path stroke="#FFF" stroke-linecap="round" stroke-width="2" d="M20,10 C15.581722,10 12,13.581722 12,18"/>
  </g>
</svg>
