<svg xmlns="http://www.w3.org/2000/svg" width="64" height="64" viewBox="0 0 64 64">
  <g fill="none" fill-rule="evenodd">
    <g transform="rotate(15 5.51 104.053)">
      <path fill="#B4DFFB" d="M7.07142857,0 C2.81094622,0 0,4.89288809 0,10.9285714 C0,16.9642548 2.81094622,36 7.07142857,36 C9.55684234,36 9.83916051,20.1920244 13.1785714,20.177711 C17.1608395,20.1920244 16.8003005,36 19.2857143,36 C23.5461966,36 26.3571429,16.9642548 26.3571429,10.9285714 C26.3571429,4.89288809 23.5461966,0 19.2857143,0 C17.25,0 15.2142857,1.92857143 13.1785714,1.92857143 C11.1428571,1.92857143 9.10714286,0 7.07142857,0 Z"/>
      <path stroke="#FFF" stroke-linecap="round" stroke-width="2" d="M8.17857143,3 C5.41714768,3 3.17857143,5.23857625 3.17857143,8"/>
    </g>
    <path fill="#FF5656" d="M3,36.7321538 C3,36.7321538 8.60735188,34.8258652 16.3350495,37.165557 C21.0340347,38.5882547 26.5170174,44.7321538 32,44.7321538 C37.4831458,44.7321538 42.9662915,38.5881866 47.66537,37.16543 C55.392851,34.8257533 61,36.7321538 61,36.7321538 L61,57.7321538 L3,57.7321538 L3,36.7321538 Z"/>
    <path stroke="#E43535" stroke-linecap="round" stroke-width="2" d="M16.9931354 45.2151766L21.9062382 50.1282795M16.9931354 50.1282795L21.9062382 45.2151766M30.9931354 48.2151766L35.9062382 53.1282795M30.9931354 53.1282795L35.9062382 48.2151766"/>
  </g>
</svg>
