<svg xmlns="http://www.w3.org/2000/svg" width="64" height="64" viewBox="0 0 64 64">
  <g fill="none" fill-rule="evenodd">
    <path fill="#D8D8D8" d="M23,4 C16.372583,4 12,11.6111593 12,21 C12,30.3888407 16.372583,60 23,60 C26.8661992,60 27.3053608,35.4098157 32.5,35.3875505 C38.6946392,35.4098157 38.1338008,60 42,60 C48.627417,60 53,30.3888407 53,21 C53,11.6111593 48.627417,4 42,4 C38.8333333,4 35.6666667,7 32.5,7 C29.3333333,7 26.1666667,4 23,4 Z"/>
    <path stroke="#FFF" stroke-linecap="round" stroke-width="2" d="M25,8 C20.581722,8 17,11.581722 17,16"/>
    <path fill="#9C4D4D" d="M35,6.00531961 C35,4.34552742 36.3529255,3 37.9925398,3 L50.0074602,3 C51.6601943,3 53,4.34237885 53,6.00335124 L53,13.9966488 C53,15.6553538 51.6520772,17 50.0012758,17 L46.0040754,17 C44.3479258,17 43.0053512,15.6551586 43.0053512,14.0088009 L43.0053512,8.01702957 L35,8.01702957 L35,6.00531961 Z"/>
    <path stroke="#9C4D4D" stroke-linecap="round" stroke-width="2" d="M44,21 L44,25"/>
  </g>
</svg>
