<svg xmlns="http://www.w3.org/2000/svg" width="64" height="64" viewBox="0 0 64 64">
  <g fill="none" fill-rule="evenodd">
    <path fill="#80D25B" d="M51.5044647,16.529591 C54.2658885,16.529591 56.5044647,14.1876959 56.5044647,11.2988218 C56.5044647,8.40994771 51.5044647,-0.470408985 51.5044647,-0.470408985 C51.5044647,-0.470408985 46.5044647,8.40994771 46.5044647,11.2988218 C46.5044647,14.1876959 48.743041,16.529591 51.5044647,16.529591 Z" transform="rotate(75 51.504 8.03)"/>
    <path stroke="#22BA8E" stroke-linecap="round" stroke-width="2" d="M48,9 C41.372583,9 36,14.372583 36,21"/>
    <rect width="29" height="44" x="11" y="16.53" fill="#595959"/>
    <path stroke="#979797" stroke-linecap="square" stroke-width="2" d="M15 20.529591L36 20.529591M15 26.529591L36 26.529591M15 32.529591L36 32.529591M15 38.529591L36 38.529591M15 44.529591L36 44.529591M15 50.529591L36 50.529591"/>
    <rect width="20" height="7" x="15" y="9.53" fill="#979797"/>
    <path stroke="#595959" stroke-linecap="square" stroke-width="2" d="M25,8.52959101 L25,3.52959101"/>
  </g>
</svg>
