<svg xmlns="http://www.w3.org/2000/svg" xmlns:xlink="http://www.w3.org/1999/xlink" width="64" height="64" viewBox="0 0 64 64">
  <defs>
    <path id="traininggirl-a" d="M0,6.92068137 C0,4.707202 1.77500008,2.69943369 3.96927149,2.43564056 L23.875,0.0425936252 L43.7807285,2.43564056 C45.9728966,2.69918083 47.75,4.70061876 47.75,6.92068137 L47.75,19.0425936 L0,19.0425936 L0,6.92068137 Z"/>
  </defs>
  <g fill="none" fill-rule="evenodd">
    <rect width="32" height="33" x="15.875" y="14" fill="#BD7575"/>
    <g transform="translate(8 40)">
      <mask id="traininggirl-b" fill="#fff">
        <use xlink:href="#traininggirl-a"/>
      </mask>
      <use fill="#FF78C7" xlink:href="#traininggirl-a"/>
      <circle cx="-10" cy="10" r="20" fill="#FFDD95" mask="url(#traininggirl-b)"/>
      <circle cx="58" cy="10" r="20" fill="#FFDD95" mask="url(#traininggirl-b)"/>
    </g>
    <path fill="#FFDD95" d="M25.6704545,38.4906185 C20.7663848,35.0068513 17.375,27.9212508 17.375,22.1331692 C17.375,14.1250403 23.8668711,7.63316921 31.875,7.63316921 C39.8831289,7.63316921 46.375,14.1250403 46.375,22.1331692 C46.375,27.9212508 42.9836152,35.0068513 38.0795455,38.4906185 L38.0795455,45.9058965 C38.0795455,45.9058965 33.8734611,47.8154815 31.875,47.8154815 C29.8765389,47.8154815 25.6704545,45.9058965 25.6704545,45.9058965 L25.6704545,38.4906185 Z"/>
    <rect width="28" height="9" x="18" y="10" fill="#FFF"/>
    <circle cx="18.875" cy="25" r="3" fill="#FFDD95"/>
    <circle cx="44.875" cy="25" r="3" fill="#FFDD95"/>
    <path fill="#BD7575" d="M15.875,11.5 C15.875,7.91014913 18.7854073,5 22.3699533,5 L41.3800467,5 C44.9671104,5 47.875,7.91745375 47.875,11.5 L47.875,18 L31.875,12.079188 L15.875,18 L15.875,11.5 Z"/>
  </g>
</svg>
