<svg xmlns="http://www.w3.org/2000/svg" xmlns:xlink="http://www.w3.org/1999/xlink" width="64" height="64" viewBox="0 0 64 64">
  <defs>
    <path id="trainingguy-a" d="M0,6.87808774 C0,4.66460838 1.77500008,2.65684006 3.96927149,2.39304693 L23.875,0 L43.7807285,2.39304693 C45.9728966,2.65658721 47.75,4.65802513 47.75,6.87808774 L47.75,19 L0,19 L0,6.87808774 Z"/>
  </defs>
  <g fill="none" fill-rule="evenodd">
    <g transform="translate(8 40)">
      <mask id="trainingguy-b" fill="#fff">
        <use xlink:href="#trainingguy-a"/>
      </mask>
      <use fill="#5B68C0" xlink:href="#trainingguy-a"/>
      <circle cx="58" cy="17" r="20" fill="#FFDD95" mask="url(#trainingguy-b)"/>
      <circle cx="-11" cy="17" r="20" fill="#FFDD95" mask="url(#trainingguy-b)"/>
    </g>
    <path fill="#FFDD95" d="M23.9659091,37.0820517 C19.997906,33.3171352 17.375,27.2233999 17.375,22.1331692 C17.375,14.1250403 23.8668711,7.63316921 31.875,7.63316921 C39.8831289,7.63316921 46.375,14.1250403 46.375,22.1331692 C46.375,27.2233999 43.752094,33.3171352 39.7840909,37.0820517 L39.7840909,45.9058965 C39.7840909,45.9058965 34.4224889,47.8154815 31.875,47.8154815 C29.3275111,47.8154815 23.9659091,45.9058965 23.9659091,45.9058965 L23.9659091,37.0820517 Z"/>
    <circle cx="17.875" cy="25" r="3" fill="#FFDD95"/>
    <circle cx="45.875" cy="25" r="3" fill="#FFDD95"/>
    <path fill="#FFAF40" d="M18,8.5 C18,5.46243388 20.4578519,3 23.5009961,3 L50,3 L50,8.5 C50,11.5375661 47.5421481,14 44.4990039,14 L18,14 L18,8.5 Z"/>
    <rect width="28" height="4" x="18" y="14" fill="#ECECEC"/>
  </g>
</svg>
