<svg xmlns="http://www.w3.org/2000/svg" width="64" height="64" viewBox="0 0 64 64">
  <g fill="none" fill-rule="evenodd">
    <path stroke="#979797" stroke-linecap="square" stroke-width="2" d="M26,32 L42,32"/>
    <path fill="#5B68C0" d="M3,45.0549284 C3,42.8444807 4.78716697,40.8467817 6.96428975,40.5961044 L20,39.0951525 L33.0357102,40.5961044 C35.225127,40.8481973 37,42.8443807 37,45.0549284 L37,52.0525589 L3,52.0525589 L3,45.0549284 Z"/>
    <path fill="#FFDD95" d="M14,33.3690057 C10.9897907,30.5230149 9,25.9141132 9,22.0525589 C9,15.9774266 13.9248678,11.0525589 20,11.0525589 C26.0751322,11.0525589 31,15.9774266 31,22.0525589 C31,25.9141132 29.0102093,30.5230149 26,33.3690057 L26,39.8260128 C26,39.8260128 21.9325778,41.0525589 20,41.0525589 C18.0674222,41.0525589 14,39.8260128 14,39.8260128 L14,33.3690057 Z"/>
    <circle cx="11" cy="27.053" r="3" fill="#FFDD95"/>
    <circle cx="29" cy="27.053" r="3" fill="#FFDD95"/>
    <polygon fill="#FFF" points="12 39 19.998 40.878 12 45"/>
    <polyline fill="#FFF" points="28.081 39 20 40.851 28.081 45"/>
    <path stroke="#979797" stroke-linecap="square" stroke-width="2" d="M42 22L42 43.023796M42 22L52 22M42 43L52 43"/>
    <circle cx="57" cy="22" r="4" stroke="#979797" stroke-linecap="round" stroke-width="2"/>
    <circle cx="57" cy="42" r="4" stroke="#979797" stroke-linecap="round" stroke-width="2"/>
  </g>
</svg>
