<svg xmlns="http://www.w3.org/2000/svg" width="64" height="64" viewBox="0 0 64 64">
  <path fill="#80D25B" fill-rule="evenodd" d="M59,56 C60.6568542,56 62,57.3431458 62,59 C62,60.6568542 60.6568542,62 59,62 C57.3431458,62 56,60.6568542 56,59 L8,59 C8,60.6568542 6.65685425,62 5,62 C3.34314575,62 2,60.6568542 2,59 C2,57.3431458 3.34314575,56 5,56 L5,8 C3.34314575,8 2,6.65685425 2,5 C2,3.34314575 3.34314575,2 5,2 C6.65685425,2 8,3.34314575 8,5 L56,5 C56,3.34314575 57.3431458,2 59,2 C60.6568542,2 62,3.34314575 62,5 C62,6.65685425 60.6568542,8 59,8 L59,56 Z M9,9 L9,55 L55,55 L55,9 L9,9 Z"/>
</svg>
