<svg xmlns="http://www.w3.org/2000/svg" width="64" height="64" viewBox="0 0 64 64">
  <g fill="none" fill-rule="evenodd">
    <path stroke="#979797" stroke-linecap="square" stroke-width="2" d="M25,32 L41,32"/>
    <path fill="#5B68C0" d="M2,45.0549284 C2,42.8444807 3.78716697,40.8467817 5.96428975,40.5961044 L19,39.0951525 L32.0357102,40.5961044 C34.225127,40.8481973 36,42.8443807 36,45.0549284 L36,52.0525589 L2,52.0525589 L2,45.0549284 Z"/>
    <path fill="#FFDD95" d="M13,33.3690057 C9.98979073,30.5230149 8,25.9141132 8,22.0525589 C8,15.9774266 12.9248678,11.0525589 19,11.0525589 C25.0751322,11.0525589 30,15.9774266 30,22.0525589 C30,25.9141132 28.0102093,30.5230149 25,33.3690057 L25,39.8260128 C25,39.8260128 20.9325778,41.0525589 19,41.0525589 C17.0674222,41.0525589 13,39.8260128 13,39.8260128 L13,33.3690057 Z"/>
    <circle cx="10" cy="27.053" r="3" fill="#FFDD95"/>
    <circle cx="28" cy="27.053" r="3" fill="#FFDD95"/>
    <polygon fill="#FFF" points="11 39 18.998 40.878 11 45"/>
    <polyline fill="#FFF" points="27.081 39 19 40.851 27.081 45"/>
    <path stroke="#979797" stroke-linecap="square" stroke-width="2" d="M41 17.5440421L41 46.8636073M41 17L51 17M41 47L51 47"/>
    <circle cx="56" cy="17" r="4" stroke="#979797" stroke-linecap="round" stroke-width="2"/>
    <path stroke="#979797" stroke-linecap="square" stroke-width="2" d="M41,32 L51,32"/>
    <circle cx="56" cy="32" r="4" stroke="#979797" stroke-linecap="round" stroke-width="2"/>
    <circle cx="56" cy="46" r="4" stroke="#979797" stroke-linecap="round" stroke-width="2"/>
  </g>
</svg>
