<svg xmlns="http://www.w3.org/2000/svg" width="64" height="64" viewBox="0 0 64 64">
  <g fill="none" fill-rule="evenodd">
    <path fill="#D8D8D8" d="M30.5853659,19 C25.4127477,19 22,24.9801966 22,32.3571429 C22,39.7340892 25.4127477,63 30.5853659,63 C33.6028872,63 33.9456474,43.6791409 38,43.6616468 C42.8348404,43.6791409 42.3971128,63 45.4146341,63 C50.5872523,63 54,39.7340892 54,32.3571429 C54,24.9801966 50.5872523,19 45.4146341,19 C42.9430894,19 40.4715447,21.3571429 38,21.3571429 C35.5284553,21.3571429 33.0569106,19 30.5853659,19 Z"/>
    <path stroke="#E43535" stroke-linecap="round" stroke-width="2" d="M46.2736356 59.5886573C46.2736356 59.5886573 50.5374924 39.9447145 44.959396 37.0033754 39.3812995 34.0620364 28.9013519 38.6210548 27.8979739 33.5816139 26.8945959 28.5421729 34.4882975 27.7177759 41.1391378 26.905368 47.7899781 26.0929601 46.1354749 15.6107289 45.8243278 13.1069939M47.7955947 44.8259549C47.7955947 44.8259549 45.2548327 45.0017507 44.4433865 47.5314762M48 51C48 51 50.1598632 53.3948771 52.9289831 52.7216816"/>
    <path stroke="#979797" stroke-linecap="square" stroke-width="2" d="M43,9 L32,9"/>
    <rect width="9" height="8" x="42" y="5" fill="#80D25B"/>
    <path fill="#0A3586" d="M6,6 L28.9964051,6 C30.10296,6 31,6.89826062 31,7.99791312 L31,10.0020869 C31,11.1055038 30.1102368,12 28.9964051,12 L6,12 L6,6 Z"/>
  </g>
</svg>
