<svg xmlns="http://www.w3.org/2000/svg" width="64" height="64" viewBox="0 0 64 64">
  <g fill="none" fill-rule="evenodd">
    <polygon fill="#979797" points="25 2 39 2 51 63 13 63"/>
    <polygon fill="#979797" points="4 16 60 16 63 25 1 25"/>
    <path stroke="#BD7575" stroke-linecap="square" stroke-width="2" d="M55,40 L55,52"/>
    <path stroke="#FFF" stroke-dasharray="4" stroke-linecap="square" stroke-width="2" d="M19 20L6 20M57 20L44 20M32 61L32 4"/>
    <path fill="#D650C7" d="M55,41 C58.8659932,41 62,39.7916306 62,32.75 C62,25.7083694 58.8659932,17 55,17 C51.1340068,17 48,25.7083694 48,32.75 C48,39.7916306 51.1340068,41 55,41 Z"/>
    <path stroke="#BD7575" stroke-linecap="square" stroke-width="2" d="M9,40 L9,52"/>
    <path fill="#ED9111" d="M9,41 C12.8659932,41 16,39.7916306 16,32.75 C16,25.7083694 12.8659932,17 9,17 C5.13400675,17 2,25.7083694 2,32.75 C2,39.7916306 5.13400675,41 9,41 Z"/>
    <path fill="#D650C7" d="M16,14 C18.209139,14 20,12.1058201 20,9.76923077 C20,7.43264144 18.209139,3 16,3 C13.790861,3 12,7.43264144 12,9.76923077 C12,12.1058201 13.790861,14 16,14 Z"/>
    <path fill="#ED9111" d="M48,14 C50.209139,14 52,12.1058201 52,9.76923077 C52,7.43264144 50.209139,3 48,3 C45.790861,3 44,7.43264144 44,9.76923077 C44,12.1058201 45.790861,14 48,14 Z"/>
  </g>
</svg>
