<svg xmlns="http://www.w3.org/2000/svg" width="64" height="64" viewBox="0 0 64 64">
  <g fill="none" fill-rule="evenodd">
    <path fill="#80D25B" fill-rule="nonzero" d="M40.5,13 C40.5,8.85786438 37.1421356,5.5 33,5.5 C28.8578644,5.5 25.5,8.85786438 25.5,13 L30.5,13 C30.5,11.6192881 31.6192881,10.5 33,10.5 C34.3807119,10.5 35.5,11.6192881 35.5,13 L40.5,13 Z"/>
    <path fill="#6B6B6B" d="M18.2206715,30.215862 C13.6940615,30.215862 10.0245191,25.628934 10.0245191,19.9706715 C10.0245191,14.312409 13.6940615,9.72548095 18.2206715,9.72548095 C22.7472815,9.72548095 26.4168239,14.312409 26.4168239,19.9706715 C26.4168239,25.628934 22.7472815,30.215862 18.2206715,30.215862 Z M18.2206715,27.4838112 C21.2384115,27.4838112 23.6847731,24.7316544 23.6847731,21.3366969 C23.6847731,17.9417394 21.2384115,15.1895826 18.2206715,15.1895826 C15.2029315,15.1895826 12.7565699,17.9417394 12.7565699,21.3366969 C12.7565699,24.7316544 15.2029315,27.4838112 18.2206715,27.4838112 Z" transform="rotate(-30 18.22 19.97)"/>
    <path fill="#6B6B6B" d="M48.2206715,30.215862 C43.6940615,30.215862 40.0245191,25.628934 40.0245191,19.9706715 C40.0245191,14.312409 43.6940615,9.72548095 48.2206715,9.72548095 C52.7472815,9.72548095 56.4168239,14.312409 56.4168239,19.9706715 C56.4168239,25.628934 52.7472815,30.215862 48.2206715,30.215862 Z M48.2206715,27.4838112 C51.2384115,27.4838112 53.6847731,24.7316544 53.6847731,21.3366969 C53.6847731,17.9417394 51.2384115,15.1895826 48.2206715,15.1895826 C45.2029315,15.1895826 42.7565699,17.9417394 42.7565699,21.3366969 C42.7565699,24.7316544 45.2029315,27.4838112 48.2206715,27.4838112 Z" transform="scale(-1 1) rotate(-30 0 199.933)"/>
    <path fill="#5DAF38" d="M15.2516777,23.9731576 C15.6649647,17.3605652 21.3754655,12 28.0071084,12 L36.9928916,12 C43.6242344,12 49.3354057,17.3664911 49.7483223,23.9731576 L51.6881406,55.0102498 C51.8603758,57.7660127 49.7631146,60 47.0011567,60 L17.9988433,60 C15.2380584,60 13.1396744,57.7652098 13.3118594,55.0102498 L15.2516777,23.9731576 Z"/>
    <rect width="29" height="21" x="18" y="36" fill="#80D25B" rx="2"/>
    <circle cx="33" cy="18" r="3" fill="#FFAF40"/>
    <path fill="#5DAF38" d="M20.2492575,40.9940603 C20.1115964,39.8927712 20.8897632,39 22.0035949,39 L42.9964051,39 C44.10296,39 44.8896225,39.8830202 44.7507425,40.9940603 L43.6191158,50.0470735 C43.2771876,52.7824993 40.7526321,55 37.9966569,55 L27.0033431,55 C24.240073,55 21.7219086,52.7752686 21.3808842,50.0470735 L20.2492575,40.9940603 Z"/>
  </g>
</svg>
