<svg xmlns="http://www.w3.org/2000/svg" width="64" height="64" viewBox="0 0 64 64">
  <path fill="#5EA7FF" fill-rule="evenodd" d="M37.6875,49 L32,62 L26.3125,49 L6,49 L6,5 L58,5 L58,49 L37.6875,49 Z M33.6147278,12.4 L29.4865622,12.4 C29.4865622,19.6812991 23.5,19.8762494 23.5,19.8762494 L23.5,24.2373943 L26.671888,24.2373943 L26.671888,32.4705231 C26.671888,38.1905275 29.620289,39.2376427 31.7961003,39.5144588 C32.9814792,39.6651555 35.2148586,39.6037126 36.3433236,39.4316727 C39.3349006,38.9757022 40.5,37.6323411 40.5,37.6323411 L40.5,32.6481748 C39.3564888,34.1131013 37.7844879,34.6320173 36.6095759,34.738087 C33.299412,35.0362464 33.614728,32.0941049 33.614728,32.0941049 L33.614728,24.2373943 L40.5,24.2373943 L40.5,19.8762494 L33.614728,19.8762494 L33.6147278,12.4 Z"/>
</svg>
