<svg xmlns="http://www.w3.org/2000/svg" width="64" height="64" viewBox="0 0 64 64">
  <path fill="#5EA7FF" fill-rule="evenodd" d="M33.8495196,7.00000001 L33.84952,20.1933813 L46,20.1933813 L46,27.8895193 L33.84952,27.8895193 L33.8495199,41.7543027 C33.8495199,41.7543027 33.2930799,46.9463172 39.1345457,46.4201535 C41.2079198,46.2329716 43.9820391,45.3172377 46,42.7320732 L46,51.5276607 C46,51.5276607 43.9439423,53.898298 38.6646887,54.7029518 C36.6732799,55.0065517 32.7320221,55.1149802 30.6401771,54.849045 C26.80051,54.3605459 21.5974494,52.5126955 21.5974494,42.4185701 L21.5974494,27.8895193 L16,27.8895193 L16,20.1933813 C16,20.1933813 26.5645215,19.8493514 26.5645215,7 L33.8495196,7.00000001 Z"/>
</svg>
