<svg xmlns="http://www.w3.org/2000/svg" width="64" height="64" viewBox="0 0 64 64">
  <g fill="none" fill-rule="evenodd">
    <circle cx="32" cy="32" r="30" stroke="#5EA7FF" stroke-linecap="round" stroke-width="2"/>
    <path fill="#5EA7FF" d="M33.6147278,18.4 L33.614728,25.8762494 L40.5,25.8762494 L40.5,30.2373943 L33.614728,30.2373943 L33.614728,38.0941049 C33.614728,38.0941049 33.299412,41.0362464 36.6095759,40.738087 C37.7844879,40.6320173 39.3564888,40.1131013 40.5,38.6481748 L40.5,43.6323411 C40.5,43.6323411 39.3349006,44.9757022 36.3433236,45.4316727 C35.2148586,45.6037126 32.9814792,45.6651555 31.7961003,45.5144588 C29.620289,45.2376427 26.671888,44.1905275 26.671888,38.4705231 L26.671888,30.2373943 L23.5,30.2373943 L23.5,25.8762494 C23.5,25.8762494 29.4865622,25.6812991 29.4865622,18.4 L33.6147278,18.4 Z"/>
  </g>
</svg>
