<svg xmlns="http://www.w3.org/2000/svg" width="64" height="64" viewBox="0 0 64 64">
  <g fill="none" fill-rule="evenodd">
    <rect width="58" height="40" x="3" y="9" fill="#D8D8D8" rx="2"/>
    <rect width="52" height="30" x="6" y="12" fill="#9C4D4D"/>
    <polygon fill="#22BA8E" points="32 35 43 54 21 54"/>
    <path fill="#FFF" d="M32.462,28.144 C32.3966663,28.2653339 32.2520011,28.3399999 32.028,28.368 C32.0093332,28.368 31.8086686,28.3773332 31.426,28.396 C31.4913337,28.8160021 31.7339979,29.3386635 32.154,29.964 C32.3966679,30.1413342 32.518,30.3746652 32.518,30.664 C32.518,31.1213356 32.2380028,31.35 31.678,31.35 C31.1459973,31.35 30.782001,31.214668 30.586,30.944 C30.5206663,30.8506662 30.4786668,30.7246675 30.46,30.566 C30.46,30.4633328 30.4553334,30.3560006 30.446,30.244 C30.3619996,30.1599996 30.1100021,29.6186717 29.69,28.62 C28.9246628,28.7320006 27.9820056,28.8906656 26.862,29.096 C26.7499994,29.366668 26.6286673,29.7586641 26.498,30.272 C26.5166668,30.3653338 26.526,30.4539996 26.526,30.538 C26.526,30.7900013 26.4420008,30.983666 26.274,31.119 C26.1059992,31.254334 25.9053345,31.322 25.672,31.322 C25.4106654,31.322 25.1680011,31.224001 24.944,31.028 C24.7199989,30.831999 24.608,30.6033346 24.608,30.342 C24.608,30.1086655 24.7153323,29.8986676 24.93,29.712 C25.6300035,26.1559822 26.4793283,23.2160116 27.478,20.892 C27.4593332,20.7799994 27.45,20.6680006 27.45,20.556 C27.45,20.089331 27.6086651,19.7813341 27.926,19.632 C28.0566673,19.5759997 28.2246656,19.548 28.43,19.548 C28.822002,19.548 29.1486654,19.6086661 29.41,19.73 C29.7460017,19.8980008 29.914,20.1499983 29.914,20.486 C29.914,20.7940015 29.8300008,21.0693321 29.662,21.312 C29.8393342,22.8986746 30.2219971,24.7279896 30.81,26.8 C30.8660003,26.7906666 31.0573317,26.7440004 31.384,26.66 C31.580001,26.6039997 31.7293328,26.576 31.832,26.576 C31.9533339,26.576 32.051333,26.6039997 32.126,26.66 C32.4526683,26.9120013 32.616,27.2199982 32.616,27.584 C32.616,27.780001 32.5646672,27.9666658 32.462,28.144 Z M29.102,27.08 C28.9433325,26.4919971 28.6913351,25.362675 28.346,23.692 C27.68333,25.1386739 27.2913339,26.3799948 27.17,27.416 L29.102,27.08 Z M39.574,21.872 C39.6113335,22.4973365 39.396669,23.5939922 38.93,25.162 C38.4353309,26.8420084 37.8753365,28.2746607 37.25,29.46 C36.4939962,30.8693404 35.8033365,31.574 35.178,31.574 C34.8606651,31.574 34.5550015,31.4340014 34.261,31.154 C33.9669985,30.8739986 33.82,30.5846682 33.82,30.286 C33.82,30.1459993 33.8619996,30.0200006 33.946,29.908 C33.7966659,25.8853132 33.7406665,23.1506739 33.778,21.704 C33.581999,21.3866651 33.484,21.1486675 33.484,20.99 C33.484,20.7659989 33.6099987,20.5700008 33.862,20.402 C34.0860011,20.2433325 34.3193321,20.164 34.562,20.164 C34.7860011,20.164 34.9726659,20.2293327 35.122,20.36 C36.3353394,19.8839976 37.1426647,19.646 37.544,19.646 C37.7586677,19.646 37.9686656,19.6973328 38.174,19.8 C38.4820015,19.9493341 38.7759986,20.2106648 39.056,20.584 C39.3733349,21.0133355 39.5459999,21.4426645 39.574,21.872 Z M37.67,21.452 C37.5766662,21.3399994 37.4553341,21.284 37.306,21.284 C37.0166652,21.284 36.4473376,21.6199966 35.598,22.292 C35.5419997,22.9920035 35.514,23.7666624 35.514,24.616 C35.514,25.8293394 35.5699994,27.0799936 35.682,28.368 C36.1766691,27.163994 36.6339979,25.89934 37.054,24.574 C37.5020022,23.1459929 37.726,22.1940024 37.726,21.718 C37.726,21.5873327 37.7073335,21.4986669 37.67,21.452 Z"/>
  </g>
</svg>
