<svg xmlns="http://www.w3.org/2000/svg" width="64" height="64" viewBox="0 0 64 64">
  <g fill="none" fill-rule="evenodd">
    <rect width="46" height="32" x="14" y="15" fill="#22BA8E"/>
    <rect width="3" height="3" x="55" y="17" fill="#80D25B"/>
    <rect width="3" height="3" x="55" y="42" fill="#80D25B"/>
    <rect width="8" height="8" x="19" y="20" fill="#E43535" rx="2"/>
    <path fill="#D8D8D8" d="M23,24 L48.0045193,24 C51.3157319,24 54,26.6827759 54,29.9981851 L54,32.0018149 C54,35.314521 51.3166691,38 48.0045193,38 L23,38 L23,24 Z"/>
    <circle cx="45" cy="31" r="4" fill="#0A3586"/>
    <rect width="8" height="2" x="26" y="27" fill="#FFF"/>
    <rect width="8" height="2" x="26" y="33" fill="#FFF"/>
    <path stroke="#979797" stroke-linecap="round" stroke-linejoin="round" stroke-width="2" d="M4,14 L14.0498756,14 L14.0498756,50.060021"/>
    <path fill="#D8D8D8" d="M8,24.992017 C8,23.8918564 8.8938998,23 10.0048815,23 L13,23 L13,34 L10.0048815,34 C8.89761602,34 8,33.0998238 8,32.007983 L8,24.992017 Z"/>
    <path fill="#ED9111" d="M38 47L55 47 55 49.5C55 50.8807119 53.8845825 52 52.4915915 52L40.5084085 52C39.1230528 52 38 50.8903379 38 49.5L38 47zM22 47L31 47 31 49.5C31 50.8807119 29.8783411 52 28.4929982 52L24.5070018 52C23.1224229 52 22 50.8903379 22 49.5L22 47z"/>
  </g>
</svg>
