<svg xmlns="http://www.w3.org/2000/svg" width="64" height="64" viewBox="0 0 64 64">
  <g fill="none" fill-rule="evenodd">
    <polygon fill="#ED9111" points="2 13 62 13 62 47 2 47"/>
    <path fill="#5B68C0" d="M23.6567931,24.4852202 L22.1005051,22.9289322 L24.9289322,20.1005051 L26.4852202,21.6567931 C27.5348312,20.9616145 28.7232507,20.4592027 30,20.2000362 L30,18 L34,18 L34,20.2000362 C35.2767493,20.4592027 36.4651688,20.9616145 37.5147798,21.6567931 L39.0710678,20.1005051 L41.8994949,22.9289322 L40.3432069,24.4852202 C41.0383855,25.5348312 41.5407973,26.7232507 41.7999638,28 L44,28 L44,32 L41.7999638,32 C41.5407973,33.2767493 41.0383855,34.4651688 40.3432069,35.5147798 L41.8994949,37.0710678 L39.0710678,39.8994949 L37.5147798,38.3432069 C36.4651688,39.0383855 35.2767493,39.5407973 34,39.7999638 L34,42 L30,42 L30,39.7999638 C28.7232507,39.5407973 27.5348312,39.0383855 26.4852202,38.3432069 L24.9289322,39.8994949 L22.1005051,37.0710678 L23.6567931,35.5147798 C22.9616145,34.4651688 22.4592027,33.2767493 22.2000362,32 L20,32 L20,28 L22.2000362,28 C22.4592027,26.7232507 22.9616145,25.5348312 23.6567931,24.4852202 Z M32,34 C34.209139,34 36,32.209139 36,30 C36,27.790861 34.209139,26 32,26 C29.790861,26 28,27.790861 28,30 C28,32.209139 29.790861,34 32,34 Z"/>
    <path fill="#595959" d="M2,11 C2,9.8954305 2.89473039,9 3.99630737,9 L60.0036926,9 C61.1062227,9 62,9.88772964 62,11 L62,13 L2,13 L2,11 Z"/>
    <path fill="#595959" d="M2,49.0048815 C2,47.897616 2.89473039,47 3.99630737,47 L60.0036926,47 C61.1062227,47 62,47.8938998 62,49.0048815 L62,52 L2,52 L2,49.0048815 Z" transform="matrix(1 0 0 -1 0 99)"/>
    <rect width="20" height="3" x="22" y="52" fill="#979797"/>
    <path stroke="#595959" stroke-linecap="square" stroke-width="2" d="M16,56 L47,56"/>
  </g>
</svg>
