<svg xmlns="http://www.w3.org/2000/svg" width="64" height="64" viewBox="0 0 64 64">
  <g fill="none" fill-rule="evenodd">
    <circle cx="31" cy="32" r="30" fill="#5EA7FF"/>
    <path fill="#FFF" d="M44.515655,23.8972765 C44.515655,23.8972765 47.0021601,23.7014224 48,22.959084 C48,22.959084 47.7608422,23.8136534 44.7687944,26.5174669 C44.7687944,26.5174669 45.7762005,41.1067635 30.4259501,44.6798171 C30.4259501,44.6798171 22.6411802,46.3376084 17,42.1087736 C17,42.1087736 22.9053576,43.1562629 26.2278111,39.4929844 C26.2278111,39.4929844 21.9421036,39.536263 20.5866309,35.1775924 C20.5866309,35.1775924 22.2048093,35.526022 23.1665915,35.0903016 C23.1665915,35.0903016 18.3120564,34.0868244 18.3996249,28.8119674 C18.3996249,28.8119674 19.7116813,29.7714324 20.892017,29.5968509 C20.892017,29.5968509 16.5194768,25.8902937 19.2304223,21.2704843 C19.2304223,21.2704843 25.0894201,28.1767253 32.3509863,27.7666787 C32.2244166,27.2722754 32.1559807,26.754399 32.1559807,26.2189178 C32.1559807,22.785236 34.9500795,20 38.3961592,20 C40.1372279,20 41.7119899,20.7115299 42.844494,21.8580466 C43.6745555,21.8719837 45.3817742,21.724543 47.0867852,20.5076069 C47.0867852,20.5083404 47.1846559,21.8382411 44.515655,23.8972765 L44.515655,23.8972765 Z"/>
  </g>
</svg>
