<svg xmlns="http://www.w3.org/2000/svg" width="64" height="64" viewBox="0 0 64 64">
  <path fill="#5EA7FF" fill-rule="evenodd" d="M37.6875,49 L32,62 L26.3125,49 L6,49 L6,5 L58,5 L58,49 L37.6875,49 Z M44.515655,17.8972765 C47.1846559,15.8382411 47.0867852,14.5083404 47.0867852,14.5076069 C45.3817742,15.724543 43.6745555,15.8719837 42.844494,15.8580466 C41.7119899,14.7115299 40.1372279,14 38.3961592,14 C34.9500795,14 32.1559807,16.785236 32.1559807,20.2189178 C32.1559807,20.754399 32.2244166,21.2722754 32.3509863,21.7666787 C25.0894201,22.1767253 19.2304223,15.2704843 19.2304223,15.2704843 C16.5194768,19.8902937 20.892017,23.5968509 20.892017,23.5968509 C19.7116813,23.7714324 18.3996249,22.8119674 18.3996249,22.8119674 C18.3120564,28.0868244 23.1665915,29.0903016 23.1665915,29.0903016 C22.2048093,29.526022 20.5866309,29.1775924 20.5866309,29.1775924 C21.9421036,33.536263 26.2278111,33.4929844 26.2278111,33.4929844 C22.9053576,37.1562629 17,36.1087736 17,36.1087736 C22.6411802,40.3376084 30.4259501,38.6798171 30.4259501,38.6798171 C45.7762005,35.1067635 44.7687944,20.5174669 44.7687944,20.5174669 C47.7608422,17.8136534 48,16.959084 48,16.959084 C47.0021601,17.7014224 44.515655,17.8972765 44.515655,17.8972765 Z"/>
</svg>
