<svg xmlns="http://www.w3.org/2000/svg" width="64" height="64" viewBox="0 0 64 64">
  <path fill="#5EA7FF" fill-rule="evenodd" d="M56.1437083,15.794553 C56.1437083,15.794553 61.0365087,15.4028448 63,13.9181681 C63,13.9181681 62.5293992,15.6273068 56.6418212,21.0349339 C56.6418212,21.0349339 58.6241365,50.213527 28.418805,57.3596342 C28.418805,57.3596342 13.1003869,60.6752167 2,52.2175472 C2,52.2175472 13.6202198,54.3125259 20.157951,46.9859688 C20.157951,46.9859688 11.7247846,47.072526 9.05756403,38.3551848 C9.05756403,38.3551848 12.2417215,39.0520439 14.1342607,38.1806032 C14.1342607,38.1806032 4.5817884,36.1736488 4.7541007,25.6239348 C4.7541007,25.6239348 7.3358891,27.5428648 9.65848506,27.1937017 C9.65848506,27.1937017 1.05445439,19.7805874 6.38889548,10.5409685 C6.38889548,10.5409685 17.9178911,24.3534505 32.2067795,23.5333573 C31.9577231,22.5445509 31.8230588,21.5087981 31.8230588,20.4378356 C31.8230588,13.570472 37.3211242,8 44.1021198,8 C47.5280936,8 50.6268189,9.42305975 52.8552947,11.7160931 C54.4886415,11.7439675 57.8480072,11.449086 61.2030289,9.01521376 C61.2030289,9.01668083 61.3956133,11.6764822 56.1437083,15.794553 L56.1437083,15.794553 Z"/>
</svg>
