<svg xmlns="http://www.w3.org/2000/svg" width="64" height="64" viewBox="0 0 64 64">
  <path fill="#5EA7FF" d="M31.0657206,21 L31.0657206,11.1174601 C31.0657206,7.80375164 28.3794291,5.11746014 25.0657206,5.11746014 C21.7520121,5.11746014 19.0657206,7.80375164 19.0657206,11.1174601 L19.0657206,52.24267 C19.0657206,55.5563785 21.7520121,58.24267 25.0657206,58.24267 L44.9176561,58.24267 C48.2313646,58.24267 50.9176561,55.5563785 50.9176561,52.24267 C50.9176561,48.9289615 48.2313646,46.24267 44.9176561,46.24267 L31.0657206,46.24267 L31.0657206,33 L44.4558241,33 C47.7695326,33 50.4558241,30.3137085 50.4558241,27 C50.4558241,23.6862915 47.7695326,21 44.4558241,21 L31.0657206,21 Z"/>
</svg>
