<svg xmlns="http://www.w3.org/2000/svg" width="64" height="64" viewBox="0 0 64 64">
  <g fill="none" fill-rule="evenodd">
    <path fill="#4796E7" d="M5,15.5 C5,10.8055796 8.80305213,7 13.5003708,7 L64,7 L64,24 L13.5003708,24 C8.80574566,24 5,20.1848682 5,15.5 L5,15.5 Z"/>
    <path fill="#FFF" d="M22.472,11.378 C22.5000001,11.452667 22.514,11.5226663 22.514,11.588 C22.514,11.7373341 22.4300008,11.9193323 22.262,12.134 C22.0566656,12.3860013 21.9306669,12.5819993 21.884,12.722 L20.344,17.37 C20.2973331,17.5193341 20.274,17.6966656 20.274,17.902 L20.274,18.21 C20.2833334,18.3406673 20.288,18.4386663 20.288,18.504 C20.288,18.8493351 20.1713345,19.1059992 19.938,19.274 C19.7046655,19.4420008 19.4386682,19.526 19.14,19.526 C18.6919978,19.526 18.3186682,19.3580017 18.02,19.022 C17.8706659,18.8539992 17.796,18.6626677 17.796,18.448 C17.796,18.1306651 17.7866668,17.9300004 17.768,17.846 L16.928,14.738 L16.116,17.538 C16.0879999,17.6406672 16.0646668,17.8366652 16.046,18.126 C16.0273332,18.3593345 15.9760004,18.5459993 15.892,18.686 C15.5373316,19.2646696 15.1033359,19.554 14.59,19.554 C14.4126658,19.554 14.2493341,19.5026672 14.1,19.4 C13.9133324,19.2786661 13.8013335,19.0920013 13.764,18.84 C13.7266665,18.5879987 13.6893335,18.3406679 13.652,18.098 L12.42,13.31 C12.3919999,13.1886661 12.3080007,12.9646683 12.168,12.638 C12.0559994,12.3859987 12,12.1713342 12,11.994 C12,11.8726661 12.0233331,11.7513339 12.07,11.63 C12.1540004,11.3686654 12.4899971,11.238 13.078,11.238 C13.4046683,11.238 13.6239994,11.2846662 13.736,11.378 C13.8760007,11.4993339 13.9506666,11.695332 13.96,11.966 C13.9693334,12.3766687 13.9786666,12.6006665 13.988,12.638 L14.828,15.998 L16.004,12.554 C16.0226668,12.4886663 16.032,12.4233337 16.032,12.358 C16.032,12.3019997 16.0203335,12.2203339 15.997,12.113 C15.9736666,12.0056661 15.962,11.9240003 15.962,11.868 C15.962,11.6626656 16.0739989,11.5040006 16.298,11.392 C16.4846676,11.2893328 16.6899989,11.238 16.914,11.238 C17.2220015,11.238 17.4786656,11.3126659 17.684,11.462 C17.9453346,11.6486676 18.0899999,11.8889985 18.118,12.183 C18.1460001,12.4770015 18.1693332,12.7686652 18.188,13.058 L19.028,16.418 L20.372,12.386 C20.3906668,12.3299997 20.4,12.2693337 20.4,12.204 C20.4,12.129333 20.3860001,12.0290006 20.358,11.903 C20.3299999,11.7769994 20.316,11.6813337 20.316,11.616 C20.316,11.5319996 20.3346665,11.452667 20.372,11.378 C20.5120007,11.1259987 20.8806637,11 21.478,11 C22.0380028,11 22.3693328,11.1259987 22.472,11.378 Z M33.868,11.378 C33.8960001,11.452667 33.91,11.5226663 33.91,11.588 C33.91,11.7373341 33.8260008,11.9193323 33.658,12.134 C33.4526656,12.3860013 33.3266669,12.5819993 33.28,12.722 L31.74,17.37 C31.6933331,17.5193341 31.67,17.6966656 31.67,17.902 L31.67,18.21 C31.6793334,18.3406673 31.684,18.4386663 31.684,18.504 C31.684,18.8493351 31.5673345,19.1059992 31.334,19.274 C31.1006655,19.4420008 30.8346682,19.526 30.536,19.526 C30.0879978,19.526 29.7146682,19.3580017 29.416,19.022 C29.2666659,18.8539992 29.192,18.6626677 29.192,18.448 C29.192,18.1306651 29.1826668,17.9300004 29.164,17.846 L28.324,14.738 L27.512,17.538 C27.4839999,17.6406672 27.4606668,17.8366652 27.442,18.126 C27.4233332,18.3593345 27.3720004,18.5459993 27.288,18.686 C26.9333316,19.2646696 26.4993359,19.554 25.986,19.554 C25.8086658,19.554 25.6453341,19.5026672 25.496,19.4 C25.3093324,19.2786661 25.1973335,19.0920013 25.16,18.84 C25.1226665,18.5879987 25.0853335,18.3406679 25.048,18.098 L23.816,13.31 C23.7879999,13.1886661 23.7040007,12.9646683 23.564,12.638 C23.4519994,12.3859987 23.396,12.1713342 23.396,11.994 C23.396,11.8726661 23.4193331,11.7513339 23.466,11.63 C23.5500004,11.3686654 23.8859971,11.238 24.474,11.238 C24.8006683,11.238 25.0199994,11.2846662 25.132,11.378 C25.2720007,11.4993339 25.3466666,11.695332 25.356,11.966 C25.3653334,12.3766687 25.3746666,12.6006665 25.384,12.638 L26.224,15.998 L27.4,12.554 C27.4186668,12.4886663 27.428,12.4233337 27.428,12.358 C27.428,12.3019997 27.4163335,12.2203339 27.393,12.113 C27.3696666,12.0056661 27.358,11.9240003 27.358,11.868 C27.358,11.6626656 27.4699989,11.5040006 27.694,11.392 C27.8806676,11.2893328 28.0859989,11.238 28.31,11.238 C28.6180015,11.238 28.8746656,11.3126659 29.08,11.462 C29.3413346,11.6486676 29.4859999,11.8889985 29.514,12.183 C29.5420001,12.4770015 29.5653332,12.7686652 29.584,13.058 L30.424,16.418 L31.768,12.386 C31.7866668,12.3299997 31.796,12.2693337 31.796,12.204 C31.796,12.129333 31.7820001,12.0290006 31.754,11.903 C31.7259999,11.7769994 31.712,11.6813337 31.712,11.616 C31.712,11.5319996 31.7306665,11.452667 31.768,11.378 C31.9080007,11.1259987 32.2766637,11 32.874,11 C33.4340028,11 33.7653328,11.1259987 33.868,11.378 Z M45.264,11.378 C45.2920001,11.452667 45.306,11.5226663 45.306,11.588 C45.306,11.7373341 45.2220008,11.9193323 45.054,12.134 C44.8486656,12.3860013 44.7226669,12.5819993 44.676,12.722 L43.136,17.37 C43.0893331,17.5193341 43.066,17.6966656 43.066,17.902 L43.066,18.21 C43.0753334,18.3406673 43.08,18.4386663 43.08,18.504 C43.08,18.8493351 42.9633345,19.1059992 42.73,19.274 C42.4966655,19.4420008 42.2306682,19.526 41.932,19.526 C41.4839978,19.526 41.1106682,19.3580017 40.812,19.022 C40.6626659,18.8539992 40.588,18.6626677 40.588,18.448 C40.588,18.1306651 40.5786668,17.9300004 40.56,17.846 L39.72,14.738 L38.908,17.538 C38.8799999,17.6406672 38.8566668,17.8366652 38.838,18.126 C38.8193332,18.3593345 38.7680004,18.5459993 38.684,18.686 C38.3293316,19.2646696 37.8953359,19.554 37.382,19.554 C37.2046658,19.554 37.0413341,19.5026672 36.892,19.4 C36.7053324,19.2786661 36.5933335,19.0920013 36.556,18.84 C36.5186665,18.5879987 36.4813335,18.3406679 36.444,18.098 L35.212,13.31 C35.1839999,13.1886661 35.1000007,12.9646683 34.96,12.638 C34.8479994,12.3859987 34.792,12.1713342 34.792,11.994 C34.792,11.8726661 34.8153331,11.7513339 34.862,11.63 C34.9460004,11.3686654 35.2819971,11.238 35.87,11.238 C36.1966683,11.238 36.4159994,11.2846662 36.528,11.378 C36.6680007,11.4993339 36.7426666,11.695332 36.752,11.966 C36.7613334,12.3766687 36.7706666,12.6006665 36.78,12.638 L37.62,15.998 L38.796,12.554 C38.8146668,12.4886663 38.824,12.4233337 38.824,12.358 C38.824,12.3019997 38.8123335,12.2203339 38.789,12.113 C38.7656665,12.0056661 38.754,11.9240003 38.754,11.868 C38.754,11.6626656 38.8659989,11.5040006 39.09,11.392 C39.2766676,11.2893328 39.4819989,11.238 39.706,11.238 C40.0140015,11.238 40.2706656,11.3126659 40.476,11.462 C40.7373346,11.6486676 40.8819999,11.8889985 40.91,12.183 C40.9380001,12.4770015 40.9613332,12.7686652 40.98,13.058 L41.82,16.418 L43.164,12.386 C43.1826668,12.3299997 43.192,12.2693337 43.192,12.204 C43.192,12.129333 43.1780001,12.0290006 43.15,11.903 C43.1219999,11.7769994 43.108,11.6813337 43.108,11.616 C43.108,11.5319996 43.1266665,11.452667 43.164,11.378 C43.3040007,11.1259987 43.6726637,11 44.27,11 C44.8300028,11 45.1613328,11.1259987 45.264,11.378 Z"/>
    <rect width="64" height="30" y="29" fill="#D650C7" rx="2"/>
    <path stroke="#FFAF40" stroke-linecap="square" stroke-width="2" d="M17,32 L21,32"/>
    <path stroke="#80D25B" stroke-linecap="square" stroke-width="2" d="M26,32 L30,32"/>
    <rect width="25" height="4" x="23" y="53" fill="#FFF"/>
    <rect width="4" height="4" x="51" y="53" fill="#FFF"/>
    <rect width="4" height="10" x="58" y="41" fill="#FFF"/>
    <rect width="4" height="4" x="16" y="53" fill="#FFF"/>
    <rect width="4" height="4" x="51" y="35" fill="#FFF"/>
    <rect width="4" height="4" x="51" y="41" fill="#FFF"/>
    <rect width="4" height="4" x="51" y="47" fill="#FFF"/>
    <rect width="4" height="4" x="58" y="53" fill="#FFF"/>
    <rect width="4" height="4" x="58" y="35" fill="#FFF"/>
    <rect width="4" height="4" x="9" y="53" fill="#FFF"/>
    <rect width="4" height="4" x="9" y="35" fill="#FFF"/>
    <rect width="4" height="4" x="2" y="41" fill="#FFF"/>
    <rect width="4" height="4" x="16" y="47" fill="#FFF"/>
    <rect width="4" height="4" x="23" y="47" fill="#FFF"/>
    <rect width="4" height="4" x="30" y="47" fill="#FFF"/>
    <rect width="4" height="4" x="37" y="47" fill="#FFF"/>
    <rect width="4" height="4" x="44" y="47" fill="#FFF"/>
    <rect width="4" height="4" x="16" y="41" fill="#FFF"/>
    <rect width="4" height="4" x="9" y="41" fill="#FFF"/>
    <rect width="4" height="4" x="23" y="41" fill="#FFF"/>
    <rect width="4" height="4" x="30" y="41" fill="#FFF"/>
    <rect width="4" height="4" x="37" y="41" fill="#FFF"/>
    <rect width="4" height="4" x="44" y="41" fill="#FFF"/>
    <rect width="4" height="4" x="16" y="35" fill="#FFF"/>
    <rect width="4" height="4" x="23" y="35" fill="#FFF"/>
    <rect width="4" height="4" x="30" y="35" fill="#FFF"/>
    <rect width="4" height="4" x="37" y="35" fill="#FFF"/>
    <rect width="4" height="4" x="44" y="35" fill="#FFF"/>
    <rect width="4" height="4" x="2" y="53" fill="#FFF"/>
    <rect width="4" height="4" x="2" y="35" fill="#FFF"/>
    <rect width="11" height="4" x="2" y="47" fill="#FFF"/>
  </g>
</svg>
