<svg xmlns="http://www.w3.org/2000/svg" width="64" height="64" viewBox="0 0 64 64">
  <g fill="none" fill-rule="evenodd">
    <rect width="52" height="6" x="6" y="30" fill="#979797"/>
    <rect width="36" height="25" x="14" y="5" fill="#ECECEC"/>
    <path stroke="#979797" stroke-linecap="square" stroke-width="2" d="M19 13L38.0262976 13M19 16L30 16M34 16L45 16M19 19L41 19"/>
    <rect width="52" height="4" x="6" y="54" fill="#D8D8D8"/>
    <rect width="5" height="4" x="11" y="58" fill="#979797"/>
    <rect width="5" height="4" x="49" y="58" fill="#979797"/>
    <polygon fill="#595959" points="7.857 36 55.143 36 58 54 6 54"/>
    <path stroke="#FFF" stroke-linecap="square" stroke-width="2" d="M15 51L15 47M12 47L18 47M20 43L20 39M17 39L23 39M38 51L38 47M35 47L41 47M50 51L50 47M47 47L53 47M44 43L44 39M41 39L47 39M26 51L26 47M23 47L29 47M32 43L32 39M29 39L35 39"/>
    <rect width="5" height="16" x="58" y="25" fill="#D8D8D8" rx="2.5"/>
    <polyline stroke="#979797" stroke-linecap="round" stroke-width="2" points="7.992 33.033 4 33.033 4 27 11.312 27"/>
  </g>
</svg>
