<svg xmlns="http://www.w3.org/2000/svg" width="64" height="64" viewBox="0 0 64 64">
  <path fill="#5EA7FF" fill-rule="evenodd" d="M40.5463827,59 C49.3504769,59 56.5535593,51.531 56.5535593,42.401 L56.5535593,6 L36.5531671,6 L36.5531671,8.345 C36.5531671,10.868 38.5257548,12.913 40.9581554,12.913 L49.5535593,12.913 L49.5535593,42.482 C49.5535593,47.765 45.7180527,52.087 40.6238352,52.087 L22.4244587,52.087 C17.3616143,52.087 13.5535593,47.792 13.5535593,42.542 L13.5535593,12.913 L26.1833559,12.913 L26.1833559,9.822 C26.1833559,7.711 24.5333236,5.999 22.4970091,5.999 L6.55355927,5.999 L6.55355927,42.481 C6.55257886,51.567 13.7213469,59 22.482303,59 L40.5463827,59 Z"/>
</svg>
