<?xml version="1.0" encoding="UTF-8"?>
<svg width="64px" height="64px" viewBox="0 0 64 64" version="1.1" xmlns="http://www.w3.org/2000/svg" xmlns:xlink="http://www.w3.org/1999/xlink">
    <!-- Generator: Sketch 43.2 (39069) - http://www.bohemiancoding.com/sketch -->
    <title>umbrella</title>
    <desc>Created with Sketch.</desc>
    <defs></defs>
    <g id="Outdoor-Activities-(142)" stroke="none" stroke-width="1" fill="none" fill-rule="evenodd">
        <rect id="Rectangle-3" fill="#5EA7FF" x="31" y="2" width="3" height="60"></rect>
        <path d="M61,34.5 C61,18.7598846 48.2401154,6 32.5,6 C16.7598846,6 4,18.7598846 4,34.5 C4,30.3578644 7.35786438,27 11.5,27 C14.6909946,27 17.4165426,28.9928135 18.5,31.8017963 C19.5834574,28.9928135 22.3090054,27 25.5,27 C28.6909946,27 31.4165426,28.9928135 32.5,31.8017963 C33.5834574,28.9928135 36.3090054,27 39.5,27 C42.6909946,27 45.4165426,28.9928135 46.5,31.8017963 C47.5834574,28.9928135 50.3090054,27 53.5,27 C57.6421356,27 61,30.3578644 61,34.5 Z" id="Combined-Shape" fill="#9C4D4D"></path>
    </g>
</svg>