<svg xmlns="http://www.w3.org/2000/svg" width="64" height="64" viewBox="0 0 64 64">
  <g fill="none" fill-rule="evenodd">
    <path stroke="#979797" stroke-linecap="square" stroke-width="2" d="M10 50L10 8.98780669M56 50L56 8.98780669M12 8L58.0108683 8M12 54L58.0108683 54"/>
    <rect width="10" height="10" x="5" y="3" fill="#D8D8D8"/>
    <rect width="10" height="10" x="5" y="26" fill="#D8D8D8"/>
    <rect width="10" height="10" x="51" y="26" fill="#D8D8D8"/>
    <rect width="10" height="10" x="51" y="49" fill="#D8D8D8"/>
    <rect width="10" height="10" x="5" y="49" fill="#D8D8D8"/>
    <rect width="10" height="10" x="28" y="3" fill="#D8D8D8"/>
    <rect width="10" height="10" x="28" y="49" fill="#D8D8D8"/>
    <rect width="10" height="10" x="51" y="3" fill="#D8D8D8"/>
    <path stroke="#979797" stroke-linecap="round" stroke-width="2" d="M41,24 C41,19.581722 37.418278,16 33,16 C30.3630965,16 28.0241664,17.2757755 26.5667785,19.2437576"/>
    <rect width="22" height="21" x="22" y="24" fill="#D650C7"/>
    <circle cx="33" cy="31" r="3" fill="#D8D8D8"/>
    <rect width="4" height="6" x="31" y="33" fill="#D8D8D8"/>
  </g>
</svg>
