<svg xmlns="http://www.w3.org/2000/svg" width="64" height="64" viewBox="0 0 64 64">
  <g fill="none" fill-rule="evenodd">
    <path fill="#B4DFFB" fill-rule="nonzero" d="M33,18 C34.1045695,18 35,17.1045695 35,16 C35,14.8954305 34.1045695,14 33,14 L13,14 L13,34 C13,35.1045695 13.8954305,36 15,36 C16.1045695,36 17,35.1045695 17,34 L17,18 L33,18 Z"/>
    <path fill="#5EA7FF" fill-rule="nonzero" d="M43,28 C44.1045695,28 45,27.1045695 45,26 C45,24.8954305 44.1045695,24 43,24 L23,24 L23,44 C23,45.1045695 23.8954305,46 25,46 C26.1045695,46 27,45.1045695 27,44 L27,28 L43,28 Z"/>
    <path fill="#5B68C0" fill-rule="nonzero" d="M53,38 C54.1045695,38 55,37.1045695 55,36 C55,34.8954305 54.1045695,34 53,34 L33,34 L33,54 C33,55.1045695 33.8954305,56 35,56 C36.1045695,56 37,55.1045695 37,54 L37,38 L53,38 Z"/>
  </g>
</svg>
