<svg xmlns="http://www.w3.org/2000/svg" width="64" height="64" viewBox="0 0 64 64">
  <g fill="none" fill-rule="evenodd">
    <path fill="#9C4D4D" d="M31,60 C53.349638,60 55,50.5685425 55,34 C55,17.4314575 44.254834,4 31,4 C17.745166,4 7,17.4314575 7,34 C7,50.5685425 8.65036199,60 31,60 Z"/>
    <ellipse cx="31" cy="55" fill="#BD7575" rx="10" ry="8"/>
    <circle cx="27.5" cy="52.5" r="2.5" fill="#595959"/>
    <circle cx="34.5" cy="52.5" r="2.5" fill="#595959"/>
    <circle cx="22" cy="38" r="8" fill="#ED9111"/>
    <circle cx="40" cy="38" r="8" fill="#ED9111"/>
    <circle cx="22" cy="38" r="5" fill="#0A3586"/>
    <circle cx="40" cy="38" r="5" fill="#0A3586"/>
    <circle cx="24" cy="38" r="1" fill="#FFF"/>
    <circle cx="42" cy="38" r="1" fill="#FFF"/>
    <path stroke="#595959" stroke-linecap="round" stroke-width="4" d="M15 34.0588622C15 34.0588622 19.9527352 25.2066208 28.8995306 33.0531743M30 34.0588622C30 34.0588622 36.4605361 25.8340539 45.0903538 30.3589677"/>
  </g>
</svg>
