<svg xmlns="http://www.w3.org/2000/svg" width="64" height="64" viewBox="0 0 64 64">
  <g fill="none" fill-rule="evenodd">
    <rect width="58" height="43" x="4" y="11" fill="#5B68C0" rx="4"/>
    <path stroke="#4796E7" stroke-linecap="square" stroke-width="2" d="M5 17L61 17M48 12L48 15"/>
    <path fill="#FFAF40" d="M15.85,30.72 C15.8766668,30.9600012 15.756668,31.1866656 15.49,31.4 C15.0366644,31.7466684 14.7966668,31.9333332 14.77,31.96 L11.59,35.68 L15.07,38.96 C15.5233356,39.3866688 15.75,39.7733316 15.75,40.12 C15.75,40.253334 15.7233336,40.386666 15.67,40.52 C15.4433322,41.0933362 15.0233364,41.38 14.41,41.38 C14.1699988,41.38 13.9233346,41.3266672 13.67,41.22 C13.4166654,41.1133328 13.2766668,40.9800008 13.25,40.82 C13.2233332,40.6599992 13.2033334,40.4866676 13.19,40.3 C13.1766666,40.166666 13.1233338,40.0533338 13.03,39.96 L10.47,37.64 C9.7766632,37.0666638 9.43,36.4866696 9.43,35.9 C9.43,35.3266638 9.8066629,34.6166709 10.56,33.77 C11.3133371,32.9233291 12.0766628,32.0800042 12.85,31.24 C12.916667,31.1599996 13.049999,30.9133354 13.25,30.5 C13.3966674,30.2066652 13.5833322,30.0133338 13.81,29.92 C13.9566674,29.8666664 14.1233324,29.84 14.31,29.84 C14.6566684,29.84 14.9933317,29.9333324 15.32,30.12 C15.6466683,30.3066676 15.8233332,30.5066656 15.85,30.72 Z M29.39,31.24 C29.4166668,31.440001 29.3766672,31.6533322 29.27,31.88 C29.136666,32.1866682 29.0566668,32.4133326 29.03,32.56 C29.03,35.3333472 28.9166678,37.2599946 28.69,38.34 C28.1966642,40.606678 27.150008,41.74 25.55,41.74 C23.216655,41.74 22.05,39.6133546 22.05,35.36 C22.05,34.2133276 22.1366658,33.0000064 22.31,31.72 C22.2166662,31.4133318 22.17,31.1400012 22.17,30.9 C22.17,30.5133314 22.2966654,30.186668 22.55,29.92 C22.7633344,29.6933322 23.0766646,29.58 23.49,29.58 C23.823335,29.58 24.1366652,29.6499993 24.43,29.79 C24.7233348,29.9300007 24.8966664,30.0933324 24.95,30.28 C24.9766668,30.3733338 24.99,30.4666662 24.99,30.56 C24.99,30.7333342 24.9166674,31.0099981 24.77,31.39 C24.6233326,31.7700019 24.5633332,32.0799988 24.59,32.32 C24.456666,33.0666704 24.39,34.006661 24.39,35.14 C24.39,36.2866724 24.4633326,37.2399962 24.61,38 C24.7966676,38.8800044 25.056665,39.32 25.39,39.32 C25.9500028,39.32 26.3166658,38.3733428 26.49,36.48 C26.5833338,35.5333286 26.63,34.026677 26.63,31.96 C26.63,31.826666 26.6100002,31.6333346 26.57,31.38 C26.5299998,31.1266654 26.51,30.9400006 26.51,30.82 C26.51,30.4999984 26.6299988,30.2800006 26.87,30.16 C27.003334,30.093333 27.1899988,30.06 27.43,30.06 C27.8700022,30.06 28.2766648,30.1533324 28.65,30.34 C29.0900022,30.5666678 29.3366664,30.8666648 29.39,31.24 Z M38.83,30.8 C38.7766664,31.0800014 38.5233356,31.2733328 38.07,31.38 C37.536664,31.513334 37.1966674,31.6666658 37.05,31.84 L33.79,35.6 L33.79,38.64 C33.79,38.9333348 33.8733325,39.2299985 34.04,39.53 C34.2066675,39.8300015 34.29,40.0599992 34.29,40.22 C34.29,40.3800008 34.2433338,40.559999 34.15,40.76 C33.9233322,41.2666692 33.4633368,41.52 32.77,41.52 C32.2899976,41.52 31.9100014,41.3666682 31.63,41.06 C31.4433324,40.859999 31.35,40.6066682 31.35,40.3 C31.35,40.1933328 31.3633332,40.0200012 31.39,39.78 C31.4166668,39.5399988 31.43,39.3466674 31.43,39.2 L31.43,31.72 C31.43,31.5999994 31.3766672,31.4533342 31.27,31.28 C31.1633328,31.1066658 31.11,30.9666672 31.11,30.86 C31.11,30.7799996 31.1366664,30.6866672 31.19,30.58 C31.3633342,30.2599984 31.9033288,30.1 32.81,30.1 C33.5166702,30.1 33.9166662,30.266665 34.01,30.6 C34.0500002,30.733334 34.07,30.8466662 34.07,30.94 C34.07,31.0866674 34.0166672,31.1999996 33.91,31.28 C33.8033328,31.3600004 33.75,31.4399996 33.75,31.52 L33.79,32.24 L35.51,30.42 C35.710001,30.1933322 35.9199989,29.9666678 36.14,29.74 C36.3600011,29.5133322 36.6166652,29.3866668 36.91,29.36 C37.3633356,29.3199998 37.7999979,29.4199988 38.22,29.66 C38.6400021,29.9000012 38.85,30.2133314 38.85,30.6 C38.85,30.666667 38.8433334,30.733333 38.83,30.8 Z M42.93,41.1 C42.663332,41.6066692 42.1700036,41.86 41.45,41.86 C40.78333,41.86 40.316668,41.6333356 40.05,41.18 C39.9699996,41.046666 39.93,40.9000008 39.93,40.74 C39.93,40.606666 39.9766662,40.3866682 40.07,40.08 C40.1633338,39.7733318 40.21,39.520001 40.21,39.32 L40.13,26.4 L40.13,25.32 C40.1700002,25.1466658 40.356665,25.0033339 40.69,24.89 C41.023335,24.7766661 41.3766648,24.72 41.75,24.72 C42.2966694,24.72 42.6433326,24.819999 42.79,25.02 C42.9366674,25.220001 43.01,25.4266656 43.01,25.64 C43.01,25.7866674 42.9566672,26.0299983 42.85,26.37 C42.7433328,26.7100017 42.69,26.9866656 42.69,27.2 L42.69,39.2 C42.69,39.400001 42.7466661,39.6633317 42.86,39.99 C42.9733339,40.3166683 43.03,40.5533326 43.03,40.7 C43.03,40.8466674 42.996667,40.9799994 42.93,41.1 Z M54.69,37.42 L51.99,39.96 C51.8833328,40.0533338 51.83,40.2733316 51.83,40.62 C51.8166666,40.886668 51.6566682,41.086666 51.35,41.22 C51.0966654,41.3266672 50.8500012,41.38 50.61,41.38 C49.9966636,41.38 49.5766678,41.0933362 49.35,40.52 C49.2966664,40.386666 49.27,40.253334 49.27,40.12 C49.27,39.7733316 49.4966644,39.3866688 49.95,38.96 L53.43,35.68 L50.25,31.96 C50.2233332,31.9333332 49.9833356,31.7466684 49.53,31.4 C49.2499986,31.1866656 49.1299998,30.9600012 49.17,30.72 C49.1966668,30.5066656 49.3733317,30.3066676 49.7,30.12 C50.0266683,29.9333324 50.3633316,29.84 50.71,29.84 C50.8966676,29.84 51.0633326,29.8666664 51.21,29.92 C51.4366678,30.0133338 51.6233326,30.1999986 51.77,30.48 C51.9966678,30.9333356 52.1299998,31.1866664 52.17,31.24 C52.3966678,31.5333348 53.17666,32.379993 54.51,33.78 C55.2966706,34.6066708 55.69,35.2733308 55.69,35.78 C55.69,36.313336 55.35667,36.8599972 54.69,37.42 Z"/>
  </g>
</svg>
