<svg xmlns="http://www.w3.org/2000/svg" width="64" height="64" viewBox="0 0 64 64">
  <g fill="none" fill-rule="evenodd">
    <rect width="20" height="15" x="23" y="1" fill="#D8D8D8"/>
    <rect width="5" height="10" x="26" y="4" fill="#868686"/>
    <rect width="5" height="10" x="35" y="4" fill="#868686"/>
    <rect width="24" height="3" x="21" y="16" fill="#4796E7"/>
    <path fill="#5B68C0" d="M18,19 L48,19 L48,48.9964917 C48,56.178131 42.1801268,62 34.9942481,62 L31.0057519,62 C23.8228735,62 18,56.1784698 18,48.9964917 L18,19 Z"/>
    <path fill="#80D25B" d="M33,47 C36.8659932,47 40,43.8315536 40,39.9230769 C40,36.0146002 33,24 33,24 C33,24 26,36.0146002 26,39.9230769 C26,43.8315536 29.1340068,47 33,47 Z"/>
    <path stroke="#22BA8E" stroke-linecap="square" stroke-width="2" d="M33,56 L33,40"/>
  </g>
</svg>
