<svg xmlns="http://www.w3.org/2000/svg" width="64" height="64" viewBox="0 0 64 64">
  <g fill="none" fill-rule="evenodd">
    <polygon fill="#0A3586" points="24 14 42 14 42 32 40 44 26 44 24 32"/>
    <path stroke="#979797" stroke-linecap="square" stroke-width="2" d="M33,45 L33,61"/>
    <rect width="14" height="11" x="26" y="5" fill="#D8D8D8"/>
    <path fill="#80D25B" d="M32.5508697,19.8982606 C32.7989175,19.402165 33.1968384,19.3936768 33.4491303,19.8982606 L35.5508697,24.1017394 C35.7989175,24.597835 35.5490248,25 35.009222,25 L30.990778,25 C30.4435864,25 30.1968384,24.6063232 30.4491303,24.1017394 L32.5508697,19.8982606 Z"/>
    <path stroke="#80D25B" stroke-linecap="square" stroke-width="2" d="M33,37 L33,25.9750156"/>
    <circle cx="33" cy="39" r="2" fill="#80D25B"/>
    <rect width="3" height="3" x="36" y="26" fill="#80D25B" rx=".5"/>
    <rect width="3" height="3" x="27" y="29" fill="#80D25B" rx=".5"/>
  </g>
</svg>
