<svg xmlns="http://www.w3.org/2000/svg" width="64" height="64" viewBox="0 0 64 64">
  <g fill="none" fill-rule="evenodd">
    <rect width="17" height="14" x="6" y="3" fill="#D8D8D8"/>
    <rect width="4" height="2" x="9" y="5" fill="#FFF"/>
    <rect width="4" height="2" x="16" y="5" fill="#FFF"/>
    <rect width="15" height="11" x="46" y="33" fill="#979797"/>
    <rect width="11" height="10" x="48" y="44" fill="#D8D8D8"/>
    <path stroke="#979797" stroke-linecap="round" stroke-width="2" d="M15.0265898,33.0818736 L15.0265898,54.2920685 C15.0265898,56.4976836 16.8230537,58.2856878 19.0296448,58.2856878 L30.1190944,58.2856878 C32.3299207,58.2856878 34.1221495,56.4949695 34.1221495,54.2829662 L34.1221495,22.989347 C34.1221495,20.7787048 35.9066,18.9866253 38.1215681,18.9866253 L49.0905939,18.9866253 C51.2994118,18.9866253 53.0900126,20.7694355 53.0900126,22.993859 L53.0900126,34.0136757"/>
    <path fill="#D8D8D8" d="M11,30 L19,30 L19,32 C19,33.1045695 18.1132936,34 17.0018986,34 L12.9981014,34 C11.8945804,34 11,33.1122704 11,32 L11,30 Z"/>
    <path fill="#979797" d="M4,17 L25,17 L25,24 C25,27.8659932 21.8560878,31 18.0073041,31 L10.9926959,31 C7.13073661,31 4,27.8581267 4,24 L4,17 Z"/>
  </g>
</svg>
