<svg xmlns="http://www.w3.org/2000/svg" width="64" height="64" viewBox="0 0 64 64">
  <g fill="none" fill-rule="evenodd">
    <path fill="#80D25B" d="M24,36.9597759 C24,34.7493282 25.787167,32.7516292 27.9642898,32.5009519 L41,31 L54.0357102,32.5009519 C56.225127,32.7530447 58,34.7492282 58,36.9597759 L58,43.9574064 L24,43.9574064 L24,36.9597759 Z"/>
    <path fill="#FFDD95" d="M35,26.3164468 C31.9897907,23.470456 30,18.8615543 30,15 C30,8.92486775 34.9248678,4 41,4 C47.0751322,4 52,8.92486775 52,15 C52,18.8615543 50.0102093,23.470456 47,26.3164468 L47,33 C47,33 42.9325778,34.4486507 41,34.4486507 C39.0674222,34.4486507 35,33 35,33 L35,26.3164468 Z"/>
    <circle cx="32" cy="20" r="3" fill="#FFDD95"/>
    <circle cx="50" cy="20" r="3" fill="#FFDD95"/>
    <path fill="#D8D8D8" d="M30.1074028,54.3955983 C31.7078611,55.6473354 35.367911,63.043357 37.6176718,62.4405354 C40.1581737,61.75981 40.7690852,55.8018283 38.982181,49.1330108 C37.1952767,42.4641934 36.1392519,37.2975934 33.2909227,36.4474491 C32.194988,36.1203441 29.9663927,35.4510575 27.602784,36.8648292 C25.2391754,38.2786009 17.767385,38.2786009 15.4037764,36.8648292 C13.0401678,35.4510575 10.8115725,36.1203441 9.71563778,36.4474491 C6.86730856,37.2975934 5.81128371,42.4641934 4.02437946,49.1330108 C2.2374752,55.8018283 2.84838679,61.75981 5.38888868,62.4405354 C7.63864944,63.043357 11.2986993,55.6473354 12.8991577,54.3955983 C14.0076121,53.5286631 17.1630894,53.4411904 19.230341,53.4693382 L24.5878784,53.4654589 C26.5932201,53.4747841 29.1361419,53.6359638 30.1074028,54.3955983 Z"/>
    <path fill="#595959" d="M14,44 L14,41 L11,41 L11,44 L8,44 L8,47 L11,47 L11,50 L14,50 L14,47 L17,47 L17,44 L14,44 Z"/>
    <circle cx="30.5" cy="45.5" r="3.5" fill="#595959"/>
  </g>
</svg>
