<svg xmlns="http://www.w3.org/2000/svg" width="64" height="64" viewBox="0 0 64 64">
  <path fill="#80D25B" fill-rule="evenodd" d="M24.0104006,57.8889154 C13.3295115,54.6561248 5.55355927,44.7361479 5.55355927,33 C5.55355927,18.6405965 17.1941558,7 31.5535593,7 C45.9129628,7 57.5535593,18.6405965 57.5535593,33 C57.5535593,33.9411928 57.503549,34.870705 57.4060407,35.7860243 C55.6580756,35.6044112 53.9789901,35.1105184 53.0535582,34 C50.5535582,31 44.5535593,16.5 44.5535593,16.5 L36.5535593,18.5 C36.5535593,18.5 42.0535601,30.9999998 43.0535593,33.5 C44.0535585,36.0000002 40.5535601,41.5000007 33.5535593,41 C26.5535585,40.4999993 21.5535591,21 20.0535593,20.5 C18.5535594,20 12.0535593,21.5 11.0535593,22.5 C10.3930366,23.1605227 18.4583182,43.8903943 24.0104006,57.8889154 Z M55.9745901,41.943211 C52.7874402,50.6437889 45.0832762,57.1664219 35.7024311,58.6707769 C33.5027841,53.6849107 30.5535586,47 30.5535593,47 C30.5535604,47 37.5535601,47.5 41.5535601,45.5 C45.5535601,43.5 47.0535593,39 47.0535593,39 C47.0535593,39 48.0535582,40.5 51.5535582,41.5 C52.7919333,41.8538215 54.4058774,41.9572637 55.9745901,41.943211 Z"/>
</svg>
