<svg xmlns="http://www.w3.org/2000/svg" width="64" height="64" viewBox="0 0 64 64">
  <path fill="#5B68C0" fill-rule="evenodd" d="M37.6875,49 L32,62 L26.3125,49 L6,49 L6,5 L58,5 L58,49 L37.6875,49 Z M25.9501121,23.3106987 C26.7064267,22.6532444 26.7796831,21.5188324 26.1257032,20.7665145 L21.7900395,15.778904 L19.0680023,18.1451348 C17.5677217,19.4493088 17.6763928,21.2678186 18.4190562,23.310699 C18.4190562,23.310699 20.6732654,27.3662289 24.28,31.0402448 C27.8867346,34.7142606 34.6142838,38.1980583 34.6142838,38.1980583 C36.2839384,39.2823447 38.5191461,38.8036563 39.6018293,37.1364703 L41.5661978,34.1116082 L36.0237185,30.5122801 C35.1877058,29.969367 34.0745291,30.1997902 33.5287317,31.0402444 L32.8897558,32.0241811 C30.1960202,31.1258849 26.680706,30.2425601 24.8432148,24.2729098 L25.9501121,23.3106987 Z M37.294663,24.1887303 C36.6842247,22.0239437 34.9831667,20.3190369 32.8199653,19.7035386 C32.2887646,19.5523954 31.7356156,19.8604928 31.5844724,20.3916935 C31.4333292,20.9228942 31.7414267,21.4760433 32.2726274,21.6271864 C33.7681301,22.0527037 34.9477191,23.2349616 35.3697306,24.7315333 C35.5196215,25.2630887 36.0720429,25.5724889 36.6035983,25.422598 C37.1351537,25.2727071 37.4445539,24.7202857 37.294663,24.1887303 Z M41.3934771,24.4033314 C40.2084269,20.2008092 36.9041395,16.8890456 32.7046798,15.6941681 C32.1734791,15.5430249 31.6203301,15.8511224 31.4691869,16.3823231 C31.3180437,16.9135238 31.6261412,17.4666728 32.1573419,17.617816 C35.689103,18.6227124 38.4719213,21.4118272 39.4685447,24.9461344 C39.6184356,25.4776898 40.170857,25.7870901 40.7024124,25.6371991 C41.2339678,25.4873082 41.543368,24.9348868 41.3934771,24.4033314 Z M46.0385875,24.835352 C44.1613848,18.178262 38.925917,12.9309485 32.273669,11.0381761 C31.7424683,10.8870329 31.1893193,11.1951303 31.0381761,11.726331 C30.8870329,12.2575317 31.1951303,12.8106807 31.726331,12.9618239 C37.7108805,14.6646152 42.4248793,19.3892799 44.1136551,25.378155 C44.263546,25.9097104 44.8159674,26.2191106 45.3475228,26.0692197 C45.8790782,25.9193288 46.1884784,25.3669074 46.0385875,24.835352 Z"/>
</svg>
