<svg xmlns="http://www.w3.org/2000/svg" width="64" height="64" viewBox="0 0 64 64">
  <g fill="none" fill-rule="evenodd">
    <path fill="#80D25B" d="M26.6643005,55.9089744 L19.37581,62.5108644 L19.37581,55.5430919 C11.1714989,53.8645108 5.00008345,46.6084617 5.00008345,37.9018609 L5.00008345,20.0071136 C5.00008345,10.0620594 13.0573545,2 23.0060253,2 L42.1010932,2 C52.0455003,2 60.1070351,10.0561506 60.1070351,20.0071136 L60.1070351,37.9018609 C60.1070351,47.8469151 52.049764,55.9089744 42.1010932,55.9089744 L26.6643005,55.9089744 Z M26.9856189,23.9865172 C27.9904588,23.1130232 28.0877873,21.6058429 27.2189094,20.6063132 L21.4585451,13.9797721 L17.8420456,17.1235472 C15.8487722,18.8562732 15.9931527,21.2723459 16.9798556,23.9865176 C16.9798556,23.9865176 19.9747986,29.374696 24.7667075,34.2559947 C29.5586163,39.1372935 38.4968405,43.7658683 38.4968405,43.7658683 C40.7151442,45.2064516 43.6848419,44.5704659 45.1232952,42.3554421 L47.7331558,38.3366092 L40.369416,33.5545407 C39.2586892,32.8332262 37.7797222,33.1393665 37.0545757,34.2559942 L36.205632,35.5632529 C32.626734,34.3697762 27.9562863,33.1961906 25.5149948,25.2649112 L26.9856189,23.9865172 Z"/>
    <path stroke="#FFF" stroke-linecap="round" stroke-linejoin="round" stroke-width="2" d="M38.3476954 28.0041381C37.831411 26.1732479 36.390936 24.7298166 34.561795 24.2093688M42.4465095 28.2187392C41.3555469 24.3498784 38.3116739 21.2997585 34.4465095 20.1999984M47.0916199 28.6507598C45.308425 22.3270481 40.3331685 17.3415808 34.0154986 15.5440063"/>
  </g>
</svg>
