<svg xmlns="http://www.w3.org/2000/svg" width="64" height="64" viewBox="0 0 64 64">
  <g fill="none" fill-rule="evenodd">
    <circle cx="32" cy="32" r="30" fill="#5B68C0"/>
    <path stroke="#FFF" stroke-linecap="round" stroke-linejoin="round" stroke-width="2" d="M36.3321968 30.4601318C35.8159124 28.6292416 34.3754374 27.1858103 32.5462964 26.6653625M40.4310109 30.6747329C39.3400483 26.8058721 36.2961753 23.7557521 32.4310109 22.6559921M45.0761213 31.1067535C43.2929264 24.7830417 38.3176699 19.7975745 32 18"/>
    <path fill="#FFF" d="M25.9501121,29.3106987 C26.7064267,28.6532444 26.7796831,27.5188324 26.1257032,26.7665145 L21.7900395,21.778904 L19.0680023,24.1451348 C17.5677217,25.4493088 17.6763928,27.2678186 18.4190562,29.310699 C18.4190562,29.310699 20.6732654,33.3662289 24.28,37.0402448 C27.8867346,40.7142606 34.6142838,44.1980583 34.6142838,44.1980583 C36.2839384,45.2823447 38.5191461,44.8036563 39.6018293,43.1364703 L41.5661978,40.1116082 L36.0237185,36.5122801 C35.1877058,35.969367 34.0745291,36.1997902 33.5287317,37.0402444 L32.8897558,38.0241811 C30.1960202,37.1258849 26.680706,36.2425601 24.8432148,30.2729098 L25.9501121,29.3106987 Z"/>
  </g>
</svg>
