<svg xmlns="http://www.w3.org/2000/svg" width="64" height="64" viewBox="0 0 64 64">
  <g fill="none" fill-rule="evenodd">
    <rect width="46" height="32" x="12" y="14" fill="#22BA8E"/>
    <rect width="3" height="3" x="53" y="16" fill="#80D25B"/>
    <rect width="3" height="3" x="53" y="41" fill="#80D25B"/>
    <rect width="3" height="3" x="43" y="16" fill="#80D25B"/>
    <rect width="3" height="3" x="43" y="41" fill="#80D25B"/>
    <rect width="3" height="3" x="33" y="16" fill="#80D25B"/>
    <rect width="3" height="3" x="33" y="41" fill="#80D25B"/>
    <rect width="3" height="3" x="23" y="16" fill="#80D25B"/>
    <rect width="3" height="3" x="23" y="41" fill="#80D25B"/>
    <path fill="#ED9111" d="M13,23 L57.9996815,23 C61.3135659,23 64,25.6827759 64,28.9981851 L64,31.0018149 C64,34.314521 61.3119521,37 57.9996815,37 L13,37 L13,23 Z"/>
    <circle cx="55" cy="30" r="4" fill="#595959"/>
    <rect width="8" height="2" x="36" y="26" fill="#FFF"/>
    <rect width="8" height="2" x="36" y="32" fill="#FFF"/>
    <path stroke="#979797" stroke-linecap="round" stroke-linejoin="round" stroke-width="2" d="M2,13 L12.0498756,13 L12.0498756,49.060021"/>
    <path fill="#D8D8D8" d="M6,23.992017 C6,22.8918564 6.8938998,22 8.0048815,22 L11,22 L11,33 L8.0048815,33 C6.89761602,33 6,32.0998238 6,31.007983 L6,23.992017 Z"/>
    <path fill="#ED9111" d="M36 46L53 46 53 48.5C53 49.8807119 51.8845825 51 50.4915915 51L38.5084085 51C37.1230528 51 36 49.8903379 36 48.5L36 46zM20 46L29 46 29 48.5C29 49.8807119 27.8783411 51 26.4929982 51L22.5070018 51C21.1224229 51 20 49.8903379 20 48.5L20 46z"/>
  </g>
</svg>
