<svg xmlns="http://www.w3.org/2000/svg" width="64" height="64" viewBox="0 0 64 64">
  <g fill="none" fill-rule="evenodd">
    <rect width="46" height="32" x="14" y="14" fill="#22BA8E"/>
    <rect width="3" height="3" x="55" y="16" fill="#80D25B"/>
    <rect width="3" height="3" x="55" y="41" fill="#80D25B"/>
    <path fill="#D8D8D8" d="M23,16 L48.0045193,16 C51.3157319,16 54,18.6827759 54,21.9981851 L54,24.0018149 C54,27.314521 51.3166691,30 48.0045193,30 L23,30 L23,16 Z"/>
    <circle cx="45" cy="23" r="4" fill="#0A3586"/>
    <rect width="8" height="2" x="26" y="19" fill="#FFF"/>
    <rect width="8" height="2" x="26" y="25" fill="#FFF"/>
    <path fill="#D8D8D8" d="M23,30 L48.0045193,30 C51.3157319,30 54,32.6827759 54,35.9981851 L54,38.0018149 C54,41.314521 51.3166691,44 48.0045193,44 L23,44 L23,30 Z"/>
    <circle cx="45" cy="37" r="4" fill="#0A3586"/>
    <rect width="8" height="2" x="26" y="33" fill="#FFF"/>
    <rect width="8" height="2" x="26" y="39" fill="#FFF"/>
    <path stroke="#979797" stroke-linecap="round" stroke-linejoin="round" stroke-width="2" d="M4,13 L14.0498756,13 L14.0498756,49.060021"/>
    <path fill="#D8D8D8" d="M8,23.992017 C8,22.8918564 8.8938998,22 10.0048815,22 L13,22 L13,33 L10.0048815,33 C8.89761602,33 8,32.0998238 8,31.007983 L8,23.992017 Z"/>
    <path fill="#ED9111" d="M38 46L55 46 55 48.5C55 49.8807119 53.8845825 51 52.4915915 51L40.5084085 51C39.1230528 51 38 49.8903379 38 48.5L38 46zM22 46L31 46 31 48.5C31 49.8807119 29.8783411 51 28.4929982 51L24.5070018 51C23.1224229 51 22 49.8903379 22 48.5L22 46z"/>
  </g>
</svg>
