<svg xmlns="http://www.w3.org/2000/svg" width="64" height="64" viewBox="0 0 64 64">
  <path fill="#B4DFFB" fill-rule="evenodd" d="M3,23.1030503 C3,23.1030503 11.6606523,14.0901732 16.8644961,11.7459722 C16.8644961,11.7459722 25.5251484,6.39226633 27.5602512,20.8995867 C27.5602512,20.8995867 29.880555,39.3916222 33.4276532,40.7065925 C33.4276532,40.7065925 36.787006,42.3513715 42.704569,27.4687515 C42.704569,27.4687515 44.5963547,20.2883032 34.8952203,23.058981 C34.8952203,23.058981 37.876216,9.67755954 50.7475246,10.0059467 C50.7475246,10.0059467 63.9040342,10.3343339 56.9932837,28.3145972 C56.9932837,28.3145972 43.1287876,56.1024062 28.1292201,57.9860122 C28.1292201,57.9860122 22.0941371,59.1346565 17.5753489,40.6141891 C17.5753489,40.6141891 15.4198598,31.4875849 12.1808933,25.029304 C12.1808933,25.029304 10.4295584,21.2265522 5.69866097,26.2959402 L3,23.1030503 L3,23.1030503 Z"/>
</svg>
