<svg xmlns="http://www.w3.org/2000/svg" width="64" height="64" viewBox="0 0 64 64">
  <g fill="none" fill-rule="evenodd">
    <path fill="#5B68C0" d="M9,45.9206814 C9,43.707202 10.7750001,41.6994337 12.9692715,41.4356406 L32.875,39.0425936 L52.7807285,41.4356406 C54.9728966,41.6991808 56.75,43.7006188 56.75,45.9206814 L56.75,58.0425936 L9,58.0425936 L9,45.9206814 Z"/>
    <path fill="#FFDD95" d="M24.9659091,36.0820517 C20.997906,32.3171352 18.375,26.2233999 18.375,21.1331692 C18.375,13.1250403 24.8668711,6.63316921 32.875,6.63316921 C40.8831289,6.63316921 47.375,13.1250403 47.375,21.1331692 C47.375,26.2233999 44.752094,32.3171352 40.7840909,36.0820517 L40.7840909,44.9058965 C40.7840909,44.9058965 35.4224889,46.8154815 32.875,46.8154815 C30.3275111,46.8154815 24.9659091,44.9058965 24.9659091,44.9058965 L24.9659091,36.0820517 Z"/>
    <rect width="38" height="12" x="14" y="19" fill="#E43535" rx="6"/>
    <path fill="#FFF" d="M17,25 C17,23.3431458 18.3342595,22 19.9961002,22 L46.0038998,22 C47.6586002,22 49,23.3465171 49,25 L49,25 C49,26.6568542 47.6657405,28 46.0038998,28 L19.9961002,28 C18.3413998,28 17,26.6534829 17,25 L17,25 Z"/>
    <path fill="#FFAF40" d="M14.875,9.5 C14.875,6.46243388 17.3328519,4 20.3759961,4 L46.875,4 L46.875,9.5 C46.875,12.5375661 44.4171481,15 41.3740039,15 L14.875,15 L14.875,9.5 Z" transform="matrix(-1 0 0 1 61.75 0)"/>
  </g>
</svg>
