<svg xmlns="http://www.w3.org/2000/svg" width="64" height="64" viewBox="0 0 64 64">
  <g fill="none" fill-rule="evenodd">
    <path fill="#5EA7FF" d="M11.5853659,20 C6.41274771,20 3,25.9801966 3,33.3571429 C3,40.7340892 6.41274771,64 11.5853659,64 C14.6028872,64 14.9456474,44.6791409 19,44.6616468 C23.8348404,44.6791409 23.3971128,64 26.4146341,64 C31.5872523,64 35,40.7340892 35,33.3571429 C35,25.9801966 31.5872523,20 26.4146341,20 C23.9430894,20 21.4715447,22.3571429 19,22.3571429 C16.5284553,22.3571429 14.0569106,20 11.5853659,20 Z"/>
    <path fill="#9C4D4D" d="M41.3618055,17.7331259 L47.1044462,17.7331259 L47.1044462,57.861761 C47.1044462,59.4475721 45.8156856,60.7331259 44.2331259,60.7331259 L44.2331259,60.7331259 C42.6473394,60.7331259 41.3618055,59.4462213 41.3618055,57.861761 L41.3618055,17.7331259 Z" transform="rotate(-45 44.233 39.233)"/>
    <circle cx="19" cy="19" r="19" fill="#E3F4FF" stroke="#B4DFFB" stroke-width="2" transform="translate(8 2)"/>
    <path stroke="#ED9111" stroke-linecap="round" stroke-width="2" d="M14.6941173 21.1884582C14.6941173 21.1884582 14.1161125 19.1365663 17.8814295 18.3682367 21.6467466 17.5999071 19.849458 14.7661269 19.849458 14.7661269M22 24.4614783C22 24.4614783 24.8920327 21.4971323 27.2381998 24.0120306M33.251034 28.0943852C33.251034 28.0943852 36.0245531 24.1045953 33.8014191 22.2646218 31.5782851 20.4246482 34.7264277 17.5773092 34.7264277 17.5773092M27.7868549 15.2698096C27.7868549 15.2698096 27.0873235 11.2669632 25.0404533 11.2398457M33.9455437 10.5202272C33.9455437 10.5202272 37.6967998 10.9536053 38.6675064 13.9360297M25 32.2603305C25 32.2603305 28.4160082 32.7951482 31 32.6168756M20.2306532 8.48347091L25.3020904 6.46388493M40.3703469 20.6915583C40.3703469 20.6915583 41.783061 23.4312277 40.9198842 25.0696359M17 31.1694724C17 31.1694724 17.5878918 30.6910005 17.912312 27"/>
  </g>
</svg>
