<svg xmlns="http://www.w3.org/2000/svg" width="64" height="64" viewBox="0 0 64 64">
  <g fill="none" fill-rule="evenodd">
    <rect width="58" height="37" x="3" y="13" fill="#80D25B" rx="4"/>
    <rect width="10" height="3" x="7" y="35" fill="#D650C7"/>
    <rect width="10" height="3" x="19" y="35" fill="#D650C7"/>
    <rect width="10" height="3" x="31" y="35" fill="#D650C7"/>
    <rect width="10" height="3" x="43" y="35" fill="#D650C7"/>
    <path fill="#595959" d="M14.396,19.108 L12.29,26.752 C12.2813333,26.7866668 12.277,26.8256665 12.277,26.869 C12.277,26.929667 12.2878332,27.0379992 12.3095,27.194 C12.3311668,27.3500008 12.342,27.4713329 12.342,27.558 C12.342,27.8180013 12.2661674,28.0281659 12.1145,28.1885 C11.9628326,28.3488341 11.7786678,28.429 11.562,28.429 C11.2413317,28.429 10.8903352,28.257835 10.509,27.9155 C10.1276648,27.573165 9.937,27.2460016 9.937,26.934 C9.937,26.8819997 9.95866645,26.7866674 10.002,26.648 C10.0366668,26.5353328 10.0453334,26.4400004 10.028,26.362 L8.546,18.952 C8.53733329,18.891333 8.44850084,18.7960006 8.2795,18.666 C8.11049916,18.5359993 8.026,18.3973341 8.026,18.25 C8.026,17.8599981 8.39432965,17.665 9.131,17.665 C9.45166827,17.665 9.74416535,17.7169995 10.0085,17.821 C10.2728347,17.9250005 10.435333,18.0679991 10.496,18.25 C10.5133334,18.3020003 10.522,18.3539997 10.522,18.406 C10.522,18.4840004 10.4873337,18.5966659 10.418,18.744 C10.3486663,18.8913341 10.3226666,19.0126662 10.34,19.108 L11.276,23.996 L12.602,18.796 C12.6193334,18.7179996 12.628,18.6270005 12.628,18.523 L12.628,18.185 C12.628,17.916332 12.7493321,17.7040008 12.992,17.548 C13.1480008,17.4526662 13.3386655,17.405 13.564,17.405 C13.9106684,17.405 14.2356651,17.4981657 14.539,17.6845 C14.8423349,17.8708343 14.994,18.0896654 14.994,18.341 C14.994,18.4103337 14.9766668,18.4861663 14.942,18.5685 C14.9073332,18.6508337 14.8141674,18.7374995 14.6625,18.8285 C14.5108326,18.9195005 14.4220001,19.0126662 14.396,19.108 Z M17.646,18.25 C17.6720001,18.2760001 17.685,18.319333 17.685,18.38 C17.685,18.4580004 17.6590003,18.5923324 17.607,18.783 C17.546333,19.0170012 17.5073334,19.1773329 17.49,19.264 C17.4726666,19.3506671 17.4813332,19.5413319 17.516,19.836 C17.516,20.0180009 17.4618339,20.1371664 17.3535,20.1935 C17.2451661,20.2498336 17.1086675,20.278 16.944,20.278 C16.7099988,20.278 16.4716679,20.2303338 16.229,20.135 C15.9343319,20.0136661 15.787,19.8533343 15.787,19.654 C15.787,19.593333 15.8129997,19.5088339 15.865,19.4005 C15.9170003,19.2921661 15.9473333,19.2033337 15.956,19.134 C15.9733334,19.0646663 15.9733334,18.8913347 15.956,18.614 C15.9386666,18.3973322 15.9819995,18.2500004 16.086,18.172 C16.2246674,18.0679995 16.4716649,18.016 16.827,18.016 C17.2170019,18.016 17.4899992,18.0939992 17.646,18.25 Z M17.815,21.422 C17.815,21.5433339 17.747834,21.7318321 17.6135,21.9875 C17.479166,22.2431679 17.412,22.4533325 17.412,22.618 L17.412,26.44 C17.412,26.6133342 17.4596662,26.8581651 17.555,27.1745 C17.6503338,27.4908349 17.698,27.7096661 17.698,27.831 C17.698,28.0043342 17.6286674,28.1343329 17.49,28.221 C17.2733323,28.3596674 17.0393346,28.429 16.788,28.429 C16.458665,28.429 16.2246674,28.3163345 16.086,28.091 C15.9039991,27.8136653 15.813,26.9860069 15.813,25.608 C15.813,25.278665 15.8194999,24.7651702 15.8325,24.0675 C15.8455001,23.3698298 15.852,22.8606683 15.852,22.54 C15.852,22.4186661 15.8390001,22.260501 15.813,22.0655 C15.7869999,21.870499 15.774,21.7296671 15.774,21.643 C15.774,21.3569986 15.877999,21.110001 16.086,20.902 C16.1726671,20.8153329 16.3329988,20.772 16.567,20.772 C16.8010012,20.772 17.0349988,20.808833 17.269,20.8825 C17.5030012,20.956167 17.6524997,21.0406662 17.7175,21.136 C17.7825003,21.2313338 17.815,21.3266662 17.815,21.422 Z M23.028,26.258 C23.028,26.8646697 22.8113355,27.3824979 22.378,27.8115 C21.9446645,28.2405021 21.4333363,28.455 20.844,28.455 C20.4713315,28.455 20.0856687,28.2773351 19.687,27.922 C19.3749984,27.6359986 19.0933346,27.2850021 18.842,26.869 C18.6253322,26.5049982 18.5299999,26.2753338 18.556,26.18 C18.6513338,25.9633323 18.9503308,25.855 19.453,25.855 C19.661001,25.855 19.8256661,25.885333 19.947,25.946 C20.155001,26.0586672 20.2719999,26.2016658 20.298,26.375 C20.3240001,26.5743343 20.367333,26.6999997 20.428,26.752 C20.6100009,27.0293347 20.7746659,27.168 20.922,27.168 C21.0346672,27.168 21.1408328,27.0921674 21.2405,26.9405 C21.3401672,26.7888326 21.39,26.609001 21.39,26.401 C21.39,26.2709994 21.3683335,26.1410007 21.325,26.011 C21.2816665,25.8809993 21.0476688,25.681668 20.623,25.413 C20.1116641,25.0923317 19.7476677,24.8106679 19.531,24.568 C19.1583315,24.1519979 18.972,23.6666694 18.972,23.112 C18.972,22.4619968 19.1626648,21.8921691 19.544,21.4025 C19.9253352,20.9128309 20.4106637,20.668 21,20.668 C21.6066697,20.668 22.0703317,20.8976644 22.391,21.357 C22.6510013,21.7296685 22.7593336,22.1066648 22.716,22.488 C22.8113338,22.5920005 22.859,22.7653321 22.859,23.008 C22.859,23.2680013 22.7636676,23.4889991 22.573,23.671 C22.3823324,23.8530009 22.1873343,23.944 21.988,23.944 C21.6933319,23.944 21.4376677,23.749002 21.221,23.359 C21.160333,23.2549995 21.13,23.1163342 21.13,22.943 C21.13,22.8649996 21.1364999,22.7545007 21.1495,22.6115 C21.1625001,22.4684993 21.169,22.366667 21.169,22.306 C21.169,22.0806655 21.0866675,21.968 20.922,21.968 C20.6706654,21.968 20.545,22.2149975 20.545,22.709 C20.545,23.2116692 20.709665,23.6146652 21.039,23.918 C21.1690007,24.0393339 21.4506645,24.2126655 21.884,24.438 C22.2566685,24.6286676 22.5209992,24.8236657 22.677,25.023 C22.9110012,25.3263349 23.028,25.7379974 23.028,26.258 Z M29.814,27.454 C29.6839994,27.8786688 29.3633359,28.091 28.852,28.091 C28.6786658,28.091 28.5400005,28.060667 28.436,28 C28.2973326,27.9046662 28.2020003,27.7140014 28.15,27.428 C28.0459995,26.9339975 27.9420005,26.5483347 27.838,26.271 C27.8119999,26.747669 27.5520025,27.2308309 27.058,27.7205 C26.5639975,28.2101691 26.0656692,28.455 25.563,28.455 C24.9303302,28.455 24.4926679,28.0346709 24.25,27.194 C24.1633329,26.8819984 24.12,26.5873347 24.12,26.31 C24.12,25.503996 24.5316625,24.8150029 25.355,24.243 C26.0310034,23.8443313 26.7113299,23.450002 27.396,23.06 C27.4306668,22.9126659 27.448,22.7696674 27.448,22.631 C27.448,22.362332 27.3743341,22.2041669 27.227,22.1565 C27.0796659,22.1088331 26.9540005,22.085 26.85,22.085 C26.6679991,22.085 26.5185006,22.1434994 26.4015,22.2605 L26.07,22.592 C25.9659995,22.6613337 25.8316675,22.8216654 25.667,23.073 C25.5369994,23.2723343 25.3940008,23.3806666 25.238,23.398 C25.0126655,23.4240001 24.8090009,23.3460009 24.627,23.164 C24.4449991,22.9819991 24.354,22.7696679 24.354,22.527 C24.354,22.3883326 24.3886663,22.2626672 24.458,22.15 C24.6573343,21.820665 24.9563313,21.5346679 25.355,21.292 C25.9616697,20.9279982 26.7199954,20.746 27.63,20.746 C28.2106696,20.746 28.6093323,21.0233306 28.826,21.578 C28.9646674,21.9506685 29.0686663,22.6483282 29.138,23.671 C29.2160004,24.9103395 29.3113328,25.8159971 29.424,26.388 C29.4413334,26.5006672 29.5149993,26.6436658 29.645,26.817 C29.7750007,26.9903342 29.84,27.1419994 29.84,27.272 C29.84,27.332667 29.8313334,27.393333 29.814,27.454 Z M27.552,24.256 C27.2919987,24.3946674 27.0341679,24.5376659 26.7785,24.685 C26.5228321,24.8323341 26.2866678,25.0273321 26.07,25.27 C25.7579984,25.6253351 25.602,25.9286654 25.602,26.18 C25.602,26.388001 25.6799992,26.6046655 25.836,26.83 C25.9226671,26.9513339 26.0179995,27.012 26.122,27.012 C26.3473345,27.012 26.5921653,26.7606692 26.8565,26.258 C27.1208347,25.7553308 27.3526657,25.0880042 27.552,24.256 Z"/>
  </g>
</svg>
