<svg xmlns="http://www.w3.org/2000/svg" xmlns:xlink="http://www.w3.org/1999/xlink" width="64" height="64" viewBox="0 0 64 64">
  <defs>
    <polygon id="volcano-a" points="15 0 25 0 40 39 0 39"/>
  </defs>
  <g fill="none" fill-rule="evenodd">
    <g transform="translate(15 22)">
      <mask id="volcano-b" fill="#fff">
        <use xlink:href="#volcano-a"/>
      </mask>
      <use fill="#BD7575" xlink:href="#volcano-a"/>
      <polygon fill="#E43535" points="7.924 8.959 16.66 14.262 20.227 10.114 25.505 14.347 34.393 10.001 26.379 -2.405 13.853 -2.606" mask="url(#volcano-b)"/>
    </g>
    <path stroke="#9C4D4D" stroke-linecap="square" stroke-width="2" d="M3,61 L62.008474,61"/>
    <path fill="#E43535" d="M30.3866986,19.044947 C30.3866986,19.044947 32.0988321,14.993402 27.7622115,11.4576812 C23.4255909,7.92196047 30.2394003,4.37055778 32.4970417,7.35965038 C32.4970417,7.35965038 35.2262619,1.89840962 38.1263034,4.08268189 L41.733153,8.93792712 C41.733153,8.93792712 45.2733543,2.08043231 48.0608218,4.60354682 C48.0608218,4.60354682 50.3212636,10.8337634 44.1828984,13.6716372 C38.0445332,16.5095109 38.6029228,19.0404664 38.6029228,19.0404664 L30.3866986,19.044947 Z"/>
    <polygon fill="#9C4D4D" points="20.556 31 31 60.163 6 60.163 15.885 34.858" transform="matrix(-1 0 0 1 37 0)"/>
    <polygon fill="#9C4D4D" points="50.564 41 57.427 60.163 41 60.163 47.495 43.535"/>
  </g>
</svg>
