<?xml version="1.0" encoding="UTF-8"?>
<svg width="64px" height="64px" viewBox="0 0 64 64" version="1.1" xmlns="http://www.w3.org/2000/svg" xmlns:xlink="http://www.w3.org/1999/xlink">
    <!-- Generator: Sketch 43.2 (39069) - http://www.bohemiancoding.com/sketch -->
    <title>volleyball</title>
    <desc>Created with Sketch.</desc>
    <defs></defs>
    <g id="Outdoor-Activities-(142)" stroke="none" stroke-width="1" fill="none" fill-rule="evenodd" stroke-linecap="round">
        <circle id="Oval-53-Copy" stroke="#9C4D4D" stroke-width="2" fill="#ED9111" transform="translate(33.000000, 32.012193) rotate(-315.000000) translate(-33.000000, -32.012193) " cx="33" cy="32.0121933" r="29"></circle>
        <path d="M56.4908021,48.8664936 C56.4908021,48.8664936 30.0377615,48.5063282 21.5321991,27.5215314" id="Path-22" stroke="#9C4D4D" stroke-width="2"></path>
        <path d="M43.056097,59.0157407 C43.056097,59.0157407 17.0243964,55.5693172 9.99084768,31.4045886" id="Path-23" stroke="#9C4D4D" stroke-width="2"></path>
        <path d="M5.11943845,40.2569344 C5.11943845,40.2569344 10.2431929,25.0623128 20.9690106,27.2642158 C20.9690106,27.2642158 31.5021283,19.5088069 31.097229,3.00657832" id="Path-24" stroke="#9C4D4D" stroke-width="2"></path>
        <path d="M6.02252836,21.849882 C6.02252836,21.849882 15.2480392,10.0879197 29.4956017,14.134619" id="Path-25" stroke="#9C4D4D" stroke-width="2"></path>
        <path d="M29.0964375,38.192292 C29.0964375,38.192292 44.0352728,27.3448898 44.8167782,5.64205622" id="Path-26" stroke="#9C4D4D" stroke-width="2"></path>
        <path d="M43.5508465,46.3143661 C43.5508465,46.3143661 57.330041,35.764043 58.3122756,18.1916414" id="Path-27" stroke="#9C4D4D" stroke-width="2"></path>
    </g>
</svg>