<svg xmlns="http://www.w3.org/2000/svg" width="64" height="64" viewBox="0 0 64 64">
  <g fill="none" fill-rule="evenodd">
    <path fill="#5B68C0" d="M14,17 L60.0085917,17 C61.6607009,17 63,18.3408334 63,19.9982167 L63,55.0017833 C63,56.6576526 61.6639557,58 60.0085917,58 L14,58 L14,17 Z"/>
    <polygon fill="#0A3586" points="17 24 59 24 59 51 17 51"/>
    <path fill="#595959" d="M1,19.9982167 C1,18.3423474 2.34226429,17 3.99878564,17 L14,17 L14,58 L3.99878564,58 C2.34260206,58 1,56.6591666 1,55.0017833 L1,19.9982167 Z"/>
    <circle cx="7.5" cy="37.5" r="3.5" fill="#D8D8D8"/>
    <rect width="9" height="12" x="3" y="20" fill="#979797"/>
    <polygon fill="#979797" points="3 43 12 43 12 55 3 55"/>
    <rect width="9" height="45" x="41" y="13" fill="#979797"/>
    <rect width="5" height="4" x="43" y="8" fill="#979797"/>
    <rect width="9" height="2" x="41" y="58" fill="#595959"/>
    <rect width="3" height="4" x="44" y="60" fill="#979797"/>
    <rect width="9" height="16" x="41" y="11" fill="#595959"/>
  </g>
</svg>
