<svg xmlns="http://www.w3.org/2000/svg" width="64" height="64" viewBox="0 0 64 64">
  <g fill="none" fill-rule="evenodd">
    <path fill="#B4DFFB" d="M0,33 L4.7921896,36.5941422 C6.56381436,37.9228608 9.34804459,37.820461 11.0130574,36.3635748 L12.9869426,34.6364252 C14.6510082,33.1803678 17.3480446,33.179539 19.0130574,34.6364252 L20.9869426,36.3635748 C22.6510082,37.8196322 25.3480446,37.820461 27.0130574,36.3635748 L28.9869426,34.6364252 C30.6510082,33.1803678 33.3480446,33.179539 35.0130574,34.6364252 L36.9869426,36.3635748 C38.6510082,37.8196322 41.3480446,37.820461 43.0130574,36.3635748 L44.9869426,34.6364252 C46.6510082,33.1803678 49.3480446,33.179539 51.0130574,34.6364252 L52.9869426,36.3635748 C54.6510082,37.8196322 57.4302397,37.9273202 59.2078104,36.5941422 L64,33 L64,49 L0,49 L0,33 Z"/>
    <path fill="#5EA7FF" d="M0,43 L4.7921896,46.5941422 C6.56381436,47.9228608 9.34804459,47.820461 11.0130574,46.3635748 L12.9869426,44.6364252 C14.6510082,43.1803678 17.3480446,43.179539 19.0130574,44.6364252 L20.9869426,46.3635748 C22.6510082,47.8196322 25.3480446,47.820461 27.0130574,46.3635748 L28.9869426,44.6364252 C30.6510082,43.1803678 33.3480446,43.179539 35.0130574,44.6364252 L36.9869426,46.3635748 C38.6510082,47.8196322 41.3480446,47.820461 43.0130574,46.3635748 L44.9869426,44.6364252 C46.6510082,43.1803678 49.3480446,43.179539 51.0130574,44.6364252 L52.9869426,46.3635748 C54.6510082,47.8196322 57.4302397,47.9273202 59.2078104,46.5941422 L64,43 L64,59 L0,59 L0,43 Z"/>
    <path fill="#979797" d="M11,35.0423493 C11,35.0423493 14.0037074,30.1384154 21.1103269,28.3465791 C28.2169464,26.5547428 34.0520321,16.2852543 31.4468133,10 C31.4468133,10 28.7626226,12.4364412 20.7679251,12.8278798 C12.7732277,13.2193183 12.0126078,21.1304443 12.0126078,21.1304443 L11,35.0423493 Z" transform="matrix(-1 0 0 1 43.08 0)"/>
    <path fill="#595959" d="M32,35.0423493 C32,35.0423493 35.0037074,30.1384154 42.1103269,28.3465791 C49.2169464,26.5547428 55.0520321,16.2852543 52.4468133,10 C52.4468133,10 49.7626226,12.4364412 41.7679251,12.8278798 C33.7732277,13.2193183 33.0126078,21.1304443 33.0126078,21.1304443 L32,35.0423493 Z"/>
  </g>
</svg>
