<svg xmlns="http://www.w3.org/2000/svg" width="64" height="64" viewBox="0 0 64 64">
  <g fill="none" fill-rule="evenodd">
    <path fill="#595959" d="M19,27.9944363 C19,24.1315158 22.1362075,21 26.001725,21 L37.998275,21 C41.865221,21 45,24.1258188 45,27.9944363 L45,44 L19,44 L19,27.9944363 Z"/>
    <path stroke="#5EA7FF" stroke-dasharray="4" stroke-linecap="round" stroke-width="2" d="M31.7781746,25 C31.7781746,13.954305 26.8533068,5 20.7781746,5 C17.7406085,5 14.9906085,7.23857625 13,10.8578644"/>
    <path stroke="#B4DFFB" stroke-dasharray="4" stroke-linecap="round" stroke-width="2" d="M49.7781746,25 C49.7781746,13.954305 44.8533068,5 38.7781746,5 C35.7406085,5 32.9906085,7.23857625 31,10.8578644" transform="matrix(-1 0 0 1 80.778 0)"/>
    <path fill="#B4DFFB" d="M0,33 L4.7921896,36.5941422 C6.56381436,37.9228608 9.34804459,37.820461 11.0130574,36.3635748 L12.9869426,34.6364252 C14.6510082,33.1803678 17.3480446,33.179539 19.0130574,34.6364252 L20.9869426,36.3635748 C22.6510082,37.8196322 25.3480446,37.820461 27.0130574,36.3635748 L28.9869426,34.6364252 C30.6510082,33.1803678 33.3480446,33.179539 35.0130574,34.6364252 L36.9869426,36.3635748 C38.6510082,37.8196322 41.3480446,37.820461 43.0130574,36.3635748 L44.9869426,34.6364252 C46.6510082,33.1803678 49.3480446,33.179539 51.0130574,34.6364252 L52.9869426,36.3635748 C54.6510082,37.8196322 57.4302397,37.9273202 59.2078104,36.5941422 L64,33 L64,49 L0,49 L0,33 Z"/>
    <path fill="#5EA7FF" d="M0,43 L4.7921896,46.5941422 C6.56381436,47.9228608 9.34804459,47.820461 11.0130574,46.3635748 L12.9869426,44.6364252 C14.6510082,43.1803678 17.3480446,43.179539 19.0130574,44.6364252 L20.9869426,46.3635748 C22.6510082,47.8196322 25.3480446,47.820461 27.0130574,46.3635748 L28.9869426,44.6364252 C30.6510082,43.1803678 33.3480446,43.179539 35.0130574,44.6364252 L36.9869426,46.3635748 C38.6510082,47.8196322 41.3480446,47.820461 43.0130574,46.3635748 L44.9869426,44.6364252 C46.6510082,43.1803678 49.3480446,43.179539 51.0130574,44.6364252 L52.9869426,46.3635748 C54.6510082,47.8196322 57.4302397,47.9273202 59.2078104,46.5941422 L64,43 L64,59 L0,59 L0,43 Z"/>
  </g>
</svg>
