<svg xmlns="http://www.w3.org/2000/svg" width="64" height="64" viewBox="0 0 64 64">
  <g fill="none" fill-rule="evenodd">
    <circle cx="24" cy="33" r="22" fill="#595959" stroke="#595959" stroke-linecap="round" stroke-width="2"/>
    <polygon fill="#595959" points="43 36 50 38 50 43 41 45"/>
    <path fill="#595959" d="M55.1761961,53.4545513 C50.8946115,51.0599578 48,46.4816531 48,41.2272757 C48,35.9728982 50.8946115,31.3945935 55.1761961,29 C55.0602408,29.7253377 55,30.4692717 55,31.2272757 C55,35.144652 56.6089344,38.6862416 59.2020345,41.2272757 C56.6089344,43.7683097 55,47.3098993 55,51.2272757 C55,51.9852797 55.0602408,52.7292137 55.1761961,53.4545513 Z"/>
    <circle cx="15" cy="25" r="5" fill="#FFF"/>
    <circle cx="15" cy="25" r="2" fill="#595959"/>
    <path fill="#FFF" stroke="#595959" stroke-linecap="round" stroke-width="2" d="M2.03336187,34.2219475 C2.66741398,45.8038412 12.259768,55 24,55 C30.0523366,55 35.533849,52.556011 39.511469,48.601101 C33.5381566,44.0962539 20.7342353,34.9902375 12.8694116,33.4100678 C8.52970739,32.5381513 4.85447538,33.1736662 2.03336187,34.2219475 Z"/>
    <path stroke="#595959" stroke-linecap="square" stroke-width="2" d="M11 33L11 50M18 36L18 53M25 38L25 55"/>
    <path fill="#595959" d="M20,9.6891706 C20,9.6891706 27.17933,-1.358983 32.0706064,3.03122379 C36.9618828,7.42143058 20,9.6891706 20,9.6891706 Z"/>
    <path fill="#595959" d="M6.12479001,9.6891706 C6.12479001,9.6891706 13.2931251,-1.4591376 18.1844015,2.9310692 C23.0756779,7.32127599 6.12479001,9.6891706 6.12479001,9.6891706 Z" transform="matrix(-1 0 0 1 25.195 0)"/>
  </g>
</svg>
