<svg xmlns="http://www.w3.org/2000/svg" width="64" height="64" viewBox="0 0 64 64">
  <g fill="none" fill-rule="evenodd">
    <path fill="#5B68C0" d="M35.0714286,21 C30.8109462,21 28,25.8928881 28,31.9285714 C28,37.9642548 30.8109462,57 35.0714286,57 C37.5568423,57 38.1962339,41.1920244 41.5356448,41.177711 C45.5179129,41.1920244 44.8003005,57 47.2857143,57 C51.5461966,57 54.3571429,37.9642548 54.3571429,31.9285714 C54.3571429,25.8928881 51.5461966,21 47.2857143,21 C45.25,21 43.5713591,22.9630984 41.5356448,22.9630984 C39.4999305,22.9630984 37.1071429,21 35.0714286,21 Z"/>
    <path stroke="#FCC24C" stroke-linecap="round" stroke-width="2" d="M25,20 L17,12"/>
    <path stroke="#FCC24C" stroke-linecap="round" stroke-linejoin="round" stroke-width="2" d="M32 14L32 4M9 27L20 27"/>
  </g>
</svg>
