<svg xmlns="http://www.w3.org/2000/svg" width="64" height="64" viewBox="0 0 64 64">
  <g fill="none" fill-rule="evenodd">
    <path fill="#5EA7FF" d="M23,4 C16.372583,4 12,11.6111593 12,21 C12,30.3888407 16.372583,60 23,60 C26.8661992,60 27.3053608,35.4098157 32.5,35.3875505 C38.6946392,35.4098157 38.1338008,60 42,60 C48.627417,60 53,30.3888407 53,21 C53,11.6111593 48.627417,4 42,4 C38.8333333,4 35.6666667,7 32.5,7 C29.3333333,7 26.1666667,4 23,4 Z"/>
    <circle cx="12" cy="18" r="5" fill="#ECECEC"/>
    <circle cx="18" cy="9" r="5" fill="#ECECEC"/>
    <circle cx="25.5" cy="6.5" r="6.5" fill="#ECECEC"/>
    <circle cx="45.5" cy="9.5" r="6.5" fill="#ECECEC"/>
    <circle cx="12" cy="11" r="5" fill="#ECECEC"/>
    <circle cx="51" cy="14" r="5" fill="#ECECEC"/>
    <circle cx="12.5" cy="29.5" r="2.5" fill="#ECECEC"/>
    <circle cx="52.5" cy="19.5" r="2.5" fill="#ECECEC"/>
  </g>
</svg>
