<svg xmlns="http://www.w3.org/2000/svg" width="64" height="64" viewBox="0 0 64 64">
  <g fill="none" fill-rule="evenodd">
    <rect width="34" height="39" x="13" y="13" fill="#0A3586" rx="6"/>
    <circle cx="30" cy="33" r="6" fill="#ED9111"/>
    <path stroke="#ED9111" stroke-linecap="round" stroke-linejoin="round" stroke-width="2" d="M30,24 L30,21 M36.363961,26.636039 L38.4852814,24.5147186 M39,33 L42,33 M36.363961,39.363961 L38.4852814,41.4852814 M30,42 L30,45 M23.636039,39.363961 L21.5147186,41.4852814 M21,33 L18,33 M23.636039,26.636039 L21.5147186,24.5147186"/>
    <rect width="2" height="9" x="47" y="24" fill="#5B68C0"/>
    <rect width="2" height="9" x="47" y="35" fill="#5B68C0"/>
    <path fill="#5EA7FF" d="M19.4640367,3.94779813 C19.7600411,2.31977418 21.343312,1 22.9942021,1 L37.0057979,1 C38.6594501,1 40.2412467,2.32685702 40.5359633,3.94779813 L42,12 L18,12 L19.4640367,3.94779813 Z"/>
    <path fill="#5EA7FF" d="M19.4640367,55.9477981 C19.7600411,54.3197742 21.343312,53 22.9942021,53 L37.0057979,53 C38.6594501,53 40.2412467,54.326857 40.5359633,55.9477981 L42,64 L18,64 L19.4640367,55.9477981 Z" transform="matrix(1 0 0 -1 0 117)"/>
  </g>
</svg>
