<svg xmlns="http://www.w3.org/2000/svg" width="64" height="64" viewBox="0 0 64 64">
  <g fill="none" fill-rule="evenodd">
    <rect width="34" height="39" x="15" y="13" fill="#0A3586" rx="6"/>
    <rect width="2" height="9" x="49" y="24" fill="#5B68C0"/>
    <rect width="2" height="9" x="49" y="35" fill="#5B68C0"/>
    <circle cx="27" cy="22" r="4" fill="#5EA7FF"/>
    <circle cx="27" cy="44" r="4" fill="#FF78C7"/>
    <circle cx="22" cy="33" r="4" fill="#D650C7"/>
    <circle cx="32" cy="33" r="4" fill="#E43535"/>
    <circle cx="42" cy="33" r="4" fill="#80D25B"/>
    <circle cx="37" cy="22" r="4" fill="#ED9111"/>
    <circle cx="37" cy="44" r="4" fill="#FCC24C"/>
    <path fill="#5EA7FF" d="M21.4640367,3.94779813 C21.7600411,2.31977418 23.343312,1 24.9942021,1 L39.0057979,1 C40.6594501,1 42.2412467,2.32685702 42.5359633,3.94779813 L44,12 L20,12 L21.4640367,3.94779813 Z"/>
    <path fill="#5EA7FF" d="M21.4640367,55.9477981 C21.7600411,54.3197742 23.343312,53 24.9942021,53 L39.0057979,53 C40.6594501,53 42.2412467,54.326857 42.5359633,55.9477981 L44,64 L20,64 L21.4640367,55.9477981 Z" transform="matrix(1 0 0 -1 0 117)"/>
  </g>
</svg>
