<svg xmlns="http://www.w3.org/2000/svg" width="64" height="64" viewBox="0 0 64 64">
  <g fill="none" fill-rule="evenodd">
    <rect width="34" height="39" x="16" y="13" fill="#0A3586" rx="6"/>
    <path fill="#B4DFFB" d="M26,39.9775785 C23.19675,39.7249641 21,37.3690213 21,34.5 C21,31.4624339 23.4624339,29 26.5,29 C27.400581,29 28.2506073,29.2164505 29.0008938,29.6001666 C29.0002988,29.5668492 29,29.5334595 29,29.5 C29,26.4624339 31.4624339,24 34.5,24 C37.5375661,24 40,26.4624339 40,29.5 C40,30.0233635 39.9268996,30.5296535 39.790352,31.0092166 C42.1403215,31.1588683 44,33.1122586 44,35.5 C44,37.9852814 41.9852814,40 39.5,40 C39.3309955,40 39.1641669,39.9906833 39,39.9725356 L39,40 L26,40 L26,39.9775785 Z"/>
    <rect width="2" height="9" x="50" y="24" fill="#5B68C0"/>
    <rect width="2" height="9" x="50" y="35" fill="#5B68C0"/>
    <path fill="#5EA7FF" d="M22.4640367,3.94779813 C22.7600411,2.31977418 24.343312,1 25.9942021,1 L40.0057979,1 C41.6594501,1 43.2412467,2.32685702 43.5359633,3.94779813 L45,12 L21,12 L22.4640367,3.94779813 Z"/>
    <path fill="#5EA7FF" d="M22.4640367,55.9477981 C22.7600411,54.3197742 24.343312,53 25.9942021,53 L40.0057979,53 C41.6594501,53 43.2412467,54.326857 43.5359633,55.9477981 L45,64 L21,64 L22.4640367,55.9477981 Z" transform="matrix(1 0 0 -1 0 117)"/>
  </g>
</svg>
