<svg xmlns="http://www.w3.org/2000/svg" width="64" height="64" viewBox="0 0 64 64">
  <g fill="none" fill-rule="evenodd">
    <circle cx="25" cy="39" r="23" fill="#FF78C7"/>
    <circle cx="25" cy="39" r="20" fill="#B4DFFB"/>
    <path fill="#FFF" d="M23,22.9940603 C23,21.8927712 23.8877296,21 25,21 L25,21 C26.1045695,21 27,21.8945138 27,22.9940603 L27,37 L23,37 L23,22.9940603 Z"/>
    <path fill="#FFF" d="M29.0710678,39.0651281 C29.0710678,37.963839 29.9587975,37.0710678 31.0710678,37.0710678 L31.0710678,37.0710678 C32.1756373,37.0710678 33.0710678,37.9655816 33.0710678,39.0651281 L33.0710678,53.0710678 L29.0710678,53.0710678 L29.0710678,39.0651281 Z" transform="rotate(135 31.071 45.071)"/>
    <circle cx="25" cy="39" r="4" fill="#FFAF40"/>
    <path fill="#5B68C0" d="M45,30 C52.1797017,30 58,24.1797017 58,17 C58,9.82029825 52.1797017,4 45,4 C37.8202983,4 32,9.82029825 32,17 C32,20.5898509 32,30 32,30 C32,30 41.4101491,30 45,30 Z"/>
    <path fill="#FFDD95" d="M44.448,20.278 C44.5973341,20.4833344 44.672,20.683999 44.672,20.88 C44.672,21.150668 44.536668,21.3793324 44.266,21.566 C43.995332,21.7526676 43.7200014,21.846 43.44,21.846 C43.3093327,21.846 43.1133346,21.8180003 42.852,21.762 C42.6279989,21.7059997 42.4740004,21.6826666 42.39,21.692 C41.9606645,21.6546665 41.3400041,21.7246658 40.528,21.902 C39.4919948,22.1260011 38.936667,22.2426666 38.862,22.252 C38.6099987,22.2800001 38.3066684,22.2193341 37.952,22.07 C37.5319979,21.8926658 37.3173334,21.668668 37.308,21.398 C37.2986666,21.201999 37.4106655,21.0386673 37.644,20.908 C37.9240014,20.7493325 38.0919997,20.6140006 38.148,20.502 C38.8200034,19.7833297 39.5993289,18.7940063 40.486,17.534 C41.8393401,15.6019903 42.516,14.1833379 42.516,13.278 C42.516,12.9419983 42.418001,12.6806676 42.222,12.494 C42.2033332,12.4846666 42.1800001,12.48 42.152,12.48 C42.0026659,12.48 41.7180021,12.6573316 41.298,13.012 C40.9246648,13.3293349 40.6960004,13.5486661 40.612,13.67 C40.5093328,13.744667 40.420667,13.9266652 40.346,14.216 C40.2806663,14.4680013 40.1360011,14.6406662 39.912,14.734 C39.8466663,14.7620001 39.7673338,14.776 39.674,14.776 C39.3939986,14.776 39.1046682,14.6686677 38.806,14.454 C38.4793317,14.2113321 38.2973335,13.9406682 38.26,13.642 C38.2413332,13.4926659 38.3813318,13.2686682 38.68,12.97 C38.9786682,12.6713318 39.3053316,12.4193344 39.66,12.214 C40.7146719,11.1406613 41.610663,10.6086666 42.348,10.618 C43.7200069,10.6460001 44.406,11.3553264 44.406,12.746 C44.406,13.8566722 43.9906708,15.1866589 43.16,16.736 C42.3759961,18.210674 41.4986715,19.3819957 40.528,20.25 C40.7893346,20.2126665 41.5546603,20.0633346 42.824,19.802 C43.2533355,19.7179996 43.4586668,19.676 43.44,19.676 C43.8133352,19.676 44.1493318,19.8766647 44.448,20.278 Z M52.96,17.128 C52.9786668,17.3800013 52.8830011,17.5993324 52.673,17.786 C52.462999,17.9726676 52.2320013,18.066 51.98,18.066 C51.9146663,18.066 51.814334,18.0473335 51.679,18.01 C51.543666,17.9726665 51.4293338,17.9586666 51.336,17.968 C51.1773325,17.9960001 50.9253351,18.0146666 50.58,18.024 C50.58,19.3586733 50.5706668,20.0773328 50.552,20.18 C50.552,20.3666676 50.6149994,20.6139985 50.741,20.922 C50.8670006,21.2300015 50.93,21.4493327 50.93,21.58 C50.93,21.8973349 50.6640027,22.1819987 50.132,22.434 C50.0759997,22.4620001 50.0060004,22.476 49.922,22.476 C49.5859983,22.476 49.222002,22.2940018 48.83,21.93 C48.437998,21.5659982 48.2653331,21.2066684 48.312,20.852 C48.3213334,20.777333 48.4029992,20.6490009 48.557,20.467 C48.7110008,20.2849991 48.788,20.0866677 48.788,19.872 C48.7693332,19.1626631 48.76,18.6680014 48.76,18.388 C48.3119978,18.5093339 47.7240036,18.6213328 46.996,18.724 C46.9119996,18.7426668 46.7860008,18.8126661 46.618,18.934 C46.4873327,19.0366672 46.3613339,19.0786668 46.24,19.06 C45.9879987,19.0226665 45.7360013,18.8546682 45.484,18.556 C45.2039986,18.2199983 45.0826665,17.8840017 45.12,17.548 C45.1386668,17.3333323 45.2366658,17.1793338 45.414,17.086 C45.6380011,16.9646661 45.7733331,16.866667 45.82,16.792 L48.676,11.668 C48.7320003,11.5653328 48.7576667,11.3973345 48.753,11.164 C48.7483333,10.9306655 48.7879996,10.7626672 48.872,10.66 C48.9933339,10.5106659 49.1566656,10.436 49.362,10.436 C49.7353352,10.436 50.1389978,10.6273314 50.573,11.01 C51.0070022,11.3926686 51.224,11.7613316 51.224,12.116 C51.224,12.2933342 51.1120011,12.6059978 50.888,13.054 C50.6639989,13.5020022 50.552,13.8706652 50.552,14.16 L50.552,16.372 C50.7946679,16.2693328 51.1773307,16.1573339 51.7,16.036 C51.9893348,16.0173332 52.2669987,16.1176656 52.533,16.337 C52.7990013,16.5563344 52.9413332,16.8199985 52.96,17.128 Z M48.844,14.524 L47.584,16.96 L48.76,16.708 L48.844,14.524 Z"/>
  </g>
</svg>
