<svg xmlns="http://www.w3.org/2000/svg" width="64" height="64" viewBox="0 0 64 64">
  <g fill="none" fill-rule="evenodd">
    <rect width="34" height="39" x="16" y="13" fill="#0A3586" rx="6"/>
    <rect width="2" height="9" x="50" y="24" fill="#5B68C0"/>
    <rect width="2" height="9" x="50" y="35" fill="#5B68C0"/>
    <circle cx="33" cy="33" r="7" fill="#80D25B"/>
    <path fill="#5EA7FF" d="M22.4640367,3.94779813 C22.7600411,2.31977418 24.343312,1 25.9942021,1 L40.0057979,1 C41.6594501,1 43.2412467,2.32685702 43.5359633,3.94779813 L45,12 L21,12 L22.4640367,3.94779813 Z"/>
    <path fill="#5EA7FF" d="M22.4640367,55.9477981 C22.7600411,54.3197742 24.343312,53 25.9942021,53 L40.0057979,53 C41.6594501,53 43.2412467,54.326857 43.5359633,55.9477981 L45,64 L21,64 L22.4640367,55.9477981 Z" transform="matrix(1 0 0 -1 0 117)"/>
  </g>
</svg>
