<svg xmlns="http://www.w3.org/2000/svg" width="64" height="64" viewBox="0 0 64 64">
  <g fill="none" fill-rule="evenodd">
    <path stroke="#5EA7FF" stroke-linecap="round" stroke-width="2" d="M46 13C46 9.13400675 42.8659932 6 39 6 35.1340068 6 32 9.13400675 32 13M32 13C32 9.13400675 28.8659932 6 25 6 21.1340068 6 18 9.13400675 18 13"/>
    <polygon fill="#D8D8D8" points="30 37 34 37 36 59 28 59"/>
    <path stroke="#5EA7FF" stroke-linecap="square" stroke-width="2" d="M32,13 L32,30.0227155"/>
    <path fill="#979797" d="M22 31L42 31 42 34C42 35.6568542 40.656688 37 39.0057979 37L24.9942021 37C23.3405499 37 22 35.6534829 22 34L22 31zM18 43L46 43 46 46C46 47.6568542 44.6495018 49 43.0035095 49L20.9964905 49C19.3415745 49 18 47.6534829 18 46L18 43zM12 56L52 56 52 59C52 60.6568542 50.6576906 62 48.9934988 62L15.0065012 62C13.3460564 62 12 60.6534829 12 59L12 56z"/>
    <path stroke="#5EA7FF" stroke-linecap="round" stroke-width="2" d="M50 26C50 21.0294373 45.9705627 17 41 17 36.0294373 17 32 21.0294373 32 26M32 26C32 21.0294373 27.9705627 17 23 17 18.0294373 17 14 21.0294373 14 26"/>
  </g>
</svg>
