<svg xmlns="http://www.w3.org/2000/svg" width="64" height="64" viewBox="0 0 64 64">
  <g fill="none" fill-rule="evenodd">
    <path fill="#325AA6" d="M34.6358081,11.4269908 C36.9898979,7.00803524 41.6436668,4 47,4 C54.7319865,4 61,10.2680135 61,18 C61,23.0301751 58.3471423,27.4407421 54.3641919,29.9089359 C55.4082832,27.9490305 56,25.7115801 56,23.3359268 C56,15.6039403 49.7319865,9.33592677 42,9.33592677 C39.2981886,9.33592677 36.7751334,10.1012727 34.6358081,11.4269908 Z"/>
    <path fill="#5EA7FF" d="M4,53 L59,53 L59,56.5 C59,58.4329966 57.4425524,60 55.4968341,60 L7.50316588,60 C5.56842079,60 4,58.4290634 4,56.5 L4,53 Z"/>
    <polygon fill="#325AA6" points="4.035 51.002 12.747 31.105 18.067 36.468 29.616 6.856 48.727 44.409 54.806 38.902 59.051 51.002"/>
    <path stroke="#5EA7FF" stroke-linecap="round" stroke-linejoin="round" stroke-width="2" d="M49 26L49 30M47 28L51 28M19 6L19 10M17 8L21 8"/>
    <polyline stroke="#5EA7FF" stroke-linecap="round" stroke-width="2" points="14.336 38.475 19.463 42.336 27.833 20.851"/>
  </g>
</svg>
