<svg xmlns="http://www.w3.org/2000/svg" width="64" height="64" viewBox="0 0 64 64">
  <g fill="none" fill-rule="evenodd">
    <path fill="#D8D8D8" d="M27,41 L35,41 L34.4182959,46.5261893 C34.1872774,48.7208644 34.5363399,52.1984096 35.2029289,54.3092749 L37,60 L25,60 L26.7970711,54.3092749 C27.4614304,52.2054704 27.8119076,48.7131227 27.5817041,46.5261893 L27,41 Z"/>
    <path stroke="#5EA7FF" stroke-linecap="square" stroke-width="2" d="M31,13 L31,35.0227155"/>
    <path stroke="#5EA7FF" stroke-linecap="round" stroke-width="2" d="M45 13C45 9.13400675 41.8659932 6 38 6 34.1340068 6 31 9.13400675 31 13M31 13C31 9.13400675 27.8659932 6 24 6 20.1340068 6 17 9.13400675 17 13"/>
    <path fill="#979797" d="M18,33 C18,40.1797017 23.8202983,46 31,46 C38.1797017,46 44,40.1797017 44,33 L18,33 Z"/>
    <path stroke="#5EA7FF" stroke-linecap="round" stroke-width="2" d="M49 26C49 21.0294373 44.9705627 17 40 17 35.0294373 17 31 21.0294373 31 26M31 26C31 21.0294373 26.9705627 17 22 17 17.0294373 17 13 21.0294373 13 26"/>
    <rect width="16" height="3" x="23" y="60" fill="#979797"/>
  </g>
</svg>
