<svg xmlns="http://www.w3.org/2000/svg" width="64" height="64" viewBox="0 0 64 64">
  <g fill="none" fill-rule="evenodd">
    <path fill="#D8D8D8" fill-rule="nonzero" d="M46.994313,23.0490135 L17.0357719,23.0490135 C12.0891871,23.0490135 8.07443486,27.0644363 8.07443486,32.0061127 L8.07443486,38.963212 C8.07443486,40.0677815 8.96986536,40.963212 10.0744349,40.963212 C11.1790044,40.963212 12.0744349,40.0677815 12.0744349,38.963212 L12.0744349,32.0061127 C12.0744349,29.2734258 14.2984757,27.0490135 17.0357719,27.0490135 L46.994313,27.0490135 C48.0988825,27.0490135 48.994313,26.153583 48.994313,25.0490135 C48.994313,23.944444 48.0988825,23.0490135 46.994313,23.0490135 Z"/>
    <rect width="4" height="9" x="33" y="8" fill="#D8D8D8"/>
    <circle cx="35" cy="25" r="9" fill="#979797"/>
    <rect width="16" height="2" x="27" y="6" fill="#979797"/>
    <circle cx="44" cy="7" r="3" fill="#979797"/>
    <circle cx="26" cy="7" r="3" fill="#979797"/>
    <rect width="10" height="4" x="5" y="38" fill="#D8D8D8"/>
    <path fill="#5EA7FF" d="M10,57 C12.209139,57 14,55.209139 14,53 C14,50.790861 10,45 10,45 C10,45 6,50.790861 6,53 C6,55.209139 7.790861,57 10,57 Z"/>
  </g>
</svg>
