<svg xmlns="http://www.w3.org/2000/svg" width="64" height="64" viewBox="0 0 64 64">
  <g fill="none" fill-rule="evenodd">
    <polygon fill="#E6E6E6" points="19.045 3 52 3 52 61 12 61 12 9.065"/>
    <polygon fill="#CDCDCD" points="19 3 19 9 12 9"/>
    <path fill="#979797" d="M20.93,38.418 C20.9486668,38.5300006 20.9393335,38.6606659 20.902,38.81 C20.827333,39.0433345 20.7853334,39.1739999 20.776,39.202 C20.7666666,39.3513341 20.7550001,39.5076659 20.741,39.671 C20.7269999,39.8343342 20.6756671,39.9626662 20.587,40.056 C20.4983329,40.1493338 20.3233346,40.196 20.062,40.196 C19.8006654,40.196 19.572001,40.1446672 19.376,40.042 C19.1426655,39.9299994 19.0213334,39.776001 19.012,39.58 C19.012,39.4959996 19.0376664,39.3933339 19.089,39.272 C19.1403336,39.1506661 19.1729999,39.0573337 19.187,38.992 C19.2010001,38.9266663 19.2033334,38.7493348 19.194,38.46 C19.194,38.2453323 19.2476661,38.0866672 19.355,37.984 C19.4623339,37.8813328 19.6326655,37.83 19.866,37.83 C20.1086679,37.83 20.3373323,37.8836661 20.552,37.991 C20.7666677,38.0983339 20.8926665,38.2406658 20.93,38.418 Z M31.472,32.356 C31.5000001,32.430667 31.514,32.5006663 31.514,32.566 C31.514,32.7153341 31.4300008,32.8973323 31.262,33.112 C31.0566656,33.3640013 30.9306669,33.5599993 30.884,33.7 L29.344,38.348 C29.2973331,38.4973341 29.274,38.6746656 29.274,38.88 L29.274,39.188 C29.2833334,39.3186673 29.288,39.4166663 29.288,39.482 C29.288,39.8273351 29.1713345,40.0839992 28.938,40.252 C28.7046655,40.4200008 28.4386682,40.504 28.14,40.504 C27.6919978,40.504 27.3186682,40.3360017 27.02,40 C26.8706659,39.8319992 26.796,39.6406677 26.796,39.426 C26.796,39.1086651 26.7866668,38.9080004 26.768,38.824 L25.928,35.716 L25.116,38.516 C25.0879999,38.6186672 25.0646668,38.8146652 25.046,39.104 C25.0273332,39.3373345 24.9760004,39.5239993 24.892,39.664 C24.5373316,40.2426696 24.1033359,40.532 23.59,40.532 C23.4126658,40.532 23.2493341,40.4806672 23.1,40.378 C22.9133324,40.2566661 22.8013335,40.0700013 22.764,39.818 C22.7266665,39.5659987 22.6893335,39.3186679 22.652,39.076 L21.42,34.288 C21.3919999,34.1666661 21.3080007,33.9426683 21.168,33.616 C21.0559994,33.3639987 21,33.1493342 21,32.972 C21,32.8506661 21.0233331,32.7293339 21.07,32.608 C21.1540004,32.3466654 21.4899971,32.216 22.078,32.216 C22.4046683,32.216 22.6239994,32.2626662 22.736,32.356 C22.8760007,32.4773339 22.9506666,32.673332 22.96,32.944 C22.9693334,33.3546687 22.9786666,33.5786665 22.988,33.616 L23.828,36.976 L25.004,33.532 C25.0226668,33.4666663 25.032,33.4013337 25.032,33.336 C25.032,33.2799997 25.0203335,33.1983339 24.997,33.091 C24.9736666,32.9836661 24.962,32.9020003 24.962,32.846 C24.962,32.6406656 25.0739989,32.4820006 25.298,32.37 C25.4846676,32.2673328 25.6899989,32.216 25.914,32.216 C26.2220015,32.216 26.4786656,32.2906659 26.684,32.44 C26.9453346,32.6266676 27.0899999,32.8669985 27.118,33.161 C27.1460001,33.4550015 27.1693332,33.7466652 27.188,34.036 L28.028,37.396 L29.372,33.364 C29.3906668,33.3079997 29.4,33.2473337 29.4,33.182 C29.4,33.107333 29.3860001,33.0070006 29.358,32.881 C29.3299999,32.7549994 29.316,32.6593337 29.316,32.594 C29.316,32.5099996 29.3346665,32.430667 29.372,32.356 C29.5120007,32.1039987 29.8806637,31.978 30.478,31.978 C31.0380028,31.978 31.3693328,32.1039987 31.472,32.356 Z M37.66,39.412 C37.5199993,39.8693356 37.1746694,40.098 36.624,40.098 C36.4373324,40.098 36.2880006,40.0653337 36.176,40 C36.0266659,39.8973328 35.9240003,39.6920015 35.868,39.384 C35.7559994,38.8519973 35.6440006,38.4366682 35.532,38.138 C35.5039999,38.6513359 35.2240027,39.171664 34.692,39.699 C34.1599973,40.226336 33.623336,40.49 33.082,40.49 C32.4006633,40.49 31.9293346,40.0373379 31.668,39.132 C31.5746662,38.7959983 31.528,38.4786682 31.528,38.18 C31.528,37.3119957 31.9713289,36.5700031 32.858,35.954 C33.5860036,35.5246645 34.318663,35.1000021 35.056,34.68 C35.0933335,34.5213325 35.112,34.3673341 35.112,34.218 C35.112,33.9286652 35.0326675,33.7583336 34.874,33.707 C34.7153325,33.6556664 34.5800006,33.63 34.468,33.63 C34.271999,33.63 34.1110006,33.6929994 33.985,33.819 L33.628,34.176 C33.5159994,34.250667 33.3713342,34.423332 33.194,34.694 C33.0539993,34.9086677 32.9000008,35.0253332 32.732,35.044 C32.4893321,35.0720001 32.270001,34.988001 32.074,34.792 C31.877999,34.595999 31.78,34.3673346 31.78,34.106 C31.78,33.9566659 31.817333,33.8213339 31.892,33.7 C32.1066677,33.3453316 32.4286645,33.0373346 32.858,32.776 C33.5113366,32.383998 34.3279951,32.188 35.308,32.188 C35.9333365,32.188 36.3626655,32.4866637 36.596,33.084 C36.7453341,33.4853353 36.857333,34.2366612 36.932,35.338 C37.0160004,36.6726733 37.1186661,37.6479969 37.24,38.264 C37.2586668,38.3853339 37.3379993,38.5393324 37.478,38.726 C37.6180007,38.9126676 37.688,39.0759993 37.688,39.216 C37.688,39.2813337 37.6786668,39.3466663 37.66,39.412 Z M35.224,35.968 C34.9439986,36.1173341 34.6663347,36.2713325 34.391,36.43 C34.1156653,36.5886675 33.8613345,36.7986654 33.628,37.06 C33.2919983,37.4426686 33.124,37.769332 33.124,38.04 C33.124,38.2640011 33.2079992,38.4973321 33.376,38.74 C33.4693338,38.8706673 33.5719994,38.936 33.684,38.936 C33.9266679,38.936 34.1903319,38.665336 34.475,38.124 C34.7596681,37.582664 35.0093323,36.8640045 35.224,35.968 Z M44.548,32.44 C44.6133337,32.5613339 44.646,32.6873327 44.646,32.818 C44.646,33.0046676 44.5666675,33.2379986 44.408,33.518 C44.1839989,33.8913352 44.0533335,34.1293328 44.016,34.232 C43.6053313,35.4080059 43.0780032,36.891991 42.434,38.684 C42.3126661,39.3000031 42.1586676,39.7386654 41.972,40 C41.7386655,40.3546684 41.3933356,40.5180001 40.936,40.49 C40.4973311,40.4619999 40.2033341,40.3733341 40.054,40.224 C39.9419994,40.1119994 39.886,39.9393345 39.886,39.706 L39.886,39.412 C39.886,39.2439992 39.8720001,39.1040006 39.844,38.992 L38.416,33.868 C38.3879999,33.7559994 38.2666677,33.5740013 38.052,33.322 C37.8746658,33.125999 37.8046665,32.9440008 37.842,32.776 C37.9353338,32.3653313 38.2666638,32.16 38.836,32.16 C38.9573339,32.16 39.0693328,32.1693332 39.172,32.188 C39.5360018,32.262667 39.8953316,32.901994 40.25,34.106 C40.5393348,35.235339 40.8333318,36.3599944 41.132,37.48 L42.588,33 C42.662667,32.7759989 42.7233331,32.6220004 42.77,32.538 C42.8540004,32.3886659 42.9729992,32.2720004 43.127,32.188 C43.2810008,32.1039996 43.4699989,32.062 43.694,32.062 C44.1233355,32.062 44.4079993,32.1879987 44.548,32.44 Z"/>
  </g>
</svg>
