<svg xmlns="http://www.w3.org/2000/svg" xmlns:xlink="http://www.w3.org/1999/xlink" width="64" height="64" viewBox="0 0 64 64">
  <defs>
    <circle id="webbrush-a" cx="24.811" cy="24" r="24"/>
  </defs>
  <g fill="none" fill-rule="evenodd">
    <g transform="translate(0 13)">
      <mask id="webbrush-b" fill="#fff">
        <use xlink:href="#webbrush-a"/>
      </mask>
      <use fill="#5EA7FF" xlink:href="#webbrush-a"/>
      <path fill="#E8E8E8" d="M37.4768987 17.0051965C37.4768987 17.0051965 31.6488785 14.6267342 29.9129423 15.8159654 28.1770061 17.0051965 29.1043701 22.6205727 29.1043701 22.6205727 29.1043701 22.6205727 26.5172017 26.3284459 27.8107859 28.278609 29.1043701 30.228772 32.6976596 29.5584107 34.7164648 31.2785955 36.73527 32.9987803 35.8965076 36.0860558 35.8965076 36.0860558L35.408214 39.6905025C35.408214 39.6905025 40.8155404 37.2674113 42.373617 33.7765059 43.9316935 30.2856006 43.4269923 24.8126434 43.4269923 24.8126434L46.5831802 21.951138 49.3586241 12.9505118 39.6190899 9.80069457 38.5460254 5 31.5812787 6.9741762 30.9518788 12.210206 36.3012498 13.9813469 37.4768987 17.0051965zM-1 20.0403062C-1 20.0403062.969941238 18.784322 1.2328707 18.7643353 3.25003481 18.611 10.2791656 19.0398197 12.1170184 16.3753768 14.1944281 13.3636342 15.9261253 9.3755591 15.9261253 9.3755591L15.856544 6.30708574 4.99433636 3.6413691-1 20.0403062zM14.1819321 42.0749846L15.0126049 32.9010865 8.33911962 27.7922297C8.33911962 27.7922297 7.95371079 23.7038303 12.797599 23.126082 17.6414873 22.5483338 20.6258509 25.5443765 20.6258509 25.5443765 20.6258509 25.5443765 22.5488804 28.5202895 21.8317134 30.5419173 21.1145464 32.5635451 19.2590365 35.590919 19.2590365 35.590919 19.2590365 35.590919 19.1118518 39.0301833 17.8542651 40.6362709 16.5966784 42.2423586 14.1819321 42.0749846 14.1819321 42.0749846z" mask="url(#webbrush-b)"/>
    </g>
    <g transform="rotate(45 28.031 67.673)">
      <path fill="#9F5757" d="M1.4237135,4.28901142 C1.18286051,2.09351224 2.78251703,0.313708499 4.98925032,0.313708499 L8.15754371,0.313708499 C10.3675883,0.313708499 11.9638495,2.09427792 11.7230805,4.28901142 L8.57339702,33 L4.57339702,33 L1.4237135,4.28901142 Z"/>
      <path fill="#0A3586" d="M5.54923417,50.5495193 C5.54923417,50.5495193 6.37404658,47.337788 8.51151076,44.2053488 C10.6489749,41.0729097 13.3675588,41.6832352 13.3675588,37.6837794 C13.3675588,33.99243 10.3751289,31 6.68377941,31 C2.99242997,31 -4.54747351e-12,33.99243 -4.54747351e-12,37.6837794 C-4.54747351e-12,41.3751289 5.54923417,50.5495193 5.54923417,50.5495193 Z"/>
    </g>
  </g>
</svg>
