<svg xmlns="http://www.w3.org/2000/svg" xmlns:xlink="http://www.w3.org/1999/xlink" width="64" height="64" viewBox="0 0 64 64">
  <defs>
    <circle id="webclouding-a" cx="18" cy="18" r="18"/>
  </defs>
  <g fill="none" fill-rule="evenodd">
    <polyline stroke="#D650C7" stroke-dasharray="4" stroke-linecap="round" stroke-width="2" points="37 45.6 44.887 45.6 44.887 25"/>
    <path fill="#5EA7FF" d="M35.3333333,26 C30.7309604,26 27,22.1624407 27,17.4285714 C27,12.6947021 30.7309604,8.85714286 35.3333333,8.85714286 C36.5392581,8.85714286 37.6853554,9.1206133 38.7201838,9.59464306 C39.191542,5.32073265 42.7187439,2 47,2 C51.6023729,2 55.3333333,5.83755929 55.3333333,10.5714286 C55.3333333,11.1592592 55.2758036,11.7332691 55.1662193,12.2878266 C55.2217582,12.2864211 55.2774655,12.2857143 55.3333333,12.2857143 C59.0152317,12.2857143 62,15.3557617 62,19.1428571 C62,22.9299526 59.0152317,26 55.3333333,26 L35.3333333,26 Z"/>
    <g transform="translate(2 27)">
      <mask id="webclouding-b" fill="#fff">
        <use xlink:href="#webclouding-a"/>
      </mask>
      <use fill="#B4DFFB" xlink:href="#webclouding-a"/>
      <path fill="#22BA8E" d="M27.4995846 12.7538974C27.4995846 12.7538974 23.1285694 10.9700507 21.8266173 11.861974 20.5246651 12.7538974 21.2201882 16.9654295 21.2201882 16.9654295 21.2201882 16.9654295 19.2798118 19.7463344 20.25 21.2089567 21.2201882 22.671579 23.9151553 22.168808 25.4292591 23.4589466 26.943363 24.7490852 26.3142913 27.0645419 26.3142913 27.0645419L25.9480711 29.7678769C25.9480711 29.7678769 30.0035659 27.9505584 31.1721233 25.3323794 32.3406807 22.7142004 31.9621547 18.6094825 31.9621547 18.6094825L34.3292957 16.4633535 36.4108786 9.71288388 29.106228 7.35052093 28.3014296 3.75 23.0778696 5.23063215 22.6058196 9.15765453 26.6178479 10.4860101 27.4995846 12.7538974zM-1.35808945 15.0302297C-1.35808945 15.0302297.119366474 14.0882415.316563573 14.0732515 1.82943665 13.95825 7.10128473 14.2798648 8.47967433 12.2815326 10.0377316 10.0227256 11.3365045 7.03166932 11.3365045 7.03166932L11.2843185 4.73031431 3.13766281 2.73102683-1.35808945 15.0302297z" mask="url(#webclouding-b)"/>
    </g>
  </g>
</svg>
