<svg xmlns="http://www.w3.org/2000/svg" width="64" height="64" viewBox="0 0 64 64">
  <path fill="#5B68C0" fill-rule="evenodd" d="M37.6875,49 L32,62 L26.3125,49 L6,49 L6,5 L58,5 L58,49 L37.6875,49 Z M22.48,22.08 C22.3333326,21.7199982 21.860004,21.54 21.06,21.54 C20.2066624,21.54 19.680001,21.7199982 19.48,22.08 C19.4266664,22.1866672 19.4,22.2999994 19.4,22.42 C19.4,22.5133338 19.4199998,22.6499991 19.46,22.83 C19.5000002,23.0100009 19.52,23.1533328 19.52,23.26 C19.52,23.3533338 19.5066668,23.4399996 19.48,23.52 L17.56,29.28 L16.36,24.48 C16.3333332,24.0666646 16.3000002,23.6500021 16.26,23.23 C16.2199998,22.8099979 16.0133352,22.466668 15.64,22.2 C15.3466652,21.9866656 14.9800022,21.88 14.54,21.88 C14.2199984,21.88 13.926668,21.9533326 13.66,22.1 C13.3399984,22.2600008 13.18,22.4866652 13.18,22.78 C13.18,22.8600004 13.1966665,22.9766659 13.23,23.13 C13.2633335,23.2833341 13.28,23.3999996 13.28,23.48 C13.28,23.5733338 13.2666668,23.6666662 13.24,23.76 L11.56,28.68 L10.36,23.88 C10.3466666,23.8266664 10.3333334,23.5066696 10.32,22.92 C10.3066666,22.5333314 10.200001,22.2533342 10,22.08 C9.8399992,21.946666 9.526669,21.88 9.06,21.88 C8.2199958,21.88 7.7400006,22.0666648 7.62,22.44 C7.553333,22.6133342 7.52,22.7866658 7.52,22.96 C7.52,23.2133346 7.5999992,23.5199982 7.76,23.88 C7.960001,24.346669 8.0799998,24.6666658 8.12,24.84 L9.88,31.68 C9.9333336,32.0266684 9.9866664,32.3799982 10.04,32.74 C10.0933336,33.1000018 10.253332,33.3666658 10.52,33.54 C10.7333344,33.6866674 10.9666654,33.76 11.22,33.76 C11.953337,33.76 12.5733308,33.3466708 13.08,32.52 C13.2000006,32.319999 13.2733332,32.053335 13.3,31.72 C13.3266668,31.3066646 13.3599998,31.0266674 13.4,30.88 L14.56,26.88 L15.76,31.32 C15.7866668,31.4400006 15.8,31.7266644 15.8,32.18 C15.8,32.4866682 15.9066656,32.7599988 16.12,33 C16.5466688,33.4800024 17.0799968,33.72 17.72,33.72 C18.1466688,33.72 18.526665,33.6000012 18.86,33.36 C19.193335,33.1199988 19.36,32.7533358 19.36,32.26 C19.36,32.1666662 19.3533334,32.0266676 19.34,31.84 L19.34,31.4 C19.34,31.1066652 19.373333,30.8533344 19.44,30.64 L21.64,24 C21.706667,23.799999 21.8866652,23.5200018 22.18,23.16 C22.4200012,22.8533318 22.54,22.5933344 22.54,22.38 C22.54,22.2866662 22.5200002,22.1866672 22.48,22.08 Z M38.76,22.08 C38.6133326,21.7199982 38.140004,21.54 37.34,21.54 C36.4866624,21.54 35.960001,21.7199982 35.76,22.08 C35.7066664,22.1866672 35.68,22.2999994 35.68,22.42 C35.68,22.5133338 35.6999998,22.6499991 35.74,22.83 C35.7800002,23.0100009 35.8,23.1533328 35.8,23.26 C35.8,23.3533338 35.7866668,23.4399996 35.76,23.52 L33.84,29.28 L32.64,24.48 C32.6133332,24.0666646 32.5800002,23.6500021 32.54,23.23 C32.4999998,22.8099979 32.2933352,22.466668 31.92,22.2 C31.6266652,21.9866656 31.2600022,21.88 30.82,21.88 C30.4999984,21.88 30.206668,21.9533326 29.94,22.1 C29.6199984,22.2600008 29.46,22.4866652 29.46,22.78 C29.46,22.8600004 29.4766665,22.9766659 29.51,23.13 C29.5433335,23.2833341 29.56,23.3999996 29.56,23.48 C29.56,23.5733338 29.5466668,23.6666662 29.52,23.76 L27.84,28.68 L26.64,23.88 C26.6266666,23.8266664 26.6133334,23.5066696 26.6,22.92 C26.5866666,22.5333314 26.480001,22.2533342 26.28,22.08 C26.1199992,21.946666 25.806669,21.88 25.34,21.88 C24.4999958,21.88 24.0200006,22.0666648 23.9,22.44 C23.833333,22.6133342 23.8,22.7866658 23.8,22.96 C23.8,23.2133346 23.8799992,23.5199982 24.04,23.88 C24.240001,24.346669 24.3599998,24.6666658 24.4,24.84 L26.16,31.68 C26.2133336,32.0266684 26.2666664,32.3799982 26.32,32.74 C26.3733336,33.1000018 26.533332,33.3666658 26.8,33.54 C27.0133344,33.6866674 27.2466654,33.76 27.5,33.76 C28.233337,33.76 28.8533308,33.3466708 29.36,32.52 C29.4800006,32.319999 29.5533332,32.053335 29.58,31.72 C29.6066668,31.3066646 29.6399998,31.0266674 29.68,30.88 L30.84,26.88 L32.04,31.32 C32.0666668,31.4400006 32.08,31.7266644 32.08,32.18 C32.08,32.4866682 32.1866656,32.7599988 32.4,33 C32.8266688,33.4800024 33.3599968,33.72 34,33.72 C34.4266688,33.72 34.806665,33.6000012 35.14,33.36 C35.473335,33.1199988 35.64,32.7533358 35.64,32.26 C35.64,32.1666662 35.6333334,32.0266676 35.62,31.84 L35.62,31.4 C35.62,31.1066652 35.653333,30.8533344 35.72,30.64 L37.92,24 C37.986667,23.799999 38.1666652,23.5200018 38.46,23.16 C38.7000012,22.8533318 38.82,22.5933344 38.82,22.38 C38.82,22.2866662 38.8000002,22.1866672 38.76,22.08 Z M55.04,22.08 C54.8933326,21.7199982 54.420004,21.54 53.62,21.54 C52.7666624,21.54 52.240001,21.7199982 52.04,22.08 C51.9866664,22.1866672 51.96,22.2999994 51.96,22.42 C51.96,22.5133338 51.9799998,22.6499991 52.02,22.83 C52.0600002,23.0100009 52.08,23.1533328 52.08,23.26 C52.08,23.3533338 52.0666668,23.4399996 52.04,23.52 L50.12,29.28 L48.92,24.48 C48.8933332,24.0666646 48.8600002,23.6500021 48.82,23.23 C48.7799998,22.8099979 48.5733352,22.466668 48.2,22.2 C47.9066652,21.9866656 47.5400022,21.88 47.1,21.88 C46.7799984,21.88 46.486668,21.9533326 46.22,22.1 C45.8999984,22.2600008 45.74,22.4866652 45.74,22.78 C45.74,22.8600004 45.7566665,22.9766659 45.79,23.13 C45.8233335,23.2833341 45.84,23.3999996 45.84,23.48 C45.84,23.5733338 45.8266668,23.6666662 45.8,23.76 L44.12,28.68 L42.92,23.88 C42.9066666,23.8266664 42.8933334,23.5066696 42.88,22.92 C42.8666666,22.5333314 42.760001,22.2533342 42.56,22.08 C42.3999992,21.946666 42.086669,21.88 41.62,21.88 C40.7799958,21.88 40.3000006,22.0666648 40.18,22.44 C40.113333,22.6133342 40.08,22.7866658 40.08,22.96 C40.08,23.2133346 40.1599992,23.5199982 40.32,23.88 C40.520001,24.346669 40.6399998,24.6666658 40.68,24.84 L42.44,31.68 C42.4933336,32.0266684 42.5466664,32.3799982 42.6,32.74 C42.6533336,33.1000018 42.813332,33.3666658 43.08,33.54 C43.2933344,33.6866674 43.5266654,33.76 43.78,33.76 C44.513337,33.76 45.1333308,33.3466708 45.64,32.52 C45.7600006,32.319999 45.8333332,32.053335 45.86,31.72 C45.8866668,31.3066646 45.9199998,31.0266674 45.96,30.88 L47.12,26.88 L48.32,31.32 C48.3466668,31.4400006 48.36,31.7266644 48.36,32.18 C48.36,32.4866682 48.4666656,32.7599988 48.68,33 C49.1066688,33.4800024 49.6399968,33.72 50.28,33.72 C50.7066688,33.72 51.086665,33.6000012 51.42,33.36 C51.753335,33.1199988 51.92,32.7533358 51.92,32.26 C51.92,32.1666662 51.9133334,32.0266676 51.9,31.84 L51.9,31.4 C51.9,31.1066652 51.933333,30.8533344 52,30.64 L54.2,24 C54.266667,23.799999 54.4466652,23.5200018 54.74,23.16 C54.9800012,22.8533318 55.1,22.5933344 55.1,22.38 C55.1,22.2866662 55.0800002,22.1866672 55.04,22.08 Z"/>
</svg>
