<svg xmlns="http://www.w3.org/2000/svg" xmlns:xlink="http://www.w3.org/1999/xlink" width="64" height="64" viewBox="0 0 64 64">
  <defs>
    <circle id="webcloud-a" cx="18" cy="18" r="18"/>
  </defs>
  <g fill="none" fill-rule="evenodd">
    <path fill="#B4DFFB" d="M19.1904762,35 C13.0101468,35 8,29.8832543 8,23.5714286 C8,17.2596029 13.0101468,12.1428571 19.1904762,12.1428571 C20.8098609,12.1428571 22.3489058,12.4941511 23.7385326,13.1261908 C24.3714992,7.42764354 29.1080275,3 34.8571429,3 C41.0374722,3 46.047619,8.11674572 46.047619,14.4285714 C46.047619,15.2123456 45.9703648,15.9776921 45.8232088,16.7171021 C45.8977895,16.7152282 45.9725965,16.7142857 46.047619,16.7142857 C50.9918825,16.7142857 55,20.8076823 55,25.8571429 C55,30.9066034 50.9918825,35 46.047619,35 L19.1904762,35 Z"/>
    <path stroke="#FFF" stroke-linecap="round" stroke-width="2" d="M19,15 C14.581722,15 11,18.581722 11,23"/>
    <g transform="translate(15 28)">
      <mask id="webcloud-b" fill="#fff">
        <use xlink:href="#webcloud-a"/>
      </mask>
      <use fill="#5EA7FF" xlink:href="#webcloud-a"/>
      <path fill="#E8E8E8" d="M27.4995846 12.7538974C27.4995846 12.7538974 23.1285694 10.9700507 21.8266173 11.861974 20.5246651 12.7538974 21.2201882 16.9654295 21.2201882 16.9654295 21.2201882 16.9654295 19.2798118 19.7463344 20.25 21.2089567 21.2201882 22.671579 23.9151553 22.168808 25.4292591 23.4589466 26.943363 24.7490852 26.3142913 27.0645419 26.3142913 27.0645419L25.9480711 29.7678769C25.9480711 29.7678769 30.0035659 27.9505584 31.1721233 25.3323794 32.3406807 22.7142004 31.9621547 18.6094825 31.9621547 18.6094825L34.3292957 16.4633535 36.4108786 9.71288388 29.106228 7.35052093 28.3014296 3.75 23.0778696 5.23063215 22.6058196 9.15765453 26.6178479 10.4860101 27.4995846 12.7538974zM-1.35808945 15.0302297C-1.35808945 15.0302297.119366474 14.0882415.316563573 14.0732515 1.82943665 13.95825 7.10128473 14.2798648 8.47967433 12.2815326 10.0377316 10.0227256 11.3365045 7.03166932 11.3365045 7.03166932L11.2843185 4.73031431 3.13766281 2.73102683-1.35808945 15.0302297z" mask="url(#webcloud-b)"/>
    </g>
  </g>
</svg>
