<svg xmlns="http://www.w3.org/2000/svg" xmlns:xlink="http://www.w3.org/1999/xlink" width="64" height="64" viewBox="0 0 64 64">
  <defs>
    <circle id="webdollar-a" cx="24" cy="24" r="24"/>
  </defs>
  <g fill="none" fill-rule="evenodd">
    <g transform="translate(3 14)">
      <mask id="webdollar-b" fill="#fff">
        <use xlink:href="#webdollar-a"/>
      </mask>
      <use fill="#5EA7FF" xlink:href="#webdollar-a"/>
      <path fill="#E8E8E8" d="M36.6661127 17.0051965C36.6661127 17.0051965 30.8380926 14.6267342 29.1021564 15.8159654 27.3662202 17.0051965 28.2935842 22.6205727 28.2935842 22.6205727 28.2935842 22.6205727 25.7064158 26.3284459 27 28.278609 28.2935842 30.228772 31.8868737 29.5584107 33.9056789 31.2785955 35.924484 32.9987803 35.0857217 36.0860558 35.0857217 36.0860558L34.5974281 39.6905025C34.5974281 39.6905025 40.0047545 37.2674113 41.562831 33.7765059 43.1209076 30.2856006 42.6162063 24.8126434 42.6162063 24.8126434L45.7723943 21.951138 48.5478382 12.9505118 38.8083039 9.80069457 37.7352394 5 30.7704928 6.9741762 30.1410929 12.210206 35.4904638 13.9813469 36.6661127 17.0051965zM-1.81078594 20.0403062C-1.81078594 20.0403062.159155298 18.784322.422084765 18.7643353 2.43924887 18.611 9.46837964 19.0398197 11.3062324 16.3753768 13.3836422 13.3636342 15.1153394 9.3755591 15.1153394 9.3755591L15.045758 6.30708574 4.18355042 3.6413691-1.81078594 20.0403062z" mask="url(#webdollar-b)"/>
    </g>
    <path fill="#E8E8E8" d="M16.8500764,56.022879 L17.6807492,46.8489809 L11.0072639,41.7401241 C11.0072639,41.7401241 10.6218551,37.6517247 15.4657433,37.0739764 C20.3096316,36.4962281 23.2939952,39.4922708 23.2939952,39.4922708 C23.2939952,39.4922708 25.2170247,42.4681839 24.4998577,44.4898117 C23.7826907,46.5114395 21.9271808,49.5388133 21.9271808,49.5388133 C21.9271808,49.5388133 21.7799961,52.9780776 20.5224094,54.5841653 C19.2648227,56.190253 16.8500764,56.022879 16.8500764,56.022879 Z"/>
    <circle cx="54" cy="11" r="10" fill="#22BA8E"/>
    <path fill="#FFDD95" d="M55.336,4.05 C55.528001,4.13400042 55.624,4.28399892 55.624,4.5 C55.624,4.82400162 55.4740015,5.05799928 55.174,5.202 C54.981999,5.29800048 54.7120017,5.346 54.364,5.346 C54.0519984,5.346 53.7340016,5.29500051 53.41,5.193 C53.0859984,5.09099949 52.9060002,4.99800042 52.87,4.914 C52.665999,4.33799712 52.767998,3.92400126 53.176,3.672 C53.2720005,3.6119997 53.4579986,3.582 53.734,3.582 C54.4900038,3.582 55.0239984,3.73799844 55.336,4.05 Z M57.874,10.656 C57.874,11.5320044 57.4060047,12.6059936 56.47,13.878 C55.5699955,15.0300058 54.7060041,15.606 53.878,15.606 C53.0619959,15.606 52.2340042,15.3540025 51.394,14.85 C50.6739964,14.3219974 50.3259999,13.8360022 50.35,13.392 C50.3740001,13.1399987 50.6799971,13.014 51.268,13.014 C51.7600025,13.014 52.2159979,13.0979992 52.636,13.266 C52.7800007,13.3860006 53.0139984,13.5359991 53.338,13.716 C53.542001,13.7280001 53.8329981,13.4940024 54.211,13.014 C54.5890019,12.5339976 54.778,12.1620013 54.778,11.898 C54.778,11.7419992 54.676001,11.664 54.472,11.664 C54.3639995,11.664 53.908004,11.6999996 53.104,11.772 C52.299996,11.8440004 51.694002,11.88 51.286,11.88 C50.3739954,11.88 49.8040011,11.6100027 49.576,11.07 C49.5639999,11.0579999 49.558,10.9980005 49.558,10.89 C49.558,10.2659969 50.0979946,9.31800636 51.178,8.046 C52.3660059,6.68999322 53.3919957,6.012 54.256,6.012 C54.8680031,6.012 55.4859969,6.24599766 56.11,6.714 C56.7700033,7.1340021 57.0760002,7.45799886 57.028,7.686 C56.8839993,8.45400384 56.3980041,8.838 55.57,8.838 C55.4379993,8.838 55.2940008,8.81700021 55.138,8.775 C54.9819992,8.73299979 54.8200008,8.60100111 54.652,8.379 C54.4839992,8.15699889 54.304001,8.046 54.112,8.046 C53.8959989,8.046 53.5090028,8.34899697 52.951,8.955 C52.3929972,9.56100303 52.114,9.99599868 52.114,10.26 C52.114,10.2960002 52.1619995,10.314 52.258,10.314 C52.4380009,10.314 53.031995,10.2060011 54.04,9.99 C55.048005,9.77399892 55.8339972,9.666 56.398,9.666 C57.3820049,9.666 57.874,9.9959967 57.874,10.656 Z M55.354,17.28 C55.354,17.7840025 55.0120034,18.1499989 54.328,18.378 C54.1479991,18.4260002 53.8270023,18.3630009 53.365,18.189 C52.9029977,18.0149991 52.6660001,17.8560007 52.654,17.712 C52.5939997,17.2079975 52.6959987,16.8660009 52.96,16.686 C53.1040007,16.5779995 53.3379984,16.524 53.662,16.524 C54.058002,16.524 54.4239983,16.5779995 54.76,16.686 C55.0960017,16.7940005 55.2789998,16.9049994 55.309,17.019 C55.3390001,17.1330006 55.354,17.2199997 55.354,17.28 Z"/>
  </g>
</svg>
