<svg xmlns="http://www.w3.org/2000/svg" xmlns:xlink="http://www.w3.org/1999/xlink" width="64" height="64" viewBox="0 0 64 64">
  <defs>
    <circle id="webeuro-a" cx="24" cy="24" r="24"/>
  </defs>
  <g fill="none" fill-rule="evenodd">
    <g transform="translate(3 14)">
      <mask id="webeuro-b" fill="#fff">
        <use xlink:href="#webeuro-a"/>
      </mask>
      <use fill="#5EA7FF" xlink:href="#webeuro-a"/>
      <path fill="#E8E8E8" d="M36.6661127 17.0051965C36.6661127 17.0051965 30.8380926 14.6267342 29.1021564 15.8159654 27.3662202 17.0051965 28.2935842 22.6205727 28.2935842 22.6205727 28.2935842 22.6205727 25.7064158 26.3284459 27 28.278609 28.2935842 30.228772 31.8868737 29.5584107 33.9056789 31.2785955 35.924484 32.9987803 35.0857217 36.0860558 35.0857217 36.0860558L34.5974281 39.6905025C34.5974281 39.6905025 40.0047545 37.2674113 41.562831 33.7765059 43.1209076 30.2856006 42.6162063 24.8126434 42.6162063 24.8126434L45.7723943 21.951138 48.5478382 12.9505118 38.8083039 9.80069457 37.7352394 5 30.7704928 6.9741762 30.1410929 12.210206 35.4904638 13.9813469 36.6661127 17.0051965zM-1.81078594 20.0403062C-1.81078594 20.0403062.159155298 18.784322.422084765 18.7643353 2.43924887 18.611 9.46837964 19.0398197 11.3062324 16.3753768 13.3836422 13.3636342 15.1153394 9.3755591 15.1153394 9.3755591L15.045758 6.30708574 4.18355042 3.6413691-1.81078594 20.0403062z" mask="url(#webeuro-b)"/>
    </g>
    <path fill="#E8E8E8" d="M15.8500764,56.022879 L16.6807492,46.8489809 L10.0072639,41.7401241 C10.0072639,41.7401241 9.62185509,37.6517247 14.4657433,37.0739764 C19.3096316,36.4962281 22.2939952,39.4922708 22.2939952,39.4922708 C22.2939952,39.4922708 24.2170247,42.4681839 23.4998577,44.4898117 C22.7826907,46.5114395 20.9271808,49.5388133 20.9271808,49.5388133 C20.9271808,49.5388133 20.7799961,52.9780776 19.5224094,54.5841653 C18.2648227,56.190253 15.8500764,56.022879 15.8500764,56.022879 Z"/>
    <circle cx="54" cy="11" r="10" fill="#4796E7"/>
    <path fill="#FFDD95" d="M56.704,10.296 C56.6506664,10.296 56.3413362,10.2213341 55.776,10.072 L52.272,10.632 C52.272,10.9413349 52.2826666,11.2453318 52.304,11.544 L54.816,11.176 C55.1466683,10.8773318 55.3813326,10.7173334 55.52,10.696 C55.7226677,10.6639998 55.9439988,10.8159983 56.184,11.152 C56.4240012,11.4880017 56.5706664,11.8213317 56.624,12.152 C56.6560002,12.3760011 56.6133339,12.5706658 56.496,12.736 C56.3786661,12.9013342 56.2506674,12.9946666 56.112,13.016 C56.0586664,13.0266667 55.7493362,12.9573341 55.184,12.808 L52.592,13.224 C53.0080021,14.6426738 53.7706611,15.352 54.88,15.352 C55.3280022,15.352 55.7013318,15.181335 56,14.84 C56.266668,14.5306651 56.4266664,14.146669 56.48,13.688 C56.6933344,13.2506645 57.066664,13.032 57.6,13.032 C57.9306683,13.032 58.229332,13.1253324 58.496,13.312 C58.762668,13.4986676 58.896,13.725332 58.896,13.992 C58.896,14.0560003 58.8906667,14.1199997 58.88,14.184 C58.8479998,14.3013339 58.7466675,14.4346659 58.576,14.584 C58.383999,14.7653342 58.2666669,14.8826664 58.224,14.936 C58.1386662,15.0746674 57.9573347,15.3253315 57.68,15.688 C56.9866632,16.7866722 56.1813379,17.336 55.264,17.336 C54.0373272,17.336 53.0026709,16.973337 52.16,16.248 C51.3919962,15.6079968 50.8266685,14.7120058 50.464,13.56 L50,13.624 C49.6479982,13.9013347 49.4080006,14.0506666 49.28,14.072 C48.8639979,14.1360003 48.6026672,13.8373366 48.496,13.176 C48.4853333,13.0693328 48.48,12.9733338 48.48,12.888 C48.48,12.3013304 48.746664,11.9653338 49.28,11.88 C49.3866672,11.8693333 49.6479979,11.864 50.064,11.864 L50.112,11.864 C50.0693331,11.5759986 50.0426667,11.2826682 50.032,10.984 L49.904,11 C49.562665,11.266668 49.3226674,11.4106666 49.184,11.432 C48.7679979,11.506667 48.5120005,11.2080034 48.416,10.536 C48.3946666,10.4399995 48.384,10.3493338 48.384,10.264 C48.384,9.6773304 48.6559973,9.34133376 49.2,9.256 C49.2960005,9.23466656 49.5573312,9.22933328 49.984,9.24 L50.112,9.224 C50.3146677,7.68799232 50.8213293,6.4666712 51.632,5.56 C52.5493379,4.5466616 53.7599925,4.04 55.264,4.04 C55.7546691,4.04 56.2773306,4.21599824 56.832,4.568 C57.3013357,4.86666816 57.6479989,5.1759984 57.872,5.496 C57.9893339,5.67733424 58.1333325,5.83733264 58.304,5.976 C58.4746675,6.11466736 58.5653333,6.18933328 58.576,6.2 C58.6613338,6.34933408 58.704,6.49866592 58.704,6.648 C58.704,6.94666816 58.5173352,7.2026656 58.144,7.416 C57.8133317,7.59733424 57.4453354,7.688 57.04,7.688 C56.5706643,7.688 56.2720006,7.57066784 56.144,7.336 C56.1226666,7.29333312 56.0853336,7.07466864 56.032,6.68 C55.9786664,6.58399952 55.8240013,6.4560008 55.568,6.296 C55.2799986,6.12533248 55.0506675,6.04 54.88,6.04 C53.5359933,6.04 52.7093349,6.98932384 52.4,8.888 L55.408,8.456 C55.749335,8.15733184 55.9839994,7.99733344 56.112,7.976 C56.3146677,7.94399984 56.5359988,8.09333168 56.776,8.424 C57.0160012,8.75466832 57.1626664,9.08533168 57.216,9.416 C57.2480002,9.65066784 57.2053339,9.85066584 57.088,10.016 C56.9706661,10.1813342 56.8426674,10.2746666 56.704,10.296 Z"/>
  </g>
</svg>
