<svg xmlns="http://www.w3.org/2000/svg" width="64" height="64" viewBox="0 0 64 64">
  <g fill="none" fill-rule="evenodd">
    <polygon fill="#595959" points="4 10 60 10 60 45 4 45"/>
    <rect width="52" height="31" x="6" y="12" fill="#E8E8E8"/>
    <path fill="#4796E7" d="M0,45 L64,45 L64,47.5 C64,48.8807119 62.8891602,50 61.4911242,50 L2.50887585,50 C1.12326198,50 0,48.8903379 0,47.5 L0,45 Z"/>
    <path fill="#E43535" d="M24.74,23.172 C24.5253323,23.3493342 24.2500017,23.438 23.914,23.438 C23.7739993,23.438 23.6106676,23.4240001 23.424,23.396 C23.153332,23.4800004 22.9106677,23.5639996 22.696,23.648 C22.1733307,23.844001 21.8280008,24.0119993 21.66,24.152 C21.6039997,25.1226715 21.6039997,26.2333271 21.66,27.484 C21.7160003,27.4466665 21.8559989,27.4093335 22.08,27.372 C22.1920006,27.175999 22.383332,27.078 22.654,27.078 C22.924668,27.078 23.2396649,27.2086654 23.599,27.47 C23.9583351,27.7313346 24.138,27.9879987 24.138,28.24 C24.138,28.3053337 24.1240001,28.3706663 24.096,28.436 C23.9839994,28.7160014 23.8113345,28.893333 23.578,28.968 C23.4379993,29.0146669 23.232668,29.0263334 22.962,29.003 C22.691332,28.9796665 22.518667,28.9866665 22.444,29.024 C22.2293323,29.1266672 21.9680015,29.2479993 21.66,29.388 C21.66,30.2280042 21.6879997,30.7693321 21.744,31.012 C22.136002,30.9186662 22.4626654,30.8066673 22.724,30.676 C22.7706669,30.6106663 22.8173331,30.5500003 22.864,30.494 C22.9573338,30.3913328 23.1253321,30.3493332 23.368,30.368 C23.6293346,30.3866668 23.8999986,30.5359986 24.18,30.816 C24.4600014,31.0960014 24.6,31.3806652 24.6,31.67 C24.6,31.9220013 24.4926677,32.1086661 24.278,32.23 C24.0633323,32.3513339 23.7040025,32.3933335 23.2,32.356 L21.884,33.014 C21.8279997,33.0420001 21.7066676,33.1353325 21.52,33.294 C21.3799993,33.4153339 21.2540006,33.476 21.142,33.476 C21.1046665,33.476 21.0626669,33.4713334 21.016,33.462 C20.5213309,33.3126659 20.0733353,32.9253365 19.672,32.3 C19.6439999,32.2533331 19.63,32.1973337 19.63,32.132 C19.63,32.1039999 19.6813328,31.9173351 19.784,31.572 C19.6813328,28.8559864 19.6626663,25.962682 19.728,22.892 C19.6626663,22.7986662 19.63,22.7053338 19.63,22.612 C19.63,22.3039985 19.9146638,22.1080004 20.484,22.024 C20.6053339,22.0053332 20.7593324,22.0379996 20.946,22.122 C21.0673339,22.1873337 21.1839994,22.2479997 21.296,22.304 L22.976,21.772 C23.0133335,21.7626666 23.1206658,21.7066672 23.298,21.604 C23.4193339,21.529333 23.5593325,21.492 23.718,21.492 C23.792667,21.492 23.8813328,21.5013332 23.984,21.52 C24.1893344,21.5573335 24.3923323,21.7183319 24.593,22.003 C24.7936677,22.2876681 24.894,22.5559987 24.894,22.808 C24.894,22.9666675 24.8426672,23.0879996 24.74,23.172 Z M30.732,25.86 C30.6946665,26.056001 30.5173349,26.191333 30.2,26.266 C29.8266648,26.3593338 29.5886672,26.4666661 29.486,26.588 L27.204,29.22 L27.204,31.348 C27.204,31.5533344 27.2623328,31.7609989 27.379,31.971 C27.4956672,32.181001 27.554,32.3419994 27.554,32.454 C27.554,32.5660006 27.5213337,32.6919993 27.456,32.832 C27.2973325,33.1866684 26.9753358,33.364 26.49,33.364 C26.1539983,33.364 25.888001,33.2566677 25.692,33.042 C25.5613327,32.9019993 25.496,32.7246677 25.496,32.51 C25.496,32.435333 25.5053332,32.3140008 25.524,32.146 C25.5426668,31.9779992 25.552,31.8426672 25.552,31.74 L25.552,26.504 C25.552,26.4199996 25.514667,26.3173339 25.44,26.196 C25.365333,26.0746661 25.328,25.976667 25.328,25.902 C25.328,25.8459997 25.3466665,25.780667 25.384,25.706 C25.5053339,25.4819989 25.8833302,25.37 26.518,25.37 C27.0126691,25.37 27.2926663,25.4866655 27.358,25.72 C27.3860001,25.8133338 27.4,25.8926663 27.4,25.958 C27.4,26.0606672 27.362667,26.1399997 27.288,26.196 C27.213333,26.2520003 27.176,26.3079997 27.176,26.364 L27.204,26.868 L28.408,25.594 C28.5480007,25.4353325 28.6949992,25.2766675 28.849,25.118 C29.0030008,24.9593325 29.1826656,24.8706668 29.388,24.852 C29.7053349,24.8239999 30.0109985,24.8939992 30.305,25.062 C30.5990015,25.2300008 30.746,25.449332 30.746,25.72 C30.746,25.7666669 30.7413334,25.8133331 30.732,25.86 Z M36.976,25.86 C36.9386665,26.056001 36.7613349,26.191333 36.444,26.266 C36.0706648,26.3593338 35.8326672,26.4666661 35.73,26.588 L33.448,29.22 L33.448,31.348 C33.448,31.5533344 33.5063327,31.7609989 33.623,31.971 C33.7396673,32.181001 33.798,32.3419994 33.798,32.454 C33.798,32.5660006 33.7653337,32.6919993 33.7,32.832 C33.5413325,33.1866684 33.2193358,33.364 32.734,33.364 C32.3979983,33.364 32.132001,33.2566677 31.936,33.042 C31.8053327,32.9019993 31.74,32.7246677 31.74,32.51 C31.74,32.435333 31.7493332,32.3140008 31.768,32.146 C31.7866668,31.9779992 31.796,31.8426672 31.796,31.74 L31.796,26.504 C31.796,26.4199996 31.758667,26.3173339 31.684,26.196 C31.609333,26.0746661 31.572,25.976667 31.572,25.902 C31.572,25.8459997 31.5906665,25.780667 31.628,25.706 C31.7493339,25.4819989 32.1273302,25.37 32.762,25.37 C33.2566691,25.37 33.5366663,25.4866655 33.602,25.72 C33.6300001,25.8133338 33.644,25.8926663 33.644,25.958 C33.644,26.0606672 33.606667,26.1399997 33.532,26.196 C33.457333,26.2520003 33.42,26.3079997 33.42,26.364 L33.448,26.868 L34.652,25.594 C34.7920007,25.4353325 34.9389992,25.2766675 35.093,25.118 C35.2470008,24.9593325 35.4266656,24.8706668 35.632,24.852 C35.9493349,24.8239999 36.2549985,24.8939992 36.549,25.062 C36.8430015,25.2300008 36.99,25.449332 36.99,25.72 C36.99,25.7666669 36.9853334,25.8133331 36.976,25.86 Z M41.568,25.776 C42.1933365,26.4106698 42.506,27.4793258 42.506,28.982 C42.506,30.1486725 42.2866689,31.1426626 41.848,31.964 C41.3533309,32.8880046 40.6720043,33.35 39.804,33.35 C38.945329,33.35 38.282669,32.9346708 37.816,32.104 C37.4053313,31.3759964 37.2,30.4520056 37.2,29.332 C37.2,28.3426617 37.3586651,27.4560039 37.676,26.672 C38.0120017,25.8319958 38.4413307,25.3373341 38.964,25.188 C39.234668,25.113333 39.5146652,25.076 39.804,25.076 C40.5226703,25.076 41.1106644,25.309331 41.568,25.776 Z M39.972,26.448 C39.6639985,26.4199999 39.3980011,26.7093303 39.174,27.316 C38.977999,27.8666694 38.88,28.4453303 38.88,29.052 C38.88,29.9293377 38.917333,30.5499982 38.992,30.914 C39.1226673,31.5673366 39.3933313,31.9266663 39.804,31.992 C40.0653346,32.0293335 40.3079989,31.6700038 40.532,30.914 C40.7466677,30.1859964 40.854,29.4066708 40.854,28.576 C40.854,27.2133265 40.5600029,26.5040003 39.972,26.448 Z M48.946,25.86 C48.9086665,26.056001 48.7313349,26.191333 48.414,26.266 C48.0406648,26.3593338 47.8026672,26.4666661 47.7,26.588 L45.418,29.22 L45.418,31.348 C45.418,31.5533344 45.4763327,31.7609989 45.593,31.971 C45.7096673,32.181001 45.768,32.3419994 45.768,32.454 C45.768,32.5660006 45.7353337,32.6919993 45.67,32.832 C45.5113325,33.1866684 45.1893358,33.364 44.704,33.364 C44.3679983,33.364 44.102001,33.2566677 43.906,33.042 C43.7753327,32.9019993 43.71,32.7246677 43.71,32.51 C43.71,32.435333 43.7193332,32.3140008 43.738,32.146 C43.7566668,31.9779992 43.766,31.8426672 43.766,31.74 L43.766,26.504 C43.766,26.4199996 43.728667,26.3173339 43.654,26.196 C43.579333,26.0746661 43.542,25.976667 43.542,25.902 C43.542,25.8459997 43.5606665,25.780667 43.598,25.706 C43.7193339,25.4819989 44.0973302,25.37 44.732,25.37 C45.2266691,25.37 45.5066663,25.4866655 45.572,25.72 C45.6000001,25.8133338 45.614,25.8926663 45.614,25.958 C45.614,26.0606672 45.576667,26.1399997 45.502,26.196 C45.427333,26.2520003 45.39,26.3079997 45.39,26.364 L45.418,26.868 L46.622,25.594 C46.7620007,25.4353325 46.9089992,25.2766675 47.063,25.118 C47.2170008,24.9593325 47.3966656,24.8706668 47.602,24.852 C47.9193349,24.8239999 48.2249985,24.8939992 48.519,25.062 C48.8130015,25.2300008 48.96,25.449332 48.96,25.72 C48.96,25.7666669 48.9553334,25.8133331 48.946,25.86 Z"/>
  </g>
</svg>
