<svg xmlns="http://www.w3.org/2000/svg" width="64" height="64" viewBox="0 0 64 64">
  <g fill="none" fill-rule="evenodd">
    <polygon fill="#5B68C0" points="10 2 39.105 2 51 13.753 51 61 10 61"/>
    <rect width="33" height="18" x="10" y="25" fill="#ED9111"/>
    <polygon fill="#0A3586" points="39 2 51 2 51 14" transform="rotate(-180 45 8)"/>
    <path fill="#FFF" d="M26.136,31.356 C26.1640001,31.430667 26.178,31.5006663 26.178,31.566 C26.178,31.7153341 26.0940008,31.8973323 25.926,32.112 C25.7206656,32.3640013 25.5946669,32.5599993 25.548,32.7 L24.008,37.348 C23.9613331,37.4973341 23.938,37.6746656 23.938,37.88 L23.938,38.188 C23.9473334,38.3186673 23.952,38.4166663 23.952,38.482 C23.952,38.8273351 23.8353345,39.0839992 23.602,39.252 C23.3686655,39.4200008 23.1026682,39.504 22.804,39.504 C22.3559978,39.504 21.9826682,39.3360017 21.684,39 C21.5346659,38.8319992 21.46,38.6406677 21.46,38.426 C21.46,38.1086651 21.4506668,37.9080004 21.432,37.824 L20.592,34.716 L19.78,37.516 C19.7519999,37.6186672 19.7286668,37.8146652 19.71,38.104 C19.6913332,38.3373345 19.6400004,38.5239993 19.556,38.664 C19.2013316,39.2426696 18.7673359,39.532 18.254,39.532 C18.0766658,39.532 17.9133341,39.4806672 17.764,39.378 C17.5773324,39.2566661 17.4653335,39.0700013 17.428,38.818 C17.3906665,38.5659987 17.3533335,38.3186679 17.316,38.076 L16.084,33.288 C16.0559999,33.1666661 15.9720007,32.9426683 15.832,32.616 C15.7199994,32.3639987 15.664,32.1493342 15.664,31.972 C15.664,31.8506661 15.6873331,31.7293339 15.734,31.608 C15.8180004,31.3466654 16.1539971,31.216 16.742,31.216 C17.0686683,31.216 17.2879994,31.2626662 17.4,31.356 C17.5400007,31.4773339 17.6146666,31.673332 17.624,31.944 C17.6333334,32.3546687 17.6426666,32.5786665 17.652,32.616 L18.492,35.976 L19.668,32.532 C19.6866668,32.4666663 19.696,32.4013337 19.696,32.336 C19.696,32.2799997 19.6843334,32.1983339 19.661,32.091 C19.6376665,31.9836661 19.626,31.9020003 19.626,31.846 C19.626,31.6406656 19.7379989,31.4820006 19.962,31.37 C20.1486676,31.2673328 20.3539989,31.216 20.578,31.216 C20.8860015,31.216 21.1426656,31.2906659 21.348,31.44 C21.6093346,31.6266676 21.7539999,31.8669985 21.782,32.161 C21.8100001,32.4550015 21.8333332,32.7466652 21.852,33.036 L22.692,36.396 L24.036,32.364 C24.0546668,32.3079997 24.064,32.2473337 24.064,32.182 C24.064,32.107333 24.0500001,32.0070006 24.022,31.881 C23.9939999,31.7549994 23.98,31.6593337 23.98,31.594 C23.98,31.5099996 23.9986665,31.430667 24.036,31.356 C24.1760007,31.1039987 24.5446637,30.978 25.142,30.978 C25.7020028,30.978 26.0333328,31.1039987 26.136,31.356 Z M31.54,37.53 C31.465333,37.8846684 31.2133355,38.2626647 30.784,38.664 C30.7186663,38.7666672 30.4620022,38.9019992 30.014,39.07 C29.5006641,39.266001 29.0573352,39.3500001 28.684,39.322 C27.9839965,39.2753331 27.4333353,38.8740038 27.032,38.118 C26.6679982,37.4179965 26.486,36.5593384 26.486,35.542 C26.486,34.4406612 26.6913313,33.4746708 27.102,32.644 C27.5593356,31.7293288 28.1706628,31.2160006 28.936,31.104 C29.0853341,31.0853332 29.2299993,31.076 29.37,31.076 C30.4806722,31.076 31.0919994,31.7573265 31.204,33.12 C31.2600003,33.7453365 31.0126694,34.426663 30.462,35.164 C29.8646637,35.9760041 29.099338,36.5453317 28.166,36.872 C28.2686672,37.2453352 28.3479997,37.4879994 28.404,37.6 C28.5346673,37.8333345 28.7119989,37.95 28.936,37.95 C29.1506677,37.95 29.3793321,37.8660008 29.622,37.698 C29.8273344,37.5579993 29.967333,37.4226673 30.042,37.292 C30.0793335,37.2733332 30.1166665,37.1683343 30.154,36.977 C30.1913335,36.7856657 30.2893325,36.6480004 30.448,36.564 C30.5040003,36.5359999 30.569333,36.522 30.644,36.522 C30.8680011,36.522 31.084999,36.6316656 31.295,36.851 C31.505001,37.0703344 31.5866669,37.2966655 31.54,37.53 Z M29.342,32.602 C28.9686648,32.602 28.6653345,32.8679973 28.432,33.4 C28.1239985,34.1093369 27.9979997,34.8093299 28.054,35.5 C28.4926689,35.3599993 28.8986648,35.0333359 29.272,34.52 C29.6453352,34.0066641 29.832,33.5493353 29.832,33.148 C29.832,32.7839982 29.6686683,32.602 29.342,32.602 Z M37.924,35.22 C37.924,36.2933387 37.788668,37.1659966 37.518,37.838 C37.1633316,38.7153377 36.5986705,39.154 35.824,39.154 C35.2453304,39.154 34.7413355,38.8506697 34.312,38.244 C34.3213334,38.318667 34.3493331,38.4259993 34.396,38.566 C34.4426669,38.7060007 34.466,38.8086663 34.466,38.874 C34.466,38.9580004 34.4426669,39.0233331 34.396,39.07 C34.2746661,39.2193341 34.0320018,39.294 33.668,39.294 C33.0893304,39.294 32.7440006,39.1680013 32.632,38.916 C32.5946665,38.8319996 32.576,38.752667 32.576,38.678 C32.576,38.5846662 32.613333,38.4656674 32.688,38.321 C32.762667,38.1763326 32.8,38.0526672 32.8,37.95 L32.8,29.97 C32.8,29.8486661 32.769667,29.7016675 32.709,29.529 C32.648333,29.3563325 32.618,29.2186672 32.618,29.116 C32.618,29.0133328 32.6366665,28.9060006 32.674,28.794 C32.7860006,28.4579983 33.075331,28.29 33.542,28.29 C34.1113362,28.29 34.493999,28.4999979 34.69,28.92 C34.7366669,29.0133338 34.76,29.1066662 34.76,29.2 C34.76,29.3213339 34.6993339,29.4986655 34.578,29.732 C34.4566661,29.9653345 34.396,30.1566659 34.396,30.306 L34.396,32.112 C34.7973353,31.4959969 35.1893314,31.188 35.572,31.188 C36.2533367,31.188 36.827331,31.6313289 37.294,32.518 C37.7140021,33.3300041 37.924,34.2306617 37.924,35.22 Z M36.076,35.22 C36.076,34.6319971 36.0246672,34.104669 35.922,33.638 C35.7913327,33.0686638 35.6186677,32.784 35.404,32.784 C35.2173324,32.784 35.0306676,33.0919969 34.844,33.708 C34.6573324,34.2866696 34.564,34.7906645 34.564,35.22 C34.564,35.7893362 34.6479992,36.3539972 34.816,36.914 C34.9933342,37.5206697 35.1893323,37.824 35.404,37.824 C35.8613356,37.824 36.09,37.2966719 36.09,36.242 L36.09,35.724 C36.0806666,35.4906655 36.076,35.3226672 36.076,35.22 Z"/>
  </g>
</svg>
