<svg xmlns="http://www.w3.org/2000/svg" xmlns:xlink="http://www.w3.org/1999/xlink" width="64" height="64" viewBox="0 0 64 64">
  <defs>
    <circle id="weblink-a" cx="18" cy="18" r="18"/>
  </defs>
  <g fill="none" fill-rule="evenodd">
    <g transform="translate(24 6)">
      <mask id="weblink-b" fill="#fff">
        <use xlink:href="#weblink-a"/>
      </mask>
      <use fill="#B4DFFB" xlink:href="#weblink-a"/>
      <path fill="#22BA8E" d="M27.4995846 12.7538974C27.4995846 12.7538974 23.1285694 10.9700507 21.8266173 11.861974 20.5246651 12.7538974 21.2201882 16.9654295 21.2201882 16.9654295 21.2201882 16.9654295 19.2798118 19.7463344 20.25 21.2089567 21.2201882 22.671579 23.9151553 22.168808 25.4292591 23.4589466 26.943363 24.7490852 26.3142913 27.0645419 26.3142913 27.0645419L25.9480711 29.7678769C25.9480711 29.7678769 30.0035659 27.9505584 31.1721233 25.3323794 32.3406807 22.7142004 31.9621547 18.6094825 31.9621547 18.6094825L34.3292957 16.4633535 36.4108786 9.71288388 29.106228 7.35052093 28.3014296 3.75 23.0778696 5.23063215 22.6058196 9.15765453 26.6178479 10.4860101 27.4995846 12.7538974zM-1.35808945 15.0302297C-1.35808945 15.0302297.119366474 14.0882415.316563573 14.0732515 1.82943665 13.95825 7.10128473 14.2798648 8.47967433 12.2815326 10.0377316 10.0227256 11.3365045 7.03166932 11.3365045 7.03166932L11.2843185 4.73031431 3.13766281 2.73102683-1.35808945 15.0302297z" mask="url(#weblink-b)"/>
    </g>
    <path stroke="#595959" stroke-linecap="round" stroke-width="2" d="M20.5,45.8844103 L20.5,48.3675015 C20.5,51.2021021 18.1537162,53.5 15.2577286,53.5 L14.7422714,53.5 C11.8470449,53.5 9.5,51.2057457 9.5,48.3754744 L9.5,38.6245256 L9.5,38.6245256 C9.5,35.7943283 11.8462838,33.5 14.7422714,33.5 L15.2577286,33.5 C18.1529551,33.5 20.5,35.7986732 20.5,38.6287999 L20.5,40.7023573" transform="rotate(90 15 43.5)"/>
    <path stroke="#868686" stroke-linecap="round" stroke-width="2" d="M19.5,47.2323504 L19.5,44.6253091 L19.5,44.6253091 C19.5,41.7946791 21.8462838,39.5 24.7422714,39.5 L25.2577286,39.5 C28.1529551,39.5 30.5,41.7942543 30.5,44.6245256 L30.5,54.3754744 C30.5,57.2056717 28.1537162,59.5 25.2577286,59.5 L24.7422714,59.5 C21.8470449,59.5 19.5,57.2024401 19.5,54.3728399 L19.5,52.3931999" transform="rotate(90 25 49.5)"/>
  </g>
</svg>
