<svg xmlns="http://www.w3.org/2000/svg" xmlns:xlink="http://www.w3.org/1999/xlink" width="64" height="64" viewBox="0 0 64 64">
  <defs>
    <circle id="webmoney-a" cx="24.811" cy="24" r="24"/>
  </defs>
  <g fill="none" fill-rule="evenodd">
    <g transform="translate(3 9)">
      <mask id="webmoney-b" fill="#fff">
        <use xlink:href="#webmoney-a"/>
      </mask>
      <use fill="#5EA7FF" xlink:href="#webmoney-a"/>
      <path fill="#E8E8E8" d="M37.4768987 17.0051965C37.4768987 17.0051965 31.6488785 14.6267342 29.9129423 15.8159654 28.1770061 17.0051965 29.1043701 22.6205727 29.1043701 22.6205727 29.1043701 22.6205727 26.5172017 26.3284459 27.8107859 28.278609 29.1043701 30.228772 32.6976596 29.5584107 34.7164648 31.2785955 36.73527 32.9987803 35.8965076 36.0860558 35.8965076 36.0860558L35.408214 39.6905025C35.408214 39.6905025 40.8155404 37.2674113 42.373617 33.7765059 43.9316935 30.2856006 43.4269923 24.8126434 43.4269923 24.8126434L46.5831802 21.951138 49.3586241 12.9505118 39.6190899 9.80069457 38.5460254 5 31.5812787 6.9741762 30.9518788 12.210206 36.3012498 13.9813469 37.4768987 17.0051965zM-1 20.0403062C-1 20.0403062.969941238 18.784322 1.2328707 18.7643353 3.25003481 18.611 10.2791656 19.0398197 12.1170184 16.3753768 14.1944281 13.3636342 15.9261253 9.3755591 15.9261253 9.3755591L15.856544 6.30708574 4.99433636 3.6413691-1 20.0403062zM14.1819321 42.0749846L15.0126049 32.9010865 8.33911962 27.7922297C8.33911962 27.7922297 7.95371079 23.7038303 12.797599 23.126082 17.6414873 22.5483338 20.6258509 25.5443765 20.6258509 25.5443765 20.6258509 25.5443765 22.5488804 28.5202895 21.8317134 30.5419173 21.1145464 32.5635451 19.2590365 35.590919 19.2590365 35.590919 19.2590365 35.590919 19.1118518 39.0301833 17.8542651 40.6362709 16.5966784 42.2423586 14.1819321 42.0749846 14.1819321 42.0749846z" mask="url(#webmoney-b)"/>
    </g>
    <rect width="33" height="54" x="27" y="6" fill="#80D25B"/>
    <path fill="#0A3586" d="M45.32,18.875 C45.6933352,19.0383342 45.88,19.3299979 45.88,19.75 C45.88,20.3800031 45.5883362,20.8349986 45.005,21.115 C44.6316648,21.3016676 44.10667,21.395 43.43,21.395 C42.8233303,21.395 42.2050031,21.2958343 41.575,21.0975 C40.9449968,20.8991657 40.5950004,20.7183342 40.525,20.555 C40.1283313,19.4349944 40.3266627,18.6300024 41.12,18.14 C41.3066676,18.0233327 41.6683306,17.965 42.205,17.965 C43.6750073,17.965 44.7133303,18.2683303 45.32,18.875 Z M50.255,31.72 C50.255,33.4233419 49.3450091,35.5116543 47.525,37.985 C45.7749913,40.2250112 44.095008,41.345 42.485,41.345 C40.8983254,41.345 39.2883415,40.8550049 37.655,39.875 C36.254993,38.8483282 35.5783331,37.9033376 35.625,37.04 C35.6716669,36.5499976 36.266661,36.305 37.41,36.305 C38.3666715,36.305 39.2533292,36.4683317 40.07,36.795 C40.3500014,37.0283345 40.8049969,37.3199982 41.435,37.67 C41.8316686,37.6933335 42.3974963,37.238338 43.1325,36.305 C43.8675037,35.371662 44.235,34.6483359 44.235,34.135 C44.235,33.8316652 44.0366687,33.68 43.64,33.68 C43.429999,33.68 42.5433412,33.7499993 40.98,33.89 C39.4166588,34.0300007 38.2383373,34.1 37.445,34.1 C35.6716578,34.1 34.5633355,33.5750053 34.12,32.525 C34.0966666,32.5016666 34.085,32.385001 34.085,32.175 C34.085,30.9616606 35.1349895,29.1183457 37.235,26.645 C39.5450116,24.0083202 41.5399916,22.69 43.22,22.69 C44.410006,22.69 45.6116606,23.1449955 46.825,24.055 C48.1083398,24.8716708 48.7033338,25.5016644 48.61,25.945 C48.3299986,27.4383408 47.3850081,28.185 45.775,28.185 C45.5183321,28.185 45.2383349,28.1441671 44.935,28.0625 C44.6316652,27.9808329 44.3166683,27.7241688 43.99,27.2925 C43.6633317,26.8608312 43.3133352,26.645 42.94,26.645 C42.5199979,26.645 41.7675054,27.2341608 40.6825,28.4125 C39.5974946,29.5908392 39.055,30.4366641 39.055,30.95 C39.055,31.0200003 39.1483324,31.055 39.335,31.055 C39.6850018,31.055 40.8399902,30.8450021 42.8,30.425 C44.7600098,30.0049979 46.2883278,29.795 47.385,29.795 C49.2983429,29.795 50.255,30.4366602 50.255,31.72 Z M45.355,44.6 C45.355,45.5800049 44.6900066,46.2916645 43.36,46.735 C43.0099983,46.8283338 42.3858378,46.705835 41.4875,46.3675 C40.5891622,46.029165 40.1283335,45.7200014 40.105,45.44 C39.9883327,44.4599951 40.1866641,43.7950018 40.7,43.445 C40.9800014,43.2349989 41.4349969,43.13 42.065,43.13 C42.8350039,43.13 43.5466634,43.2349989 44.2,43.445 C44.8533366,43.655001 45.2091664,43.8708322 45.2675,44.0925 C45.3258336,44.3141678 45.355,44.4833328 45.355,44.6 Z"/>
  </g>
</svg>
