<svg xmlns="http://www.w3.org/2000/svg" width="64" height="64" viewBox="0 0 64 64">
  <g fill="none" fill-rule="evenodd">
    <circle cx="32" cy="32" r="30" stroke="#5B68C0" stroke-linecap="round" stroke-width="2"/>
    <path fill="#5B68C0" d="M22.48,28.08 C22.5200002,28.1866672 22.54,28.2866662 22.54,28.38 C22.54,28.5933344 22.4200012,28.8533318 22.18,29.16 C21.8866652,29.5200018 21.706667,29.799999 21.64,30 L19.44,36.64 C19.373333,36.8533344 19.34,37.1066652 19.34,37.4 L19.34,37.84 C19.3533334,38.0266676 19.36,38.1666662 19.36,38.26 C19.36,38.7533358 19.193335,39.1199988 18.86,39.36 C18.526665,39.6000012 18.1466688,39.72 17.72,39.72 C17.0799968,39.72 16.5466688,39.4800024 16.12,39 C15.9066656,38.7599988 15.8,38.4866682 15.8,38.18 C15.8,37.7266644 15.7866668,37.4400006 15.76,37.32 L14.56,32.88 L13.4,36.88 C13.3599998,37.0266674 13.3266668,37.3066646 13.3,37.72 C13.2733332,38.053335 13.2000006,38.319999 13.08,38.52 C12.5733308,39.3466708 11.953337,39.76 11.22,39.76 C10.9666654,39.76 10.7333344,39.6866674 10.52,39.54 C10.253332,39.3666658 10.0933336,39.1000018 10.04,38.74 C9.9866664,38.3799982 9.9333336,38.0266684 9.88,37.68 L8.12,30.84 C8.0799998,30.6666658 7.960001,30.346669 7.76,29.88 C7.5999992,29.5199982 7.52,29.2133346 7.52,28.96 C7.52,28.7866658 7.553333,28.6133342 7.62,28.44 C7.7400006,28.0666648 8.2199958,27.88 9.06,27.88 C9.526669,27.88 9.8399992,27.946666 10,28.08 C10.200001,28.2533342 10.3066666,28.5333314 10.32,28.92 C10.3333334,29.5066696 10.3466666,29.8266664 10.36,29.88 L11.56,34.68 L13.24,29.76 C13.2666668,29.6666662 13.28,29.5733338 13.28,29.48 C13.28,29.3999996 13.2633335,29.2833341 13.23,29.13 C13.1966665,28.9766659 13.18,28.8600004 13.18,28.78 C13.18,28.4866652 13.3399984,28.2600008 13.66,28.1 C13.926668,27.9533326 14.2199984,27.88 14.54,27.88 C14.9800022,27.88 15.3466652,27.9866656 15.64,28.2 C16.0133352,28.466668 16.2199998,28.8099979 16.26,29.23 C16.3000002,29.6500021 16.3333332,30.0666646 16.36,30.48 L17.56,35.28 L19.48,29.52 C19.5066668,29.4399996 19.52,29.3533338 19.52,29.26 C19.52,29.1533328 19.5000002,29.0100009 19.46,28.83 C19.4199998,28.6499991 19.4,28.5133338 19.4,28.42 C19.4,28.2999994 19.4266664,28.1866672 19.48,28.08 C19.680001,27.7199982 20.2066624,27.54 21.06,27.54 C21.860004,27.54 22.3333326,27.7199982 22.48,28.08 Z M38.76,28.08 C38.8000002,28.1866672 38.82,28.2866662 38.82,28.38 C38.82,28.5933344 38.7000012,28.8533318 38.46,29.16 C38.1666652,29.5200018 37.986667,29.799999 37.92,30 L35.72,36.64 C35.653333,36.8533344 35.62,37.1066652 35.62,37.4 L35.62,37.84 C35.6333334,38.0266676 35.64,38.1666662 35.64,38.26 C35.64,38.7533358 35.473335,39.1199988 35.14,39.36 C34.806665,39.6000012 34.4266688,39.72 34,39.72 C33.3599968,39.72 32.8266688,39.4800024 32.4,39 C32.1866656,38.7599988 32.08,38.4866682 32.08,38.18 C32.08,37.7266644 32.0666668,37.4400006 32.04,37.32 L30.84,32.88 L29.68,36.88 C29.6399998,37.0266674 29.6066668,37.3066646 29.58,37.72 C29.5533332,38.053335 29.4800006,38.319999 29.36,38.52 C28.8533308,39.3466708 28.233337,39.76 27.5,39.76 C27.2466654,39.76 27.0133344,39.6866674 26.8,39.54 C26.533332,39.3666658 26.3733336,39.1000018 26.32,38.74 C26.2666664,38.3799982 26.2133336,38.0266684 26.16,37.68 L24.4,30.84 C24.3599998,30.6666658 24.240001,30.346669 24.04,29.88 C23.8799992,29.5199982 23.8,29.2133346 23.8,28.96 C23.8,28.7866658 23.833333,28.6133342 23.9,28.44 C24.0200006,28.0666648 24.4999958,27.88 25.34,27.88 C25.806669,27.88 26.1199992,27.946666 26.28,28.08 C26.480001,28.2533342 26.5866666,28.5333314 26.6,28.92 C26.6133334,29.5066696 26.6266666,29.8266664 26.64,29.88 L27.84,34.68 L29.52,29.76 C29.5466668,29.6666662 29.56,29.5733338 29.56,29.48 C29.56,29.3999996 29.5433335,29.2833341 29.51,29.13 C29.4766665,28.9766659 29.46,28.8600004 29.46,28.78 C29.46,28.4866652 29.6199984,28.2600008 29.94,28.1 C30.206668,27.9533326 30.4999984,27.88 30.82,27.88 C31.2600022,27.88 31.6266652,27.9866656 31.92,28.2 C32.2933352,28.466668 32.4999998,28.8099979 32.54,29.23 C32.5800002,29.6500021 32.6133332,30.0666646 32.64,30.48 L33.84,35.28 L35.76,29.52 C35.7866668,29.4399996 35.8,29.3533338 35.8,29.26 C35.8,29.1533328 35.7800002,29.0100009 35.74,28.83 C35.6999998,28.6499991 35.68,28.5133338 35.68,28.42 C35.68,28.2999994 35.7066664,28.1866672 35.76,28.08 C35.960001,27.7199982 36.4866624,27.54 37.34,27.54 C38.140004,27.54 38.6133326,27.7199982 38.76,28.08 Z M55.04,28.08 C55.0800002,28.1866672 55.1,28.2866662 55.1,28.38 C55.1,28.5933344 54.9800012,28.8533318 54.74,29.16 C54.4466652,29.5200018 54.266667,29.799999 54.2,30 L52,36.64 C51.933333,36.8533344 51.9,37.1066652 51.9,37.4 L51.9,37.84 C51.9133334,38.0266676 51.92,38.1666662 51.92,38.26 C51.92,38.7533358 51.753335,39.1199988 51.42,39.36 C51.086665,39.6000012 50.7066688,39.72 50.28,39.72 C49.6399968,39.72 49.1066688,39.4800024 48.68,39 C48.4666656,38.7599988 48.36,38.4866682 48.36,38.18 C48.36,37.7266644 48.3466668,37.4400006 48.32,37.32 L47.12,32.88 L45.96,36.88 C45.9199998,37.0266674 45.8866668,37.3066646 45.86,37.72 C45.8333332,38.053335 45.7600006,38.319999 45.64,38.52 C45.1333308,39.3466708 44.513337,39.76 43.78,39.76 C43.5266654,39.76 43.2933344,39.6866674 43.08,39.54 C42.813332,39.3666658 42.6533336,39.1000018 42.6,38.74 C42.5466664,38.3799982 42.4933336,38.0266684 42.44,37.68 L40.68,30.84 C40.6399998,30.6666658 40.520001,30.346669 40.32,29.88 C40.1599992,29.5199982 40.08,29.2133346 40.08,28.96 C40.08,28.7866658 40.113333,28.6133342 40.18,28.44 C40.3000006,28.0666648 40.7799958,27.88 41.62,27.88 C42.086669,27.88 42.3999992,27.946666 42.56,28.08 C42.760001,28.2533342 42.8666666,28.5333314 42.88,28.92 C42.8933334,29.5066696 42.9066666,29.8266664 42.92,29.88 L44.12,34.68 L45.8,29.76 C45.8266668,29.6666662 45.84,29.5733338 45.84,29.48 C45.84,29.3999996 45.8233335,29.2833341 45.79,29.13 C45.7566665,28.9766659 45.74,28.8600004 45.74,28.78 C45.74,28.4866652 45.8999984,28.2600008 46.22,28.1 C46.486668,27.9533326 46.7799984,27.88 47.1,27.88 C47.5400022,27.88 47.9066652,27.9866656 48.2,28.2 C48.5733352,28.466668 48.7799998,28.8099979 48.82,29.23 C48.8600002,29.6500021 48.8933332,30.0666646 48.92,30.48 L50.12,35.28 L52.04,29.52 C52.0666668,29.4399996 52.08,29.3533338 52.08,29.26 C52.08,29.1533328 52.0600002,29.0100009 52.02,28.83 C51.9799998,28.6499991 51.96,28.5133338 51.96,28.42 C51.96,28.2999994 51.9866664,28.1866672 52.04,28.08 C52.240001,27.7199982 52.7666624,27.54 53.62,27.54 C54.420004,27.54 54.8933326,27.7199982 55.04,28.08 Z"/>
  </g>
</svg>
