<svg xmlns="http://www.w3.org/2000/svg" xmlns:xlink="http://www.w3.org/1999/xlink" width="64" height="64" viewBox="0 0 64 64">
  <defs>
    <circle id="webpound-a" cx="24" cy="24" r="24"/>
  </defs>
  <g fill="none" fill-rule="evenodd">
    <g transform="translate(3 14)">
      <mask id="webpound-b" fill="#fff">
        <use xlink:href="#webpound-a"/>
      </mask>
      <use fill="#5EA7FF" xlink:href="#webpound-a"/>
      <path fill="#E8E8E8" d="M36.6661127 17.0051965C36.6661127 17.0051965 30.8380926 14.6267342 29.1021564 15.8159654 27.3662202 17.0051965 28.2935842 22.6205727 28.2935842 22.6205727 28.2935842 22.6205727 25.7064158 26.3284459 27 28.278609 28.2935842 30.228772 31.8868737 29.5584107 33.9056789 31.2785955 35.924484 32.9987803 35.0857217 36.0860558 35.0857217 36.0860558L34.5974281 39.6905025C34.5974281 39.6905025 40.0047545 37.2674113 41.562831 33.7765059 43.1209076 30.2856006 42.6162063 24.8126434 42.6162063 24.8126434L45.7723943 21.951138 48.5478382 12.9505118 38.8083039 9.80069457 37.7352394 5 30.7704928 6.9741762 30.1410929 12.210206 35.4904638 13.9813469 36.6661127 17.0051965zM-1.81078594 20.0403062C-1.81078594 20.0403062.159155298 18.784322.422084765 18.7643353 2.43924887 18.611 9.46837964 19.0398197 11.3062324 16.3753768 13.3836422 13.3636342 15.1153394 9.3755591 15.1153394 9.3755591L15.045758 6.30708574 4.18355042 3.6413691-1.81078594 20.0403062z" mask="url(#webpound-b)"/>
    </g>
    <path fill="#E8E8E8" d="M15.8500764,56.022879 L16.6807492,46.8489809 L10.0072639,41.7401241 C10.0072639,41.7401241 9.62185509,37.6517247 14.4657433,37.0739764 C19.3096316,36.4962281 22.2939952,39.4922708 22.2939952,39.4922708 C22.2939952,39.4922708 24.2170247,42.4681839 23.4998577,44.4898117 C22.7826907,46.5114395 20.9271808,49.5388133 20.9271808,49.5388133 C20.9271808,49.5388133 20.7799961,52.9780776 19.5224094,54.5841653 C18.2648227,56.190253 15.8500764,56.022879 15.8500764,56.022879 Z"/>
    <circle cx="53" cy="11" r="10" fill="#D650C7"/>
    <path fill="#FFDD95" d="M55.5134088,14.6740155 C55.5886357,14.3572707 55.7454979,14.140601 55.984,14.024 C56.2240012,13.9066661 56.4666654,13.885333 56.712,13.96 C57.2880029,14.1626677 57.4960008,14.5733302 57.336,15.192 C56.8986645,16.258672 56.1626718,16.9039989 55.128,17.128 C54.9146656,17.128 54.6853346,17.1120002 54.44,17.08 C54.1946654,17.0479998 53.938668,16.994667 53.672,16.92 C53.5226659,16.8879998 53.3733341,16.8586668 53.224,16.832 C53.0746659,16.8053332 52.9306674,16.792 52.792,16.792 C52.599999,16.792 52.4240008,16.8186664 52.264,16.872 L51.64,17.064 C51.1919978,17.1280003 50.7706686,17.1493334 50.376,17.128 C49.9279978,16.9893326 49.6480006,16.8133344 49.536,16.6 C49.4239994,16.3866656 49.3999997,16.1520013 49.464,15.896 C49.4853334,15.7999995 49.5226664,15.7173337 49.576,15.648 C49.6293336,15.5786663 49.6879997,15.5013338 49.752,15.416 C49.8053336,15.3306662 49.8666663,15.2480004 49.936,15.168 C50.0053337,15.0879996 50.0613331,15.0000005 50.104,14.904 L50.088,14.936 C50.2053339,14.3386637 50.3199994,13.7760026 50.432,13.248 C50.5440006,12.7199974 50.6533328,12.1626696 50.76,11.576 C50.6426661,11.5866667 50.5333338,11.5893334 50.432,11.584 C50.3306662,11.5786666 50.2213339,11.576 50.104,11.576 L49.88,11.576 C49.687999,11.576 49.5360006,11.4880009 49.424,11.312 C49.3119994,11.1359991 49.256,10.9573342 49.256,10.776 C49.256,10.6373326 49.2719998,10.4853342 49.304,10.32 C49.3360002,10.1546658 49.3946662,10.0133339 49.48,9.896 C49.5440003,9.85333312 49.6506659,9.81066688 49.8,9.768 C49.9493341,9.72533312 50.0986659,9.69333344 50.248,9.672 C50.3973341,9.65066656 50.5306661,9.63733336 50.648,9.632 C50.7653339,9.62666664 50.824,9.62933328 50.824,9.64 C50.824,9.62933328 50.8559997,9.62133336 50.92,9.616 C50.9840003,9.61066664 51.0693328,9.608 51.176,9.608 L52.136,4.744 C52.2320005,4.38133152 52.4613315,4.11466752 52.824,3.944 C53.1866685,3.77333248 53.6613304,3.7146664 54.248,3.768 L54.328,3.768 L54.984,3.832 C55.9973384,4.08800128 56.5466662,4.75466128 56.632,5.832 C56.6533334,5.97066736 56.6426669,6.09866608 56.6,6.216 C56.525333,6.44000112 56.3813344,6.6053328 56.168,6.712 C55.9546656,6.8186672 55.7306678,6.8453336 55.496,6.792 C55.2933323,6.72799968 55.1333339,6.6160008 55.016,6.456 C54.8986661,6.2959992 54.84,6.09333456 54.84,5.848 C54.8720002,5.6879992 54.7386682,5.57066704 54.44,5.496 C54.3226661,5.50666672 54.234667,5.51999992 54.176,5.536 C54.117333,5.55200008 54.0613336,5.59199968 54.008,5.656 C53.9653331,5.78400064 53.877334,6.1679968 53.744,6.808 C53.610666,7.4480032 53.4320011,8.37599392 53.208,9.592 C53.400001,9.57066656 53.5706659,9.56 53.72,9.56 L54.184,9.56 C54.6320022,9.54933328 55.026665,9.58133296 55.368,9.656 C55.6026678,9.73066704 55.7786661,9.89599872 55.896,10.152 C56.0133339,10.4080013 56.0506669,10.6746653 56.008,10.952 C55.8799994,11.5813365 55.5333362,11.7946677 54.968,11.592 C54.9253331,11.5706666 54.8826669,11.5573334 54.84,11.552 C54.7973331,11.5466666 54.7493336,11.5386667 54.696,11.528 C54.4399987,11.453333 54.1093354,11.4319998 53.704,11.464 L52.808,11.544 L52.152,14.744 C52.3226675,14.7226666 52.4826659,14.7066667 52.632,14.696 C52.7813341,14.6853333 52.9359992,14.68 53.096,14.68 C53.4160016,14.68 53.7173319,14.7119997 54,14.776 C54.2826681,14.8400003 54.5626653,14.9466659 54.84,15.096 L54.824,15.096 C55.1043367,15.1271485 55.3341375,14.9864884 55.5134088,14.6740155 L55.5134088,14.6740155 Z"/>
  </g>
</svg>
