<svg xmlns="http://www.w3.org/2000/svg" xmlns:xlink="http://www.w3.org/1999/xlink" width="64" height="64" viewBox="0 0 64 64">
  <defs>
    <circle id="webread-a" cx="18" cy="18" r="18"/>
  </defs>
  <g fill="none" fill-rule="evenodd">
    <path fill="#D8D8D8" d="M32,31.5440027 C32,31.5440027 37.3000057,29 42.6000114,29 C47.9000171,29 53.2000227,31.5440027 53.2000227,31.5440027 L53.2000227,62.9200364 C53.2000227,62.9200364 47.9000171,60.3760337 42.6000114,60.3760337 C37.3000057,60.3760337 32,62.9200364 32,62.9200364 L32,31.5440027 Z"/>
    <path fill="#ECECEC" d="M11,31.5440027 C11,31.5440027 16.3000057,29 21.6000114,29 C26.9000171,29 32.2000227,31.5440027 32.2000227,31.5440027 L32.2000227,62.9200364 C32.2000227,62.9200364 26.9000171,60.3760337 21.6000114,60.3760337 C16.3000057,60.3760337 11,62.9200364 11,62.9200364 L11,31.5440027 Z"/>
    <path stroke="#B6B6B6" stroke-width="2" d="M14 35.8766278C14 35.8766278 21.1094365 31.631173 28.7817057 35.9113325M14 40.8766278C14 40.8766278 21.1094365 36.631173 28.7817057 40.9113325M14 45.8766278C14 45.8766278 21.1094365 41.631173 28.7817057 45.9113325M14 50.8766278C14 50.8766278 21.1094365 46.631173 28.7817057 50.9113325M14 55.8766278C14 55.8766278 21.1094365 51.631173 28.7817057 55.9113325M35 35.8766278C35 35.8766278 42.1094365 31.631173 49.7817057 35.9113325M35 40.8766278C35 40.8766278 42.1094365 36.631173 49.7817057 40.9113325M35 45.8766278C35 45.8766278 42.1094365 41.631173 49.7817057 45.9113325M35 50.8766278C35 50.8766278 42.1094365 46.631173 49.7817057 50.9113325M35 55.8766278C35 55.8766278 42.1094365 51.631173 49.7817057 55.9113325"/>
    <g transform="translate(14 1)">
      <mask id="webread-b" fill="#fff">
        <use xlink:href="#webread-a"/>
      </mask>
      <use fill="#5EA7FF" xlink:href="#webread-a"/>
      <path fill="#E8E8E8" d="M27.4995846 12.7538974C27.4995846 12.7538974 23.1285694 10.9700507 21.8266173 11.861974 20.5246651 12.7538974 21.2201882 16.9654295 21.2201882 16.9654295 21.2201882 16.9654295 19.2798118 19.7463344 20.25 21.2089567 21.2201882 22.671579 23.9151553 22.168808 25.4292591 23.4589466 26.943363 24.7490852 26.3142913 27.0645419 26.3142913 27.0645419L25.9480711 29.7678769C25.9480711 29.7678769 30.0035659 27.9505584 31.1721233 25.3323794 32.3406807 22.7142004 31.9621547 18.6094825 31.9621547 18.6094825L34.3292957 16.4633535 36.4108786 9.71288388 29.106228 7.35052093 28.3014296 3.75 23.0778696 5.23063215 22.6058196 9.15765453 26.6178479 10.4860101 27.4995846 12.7538974zM-1.35808945 15.0302297C-1.35808945 15.0302297.119366474 14.0882415.316563573 14.0732515 1.82943665 13.95825 7.10128473 14.2798648 8.47967433 12.2815326 10.0377316 10.0227256 11.3365045 7.03166932 11.3365045 7.03166932L11.2843185 4.73031431 3.13766281 2.73102683-1.35808945 15.0302297z" mask="url(#webread-b)"/>
    </g>
  </g>
</svg>
