<svg xmlns="http://www.w3.org/2000/svg" width="64" height="64" viewBox="0 0 64 64">
  <g fill="none" fill-rule="evenodd">
    <path fill="#325AA6" d="M4,31.5 C4,26.8055796 7.80305213,23 12.5003708,23 L63,23 L63,40 L12.5003708,40 C7.80574566,40 4,36.1848682 4,31.5 L4,31.5 Z"/>
    <path fill="#FFF" d="M21.472,27.378 C21.5000001,27.452667 21.514,27.5226663 21.514,27.588 C21.514,27.7373341 21.4300008,27.9193323 21.262,28.134 C21.0566656,28.3860013 20.9306669,28.5819993 20.884,28.722 L19.344,33.37 C19.2973331,33.5193341 19.274,33.6966656 19.274,33.902 L19.274,34.21 C19.2833334,34.3406673 19.288,34.4386663 19.288,34.504 C19.288,34.8493351 19.1713345,35.1059992 18.938,35.274 C18.7046655,35.4420008 18.4386682,35.526 18.14,35.526 C17.6919978,35.526 17.3186682,35.3580017 17.02,35.022 C16.8706659,34.8539992 16.796,34.6626677 16.796,34.448 C16.796,34.1306651 16.7866668,33.9300004 16.768,33.846 L15.928,30.738 L15.116,33.538 C15.0879999,33.6406672 15.0646668,33.8366652 15.046,34.126 C15.0273332,34.3593345 14.9760004,34.5459993 14.892,34.686 C14.5373316,35.2646696 14.1033359,35.554 13.59,35.554 C13.4126658,35.554 13.2493341,35.5026672 13.1,35.4 C12.9133324,35.2786661 12.8013335,35.0920013 12.764,34.84 C12.7266665,34.5879987 12.6893335,34.3406679 12.652,34.098 L11.42,29.31 C11.3919999,29.1886661 11.3080007,28.9646683 11.168,28.638 C11.0559994,28.3859987 11,28.1713342 11,27.994 C11,27.8726661 11.0233331,27.7513339 11.07,27.63 C11.1540004,27.3686654 11.4899971,27.238 12.078,27.238 C12.4046683,27.238 12.6239994,27.2846662 12.736,27.378 C12.8760007,27.4993339 12.9506666,27.695332 12.96,27.966 C12.9693334,28.3766687 12.9786666,28.6006665 12.988,28.638 L13.828,31.998 L15.004,28.554 C15.0226668,28.4886663 15.032,28.4233337 15.032,28.358 C15.032,28.3019997 15.0203335,28.2203339 14.997,28.113 C14.9736666,28.0056661 14.962,27.9240003 14.962,27.868 C14.962,27.6626656 15.0739989,27.5040006 15.298,27.392 C15.4846676,27.2893328 15.6899989,27.238 15.914,27.238 C16.2220015,27.238 16.4786656,27.3126659 16.684,27.462 C16.9453346,27.6486676 17.0899999,27.8889985 17.118,28.183 C17.1460001,28.4770015 17.1693332,28.7686652 17.188,29.058 L18.028,32.418 L19.372,28.386 C19.3906668,28.3299997 19.4,28.2693337 19.4,28.204 C19.4,28.129333 19.3860001,28.0290006 19.358,27.903 C19.3299999,27.7769994 19.316,27.6813337 19.316,27.616 C19.316,27.5319996 19.3346665,27.452667 19.372,27.378 C19.5120007,27.1259987 19.8806637,27 20.478,27 C21.0380028,27 21.3693328,27.1259987 21.472,27.378 Z M32.868,27.378 C32.8960001,27.452667 32.91,27.5226663 32.91,27.588 C32.91,27.7373341 32.8260008,27.9193323 32.658,28.134 C32.4526656,28.3860013 32.3266669,28.5819993 32.28,28.722 L30.74,33.37 C30.6933331,33.5193341 30.67,33.6966656 30.67,33.902 L30.67,34.21 C30.6793334,34.3406673 30.684,34.4386663 30.684,34.504 C30.684,34.8493351 30.5673345,35.1059992 30.334,35.274 C30.1006655,35.4420008 29.8346682,35.526 29.536,35.526 C29.0879978,35.526 28.7146682,35.3580017 28.416,35.022 C28.2666659,34.8539992 28.192,34.6626677 28.192,34.448 C28.192,34.1306651 28.1826668,33.9300004 28.164,33.846 L27.324,30.738 L26.512,33.538 C26.4839999,33.6406672 26.4606668,33.8366652 26.442,34.126 C26.4233332,34.3593345 26.3720004,34.5459993 26.288,34.686 C25.9333316,35.2646696 25.4993359,35.554 24.986,35.554 C24.8086658,35.554 24.6453341,35.5026672 24.496,35.4 C24.3093324,35.2786661 24.1973335,35.0920013 24.16,34.84 C24.1226665,34.5879987 24.0853335,34.3406679 24.048,34.098 L22.816,29.31 C22.7879999,29.1886661 22.7040007,28.9646683 22.564,28.638 C22.4519994,28.3859987 22.396,28.1713342 22.396,27.994 C22.396,27.8726661 22.4193331,27.7513339 22.466,27.63 C22.5500004,27.3686654 22.8859971,27.238 23.474,27.238 C23.8006683,27.238 24.0199994,27.2846662 24.132,27.378 C24.2720007,27.4993339 24.3466666,27.695332 24.356,27.966 C24.3653334,28.3766687 24.3746666,28.6006665 24.384,28.638 L25.224,31.998 L26.4,28.554 C26.4186668,28.4886663 26.428,28.4233337 26.428,28.358 C26.428,28.3019997 26.4163335,28.2203339 26.393,28.113 C26.3696666,28.0056661 26.358,27.9240003 26.358,27.868 C26.358,27.6626656 26.4699989,27.5040006 26.694,27.392 C26.8806676,27.2893328 27.0859989,27.238 27.31,27.238 C27.6180015,27.238 27.8746656,27.3126659 28.08,27.462 C28.3413346,27.6486676 28.4859999,27.8889985 28.514,28.183 C28.5420001,28.4770015 28.5653332,28.7686652 28.584,29.058 L29.424,32.418 L30.768,28.386 C30.7866668,28.3299997 30.796,28.2693337 30.796,28.204 C30.796,28.129333 30.7820001,28.0290006 30.754,27.903 C30.7259999,27.7769994 30.712,27.6813337 30.712,27.616 C30.712,27.5319996 30.7306665,27.452667 30.768,27.378 C30.9080007,27.1259987 31.2766637,27 31.874,27 C32.4340028,27 32.7653328,27.1259987 32.868,27.378 Z M44.264,27.378 C44.2920001,27.452667 44.306,27.5226663 44.306,27.588 C44.306,27.7373341 44.2220008,27.9193323 44.054,28.134 C43.8486656,28.3860013 43.7226669,28.5819993 43.676,28.722 L42.136,33.37 C42.0893331,33.5193341 42.066,33.6966656 42.066,33.902 L42.066,34.21 C42.0753334,34.3406673 42.08,34.4386663 42.08,34.504 C42.08,34.8493351 41.9633345,35.1059992 41.73,35.274 C41.4966655,35.4420008 41.2306682,35.526 40.932,35.526 C40.4839978,35.526 40.1106682,35.3580017 39.812,35.022 C39.6626659,34.8539992 39.588,34.6626677 39.588,34.448 C39.588,34.1306651 39.5786668,33.9300004 39.56,33.846 L38.72,30.738 L37.908,33.538 C37.8799999,33.6406672 37.8566668,33.8366652 37.838,34.126 C37.8193332,34.3593345 37.7680004,34.5459993 37.684,34.686 C37.3293316,35.2646696 36.8953359,35.554 36.382,35.554 C36.2046658,35.554 36.0413341,35.5026672 35.892,35.4 C35.7053324,35.2786661 35.5933335,35.0920013 35.556,34.84 C35.5186665,34.5879987 35.4813335,34.3406679 35.444,34.098 L34.212,29.31 C34.1839999,29.1886661 34.1000007,28.9646683 33.96,28.638 C33.8479994,28.3859987 33.792,28.1713342 33.792,27.994 C33.792,27.8726661 33.8153331,27.7513339 33.862,27.63 C33.9460004,27.3686654 34.2819971,27.238 34.87,27.238 C35.1966683,27.238 35.4159994,27.2846662 35.528,27.378 C35.6680007,27.4993339 35.7426666,27.695332 35.752,27.966 C35.7613334,28.3766687 35.7706666,28.6006665 35.78,28.638 L36.62,31.998 L37.796,28.554 C37.8146668,28.4886663 37.824,28.4233337 37.824,28.358 C37.824,28.3019997 37.8123335,28.2203339 37.789,28.113 C37.7656665,28.0056661 37.754,27.9240003 37.754,27.868 C37.754,27.6626656 37.8659989,27.5040006 38.09,27.392 C38.2766676,27.2893328 38.4819989,27.238 38.706,27.238 C39.0140015,27.238 39.2706656,27.3126659 39.476,27.462 C39.7373346,27.6486676 39.8819999,27.8889985 39.91,28.183 C39.9380001,28.4770015 39.9613332,28.7686652 39.98,29.058 L40.82,32.418 L42.164,28.386 C42.1826668,28.3299997 42.192,28.2693337 42.192,28.204 C42.192,28.129333 42.1780001,28.0290006 42.15,27.903 C42.1219999,27.7769994 42.108,27.6813337 42.108,27.616 C42.108,27.5319996 42.1266665,27.452667 42.164,27.378 C42.3040007,27.1259987 42.6726637,27 43.27,27 C43.8300028,27 44.1613328,27.1259987 44.264,27.378 Z"/>
    <circle cx="45" cy="39" r="8" fill="#80D25B"/>
    <circle cx="45" cy="39" r="4" fill="#5DAF38"/>
    <path fill="#FFDD95" d="M55.8063492,51.5390579 L62.0563492,52.9693927 L54.5563492,34.0563492 L47.0563492,52.9693927 L53.3063492,51.5390579 L53.3063492,63.0563492 L55.8063492,63.0563492 L55.8063492,51.5390579 Z" transform="rotate(-45 54.556 48.556)"/>
  </g>
</svg>
