<svg xmlns="http://www.w3.org/2000/svg" xmlns:xlink="http://www.w3.org/1999/xlink" width="64" height="64" viewBox="0 0 64 64">
  <defs>
    <circle id="webstudent-a" cx="18" cy="18" r="18"/>
  </defs>
  <g fill="none" fill-rule="evenodd">
    <g transform="translate(13 22)">
      <mask id="webstudent-b" fill="#fff">
        <use xlink:href="#webstudent-a"/>
      </mask>
      <use fill="#5EA7FF" xlink:href="#webstudent-a"/>
      <path fill="#E8E8E8" d="M27.4995846 12.7538974C27.4995846 12.7538974 23.1285694 10.9700507 21.8266173 11.861974 20.5246651 12.7538974 21.2201882 16.9654295 21.2201882 16.9654295 21.2201882 16.9654295 19.2798118 19.7463344 20.25 21.2089567 21.2201882 22.671579 23.9151553 22.168808 25.4292591 23.4589466 26.943363 24.7490852 26.3142913 27.0645419 26.3142913 27.0645419L25.9480711 29.7678769C25.9480711 29.7678769 30.0035659 27.9505584 31.1721233 25.3323794 32.3406807 22.7142004 31.9621547 18.6094825 31.9621547 18.6094825L34.3292957 16.4633535 36.4108786 9.71288388 29.106228 7.35052093 28.3014296 3.75 23.0778696 5.23063215 22.6058196 9.15765453 26.6178479 10.4860101 27.4995846 12.7538974zM-1.35808945 15.0302297C-1.35808945 15.0302297.119366474 14.0882415.316563573 14.0732515 1.82943665 13.95825 7.10128473 14.2798648 8.47967433 12.2815326 10.0377316 10.0227256 11.3365045 7.03166932 11.3365045 7.03166932L11.2843185 4.73031431 3.13766281 2.73102683-1.35808945 15.0302297z" mask="url(#webstudent-b)"/>
    </g>
    <path fill="#595959" d="M47,30 L47,18 L15,18 L15,30 C15,31.6568542 22.163444,33 31,33 C39.836556,33 47,31.6568542 47,30 Z"/>
    <polygon fill="#868686" points="7 17.907 31.718 9 56.02 17.907 31.718 25.301"/>
    <polygon fill="#F1BE27" fill-rule="nonzero" points="20.967 17.792 20.584 15.829 13 18.376 13 35.096 15 35.096 15 20.023"/>
    <polygon fill="#FF462B" fill-rule="nonzero" points="13.135 33.631 10.282 39.246 12.065 40.152 14.918 34.537"/>
    <polygon fill="#FF462B" fill-rule="nonzero" points="13.202 34.629 15.813 39.673 17.589 38.754 14.978 33.71"/>
    <polygon fill="#FF462B" fill-rule="nonzero" points="13.116 34.594 13.111 42.165 15.111 42.166 15.116 34.595"/>
  </g>
</svg>
