<svg xmlns="http://www.w3.org/2000/svg" width="64" height="64" viewBox="0 0 64 64">
  <g fill="none" fill-rule="evenodd">
    <path fill="#325AA6" d="M2,23.0001221 C2,21.3432004 3.33730974,20 4.99593743,20 L62,20 L62,39 L4.99593743,39 C3.34132688,39 2,37.6639569 2,35.9998779 L2,23.0001221 Z"/>
    <circle cx="50" cy="36" r="7" stroke="#D8D8D8" stroke-linecap="round" stroke-width="2"/>
    <path fill="#FFF" d="M13.647,32.908 C13.6990003,33.1246677 13.725,33.263333 13.725,33.324 C13.725,33.5060009 13.6188344,33.6554994 13.4065,33.7725 C13.1941656,33.8895006 12.9666679,33.948 12.724,33.948 C12.3513315,33.948 12.1130005,33.8093347 12.009,33.532 C11.9656664,33.4193328 11.944,33.3240004 11.944,33.246 C11.944,33.1333328 11.9938328,33.0120007 12.0935,32.882 C12.1931672,32.7519994 12.243,32.6306672 12.243,32.518 C12.3470005,32.0673311 12.399,31.4173376 12.399,30.568 C12.399,29.0946593 12.295001,28.3406668 12.087,28.306 C11.9309992,28.2799999 11.6796684,28.5269974 11.333,29.047 C10.9689982,29.5930027 10.6656679,30.2039966 10.423,30.88 C10.1369986,31.6773373 10.0156665,32.3793303 10.059,32.986 C10.0329999,33.0380003 10.02,33.0899997 10.02,33.142 C10.02,33.2200004 10.0546663,33.3304993 10.124,33.4735 C10.1933337,33.6165007 10.228,33.7313329 10.228,33.818 C10.228,33.9046671 10.197667,33.9869996 10.137,34.065 C9.90299883,34.4030017 9.66900117,34.572 9.435,34.572 C9.19233212,34.572 8.95833446,34.3813352 8.733,34 C8.60299935,33.7746655 8.538,32.4790118 8.538,30.113 C8.538,29.246329 8.55966645,27.2746821 8.603,24.198 C8.603,24.1459997 8.59866671,24.0658339 8.59,23.9575 C8.58133329,23.8491661 8.577,23.764667 8.577,23.704 C8.58566671,23.6173329 8.61166645,23.5393337 8.655,23.47 C8.75033381,23.2879991 8.95399844,23.197 9.266,23.197 C9.54333472,23.197 9.79683218,23.2706659 10.0265,23.418 C10.2561678,23.5653341 10.3450003,23.7386657 10.293,23.938 C10.2843333,23.9900003 10.243167,24.0506663 10.1695,24.12 C10.095833,24.1893337 10.059,24.2586663 10.059,24.328 L10.059,28.514 C10.5530025,27.4046611 11.2809952,26.8153337 12.243,26.746 C12.7630026,26.7113332 13.1789984,27.1013293 13.491,27.916 C13.7770014,28.6613371 13.92,29.5756612 13.92,30.659 C13.92,31.4910042 13.8290009,32.2406633 13.647,32.908 Z M19.289,28.098 C19.2196663,28.098 19.1113341,28.0698336 18.964,28.0135 C18.8166659,27.9571664 18.7040004,27.929 18.626,27.929 C18.565333,27.929 18.504667,27.9419999 18.444,27.968 L17.963,28.215 L17.963,32.661 C17.963,32.8256675 18.0518324,33.0379987 18.2295,33.298 C18.4071676,33.5580013 18.4786668,33.7659992 18.444,33.922 C18.4006665,34.1126676 18.2728344,34.2643328 18.0605,34.377 C17.8481656,34.4896672 17.6206679,34.546 17.378,34.546 C16.9186644,34.546 16.6023342,34.3423354 16.429,33.935 C16.3769997,33.8136661 16.3466667,33.4280033 16.338,32.778 C16.3293333,32.3446645 16.3336666,31.6686713 16.351,30.75 C16.3683334,29.7099948 16.377,29.0513347 16.377,28.774 C16.3249997,28.7913334 16.2383339,28.8498328 16.117,28.9495 C15.9956661,29.0491672 15.8743339,29.099 15.753,29.099 C15.6576662,29.099 15.5363341,29.0730003 15.389,29.021 C14.7823303,28.812999 14.479,28.6006677 14.479,28.384 C14.479,28.3319997 14.4919999,28.275667 14.518,28.215 C14.578667,28.0763326 14.6913325,27.9983334 14.856,27.981 C15.1073346,27.9463332 15.2589997,27.9160001 15.311,27.89 C15.5103343,27.8119996 15.8743307,27.6256681 16.403,27.331 L16.403,26.2 C16.403,26.1133329 16.3791669,25.9985007 16.3315,25.8555 C16.2838331,25.7124993 16.26,25.6063337 16.26,25.537 C16.26,25.4589996 16.2816664,25.3853337 16.325,25.316 C16.5503345,24.9693316 16.8536648,24.796 17.235,24.796 C17.6770022,24.796 17.9889991,24.9693316 18.171,25.316 C18.2403337,25.4546674 18.275,25.5673329 18.275,25.654 C18.275,25.7580005 18.2230005,25.8663328 18.119,25.979 C18.0149995,26.0916672 17.963,26.1956662 17.963,26.291 L17.963,26.928 C18.1190008,26.8586663 18.2923324,26.7416675 18.483,26.577 C18.6303341,26.4556661 18.7559995,26.395 18.86,26.395 C18.9033335,26.395 18.9509997,26.4036666 19.003,26.421 C19.5490027,26.5683341 19.822,26.8976641 19.822,27.409 C19.822,27.5736675 19.7721672,27.7296659 19.6725,27.877 C19.5728328,28.0243341 19.4450008,28.098 19.289,28.098 Z M25.087,28.098 C25.0176663,28.098 24.9093341,28.0698336 24.762,28.0135 C24.6146659,27.9571664 24.5020004,27.929 24.424,27.929 C24.363333,27.929 24.302667,27.9419999 24.242,27.968 L23.761,28.215 L23.761,32.661 C23.761,32.8256675 23.8498324,33.0379987 24.0275,33.298 C24.2051676,33.5580013 24.2766668,33.7659992 24.242,33.922 C24.1986665,34.1126676 24.0708344,34.2643328 23.8585,34.377 C23.6461656,34.4896672 23.4186679,34.546 23.176,34.546 C22.7166644,34.546 22.4003342,34.3423354 22.227,33.935 C22.1749997,33.8136661 22.1446667,33.4280033 22.136,32.778 C22.1273333,32.3446645 22.1316666,31.6686713 22.149,30.75 C22.1663334,29.7099948 22.175,29.0513347 22.175,28.774 C22.1229997,28.7913334 22.0363339,28.8498328 21.915,28.9495 C21.7936661,29.0491672 21.6723339,29.099 21.551,29.099 C21.4556662,29.099 21.3343341,29.0730003 21.187,29.021 C20.5803303,28.812999 20.277,28.6006677 20.277,28.384 C20.277,28.3319997 20.2899999,28.275667 20.316,28.215 C20.376667,28.0763326 20.4893325,27.9983334 20.654,27.981 C20.9053346,27.9463332 21.0569997,27.9160001 21.109,27.89 C21.3083343,27.8119996 21.6723307,27.6256681 22.201,27.331 L22.201,26.2 C22.201,26.1133329 22.1771669,25.9985007 22.1295,25.8555 C22.0818331,25.7124993 22.058,25.6063337 22.058,25.537 C22.058,25.4589996 22.0796664,25.3853337 22.123,25.316 C22.3483345,24.9693316 22.6516648,24.796 23.033,24.796 C23.4750022,24.796 23.7869991,24.9693316 23.969,25.316 C24.0383337,25.4546674 24.073,25.5673329 24.073,25.654 C24.073,25.7580005 24.0210005,25.8663328 23.917,25.979 C23.8129995,26.0916672 23.761,26.1956662 23.761,26.291 L23.761,26.928 C23.9170008,26.8586663 24.0903324,26.7416675 24.281,26.577 C24.4283341,26.4556661 24.5539995,26.395 24.658,26.395 C24.7013335,26.395 24.7489997,26.4036666 24.801,26.421 C25.3470027,26.5683341 25.62,26.8976641 25.62,27.409 C25.62,27.5736675 25.5701672,27.7296659 25.4705,27.877 C25.3708328,28.0243341 25.2430008,28.098 25.087,28.098 Z M31.548,30.412 C31.548,31.3306713 31.353002,32.1669962 30.963,32.921 C30.5296645,33.7356707 29.9966698,34.143 29.364,34.143 C29.0086649,34.143 28.6446685,33.8613362 28.272,33.298 L28.272,34.962 C28.272,35.1006674 28.3283328,35.2783322 28.441,35.495 C28.5536672,35.7116677 28.61,35.8763328 28.61,35.989 C28.61,36.0756671 28.5883336,36.1623329 28.545,36.249 C28.3629991,36.6390019 28.0076693,36.834 27.479,36.834 C27.0456645,36.834 26.7770005,36.6780016 26.673,36.366 C26.6383332,36.2619995 26.621,36.1623338 26.621,36.067 C26.621,35.9716662 26.6491664,35.8438341 26.7055,35.6835 C26.7618336,35.5231659 26.79,35.3866672 26.79,35.274 L26.79,27.877 C26.79,27.7816662 26.7553337,27.666834 26.686,27.5325 C26.6166663,27.398166 26.582,27.2876671 26.582,27.201 C26.582,27.1316663 26.5993332,27.0580004 26.634,26.98 C26.7380005,26.7373321 27.058664,26.616 27.596,26.616 C27.9340017,26.616 28.1593328,26.6853326 28.272,26.824 C28.3153335,26.8760003 28.337,26.9409996 28.337,27.019 C28.337,27.079667 28.3153335,27.1749993 28.272,27.305 C28.2286664,27.4350006 28.2026667,27.5346663 28.194,27.604 C28.5926687,27.0319971 29.060664,26.746 29.598,26.746 C30.3173369,26.746 30.841665,27.1533293 31.171,27.968 C31.4223346,28.6006698 31.548,29.4153283 31.548,30.412 Z M29.91,30.412 C29.91,29.5886626 29.8926668,29.0643345 29.858,28.839 C29.7713329,28.2756639 29.5546684,27.994 29.208,27.994 C29.0086657,27.994 28.8288341,28.2648306 28.6685,28.8065 C28.5081659,29.3481694 28.428,29.8833307 28.428,30.412 C28.428,30.8106687 28.5146658,31.278664 28.688,31.816 C28.8613342,32.3880029 29.0346658,32.674 29.208,32.674 C29.416001,32.674 29.5893326,32.4096693 29.728,31.881 C29.8493339,31.4216644 29.91,30.9320026 29.91,30.412 Z M36.839,32.258 C36.839,32.8646697 36.6223355,33.3824979 36.189,33.8115 C35.7556645,34.2405021 35.2443363,34.455 34.655,34.455 C34.2823315,34.455 33.8966687,34.2773351 33.498,33.922 C33.1859984,33.6359986 32.9043346,33.2850021 32.653,32.869 C32.4363322,32.5049982 32.3409999,32.2753338 32.367,32.18 C32.4623338,31.9633322 32.7613308,31.855 33.264,31.855 C33.472001,31.855 33.6366661,31.885333 33.758,31.946 C33.966001,32.0586672 34.0829999,32.2016658 34.109,32.375 C34.1350001,32.5743343 34.178333,32.6999997 34.239,32.752 C34.4210009,33.0293347 34.5856659,33.168 34.733,33.168 C34.8456672,33.168 34.9518328,33.0921674 35.0515,32.9405 C35.1511672,32.7888326 35.201,32.609001 35.201,32.401 C35.201,32.2709993 35.1793336,32.1410007 35.136,32.011 C35.0926665,31.8809993 34.8586688,31.681668 34.434,31.413 C33.9226641,31.0923317 33.5586678,30.8106679 33.342,30.568 C32.9693315,30.1519979 32.783,29.6666694 32.783,29.112 C32.783,28.4619967 32.9736648,27.8921691 33.355,27.4025 C33.7363352,26.9128309 34.2216637,26.668 34.811,26.668 C35.4176697,26.668 35.8813317,26.8976644 36.202,27.357 C36.4620013,27.7296685 36.5703335,28.1066648 36.527,28.488 C36.6223338,28.5920005 36.67,28.7653321 36.67,29.008 C36.67,29.2680013 36.5746676,29.4889991 36.384,29.671 C36.1933324,29.8530009 35.9983343,29.944 35.799,29.944 C35.5043319,29.944 35.2486677,29.749002 35.032,29.359 C34.971333,29.2549995 34.941,29.1163342 34.941,28.943 C34.941,28.8649996 34.9474999,28.7545007 34.9605,28.6115 C34.9735001,28.4684993 34.98,28.366667 34.98,28.306 C34.98,28.0806655 34.8976675,27.968 34.733,27.968 C34.4816654,27.968 34.356,28.2149975 34.356,28.709 C34.356,29.2116692 34.520665,29.6146651 34.85,29.918 C34.9800006,30.0393339 35.2616645,30.2126655 35.695,30.438 C36.0676685,30.6286676 36.3319992,30.8236657 36.488,31.023 C36.7220012,31.3263348 36.839,31.7379974 36.839,32.258 Z"/>
    <rect width="18" height="17" x="41" y="36" fill="#22BA8E" rx="3"/>
    <path fill="#E8E8E8" d="M49,44.8292943 C47.8348076,44.4174579 47,43.3062188 47,42 C47,40.3431458 48.3431458,39 50,39 C51.6568542,39 53,40.3431458 53,42 C53,43.3062188 52.1651924,44.4174579 51,44.8292943 L51,50 L49,50 L49,44.8292943 Z"/>
  </g>
</svg>
