<svg xmlns="http://www.w3.org/2000/svg" xmlns:xlink="http://www.w3.org/1999/xlink" width="64" height="64" viewBox="0 0 64 64">
  <defs>
    <circle id="websettings-a" cx="24" cy="24" r="24"/>
  </defs>
  <g fill="none" fill-rule="evenodd">
    <g transform="translate(9 1)">
      <mask id="websettings-b" fill="#fff">
        <use xlink:href="#websettings-a"/>
      </mask>
      <use fill="#5EA7FF" xlink:href="#websettings-a"/>
      <path fill="#E8E8E8" d="M36.6661127 17.0051965C36.6661127 17.0051965 30.8380926 14.6267342 29.1021564 15.8159654 27.3662202 17.0051965 28.2935842 22.6205727 28.2935842 22.6205727 28.2935842 22.6205727 25.7064158 26.3284459 27 28.278609 28.2935842 30.228772 31.8868737 29.5584107 33.9056789 31.2785955 35.924484 32.9987803 35.0857217 36.0860558 35.0857217 36.0860558L34.5974281 39.6905025C34.5974281 39.6905025 40.0047545 37.2674113 41.562831 33.7765059 43.1209076 30.2856006 42.6162063 24.8126434 42.6162063 24.8126434L45.7723943 21.951138 48.5478382 12.9505118 38.8083039 9.80069457 37.7352394 5 30.7704928 6.9741762 30.1410929 12.210206 35.4904638 13.9813469 36.6661127 17.0051965zM-1.81078594 20.0403062C-1.81078594 20.0403062.159155298 18.784322.422084765 18.7643353 2.43924887 18.611 9.46837964 19.0398197 11.3062324 16.3753768 13.3836422 13.3636342 15.1153394 9.3755591 15.1153394 9.3755591L15.045758 6.30708574 4.18355042 3.6413691-1.81078594 20.0403062z" mask="url(#websettings-b)"/>
    </g>
    <path fill="#E8E8E8" d="M22.3711462,43.0749846 L23.201819,33.9010865 L16.5283337,28.7922297 C16.5283337,28.7922297 16.1429248,24.7038303 20.9868131,24.126082 C25.8307014,23.5483338 28.815065,26.5443765 28.815065,26.5443765 C28.815065,26.5443765 30.7380945,29.5202895 30.0209275,31.5419173 C29.3037605,33.5635451 27.4482505,36.590919 27.4482505,36.590919 C27.4482505,36.590919 27.3010659,40.0301833 26.0434792,41.6362709 C24.7858924,43.2423586 22.3711462,43.0749846 22.3711462,43.0749846 Z"/>
    <path fill="#9F5757" d="M25.3800958,48.2085229 L23.8076118,46.636039 L26.636039,43.8076118 L28.2085229,45.3800958 C29.0544216,44.8470663 29.9952899,44.4509973 31,44.2230164 L31,42 L35,42 L35,44.2230164 C36.0047101,44.4509973 36.9455784,44.8470663 37.7914771,45.3800958 L39.363961,43.8076118 L42.1923882,46.636039 L40.6199042,48.2085229 C41.1529337,49.0544216 41.5490027,49.9952899 41.7769836,51 L44,51 L44,55 L41.7769836,55 C41.5490027,56.0047101 41.1529337,56.9455784 40.6199042,57.7914771 L42.1923882,59.363961 L39.363961,62.1923882 L37.7914771,60.6199042 C36.9455784,61.1529337 36.0047101,61.5490027 35,61.7769836 L35,64 L31,64 L31,61.7769836 C29.9952899,61.5490027 29.0544216,61.1529337 28.2085229,60.6199042 L26.636039,62.1923882 L23.8076118,59.363961 L25.3800958,57.7914771 C24.8470663,56.9455784 24.4509973,56.0047101 24.2230164,55 L22,55 L22,51 L24.2230164,51 C24.4509973,49.9952899 24.8470663,49.0544216 25.3800958,48.2085229 Z M33,56 C34.6568542,56 36,54.6568542 36,53 C36,51.3431458 34.6568542,50 33,50 C31.3431458,50 30,51.3431458 30,53 C30,54.6568542 31.3431458,56 33,56 Z"/>
  </g>
</svg>
