<svg xmlns="http://www.w3.org/2000/svg" xmlns:xlink="http://www.w3.org/1999/xlink" width="64" height="64" viewBox="0 0 64 64">
  <defs>
    <circle id="webwww-a" cx="18" cy="18" r="18"/>
  </defs>
  <g fill="none" fill-rule="evenodd">
    <path fill="#5B68C0" d="M24.5,46.08 C24.5400002,46.1866672 24.56,46.2866662 24.56,46.38 C24.56,46.5933344 24.4400012,46.8533318 24.2,47.16 C23.9066652,47.5200018 23.726667,47.799999 23.66,48 L21.46,54.64 C21.393333,54.8533344 21.36,55.1066652 21.36,55.4 L21.36,55.84 C21.3733334,56.0266676 21.38,56.1666662 21.38,56.26 C21.38,56.7533358 21.213335,57.1199988 20.88,57.36 C20.546665,57.6000012 20.1666688,57.72 19.74,57.72 C19.0999968,57.72 18.5666688,57.4800024 18.14,57 C17.9266656,56.7599988 17.82,56.4866682 17.82,56.18 C17.82,55.7266644 17.8066668,55.4400006 17.78,55.32 L16.58,50.88 L15.42,54.88 C15.3799998,55.0266674 15.3466668,55.3066646 15.32,55.72 C15.2933332,56.053335 15.2200006,56.319999 15.1,56.52 C14.5933308,57.3466708 13.973337,57.76 13.24,57.76 C12.9866654,57.76 12.7533344,57.6866674 12.54,57.54 C12.273332,57.3666658 12.1133336,57.1000018 12.06,56.74 C12.0066664,56.3799982 11.9533336,56.0266684 11.9,55.68 L10.14,48.84 C10.0999998,48.6666658 9.980001,48.346669 9.78,47.88 C9.6199992,47.5199982 9.54,47.2133346 9.54,46.96 C9.54,46.7866658 9.573333,46.6133342 9.64,46.44 C9.7600006,46.0666648 10.2399958,45.88 11.08,45.88 C11.546669,45.88 11.8599992,45.946666 12.02,46.08 C12.220001,46.2533342 12.3266666,46.5333314 12.34,46.92 C12.3533334,47.5066696 12.3666666,47.8266664 12.38,47.88 L13.58,52.68 L15.26,47.76 C15.2866668,47.6666662 15.3,47.5733338 15.3,47.48 C15.3,47.3999996 15.2833335,47.2833341 15.25,47.13 C15.2166665,46.9766659 15.2,46.8600004 15.2,46.78 C15.2,46.4866652 15.3599984,46.2600008 15.68,46.1 C15.946668,45.9533326 16.2399984,45.88 16.56,45.88 C17.0000022,45.88 17.3666652,45.9866656 17.66,46.2 C18.0333352,46.466668 18.2399998,46.8099979 18.28,47.23 C18.3200002,47.6500021 18.3533332,48.0666646 18.38,48.48 L19.58,53.28 L21.5,47.52 C21.5266668,47.4399996 21.54,47.3533338 21.54,47.26 C21.54,47.1533328 21.5200002,47.0100009 21.48,46.83 C21.4399998,46.6499991 21.42,46.5133338 21.42,46.42 C21.42,46.2999994 21.4466664,46.1866672 21.5,46.08 C21.700001,45.7199982 22.2266624,45.54 23.08,45.54 C23.880004,45.54 24.3533326,45.7199982 24.5,46.08 Z M40.78,46.08 C40.8200002,46.1866672 40.84,46.2866662 40.84,46.38 C40.84,46.5933344 40.7200012,46.8533318 40.48,47.16 C40.1866652,47.5200018 40.006667,47.799999 39.94,48 L37.74,54.64 C37.673333,54.8533344 37.64,55.1066652 37.64,55.4 L37.64,55.84 C37.6533334,56.0266676 37.66,56.1666662 37.66,56.26 C37.66,56.7533358 37.493335,57.1199988 37.16,57.36 C36.826665,57.6000012 36.4466688,57.72 36.02,57.72 C35.3799968,57.72 34.8466688,57.4800024 34.42,57 C34.2066656,56.7599988 34.1,56.4866682 34.1,56.18 C34.1,55.7266644 34.0866668,55.4400006 34.06,55.32 L32.86,50.88 L31.7,54.88 C31.6599998,55.0266674 31.6266668,55.3066646 31.6,55.72 C31.5733332,56.053335 31.5000006,56.319999 31.38,56.52 C30.8733308,57.3466708 30.253337,57.76 29.52,57.76 C29.2666654,57.76 29.0333344,57.6866674 28.82,57.54 C28.553332,57.3666658 28.3933336,57.1000018 28.34,56.74 C28.2866664,56.3799982 28.2333336,56.0266684 28.18,55.68 L26.42,48.84 C26.3799998,48.6666658 26.260001,48.346669 26.06,47.88 C25.8999992,47.5199982 25.82,47.2133346 25.82,46.96 C25.82,46.7866658 25.853333,46.6133342 25.92,46.44 C26.0400006,46.0666648 26.5199958,45.88 27.36,45.88 C27.826669,45.88 28.1399992,45.946666 28.3,46.08 C28.500001,46.2533342 28.6066666,46.5333314 28.62,46.92 C28.6333334,47.5066696 28.6466666,47.8266664 28.66,47.88 L29.86,52.68 L31.54,47.76 C31.5666668,47.6666662 31.58,47.5733338 31.58,47.48 C31.58,47.3999996 31.5633335,47.2833341 31.53,47.13 C31.4966665,46.9766659 31.48,46.8600004 31.48,46.78 C31.48,46.4866652 31.6399984,46.2600008 31.96,46.1 C32.226668,45.9533326 32.5199984,45.88 32.84,45.88 C33.2800022,45.88 33.6466652,45.9866656 33.94,46.2 C34.3133352,46.466668 34.5199998,46.8099979 34.56,47.23 C34.6000002,47.6500021 34.6333332,48.0666646 34.66,48.48 L35.86,53.28 L37.78,47.52 C37.8066668,47.4399996 37.82,47.3533338 37.82,47.26 C37.82,47.1533328 37.8000002,47.0100009 37.76,46.83 C37.7199998,46.6499991 37.7,46.5133338 37.7,46.42 C37.7,46.2999994 37.7266664,46.1866672 37.78,46.08 C37.980001,45.7199982 38.5066624,45.54 39.36,45.54 C40.160004,45.54 40.6333326,45.7199982 40.78,46.08 Z M57.06,46.08 C57.1000002,46.1866672 57.12,46.2866662 57.12,46.38 C57.12,46.5933344 57.0000012,46.8533318 56.76,47.16 C56.4666652,47.5200018 56.286667,47.799999 56.22,48 L54.02,54.64 C53.953333,54.8533344 53.92,55.1066652 53.92,55.4 L53.92,55.84 C53.9333334,56.0266676 53.94,56.1666662 53.94,56.26 C53.94,56.7533358 53.773335,57.1199988 53.44,57.36 C53.106665,57.6000012 52.7266688,57.72 52.3,57.72 C51.6599968,57.72 51.1266688,57.4800024 50.7,57 C50.4866656,56.7599988 50.38,56.4866682 50.38,56.18 C50.38,55.7266644 50.3666668,55.4400006 50.34,55.32 L49.14,50.88 L47.98,54.88 C47.9399998,55.0266674 47.9066668,55.3066646 47.88,55.72 C47.8533332,56.053335 47.7800006,56.319999 47.66,56.52 C47.1533308,57.3466708 46.533337,57.76 45.8,57.76 C45.5466654,57.76 45.3133344,57.6866674 45.1,57.54 C44.833332,57.3666658 44.6733336,57.1000018 44.62,56.74 C44.5666664,56.3799982 44.5133336,56.0266684 44.46,55.68 L42.7,48.84 C42.6599998,48.6666658 42.540001,48.346669 42.34,47.88 C42.1799992,47.5199982 42.1,47.2133346 42.1,46.96 C42.1,46.7866658 42.133333,46.6133342 42.2,46.44 C42.3200006,46.0666648 42.7999958,45.88 43.64,45.88 C44.106669,45.88 44.4199992,45.946666 44.58,46.08 C44.780001,46.2533342 44.8866666,46.5333314 44.9,46.92 C44.9133334,47.5066696 44.9266666,47.8266664 44.94,47.88 L46.14,52.68 L47.82,47.76 C47.8466668,47.6666662 47.86,47.5733338 47.86,47.48 C47.86,47.3999996 47.8433335,47.2833341 47.81,47.13 C47.7766665,46.9766659 47.76,46.8600004 47.76,46.78 C47.76,46.4866652 47.9199984,46.2600008 48.24,46.1 C48.506668,45.9533326 48.7999984,45.88 49.12,45.88 C49.5600022,45.88 49.9266652,45.9866656 50.22,46.2 C50.5933352,46.466668 50.7999998,46.8099979 50.84,47.23 C50.8800002,47.6500021 50.9133332,48.0666646 50.94,48.48 L52.14,53.28 L54.06,47.52 C54.0866668,47.4399996 54.1,47.3533338 54.1,47.26 C54.1,47.1533328 54.0800002,47.0100009 54.04,46.83 C53.9999998,46.6499991 53.98,46.5133338 53.98,46.42 C53.98,46.2999994 54.0066664,46.1866672 54.06,46.08 C54.260001,45.7199982 54.7866624,45.54 55.64,45.54 C56.440004,45.54 56.9133326,45.7199982 57.06,46.08 Z"/>
    <g transform="translate(14 4)">
      <mask id="webwww-b" fill="#fff">
        <use xlink:href="#webwww-a"/>
      </mask>
      <use fill="#B4DFFB" xlink:href="#webwww-a"/>
      <path fill="#22BA8E" d="M27.4995846 12.7538974C27.4995846 12.7538974 23.1285694 10.9700507 21.8266173 11.861974 20.5246651 12.7538974 21.2201882 16.9654295 21.2201882 16.9654295 21.2201882 16.9654295 19.2798118 19.7463344 20.25 21.2089567 21.2201882 22.671579 23.9151553 22.168808 25.4292591 23.4589466 26.943363 24.7490852 26.3142913 27.0645419 26.3142913 27.0645419L25.9480711 29.7678769C25.9480711 29.7678769 30.0035659 27.9505584 31.1721233 25.3323794 32.3406807 22.7142004 31.9621547 18.6094825 31.9621547 18.6094825L34.3292957 16.4633535 36.4108786 9.71288388 29.106228 7.35052093 28.3014296 3.75 23.0778696 5.23063215 22.6058196 9.15765453 26.6178479 10.4860101 27.4995846 12.7538974zM-1.35808945 15.0302297C-1.35808945 15.0302297.119366474 14.0882415.316563573 14.0732515 1.82943665 13.95825 7.10128473 14.2798648 8.47967433 12.2815326 10.0377316 10.0227256 11.3365045 7.03166932 11.3365045 7.03166932L11.2843185 4.73031431 3.13766281 2.73102683-1.35808945 15.0302297z" mask="url(#webwww-b)"/>
    </g>
  </g>
</svg>
