<svg xmlns="http://www.w3.org/2000/svg" width="64" height="64" viewBox="0 0 64 64">
  <path fill="#80D25B" d="M18.7030057,51.2845595 C19.2586198,51.1136013 19.8611237,51.1928464 20.3536351,51.5016608 C23.9810874,53.7761448 28.1745492,55 32.5535593,55 C45.2561085,55 55.5535593,44.7025492 55.5535593,32 C55.5535593,19.2974508 45.2561085,9 32.5535593,9 C19.85101,9 9.55355927,19.2974508 9.55355927,32 C9.55355927,36.5076583 10.8506294,40.8178887 13.2524453,44.5140855 C13.5681791,44.9999738 13.6576571,45.5989157 13.4977166,46.1558667 C13.1921903,47.2197824 12.7717996,48.7185277 12.2659598,50.5426743 C12.2441577,50.6213038 12.2441577,50.6213038 12.2223586,50.6999506 C11.9712431,51.6060074 11.7094634,52.5546244 11.4444923,53.5179479 L18.7030057,51.2845595 Z M9.14173097,58.411558 C7.63505952,58.8751492 6.20928034,57.4946517 6.62402005,55.9738076 C6.65115195,55.8743156 6.65115195,55.8743156 6.77299708,55.4283198 C6.89148747,54.9948276 7.02369726,54.5118345 7.16631026,53.9917031 C7.57381207,52.5054816 7.98309308,51.0192014 8.3676657,49.6316144 C8.38953838,49.552702 8.38953838,49.552702 8.41141577,49.4738011 C8.79689067,48.0837111 9.1332296,46.8807847 9.40827464,45.9104429 C6.90192269,41.7491618 5.55355927,36.9723196 5.55355927,32 C5.55355927,17.0883118 17.641871,5 32.5535593,5 C47.4652475,5 59.5535593,17.0883118 59.5535593,32 C59.5535593,46.9116882 47.4652475,59 32.5535593,59 C27.7341794,59 23.0972796,57.7334862 19.0244988,55.3707064 L9.14173097,58.411558 Z M36.9726783,36.9191202 C37.2385391,36.6532595 37.5272649,36.3324529 37.8296163,35.969631 C38.2072567,35.5164625 38.584329,35.0246288 38.9400127,34.5321435 C39.1528359,34.237465 39.3088024,34.0115825 39.389458,33.8905991 C39.4625142,33.7810146 39.5462163,33.6789145 39.6393452,33.5857856 C39.8112624,33.4138684 40.0375297,33.2441679 40.3257982,33.1000337 C41.2221866,32.6518395 42.3293754,32.6518395 43.447986,33.2111448 C43.8192371,33.3967704 48.1241584,36.1957484 50.0248451,37.2516854 C50.7643957,37.6625469 51.1654313,38.4942939 51.026347,39.3287984 C50.5747005,42.0386742 49.7901645,44.0918208 48.0302724,45.8517129 C45.5935489,48.2884362 41.864763,49.2440546 36.7568781,48.4778719 C27.3021901,47.0596686 19.1699627,38.7740032 15.6868681,29.7179582 C14.1718165,25.7788247 14.9138901,21.9035516 17.0127846,18.4053938 C17.7907087,17.1088536 18.5756435,16.1494888 19.1393456,15.5857865 C19.4185467,15.3065854 19.7741447,15.1162751 20.161327,15.0388386 C20.3339387,15.0043163 20.6052602,14.9564361 20.9373833,14.9089899 C21.2862018,14.8591587 21.6309397,14.8208545 21.9637311,14.7986684 C23.3247183,14.7079359 24.1855731,14.8035864 24.9677731,15.5857867 C25.9562071,16.5742212 29.0535589,22.5306669 29.0535593,23.9999995 C29.0535597,25.5436823 28.3764489,26.8533942 26.6933946,28.6636871 C27.1702662,29.9460797 28.8385162,31.9006069 31.2612701,33.892649 C32.5184511,34.9263313 33.8877778,35.8994273 35.0845773,36.6268936 C35.6186937,36.9515526 36.0901515,37.2093708 36.4503385,37.3768046 C36.6084153,37.2665143 36.7815674,37.1102312 36.9726783,36.9191202 Z M20.4427564,20.4633767 C18.9202518,23.0008846 18.4112965,25.6587619 19.4202505,28.2820418 C22.4347695,36.1197903 29.5302273,43.3491245 37.3502399,44.5221264 C41.2868816,45.1126227 43.7416092,44.4835217 45.2018454,43.0232856 C45.9823914,42.2427397 46.4696984,41.2757859 46.8021857,40.0040639 C45.0839299,38.9742942 42.9405887,37.6008946 42.0612797,37.0412346 C41.6910587,37.5475536 41.3013054,38.0518037 40.9025019,38.5303681 C40.5277697,38.9800469 40.1602452,39.3884075 39.8011057,39.7475471 C38.6858818,40.8627712 37.7300386,41.5 36.5535593,41.5 C35.083097,41.5 31.7547258,39.4768724 28.7208485,36.982351 C24.9306055,33.8659289 22.5535594,30.8255211 22.5535593,28.0000001 C22.5535592,27.4695671 22.7642729,26.9608593 23.1393456,26.5857865 C24.6727398,25.0523921 25.0535594,24.417693 25.0535593,24.0000005 C24.9679502,23.8913848 24.8712406,23.6470766 24.7431997,23.3529286 C24.4896164,22.7703725 24.1296068,22.0294004 23.7166255,21.2352055 C23.3346505,20.5006383 22.9281296,19.7609683 22.5846277,19.1731985 C22.5011228,19.0303122 22.4230511,18.8993611 22.352002,18.7828685 C22.3129433,18.7846807 22.2721421,18.7869867 22.2298071,18.789809 C22.0281803,18.8032508 21.8059986,18.8270874 21.575738,18.8586201 C21.1616617,19.3644187 20.7895959,19.8853109 20.4427564,20.4633767 Z"/>
</svg>
