<svg xmlns="http://www.w3.org/2000/svg" width="64" height="64" viewBox="0 0 64 64">
  <g fill="none" fill-rule="evenodd">
    <path fill="#D8D8D8" d="M52,3.03280455 C51.6694764,3.01104935 51.3360286,3 51,3 C42.7157288,3 36,9.71572875 36,18 C36,26.2842712 42.7157288,33 51,33 C51.3360286,33 51.6694764,32.9889506 52,32.9671954 L52,3.03280455 Z"/>
    <path fill="#D8D8D8" d="M28,3.03280455 C27.6694764,3.01104935 27.3360286,3 27,3 C18.7157288,3 12,9.71572875 12,18 C12,26.2842712 18.7157288,33 27,33 C27.3360286,33 27.6694764,32.9889506 28,32.9671954 L28,3.03280455 Z" transform="matrix(-1 0 0 1 40 0)"/>
    <circle cx="32" cy="35" r="25" fill="#ECECEC"/>
    <path stroke="#979797" stroke-linecap="round" stroke-width="2" d="M19 29C19 31.209139 20.790861 33 23 33L23 33C25.209139 33 27 31.209139 27 29M36 29C36 31.209139 37.790861 33 40 33L40 33C42.209139 33 44 31.209139 44 29M24 44C24 46.209139 25.790861 48 28 48L28 48C30.209139 48 32 46.209139 32 44M32 44C32 46.209139 33.790861 48 36 48L36 48C38.209139 48 40 46.209139 40 44"/>
    <polygon fill="#595959" points="32 36 37 43 33.975 45 30.085 45 27 43" transform="matrix(1 0 0 -1 0 81)"/>
    <path stroke="#D8D8D8" stroke-linecap="square" stroke-width="2" d="M14 34L1.95840542 34M14 38L1.95840542 38M14 42L1.95840542 42M63 34L50.9584054 34M63 38L50.9584054 38M63 42L50.9584054 42"/>
  </g>
</svg>
