<svg xmlns="http://www.w3.org/2000/svg" width="64" height="64" viewBox="0 0 64 64">
  <g fill="none" fill-rule="evenodd">
    <circle cx="32" cy="20.849" r="4" fill="#F53B3E"/>
    <path stroke="#FFAF40" stroke-linecap="round" stroke-width="2" d="M25.636039 14.4852814C24.0073593 16.113961 23 18.363961 23 20.8492424 23 23.3345238 24.0073593 25.5845238 25.636039 27.2132034M38.363961 27.2132034C39.9926407 25.5845238 41 23.3345238 41 20.8492424 41 18.363961 39.9926407 16.113961 38.363961 14.4852814M21.3933983 10.2426407C18.6789322 12.9571068 17 16.7071068 17 20.8492424 17 24.991378 18.6789322 28.741378 21.3933983 31.4558441M42.6066017 31.4558441C45.3210678 28.741378 47 24.991378 47 20.8492424 47 16.7071068 45.3210678 12.9571068 42.6066017 10.2426407"/>
    <path stroke="#FFAF40" stroke-linecap="round" stroke-width="2" d="M17.1507576,6 C13.3505051,9.80025253 11,15.0502525 11,20.8492424 C11,26.6482323 13.3505051,31.8982323 17.1507576,35.6984848 M46.8492424,35.6984848 C50.6494949,31.8982323 53,26.6482323 53,20.8492424 C53,15.0502525 50.6494949,9.80025253 46.8492424,6"/>
    <rect width="54" height="15" x="5" y="41" fill="#80D25B" stroke="#5DAF38" stroke-linecap="round" stroke-width="2" rx="7.5"/>
    <path stroke="#5DAF38" stroke-linecap="square" stroke-width="2" d="M32,41 L32,56"/>
    <path fill="#FFF" d="M24.26 43.352C24.3400004 43.4880007 24.38 43.6119994 24.38 43.724 24.38 43.8280005 24.3360004 43.9559992 24.248 44.108 24.1359994 44.300001 24.0680001 44.4399996 24.044 44.528L22.268 50.36C22.2119997 50.5280008 22.184 50.7279988 22.184 50.96 22.184 51.0640005 22.1919999 51.211999 22.208 51.404 22.2240001 51.596001 22.232 51.7359996 22.232 51.824 22.232 52.2640022 22.0860015 52.5739991 21.794 52.754 21.5019985 52.9340009 21.1920016 53.024 20.864 53.024 20.4319978 53.024 20.0520016 52.8720015 19.724 52.568 19.523999 52.3839991 19.424 52.1480014 19.424 51.86 19.424 51.7719996 19.4379999 51.630001 19.466 51.434 19.4940001 51.237999 19.508 51.0840006 19.508 50.972 19.508 50.8359993 19.4920002 50.7120006 19.46 50.6L18.428 46.952 17.204 51.2C17.1799999 51.2960005 17.2219995 51.4119993 17.33 51.548 17.4380005 51.6840007 17.492 51.7919996 17.492 51.872 17.484 52.5200032 17.3160016 53.0359981 16.988 53.42 16.8199992 53.612001 16.5920014 53.708 16.304 53.708 15.8719978 53.708 15.5480011 53.5400017 15.332 53.204 15.2599996 53.0919994 15.224 52.9560008 15.224 52.796 15.216 52.5559988 15.2040001 52.4000004 15.188 52.328L13.46 44.864C13.4439999 44.7839996 13.3960004 44.6640008 13.316 44.504 13.2439996 44.3679993 13.208 44.2560004 13.208 44.168 13.208 43.9519989 13.3319988 43.7720007 13.58 43.628 13.788001 43.5079994 14.0119988 43.448 14.252 43.448 14.5080013 43.448 14.7239991 43.5119994 14.9 43.64 15.0440007 43.7440005 15.1239999 43.9079989 15.14 44.132 15.1560001 44.3560011 15.1719999 44.5759989 15.188 44.792L16.052 49.424 17.42 44.432C17.4360001 44.3679997 17.4260002 44.2800006 17.39 44.168 17.3539998 44.0559994 17.336 43.9720003 17.336 43.916 17.336 43.8119995 17.3799996 43.7040006 17.468 43.592 17.6200008 43.391999 17.899998 43.292 18.308 43.292 18.7960024 43.292 19.1479989 43.4319986 19.364 43.712 19.4520004 43.8240006 19.496 43.9399994 19.496 44.06 19.496 44.1160003 19.4820001 44.1999994 19.454 44.312 19.4259999 44.4240006 19.412 44.5079997 19.412 44.564 19.412 44.6200003 19.4199999 44.6719998 19.436 44.72L20.78 49.424 22.244 44.504C22.2600001 44.4559998 22.2759999 44.236002 22.292 43.844 22.3080001 43.5799987 22.3879993 43.3920006 22.532 43.28 22.7960013 43.071999 23.1079982 42.968 23.468 42.968 23.8360018 42.968 24.0999992 43.0959987 24.26 43.352zM26.588 44C26.6120001 44.0240001 26.624 44.0639997 26.624 44.12 26.624 44.1920004 26.6000002 44.3159991 26.552 44.492 26.4959997 44.7080011 26.4600001 44.8559996 26.444 44.936 26.4279999 45.0160004 26.4359998 45.1919986 26.468 45.464 26.468 45.6320008 26.4180005 45.7419997 26.318 45.794 26.2179995 45.8460003 26.0920008 45.872 25.94 45.872 25.7239989 45.872 25.5040011 45.8280004 25.28 45.74 25.0079986 45.6279994 24.872 45.4800009 24.872 45.296 24.872 45.2399997 24.8959998 45.1620005 24.944 45.062 24.9920002 44.9619995 25.02 44.8800003 25.028 44.816 25.0440001 44.7519997 25.0440001 44.5920013 25.028 44.336 25.0119999 44.135999 25.0519995 44.0000004 25.148 43.928 25.2760006 43.8319995 25.5039984 43.784 25.832 43.784 26.1920018 43.784 26.4439993 43.8559993 26.588 44zM26.744 46.928C26.744 47.0400006 26.6820006 47.2139988 26.558 47.45 26.4339994 47.6860012 26.372 47.8799992 26.372 48.032L26.372 51.56C26.372 51.7200008 26.4159996 51.9459985 26.504 52.238 26.5920004 52.5300015 26.636 52.7319994 26.636 52.844 26.636 53.0040008 26.5720006 53.1239996 26.444 53.204 26.243999 53.3320006 26.0280012 53.396 25.796 53.396 25.4919985 53.396 25.2760006 53.292001 25.148 53.084 24.9799992 52.8279987 24.896 52.0640064 24.896 50.792 24.896 50.4879985 24.9019999 50.0140032 24.914 49.37 24.9260001 48.7259968 24.932 48.2560015 24.932 47.96 24.932 47.8479994 24.9200001 47.7020009 24.896 47.522 24.8719999 47.3419991 24.86 47.2120004 24.86 47.132 24.86 46.8679987 24.955999 46.640001 25.148 46.448 25.2280004 46.3679996 25.3759989 46.328 25.592 46.328 25.8080011 46.328 26.0239989 46.3619997 26.24 46.43 26.4560011 46.4980003 26.5939997 46.5759996 26.654 46.664 26.7140003 46.7520004 26.744 46.8399996 26.744 46.928zM46.14 44.192C46.1560001 44.5520018 46.0000016 44.7719996 45.672 44.852 45.6559999 44.86 45.3560029 44.8839998 44.772 44.924 44.7239998 44.924 44.6920001 44.928 44.676 44.936 44.1879976 45.1680012 43.8280012 45.3279996 43.596 45.416 43.5079996 46.1280036 43.4999996 47.079994 43.572 48.272 43.6760005 48.1999996 43.8359989 48.0920007 44.052 47.948 44.244001 47.7239989 44.4039994 47.616 44.532 47.624 44.7960013 47.6400001 45.0619987 47.7699988 45.33 48.014 45.5980013 48.2580012 45.732 48.5119987 45.732 48.776 45.732 48.8800005 45.7080002 48.9759996 45.66 49.064 45.5719996 49.2400009 45.3520018 49.3359999 45 49.352 44.599998 49.3680001 44.3320007 49.4319994 44.196 49.544 44.0839994 49.5840002 43.9780005 49.6539995 43.878 49.754 43.7779995 49.8540005 43.6840004 49.9519995 43.596 50.048 43.5319997 50.5840027 43.5319997 51.3359952 43.596 52.304 43.6360002 52.4080005 43.656 52.5079995 43.656 52.604 43.656 52.8600013 43.5160014 53.0599993 43.236 53.204 43.1319995 53.2600003 43.0080007 53.288 42.864 53.288 42.6079987 53.288 42.3720011 53.2120008 42.156 53.06 41.9159988 52.8999992 41.7720002 52.6960012 41.724 52.448 41.7079999 52.3359994 41.7259997 52.2520003 41.778 52.196 41.8300003 52.1399997 41.8839997 52.0880002 41.94 52.04 41.8919998 48.5519826 41.8919998 45.9760083 41.94 44.312 41.932 44.2319996 41.928 44.1600003 41.928 44.096 41.928 43.6799979 42.1799975 43.472 42.684 43.472 42.7720004 43.472 42.8679995 43.4799999 42.972 43.496 43.1480009 43.5200001 43.2679997 43.5519998 43.332 43.592 43.3480001 43.6 43.4039995 43.6559995 43.5 43.76 43.6600008 43.7039997 43.9159982 43.6160006 44.268 43.496 44.3480004 43.4479998 44.4339995 43.3940003 44.526 43.334 44.6180005 43.2739997 44.763999 43.244 44.964 43.244 45.1960012 43.244 45.4479986 43.343999 45.72 43.544 45.9920014 43.744001 46.132 43.9599988 46.14 44.192zM48.54 44C48.5640001 44.0240001 48.576 44.0639997 48.576 44.12 48.576 44.1920004 48.5520002 44.3159991 48.504 44.492 48.4479997 44.7080011 48.4120001 44.8559996 48.396 44.936 48.3799999 45.0160004 48.3879998 45.1919986 48.42 45.464 48.42 45.6320008 48.3700005 45.7419997 48.27 45.794 48.1699995 45.8460003 48.0440008 45.872 47.892 45.872 47.6759989 45.872 47.4560011 45.8280004 47.232 45.74 46.9599986 45.6279994 46.824 45.4800009 46.824 45.296 46.824 45.2399997 46.8479998 45.1620005 46.896 45.062 46.9440002 44.9619995 46.972 44.8800003 46.98 44.816 46.9960001 44.7519997 46.9960001 44.5920013 46.98 44.336 46.9639999 44.135999 47.0039995 44.0000004 47.1 43.928 47.2280006 43.8319995 47.4559984 43.784 47.784 43.784 48.1440018 43.784 48.3959993 43.8559993 48.54 44zM48.696 46.928C48.696 47.0400006 48.6340006 47.2139988 48.51 47.45 48.3859994 47.6860012 48.324 47.8799992 48.324 48.032L48.324 51.56C48.324 51.7200008 48.3679996 51.9459985 48.456 52.238 48.5440004 52.5300015 48.588 52.7319994 48.588 52.844 48.588 53.0040008 48.5240006 53.1239996 48.396 53.204 48.195999 53.3320006 47.9800012 53.396 47.748 53.396 47.4439985 53.396 47.2280006 53.292001 47.1 53.084 46.9319992 52.8279987 46.848 52.0640064 46.848 50.792 46.848 50.4879985 46.8539999 50.0140032 46.866 49.37 46.8780001 48.7259968 46.884 48.2560015 46.884 47.96 46.884 47.8479994 46.8720001 47.7020009 46.848 47.522 46.8239999 47.3419991 46.812 47.2120004 46.812 47.132 46.812 46.8679987 46.907999 46.640001 47.1 46.448 47.1800004 46.3679996 47.3279989 46.328 47.544 46.328 47.7600011 46.328 47.9759989 46.3619997 48.192 46.43 48.4080011 46.4980003 48.5459997 46.5759996 48.606 46.664 48.6660003 46.7520004 48.696 46.8399996 48.696 46.928z"/>
  </g>
</svg>
