<svg xmlns="http://www.w3.org/2000/svg" width="64" height="64" viewBox="0 0 64 64">
  <g fill="none" fill-rule="evenodd">
    <rect width="4" height="37" x="28" y="22" fill="#595959"/>
    <rect width="12" height="4" x="24" y="59" fill="#595959"/>
    <circle cx="30" cy="18" r="5" fill="#22BA8E"/>
    <path stroke="#ED9111" stroke-linecap="round" stroke-width="2" d="M20.1005051 8.10050506C17.5670034 10.6340068 16 14.1340068 16 18 16 21.8659932 17.5670034 25.3659932 20.1005051 27.8994949M39.8994949 27.8994949C42.4329966 25.3659932 44 21.8659932 44 18 44 14.1340068 42.4329966 10.6340068 39.8994949 8.10050506M14.4436508 2.44365081C10.4624339 6.42486775 8 11.9248678 8 18 8 24.0751322 10.4624339 29.5751322 14.4436508 33.5563492M45.5563492 33.5563492C49.5375661 29.5751322 52 24.0751322 52 18 52 11.9248678 49.5375661 6.42486775 45.5563492 2.44365081"/>
  </g>
</svg>
