<svg xmlns="http://www.w3.org/2000/svg" width="64" height="64" viewBox="0 0 64 64">
  <g fill="none" fill-rule="evenodd">
    <circle cx="32" cy="32" r="30" fill="#5DAF38"/>
    <circle cx="33" cy="46" r="6" fill="#FFF"/>
    <path stroke="#FFF" stroke-linecap="round" stroke-width="4" d="M43 36C40.4407768 33.5285955 36.9052429 32 33 32 29.0947571 32 25.5592232 33.5285955 23 36M48 30.4436508C44.0332041 26.4624339 38.5531265 24 32.5 24 26.4468735 24 20.9667959 26.4624339 17 30.4436508"/>
    <path stroke="#FFF" stroke-linecap="round" stroke-width="4" d="M53,25 C47.6256313,19.4393398 40.2010101,16 32,16 C23.7989899,16 16.3743687,19.4393398 11,25"/>
    <path fill="#E43535" fill-rule="nonzero" stroke="#FFF" stroke-width="2" d="M7.41021742,60.2903139 L61.5872217,6.41819854 C62.3704711,5.63935699 62.3740444,4.37303208 61.5952028,3.58978268 C60.8163613,2.80653328 59.5500364,2.80296001 58.766787,3.58180156 L4.58978268,57.4539169 C3.80653328,58.2327584 3.80296001,59.4990834 4.58180156,60.2823328 C5.36064311,61.0655822 6.62696802,61.0691554 7.41021742,60.2903139 Z"/>
  </g>
</svg>
