<svg xmlns="http://www.w3.org/2000/svg" width="64" height="64" viewBox="0 0 64 64">
  <g fill="none" fill-rule="evenodd">
    <path fill="#595959" d="M4 43L16 43 16 61.0052288C16 61.5546258 15.544239 62 14.9975267 62L5.00247329 62C4.44882258 62 4 61.5490746 4 61.0052288L4 43zM48 43L60 43 60 61.0052288C60 61.5546258 59.544239 62 58.9975267 62L49.0024733 62C48.4488226 62 48 61.5490746 48 61.0052288L48 43z"/>
    <path fill="#B4DFFB" stroke="#5B68C0" stroke-linecap="round" stroke-width="2" d="M12.3711017,24.9348588 C12.7184326,23.313981 14.3157786,21.7091828 15.9427546,21.3972219 C15.9427546,21.3972219 21,20 32,20 C43,20 48.0723587,21.3999341 48.0723587,21.3999341 C49.6892503,21.7313413 51.2822327,23.317086 51.6288983,24.9348588 L54,36 L10,36 L12.3711017,24.9348588 Z"/>
    <circle cx="31" cy="14" r="12" fill="#0A3586"/>
    <path fill="#5B68C0" d="M3.71780829,42.9726036 C3.32137372,38.0171715 7.03239867,34 11.9988624,34 L52.0011376,34 C56.9710721,34 60.6786654,38.0166825 60.2821917,42.9726036 L59.3987243,54.015946 C59.178515,56.768563 56.7824659,58.7400895 54.0286526,58.4518815 C54.0286526,58.4518815 45.5000217,57.2639083 32.0000145,57.2639083 C18.5000074,57.2639083 9.95932405,58.4530727 9.95932405,58.4530727 C7.22036501,58.7551323 4.82075324,56.7594154 4.60127568,54.015946 L3.71780829,42.9726036 Z"/>
    <rect width="18" height="8" x="23" y="45" fill="#0A3586" rx="3"/>
    <rect width="11" height="2" x="9" y="52" fill="#FCC24C"/>
    <rect width="11" height="2" x="45" y="52" fill="#FCC24C"/>
    <path fill="#FCC24C" d="M7.3274374,44.9646244 C7.14659872,43.8795923 7.88158174,43.1602876 8.96657956,43.3575599 L16.0334204,44.6424401 C17.1195323,44.839915 18,45.8877296 18,47 L18,47 C18,48.1045695 17.1125667,49 16.000385,49 L9.99961498,49 C8.89525812,49 7.85244656,48.1146793 7.6725626,47.0353756 L7.3274374,44.9646244 Z"/>
    <path fill="#FCC24C" d="M46.3274374,44.9646244 C46.1465987,43.8795923 46.8815817,43.1602876 47.9665796,43.3575599 L55.0334204,44.6424401 C56.1195323,44.839915 57,45.8877296 57,47 L57,47 C57,48.1045695 56.1125667,49 55.000385,49 L48.999615,49 C47.8952581,49 46.8524466,48.1146793 46.6725626,47.0353756 L46.3274374,44.9646244 Z" transform="matrix(-1 0 0 1 103 0)"/>
    <path fill="#5B68C0" d="M55,30.532984 C55,29.429567 55.8629578,28.7747813 56.9307258,29.0713836 L64,31.0350708 L64,32.5396981 C64,33.641712 63.1041422,34.5350708 62.0026083,34.5350708 L55,34.5350708 L55,30.532984 Z"/>
    <path fill="#5B68C0" d="M0,30.532984 C0,29.429567 0.862957835,28.7747813 1.9307258,29.0713836 L9,31.0350708 L9,32.5396981 C9,33.641712 8.10414219,34.5350708 7.0026083,34.5350708 L0,34.5350708 L0,30.532984 Z" transform="matrix(-1 0 0 1 9 0)"/>
    <path fill="#5B68C0" d="M27,33.9979131 C27,32.8944962 27.8874333,32 28.999615,32 L35.000385,32 C36.1047419,32 37,32.8982606 37,33.9979131 L37,38 L27,38 L27,33.9979131 Z"/>
    <g transform="rotate(-45 23.167 -17.86)">
      <circle cx="2.95" cy="13.882" r="2.076" fill="#80D25B" transform="rotate(45 2.95 13.882)"/>
      <path stroke="#80D25B" stroke-linecap="round" stroke-width="2" d="M17.436553,9.21078644 C15.3554623,7.12969577 12.4804623,5.84251442 9.30482502,5.84251442 C6.12918771,5.84251442 3.25418771,7.12969577 1.17309704,9.21078644" transform="rotate(45 9.305 7.527)"/>
      <path stroke="#80D25B" stroke-linecap="round" stroke-width="2" d="M11.4868055,11.7463203 C10.1295725,10.3890873 8.25457249,9.5496212 6.18350468,9.5496212 C4.11243687,9.5496212 2.23743687,10.3890873 0.88020382,11.7463203" transform="rotate(45 6.184 10.648)"/>
    </g>
  </g>
</svg>
