<svg xmlns="http://www.w3.org/2000/svg" width="64" height="64" viewBox="0 0 64 64">
  <g fill="none" fill-rule="evenodd">
    <rect width="60" height="14" x="2" y="41" fill="#595959"/>
    <path fill="#979797" d="M12,11.0017433 C12,9.89621101 12.8877296,9 14,9 L14,9 C15.1045695,9 16,9.88926172 16,11.0017433 L16,41 L12,41 L12,11.0017433 Z"/>
    <path stroke="#979797" stroke-linecap="round" stroke-width="2" d="M19 11C19 8.23857625 16.7614237 6 14 6M23 11C23 6.02943725 18.9705627 2 14 2"/>
    <circle cx="8" cy="48" r="2" fill="#80D25B"/>
    <circle cx="14" cy="48" r="2" fill="#FFF"/>
    <circle cx="20" cy="48" r="2" fill="#80D25B"/>
    <circle cx="26" cy="48" r="2" fill="#FF78C7"/>
    <circle cx="32" cy="48" r="2" fill="#80D25B"/>
    <circle cx="38" cy="48" r="2" fill="#FFF"/>
    <circle cx="44" cy="48" r="2" fill="#FFF"/>
    <circle cx="50" cy="48" r="2" fill="#FF78C7"/>
    <rect width="4" height="3" x="8" y="55" fill="#D8D8D8"/>
    <rect width="4" height="3" x="52" y="55" fill="#D8D8D8"/>
  </g>
</svg>
