<svg xmlns="http://www.w3.org/2000/svg" width="64" height="64" viewBox="0 0 64 64">
  <g fill="none" fill-rule="evenodd">
    <rect width="32" height="43" x="16" y="19" fill="#E43535" rx="3"/>
    <circle cx="32" cy="15" r="3" fill="#E43535"/>
    <path stroke="#22BA8E" stroke-linecap="round" stroke-width="2" d="M37.6568542 9.34314575C36.209139 7.8954305 34.209139 7 32 7 29.790861 7 27.790861 7.8954305 26.3431458 9.34314575M41.1923882 5.80761184C38.8398509 3.45507456 35.5898509 2 32 2 28.4101491 2 25.1601491 3.45507456 22.8076118 5.80761184"/>
    <path stroke="#FFF" stroke-linecap="round" stroke-width="4" d="M24.2218254,35.2218254 C22.2312169,37.2124339 21,39.9624339 21,43 C21,49.0751322 25.9248678,54 32,54 L32,54 C38.0751322,54 43,49.0751322 43,43 C43,39.9624339 41.7687831,37.2124339 39.7781746,35.2218254"/>
    <rect width="4" height="13" x="30" y="26" fill="#FFF" rx="2"/>
  </g>
</svg>
