<svg xmlns="http://www.w3.org/2000/svg" width="64" height="64" viewBox="0 0 64 64">
  <g fill="none" fill-rule="evenodd">
    <circle cx="33" cy="45" r="6" fill="#5DAF38"/>
    <path stroke="#5DAF38" stroke-linecap="round" stroke-width="4" d="M43 35C40.4407768 32.5285955 36.9052429 31 33 31 29.0947571 31 25.5592232 32.5285955 23 35M48 29.4436508C44.0332041 25.4624339 38.5531265 23 32.5 23 26.4468735 23 20.9667959 25.4624339 17 29.4436508"/>
    <path stroke="#5DAF38" stroke-linecap="round" stroke-width="4" d="M53,24 C47.6256313,18.4393398 40.2010101,15 32,15 C23.7989899,15 16.3743687,18.4393398 11,24"/>
    <path fill="#E43535" fill-rule="nonzero" stroke="#FFF" stroke-width="2" d="M7.41021742,61.2903139 L61.5872217,7.41819854 C62.3704711,6.63935699 62.3740444,5.37303208 61.5952028,4.58978268 C60.8163613,3.80653328 59.5500364,3.80296001 58.766787,4.58180156 L4.58978268,58.4539169 C3.80653328,59.2327584 3.80296001,60.4990834 4.58180156,61.2823328 C5.36064311,62.0655822 6.62696802,62.0691554 7.41021742,61.2903139 Z"/>
  </g>
</svg>
