<svg xmlns="http://www.w3.org/2000/svg" width="64" height="64" viewBox="0 0 64 64">
  <g fill="none" fill-rule="evenodd">
    <path stroke="#979797" stroke-linecap="square" stroke-width="2" d="M15 62L15 16M12 31L5 37"/>
    <path stroke="#979797" stroke-linecap="square" stroke-width="2" d="M25,31 L18,37" transform="matrix(-1 0 0 1 43 0)"/>
    <circle cx="15" cy="29" r="4" fill="#D8D8D8"/>
    <path stroke="#979797" stroke-linecap="square" stroke-width="2" d="M44 50L44 4M41 19L34 25"/>
    <path stroke="#979797" stroke-linecap="square" stroke-width="2" d="M54,19 L47,25" transform="matrix(-1 0 0 1 101 0)"/>
    <circle cx="44" cy="17" r="4" fill="#D8D8D8"/>
    <path fill="#80D25B" d="M3,63 L63.0333241,63 C63.0333241,63 59.9878623,53.5340246 53.2357555,51.7925743 C46.4836487,50.051124 44.3996494,50.6909316 36.4151316,51.8697595 C28.4306137,53.0485874 3,63 3,63 Z"/>
    <polyline stroke="#BD7575" stroke-linecap="round" stroke-width="2" points="21 12.262 24.464 14.302 27.94 12"/>
    <polyline stroke="#BD7575" stroke-linecap="round" stroke-width="2" points="54 13.262 57.464 15.302 60.94 13"/>
    <polyline stroke="#BD7575" stroke-linecap="round" stroke-width="2" points="24 6.262 27.464 8.302 30.94 6"/>
  </g>
</svg>
