<svg xmlns="http://www.w3.org/2000/svg" width="64" height="64" viewBox="0 0 64 64">
  <g fill="none" fill-rule="evenodd">
    <polygon fill="#E6E6E6" points="19.045 3 52 3 52 61 12 61 12 9.065"/>
    <polygon fill="#CDCDCD" points="19 3 19 9 12 9"/>
    <path fill="#979797" d="M19.341,38.418 C19.3596668,38.5300006 19.3503335,38.6606659 19.313,38.81 C19.238333,39.0433345 19.1963334,39.1739999 19.187,39.202 C19.1776666,39.3513341 19.1660001,39.5076659 19.152,39.671 C19.1379999,39.8343342 19.0866671,39.9626662 18.998,40.056 C18.9093329,40.1493338 18.7343346,40.196 18.473,40.196 C18.2116654,40.196 17.983001,40.1446672 17.787,40.042 C17.5536655,39.9299994 17.4323334,39.776001 17.423,39.58 C17.423,39.4959996 17.4486664,39.3933339 17.5,39.272 C17.5513336,39.1506661 17.5839999,39.0573337 17.598,38.992 C17.6120001,38.9266663 17.6143334,38.7493348 17.605,38.46 C17.605,38.2453323 17.6586661,38.0866672 17.766,37.984 C17.8733339,37.8813328 18.0436655,37.83 18.277,37.83 C18.5196679,37.83 18.7483323,37.8836661 18.963,37.991 C19.1776677,38.0983339 19.3036665,38.2406658 19.341,38.418 Z M29.883,32.356 C29.9110001,32.430667 29.925,32.5006663 29.925,32.566 C29.925,32.7153341 29.8410008,32.8973323 29.673,33.112 C29.4676656,33.3640013 29.3416669,33.5599993 29.295,33.7 L27.755,38.348 C27.7083331,38.4973341 27.685,38.6746656 27.685,38.88 L27.685,39.188 C27.6943334,39.3186673 27.699,39.4166663 27.699,39.482 C27.699,39.8273351 27.5823345,40.0839992 27.349,40.252 C27.1156655,40.4200008 26.8496682,40.504 26.551,40.504 C26.1029978,40.504 25.7296682,40.3360017 25.431,40 C25.2816659,39.8319992 25.207,39.6406677 25.207,39.426 C25.207,39.1086651 25.1976668,38.9080004 25.179,38.824 L24.339,35.716 L23.527,38.516 C23.4989999,38.6186672 23.4756668,38.8146652 23.457,39.104 C23.4383332,39.3373345 23.3870004,39.5239993 23.303,39.664 C22.9483316,40.2426696 22.5143359,40.532 22.001,40.532 C21.8236658,40.532 21.6603341,40.4806672 21.511,40.378 C21.3243324,40.2566661 21.2123335,40.0700013 21.175,39.818 C21.1376665,39.5659987 21.1003335,39.3186679 21.063,39.076 L19.831,34.288 C19.8029999,34.1666661 19.7190007,33.9426683 19.579,33.616 C19.4669994,33.3639987 19.411,33.1493342 19.411,32.972 C19.411,32.8506661 19.4343331,32.7293339 19.481,32.608 C19.5650004,32.3466654 19.9009971,32.216 20.489,32.216 C20.8156683,32.216 21.0349994,32.2626662 21.147,32.356 C21.2870007,32.4773339 21.3616666,32.673332 21.371,32.944 C21.3803334,33.3546687 21.3896666,33.5786665 21.399,33.616 L22.239,36.976 L23.415,33.532 C23.4336668,33.4666663 23.443,33.4013337 23.443,33.336 C23.443,33.2799997 23.4313335,33.1983339 23.408,33.091 C23.3846666,32.9836661 23.373,32.9020003 23.373,32.846 C23.373,32.6406656 23.4849989,32.4820006 23.709,32.37 C23.8956676,32.2673328 24.1009989,32.216 24.325,32.216 C24.6330015,32.216 24.8896656,32.2906659 25.095,32.44 C25.3563346,32.6266676 25.5009999,32.8669985 25.529,33.161 C25.5570001,33.4550015 25.5803332,33.7466652 25.599,34.036 L26.439,37.396 L27.783,33.364 C27.8016668,33.3079997 27.811,33.2473337 27.811,33.182 C27.811,33.107333 27.7970001,33.0070006 27.769,32.881 C27.7409999,32.7549994 27.727,32.6593337 27.727,32.594 C27.727,32.5099996 27.7456665,32.430667 27.783,32.356 C27.9230007,32.1039987 28.2916637,31.978 28.889,31.978 C29.4490028,31.978 29.7803328,32.1039987 29.883,32.356 Z M34.4609347,35.5592738 C34.4515366,35.1690677 34.4235586,34.9693117 34.377,34.96 C34.1623323,35.3146684 33.9756675,35.6553317 33.817,35.982 C33.4343314,36.7660039 33.2150003,37.4193307 33.159,37.942 C33.1123331,38.0540006 33.1076665,38.2733317 33.145,38.6 C33.1823335,38.8800014 33.1403339,39.0713328 33.019,39.174 C32.8976661,39.2766672 32.7343344,39.328 32.529,39.328 C32.3049989,39.328 32.0786678,39.2650006 31.85,39.139 C31.6213322,39.0129994 31.4556672,38.8706675 31.353,38.712 C31.2036659,38.4786655 31.1196668,37.797339 31.101,36.668 L31.101,33.364 C31.0916666,33.2706662 31.0543337,33.1400008 30.989,32.972 C30.9236663,32.8039992 30.891,32.6780004 30.891,32.594 C30.891,32.5099996 30.9143331,32.430667 30.961,32.356 C31.0823339,32.1693324 31.3903309,32.076 31.885,32.076 C32.4916697,32.076 32.8556661,32.2253318 32.977,32.524 C33.0050001,32.5893337 33.019,32.6546663 33.019,32.72 C33.019,32.8040004 32.9746671,32.9253325 32.886,33.084 C32.7973329,33.2426675 32.753,33.3733328 32.753,33.476 L32.753,35.072 C33.0330014,34.4839971 33.4016644,33.7373379 33.859,32.832 C33.9150003,32.7106661 33.9686664,32.5893339 34.02,32.468 C34.0713336,32.3466661 34.1483328,32.2393338 34.251,32.146 C34.3536672,32.0526662 34.5263321,32.006 34.769,32.006 C35.1423352,32.006 35.5179981,32.0899992 35.896,32.258 C36.2740019,32.4260008 36.4676666,32.6266655 36.477,32.86 C36.4863334,33.1026679 36.4513337,33.2869994 36.372,33.413 C36.2926663,33.5390006 36.253,33.6439996 36.253,33.728 L36.225,36.752 C36.3743341,36.4159983 36.644998,35.6226729 37.037,34.372 C37.3450015,33.4199952 37.5783325,32.8880006 37.737,32.776 C37.9423344,32.6266659 38.2456647,32.552 38.647,32.552 C39.3936704,32.552 39.7809999,32.7666645 39.809,33.196 C39.7996666,34.3346724 39.7996666,36.2386533 39.809,38.908 C39.809,39.0106672 39.9023324,39.1343326 40.089,39.279 C40.2756676,39.4236674 40.369,39.5753325 40.369,39.734 C40.369,39.808667 40.3503335,39.8973328 40.313,40 C40.1916661,40.3453351 39.9163355,40.518 39.487,40.518 C38.945664,40.518 38.5443346,40.3313352 38.283,39.958 C38.1429993,39.7526656 38.073,39.048006 38.073,37.844 L38.073,37.102 C38.0823334,36.7753317 38.087,36.5466673 38.087,36.416 C38.087,35.7626634 38.0543337,35.4266668 37.989,35.408 C37.8489993,35.3519997 37.3730041,36.6586533 36.561,39.328 C36.561,39.3373334 36.5423335,39.5613311 36.505,40 C36.4863332,40.270668 36.3930008,40.4526662 36.225,40.546 C36.1036661,40.6113337 35.9683341,40.644 35.819,40.644 C35.548332,40.644 35.2870013,40.5553342 35.035,40.378 C34.7829987,40.2006658 34.6243337,39.9906679 34.559,39.748 C34.4656662,39.4026649 34.4236666,38.7213384 34.433,37.704 C34.4507654,36.2916509 34.4600769,35.5767484 34.4609347,35.5592738 L34.4609347,35.5592738 Z M46.333,33.364 C46.2489996,33.6066679 46.0786679,33.7419999 45.822,33.77 C45.5653321,33.7980001 45.3156679,33.8213332 45.073,33.84 L44.065,34.12 L44.051,38.67 C44.051,38.9126679 44.1396658,39.1413323 44.317,39.356 C44.4943342,39.5706677 44.583,39.7339994 44.583,39.846 C44.583,39.9113337 44.5690001,39.9766663 44.541,40.042 C44.4103327,40.3686683 44.1350021,40.532 43.715,40.532 C43.444332,40.532 43.1946678,40.464334 42.966,40.329 C42.7373322,40.193666 42.5996669,40.028001 42.553,39.832 C42.4969997,39.5893321 42.469,39.2813352 42.469,38.908 L42.469,34.54 C42.2823324,34.6240004 42.0863344,34.6520001 41.881,34.624 C41.2369968,34.5399996 40.915,34.2786689 40.915,33.84 C40.915,33.7093327 40.9569996,33.5693341 41.041,33.42 C41.0970003,33.3266662 41.2649986,33.2566669 41.545,33.21 C41.9743355,33.135333 42.2543327,33.0746669 42.385,33.028 C42.4036668,31.627993 42.5249989,30.6246697 42.749,30.018 C43.0570015,29.1686624 43.6636621,28.6040014 44.569,28.324 C44.6343337,28.3053332 44.7089996,28.296 44.793,28.296 C45.0543346,28.296 45.3273319,28.3799992 45.612,28.548 C45.8966681,28.7160008 46.0250001,28.8653327 45.997,28.996 C45.9596665,29.192001 45.7916682,29.3366662 45.493,29.43 C45.1383316,29.5513339 44.9050006,29.6773327 44.793,29.808 C44.4569983,30.2186687 44.2376672,30.6479978 44.135,31.096 C44.0509996,31.4413351 44.0183332,31.9359968 44.037,32.58 C44.1023337,32.5613332 44.330998,32.4913339 44.723,32.37 C44.9750013,32.295333 45.2036656,32.2626666 45.409,32.272 C45.6423345,32.2813334 45.8593323,32.3793324 46.06,32.566 C46.2606677,32.7526676 46.361,32.9533323 46.361,33.168 C46.361,33.2333337 46.3516668,33.2986663 46.333,33.364 Z"/>
  </g>
</svg>
