<svg xmlns="http://www.w3.org/2000/svg" width="64" height="64" viewBox="0 0 64 64">
  <g fill="none" fill-rule="evenodd">
    <rect width="34" height="3" x="18" y="51" fill="#BD7575"/>
    <path fill="#F5413E" d="M20,30 L54.4931641,30 C56.4299361,30 58,31.5709366 58,33.5 L58,37 L20,37 L20,30 Z"/>
    <path fill="#9F5757" d="M55,37 L55,44 L19.8181818,44 L18,64 L14,64 C14,64 15.010802,36.5116157 14,20.7998203 C13.3525999,10.7367038 12.8658812,2.29494169 12.8658812,2.29494169 L16,0 C16,0 18.8289566,11.5001167 19.5,20 C20.0405875,26.8474413 20.0346782,34.3440131 20.0119494,37 L55,37 Z"/>
    <polygon fill="#9F5757" points="49 42 55 42 55 64 51 64"/>
  </g>
</svg>
