<svg xmlns="http://www.w3.org/2000/svg" width="64" height="64" viewBox="0 0 64 64">
  <g fill="none" fill-rule="evenodd">
    <path fill="#595959" d="M41.3388468,58.7951887 L38.9714897,59.6009492 L39.6190836,58.0053896 L32.0921357,35.8788268 L22.5487955,59.3033892 L20.6966108,58.5487955 L21.3218738,57.0140589 L8.34146341,19 L6,19 L6,17 L20,17 L20,19 L15.34375,19 L25.1668685,47.5763447 L31.109437,32.9900402 L26.1750871,18.4847978 L22.7142857,18.4847978 L22.7142857,16.4055359 L38.25,16.4055359 L38.25,18.4847978 L33.4274554,18.4847978 L43.6013995,48.1936498 C43.6013995,48.1936498 49.1368418,35.2678741 49.9420184,32.5714582 C50.7471951,29.8750423 49.7175728,27.1918393 49.4992705,25.7731825 C49.2809682,24.3545256 46,20.4219275 46,17.5 C46,13.3578644 48.5670034,12 50.5,12 C52.4329966,12 55,15.3578644 55,19.5 C55,21.2547004 54.6719633,21.877348 54.3669453,24.0063825 C53.7997684,26.6556011 53.5767702,27.7366528 53.5767702,27.7366528 C53.5767702,27.7366528 53.0655129,30.5017373 52.8496907,30.9183987 L41.3388468,58.7951887 Z"/>
    <circle cx="31" cy="32" r="28" stroke="#595959" stroke-linecap="round" stroke-width="2"/>
  </g>
</svg>
