<svg xmlns="http://www.w3.org/2000/svg" width="64" height="64" viewBox="0 0 64 64">
  <g fill="none" fill-rule="evenodd">
    <rect width="28" height="43" x="34" y="11" fill="#B4DFFB"/>
    <rect width="24" height="4" x="34" y="17" fill="#FFF"/>
    <rect width="24" height="4" x="34" y="26" fill="#FFF"/>
    <rect width="24" height="4" x="34" y="35" fill="#FFF"/>
    <rect width="24" height="4" x="34" y="44" fill="#FFF"/>
    <polygon fill="#4796E7" points="9 10 35 7 35 58 9 55"/>
    <path fill="#FFF" d="M31.0398168,25.92 C31.1731508,26.1466678 31.2398168,26.3533324 31.2398168,26.54 C31.2398168,26.7133342 31.1664842,26.9266654 31.0198168,27.18 C30.8331492,27.5000016 30.719817,27.7333326 30.6798168,27.88 L27.7198168,37.6 C27.626483,37.8800014 27.5798168,38.2133314 27.5798168,38.6 C27.5798168,38.7733342 27.59315,39.0199984 27.6198168,39.34 C27.6464836,39.6600016 27.6598168,39.8933326 27.6598168,40.04 C27.6598168,40.773337 27.4164859,41.2899985 26.9298168,41.59 C26.4431477,41.8900015 25.9264862,42.04 25.3798168,42.04 C24.6598132,42.04 24.0264862,41.7866692 23.4798168,41.28 C23.1464818,40.9733318 22.9798168,40.5800024 22.9798168,40.1 C22.9798168,39.9533326 23.0031499,39.7166683 23.0498168,39.39 C23.0964837,39.0633317 23.1198168,38.8066676 23.1198168,38.62 C23.1198168,38.3933322 23.0931504,38.1866676 23.0398168,38 L21.3198168,31.92 L19.2798168,39 C19.2398166,39.1600008 19.3098159,39.3533322 19.4898168,39.58 C19.6698177,39.8066678 19.7598168,39.986666 19.7598168,40.12 C19.7464834,41.2000054 19.4664862,42.0599968 18.9198168,42.7 C18.6398154,43.0200016 18.2598192,43.18 17.7798168,43.18 C17.0598132,43.18 16.5198186,42.9000028 16.1598168,42.34 C16.0398162,42.1533324 15.9798168,41.926668 15.9798168,41.66 C15.9664834,41.259998 15.9464836,41.0000006 15.9198168,40.88 L13.0398168,28.44 C13.01315,28.306666 12.9331508,28.106668 12.7998168,27.84 C12.6798162,27.6133322 12.6198168,27.4266674 12.6198168,27.28 C12.6198168,26.9199982 12.8264814,26.6200012 13.2398168,26.38 C13.5864852,26.179999 13.9598148,26.08 14.3598168,26.08 C14.7864856,26.08 15.146482,26.1866656 15.4398168,26.4 C15.679818,26.5733342 15.81315,26.8466648 15.8398168,27.22 C15.8664836,27.5933352 15.89315,27.9599982 15.9198168,28.32 L17.3598168,36.04 L19.6398168,27.72 C19.6664836,27.6133328 19.6498171,27.4666676 19.5898168,27.28 C19.5298165,27.0933324 19.4998168,26.9533338 19.4998168,26.86 C19.4998168,26.6866658 19.5731494,26.5066676 19.7198168,26.32 C19.9731514,25.986665 20.4398134,25.82 21.1198168,25.82 C21.9331542,25.82 22.519815,26.053331 22.8798168,26.52 C23.0264842,26.7066676 23.0998168,26.899999 23.0998168,27.1 C23.0998168,27.1933338 23.0764837,27.3333324 23.0298168,27.52 C22.9831499,27.7066676 22.9598168,27.8466662 22.9598168,27.94 C22.9598168,28.0333338 22.97315,28.1199996 22.9998168,28.2 L25.2398168,36.04 L27.6798168,27.84 C27.7064836,27.7599996 27.73315,27.3933366 27.7598168,26.74 C27.7864836,26.2999978 27.9198156,25.9866676 28.1598168,25.8 C28.599819,25.4533316 29.1198138,25.28 29.7198168,25.28 C30.3331532,25.28 30.7731488,25.4933312 31.0398168,25.92 Z"/>
  </g>
</svg>
