<svg xmlns="http://www.w3.org/2000/svg" width="64" height="64" viewBox="0 0 64 64">
  <g fill="none" fill-rule="evenodd">
    <rect width="58" height="43" x="3" y="11" fill="#B4DFFB" rx="4"/>
    <path stroke="#4796E7" stroke-linecap="square" stroke-width="2" d="M4 17L60 17M47 12L47 15"/>
    <path fill="#325AA6" d="M25.472,29.378 C25.5000001,29.452667 25.514,29.5226663 25.514,29.588 C25.514,29.7373341 25.4300008,29.9193323 25.262,30.134 C25.0566656,30.3860013 24.9306669,30.5819993 24.884,30.722 L23.344,35.37 C23.2973331,35.5193341 23.274,35.6966656 23.274,35.902 L23.274,36.21 C23.2833334,36.3406673 23.288,36.4386663 23.288,36.504 C23.288,36.8493351 23.1713345,37.1059992 22.938,37.274 C22.7046655,37.4420008 22.4386682,37.526 22.14,37.526 C21.6919978,37.526 21.3186682,37.3580017 21.02,37.022 C20.8706659,36.8539992 20.796,36.6626677 20.796,36.448 C20.796,36.1306651 20.7866668,35.9300004 20.768,35.846 L19.928,32.738 L19.116,35.538 C19.0879999,35.6406672 19.0646668,35.8366652 19.046,36.126 C19.0273332,36.3593345 18.9760004,36.5459993 18.892,36.686 C18.5373316,37.2646696 18.1033359,37.554 17.59,37.554 C17.4126658,37.554 17.2493341,37.5026672 17.1,37.4 C16.9133324,37.2786661 16.8013335,37.0920013 16.764,36.84 C16.7266665,36.5879987 16.6893335,36.3406679 16.652,36.098 L15.42,31.31 C15.3919999,31.1886661 15.3080007,30.9646683 15.168,30.638 C15.0559994,30.3859987 15,30.1713342 15,29.994 C15,29.8726661 15.0233331,29.7513339 15.07,29.63 C15.1540004,29.3686654 15.4899971,29.238 16.078,29.238 C16.4046683,29.238 16.6239994,29.2846662 16.736,29.378 C16.8760007,29.4993339 16.9506666,29.695332 16.96,29.966 C16.9693334,30.3766687 16.9786666,30.6006665 16.988,30.638 L17.828,33.998 L19.004,30.554 C19.0226668,30.4886663 19.032,30.4233337 19.032,30.358 C19.032,30.3019997 19.0203335,30.2203339 18.997,30.113 C18.9736666,30.0056661 18.962,29.9240003 18.962,29.868 C18.962,29.6626656 19.0739989,29.5040006 19.298,29.392 C19.4846676,29.2893328 19.6899989,29.238 19.914,29.238 C20.2220015,29.238 20.4786656,29.3126659 20.684,29.462 C20.9453346,29.6486676 21.0899999,29.8889985 21.118,30.183 C21.1460001,30.4770015 21.1693332,30.7686652 21.188,31.058 L22.028,34.418 L23.372,30.386 C23.3906668,30.3299997 23.4,30.2693337 23.4,30.204 C23.4,30.129333 23.3860001,30.0290006 23.358,29.903 C23.3299999,29.7769994 23.316,29.6813337 23.316,29.616 C23.316,29.5319996 23.3346665,29.452667 23.372,29.378 C23.5120007,29.1259987 23.8806637,29 24.478,29 C25.0380028,29 25.3693328,29.1259987 25.472,29.378 Z M36.868,29.378 C36.8960001,29.452667 36.91,29.5226663 36.91,29.588 C36.91,29.7373341 36.8260008,29.9193323 36.658,30.134 C36.4526656,30.3860013 36.3266669,30.5819993 36.28,30.722 L34.74,35.37 C34.6933331,35.5193341 34.67,35.6966656 34.67,35.902 L34.67,36.21 C34.6793334,36.3406673 34.684,36.4386663 34.684,36.504 C34.684,36.8493351 34.5673345,37.1059992 34.334,37.274 C34.1006655,37.4420008 33.8346682,37.526 33.536,37.526 C33.0879978,37.526 32.7146682,37.3580017 32.416,37.022 C32.2666659,36.8539992 32.192,36.6626677 32.192,36.448 C32.192,36.1306651 32.1826668,35.9300004 32.164,35.846 L31.324,32.738 L30.512,35.538 C30.4839999,35.6406672 30.4606668,35.8366652 30.442,36.126 C30.4233332,36.3593345 30.3720004,36.5459993 30.288,36.686 C29.9333316,37.2646696 29.4993359,37.554 28.986,37.554 C28.8086658,37.554 28.6453341,37.5026672 28.496,37.4 C28.3093324,37.2786661 28.1973335,37.0920013 28.16,36.84 C28.1226665,36.5879987 28.0853335,36.3406679 28.048,36.098 L26.816,31.31 C26.7879999,31.1886661 26.7040007,30.9646683 26.564,30.638 C26.4519994,30.3859987 26.396,30.1713342 26.396,29.994 C26.396,29.8726661 26.4193331,29.7513339 26.466,29.63 C26.5500004,29.3686654 26.8859971,29.238 27.474,29.238 C27.8006683,29.238 28.0199994,29.2846662 28.132,29.378 C28.2720007,29.4993339 28.3466666,29.695332 28.356,29.966 C28.3653334,30.3766687 28.3746666,30.6006665 28.384,30.638 L29.224,33.998 L30.4,30.554 C30.4186668,30.4886663 30.428,30.4233337 30.428,30.358 C30.428,30.3019997 30.4163335,30.2203339 30.393,30.113 C30.3696666,30.0056661 30.358,29.9240003 30.358,29.868 C30.358,29.6626656 30.4699989,29.5040006 30.694,29.392 C30.8806676,29.2893328 31.0859989,29.238 31.31,29.238 C31.6180015,29.238 31.8746656,29.3126659 32.08,29.462 C32.3413346,29.6486676 32.4859999,29.8889985 32.514,30.183 C32.5420001,30.4770015 32.5653332,30.7686652 32.584,31.058 L33.424,34.418 L34.768,30.386 C34.7866668,30.3299997 34.796,30.2693337 34.796,30.204 C34.796,30.129333 34.7820001,30.0290006 34.754,29.903 C34.7259999,29.7769994 34.712,29.6813337 34.712,29.616 C34.712,29.5319996 34.7306665,29.452667 34.768,29.378 C34.9080007,29.1259987 35.2766637,29 35.874,29 C36.4340028,29 36.7653328,29.1259987 36.868,29.378 Z M48.264,29.378 C48.2920001,29.452667 48.306,29.5226663 48.306,29.588 C48.306,29.7373341 48.2220008,29.9193323 48.054,30.134 C47.8486656,30.3860013 47.7226669,30.5819993 47.676,30.722 L46.136,35.37 C46.0893331,35.5193341 46.066,35.6966656 46.066,35.902 L46.066,36.21 C46.0753334,36.3406673 46.08,36.4386663 46.08,36.504 C46.08,36.8493351 45.9633345,37.1059992 45.73,37.274 C45.4966655,37.4420008 45.2306682,37.526 44.932,37.526 C44.4839978,37.526 44.1106682,37.3580017 43.812,37.022 C43.6626659,36.8539992 43.588,36.6626677 43.588,36.448 C43.588,36.1306651 43.5786668,35.9300004 43.56,35.846 L42.72,32.738 L41.908,35.538 C41.8799999,35.6406672 41.8566668,35.8366652 41.838,36.126 C41.8193332,36.3593345 41.7680004,36.5459993 41.684,36.686 C41.3293316,37.2646696 40.8953359,37.554 40.382,37.554 C40.2046658,37.554 40.0413341,37.5026672 39.892,37.4 C39.7053324,37.2786661 39.5933335,37.0920013 39.556,36.84 C39.5186665,36.5879987 39.4813335,36.3406679 39.444,36.098 L38.212,31.31 C38.1839999,31.1886661 38.1000007,30.9646683 37.96,30.638 C37.8479994,30.3859987 37.792,30.1713342 37.792,29.994 C37.792,29.8726661 37.8153331,29.7513339 37.862,29.63 C37.9460004,29.3686654 38.2819971,29.238 38.87,29.238 C39.1966683,29.238 39.4159994,29.2846662 39.528,29.378 C39.6680007,29.4993339 39.7426666,29.695332 39.752,29.966 C39.7613334,30.3766687 39.7706666,30.6006665 39.78,30.638 L40.62,33.998 L41.796,30.554 C41.8146668,30.4886663 41.824,30.4233337 41.824,30.358 C41.824,30.3019997 41.8123335,30.2203339 41.789,30.113 C41.7656665,30.0056661 41.754,29.9240003 41.754,29.868 C41.754,29.6626656 41.8659989,29.5040006 42.09,29.392 C42.2766676,29.2893328 42.4819989,29.238 42.706,29.238 C43.0140015,29.238 43.2706656,29.3126659 43.476,29.462 C43.7373346,29.6486676 43.8819999,29.8889985 43.91,30.183 C43.9380001,30.4770015 43.9613332,30.7686652 43.98,31.058 L44.82,34.418 L46.164,30.386 C46.1826668,30.3299997 46.192,30.2693337 46.192,30.204 C46.192,30.129333 46.1780001,30.0290006 46.15,29.903 C46.1219999,29.7769994 46.108,29.6813337 46.108,29.616 C46.108,29.5319996 46.1266665,29.452667 46.164,29.378 C46.3040007,29.1259987 46.6726637,29 47.27,29 C47.8300028,29 48.1613328,29.1259987 48.264,29.378 Z"/>
    <path stroke="#4796E7" stroke-linecap="round" stroke-width="2" d="M51,41 L15.9960486,41 C13.2368071,41 11,38.7543484 11,36.0052172 L11,30.9947828 C11,28.2362404 13.2426503,26 15.9960486,26 L46,26"/>
  </g>
</svg>
