<svg xmlns="http://www.w3.org/2000/svg" width="64" height="64" viewBox="0 0 64 64">
  <g fill="none" fill-rule="evenodd">
    <path fill="#E43535" fill-rule="nonzero" d="M8.05355927,16.0003787 L8.05355927,48.9996213 C8.05355927,53.1460106 11.409205,56.5 15.553938,56.5 L48.5531806,56.5 C52.6995699,56.5 56.0535593,53.1443543 56.0535593,48.9996213 L56.0535593,16.0003787 C56.0535593,11.8539894 52.6979135,8.5 48.5531806,8.5 L15.553938,8.5 C11.4075486,8.5 8.05355927,11.8556457 8.05355927,16.0003787 Z M5.05355927,16.0003787 C5.05355927,10.199123 9.75036273,5.5 15.553938,5.5 L48.5531806,5.5 C54.3544363,5.5 59.0535593,10.1968035 59.0535593,16.0003787 L59.0535593,48.9996213 C59.0535593,54.800877 54.3567558,59.5 48.5531806,59.5 L15.553938,59.5 C9.75268225,59.5 5.05355927,54.8031965 5.05355927,48.9996213 L5.05355927,16.0003787 Z"/>
    <polygon fill="#E43535" points="17.992 12 46.079 12 46.079 53 32.035 47.101 17.992 53"/>
    <polygon fill="#FFF" points="32.054 31 26.763 33.781 27.774 27.891 23.494 23.719 29.409 22.859 32.054 17.5 34.699 22.859 40.613 23.719 36.333 27.891 37.344 33.781"/>
    <path fill="#E43535" fill-rule="nonzero" d="M14,17.0059034 L14,49.9940966 C14,51.6581695 15.3393781,53 16.9948438,53 L47.0051562,53 C48.6626695,53 50,51.6574114 50,49.9940966 L50,17.0059034 C50,15.3418305 48.6606219,14 47.0051562,14 L16.9948438,14 C15.3373305,14 14,15.3425886 14,17.0059034 Z M12,17.0059034 C12,14.2397722 14.2310003,12 16.9948438,12 L47.0051562,12 C49.7660113,12 52,14.2380792 52,17.0059034 L52,49.9940966 C52,52.7602278 49.7689997,55 47.0051562,55 L16.9948438,55 C14.2339887,55 12,52.7619208 12,49.9940966 L12,17.0059034 Z"/>
  </g>
</svg>
