<svg xmlns="http://www.w3.org/2000/svg" width="64" height="64" viewBox="0 0 64 64">
  <g fill="none" fill-rule="evenodd">
    <path fill="#0A3586" d="M2,11.9948028 C2,9.78853413 3.79568082,8 6.0065556,8 L59.0040626,8 C60.6586731,8 62,9.33870834 62,10.996524 L62,45 L2,45 L2,11.9948028 Z"/>
    <circle cx="22" cy="41" r="2" fill="#E43535"/>
    <circle cx="27" cy="41" r="2" fill="#5EA7FF"/>
    <circle cx="32" cy="41" r="2" fill="#FFDD95"/>
    <circle cx="37" cy="41" r="2" fill="#80D25B"/>
    <circle cx="42" cy="41" r="2" fill="#B4DFFB"/>
    <path fill="#D8D8D8" d="M2,45 L62,45 L62,49.9983345 C62,51.6561086 60.6626903,53 59.0040626,53 L4.99593743,53 C3.34132688,53 2,51.6609799 2,49.9983345 L2,45 Z"/>
    <circle cx="32" cy="49" r="2" fill="#979797"/>
    <path fill="#979797" d="M25.6128012,53 L37.6128012,53 L39.178831,60.047134 C39.4185061,61.1256721 38.7182875,62 37.6187409,62 L25.6068615,62 C24.5055724,62 23.8082111,61.1206553 24.0467714,60.047134 L25.6128012,53 Z"/>
    <circle cx="32" cy="17" r="14" fill="#B4DFFB" stroke="#0A3586" stroke-linecap="round" stroke-width="2"/>
    <path stroke="#0A3586" stroke-linecap="square" stroke-width="2" d="M45,17 L19,17"/>
    <path stroke="#0A3586" stroke-linecap="round" stroke-width="2" d="M32,31 C35.3137085,31 38.0385294,24.4558441 38.0385294,17 C38.0385294,9.54415588 35.3137085,3 32,3 C28.6862915,3 26.0385294,9.54415588 26.0385294,17 C26.0385294,24.4558441 28.6862915,31 32,31 Z"/>
  </g>
</svg>
