<svg xmlns="http://www.w3.org/2000/svg" width="64" height="64" viewBox="0 0 64 64">
  <g fill="none" fill-rule="evenodd">
    <path fill="#5EA7FF" d="M20.6986309,15.7919954 C19.760503,10.3840257 23.4619028,6 28.9543653,6 L32.0456347,6 C37.5432789,6 41.2194222,10.3947125 40.3231461,15.8197793 C40.3231461,15.8197793 38.2298304,26.1197757 37.5,39.5 C37.5,53.2520147 37.7558589,53.0185316 37.7558589,53.0185316 C37.8906943,54.6651511 36.6556493,56 35.0005775,56 L25.9994225,56 C24.3428872,56 23.1513734,54.6606119 23.2573233,53.0086315 C23.2573233,53.0086315 23.5,53.8919708 23.5,39.5 C22.7298304,25.3802243 20.6986309,15.7919954 20.6986309,15.7919954 Z"/>
    <circle cx="30.5" cy="14.5" r="5.5" fill="#595959"/>
    <path fill="#B4DFFB" d="M27,56 L35,56 L35,57.5 C35,58.3284271 34.3316845,59 33.4952612,59 L28.5047388,59 C27.6736945,59 27,58.3342028 27,57.5 L27,56 Z"/>
    <path stroke="#979797" stroke-linecap="square" stroke-width="2" d="M31,60 L31,63"/>
    <circle cx="30.5" cy="26.5" r="1.5" fill="#595959"/>
    <circle cx="30.5" cy="31.5" r="1.5" fill="#595959"/>
  </g>
</svg>
