<svg xmlns="http://www.w3.org/2000/svg" width="64" height="64" viewBox="0 0 64 64">
  <g fill="none" fill-rule="evenodd">
    <rect width="54" height="18" x="18" y="22" fill="#595959" transform="rotate(-90 45 31)"/>
    <path stroke="#979797" stroke-linecap="square" stroke-width="2" d="M45,5 L45,57.0096145"/>
    <circle cx="45" cy="38" r="3" fill="#979797"/>
    <circle cx="45" cy="24" r="3" fill="#979797"/>
    <path stroke="#FCC24C" stroke-linecap="square" stroke-width="2" d="M49,8 L51,8"/>
    <path stroke="#E43535" stroke-linecap="square" stroke-width="2" d="M49,13 L51,13"/>
    <path fill="#D8D8D8" d="M32.1074028,54.3955983 C33.7078611,55.6473354 37.367911,63.043357 39.6176718,62.4405354 C42.1581737,61.75981 42.7690852,55.8018283 40.982181,49.1330108 C39.1952767,42.4641934 38.1392519,37.2975934 35.2909227,36.4474491 C34.194988,36.1203441 31.9663927,35.4510575 29.602784,36.8648292 C27.2391754,38.2786009 19.767385,38.2786009 17.4037764,36.8648292 C15.0401678,35.4510575 12.8115725,36.1203441 11.7156378,36.4474491 C8.86730856,37.2975934 7.81128371,42.4641934 6.02437946,49.1330108 C4.2374752,55.8018283 4.84838679,61.75981 7.38888868,62.4405354 C9.63864944,63.043357 13.2986993,55.6473354 14.8991577,54.3955983 C16.0076121,53.5286631 19.1630894,53.4411904 21.230341,53.4693382 L26.5878784,53.4654589 C28.5932201,53.4747841 31.1361419,53.6359638 32.1074028,54.3955983 Z"/>
    <path fill="#595959" d="M16,44 L16,41 L13,41 L13,44 L10,44 L10,47 L13,47 L13,50 L16,50 L16,47 L19,47 L19,44 L16,44 Z"/>
    <circle cx="32.5" cy="45.5" r="3.5" fill="#595959"/>
  </g>
</svg>
