<svg xmlns="http://www.w3.org/2000/svg" width="64" height="64" viewBox="0 0 64 64">
  <g fill="none" fill-rule="evenodd">
    <rect width="64" height="14" y="23" fill="#595959"/>
    <polygon fill="#979797" points="10 12 54 12 64 23 0 23"/>
    <circle cx="59" cy="30" r="2" fill="#979797"/>
    <path stroke="#979797" stroke-linecap="square" stroke-width="2" d="M4,30 L28.0208243,30"/>
    <path fill="#D8D8D8" d="M31.1074028,49.3955983 C32.7078611,50.6473354 36.367911,58.043357 38.6176718,57.4405354 C41.1581737,56.75981 41.7690852,50.8018283 39.982181,44.1330108 C38.1952767,37.4641934 37.1392519,32.2975934 34.2909227,31.4474491 C33.194988,31.1203441 30.9663927,30.4510575 28.602784,31.8648292 C26.2391754,33.2786009 18.767385,33.2786009 16.4037764,31.8648292 C14.0401678,30.4510575 11.8115725,31.1203441 10.7156378,31.4474491 C7.86730856,32.2975934 6.81128371,37.4641934 5.02437946,44.1330108 C3.2374752,50.8018283 3.84838679,56.75981 6.38888868,57.4405354 C8.63864944,58.043357 12.2986993,50.6473354 13.8991577,49.3955983 C15.0076121,48.5286631 18.1630894,48.4411904 20.230341,48.4693382 L25.5878784,48.4654589 C27.5932201,48.4747841 30.1361419,48.6359638 31.1074028,49.3955983 Z"/>
    <path fill="#595959" d="M15,39 L15,36 L12,36 L12,39 L9,39 L9,42 L12,42 L12,45 L15,45 L15,42 L18,42 L18,39 L15,39 Z"/>
    <circle cx="31.5" cy="40.5" r="3.5" fill="#595959"/>
  </g>
</svg>
