<svg xmlns="http://www.w3.org/2000/svg" width="64" height="64" viewBox="0 0 64 64">
  <g fill="none" fill-rule="evenodd">
    <rect width="58" height="58" x="3" y="4" fill="#FF78C7"/>
    <polygon fill="#0A3586" points="6 7 58 7 58 59 6 59"/>
    <path fill="#FF78C7" d="M36.08,46 C35.946666,48.2400112 34.8533436,49.36 32.8,49.36 C31.9733292,49.36 31.1466708,49.1666686 30.32,48.78 C29.4933292,48.3933314 28.9066684,47.9733356 28.56,47.52 C28.3466656,47.2266652 28.24,46.9333348 28.24,46.64 C28.24,46.4266656 28.3133326,46.153335 28.46,45.82 C28.6066674,45.486665 28.68,45.2400008 28.68,45.08 C28.68,44.9199992 28.6400004,44.773334 28.56,44.64 L23.76,36.4 L19.2,45.84 C19.0399992,46.1866684 19.0133328,46.6799968 19.12,47.32 C19.2266672,47.8000024 19.1200016,48.1999984 18.8,48.52 C18.3733312,48.9466688 17.693338,49.16 16.76,49.16 C15.6666612,49.16 14.6400048,48.893336 13.68,48.36 C12.6399948,47.826664 12.12,47.1733372 12.12,46.4 C12.12,46.2133324 12.1599996,46.0266676 12.24,45.84 C12.3466672,45.5199984 12.5733316,45.260001 12.92,45.06 C13.2666684,44.859999 13.4933328,44.6666676 13.6,44.48 L20.4,31.2 L13.92,19.2 C13.8399996,19.0399992 13.5933354,18.8733342 13.18,18.7 C12.7666646,18.5266658 12.5333336,18.2666684 12.48,17.92 C12.3999996,17.2266632 12.9733272,16.5733364 14.2,15.96 C15.3466724,15.3733304 16.4799944,15.08 17.6,15.08 C18.0266688,15.08 18.373332,15.146666 18.64,15.28 C19.0666688,15.4933344 19.3333328,15.93333 19.44,16.6 C19.6000008,17.533338 21.01332,20.66664 23.68,26 L26.96,18.72 C27.0666672,18.4799988 27.186666,17.9866704 27.32,17.24 C27.4266672,16.6533304 27.6266652,16.2133348 27.92,15.92 C28.3466688,15.519998 28.9999956,15.32 29.88,15.32 C30.9200052,15.32 31.8533292,15.5733308 32.68,16.08 C33.5866712,16.6666696 34.0000004,17.3866624 33.92,18.24 C33.8399996,18.9333368 33.5466692,19.413332 33.04,19.68 C32.3999968,19.9733348 32.0266672,20.2399988 31.92,20.48 L26.72,31.2 L34.32,43.92 C34.4000004,44.0800008 34.7599968,44.3733312 35.4,44.8 C35.8800024,45.0933348 36.1066668,45.4933308 36.08,46 Z M52.24,47.76 C51.9199984,48.4800036 50.9333416,48.84 49.28,48.84 C48.2399948,48.84 47.5466684,48.6266688 47.2,48.2 C47.066666,48.066666 47,47.8800012 47,47.64 C47,47.4533324 47.066666,47.160002 47.2,46.76 C47.333334,46.359998 47.4133332,46.0533344 47.44,45.84 C46.2133272,47.573342 44.7733416,48.44 43.12,48.44 C40.9066556,48.44 39.2933384,47.1866792 38.28,44.68 C37.5066628,42.7599904 37.12,40.266682 37.12,37.2 C37.12,34.3733192 37.719994,31.8000116 38.92,29.48 C40.25334,26.946654 41.8933236,25.68 43.84,25.68 C44.9333388,25.68 46.0533276,26.5599912 47.2,28.32 L47.2,23.16 C47.2,22.7333312 47.0266684,22.18667 46.68,21.52 C46.3333316,20.85333 46.16,20.3466684 46.16,20 C46.16,19.733332 46.226666,19.466668 46.36,19.2 C46.9200028,17.999994 48.0133252,17.4 49.64,17.4 C50.97334,17.4 51.7999984,17.8799952 52.12,18.84 C52.2266672,19.1600016 52.28,19.4666652 52.28,19.76 C52.28,20.0533348 52.1933342,20.4466642 52.02,20.94 C51.8466658,21.4333358 51.76,21.8533316 51.76,22.2 L51.76,45 C51.76,45.2933348 51.8666656,45.6466646 52.08,46.06 C52.2933344,46.4733354 52.4,46.813332 52.4,47.08 C52.4,47.2933344 52.3466672,47.5199988 52.24,47.76 Z M46.72,37.2 C46.72,35.9733272 46.4666692,34.5333416 45.96,32.88 C45.3999972,31.1199912 44.853336,30.24 44.32,30.24 C43.7066636,30.24 43.2133352,31.0533252 42.84,32.68 C42.5466652,34.01334 42.4,35.5199916 42.4,37.2 C42.4,37.4933348 42.3866668,37.97333 42.36,38.64 L42.36,40.12 C42.36,43.1333484 43.0133268,44.64 44.32,44.64 C44.9333364,44.64 45.4933308,43.773342 46,42.04 C46.4800024,40.439992 46.72,38.8266748 46.72,37.2 Z"/>
  </g>
</svg>
