<svg xmlns="http://www.w3.org/2000/svg" width="64" height="64" viewBox="0 0 64 64">
  <path fill="#D650C7" fill-rule="evenodd" d="M11.3465947,22 L2,22 L2,18 L29,18 L29,22 L21.1732812,22 L32.8899457,37.8423731 L43.7280742,27 L36,27 L36,23 L60,23 L57,27 L49.3678064,27 C49.3233697,27.055044 49.2755834,27.1082802 49.2244475,27.1594361 L35,41.3894545 L35,54 L44,54 L44,57 L17,57 L17,54 L25,54 L25,40.6280854 L11.7957911,22.7743691 C11.6139586,22.5285092 11.4644806,22.2686889 11.3465947,22 Z M55,32 L63,32 L59,50 L55,50 L55,32 Z M55,53 L59,53 L59,57 L55,57 L55,53 Z"/>
</svg>
