<svg xmlns="http://www.w3.org/2000/svg" width="64" height="64" viewBox="0 0 64 64">
  <g fill="none" fill-rule="evenodd">
    <path fill="#FD5A5A" d="M32.9776218 9.59665517C32.8566843 9.09762069 32.7038718 8.60975862 32.4301218 8.16658621 32.2969968 7.95151724 32.1404343 7.75506897 31.9219968 7.61727586 31.5760593 7.39941379 31.2104343 7.2187931 30.8157468 7.09868966 30.7023093 7.06424138 30.5879343 7.03258621 30.4735593 7L30.0057468 7C29.9954343 7.00837931 29.9851218 7.02234483 29.9729343 7.02513793 29.2773093 7.19272414 28.6163718 7.46086207 27.9469968 7.70386207 24.8429343 8.82668966 21.7398093 9.95137931 18.6366843 11.077 18.1041843 11.2697241 17.6391843 11.563 17.2557468 11.9763793 16.8526218 12.4111724 16.7373093 12.912069 16.8638718 13.4772069 16.9576218 13.8943103 17.1357468 14.2769655 17.3710593 14.6326207 17.5510593 14.9054138 17.7535593 15.1633103 17.9504343 15.424931 21.5851218 20.2597931 25.2198093 25.0937241 28.8563718 29.9267241 28.9107468 29.9984138 28.9660593 30.0719655 29.0335593 30.1315517 29.4076218 30.4592759 29.8323093 30.7087931 30.3235593 30.8233103 31.1326218 31.0123103 31.8685593 30.8866207 32.4226218 30.2330345 32.9391843 29.6232069 33.2204343 28.9016552 33.2166843 28.114 33.1923093 22.3518276 33.1510593 16.5905862 33.1201218 10.8284138 33.1182468 10.4103793 33.0751218 10.0016552 32.9776218 9.59665517L32.9776218 9.59665517zM13.8376218 29.8271034C13.5666843 29.8224483 13.2994968 29.8559655 13.0594968 29.9956207 12.6460593 30.2376897 12.3029343 30.5523793 12.0498093 30.9545862 11.9148093 31.1687241 11.8248093 31.3977586 11.8051218 31.6528621 11.7526218 32.3278621 11.6944968 33.001931 11.6382468 33.676931 11.5454343 34.7783448 11.4507468 35.8788276 11.3588718 36.9802414 11.2669968 38.0816552 11.1798093 39.183069 11.0860593 40.2844828 11.0776218 40.3850345 11.0382468 40.4837241 11.0129343 40.5833448L11.0129343 41.6195862C11.0401218 41.7322414 11.0691843 41.8448966 11.0954343 41.9575517 11.1544968 42.2061379 11.1938718 42.4593793 11.2744968 42.7005172 11.3926218 43.0552414 11.6588718 43.2693793 12.0273093 43.3662069 12.3910593 43.4621034 12.7585593 43.449069 13.1213718 43.3801724 13.4194968 43.3233793 13.7101218 43.2321379 14.0063718 43.1660345 14.6541843 43.0226552 15.3048093 42.8848621 15.9535593 42.7452069 19.6623093 41.9454483 23.3701218 41.1475517 27.0779343 40.344069 27.4979343 40.2528276 27.8654343 40.0424138 28.2019968 39.7863793 28.3951218 39.6392759 28.5188718 39.4353793 28.6107468 39.2147241 28.7157468 38.9624138 28.7551218 38.697069 28.7944968 38.4298621 28.8910593 37.7753448 28.6913718 37.2167241 28.2469968 36.7316552 27.9169968 36.3722759 27.5298093 36.0845862 27.0901218 35.8667241 23.2951218 33.9953448 19.5019968 32.1211724 15.7023093 30.2591034 15.1219968 29.9751379 14.4901218 29.8392069 13.8376218 29.8271034L13.8376218 29.8271034zM54.0263718 44.6687241C53.8463718 44.5905172 53.6551218 44.5355862 53.4676218 44.475069 53.3466843 44.4359655 53.2219968 44.4117586 53.1001218 44.3735862 48.8982468 43.0580345 44.6973093 41.7415517 40.4954343 40.4241379 40.0379343 40.2807586 39.5766843 40.2714483 39.1135593 40.3813103 38.3879343 40.5535517 37.8732468 41.0702759 37.7898093 41.7313103 37.7073093 42.3876897 37.8254343 43.018 38.1732468 43.5868621 40.3679343 47.1732069 42.5729343 50.7539655 44.7676218 54.3412414 45.0807468 54.8542414 45.4819968 55.2834483 45.9507468 55.6567931 46.1035593 55.7787586 46.2723093 55.8839655 46.4438718 55.978931 46.7419968 56.1446552 47.0607468 56.1995862 47.4057468 56.140931 47.9560593 56.0459655 48.4379343 55.8085517 48.8860593 55.4994483 48.9929343 55.4258966 49.0913718 55.3281379 49.1673093 55.2238621 50.8904343 52.8264483 52.6079343 50.4253103 54.3329343 48.0297586 54.6648093 47.5688966 54.8701218 47.0614828 55.0107468 46.5224138 55.0398093 46.4106897 55.0548093 46.2943103 55.0773093 46.1807241L55.0773093 45.7245172C54.9301218 45.178931 54.5185593 44.881931 54.0263718 44.6687241L54.0263718 44.6687241zM33.2551218 44.8428276C33.2626218 44.2637241 33.0544968 43.7432759 32.6466843 43.315 32.3073093 42.9584138 31.8835593 42.7582414 31.3782468 42.7992069 30.6498093 42.8587931 30.0160593 43.1613793 29.5304343 43.6790345 26.5969968 46.8091724 23.6766843 49.9514138 20.7591843 53.0945862 20.2819968 53.6085172 19.9707468 54.2211379 19.7879343 54.8924138 19.7241843 55.1279655 19.7016843 55.3700345 19.7757468 55.6093103 19.8713718 55.9221379 20.0026218 56.220069 20.2051218 56.4826207 20.4798093 56.8401379 20.8294968 57.1073448 21.2673093 57.2423448 24.0113718 58.0905172 26.7563718 58.9358966 29.5023093 59.7775517 29.8641843 59.8883448 30.2354343 59.973069 30.6019968 60.0689655L31.7063718 60.0689655C31.7532468 60.055 31.7982468 60.0354483 31.8460593 60.028931 32.4029343 59.9516552 32.7498093 59.6341724 32.9251218 59.1248966 33.0207468 58.8483793 33.0676218 58.5616207 33.0676218 58.2692759 33.0676218 57.9862414 33.0601218 57.7032069 33.0638718 57.4201724 33.0882468 55.7694483 33.1163718 54.1187241 33.1416843 52.468 33.1810593 49.9262759 33.2251218 47.3845517 33.2551218 44.8428276L33.2551218 44.8428276zM38.6607468 35.9328276C38.9213718 35.9905517 39.1904343 36.0082414 39.4763718 36.0473448 39.7219968 36.0082414 39.9863718 35.9914828 40.2348093 35.9216552 44.3766843 34.7457586 48.5166843 33.5624138 52.6576218 32.3818621 53.3213718 32.1928621 53.8969968 31.8511724 54.4248093 31.4238276 54.9019968 31.0374483 55.0707468 30.5346897 55.0182468 29.9472069 54.9816843 29.545931 54.8907468 29.1567586 54.7351218 28.7834138 54.6938718 28.6828621 54.6357468 28.5841724 54.5644968 28.5013103 52.9585593 26.6513448 51.3488718 24.8041724 49.7419968 22.9551379 49.2751218 22.417931 48.8166843 21.8732759 48.3544968 21.3323448 48.0957468 21.0297586 47.7826218 20.797931 47.4010593 20.661069 46.7869968 20.4413448 46.2198093 20.5176897 45.7023093 20.9161724 45.4557468 21.1061034 45.2466843 21.3304828 45.0723093 21.5846552 44.9701218 21.7336207 44.8782468 21.8891034 44.7798093 22.0408621 42.4182468 25.6663103 40.0585593 29.2917586 37.6951218 32.9153448 37.4410593 33.3054483 37.3126218 33.729069 37.2948093 34.1862069 37.2619968 35.0725517 37.7748093 35.7354483 38.6607468 35.9328276L38.6607468 35.9328276z"/>
  </g>
</svg>
