<svg xmlns="http://www.w3.org/2000/svg" width="64" height="64" viewBox="0 0 64 64">
  <path fill="#E43535" fill-rule="evenodd" d="M37.6875,49 L32,62 L26.3125,49 L6,49 L6,5 L58,5 L58,49 L37.6875,49 Z M41.7058241,36 C44.0676209,36 46,34.0258065 46,31.6129032 L46,21.3870968 C46,18.9741935 44.0676209,17 41.7058241,17 L23.2941759,17 C20.9323791,17 19,18.9741935 19,21.3870968 L19,31.6129032 C19,34.0258065 20.9323791,36 23.2941759,36 L41.7058241,36 Z M30.0481902,22.825566 L37.3998866,26.7506029 L30.0481902,30.940066 L30.0481902,22.825566 Z"/>
</svg>
