<svg xmlns="http://www.w3.org/2000/svg" width="64" height="64" viewBox="0 0 64 64">
  <path fill="#80D25B" fill-rule="evenodd" d="M47.8938306,7.539991 C48.5586617,12.8096892 44.7728494,15.7406016 41.9205095,18.9412859 C36.095054,25.48097 29.588965,32.0698073 24.005061,38.3602952 C32.9514978,38.9146995 41.6360656,50.5766215 50.2461363,44.4164473 C51.9934343,51.4156581 45.9964095,56.3355672 39.7488032,54.5706184 C36.0058831,53.5132494 33.0248662,50.5697629 29.7966541,48.5121801 C25.6575444,45.8784741 20.48789,44.2506975 14.2335113,45.1285995 C13.1250832,38.8346823 17.0237701,36.1689695 20.0239756,32.8368285 C24.8222727,27.5088321 29.7357019,21.688159 34.0339647,15.84691 C29.1634279,15.84691 21.2847844,16.6676569 20.5093362,13.7744669 C19.8456339,11.288221 22.7216774,8.18127098 24.0061898,6.82555253 C29.9151724,9.57242557 40.9125398,8.77454069 47.8938306,7.539991 L47.8938306,7.539991 Z"/>
</svg>
