<svg xmlns="http://www.w3.org/2000/svg" width="64" height="64" viewBox="0 0 64 64">
  <g fill="none" fill-rule="evenodd">
    <rect width="5" height="8" y="27" fill="#D8D8D8"/>
    <path fill="#979797" d="M5,18.9912443 C5,17.8915104 5.90195036,17 7.0085302,17 L17,17 L17,45 L7.0085302,45 C5.8992496,45 5,44.1001025 5,43.0087557 L5,18.9912443 Z"/>
    <path fill="#595959" d="M17,14.0028592 C17,12.8967106 17.9019504,12 19.0085302,12 L29,12 L29,50 L19.0085302,50 C17.8992496,50 17,49.0981492 17,47.9971408 L17,14.0028592 Z"/>
    <path fill="#979797" d="M29,9.00138927 C29,7.8960525 29.9019504,7 31.0085302,7 L41,7 L41,55 L31.0085302,55 C29.8992496,55 29,54.1050616 29,52.9986107 L29,9.00138927 Z"/>
    <rect width="23" height="16" x="41" y="23" fill="#D8D8D8"/>
    <path stroke="#979797" stroke-linecap="square" stroke-width="2" d="M46 24L46 30M51 24L51 33M56 24L56 27M56 30L56 31"/>
    <path stroke="#D8D8D8" stroke-linecap="square" stroke-width="2" d="M18 21L22 21M30 25L34 25M30 32L34 32M30 39L34 39M30 46L34 46M30 18L34 18M18 28L22 28M6 23L10 23M6 30L10 30M6 37L10 37M18 35L22 35M18 42L22 42"/>
  </g>
</svg>
