<svg xmlns="http://www.w3.org/2000/svg" width="64" height="64" viewBox="0 0 64 64">
  <g fill="none" fill-rule="evenodd">
    <path fill="#595959" d="M31.933042,61 C15.9167842,61 2.93304199,48.0162577 2.93304199,32 C2.93304199,15.9837423 15.9167842,3 31.933042,3 C47.9492997,3 60.933042,15.9837423 60.933042,32 C60.933042,48.0162577 47.9492997,61 31.933042,61 Z M31.933042,39.033479 C35.8175252,39.033479 38.966521,35.8844832 38.966521,32 C38.966521,28.1155168 35.8175252,24.966521 31.933042,24.966521 C28.0485588,24.966521 24.899563,28.1155168 24.899563,32 C24.899563,35.8844832 28.0485588,39.033479 31.933042,39.033479 Z"/>
    <path stroke="#979797" stroke-linecap="round" stroke-width="2" d="M5.93304199,32 C5.93304199,46.3594035 17.5736385,58 31.933042,58 L31.933042,58 M57.933042,32 C57.933042,17.6405965 46.2924455,6 31.933042,6"/>
    <text fill="#FFF" font-family="MarkerFelt-Thin, Marker Felt" font-size="12" font-weight="300">
      <tspan x="25.16" y="21">10</tspan>
    </text>
    <text fill="#FFF" font-family="MarkerFelt-Thin, Marker Felt" font-size="12" font-weight="300">
      <tspan x="26.7" y="52">KG</tspan>
    </text>
  </g>
</svg>
