<svg xmlns="http://www.w3.org/2000/svg" xmlns:xlink="http://www.w3.org/1999/xlink" width="64" height="64" viewBox="0 0 64 64">
  <defs>
    <circle id="chop-a" cx="16" cy="16" r="16"/>
  </defs>
  <g fill="none" fill-rule="evenodd">
    <rect width="4" height="3" x="17" y="12" fill="#595959"/>
    <path stroke="#595959" stroke-linecap="square" stroke-width="2" d="M19,45 L19,50"/>
    <g transform="translate(3 14)">
      <mask id="chop-b" fill="#fff">
        <use xlink:href="#chop-a"/>
      </mask>
      <use fill="#E43535" xlink:href="#chop-a"/>
      <rect width="19" height="17" x="-3" y="-2" fill="#B4DFFB" mask="url(#chop-b)"/>
    </g>
    <rect width="6" height="2" x="13" y="30" fill="#D8D8D8"/>
    <ellipse cx="19" cy="10" fill="#FFDD95" rx="19" ry="2"/>
    <polygon fill="#E43535" points="26 22 57 22 57 26 26 35"/>
    <polyline stroke="#595959" stroke-linecap="round" stroke-width="2" points="8.744 50.07 28.499 50.07 33.331 46.758"/>
    <circle cx="57" cy="24" r="3" fill="#0A3586"/>
    <path fill="#595959" d="M57,23.0670574 C55.8954305,23.0670574 55,19.1045695 55,18 C55,16.8954305 55.8954305,16 57,16 C58.1045695,16 59,16.8954305 59,18 C59,19.1045695 58.1045695,23.0670574 57,23.0670574 Z M57.9329426,24 C57.9329426,22.8954305 61.8954305,22 63,22 C64.1045695,22 65,22.8954305 65,24 C65,25.1045695 64.1045695,26 63,26 C61.8954305,26 57.9329426,25.1045695 57.9329426,24 Z M57,24.9329426 C58.1045695,24.9329426 59,28.8954305 59,30 C59,31.1045695 58.1045695,32 57,32 C55.8954305,32 55,31.1045695 55,30 C55,28.8954305 55.8954305,24.9329426 57,24.9329426 Z M56.0670574,24 C56.0670574,25.1045695 52.1045695,26 51,26 C49.8954305,26 49,25.1045695 49,24 C49,22.8954305 49.8954305,22 51,22 C52.1045695,22 56.0670574,22.8954305 56.0670574,24 Z" transform="rotate(-45 57 24)"/>
  </g>
</svg>
