<svg xmlns="http://www.w3.org/2000/svg" viewBox="0 0 512 512">

<!--    <rect fill="red" x="10" y="10" width="100" height="100"-->
<!--        rx="10" ry="10"-->
<!--        stroke-width="10" stroke="black"-->
<!--        transform="matrix(3 1 -1 3 30 40)"/>-->

<!--    <circle cx="10" cy="10" r="2" fill="red"/>-->

<!--    <path d="M300,200 h-150 a150,150 0 1,0 150,-150 z"-->
<!--        fill="red" stroke="blue" stroke-width="5" />-->
    <path d="M275,175 v-150 a150,150 0 0,0 -150,150 z"
        fill="yellow" stroke="blue" stroke-width="5" />

<!--    <path d="M600,350 l 50,-25-->
<!--           a25,25 -30 0,1 50,-25 l 50,-25-->
<!--           a25,50 -30 0,1 50,-25 l 50,-25-->
<!--           a25,75 -30 0,1 50,-25 l 50,-25-->
<!--           a25,100 -30 0,1 50,-25 l 50,-25"-->
<!--        fill="none" stroke="red" stroke-width="5"  />-->
</svg>

